<?xml version="1.0" encoding="UTF-8" standalone="no"?>
<!-- Created with PhysiCell (http://PhysiCell.MathCancer.org/) -->
<svg 
 xmlns:dc="http://purl.org/dc/elements/1.1/" 
 xmlns:cc="http://creativecommons.org/ns#" 
 xmlns:rdf="http://www.w3.org/1999/02/22-rdf-syntax-ns#" 
 xmlns:svg="http://www.w3.org/2000/svg" 
 xmlns="http://www.w3.org/2000/svg" 
 version="1.1" 
 width="1000" 
 height="1070" 
 id="svg2">
  <rect x="0" y="0" width="1000" height="1070" stroke-width="2" stroke="white" fill="white"/>
  <text x="12.5" y="30"
   font-family="Arial" font-size="25" fill="black" >
   Current time: 0 days, 11 hours, and 33.00 minutes, z = 0.00 &#956;m
  </text>
  <text x="12.5" y="57.5"
   font-family="Arial" font-size="23.75" fill="black" >
   110 agents
  </text>
 <g id="tissue" 
    transform="translate(0,1070) scale(1,-1)">
  <g id="ECM">
  </g>
  <g id="cells">
   <g id="cell0">
  <circle cx="516.4" cy="533.755" r="8.1218" stroke-width="0.5" stroke="black" fill="magenta"/>
  <circle cx="516.4" cy="533.755" r="4.91457" stroke-width="0.5" stroke="black" fill="magenta"/>
   </g>
   <g id="cell1">
  <circle cx="602.492" cy="526.171" r="8.41271" stroke-width="0.5" stroke="black" fill="magenta"/>
  <circle cx="602.492" cy="526.171" r="5.05167" stroke-width="0.5" stroke="black" fill="magenta"/>
   </g>
   <g id="cell2">
  <circle cx="514.392" cy="599.602" r="8.41271" stroke-width="0.5" stroke="black" fill="magenta"/>
  <circle cx="514.392" cy="599.602" r="5.05167" stroke-width="0.5" stroke="black" fill="magenta"/>
   </g>
   <g id="cell3">
  <circle cx="523.818" cy="546.011" r="7.9271" stroke-width="0.5" stroke="black" fill="magenta"/>
  <circle cx="523.818" cy="546.011" r="4.81873" stroke-width="0.5" stroke="black" fill="magenta"/>
   </g>
   <g id="cell4">
  <circle cx="489.521" cy="437.58" r="8.29667" stroke-width="0.5" stroke="black" fill="magenta"/>
  <circle cx="489.521" cy="437.58" r="5.00279" stroke-width="0.5" stroke="black" fill="magenta"/>
   </g>
   <g id="cell5">
  <circle cx="465.032" cy="493.3" r="8.41271" stroke-width="0.5" stroke="black" fill="magenta"/>
  <circle cx="465.032" cy="493.3" r="5.05167" stroke-width="0.5" stroke="black" fill="magenta"/>
   </g>
   <g id="cell6">
  <circle cx="595.637" cy="512.669" r="8.41271" stroke-width="0.5" stroke="black" fill="magenta"/>
  <circle cx="595.637" cy="512.669" r="5.05167" stroke-width="0.5" stroke="black" fill="magenta"/>
   </g>
   <g id="cell7">
  <circle cx="509.205" cy="461.613" r="8.41271" stroke-width="0.5" stroke="black" fill="magenta"/>
  <circle cx="509.205" cy="461.613" r="5.05167" stroke-width="0.5" stroke="black" fill="magenta"/>
   </g>
   <g id="cell8">
  <circle cx="376.411" cy="544.078" r="8.41271" stroke-width="0.5" stroke="black" fill="magenta"/>
  <circle cx="376.411" cy="544.078" r="5.05167" stroke-width="0.5" stroke="black" fill="magenta"/>
   </g>
   <g id="cell9">
  <circle cx="460.472" cy="599.786" r="8.41271" stroke-width="0.5" stroke="black" fill="magenta"/>
  <circle cx="460.472" cy="599.786" r="5.05167" stroke-width="0.5" stroke="black" fill="magenta"/>
   </g>
   <g id="cell10">
  <circle cx="583.447" cy="392.105" r="8.41271" stroke-width="0.5" stroke="black" fill="magenta"/>
  <circle cx="583.447" cy="392.105" r="5.05167" stroke-width="0.5" stroke="black" fill="magenta"/>
   </g>
   <g id="cell11">
  <circle cx="588.957" cy="590.519" r="8.41271" stroke-width="0.5" stroke="black" fill="magenta"/>
  <circle cx="588.957" cy="590.519" r="5.05167" stroke-width="0.5" stroke="black" fill="magenta"/>
   </g>
   <g id="cell12">
  <circle cx="506.909" cy="586.287" r="8.41271" stroke-width="0.5" stroke="black" fill="magenta"/>
  <circle cx="506.909" cy="586.287" r="5.05167" stroke-width="0.5" stroke="black" fill="magenta"/>
   </g>
   <g id="cell13">
  <circle cx="386.194" cy="568.228" r="8.41271" stroke-width="0.5" stroke="black" fill="magenta"/>
  <circle cx="386.194" cy="568.228" r="5.05167" stroke-width="0.5" stroke="black" fill="magenta"/>
   </g>
   <g id="cell14">
  <circle cx="528.608" cy="399.157" r="8.41271" stroke-width="0.5" stroke="black" fill="magenta"/>
  <circle cx="528.608" cy="399.157" r="5.05167" stroke-width="0.5" stroke="black" fill="magenta"/>
   </g>
   <g id="cell15">
  <circle cx="379.65" cy="475.1" r="8.41271" stroke-width="0.5" stroke="black" fill="magenta"/>
  <circle cx="379.65" cy="475.1" r="5.05167" stroke-width="0.5" stroke="black" fill="magenta"/>
   </g>
   <g id="cell16">
  <circle cx="428.96" cy="413.216" r="8.41271" stroke-width="0.5" stroke="black" fill="magenta"/>
  <circle cx="428.96" cy="413.216" r="5.05167" stroke-width="0.5" stroke="black" fill="magenta"/>
   </g>
   <g id="cell17">
  <circle cx="570.446" cy="489.874" r="8.41271" stroke-width="0.5" stroke="black" fill="magenta"/>
  <circle cx="570.446" cy="489.874" r="5.05167" stroke-width="0.5" stroke="black" fill="magenta"/>
   </g>
   <g id="cell18">
  <circle cx="517.427" cy="388.943" r="8.41271" stroke-width="0.5" stroke="black" fill="magenta"/>
  <circle cx="517.427" cy="388.943" r="5.05167" stroke-width="0.5" stroke="black" fill="magenta"/>
   </g>
   <g id="cell19">
  <circle cx="456.562" cy="543.923" r="8.06667" stroke-width="0.5" stroke="black" fill="magenta"/>
  <circle cx="456.562" cy="543.923" r="4.88515" stroke-width="0.5" stroke="black" fill="magenta"/>
   </g>
   <g id="cell20">
  <circle cx="531.161" cy="414.083" r="8.41271" stroke-width="0.5" stroke="black" fill="magenta"/>
  <circle cx="531.161" cy="414.083" r="5.05167" stroke-width="0.5" stroke="black" fill="magenta"/>
   </g>
   <g id="cell21">
  <circle cx="464.368" cy="634.574" r="8.41271" stroke-width="0.5" stroke="black" fill="magenta"/>
  <circle cx="464.368" cy="634.574" r="5.05167" stroke-width="0.5" stroke="black" fill="magenta"/>
   </g>
   <g id="cell22">
  <circle cx="557.533" cy="498.011" r="8.41271" stroke-width="0.5" stroke="black" fill="magenta"/>
  <circle cx="557.533" cy="498.011" r="5.05167" stroke-width="0.5" stroke="black" fill="magenta"/>
   </g>
   <g id="cell23">
  <circle cx="541.759" cy="485.156" r="8.41271" stroke-width="0.5" stroke="black" fill="magenta"/>
  <circle cx="541.759" cy="485.156" r="5.05167" stroke-width="0.5" stroke="black" fill="magenta"/>
   </g>
   <g id="cell24">
  <circle cx="559.282" cy="379.803" r="8.41271" stroke-width="0.5" stroke="black" fill="magenta"/>
  <circle cx="559.282" cy="379.803" r="5.05167" stroke-width="0.5" stroke="black" fill="magenta"/>
   </g>
   <g id="cell25">
  <circle cx="645.617" cy="545.308" r="8.23444" stroke-width="0.5" stroke="black" fill="green"/>
  <circle cx="645.617" cy="545.308" r="4.97252" stroke-width="0.5" stroke="black" fill="green"/>
   </g>
   <g id="cell26">
  <circle cx="551.054" cy="401.239" r="8.41271" stroke-width="0.5" stroke="black" fill="green"/>
  <circle cx="551.054" cy="401.239" r="5.05167" stroke-width="0.5" stroke="black" fill="green"/>
   </g>
   <g id="cell27">
  <circle cx="463.578" cy="390.237" r="8.3031" stroke-width="0.5" stroke="black" fill="green"/>
  <circle cx="463.578" cy="390.237" r="5.00583" stroke-width="0.5" stroke="black" fill="green"/>
   </g>
   <g id="cell28">
  <circle cx="433.752" cy="530.731" r="8.41271" stroke-width="0.5" stroke="black" fill="green"/>
  <circle cx="433.752" cy="530.731" r="5.05167" stroke-width="0.5" stroke="black" fill="green"/>
   </g>
   <g id="cell29">
  <circle cx="450.417" cy="516.371" r="8.41271" stroke-width="0.5" stroke="black" fill="green"/>
  <circle cx="450.417" cy="516.371" r="5.05167" stroke-width="0.5" stroke="black" fill="green"/>
   </g>
   <g id="cell30">
  <circle cx="481.049" cy="534.756" r="7.96365" stroke-width="0.5" stroke="black" fill="green"/>
  <circle cx="481.049" cy="534.756" r="4.82873" stroke-width="0.5" stroke="black" fill="green"/>
   </g>
   <g id="cell31">
  <circle cx="412.757" cy="541.193" r="8.41271" stroke-width="0.5" stroke="black" fill="green"/>
  <circle cx="412.757" cy="541.193" r="5.05167" stroke-width="0.5" stroke="black" fill="green"/>
   </g>
   <g id="cell32">
  <circle cx="421.85" cy="481.139" r="7.79564" stroke-width="0.5" stroke="black" fill="green"/>
  <circle cx="421.85" cy="481.139" r="4.73359" stroke-width="0.5" stroke="black" fill="green"/>
   </g>
   <g id="cell33">
  <circle cx="497.912" cy="424.674" r="8.41271" stroke-width="0.5" stroke="black" fill="green"/>
  <circle cx="497.912" cy="424.674" r="5.05167" stroke-width="0.5" stroke="black" fill="green"/>
   </g>
   <g id="cell34">
  <circle cx="397.088" cy="450.831" r="8.41271" stroke-width="0.5" stroke="black" fill="green"/>
  <circle cx="397.088" cy="450.831" r="5.05167" stroke-width="0.5" stroke="black" fill="green"/>
   </g>
   <g id="cell35">
  <circle cx="551.639" cy="541.262" r="8.41271" stroke-width="0.5" stroke="black" fill="green"/>
  <circle cx="551.639" cy="541.262" r="5.05167" stroke-width="0.5" stroke="black" fill="green"/>
   </g>
   <g id="cell36">
  <circle cx="391.486" cy="582.903" r="8.41271" stroke-width="0.5" stroke="black" fill="green"/>
  <circle cx="391.486" cy="582.903" r="5.05167" stroke-width="0.5" stroke="black" fill="green"/>
   </g>
   <g id="cell37">
  <circle cx="639.707" cy="457.304" r="8.28629" stroke-width="0.5" stroke="black" fill="green"/>
  <circle cx="639.707" cy="457.304" r="4.99786" stroke-width="0.5" stroke="black" fill="green"/>
   </g>
   <g id="cell38">
  <circle cx="529.758" cy="597.336" r="8.26262" stroke-width="0.5" stroke="black" fill="green"/>
  <circle cx="529.758" cy="597.336" r="4.98642" stroke-width="0.5" stroke="black" fill="green"/>
   </g>
   <g id="cell39">
  <circle cx="613.458" cy="490.595" r="8.41271" stroke-width="0.5" stroke="black" fill="green"/>
  <circle cx="613.458" cy="490.595" r="5.05167" stroke-width="0.5" stroke="black" fill="green"/>
   </g>
   <g id="cell40">
  <circle cx="485.348" cy="571.779" r="8.41271" stroke-width="0.5" stroke="black" fill="green"/>
  <circle cx="485.348" cy="571.779" r="5.05167" stroke-width="0.5" stroke="black" fill="green"/>
   </g>
   <g id="cell41">
  <circle cx="364.925" cy="480.252" r="8.41271" stroke-width="0.5" stroke="black" fill="green"/>
  <circle cx="364.925" cy="480.252" r="5.05167" stroke-width="0.5" stroke="black" fill="green"/>
   </g>
   <g id="cell42">
  <circle cx="438.842" cy="494.268" r="8.41271" stroke-width="0.5" stroke="black" fill="green"/>
  <circle cx="438.842" cy="494.268" r="5.05167" stroke-width="0.5" stroke="black" fill="green"/>
   </g>
   <g id="cell43">
  <circle cx="558.515" cy="442.458" r="8.41271" stroke-width="0.5" stroke="black" fill="green"/>
  <circle cx="558.515" cy="442.458" r="5.05167" stroke-width="0.5" stroke="black" fill="green"/>
   </g>
   <g id="cell44">
  <circle cx="475.857" cy="624.021" r="8.41271" stroke-width="0.5" stroke="black" fill="green"/>
  <circle cx="475.857" cy="624.021" r="5.05167" stroke-width="0.5" stroke="black" fill="green"/>
   </g>
   <g id="cell45">
  <circle cx="414.953" cy="557.066" r="8.41271" stroke-width="0.5" stroke="black" fill="green"/>
  <circle cx="414.953" cy="557.066" r="5.05167" stroke-width="0.5" stroke="black" fill="green"/>
   </g>
   <g id="cell46">
  <circle cx="524.105" cy="610.763" r="7.3599" stroke-width="0.5" stroke="black" fill="green"/>
  <circle cx="524.105" cy="610.763" r="4.47294" stroke-width="0.5" stroke="black" fill="green"/>
   </g>
   <g id="cell47">
  <circle cx="504.438" cy="503.222" r="7.75912" stroke-width="0.5" stroke="black" fill="green"/>
  <circle cx="504.438" cy="503.222" r="4.71248" stroke-width="0.5" stroke="black" fill="green"/>
   </g>
   <g id="cell48">
  <circle cx="568.608" cy="601.386" r="5.79448" stroke-width="0.5" stroke="black" fill="green"/>
  <circle cx="568.608" cy="601.386" r="3.53652" stroke-width="0.5" stroke="black" fill="green"/>
   </g>
   <g id="cell49">
  <circle cx="429.829" cy="397.64" r="8.41271" stroke-width="0.5" stroke="black" fill="green"/>
  <circle cx="429.829" cy="397.64" r="5.05167" stroke-width="0.5" stroke="black" fill="green"/>
   </g>
   <g id="cell50">
  <circle cx="518.959" cy="518.949" r="8.14594" stroke-width="0.5" stroke="black" fill="cyan"/>
  <circle cx="518.959" cy="518.949" r="4.92726" stroke-width="0.5" stroke="black" fill="cyan"/>
   </g>
   <g id="cell51">
  <circle cx="398.721" cy="597.201" r="8.41271" stroke-width="0.5" stroke="black" fill="cyan"/>
  <circle cx="398.721" cy="597.201" r="5.05167" stroke-width="0.5" stroke="black" fill="cyan"/>
   </g>
   <g id="cell52">
  <circle cx="519.34" cy="424.261" r="8.41271" stroke-width="0.5" stroke="black" fill="cyan"/>
  <circle cx="519.34" cy="424.261" r="5.05167" stroke-width="0.5" stroke="black" fill="cyan"/>
   </g>
   <g id="cell53">
  <circle cx="572.861" cy="430.077" r="7.51976" stroke-width="0.5" stroke="black" fill="cyan"/>
  <circle cx="572.861" cy="430.077" r="4.57072" stroke-width="0.5" stroke="black" fill="cyan"/>
   </g>
   <g id="cell54">
  <circle cx="482.415" cy="424.192" r="7.87851" stroke-width="0.5" stroke="black" fill="cyan"/>
  <circle cx="482.415" cy="424.192" r="4.78096" stroke-width="0.5" stroke="black" fill="cyan"/>
   </g>
   <g id="cell55">
  <circle cx="523.814" cy="462.768" r="7.55147" stroke-width="0.5" stroke="black" fill="cyan"/>
  <circle cx="523.814" cy="462.768" r="4.60323" stroke-width="0.5" stroke="black" fill="cyan"/>
   </g>
   <g id="cell56">
  <circle cx="617.613" cy="522.333" r="8.41271" stroke-width="0.5" stroke="black" fill="cyan"/>
  <circle cx="617.613" cy="522.333" r="5.05167" stroke-width="0.5" stroke="black" fill="cyan"/>
   </g>
   <g id="cell105">
  <circle cx="510.682" cy="613.798" r="7.3599" stroke-width="0.5" stroke="black" fill="green"/>
  <circle cx="510.682" cy="613.798" r="4.47294" stroke-width="0.5" stroke="black" fill="green"/>
   </g>
   <g id="cell58">
  <circle cx="556.875" cy="482.545" r="8.41271" stroke-width="0.5" stroke="black" fill="cyan"/>
  <circle cx="556.875" cy="482.545" r="5.05167" stroke-width="0.5" stroke="black" fill="cyan"/>
   </g>
   <g id="cell59">
  <circle cx="385.463" cy="439.803" r="8.41271" stroke-width="0.5" stroke="black" fill="cyan"/>
  <circle cx="385.463" cy="439.803" r="5.05167" stroke-width="0.5" stroke="black" fill="cyan"/>
   </g>
   <g id="cell60">
  <circle cx="592.955" cy="473.663" r="8.41271" stroke-width="0.5" stroke="black" fill="cyan"/>
  <circle cx="592.955" cy="473.663" r="5.05167" stroke-width="0.5" stroke="black" fill="cyan"/>
   </g>
   <g id="cell61">
  <circle cx="553.202" cy="618.783" r="8.41271" stroke-width="0.5" stroke="black" fill="cyan"/>
  <circle cx="553.202" cy="618.783" r="5.05167" stroke-width="0.5" stroke="black" fill="cyan"/>
   </g>
   <g id="cell62">
  <circle cx="518.431" cy="448.972" r="8.30618" stroke-width="0.5" stroke="black" fill="cyan"/>
  <circle cx="518.431" cy="448.972" r="5.00727" stroke-width="0.5" stroke="black" fill="cyan"/>
   </g>
   <g id="cell63">
  <circle cx="574.24" cy="541.163" r="8.09544" stroke-width="0.5" stroke="black" fill="cyan"/>
  <circle cx="574.24" cy="541.163" r="4.90058" stroke-width="0.5" stroke="black" fill="cyan"/>
   </g>
   <g id="cell64">
  <circle cx="509.962" cy="636.825" r="8.41271" stroke-width="0.5" stroke="black" fill="cyan"/>
  <circle cx="509.962" cy="636.825" r="5.05167" stroke-width="0.5" stroke="black" fill="cyan"/>
   </g>
   <g id="cell65">
  <circle cx="546.749" cy="470.795" r="8.05651" stroke-width="0.5" stroke="black" fill="cyan"/>
  <circle cx="546.749" cy="470.795" r="4.87966" stroke-width="0.5" stroke="black" fill="cyan"/>
   </g>
   <g id="cell66">
  <circle cx="530.932" cy="532.791" r="7.84675" stroke-width="0.5" stroke="black" fill="cyan"/>
  <circle cx="530.932" cy="532.791" r="4.7629" stroke-width="0.5" stroke="black" fill="cyan"/>
   </g>
   <g id="cell67">
  <circle cx="354.711" cy="492.599" r="8.41271" stroke-width="0.5" stroke="black" fill="cyan"/>
  <circle cx="354.711" cy="492.599" r="5.05167" stroke-width="0.5" stroke="black" fill="cyan"/>
   </g>
   <g id="cell68">
  <circle cx="562.639" cy="552.371" r="8.41271" stroke-width="0.5" stroke="black" fill="cyan"/>
  <circle cx="562.639" cy="552.371" r="5.05167" stroke-width="0.5" stroke="black" fill="cyan"/>
   </g>
   <g id="cell69">
  <circle cx="441.786" cy="461.114" r="8.41271" stroke-width="0.5" stroke="black" fill="cyan"/>
  <circle cx="441.786" cy="461.114" r="5.05167" stroke-width="0.5" stroke="black" fill="cyan"/>
   </g>
   <g id="cell70">
  <circle cx="577.024" cy="475.643" r="8.41271" stroke-width="0.5" stroke="black" fill="cyan"/>
  <circle cx="577.024" cy="475.643" r="5.05167" stroke-width="0.5" stroke="black" fill="cyan"/>
   </g>
   <g id="cell71">
  <circle cx="379.795" cy="524.782" r="6.67717" stroke-width="0.5" stroke="black" fill="cyan"/>
  <circle cx="379.795" cy="524.782" r="4.00951" stroke-width="0.5" stroke="black" fill="cyan"/>
   </g>
   <g id="cell72">
  <circle cx="532.251" cy="511.737" r="7.89373" stroke-width="0.5" stroke="black" fill="cyan"/>
  <circle cx="532.251" cy="511.737" r="4.78957" stroke-width="0.5" stroke="black" fill="cyan"/>
   </g>
   <g id="cell73">
  <circle cx="363.752" cy="552.709" r="8.13008" stroke-width="0.5" stroke="black" fill="cyan"/>
  <circle cx="363.752" cy="552.709" r="4.91894" stroke-width="0.5" stroke="black" fill="cyan"/>
   </g>
   <g id="cell74">
  <circle cx="542.646" cy="444.738" r="8.41271" stroke-width="0.5" stroke="black" fill="cyan"/>
  <circle cx="542.646" cy="444.738" r="5.05167" stroke-width="0.5" stroke="black" fill="cyan"/>
   </g>
   <g id="cell75">
  <circle cx="528.791" cy="437.026" r="8.30618" stroke-width="0.5" stroke="black" fill="cyan"/>
  <circle cx="528.791" cy="437.026" r="5.00727" stroke-width="0.5" stroke="black" fill="cyan"/>
   </g>
   <g id="cell76">
  <circle cx="442.391" cy="382.949" r="6.57889" stroke-width="0.5" stroke="black" fill="green"/>
  <circle cx="442.391" cy="382.949" r="4.04144" stroke-width="0.5" stroke="black" fill="green"/>
   </g>
   <g id="cell77">
  <circle cx="475.909" cy="436.325" r="7.10155" stroke-width="0.5" stroke="black" fill="magenta"/>
  <circle cx="475.909" cy="436.325" r="4.32578" stroke-width="0.5" stroke="black" fill="magenta"/>
   </g>
   <g id="cell78">
  <circle cx="624.72" cy="461.16" r="7.98803" stroke-width="0.5" stroke="black" fill="green"/>
  <circle cx="624.72" cy="461.16" r="4.8503" stroke-width="0.5" stroke="black" fill="green"/>
   </g>
   <g id="cell79">
  <circle cx="516.126" cy="475.591" r="8.27097" stroke-width="0.5" stroke="black" fill="cyan"/>
  <circle cx="516.126" cy="475.591" r="4.99048" stroke-width="0.5" stroke="black" fill="cyan"/>
   </g>
   <g id="cell80">
  <circle cx="538.828" cy="611.93" r="8.18104" stroke-width="0.5" stroke="black" fill="green"/>
  <circle cx="538.828" cy="611.93" r="4.95068" stroke-width="0.5" stroke="black" fill="green"/>
   </g>
   <g id="cell81">
  <circle cx="545.214" cy="597.735" r="8.18104" stroke-width="0.5" stroke="black" fill="green"/>
  <circle cx="545.214" cy="597.735" r="4.95068" stroke-width="0.5" stroke="black" fill="green"/>
   </g>
   <g id="cell82">
  <circle cx="532.079" cy="558.196" r="8.23444" stroke-width="0.5" stroke="black" fill="magenta"/>
  <circle cx="532.079" cy="558.196" r="4.97252" stroke-width="0.5" stroke="black" fill="magenta"/>
   </g>
   <g id="cell83">
  <circle cx="634.595" cy="556.443" r="8.23444" stroke-width="0.5" stroke="black" fill="green"/>
  <circle cx="634.595" cy="556.443" r="4.97252" stroke-width="0.5" stroke="black" fill="green"/>
   </g>
   <g id="cell84">
  <circle cx="519.366" cy="503.534" r="8.14594" stroke-width="0.5" stroke="black" fill="cyan"/>
  <circle cx="519.366" cy="503.534" r="4.92726" stroke-width="0.5" stroke="black" fill="cyan"/>
   </g>
   <g id="cell85">
  <circle cx="353.315" cy="542.098" r="7.57522" stroke-width="0.5" stroke="black" fill="cyan"/>
  <circle cx="353.315" cy="542.098" r="4.62336" stroke-width="0.5" stroke="black" fill="cyan"/>
   </g>
   <g id="cell86">
  <circle cx="505.087" cy="524.791" r="8.1218" stroke-width="0.5" stroke="black" fill="magenta"/>
  <circle cx="505.087" cy="524.791" r="4.91457" stroke-width="0.5" stroke="black" fill="magenta"/>
   </g>
   <g id="cell87">
  <circle cx="577.086" cy="555.36" r="7.21346" stroke-width="0.5" stroke="black" fill="cyan"/>
  <circle cx="577.086" cy="555.36" r="4.40987" stroke-width="0.5" stroke="black" fill="cyan"/>
   </g>
   <g id="cell88">
  <circle cx="448.992" cy="531.563" r="8.06667" stroke-width="0.5" stroke="black" fill="magenta"/>
  <circle cx="448.992" cy="531.563" r="4.88515" stroke-width="0.5" stroke="black" fill="magenta"/>
   </g>
   <g id="cell89">
  <circle cx="552.525" cy="456.817" r="8.05651" stroke-width="0.5" stroke="black" fill="cyan"/>
  <circle cx="552.525" cy="456.817" r="4.87966" stroke-width="0.5" stroke="black" fill="cyan"/>
   </g>
   <g id="cell90">
  <circle cx="630.873" cy="475.034" r="7.98803" stroke-width="0.5" stroke="black" fill="green"/>
  <circle cx="630.873" cy="475.034" r="4.8503" stroke-width="0.5" stroke="black" fill="green"/>
   </g>
   <g id="cell91">
  <circle cx="546.524" cy="555.589" r="7.68523" stroke-width="0.5" stroke="black" fill="magenta"/>
  <circle cx="546.524" cy="555.589" r="4.69382" stroke-width="0.5" stroke="black" fill="magenta"/>
   </g>
   <g id="cell92">
  <circle cx="482.497" cy="549.815" r="7.96365" stroke-width="0.5" stroke="black" fill="green"/>
  <circle cx="482.497" cy="549.815" r="4.82873" stroke-width="0.5" stroke="black" fill="green"/>
   </g>
   <g id="cell93">
  <circle cx="537.614" cy="545.209" r="7.68523" stroke-width="0.5" stroke="black" fill="magenta"/>
  <circle cx="537.614" cy="545.209" r="4.69382" stroke-width="0.5" stroke="black" fill="magenta"/>
   </g>
   <g id="cell94">
  <circle cx="532.842" cy="496.966" r="7.89373" stroke-width="0.5" stroke="black" fill="cyan"/>
  <circle cx="532.842" cy="496.966" r="4.78957" stroke-width="0.5" stroke="black" fill="cyan"/>
   </g>
   <g id="cell95">
  <circle cx="467.242" cy="425.698" r="7.87851" stroke-width="0.5" stroke="black" fill="cyan"/>
  <circle cx="467.242" cy="425.698" r="4.78096" stroke-width="0.5" stroke="black" fill="cyan"/>
   </g>
   <g id="cell96">
  <circle cx="542.037" cy="522.875" r="7.84675" stroke-width="0.5" stroke="black" fill="cyan"/>
  <circle cx="542.037" cy="522.875" r="4.7629" stroke-width="0.5" stroke="black" fill="cyan"/>
   </g>
   <g id="cell97">
  <circle cx="422.182" cy="466.823" r="7.27223" stroke-width="0.5" stroke="black" fill="green"/>
  <circle cx="422.182" cy="466.823" r="4.45266" stroke-width="0.5" stroke="black" fill="green"/>
   </g>
   <g id="cell98">
  <circle cx="494.933" cy="514.359" r="7.75912" stroke-width="0.5" stroke="black" fill="green"/>
  <circle cx="494.933" cy="514.359" r="4.71248" stroke-width="0.5" stroke="black" fill="green"/>
   </g>
   <g id="cell99">
  <circle cx="357.999" cy="528.542" r="7.57522" stroke-width="0.5" stroke="black" fill="cyan"/>
  <circle cx="357.999" cy="528.542" r="4.62336" stroke-width="0.5" stroke="black" fill="cyan"/>
   </g>
   <g id="cell100">
  <circle cx="449.148" cy="394.489" r="7.57077" stroke-width="0.5" stroke="black" fill="green"/>
  <circle cx="449.148" cy="394.489" r="4.61253" stroke-width="0.5" stroke="black" fill="green"/>
   </g>
   <g id="cell101">
  <circle cx="532.325" cy="473.896" r="7.55147" stroke-width="0.5" stroke="black" fill="cyan"/>
  <circle cx="532.325" cy="473.896" r="4.60323" stroke-width="0.5" stroke="black" fill="cyan"/>
   </g>
   <g id="cell102">
  <circle cx="434.075" cy="473.796" r="7.27223" stroke-width="0.5" stroke="black" fill="green"/>
  <circle cx="434.075" cy="473.796" r="4.45266" stroke-width="0.5" stroke="black" fill="green"/>
   </g>
   <g id="cell103">
  <circle cx="573.521" cy="444.314" r="7.51976" stroke-width="0.5" stroke="black" fill="cyan"/>
  <circle cx="573.521" cy="444.314" r="4.57072" stroke-width="0.5" stroke="black" fill="cyan"/>
   </g>
   <g id="cell104">
  <circle cx="590.575" cy="553.769" r="7.21346" stroke-width="0.5" stroke="black" fill="cyan"/>
  <circle cx="590.575" cy="553.769" r="4.40987" stroke-width="0.5" stroke="black" fill="cyan"/>
   </g>
   <g id="cell106">
  <circle cx="464.15" cy="440.829" r="7.10155" stroke-width="0.5" stroke="black" fill="magenta"/>
  <circle cx="464.15" cy="440.829" r="4.32578" stroke-width="0.5" stroke="black" fill="magenta"/>
   </g>
   <g id="cell107">
  <circle cx="453.534" cy="377.463" r="6.57889" stroke-width="0.5" stroke="black" fill="green"/>
  <circle cx="453.534" cy="377.463" r="4.04144" stroke-width="0.5" stroke="black" fill="green"/>
   </g>
   <g id="cell108">
  <circle cx="557.359" cy="604.97" r="6.95901" stroke-width="0.5" stroke="black" fill="green"/>
  <circle cx="557.359" cy="604.97" r="4.21341" stroke-width="0.5" stroke="black" fill="green"/>
   </g>
   <g id="cell109">
  <circle cx="576.477" cy="594.076" r="5.79448" stroke-width="0.5" stroke="black" fill="green"/>
  <circle cx="576.477" cy="594.076" r="3.53652" stroke-width="0.5" stroke="black" fill="green"/>
   </g>
   <g id="cell110">
  <circle cx="374.351" cy="514.877" r="6.67717" stroke-width="0.5" stroke="black" fill="cyan"/>
  <circle cx="374.351" cy="514.877" r="4.00951" stroke-width="0.5" stroke="black" fill="cyan"/>
   </g>
  </g>
 </g>
  <rect x="775" y="1035" width="200" height="10" stroke-width="2" stroke="rgb(255,255,255)" fill="rgb(0,0,0)"/>
  <text x="781.25" y="1028.75"
   font-family="Arial" font-size="25" fill="black" >
   200 &#956;m
  </text>
  <text x="25" y="1045"
   font-family="Arial" font-size="18.75" fill="black" >
   0 days, 0 hours, 0 minutes, and 13.1535 seconds
  </text>
  <rect x="0" y="70" width="1000" height="1000" stroke-width="2" stroke="rgb(0,0,0)" fill="none"/>
</svg>
