<?xml version="1.0" encoding="UTF-8" standalone="no"?>
<!-- Created with PhysiCell (http://PhysiCell.MathCancer.org/) -->
<svg 
 xmlns:dc="http://purl.org/dc/elements/1.1/" 
 xmlns:cc="http://creativecommons.org/ns#" 
 xmlns:rdf="http://www.w3.org/1999/02/22-rdf-syntax-ns#" 
 xmlns:svg="http://www.w3.org/2000/svg" 
 xmlns="http://www.w3.org/2000/svg" 
 version="1.1" 
 width="1000" 
 height="1070" 
 id="svg2">
  <rect x="0" y="0" width="1000" height="1070" stroke-width="2" stroke="white" fill="white"/>
  <text x="12.5" y="30"
   font-family="Arial" font-size="25" fill="black" >
   Current time: 0 days, 11 hours, and 9.00 minutes, z = 0.00 &#956;m
  </text>
  <text x="12.5" y="57.5"
   font-family="Arial" font-size="23.75" fill="black" >
   109 agents
  </text>
 <g id="tissue" 
    transform="translate(0,1070) scale(1,-1)">
  <g id="ECM">
  </g>
  <g id="cells">
   <g id="cell0">
  <circle cx="516.693" cy="533.582" r="8.08613" stroke-width="0.5" stroke="black" fill="magenta"/>
  <circle cx="516.693" cy="533.582" r="4.8956" stroke-width="0.5" stroke="black" fill="magenta"/>
   </g>
   <g id="cell1">
  <circle cx="602.492" cy="526.171" r="8.41271" stroke-width="0.5" stroke="black" fill="magenta"/>
  <circle cx="602.492" cy="526.171" r="5.05167" stroke-width="0.5" stroke="black" fill="magenta"/>
   </g>
   <g id="cell2">
  <circle cx="513.843" cy="599.52" r="8.41271" stroke-width="0.5" stroke="black" fill="magenta"/>
  <circle cx="513.843" cy="599.52" r="5.05167" stroke-width="0.5" stroke="black" fill="magenta"/>
   </g>
   <g id="cell3">
  <circle cx="523.823" cy="545.876" r="7.86634" stroke-width="0.5" stroke="black" fill="magenta"/>
  <circle cx="523.823" cy="545.876" r="4.78595" stroke-width="0.5" stroke="black" fill="magenta"/>
   </g>
   <g id="cell4">
  <circle cx="489.244" cy="437.624" r="8.28262" stroke-width="0.5" stroke="black" fill="magenta"/>
  <circle cx="489.244" cy="437.624" r="4.9961" stroke-width="0.5" stroke="black" fill="magenta"/>
   </g>
   <g id="cell5">
  <circle cx="465.032" cy="493.3" r="8.41271" stroke-width="0.5" stroke="black" fill="magenta"/>
  <circle cx="465.032" cy="493.3" r="5.05167" stroke-width="0.5" stroke="black" fill="magenta"/>
   </g>
   <g id="cell6">
  <circle cx="595.637" cy="512.669" r="8.41271" stroke-width="0.5" stroke="black" fill="magenta"/>
  <circle cx="595.637" cy="512.669" r="5.05167" stroke-width="0.5" stroke="black" fill="magenta"/>
   </g>
   <g id="cell7">
  <circle cx="509.259" cy="461.652" r="8.41271" stroke-width="0.5" stroke="black" fill="magenta"/>
  <circle cx="509.259" cy="461.652" r="5.05167" stroke-width="0.5" stroke="black" fill="magenta"/>
   </g>
   <g id="cell8">
  <circle cx="376.389" cy="544.096" r="8.41271" stroke-width="0.5" stroke="black" fill="magenta"/>
  <circle cx="376.389" cy="544.096" r="5.05167" stroke-width="0.5" stroke="black" fill="magenta"/>
   </g>
   <g id="cell9">
  <circle cx="460.472" cy="599.786" r="8.41271" stroke-width="0.5" stroke="black" fill="magenta"/>
  <circle cx="460.472" cy="599.786" r="5.05167" stroke-width="0.5" stroke="black" fill="magenta"/>
   </g>
   <g id="cell10">
  <circle cx="583.447" cy="392.105" r="8.41271" stroke-width="0.5" stroke="black" fill="magenta"/>
  <circle cx="583.447" cy="392.105" r="5.05167" stroke-width="0.5" stroke="black" fill="magenta"/>
   </g>
   <g id="cell11">
  <circle cx="588.997" cy="590.506" r="8.41271" stroke-width="0.5" stroke="black" fill="magenta"/>
  <circle cx="588.997" cy="590.506" r="5.05167" stroke-width="0.5" stroke="black" fill="magenta"/>
   </g>
   <g id="cell12">
  <circle cx="506.676" cy="585.862" r="8.41271" stroke-width="0.5" stroke="black" fill="magenta"/>
  <circle cx="506.676" cy="585.862" r="5.05167" stroke-width="0.5" stroke="black" fill="magenta"/>
   </g>
   <g id="cell13">
  <circle cx="386.194" cy="568.228" r="8.41271" stroke-width="0.5" stroke="black" fill="magenta"/>
  <circle cx="386.194" cy="568.228" r="5.05167" stroke-width="0.5" stroke="black" fill="magenta"/>
   </g>
   <g id="cell14">
  <circle cx="528.602" cy="399.159" r="8.41271" stroke-width="0.5" stroke="black" fill="magenta"/>
  <circle cx="528.602" cy="399.159" r="5.05167" stroke-width="0.5" stroke="black" fill="magenta"/>
   </g>
   <g id="cell15">
  <circle cx="379.65" cy="475.1" r="8.41271" stroke-width="0.5" stroke="black" fill="magenta"/>
  <circle cx="379.65" cy="475.1" r="5.05167" stroke-width="0.5" stroke="black" fill="magenta"/>
   </g>
   <g id="cell16">
  <circle cx="428.96" cy="413.217" r="8.41271" stroke-width="0.5" stroke="black" fill="magenta"/>
  <circle cx="428.96" cy="413.217" r="5.05167" stroke-width="0.5" stroke="black" fill="magenta"/>
   </g>
   <g id="cell17">
  <circle cx="570.298" cy="489.679" r="8.41271" stroke-width="0.5" stroke="black" fill="magenta"/>
  <circle cx="570.298" cy="489.679" r="5.05167" stroke-width="0.5" stroke="black" fill="magenta"/>
   </g>
   <g id="cell18">
  <circle cx="517.425" cy="388.941" r="8.41271" stroke-width="0.5" stroke="black" fill="magenta"/>
  <circle cx="517.425" cy="388.941" r="5.05167" stroke-width="0.5" stroke="black" fill="magenta"/>
   </g>
   <g id="cell19">
  <circle cx="456.524" cy="543.862" r="8.02418" stroke-width="0.5" stroke="black" fill="magenta"/>
  <circle cx="456.524" cy="543.862" r="4.86209" stroke-width="0.5" stroke="black" fill="magenta"/>
   </g>
   <g id="cell20">
  <circle cx="531.16" cy="414.084" r="8.41271" stroke-width="0.5" stroke="black" fill="magenta"/>
  <circle cx="531.16" cy="414.084" r="5.05167" stroke-width="0.5" stroke="black" fill="magenta"/>
   </g>
   <g id="cell21">
  <circle cx="464.368" cy="634.574" r="8.41271" stroke-width="0.5" stroke="black" fill="magenta"/>
  <circle cx="464.368" cy="634.574" r="5.05167" stroke-width="0.5" stroke="black" fill="magenta"/>
   </g>
   <g id="cell22">
  <circle cx="557.675" cy="498.245" r="8.41271" stroke-width="0.5" stroke="black" fill="magenta"/>
  <circle cx="557.675" cy="498.245" r="5.05167" stroke-width="0.5" stroke="black" fill="magenta"/>
   </g>
   <g id="cell23">
  <circle cx="541.347" cy="484.983" r="8.41271" stroke-width="0.5" stroke="black" fill="magenta"/>
  <circle cx="541.347" cy="484.983" r="5.05167" stroke-width="0.5" stroke="black" fill="magenta"/>
   </g>
   <g id="cell24">
  <circle cx="559.283" cy="379.802" r="8.41271" stroke-width="0.5" stroke="black" fill="magenta"/>
  <circle cx="559.283" cy="379.802" r="5.05167" stroke-width="0.5" stroke="black" fill="magenta"/>
   </g>
   <g id="cell25">
  <circle cx="645.602" cy="545.323" r="8.21273" stroke-width="0.5" stroke="black" fill="green"/>
  <circle cx="645.602" cy="545.323" r="4.96162" stroke-width="0.5" stroke="black" fill="green"/>
   </g>
   <g id="cell26">
  <circle cx="551.061" cy="401.24" r="8.41271" stroke-width="0.5" stroke="black" fill="green"/>
  <circle cx="551.061" cy="401.24" r="5.05167" stroke-width="0.5" stroke="black" fill="green"/>
   </g>
   <g id="cell27">
  <circle cx="463.56" cy="390.359" r="8.28985" stroke-width="0.5" stroke="black" fill="green"/>
  <circle cx="463.56" cy="390.359" r="4.99956" stroke-width="0.5" stroke="black" fill="green"/>
   </g>
   <g id="cell28">
  <circle cx="433.794" cy="530.733" r="8.41271" stroke-width="0.5" stroke="black" fill="green"/>
  <circle cx="433.794" cy="530.733" r="5.05167" stroke-width="0.5" stroke="black" fill="green"/>
   </g>
   <g id="cell29">
  <circle cx="450.413" cy="516.422" r="8.41271" stroke-width="0.5" stroke="black" fill="green"/>
  <circle cx="450.413" cy="516.422" r="5.05167" stroke-width="0.5" stroke="black" fill="green"/>
   </g>
   <g id="cell30">
  <circle cx="481.055" cy="534.811" r="7.90853" stroke-width="0.5" stroke="black" fill="green"/>
  <circle cx="481.055" cy="534.811" r="4.79791" stroke-width="0.5" stroke="black" fill="green"/>
   </g>
   <g id="cell31">
  <circle cx="412.757" cy="541.193" r="8.41271" stroke-width="0.5" stroke="black" fill="green"/>
  <circle cx="412.757" cy="541.193" r="5.05167" stroke-width="0.5" stroke="black" fill="green"/>
   </g>
   <g id="cell32">
  <circle cx="421.966" cy="481.023" r="7.72056" stroke-width="0.5" stroke="black" fill="green"/>
  <circle cx="421.966" cy="481.023" r="4.69003" stroke-width="0.5" stroke="black" fill="green"/>
   </g>
   <g id="cell33">
  <circle cx="497.781" cy="424.817" r="8.41271" stroke-width="0.5" stroke="black" fill="green"/>
  <circle cx="497.781" cy="424.817" r="5.05167" stroke-width="0.5" stroke="black" fill="green"/>
   </g>
   <g id="cell34">
  <circle cx="397.088" cy="450.831" r="8.41271" stroke-width="0.5" stroke="black" fill="green"/>
  <circle cx="397.088" cy="450.831" r="5.05167" stroke-width="0.5" stroke="black" fill="green"/>
   </g>
   <g id="cell35">
  <circle cx="551.439" cy="541.463" r="8.41271" stroke-width="0.5" stroke="black" fill="green"/>
  <circle cx="551.439" cy="541.463" r="5.05167" stroke-width="0.5" stroke="black" fill="green"/>
   </g>
   <g id="cell36">
  <circle cx="391.486" cy="582.903" r="8.41271" stroke-width="0.5" stroke="black" fill="green"/>
  <circle cx="391.486" cy="582.903" r="5.05167" stroke-width="0.5" stroke="black" fill="green"/>
   </g>
   <g id="cell37">
  <circle cx="639.679" cy="457.306" r="8.27097" stroke-width="0.5" stroke="black" fill="green"/>
  <circle cx="639.679" cy="457.306" r="4.99048" stroke-width="0.5" stroke="black" fill="green"/>
   </g>
   <g id="cell38">
  <circle cx="530.033" cy="597.662" r="8.24438" stroke-width="0.5" stroke="black" fill="green"/>
  <circle cx="530.033" cy="597.662" r="4.97746" stroke-width="0.5" stroke="black" fill="green"/>
   </g>
   <g id="cell39">
  <circle cx="613.458" cy="490.595" r="8.41271" stroke-width="0.5" stroke="black" fill="green"/>
  <circle cx="613.458" cy="490.595" r="5.05167" stroke-width="0.5" stroke="black" fill="green"/>
   </g>
   <g id="cell40">
  <circle cx="485.348" cy="571.779" r="8.41271" stroke-width="0.5" stroke="black" fill="green"/>
  <circle cx="485.348" cy="571.779" r="5.05167" stroke-width="0.5" stroke="black" fill="green"/>
   </g>
   <g id="cell41">
  <circle cx="364.925" cy="480.252" r="8.41271" stroke-width="0.5" stroke="black" fill="green"/>
  <circle cx="364.925" cy="480.252" r="5.05167" stroke-width="0.5" stroke="black" fill="green"/>
   </g>
   <g id="cell42">
  <circle cx="438.842" cy="494.268" r="8.41271" stroke-width="0.5" stroke="black" fill="green"/>
  <circle cx="438.842" cy="494.268" r="5.05167" stroke-width="0.5" stroke="black" fill="green"/>
   </g>
   <g id="cell43">
  <circle cx="558.513" cy="442.637" r="8.41271" stroke-width="0.5" stroke="black" fill="green"/>
  <circle cx="558.513" cy="442.637" r="5.05167" stroke-width="0.5" stroke="black" fill="green"/>
   </g>
   <g id="cell44">
  <circle cx="475.857" cy="624.021" r="8.41271" stroke-width="0.5" stroke="black" fill="green"/>
  <circle cx="475.857" cy="624.021" r="5.05167" stroke-width="0.5" stroke="black" fill="green"/>
   </g>
   <g id="cell45">
  <circle cx="414.953" cy="557.066" r="8.41271" stroke-width="0.5" stroke="black" fill="green"/>
  <circle cx="414.953" cy="557.066" r="5.05167" stroke-width="0.5" stroke="black" fill="green"/>
   </g>
   <g id="cell46">
  <circle cx="524.223" cy="610.692" r="7.24243" stroke-width="0.5" stroke="black" fill="green"/>
  <circle cx="524.223" cy="610.692" r="4.39934" stroke-width="0.5" stroke="black" fill="green"/>
   </g>
   <g id="cell47">
  <circle cx="504.628" cy="503.377" r="7.67987" stroke-width="0.5" stroke="black" fill="green"/>
  <circle cx="504.628" cy="503.377" r="4.66617" stroke-width="0.5" stroke="black" fill="green"/>
   </g>
   <g id="cell48">
  <circle cx="568.3" cy="601.298" r="5.54538" stroke-width="0.5" stroke="black" fill="green"/>
  <circle cx="568.3" cy="601.298" r="3.36222" stroke-width="0.5" stroke="black" fill="green"/>
   </g>
   <g id="cell49">
  <circle cx="429.826" cy="397.64" r="8.41271" stroke-width="0.5" stroke="black" fill="green"/>
  <circle cx="429.826" cy="397.64" r="5.05167" stroke-width="0.5" stroke="black" fill="green"/>
   </g>
   <g id="cell50">
  <circle cx="519.04" cy="518.819" r="8.11327" stroke-width="0.5" stroke="black" fill="cyan"/>
  <circle cx="519.04" cy="518.819" r="4.91006" stroke-width="0.5" stroke="black" fill="cyan"/>
   </g>
   <g id="cell51">
  <circle cx="398.721" cy="597.201" r="8.41271" stroke-width="0.5" stroke="black" fill="cyan"/>
  <circle cx="398.721" cy="597.201" r="5.05167" stroke-width="0.5" stroke="black" fill="cyan"/>
   </g>
   <g id="cell52">
  <circle cx="519.374" cy="424.302" r="8.41271" stroke-width="0.5" stroke="black" fill="cyan"/>
  <circle cx="519.374" cy="424.302" r="5.05167" stroke-width="0.5" stroke="black" fill="cyan"/>
   </g>
   <g id="cell53">
  <circle cx="572.88" cy="430.165" r="7.41548" stroke-width="0.5" stroke="black" fill="cyan"/>
  <circle cx="572.88" cy="430.165" r="4.50723" stroke-width="0.5" stroke="black" fill="cyan"/>
   </g>
   <g id="cell54">
  <circle cx="482.389" cy="424.193" r="7.81315" stroke-width="0.5" stroke="black" fill="cyan"/>
  <circle cx="482.389" cy="424.193" r="4.74367" stroke-width="0.5" stroke="black" fill="cyan"/>
   </g>
   <g id="cell55">
  <circle cx="523.707" cy="462.985" r="7.44613" stroke-width="0.5" stroke="black" fill="cyan"/>
  <circle cx="523.707" cy="462.985" r="4.5417" stroke-width="0.5" stroke="black" fill="cyan"/>
   </g>
   <g id="cell56">
  <circle cx="617.613" cy="522.333" r="8.41271" stroke-width="0.5" stroke="black" fill="cyan"/>
  <circle cx="617.613" cy="522.333" r="5.05167" stroke-width="0.5" stroke="black" fill="cyan"/>
   </g>
   <g id="cell105">
  <circle cx="511.143" cy="613.825" r="7.24243" stroke-width="0.5" stroke="black" fill="green"/>
  <circle cx="511.143" cy="613.825" r="4.39934" stroke-width="0.5" stroke="black" fill="green"/>
   </g>
   <g id="cell58">
  <circle cx="556.515" cy="482.806" r="8.41271" stroke-width="0.5" stroke="black" fill="cyan"/>
  <circle cx="556.515" cy="482.806" r="5.05167" stroke-width="0.5" stroke="black" fill="cyan"/>
   </g>
   <g id="cell59">
  <circle cx="385.463" cy="439.803" r="8.41271" stroke-width="0.5" stroke="black" fill="cyan"/>
  <circle cx="385.463" cy="439.803" r="5.05167" stroke-width="0.5" stroke="black" fill="cyan"/>
   </g>
   <g id="cell60">
  <circle cx="592.987" cy="473.659" r="8.41271" stroke-width="0.5" stroke="black" fill="cyan"/>
  <circle cx="592.987" cy="473.659" r="5.05167" stroke-width="0.5" stroke="black" fill="cyan"/>
   </g>
   <g id="cell61">
  <circle cx="553.434" cy="618.494" r="8.41271" stroke-width="0.5" stroke="black" fill="cyan"/>
  <circle cx="553.434" cy="618.494" r="5.05167" stroke-width="0.5" stroke="black" fill="cyan"/>
   </g>
   <g id="cell62">
  <circle cx="518.772" cy="449.196" r="8.29331" stroke-width="0.5" stroke="black" fill="cyan"/>
  <circle cx="518.772" cy="449.196" r="5.0012" stroke-width="0.5" stroke="black" fill="cyan"/>
   </g>
   <g id="cell63">
  <circle cx="574.484" cy="541.076" r="8.05651" stroke-width="0.5" stroke="black" fill="cyan"/>
  <circle cx="574.484" cy="541.076" r="4.87966" stroke-width="0.5" stroke="black" fill="cyan"/>
   </g>
   <g id="cell64">
  <circle cx="509.962" cy="636.825" r="8.41271" stroke-width="0.5" stroke="black" fill="cyan"/>
  <circle cx="509.962" cy="636.825" r="5.05167" stroke-width="0.5" stroke="black" fill="cyan"/>
   </g>
   <g id="cell65">
  <circle cx="546.811" cy="470.818" r="8.01277" stroke-width="0.5" stroke="black" fill="cyan"/>
  <circle cx="546.811" cy="470.818" r="4.85584" stroke-width="0.5" stroke="black" fill="cyan"/>
   </g>
   <g id="cell66">
  <circle cx="531.128" cy="532.896" r="7.77763" stroke-width="0.5" stroke="black" fill="cyan"/>
  <circle cx="531.128" cy="532.896" r="4.7232" stroke-width="0.5" stroke="black" fill="cyan"/>
   </g>
   <g id="cell67">
  <circle cx="354.711" cy="492.599" r="8.41271" stroke-width="0.5" stroke="black" fill="cyan"/>
  <circle cx="354.711" cy="492.599" r="5.05167" stroke-width="0.5" stroke="black" fill="cyan"/>
   </g>
   <g id="cell68">
  <circle cx="562.89" cy="552.094" r="8.41271" stroke-width="0.5" stroke="black" fill="cyan"/>
  <circle cx="562.89" cy="552.094" r="5.05167" stroke-width="0.5" stroke="black" fill="cyan"/>
   </g>
   <g id="cell69">
  <circle cx="441.715" cy="461.23" r="8.41271" stroke-width="0.5" stroke="black" fill="cyan"/>
  <circle cx="441.715" cy="461.23" r="5.05167" stroke-width="0.5" stroke="black" fill="cyan"/>
   </g>
   <g id="cell70">
  <circle cx="577.045" cy="475.534" r="8.41271" stroke-width="0.5" stroke="black" fill="cyan"/>
  <circle cx="577.045" cy="475.534" r="5.05167" stroke-width="0.5" stroke="black" fill="cyan"/>
   </g>
   <g id="cell71">
  <circle cx="377.712" cy="520.989" r="8.41271" stroke-width="0.5" stroke="black" fill="cyan"/>
  <circle cx="377.712" cy="520.989" r="5.05167" stroke-width="0.5" stroke="black" fill="cyan"/>
   </g>
   <g id="cell72">
  <circle cx="532.233" cy="511.627" r="7.83019" stroke-width="0.5" stroke="black" fill="cyan"/>
  <circle cx="532.233" cy="511.627" r="4.75343" stroke-width="0.5" stroke="black" fill="cyan"/>
   </g>
   <g id="cell73">
  <circle cx="363.702" cy="552.622" r="8.09544" stroke-width="0.5" stroke="black" fill="cyan"/>
  <circle cx="363.702" cy="552.622" r="4.90058" stroke-width="0.5" stroke="black" fill="cyan"/>
   </g>
   <g id="cell74">
  <circle cx="542.633" cy="444.78" r="8.41271" stroke-width="0.5" stroke="black" fill="cyan"/>
  <circle cx="542.633" cy="444.78" r="5.05167" stroke-width="0.5" stroke="black" fill="cyan"/>
   </g>
   <g id="cell75">
  <circle cx="528.826" cy="437.038" r="8.29331" stroke-width="0.5" stroke="black" fill="cyan"/>
  <circle cx="528.826" cy="437.038" r="5.0012" stroke-width="0.5" stroke="black" fill="cyan"/>
   </g>
   <g id="cell76">
  <circle cx="442.65" cy="383.002" r="6.35708" stroke-width="0.5" stroke="black" fill="green"/>
  <circle cx="442.65" cy="383.002" r="3.90447" stroke-width="0.5" stroke="black" fill="green"/>
   </g>
   <g id="cell77">
  <circle cx="475.787" cy="436.047" r="6.96222" stroke-width="0.5" stroke="black" fill="magenta"/>
  <circle cx="475.787" cy="436.047" r="4.2374" stroke-width="0.5" stroke="black" fill="magenta"/>
   </g>
   <g id="cell78">
  <circle cx="624.771" cy="461.199" r="7.9352" stroke-width="0.5" stroke="black" fill="green"/>
  <circle cx="624.771" cy="461.199" r="4.82209" stroke-width="0.5" stroke="black" fill="green"/>
   </g>
   <g id="cell79">
  <circle cx="516.045" cy="475.695" r="8.25377" stroke-width="0.5" stroke="black" fill="cyan"/>
  <circle cx="516.045" cy="475.695" r="4.98209" stroke-width="0.5" stroke="black" fill="cyan"/>
   </g>
   <g id="cell80">
  <circle cx="538.87" cy="612.102" r="8.15258" stroke-width="0.5" stroke="black" fill="green"/>
  <circle cx="538.87" cy="612.102" r="4.93667" stroke-width="0.5" stroke="black" fill="green"/>
   </g>
   <g id="cell81">
  <circle cx="545.412" cy="597.984" r="8.15258" stroke-width="0.5" stroke="black" fill="green"/>
  <circle cx="545.412" cy="597.984" r="4.93667" stroke-width="0.5" stroke="black" fill="green"/>
   </g>
   <g id="cell82">
  <circle cx="531.805" cy="558.123" r="8.21273" stroke-width="0.5" stroke="black" fill="magenta"/>
  <circle cx="531.805" cy="558.123" r="4.96162" stroke-width="0.5" stroke="black" fill="magenta"/>
   </g>
   <g id="cell83">
  <circle cx="634.61" cy="556.427" r="8.21273" stroke-width="0.5" stroke="black" fill="green"/>
  <circle cx="634.61" cy="556.427" r="4.96162" stroke-width="0.5" stroke="black" fill="green"/>
   </g>
   <g id="cell84">
  <circle cx="519.436" cy="503.479" r="8.11327" stroke-width="0.5" stroke="black" fill="cyan"/>
  <circle cx="519.436" cy="503.479" r="4.91006" stroke-width="0.5" stroke="black" fill="cyan"/>
   </g>
   <g id="cell85">
  <circle cx="353.427" cy="542.05" r="7.4698" stroke-width="0.5" stroke="black" fill="cyan"/>
  <circle cx="353.427" cy="542.05" r="4.56298" stroke-width="0.5" stroke="black" fill="cyan"/>
   </g>
   <g id="cell86">
  <circle cx="505.314" cy="524.847" r="8.08613" stroke-width="0.5" stroke="black" fill="magenta"/>
  <circle cx="505.314" cy="524.847" r="4.8956" stroke-width="0.5" stroke="black" fill="magenta"/>
   </g>
   <g id="cell87">
  <circle cx="577.1" cy="555.157" r="7.06822" stroke-width="0.5" stroke="black" fill="cyan"/>
  <circle cx="577.1" cy="555.157" r="4.32274" stroke-width="0.5" stroke="black" fill="cyan"/>
   </g>
   <g id="cell88">
  <circle cx="448.993" cy="531.572" r="8.02418" stroke-width="0.5" stroke="black" fill="magenta"/>
  <circle cx="448.993" cy="531.572" r="4.86209" stroke-width="0.5" stroke="black" fill="magenta"/>
   </g>
   <g id="cell89">
  <circle cx="552.398" cy="456.881" r="8.01277" stroke-width="0.5" stroke="black" fill="cyan"/>
  <circle cx="552.398" cy="456.881" r="4.85584" stroke-width="0.5" stroke="black" fill="cyan"/>
   </g>
   <g id="cell90">
  <circle cx="630.849" cy="474.992" r="7.9352" stroke-width="0.5" stroke="black" fill="green"/>
  <circle cx="630.849" cy="474.992" r="4.82209" stroke-width="0.5" stroke="black" fill="green"/>
   </g>
   <g id="cell91">
  <circle cx="546.115" cy="555.65" r="7.59176" stroke-width="0.5" stroke="black" fill="magenta"/>
  <circle cx="546.115" cy="555.65" r="4.64229" stroke-width="0.5" stroke="black" fill="magenta"/>
   </g>
   <g id="cell92">
  <circle cx="482.492" cy="549.761" r="7.90853" stroke-width="0.5" stroke="black" fill="green"/>
  <circle cx="482.492" cy="549.761" r="4.79791" stroke-width="0.5" stroke="black" fill="green"/>
   </g>
   <g id="cell93">
  <circle cx="537.48" cy="545.295" r="7.59176" stroke-width="0.5" stroke="black" fill="magenta"/>
  <circle cx="537.48" cy="545.295" r="4.64229" stroke-width="0.5" stroke="black" fill="magenta"/>
   </g>
   <g id="cell94">
  <circle cx="532.839" cy="496.996" r="7.83019" stroke-width="0.5" stroke="black" fill="cyan"/>
  <circle cx="532.839" cy="496.996" r="4.75343" stroke-width="0.5" stroke="black" fill="cyan"/>
   </g>
   <g id="cell95">
  <circle cx="467.388" cy="425.412" r="7.81315" stroke-width="0.5" stroke="black" fill="cyan"/>
  <circle cx="467.388" cy="425.412" r="4.74367" stroke-width="0.5" stroke="black" fill="cyan"/>
   </g>
   <g id="cell96">
  <circle cx="541.809" cy="522.756" r="7.77763" stroke-width="0.5" stroke="black" fill="cyan"/>
  <circle cx="541.809" cy="522.756" r="4.7232" stroke-width="0.5" stroke="black" fill="cyan"/>
   </g>
   <g id="cell97">
  <circle cx="422.268" cy="466.921" r="7.12567" stroke-width="0.5" stroke="black" fill="green"/>
  <circle cx="422.268" cy="466.921" r="4.36671" stroke-width="0.5" stroke="black" fill="green"/>
   </g>
   <g id="cell98">
  <circle cx="495.3" cy="514.451" r="7.67987" stroke-width="0.5" stroke="black" fill="green"/>
  <circle cx="495.3" cy="514.451" r="4.66617" stroke-width="0.5" stroke="black" fill="green"/>
   </g>
   <g id="cell99">
  <circle cx="357.957" cy="528.663" r="7.4698" stroke-width="0.5" stroke="black" fill="cyan"/>
  <circle cx="357.957" cy="528.663" r="4.56298" stroke-width="0.5" stroke="black" fill="cyan"/>
   </g>
   <g id="cell100">
  <circle cx="449.162" cy="394.32" r="7.46833" stroke-width="0.5" stroke="black" fill="green"/>
  <circle cx="449.162" cy="394.32" r="4.55255" stroke-width="0.5" stroke="black" fill="green"/>
   </g>
   <g id="cell101">
  <circle cx="532.517" cy="473.498" r="7.44613" stroke-width="0.5" stroke="black" fill="cyan"/>
  <circle cx="532.517" cy="473.498" r="4.5417" stroke-width="0.5" stroke="black" fill="cyan"/>
   </g>
   <g id="cell102">
  <circle cx="433.945" cy="473.698" r="7.12567" stroke-width="0.5" stroke="black" fill="green"/>
  <circle cx="433.945" cy="473.698" r="4.36671" stroke-width="0.5" stroke="black" fill="green"/>
   </g>
   <g id="cell103">
  <circle cx="573.442" cy="444.205" r="7.41548" stroke-width="0.5" stroke="black" fill="cyan"/>
  <circle cx="573.442" cy="444.205" r="4.50723" stroke-width="0.5" stroke="black" fill="cyan"/>
   </g>
   <g id="cell104">
  <circle cx="590.303" cy="553.799" r="7.06822" stroke-width="0.5" stroke="black" fill="cyan"/>
  <circle cx="590.303" cy="553.799" r="4.32274" stroke-width="0.5" stroke="black" fill="cyan"/>
   </g>
   <g id="cell106">
  <circle cx="464.561" cy="441.206" r="6.96222" stroke-width="0.5" stroke="black" fill="magenta"/>
  <circle cx="464.561" cy="441.206" r="4.2374" stroke-width="0.5" stroke="black" fill="magenta"/>
   </g>
   <g id="cell107">
  <circle cx="453.281" cy="377.457" r="6.35708" stroke-width="0.5" stroke="black" fill="green"/>
  <circle cx="453.281" cy="377.457" r="3.90447" stroke-width="0.5" stroke="black" fill="green"/>
   </g>
   <g id="cell108">
  <circle cx="557.45" cy="604.858" r="6.83713" stroke-width="0.5" stroke="black" fill="green"/>
  <circle cx="557.45" cy="604.858" r="4.12773" stroke-width="0.5" stroke="black" fill="green"/>
   </g>
   <g id="cell109">
  <circle cx="576.112" cy="594.383" r="5.54538" stroke-width="0.5" stroke="black" fill="green"/>
  <circle cx="576.112" cy="594.383" r="3.36222" stroke-width="0.5" stroke="black" fill="green"/>
   </g>
  </g>
 </g>
  <rect x="775" y="1035" width="200" height="10" stroke-width="2" stroke="rgb(255,255,255)" fill="rgb(0,0,0)"/>
  <text x="781.25" y="1028.75"
   font-family="Arial" font-size="25" fill="black" >
   200 &#956;m
  </text>
  <text x="25" y="1045"
   font-family="Arial" font-size="18.75" fill="black" >
   0 days, 0 hours, 0 minutes, and 12.6667 seconds
  </text>
  <rect x="0" y="70" width="1000" height="1000" stroke-width="2" stroke="rgb(0,0,0)" fill="none"/>
</svg>
