<?xml version="1.0" encoding="UTF-8" standalone="no"?>
<!-- Created with PhysiCell (http://PhysiCell.MathCancer.org/) -->
<svg 
 xmlns:dc="http://purl.org/dc/elements/1.1/" 
 xmlns:cc="http://creativecommons.org/ns#" 
 xmlns:rdf="http://www.w3.org/1999/02/22-rdf-syntax-ns#" 
 xmlns:svg="http://www.w3.org/2000/svg" 
 xmlns="http://www.w3.org/2000/svg" 
 version="1.1" 
 width="1000" 
 height="1070" 
 id="svg2">
  <rect x="0" y="0" width="1000" height="1070" stroke-width="2" stroke="white" fill="white"/>
  <text x="12.5" y="30"
   font-family="Arial" font-size="25" fill="black" >
   Current time: 1 days, 10 hours, and 39.00 minutes, z = 0.00 &#956;m
  </text>
  <text x="12.5" y="57.5"
   font-family="Arial" font-size="23.75" fill="black" >
   190 agents
  </text>
 <g id="tissue" 
    transform="translate(0,1070) scale(1,-1)">
  <g id="ECM">
  </g>
  <g id="cells">
   <g id="cell0">
  <circle cx="511.957" cy="539.395" r="8.41227" stroke-width="0.5" stroke="black" fill="magenta"/>
  <circle cx="511.957" cy="539.395" r="5.05157" stroke-width="0.5" stroke="black" fill="magenta"/>
   </g>
   <g id="cell1">
  <circle cx="594.572" cy="525.857" r="8.15353" stroke-width="0.5" stroke="black" fill="magenta"/>
  <circle cx="594.572" cy="525.857" r="4.93122" stroke-width="0.5" stroke="black" fill="magenta"/>
   </g>
   <g id="cell2">
  <circle cx="515.827" cy="598.528" r="8.41271" stroke-width="0.5" stroke="black" fill="magenta"/>
  <circle cx="515.827" cy="598.528" r="5.05167" stroke-width="0.5" stroke="black" fill="magenta"/>
   </g>
   <g id="cell3">
  <circle cx="524.57" cy="548.024" r="8.41199" stroke-width="0.5" stroke="black" fill="magenta"/>
  <circle cx="524.57" cy="548.024" r="5.0515" stroke-width="0.5" stroke="black" fill="magenta"/>
   </g>
   <g id="cell4">
  <circle cx="486.145" cy="444.186" r="8.40291" stroke-width="0.5" stroke="black" fill="magenta"/>
  <circle cx="486.145" cy="444.186" r="5.04861" stroke-width="0.5" stroke="black" fill="magenta"/>
   </g>
   <g id="cell5">
  <circle cx="466.955" cy="490.079" r="8.41271" stroke-width="0.5" stroke="black" fill="magenta"/>
  <circle cx="466.955" cy="490.079" r="5.05167" stroke-width="0.5" stroke="black" fill="magenta"/>
   </g>
   <g id="cell163">
  <circle cx="539.587" cy="574.397" r="8.21827" stroke-width="0.5" stroke="black" fill="green"/>
  <circle cx="539.587" cy="574.397" r="4.96445" stroke-width="0.5" stroke="black" fill="green"/>
   </g>
   <g id="cell7">
  <circle cx="497.308" cy="454.215" r="8.11999" stroke-width="0.5" stroke="black" fill="magenta"/>
  <circle cx="497.308" cy="454.215" r="4.91405" stroke-width="0.5" stroke="black" fill="magenta"/>
   </g>
   <g id="cell8">
  <circle cx="379.51" cy="551.466" r="8.21839" stroke-width="0.5" stroke="black" fill="magenta"/>
  <circle cx="379.51" cy="551.466" r="4.96448" stroke-width="0.5" stroke="black" fill="magenta"/>
   </g>
   <g id="cell161">
  <circle cx="451.535" cy="382.118" r="8.14902" stroke-width="0.5" stroke="black" fill="green"/>
  <circle cx="451.535" cy="382.118" r="4.9353" stroke-width="0.5" stroke="black" fill="green"/>
   </g>
   <g id="cell10">
  <circle cx="586.493" cy="389.285" r="8.33257" stroke-width="0.5" stroke="black" fill="magenta"/>
  <circle cx="586.493" cy="389.285" r="5.01941" stroke-width="0.5" stroke="black" fill="magenta"/>
   </g>
   <g id="cell11">
  <circle cx="592.164" cy="590.054" r="8.41271" stroke-width="0.5" stroke="black" fill="magenta"/>
  <circle cx="592.164" cy="590.054" r="5.05167" stroke-width="0.5" stroke="black" fill="magenta"/>
   </g>
   <g id="cell12">
  <circle cx="501.509" cy="592.579" r="8.38532" stroke-width="0.5" stroke="black" fill="magenta"/>
  <circle cx="501.509" cy="592.579" r="5.04199" stroke-width="0.5" stroke="black" fill="magenta"/>
   </g>
   <g id="cell13">
  <circle cx="383.377" cy="566.176" r="8.41271" stroke-width="0.5" stroke="black" fill="magenta"/>
  <circle cx="383.377" cy="566.176" r="5.05167" stroke-width="0.5" stroke="black" fill="magenta"/>
   </g>
   <g id="cell14">
  <circle cx="519.063" cy="403.566" r="8.41271" stroke-width="0.5" stroke="black" fill="magenta"/>
  <circle cx="519.063" cy="403.566" r="5.05167" stroke-width="0.5" stroke="black" fill="magenta"/>
   </g>
   <g id="cell15">
  <circle cx="381.856" cy="479.117" r="8.39752" stroke-width="0.5" stroke="black" fill="magenta"/>
  <circle cx="381.856" cy="479.117" r="5.04666" stroke-width="0.5" stroke="black" fill="magenta"/>
   </g>
   <g id="cell16">
  <circle cx="448.772" cy="418.769" r="8.32511" stroke-width="0.5" stroke="black" fill="magenta"/>
  <circle cx="448.772" cy="418.769" r="5.01837" stroke-width="0.5" stroke="black" fill="magenta"/>
   </g>
   <g id="cell17">
  <circle cx="574.408" cy="494.258" r="7.70049" stroke-width="0.5" stroke="black" fill="magenta"/>
  <circle cx="574.408" cy="494.258" r="4.67828" stroke-width="0.5" stroke="black" fill="magenta"/>
   </g>
   <g id="cell18">
  <circle cx="517.387" cy="388.604" r="8.41271" stroke-width="0.5" stroke="black" fill="magenta"/>
  <circle cx="517.387" cy="388.604" r="5.05167" stroke-width="0.5" stroke="black" fill="magenta"/>
   </g>
   <g id="cell19">
  <circle cx="457.456" cy="541.455" r="8.40926" stroke-width="0.5" stroke="black" fill="magenta"/>
  <circle cx="457.456" cy="541.455" r="5.05072" stroke-width="0.5" stroke="black" fill="magenta"/>
   </g>
   <g id="cell20">
  <circle cx="531.322" cy="413.163" r="8.41271" stroke-width="0.5" stroke="black" fill="magenta"/>
  <circle cx="531.322" cy="413.163" r="5.05167" stroke-width="0.5" stroke="black" fill="magenta"/>
   </g>
   <g id="cell21">
  <circle cx="466.883" cy="632.265" r="8.41271" stroke-width="0.5" stroke="black" fill="magenta"/>
  <circle cx="466.883" cy="632.265" r="5.05167" stroke-width="0.5" stroke="black" fill="magenta"/>
   </g>
   <g id="cell22">
  <circle cx="560.521" cy="493.406" r="7.89373" stroke-width="0.5" stroke="black" fill="magenta"/>
  <circle cx="560.521" cy="493.406" r="4.78957" stroke-width="0.5" stroke="black" fill="magenta"/>
   </g>
   <g id="cell23">
  <circle cx="553.121" cy="480.176" r="8.41271" stroke-width="0.5" stroke="black" fill="magenta"/>
  <circle cx="553.121" cy="480.176" r="5.05167" stroke-width="0.5" stroke="black" fill="magenta"/>
   </g>
   <g id="cell24">
  <circle cx="562.588" cy="383.922" r="8.41271" stroke-width="0.5" stroke="black" fill="magenta"/>
  <circle cx="562.588" cy="383.922" r="5.05167" stroke-width="0.5" stroke="black" fill="magenta"/>
   </g>
   <g id="cell25">
  <circle cx="648.234" cy="543.205" r="8.41243" stroke-width="0.5" stroke="black" fill="green"/>
  <circle cx="648.234" cy="543.205" r="5.05161" stroke-width="0.5" stroke="black" fill="green"/>
   </g>
   <g id="cell26">
  <circle cx="557.362" cy="398.621" r="8.40925" stroke-width="0.5" stroke="black" fill="green"/>
  <circle cx="557.362" cy="398.621" r="5.0507" stroke-width="0.5" stroke="black" fill="green"/>
   </g>
   <g id="cell27">
  <circle cx="463.745" cy="405.524" r="8.41254" stroke-width="0.5" stroke="black" fill="green"/>
  <circle cx="463.745" cy="405.524" r="5.05163" stroke-width="0.5" stroke="black" fill="green"/>
   </g>
   <g id="cell28">
  <circle cx="428.95" cy="539.65" r="8.31209" stroke-width="0.5" stroke="black" fill="green"/>
  <circle cx="428.95" cy="539.65" r="5.01002" stroke-width="0.5" stroke="black" fill="green"/>
   </g>
   <g id="cell29">
  <circle cx="450.414" cy="517.333" r="2.609" stroke-width="0.5" stroke="black" fill="green"/>
  <circle cx="450.414" cy="517.333" r="2.22847" stroke-width="0.5" stroke="black" fill="black"/>
   </g>
   <g id="cell30">
  <circle cx="481.471" cy="536.56" r="8.38084" stroke-width="0.5" stroke="black" fill="green"/>
  <circle cx="481.471" cy="536.56" r="5.04026" stroke-width="0.5" stroke="black" fill="green"/>
   </g>
   <g id="cell31">
  <circle cx="413.305" cy="542.828" r="8.41271" stroke-width="0.5" stroke="black" fill="green"/>
  <circle cx="413.305" cy="542.828" r="5.05167" stroke-width="0.5" stroke="black" fill="green"/>
   </g>
   <g id="cell169">
  <circle cx="522.368" cy="498.932" r="8.07612" stroke-width="0.5" stroke="black" fill="cyan"/>
  <circle cx="522.368" cy="498.932" r="4.89035" stroke-width="0.5" stroke="black" fill="cyan"/>
   </g>
   <g id="cell33">
  <circle cx="501.69" cy="422.856" r="8.37537" stroke-width="0.5" stroke="black" fill="green"/>
  <circle cx="501.69" cy="422.856" r="5.03798" stroke-width="0.5" stroke="black" fill="green"/>
   </g>
   <g id="cell168">
  <circle cx="382.916" cy="517.381" r="8.0845" stroke-width="0.5" stroke="black" fill="cyan"/>
  <circle cx="382.916" cy="517.381" r="4.89513" stroke-width="0.5" stroke="black" fill="cyan"/>
   </g>
   <g id="cell35">
  <circle cx="557.274" cy="550.016" r="8.41271" stroke-width="0.5" stroke="black" fill="green"/>
  <circle cx="557.274" cy="550.016" r="5.05167" stroke-width="0.5" stroke="black" fill="green"/>
   </g>
   <g id="cell36">
  <circle cx="385.53" cy="581.515" r="8.21904" stroke-width="0.5" stroke="black" fill="green"/>
  <circle cx="385.53" cy="581.515" r="4.97058" stroke-width="0.5" stroke="black" fill="green"/>
   </g>
   <g id="cell37">
  <circle cx="640.668" cy="456.453" r="8.41251" stroke-width="0.5" stroke="black" fill="green"/>
  <circle cx="640.668" cy="456.453" r="5.05163" stroke-width="0.5" stroke="black" fill="green"/>
   </g>
   <g id="cell38">
  <circle cx="527.586" cy="587.532" r="8.21827" stroke-width="0.5" stroke="black" fill="green"/>
  <circle cx="527.586" cy="587.532" r="4.96445" stroke-width="0.5" stroke="black" fill="green"/>
   </g>
   <g id="cell39">
  <circle cx="611.686" cy="487.391" r="7.7401" stroke-width="0.5" stroke="black" fill="green"/>
  <circle cx="611.686" cy="487.391" r="4.70142" stroke-width="0.5" stroke="black" fill="green"/>
   </g>
   <g id="cell40">
  <circle cx="485.984" cy="566.855" r="8.29331" stroke-width="0.5" stroke="black" fill="green"/>
  <circle cx="485.984" cy="566.855" r="5.0012" stroke-width="0.5" stroke="black" fill="green"/>
   </g>
   <g id="cell41">
  <circle cx="366.562" cy="482.12" r="8.41271" stroke-width="0.5" stroke="black" fill="green"/>
  <circle cx="366.562" cy="482.12" r="5.05167" stroke-width="0.5" stroke="black" fill="green"/>
   </g>
   <g id="cell42">
  <circle cx="438.338" cy="491.716" r="8.41271" stroke-width="0.5" stroke="black" fill="green"/>
  <circle cx="438.338" cy="491.716" r="5.05167" stroke-width="0.5" stroke="black" fill="green"/>
   </g>
   <g id="cell43">
  <circle cx="563.397" cy="440.137" r="8.41271" stroke-width="0.5" stroke="black" fill="green"/>
  <circle cx="563.397" cy="440.137" r="5.05167" stroke-width="0.5" stroke="black" fill="green"/>
   </g>
   <g id="cell164">
  <circle cx="397.679" cy="572.051" r="8.14117" stroke-width="0.5" stroke="black" fill="green"/>
  <circle cx="397.679" cy="572.051" r="4.92986" stroke-width="0.5" stroke="black" fill="green"/>
   </g>
   <g id="cell145">
  <circle cx="415.125" cy="418.876" r="6.12152" stroke-width="0.5" stroke="black" fill="magenta"/>
  <circle cx="415.125" cy="418.876" r="3.73468" stroke-width="0.5" stroke="black" fill="magenta"/>
   </g>
   <g id="cell46">
  <circle cx="517.028" cy="615.065" r="8.41116" stroke-width="0.5" stroke="black" fill="green"/>
  <circle cx="517.028" cy="615.065" r="5.05127" stroke-width="0.5" stroke="black" fill="green"/>
   </g>
   <g id="cell47">
  <circle cx="488.977" cy="491.537" r="8.41175" stroke-width="0.5" stroke="black" fill="green"/>
  <circle cx="488.977" cy="491.537" r="5.05143" stroke-width="0.5" stroke="black" fill="green"/>
   </g>
   <g id="cell48">
  <circle cx="573.763" cy="605.05" r="8.40919" stroke-width="0.5" stroke="black" fill="green"/>
  <circle cx="573.763" cy="605.05" r="5.05072" stroke-width="0.5" stroke="black" fill="green"/>
   </g>
   <g id="cell49">
  <circle cx="439.126" cy="391.04" r="8.08613" stroke-width="0.5" stroke="black" fill="green"/>
  <circle cx="439.126" cy="391.04" r="4.8956" stroke-width="0.5" stroke="black" fill="green"/>
   </g>
   <g id="cell50">
  <circle cx="505.415" cy="509.949" r="8.4078" stroke-width="0.5" stroke="black" fill="cyan"/>
  <circle cx="505.415" cy="509.949" r="5.05026" stroke-width="0.5" stroke="black" fill="cyan"/>
   </g>
   <g id="cell51">
  <circle cx="402.895" cy="597.353" r="8.41271" stroke-width="0.5" stroke="black" fill="cyan"/>
  <circle cx="402.895" cy="597.353" r="5.05167" stroke-width="0.5" stroke="black" fill="cyan"/>
   </g>
   <g id="cell52">
  <circle cx="516.46" cy="418.395" r="8.41271" stroke-width="0.5" stroke="black" fill="cyan"/>
  <circle cx="516.46" cy="418.395" r="5.05167" stroke-width="0.5" stroke="black" fill="cyan"/>
   </g>
   <g id="cell53">
  <circle cx="571.438" cy="426.658" r="8.4114" stroke-width="0.5" stroke="black" fill="cyan"/>
  <circle cx="571.438" cy="426.658" r="5.05134" stroke-width="0.5" stroke="black" fill="cyan"/>
   </g>
   <g id="cell54">
  <circle cx="476.389" cy="418.336" r="8.41192" stroke-width="0.5" stroke="black" fill="cyan"/>
  <circle cx="476.389" cy="418.336" r="5.05148" stroke-width="0.5" stroke="black" fill="cyan"/>
   </g>
   <g id="cell55">
  <circle cx="523.111" cy="458.979" r="8.41146" stroke-width="0.5" stroke="black" fill="cyan"/>
  <circle cx="523.111" cy="458.979" r="5.05136" stroke-width="0.5" stroke="black" fill="cyan"/>
   </g>
   <g id="cell56">
  <circle cx="621.808" cy="522.761" r="8.41271" stroke-width="0.5" stroke="black" fill="cyan"/>
  <circle cx="621.808" cy="522.761" r="5.05167" stroke-width="0.5" stroke="black" fill="cyan"/>
   </g>
   <g id="cell105">
  <circle cx="503.201" cy="607.791" r="8.3721" stroke-width="0.5" stroke="black" fill="green"/>
  <circle cx="503.201" cy="607.791" r="5.03702" stroke-width="0.5" stroke="black" fill="green"/>
   </g>
   <g id="cell58">
  <circle cx="568.287" cy="480.874" r="8.29993" stroke-width="0.5" stroke="black" fill="cyan"/>
  <circle cx="568.287" cy="480.874" r="5.00433" stroke-width="0.5" stroke="black" fill="cyan"/>
   </g>
   <g id="cell59">
  <circle cx="385.732" cy="440.058" r="8.41271" stroke-width="0.5" stroke="black" fill="cyan"/>
  <circle cx="385.732" cy="440.058" r="5.05167" stroke-width="0.5" stroke="black" fill="cyan"/>
   </g>
   <g id="cell60">
  <circle cx="592.232" cy="467.985" r="7.93688" stroke-width="0.5" stroke="black" fill="cyan"/>
  <circle cx="592.232" cy="467.985" r="4.81381" stroke-width="0.5" stroke="black" fill="cyan"/>
   </g>
   <g id="cell186">
  <circle cx="356.076" cy="562.758" r="7.30153" stroke-width="0.5" stroke="black" fill="cyan"/>
  <circle cx="356.076" cy="562.758" r="4.46939" stroke-width="0.5" stroke="black" fill="cyan"/>
   </g>
   <g id="cell62">
  <circle cx="513.72" cy="433.658" r="7.87428" stroke-width="0.5" stroke="black" fill="cyan"/>
  <circle cx="513.72" cy="433.658" r="4.77961" stroke-width="0.5" stroke="black" fill="cyan"/>
   </g>
   <g id="cell63">
  <circle cx="586.826" cy="539.08" r="8.39594" stroke-width="0.5" stroke="black" fill="cyan"/>
  <circle cx="586.826" cy="539.08" r="5.04611" stroke-width="0.5" stroke="black" fill="cyan"/>
   </g>
   <g id="cell64">
  <circle cx="509.544" cy="638.64" r="8.41271" stroke-width="0.5" stroke="black" fill="cyan"/>
  <circle cx="509.544" cy="638.64" r="5.05167" stroke-width="0.5" stroke="black" fill="cyan"/>
   </g>
   <g id="cell65">
  <circle cx="546.45" cy="465.913" r="8.41217" stroke-width="0.5" stroke="black" fill="cyan"/>
  <circle cx="546.45" cy="465.913" r="5.05154" stroke-width="0.5" stroke="black" fill="cyan"/>
   </g>
   <g id="cell66">
  <circle cx="532.93" cy="534.829" r="8.41187" stroke-width="0.5" stroke="black" fill="cyan"/>
  <circle cx="532.93" cy="534.829" r="5.05147" stroke-width="0.5" stroke="black" fill="cyan"/>
   </g>
   <g id="cell67">
  <circle cx="354.662" cy="492.85" r="8.41271" stroke-width="0.5" stroke="black" fill="cyan"/>
  <circle cx="354.662" cy="492.85" r="5.05167" stroke-width="0.5" stroke="black" fill="cyan"/>
   </g>
   <g id="cell68">
  <circle cx="556.643" cy="559.605" r="1.9005" stroke-width="0.5" stroke="black" fill="cyan"/>
  <circle cx="556.643" cy="559.605" r="1.82114" stroke-width="0.5" stroke="black" fill="black"/>
   </g>
   <g id="cell69">
  <circle cx="441.606" cy="461.302" r="8.41271" stroke-width="0.5" stroke="black" fill="cyan"/>
  <circle cx="441.606" cy="461.302" r="5.05167" stroke-width="0.5" stroke="black" fill="cyan"/>
   </g>
   <g id="cell70">
  <circle cx="583.617" cy="482.455" r="8.41271" stroke-width="0.5" stroke="black" fill="cyan"/>
  <circle cx="583.617" cy="482.455" r="5.05167" stroke-width="0.5" stroke="black" fill="cyan"/>
   </g>
   <g id="cell71">
  <circle cx="383.87" cy="532.377" r="3.13697" stroke-width="0.5" stroke="black" fill="cyan"/>
  <circle cx="383.87" cy="532.377" r="2.49316" stroke-width="0.5" stroke="black" fill="black"/>
   </g>
   <g id="cell72">
  <circle cx="536.145" cy="504.967" r="8.07612" stroke-width="0.5" stroke="black" fill="cyan"/>
  <circle cx="536.145" cy="504.967" r="4.89035" stroke-width="0.5" stroke="black" fill="cyan"/>
   </g>
   <g id="cell73">
  <circle cx="364.751" cy="548.434" r="7.8465" stroke-width="0.5" stroke="black" fill="cyan"/>
  <circle cx="364.751" cy="548.434" r="4.76284" stroke-width="0.5" stroke="black" fill="cyan"/>
   </g>
   <g id="cell162">
  <circle cx="374.673" cy="537.422" r="8.21839" stroke-width="0.5" stroke="black" fill="magenta"/>
  <circle cx="374.673" cy="537.422" r="4.96448" stroke-width="0.5" stroke="black" fill="magenta"/>
   </g>
   <g id="cell75">
  <circle cx="528.107" cy="428.433" r="8.41254" stroke-width="0.5" stroke="black" fill="cyan"/>
  <circle cx="528.107" cy="428.433" r="5.05163" stroke-width="0.5" stroke="black" fill="cyan"/>
   </g>
   <g id="cell76">
  <circle cx="437.399" cy="375.346" r="8.41022" stroke-width="0.5" stroke="black" fill="green"/>
  <circle cx="437.399" cy="375.346" r="5.05102" stroke-width="0.5" stroke="black" fill="green"/>
   </g>
   <g id="cell77">
  <circle cx="471.211" cy="444.916" r="8.41079" stroke-width="0.5" stroke="black" fill="magenta"/>
  <circle cx="471.211" cy="444.916" r="5.05117" stroke-width="0.5" stroke="black" fill="magenta"/>
   </g>
   <g id="cell78">
  <circle cx="625.468" cy="461.336" r="8.41207" stroke-width="0.5" stroke="black" fill="green"/>
  <circle cx="625.468" cy="461.336" r="5.05152" stroke-width="0.5" stroke="black" fill="green"/>
   </g>
   <g id="cell79">
  <circle cx="521.294" cy="473.94" r="8.41249" stroke-width="0.5" stroke="black" fill="cyan"/>
  <circle cx="521.294" cy="473.94" r="5.05162" stroke-width="0.5" stroke="black" fill="cyan"/>
   </g>
   <g id="cell80">
  <circle cx="543.975" cy="627.578" r="6.86087" stroke-width="0.5" stroke="black" fill="green"/>
  <circle cx="543.975" cy="627.578" r="4.14706" stroke-width="0.5" stroke="black" fill="green"/>
   </g>
   <g id="cell81">
  <circle cx="546.525" cy="587.984" r="8.41235" stroke-width="0.5" stroke="black" fill="green"/>
  <circle cx="546.525" cy="587.984" r="5.05159" stroke-width="0.5" stroke="black" fill="green"/>
   </g>
   <g id="cell82">
  <circle cx="532.147" cy="561.054" r="8.36835" stroke-width="0.5" stroke="black" fill="magenta"/>
  <circle cx="532.147" cy="561.054" r="5.03508" stroke-width="0.5" stroke="black" fill="magenta"/>
   </g>
   <g id="cell83">
  <circle cx="635.468" cy="552.193" r="1.95372" stroke-width="0.5" stroke="black" fill="green"/>
  <circle cx="635.468" cy="552.193" r="1.86165" stroke-width="0.5" stroke="black" fill="black"/>
   </g>
   <g id="cell84">
  <circle cx="514.663" cy="486.961" r="7.56813" stroke-width="0.5" stroke="black" fill="cyan"/>
  <circle cx="514.663" cy="486.961" r="4.59991" stroke-width="0.5" stroke="black" fill="cyan"/>
   </g>
   <g id="cell85">
  <circle cx="350.936" cy="541.576" r="8.4115" stroke-width="0.5" stroke="black" fill="cyan"/>
  <circle cx="350.936" cy="541.576" r="5.05137" stroke-width="0.5" stroke="black" fill="cyan"/>
   </g>
   <g id="cell86">
  <circle cx="496.879" cy="537.843" r="8.40427" stroke-width="0.5" stroke="black" fill="magenta"/>
  <circle cx="496.879" cy="537.843" r="5.04909" stroke-width="0.5" stroke="black" fill="magenta"/>
   </g>
   <g id="cell87">
  <circle cx="577.251" cy="557.687" r="8.41101" stroke-width="0.5" stroke="black" fill="cyan"/>
  <circle cx="577.251" cy="557.687" r="5.05124" stroke-width="0.5" stroke="black" fill="cyan"/>
   </g>
   <g id="cell88">
  <circle cx="443.638" cy="535.544" r="8.22131" stroke-width="0.5" stroke="black" fill="magenta"/>
  <circle cx="443.638" cy="535.544" r="4.97018" stroke-width="0.5" stroke="black" fill="magenta"/>
   </g>
   <g id="cell89">
  <circle cx="553.607" cy="452.137" r="8.35634" stroke-width="0.5" stroke="black" fill="cyan"/>
  <circle cx="553.607" cy="452.137" r="5.0309" stroke-width="0.5" stroke="black" fill="cyan"/>
   </g>
   <g id="cell90">
  <circle cx="637.542" cy="472.086" r="8.40058" stroke-width="0.5" stroke="black" fill="green"/>
  <circle cx="637.542" cy="472.086" r="5.04781" stroke-width="0.5" stroke="black" fill="green"/>
   </g>
   <g id="cell91">
  <circle cx="547.35" cy="561.527" r="8.41166" stroke-width="0.5" stroke="black" fill="magenta"/>
  <circle cx="547.35" cy="561.527" r="5.05142" stroke-width="0.5" stroke="black" fill="magenta"/>
   </g>
   <g id="cell92">
  <circle cx="488.218" cy="550.978" r="8.41204" stroke-width="0.5" stroke="black" fill="green"/>
  <circle cx="488.218" cy="550.978" r="5.05151" stroke-width="0.5" stroke="black" fill="green"/>
   </g>
   <g id="cell93">
  <circle cx="539.909" cy="548.508" r="8.41166" stroke-width="0.5" stroke="black" fill="magenta"/>
  <circle cx="539.909" cy="548.508" r="5.05142" stroke-width="0.5" stroke="black" fill="magenta"/>
   </g>
   <g id="cell94">
  <circle cx="542.547" cy="491.163" r="8.41194" stroke-width="0.5" stroke="black" fill="cyan"/>
  <circle cx="542.547" cy="491.163" r="5.05148" stroke-width="0.5" stroke="black" fill="cyan"/>
   </g>
   <g id="cell95">
  <circle cx="462.268" cy="419.722" r="6.89616" stroke-width="0.5" stroke="black" fill="cyan"/>
  <circle cx="462.268" cy="419.722" r="4.17008" stroke-width="0.5" stroke="black" fill="cyan"/>
   </g>
   <g id="cell96">
  <circle cx="549.816" cy="537.015" r="8.38979" stroke-width="0.5" stroke="black" fill="cyan"/>
  <circle cx="549.816" cy="537.015" r="5.0438" stroke-width="0.5" stroke="black" fill="cyan"/>
   </g>
   <g id="cell97">
  <circle cx="422.184" cy="466.725" r="8.41111" stroke-width="0.5" stroke="black" fill="green"/>
  <circle cx="422.184" cy="466.725" r="5.05127" stroke-width="0.5" stroke="black" fill="green"/>
   </g>
   <g id="cell98">
  <circle cx="490.139" cy="523.5" r="8.40252" stroke-width="0.5" stroke="black" fill="green"/>
  <circle cx="490.139" cy="523.5" r="5.04851" stroke-width="0.5" stroke="black" fill="green"/>
   </g>
   <g id="cell99">
  <circle cx="361.415" cy="529.448" r="8.4115" stroke-width="0.5" stroke="black" fill="cyan"/>
  <circle cx="361.415" cy="529.448" r="5.05137" stroke-width="0.5" stroke="black" fill="cyan"/>
   </g>
   <g id="cell100">
  <circle cx="447.83" cy="403.591" r="8.41148" stroke-width="0.5" stroke="black" fill="green"/>
  <circle cx="447.83" cy="403.591" r="5.05137" stroke-width="0.5" stroke="black" fill="green"/>
   </g>
   <g id="cell101">
  <circle cx="528.676" cy="486.503" r="7.3717" stroke-width="0.5" stroke="black" fill="cyan"/>
  <circle cx="528.676" cy="486.503" r="4.48434" stroke-width="0.5" stroke="black" fill="cyan"/>
   </g>
   <g id="cell102">
  <circle cx="435.241" cy="476" r="8.41111" stroke-width="0.5" stroke="black" fill="green"/>
  <circle cx="435.241" cy="476" r="5.05127" stroke-width="0.5" stroke="black" fill="green"/>
   </g>
   <g id="cell103">
  <circle cx="593.082" cy="448.739" r="8.40407" stroke-width="0.5" stroke="black" fill="cyan"/>
  <circle cx="593.082" cy="448.739" r="5.04905" stroke-width="0.5" stroke="black" fill="cyan"/>
   </g>
   <g id="cell104">
  <circle cx="605.562" cy="554.94" r="7.62186" stroke-width="0.5" stroke="black" fill="cyan"/>
  <circle cx="605.562" cy="554.94" r="4.639" stroke-width="0.5" stroke="black" fill="cyan"/>
   </g>
   <g id="cell106">
  <circle cx="456.099" cy="443.423" r="8.41079" stroke-width="0.5" stroke="black" fill="magenta"/>
  <circle cx="456.099" cy="443.423" r="5.05117" stroke-width="0.5" stroke="black" fill="magenta"/>
   </g>
   <g id="cell107">
  <circle cx="464.832" cy="389.876" r="8.14902" stroke-width="0.5" stroke="black" fill="green"/>
  <circle cx="464.832" cy="389.876" r="4.9353" stroke-width="0.5" stroke="black" fill="green"/>
   </g>
   <g id="cell108">
  <circle cx="557.97" cy="606.048" r="8.41049" stroke-width="0.5" stroke="black" fill="green"/>
  <circle cx="557.97" cy="606.048" r="5.05108" stroke-width="0.5" stroke="black" fill="green"/>
   </g>
   <g id="cell109">
  <circle cx="576.587" cy="589.307" r="8.40919" stroke-width="0.5" stroke="black" fill="green"/>
  <circle cx="576.587" cy="589.307" r="5.05072" stroke-width="0.5" stroke="black" fill="green"/>
   </g>
   <g id="cell110">
  <circle cx="369.127" cy="509.889" r="8.4097" stroke-width="0.5" stroke="black" fill="cyan"/>
  <circle cx="369.127" cy="509.889" r="5.05084" stroke-width="0.5" stroke="black" fill="cyan"/>
   </g>
   <g id="cell111">
  <circle cx="458.505" cy="556.651" r="8.38718" stroke-width="0.5" stroke="black" fill="magenta"/>
  <circle cx="458.505" cy="556.651" r="5.04292" stroke-width="0.5" stroke="black" fill="magenta"/>
   </g>
   <g id="cell112">
  <circle cx="495.001" cy="468.657" r="8.34891" stroke-width="0.5" stroke="black" fill="magenta"/>
  <circle cx="495.001" cy="468.657" r="5.02697" stroke-width="0.5" stroke="black" fill="magenta"/>
   </g>
   <g id="cell113">
  <circle cx="547.292" cy="385.197" r="8.36283" stroke-width="0.5" stroke="black" fill="green"/>
  <circle cx="547.292" cy="385.197" r="5.03297" stroke-width="0.5" stroke="black" fill="green"/>
   </g>
   <g id="cell114">
  <circle cx="525.824" cy="443.513" r="8.40689" stroke-width="0.5" stroke="black" fill="cyan"/>
  <circle cx="525.824" cy="443.513" r="5.05002" stroke-width="0.5" stroke="black" fill="cyan"/>
   </g>
   <g id="cell115">
  <circle cx="537.771" cy="453.287" r="8.39181" stroke-width="0.5" stroke="black" fill="cyan"/>
  <circle cx="537.771" cy="453.287" r="5.04479" stroke-width="0.5" stroke="black" fill="cyan"/>
   </g>
   <g id="cell116">
  <circle cx="519.998" cy="527.102" r="7.77476" stroke-width="0.5" stroke="black" fill="cyan"/>
  <circle cx="519.998" cy="527.102" r="4.72232" stroke-width="0.5" stroke="black" fill="cyan"/>
   </g>
   <g id="cell117">
  <circle cx="503.772" cy="623.691" r="8.40622" stroke-width="0.5" stroke="black" fill="green"/>
  <circle cx="503.772" cy="623.691" r="5.04978" stroke-width="0.5" stroke="black" fill="green"/>
   </g>
   <g id="cell118">
  <circle cx="511.453" cy="449.121" r="8.40528" stroke-width="0.5" stroke="black" fill="cyan"/>
  <circle cx="511.453" cy="449.121" r="5.04942" stroke-width="0.5" stroke="black" fill="cyan"/>
   </g>
   <g id="cell119">
  <circle cx="543.407" cy="602.532" r="7.87422" stroke-width="0.5" stroke="black" fill="green"/>
  <circle cx="543.407" cy="602.532" r="4.7796" stroke-width="0.5" stroke="black" fill="green"/>
   </g>
   <g id="cell120">
  <circle cx="579.166" cy="440.923" r="8.40407" stroke-width="0.5" stroke="black" fill="cyan"/>
  <circle cx="579.166" cy="440.923" r="5.04905" stroke-width="0.5" stroke="black" fill="cyan"/>
   </g>
   <g id="cell121">
  <circle cx="450.84" cy="366.469" r="8.3945" stroke-width="0.5" stroke="black" fill="green"/>
  <circle cx="450.84" cy="366.469" r="5.04585" stroke-width="0.5" stroke="black" fill="green"/>
   </g>
   <g id="cell122">
  <circle cx="505.43" cy="525.47" r="8.40427" stroke-width="0.5" stroke="black" fill="magenta"/>
  <circle cx="505.43" cy="525.47" r="5.04909" stroke-width="0.5" stroke="black" fill="magenta"/>
   </g>
   <g id="cell123">
  <circle cx="490.026" cy="507.487" r="8.40252" stroke-width="0.5" stroke="black" fill="green"/>
  <circle cx="490.026" cy="507.487" r="5.04851" stroke-width="0.5" stroke="black" fill="green"/>
   </g>
   <g id="cell124">
  <circle cx="490.113" cy="430.774" r="7.07949" stroke-width="0.5" stroke="black" fill="magenta"/>
  <circle cx="490.113" cy="430.774" r="4.29646" stroke-width="0.5" stroke="black" fill="magenta"/>
   </g>
   <g id="cell125">
  <circle cx="622.476" cy="476.904" r="8.40058" stroke-width="0.5" stroke="black" fill="green"/>
  <circle cx="622.476" cy="476.904" r="5.04781" stroke-width="0.5" stroke="black" fill="green"/>
   </g>
   <g id="cell126">
  <circle cx="628.988" cy="566.353" r="8.40043" stroke-width="0.5" stroke="black" fill="green"/>
  <circle cx="628.988" cy="566.353" r="5.04773" stroke-width="0.5" stroke="black" fill="green"/>
   </g>
   <g id="cell127">
  <circle cx="436.471" cy="359.394" r="8.3945" stroke-width="0.5" stroke="black" fill="green"/>
  <circle cx="436.471" cy="359.394" r="5.04585" stroke-width="0.5" stroke="black" fill="green"/>
   </g>
   <g id="cell128">
  <circle cx="372.118" cy="467.557" r="8.39752" stroke-width="0.5" stroke="black" fill="magenta"/>
  <circle cx="372.118" cy="467.557" r="5.04666" stroke-width="0.5" stroke="black" fill="magenta"/>
   </g>
   <g id="cell129">
  <circle cx="571.352" cy="542.832" r="8.39594" stroke-width="0.5" stroke="black" fill="cyan"/>
  <circle cx="571.352" cy="542.832" r="5.04611" stroke-width="0.5" stroke="black" fill="cyan"/>
   </g>
   <g id="cell130">
  <circle cx="543.764" cy="438.849" r="8.39181" stroke-width="0.5" stroke="black" fill="cyan"/>
  <circle cx="543.764" cy="438.849" r="5.04479" stroke-width="0.5" stroke="black" fill="cyan"/>
   </g>
   <g id="cell131">
  <circle cx="546.453" cy="513.893" r="6.75662" stroke-width="0.5" stroke="black" fill="cyan"/>
  <circle cx="546.453" cy="513.893" r="4.1626" stroke-width="0.5" stroke="black" fill="cyan"/>
   </g>
   <g id="cell132">
  <circle cx="444.941" cy="550.246" r="8.38718" stroke-width="0.5" stroke="black" fill="magenta"/>
  <circle cx="444.941" cy="550.246" r="5.04292" stroke-width="0.5" stroke="black" fill="magenta"/>
   </g>
   <g id="cell133">
  <circle cx="577.084" cy="467.954" r="8.38864" stroke-width="0.5" stroke="black" fill="cyan"/>
  <circle cx="577.084" cy="467.954" r="5.04333" stroke-width="0.5" stroke="black" fill="cyan"/>
   </g>
   <g id="cell134">
  <circle cx="535.348" cy="470.182" r="1.2196" stroke-width="0.5" stroke="black" fill="cyan"/>
  <circle cx="535.348" cy="470.182" r="1.21423" stroke-width="0.5" stroke="black" fill="black"/>
   </g>
   <g id="cell135">
  <circle cx="513.235" cy="583.471" r="8.38532" stroke-width="0.5" stroke="black" fill="magenta"/>
  <circle cx="513.235" cy="583.471" r="5.04199" stroke-width="0.5" stroke="black" fill="magenta"/>
   </g>
   <g id="cell136">
  <circle cx="471.639" cy="548.698" r="8.38084" stroke-width="0.5" stroke="black" fill="green"/>
  <circle cx="471.639" cy="548.698" r="5.04026" stroke-width="0.5" stroke="black" fill="green"/>
   </g>
   <g id="cell137">
  <circle cx="489.651" cy="615.906" r="8.3721" stroke-width="0.5" stroke="black" fill="green"/>
  <circle cx="489.651" cy="615.906" r="5.03702" stroke-width="0.5" stroke="black" fill="green"/>
   </g>
   <g id="cell138">
  <circle cx="504.129" cy="407.128" r="8.37537" stroke-width="0.5" stroke="black" fill="green"/>
  <circle cx="504.129" cy="407.128" r="5.03798" stroke-width="0.5" stroke="black" fill="green"/>
   </g>
   <g id="cell139">
  <circle cx="417.298" cy="406.294" r="8.36972" stroke-width="0.5" stroke="black" fill="magenta"/>
  <circle cx="417.298" cy="406.294" r="5.03563" stroke-width="0.5" stroke="black" fill="magenta"/>
   </g>
   <g id="cell140">
  <circle cx="524.42" cy="573.479" r="8.32991" stroke-width="0.5" stroke="black" fill="magenta"/>
  <circle cx="524.42" cy="573.479" r="5.0198" stroke-width="0.5" stroke="black" fill="magenta"/>
   </g>
   <g id="cell141">
  <circle cx="569.952" cy="454.037" r="8.35634" stroke-width="0.5" stroke="black" fill="cyan"/>
  <circle cx="569.952" cy="454.037" r="5.0309" stroke-width="0.5" stroke="black" fill="cyan"/>
   </g>
   <g id="cell142">
  <circle cx="541.927" cy="423.938" r="7.75028" stroke-width="0.5" stroke="black" fill="green"/>
  <circle cx="541.927" cy="423.938" r="4.72208" stroke-width="0.5" stroke="black" fill="green"/>
   </g>
   <g id="cell143">
  <circle cx="432.405" cy="406.683" r="8.34289" stroke-width="0.5" stroke="black" fill="magenta"/>
  <circle cx="432.405" cy="406.683" r="5.02536" stroke-width="0.5" stroke="black" fill="magenta"/>
   </g>
   <g id="cell144">
  <circle cx="546.984" cy="410.466" r="8.23581" stroke-width="0.5" stroke="black" fill="green"/>
  <circle cx="546.984" cy="410.466" r="4.97752" stroke-width="0.5" stroke="black" fill="green"/>
   </g>
   <g id="cell185">
  <circle cx="592.196" cy="560.339" r="7.62186" stroke-width="0.5" stroke="black" fill="cyan"/>
  <circle cx="592.196" cy="560.339" r="4.639" stroke-width="0.5" stroke="black" fill="cyan"/>
   </g>
   <g id="cell147">
  <circle cx="516.944" cy="560.954" r="8.32991" stroke-width="0.5" stroke="black" fill="magenta"/>
  <circle cx="516.944" cy="560.954" r="5.0198" stroke-width="0.5" stroke="black" fill="magenta"/>
   </g>
   <g id="cell148">
  <circle cx="508.313" cy="463.137" r="7.31831" stroke-width="0.5" stroke="black" fill="magenta"/>
  <circle cx="508.313" cy="463.137" r="4.4562" stroke-width="0.5" stroke="black" fill="magenta"/>
   </g>
   <g id="cell149">
  <circle cx="572.621" cy="395.075" r="8.33257" stroke-width="0.5" stroke="black" fill="magenta"/>
  <circle cx="572.621" cy="395.075" r="5.01941" stroke-width="0.5" stroke="black" fill="magenta"/>
   </g>
   <g id="cell150">
  <circle cx="408.944" cy="582.796" r="8.14117" stroke-width="0.5" stroke="black" fill="green"/>
  <circle cx="408.944" cy="582.796" r="4.92986" stroke-width="0.5" stroke="black" fill="green"/>
   </g>
   <g id="cell151">
  <circle cx="418.349" cy="527.76" r="8.31209" stroke-width="0.5" stroke="black" fill="green"/>
  <circle cx="418.349" cy="527.76" r="5.01002" stroke-width="0.5" stroke="black" fill="green"/>
   </g>
   <g id="cell152">
  <circle cx="371.108" cy="576.057" r="8.26037" stroke-width="0.5" stroke="black" fill="green"/>
  <circle cx="371.108" cy="576.057" r="4.98854" stroke-width="0.5" stroke="black" fill="green"/>
   </g>
   <g id="cell153">
  <circle cx="561.524" cy="467.005" r="8.29993" stroke-width="0.5" stroke="black" fill="cyan"/>
  <circle cx="561.524" cy="467.005" r="5.00433" stroke-width="0.5" stroke="black" fill="cyan"/>
   </g>
   <g id="cell154">
  <circle cx="387.075" cy="597.001" r="8.21904" stroke-width="0.5" stroke="black" fill="green"/>
  <circle cx="387.075" cy="597.001" r="4.97058" stroke-width="0.5" stroke="black" fill="green"/>
   </g>
   <g id="cell155">
  <circle cx="485.504" cy="582.78" r="8.29331" stroke-width="0.5" stroke="black" fill="green"/>
  <circle cx="485.504" cy="582.78" r="5.0012" stroke-width="0.5" stroke="black" fill="green"/>
   </g>
   <g id="cell156">
  <circle cx="455.105" cy="526.315" r="8.29304" stroke-width="0.5" stroke="black" fill="magenta"/>
  <circle cx="455.105" cy="526.315" r="5.00114" stroke-width="0.5" stroke="black" fill="magenta"/>
   </g>
   <g id="cell157">
  <circle cx="441.155" cy="521.024" r="8.22131" stroke-width="0.5" stroke="black" fill="magenta"/>
  <circle cx="441.155" cy="521.024" r="4.97018" stroke-width="0.5" stroke="black" fill="magenta"/>
   </g>
   <g id="cell158">
  <circle cx="562.078" cy="413.939" r="8.24354" stroke-width="0.5" stroke="black" fill="green"/>
  <circle cx="562.078" cy="413.939" r="4.98123" stroke-width="0.5" stroke="black" fill="green"/>
   </g>
   <g id="cell159">
  <circle cx="531.566" cy="399.679" r="6.34696" stroke-width="0.5" stroke="black" fill="green"/>
  <circle cx="531.566" cy="399.679" r="3.89471" stroke-width="0.5" stroke="black" fill="green"/>
   </g>
   <g id="cell160">
  <circle cx="464.847" cy="374.19" r="8.25783" stroke-width="0.5" stroke="black" fill="green"/>
  <circle cx="464.847" cy="374.19" r="4.98497" stroke-width="0.5" stroke="black" fill="green"/>
   </g>
   <g id="cell165">
  <circle cx="607.972" cy="525.216" r="6.80379" stroke-width="0.5" stroke="black" fill="magenta"/>
  <circle cx="607.972" cy="525.216" r="4.14711" stroke-width="0.5" stroke="black" fill="magenta"/>
   </g>
   <g id="cell166">
  <circle cx="483.501" cy="458.852" r="8.11999" stroke-width="0.5" stroke="black" fill="magenta"/>
  <circle cx="483.501" cy="458.852" r="4.91405" stroke-width="0.5" stroke="black" fill="magenta"/>
   </g>
   <g id="cell167">
  <circle cx="424.398" cy="393.215" r="8.08613" stroke-width="0.5" stroke="black" fill="green"/>
  <circle cx="424.398" cy="393.215" r="4.8956" stroke-width="0.5" stroke="black" fill="green"/>
   </g>
   <g id="cell170">
  <circle cx="460.034" cy="503.626" r="8.01277" stroke-width="0.5" stroke="black" fill="green"/>
  <circle cx="460.034" cy="503.626" r="4.85584" stroke-width="0.5" stroke="black" fill="green"/>
   </g>
   <g id="cell171">
  <circle cx="598.624" cy="481.338" r="7.93688" stroke-width="0.5" stroke="black" fill="cyan"/>
  <circle cx="598.624" cy="481.338" r="4.81381" stroke-width="0.5" stroke="black" fill="cyan"/>
   </g>
   <g id="cell172">
  <circle cx="550.689" cy="502.365" r="7.50068" stroke-width="0.5" stroke="black" fill="magenta"/>
  <circle cx="550.689" cy="502.365" r="4.58448" stroke-width="0.5" stroke="black" fill="magenta"/>
   </g>
   <g id="cell173">
  <circle cx="532.297" cy="519.309" r="7.86546" stroke-width="0.5" stroke="black" fill="cyan"/>
  <circle cx="532.297" cy="519.309" r="4.77632" stroke-width="0.5" stroke="black" fill="cyan"/>
   </g>
   <g id="cell174">
  <circle cx="500.25" cy="439.606" r="7.87428" stroke-width="0.5" stroke="black" fill="cyan"/>
  <circle cx="500.25" cy="439.606" r="4.77961" stroke-width="0.5" stroke="black" fill="cyan"/>
   </g>
   <g id="cell175">
  <circle cx="526.079" cy="606.415" r="5.66414" stroke-width="0.5" stroke="black" fill="green"/>
  <circle cx="526.079" cy="606.415" r="3.47341" stroke-width="0.5" stroke="black" fill="green"/>
   </g>
   <g id="cell176">
  <circle cx="555.705" cy="427.567" r="7.75028" stroke-width="0.5" stroke="black" fill="green"/>
  <circle cx="555.705" cy="427.567" r="4.72208" stroke-width="0.5" stroke="black" fill="green"/>
   </g>
   <g id="cell177">
  <circle cx="369.69" cy="561.676" r="7.30153" stroke-width="0.5" stroke="black" fill="cyan"/>
  <circle cx="369.69" cy="561.676" r="4.46939" stroke-width="0.5" stroke="black" fill="cyan"/>
   </g>
   <g id="cell178">
  <circle cx="562.211" cy="508.663" r="7.50068" stroke-width="0.5" stroke="black" fill="magenta"/>
  <circle cx="562.211" cy="508.663" r="4.58448" stroke-width="0.5" stroke="black" fill="magenta"/>
   </g>
   <g id="cell179">
  <circle cx="519.792" cy="512.869" r="7.77476" stroke-width="0.5" stroke="black" fill="cyan"/>
  <circle cx="519.792" cy="512.869" r="4.72232" stroke-width="0.5" stroke="black" fill="cyan"/>
   </g>
   <g id="cell180">
  <circle cx="618.241" cy="500.227" r="7.7401" stroke-width="0.5" stroke="black" fill="green"/>
  <circle cx="618.241" cy="500.227" r="4.70142" stroke-width="0.5" stroke="black" fill="green"/>
   </g>
   <g id="cell181">
  <circle cx="556.902" cy="521.899" r="7.40351" stroke-width="0.5" stroke="black" fill="cyan"/>
  <circle cx="556.902" cy="521.899" r="4.53013" stroke-width="0.5" stroke="black" fill="cyan"/>
   </g>
   <g id="cell182">
  <circle cx="532.108" cy="386.703" r="7.61633" stroke-width="0.5" stroke="black" fill="green"/>
  <circle cx="532.108" cy="386.703" r="4.64546" stroke-width="0.5" stroke="black" fill="green"/>
   </g>
   <g id="cell183">
  <circle cx="575.719" cy="507.908" r="7.70049" stroke-width="0.5" stroke="black" fill="magenta"/>
  <circle cx="575.719" cy="507.908" r="4.67828" stroke-width="0.5" stroke="black" fill="magenta"/>
   </g>
   <g id="cell184">
  <circle cx="430.657" cy="430.97" r="6.46736" stroke-width="0.5" stroke="black" fill="magenta"/>
  <circle cx="430.657" cy="430.97" r="3.96849" stroke-width="0.5" stroke="black" fill="magenta"/>
   </g>
   <g id="cell187">
  <circle cx="503.451" cy="495.21" r="7.56813" stroke-width="0.5" stroke="black" fill="cyan"/>
  <circle cx="503.451" cy="495.21" r="4.59991" stroke-width="0.5" stroke="black" fill="cyan"/>
   </g>
   <g id="cell188">
  <circle cx="533.042" cy="615.993" r="7.07529" stroke-width="0.5" stroke="black" fill="green"/>
  <circle cx="533.042" cy="615.993" r="4.33444" stroke-width="0.5" stroke="black" fill="green"/>
   </g>
   <g id="cell189">
  <circle cx="538.563" cy="477.529" r="7.3717" stroke-width="0.5" stroke="black" fill="cyan"/>
  <circle cx="538.563" cy="477.529" r="4.48434" stroke-width="0.5" stroke="black" fill="cyan"/>
   </g>
   <g id="cell190">
  <circle cx="543.72" cy="525.421" r="6.75662" stroke-width="0.5" stroke="black" fill="cyan"/>
  <circle cx="543.72" cy="525.421" r="4.1626" stroke-width="0.5" stroke="black" fill="cyan"/>
   </g>
   <g id="cell191">
  <circle cx="506.875" cy="476.031" r="7.31831" stroke-width="0.5" stroke="black" fill="magenta"/>
  <circle cx="506.875" cy="476.031" r="4.4562" stroke-width="0.5" stroke="black" fill="magenta"/>
   </g>
   <g id="cell192">
  <circle cx="477.803" cy="432.713" r="7.07949" stroke-width="0.5" stroke="black" fill="magenta"/>
  <circle cx="477.803" cy="432.713" r="4.29646" stroke-width="0.5" stroke="black" fill="magenta"/>
   </g>
   <g id="cell193">
  <circle cx="436.086" cy="419.638" r="6.46736" stroke-width="0.5" stroke="black" fill="magenta"/>
  <circle cx="436.086" cy="419.638" r="3.96849" stroke-width="0.5" stroke="black" fill="magenta"/>
   </g>
   <g id="cell194">
  <circle cx="601.952" cy="514.598" r="6.80379" stroke-width="0.5" stroke="black" fill="magenta"/>
  <circle cx="601.952" cy="514.598" r="4.14711" stroke-width="0.5" stroke="black" fill="magenta"/>
   </g>
   <g id="cell195">
  <circle cx="543.01" cy="397.887" r="6.34696" stroke-width="0.5" stroke="black" fill="green"/>
  <circle cx="543.01" cy="397.887" r="3.89471" stroke-width="0.5" stroke="black" fill="green"/>
   </g>
   <g id="cell196">
  <circle cx="464.809" cy="432.302" r="6.89616" stroke-width="0.5" stroke="black" fill="cyan"/>
  <circle cx="464.809" cy="432.302" r="4.17008" stroke-width="0.5" stroke="black" fill="cyan"/>
   </g>
   <g id="cell197">
  <circle cx="546.704" cy="615.324" r="6.86087" stroke-width="0.5" stroke="black" fill="green"/>
  <circle cx="546.704" cy="615.324" r="4.14706" stroke-width="0.5" stroke="black" fill="green"/>
   </g>
   <g id="cell198">
  <circle cx="425.492" cy="420.955" r="6.12152" stroke-width="0.5" stroke="black" fill="magenta"/>
  <circle cx="425.492" cy="420.955" r="3.73468" stroke-width="0.5" stroke="black" fill="magenta"/>
   </g>
   <g id="cell199">
  <circle cx="532.171" cy="598.591" r="5.66414" stroke-width="0.5" stroke="black" fill="green"/>
  <circle cx="532.171" cy="598.591" r="3.47341" stroke-width="0.5" stroke="black" fill="green"/>
   </g>
  </g>
 </g>
  <rect x="775" y="1035" width="200" height="10" stroke-width="2" stroke="rgb(255,255,255)" fill="rgb(0,0,0)"/>
  <text x="781.25" y="1028.75"
   font-family="Arial" font-size="25" fill="black" >
   200 &#956;m
  </text>
  <text x="25" y="1045"
   font-family="Arial" font-size="18.75" fill="black" >
   0 days, 0 hours, 0 minutes, and 41.7567 seconds
  </text>
  <rect x="0" y="70" width="1000" height="1000" stroke-width="2" stroke="rgb(0,0,0)" fill="none"/>
</svg>
