<?xml version="1.0" encoding="UTF-8" standalone="no"?>
<!-- Created with PhysiCell (http://PhysiCell.MathCancer.org/) -->
<svg 
 xmlns:dc="http://purl.org/dc/elements/1.1/" 
 xmlns:cc="http://creativecommons.org/ns#" 
 xmlns:rdf="http://www.w3.org/1999/02/22-rdf-syntax-ns#" 
 xmlns:svg="http://www.w3.org/2000/svg" 
 xmlns="http://www.w3.org/2000/svg" 
 version="1.1" 
 width="1000" 
 height="1070" 
 id="svg2">
  <rect x="0" y="0" width="1000" height="1070" stroke-width="2" stroke="white" fill="white"/>
  <text x="12.5" y="30"
   font-family="Arial" font-size="25" fill="black" >
   Current time: 0 days, 13 hours, and 0.00 minutes, z = 0.00 &#956;m
  </text>
  <text x="12.5" y="57.5"
   font-family="Arial" font-size="23.75" fill="black" >
   111 agents
  </text>
 <g id="tissue" 
    transform="translate(0,1070) scale(1,-1)">
  <g id="ECM">
  </g>
  <g id="cells">
   <g id="cell0">
  <circle cx="509.472" cy="537.063" r="8.28262" stroke-width="0.5" stroke="black" fill="magenta"/>
  <circle cx="509.472" cy="537.063" r="4.9961" stroke-width="0.5" stroke="black" fill="magenta"/>
   </g>
   <g id="cell1">
  <circle cx="602.472" cy="526.121" r="8.41271" stroke-width="0.5" stroke="black" fill="magenta"/>
  <circle cx="602.472" cy="526.121" r="5.05167" stroke-width="0.5" stroke="black" fill="magenta"/>
   </g>
   <g id="cell2">
  <circle cx="512.206" cy="595.443" r="8.11327" stroke-width="0.5" stroke="black" fill="magenta"/>
  <circle cx="512.206" cy="595.443" r="4.91006" stroke-width="0.5" stroke="black" fill="magenta"/>
   </g>
   <g id="cell3">
  <circle cx="523.651" cy="542.043" r="8.41271" stroke-width="0.5" stroke="black" fill="magenta"/>
  <circle cx="523.651" cy="542.043" r="5.05167" stroke-width="0.5" stroke="black" fill="magenta"/>
   </g>
   <g id="cell4">
  <circle cx="483.453" cy="437.926" r="8.41271" stroke-width="0.5" stroke="black" fill="magenta"/>
  <circle cx="483.453" cy="437.926" r="5.05167" stroke-width="0.5" stroke="black" fill="magenta"/>
   </g>
   <g id="cell5">
  <circle cx="461.082" cy="497.075" r="8.33911" stroke-width="0.5" stroke="black" fill="magenta"/>
  <circle cx="461.082" cy="497.075" r="5.02235" stroke-width="0.5" stroke="black" fill="magenta"/>
   </g>
   <g id="cell6">
  <circle cx="595.606" cy="512.599" r="8.41271" stroke-width="0.5" stroke="black" fill="magenta"/>
  <circle cx="595.606" cy="512.599" r="5.05167" stroke-width="0.5" stroke="black" fill="magenta"/>
   </g>
   <g id="cell7">
  <circle cx="510.49" cy="464.896" r="8.41271" stroke-width="0.5" stroke="black" fill="magenta"/>
  <circle cx="510.49" cy="464.896" r="5.05167" stroke-width="0.5" stroke="black" fill="magenta"/>
   </g>
   <g id="cell8">
  <circle cx="384.972" cy="541.377" r="8.27497" stroke-width="0.5" stroke="black" fill="magenta"/>
  <circle cx="384.972" cy="541.377" r="4.99242" stroke-width="0.5" stroke="black" fill="magenta"/>
   </g>
   <g id="cell9">
  <circle cx="460.472" cy="599.786" r="8.41271" stroke-width="0.5" stroke="black" fill="magenta"/>
  <circle cx="460.472" cy="599.786" r="5.05167" stroke-width="0.5" stroke="black" fill="magenta"/>
   </g>
   <g id="cell10">
  <circle cx="583.447" cy="392.105" r="8.41271" stroke-width="0.5" stroke="black" fill="magenta"/>
  <circle cx="583.447" cy="392.105" r="5.05167" stroke-width="0.5" stroke="black" fill="magenta"/>
   </g>
   <g id="cell11">
  <circle cx="589.748" cy="590.273" r="8.41271" stroke-width="0.5" stroke="black" fill="magenta"/>
  <circle cx="589.748" cy="590.273" r="5.05167" stroke-width="0.5" stroke="black" fill="magenta"/>
   </g>
   <g id="cell12">
  <circle cx="500.592" cy="588.096" r="7.0545" stroke-width="0.5" stroke="black" fill="magenta"/>
  <circle cx="500.592" cy="588.096" r="4.27772" stroke-width="0.5" stroke="black" fill="magenta"/>
   </g>
   <g id="cell13">
  <circle cx="385.329" cy="567.616" r="8.41271" stroke-width="0.5" stroke="black" fill="magenta"/>
  <circle cx="385.329" cy="567.616" r="5.05167" stroke-width="0.5" stroke="black" fill="magenta"/>
   </g>
   <g id="cell14">
  <circle cx="530.087" cy="400.512" r="8.41271" stroke-width="0.5" stroke="black" fill="magenta"/>
  <circle cx="530.087" cy="400.512" r="5.05167" stroke-width="0.5" stroke="black" fill="magenta"/>
   </g>
   <g id="cell15">
  <circle cx="378.406" cy="473.578" r="8.41271" stroke-width="0.5" stroke="black" fill="magenta"/>
  <circle cx="378.406" cy="473.578" r="5.05167" stroke-width="0.5" stroke="black" fill="magenta"/>
   </g>
   <g id="cell16">
  <circle cx="428.96" cy="413.217" r="8.41271" stroke-width="0.5" stroke="black" fill="magenta"/>
  <circle cx="428.96" cy="413.217" r="5.05167" stroke-width="0.5" stroke="black" fill="magenta"/>
   </g>
   <g id="cell17">
  <circle cx="586.978" cy="492.411" r="7.61469" stroke-width="0.5" stroke="black" fill="magenta"/>
  <circle cx="586.978" cy="492.411" r="4.62762" stroke-width="0.5" stroke="black" fill="magenta"/>
   </g>
   <g id="cell18">
  <circle cx="518.781" cy="390.34" r="8.41271" stroke-width="0.5" stroke="black" fill="magenta"/>
  <circle cx="518.781" cy="390.34" r="5.05167" stroke-width="0.5" stroke="black" fill="magenta"/>
   </g>
   <g id="cell19">
  <circle cx="451.991" cy="536.582" r="8.41271" stroke-width="0.5" stroke="black" fill="magenta"/>
  <circle cx="451.991" cy="536.582" r="5.05167" stroke-width="0.5" stroke="black" fill="magenta"/>
   </g>
   <g id="cell20">
  <circle cx="528.435" cy="415.627" r="8.41271" stroke-width="0.5" stroke="black" fill="magenta"/>
  <circle cx="528.435" cy="415.627" r="5.05167" stroke-width="0.5" stroke="black" fill="magenta"/>
   </g>
   <g id="cell21">
  <circle cx="464.368" cy="634.574" r="8.41271" stroke-width="0.5" stroke="black" fill="magenta"/>
  <circle cx="464.368" cy="634.574" r="5.05167" stroke-width="0.5" stroke="black" fill="magenta"/>
   </g>
   <g id="cell22">
  <circle cx="560.692" cy="494.115" r="8.35062" stroke-width="0.5" stroke="black" fill="magenta"/>
  <circle cx="560.692" cy="494.115" r="5.02745" stroke-width="0.5" stroke="black" fill="magenta"/>
   </g>
   <g id="cell23">
  <circle cx="535.111" cy="484.681" r="8.41271" stroke-width="0.5" stroke="black" fill="magenta"/>
  <circle cx="535.111" cy="484.681" r="5.05167" stroke-width="0.5" stroke="black" fill="magenta"/>
   </g>
   <g id="cell24">
  <circle cx="557.063" cy="382.596" r="8.41271" stroke-width="0.5" stroke="black" fill="magenta"/>
  <circle cx="557.063" cy="382.596" r="5.05167" stroke-width="0.5" stroke="black" fill="magenta"/>
   </g>
   <g id="cell25">
  <circle cx="640.943" cy="550.03" r="8.41271" stroke-width="0.5" stroke="black" fill="green"/>
  <circle cx="640.943" cy="550.03" r="5.05167" stroke-width="0.5" stroke="black" fill="green"/>
   </g>
   <g id="cell26">
  <circle cx="547.121" cy="394.41" r="8.04604" stroke-width="0.5" stroke="black" fill="green"/>
  <circle cx="547.121" cy="394.41" r="4.87399" stroke-width="0.5" stroke="black" fill="green"/>
   </g>
   <g id="cell27">
  <circle cx="451.197" cy="386.798" r="7.33129" stroke-width="0.5" stroke="black" fill="green"/>
  <circle cx="451.197" cy="386.798" r="4.45516" stroke-width="0.5" stroke="black" fill="green"/>
   </g>
   <g id="cell28">
  <circle cx="437.414" cy="531.024" r="8.41271" stroke-width="0.5" stroke="black" fill="green"/>
  <circle cx="437.414" cy="531.024" r="5.05167" stroke-width="0.5" stroke="black" fill="green"/>
   </g>
   <g id="cell29">
  <circle cx="450.003" cy="521.109" r="8.41271" stroke-width="0.5" stroke="black" fill="green"/>
  <circle cx="450.003" cy="521.109" r="5.05167" stroke-width="0.5" stroke="black" fill="green"/>
   </g>
   <g id="cell30">
  <circle cx="481.58" cy="540.282" r="1.84616" stroke-width="0.5" stroke="black" fill="green"/>
  <circle cx="481.58" cy="540.282" r="1.7784" stroke-width="0.5" stroke="black" fill="black"/>
   </g>
   <g id="cell31">
  <circle cx="412.757" cy="541.193" r="8.41271" stroke-width="0.5" stroke="black" fill="green"/>
  <circle cx="412.757" cy="541.193" r="5.05167" stroke-width="0.5" stroke="black" fill="green"/>
   </g>
   <g id="cell32">
  <circle cx="425.655" cy="474.59" r="1.76957" stroke-width="0.5" stroke="black" fill="green"/>
  <circle cx="425.655" cy="474.59" r="1.71615" stroke-width="0.5" stroke="black" fill="black"/>
   </g>
   <g id="cell33">
  <circle cx="493.06" cy="425.635" r="8.41271" stroke-width="0.5" stroke="black" fill="green"/>
  <circle cx="493.06" cy="425.635" r="5.05167" stroke-width="0.5" stroke="black" fill="green"/>
   </g>
   <g id="cell34">
  <circle cx="397.088" cy="450.831" r="8.41271" stroke-width="0.5" stroke="black" fill="green"/>
  <circle cx="397.088" cy="450.831" r="5.05167" stroke-width="0.5" stroke="black" fill="green"/>
   </g>
   <g id="cell35">
  <circle cx="553.824" cy="551.084" r="8.35404" stroke-width="0.5" stroke="black" fill="green"/>
  <circle cx="553.824" cy="551.084" r="5.02894" stroke-width="0.5" stroke="black" fill="green"/>
   </g>
   <g id="cell36">
  <circle cx="391.272" cy="582.172" r="8.41271" stroke-width="0.5" stroke="black" fill="green"/>
  <circle cx="391.272" cy="582.172" r="5.05167" stroke-width="0.5" stroke="black" fill="green"/>
   </g>
   <g id="cell37">
  <circle cx="633.119" cy="454.873" r="8.18833" stroke-width="0.5" stroke="black" fill="green"/>
  <circle cx="633.119" cy="454.873" r="4.94921" stroke-width="0.5" stroke="black" fill="green"/>
   </g>
   <g id="cell38">
  <circle cx="536.707" cy="601.762" r="8.41271" stroke-width="0.5" stroke="black" fill="green"/>
  <circle cx="536.707" cy="601.762" r="5.05167" stroke-width="0.5" stroke="black" fill="green"/>
   </g>
   <g id="cell39">
  <circle cx="614.584" cy="498.519" r="6.65949" stroke-width="0.5" stroke="black" fill="green"/>
  <circle cx="614.584" cy="498.519" r="4.09395" stroke-width="0.5" stroke="black" fill="green"/>
   </g>
   <g id="cell40">
  <circle cx="490.456" cy="577.834" r="8.33257" stroke-width="0.5" stroke="black" fill="green"/>
  <circle cx="490.456" cy="577.834" r="5.01941" stroke-width="0.5" stroke="black" fill="green"/>
   </g>
   <g id="cell41">
  <circle cx="370.797" cy="486.975" r="8.1947" stroke-width="0.5" stroke="black" fill="green"/>
  <circle cx="370.797" cy="486.975" r="4.95246" stroke-width="0.5" stroke="black" fill="green"/>
   </g>
   <g id="cell42">
  <circle cx="438.898" cy="494.275" r="8.41271" stroke-width="0.5" stroke="black" fill="green"/>
  <circle cx="438.898" cy="494.275" r="5.05167" stroke-width="0.5" stroke="black" fill="green"/>
   </g>
   <g id="cell43">
  <circle cx="555.384" cy="437.284" r="8.30918" stroke-width="0.5" stroke="black" fill="green"/>
  <circle cx="555.384" cy="437.284" r="5.00867" stroke-width="0.5" stroke="black" fill="green"/>
   </g>
   <g id="cell44">
  <circle cx="475.857" cy="624.021" r="8.41271" stroke-width="0.5" stroke="black" fill="green"/>
  <circle cx="475.857" cy="624.021" r="5.05167" stroke-width="0.5" stroke="black" fill="green"/>
   </g>
   <g id="cell45">
  <circle cx="414.953" cy="557.066" r="8.41271" stroke-width="0.5" stroke="black" fill="green"/>
  <circle cx="414.953" cy="557.066" r="5.05167" stroke-width="0.5" stroke="black" fill="green"/>
   </g>
   <g id="cell46">
  <circle cx="521.759" cy="607.557" r="8.41271" stroke-width="0.5" stroke="black" fill="green"/>
  <circle cx="521.759" cy="607.557" r="5.05167" stroke-width="0.5" stroke="black" fill="green"/>
   </g>
   <g id="cell47">
  <circle cx="504.87" cy="502.798" r="8.33911" stroke-width="0.5" stroke="black" fill="green"/>
  <circle cx="504.87" cy="502.798" r="5.02235" stroke-width="0.5" stroke="black" fill="green"/>
   </g>
   <g id="cell48">
  <circle cx="564.5" cy="602.802" r="8.41271" stroke-width="0.5" stroke="black" fill="green"/>
  <circle cx="564.5" cy="602.802" r="5.05167" stroke-width="0.5" stroke="black" fill="green"/>
   </g>
   <g id="cell49">
  <circle cx="429.826" cy="397.641" r="8.41271" stroke-width="0.5" stroke="black" fill="green"/>
  <circle cx="429.826" cy="397.641" r="5.05167" stroke-width="0.5" stroke="black" fill="green"/>
   </g>
   <g id="cell50">
  <circle cx="517.669" cy="511.98" r="8.41271" stroke-width="0.5" stroke="black" fill="cyan"/>
  <circle cx="517.669" cy="511.98" r="5.05167" stroke-width="0.5" stroke="black" fill="cyan"/>
   </g>
   <g id="cell51">
  <circle cx="398.424" cy="596.608" r="8.41271" stroke-width="0.5" stroke="black" fill="cyan"/>
  <circle cx="398.424" cy="596.608" r="5.05167" stroke-width="0.5" stroke="black" fill="cyan"/>
   </g>
   <g id="cell108">
  <circle cx="337.259" cy="545.93" r="6.90882" stroke-width="0.5" stroke="black" fill="cyan"/>
  <circle cx="337.259" cy="545.93" r="4.2057" stroke-width="0.5" stroke="black" fill="cyan"/>
   </g>
   <g id="cell53">
  <circle cx="571.265" cy="436.334" r="8.41271" stroke-width="0.5" stroke="black" fill="cyan"/>
  <circle cx="571.265" cy="436.334" r="5.05167" stroke-width="0.5" stroke="black" fill="cyan"/>
   </g>
   <g id="cell54">
  <circle cx="477.159" cy="423.653" r="8.41271" stroke-width="0.5" stroke="black" fill="cyan"/>
  <circle cx="477.159" cy="423.653" r="5.05167" stroke-width="0.5" stroke="black" fill="cyan"/>
   </g>
   <g id="cell55">
  <circle cx="526.622" cy="473.599" r="6.89675" stroke-width="0.5" stroke="black" fill="cyan"/>
  <circle cx="526.622" cy="473.599" r="4.17024" stroke-width="0.5" stroke="black" fill="cyan"/>
   </g>
   <g id="cell56">
  <circle cx="617.608" cy="522.334" r="8.41271" stroke-width="0.5" stroke="black" fill="cyan"/>
  <circle cx="617.608" cy="522.334" r="5.05167" stroke-width="0.5" stroke="black" fill="cyan"/>
   </g>
   <g id="cell57">
  <circle cx="416.924" cy="617.466" r="8.41271" stroke-width="0.5" stroke="black" fill="cyan"/>
  <circle cx="416.924" cy="617.466" r="5.05167" stroke-width="0.5" stroke="black" fill="cyan"/>
   </g>
   <g id="cell58">
  <circle cx="549.447" cy="480.354" r="8.41271" stroke-width="0.5" stroke="black" fill="cyan"/>
  <circle cx="549.447" cy="480.354" r="5.05167" stroke-width="0.5" stroke="black" fill="cyan"/>
   </g>
   <g id="cell59">
  <circle cx="385.463" cy="439.803" r="8.41271" stroke-width="0.5" stroke="black" fill="cyan"/>
  <circle cx="385.463" cy="439.803" r="5.05167" stroke-width="0.5" stroke="black" fill="cyan"/>
   </g>
   <g id="cell60">
  <circle cx="595.009" cy="472.698" r="8.41271" stroke-width="0.5" stroke="black" fill="cyan"/>
  <circle cx="595.009" cy="472.698" r="5.05167" stroke-width="0.5" stroke="black" fill="cyan"/>
   </g>
   <g id="cell61">
  <circle cx="552.87" cy="613.827" r="8.41271" stroke-width="0.5" stroke="black" fill="cyan"/>
  <circle cx="552.87" cy="613.827" r="5.05167" stroke-width="0.5" stroke="black" fill="cyan"/>
   </g>
   <g id="cell62">
  <circle cx="526.387" cy="444.009" r="8.41271" stroke-width="0.5" stroke="black" fill="cyan"/>
  <circle cx="526.387" cy="444.009" r="5.05167" stroke-width="0.5" stroke="black" fill="cyan"/>
   </g>
   <g id="cell63">
  <circle cx="592.148" cy="552.43" r="7.65937" stroke-width="0.5" stroke="black" fill="cyan"/>
  <circle cx="592.148" cy="552.43" r="4.66408" stroke-width="0.5" stroke="black" fill="cyan"/>
   </g>
   <g id="cell64">
  <circle cx="509.962" cy="636.825" r="8.41271" stroke-width="0.5" stroke="black" fill="cyan"/>
  <circle cx="509.962" cy="636.825" r="5.05167" stroke-width="0.5" stroke="black" fill="cyan"/>
   </g>
   <g id="cell65">
  <circle cx="539.982" cy="468.217" r="8.41271" stroke-width="0.5" stroke="black" fill="cyan"/>
  <circle cx="539.982" cy="468.217" r="5.05167" stroke-width="0.5" stroke="black" fill="cyan"/>
   </g>
   <g id="cell66">
  <circle cx="550.512" cy="532.781" r="8.20088" stroke-width="0.5" stroke="black" fill="cyan"/>
  <circle cx="550.512" cy="532.781" r="4.95562" stroke-width="0.5" stroke="black" fill="cyan"/>
   </g>
   <g id="cell67">
  <circle cx="357.844" cy="496.052" r="8.347" stroke-width="0.5" stroke="black" fill="cyan"/>
  <circle cx="357.844" cy="496.052" r="5.02586" stroke-width="0.5" stroke="black" fill="cyan"/>
   </g>
   <g id="cell68">
  <circle cx="568.088" cy="557.637" r="8.41271" stroke-width="0.5" stroke="black" fill="cyan"/>
  <circle cx="568.088" cy="557.637" r="5.05167" stroke-width="0.5" stroke="black" fill="cyan"/>
   </g>
   <g id="cell69">
  <circle cx="437.355" cy="464.76" r="8.41271" stroke-width="0.5" stroke="black" fill="cyan"/>
  <circle cx="437.355" cy="464.76" r="5.05167" stroke-width="0.5" stroke="black" fill="cyan"/>
   </g>
   <g id="cell70">
  <circle cx="581.539" cy="479.216" r="7.86286" stroke-width="0.5" stroke="black" fill="cyan"/>
  <circle cx="581.539" cy="479.216" r="4.77207" stroke-width="0.5" stroke="black" fill="cyan"/>
   </g>
   <g id="cell71">
  <circle cx="373.965" cy="515.047" r="7.75657" stroke-width="0.5" stroke="black" fill="cyan"/>
  <circle cx="373.965" cy="515.047" r="4.72701" stroke-width="0.5" stroke="black" fill="cyan"/>
   </g>
   <g id="cell72">
  <circle cx="532.553" cy="516.68" r="8.35882" stroke-width="0.5" stroke="black" fill="cyan"/>
  <circle cx="532.553" cy="516.68" r="5.031" stroke-width="0.5" stroke="black" fill="cyan"/>
   </g>
   <g id="cell73">
  <circle cx="348.268" cy="552.972" r="6.90882" stroke-width="0.5" stroke="black" fill="cyan"/>
  <circle cx="348.268" cy="552.972" r="4.2057" stroke-width="0.5" stroke="black" fill="cyan"/>
   </g>
   <g id="cell74">
  <circle cx="542.25" cy="446.305" r="8.41271" stroke-width="0.5" stroke="black" fill="cyan"/>
  <circle cx="542.25" cy="446.305" r="5.05167" stroke-width="0.5" stroke="black" fill="cyan"/>
   </g>
   <g id="cell75">
  <circle cx="531.322" cy="500.676" r="8.35882" stroke-width="0.5" stroke="black" fill="cyan"/>
  <circle cx="531.322" cy="500.676" r="5.031" stroke-width="0.5" stroke="black" fill="cyan"/>
   </g>
   <g id="cell76">
  <circle cx="532.16" cy="553.563" r="7.0451" stroke-width="0.5" stroke="black" fill="green"/>
  <circle cx="532.16" cy="553.563" r="4.28219" stroke-width="0.5" stroke="black" fill="green"/>
   </g>
   <g id="cell77">
  <circle cx="545.76" cy="495.37" r="8.35062" stroke-width="0.5" stroke="black" fill="magenta"/>
  <circle cx="545.76" cy="495.37" r="5.02745" stroke-width="0.5" stroke="black" fill="magenta"/>
   </g>
   <g id="cell78">
  <circle cx="343.876" cy="488.292" r="8.347" stroke-width="0.5" stroke="black" fill="cyan"/>
  <circle cx="343.876" cy="488.292" r="5.02586" stroke-width="0.5" stroke="black" fill="cyan"/>
   </g>
   <g id="cell79">
  <circle cx="489.202" cy="504.83" r="8.33911" stroke-width="0.5" stroke="black" fill="green"/>
  <circle cx="489.202" cy="504.83" r="5.02235" stroke-width="0.5" stroke="black" fill="green"/>
   </g>
   <g id="cell80">
  <circle cx="471.881" cy="486.65" r="8.33911" stroke-width="0.5" stroke="black" fill="magenta"/>
  <circle cx="471.881" cy="486.65" r="5.02235" stroke-width="0.5" stroke="black" fill="magenta"/>
   </g>
   <g id="cell81">
  <circle cx="482.602" cy="563.84" r="8.33257" stroke-width="0.5" stroke="black" fill="green"/>
  <circle cx="482.602" cy="563.84" r="5.01941" stroke-width="0.5" stroke="black" fill="green"/>
   </g>
   <g id="cell82">
  <circle cx="573.873" cy="531.985" r="7.17277" stroke-width="0.5" stroke="black" fill="cyan"/>
  <circle cx="573.873" cy="531.985" r="4.36954" stroke-width="0.5" stroke="black" fill="cyan"/>
   </g>
   <g id="cell83">
  <circle cx="562.203" cy="450.772" r="7.65937" stroke-width="0.5" stroke="black" fill="green"/>
  <circle cx="562.203" cy="450.772" r="4.66408" stroke-width="0.5" stroke="black" fill="green"/>
   </g>
   <g id="cell84">
  <circle cx="520.67" cy="527.168" r="8.28262" stroke-width="0.5" stroke="black" fill="magenta"/>
  <circle cx="520.67" cy="527.168" r="4.9961" stroke-width="0.5" stroke="black" fill="magenta"/>
   </g>
   <g id="cell85">
  <circle cx="372.994" cy="550.254" r="8.27497" stroke-width="0.5" stroke="black" fill="magenta"/>
  <circle cx="372.994" cy="550.254" r="4.99242" stroke-width="0.5" stroke="black" fill="magenta"/>
   </g>
   <g id="cell86">
  <circle cx="602.611" cy="486.624" r="8.26685" stroke-width="0.5" stroke="black" fill="green"/>
  <circle cx="602.611" cy="486.624" r="4.98849" stroke-width="0.5" stroke="black" fill="green"/>
   </g>
   <g id="cell87">
  <circle cx="359.033" cy="543.66" r="8.25377" stroke-width="0.5" stroke="black" fill="cyan"/>
  <circle cx="359.033" cy="543.66" r="4.98209" stroke-width="0.5" stroke="black" fill="cyan"/>
   </g>
   <g id="cell88">
  <circle cx="535.002" cy="531.785" r="8.20088" stroke-width="0.5" stroke="black" fill="cyan"/>
  <circle cx="535.002" cy="531.785" r="4.95562" stroke-width="0.5" stroke="black" fill="cyan"/>
   </g>
   <g id="cell89">
  <circle cx="364.437" cy="468.636" r="7.61255" stroke-width="0.5" stroke="black" fill="green"/>
  <circle cx="364.437" cy="468.636" r="4.64274" stroke-width="0.5" stroke="black" fill="green"/>
   </g>
   <g id="cell90">
  <circle cx="637.665" cy="469.776" r="8.18833" stroke-width="0.5" stroke="black" fill="green"/>
  <circle cx="637.665" cy="469.776" r="4.94921" stroke-width="0.5" stroke="black" fill="green"/>
   </g>
   <g id="cell91">
  <circle cx="382.863" cy="526.751" r="7.69388" stroke-width="0.5" stroke="black" fill="cyan"/>
  <circle cx="382.863" cy="526.751" r="4.69175" stroke-width="0.5" stroke="black" fill="cyan"/>
   </g>
   <g id="cell92">
  <circle cx="506.509" cy="608.854" r="8.11327" stroke-width="0.5" stroke="black" fill="magenta"/>
  <circle cx="506.509" cy="608.854" r="4.91006" stroke-width="0.5" stroke="black" fill="magenta"/>
   </g>
   <g id="cell93">
  <circle cx="555.496" cy="407.35" r="8.04604" stroke-width="0.5" stroke="black" fill="green"/>
  <circle cx="555.496" cy="407.35" r="4.87399" stroke-width="0.5" stroke="black" fill="green"/>
   </g>
   <g id="cell94">
  <circle cx="388.679" cy="513.441" r="7.75657" stroke-width="0.5" stroke="black" fill="cyan"/>
  <circle cx="388.679" cy="513.441" r="4.72701" stroke-width="0.5" stroke="black" fill="cyan"/>
   </g>
   <g id="cell95">
  <circle cx="371.438" cy="535.495" r="7.69388" stroke-width="0.5" stroke="black" fill="cyan"/>
  <circle cx="371.438" cy="535.495" r="4.69175" stroke-width="0.5" stroke="black" fill="cyan"/>
   </g>
   <g id="cell96">
  <circle cx="575.449" cy="466.743" r="6.49036" stroke-width="0.5" stroke="black" fill="cyan"/>
  <circle cx="575.449" cy="466.743" r="3.96323" stroke-width="0.5" stroke="black" fill="cyan"/>
   </g>
   <g id="cell97">
  <circle cx="357.056" cy="480.959" r="7.61255" stroke-width="0.5" stroke="black" fill="green"/>
  <circle cx="357.056" cy="480.959" r="4.64274" stroke-width="0.5" stroke="black" fill="green"/>
   </g>
   <g id="cell98">
  <circle cx="578.852" cy="546.856" r="7.65937" stroke-width="0.5" stroke="black" fill="cyan"/>
  <circle cx="578.852" cy="546.856" r="4.66408" stroke-width="0.5" stroke="black" fill="cyan"/>
   </g>
   <g id="cell99">
  <circle cx="554.526" cy="463.179" r="7.65937" stroke-width="0.5" stroke="black" fill="green"/>
  <circle cx="554.526" cy="463.179" r="4.66408" stroke-width="0.5" stroke="black" fill="green"/>
   </g>
   <g id="cell100">
  <circle cx="617.809" cy="485.502" r="7.52619" stroke-width="0.5" stroke="black" fill="green"/>
  <circle cx="617.809" cy="485.502" r="4.58854" stroke-width="0.5" stroke="black" fill="green"/>
   </g>
   <g id="cell101">
  <circle cx="574.123" cy="492.506" r="6.7162" stroke-width="0.5" stroke="black" fill="magenta"/>
  <circle cx="574.123" cy="492.506" r="4.1197" stroke-width="0.5" stroke="black" fill="magenta"/>
   </g>
   <g id="cell102">
  <circle cx="464.517" cy="390.805" r="7.33129" stroke-width="0.5" stroke="black" fill="green"/>
  <circle cx="464.517" cy="390.805" r="4.45516" stroke-width="0.5" stroke="black" fill="green"/>
   </g>
   <g id="cell103">
  <circle cx="565.627" cy="542.701" r="7.17277" stroke-width="0.5" stroke="black" fill="cyan"/>
  <circle cx="565.627" cy="542.701" r="4.36954" stroke-width="0.5" stroke="black" fill="cyan"/>
   </g>
   <g id="cell104">
  <circle cx="627.202" cy="498.693" r="6.65949" stroke-width="0.5" stroke="black" fill="green"/>
  <circle cx="627.202" cy="498.693" r="4.09395" stroke-width="0.5" stroke="black" fill="green"/>
   </g>
   <g id="cell105">
  <circle cx="570.293" cy="482.503" r="5.45357" stroke-width="0.5" stroke="black" fill="magenta"/>
  <circle cx="570.293" cy="482.503" r="3.35431" stroke-width="0.5" stroke="black" fill="magenta"/>
   </g>
   <g id="cell106">
  <circle cx="541.401" cy="544.182" r="7.0451" stroke-width="0.5" stroke="black" fill="green"/>
  <circle cx="541.401" cy="544.182" r="4.28219" stroke-width="0.5" stroke="black" fill="green"/>
   </g>
   <g id="cell107">
  <circle cx="511.611" cy="581.825" r="7.0545" stroke-width="0.5" stroke="black" fill="magenta"/>
  <circle cx="511.611" cy="581.825" r="4.27772" stroke-width="0.5" stroke="black" fill="magenta"/>
   </g>
   <g id="cell109">
  <circle cx="524.074" cy="460.949" r="6.89675" stroke-width="0.5" stroke="black" fill="cyan"/>
  <circle cx="524.074" cy="460.949" r="4.17024" stroke-width="0.5" stroke="black" fill="cyan"/>
   </g>
   <g id="cell110">
  <circle cx="564.589" cy="472.019" r="6.49036" stroke-width="0.5" stroke="black" fill="cyan"/>
  <circle cx="564.589" cy="472.019" r="3.96323" stroke-width="0.5" stroke="black" fill="cyan"/>
   </g>
   <g id="cell111">
  <circle cx="561.173" cy="482.161" r="5.45357" stroke-width="0.5" stroke="black" fill="magenta"/>
  <circle cx="561.173" cy="482.161" r="3.35431" stroke-width="0.5" stroke="black" fill="magenta"/>
   </g>
  </g>
 </g>
  <rect x="775" y="1035" width="200" height="10" stroke-width="2" stroke="rgb(255,255,255)" fill="rgb(0,0,0)"/>
  <text x="781.25" y="1028.75"
   font-family="Arial" font-size="25" fill="black" >
   200 &#956;m
  </text>
  <text x="25" y="1045"
   font-family="Arial" font-size="18.75" fill="black" >
   0 days, 0 hours, 0 minutes, and 13.6769 seconds
  </text>
  <rect x="0" y="70" width="1000" height="1000" stroke-width="2" stroke="rgb(0,0,0)" fill="none"/>
</svg>
