<?xml version="1.0" encoding="UTF-8" standalone="no"?>
<!-- Created with PhysiCell (http://PhysiCell.MathCancer.org/) -->
<svg 
 xmlns:dc="http://purl.org/dc/elements/1.1/" 
 xmlns:cc="http://creativecommons.org/ns#" 
 xmlns:rdf="http://www.w3.org/1999/02/22-rdf-syntax-ns#" 
 xmlns:svg="http://www.w3.org/2000/svg" 
 xmlns="http://www.w3.org/2000/svg" 
 version="1.1" 
 width="1000" 
 height="1070" 
 id="svg2">
  <rect x="0" y="0" width="1000" height="1070" stroke-width="2" stroke="white" fill="white"/>
  <text x="12.5" y="30"
   font-family="Arial" font-size="25" fill="black" >
   Current time: 1 days, 16 hours, and 12.00 minutes, z = 0.00 &#956;m
  </text>
  <text x="12.5" y="57.5"
   font-family="Arial" font-size="23.75" fill="black" >
   207 agents
  </text>
 <g id="tissue" 
    transform="translate(0,1070) scale(1,-1)">
  <g id="ECM">
  </g>
  <g id="cells">
   <g id="cell0">
  <circle cx="509.435" cy="542.889" r="8.41261" stroke-width="0.5" stroke="black" fill="magenta"/>
  <circle cx="509.435" cy="542.889" r="5.05165" stroke-width="0.5" stroke="black" fill="magenta"/>
   </g>
   <g id="cell1">
  <circle cx="593.085" cy="525.498" r="8.35882" stroke-width="0.5" stroke="black" fill="magenta"/>
  <circle cx="593.085" cy="525.498" r="5.031" stroke-width="0.5" stroke="black" fill="magenta"/>
   </g>
   <g id="cell2">
  <circle cx="513.704" cy="597.051" r="8.41271" stroke-width="0.5" stroke="black" fill="magenta"/>
  <circle cx="513.704" cy="597.051" r="5.05167" stroke-width="0.5" stroke="black" fill="magenta"/>
   </g>
   <g id="cell3">
  <circle cx="524.221" cy="546.627" r="8.41255" stroke-width="0.5" stroke="black" fill="magenta"/>
  <circle cx="524.221" cy="546.627" r="5.05164" stroke-width="0.5" stroke="black" fill="magenta"/>
   </g>
   <g id="cell4">
  <circle cx="483.943" cy="444.424" r="8.41059" stroke-width="0.5" stroke="black" fill="magenta"/>
  <circle cx="483.943" cy="444.424" r="5.05111" stroke-width="0.5" stroke="black" fill="magenta"/>
   </g>
   <g id="cell5">
  <circle cx="468.969" cy="490.502" r="8.41271" stroke-width="0.5" stroke="black" fill="magenta"/>
  <circle cx="468.969" cy="490.502" r="5.05167" stroke-width="0.5" stroke="black" fill="magenta"/>
   </g>
   <g id="cell163">
  <circle cx="532.158" cy="573.646" r="6.86652" stroke-width="0.5" stroke="black" fill="green"/>
  <circle cx="532.158" cy="573.646" r="4.15874" stroke-width="0.5" stroke="black" fill="green"/>
   </g>
   <g id="cell7">
  <circle cx="494.881" cy="454.773" r="8.35199" stroke-width="0.5" stroke="black" fill="magenta"/>
  <circle cx="494.881" cy="454.773" r="5.02812" stroke-width="0.5" stroke="black" fill="magenta"/>
   </g>
   <g id="cell8">
  <circle cx="379.555" cy="553.075" r="8.37208" stroke-width="0.5" stroke="black" fill="magenta"/>
  <circle cx="379.555" cy="553.075" r="5.03661" stroke-width="0.5" stroke="black" fill="magenta"/>
   </g>
   <g id="cell161">
  <circle cx="452.377" cy="386.234" r="8.35792" stroke-width="0.5" stroke="black" fill="green"/>
  <circle cx="452.377" cy="386.234" r="5.03169" stroke-width="0.5" stroke="black" fill="green"/>
   </g>
   <g id="cell10">
  <circle cx="585.061" cy="387.879" r="8.39571" stroke-width="0.5" stroke="black" fill="magenta"/>
  <circle cx="585.061" cy="387.879" r="5.04599" stroke-width="0.5" stroke="black" fill="magenta"/>
   </g>
   <g id="cell11">
  <circle cx="591.516" cy="591.115" r="8.41271" stroke-width="0.5" stroke="black" fill="magenta"/>
  <circle cx="591.516" cy="591.115" r="5.05167" stroke-width="0.5" stroke="black" fill="magenta"/>
   </g>
   <g id="cell12">
  <circle cx="498.909" cy="594.141" r="8.40683" stroke-width="0.5" stroke="black" fill="magenta"/>
  <circle cx="498.909" cy="594.141" r="5.04993" stroke-width="0.5" stroke="black" fill="magenta"/>
   </g>
   <g id="cell13">
  <circle cx="383.979" cy="567.735" r="8.41271" stroke-width="0.5" stroke="black" fill="magenta"/>
  <circle cx="383.979" cy="567.735" r="5.05167" stroke-width="0.5" stroke="black" fill="magenta"/>
   </g>
   <g id="cell14">
  <circle cx="517.199" cy="403.958" r="8.41271" stroke-width="0.5" stroke="black" fill="magenta"/>
  <circle cx="517.199" cy="403.958" r="5.05167" stroke-width="0.5" stroke="black" fill="magenta"/>
   </g>
   <g id="cell15">
  <circle cx="381.866" cy="479.123" r="8.40944" stroke-width="0.5" stroke="black" fill="magenta"/>
  <circle cx="381.866" cy="479.123" r="5.05076" stroke-width="0.5" stroke="black" fill="magenta"/>
   </g>
   <g id="cell16">
  <circle cx="452.656" cy="417.382" r="7.94004" stroke-width="0.5" stroke="black" fill="magenta"/>
  <circle cx="452.656" cy="417.382" r="4.81797" stroke-width="0.5" stroke="black" fill="magenta"/>
   </g>
   <g id="cell17">
  <circle cx="583.672" cy="497.522" r="8.26685" stroke-width="0.5" stroke="black" fill="magenta"/>
  <circle cx="583.672" cy="497.522" r="4.98849" stroke-width="0.5" stroke="black" fill="magenta"/>
   </g>
   <g id="cell18">
  <circle cx="518.721" cy="388.375" r="8.41271" stroke-width="0.5" stroke="black" fill="magenta"/>
  <circle cx="518.721" cy="388.375" r="5.05167" stroke-width="0.5" stroke="black" fill="magenta"/>
   </g>
   <g id="cell19">
  <circle cx="457.368" cy="541.357" r="8.41196" stroke-width="0.5" stroke="black" fill="magenta"/>
  <circle cx="457.368" cy="541.357" r="5.05149" stroke-width="0.5" stroke="black" fill="magenta"/>
   </g>
   <g id="cell20">
  <circle cx="529.852" cy="412.488" r="8.41271" stroke-width="0.5" stroke="black" fill="magenta"/>
  <circle cx="529.852" cy="412.488" r="5.05167" stroke-width="0.5" stroke="black" fill="magenta"/>
   </g>
   <g id="cell21">
  <circle cx="467.683" cy="637.262" r="7.59183" stroke-width="0.5" stroke="black" fill="magenta"/>
  <circle cx="467.683" cy="637.262" r="4.61399" stroke-width="0.5" stroke="black" fill="magenta"/>
   </g>
   <g id="cell22">
  <circle cx="558.911" cy="489.817" r="7.78583" stroke-width="0.5" stroke="black" fill="magenta"/>
  <circle cx="558.911" cy="489.817" r="4.7371" stroke-width="0.5" stroke="black" fill="magenta"/>
   </g>
   <g id="cell23">
  <circle cx="554.271" cy="476.813" r="8.41271" stroke-width="0.5" stroke="black" fill="magenta"/>
  <circle cx="554.271" cy="476.813" r="5.05167" stroke-width="0.5" stroke="black" fill="magenta"/>
   </g>
   <g id="cell24">
  <circle cx="570.326" cy="384.831" r="8.41271" stroke-width="0.5" stroke="black" fill="magenta"/>
  <circle cx="570.326" cy="384.831" r="5.05167" stroke-width="0.5" stroke="black" fill="magenta"/>
   </g>
   <g id="cell25">
  <circle cx="643.646" cy="546.126" r="7.44238" stroke-width="0.5" stroke="black" fill="green"/>
  <circle cx="643.646" cy="546.126" r="4.52373" stroke-width="0.5" stroke="black" fill="green"/>
   </g>
   <g id="cell26">
  <circle cx="559.578" cy="396.742" r="8.41196" stroke-width="0.5" stroke="black" fill="green"/>
  <circle cx="559.578" cy="396.742" r="5.05149" stroke-width="0.5" stroke="black" fill="green"/>
   </g>
   <g id="cell27">
  <circle cx="462.312" cy="405.843" r="8.41267" stroke-width="0.5" stroke="black" fill="green"/>
  <circle cx="462.312" cy="405.843" r="5.05166" stroke-width="0.5" stroke="black" fill="green"/>
   </g>
   <g id="cell28">
  <circle cx="429.233" cy="543.218" r="8.39144" stroke-width="0.5" stroke="black" fill="green"/>
  <circle cx="429.233" cy="543.218" r="5.04437" stroke-width="0.5" stroke="black" fill="green"/>
   </g>
   <g id="cell29">
  <circle cx="451.864" cy="519.065" r="1.1638" stroke-width="0.5" stroke="black" fill="green"/>
  <circle cx="451.864" cy="519.065" r="1.15878" stroke-width="0.5" stroke="black" fill="black"/>
   </g>
   <g id="cell30">
  <circle cx="479.749" cy="536.519" r="8.40588" stroke-width="0.5" stroke="black" fill="green"/>
  <circle cx="479.749" cy="536.519" r="5.04962" stroke-width="0.5" stroke="black" fill="green"/>
   </g>
   <g id="cell31">
  <circle cx="413.363" cy="543.759" r="8.41271" stroke-width="0.5" stroke="black" fill="green"/>
  <circle cx="413.363" cy="543.759" r="5.05167" stroke-width="0.5" stroke="black" fill="green"/>
   </g>
   <g id="cell169">
  <circle cx="520.023" cy="502.459" r="8.34308" stroke-width="0.5" stroke="black" fill="cyan"/>
  <circle cx="520.023" cy="502.459" r="5.02414" stroke-width="0.5" stroke="black" fill="cyan"/>
   </g>
   <g id="cell33">
  <circle cx="497.129" cy="417.11" r="8.40472" stroke-width="0.5" stroke="black" fill="green"/>
  <circle cx="497.129" cy="417.11" r="5.04922" stroke-width="0.5" stroke="black" fill="green"/>
   </g>
   <g id="cell168">
  <circle cx="381.481" cy="517.957" r="4.03459" stroke-width="0.5" stroke="black" fill="cyan"/>
  <circle cx="381.481" cy="517.957" r="2.90568" stroke-width="0.5" stroke="black" fill="black"/>
   </g>
   <g id="cell35">
  <circle cx="557.32" cy="557.163" r="8.41271" stroke-width="0.5" stroke="black" fill="green"/>
  <circle cx="557.32" cy="557.163" r="5.05167" stroke-width="0.5" stroke="black" fill="green"/>
   </g>
   <g id="cell36">
  <circle cx="388.842" cy="582.665" r="8.37214" stroke-width="0.5" stroke="black" fill="green"/>
  <circle cx="388.842" cy="582.665" r="5.0376" stroke-width="0.5" stroke="black" fill="green"/>
   </g>
   <g id="cell37">
  <circle cx="642.374" cy="456.121" r="8.41267" stroke-width="0.5" stroke="black" fill="green"/>
  <circle cx="642.374" cy="456.121" r="5.05166" stroke-width="0.5" stroke="black" fill="green"/>
   </g>
   <g id="cell38">
  <circle cx="524.207" cy="585.65" r="8.37205" stroke-width="0.5" stroke="black" fill="green"/>
  <circle cx="524.207" cy="585.65" r="5.03661" stroke-width="0.5" stroke="black" fill="green"/>
   </g>
   <g id="cell39">
  <circle cx="612.01" cy="490.924" r="8.27497" stroke-width="0.5" stroke="black" fill="green"/>
  <circle cx="612.01" cy="490.924" r="4.99242" stroke-width="0.5" stroke="black" fill="green"/>
   </g>
   <g id="cell40">
  <circle cx="486.18" cy="567.302" r="8.38753" stroke-width="0.5" stroke="black" fill="green"/>
  <circle cx="486.18" cy="567.302" r="5.04286" stroke-width="0.5" stroke="black" fill="green"/>
   </g>
   <g id="cell41">
  <circle cx="366.56" cy="482.122" r="8.41271" stroke-width="0.5" stroke="black" fill="green"/>
  <circle cx="366.56" cy="482.122" r="5.05167" stroke-width="0.5" stroke="black" fill="green"/>
   </g>
   <g id="cell42">
  <circle cx="437.561" cy="490.308" r="8.41271" stroke-width="0.5" stroke="black" fill="green"/>
  <circle cx="437.561" cy="490.308" r="5.05167" stroke-width="0.5" stroke="black" fill="green"/>
   </g>
   <g id="cell43">
  <circle cx="564.838" cy="438.422" r="8.41271" stroke-width="0.5" stroke="black" fill="green"/>
  <circle cx="564.838" cy="438.422" r="5.05167" stroke-width="0.5" stroke="black" fill="green"/>
   </g>
   <g id="cell164">
  <circle cx="399.251" cy="570.653" r="8.35632" stroke-width="0.5" stroke="black" fill="green"/>
  <circle cx="399.251" cy="570.653" r="5.03077" stroke-width="0.5" stroke="black" fill="green"/>
   </g>
   <g id="cell145">
  <circle cx="410.53" cy="420.775" r="7.92544" stroke-width="0.5" stroke="black" fill="magenta"/>
  <circle cx="410.53" cy="420.775" r="4.81816" stroke-width="0.5" stroke="black" fill="magenta"/>
   </g>
   <g id="cell46">
  <circle cx="515.713" cy="619.672" r="8.41237" stroke-width="0.5" stroke="black" fill="green"/>
  <circle cx="515.713" cy="619.672" r="5.05159" stroke-width="0.5" stroke="black" fill="green"/>
   </g>
   <g id="cell47">
  <circle cx="484.502" cy="491.13" r="8.4125" stroke-width="0.5" stroke="black" fill="green"/>
  <circle cx="484.502" cy="491.13" r="5.05162" stroke-width="0.5" stroke="black" fill="green"/>
   </g>
   <g id="cell48">
  <circle cx="578.103" cy="604.316" r="8.41194" stroke-width="0.5" stroke="black" fill="green"/>
  <circle cx="578.103" cy="604.316" r="5.05149" stroke-width="0.5" stroke="black" fill="green"/>
   </g>
   <g id="cell49">
  <circle cx="437.189" cy="391.073" r="8.34511" stroke-width="0.5" stroke="black" fill="green"/>
  <circle cx="437.189" cy="391.073" r="5.02502" stroke-width="0.5" stroke="black" fill="green"/>
   </g>
   <g id="cell50">
  <circle cx="501.016" cy="512.885" r="8.41165" stroke-width="0.5" stroke="black" fill="cyan"/>
  <circle cx="501.016" cy="512.885" r="5.05141" stroke-width="0.5" stroke="black" fill="cyan"/>
   </g>
   <g id="cell51">
  <circle cx="400.845" cy="592.381" r="7.86286" stroke-width="0.5" stroke="black" fill="cyan"/>
  <circle cx="400.845" cy="592.381" r="4.77207" stroke-width="0.5" stroke="black" fill="cyan"/>
   </g>
   <g id="cell52">
  <circle cx="518.059" cy="415.746" r="4.23297" stroke-width="0.5" stroke="black" fill="cyan"/>
  <circle cx="518.059" cy="415.746" r="2.99316" stroke-width="0.5" stroke="black" fill="black"/>
   </g>
   <g id="cell53">
  <circle cx="573.382" cy="425.07" r="8.41242" stroke-width="0.5" stroke="black" fill="cyan"/>
  <circle cx="573.382" cy="425.07" r="5.05161" stroke-width="0.5" stroke="black" fill="cyan"/>
   </g>
   <g id="cell54">
  <circle cx="481.264" cy="417.016" r="8.41254" stroke-width="0.5" stroke="black" fill="cyan"/>
  <circle cx="481.264" cy="417.016" r="5.05163" stroke-width="0.5" stroke="black" fill="cyan"/>
   </g>
   <g id="cell55">
  <circle cx="521.456" cy="459.236" r="8.41244" stroke-width="0.5" stroke="black" fill="cyan"/>
  <circle cx="521.456" cy="459.236" r="5.05161" stroke-width="0.5" stroke="black" fill="cyan"/>
   </g>
   <g id="cell56">
  <circle cx="622.706" cy="522.196" r="8.41271" stroke-width="0.5" stroke="black" fill="cyan"/>
  <circle cx="622.706" cy="522.196" r="5.05167" stroke-width="0.5" stroke="black" fill="cyan"/>
   </g>
   <g id="cell105">
  <circle cx="503.656" cy="608.986" r="8.40402" stroke-width="0.5" stroke="black" fill="green"/>
  <circle cx="503.656" cy="608.986" r="5.04904" stroke-width="0.5" stroke="black" fill="green"/>
   </g>
   <g id="cell58">
  <circle cx="569.946" cy="474.38" r="8.38891" stroke-width="0.5" stroke="black" fill="cyan"/>
  <circle cx="569.946" cy="474.38" r="5.0434" stroke-width="0.5" stroke="black" fill="cyan"/>
   </g>
   <g id="cell59">
  <circle cx="385.732" cy="440.058" r="8.41271" stroke-width="0.5" stroke="black" fill="cyan"/>
  <circle cx="385.732" cy="440.058" r="5.05167" stroke-width="0.5" stroke="black" fill="cyan"/>
   </g>
   <g id="cell60">
  <circle cx="597.6" cy="464.685" r="8.31491" stroke-width="0.5" stroke="black" fill="cyan"/>
  <circle cx="597.6" cy="464.685" r="5.01133" stroke-width="0.5" stroke="black" fill="cyan"/>
   </g>
   <g id="cell186">
  <circle cx="354.924" cy="562.196" r="2.58597" stroke-width="0.5" stroke="black" fill="cyan"/>
  <circle cx="354.924" cy="562.196" r="2.24608" stroke-width="0.5" stroke="black" fill="black"/>
   </g>
   <g id="cell62">
  <circle cx="514.467" cy="433.371" r="8.30228" stroke-width="0.5" stroke="black" fill="cyan"/>
  <circle cx="514.467" cy="433.371" r="5.00561" stroke-width="0.5" stroke="black" fill="cyan"/>
   </g>
   <g id="cell63">
  <circle cx="585.418" cy="538.766" r="8.4091" stroke-width="0.5" stroke="black" fill="cyan"/>
  <circle cx="585.418" cy="538.766" r="5.05066" stroke-width="0.5" stroke="black" fill="cyan"/>
   </g>
   <g id="cell64">
  <circle cx="509.382" cy="638.132" r="8.41271" stroke-width="0.5" stroke="black" fill="cyan"/>
  <circle cx="509.382" cy="638.132" r="5.05167" stroke-width="0.5" stroke="black" fill="cyan"/>
   </g>
   <g id="cell65">
  <circle cx="545.381" cy="464.484" r="8.41259" stroke-width="0.5" stroke="black" fill="cyan"/>
  <circle cx="545.381" cy="464.484" r="5.05165" stroke-width="0.5" stroke="black" fill="cyan"/>
   </g>
   <g id="cell66">
  <circle cx="534.327" cy="536.034" r="8.41253" stroke-width="0.5" stroke="black" fill="cyan"/>
  <circle cx="534.327" cy="536.034" r="5.05163" stroke-width="0.5" stroke="black" fill="cyan"/>
   </g>
   <g id="cell67">
  <circle cx="354.659" cy="492.853" r="8.41271" stroke-width="0.5" stroke="black" fill="cyan"/>
  <circle cx="354.659" cy="492.853" r="5.05167" stroke-width="0.5" stroke="black" fill="cyan"/>
   </g>
   <g id="cell212">
  <circle cx="568.103" cy="498.366" r="7.24232" stroke-width="0.5" stroke="black" fill="magenta"/>
  <circle cx="568.103" cy="498.366" r="4.42182" stroke-width="0.5" stroke="black" fill="magenta"/>
   </g>
   <g id="cell69">
  <circle cx="443.684" cy="460.585" r="8.41271" stroke-width="0.5" stroke="black" fill="cyan"/>
  <circle cx="443.684" cy="460.585" r="5.05167" stroke-width="0.5" stroke="black" fill="cyan"/>
   </g>
   <g id="cell70">
  <circle cx="585.829" cy="480.08" r="8.41271" stroke-width="0.5" stroke="black" fill="cyan"/>
  <circle cx="585.829" cy="480.08" r="5.05167" stroke-width="0.5" stroke="black" fill="cyan"/>
   </g>
   <g id="cell71">
  <circle cx="381.749" cy="533.709" r="1.29867" stroke-width="0.5" stroke="black" fill="cyan"/>
  <circle cx="381.749" cy="533.709" r="1.28954" stroke-width="0.5" stroke="black" fill="black"/>
   </g>
   <g id="cell72">
  <circle cx="535.631" cy="502.142" r="8.34308" stroke-width="0.5" stroke="black" fill="cyan"/>
  <circle cx="535.631" cy="502.142" r="5.02414" stroke-width="0.5" stroke="black" fill="cyan"/>
   </g>
   <g id="cell73">
  <circle cx="364.81" cy="549.888" r="7.78039" stroke-width="0.5" stroke="black" fill="cyan"/>
  <circle cx="364.81" cy="549.888" r="4.73453" stroke-width="0.5" stroke="black" fill="cyan"/>
   </g>
   <g id="cell162">
  <circle cx="374.361" cy="538.704" r="8.37208" stroke-width="0.5" stroke="black" fill="magenta"/>
  <circle cx="374.361" cy="538.704" r="5.03661" stroke-width="0.5" stroke="black" fill="magenta"/>
   </g>
   <g id="cell75">
  <circle cx="528.417" cy="427.943" r="8.41267" stroke-width="0.5" stroke="black" fill="cyan"/>
  <circle cx="528.417" cy="427.943" r="5.05166" stroke-width="0.5" stroke="black" fill="cyan"/>
   </g>
   <g id="cell76">
  <circle cx="435.66" cy="375.458" r="8.41217" stroke-width="0.5" stroke="black" fill="green"/>
  <circle cx="435.66" cy="375.458" r="5.05155" stroke-width="0.5" stroke="black" fill="green"/>
   </g>
   <g id="cell77">
  <circle cx="469.399" cy="447.506" r="8.41229" stroke-width="0.5" stroke="black" fill="magenta"/>
  <circle cx="469.399" cy="447.506" r="5.05158" stroke-width="0.5" stroke="black" fill="magenta"/>
   </g>
   <g id="cell78">
  <circle cx="626.409" cy="455.27" r="8.41257" stroke-width="0.5" stroke="black" fill="green"/>
  <circle cx="626.409" cy="455.27" r="5.05164" stroke-width="0.5" stroke="black" fill="green"/>
   </g>
   <g id="cell79">
  <circle cx="518.161" cy="474.663" r="8.41266" stroke-width="0.5" stroke="black" fill="cyan"/>
  <circle cx="518.161" cy="474.663" r="5.05166" stroke-width="0.5" stroke="black" fill="cyan"/>
   </g>
   <g id="cell80">
  <circle cx="542.057" cy="632.054" r="8.06578" stroke-width="0.5" stroke="black" fill="green"/>
  <circle cx="542.057" cy="632.054" r="4.88491" stroke-width="0.5" stroke="black" fill="green"/>
   </g>
   <g id="cell81">
  <circle cx="552.893" cy="589.152" r="8.41263" stroke-width="0.5" stroke="black" fill="green"/>
  <circle cx="552.893" cy="589.152" r="5.05166" stroke-width="0.5" stroke="black" fill="green"/>
   </g>
   <g id="cell82">
  <circle cx="529.021" cy="560.411" r="8.40324" stroke-width="0.5" stroke="black" fill="magenta"/>
  <circle cx="529.021" cy="560.411" r="5.04871" stroke-width="0.5" stroke="black" fill="magenta"/>
   </g>
   <g id="cell211">
  <circle cx="450.009" cy="371.534" r="7.38542" stroke-width="0.5" stroke="black" fill="green"/>
  <circle cx="450.009" cy="371.534" r="4.48953" stroke-width="0.5" stroke="black" fill="green"/>
   </g>
   <g id="cell84">
  <circle cx="512.332" cy="489.339" r="8.23944" stroke-width="0.5" stroke="black" fill="cyan"/>
  <circle cx="512.332" cy="489.339" r="4.97502" stroke-width="0.5" stroke="black" fill="cyan"/>
   </g>
   <g id="cell85">
  <circle cx="345.263" cy="541.89" r="8.41245" stroke-width="0.5" stroke="black" fill="cyan"/>
  <circle cx="345.263" cy="541.89" r="5.05161" stroke-width="0.5" stroke="black" fill="cyan"/>
   </g>
   <g id="cell86">
  <circle cx="494.959" cy="538.977" r="8.41088" stroke-width="0.5" stroke="black" fill="magenta"/>
  <circle cx="494.959" cy="538.977" r="5.05119" stroke-width="0.5" stroke="black" fill="magenta"/>
   </g>
   <g id="cell87">
  <circle cx="573.106" cy="559.071" r="8.41234" stroke-width="0.5" stroke="black" fill="cyan"/>
  <circle cx="573.106" cy="559.071" r="5.05159" stroke-width="0.5" stroke="black" fill="cyan"/>
   </g>
   <g id="cell88">
  <circle cx="445.575" cy="534.229" r="6.92974" stroke-width="0.5" stroke="black" fill="magenta"/>
  <circle cx="445.575" cy="534.229" r="4.20269" stroke-width="0.5" stroke="black" fill="magenta"/>
   </g>
   <g id="cell89">
  <circle cx="554.096" cy="449.783" r="8.40068" stroke-width="0.5" stroke="black" fill="cyan"/>
  <circle cx="554.096" cy="449.783" r="5.04796" stroke-width="0.5" stroke="black" fill="cyan"/>
   </g>
   <g id="cell90">
  <circle cx="637.265" cy="471.357" r="8.41009" stroke-width="0.5" stroke="black" fill="green"/>
  <circle cx="637.265" cy="471.357" r="5.05096" stroke-width="0.5" stroke="black" fill="green"/>
   </g>
   <g id="cell91">
  <circle cx="543.589" cy="564.808" r="8.41248" stroke-width="0.5" stroke="black" fill="magenta"/>
  <circle cx="543.589" cy="564.808" r="5.05162" stroke-width="0.5" stroke="black" fill="magenta"/>
   </g>
   <g id="cell92">
  <circle cx="486.119" cy="551.486" r="8.41256" stroke-width="0.5" stroke="black" fill="green"/>
  <circle cx="486.119" cy="551.486" r="5.05164" stroke-width="0.5" stroke="black" fill="green"/>
   </g>
   <g id="cell93">
  <circle cx="540.092" cy="550.123" r="8.41248" stroke-width="0.5" stroke="black" fill="magenta"/>
  <circle cx="540.092" cy="550.123" r="5.05162" stroke-width="0.5" stroke="black" fill="magenta"/>
   </g>
   <g id="cell94">
  <circle cx="543.681" cy="488.288" r="8.41254" stroke-width="0.5" stroke="black" fill="cyan"/>
  <circle cx="543.681" cy="488.288" r="5.05163" stroke-width="0.5" stroke="black" fill="cyan"/>
   </g>
   <g id="cell95">
  <circle cx="466.481" cy="421.032" r="8.07645" stroke-width="0.5" stroke="black" fill="cyan"/>
  <circle cx="466.481" cy="421.032" r="4.89044" stroke-width="0.5" stroke="black" fill="cyan"/>
   </g>
   <g id="cell96">
  <circle cx="553.863" cy="541.972" r="8.40778" stroke-width="0.5" stroke="black" fill="cyan"/>
  <circle cx="553.863" cy="541.972" r="5.05025" stroke-width="0.5" stroke="black" fill="cyan"/>
   </g>
   <g id="cell97">
  <circle cx="420.493" cy="464.045" r="8.41236" stroke-width="0.5" stroke="black" fill="green"/>
  <circle cx="420.493" cy="464.045" r="5.05159" stroke-width="0.5" stroke="black" fill="green"/>
   </g>
   <g id="cell98">
  <circle cx="489.942" cy="524.174" r="8.41051" stroke-width="0.5" stroke="black" fill="green"/>
  <circle cx="489.942" cy="524.174" r="5.05109" stroke-width="0.5" stroke="black" fill="green"/>
   </g>
   <g id="cell99">
  <circle cx="368.045" cy="524.601" r="8.41245" stroke-width="0.5" stroke="black" fill="cyan"/>
  <circle cx="368.045" cy="524.601" r="5.05161" stroke-width="0.5" stroke="black" fill="cyan"/>
   </g>
   <g id="cell100">
  <circle cx="446.182" cy="403.962" r="8.41244" stroke-width="0.5" stroke="black" fill="green"/>
  <circle cx="446.182" cy="403.962" r="5.05161" stroke-width="0.5" stroke="black" fill="green"/>
   </g>
   <g id="cell101">
  <circle cx="527.649" cy="488.828" r="8.19805" stroke-width="0.5" stroke="black" fill="cyan"/>
  <circle cx="527.649" cy="488.828" r="4.95477" stroke-width="0.5" stroke="black" fill="cyan"/>
   </g>
   <g id="cell102">
  <circle cx="441.899" cy="475.714" r="7.72035" stroke-width="0.5" stroke="black" fill="green"/>
  <circle cx="441.899" cy="475.714" r="4.68998" stroke-width="0.5" stroke="black" fill="green"/>
   </g>
   <g id="cell103">
  <circle cx="592.727" cy="449.667" r="8.41084" stroke-width="0.5" stroke="black" fill="cyan"/>
  <circle cx="592.727" cy="449.667" r="5.05119" stroke-width="0.5" stroke="black" fill="cyan"/>
   </g>
   <g id="cell104">
  <circle cx="607.458" cy="554.083" r="8.2515" stroke-width="0.5" stroke="black" fill="cyan"/>
  <circle cx="607.458" cy="554.083" r="4.98209" stroke-width="0.5" stroke="black" fill="cyan"/>
   </g>
   <g id="cell106">
  <circle cx="454.375" cy="449.317" r="8.41229" stroke-width="0.5" stroke="black" fill="magenta"/>
  <circle cx="454.375" cy="449.317" r="5.05158" stroke-width="0.5" stroke="black" fill="magenta"/>
   </g>
   <g id="cell107">
  <circle cx="467.574" cy="390.88" r="8.35792" stroke-width="0.5" stroke="black" fill="green"/>
  <circle cx="467.574" cy="390.88" r="5.03169" stroke-width="0.5" stroke="black" fill="green"/>
   </g>
   <g id="cell108">
  <circle cx="562.827" cy="609.818" r="8.41223" stroke-width="0.5" stroke="black" fill="green"/>
  <circle cx="562.827" cy="609.818" r="5.05156" stroke-width="0.5" stroke="black" fill="green"/>
   </g>
   <g id="cell109">
  <circle cx="576.2" cy="588.479" r="8.41194" stroke-width="0.5" stroke="black" fill="green"/>
  <circle cx="576.2" cy="588.479" r="5.05149" stroke-width="0.5" stroke="black" fill="green"/>
   </g>
   <g id="cell110">
  <circle cx="369.482" cy="508.616" r="8.41206" stroke-width="0.5" stroke="black" fill="cyan"/>
  <circle cx="369.482" cy="508.616" r="5.05151" stroke-width="0.5" stroke="black" fill="cyan"/>
   </g>
   <g id="cell111">
  <circle cx="456.639" cy="556.497" r="8.40722" stroke-width="0.5" stroke="black" fill="magenta"/>
  <circle cx="456.639" cy="556.497" r="5.05009" stroke-width="0.5" stroke="black" fill="magenta"/>
   </g>
   <g id="cell112">
  <circle cx="491.569" cy="468.98" r="8.39913" stroke-width="0.5" stroke="black" fill="magenta"/>
  <circle cx="491.569" cy="468.98" r="5.04729" stroke-width="0.5" stroke="black" fill="magenta"/>
   </g>
   <g id="cell113">
  <circle cx="546.807" cy="369.655" r="7.04693" stroke-width="0.5" stroke="black" fill="green"/>
  <circle cx="546.807" cy="369.655" r="4.27519" stroke-width="0.5" stroke="black" fill="green"/>
   </g>
   <g id="cell114">
  <circle cx="525.072" cy="443.856" r="8.41145" stroke-width="0.5" stroke="black" fill="cyan"/>
  <circle cx="525.072" cy="443.856" r="5.05136" stroke-width="0.5" stroke="black" fill="cyan"/>
   </g>
   <g id="cell115">
  <circle cx="538.623" cy="450.677" r="8.40821" stroke-width="0.5" stroke="black" fill="cyan"/>
  <circle cx="538.623" cy="450.677" r="5.05042" stroke-width="0.5" stroke="black" fill="cyan"/>
   </g>
   <g id="cell116">
  <circle cx="519.771" cy="531.87" r="8.28207" stroke-width="0.5" stroke="black" fill="cyan"/>
  <circle cx="519.771" cy="531.87" r="4.99597" stroke-width="0.5" stroke="black" fill="cyan"/>
   </g>
   <g id="cell117">
  <circle cx="500.606" cy="624.736" r="8.4113" stroke-width="0.5" stroke="black" fill="green"/>
  <circle cx="500.606" cy="624.736" r="5.05132" stroke-width="0.5" stroke="black" fill="green"/>
   </g>
   <g id="cell118">
  <circle cx="509.574" cy="448.736" r="8.4111" stroke-width="0.5" stroke="black" fill="cyan"/>
  <circle cx="509.574" cy="448.736" r="5.05125" stroke-width="0.5" stroke="black" fill="cyan"/>
   </g>
   <g id="cell119">
  <circle cx="548.102" cy="603.917" r="8.30227" stroke-width="0.5" stroke="black" fill="green"/>
  <circle cx="548.102" cy="603.917" r="5.00561" stroke-width="0.5" stroke="black" fill="green"/>
   </g>
   <g id="cell120">
  <circle cx="580.81" cy="439.131" r="8.41084" stroke-width="0.5" stroke="black" fill="cyan"/>
  <circle cx="580.81" cy="439.131" r="5.05119" stroke-width="0.5" stroke="black" fill="cyan"/>
   </g>
   <g id="cell121">
  <circle cx="453.385" cy="358.042" r="7.38542" stroke-width="0.5" stroke="black" fill="green"/>
  <circle cx="453.385" cy="358.042" r="4.48953" stroke-width="0.5" stroke="black" fill="green"/>
   </g>
   <g id="cell122">
  <circle cx="505.066" cy="528.063" r="8.41088" stroke-width="0.5" stroke="black" fill="magenta"/>
  <circle cx="505.066" cy="528.063" r="5.05119" stroke-width="0.5" stroke="black" fill="magenta"/>
   </g>
   <g id="cell123">
  <circle cx="486.338" cy="507.101" r="8.41051" stroke-width="0.5" stroke="black" fill="green"/>
  <circle cx="486.338" cy="507.101" r="5.05109" stroke-width="0.5" stroke="black" fill="green"/>
   </g>
   <g id="cell124">
  <circle cx="488.476" cy="430.291" r="8.12895" stroke-width="0.5" stroke="black" fill="magenta"/>
  <circle cx="488.476" cy="430.291" r="4.91863" stroke-width="0.5" stroke="black" fill="magenta"/>
   </g>
   <g id="cell125">
  <circle cx="625.216" cy="483.728" r="7.56677" stroke-width="0.5" stroke="black" fill="green"/>
  <circle cx="625.216" cy="483.728" r="4.5995" stroke-width="0.5" stroke="black" fill="green"/>
   </g>
   <g id="cell126">
  <circle cx="628.988" cy="566.353" r="8.41006" stroke-width="0.5" stroke="black" fill="green"/>
  <circle cx="628.988" cy="566.353" r="5.05095" stroke-width="0.5" stroke="black" fill="green"/>
   </g>
   <g id="cell127">
  <circle cx="432.009" cy="361.007" r="7.43991" stroke-width="0.5" stroke="black" fill="green"/>
  <circle cx="432.009" cy="361.007" r="4.52299" stroke-width="0.5" stroke="black" fill="green"/>
   </g>
   <g id="cell128">
  <circle cx="372.113" cy="467.547" r="8.40944" stroke-width="0.5" stroke="black" fill="magenta"/>
  <circle cx="372.113" cy="467.547" r="5.05076" stroke-width="0.5" stroke="black" fill="magenta"/>
   </g>
   <g id="cell129">
  <circle cx="569.931" cy="543.252" r="8.4091" stroke-width="0.5" stroke="black" fill="cyan"/>
  <circle cx="569.931" cy="543.252" r="5.05066" stroke-width="0.5" stroke="black" fill="cyan"/>
   </g>
   <g id="cell130">
  <circle cx="546.389" cy="436.649" r="8.40821" stroke-width="0.5" stroke="black" fill="cyan"/>
  <circle cx="546.389" cy="436.649" r="5.05042" stroke-width="0.5" stroke="black" fill="cyan"/>
   </g>
   <g id="cell131">
  <circle cx="544.459" cy="514.357" r="7.76236" stroke-width="0.5" stroke="black" fill="cyan"/>
  <circle cx="544.459" cy="514.357" r="4.73548" stroke-width="0.5" stroke="black" fill="cyan"/>
   </g>
   <g id="cell132">
  <circle cx="443.959" cy="548.108" r="8.40722" stroke-width="0.5" stroke="black" fill="magenta"/>
  <circle cx="443.959" cy="548.108" r="5.05009" stroke-width="0.5" stroke="black" fill="magenta"/>
   </g>
   <g id="cell133">
  <circle cx="581.998" cy="464.605" r="8.40754" stroke-width="0.5" stroke="black" fill="cyan"/>
  <circle cx="581.998" cy="464.605" r="5.05016" stroke-width="0.5" stroke="black" fill="cyan"/>
   </g>
   <g id="cell201">
  <circle cx="558.297" cy="521.164" r="7.76236" stroke-width="0.5" stroke="black" fill="cyan"/>
  <circle cx="558.297" cy="521.164" r="4.73548" stroke-width="0.5" stroke="black" fill="cyan"/>
   </g>
   <g id="cell135">
  <circle cx="508.846" cy="582.787" r="8.40683" stroke-width="0.5" stroke="black" fill="magenta"/>
  <circle cx="508.846" cy="582.787" r="5.04993" stroke-width="0.5" stroke="black" fill="magenta"/>
   </g>
   <g id="cell136">
  <circle cx="470.493" cy="549.462" r="8.40588" stroke-width="0.5" stroke="black" fill="green"/>
  <circle cx="470.493" cy="549.462" r="5.04962" stroke-width="0.5" stroke="black" fill="green"/>
   </g>
   <g id="cell137">
  <circle cx="488.515" cy="614.307" r="8.40402" stroke-width="0.5" stroke="black" fill="green"/>
  <circle cx="488.515" cy="614.307" r="5.04904" stroke-width="0.5" stroke="black" fill="green"/>
   </g>
   <g id="cell138">
  <circle cx="501.878" cy="402.236" r="8.40472" stroke-width="0.5" stroke="black" fill="green"/>
  <circle cx="501.878" cy="402.236" r="5.04922" stroke-width="0.5" stroke="black" fill="green"/>
   </g>
   <g id="cell139">
  <circle cx="415.525" cy="406.882" r="8.40353" stroke-width="0.5" stroke="black" fill="magenta"/>
  <circle cx="415.525" cy="406.882" r="5.04881" stroke-width="0.5" stroke="black" fill="magenta"/>
   </g>
   <g id="cell140">
  <circle cx="518.506" cy="571.344" r="8.39512" stroke-width="0.5" stroke="black" fill="magenta"/>
  <circle cx="518.506" cy="571.344" r="5.04603" stroke-width="0.5" stroke="black" fill="magenta"/>
   </g>
   <g id="cell141">
  <circle cx="572.08" cy="452.361" r="8.40068" stroke-width="0.5" stroke="black" fill="cyan"/>
  <circle cx="572.08" cy="452.361" r="5.04796" stroke-width="0.5" stroke="black" fill="cyan"/>
   </g>
   <g id="cell142">
  <circle cx="542.201" cy="422.039" r="8.27844" stroke-width="0.5" stroke="black" fill="green"/>
  <circle cx="542.201" cy="422.039" r="4.99647" stroke-width="0.5" stroke="black" fill="green"/>
   </g>
   <g id="cell143">
  <circle cx="430.607" cy="405.085" r="8.39784" stroke-width="0.5" stroke="black" fill="magenta"/>
  <circle cx="430.607" cy="405.085" r="5.047" stroke-width="0.5" stroke="black" fill="magenta"/>
   </g>
   <g id="cell144">
  <circle cx="547.339" cy="408.043" r="8.37559" stroke-width="0.5" stroke="black" fill="green"/>
  <circle cx="547.339" cy="408.043" r="5.03878" stroke-width="0.5" stroke="black" fill="green"/>
   </g>
   <g id="cell185">
  <circle cx="598.272" cy="567.901" r="7.41946" stroke-width="0.5" stroke="black" fill="cyan"/>
  <circle cx="598.272" cy="567.901" r="4.52648" stroke-width="0.5" stroke="black" fill="cyan"/>
   </g>
   <g id="cell147">
  <circle cx="513.957" cy="557.276" r="8.39512" stroke-width="0.5" stroke="black" fill="magenta"/>
  <circle cx="513.957" cy="557.276" r="5.04603" stroke-width="0.5" stroke="black" fill="magenta"/>
   </g>
   <g id="cell148">
  <circle cx="506.506" cy="463.933" r="8.18755" stroke-width="0.5" stroke="black" fill="magenta"/>
  <circle cx="506.506" cy="463.933" r="4.95012" stroke-width="0.5" stroke="black" fill="magenta"/>
   </g>
   <g id="cell149">
  <circle cx="574.93" cy="399.108" r="8.39571" stroke-width="0.5" stroke="black" fill="magenta"/>
  <circle cx="574.93" cy="399.108" r="5.04599" stroke-width="0.5" stroke="black" fill="magenta"/>
   </g>
   <g id="cell150">
  <circle cx="411.245" cy="581.095" r="8.35632" stroke-width="0.5" stroke="black" fill="green"/>
  <circle cx="411.245" cy="581.095" r="5.03077" stroke-width="0.5" stroke="black" fill="green"/>
   </g>
   <g id="cell151">
  <circle cx="420.071" cy="529.4" r="8.39144" stroke-width="0.5" stroke="black" fill="green"/>
  <circle cx="420.071" cy="529.4" r="5.04437" stroke-width="0.5" stroke="black" fill="green"/>
   </g>
   <g id="cell152">
  <circle cx="373.385" cy="579.313" r="8.38066" stroke-width="0.5" stroke="black" fill="green"/>
  <circle cx="373.385" cy="579.313" r="5.04066" stroke-width="0.5" stroke="black" fill="green"/>
   </g>
   <g id="cell153">
  <circle cx="560.731" cy="463.033" r="8.38891" stroke-width="0.5" stroke="black" fill="cyan"/>
  <circle cx="560.731" cy="463.033" r="5.0434" stroke-width="0.5" stroke="black" fill="cyan"/>
   </g>
   <g id="cell154">
  <circle cx="386.814" cy="598.609" r="8.37214" stroke-width="0.5" stroke="black" fill="green"/>
  <circle cx="386.814" cy="598.609" r="5.0376" stroke-width="0.5" stroke="black" fill="green"/>
   </g>
   <g id="cell155">
  <circle cx="488.142" cy="583.015" r="8.38753" stroke-width="0.5" stroke="black" fill="green"/>
  <circle cx="488.142" cy="583.015" r="5.04286" stroke-width="0.5" stroke="black" fill="green"/>
   </g>
   <g id="cell156">
  <circle cx="456.851" cy="526.304" r="8.38748" stroke-width="0.5" stroke="black" fill="magenta"/>
  <circle cx="456.851" cy="526.304" r="5.04285" stroke-width="0.5" stroke="black" fill="magenta"/>
   </g>
   <g id="cell157">
  <circle cx="443.236" cy="520.266" r="8.37264" stroke-width="0.5" stroke="black" fill="magenta"/>
  <circle cx="443.236" cy="520.266" r="5.03755" stroke-width="0.5" stroke="black" fill="magenta"/>
   </g>
   <g id="cell158">
  <circle cx="565.477" cy="411.365" r="8.37718" stroke-width="0.5" stroke="black" fill="green"/>
  <circle cx="565.477" cy="411.365" r="5.03941" stroke-width="0.5" stroke="black" fill="green"/>
   </g>
   <g id="cell159">
  <circle cx="530.477" cy="397.462" r="7.99978" stroke-width="0.5" stroke="black" fill="green"/>
  <circle cx="530.477" cy="397.462" r="4.85892" stroke-width="0.5" stroke="black" fill="green"/>
   </g>
   <g id="cell160">
  <circle cx="464.362" cy="375.392" r="8.38017" stroke-width="0.5" stroke="black" fill="green"/>
  <circle cx="464.362" cy="375.392" r="5.04008" stroke-width="0.5" stroke="black" fill="green"/>
   </g>
   <g id="cell165">
  <circle cx="607.984" cy="526.487" r="8.07553" stroke-width="0.5" stroke="black" fill="magenta"/>
  <circle cx="607.984" cy="526.487" r="4.89416" stroke-width="0.5" stroke="black" fill="magenta"/>
   </g>
   <g id="cell166">
  <circle cx="480.18" cy="458.775" r="8.35199" stroke-width="0.5" stroke="black" fill="magenta"/>
  <circle cx="480.18" cy="458.775" r="5.02812" stroke-width="0.5" stroke="black" fill="magenta"/>
   </g>
   <g id="cell167">
  <circle cx="421.425" cy="392.557" r="8.34511" stroke-width="0.5" stroke="black" fill="green"/>
  <circle cx="421.425" cy="392.557" r="5.02502" stroke-width="0.5" stroke="black" fill="green"/>
   </g>
   <g id="cell170">
  <circle cx="460.23" cy="503.311" r="8.33026" stroke-width="0.5" stroke="black" fill="green"/>
  <circle cx="460.23" cy="503.311" r="5.01837" stroke-width="0.5" stroke="black" fill="green"/>
   </g>
   <g id="cell171">
  <circle cx="601.233" cy="479.869" r="8.31491" stroke-width="0.5" stroke="black" fill="cyan"/>
  <circle cx="601.233" cy="479.869" r="5.01133" stroke-width="0.5" stroke="black" fill="cyan"/>
   </g>
   <g id="cell172">
  <circle cx="551.017" cy="501.561" r="8.23172" stroke-width="0.5" stroke="black" fill="magenta"/>
  <circle cx="551.017" cy="501.561" r="4.97508" stroke-width="0.5" stroke="black" fill="magenta"/>
   </g>
   <g id="cell173">
  <circle cx="530.926" cy="520.766" r="8.30058" stroke-width="0.5" stroke="black" fill="cyan"/>
  <circle cx="530.926" cy="520.766" r="5.00509" stroke-width="0.5" stroke="black" fill="cyan"/>
   </g>
   <g id="cell174">
  <circle cx="497.252" cy="441.437" r="6.87844" stroke-width="0.5" stroke="black" fill="cyan"/>
  <circle cx="497.252" cy="441.437" r="4.17911" stroke-width="0.5" stroke="black" fill="cyan"/>
   </g>
   <g id="cell175">
  <circle cx="524.637" cy="607.196" r="7.85731" stroke-width="0.5" stroke="black" fill="green"/>
  <circle cx="524.637" cy="607.196" r="4.78509" stroke-width="0.5" stroke="black" fill="green"/>
   </g>
   <g id="cell176">
  <circle cx="557.394" cy="424.799" r="8.27844" stroke-width="0.5" stroke="black" fill="green"/>
  <circle cx="557.394" cy="424.799" r="4.99647" stroke-width="0.5" stroke="black" fill="green"/>
   </g>
   <g id="cell177">
  <circle cx="369.058" cy="564.307" r="8.19386" stroke-width="0.5" stroke="black" fill="cyan"/>
  <circle cx="369.058" cy="564.307" r="4.9568" stroke-width="0.5" stroke="black" fill="cyan"/>
   </g>
   <g id="cell178">
  <circle cx="562.504" cy="509.004" r="7.24232" stroke-width="0.5" stroke="black" fill="magenta"/>
  <circle cx="562.504" cy="509.004" r="4.42182" stroke-width="0.5" stroke="black" fill="magenta"/>
   </g>
   <g id="cell179">
  <circle cx="515.859" cy="517.141" r="8.28207" stroke-width="0.5" stroke="black" fill="cyan"/>
  <circle cx="515.859" cy="517.141" r="4.99597" stroke-width="0.5" stroke="black" fill="cyan"/>
   </g>
   <g id="cell180">
  <circle cx="619.997" cy="504.337" r="8.27497" stroke-width="0.5" stroke="black" fill="green"/>
  <circle cx="619.997" cy="504.337" r="4.99242" stroke-width="0.5" stroke="black" fill="green"/>
   </g>
   <g id="cell181">
  <circle cx="563.729" cy="529.707" r="3.19681" stroke-width="0.5" stroke="black" fill="cyan"/>
  <circle cx="563.729" cy="529.707" r="2.53906" stroke-width="0.5" stroke="black" fill="black"/>
   </g>
   <g id="cell182">
  <circle cx="533.485" cy="382.44" r="8.25181" stroke-width="0.5" stroke="black" fill="green"/>
  <circle cx="533.485" cy="382.44" r="4.98378" stroke-width="0.5" stroke="black" fill="green"/>
   </g>
   <g id="cell183">
  <circle cx="578.693" cy="517.956" r="6.57767" stroke-width="0.5" stroke="black" fill="magenta"/>
  <circle cx="578.693" cy="517.956" r="3.97064" stroke-width="0.5" stroke="black" fill="magenta"/>
   </g>
   <g id="cell184">
  <circle cx="431.989" cy="430.48" r="8.02813" stroke-width="0.5" stroke="black" fill="magenta"/>
  <circle cx="431.989" cy="430.48" r="4.87344" stroke-width="0.5" stroke="black" fill="magenta"/>
   </g>
   <g id="cell187">
  <circle cx="498.962" cy="497.242" r="8.23944" stroke-width="0.5" stroke="black" fill="cyan"/>
  <circle cx="498.962" cy="497.242" r="4.97502" stroke-width="0.5" stroke="black" fill="cyan"/>
   </g>
   <g id="cell188">
  <circle cx="534.24" cy="618.826" r="8.14922" stroke-width="0.5" stroke="black" fill="green"/>
  <circle cx="534.24" cy="618.826" r="4.93453" stroke-width="0.5" stroke="black" fill="green"/>
   </g>
   <g id="cell189">
  <circle cx="534.565" cy="475.393" r="8.19805" stroke-width="0.5" stroke="black" fill="cyan"/>
  <circle cx="534.565" cy="475.393" r="4.95477" stroke-width="0.5" stroke="black" fill="cyan"/>
   </g>
   <g id="cell190">
  <circle cx="546.576" cy="528.638" r="8.09714" stroke-width="0.5" stroke="black" fill="cyan"/>
  <circle cx="546.576" cy="528.638" r="4.91116" stroke-width="0.5" stroke="black" fill="cyan"/>
   </g>
   <g id="cell191">
  <circle cx="503.018" cy="478.033" r="8.18755" stroke-width="0.5" stroke="black" fill="magenta"/>
  <circle cx="503.018" cy="478.033" r="4.95012" stroke-width="0.5" stroke="black" fill="magenta"/>
   </g>
   <g id="cell192">
  <circle cx="474.469" cy="433.291" r="8.12895" stroke-width="0.5" stroke="black" fill="magenta"/>
  <circle cx="474.469" cy="433.291" r="4.91863" stroke-width="0.5" stroke="black" fill="magenta"/>
   </g>
   <g id="cell193">
  <circle cx="438.61" cy="417.536" r="8.02813" stroke-width="0.5" stroke="black" fill="magenta"/>
  <circle cx="438.61" cy="417.536" r="4.87344" stroke-width="0.5" stroke="black" fill="magenta"/>
   </g>
   <g id="cell194">
  <circle cx="601.539" cy="513.462" r="8.07553" stroke-width="0.5" stroke="black" fill="magenta"/>
  <circle cx="601.539" cy="513.462" r="4.89416" stroke-width="0.5" stroke="black" fill="magenta"/>
   </g>
   <g id="cell195">
  <circle cx="544.476" cy="393.591" r="7.99978" stroke-width="0.5" stroke="black" fill="green"/>
  <circle cx="544.476" cy="393.591" r="4.85892" stroke-width="0.5" stroke="black" fill="green"/>
   </g>
   <g id="cell196">
  <circle cx="459.901" cy="435.201" r="8.07645" stroke-width="0.5" stroke="black" fill="cyan"/>
  <circle cx="459.901" cy="435.201" r="4.89044" stroke-width="0.5" stroke="black" fill="cyan"/>
   </g>
   <g id="cell197">
  <circle cx="549.853" cy="619.014" r="8.06578" stroke-width="0.5" stroke="black" fill="green"/>
  <circle cx="549.853" cy="619.014" r="4.88491" stroke-width="0.5" stroke="black" fill="green"/>
   </g>
   <g id="cell198">
  <circle cx="424.465" cy="418.392" r="7.92544" stroke-width="0.5" stroke="black" fill="magenta"/>
  <circle cx="424.465" cy="418.392" r="4.81816" stroke-width="0.5" stroke="black" fill="magenta"/>
   </g>
   <g id="cell199">
  <circle cx="534.893" cy="596.523" r="7.85731" stroke-width="0.5" stroke="black" fill="green"/>
  <circle cx="534.893" cy="596.523" r="4.78509" stroke-width="0.5" stroke="black" fill="green"/>
   </g>
   <g id="cell200">
  <circle cx="446.183" cy="429.956" r="7.94004" stroke-width="0.5" stroke="black" fill="magenta"/>
  <circle cx="446.183" cy="429.956" r="4.81797" stroke-width="0.5" stroke="black" fill="magenta"/>
   </g>
   <g id="cell202">
  <circle cx="402.699" cy="607.17" r="7.86286" stroke-width="0.5" stroke="black" fill="cyan"/>
  <circle cx="402.699" cy="607.17" r="4.77207" stroke-width="0.5" stroke="black" fill="cyan"/>
   </g>
   <g id="cell203">
  <circle cx="360.261" cy="537.029" r="5.95236" stroke-width="0.5" stroke="black" fill="cyan"/>
  <circle cx="360.261" cy="537.029" r="3.74821" stroke-width="0.5" stroke="black" fill="black"/>
   </g>
   <g id="cell204">
  <circle cx="573.663" cy="487.532" r="7.78583" stroke-width="0.5" stroke="black" fill="magenta"/>
  <circle cx="573.663" cy="487.532" r="4.7371" stroke-width="0.5" stroke="black" fill="magenta"/>
   </g>
   <g id="cell205">
  <circle cx="427.442" cy="477.873" r="7.72035" stroke-width="0.5" stroke="black" fill="green"/>
  <circle cx="427.442" cy="477.873" r="4.68998" stroke-width="0.5" stroke="black" fill="green"/>
   </g>
   <g id="cell206">
  <circle cx="465.525" cy="623.783" r="7.59183" stroke-width="0.5" stroke="black" fill="magenta"/>
  <circle cx="465.525" cy="623.783" r="4.61399" stroke-width="0.5" stroke="black" fill="magenta"/>
   </g>
   <g id="cell207">
  <circle cx="622.173" cy="469.772" r="7.56677" stroke-width="0.5" stroke="black" fill="green"/>
  <circle cx="622.173" cy="469.772" r="4.5995" stroke-width="0.5" stroke="black" fill="green"/>
   </g>
   <g id="cell208">
  <circle cx="584.308" cy="551.98" r="5.96017" stroke-width="0.5" stroke="black" fill="cyan"/>
  <circle cx="584.308" cy="551.98" r="3.64251" stroke-width="0.5" stroke="black" fill="cyan"/>
   </g>
   <g id="cell209">
  <circle cx="441.482" cy="350.623" r="7.43991" stroke-width="0.5" stroke="black" fill="green"/>
  <circle cx="441.482" cy="350.623" r="4.52299" stroke-width="0.5" stroke="black" fill="green"/>
   </g>
   <g id="cell210">
  <circle cx="655.559" cy="538.541" r="7.44238" stroke-width="0.5" stroke="black" fill="green"/>
  <circle cx="655.559" cy="538.541" r="4.52373" stroke-width="0.5" stroke="black" fill="green"/>
   </g>
   <g id="cell213">
  <circle cx="557.52" cy="383.509" r="5.85799" stroke-width="0.5" stroke="black" fill="green"/>
  <circle cx="557.52" cy="383.509" r="3.57989" stroke-width="0.5" stroke="black" fill="green"/>
   </g>
   <g id="cell214">
  <circle cx="501.709" cy="429.988" r="6.87844" stroke-width="0.5" stroke="black" fill="cyan"/>
  <circle cx="501.709" cy="429.988" r="4.17911" stroke-width="0.5" stroke="black" fill="cyan"/>
   </g>
   <g id="cell215">
  <circle cx="433.99" cy="530.099" r="6.92974" stroke-width="0.5" stroke="black" fill="magenta"/>
  <circle cx="433.99" cy="530.099" r="4.20269" stroke-width="0.5" stroke="black" fill="magenta"/>
   </g>
   <g id="cell216">
  <circle cx="543.433" cy="578.852" r="6.86652" stroke-width="0.5" stroke="black" fill="green"/>
  <circle cx="543.433" cy="578.852" r="4.15874" stroke-width="0.5" stroke="black" fill="green"/>
   </g>
   <g id="cell217">
  <circle cx="546.899" cy="381.425" r="5.85799" stroke-width="0.5" stroke="black" fill="green"/>
  <circle cx="546.899" cy="381.425" r="3.57989" stroke-width="0.5" stroke="black" fill="green"/>
   </g>
   <g id="cell218">
  <circle cx="594.435" cy="556.063" r="5.96017" stroke-width="0.5" stroke="black" fill="cyan"/>
  <circle cx="594.435" cy="556.063" r="3.64251" stroke-width="0.5" stroke="black" fill="cyan"/>
   </g>
   <g id="cell219">
  <circle cx="575.056" cy="507.381" r="6.57767" stroke-width="0.5" stroke="black" fill="magenta"/>
  <circle cx="575.056" cy="507.381" r="3.97064" stroke-width="0.5" stroke="black" fill="magenta"/>
   </g>
  </g>
 </g>
  <rect x="775" y="1035" width="200" height="10" stroke-width="2" stroke="rgb(255,255,255)" fill="rgb(0,0,0)"/>
  <text x="781.25" y="1028.75"
   font-family="Arial" font-size="25" fill="black" >
   200 &#956;m
  </text>
  <text x="25" y="1045"
   font-family="Arial" font-size="18.75" fill="black" >
   0 days, 0 hours, 0 minutes, and 49.7089 seconds
  </text>
  <rect x="0" y="70" width="1000" height="1000" stroke-width="2" stroke="rgb(0,0,0)" fill="none"/>
</svg>
