<?xml version="1.0" encoding="UTF-8" standalone="no"?>
<!-- Created with PhysiCell (http://PhysiCell.MathCancer.org/) -->
<svg 
 xmlns:dc="http://purl.org/dc/elements/1.1/" 
 xmlns:cc="http://creativecommons.org/ns#" 
 xmlns:rdf="http://www.w3.org/1999/02/22-rdf-syntax-ns#" 
 xmlns:svg="http://www.w3.org/2000/svg" 
 xmlns="http://www.w3.org/2000/svg" 
 version="1.1" 
 width="1000" 
 height="1070" 
 id="svg2">
  <rect x="0" y="0" width="1000" height="1070" stroke-width="2" stroke="white" fill="white"/>
  <text x="12.5" y="30"
   font-family="Arial" font-size="25" fill="black" >
   Current time: 1 days, 3 hours, and 6.00 minutes, z = 0.00 &#956;m
  </text>
  <text x="12.5" y="57.5"
   font-family="Arial" font-size="23.75" fill="black" >
   159 agents
  </text>
 <g id="tissue" 
    transform="translate(0,1070) scale(1,-1)">
  <g id="ECM">
  </g>
  <g id="cells">
   <g id="cell0">
  <circle cx="514.868" cy="534.437" r="8.40905" stroke-width="0.5" stroke="black" fill="magenta"/>
  <circle cx="514.868" cy="534.437" r="5.05064" stroke-width="0.5" stroke="black" fill="magenta"/>
   </g>
   <g id="cell1">
  <circle cx="601.474" cy="523.132" r="8.41271" stroke-width="0.5" stroke="black" fill="magenta"/>
  <circle cx="601.474" cy="523.132" r="5.05167" stroke-width="0.5" stroke="black" fill="magenta"/>
   </g>
   <g id="cell2">
  <circle cx="518.99" cy="598.429" r="8.41271" stroke-width="0.5" stroke="black" fill="magenta"/>
  <circle cx="518.99" cy="598.429" r="5.05167" stroke-width="0.5" stroke="black" fill="magenta"/>
   </g>
   <g id="cell3">
  <circle cx="523.837" cy="546.701" r="8.40673" stroke-width="0.5" stroke="black" fill="magenta"/>
  <circle cx="523.837" cy="546.701" r="5.04996" stroke-width="0.5" stroke="black" fill="magenta"/>
   </g>
   <g id="cell4">
  <circle cx="485.446" cy="448.203" r="8.32949" stroke-width="0.5" stroke="black" fill="magenta"/>
  <circle cx="485.446" cy="448.203" r="5.01817" stroke-width="0.5" stroke="black" fill="magenta"/>
   </g>
   <g id="cell5">
  <circle cx="465.032" cy="493.3" r="8.41271" stroke-width="0.5" stroke="black" fill="magenta"/>
  <circle cx="465.032" cy="493.3" r="5.05167" stroke-width="0.5" stroke="black" fill="magenta"/>
   </g>
   <g id="cell163">
  <circle cx="534.255" cy="578.865" r="6.83567" stroke-width="0.5" stroke="black" fill="green"/>
  <circle cx="534.255" cy="578.865" r="4.12733" stroke-width="0.5" stroke="black" fill="green"/>
   </g>
   <g id="cell7">
  <circle cx="495.71" cy="459.025" r="8.38454" stroke-width="0.5" stroke="black" fill="magenta"/>
  <circle cx="495.71" cy="459.025" r="5.04168" stroke-width="0.5" stroke="black" fill="magenta"/>
   </g>
   <g id="cell8">
  <circle cx="377.15" cy="548.353" r="6.83713" stroke-width="0.5" stroke="black" fill="magenta"/>
  <circle cx="377.15" cy="548.353" r="4.12773" stroke-width="0.5" stroke="black" fill="magenta"/>
   </g>
   <g id="cell161">
  <circle cx="451.981" cy="382.099" r="5.91138" stroke-width="0.5" stroke="black" fill="green"/>
  <circle cx="451.981" cy="382.099" r="3.62291" stroke-width="0.5" stroke="black" fill="green"/>
   </g>
   <g id="cell10">
  <circle cx="586.838" cy="388.869" r="7.70049" stroke-width="0.5" stroke="black" fill="magenta"/>
  <circle cx="586.838" cy="388.869" r="4.67828" stroke-width="0.5" stroke="black" fill="magenta"/>
   </g>
   <g id="cell11">
  <circle cx="592.087" cy="590.052" r="8.41271" stroke-width="0.5" stroke="black" fill="magenta"/>
  <circle cx="592.087" cy="590.052" r="5.05167" stroke-width="0.5" stroke="black" fill="magenta"/>
   </g>
   <g id="cell12">
  <circle cx="505.519" cy="592.003" r="8.17502" stroke-width="0.5" stroke="black" fill="magenta"/>
  <circle cx="505.519" cy="592.003" r="4.94236" stroke-width="0.5" stroke="black" fill="magenta"/>
   </g>
   <g id="cell13">
  <circle cx="387.624" cy="567.647" r="8.41271" stroke-width="0.5" stroke="black" fill="magenta"/>
  <circle cx="387.624" cy="567.647" r="5.05167" stroke-width="0.5" stroke="black" fill="magenta"/>
   </g>
   <g id="cell14">
  <circle cx="521.972" cy="404.184" r="8.41271" stroke-width="0.5" stroke="black" fill="magenta"/>
  <circle cx="521.972" cy="404.184" r="5.05167" stroke-width="0.5" stroke="black" fill="magenta"/>
   </g>
   <g id="cell15">
  <circle cx="381.795" cy="479.026" r="8.28262" stroke-width="0.5" stroke="black" fill="magenta"/>
  <circle cx="381.795" cy="479.026" r="4.9961" stroke-width="0.5" stroke="black" fill="magenta"/>
   </g>
   <g id="cell16">
  <circle cx="438.438" cy="421.927" r="7.60956" stroke-width="0.5" stroke="black" fill="magenta"/>
  <circle cx="438.438" cy="421.927" r="4.65378" stroke-width="0.5" stroke="black" fill="magenta"/>
   </g>
   <g id="cell17">
  <circle cx="571.524" cy="496.581" r="8.41271" stroke-width="0.5" stroke="black" fill="magenta"/>
  <circle cx="571.524" cy="496.581" r="5.05167" stroke-width="0.5" stroke="black" fill="magenta"/>
   </g>
   <g id="cell18">
  <circle cx="518.035" cy="389.513" r="8.41271" stroke-width="0.5" stroke="black" fill="magenta"/>
  <circle cx="518.035" cy="389.513" r="5.05167" stroke-width="0.5" stroke="black" fill="magenta"/>
   </g>
   <g id="cell19">
  <circle cx="458.043" cy="540.663" r="8.3839" stroke-width="0.5" stroke="black" fill="magenta"/>
  <circle cx="458.043" cy="540.663" r="5.04166" stroke-width="0.5" stroke="black" fill="magenta"/>
   </g>
   <g id="cell20">
  <circle cx="532.084" cy="415.523" r="8.41271" stroke-width="0.5" stroke="black" fill="magenta"/>
  <circle cx="532.084" cy="415.523" r="5.05167" stroke-width="0.5" stroke="black" fill="magenta"/>
   </g>
   <g id="cell21">
  <circle cx="466.883" cy="632.265" r="8.41271" stroke-width="0.5" stroke="black" fill="magenta"/>
  <circle cx="466.883" cy="632.265" r="5.05167" stroke-width="0.5" stroke="black" fill="magenta"/>
   </g>
   <g id="cell22">
  <circle cx="556.079" cy="496.847" r="8.41271" stroke-width="0.5" stroke="black" fill="magenta"/>
  <circle cx="556.079" cy="496.847" r="5.05167" stroke-width="0.5" stroke="black" fill="magenta"/>
   </g>
   <g id="cell23">
  <circle cx="548.982" cy="482.74" r="8.41271" stroke-width="0.5" stroke="black" fill="magenta"/>
  <circle cx="548.982" cy="482.74" r="5.05167" stroke-width="0.5" stroke="black" fill="magenta"/>
   </g>
   <g id="cell24">
  <circle cx="557.48" cy="382.007" r="8.41271" stroke-width="0.5" stroke="black" fill="magenta"/>
  <circle cx="557.48" cy="382.007" r="5.05167" stroke-width="0.5" stroke="black" fill="magenta"/>
   </g>
   <g id="cell25">
  <circle cx="648.436" cy="543.064" r="8.41043" stroke-width="0.5" stroke="black" fill="green"/>
  <circle cx="648.436" cy="543.064" r="5.05106" stroke-width="0.5" stroke="black" fill="green"/>
   </g>
   <g id="cell26">
  <circle cx="557.493" cy="397.552" r="8.38373" stroke-width="0.5" stroke="black" fill="green"/>
  <circle cx="557.493" cy="397.552" r="5.04136" stroke-width="0.5" stroke="black" fill="green"/>
   </g>
   <g id="cell27">
  <circle cx="464.721" cy="401.156" r="8.41129" stroke-width="0.5" stroke="black" fill="green"/>
  <circle cx="464.721" cy="401.156" r="5.05131" stroke-width="0.5" stroke="black" fill="green"/>
   </g>
   <g id="cell28">
  <circle cx="434.312" cy="535.135" r="7.51976" stroke-width="0.5" stroke="black" fill="green"/>
  <circle cx="434.312" cy="535.135" r="4.57072" stroke-width="0.5" stroke="black" fill="green"/>
   </g>
   <g id="cell29">
  <circle cx="450.218" cy="512.92" r="8.41271" stroke-width="0.5" stroke="black" fill="green"/>
  <circle cx="450.218" cy="512.92" r="5.05167" stroke-width="0.5" stroke="black" fill="green"/>
   </g>
   <g id="cell30">
  <circle cx="484.611" cy="537.073" r="8.13516" stroke-width="0.5" stroke="black" fill="green"/>
  <circle cx="484.611" cy="537.073" r="4.92227" stroke-width="0.5" stroke="black" fill="green"/>
   </g>
   <g id="cell31">
  <circle cx="412.053" cy="542.454" r="8.41271" stroke-width="0.5" stroke="black" fill="green"/>
  <circle cx="412.053" cy="542.454" r="5.05167" stroke-width="0.5" stroke="black" fill="green"/>
   </g>
   <g id="cell32">
  <circle cx="421.367" cy="481.396" r="1.37774" stroke-width="0.5" stroke="black" fill="green"/>
  <circle cx="421.367" cy="481.396" r="1.36627" stroke-width="0.5" stroke="black" fill="black"/>
   </g>
   <g id="cell33">
  <circle cx="501.881" cy="424.288" r="8.08613" stroke-width="0.5" stroke="black" fill="green"/>
  <circle cx="501.881" cy="424.288" r="4.8956" stroke-width="0.5" stroke="black" fill="green"/>
   </g>
   <g id="cell34">
  <circle cx="396.819" cy="450.575" r="1.41604" stroke-width="0.5" stroke="black" fill="green"/>
  <circle cx="396.819" cy="450.575" r="1.40242" stroke-width="0.5" stroke="black" fill="black"/>
   </g>
   <g id="cell35">
  <circle cx="554.405" cy="545.16" r="8.41271" stroke-width="0.5" stroke="black" fill="green"/>
  <circle cx="554.405" cy="545.16" r="5.05167" stroke-width="0.5" stroke="black" fill="green"/>
   </g>
   <g id="cell36">
  <circle cx="386.209" cy="583.445" r="6.50609" stroke-width="0.5" stroke="black" fill="green"/>
  <circle cx="386.209" cy="583.445" r="4.01571" stroke-width="0.5" stroke="black" fill="green"/>
   </g>
   <g id="cell37">
  <circle cx="640.174" cy="457.158" r="8.41108" stroke-width="0.5" stroke="black" fill="green"/>
  <circle cx="640.174" cy="457.158" r="5.05125" stroke-width="0.5" stroke="black" fill="green"/>
   </g>
   <g id="cell38">
  <circle cx="530.353" cy="590.72" r="6.83567" stroke-width="0.5" stroke="black" fill="green"/>
  <circle cx="530.353" cy="590.72" r="4.12733" stroke-width="0.5" stroke="black" fill="green"/>
   </g>
   <g id="cell39">
  <circle cx="613.24" cy="491.032" r="8.41271" stroke-width="0.5" stroke="black" fill="green"/>
  <circle cx="613.24" cy="491.032" r="5.05167" stroke-width="0.5" stroke="black" fill="green"/>
   </g>
   <g id="cell40">
  <circle cx="485.809" cy="567.069" r="7.3599" stroke-width="0.5" stroke="black" fill="green"/>
  <circle cx="485.809" cy="567.069" r="4.47294" stroke-width="0.5" stroke="black" fill="green"/>
   </g>
   <g id="cell41">
  <circle cx="366.585" cy="482.093" r="8.41271" stroke-width="0.5" stroke="black" fill="green"/>
  <circle cx="366.585" cy="482.093" r="5.05167" stroke-width="0.5" stroke="black" fill="green"/>
   </g>
   <g id="cell42">
  <circle cx="438.502" cy="492.548" r="8.41271" stroke-width="0.5" stroke="black" fill="green"/>
  <circle cx="438.502" cy="492.548" r="5.05167" stroke-width="0.5" stroke="black" fill="green"/>
   </g>
   <g id="cell43">
  <circle cx="561.148" cy="438.12" r="8.41271" stroke-width="0.5" stroke="black" fill="green"/>
  <circle cx="561.148" cy="438.12" r="5.05167" stroke-width="0.5" stroke="black" fill="green"/>
   </g>
   <g id="cell164">
  <circle cx="396.081" cy="577.546" r="6.08571" stroke-width="0.5" stroke="black" fill="green"/>
  <circle cx="396.081" cy="577.546" r="3.70224" stroke-width="0.5" stroke="black" fill="green"/>
   </g>
   <g id="cell145">
  <circle cx="425.318" cy="418.145" r="7.60956" stroke-width="0.5" stroke="black" fill="magenta"/>
  <circle cx="425.318" cy="418.145" r="4.65378" stroke-width="0.5" stroke="black" fill="magenta"/>
   </g>
   <g id="cell46">
  <circle cx="520.993" cy="613.72" r="8.39987" stroke-width="0.5" stroke="black" fill="green"/>
  <circle cx="520.993" cy="613.72" r="5.04751" stroke-width="0.5" stroke="black" fill="green"/>
   </g>
   <g id="cell47">
  <circle cx="503.212" cy="494.539" r="8.40472" stroke-width="0.5" stroke="black" fill="green"/>
  <circle cx="503.212" cy="494.539" r="5.04922" stroke-width="0.5" stroke="black" fill="green"/>
   </g>
   <g id="cell48">
  <circle cx="570.925" cy="604.808" r="8.38332" stroke-width="0.5" stroke="black" fill="green"/>
  <circle cx="570.925" cy="604.808" r="5.04168" stroke-width="0.5" stroke="black" fill="green"/>
   </g>
   <g id="cell49">
  <circle cx="432.121" cy="393.799" r="8.41271" stroke-width="0.5" stroke="black" fill="green"/>
  <circle cx="432.121" cy="393.799" r="5.05167" stroke-width="0.5" stroke="black" fill="green"/>
   </g>
   <g id="cell50">
  <circle cx="512.502" cy="507.695" r="8.37151" stroke-width="0.5" stroke="black" fill="cyan"/>
  <circle cx="512.502" cy="507.695" r="5.03661" stroke-width="0.5" stroke="black" fill="cyan"/>
   </g>
   <g id="cell51">
  <circle cx="401.966" cy="597.033" r="8.41271" stroke-width="0.5" stroke="black" fill="cyan"/>
  <circle cx="401.966" cy="597.033" r="5.05167" stroke-width="0.5" stroke="black" fill="cyan"/>
   </g>
   <g id="cell52">
  <circle cx="516.669" cy="418.908" r="8.41271" stroke-width="0.5" stroke="black" fill="cyan"/>
  <circle cx="516.669" cy="418.908" r="5.05167" stroke-width="0.5" stroke="black" fill="cyan"/>
   </g>
   <g id="cell53">
  <circle cx="572.536" cy="426.921" r="8.40185" stroke-width="0.5" stroke="black" fill="cyan"/>
  <circle cx="572.536" cy="426.921" r="5.04822" stroke-width="0.5" stroke="black" fill="cyan"/>
   </g>
   <g id="cell54">
  <circle cx="480.448" cy="422.129" r="8.40614" stroke-width="0.5" stroke="black" fill="cyan"/>
  <circle cx="480.448" cy="422.129" r="5.0497" stroke-width="0.5" stroke="black" fill="cyan"/>
   </g>
   <g id="cell55">
  <circle cx="522.409" cy="461.599" r="8.40235" stroke-width="0.5" stroke="black" fill="cyan"/>
  <circle cx="522.409" cy="461.599" r="5.04848" stroke-width="0.5" stroke="black" fill="cyan"/>
   </g>
   <g id="cell56">
  <circle cx="617.057" cy="522.404" r="8.41271" stroke-width="0.5" stroke="black" fill="cyan"/>
  <circle cx="617.057" cy="522.404" r="5.05167" stroke-width="0.5" stroke="black" fill="cyan"/>
   </g>
   <g id="cell105">
  <circle cx="506.751" cy="607.106" r="8.05665" stroke-width="0.5" stroke="black" fill="green"/>
  <circle cx="506.751" cy="607.106" r="4.88448" stroke-width="0.5" stroke="black" fill="green"/>
   </g>
   <g id="cell58">
  <circle cx="563.425" cy="484.816" r="7.41548" stroke-width="0.5" stroke="black" fill="cyan"/>
  <circle cx="563.425" cy="484.816" r="4.50723" stroke-width="0.5" stroke="black" fill="cyan"/>
   </g>
   <g id="cell59">
  <circle cx="385.732" cy="440.058" r="8.41271" stroke-width="0.5" stroke="black" fill="cyan"/>
  <circle cx="385.732" cy="440.058" r="5.05167" stroke-width="0.5" stroke="black" fill="cyan"/>
   </g>
   <g id="cell60">
  <circle cx="591.658" cy="473.977" r="8.41271" stroke-width="0.5" stroke="black" fill="cyan"/>
  <circle cx="591.658" cy="473.977" r="5.05167" stroke-width="0.5" stroke="black" fill="cyan"/>
   </g>
   <g id="cell61">
  <circle cx="557.056" cy="621.932" r="1.95777" stroke-width="0.5" stroke="black" fill="cyan"/>
  <circle cx="557.056" cy="621.932" r="1.86492" stroke-width="0.5" stroke="black" fill="black"/>
   </g>
   <g id="cell62">
  <circle cx="512.493" cy="435.404" r="8.34992" stroke-width="0.5" stroke="black" fill="cyan"/>
  <circle cx="512.493" cy="435.404" r="5.02727" stroke-width="0.5" stroke="black" fill="cyan"/>
   </g>
   <g id="cell63">
  <circle cx="585.263" cy="540.051" r="8.26891" stroke-width="0.5" stroke="black" fill="cyan"/>
  <circle cx="585.263" cy="540.051" r="4.98989" stroke-width="0.5" stroke="black" fill="cyan"/>
   </g>
   <g id="cell64">
  <circle cx="509.675" cy="638.591" r="8.41271" stroke-width="0.5" stroke="black" fill="cyan"/>
  <circle cx="509.675" cy="638.591" r="5.05167" stroke-width="0.5" stroke="black" fill="cyan"/>
   </g>
   <g id="cell65">
  <circle cx="547.683" cy="465.115" r="8.40826" stroke-width="0.5" stroke="black" fill="cyan"/>
  <circle cx="547.683" cy="465.115" r="5.05039" stroke-width="0.5" stroke="black" fill="cyan"/>
   </g>
   <g id="cell66">
  <circle cx="530.486" cy="533.104" r="8.40576" stroke-width="0.5" stroke="black" fill="cyan"/>
  <circle cx="530.486" cy="533.104" r="5.04957" stroke-width="0.5" stroke="black" fill="cyan"/>
   </g>
   <g id="cell67">
  <circle cx="354.624" cy="492.885" r="8.41271" stroke-width="0.5" stroke="black" fill="cyan"/>
  <circle cx="354.624" cy="492.885" r="5.05167" stroke-width="0.5" stroke="black" fill="cyan"/>
   </g>
   <g id="cell68">
  <circle cx="562.879" cy="558.434" r="8.41271" stroke-width="0.5" stroke="black" fill="cyan"/>
  <circle cx="562.879" cy="558.434" r="5.05167" stroke-width="0.5" stroke="black" fill="cyan"/>
   </g>
   <g id="cell69">
  <circle cx="441.913" cy="460.969" r="8.41271" stroke-width="0.5" stroke="black" fill="cyan"/>
  <circle cx="441.913" cy="460.969" r="5.05167" stroke-width="0.5" stroke="black" fill="cyan"/>
   </g>
   <g id="cell70">
  <circle cx="577.773" cy="481.791" r="8.41271" stroke-width="0.5" stroke="black" fill="cyan"/>
  <circle cx="577.773" cy="481.791" r="5.05167" stroke-width="0.5" stroke="black" fill="cyan"/>
   </g>
   <g id="cell71">
  <circle cx="382.832" cy="525.064" r="8.38753" stroke-width="0.5" stroke="black" fill="cyan"/>
  <circle cx="382.832" cy="525.064" r="5.04286" stroke-width="0.5" stroke="black" fill="cyan"/>
   </g>
   <g id="cell72">
  <circle cx="528.409" cy="506.228" r="8.40632" stroke-width="0.5" stroke="black" fill="cyan"/>
  <circle cx="528.409" cy="506.228" r="5.04976" stroke-width="0.5" stroke="black" fill="cyan"/>
   </g>
   <g id="cell73">
  <circle cx="363.95" cy="553.411" r="8.40915" stroke-width="0.5" stroke="black" fill="cyan"/>
  <circle cx="363.95" cy="553.411" r="5.05067" stroke-width="0.5" stroke="black" fill="cyan"/>
   </g>
   <g id="cell162">
  <circle cx="374.373" cy="536.366" r="6.83713" stroke-width="0.5" stroke="black" fill="magenta"/>
  <circle cx="374.373" cy="536.366" r="4.12773" stroke-width="0.5" stroke="black" fill="magenta"/>
   </g>
   <g id="cell75">
  <circle cx="527.601" cy="430.355" r="8.41133" stroke-width="0.5" stroke="black" fill="cyan"/>
  <circle cx="527.601" cy="430.355" r="5.05132" stroke-width="0.5" stroke="black" fill="cyan"/>
   </g>
   <g id="cell76">
  <circle cx="438.884" cy="379.3" r="8.39199" stroke-width="0.5" stroke="black" fill="green"/>
  <circle cx="438.884" cy="379.3" r="5.04492" stroke-width="0.5" stroke="black" fill="green"/>
   </g>
   <g id="cell77">
  <circle cx="475.606" cy="436.917" r="8.39676" stroke-width="0.5" stroke="black" fill="magenta"/>
  <circle cx="475.606" cy="436.917" r="5.04646" stroke-width="0.5" stroke="black" fill="magenta"/>
   </g>
   <g id="cell78">
  <circle cx="624.88" cy="461.912" r="8.40745" stroke-width="0.5" stroke="black" fill="green"/>
  <circle cx="624.88" cy="461.912" r="5.05018" stroke-width="0.5" stroke="black" fill="green"/>
   </g>
   <g id="cell79">
  <circle cx="517.443" cy="477.684" r="8.41088" stroke-width="0.5" stroke="black" fill="cyan"/>
  <circle cx="517.443" cy="477.684" r="5.05119" stroke-width="0.5" stroke="black" fill="cyan"/>
   </g>
   <g id="cell80">
  <circle cx="543.444" cy="616.794" r="8.34912" stroke-width="0.5" stroke="black" fill="green"/>
  <circle cx="543.444" cy="616.794" r="5.02705" stroke-width="0.5" stroke="black" fill="green"/>
   </g>
   <g id="cell81">
  <circle cx="544.917" cy="593.091" r="8.40976" stroke-width="0.5" stroke="black" fill="green"/>
  <circle cx="544.917" cy="593.091" r="5.05089" stroke-width="0.5" stroke="black" fill="green"/>
   </g>
   <g id="cell82">
  <circle cx="531.832" cy="559.153" r="8.02293" stroke-width="0.5" stroke="black" fill="magenta"/>
  <circle cx="531.832" cy="559.153" r="4.86173" stroke-width="0.5" stroke="black" fill="magenta"/>
   </g>
   <g id="cell83">
  <circle cx="635.359" cy="552.129" r="8.30801" stroke-width="0.5" stroke="black" fill="green"/>
  <circle cx="635.359" cy="552.129" r="5.00835" stroke-width="0.5" stroke="black" fill="green"/>
   </g>
   <g id="cell84">
  <circle cx="519.143" cy="493.376" r="8.40934" stroke-width="0.5" stroke="black" fill="cyan"/>
  <circle cx="519.143" cy="493.376" r="5.05073" stroke-width="0.5" stroke="black" fill="cyan"/>
   </g>
   <g id="cell85">
  <circle cx="352.319" cy="542.443" r="8.40271" stroke-width="0.5" stroke="black" fill="cyan"/>
  <circle cx="352.319" cy="542.443" r="5.04864" stroke-width="0.5" stroke="black" fill="cyan"/>
   </g>
   <g id="cell86">
  <circle cx="499.85" cy="535.618" r="8.34131" stroke-width="0.5" stroke="black" fill="magenta"/>
  <circle cx="499.85" cy="535.618" r="5.02363" stroke-width="0.5" stroke="black" fill="magenta"/>
   </g>
   <g id="cell87">
  <circle cx="578.972" cy="557.007" r="8.39857" stroke-width="0.5" stroke="black" fill="cyan"/>
  <circle cx="578.972" cy="557.007" r="5.0472" stroke-width="0.5" stroke="black" fill="cyan"/>
   </g>
   <g id="cell88">
  <circle cx="446.862" cy="534.052" r="6.58891" stroke-width="0.5" stroke="black" fill="magenta"/>
  <circle cx="446.862" cy="534.052" r="4.04469" stroke-width="0.5" stroke="black" fill="magenta"/>
   </g>
   <g id="cell89">
  <circle cx="551.134" cy="449.873" r="7.911" stroke-width="0.5" stroke="black" fill="cyan"/>
  <circle cx="551.134" cy="449.873" r="4.81089" stroke-width="0.5" stroke="black" fill="cyan"/>
   </g>
   <g id="cell90">
  <circle cx="636.625" cy="472.672" r="8.30939" stroke-width="0.5" stroke="black" fill="green"/>
  <circle cx="636.625" cy="472.672" r="5.00925" stroke-width="0.5" stroke="black" fill="green"/>
   </g>
   <g id="cell91">
  <circle cx="546.943" cy="558.885" r="8.404" stroke-width="0.5" stroke="black" fill="magenta"/>
  <circle cx="546.943" cy="558.885" r="5.04912" stroke-width="0.5" stroke="black" fill="magenta"/>
   </g>
   <g id="cell92">
  <circle cx="486.532" cy="552.363" r="8.40715" stroke-width="0.5" stroke="black" fill="green"/>
  <circle cx="486.532" cy="552.363" r="5.05003" stroke-width="0.5" stroke="black" fill="green"/>
   </g>
   <g id="cell93">
  <circle cx="538.939" cy="546.09" r="8.404" stroke-width="0.5" stroke="black" fill="magenta"/>
  <circle cx="538.939" cy="546.09" r="5.04912" stroke-width="0.5" stroke="black" fill="magenta"/>
   </g>
   <g id="cell94">
  <circle cx="540.825" cy="496.346" r="8.40632" stroke-width="0.5" stroke="black" fill="cyan"/>
  <circle cx="540.825" cy="496.346" r="5.04976" stroke-width="0.5" stroke="black" fill="cyan"/>
   </g>
   <g id="cell95">
  <circle cx="464.816" cy="425.769" r="8.40614" stroke-width="0.5" stroke="black" fill="cyan"/>
  <circle cx="464.816" cy="425.769" r="5.0497" stroke-width="0.5" stroke="black" fill="cyan"/>
   </g>
   <g id="cell96">
  <circle cx="545.964" cy="532.126" r="8.21476" stroke-width="0.5" stroke="black" fill="cyan"/>
  <circle cx="545.964" cy="532.126" r="4.96336" stroke-width="0.5" stroke="black" fill="cyan"/>
   </g>
   <g id="cell97">
  <circle cx="421.799" cy="466.634" r="8.39948" stroke-width="0.5" stroke="black" fill="green"/>
  <circle cx="421.799" cy="466.634" r="5.04756" stroke-width="0.5" stroke="black" fill="green"/>
   </g>
   <g id="cell98">
  <circle cx="490.763" cy="523.138" r="8.32618" stroke-width="0.5" stroke="black" fill="green"/>
  <circle cx="490.763" cy="523.138" r="5.01711" stroke-width="0.5" stroke="black" fill="green"/>
   </g>
   <g id="cell99">
  <circle cx="358.572" cy="527.727" r="8.40271" stroke-width="0.5" stroke="black" fill="cyan"/>
  <circle cx="358.572" cy="527.727" r="5.04864" stroke-width="0.5" stroke="black" fill="cyan"/>
   </g>
   <g id="cell100">
  <circle cx="447.25" cy="399.209" r="8.40255" stroke-width="0.5" stroke="black" fill="green"/>
  <circle cx="447.25" cy="399.209" r="5.04854" stroke-width="0.5" stroke="black" fill="green"/>
   </g>
   <g id="cell101">
  <circle cx="531.934" cy="483.69" r="8.19544" stroke-width="0.5" stroke="black" fill="cyan"/>
  <circle cx="531.934" cy="483.69" r="4.95391" stroke-width="0.5" stroke="black" fill="cyan"/>
   </g>
   <g id="cell102">
  <circle cx="435.154" cy="475.591" r="8.39948" stroke-width="0.5" stroke="black" fill="green"/>
  <circle cx="435.154" cy="475.591" r="5.04756" stroke-width="0.5" stroke="black" fill="green"/>
   </g>
   <g id="cell103">
  <circle cx="591.27" cy="447.873" r="8.3396" stroke-width="0.5" stroke="black" fill="cyan"/>
  <circle cx="591.27" cy="447.873" r="5.02327" stroke-width="0.5" stroke="black" fill="cyan"/>
   </g>
   <g id="cell104">
  <circle cx="599.646" cy="556.879" r="7.87046" stroke-width="0.5" stroke="black" fill="cyan"/>
  <circle cx="599.646" cy="556.879" r="4.7783" stroke-width="0.5" stroke="black" fill="cyan"/>
   </g>
   <g id="cell106">
  <circle cx="461.066" cy="440.924" r="8.39676" stroke-width="0.5" stroke="black" fill="magenta"/>
  <circle cx="461.066" cy="440.924" r="5.04646" stroke-width="0.5" stroke="black" fill="magenta"/>
   </g>
   <g id="cell107">
  <circle cx="460.808" cy="388.495" r="5.91138" stroke-width="0.5" stroke="black" fill="green"/>
  <circle cx="460.808" cy="388.495" r="3.62291" stroke-width="0.5" stroke="black" fill="green"/>
   </g>
   <g id="cell108">
  <circle cx="554.937" cy="605.702" r="8.39422" stroke-width="0.5" stroke="black" fill="green"/>
  <circle cx="554.937" cy="605.702" r="5.04543" stroke-width="0.5" stroke="black" fill="green"/>
   </g>
   <g id="cell109">
  <circle cx="576.516" cy="589.847" r="8.38332" stroke-width="0.5" stroke="black" fill="green"/>
  <circle cx="576.516" cy="589.847" r="5.04168" stroke-width="0.5" stroke="black" fill="green"/>
   </g>
   <g id="cell110">
  <circle cx="373.028" cy="512.485" r="8.38753" stroke-width="0.5" stroke="black" fill="cyan"/>
  <circle cx="373.028" cy="512.485" r="5.04286" stroke-width="0.5" stroke="black" fill="cyan"/>
   </g>
   <g id="cell111">
  <circle cx="455.78" cy="555.343" r="8.19178" stroke-width="0.5" stroke="black" fill="magenta"/>
  <circle cx="455.78" cy="555.343" r="4.95336" stroke-width="0.5" stroke="black" fill="magenta"/>
   </g>
   <g id="cell112">
  <circle cx="496.323" cy="473.682" r="7.84675" stroke-width="0.5" stroke="black" fill="magenta"/>
  <circle cx="496.323" cy="473.682" r="4.76618" stroke-width="0.5" stroke="black" fill="magenta"/>
   </g>
   <g id="cell113">
  <circle cx="543.764" cy="390.529" r="7.97287" stroke-width="0.5" stroke="black" fill="green"/>
  <circle cx="543.764" cy="390.529" r="4.83688" stroke-width="0.5" stroke="black" fill="green"/>
   </g>
   <g id="cell114">
  <circle cx="524.17" cy="445.732" r="8.36382" stroke-width="0.5" stroke="black" fill="cyan"/>
  <circle cx="524.17" cy="445.732" r="5.03402" stroke-width="0.5" stroke="black" fill="cyan"/>
   </g>
   <g id="cell115">
  <circle cx="536.63" cy="454.543" r="8.23296" stroke-width="0.5" stroke="black" fill="cyan"/>
  <circle cx="536.63" cy="454.543" r="4.97509" stroke-width="0.5" stroke="black" fill="cyan"/>
   </g>
   <g id="cell116">
  <circle cx="521.529" cy="520.444" r="8.37151" stroke-width="0.5" stroke="black" fill="cyan"/>
  <circle cx="521.529" cy="520.444" r="5.03661" stroke-width="0.5" stroke="black" fill="cyan"/>
   </g>
   <g id="cell117">
  <circle cx="508.071" cy="622.718" r="8.35809" stroke-width="0.5" stroke="black" fill="green"/>
  <circle cx="508.071" cy="622.718" r="5.03136" stroke-width="0.5" stroke="black" fill="green"/>
   </g>
   <g id="cell118">
  <circle cx="509.382" cy="451.297" r="8.34992" stroke-width="0.5" stroke="black" fill="cyan"/>
  <circle cx="509.382" cy="451.297" r="5.02727" stroke-width="0.5" stroke="black" fill="cyan"/>
   </g>
   <g id="cell119">
  <circle cx="533.642" cy="604.439" r="8.34912" stroke-width="0.5" stroke="black" fill="green"/>
  <circle cx="533.642" cy="604.439" r="5.02705" stroke-width="0.5" stroke="black" fill="green"/>
   </g>
   <g id="cell120">
  <circle cx="576.466" cy="442.334" r="8.3396" stroke-width="0.5" stroke="black" fill="cyan"/>
  <circle cx="576.466" cy="442.334" r="5.02327" stroke-width="0.5" stroke="black" fill="cyan"/>
   </g>
   <g id="cell121">
  <circle cx="451.327" cy="368.926" r="8.25669" stroke-width="0.5" stroke="black" fill="green"/>
  <circle cx="451.327" cy="368.926" r="4.98735" stroke-width="0.5" stroke="black" fill="green"/>
   </g>
   <g id="cell122">
  <circle cx="506.142" cy="521.928" r="8.34131" stroke-width="0.5" stroke="black" fill="magenta"/>
  <circle cx="506.142" cy="521.928" r="5.02363" stroke-width="0.5" stroke="black" fill="magenta"/>
   </g>
   <g id="cell123">
  <circle cx="497.022" cy="509.067" r="8.32618" stroke-width="0.5" stroke="black" fill="green"/>
  <circle cx="497.022" cy="509.067" r="5.01711" stroke-width="0.5" stroke="black" fill="green"/>
   </g>
   <g id="cell124">
  <circle cx="490.358" cy="434.078" r="8.32949" stroke-width="0.5" stroke="black" fill="magenta"/>
  <circle cx="490.358" cy="434.078" r="5.01817" stroke-width="0.5" stroke="black" fill="magenta"/>
   </g>
   <g id="cell125">
  <circle cx="621.56" cy="477.472" r="8.30939" stroke-width="0.5" stroke="black" fill="green"/>
  <circle cx="621.56" cy="477.472" r="5.00925" stroke-width="0.5" stroke="black" fill="green"/>
   </g>
   <g id="cell126">
  <circle cx="628.895" cy="566.559" r="8.30801" stroke-width="0.5" stroke="black" fill="green"/>
  <circle cx="628.895" cy="566.559" r="5.00835" stroke-width="0.5" stroke="black" fill="green"/>
   </g>
   <g id="cell127">
  <circle cx="437.868" cy="361.293" r="8.25669" stroke-width="0.5" stroke="black" fill="green"/>
  <circle cx="437.868" cy="361.293" r="4.98735" stroke-width="0.5" stroke="black" fill="green"/>
   </g>
   <g id="cell128">
  <circle cx="372.194" cy="467.64" r="8.28262" stroke-width="0.5" stroke="black" fill="magenta"/>
  <circle cx="372.194" cy="467.64" r="4.9961" stroke-width="0.5" stroke="black" fill="magenta"/>
   </g>
   <g id="cell129">
  <circle cx="570.081" cy="544.016" r="8.26891" stroke-width="0.5" stroke="black" fill="cyan"/>
  <circle cx="570.081" cy="544.016" r="4.98989" stroke-width="0.5" stroke="black" fill="cyan"/>
   </g>
   <g id="cell130">
  <circle cx="540.584" cy="439.042" r="8.23296" stroke-width="0.5" stroke="black" fill="cyan"/>
  <circle cx="540.584" cy="439.042" r="4.97509" stroke-width="0.5" stroke="black" fill="cyan"/>
   </g>
   <g id="cell131">
  <circle cx="537.389" cy="519.085" r="8.21476" stroke-width="0.5" stroke="black" fill="cyan"/>
  <circle cx="537.389" cy="519.085" r="4.96336" stroke-width="0.5" stroke="black" fill="cyan"/>
   </g>
   <g id="cell132">
  <circle cx="443.913" cy="546.644" r="8.19178" stroke-width="0.5" stroke="black" fill="magenta"/>
  <circle cx="443.913" cy="546.644" r="4.95336" stroke-width="0.5" stroke="black" fill="magenta"/>
   </g>
   <g id="cell133">
  <circle cx="573.91" cy="466.129" r="8.20456" stroke-width="0.5" stroke="black" fill="cyan"/>
  <circle cx="573.91" cy="466.129" r="4.95798" stroke-width="0.5" stroke="black" fill="cyan"/>
   </g>
   <g id="cell134">
  <circle cx="534.636" cy="469.846" r="5.80577" stroke-width="0.5" stroke="black" fill="cyan"/>
  <circle cx="534.636" cy="469.846" r="3.69846" stroke-width="0.5" stroke="black" fill="black"/>
   </g>
   <g id="cell135">
  <circle cx="517.832" cy="583.673" r="8.17502" stroke-width="0.5" stroke="black" fill="magenta"/>
  <circle cx="517.832" cy="583.673" r="4.94236" stroke-width="0.5" stroke="black" fill="magenta"/>
   </g>
   <g id="cell136">
  <circle cx="472.138" cy="546.046" r="8.13516" stroke-width="0.5" stroke="black" fill="green"/>
  <circle cx="472.138" cy="546.046" r="4.92227" stroke-width="0.5" stroke="black" fill="green"/>
   </g>
   <g id="cell137">
  <circle cx="492.461" cy="612.109" r="8.05665" stroke-width="0.5" stroke="black" fill="green"/>
  <circle cx="492.461" cy="612.109" r="4.88448" stroke-width="0.5" stroke="black" fill="green"/>
   </g>
   <g id="cell138">
  <circle cx="500.212" cy="409.172" r="8.08613" stroke-width="0.5" stroke="black" fill="green"/>
  <circle cx="500.212" cy="409.172" r="4.8956" stroke-width="0.5" stroke="black" fill="green"/>
   </g>
   <g id="cell139">
  <circle cx="421.483" cy="404.662" r="8.03527" stroke-width="0.5" stroke="black" fill="magenta"/>
  <circle cx="421.483" cy="404.662" r="4.86813" stroke-width="0.5" stroke="black" fill="magenta"/>
   </g>
   <g id="cell140">
  <circle cx="523.905" cy="570.894" r="7.66045" stroke-width="0.5" stroke="black" fill="magenta"/>
  <circle cx="523.905" cy="570.894" r="4.67442" stroke-width="0.5" stroke="black" fill="magenta"/>
   </g>
   <g id="cell141">
  <circle cx="565.603" cy="453.171" r="7.911" stroke-width="0.5" stroke="black" fill="cyan"/>
  <circle cx="565.603" cy="453.171" r="4.81089" stroke-width="0.5" stroke="black" fill="cyan"/>
   </g>
   <g id="cell142">
  <circle cx="550.937" cy="427.879" r="6.82076" stroke-width="0.5" stroke="black" fill="green"/>
  <circle cx="550.937" cy="427.879" r="4.19302" stroke-width="0.5" stroke="black" fill="green"/>
   </g>
   <g id="cell143">
  <circle cx="435.262" cy="408.443" r="7.78366" stroke-width="0.5" stroke="black" fill="magenta"/>
  <circle cx="435.262" cy="408.443" r="4.74281" stroke-width="0.5" stroke="black" fill="magenta"/>
   </g>
   <g id="cell144">
  <circle cx="546.933" cy="407.969" r="6.7517" stroke-width="0.5" stroke="black" fill="green"/>
  <circle cx="546.933" cy="407.969" r="4.15039" stroke-width="0.5" stroke="black" fill="green"/>
   </g>
   <g id="cell146">
  <circle cx="588.855" cy="548.792" r="1.67525" stroke-width="0.5" stroke="black" fill="cyan"/>
  <circle cx="588.855" cy="548.792" r="1.58757" stroke-width="0.5" stroke="black" fill="black"/>
   </g>
   <g id="cell147">
  <circle cx="517.317" cy="559.203" r="7.66045" stroke-width="0.5" stroke="black" fill="magenta"/>
  <circle cx="517.317" cy="559.203" r="4.67442" stroke-width="0.5" stroke="black" fill="magenta"/>
   </g>
   <g id="cell148">
  <circle cx="508.199" cy="466.163" r="7.84675" stroke-width="0.5" stroke="black" fill="magenta"/>
  <circle cx="508.199" cy="466.163" r="4.76618" stroke-width="0.5" stroke="black" fill="magenta"/>
   </g>
   <g id="cell149">
  <circle cx="576.512" cy="398.138" r="7.70049" stroke-width="0.5" stroke="black" fill="magenta"/>
  <circle cx="576.512" cy="398.138" r="4.67828" stroke-width="0.5" stroke="black" fill="magenta"/>
   </g>
   <g id="cell150">
  <circle cx="406.298" cy="581.891" r="6.08571" stroke-width="0.5" stroke="black" fill="green"/>
  <circle cx="406.298" cy="581.891" r="3.70224" stroke-width="0.5" stroke="black" fill="green"/>
   </g>
   <g id="cell151">
  <circle cx="421.061" cy="530.328" r="7.51976" stroke-width="0.5" stroke="black" fill="green"/>
  <circle cx="421.061" cy="530.328" r="4.57072" stroke-width="0.5" stroke="black" fill="green"/>
   </g>
   <g id="cell152">
  <circle cx="376.228" cy="576.093" r="6.97743" stroke-width="0.5" stroke="black" fill="green"/>
  <circle cx="376.228" cy="576.093" r="4.27899" stroke-width="0.5" stroke="black" fill="green"/>
   </g>
   <g id="cell153">
  <circle cx="560.358" cy="471.838" r="7.41548" stroke-width="0.5" stroke="black" fill="cyan"/>
  <circle cx="560.358" cy="471.838" r="4.50723" stroke-width="0.5" stroke="black" fill="cyan"/>
   </g>
   <g id="cell154">
  <circle cx="387.992" cy="595.398" r="6.50609" stroke-width="0.5" stroke="black" fill="green"/>
  <circle cx="387.992" cy="595.398" r="4.01571" stroke-width="0.5" stroke="black" fill="green"/>
   </g>
   <g id="cell155">
  <circle cx="484.573" cy="580.837" r="7.3599" stroke-width="0.5" stroke="black" fill="green"/>
  <circle cx="484.573" cy="580.837" r="4.47294" stroke-width="0.5" stroke="black" fill="green"/>
   </g>
   <g id="cell156">
  <circle cx="456.17" cy="526.228" r="7.35708" stroke-width="0.5" stroke="black" fill="magenta"/>
  <circle cx="456.17" cy="526.228" r="4.47205" stroke-width="0.5" stroke="black" fill="magenta"/>
   </g>
   <g id="cell157">
  <circle cx="441.756" cy="523.787" r="6.58891" stroke-width="0.5" stroke="black" fill="magenta"/>
  <circle cx="441.756" cy="523.787" r="4.04469" stroke-width="0.5" stroke="black" fill="magenta"/>
   </g>
   <g id="cell158">
  <circle cx="556.651" cy="416.236" r="6.82076" stroke-width="0.5" stroke="black" fill="green"/>
  <circle cx="556.651" cy="416.236" r="4.19302" stroke-width="0.5" stroke="black" fill="green"/>
   </g>
   <g id="cell159">
  <circle cx="535.763" cy="402.099" r="6.7517" stroke-width="0.5" stroke="black" fill="green"/>
  <circle cx="535.763" cy="402.099" r="4.15039" stroke-width="0.5" stroke="black" fill="green"/>
   </g>
   <g id="cell160">
  <circle cx="463.542" cy="376.671" r="7.06369" stroke-width="0.5" stroke="black" fill="green"/>
  <circle cx="463.542" cy="376.671" r="4.29776" stroke-width="0.5" stroke="black" fill="green"/>
   </g>
  </g>
 </g>
  <rect x="775" y="1035" width="200" height="10" stroke-width="2" stroke="rgb(255,255,255)" fill="rgb(0,0,0)"/>
  <text x="781.25" y="1028.75"
   font-family="Arial" font-size="25" fill="black" >
   200 &#956;m
  </text>
  <text x="25" y="1045"
   font-family="Arial" font-size="18.75" fill="black" >
   0 days, 0 hours, 0 minutes, and 32.3020 seconds
  </text>
  <rect x="0" y="70" width="1000" height="1000" stroke-width="2" stroke="rgb(0,0,0)" fill="none"/>
</svg>
