<?xml version="1.0" encoding="UTF-8" standalone="no"?>
<!-- Created with PhysiCell (http://PhysiCell.MathCancer.org/) -->
<svg 
 xmlns:dc="http://purl.org/dc/elements/1.1/" 
 xmlns:cc="http://creativecommons.org/ns#" 
 xmlns:rdf="http://www.w3.org/1999/02/22-rdf-syntax-ns#" 
 xmlns:svg="http://www.w3.org/2000/svg" 
 xmlns="http://www.w3.org/2000/svg" 
 version="1.1" 
 width="1000" 
 height="1070" 
 id="svg2">
  <rect x="0" y="0" width="1000" height="1070" stroke-width="2" stroke="white" fill="white"/>
  <text x="12.5" y="30"
   font-family="Arial" font-size="25" fill="black" >
   Current time: 0 days, 20 hours, and 3.00 minutes, z = 0.00 &#956;m
  </text>
  <text x="12.5" y="57.5"
   font-family="Arial" font-size="23.75" fill="black" >
   136 agents
  </text>
 <g id="tissue" 
    transform="translate(0,1070) scale(1,-1)">
  <g id="ECM">
  </g>
  <g id="cells">
   <g id="cell0">
  <circle cx="513.48" cy="535.612" r="8.38682" stroke-width="0.5" stroke="black" fill="magenta"/>
  <circle cx="513.48" cy="535.612" r="5.04258" stroke-width="0.5" stroke="black" fill="magenta"/>
   </g>
   <g id="cell1">
  <circle cx="601.735" cy="524.003" r="8.41271" stroke-width="0.5" stroke="black" fill="magenta"/>
  <circle cx="601.735" cy="524.003" r="5.05167" stroke-width="0.5" stroke="black" fill="magenta"/>
   </g>
   <g id="cell2">
  <circle cx="516.035" cy="597.892" r="8.41271" stroke-width="0.5" stroke="black" fill="magenta"/>
  <circle cx="516.035" cy="597.892" r="5.05167" stroke-width="0.5" stroke="black" fill="magenta"/>
   </g>
   <g id="cell3">
  <circle cx="522.847" cy="547.831" r="8.37031" stroke-width="0.5" stroke="black" fill="magenta"/>
  <circle cx="522.847" cy="547.831" r="5.03652" stroke-width="0.5" stroke="black" fill="magenta"/>
   </g>
   <g id="cell4">
  <circle cx="488.537" cy="446.063" r="7.78949" stroke-width="0.5" stroke="black" fill="magenta"/>
  <circle cx="488.537" cy="446.063" r="4.73155" stroke-width="0.5" stroke="black" fill="magenta"/>
   </g>
   <g id="cell5">
  <circle cx="465.032" cy="493.3" r="8.41271" stroke-width="0.5" stroke="black" fill="magenta"/>
  <circle cx="465.032" cy="493.3" r="5.05167" stroke-width="0.5" stroke="black" fill="magenta"/>
   </g>
   <g id="cell6">
  <circle cx="596.736" cy="514.782" r="3.19585" stroke-width="0.5" stroke="black" fill="magenta"/>
  <circle cx="596.736" cy="514.782" r="2.55241" stroke-width="0.5" stroke="black" fill="black"/>
   </g>
   <g id="cell7">
  <circle cx="496.347" cy="457.956" r="8.20689" stroke-width="0.5" stroke="black" fill="magenta"/>
  <circle cx="496.347" cy="457.956" r="4.95867" stroke-width="0.5" stroke="black" fill="magenta"/>
   </g>
   <g id="cell8">
  <circle cx="376.379" cy="542.717" r="8.41271" stroke-width="0.5" stroke="black" fill="magenta"/>
  <circle cx="376.379" cy="542.717" r="5.05167" stroke-width="0.5" stroke="black" fill="magenta"/>
   </g>
   <g id="cell9">
  <circle cx="460.472" cy="599.786" r="3.45715" stroke-width="0.5" stroke="black" fill="magenta"/>
  <circle cx="460.472" cy="599.786" r="2.66266" stroke-width="0.5" stroke="black" fill="black"/>
   </g>
   <g id="cell10">
  <circle cx="583.447" cy="392.105" r="8.41271" stroke-width="0.5" stroke="black" fill="magenta"/>
  <circle cx="583.447" cy="392.105" r="5.05167" stroke-width="0.5" stroke="black" fill="magenta"/>
   </g>
   <g id="cell11">
  <circle cx="591.959" cy="590.051" r="8.41271" stroke-width="0.5" stroke="black" fill="magenta"/>
  <circle cx="591.959" cy="590.051" r="5.05167" stroke-width="0.5" stroke="black" fill="magenta"/>
   </g>
   <g id="cell12">
  <circle cx="503.994" cy="591.443" r="6.80881" stroke-width="0.5" stroke="black" fill="magenta"/>
  <circle cx="503.994" cy="591.443" r="4.10709" stroke-width="0.5" stroke="black" fill="magenta"/>
   </g>
   <g id="cell13">
  <circle cx="386.194" cy="568.228" r="8.41271" stroke-width="0.5" stroke="black" fill="magenta"/>
  <circle cx="386.194" cy="568.228" r="5.05167" stroke-width="0.5" stroke="black" fill="magenta"/>
   </g>
   <g id="cell14">
  <circle cx="528.837" cy="400.471" r="8.41271" stroke-width="0.5" stroke="black" fill="magenta"/>
  <circle cx="528.837" cy="400.471" r="5.05167" stroke-width="0.5" stroke="black" fill="magenta"/>
   </g>
   <g id="cell15">
  <circle cx="384.186" cy="477.077" r="7.44242" stroke-width="0.5" stroke="black" fill="magenta"/>
  <circle cx="384.186" cy="477.077" r="4.52373" stroke-width="0.5" stroke="black" fill="magenta"/>
   </g>
   <g id="cell16">
  <circle cx="429.05" cy="412.491" r="8.41271" stroke-width="0.5" stroke="black" fill="magenta"/>
  <circle cx="429.05" cy="412.491" r="5.05167" stroke-width="0.5" stroke="black" fill="magenta"/>
   </g>
   <g id="cell17">
  <circle cx="570.882" cy="491.414" r="8.41271" stroke-width="0.5" stroke="black" fill="magenta"/>
  <circle cx="570.882" cy="491.414" r="5.05167" stroke-width="0.5" stroke="black" fill="magenta"/>
   </g>
   <g id="cell18">
  <circle cx="518.205" cy="389.634" r="8.41271" stroke-width="0.5" stroke="black" fill="magenta"/>
  <circle cx="518.205" cy="389.634" r="5.05167" stroke-width="0.5" stroke="black" fill="magenta"/>
   </g>
   <g id="cell19">
  <circle cx="460.154" cy="540.71" r="8.20236" stroke-width="0.5" stroke="black" fill="magenta"/>
  <circle cx="460.154" cy="540.71" r="4.95868" stroke-width="0.5" stroke="black" fill="magenta"/>
   </g>
   <g id="cell20">
  <circle cx="530.86" cy="415.61" r="8.41271" stroke-width="0.5" stroke="black" fill="magenta"/>
  <circle cx="530.86" cy="415.61" r="5.05167" stroke-width="0.5" stroke="black" fill="magenta"/>
   </g>
   <g id="cell21">
  <circle cx="466.062" cy="633.018" r="8.41271" stroke-width="0.5" stroke="black" fill="magenta"/>
  <circle cx="466.062" cy="633.018" r="5.05167" stroke-width="0.5" stroke="black" fill="magenta"/>
   </g>
   <g id="cell22">
  <circle cx="556.039" cy="494.799" r="8.41271" stroke-width="0.5" stroke="black" fill="magenta"/>
  <circle cx="556.039" cy="494.799" r="5.05167" stroke-width="0.5" stroke="black" fill="magenta"/>
   </g>
   <g id="cell23">
  <circle cx="545.596" cy="483.839" r="8.41271" stroke-width="0.5" stroke="black" fill="magenta"/>
  <circle cx="545.596" cy="483.839" r="5.05167" stroke-width="0.5" stroke="black" fill="magenta"/>
   </g>
   <g id="cell24">
  <circle cx="558.8" cy="381.583" r="8.41271" stroke-width="0.5" stroke="black" fill="magenta"/>
  <circle cx="558.8" cy="381.583" r="5.05167" stroke-width="0.5" stroke="black" fill="magenta"/>
   </g>
   <g id="cell25">
  <circle cx="647.766" cy="543.545" r="8.39664" stroke-width="0.5" stroke="black" fill="green"/>
  <circle cx="647.766" cy="543.545" r="5.04633" stroke-width="0.5" stroke="black" fill="green"/>
   </g>
   <g id="cell26">
  <circle cx="555.24" cy="396.542" r="8.20088" stroke-width="0.5" stroke="black" fill="green"/>
  <circle cx="555.24" cy="396.542" r="4.95562" stroke-width="0.5" stroke="black" fill="green"/>
   </g>
   <g id="cell27">
  <circle cx="465.761" cy="395.89" r="8.40272" stroke-width="0.5" stroke="black" fill="green"/>
  <circle cx="465.761" cy="395.89" r="5.04853" stroke-width="0.5" stroke="black" fill="green"/>
   </g>
   <g id="cell28">
  <circle cx="432.77" cy="530.695" r="8.41271" stroke-width="0.5" stroke="black" fill="green"/>
  <circle cx="432.77" cy="530.695" r="5.05167" stroke-width="0.5" stroke="black" fill="green"/>
   </g>
   <g id="cell29">
  <circle cx="450.434" cy="516.197" r="8.41271" stroke-width="0.5" stroke="black" fill="green"/>
  <circle cx="450.434" cy="516.197" r="5.05167" stroke-width="0.5" stroke="black" fill="green"/>
   </g>
   <g id="cell30">
  <circle cx="486.131" cy="533.186" r="6.66168" stroke-width="0.5" stroke="black" fill="green"/>
  <circle cx="486.131" cy="533.186" r="4.00899" stroke-width="0.5" stroke="black" fill="green"/>
   </g>
   <g id="cell31">
  <circle cx="412.807" cy="541.561" r="8.41271" stroke-width="0.5" stroke="black" fill="green"/>
  <circle cx="412.807" cy="541.561" r="5.05167" stroke-width="0.5" stroke="black" fill="green"/>
   </g>
   <g id="cell32">
  <circle cx="421.06" cy="481.904" r="7.60612" stroke-width="0.5" stroke="black" fill="green"/>
  <circle cx="421.06" cy="481.904" r="4.60372" stroke-width="0.5" stroke="black" fill="black"/>
   </g>
   <g id="cell33">
  <circle cx="501.629" cy="421.34" r="8.41271" stroke-width="0.5" stroke="black" fill="green"/>
  <circle cx="501.629" cy="421.34" r="5.05167" stroke-width="0.5" stroke="black" fill="green"/>
   </g>
   <g id="cell34">
  <circle cx="397.088" cy="450.831" r="8.41271" stroke-width="0.5" stroke="black" fill="green"/>
  <circle cx="397.088" cy="450.831" r="5.05167" stroke-width="0.5" stroke="black" fill="green"/>
   </g>
   <g id="cell35">
  <circle cx="552.815" cy="542.756" r="8.41271" stroke-width="0.5" stroke="black" fill="green"/>
  <circle cx="552.815" cy="542.756" r="5.05167" stroke-width="0.5" stroke="black" fill="green"/>
   </g>
   <g id="cell36">
  <circle cx="391.486" cy="582.903" r="8.41271" stroke-width="0.5" stroke="black" fill="green"/>
  <circle cx="391.486" cy="582.903" r="5.05167" stroke-width="0.5" stroke="black" fill="green"/>
   </g>
   <g id="cell37">
  <circle cx="639.895" cy="457.94" r="8.40123" stroke-width="0.5" stroke="black" fill="green"/>
  <circle cx="639.895" cy="457.94" r="5.048" stroke-width="0.5" stroke="black" fill="green"/>
   </g>
   <g id="cell38">
  <circle cx="529.488" cy="590.007" r="8.39913" stroke-width="0.5" stroke="black" fill="green"/>
  <circle cx="529.488" cy="590.007" r="5.04725" stroke-width="0.5" stroke="black" fill="green"/>
   </g>
   <g id="cell39">
  <circle cx="613.894" cy="490.006" r="8.41271" stroke-width="0.5" stroke="black" fill="green"/>
  <circle cx="613.894" cy="490.006" r="5.05167" stroke-width="0.5" stroke="black" fill="green"/>
   </g>
   <g id="cell40">
  <circle cx="485.347" cy="571.775" r="8.41271" stroke-width="0.5" stroke="black" fill="green"/>
  <circle cx="485.347" cy="571.775" r="5.05167" stroke-width="0.5" stroke="black" fill="green"/>
   </g>
   <g id="cell41">
  <circle cx="364.069" cy="481.276" r="8.41271" stroke-width="0.5" stroke="black" fill="green"/>
  <circle cx="364.069" cy="481.276" r="5.05167" stroke-width="0.5" stroke="black" fill="green"/>
   </g>
   <g id="cell42">
  <circle cx="438.821" cy="494.159" r="8.41271" stroke-width="0.5" stroke="black" fill="green"/>
  <circle cx="438.821" cy="494.159" r="5.05167" stroke-width="0.5" stroke="black" fill="green"/>
   </g>
   <g id="cell43">
  <circle cx="561.415" cy="440.867" r="8.41271" stroke-width="0.5" stroke="black" fill="green"/>
  <circle cx="561.415" cy="440.867" r="5.05167" stroke-width="0.5" stroke="black" fill="green"/>
   </g>
   <g id="cell44">
  <circle cx="474.163" cy="625.577" r="3.45715" stroke-width="0.5" stroke="black" fill="green"/>
  <circle cx="474.163" cy="625.577" r="2.66266" stroke-width="0.5" stroke="black" fill="black"/>
   </g>
   <g id="cell45">
  <circle cx="414.902" cy="556.698" r="1.41604" stroke-width="0.5" stroke="black" fill="green"/>
  <circle cx="414.902" cy="556.698" r="1.40242" stroke-width="0.5" stroke="black" fill="black"/>
   </g>
   <g id="cell46">
  <circle cx="520.437" cy="612.822" r="8.32032" stroke-width="0.5" stroke="black" fill="green"/>
  <circle cx="520.437" cy="612.822" r="5.01383" stroke-width="0.5" stroke="black" fill="green"/>
   </g>
   <g id="cell47">
  <circle cx="504.351" cy="495.755" r="8.35568" stroke-width="0.5" stroke="black" fill="green"/>
  <circle cx="504.351" cy="495.755" r="5.02965" stroke-width="0.5" stroke="black" fill="green"/>
   </g>
   <g id="cell48">
  <circle cx="571.032" cy="604.617" r="8.19807" stroke-width="0.5" stroke="black" fill="green"/>
  <circle cx="571.032" cy="604.617" r="4.95896" stroke-width="0.5" stroke="black" fill="green"/>
   </g>
   <g id="cell49">
  <circle cx="432.064" cy="397.123" r="8.41271" stroke-width="0.5" stroke="black" fill="green"/>
  <circle cx="432.064" cy="397.123" r="5.05167" stroke-width="0.5" stroke="black" fill="green"/>
   </g>
   <g id="cell50">
  <circle cx="512.429" cy="509.095" r="8.10904" stroke-width="0.5" stroke="black" fill="cyan"/>
  <circle cx="512.429" cy="509.095" r="4.91006" stroke-width="0.5" stroke="black" fill="cyan"/>
   </g>
   <g id="cell51">
  <circle cx="398.721" cy="597.201" r="8.41271" stroke-width="0.5" stroke="black" fill="cyan"/>
  <circle cx="398.721" cy="597.201" r="5.05167" stroke-width="0.5" stroke="black" fill="cyan"/>
   </g>
   <g id="cell52">
  <circle cx="517.347" cy="423.161" r="8.41271" stroke-width="0.5" stroke="black" fill="cyan"/>
  <circle cx="517.347" cy="423.161" r="5.05167" stroke-width="0.5" stroke="black" fill="cyan"/>
   </g>
   <g id="cell53">
  <circle cx="572.642" cy="429.438" r="8.33481" stroke-width="0.5" stroke="black" fill="cyan"/>
  <circle cx="572.642" cy="429.438" r="5.02043" stroke-width="0.5" stroke="black" fill="cyan"/>
   </g>
   <g id="cell54">
  <circle cx="481.771" cy="421.458" r="8.36592" stroke-width="0.5" stroke="black" fill="cyan"/>
  <circle cx="481.771" cy="421.458" r="5.03403" stroke-width="0.5" stroke="black" fill="cyan"/>
   </g>
   <g id="cell55">
  <circle cx="521.525" cy="463.785" r="8.33859" stroke-width="0.5" stroke="black" fill="cyan"/>
  <circle cx="521.525" cy="463.785" r="5.0229" stroke-width="0.5" stroke="black" fill="cyan"/>
   </g>
   <g id="cell56">
  <circle cx="617.271" cy="522.388" r="8.41271" stroke-width="0.5" stroke="black" fill="cyan"/>
  <circle cx="617.271" cy="522.388" r="5.05167" stroke-width="0.5" stroke="black" fill="cyan"/>
   </g>
   <g id="cell105">
  <circle cx="505.508" cy="609.016" r="8.00638" stroke-width="0.5" stroke="black" fill="green"/>
  <circle cx="505.508" cy="609.016" r="4.85893" stroke-width="0.5" stroke="black" fill="green"/>
   </g>
   <g id="cell58">
  <circle cx="560.554" cy="479.831" r="8.41271" stroke-width="0.5" stroke="black" fill="cyan"/>
  <circle cx="560.554" cy="479.831" r="5.05167" stroke-width="0.5" stroke="black" fill="cyan"/>
   </g>
   <g id="cell59">
  <circle cx="385.463" cy="439.803" r="8.41271" stroke-width="0.5" stroke="black" fill="cyan"/>
  <circle cx="385.463" cy="439.803" r="5.05167" stroke-width="0.5" stroke="black" fill="cyan"/>
   </g>
   <g id="cell60">
  <circle cx="591.906" cy="473.85" r="8.41271" stroke-width="0.5" stroke="black" fill="cyan"/>
  <circle cx="591.906" cy="473.85" r="5.05167" stroke-width="0.5" stroke="black" fill="cyan"/>
   </g>
   <g id="cell61">
  <circle cx="557.396" cy="622.572" r="8.41271" stroke-width="0.5" stroke="black" fill="cyan"/>
  <circle cx="557.396" cy="622.572" r="5.05167" stroke-width="0.5" stroke="black" fill="cyan"/>
   </g>
   <g id="cell62">
  <circle cx="514.139" cy="438.32" r="7.94502" stroke-width="0.5" stroke="black" fill="cyan"/>
  <circle cx="514.139" cy="438.32" r="4.81963" stroke-width="0.5" stroke="black" fill="cyan"/>
   </g>
   <g id="cell63">
  <circle cx="581.109" cy="542.905" r="7.34151" stroke-width="0.5" stroke="black" fill="cyan"/>
  <circle cx="581.109" cy="542.905" r="4.46607" stroke-width="0.5" stroke="black" fill="cyan"/>
   </g>
   <g id="cell64">
  <circle cx="509.722" cy="639.392" r="8.41271" stroke-width="0.5" stroke="black" fill="cyan"/>
  <circle cx="509.722" cy="639.392" r="5.05167" stroke-width="0.5" stroke="black" fill="cyan"/>
   </g>
   <g id="cell65">
  <circle cx="549.168" cy="468.778" r="8.38118" stroke-width="0.5" stroke="black" fill="cyan"/>
  <circle cx="549.168" cy="468.778" r="5.04034" stroke-width="0.5" stroke="black" fill="cyan"/>
   </g>
   <g id="cell66">
  <circle cx="529.152" cy="533.786" r="8.3632" stroke-width="0.5" stroke="black" fill="cyan"/>
  <circle cx="529.152" cy="533.786" r="5.03288" stroke-width="0.5" stroke="black" fill="cyan"/>
   </g>
   <g id="cell67">
  <circle cx="353.881" cy="493.611" r="8.41271" stroke-width="0.5" stroke="black" fill="cyan"/>
  <circle cx="353.881" cy="493.611" r="5.05167" stroke-width="0.5" stroke="black" fill="cyan"/>
   </g>
   <g id="cell68">
  <circle cx="562.916" cy="554.962" r="8.41271" stroke-width="0.5" stroke="black" fill="cyan"/>
  <circle cx="562.916" cy="554.962" r="5.05167" stroke-width="0.5" stroke="black" fill="cyan"/>
   </g>
   <g id="cell69">
  <circle cx="442.222" cy="460.336" r="8.41271" stroke-width="0.5" stroke="black" fill="cyan"/>
  <circle cx="442.222" cy="460.336" r="5.05167" stroke-width="0.5" stroke="black" fill="cyan"/>
   </g>
   <g id="cell70">
  <circle cx="576.154" cy="476.663" r="8.41271" stroke-width="0.5" stroke="black" fill="cyan"/>
  <circle cx="576.154" cy="476.663" r="5.05167" stroke-width="0.5" stroke="black" fill="cyan"/>
   </g>
   <g id="cell71">
  <circle cx="380.136" cy="527.772" r="8.22925" stroke-width="0.5" stroke="black" fill="cyan"/>
  <circle cx="380.136" cy="527.772" r="4.96993" stroke-width="0.5" stroke="black" fill="cyan"/>
   </g>
   <g id="cell72">
  <circle cx="528.152" cy="509.261" r="8.36722" stroke-width="0.5" stroke="black" fill="cyan"/>
  <circle cx="528.152" cy="509.261" r="5.03458" stroke-width="0.5" stroke="black" fill="cyan"/>
   </g>
   <g id="cell73">
  <circle cx="364.59" cy="552.884" r="8.38753" stroke-width="0.5" stroke="black" fill="cyan"/>
  <circle cx="364.59" cy="552.884" r="5.04286" stroke-width="0.5" stroke="black" fill="cyan"/>
   </g>
   <g id="cell74">
  <circle cx="548.626" cy="434.25" r="3.10827" stroke-width="0.5" stroke="black" fill="cyan"/>
  <circle cx="548.626" cy="434.25" r="2.49547" stroke-width="0.5" stroke="black" fill="black"/>
   </g>
   <g id="cell75">
  <circle cx="529.323" cy="433.484" r="8.403" stroke-width="0.5" stroke="black" fill="cyan"/>
  <circle cx="529.323" cy="433.484" r="5.04863" stroke-width="0.5" stroke="black" fill="cyan"/>
   </g>
   <g id="cell76">
  <circle cx="442.195" cy="382.169" r="8.26276" stroke-width="0.5" stroke="black" fill="green"/>
  <circle cx="442.195" cy="382.169" r="4.98985" stroke-width="0.5" stroke="black" fill="green"/>
   </g>
   <g id="cell77">
  <circle cx="477.894" cy="436.401" r="8.29769" stroke-width="0.5" stroke="black" fill="magenta"/>
  <circle cx="477.894" cy="436.401" r="5.0041" stroke-width="0.5" stroke="black" fill="magenta"/>
   </g>
   <g id="cell78">
  <circle cx="624.54" cy="462.348" r="8.3754" stroke-width="0.5" stroke="black" fill="green"/>
  <circle cx="624.54" cy="462.348" r="5.03849" stroke-width="0.5" stroke="black" fill="green"/>
   </g>
   <g id="cell79">
  <circle cx="517.507" cy="479.358" r="8.39987" stroke-width="0.5" stroke="black" fill="cyan"/>
  <circle cx="517.507" cy="479.358" r="5.04751" stroke-width="0.5" stroke="black" fill="cyan"/>
   </g>
   <g id="cell80">
  <circle cx="543.307" cy="616.133" r="7.93883" stroke-width="0.5" stroke="black" fill="green"/>
  <circle cx="543.307" cy="616.133" r="4.81747" stroke-width="0.5" stroke="black" fill="green"/>
   </g>
   <g id="cell81">
  <circle cx="544.953" cy="594.715" r="8.39193" stroke-width="0.5" stroke="black" fill="green"/>
  <circle cx="544.953" cy="594.715" r="5.04489" stroke-width="0.5" stroke="black" fill="green"/>
   </g>
   <g id="cell82">
  <circle cx="532.368" cy="559.832" r="8.39664" stroke-width="0.5" stroke="black" fill="magenta"/>
  <circle cx="532.368" cy="559.832" r="5.04633" stroke-width="0.5" stroke="black" fill="magenta"/>
   </g>
   <g id="cell83">
  <circle cx="635.587" cy="552.6" r="7.62724" stroke-width="0.5" stroke="black" fill="green"/>
  <circle cx="635.587" cy="552.6" r="4.63744" stroke-width="0.5" stroke="black" fill="green"/>
   </g>
   <g id="cell84">
  <circle cx="520.329" cy="495.458" r="8.38891" stroke-width="0.5" stroke="black" fill="cyan"/>
  <circle cx="520.329" cy="495.458" r="5.0434" stroke-width="0.5" stroke="black" fill="cyan"/>
   </g>
   <g id="cell85">
  <circle cx="352.522" cy="542.493" r="8.34129" stroke-width="0.5" stroke="black" fill="cyan"/>
  <circle cx="352.522" cy="542.493" r="5.02447" stroke-width="0.5" stroke="black" fill="cyan"/>
   </g>
   <g id="cell86">
  <circle cx="498.995" cy="534.93" r="7.87905" stroke-width="0.5" stroke="black" fill="magenta"/>
  <circle cx="498.995" cy="534.93" r="4.78425" stroke-width="0.5" stroke="black" fill="magenta"/>
   </g>
   <g id="cell87">
  <circle cx="578.622" cy="557.51" r="8.31107" stroke-width="0.5" stroke="black" fill="cyan"/>
  <circle cx="578.622" cy="557.51" r="5.01106" stroke-width="0.5" stroke="black" fill="cyan"/>
   </g>
   <g id="cell88">
  <circle cx="448.315" cy="531.555" r="8.38206" stroke-width="0.5" stroke="black" fill="magenta"/>
  <circle cx="448.315" cy="531.555" r="5.04069" stroke-width="0.5" stroke="black" fill="magenta"/>
   </g>
   <g id="cell89">
  <circle cx="553.09" cy="452.939" r="6.93598" stroke-width="0.5" stroke="black" fill="cyan"/>
  <circle cx="553.09" cy="452.939" r="4.20483" stroke-width="0.5" stroke="black" fill="cyan"/>
   </g>
   <g id="cell90">
  <circle cx="635.883" cy="472.595" r="7.63623" stroke-width="0.5" stroke="black" fill="green"/>
  <circle cx="635.883" cy="472.595" r="4.64541" stroke-width="0.5" stroke="black" fill="green"/>
   </g>
   <g id="cell91">
  <circle cx="547.464" cy="557.452" r="8.35072" stroke-width="0.5" stroke="black" fill="magenta"/>
  <circle cx="547.464" cy="557.452" r="5.02898" stroke-width="0.5" stroke="black" fill="magenta"/>
   </g>
   <g id="cell92">
  <circle cx="482.924" cy="551.952" r="8.37321" stroke-width="0.5" stroke="black" fill="green"/>
  <circle cx="482.924" cy="551.952" r="5.03708" stroke-width="0.5" stroke="black" fill="green"/>
   </g>
   <g id="cell93">
  <circle cx="537.873" cy="546.03" r="8.35072" stroke-width="0.5" stroke="black" fill="magenta"/>
  <circle cx="537.873" cy="546.03" r="5.02898" stroke-width="0.5" stroke="black" fill="magenta"/>
   </g>
   <g id="cell94">
  <circle cx="536.519" cy="496.164" r="8.36722" stroke-width="0.5" stroke="black" fill="cyan"/>
  <circle cx="536.519" cy="496.164" r="5.03458" stroke-width="0.5" stroke="black" fill="cyan"/>
   </g>
   <g id="cell95">
  <circle cx="466.486" cy="426.114" r="8.36592" stroke-width="0.5" stroke="black" fill="cyan"/>
  <circle cx="466.486" cy="426.114" r="5.03403" stroke-width="0.5" stroke="black" fill="cyan"/>
   </g>
   <g id="cell96">
  <circle cx="546.794" cy="529.596" r="6.98707" stroke-width="0.5" stroke="black" fill="cyan"/>
  <circle cx="546.794" cy="529.596" r="4.24249" stroke-width="0.5" stroke="black" fill="cyan"/>
   </g>
   <g id="cell97">
  <circle cx="421.631" cy="466.162" r="8.31781" stroke-width="0.5" stroke="black" fill="green"/>
  <circle cx="421.631" cy="466.162" r="5.01454" stroke-width="0.5" stroke="black" fill="green"/>
   </g>
   <g id="cell98">
  <circle cx="491.529" cy="521.769" r="7.76251" stroke-width="0.5" stroke="black" fill="green"/>
  <circle cx="491.529" cy="521.769" r="4.72047" stroke-width="0.5" stroke="black" fill="green"/>
   </g>
   <g id="cell99">
  <circle cx="358.307" cy="527.704" r="8.34129" stroke-width="0.5" stroke="black" fill="cyan"/>
  <circle cx="358.307" cy="527.704" r="5.02447" stroke-width="0.5" stroke="black" fill="cyan"/>
   </g>
   <g id="cell100">
  <circle cx="449.547" cy="396.185" r="8.34004" stroke-width="0.5" stroke="black" fill="green"/>
  <circle cx="449.547" cy="396.185" r="5.02342" stroke-width="0.5" stroke="black" fill="green"/>
   </g>
   <g id="cell101">
  <circle cx="531.983" cy="480.215" r="6.87304" stroke-width="0.5" stroke="black" fill="cyan"/>
  <circle cx="531.983" cy="480.215" r="4.17007" stroke-width="0.5" stroke="black" fill="cyan"/>
   </g>
   <g id="cell102">
  <circle cx="435.002" cy="474.579" r="8.31781" stroke-width="0.5" stroke="black" fill="green"/>
  <circle cx="435.002" cy="474.579" r="5.01454" stroke-width="0.5" stroke="black" fill="green"/>
   </g>
   <g id="cell103">
  <circle cx="591.013" cy="447.767" r="7.86462" stroke-width="0.5" stroke="black" fill="cyan"/>
  <circle cx="591.013" cy="447.767" r="4.78" stroke-width="0.5" stroke="black" fill="cyan"/>
   </g>
   <g id="cell104">
  <circle cx="593.646" cy="552.688" r="8.31107" stroke-width="0.5" stroke="black" fill="cyan"/>
  <circle cx="593.646" cy="552.688" r="5.01106" stroke-width="0.5" stroke="black" fill="cyan"/>
   </g>
   <g id="cell106">
  <circle cx="463.859" cy="441.38" r="8.29769" stroke-width="0.5" stroke="black" fill="magenta"/>
  <circle cx="463.859" cy="441.38" r="5.0041" stroke-width="0.5" stroke="black" fill="magenta"/>
   </g>
   <g id="cell107">
  <circle cx="457.499" cy="383.111" r="7.8243" stroke-width="0.5" stroke="black" fill="green"/>
  <circle cx="457.499" cy="383.111" r="4.76267" stroke-width="0.5" stroke="black" fill="green"/>
   </g>
   <g id="cell108">
  <circle cx="555.498" cy="606.713" r="8.27885" stroke-width="0.5" stroke="black" fill="green"/>
  <circle cx="555.498" cy="606.713" r="4.99429" stroke-width="0.5" stroke="black" fill="green"/>
   </g>
   <g id="cell109">
  <circle cx="576.571" cy="590.046" r="8.19807" stroke-width="0.5" stroke="black" fill="green"/>
  <circle cx="576.571" cy="590.046" r="4.95896" stroke-width="0.5" stroke="black" fill="green"/>
   </g>
   <g id="cell110">
  <circle cx="373.688" cy="513.515" r="8.22925" stroke-width="0.5" stroke="black" fill="cyan"/>
  <circle cx="373.688" cy="513.515" r="4.96993" stroke-width="0.5" stroke="black" fill="cyan"/>
   </g>
   <g id="cell111">
  <circle cx="456.034" cy="553.578" r="6.80576" stroke-width="0.5" stroke="black" fill="magenta"/>
  <circle cx="456.034" cy="553.578" r="4.14462" stroke-width="0.5" stroke="black" fill="magenta"/>
   </g>
   <g id="cell112">
  <circle cx="507.031" cy="467.957" r="8.20689" stroke-width="0.5" stroke="black" fill="magenta"/>
  <circle cx="507.031" cy="467.957" r="4.95867" stroke-width="0.5" stroke="black" fill="magenta"/>
   </g>
   <g id="cell113">
  <circle cx="543.078" cy="406.254" r="8.20088" stroke-width="0.5" stroke="black" fill="green"/>
  <circle cx="543.078" cy="406.254" r="4.95562" stroke-width="0.5" stroke="black" fill="green"/>
   </g>
   <g id="cell114">
  <circle cx="525.035" cy="448.645" r="8.04965" stroke-width="0.5" stroke="black" fill="cyan"/>
  <circle cx="525.035" cy="448.645" r="4.88453" stroke-width="0.5" stroke="black" fill="cyan"/>
   </g>
   <g id="cell115">
  <circle cx="537.964" cy="454.636" r="7.03209" stroke-width="0.5" stroke="black" fill="cyan"/>
  <circle cx="537.964" cy="454.636" r="4.3057" stroke-width="0.5" stroke="black" fill="cyan"/>
   </g>
   <g id="cell116">
  <circle cx="519.987" cy="522.02" r="8.10904" stroke-width="0.5" stroke="black" fill="cyan"/>
  <circle cx="519.987" cy="522.02" r="4.91006" stroke-width="0.5" stroke="black" fill="cyan"/>
   </g>
   <g id="cell117">
  <circle cx="509.703" cy="623.809" r="8.00638" stroke-width="0.5" stroke="black" fill="green"/>
  <circle cx="509.703" cy="623.809" r="4.85893" stroke-width="0.5" stroke="black" fill="green"/>
   </g>
   <g id="cell118">
  <circle cx="510.462" cy="453.147" r="7.94502" stroke-width="0.5" stroke="black" fill="cyan"/>
  <circle cx="510.462" cy="453.147" r="4.81963" stroke-width="0.5" stroke="black" fill="cyan"/>
   </g>
   <g id="cell119">
  <circle cx="533.352" cy="604.874" r="7.93883" stroke-width="0.5" stroke="black" fill="green"/>
  <circle cx="533.352" cy="604.874" r="4.81747" stroke-width="0.5" stroke="black" fill="green"/>
   </g>
   <g id="cell120">
  <circle cx="576.51" cy="444.315" r="7.86462" stroke-width="0.5" stroke="black" fill="cyan"/>
  <circle cx="576.51" cy="444.315" r="4.78" stroke-width="0.5" stroke="black" fill="cyan"/>
   </g>
   <g id="cell121">
  <circle cx="451.384" cy="370.536" r="7.18685" stroke-width="0.5" stroke="black" fill="green"/>
  <circle cx="451.384" cy="370.536" r="4.40862" stroke-width="0.5" stroke="black" fill="green"/>
   </g>
   <g id="cell122">
  <circle cx="505.634" cy="522.537" r="7.87905" stroke-width="0.5" stroke="black" fill="magenta"/>
  <circle cx="505.634" cy="522.537" r="4.78425" stroke-width="0.5" stroke="black" fill="magenta"/>
   </g>
   <g id="cell123">
  <circle cx="497.786" cy="509.376" r="7.76251" stroke-width="0.5" stroke="black" fill="green"/>
  <circle cx="497.786" cy="509.376" r="4.72047" stroke-width="0.5" stroke="black" fill="green"/>
   </g>
   <g id="cell124">
  <circle cx="491.812" cy="432.534" r="7.78949" stroke-width="0.5" stroke="black" fill="magenta"/>
  <circle cx="491.812" cy="432.534" r="4.73155" stroke-width="0.5" stroke="black" fill="magenta"/>
   </g>
   <g id="cell125">
  <circle cx="622.266" cy="477.358" r="7.63623" stroke-width="0.5" stroke="black" fill="green"/>
  <circle cx="622.266" cy="477.358" r="4.64541" stroke-width="0.5" stroke="black" fill="green"/>
   </g>
   <g id="cell126">
  <circle cx="629.337" cy="565.605" r="7.62724" stroke-width="0.5" stroke="black" fill="green"/>
  <circle cx="629.337" cy="565.605" r="4.63744" stroke-width="0.5" stroke="black" fill="green"/>
   </g>
   <g id="cell127">
  <circle cx="440.405" cy="362.753" r="7.18685" stroke-width="0.5" stroke="black" fill="green"/>
  <circle cx="440.405" cy="362.753" r="4.40862" stroke-width="0.5" stroke="black" fill="green"/>
   </g>
   <g id="cell128">
  <circle cx="373.062" cy="469.681" r="7.44242" stroke-width="0.5" stroke="black" fill="magenta"/>
  <circle cx="373.062" cy="469.681" r="4.52373" stroke-width="0.5" stroke="black" fill="magenta"/>
   </g>
   <g id="cell129">
  <circle cx="567.424" cy="540.568" r="7.34151" stroke-width="0.5" stroke="black" fill="cyan"/>
  <circle cx="567.424" cy="540.568" r="4.46607" stroke-width="0.5" stroke="black" fill="cyan"/>
   </g>
   <g id="cell130">
  <circle cx="544.485" cy="442.971" r="7.03209" stroke-width="0.5" stroke="black" fill="cyan"/>
  <circle cx="544.485" cy="442.971" r="4.3057" stroke-width="0.5" stroke="black" fill="cyan"/>
   </g>
   <g id="cell131">
  <circle cx="538.201" cy="519.696" r="6.98707" stroke-width="0.5" stroke="black" fill="cyan"/>
  <circle cx="538.201" cy="519.696" r="4.24249" stroke-width="0.5" stroke="black" fill="cyan"/>
   </g>
   <g id="cell132">
  <circle cx="447.295" cy="545.097" r="6.80576" stroke-width="0.5" stroke="black" fill="magenta"/>
  <circle cx="447.295" cy="545.097" r="4.14462" stroke-width="0.5" stroke="black" fill="magenta"/>
   </g>
   <g id="cell133">
  <circle cx="562.036" cy="462.527" r="6.93598" stroke-width="0.5" stroke="black" fill="cyan"/>
  <circle cx="562.036" cy="462.527" r="4.20483" stroke-width="0.5" stroke="black" fill="cyan"/>
   </g>
   <g id="cell134">
  <circle cx="535.092" cy="467.561" r="6.87304" stroke-width="0.5" stroke="black" fill="cyan"/>
  <circle cx="535.092" cy="467.561" r="4.17007" stroke-width="0.5" stroke="black" fill="cyan"/>
   </g>
   <g id="cell135">
  <circle cx="509.429" cy="580.525" r="6.80881" stroke-width="0.5" stroke="black" fill="magenta"/>
  <circle cx="509.429" cy="580.525" r="4.10709" stroke-width="0.5" stroke="black" fill="magenta"/>
   </g>
   <g id="cell136">
  <circle cx="476.362" cy="539.796" r="6.66168" stroke-width="0.5" stroke="black" fill="green"/>
  <circle cx="476.362" cy="539.796" r="4.00899" stroke-width="0.5" stroke="black" fill="green"/>
   </g>
  </g>
 </g>
  <rect x="775" y="1035" width="200" height="10" stroke-width="2" stroke="rgb(255,255,255)" fill="rgb(0,0,0)"/>
  <text x="781.25" y="1028.75"
   font-family="Arial" font-size="25" fill="black" >
   200 &#956;m
  </text>
  <text x="25" y="1045"
   font-family="Arial" font-size="18.75" fill="black" >
   0 days, 0 hours, 0 minutes, and 23.5234 seconds
  </text>
  <rect x="0" y="70" width="1000" height="1000" stroke-width="2" stroke="rgb(0,0,0)" fill="none"/>
</svg>
