<?xml version="1.0" encoding="UTF-8" standalone="no"?>
<!-- Created with PhysiCell (http://PhysiCell.MathCancer.org/) -->
<svg 
 xmlns:dc="http://purl.org/dc/elements/1.1/" 
 xmlns:cc="http://creativecommons.org/ns#" 
 xmlns:rdf="http://www.w3.org/1999/02/22-rdf-syntax-ns#" 
 xmlns:svg="http://www.w3.org/2000/svg" 
 xmlns="http://www.w3.org/2000/svg" 
 version="1.1" 
 width="1000" 
 height="1070" 
 id="svg2">
  <rect x="0" y="0" width="1000" height="1070" stroke-width="2" stroke="white" fill="white"/>
  <text x="12.5" y="30"
   font-family="Arial" font-size="25" fill="black" >
   Current time: 0 days, 14 hours, and 45.00 minutes, z = 0.00 &#956;m
  </text>
  <text x="12.5" y="57.5"
   font-family="Arial" font-size="23.75" fill="black" >
   119 agents
  </text>
 <g id="tissue" 
    transform="translate(0,1070) scale(1,-1)">
  <g id="ECM">
  </g>
  <g id="cells">
   <g id="cell0">
  <circle cx="515.871" cy="534.401" r="8.29667" stroke-width="0.5" stroke="black" fill="magenta"/>
  <circle cx="515.871" cy="534.401" r="5.00279" stroke-width="0.5" stroke="black" fill="magenta"/>
   </g>
   <g id="cell1">
  <circle cx="602.492" cy="526.171" r="8.41271" stroke-width="0.5" stroke="black" fill="magenta"/>
  <circle cx="602.492" cy="526.171" r="5.05167" stroke-width="0.5" stroke="black" fill="magenta"/>
   </g>
   <g id="cell2">
  <circle cx="514.586" cy="599.023" r="8.41271" stroke-width="0.5" stroke="black" fill="magenta"/>
  <circle cx="514.586" cy="599.023" r="5.05167" stroke-width="0.5" stroke="black" fill="magenta"/>
   </g>
   <g id="cell3">
  <circle cx="523.999" cy="546.939" r="8.22128" stroke-width="0.5" stroke="black" fill="magenta"/>
  <circle cx="523.999" cy="546.939" r="4.96956" stroke-width="0.5" stroke="black" fill="magenta"/>
   </g>
   <g id="cell4">
  <circle cx="490.75" cy="437.407" r="8.36592" stroke-width="0.5" stroke="black" fill="magenta"/>
  <circle cx="490.75" cy="437.407" r="5.03403" stroke-width="0.5" stroke="black" fill="magenta"/>
   </g>
   <g id="cell5">
  <circle cx="465.032" cy="493.3" r="8.41271" stroke-width="0.5" stroke="black" fill="magenta"/>
  <circle cx="465.032" cy="493.3" r="5.05167" stroke-width="0.5" stroke="black" fill="magenta"/>
   </g>
   <g id="cell6">
  <circle cx="595.637" cy="512.669" r="8.41271" stroke-width="0.5" stroke="black" fill="magenta"/>
  <circle cx="595.637" cy="512.669" r="5.05167" stroke-width="0.5" stroke="black" fill="magenta"/>
   </g>
   <g id="cell7">
  <circle cx="501.946" cy="456.889" r="7.46878" stroke-width="0.5" stroke="black" fill="magenta"/>
  <circle cx="501.946" cy="456.889" r="4.53982" stroke-width="0.5" stroke="black" fill="magenta"/>
   </g>
   <g id="cell8">
  <circle cx="376.263" cy="542.118" r="8.41271" stroke-width="0.5" stroke="black" fill="magenta"/>
  <circle cx="376.263" cy="542.118" r="5.05167" stroke-width="0.5" stroke="black" fill="magenta"/>
   </g>
   <g id="cell9">
  <circle cx="460.472" cy="599.786" r="8.41271" stroke-width="0.5" stroke="black" fill="magenta"/>
  <circle cx="460.472" cy="599.786" r="5.05167" stroke-width="0.5" stroke="black" fill="magenta"/>
   </g>
   <g id="cell10">
  <circle cx="583.447" cy="392.105" r="8.41271" stroke-width="0.5" stroke="black" fill="magenta"/>
  <circle cx="583.447" cy="392.105" r="5.05167" stroke-width="0.5" stroke="black" fill="magenta"/>
   </g>
   <g id="cell11">
  <circle cx="591.248" cy="590.08" r="8.41271" stroke-width="0.5" stroke="black" fill="magenta"/>
  <circle cx="591.248" cy="590.08" r="5.05167" stroke-width="0.5" stroke="black" fill="magenta"/>
   </g>
   <g id="cell12">
  <circle cx="506.793" cy="586.108" r="8.41271" stroke-width="0.5" stroke="black" fill="magenta"/>
  <circle cx="506.793" cy="586.108" r="5.05167" stroke-width="0.5" stroke="black" fill="magenta"/>
   </g>
   <g id="cell13">
  <circle cx="386.194" cy="568.228" r="8.41271" stroke-width="0.5" stroke="black" fill="magenta"/>
  <circle cx="386.194" cy="568.228" r="5.05167" stroke-width="0.5" stroke="black" fill="magenta"/>
   </g>
   <g id="cell14">
  <circle cx="529.597" cy="399.285" r="8.41271" stroke-width="0.5" stroke="black" fill="magenta"/>
  <circle cx="529.597" cy="399.285" r="5.05167" stroke-width="0.5" stroke="black" fill="magenta"/>
   </g>
   <g id="cell15">
  <circle cx="379.65" cy="475.1" r="8.41271" stroke-width="0.5" stroke="black" fill="magenta"/>
  <circle cx="379.65" cy="475.1" r="5.05167" stroke-width="0.5" stroke="black" fill="magenta"/>
   </g>
   <g id="cell16">
  <circle cx="428.965" cy="413.14" r="8.41271" stroke-width="0.5" stroke="black" fill="magenta"/>
  <circle cx="428.965" cy="413.14" r="5.05167" stroke-width="0.5" stroke="black" fill="magenta"/>
   </g>
   <g id="cell17">
  <circle cx="570.391" cy="491.184" r="8.41271" stroke-width="0.5" stroke="black" fill="magenta"/>
  <circle cx="570.391" cy="491.184" r="5.05167" stroke-width="0.5" stroke="black" fill="magenta"/>
   </g>
   <g id="cell18">
  <circle cx="518.06" cy="389.488" r="8.41271" stroke-width="0.5" stroke="black" fill="magenta"/>
  <circle cx="518.06" cy="389.488" r="5.05167" stroke-width="0.5" stroke="black" fill="magenta"/>
   </g>
   <g id="cell19">
  <circle cx="459.419" cy="540.174" r="7.43399" stroke-width="0.5" stroke="black" fill="magenta"/>
  <circle cx="459.419" cy="540.174" r="4.53301" stroke-width="0.5" stroke="black" fill="magenta"/>
   </g>
   <g id="cell20">
  <circle cx="531.311" cy="414.34" r="8.41271" stroke-width="0.5" stroke="black" fill="magenta"/>
  <circle cx="531.311" cy="414.34" r="5.05167" stroke-width="0.5" stroke="black" fill="magenta"/>
   </g>
   <g id="cell21">
  <circle cx="464.368" cy="634.574" r="8.41271" stroke-width="0.5" stroke="black" fill="magenta"/>
  <circle cx="464.368" cy="634.574" r="5.05167" stroke-width="0.5" stroke="black" fill="magenta"/>
   </g>
   <g id="cell22">
  <circle cx="555.919" cy="495.526" r="8.41271" stroke-width="0.5" stroke="black" fill="magenta"/>
  <circle cx="555.919" cy="495.526" r="5.05167" stroke-width="0.5" stroke="black" fill="magenta"/>
   </g>
   <g id="cell23">
  <circle cx="544.796" cy="485.415" r="8.41271" stroke-width="0.5" stroke="black" fill="magenta"/>
  <circle cx="544.796" cy="485.415" r="5.05167" stroke-width="0.5" stroke="black" fill="magenta"/>
   </g>
   <g id="cell24">
  <circle cx="558.93" cy="381.119" r="8.41271" stroke-width="0.5" stroke="black" fill="magenta"/>
  <circle cx="558.93" cy="381.119" r="5.05167" stroke-width="0.5" stroke="black" fill="magenta"/>
   </g>
   <g id="cell25">
  <circle cx="645.692" cy="545.232" r="8.34117" stroke-width="0.5" stroke="black" fill="green"/>
  <circle cx="645.692" cy="545.232" r="5.02327" stroke-width="0.5" stroke="black" fill="green"/>
   </g>
   <g id="cell26">
  <circle cx="554.651" cy="397.373" r="7.44242" stroke-width="0.5" stroke="black" fill="green"/>
  <circle cx="554.651" cy="397.373" r="4.52373" stroke-width="0.5" stroke="black" fill="green"/>
   </g>
   <g id="cell27">
  <circle cx="463.733" cy="389.798" r="8.36849" stroke-width="0.5" stroke="black" fill="green"/>
  <circle cx="463.733" cy="389.798" r="5.03512" stroke-width="0.5" stroke="black" fill="green"/>
   </g>
   <g id="cell28">
  <circle cx="433.057" cy="530.702" r="8.41271" stroke-width="0.5" stroke="black" fill="green"/>
  <circle cx="433.057" cy="530.702" r="5.05167" stroke-width="0.5" stroke="black" fill="green"/>
   </g>
   <g id="cell29">
  <circle cx="450.466" cy="515.937" r="8.41271" stroke-width="0.5" stroke="black" fill="green"/>
  <circle cx="450.466" cy="515.937" r="5.05167" stroke-width="0.5" stroke="black" fill="green"/>
   </g>
   <g id="cell30">
  <circle cx="481.024" cy="534.488" r="8.23444" stroke-width="0.5" stroke="black" fill="green"/>
  <circle cx="481.024" cy="534.488" r="4.97252" stroke-width="0.5" stroke="black" fill="green"/>
   </g>
   <g id="cell31">
  <circle cx="412.807" cy="541.561" r="8.41271" stroke-width="0.5" stroke="black" fill="green"/>
  <circle cx="412.807" cy="541.561" r="5.05167" stroke-width="0.5" stroke="black" fill="green"/>
   </g>
   <g id="cell32">
  <circle cx="421.293" cy="481.694" r="8.16806" stroke-width="0.5" stroke="black" fill="green"/>
  <circle cx="421.293" cy="481.694" r="4.93877" stroke-width="0.5" stroke="black" fill="green"/>
   </g>
   <g id="cell33">
  <circle cx="498.414" cy="423.885" r="8.41271" stroke-width="0.5" stroke="black" fill="green"/>
  <circle cx="498.414" cy="423.885" r="5.05167" stroke-width="0.5" stroke="black" fill="green"/>
   </g>
   <g id="cell34">
  <circle cx="397.088" cy="450.831" r="8.41271" stroke-width="0.5" stroke="black" fill="green"/>
  <circle cx="397.088" cy="450.831" r="5.05167" stroke-width="0.5" stroke="black" fill="green"/>
   </g>
   <g id="cell35">
  <circle cx="552.948" cy="541.52" r="8.41271" stroke-width="0.5" stroke="black" fill="green"/>
  <circle cx="552.948" cy="541.52" r="5.05167" stroke-width="0.5" stroke="black" fill="green"/>
   </g>
   <g id="cell36">
  <circle cx="391.486" cy="582.903" r="8.41271" stroke-width="0.5" stroke="black" fill="green"/>
  <circle cx="391.486" cy="582.903" r="5.05167" stroke-width="0.5" stroke="black" fill="green"/>
   </g>
   <g id="cell37">
  <circle cx="639.831" cy="457.343" r="8.36178" stroke-width="0.5" stroke="black" fill="green"/>
  <circle cx="639.831" cy="457.343" r="5.03227" stroke-width="0.5" stroke="black" fill="green"/>
   </g>
   <g id="cell38">
  <circle cx="529.31" cy="596.053" r="8.35236" stroke-width="0.5" stroke="black" fill="green"/>
  <circle cx="529.31" cy="596.053" r="5.02821" stroke-width="0.5" stroke="black" fill="green"/>
   </g>
   <g id="cell39">
  <circle cx="613.458" cy="490.595" r="8.41271" stroke-width="0.5" stroke="black" fill="green"/>
  <circle cx="613.458" cy="490.595" r="5.05167" stroke-width="0.5" stroke="black" fill="green"/>
   </g>
   <g id="cell40">
  <circle cx="485.348" cy="571.779" r="8.41271" stroke-width="0.5" stroke="black" fill="green"/>
  <circle cx="485.348" cy="571.779" r="5.05167" stroke-width="0.5" stroke="black" fill="green"/>
   </g>
   <g id="cell41">
  <circle cx="364.925" cy="480.252" r="8.41271" stroke-width="0.5" stroke="black" fill="green"/>
  <circle cx="364.925" cy="480.252" r="5.05167" stroke-width="0.5" stroke="black" fill="green"/>
   </g>
   <g id="cell42">
  <circle cx="438.842" cy="494.268" r="8.41271" stroke-width="0.5" stroke="black" fill="green"/>
  <circle cx="438.842" cy="494.268" r="5.05167" stroke-width="0.5" stroke="black" fill="green"/>
   </g>
   <g id="cell43">
  <circle cx="564.008" cy="442.008" r="8.41271" stroke-width="0.5" stroke="black" fill="green"/>
  <circle cx="564.008" cy="442.008" r="5.05167" stroke-width="0.5" stroke="black" fill="green"/>
   </g>
   <g id="cell44">
  <circle cx="475.857" cy="624.021" r="8.41271" stroke-width="0.5" stroke="black" fill="green"/>
  <circle cx="475.857" cy="624.021" r="5.05167" stroke-width="0.5" stroke="black" fill="green"/>
   </g>
   <g id="cell45">
  <circle cx="414.902" cy="556.698" r="3.45715" stroke-width="0.5" stroke="black" fill="green"/>
  <circle cx="414.902" cy="556.698" r="2.66266" stroke-width="0.5" stroke="black" fill="black"/>
   </g>
   <g id="cell46">
  <circle cx="523.005" cy="611.665" r="7.98892" stroke-width="0.5" stroke="black" fill="green"/>
  <circle cx="523.005" cy="611.665" r="4.84272" stroke-width="0.5" stroke="black" fill="green"/>
   </g>
   <g id="cell47">
  <circle cx="503.967" cy="502.826" r="8.15353" stroke-width="0.5" stroke="black" fill="green"/>
  <circle cx="503.967" cy="502.826" r="4.93122" stroke-width="0.5" stroke="black" fill="green"/>
   </g>
   <g id="cell48">
  <circle cx="570.372" cy="603.604" r="7.38572" stroke-width="0.5" stroke="black" fill="green"/>
  <circle cx="570.372" cy="603.604" r="4.51878" stroke-width="0.5" stroke="black" fill="green"/>
   </g>
   <g id="cell49">
  <circle cx="430.122" cy="397.563" r="8.41271" stroke-width="0.5" stroke="black" fill="green"/>
  <circle cx="430.122" cy="397.563" r="5.05167" stroke-width="0.5" stroke="black" fill="green"/>
   </g>
   <g id="cell50">
  <circle cx="511.922" cy="514.654" r="7.04392" stroke-width="0.5" stroke="black" fill="cyan"/>
  <circle cx="511.922" cy="514.654" r="4.28775" stroke-width="0.5" stroke="black" fill="cyan"/>
   </g>
   <g id="cell51">
  <circle cx="398.721" cy="597.201" r="8.41271" stroke-width="0.5" stroke="black" fill="cyan"/>
  <circle cx="398.721" cy="597.201" r="5.05167" stroke-width="0.5" stroke="black" fill="cyan"/>
   </g>
   <g id="cell52">
  <circle cx="518.513" cy="423.23" r="8.41271" stroke-width="0.5" stroke="black" fill="cyan"/>
  <circle cx="518.513" cy="423.23" r="5.05167" stroke-width="0.5" stroke="black" fill="cyan"/>
   </g>
   <g id="cell53">
  <circle cx="574.003" cy="430.068" r="8.05651" stroke-width="0.5" stroke="black" fill="cyan"/>
  <circle cx="574.003" cy="430.068" r="4.87966" stroke-width="0.5" stroke="black" fill="cyan"/>
   </g>
   <g id="cell54">
  <circle cx="482.62" cy="424.332" r="8.20088" stroke-width="0.5" stroke="black" fill="cyan"/>
  <circle cx="482.62" cy="424.332" r="4.95562" stroke-width="0.5" stroke="black" fill="cyan"/>
   </g>
   <g id="cell55">
  <circle cx="524.032" cy="464.235" r="8.07385" stroke-width="0.5" stroke="black" fill="cyan"/>
  <circle cx="524.032" cy="464.235" r="4.89343" stroke-width="0.5" stroke="black" fill="cyan"/>
   </g>
   <g id="cell56">
  <circle cx="617.613" cy="522.333" r="8.41271" stroke-width="0.5" stroke="black" fill="cyan"/>
  <circle cx="617.613" cy="522.333" r="5.05167" stroke-width="0.5" stroke="black" fill="cyan"/>
   </g>
   <g id="cell105">
  <circle cx="507.148" cy="610.511" r="6.58303" stroke-width="0.5" stroke="black" fill="green"/>
  <circle cx="507.148" cy="610.511" r="4.01496" stroke-width="0.5" stroke="black" fill="green"/>
   </g>
   <g id="cell58">
  <circle cx="559.416" cy="480.196" r="8.41271" stroke-width="0.5" stroke="black" fill="cyan"/>
  <circle cx="559.416" cy="480.196" r="5.05167" stroke-width="0.5" stroke="black" fill="cyan"/>
   </g>
   <g id="cell59">
  <circle cx="385.463" cy="439.803" r="8.41271" stroke-width="0.5" stroke="black" fill="cyan"/>
  <circle cx="385.463" cy="439.803" r="5.05167" stroke-width="0.5" stroke="black" fill="cyan"/>
   </g>
   <g id="cell60">
  <circle cx="592.24" cy="473.786" r="8.41271" stroke-width="0.5" stroke="black" fill="cyan"/>
  <circle cx="592.24" cy="473.786" r="5.05167" stroke-width="0.5" stroke="black" fill="cyan"/>
   </g>
   <g id="cell61">
  <circle cx="552.222" cy="620.946" r="8.41271" stroke-width="0.5" stroke="black" fill="cyan"/>
  <circle cx="552.222" cy="620.946" r="5.05167" stroke-width="0.5" stroke="black" fill="cyan"/>
   </g>
   <g id="cell62">
  <circle cx="516.417" cy="442.045" r="6.64305" stroke-width="0.5" stroke="black" fill="cyan"/>
  <circle cx="516.417" cy="442.045" r="3.99678" stroke-width="0.5" stroke="black" fill="cyan"/>
   </g>
   <g id="cell63">
  <circle cx="573.221" cy="541.727" r="8.28629" stroke-width="0.5" stroke="black" fill="cyan"/>
  <circle cx="573.221" cy="541.727" r="4.99786" stroke-width="0.5" stroke="black" fill="cyan"/>
   </g>
   <g id="cell64">
  <circle cx="510.001" cy="636.319" r="8.41271" stroke-width="0.5" stroke="black" fill="cyan"/>
  <circle cx="510.001" cy="636.319" r="5.05167" stroke-width="0.5" stroke="black" fill="cyan"/>
   </g>
   <g id="cell65">
  <circle cx="547.112" cy="470.069" r="8.27097" stroke-width="0.5" stroke="black" fill="cyan"/>
  <circle cx="547.112" cy="470.069" r="4.99048" stroke-width="0.5" stroke="black" fill="cyan"/>
   </g>
   <g id="cell66">
  <circle cx="530.977" cy="533.213" r="8.18833" stroke-width="0.5" stroke="black" fill="cyan"/>
  <circle cx="530.977" cy="533.213" r="4.94921" stroke-width="0.5" stroke="black" fill="cyan"/>
   </g>
   <g id="cell67">
  <circle cx="354.711" cy="492.599" r="8.41271" stroke-width="0.5" stroke="black" fill="cyan"/>
  <circle cx="354.711" cy="492.599" r="5.05167" stroke-width="0.5" stroke="black" fill="cyan"/>
   </g>
   <g id="cell68">
  <circle cx="562.766" cy="553.769" r="8.41271" stroke-width="0.5" stroke="black" fill="cyan"/>
  <circle cx="562.766" cy="553.769" r="5.05167" stroke-width="0.5" stroke="black" fill="cyan"/>
   </g>
   <g id="cell69">
  <circle cx="442.101" cy="460.565" r="8.41271" stroke-width="0.5" stroke="black" fill="cyan"/>
  <circle cx="442.101" cy="460.565" r="5.05167" stroke-width="0.5" stroke="black" fill="cyan"/>
   </g>
   <g id="cell70">
  <circle cx="576.369" cy="476.797" r="8.41271" stroke-width="0.5" stroke="black" fill="cyan"/>
  <circle cx="576.369" cy="476.797" r="5.05167" stroke-width="0.5" stroke="black" fill="cyan"/>
   </g>
   <g id="cell71">
  <circle cx="379.52" cy="527.722" r="7.56839" stroke-width="0.5" stroke="black" fill="cyan"/>
  <circle cx="379.52" cy="527.722" r="4.59998" stroke-width="0.5" stroke="black" fill="cyan"/>
   </g>
   <g id="cell72">
  <circle cx="532.61" cy="511.481" r="8.20689" stroke-width="0.5" stroke="black" fill="cyan"/>
  <circle cx="532.61" cy="511.481" r="4.95867" stroke-width="0.5" stroke="black" fill="cyan"/>
   </g>
   <g id="cell73">
  <circle cx="364.724" cy="552.432" r="8.29993" stroke-width="0.5" stroke="black" fill="cyan"/>
  <circle cx="364.724" cy="552.432" r="5.00433" stroke-width="0.5" stroke="black" fill="cyan"/>
   </g>
   <g id="cell74">
  <circle cx="549.583" cy="441.116" r="7.44242" stroke-width="0.5" stroke="black" fill="cyan"/>
  <circle cx="549.583" cy="441.116" r="4.52373" stroke-width="0.5" stroke="black" fill="cyan"/>
   </g>
   <g id="cell75">
  <circle cx="527.561" cy="436.377" r="8.36972" stroke-width="0.5" stroke="black" fill="cyan"/>
  <circle cx="527.561" cy="436.377" r="5.03563" stroke-width="0.5" stroke="black" fill="cyan"/>
   </g>
   <g id="cell76">
  <circle cx="440.931" cy="382.687" r="7.70821" stroke-width="0.5" stroke="black" fill="green"/>
  <circle cx="440.931" cy="382.687" r="4.70231" stroke-width="0.5" stroke="black" fill="green"/>
   </g>
   <g id="cell77">
  <circle cx="476.169" cy="437.74" r="7.88211" stroke-width="0.5" stroke="black" fill="magenta"/>
  <circle cx="476.169" cy="437.74" r="4.78773" stroke-width="0.5" stroke="black" fill="magenta"/>
   </g>
   <g id="cell78">
  <circle cx="624.447" cy="460.957" r="8.2447" stroke-width="0.5" stroke="black" fill="green"/>
  <circle cx="624.447" cy="460.957" r="4.98044" stroke-width="0.5" stroke="black" fill="green"/>
   </g>
   <g id="cell79">
  <circle cx="517.794" cy="479.768" r="8.35568" stroke-width="0.5" stroke="black" fill="cyan"/>
  <circle cx="517.794" cy="479.768" r="5.02965" stroke-width="0.5" stroke="black" fill="cyan"/>
   </g>
   <g id="cell80">
  <circle cx="542.552" cy="613.13" r="6.60367" stroke-width="0.5" stroke="black" fill="green"/>
  <circle cx="542.552" cy="613.13" r="3.98086" stroke-width="0.5" stroke="black" fill="green"/>
   </g>
   <g id="cell81">
  <circle cx="545.364" cy="595.616" r="8.3201" stroke-width="0.5" stroke="black" fill="green"/>
  <circle cx="545.364" cy="595.616" r="5.01557" stroke-width="0.5" stroke="black" fill="green"/>
   </g>
   <g id="cell82">
  <circle cx="532.941" cy="559.169" r="8.34117" stroke-width="0.5" stroke="black" fill="magenta"/>
  <circle cx="532.941" cy="559.169" r="5.02327" stroke-width="0.5" stroke="black" fill="magenta"/>
   </g>
   <g id="cell83">
  <circle cx="634.52" cy="556.519" r="8.34117" stroke-width="0.5" stroke="black" fill="green"/>
  <circle cx="634.52" cy="556.519" r="5.02327" stroke-width="0.5" stroke="black" fill="green"/>
   </g>
   <g id="cell84">
  <circle cx="519.63" cy="502.47" r="8.30618" stroke-width="0.5" stroke="black" fill="cyan"/>
  <circle cx="519.63" cy="502.47" r="5.00727" stroke-width="0.5" stroke="black" fill="cyan"/>
   </g>
   <g id="cell85">
  <circle cx="352.823" cy="542.379" r="8.08617" stroke-width="0.5" stroke="black" fill="cyan"/>
  <circle cx="352.823" cy="542.379" r="4.90204" stroke-width="0.5" stroke="black" fill="cyan"/>
   </g>
   <g id="cell86">
  <circle cx="503.577" cy="525.956" r="8.29667" stroke-width="0.5" stroke="black" fill="magenta"/>
  <circle cx="503.577" cy="525.956" r="5.00279" stroke-width="0.5" stroke="black" fill="magenta"/>
   </g>
   <g id="cell87">
  <circle cx="577.779" cy="556.54" r="7.94353" stroke-width="0.5" stroke="black" fill="cyan"/>
  <circle cx="577.779" cy="556.54" r="4.82611" stroke-width="0.5" stroke="black" fill="cyan"/>
   </g>
   <g id="cell88">
  <circle cx="448.492" cy="531.285" r="8.27497" stroke-width="0.5" stroke="black" fill="magenta"/>
  <circle cx="448.492" cy="531.285" r="4.99242" stroke-width="0.5" stroke="black" fill="magenta"/>
   </g>
   <g id="cell89">
  <circle cx="553.857" cy="455.617" r="8.27097" stroke-width="0.5" stroke="black" fill="cyan"/>
  <circle cx="553.857" cy="455.617" r="4.99048" stroke-width="0.5" stroke="black" fill="cyan"/>
   </g>
   <g id="cell90">
  <circle cx="631.022" cy="475.198" r="8.2447" stroke-width="0.5" stroke="black" fill="green"/>
  <circle cx="631.022" cy="475.198" r="4.98044" stroke-width="0.5" stroke="black" fill="green"/>
   </g>
   <g id="cell91">
  <circle cx="547.802" cy="556.596" r="8.13029" stroke-width="0.5" stroke="black" fill="magenta"/>
  <circle cx="547.802" cy="556.596" r="4.92739" stroke-width="0.5" stroke="black" fill="magenta"/>
   </g>
   <g id="cell92">
  <circle cx="482.523" cy="550.084" r="8.23444" stroke-width="0.5" stroke="black" fill="green"/>
  <circle cx="482.523" cy="550.084" r="4.97252" stroke-width="0.5" stroke="black" fill="green"/>
   </g>
   <g id="cell93">
  <circle cx="538.523" cy="545.689" r="8.13029" stroke-width="0.5" stroke="black" fill="magenta"/>
  <circle cx="538.523" cy="545.689" r="4.92739" stroke-width="0.5" stroke="black" fill="magenta"/>
   </g>
   <g id="cell94">
  <circle cx="533.753" cy="496.003" r="8.20689" stroke-width="0.5" stroke="black" fill="cyan"/>
  <circle cx="533.753" cy="496.003" r="4.95867" stroke-width="0.5" stroke="black" fill="cyan"/>
   </g>
   <g id="cell95">
  <circle cx="467.076" cy="425.932" r="8.20088" stroke-width="0.5" stroke="black" fill="cyan"/>
  <circle cx="467.076" cy="425.932" r="4.95562" stroke-width="0.5" stroke="black" fill="cyan"/>
   </g>
   <g id="cell96">
  <circle cx="542.879" cy="523.216" r="8.18833" stroke-width="0.5" stroke="black" fill="cyan"/>
  <circle cx="542.879" cy="523.216" r="4.94921" stroke-width="0.5" stroke="black" fill="cyan"/>
   </g>
   <g id="cell97">
  <circle cx="421.786" cy="466.343" r="7.9744" stroke-width="0.5" stroke="black" fill="green"/>
  <circle cx="421.786" cy="466.343" r="4.84524" stroke-width="0.5" stroke="black" fill="green"/>
   </g>
   <g id="cell98">
  <circle cx="493.634" cy="514.386" r="8.15353" stroke-width="0.5" stroke="black" fill="green"/>
  <circle cx="493.634" cy="514.386" r="4.93122" stroke-width="0.5" stroke="black" fill="green"/>
   </g>
   <g id="cell99">
  <circle cx="358.2" cy="527.983" r="8.08617" stroke-width="0.5" stroke="black" fill="cyan"/>
  <circle cx="358.2" cy="527.983" r="4.90204" stroke-width="0.5" stroke="black" fill="cyan"/>
   </g>
   <g id="cell100">
  <circle cx="449.057" cy="395.259" r="8.08071" stroke-width="0.5" stroke="black" fill="green"/>
  <circle cx="449.057" cy="395.259" r="4.89638" stroke-width="0.5" stroke="black" fill="green"/>
   </g>
   <g id="cell101">
  <circle cx="532.881" cy="476.29" r="8.07385" stroke-width="0.5" stroke="black" fill="cyan"/>
  <circle cx="532.881" cy="476.29" r="4.89343" stroke-width="0.5" stroke="black" fill="cyan"/>
   </g>
   <g id="cell102">
  <circle cx="434.713" cy="474.269" r="7.9744" stroke-width="0.5" stroke="black" fill="green"/>
  <circle cx="434.713" cy="474.269" r="4.84524" stroke-width="0.5" stroke="black" fill="green"/>
   </g>
   <g id="cell103">
  <circle cx="579.082" cy="444.705" r="8.05651" stroke-width="0.5" stroke="black" fill="cyan"/>
  <circle cx="579.082" cy="444.705" r="4.87966" stroke-width="0.5" stroke="black" fill="cyan"/>
   </g>
   <g id="cell104">
  <circle cx="592.398" cy="553.453" r="7.94353" stroke-width="0.5" stroke="black" fill="cyan"/>
  <circle cx="592.398" cy="553.453" r="4.82611" stroke-width="0.5" stroke="black" fill="cyan"/>
   </g>
   <g id="cell106">
  <circle cx="462.215" cy="440.036" r="7.88211" stroke-width="0.5" stroke="black" fill="magenta"/>
  <circle cx="462.215" cy="440.036" r="4.78773" stroke-width="0.5" stroke="black" fill="magenta"/>
   </g>
   <g id="cell107">
  <circle cx="454.632" cy="377.548" r="7.70821" stroke-width="0.5" stroke="black" fill="green"/>
  <circle cx="454.632" cy="377.548" r="4.70231" stroke-width="0.5" stroke="black" fill="green"/>
   </g>
   <g id="cell108">
  <circle cx="556.311" cy="606.038" r="7.79564" stroke-width="0.5" stroke="black" fill="green"/>
  <circle cx="556.311" cy="606.038" r="4.73359" stroke-width="0.5" stroke="black" fill="green"/>
   </g>
   <g id="cell109">
  <circle cx="576.73" cy="591.244" r="7.38572" stroke-width="0.5" stroke="black" fill="green"/>
  <circle cx="576.73" cy="591.244" r="4.51878" stroke-width="0.5" stroke="black" fill="green"/>
   </g>
   <g id="cell110">
  <circle cx="374.091" cy="514.452" r="7.56839" stroke-width="0.5" stroke="black" fill="cyan"/>
  <circle cx="374.091" cy="514.452" r="4.59998" stroke-width="0.5" stroke="black" fill="cyan"/>
   </g>
   <g id="cell111">
  <circle cx="453.731" cy="552.226" r="7.43399" stroke-width="0.5" stroke="black" fill="magenta"/>
  <circle cx="453.731" cy="552.226" r="4.53301" stroke-width="0.5" stroke="black" fill="magenta"/>
   </g>
   <g id="cell112">
  <circle cx="510.186" cy="467.352" r="7.46878" stroke-width="0.5" stroke="black" fill="magenta"/>
  <circle cx="510.186" cy="467.352" r="4.53982" stroke-width="0.5" stroke="black" fill="magenta"/>
   </g>
   <g id="cell113">
  <circle cx="542.923" cy="405.398" r="7.44242" stroke-width="0.5" stroke="black" fill="green"/>
  <circle cx="542.923" cy="405.398" r="4.52373" stroke-width="0.5" stroke="black" fill="green"/>
   </g>
   <g id="cell114">
  <circle cx="526.721" cy="450.873" r="6.6423" stroke-width="0.5" stroke="black" fill="cyan"/>
  <circle cx="526.721" cy="450.873" r="4.07653" stroke-width="0.5" stroke="black" fill="cyan"/>
   </g>
   <g id="cell115">
  <circle cx="537.78" cy="445.939" r="6.6423" stroke-width="0.5" stroke="black" fill="cyan"/>
  <circle cx="537.78" cy="445.939" r="4.07653" stroke-width="0.5" stroke="black" fill="cyan"/>
   </g>
   <g id="cell116">
  <circle cx="522.724" cy="521.917" r="7.04392" stroke-width="0.5" stroke="black" fill="cyan"/>
  <circle cx="522.724" cy="521.917" r="4.28775" stroke-width="0.5" stroke="black" fill="cyan"/>
   </g>
   <g id="cell117">
  <circle cx="511.324" cy="622.152" r="6.58303" stroke-width="0.5" stroke="black" fill="green"/>
  <circle cx="511.324" cy="622.152" r="4.01496" stroke-width="0.5" stroke="black" fill="green"/>
   </g>
   <g id="cell118">
  <circle cx="511.201" cy="450.894" r="6.64305" stroke-width="0.5" stroke="black" fill="cyan"/>
  <circle cx="511.201" cy="450.894" r="3.99678" stroke-width="0.5" stroke="black" fill="cyan"/>
   </g>
   <g id="cell119">
  <circle cx="534.622" cy="606.708" r="6.60367" stroke-width="0.5" stroke="black" fill="green"/>
  <circle cx="534.622" cy="606.708" r="3.98086" stroke-width="0.5" stroke="black" fill="green"/>
   </g>
  </g>
 </g>
  <rect x="775" y="1035" width="200" height="10" stroke-width="2" stroke="rgb(255,255,255)" fill="rgb(0,0,0)"/>
  <text x="781.25" y="1028.75"
   font-family="Arial" font-size="25" fill="black" >
   200 &#956;m
  </text>
  <text x="25" y="1045"
   font-family="Arial" font-size="18.75" fill="black" >
   0 days, 0 hours, 0 minutes, and 16.9632 seconds
  </text>
  <rect x="0" y="70" width="1000" height="1000" stroke-width="2" stroke="rgb(0,0,0)" fill="none"/>
</svg>
