<?xml version="1.0" encoding="UTF-8" standalone="no"?>
<!-- Created with PhysiCell (http://PhysiCell.MathCancer.org/) -->
<svg 
 xmlns:dc="http://purl.org/dc/elements/1.1/" 
 xmlns:cc="http://creativecommons.org/ns#" 
 xmlns:rdf="http://www.w3.org/1999/02/22-rdf-syntax-ns#" 
 xmlns:svg="http://www.w3.org/2000/svg" 
 xmlns="http://www.w3.org/2000/svg" 
 version="1.1" 
 width="1000" 
 height="1070" 
 id="svg2">
  <rect x="0" y="0" width="1000" height="1070" stroke-width="2" stroke="white" fill="white"/>
  <text x="12.5" y="30"
   font-family="Arial" font-size="25" fill="black" >
   Current time: 0 days, 3 hours, and 15.00 minutes, z = 0.00 &#956;m
  </text>
  <text x="12.5" y="57.5"
   font-family="Arial" font-size="23.75" fill="black" >
   84 agents
  </text>
 <g id="tissue" 
    transform="translate(0,1070) scale(1,-1)">
  <g id="ECM">
  </g>
  <g id="cells">
   <g id="cell0">
  <circle cx="514.307" cy="529.792" r="8.41271" stroke-width="0.5" stroke="black" fill="magenta"/>
  <circle cx="514.307" cy="529.792" r="5.05167" stroke-width="0.5" stroke="black" fill="magenta"/>
   </g>
   <g id="cell1">
  <circle cx="604.101" cy="529.787" r="8.41271" stroke-width="0.5" stroke="black" fill="magenta"/>
  <circle cx="604.101" cy="529.787" r="5.05167" stroke-width="0.5" stroke="black" fill="magenta"/>
   </g>
   <g id="cell2">
  <circle cx="510.896" cy="600.607" r="8.41271" stroke-width="0.5" stroke="black" fill="magenta"/>
  <circle cx="510.896" cy="600.607" r="5.05167" stroke-width="0.5" stroke="black" fill="magenta"/>
   </g>
   <g id="cell3">
  <circle cx="535.377" cy="541.895" r="6.73287" stroke-width="0.5" stroke="black" fill="magenta"/>
  <circle cx="535.377" cy="541.895" r="4.05039" stroke-width="0.5" stroke="black" fill="magenta"/>
   </g>
   <g id="cell4">
  <circle cx="486.433" cy="437.121" r="7.18097" stroke-width="0.5" stroke="black" fill="magenta"/>
  <circle cx="486.433" cy="437.121" r="4.36015" stroke-width="0.5" stroke="black" fill="magenta"/>
   </g>
   <g id="cell5">
  <circle cx="465.032" cy="493.3" r="8.41271" stroke-width="0.5" stroke="black" fill="magenta"/>
  <circle cx="465.032" cy="493.3" r="5.05167" stroke-width="0.5" stroke="black" fill="magenta"/>
   </g>
   <g id="cell6">
  <circle cx="593.864" cy="509.103" r="8.41271" stroke-width="0.5" stroke="black" fill="magenta"/>
  <circle cx="593.864" cy="509.103" r="5.05167" stroke-width="0.5" stroke="black" fill="magenta"/>
   </g>
   <g id="cell7">
  <circle cx="511.013" cy="461.798" r="8.41271" stroke-width="0.5" stroke="black" fill="magenta"/>
  <circle cx="511.013" cy="461.798" r="5.05167" stroke-width="0.5" stroke="black" fill="magenta"/>
   </g>
   <g id="cell8">
  <circle cx="375.891" cy="544.521" r="8.41271" stroke-width="0.5" stroke="black" fill="magenta"/>
  <circle cx="375.891" cy="544.521" r="5.05167" stroke-width="0.5" stroke="black" fill="magenta"/>
   </g>
   <g id="cell9">
  <circle cx="460.472" cy="599.786" r="8.41271" stroke-width="0.5" stroke="black" fill="magenta"/>
  <circle cx="460.472" cy="599.786" r="5.05167" stroke-width="0.5" stroke="black" fill="magenta"/>
   </g>
   <g id="cell10">
  <circle cx="583.447" cy="392.105" r="8.41271" stroke-width="0.5" stroke="black" fill="magenta"/>
  <circle cx="583.447" cy="392.105" r="5.05167" stroke-width="0.5" stroke="black" fill="magenta"/>
   </g>
   <g id="cell11">
  <circle cx="589.748" cy="590.273" r="8.41271" stroke-width="0.5" stroke="black" fill="magenta"/>
  <circle cx="589.748" cy="590.273" r="5.05167" stroke-width="0.5" stroke="black" fill="magenta"/>
   </g>
   <g id="cell12">
  <circle cx="506.665" cy="586.063" r="8.41271" stroke-width="0.5" stroke="black" fill="magenta"/>
  <circle cx="506.665" cy="586.063" r="5.05167" stroke-width="0.5" stroke="black" fill="magenta"/>
   </g>
   <g id="cell13">
  <circle cx="386.193" cy="568.227" r="8.41271" stroke-width="0.5" stroke="black" fill="magenta"/>
  <circle cx="386.193" cy="568.227" r="5.05167" stroke-width="0.5" stroke="black" fill="magenta"/>
   </g>
   <g id="cell14">
  <circle cx="528.516" cy="399.26" r="8.41271" stroke-width="0.5" stroke="black" fill="magenta"/>
  <circle cx="528.516" cy="399.26" r="5.05167" stroke-width="0.5" stroke="black" fill="magenta"/>
   </g>
   <g id="cell15">
  <circle cx="379.65" cy="475.1" r="8.41271" stroke-width="0.5" stroke="black" fill="magenta"/>
  <circle cx="379.65" cy="475.1" r="5.05167" stroke-width="0.5" stroke="black" fill="magenta"/>
   </g>
   <g id="cell16">
  <circle cx="428.96" cy="413.217" r="8.41271" stroke-width="0.5" stroke="black" fill="magenta"/>
  <circle cx="428.96" cy="413.217" r="5.05167" stroke-width="0.5" stroke="black" fill="magenta"/>
   </g>
   <g id="cell17">
  <circle cx="571.591" cy="489.797" r="8.41271" stroke-width="0.5" stroke="black" fill="magenta"/>
  <circle cx="571.591" cy="489.797" r="5.05167" stroke-width="0.5" stroke="black" fill="magenta"/>
   </g>
   <g id="cell18">
  <circle cx="517.427" cy="388.943" r="8.41271" stroke-width="0.5" stroke="black" fill="magenta"/>
  <circle cx="517.427" cy="388.943" r="5.05167" stroke-width="0.5" stroke="black" fill="magenta"/>
   </g>
   <g id="cell19">
  <circle cx="451.981" cy="536.64" r="8.41271" stroke-width="0.5" stroke="black" fill="magenta"/>
  <circle cx="451.981" cy="536.64" r="5.05167" stroke-width="0.5" stroke="black" fill="magenta"/>
   </g>
   <g id="cell20">
  <circle cx="530.922" cy="414.213" r="8.41271" stroke-width="0.5" stroke="black" fill="magenta"/>
  <circle cx="530.922" cy="414.213" r="5.05167" stroke-width="0.5" stroke="black" fill="magenta"/>
   </g>
   <g id="cell21">
  <circle cx="464.368" cy="634.574" r="8.41271" stroke-width="0.5" stroke="black" fill="magenta"/>
  <circle cx="464.368" cy="634.574" r="5.05167" stroke-width="0.5" stroke="black" fill="magenta"/>
   </g>
   <g id="cell22">
  <circle cx="557.233" cy="494.577" r="8.41271" stroke-width="0.5" stroke="black" fill="magenta"/>
  <circle cx="557.233" cy="494.577" r="5.05167" stroke-width="0.5" stroke="black" fill="magenta"/>
   </g>
   <g id="cell23">
  <circle cx="537.49" cy="480.264" r="8.41271" stroke-width="0.5" stroke="black" fill="magenta"/>
  <circle cx="537.49" cy="480.264" r="5.05167" stroke-width="0.5" stroke="black" fill="magenta"/>
   </g>
   <g id="cell24">
  <circle cx="559.287" cy="379.789" r="8.41271" stroke-width="0.5" stroke="black" fill="magenta"/>
  <circle cx="559.287" cy="379.789" r="5.05167" stroke-width="0.5" stroke="black" fill="magenta"/>
   </g>
   <g id="cell25">
  <circle cx="644.576" cy="546.359" r="6.73287" stroke-width="0.5" stroke="black" fill="green"/>
  <circle cx="644.576" cy="546.359" r="4.05039" stroke-width="0.5" stroke="black" fill="green"/>
   </g>
   <g id="cell26">
  <circle cx="551.159" cy="401.262" r="8.41271" stroke-width="0.5" stroke="black" fill="green"/>
  <circle cx="551.159" cy="401.262" r="5.05167" stroke-width="0.5" stroke="black" fill="green"/>
   </g>
   <g id="cell27">
  <circle cx="461.929" cy="390.372" r="7.24243" stroke-width="0.5" stroke="black" fill="green"/>
  <circle cx="461.929" cy="390.372" r="4.39934" stroke-width="0.5" stroke="black" fill="green"/>
   </g>
   <g id="cell28">
  <circle cx="437.468" cy="531.002" r="8.41271" stroke-width="0.5" stroke="black" fill="green"/>
  <circle cx="437.468" cy="531.002" r="5.05167" stroke-width="0.5" stroke="black" fill="green"/>
   </g>
   <g id="cell29">
  <circle cx="449.959" cy="521.073" r="8.41271" stroke-width="0.5" stroke="black" fill="green"/>
  <circle cx="449.959" cy="521.073" r="5.05167" stroke-width="0.5" stroke="black" fill="green"/>
   </g>
   <g id="cell30">
  <circle cx="481.58" cy="540.282" r="8.41271" stroke-width="0.5" stroke="black" fill="green"/>
  <circle cx="481.58" cy="540.282" r="5.05167" stroke-width="0.5" stroke="black" fill="green"/>
   </g>
   <g id="cell31">
  <circle cx="412.757" cy="541.193" r="8.41271" stroke-width="0.5" stroke="black" fill="green"/>
  <circle cx="412.757" cy="541.193" r="5.05167" stroke-width="0.5" stroke="black" fill="green"/>
   </g>
   <g id="cell32">
  <circle cx="425.371" cy="474.829" r="8.41271" stroke-width="0.5" stroke="black" fill="green"/>
  <circle cx="425.371" cy="474.829" r="5.05167" stroke-width="0.5" stroke="black" fill="green"/>
   </g>
   <g id="cell33">
  <circle cx="493.851" cy="424.752" r="8.41271" stroke-width="0.5" stroke="black" fill="green"/>
  <circle cx="493.851" cy="424.752" r="5.05167" stroke-width="0.5" stroke="black" fill="green"/>
   </g>
   <g id="cell34">
  <circle cx="397.088" cy="450.831" r="8.41271" stroke-width="0.5" stroke="black" fill="green"/>
  <circle cx="397.088" cy="450.831" r="5.05167" stroke-width="0.5" stroke="black" fill="green"/>
   </g>
   <g id="cell35">
  <circle cx="548.859" cy="544.775" r="8.41271" stroke-width="0.5" stroke="black" fill="green"/>
  <circle cx="548.859" cy="544.775" r="5.05167" stroke-width="0.5" stroke="black" fill="green"/>
   </g>
   <g id="cell36">
  <circle cx="391.486" cy="582.903" r="8.41271" stroke-width="0.5" stroke="black" fill="green"/>
  <circle cx="391.486" cy="582.903" r="5.05167" stroke-width="0.5" stroke="black" fill="green"/>
   </g>
   <g id="cell37">
  <circle cx="638.592" cy="457.808" r="7.08639" stroke-width="0.5" stroke="black" fill="green"/>
  <circle cx="638.592" cy="457.808" r="4.29876" stroke-width="0.5" stroke="black" fill="green"/>
   </g>
   <g id="cell38">
  <circle cx="532.68" cy="599.182" r="6.89675" stroke-width="0.5" stroke="black" fill="green"/>
  <circle cx="532.68" cy="599.182" r="4.17024" stroke-width="0.5" stroke="black" fill="green"/>
   </g>
   <g id="cell39">
  <circle cx="613.458" cy="490.595" r="8.41271" stroke-width="0.5" stroke="black" fill="green"/>
  <circle cx="613.458" cy="490.595" r="5.05167" stroke-width="0.5" stroke="black" fill="green"/>
   </g>
   <g id="cell40">
  <circle cx="485.348" cy="571.779" r="8.41271" stroke-width="0.5" stroke="black" fill="green"/>
  <circle cx="485.348" cy="571.779" r="5.05167" stroke-width="0.5" stroke="black" fill="green"/>
   </g>
   <g id="cell41">
  <circle cx="364.925" cy="480.252" r="8.41271" stroke-width="0.5" stroke="black" fill="green"/>
  <circle cx="364.925" cy="480.252" r="5.05167" stroke-width="0.5" stroke="black" fill="green"/>
   </g>
   <g id="cell42">
  <circle cx="438.842" cy="494.268" r="8.41271" stroke-width="0.5" stroke="black" fill="green"/>
  <circle cx="438.842" cy="494.268" r="5.05167" stroke-width="0.5" stroke="black" fill="green"/>
   </g>
   <g id="cell43">
  <circle cx="558.544" cy="445.717" r="8.41271" stroke-width="0.5" stroke="black" fill="green"/>
  <circle cx="558.544" cy="445.717" r="5.05167" stroke-width="0.5" stroke="black" fill="green"/>
   </g>
   <g id="cell44">
  <circle cx="475.857" cy="624.021" r="8.41271" stroke-width="0.5" stroke="black" fill="green"/>
  <circle cx="475.857" cy="624.021" r="5.05167" stroke-width="0.5" stroke="black" fill="green"/>
   </g>
   <g id="cell45">
  <circle cx="414.953" cy="557.066" r="8.41271" stroke-width="0.5" stroke="black" fill="green"/>
  <circle cx="414.953" cy="557.066" r="5.05167" stroke-width="0.5" stroke="black" fill="green"/>
   </g>
   <g id="cell46">
  <circle cx="523.17" cy="610.257" r="8.41271" stroke-width="0.5" stroke="black" fill="green"/>
  <circle cx="523.17" cy="610.257" r="5.05167" stroke-width="0.5" stroke="black" fill="green"/>
   </g>
   <g id="cell47">
  <circle cx="504.035" cy="507.649" r="8.41271" stroke-width="0.5" stroke="black" fill="green"/>
  <circle cx="504.035" cy="507.649" r="5.05167" stroke-width="0.5" stroke="black" fill="green"/>
   </g>
   <g id="cell48">
  <circle cx="564.487" cy="602.814" r="8.41271" stroke-width="0.5" stroke="black" fill="green"/>
  <circle cx="564.487" cy="602.814" r="5.05167" stroke-width="0.5" stroke="black" fill="green"/>
   </g>
   <g id="cell49">
  <circle cx="429.826" cy="397.641" r="8.41271" stroke-width="0.5" stroke="black" fill="green"/>
  <circle cx="429.826" cy="397.641" r="5.05167" stroke-width="0.5" stroke="black" fill="green"/>
   </g>
   <g id="cell50">
  <circle cx="518.413" cy="514.748" r="8.41271" stroke-width="0.5" stroke="black" fill="cyan"/>
  <circle cx="518.413" cy="514.748" r="5.05167" stroke-width="0.5" stroke="black" fill="cyan"/>
   </g>
   <g id="cell51">
  <circle cx="398.721" cy="597.202" r="8.41271" stroke-width="0.5" stroke="black" fill="cyan"/>
  <circle cx="398.721" cy="597.202" r="5.05167" stroke-width="0.5" stroke="black" fill="cyan"/>
   </g>
   <g id="cell52">
  <circle cx="521.474" cy="426.625" r="8.41271" stroke-width="0.5" stroke="black" fill="cyan"/>
  <circle cx="521.474" cy="426.625" r="5.05167" stroke-width="0.5" stroke="black" fill="cyan"/>
   </g>
   <g id="cell53">
  <circle cx="571.275" cy="436.013" r="8.41271" stroke-width="0.5" stroke="black" fill="cyan"/>
  <circle cx="571.275" cy="436.013" r="5.05167" stroke-width="0.5" stroke="black" fill="cyan"/>
   </g>
   <g id="cell54">
  <circle cx="477.824" cy="425.48" r="8.41271" stroke-width="0.5" stroke="black" fill="cyan"/>
  <circle cx="477.824" cy="425.48" r="5.05167" stroke-width="0.5" stroke="black" fill="cyan"/>
   </g>
   <g id="cell55">
  <circle cx="530.258" cy="468.054" r="6.95901" stroke-width="0.5" stroke="black" fill="cyan"/>
  <circle cx="530.258" cy="468.054" r="4.21341" stroke-width="0.5" stroke="black" fill="cyan"/>
   </g>
   <g id="cell56">
  <circle cx="617.777" cy="522.283" r="8.41271" stroke-width="0.5" stroke="black" fill="cyan"/>
  <circle cx="617.777" cy="522.283" r="5.05167" stroke-width="0.5" stroke="black" fill="cyan"/>
   </g>
   <g id="cell57">
  <circle cx="416.924" cy="617.466" r="2.67434" stroke-width="0.5" stroke="black" fill="cyan"/>
  <circle cx="416.924" cy="617.466" r="2.31053" stroke-width="0.5" stroke="black" fill="black"/>
   </g>
   <g id="cell58">
  <circle cx="553.076" cy="479.621" r="8.41271" stroke-width="0.5" stroke="black" fill="cyan"/>
  <circle cx="553.076" cy="479.621" r="5.05167" stroke-width="0.5" stroke="black" fill="cyan"/>
   </g>
   <g id="cell59">
  <circle cx="385.463" cy="439.803" r="8.41271" stroke-width="0.5" stroke="black" fill="cyan"/>
  <circle cx="385.463" cy="439.803" r="5.05167" stroke-width="0.5" stroke="black" fill="cyan"/>
   </g>
   <g id="cell60">
  <circle cx="593.094" cy="473.647" r="8.41271" stroke-width="0.5" stroke="black" fill="cyan"/>
  <circle cx="593.094" cy="473.647" r="5.05167" stroke-width="0.5" stroke="black" fill="cyan"/>
   </g>
   <g id="cell61">
  <circle cx="552.685" cy="613.614" r="8.41271" stroke-width="0.5" stroke="black" fill="cyan"/>
  <circle cx="552.685" cy="613.614" r="5.05167" stroke-width="0.5" stroke="black" fill="cyan"/>
   </g>
   <g id="cell62">
  <circle cx="521.858" cy="450.107" r="7.27253" stroke-width="0.5" stroke="black" fill="cyan"/>
  <circle cx="521.858" cy="450.107" r="4.41835" stroke-width="0.5" stroke="black" fill="cyan"/>
   </g>
   <g id="cell63">
  <circle cx="577.897" cy="546.409" r="8.41271" stroke-width="0.5" stroke="black" fill="cyan"/>
  <circle cx="577.897" cy="546.409" r="5.05167" stroke-width="0.5" stroke="black" fill="cyan"/>
   </g>
   <g id="cell64">
  <circle cx="509.962" cy="636.825" r="8.41271" stroke-width="0.5" stroke="black" fill="cyan"/>
  <circle cx="509.962" cy="636.825" r="5.05167" stroke-width="0.5" stroke="black" fill="cyan"/>
   </g>
   <g id="cell65">
  <circle cx="544.565" cy="466.206" r="8.41271" stroke-width="0.5" stroke="black" fill="cyan"/>
  <circle cx="544.565" cy="466.206" r="5.05167" stroke-width="0.5" stroke="black" fill="cyan"/>
   </g>
   <g id="cell66">
  <circle cx="535.185" cy="528.343" r="8.41271" stroke-width="0.5" stroke="black" fill="cyan"/>
  <circle cx="535.185" cy="528.343" r="5.05167" stroke-width="0.5" stroke="black" fill="cyan"/>
   </g>
   <g id="cell67">
  <circle cx="354.711" cy="492.6" r="8.41271" stroke-width="0.5" stroke="black" fill="cyan"/>
  <circle cx="354.711" cy="492.6" r="5.05167" stroke-width="0.5" stroke="black" fill="cyan"/>
   </g>
   <g id="cell68">
  <circle cx="562.919" cy="551.883" r="8.41271" stroke-width="0.5" stroke="black" fill="cyan"/>
  <circle cx="562.919" cy="551.883" r="5.05167" stroke-width="0.5" stroke="black" fill="cyan"/>
   </g>
   <g id="cell69">
  <circle cx="437.64" cy="464.521" r="8.41271" stroke-width="0.5" stroke="black" fill="cyan"/>
  <circle cx="437.64" cy="464.521" r="5.05167" stroke-width="0.5" stroke="black" fill="cyan"/>
   </g>
   <g id="cell70">
  <circle cx="577.15" cy="475.229" r="8.41271" stroke-width="0.5" stroke="black" fill="cyan"/>
  <circle cx="577.15" cy="475.229" r="5.05167" stroke-width="0.5" stroke="black" fill="cyan"/>
   </g>
   <g id="cell71">
  <circle cx="377.712" cy="520.989" r="8.41271" stroke-width="0.5" stroke="black" fill="cyan"/>
  <circle cx="377.712" cy="520.989" r="5.05167" stroke-width="0.5" stroke="black" fill="cyan"/>
   </g>
   <g id="cell72">
  <circle cx="534.357" cy="512.917" r="8.41271" stroke-width="0.5" stroke="black" fill="cyan"/>
  <circle cx="534.357" cy="512.917" r="5.05167" stroke-width="0.5" stroke="black" fill="cyan"/>
   </g>
   <g id="cell73">
  <circle cx="360.355" cy="545.935" r="8.41271" stroke-width="0.5" stroke="black" fill="cyan"/>
  <circle cx="360.355" cy="545.935" r="5.05167" stroke-width="0.5" stroke="black" fill="cyan"/>
   </g>
   <g id="cell74">
  <circle cx="542.597" cy="446.801" r="8.41271" stroke-width="0.5" stroke="black" fill="cyan"/>
  <circle cx="542.597" cy="446.801" r="5.05167" stroke-width="0.5" stroke="black" fill="cyan"/>
   </g>
   <g id="cell75">
  <circle cx="530.101" cy="438.748" r="7.27253" stroke-width="0.5" stroke="black" fill="cyan"/>
  <circle cx="530.101" cy="438.748" r="4.41835" stroke-width="0.5" stroke="black" fill="cyan"/>
   </g>
   <g id="cell76">
  <circle cx="449.1" cy="385.524" r="7.24243" stroke-width="0.5" stroke="black" fill="green"/>
  <circle cx="449.1" cy="385.524" r="4.39934" stroke-width="0.5" stroke="black" fill="green"/>
   </g>
   <g id="cell77">
  <circle cx="473.749" cy="439.362" r="7.18097" stroke-width="0.5" stroke="black" fill="magenta"/>
  <circle cx="473.749" cy="439.362" r="4.36015" stroke-width="0.5" stroke="black" fill="magenta"/>
   </g>
   <g id="cell78">
  <circle cx="627.884" cy="465.894" r="7.08639" stroke-width="0.5" stroke="black" fill="green"/>
  <circle cx="627.884" cy="465.894" r="4.29876" stroke-width="0.5" stroke="black" fill="green"/>
   </g>
   <g id="cell79">
  <circle cx="518.563" cy="473.874" r="6.95901" stroke-width="0.5" stroke="black" fill="cyan"/>
  <circle cx="518.563" cy="473.874" r="4.21341" stroke-width="0.5" stroke="black" fill="cyan"/>
   </g>
   <g id="cell80">
  <circle cx="539.474" cy="611.272" r="5.74963" stroke-width="0.5" stroke="black" fill="green"/>
  <circle cx="539.474" cy="611.272" r="3.50635" stroke-width="0.5" stroke="black" fill="green"/>
   </g>
   <g id="cell81">
  <circle cx="544.438" cy="601.684" r="5.74963" stroke-width="0.5" stroke="black" fill="green"/>
  <circle cx="544.438" cy="601.684" r="3.50635" stroke-width="0.5" stroke="black" fill="green"/>
   </g>
   <g id="cell82">
  <circle cx="529.377" cy="552.124" r="6.73287" stroke-width="0.5" stroke="black" fill="magenta"/>
  <circle cx="529.377" cy="552.124" r="4.05039" stroke-width="0.5" stroke="black" fill="magenta"/>
   </g>
   <g id="cell83">
  <circle cx="635.636" cy="555.391" r="6.73287" stroke-width="0.5" stroke="black" fill="green"/>
  <circle cx="635.636" cy="555.391" r="4.05039" stroke-width="0.5" stroke="black" fill="green"/>
   </g>
  </g>
 </g>
  <rect x="775" y="1035" width="200" height="10" stroke-width="2" stroke="rgb(255,255,255)" fill="rgb(0,0,0)"/>
  <text x="781.25" y="1028.75"
   font-family="Arial" font-size="25" fill="black" >
   200 &#956;m
  </text>
  <text x="25" y="1045"
   font-family="Arial" font-size="18.75" fill="black" >
   0 days, 0 hours, 0 minutes, and 3.6301 seconds
  </text>
  <rect x="0" y="70" width="1000" height="1000" stroke-width="2" stroke="rgb(0,0,0)" fill="none"/>
</svg>
