<?xml version="1.0" encoding="UTF-8" standalone="no"?>
<!-- Created with PhysiCell (http://PhysiCell.MathCancer.org/) -->
<svg 
 xmlns:dc="http://purl.org/dc/elements/1.1/" 
 xmlns:cc="http://creativecommons.org/ns#" 
 xmlns:rdf="http://www.w3.org/1999/02/22-rdf-syntax-ns#" 
 xmlns:svg="http://www.w3.org/2000/svg" 
 xmlns="http://www.w3.org/2000/svg" 
 version="1.1" 
 width="1000" 
 height="1070" 
 id="svg2">
  <rect x="0" y="0" width="1000" height="1070" stroke-width="2" stroke="white" fill="white"/>
  <text x="12.5" y="30"
   font-family="Arial" font-size="25" fill="black" >
   Current time: 1 days, 16 hours, and 57.00 minutes, z = 0.00 &#956;m
  </text>
  <text x="12.5" y="57.5"
   font-family="Arial" font-size="23.75" fill="black" >
   208 agents
  </text>
 <g id="tissue" 
    transform="translate(0,1070) scale(1,-1)">
  <g id="ECM">
  </g>
  <g id="cells">
   <g id="cell0">
  <circle cx="509.185" cy="542.875" r="8.41263" stroke-width="0.5" stroke="black" fill="magenta"/>
  <circle cx="509.185" cy="542.875" r="5.05166" stroke-width="0.5" stroke="black" fill="magenta"/>
   </g>
   <g id="cell1">
  <circle cx="592.963" cy="524.848" r="8.36972" stroke-width="0.5" stroke="black" fill="magenta"/>
  <circle cx="592.963" cy="524.848" r="5.03563" stroke-width="0.5" stroke="black" fill="magenta"/>
   </g>
   <g id="cell2">
  <circle cx="513.468" cy="597.226" r="8.41271" stroke-width="0.5" stroke="black" fill="magenta"/>
  <circle cx="513.468" cy="597.226" r="5.05167" stroke-width="0.5" stroke="black" fill="magenta"/>
   </g>
   <g id="cell3">
  <circle cx="523.934" cy="546.729" r="8.41258" stroke-width="0.5" stroke="black" fill="magenta"/>
  <circle cx="523.934" cy="546.729" r="5.05164" stroke-width="0.5" stroke="black" fill="magenta"/>
   </g>
   <g id="cell4">
  <circle cx="483.973" cy="444.397" r="8.41101" stroke-width="0.5" stroke="black" fill="magenta"/>
  <circle cx="483.973" cy="444.397" r="5.05123" stroke-width="0.5" stroke="black" fill="magenta"/>
   </g>
   <g id="cell5">
  <circle cx="468.8" cy="490.444" r="8.41271" stroke-width="0.5" stroke="black" fill="magenta"/>
  <circle cx="468.8" cy="490.444" r="5.05167" stroke-width="0.5" stroke="black" fill="magenta"/>
   </g>
   <g id="cell163">
  <circle cx="532.162" cy="574.171" r="7.12725" stroke-width="0.5" stroke="black" fill="green"/>
  <circle cx="532.162" cy="574.171" r="4.33152" stroke-width="0.5" stroke="black" fill="green"/>
   </g>
   <g id="cell7">
  <circle cx="494.862" cy="454.662" r="8.36428" stroke-width="0.5" stroke="black" fill="magenta"/>
  <circle cx="494.862" cy="454.662" r="5.03339" stroke-width="0.5" stroke="black" fill="magenta"/>
   </g>
   <g id="cell8">
  <circle cx="379.195" cy="553.022" r="8.38028" stroke-width="0.5" stroke="black" fill="magenta"/>
  <circle cx="379.195" cy="553.022" r="5.03997" stroke-width="0.5" stroke="black" fill="magenta"/>
   </g>
   <g id="cell161">
  <circle cx="452.48" cy="386.401" r="8.36899" stroke-width="0.5" stroke="black" fill="green"/>
  <circle cx="452.48" cy="386.401" r="5.03615" stroke-width="0.5" stroke="black" fill="green"/>
   </g>
   <g id="cell10">
  <circle cx="581.708" cy="388.803" r="5.41847" stroke-width="0.5" stroke="black" fill="magenta"/>
  <circle cx="581.708" cy="388.803" r="3.27345" stroke-width="0.5" stroke="black" fill="magenta"/>
   </g>
   <g id="cell11">
  <circle cx="591.019" cy="591.875" r="8.41271" stroke-width="0.5" stroke="black" fill="magenta"/>
  <circle cx="591.019" cy="591.875" r="5.05167" stroke-width="0.5" stroke="black" fill="magenta"/>
   </g>
   <g id="cell12">
  <circle cx="498.669" cy="594.478" r="8.40801" stroke-width="0.5" stroke="black" fill="magenta"/>
  <circle cx="498.669" cy="594.478" r="5.05031" stroke-width="0.5" stroke="black" fill="magenta"/>
   </g>
   <g id="cell13">
  <circle cx="383.884" cy="567.645" r="8.41271" stroke-width="0.5" stroke="black" fill="magenta"/>
  <circle cx="383.884" cy="567.645" r="5.05167" stroke-width="0.5" stroke="black" fill="magenta"/>
   </g>
   <g id="cell14">
  <circle cx="516.916" cy="404.168" r="8.41271" stroke-width="0.5" stroke="black" fill="magenta"/>
  <circle cx="516.916" cy="404.168" r="5.05167" stroke-width="0.5" stroke="black" fill="magenta"/>
   </g>
   <g id="cell15">
  <circle cx="381.866" cy="479.124" r="8.41009" stroke-width="0.5" stroke="black" fill="magenta"/>
  <circle cx="381.866" cy="479.124" r="5.05096" stroke-width="0.5" stroke="black" fill="magenta"/>
   </g>
   <g id="cell16">
  <circle cx="452.496" cy="417.594" r="8.03791" stroke-width="0.5" stroke="black" fill="magenta"/>
  <circle cx="452.496" cy="417.594" r="4.8714" stroke-width="0.5" stroke="black" fill="magenta"/>
   </g>
   <g id="cell17">
  <circle cx="583.027" cy="497.779" r="8.29667" stroke-width="0.5" stroke="black" fill="magenta"/>
  <circle cx="583.027" cy="497.779" r="5.00279" stroke-width="0.5" stroke="black" fill="magenta"/>
   </g>
   <g id="cell18">
  <circle cx="518.422" cy="388.848" r="8.41271" stroke-width="0.5" stroke="black" fill="magenta"/>
  <circle cx="518.422" cy="388.848" r="5.05167" stroke-width="0.5" stroke="black" fill="magenta"/>
   </g>
   <g id="cell19">
  <circle cx="457.523" cy="541.331" r="8.41211" stroke-width="0.5" stroke="black" fill="magenta"/>
  <circle cx="457.523" cy="541.331" r="5.05153" stroke-width="0.5" stroke="black" fill="magenta"/>
   </g>
   <g id="cell20">
  <circle cx="529.327" cy="412.911" r="8.41271" stroke-width="0.5" stroke="black" fill="magenta"/>
  <circle cx="529.327" cy="412.911" r="5.05167" stroke-width="0.5" stroke="black" fill="magenta"/>
   </g>
   <g id="cell21">
  <circle cx="467.706" cy="637.406" r="7.75912" stroke-width="0.5" stroke="black" fill="magenta"/>
  <circle cx="467.706" cy="637.406" r="4.71248" stroke-width="0.5" stroke="black" fill="magenta"/>
   </g>
   <g id="cell22">
  <circle cx="559.428" cy="489.123" r="7.91651" stroke-width="0.5" stroke="black" fill="magenta"/>
  <circle cx="559.428" cy="489.123" r="4.80936" stroke-width="0.5" stroke="black" fill="magenta"/>
   </g>
   <g id="cell23">
  <circle cx="554.214" cy="476.083" r="8.41271" stroke-width="0.5" stroke="black" fill="magenta"/>
  <circle cx="554.214" cy="476.083" r="5.05167" stroke-width="0.5" stroke="black" fill="magenta"/>
   </g>
   <g id="cell24">
  <circle cx="570.906" cy="385.624" r="8.41271" stroke-width="0.5" stroke="black" fill="magenta"/>
  <circle cx="570.906" cy="385.624" r="5.05167" stroke-width="0.5" stroke="black" fill="magenta"/>
   </g>
   <g id="cell25">
  <circle cx="643.494" cy="546.223" r="7.63695" stroke-width="0.5" stroke="black" fill="green"/>
  <circle cx="643.494" cy="546.223" r="4.64084" stroke-width="0.5" stroke="black" fill="green"/>
   </g>
   <g id="cell26">
  <circle cx="559.761" cy="396.494" r="8.41211" stroke-width="0.5" stroke="black" fill="green"/>
  <circle cx="559.761" cy="396.494" r="5.05153" stroke-width="0.5" stroke="black" fill="green"/>
   </g>
   <g id="cell27">
  <circle cx="462.116" cy="405.83" r="8.41268" stroke-width="0.5" stroke="black" fill="green"/>
  <circle cx="462.116" cy="405.83" r="5.05167" stroke-width="0.5" stroke="black" fill="green"/>
   </g>
   <g id="cell28">
  <circle cx="428.881" cy="543.354" r="8.39571" stroke-width="0.5" stroke="black" fill="green"/>
  <circle cx="428.881" cy="543.354" r="5.04599" stroke-width="0.5" stroke="black" fill="green"/>
   </g>
   <g id="cell220">
  <circle cx="588.651" cy="380.352" r="6.82685" stroke-width="0.5" stroke="black" fill="magenta"/>
  <circle cx="588.651" cy="380.352" r="4.12429" stroke-width="0.5" stroke="black" fill="magenta"/>
   </g>
   <g id="cell30">
  <circle cx="479.451" cy="536.638" r="8.40725" stroke-width="0.5" stroke="black" fill="green"/>
  <circle cx="479.451" cy="536.638" r="5.05007" stroke-width="0.5" stroke="black" fill="green"/>
   </g>
   <g id="cell31">
  <circle cx="412.966" cy="544.091" r="8.41271" stroke-width="0.5" stroke="black" fill="green"/>
  <circle cx="412.966" cy="544.091" r="5.05167" stroke-width="0.5" stroke="black" fill="green"/>
   </g>
   <g id="cell169">
  <circle cx="520.636" cy="502.625" r="8.3572" stroke-width="0.5" stroke="black" fill="cyan"/>
  <circle cx="520.636" cy="502.625" r="5.03032" stroke-width="0.5" stroke="black" fill="cyan"/>
   </g>
   <g id="cell33">
  <circle cx="496.182" cy="415.839" r="8.40632" stroke-width="0.5" stroke="black" fill="green"/>
  <circle cx="496.182" cy="415.839" r="5.04976" stroke-width="0.5" stroke="black" fill="green"/>
   </g>
   <g id="cell168">
  <circle cx="381.479" cy="517.957" r="3.17513" stroke-width="0.5" stroke="black" fill="cyan"/>
  <circle cx="381.479" cy="517.957" r="2.54116" stroke-width="0.5" stroke="black" fill="black"/>
   </g>
   <g id="cell35">
  <circle cx="556.719" cy="557.771" r="8.41271" stroke-width="0.5" stroke="black" fill="green"/>
  <circle cx="556.719" cy="557.771" r="5.05167" stroke-width="0.5" stroke="black" fill="green"/>
   </g>
   <g id="cell36">
  <circle cx="388.858" cy="582.58" r="8.38032" stroke-width="0.5" stroke="black" fill="green"/>
  <circle cx="388.858" cy="582.58" r="5.04073" stroke-width="0.5" stroke="black" fill="green"/>
   </g>
   <g id="cell37">
  <circle cx="642.409" cy="456.253" r="8.41268" stroke-width="0.5" stroke="black" fill="green"/>
  <circle cx="642.409" cy="456.253" r="5.05166" stroke-width="0.5" stroke="black" fill="green"/>
   </g>
   <g id="cell38">
  <circle cx="523.772" cy="585.89" r="8.38026" stroke-width="0.5" stroke="black" fill="green"/>
  <circle cx="523.772" cy="585.89" r="5.03997" stroke-width="0.5" stroke="black" fill="green"/>
   </g>
   <g id="cell39">
  <circle cx="612.386" cy="491.34" r="8.3031" stroke-width="0.5" stroke="black" fill="green"/>
  <circle cx="612.386" cy="491.34" r="5.00583" stroke-width="0.5" stroke="black" fill="green"/>
   </g>
   <g id="cell40">
  <circle cx="486.139" cy="567.388" r="8.3926" stroke-width="0.5" stroke="black" fill="green"/>
  <circle cx="486.139" cy="567.388" r="5.04482" stroke-width="0.5" stroke="black" fill="green"/>
   </g>
   <g id="cell41">
  <circle cx="366.559" cy="482.122" r="8.41271" stroke-width="0.5" stroke="black" fill="green"/>
  <circle cx="366.559" cy="482.122" r="5.05167" stroke-width="0.5" stroke="black" fill="green"/>
   </g>
   <g id="cell42">
  <circle cx="437.173" cy="490.28" r="8.41271" stroke-width="0.5" stroke="black" fill="green"/>
  <circle cx="437.173" cy="490.28" r="5.05167" stroke-width="0.5" stroke="black" fill="green"/>
   </g>
   <g id="cell43">
  <circle cx="565.305" cy="438.3" r="8.41271" stroke-width="0.5" stroke="black" fill="green"/>
  <circle cx="565.305" cy="438.3" r="5.05167" stroke-width="0.5" stroke="black" fill="green"/>
   </g>
   <g id="cell164">
  <circle cx="399.232" cy="570.554" r="8.36772" stroke-width="0.5" stroke="black" fill="green"/>
  <circle cx="399.232" cy="570.554" r="5.03544" stroke-width="0.5" stroke="black" fill="green"/>
   </g>
   <g id="cell145">
  <circle cx="409.947" cy="420.598" r="8.02729" stroke-width="0.5" stroke="black" fill="magenta"/>
  <circle cx="409.947" cy="420.598" r="4.87202" stroke-width="0.5" stroke="black" fill="magenta"/>
   </g>
   <g id="cell46">
  <circle cx="515.684" cy="619.891" r="8.41244" stroke-width="0.5" stroke="black" fill="green"/>
  <circle cx="515.684" cy="619.891" r="5.05161" stroke-width="0.5" stroke="black" fill="green"/>
   </g>
   <g id="cell47">
  <circle cx="484.321" cy="491.093" r="8.41254" stroke-width="0.5" stroke="black" fill="green"/>
  <circle cx="484.321" cy="491.093" r="5.05163" stroke-width="0.5" stroke="black" fill="green"/>
   </g>
   <g id="cell48">
  <circle cx="578.387" cy="603.972" r="8.4121" stroke-width="0.5" stroke="black" fill="green"/>
  <circle cx="578.387" cy="603.972" r="5.05153" stroke-width="0.5" stroke="black" fill="green"/>
   </g>
   <g id="cell49">
  <circle cx="437.173" cy="391.088" r="8.35882" stroke-width="0.5" stroke="black" fill="green"/>
  <circle cx="437.173" cy="391.088" r="5.031" stroke-width="0.5" stroke="black" fill="green"/>
   </g>
   <g id="cell50">
  <circle cx="500.827" cy="512.895" r="8.41186" stroke-width="0.5" stroke="black" fill="cyan"/>
  <circle cx="500.827" cy="512.895" r="5.05146" stroke-width="0.5" stroke="black" fill="cyan"/>
   </g>
   <g id="cell51">
  <circle cx="400.967" cy="592.291" r="7.97646" stroke-width="0.5" stroke="black" fill="cyan"/>
  <circle cx="400.967" cy="592.291" r="4.83584" stroke-width="0.5" stroke="black" fill="cyan"/>
   </g>
   <g id="cell52">
  <circle cx="518.727" cy="414.874" r="3.27739" stroke-width="0.5" stroke="black" fill="cyan"/>
  <circle cx="518.727" cy="414.874" r="2.58717" stroke-width="0.5" stroke="black" fill="black"/>
   </g>
   <g id="cell53">
  <circle cx="573.334" cy="424.733" r="8.41248" stroke-width="0.5" stroke="black" fill="cyan"/>
  <circle cx="573.334" cy="424.733" r="5.05162" stroke-width="0.5" stroke="black" fill="cyan"/>
   </g>
   <g id="cell54">
  <circle cx="480.824" cy="416.86" r="8.41257" stroke-width="0.5" stroke="black" fill="cyan"/>
  <circle cx="480.824" cy="416.86" r="5.05164" stroke-width="0.5" stroke="black" fill="cyan"/>
   </g>
   <g id="cell55">
  <circle cx="521.261" cy="459.641" r="8.41249" stroke-width="0.5" stroke="black" fill="cyan"/>
  <circle cx="521.261" cy="459.641" r="5.05162" stroke-width="0.5" stroke="black" fill="cyan"/>
   </g>
   <g id="cell56">
  <circle cx="622.321" cy="521.813" r="8.41271" stroke-width="0.5" stroke="black" fill="cyan"/>
  <circle cx="622.321" cy="521.813" r="5.05167" stroke-width="0.5" stroke="black" fill="cyan"/>
   </g>
   <g id="cell105">
  <circle cx="503.669" cy="609.216" r="8.40576" stroke-width="0.5" stroke="black" fill="green"/>
  <circle cx="503.669" cy="609.216" r="5.04962" stroke-width="0.5" stroke="black" fill="green"/>
   </g>
   <g id="cell58">
  <circle cx="570.103" cy="473.47" r="8.3937" stroke-width="0.5" stroke="black" fill="cyan"/>
  <circle cx="570.103" cy="473.47" r="5.04523" stroke-width="0.5" stroke="black" fill="cyan"/>
   </g>
   <g id="cell59">
  <circle cx="385.732" cy="440.058" r="8.41271" stroke-width="0.5" stroke="black" fill="cyan"/>
  <circle cx="385.732" cy="440.058" r="5.05167" stroke-width="0.5" stroke="black" fill="cyan"/>
   </g>
   <g id="cell60">
  <circle cx="598.342" cy="464.556" r="8.33481" stroke-width="0.5" stroke="black" fill="cyan"/>
  <circle cx="598.342" cy="464.556" r="5.02043" stroke-width="0.5" stroke="black" fill="cyan"/>
   </g>
   <g id="cell186">
  <circle cx="354.924" cy="562.196" r="2.22892" stroke-width="0.5" stroke="black" fill="cyan"/>
  <circle cx="354.924" cy="562.196" r="2.04167" stroke-width="0.5" stroke="black" fill="black"/>
   </g>
   <g id="cell62">
  <circle cx="514.351" cy="433.746" r="8.32477" stroke-width="0.5" stroke="black" fill="cyan"/>
  <circle cx="514.351" cy="433.746" r="5.016" stroke-width="0.5" stroke="black" fill="cyan"/>
   </g>
   <g id="cell63">
  <circle cx="585.032" cy="538.054" r="8.40982" stroke-width="0.5" stroke="black" fill="cyan"/>
  <circle cx="585.032" cy="538.054" r="5.05088" stroke-width="0.5" stroke="black" fill="cyan"/>
   </g>
   <g id="cell64">
  <circle cx="509.447" cy="638.068" r="8.41271" stroke-width="0.5" stroke="black" fill="cyan"/>
  <circle cx="509.447" cy="638.068" r="5.05167" stroke-width="0.5" stroke="black" fill="cyan"/>
   </g>
   <g id="cell65">
  <circle cx="545.057" cy="464.044" r="8.41262" stroke-width="0.5" stroke="black" fill="cyan"/>
  <circle cx="545.057" cy="464.044" r="5.05165" stroke-width="0.5" stroke="black" fill="cyan"/>
   </g>
   <g id="cell66">
  <circle cx="534.155" cy="536.058" r="8.41256" stroke-width="0.5" stroke="black" fill="cyan"/>
  <circle cx="534.155" cy="536.058" r="5.05164" stroke-width="0.5" stroke="black" fill="cyan"/>
   </g>
   <g id="cell67">
  <circle cx="354.659" cy="492.853" r="8.41271" stroke-width="0.5" stroke="black" fill="cyan"/>
  <circle cx="354.659" cy="492.853" r="5.05167" stroke-width="0.5" stroke="black" fill="cyan"/>
   </g>
   <g id="cell212">
  <circle cx="568.584" cy="498.891" r="7.47999" stroke-width="0.5" stroke="black" fill="magenta"/>
  <circle cx="568.584" cy="498.891" r="4.56263" stroke-width="0.5" stroke="black" fill="magenta"/>
   </g>
   <g id="cell69">
  <circle cx="443.534" cy="460.42" r="8.41271" stroke-width="0.5" stroke="black" fill="cyan"/>
  <circle cx="443.534" cy="460.42" r="5.05167" stroke-width="0.5" stroke="black" fill="cyan"/>
   </g>
   <g id="cell70">
  <circle cx="586.268" cy="479.635" r="8.41271" stroke-width="0.5" stroke="black" fill="cyan"/>
  <circle cx="586.268" cy="479.635" r="5.05167" stroke-width="0.5" stroke="black" fill="cyan"/>
   </g>
   <g id="cell71">
  <circle cx="381.423" cy="533.922" r="1.17743" stroke-width="0.5" stroke="black" fill="cyan"/>
  <circle cx="381.423" cy="533.922" r="1.17266" stroke-width="0.5" stroke="black" fill="black"/>
   </g>
   <g id="cell72">
  <circle cx="536.315" cy="501.902" r="8.3572" stroke-width="0.5" stroke="black" fill="cyan"/>
  <circle cx="536.315" cy="501.902" r="5.03032" stroke-width="0.5" stroke="black" fill="cyan"/>
   </g>
   <g id="cell73">
  <circle cx="364.289" cy="549.872" r="7.91231" stroke-width="0.5" stroke="black" fill="cyan"/>
  <circle cx="364.289" cy="549.872" r="4.80743" stroke-width="0.5" stroke="black" fill="cyan"/>
   </g>
   <g id="cell162">
  <circle cx="373.984" cy="538.647" r="8.38028" stroke-width="0.5" stroke="black" fill="magenta"/>
  <circle cx="373.984" cy="538.647" r="5.03997" stroke-width="0.5" stroke="black" fill="magenta"/>
   </g>
   <g id="cell75">
  <circle cx="528.679" cy="428.555" r="8.41268" stroke-width="0.5" stroke="black" fill="cyan"/>
  <circle cx="528.679" cy="428.555" r="5.05167" stroke-width="0.5" stroke="black" fill="cyan"/>
   </g>
   <g id="cell76">
  <circle cx="435.314" cy="375.447" r="8.41228" stroke-width="0.5" stroke="black" fill="green"/>
  <circle cx="435.314" cy="375.447" r="5.05157" stroke-width="0.5" stroke="black" fill="green"/>
   </g>
   <g id="cell77">
  <circle cx="469.309" cy="447.61" r="8.41238" stroke-width="0.5" stroke="black" fill="magenta"/>
  <circle cx="469.309" cy="447.61" r="5.0516" stroke-width="0.5" stroke="black" fill="magenta"/>
   </g>
   <g id="cell78">
  <circle cx="626.465" cy="455.083" r="8.4126" stroke-width="0.5" stroke="black" fill="green"/>
  <circle cx="626.465" cy="455.083" r="5.05165" stroke-width="0.5" stroke="black" fill="green"/>
   </g>
   <g id="cell79">
  <circle cx="517.922" cy="474.978" r="8.41267" stroke-width="0.5" stroke="black" fill="cyan"/>
  <circle cx="517.922" cy="474.978" r="5.05166" stroke-width="0.5" stroke="black" fill="cyan"/>
   </g>
   <g id="cell80">
  <circle cx="542.01" cy="632.484" r="8.13743" stroke-width="0.5" stroke="black" fill="green"/>
  <circle cx="542.01" cy="632.484" r="4.92299" stroke-width="0.5" stroke="black" fill="green"/>
   </g>
   <g id="cell81">
  <circle cx="554.212" cy="589.565" r="8.41265" stroke-width="0.5" stroke="black" fill="green"/>
  <circle cx="554.212" cy="589.565" r="5.05166" stroke-width="0.5" stroke="black" fill="green"/>
   </g>
   <g id="cell82">
  <circle cx="528.547" cy="560.655" r="8.40513" stroke-width="0.5" stroke="black" fill="magenta"/>
  <circle cx="528.547" cy="560.655" r="5.04936" stroke-width="0.5" stroke="black" fill="magenta"/>
   </g>
   <g id="cell211">
  <circle cx="449.874" cy="371.514" r="7.5899" stroke-width="0.5" stroke="black" fill="green"/>
  <circle cx="449.874" cy="371.514" r="4.61343" stroke-width="0.5" stroke="black" fill="green"/>
   </g>
   <g id="cell84">
  <circle cx="512.408" cy="489.708" r="8.27493" stroke-width="0.5" stroke="black" fill="cyan"/>
  <circle cx="512.408" cy="489.708" r="4.99241" stroke-width="0.5" stroke="black" fill="cyan"/>
   </g>
   <g id="cell85">
  <circle cx="345.287" cy="541.882" r="8.4125" stroke-width="0.5" stroke="black" fill="cyan"/>
  <circle cx="345.287" cy="541.882" r="5.05163" stroke-width="0.5" stroke="black" fill="cyan"/>
   </g>
   <g id="cell86">
  <circle cx="494.7" cy="538.922" r="8.41125" stroke-width="0.5" stroke="black" fill="magenta"/>
  <circle cx="494.7" cy="538.922" r="5.0513" stroke-width="0.5" stroke="black" fill="magenta"/>
   </g>
   <g id="cell87">
  <circle cx="572.395" cy="559.601" r="8.41241" stroke-width="0.5" stroke="black" fill="cyan"/>
  <circle cx="572.395" cy="559.601" r="5.05161" stroke-width="0.5" stroke="black" fill="cyan"/>
   </g>
   <g id="cell88">
  <circle cx="445.762" cy="533.977" r="7.19014" stroke-width="0.5" stroke="black" fill="magenta"/>
  <circle cx="445.762" cy="533.977" r="4.37203" stroke-width="0.5" stroke="black" fill="magenta"/>
   </g>
   <g id="cell89">
  <circle cx="554.04" cy="448.961" r="8.40309" stroke-width="0.5" stroke="black" fill="cyan"/>
  <circle cx="554.04" cy="448.961" r="5.04878" stroke-width="0.5" stroke="black" fill="cyan"/>
   </g>
   <g id="cell90">
  <circle cx="637.093" cy="471.461" r="8.41061" stroke-width="0.5" stroke="black" fill="green"/>
  <circle cx="637.093" cy="471.461" r="5.05112" stroke-width="0.5" stroke="black" fill="green"/>
   </g>
   <g id="cell91">
  <circle cx="543.072" cy="564.896" r="8.41253" stroke-width="0.5" stroke="black" fill="magenta"/>
  <circle cx="543.072" cy="564.896" r="5.05163" stroke-width="0.5" stroke="black" fill="magenta"/>
   </g>
   <g id="cell92">
  <circle cx="486.033" cy="551.557" r="8.41259" stroke-width="0.5" stroke="black" fill="green"/>
  <circle cx="486.033" cy="551.557" r="5.05165" stroke-width="0.5" stroke="black" fill="green"/>
   </g>
   <g id="cell93">
  <circle cx="539.551" cy="550.272" r="8.41253" stroke-width="0.5" stroke="black" fill="magenta"/>
  <circle cx="539.551" cy="550.272" r="5.05163" stroke-width="0.5" stroke="black" fill="magenta"/>
   </g>
   <g id="cell94">
  <circle cx="543.931" cy="487.839" r="8.41257" stroke-width="0.5" stroke="black" fill="cyan"/>
  <circle cx="543.931" cy="487.839" r="5.05164" stroke-width="0.5" stroke="black" fill="cyan"/>
   </g>
   <g id="cell95">
  <circle cx="466.379" cy="421.037" r="8.14587" stroke-width="0.5" stroke="black" fill="cyan"/>
  <circle cx="466.379" cy="421.037" r="4.92725" stroke-width="0.5" stroke="black" fill="cyan"/>
   </g>
   <g id="cell96">
  <circle cx="553.597" cy="542.508" r="8.40877" stroke-width="0.5" stroke="black" fill="cyan"/>
  <circle cx="553.597" cy="542.508" r="5.05056" stroke-width="0.5" stroke="black" fill="cyan"/>
   </g>
   <g id="cell97">
  <circle cx="420.566" cy="464.192" r="8.41243" stroke-width="0.5" stroke="black" fill="green"/>
  <circle cx="420.566" cy="464.192" r="5.05161" stroke-width="0.5" stroke="black" fill="green"/>
   </g>
   <g id="cell98">
  <circle cx="489.656" cy="524.158" r="8.41095" stroke-width="0.5" stroke="black" fill="green"/>
  <circle cx="489.656" cy="524.158" r="5.05121" stroke-width="0.5" stroke="black" fill="green"/>
   </g>
   <g id="cell99">
  <circle cx="367.761" cy="524.494" r="8.4125" stroke-width="0.5" stroke="black" fill="cyan"/>
  <circle cx="367.761" cy="524.494" r="5.05163" stroke-width="0.5" stroke="black" fill="cyan"/>
   </g>
   <g id="cell100">
  <circle cx="446.011" cy="404.096" r="8.4125" stroke-width="0.5" stroke="black" fill="green"/>
  <circle cx="446.011" cy="404.096" r="5.05162" stroke-width="0.5" stroke="black" fill="green"/>
   </g>
   <g id="cell101">
  <circle cx="527.833" cy="488.802" r="8.24214" stroke-width="0.5" stroke="black" fill="cyan"/>
  <circle cx="527.833" cy="488.802" r="4.97681" stroke-width="0.5" stroke="black" fill="cyan"/>
   </g>
   <g id="cell102">
  <circle cx="442.172" cy="475.722" r="7.8627" stroke-width="0.5" stroke="black" fill="green"/>
  <circle cx="442.172" cy="475.722" r="4.77203" stroke-width="0.5" stroke="black" fill="green"/>
   </g>
   <g id="cell103">
  <circle cx="592.556" cy="449.858" r="8.41121" stroke-width="0.5" stroke="black" fill="cyan"/>
  <circle cx="592.556" cy="449.858" r="5.05129" stroke-width="0.5" stroke="black" fill="cyan"/>
   </g>
   <g id="cell104">
  <circle cx="608.252" cy="554.267" r="8.28449" stroke-width="0.5" stroke="black" fill="cyan"/>
  <circle cx="608.252" cy="554.267" r="4.99786" stroke-width="0.5" stroke="black" fill="cyan"/>
   </g>
   <g id="cell106">
  <circle cx="454.166" cy="449.122" r="8.41238" stroke-width="0.5" stroke="black" fill="magenta"/>
  <circle cx="454.166" cy="449.122" r="5.0516" stroke-width="0.5" stroke="black" fill="magenta"/>
   </g>
   <g id="cell107">
  <circle cx="467.749" cy="390.96" r="8.36899" stroke-width="0.5" stroke="black" fill="green"/>
  <circle cx="467.749" cy="390.96" r="5.03615" stroke-width="0.5" stroke="black" fill="green"/>
   </g>
   <g id="cell108">
  <circle cx="563.043" cy="609.896" r="8.41232" stroke-width="0.5" stroke="black" fill="green"/>
  <circle cx="563.043" cy="609.896" r="5.05158" stroke-width="0.5" stroke="black" fill="green"/>
   </g>
   <g id="cell109">
  <circle cx="575.939" cy="588.241" r="8.4121" stroke-width="0.5" stroke="black" fill="green"/>
  <circle cx="575.939" cy="588.241" r="5.05153" stroke-width="0.5" stroke="black" fill="green"/>
   </g>
   <g id="cell110">
  <circle cx="369.484" cy="508.604" r="8.41219" stroke-width="0.5" stroke="black" fill="cyan"/>
  <circle cx="369.484" cy="508.604" r="5.05155" stroke-width="0.5" stroke="black" fill="cyan"/>
   </g>
   <g id="cell111">
  <circle cx="456.328" cy="556.418" r="8.40832" stroke-width="0.5" stroke="black" fill="magenta"/>
  <circle cx="456.328" cy="556.418" r="5.05043" stroke-width="0.5" stroke="black" fill="magenta"/>
   </g>
   <g id="cell112">
  <circle cx="491.513" cy="468.976" r="8.40186" stroke-width="0.5" stroke="black" fill="magenta"/>
  <circle cx="491.513" cy="468.976" r="5.04826" stroke-width="0.5" stroke="black" fill="magenta"/>
   </g>
   <g id="cell113">
  <circle cx="546.822" cy="367.697" r="7.29651" stroke-width="0.5" stroke="black" fill="green"/>
  <circle cx="546.822" cy="367.697" r="4.4351" stroke-width="0.5" stroke="black" fill="green"/>
   </g>
   <g id="cell114">
  <circle cx="524.834" cy="444.308" r="8.4117" stroke-width="0.5" stroke="black" fill="cyan"/>
  <circle cx="524.834" cy="444.308" r="5.05143" stroke-width="0.5" stroke="black" fill="cyan"/>
   </g>
   <g id="cell115">
  <circle cx="538.661" cy="450.232" r="8.40911" stroke-width="0.5" stroke="black" fill="cyan"/>
  <circle cx="538.661" cy="450.232" r="5.05069" stroke-width="0.5" stroke="black" fill="cyan"/>
   </g>
   <g id="cell116">
  <circle cx="519.622" cy="531.861" r="8.30874" stroke-width="0.5" stroke="black" fill="cyan"/>
  <circle cx="519.622" cy="531.861" r="5.00856" stroke-width="0.5" stroke="black" fill="cyan"/>
   </g>
   <g id="cell117">
  <circle cx="500.482" cy="624.836" r="8.41158" stroke-width="0.5" stroke="black" fill="green"/>
  <circle cx="500.482" cy="624.836" r="5.05139" stroke-width="0.5" stroke="black" fill="green"/>
   </g>
   <g id="cell118">
  <circle cx="509.53" cy="449.066" r="8.41142" stroke-width="0.5" stroke="black" fill="cyan"/>
  <circle cx="509.53" cy="449.066" r="5.05134" stroke-width="0.5" stroke="black" fill="cyan"/>
   </g>
   <g id="cell119">
  <circle cx="548.208" cy="604.089" r="8.32477" stroke-width="0.5" stroke="black" fill="green"/>
  <circle cx="548.208" cy="604.089" r="5.016" stroke-width="0.5" stroke="black" fill="green"/>
   </g>
   <g id="cell120">
  <circle cx="581.118" cy="438.797" r="8.41121" stroke-width="0.5" stroke="black" fill="cyan"/>
  <circle cx="581.118" cy="438.797" r="5.05129" stroke-width="0.5" stroke="black" fill="cyan"/>
   </g>
   <g id="cell121">
  <circle cx="453.748" cy="357.744" r="7.5899" stroke-width="0.5" stroke="black" fill="green"/>
  <circle cx="453.748" cy="357.744" r="4.61343" stroke-width="0.5" stroke="black" fill="green"/>
   </g>
   <g id="cell122">
  <circle cx="504.856" cy="528.032" r="8.41125" stroke-width="0.5" stroke="black" fill="magenta"/>
  <circle cx="504.856" cy="528.032" r="5.0513" stroke-width="0.5" stroke="black" fill="magenta"/>
   </g>
   <g id="cell123">
  <circle cx="486.133" cy="507.085" r="8.41095" stroke-width="0.5" stroke="black" fill="green"/>
  <circle cx="486.133" cy="507.085" r="5.05121" stroke-width="0.5" stroke="black" fill="green"/>
   </g>
   <g id="cell124">
  <circle cx="488.361" cy="430.025" r="8.18743" stroke-width="0.5" stroke="black" fill="magenta"/>
  <circle cx="488.361" cy="430.025" r="4.94897" stroke-width="0.5" stroke="black" fill="magenta"/>
   </g>
   <g id="cell125">
  <circle cx="625.656" cy="483.76" r="7.73886" stroke-width="0.5" stroke="black" fill="green"/>
  <circle cx="625.656" cy="483.76" r="4.70107" stroke-width="0.5" stroke="black" fill="green"/>
   </g>
   <g id="cell126">
  <circle cx="628.988" cy="566.353" r="8.41059" stroke-width="0.5" stroke="black" fill="green"/>
  <circle cx="628.988" cy="566.353" r="5.05111" stroke-width="0.5" stroke="black" fill="green"/>
   </g>
   <g id="cell127">
  <circle cx="431.656" cy="360.787" r="7.63507" stroke-width="0.5" stroke="black" fill="green"/>
  <circle cx="431.656" cy="360.787" r="4.6403" stroke-width="0.5" stroke="black" fill="green"/>
   </g>
   <g id="cell128">
  <circle cx="372.113" cy="467.546" r="8.41009" stroke-width="0.5" stroke="black" fill="magenta"/>
  <circle cx="372.113" cy="467.546" r="5.05096" stroke-width="0.5" stroke="black" fill="magenta"/>
   </g>
   <g id="cell129">
  <circle cx="569.884" cy="543.627" r="8.40982" stroke-width="0.5" stroke="black" fill="cyan"/>
  <circle cx="569.884" cy="543.627" r="5.05088" stroke-width="0.5" stroke="black" fill="cyan"/>
   </g>
   <g id="cell130">
  <circle cx="545.716" cy="436.17" r="8.40911" stroke-width="0.5" stroke="black" fill="cyan"/>
  <circle cx="545.716" cy="436.17" r="5.05069" stroke-width="0.5" stroke="black" fill="cyan"/>
   </g>
   <g id="cell131">
  <circle cx="545.205" cy="514.191" r="7.89999" stroke-width="0.5" stroke="black" fill="cyan"/>
  <circle cx="545.205" cy="514.191" r="4.80915" stroke-width="0.5" stroke="black" fill="cyan"/>
   </g>
   <g id="cell132">
  <circle cx="443.828" cy="547.834" r="8.40832" stroke-width="0.5" stroke="black" fill="magenta"/>
  <circle cx="443.828" cy="547.834" r="5.05043" stroke-width="0.5" stroke="black" fill="magenta"/>
   </g>
   <g id="cell133">
  <circle cx="582.698" cy="464.065" r="8.40857" stroke-width="0.5" stroke="black" fill="cyan"/>
  <circle cx="582.698" cy="464.065" r="5.05049" stroke-width="0.5" stroke="black" fill="cyan"/>
   </g>
   <g id="cell201">
  <circle cx="559.572" cy="522.814" r="7.89999" stroke-width="0.5" stroke="black" fill="cyan"/>
  <circle cx="559.572" cy="522.814" r="4.80915" stroke-width="0.5" stroke="black" fill="cyan"/>
   </g>
   <g id="cell135">
  <circle cx="508.425" cy="582.967" r="8.40801" stroke-width="0.5" stroke="black" fill="magenta"/>
  <circle cx="508.425" cy="582.967" r="5.05031" stroke-width="0.5" stroke="black" fill="magenta"/>
   </g>
   <g id="cell136">
  <circle cx="470.394" cy="549.791" r="8.40725" stroke-width="0.5" stroke="black" fill="green"/>
  <circle cx="470.394" cy="549.791" r="5.05007" stroke-width="0.5" stroke="black" fill="green"/>
   </g>
   <g id="cell137">
  <circle cx="488.491" cy="614.236" r="8.40576" stroke-width="0.5" stroke="black" fill="green"/>
  <circle cx="488.491" cy="614.236" r="5.04962" stroke-width="0.5" stroke="black" fill="green"/>
   </g>
   <g id="cell138">
  <circle cx="501.765" cy="401.169" r="8.40632" stroke-width="0.5" stroke="black" fill="green"/>
  <circle cx="501.765" cy="401.169" r="5.04976" stroke-width="0.5" stroke="black" fill="green"/>
   </g>
   <g id="cell139">
  <circle cx="415.299" cy="406.726" r="8.40537" stroke-width="0.5" stroke="black" fill="magenta"/>
  <circle cx="415.299" cy="406.726" r="5.04944" stroke-width="0.5" stroke="black" fill="magenta"/>
   </g>
   <g id="cell140">
  <circle cx="518.171" cy="571.548" r="8.39864" stroke-width="0.5" stroke="black" fill="magenta"/>
  <circle cx="518.171" cy="571.548" r="5.04727" stroke-width="0.5" stroke="black" fill="magenta"/>
   </g>
   <g id="cell141">
  <circle cx="572.45" cy="452.175" r="8.40309" stroke-width="0.5" stroke="black" fill="cyan"/>
  <circle cx="572.45" cy="452.175" r="5.04878" stroke-width="0.5" stroke="black" fill="cyan"/>
   </g>
   <g id="cell142">
  <circle cx="542.111" cy="421.36" r="8.30584" stroke-width="0.5" stroke="black" fill="green"/>
  <circle cx="542.111" cy="421.36" r="5.00894" stroke-width="0.5" stroke="black" fill="green"/>
   </g>
   <g id="cell143">
  <circle cx="430.426" cy="405.095" r="8.40082" stroke-width="0.5" stroke="black" fill="magenta"/>
  <circle cx="430.426" cy="405.095" r="5.04802" stroke-width="0.5" stroke="black" fill="magenta"/>
   </g>
   <g id="cell144">
  <circle cx="548.797" cy="407.814" r="8.38306" stroke-width="0.5" stroke="black" fill="green"/>
  <circle cx="548.797" cy="407.814" r="5.04164" stroke-width="0.5" stroke="black" fill="green"/>
   </g>
   <g id="cell185">
  <circle cx="598.761" cy="568.413" r="7.62438" stroke-width="0.5" stroke="black" fill="cyan"/>
  <circle cx="598.761" cy="568.413" r="4.64569" stroke-width="0.5" stroke="black" fill="cyan"/>
   </g>
   <g id="cell147">
  <circle cx="513.553" cy="557.375" r="8.39864" stroke-width="0.5" stroke="black" fill="magenta"/>
  <circle cx="513.553" cy="557.375" r="5.04727" stroke-width="0.5" stroke="black" fill="magenta"/>
   </g>
   <g id="cell148">
  <circle cx="506.29" cy="464.234" r="8.23383" stroke-width="0.5" stroke="black" fill="magenta"/>
  <circle cx="506.29" cy="464.234" r="4.97323" stroke-width="0.5" stroke="black" fill="magenta"/>
   </g>
   <g id="cell149">
  <circle cx="574.85" cy="400.306" r="8.39913" stroke-width="0.5" stroke="black" fill="magenta"/>
  <circle cx="574.85" cy="400.306" r="5.04725" stroke-width="0.5" stroke="black" fill="magenta"/>
   </g>
   <g id="cell150">
  <circle cx="411.406" cy="580.89" r="8.36772" stroke-width="0.5" stroke="black" fill="green"/>
  <circle cx="411.406" cy="580.89" r="5.03544" stroke-width="0.5" stroke="black" fill="green"/>
   </g>
   <g id="cell151">
  <circle cx="419.514" cy="529.645" r="8.39571" stroke-width="0.5" stroke="black" fill="green"/>
  <circle cx="419.514" cy="529.645" r="5.04599" stroke-width="0.5" stroke="black" fill="green"/>
   </g>
   <g id="cell152">
  <circle cx="373.397" cy="579.342" r="8.38711" stroke-width="0.5" stroke="black" fill="green"/>
  <circle cx="373.397" cy="579.342" r="5.04311" stroke-width="0.5" stroke="black" fill="green"/>
   </g>
   <g id="cell153">
  <circle cx="560.517" cy="462.282" r="8.3937" stroke-width="0.5" stroke="black" fill="cyan"/>
  <circle cx="560.517" cy="462.282" r="5.04523" stroke-width="0.5" stroke="black" fill="cyan"/>
   </g>
   <g id="cell154">
  <circle cx="386.824" cy="598.564" r="8.38032" stroke-width="0.5" stroke="black" fill="green"/>
  <circle cx="386.824" cy="598.564" r="5.04073" stroke-width="0.5" stroke="black" fill="green"/>
   </g>
   <g id="cell155">
  <circle cx="488.23" cy="583.085" r="8.3926" stroke-width="0.5" stroke="black" fill="green"/>
  <circle cx="488.23" cy="583.085" r="5.04482" stroke-width="0.5" stroke="black" fill="green"/>
   </g>
   <g id="cell156">
  <circle cx="457.348" cy="526.19" r="8.39255" stroke-width="0.5" stroke="black" fill="magenta"/>
  <circle cx="457.348" cy="526.19" r="5.04481" stroke-width="0.5" stroke="black" fill="magenta"/>
   </g>
   <g id="cell157">
  <circle cx="443.564" cy="520.096" r="8.38071" stroke-width="0.5" stroke="black" fill="magenta"/>
  <circle cx="443.564" cy="520.096" r="5.04069" stroke-width="0.5" stroke="black" fill="magenta"/>
   </g>
   <g id="cell158">
  <circle cx="564.222" cy="411.649" r="8.38433" stroke-width="0.5" stroke="black" fill="green"/>
  <circle cx="564.222" cy="411.649" r="5.04213" stroke-width="0.5" stroke="black" fill="green"/>
   </g>
   <g id="cell159">
  <circle cx="530.497" cy="397.858" r="8.08588" stroke-width="0.5" stroke="black" fill="green"/>
  <circle cx="530.497" cy="397.858" r="4.9033" stroke-width="0.5" stroke="black" fill="green"/>
   </g>
   <g id="cell160">
  <circle cx="464.406" cy="375.478" r="8.38673" stroke-width="0.5" stroke="black" fill="green"/>
  <circle cx="464.406" cy="375.478" r="5.04266" stroke-width="0.5" stroke="black" fill="green"/>
   </g>
   <g id="cell165">
  <circle cx="607.676" cy="526.465" r="8.14531" stroke-width="0.5" stroke="black" fill="magenta"/>
  <circle cx="607.676" cy="526.465" r="4.9302" stroke-width="0.5" stroke="black" fill="magenta"/>
   </g>
   <g id="cell166">
  <circle cx="480.141" cy="458.792" r="8.36428" stroke-width="0.5" stroke="black" fill="magenta"/>
  <circle cx="480.141" cy="458.792" r="5.03339" stroke-width="0.5" stroke="black" fill="magenta"/>
   </g>
   <g id="cell167">
  <circle cx="421.367" cy="392.464" r="8.35882" stroke-width="0.5" stroke="black" fill="green"/>
  <circle cx="421.367" cy="392.464" r="5.031" stroke-width="0.5" stroke="black" fill="green"/>
   </g>
   <g id="cell170">
  <circle cx="460.197" cy="503.361" r="8.347" stroke-width="0.5" stroke="black" fill="green"/>
  <circle cx="460.197" cy="503.361" r="5.02586" stroke-width="0.5" stroke="black" fill="green"/>
   </g>
   <g id="cell171">
  <circle cx="601.896" cy="479.808" r="8.33481" stroke-width="0.5" stroke="black" fill="cyan"/>
  <circle cx="601.896" cy="479.808" r="5.02043" stroke-width="0.5" stroke="black" fill="cyan"/>
   </g>
   <g id="cell172">
  <circle cx="551.788" cy="501.084" r="8.26885" stroke-width="0.5" stroke="black" fill="magenta"/>
  <circle cx="551.788" cy="501.084" r="4.99247" stroke-width="0.5" stroke="black" fill="magenta"/>
   </g>
   <g id="cell173">
  <circle cx="531.145" cy="520.634" r="8.32342" stroke-width="0.5" stroke="black" fill="cyan"/>
  <circle cx="531.145" cy="520.634" r="5.0156" stroke-width="0.5" stroke="black" fill="cyan"/>
   </g>
   <g id="cell174">
  <circle cx="497.563" cy="440.894" r="7.1522" stroke-width="0.5" stroke="black" fill="cyan"/>
  <circle cx="497.563" cy="440.894" r="4.35492" stroke-width="0.5" stroke="black" fill="cyan"/>
   </g>
   <g id="cell175">
  <circle cx="524.683" cy="607.272" r="7.97422" stroke-width="0.5" stroke="black" fill="green"/>
  <circle cx="524.683" cy="607.272" r="4.84695" stroke-width="0.5" stroke="black" fill="green"/>
   </g>
   <g id="cell176">
  <circle cx="557.116" cy="425.261" r="8.30584" stroke-width="0.5" stroke="black" fill="green"/>
  <circle cx="557.116" cy="425.261" r="5.00894" stroke-width="0.5" stroke="black" fill="green"/>
   </g>
   <g id="cell177">
  <circle cx="368.835" cy="564.371" r="8.23891" stroke-width="0.5" stroke="black" fill="cyan"/>
  <circle cx="368.835" cy="564.371" r="4.97842" stroke-width="0.5" stroke="black" fill="cyan"/>
   </g>
   <g id="cell178">
  <circle cx="562.552" cy="509.899" r="7.47999" stroke-width="0.5" stroke="black" fill="magenta"/>
  <circle cx="562.552" cy="509.899" r="4.56263" stroke-width="0.5" stroke="black" fill="magenta"/>
   </g>
   <g id="cell179">
  <circle cx="515.783" cy="517.126" r="8.30874" stroke-width="0.5" stroke="black" fill="cyan"/>
  <circle cx="515.783" cy="517.126" r="5.00856" stroke-width="0.5" stroke="black" fill="cyan"/>
   </g>
   <g id="cell180">
  <circle cx="619.98" cy="505.153" r="8.3031" stroke-width="0.5" stroke="black" fill="green"/>
  <circle cx="619.98" cy="505.153" r="5.00583" stroke-width="0.5" stroke="black" fill="green"/>
   </g>
   <g id="cell181">
  <circle cx="564.591" cy="531.09" r="2.66799" stroke-width="0.5" stroke="black" fill="cyan"/>
  <circle cx="564.591" cy="531.09" r="2.29585" stroke-width="0.5" stroke="black" fill="black"/>
   </g>
   <g id="cell182">
  <circle cx="532.863" cy="382.627" r="8.28473" stroke-width="0.5" stroke="black" fill="green"/>
  <circle cx="532.863" cy="382.627" r="4.99916" stroke-width="0.5" stroke="black" fill="green"/>
   </g>
   <g id="cell183">
  <circle cx="580.256" cy="520.226" r="6.81053" stroke-width="0.5" stroke="black" fill="magenta"/>
  <circle cx="580.256" cy="520.226" r="4.13336" stroke-width="0.5" stroke="black" fill="magenta"/>
   </g>
   <g id="cell184">
  <circle cx="431.56" cy="430.721" r="8.10821" stroke-width="0.5" stroke="black" fill="magenta"/>
  <circle cx="431.56" cy="430.721" r="4.91444" stroke-width="0.5" stroke="black" fill="magenta"/>
   </g>
   <g id="cell187">
  <circle cx="498.783" cy="497.203" r="8.27493" stroke-width="0.5" stroke="black" fill="cyan"/>
  <circle cx="498.783" cy="497.203" r="4.99241" stroke-width="0.5" stroke="black" fill="cyan"/>
   </g>
   <g id="cell188">
  <circle cx="534.488" cy="618.963" r="8.20364" stroke-width="0.5" stroke="black" fill="green"/>
  <circle cx="534.488" cy="618.963" r="4.96129" stroke-width="0.5" stroke="black" fill="green"/>
   </g>
   <g id="cell189">
  <circle cx="534.216" cy="475.032" r="8.24214" stroke-width="0.5" stroke="black" fill="cyan"/>
  <circle cx="534.216" cy="475.032" r="4.97681" stroke-width="0.5" stroke="black" fill="cyan"/>
   </g>
   <g id="cell190">
  <circle cx="546.664" cy="528.775" r="8.16265" stroke-width="0.5" stroke="black" fill="cyan"/>
  <circle cx="546.664" cy="528.775" r="4.94342" stroke-width="0.5" stroke="black" fill="cyan"/>
   </g>
   <g id="cell191">
  <circle cx="502.752" cy="478.473" r="8.23383" stroke-width="0.5" stroke="black" fill="magenta"/>
  <circle cx="502.752" cy="478.473" r="4.97323" stroke-width="0.5" stroke="black" fill="magenta"/>
   </g>
   <g id="cell192">
  <circle cx="474.394" cy="433.385" r="8.18743" stroke-width="0.5" stroke="black" fill="magenta"/>
  <circle cx="474.394" cy="433.385" r="4.94897" stroke-width="0.5" stroke="black" fill="magenta"/>
   </g>
   <g id="cell193">
  <circle cx="438.349" cy="417.691" r="8.10821" stroke-width="0.5" stroke="black" fill="magenta"/>
  <circle cx="438.349" cy="417.691" r="4.91444" stroke-width="0.5" stroke="black" fill="magenta"/>
   </g>
   <g id="cell194">
  <circle cx="601.863" cy="512.997" r="8.14531" stroke-width="0.5" stroke="black" fill="magenta"/>
  <circle cx="601.863" cy="512.997" r="4.9302" stroke-width="0.5" stroke="black" fill="magenta"/>
   </g>
   <g id="cell195">
  <circle cx="544.586" cy="393.26" r="8.08588" stroke-width="0.5" stroke="black" fill="green"/>
  <circle cx="544.586" cy="393.26" r="4.9033" stroke-width="0.5" stroke="black" fill="green"/>
   </g>
   <g id="cell196">
  <circle cx="459.811" cy="435.121" r="8.14587" stroke-width="0.5" stroke="black" fill="cyan"/>
  <circle cx="459.811" cy="435.121" r="4.92725" stroke-width="0.5" stroke="black" fill="cyan"/>
   </g>
   <g id="cell197">
  <circle cx="550.16" cy="619.384" r="8.13743" stroke-width="0.5" stroke="black" fill="green"/>
  <circle cx="550.16" cy="619.384" r="4.92299" stroke-width="0.5" stroke="black" fill="green"/>
   </g>
   <g id="cell198">
  <circle cx="424.083" cy="418.433" r="8.02729" stroke-width="0.5" stroke="black" fill="magenta"/>
  <circle cx="424.083" cy="418.433" r="4.87202" stroke-width="0.5" stroke="black" fill="magenta"/>
   </g>
   <g id="cell199">
  <circle cx="535.018" cy="596.33" r="7.97422" stroke-width="0.5" stroke="black" fill="green"/>
  <circle cx="535.018" cy="596.33" r="4.84695" stroke-width="0.5" stroke="black" fill="green"/>
   </g>
   <g id="cell200">
  <circle cx="445.883" cy="430.308" r="8.03791" stroke-width="0.5" stroke="black" fill="magenta"/>
  <circle cx="445.883" cy="430.308" r="4.8714" stroke-width="0.5" stroke="black" fill="magenta"/>
   </g>
   <g id="cell202">
  <circle cx="402.513" cy="607.299" r="7.97646" stroke-width="0.5" stroke="black" fill="cyan"/>
  <circle cx="402.513" cy="607.299" r="4.83584" stroke-width="0.5" stroke="black" fill="cyan"/>
   </g>
   <g id="cell203">
  <circle cx="362.306" cy="537.46" r="3.82526" stroke-width="0.5" stroke="black" fill="cyan"/>
  <circle cx="362.306" cy="537.46" r="2.77773" stroke-width="0.5" stroke="black" fill="black"/>
   </g>
   <g id="cell204">
  <circle cx="573.633" cy="487.01" r="7.91651" stroke-width="0.5" stroke="black" fill="magenta"/>
  <circle cx="573.633" cy="487.01" r="4.80936" stroke-width="0.5" stroke="black" fill="magenta"/>
   </g>
   <g id="cell205">
  <circle cx="427.446" cy="478.109" r="7.8627" stroke-width="0.5" stroke="black" fill="green"/>
  <circle cx="427.446" cy="478.109" r="4.77203" stroke-width="0.5" stroke="black" fill="green"/>
   </g>
   <g id="cell206">
  <circle cx="465.502" cy="623.639" r="7.75912" stroke-width="0.5" stroke="black" fill="magenta"/>
  <circle cx="465.502" cy="623.639" r="4.71248" stroke-width="0.5" stroke="black" fill="magenta"/>
   </g>
   <g id="cell207">
  <circle cx="621.877" cy="469.655" r="7.73886" stroke-width="0.5" stroke="black" fill="green"/>
  <circle cx="621.877" cy="469.655" r="4.70107" stroke-width="0.5" stroke="black" fill="green"/>
   </g>
   <g id="cell208">
  <circle cx="583.627" cy="551.746" r="6.39" stroke-width="0.5" stroke="black" fill="cyan"/>
  <circle cx="583.627" cy="551.746" r="3.91963" stroke-width="0.5" stroke="black" fill="cyan"/>
   </g>
   <g id="cell209">
  <circle cx="441.471" cy="350.218" r="7.63507" stroke-width="0.5" stroke="black" fill="green"/>
  <circle cx="441.471" cy="350.218" r="4.6403" stroke-width="0.5" stroke="black" fill="green"/>
   </g>
   <g id="cell210">
  <circle cx="655.711" cy="538.444" r="7.63695" stroke-width="0.5" stroke="black" fill="green"/>
  <circle cx="655.711" cy="538.444" r="4.64084" stroke-width="0.5" stroke="black" fill="green"/>
   </g>
   <g id="cell213">
  <circle cx="558.055" cy="382.806" r="6.35946" stroke-width="0.5" stroke="black" fill="green"/>
  <circle cx="558.055" cy="382.806" r="3.90259" stroke-width="0.5" stroke="black" fill="green"/>
   </g>
   <g id="cell214">
  <circle cx="501.846" cy="428.558" r="7.1522" stroke-width="0.5" stroke="black" fill="cyan"/>
  <circle cx="501.846" cy="428.558" r="4.35492" stroke-width="0.5" stroke="black" fill="cyan"/>
   </g>
   <g id="cell215">
  <circle cx="433.722" cy="529.915" r="7.19014" stroke-width="0.5" stroke="black" fill="magenta"/>
  <circle cx="433.722" cy="529.915" r="4.37203" stroke-width="0.5" stroke="black" fill="magenta"/>
   </g>
   <g id="cell216">
  <circle cx="544.334" cy="579.089" r="7.12725" stroke-width="0.5" stroke="black" fill="green"/>
  <circle cx="544.334" cy="579.089" r="4.33152" stroke-width="0.5" stroke="black" fill="green"/>
   </g>
   <g id="cell217">
  <circle cx="546.522" cy="380.261" r="6.35946" stroke-width="0.5" stroke="black" fill="green"/>
  <circle cx="546.522" cy="380.261" r="3.90259" stroke-width="0.5" stroke="black" fill="green"/>
   </g>
   <g id="cell218">
  <circle cx="594.668" cy="555.959" r="6.39" stroke-width="0.5" stroke="black" fill="cyan"/>
  <circle cx="594.668" cy="555.959" r="3.91963" stroke-width="0.5" stroke="black" fill="cyan"/>
   </g>
   <g id="cell219">
  <circle cx="575.577" cy="509.167" r="6.81053" stroke-width="0.5" stroke="black" fill="magenta"/>
  <circle cx="575.577" cy="509.167" r="4.13336" stroke-width="0.5" stroke="black" fill="magenta"/>
   </g>
   <g id="cell221">
  <circle cx="587.686" cy="395.141" r="5.41847" stroke-width="0.5" stroke="black" fill="magenta"/>
  <circle cx="587.686" cy="395.141" r="3.27345" stroke-width="0.5" stroke="black" fill="magenta"/>
   </g>
  </g>
 </g>
  <rect x="775" y="1035" width="200" height="10" stroke-width="2" stroke="rgb(255,255,255)" fill="rgb(0,0,0)"/>
  <text x="781.25" y="1028.75"
   font-family="Arial" font-size="25" fill="black" >
   200 &#956;m
  </text>
  <text x="25" y="1045"
   font-family="Arial" font-size="18.75" fill="black" >
   0 days, 0 hours, 0 minutes, and 50.9257 seconds
  </text>
  <rect x="0" y="70" width="1000" height="1000" stroke-width="2" stroke="rgb(0,0,0)" fill="none"/>
</svg>
