<?xml version="1.0" encoding="UTF-8" standalone="no"?>
<!-- Created with PhysiCell (http://PhysiCell.MathCancer.org/) -->
<svg 
 xmlns:dc="http://purl.org/dc/elements/1.1/" 
 xmlns:cc="http://creativecommons.org/ns#" 
 xmlns:rdf="http://www.w3.org/1999/02/22-rdf-syntax-ns#" 
 xmlns:svg="http://www.w3.org/2000/svg" 
 xmlns="http://www.w3.org/2000/svg" 
 version="1.1" 
 width="1000" 
 height="1070" 
 id="svg2">
  <rect x="0" y="0" width="1000" height="1070" stroke-width="2" stroke="white" fill="white"/>
  <text x="12.5" y="30"
   font-family="Arial" font-size="25" fill="black" >
   Current time: 1 days, 12 hours, and 54.00 minutes, z = 0.00 &#956;m
  </text>
  <text x="12.5" y="57.5"
   font-family="Arial" font-size="23.75" fill="black" >
   196 agents
  </text>
 <g id="tissue" 
    transform="translate(0,1070) scale(1,-1)">
  <g id="ECM">
  </g>
  <g id="cells">
   <g id="cell0">
  <circle cx="510.953" cy="542.343" r="8.41247" stroke-width="0.5" stroke="black" fill="magenta"/>
  <circle cx="510.953" cy="542.343" r="5.05162" stroke-width="0.5" stroke="black" fill="magenta"/>
   </g>
   <g id="cell1">
  <circle cx="593.924" cy="525.654" r="8.27497" stroke-width="0.5" stroke="black" fill="magenta"/>
  <circle cx="593.924" cy="525.654" r="4.99242" stroke-width="0.5" stroke="black" fill="magenta"/>
   </g>
   <g id="cell2">
  <circle cx="514.795" cy="597.315" r="8.41271" stroke-width="0.5" stroke="black" fill="magenta"/>
  <circle cx="514.795" cy="597.315" r="5.05167" stroke-width="0.5" stroke="black" fill="magenta"/>
   </g>
   <g id="cell3">
  <circle cx="525.708" cy="546.133" r="8.41232" stroke-width="0.5" stroke="black" fill="magenta"/>
  <circle cx="525.708" cy="546.133" r="5.05158" stroke-width="0.5" stroke="black" fill="magenta"/>
   </g>
   <g id="cell4">
  <circle cx="485.394" cy="443.374" r="8.4074" stroke-width="0.5" stroke="black" fill="magenta"/>
  <circle cx="485.394" cy="443.374" r="5.05012" stroke-width="0.5" stroke="black" fill="magenta"/>
   </g>
   <g id="cell5">
  <circle cx="467.985" cy="490.235" r="8.41271" stroke-width="0.5" stroke="black" fill="magenta"/>
  <circle cx="467.985" cy="490.235" r="5.05167" stroke-width="0.5" stroke="black" fill="magenta"/>
   </g>
   <g id="cell163">
  <circle cx="536.845" cy="574.949" r="8.30911" stroke-width="0.5" stroke="black" fill="green"/>
  <circle cx="536.845" cy="574.949" r="5.00866" stroke-width="0.5" stroke="black" fill="green"/>
   </g>
   <g id="cell7">
  <circle cx="496.581" cy="453.331" r="8.25731" stroke-width="0.5" stroke="black" fill="magenta"/>
  <circle cx="496.581" cy="453.331" r="4.98403" stroke-width="0.5" stroke="black" fill="magenta"/>
   </g>
   <g id="cell8">
  <circle cx="379.896" cy="552.332" r="8.30918" stroke-width="0.5" stroke="black" fill="magenta"/>
  <circle cx="379.896" cy="552.332" r="5.00867" stroke-width="0.5" stroke="black" fill="magenta"/>
   </g>
   <g id="cell161">
  <circle cx="451.423" cy="382.287" r="8.27279" stroke-width="0.5" stroke="black" fill="green"/>
  <circle cx="451.423" cy="382.287" r="4.99451" stroke-width="0.5" stroke="black" fill="green"/>
   </g>
   <g id="cell10">
  <circle cx="586.618" cy="389.044" r="8.36972" stroke-width="0.5" stroke="black" fill="magenta"/>
  <circle cx="586.618" cy="389.044" r="5.03563" stroke-width="0.5" stroke="black" fill="magenta"/>
   </g>
   <g id="cell11">
  <circle cx="592.152" cy="590.084" r="8.41271" stroke-width="0.5" stroke="black" fill="magenta"/>
  <circle cx="592.152" cy="590.084" r="5.05167" stroke-width="0.5" stroke="black" fill="magenta"/>
   </g>
   <g id="cell12">
  <circle cx="500.235" cy="592.879" r="8.39794" stroke-width="0.5" stroke="black" fill="magenta"/>
  <circle cx="500.235" cy="592.879" r="5.04681" stroke-width="0.5" stroke="black" fill="magenta"/>
   </g>
   <g id="cell13">
  <circle cx="383.713" cy="567.056" r="8.41271" stroke-width="0.5" stroke="black" fill="magenta"/>
  <circle cx="383.713" cy="567.056" r="5.05167" stroke-width="0.5" stroke="black" fill="magenta"/>
   </g>
   <g id="cell14">
  <circle cx="518.038" cy="403.376" r="8.41271" stroke-width="0.5" stroke="black" fill="magenta"/>
  <circle cx="518.038" cy="403.376" r="5.05167" stroke-width="0.5" stroke="black" fill="magenta"/>
   </g>
   <g id="cell15">
  <circle cx="381.862" cy="479.121" r="8.4045" stroke-width="0.5" stroke="black" fill="magenta"/>
  <circle cx="381.862" cy="479.121" r="5.04914" stroke-width="0.5" stroke="black" fill="magenta"/>
   </g>
   <g id="cell16">
  <circle cx="451.337" cy="417.411" r="7.21075" stroke-width="0.5" stroke="black" fill="magenta"/>
  <circle cx="451.337" cy="417.411" r="4.38755" stroke-width="0.5" stroke="black" fill="magenta"/>
   </g>
   <g id="cell17">
  <circle cx="579.124" cy="497.253" r="8.03527" stroke-width="0.5" stroke="black" fill="magenta"/>
  <circle cx="579.124" cy="497.253" r="4.86813" stroke-width="0.5" stroke="black" fill="magenta"/>
   </g>
   <g id="cell18">
  <circle cx="519.074" cy="388.471" r="8.41271" stroke-width="0.5" stroke="black" fill="magenta"/>
  <circle cx="519.074" cy="388.471" r="5.05167" stroke-width="0.5" stroke="black" fill="magenta"/>
   </g>
   <g id="cell19">
  <circle cx="457.083" cy="541.546" r="8.41084" stroke-width="0.5" stroke="black" fill="magenta"/>
  <circle cx="457.083" cy="541.546" r="5.05119" stroke-width="0.5" stroke="black" fill="magenta"/>
   </g>
   <g id="cell20">
  <circle cx="530.923" cy="412.428" r="8.41271" stroke-width="0.5" stroke="black" fill="magenta"/>
  <circle cx="530.923" cy="412.428" r="5.05167" stroke-width="0.5" stroke="black" fill="magenta"/>
   </g>
   <g id="cell21">
  <circle cx="467.537" cy="636.351" r="6.67717" stroke-width="0.5" stroke="black" fill="magenta"/>
  <circle cx="467.537" cy="636.351" r="4.00951" stroke-width="0.5" stroke="black" fill="magenta"/>
   </g>
   <g id="cell22">
  <circle cx="555.859" cy="492.112" r="6.82648" stroke-width="0.5" stroke="black" fill="magenta"/>
  <circle cx="555.859" cy="492.112" r="4.16357" stroke-width="0.5" stroke="black" fill="magenta"/>
   </g>
   <g id="cell23">
  <circle cx="552.968" cy="478.897" r="8.41271" stroke-width="0.5" stroke="black" fill="magenta"/>
  <circle cx="552.968" cy="478.897" r="5.05167" stroke-width="0.5" stroke="black" fill="magenta"/>
   </g>
   <g id="cell24">
  <circle cx="564.113" cy="383.585" r="8.41271" stroke-width="0.5" stroke="black" fill="magenta"/>
  <circle cx="564.113" cy="383.585" r="5.05167" stroke-width="0.5" stroke="black" fill="magenta"/>
   </g>
   <g id="cell25">
  <circle cx="648.234" cy="543.205" r="8.41256" stroke-width="0.5" stroke="black" fill="green"/>
  <circle cx="648.234" cy="543.205" r="5.05164" stroke-width="0.5" stroke="black" fill="green"/>
   </g>
   <g id="cell26">
  <circle cx="557.98" cy="397.813" r="8.41083" stroke-width="0.5" stroke="black" fill="green"/>
  <circle cx="557.98" cy="397.813" r="5.05118" stroke-width="0.5" stroke="black" fill="green"/>
   </g>
   <g id="cell27">
  <circle cx="463.26" cy="405.284" r="8.41262" stroke-width="0.5" stroke="black" fill="green"/>
  <circle cx="463.26" cy="405.284" r="5.05165" stroke-width="0.5" stroke="black" fill="green"/>
   </g>
   <g id="cell28">
  <circle cx="429.282" cy="540.757" r="8.35882" stroke-width="0.5" stroke="black" fill="green"/>
  <circle cx="429.282" cy="540.757" r="5.031" stroke-width="0.5" stroke="black" fill="green"/>
   </g>
   <g id="cell29">
  <circle cx="450.897" cy="518.361" r="1.78626" stroke-width="0.5" stroke="black" fill="green"/>
  <circle cx="450.897" cy="518.361" r="1.71476" stroke-width="0.5" stroke="black" fill="black"/>
   </g>
   <g id="cell30">
  <circle cx="481.053" cy="535.854" r="8.39553" stroke-width="0.5" stroke="black" fill="green"/>
  <circle cx="481.053" cy="535.854" r="5.04595" stroke-width="0.5" stroke="black" fill="green"/>
   </g>
   <g id="cell31">
  <circle cx="413.405" cy="543.072" r="8.41271" stroke-width="0.5" stroke="black" fill="green"/>
  <circle cx="413.405" cy="543.072" r="5.05167" stroke-width="0.5" stroke="black" fill="green"/>
   </g>
   <g id="cell169">
  <circle cx="519.425" cy="500.906" r="8.23422" stroke-width="0.5" stroke="black" fill="cyan"/>
  <circle cx="519.425" cy="500.906" r="4.97247" stroke-width="0.5" stroke="black" fill="cyan"/>
   </g>
   <g id="cell33">
  <circle cx="501.585" cy="423.189" r="8.3926" stroke-width="0.5" stroke="black" fill="green"/>
  <circle cx="501.585" cy="423.189" r="5.04482" stroke-width="0.5" stroke="black" fill="green"/>
   </g>
   <g id="cell168">
  <circle cx="382.939" cy="517.595" r="8.23863" stroke-width="0.5" stroke="black" fill="cyan"/>
  <circle cx="382.939" cy="517.595" r="4.9748" stroke-width="0.5" stroke="black" fill="cyan"/>
   </g>
   <g id="cell35">
  <circle cx="558.552" cy="552.969" r="8.41271" stroke-width="0.5" stroke="black" fill="green"/>
  <circle cx="558.552" cy="552.969" r="5.05167" stroke-width="0.5" stroke="black" fill="green"/>
   </g>
   <g id="cell36">
  <circle cx="387.229" cy="582.1" r="8.30953" stroke-width="0.5" stroke="black" fill="green"/>
  <circle cx="387.229" cy="582.1" r="5.01166" stroke-width="0.5" stroke="black" fill="green"/>
   </g>
   <g id="cell37">
  <circle cx="641.024" cy="456.028" r="8.4126" stroke-width="0.5" stroke="black" fill="green"/>
  <circle cx="641.024" cy="456.028" r="5.05165" stroke-width="0.5" stroke="black" fill="green"/>
   </g>
   <g id="cell38">
  <circle cx="525.892" cy="586.21" r="8.30911" stroke-width="0.5" stroke="black" fill="green"/>
  <circle cx="525.892" cy="586.21" r="5.00866" stroke-width="0.5" stroke="black" fill="green"/>
   </g>
   <g id="cell39">
  <circle cx="612.665" cy="488.475" r="8.05651" stroke-width="0.5" stroke="black" fill="green"/>
  <circle cx="612.665" cy="488.475" r="4.87966" stroke-width="0.5" stroke="black" fill="green"/>
   </g>
   <g id="cell40">
  <circle cx="486.181" cy="567.055" r="8.34884" stroke-width="0.5" stroke="black" fill="green"/>
  <circle cx="486.181" cy="567.055" r="5.02667" stroke-width="0.5" stroke="black" fill="green"/>
   </g>
   <g id="cell41">
  <circle cx="366.561" cy="482.121" r="8.41271" stroke-width="0.5" stroke="black" fill="green"/>
  <circle cx="366.561" cy="482.121" r="5.05167" stroke-width="0.5" stroke="black" fill="green"/>
   </g>
   <g id="cell42">
  <circle cx="438.377" cy="491.323" r="8.41271" stroke-width="0.5" stroke="black" fill="green"/>
  <circle cx="438.377" cy="491.323" r="5.05167" stroke-width="0.5" stroke="black" fill="green"/>
   </g>
   <g id="cell43">
  <circle cx="563.946" cy="439.389" r="8.41271" stroke-width="0.5" stroke="black" fill="green"/>
  <circle cx="563.946" cy="439.389" r="5.05167" stroke-width="0.5" stroke="black" fill="green"/>
   </g>
   <g id="cell164">
  <circle cx="398.539" cy="571.217" r="8.26861" stroke-width="0.5" stroke="black" fill="green"/>
  <circle cx="398.539" cy="571.217" r="4.99183" stroke-width="0.5" stroke="black" fill="green"/>
   </g>
   <g id="cell145">
  <circle cx="413.355" cy="420.756" r="7.12298" stroke-width="0.5" stroke="black" fill="magenta"/>
  <circle cx="413.355" cy="420.756" r="4.36162" stroke-width="0.5" stroke="black" fill="magenta"/>
   </g>
   <g id="cell46">
  <circle cx="515.878" cy="618.054" r="8.41187" stroke-width="0.5" stroke="black" fill="green"/>
  <circle cx="515.878" cy="618.054" r="5.05147" stroke-width="0.5" stroke="black" fill="green"/>
   </g>
   <g id="cell47">
  <circle cx="486.189" cy="491.099" r="8.41219" stroke-width="0.5" stroke="black" fill="green"/>
  <circle cx="486.189" cy="491.099" r="5.05155" stroke-width="0.5" stroke="black" fill="green"/>
   </g>
   <g id="cell48">
  <circle cx="576.119" cy="604.999" r="8.4108" stroke-width="0.5" stroke="black" fill="green"/>
  <circle cx="576.119" cy="604.999" r="5.05119" stroke-width="0.5" stroke="black" fill="green"/>
   </g>
   <g id="cell49">
  <circle cx="438.223" cy="390.979" r="8.23948" stroke-width="0.5" stroke="black" fill="green"/>
  <circle cx="438.223" cy="390.979" r="4.97503" stroke-width="0.5" stroke="black" fill="green"/>
   </g>
   <g id="cell50">
  <circle cx="502.439" cy="511.867" r="8.41005" stroke-width="0.5" stroke="black" fill="cyan"/>
  <circle cx="502.439" cy="511.867" r="5.05095" stroke-width="0.5" stroke="black" fill="cyan"/>
   </g>
   <g id="cell51">
  <circle cx="401.504" cy="593.502" r="7.0545" stroke-width="0.5" stroke="black" fill="cyan"/>
  <circle cx="401.504" cy="593.502" r="4.27772" stroke-width="0.5" stroke="black" fill="cyan"/>
   </g>
   <g id="cell52">
  <circle cx="516.09" cy="418.055" r="8.41271" stroke-width="0.5" stroke="black" fill="cyan"/>
  <circle cx="516.09" cy="418.055" r="5.05167" stroke-width="0.5" stroke="black" fill="cyan"/>
   </g>
   <g id="cell53">
  <circle cx="572.169" cy="425.826" r="8.412" stroke-width="0.5" stroke="black" fill="cyan"/>
  <circle cx="572.169" cy="425.826" r="5.0515" stroke-width="0.5" stroke="black" fill="cyan"/>
   </g>
   <g id="cell54">
  <circle cx="478.811" cy="418.341" r="8.41228" stroke-width="0.5" stroke="black" fill="cyan"/>
  <circle cx="478.811" cy="418.341" r="5.05157" stroke-width="0.5" stroke="black" fill="cyan"/>
   </g>
   <g id="cell55">
  <circle cx="523.134" cy="458.686" r="8.41203" stroke-width="0.5" stroke="black" fill="cyan"/>
  <circle cx="523.134" cy="458.686" r="5.05151" stroke-width="0.5" stroke="black" fill="cyan"/>
   </g>
   <g id="cell56">
  <circle cx="622.544" cy="522.614" r="8.41271" stroke-width="0.5" stroke="black" fill="cyan"/>
  <circle cx="622.544" cy="522.614" r="5.05167" stroke-width="0.5" stroke="black" fill="cyan"/>
   </g>
   <g id="cell105">
  <circle cx="503.291" cy="608.164" r="8.39083" stroke-width="0.5" stroke="black" fill="green"/>
  <circle cx="503.291" cy="608.164" r="5.04433" stroke-width="0.5" stroke="black" fill="green"/>
   </g>
   <g id="cell58">
  <circle cx="568.641" cy="478.854" r="8.35236" stroke-width="0.5" stroke="black" fill="cyan"/>
  <circle cx="568.641" cy="478.854" r="5.02821" stroke-width="0.5" stroke="black" fill="cyan"/>
   </g>
   <g id="cell59">
  <circle cx="385.732" cy="440.058" r="8.41271" stroke-width="0.5" stroke="black" fill="cyan"/>
  <circle cx="385.732" cy="440.058" r="5.05167" stroke-width="0.5" stroke="black" fill="cyan"/>
   </g>
   <g id="cell60">
  <circle cx="593.942" cy="466.517" r="8.1609" stroke-width="0.5" stroke="black" fill="cyan"/>
  <circle cx="593.942" cy="466.517" r="4.93506" stroke-width="0.5" stroke="black" fill="cyan"/>
   </g>
   <g id="cell186">
  <circle cx="354.76" cy="562.271" r="7.83794" stroke-width="0.5" stroke="black" fill="cyan"/>
  <circle cx="354.76" cy="562.271" r="4.77209" stroke-width="0.5" stroke="black" fill="cyan"/>
   </g>
   <g id="cell62">
  <circle cx="513.594" cy="433.295" r="8.12793" stroke-width="0.5" stroke="black" fill="cyan"/>
  <circle cx="513.594" cy="433.295" r="4.91831" stroke-width="0.5" stroke="black" fill="cyan"/>
   </g>
   <g id="cell63">
  <circle cx="586.883" cy="539.428" r="8.40365" stroke-width="0.5" stroke="black" fill="cyan"/>
  <circle cx="586.883" cy="539.428" r="5.04887" stroke-width="0.5" stroke="black" fill="cyan"/>
   </g>
   <g id="cell64">
  <circle cx="509.513" cy="638.586" r="8.41271" stroke-width="0.5" stroke="black" fill="cyan"/>
  <circle cx="509.513" cy="638.586" r="5.05167" stroke-width="0.5" stroke="black" fill="cyan"/>
   </g>
   <g id="cell65">
  <circle cx="546.469" cy="465.092" r="8.41242" stroke-width="0.5" stroke="black" fill="cyan"/>
  <circle cx="546.469" cy="465.092" r="5.05161" stroke-width="0.5" stroke="black" fill="cyan"/>
   </g>
   <g id="cell66">
  <circle cx="535.873" cy="534.801" r="8.41225" stroke-width="0.5" stroke="black" fill="cyan"/>
  <circle cx="535.873" cy="534.801" r="5.05156" stroke-width="0.5" stroke="black" fill="cyan"/>
   </g>
   <g id="cell67">
  <circle cx="354.66" cy="492.852" r="8.41271" stroke-width="0.5" stroke="black" fill="cyan"/>
  <circle cx="354.66" cy="492.852" r="5.05167" stroke-width="0.5" stroke="black" fill="cyan"/>
   </g>
   <g id="cell68">
  <circle cx="555.421" cy="561.647" r="1.41604" stroke-width="0.5" stroke="black" fill="cyan"/>
  <circle cx="555.421" cy="561.647" r="1.40242" stroke-width="0.5" stroke="black" fill="black"/>
   </g>
   <g id="cell69">
  <circle cx="441.755" cy="461.547" r="8.41271" stroke-width="0.5" stroke="black" fill="cyan"/>
  <circle cx="441.755" cy="461.547" r="5.05167" stroke-width="0.5" stroke="black" fill="cyan"/>
   </g>
   <g id="cell70">
  <circle cx="583.893" cy="482.514" r="8.41271" stroke-width="0.5" stroke="black" fill="cyan"/>
  <circle cx="583.893" cy="482.514" r="5.05167" stroke-width="0.5" stroke="black" fill="cyan"/>
   </g>
   <g id="cell71">
  <circle cx="383.058" cy="532.858" r="2.03547" stroke-width="0.5" stroke="black" fill="cyan"/>
  <circle cx="383.058" cy="532.858" r="1.90826" stroke-width="0.5" stroke="black" fill="black"/>
   </g>
   <g id="cell72">
  <circle cx="534.287" cy="503.636" r="8.23422" stroke-width="0.5" stroke="black" fill="cyan"/>
  <circle cx="534.287" cy="503.636" r="4.97247" stroke-width="0.5" stroke="black" fill="cyan"/>
   </g>
   <g id="cell73">
  <circle cx="366.304" cy="550.36" r="6.80873" stroke-width="0.5" stroke="black" fill="cyan"/>
  <circle cx="366.304" cy="550.36" r="4.15422" stroke-width="0.5" stroke="black" fill="cyan"/>
   </g>
   <g id="cell162">
  <circle cx="374.863" cy="537.959" r="8.30918" stroke-width="0.5" stroke="black" fill="magenta"/>
  <circle cx="374.863" cy="537.959" r="5.00867" stroke-width="0.5" stroke="black" fill="magenta"/>
   </g>
   <g id="cell75">
  <circle cx="527.883" cy="427.845" r="8.41262" stroke-width="0.5" stroke="black" fill="cyan"/>
  <circle cx="527.883" cy="427.845" r="5.05165" stroke-width="0.5" stroke="black" fill="cyan"/>
   </g>
   <g id="cell76">
  <circle cx="437.276" cy="375.134" r="8.41136" stroke-width="0.5" stroke="black" fill="green"/>
  <circle cx="437.276" cy="375.134" r="5.05134" stroke-width="0.5" stroke="black" fill="green"/>
   </g>
   <g id="cell77">
  <circle cx="470.713" cy="446.811" r="8.41167" stroke-width="0.5" stroke="black" fill="magenta"/>
  <circle cx="470.713" cy="446.811" r="5.05141" stroke-width="0.5" stroke="black" fill="magenta"/>
   </g>
   <g id="cell78">
  <circle cx="625.832" cy="461.021" r="8.41236" stroke-width="0.5" stroke="black" fill="green"/>
  <circle cx="625.832" cy="461.021" r="5.05159" stroke-width="0.5" stroke="black" fill="green"/>
   </g>
   <g id="cell79">
  <circle cx="519.269" cy="473.772" r="8.41259" stroke-width="0.5" stroke="black" fill="cyan"/>
  <circle cx="519.269" cy="473.772" r="5.05165" stroke-width="0.5" stroke="black" fill="cyan"/>
   </g>
   <g id="cell80">
  <circle cx="542.299" cy="629.596" r="7.51721" stroke-width="0.5" stroke="black" fill="green"/>
  <circle cx="542.299" cy="629.596" r="4.56994" stroke-width="0.5" stroke="black" fill="green"/>
   </g>
   <g id="cell81">
  <circle cx="547.661" cy="586.795" r="8.41251" stroke-width="0.5" stroke="black" fill="green"/>
  <circle cx="547.661" cy="586.795" r="5.05163" stroke-width="0.5" stroke="black" fill="green"/>
   </g>
   <g id="cell82">
  <circle cx="531.179" cy="560.444" r="8.38883" stroke-width="0.5" stroke="black" fill="magenta"/>
  <circle cx="531.179" cy="560.444" r="5.04338" stroke-width="0.5" stroke="black" fill="magenta"/>
   </g>
   <g id="cell83">
  <circle cx="635.468" cy="552.193" r="1.44949" stroke-width="0.5" stroke="black" fill="green"/>
  <circle cx="635.468" cy="552.193" r="1.43361" stroke-width="0.5" stroke="black" fill="black"/>
   </g>
   <g id="cell84">
  <circle cx="512.752" cy="487.71" r="7.96352" stroke-width="0.5" stroke="black" fill="cyan"/>
  <circle cx="512.752" cy="487.71" r="4.8287" stroke-width="0.5" stroke="black" fill="cyan"/>
   </g>
   <g id="cell85">
  <circle cx="347.07" cy="541.5" r="8.41205" stroke-width="0.5" stroke="black" fill="cyan"/>
  <circle cx="347.07" cy="541.5" r="5.05152" stroke-width="0.5" stroke="black" fill="cyan"/>
   </g>
   <g id="cell86">
  <circle cx="496.339" cy="538.141" r="8.40814" stroke-width="0.5" stroke="black" fill="magenta"/>
  <circle cx="496.339" cy="538.141" r="5.05036" stroke-width="0.5" stroke="black" fill="magenta"/>
   </g>
   <g id="cell87">
  <circle cx="576.715" cy="557.657" r="8.41178" stroke-width="0.5" stroke="black" fill="cyan"/>
  <circle cx="576.715" cy="557.657" r="5.05145" stroke-width="0.5" stroke="black" fill="cyan"/>
   </g>
   <g id="cell88">
  <circle cx="443.514" cy="535.07" r="8.31075" stroke-width="0.5" stroke="black" fill="magenta"/>
  <circle cx="443.514" cy="535.07" r="5.01147" stroke-width="0.5" stroke="black" fill="magenta"/>
   </g>
   <g id="cell89">
  <circle cx="554.572" cy="451.823" r="8.38238" stroke-width="0.5" stroke="black" fill="cyan"/>
  <circle cx="554.572" cy="451.823" r="5.04129" stroke-width="0.5" stroke="black" fill="cyan"/>
   </g>
   <g id="cell90">
  <circle cx="637.866" cy="471.698" r="8.40615" stroke-width="0.5" stroke="black" fill="green"/>
  <circle cx="637.866" cy="471.698" r="5.04972" stroke-width="0.5" stroke="black" fill="green"/>
   </g>
   <g id="cell91">
  <circle cx="546.48" cy="562.971" r="8.41214" stroke-width="0.5" stroke="black" fill="magenta"/>
  <circle cx="546.48" cy="562.971" r="5.05154" stroke-width="0.5" stroke="black" fill="magenta"/>
   </g>
   <g id="cell92">
  <circle cx="487.171" cy="550.818" r="8.41234" stroke-width="0.5" stroke="black" fill="green"/>
  <circle cx="487.171" cy="550.818" r="5.05159" stroke-width="0.5" stroke="black" fill="green"/>
   </g>
   <g id="cell93">
  <circle cx="540.744" cy="549.215" r="8.41214" stroke-width="0.5" stroke="black" fill="magenta"/>
  <circle cx="540.744" cy="549.215" r="5.05154" stroke-width="0.5" stroke="black" fill="magenta"/>
   </g>
   <g id="cell94">
  <circle cx="542.119" cy="490.217" r="8.41229" stroke-width="0.5" stroke="black" fill="cyan"/>
  <circle cx="542.119" cy="490.217" r="5.05157" stroke-width="0.5" stroke="black" fill="cyan"/>
   </g>
   <g id="cell95">
  <circle cx="464.261" cy="420.333" r="7.5441" stroke-width="0.5" stroke="black" fill="cyan"/>
  <circle cx="464.261" cy="420.333" r="4.58548" stroke-width="0.5" stroke="black" fill="cyan"/>
   </g>
   <g id="cell96">
  <circle cx="551.98" cy="539.037" r="8.40034" stroke-width="0.5" stroke="black" fill="cyan"/>
  <circle cx="551.98" cy="539.037" r="5.04771" stroke-width="0.5" stroke="black" fill="cyan"/>
   </g>
   <g id="cell97">
  <circle cx="420.563" cy="464.161" r="8.41184" stroke-width="0.5" stroke="black" fill="green"/>
  <circle cx="420.563" cy="464.161" r="5.05147" stroke-width="0.5" stroke="black" fill="green"/>
   </g>
   <g id="cell98">
  <circle cx="491.219" cy="523.22" r="8.40719" stroke-width="0.5" stroke="black" fill="green"/>
  <circle cx="491.219" cy="523.22" r="5.05007" stroke-width="0.5" stroke="black" fill="green"/>
   </g>
   <g id="cell99">
  <circle cx="363.904" cy="525.544" r="8.41205" stroke-width="0.5" stroke="black" fill="cyan"/>
  <circle cx="363.904" cy="525.544" r="5.05152" stroke-width="0.5" stroke="black" fill="cyan"/>
   </g>
   <g id="cell100">
  <circle cx="447.336" cy="403.738" r="8.41204" stroke-width="0.5" stroke="black" fill="green"/>
  <circle cx="447.336" cy="403.738" r="5.05151" stroke-width="0.5" stroke="black" fill="green"/>
   </g>
   <g id="cell101">
  <circle cx="527.269" cy="487.424" r="7.85511" stroke-width="0.5" stroke="black" fill="cyan"/>
  <circle cx="527.269" cy="487.424" r="4.76947" stroke-width="0.5" stroke="black" fill="cyan"/>
   </g>
   <g id="cell102">
  <circle cx="440.62" cy="476.871" r="6.80815" stroke-width="0.5" stroke="black" fill="green"/>
  <circle cx="440.62" cy="476.871" r="4.10693" stroke-width="0.5" stroke="black" fill="green"/>
   </g>
   <g id="cell103">
  <circle cx="593.009" cy="449.379" r="8.40803" stroke-width="0.5" stroke="black" fill="cyan"/>
  <circle cx="593.009" cy="449.379" r="5.05034" stroke-width="0.5" stroke="black" fill="cyan"/>
   </g>
   <g id="cell104">
  <circle cx="606.065" cy="554.733" r="7.99466" stroke-width="0.5" stroke="black" fill="cyan"/>
  <circle cx="606.065" cy="554.733" r="4.84921" stroke-width="0.5" stroke="black" fill="cyan"/>
   </g>
   <g id="cell106">
  <circle cx="455.314" cy="446.998" r="8.41167" stroke-width="0.5" stroke="black" fill="magenta"/>
  <circle cx="455.314" cy="446.998" r="5.05141" stroke-width="0.5" stroke="black" fill="magenta"/>
   </g>
   <g id="cell107">
  <circle cx="465.389" cy="389.535" r="8.27279" stroke-width="0.5" stroke="black" fill="green"/>
  <circle cx="465.389" cy="389.535" r="4.99451" stroke-width="0.5" stroke="black" fill="green"/>
   </g>
   <g id="cell108">
  <circle cx="560.621" cy="607.897" r="8.41151" stroke-width="0.5" stroke="black" fill="green"/>
  <circle cx="560.621" cy="607.897" r="5.05137" stroke-width="0.5" stroke="black" fill="green"/>
   </g>
   <g id="cell109">
  <circle cx="576.595" cy="589.027" r="8.4108" stroke-width="0.5" stroke="black" fill="green"/>
  <circle cx="576.595" cy="589.027" r="5.05119" stroke-width="0.5" stroke="black" fill="green"/>
   </g>
   <g id="cell110">
  <circle cx="368.832" cy="510.38" r="8.41108" stroke-width="0.5" stroke="black" fill="cyan"/>
  <circle cx="368.832" cy="510.38" r="5.05125" stroke-width="0.5" stroke="black" fill="cyan"/>
   </g>
   <g id="cell111">
  <circle cx="457.934" cy="556.636" r="8.39893" stroke-width="0.5" stroke="black" fill="magenta"/>
  <circle cx="457.934" cy="556.636" r="5.04727" stroke-width="0.5" stroke="black" fill="magenta"/>
   </g>
   <g id="cell112">
  <circle cx="493.388" cy="467.533" r="8.37843" stroke-width="0.5" stroke="black" fill="magenta"/>
  <circle cx="493.388" cy="467.533" r="5.03936" stroke-width="0.5" stroke="black" fill="magenta"/>
   </g>
   <g id="cell113">
  <circle cx="548.737" cy="381.457" r="8.38587" stroke-width="0.5" stroke="black" fill="green"/>
  <circle cx="548.737" cy="381.457" r="5.04233" stroke-width="0.5" stroke="black" fill="green"/>
   </g>
   <g id="cell114">
  <circle cx="525.726" cy="443.128" r="8.40955" stroke-width="0.5" stroke="black" fill="cyan"/>
  <circle cx="525.726" cy="443.128" r="5.05083" stroke-width="0.5" stroke="black" fill="cyan"/>
   </g>
   <g id="cell115">
  <circle cx="538.288" cy="452.115" r="8.40142" stroke-width="0.5" stroke="black" fill="cyan"/>
  <circle cx="538.288" cy="452.115" r="5.0482" stroke-width="0.5" stroke="black" fill="cyan"/>
   </g>
   <g id="cell116">
  <circle cx="520.987" cy="531.063" r="8.0751" stroke-width="0.5" stroke="black" fill="cyan"/>
  <circle cx="520.987" cy="531.063" r="4.89005" stroke-width="0.5" stroke="black" fill="cyan"/>
   </g>
   <g id="cell117">
  <circle cx="501.665" cy="624.563" r="8.40919" stroke-width="0.5" stroke="black" fill="green"/>
  <circle cx="501.665" cy="624.563" r="5.05071" stroke-width="0.5" stroke="black" fill="green"/>
   </g>
   <g id="cell118">
  <circle cx="511.125" cy="448.589" r="8.40869" stroke-width="0.5" stroke="black" fill="cyan"/>
  <circle cx="511.125" cy="448.589" r="5.05053" stroke-width="0.5" stroke="black" fill="cyan"/>
   </g>
   <g id="cell119">
  <circle cx="546.331" cy="602.387" r="8.1279" stroke-width="0.5" stroke="black" fill="green"/>
  <circle cx="546.331" cy="602.387" r="4.9183" stroke-width="0.5" stroke="black" fill="green"/>
   </g>
   <g id="cell120">
  <circle cx="579.917" cy="439.983" r="8.40803" stroke-width="0.5" stroke="black" fill="cyan"/>
  <circle cx="579.917" cy="439.983" r="5.05034" stroke-width="0.5" stroke="black" fill="cyan"/>
   </g>
   <g id="cell121">
  <circle cx="450.729" cy="366.419" r="8.40286" stroke-width="0.5" stroke="black" fill="green"/>
  <circle cx="450.729" cy="366.419" r="5.04873" stroke-width="0.5" stroke="black" fill="green"/>
   </g>
   <g id="cell122">
  <circle cx="506.451" cy="527.126" r="8.40814" stroke-width="0.5" stroke="black" fill="magenta"/>
  <circle cx="506.451" cy="527.126" r="5.05036" stroke-width="0.5" stroke="black" fill="magenta"/>
   </g>
   <g id="cell123">
  <circle cx="487.477" cy="507.121" r="8.40719" stroke-width="0.5" stroke="black" fill="green"/>
  <circle cx="487.477" cy="507.121" r="5.05007" stroke-width="0.5" stroke="black" fill="green"/>
   </g>
   <g id="cell124">
  <circle cx="488.519" cy="429.338" r="7.67669" stroke-width="0.5" stroke="black" fill="magenta"/>
  <circle cx="488.519" cy="429.338" r="4.66518" stroke-width="0.5" stroke="black" fill="magenta"/>
   </g>
   <g id="cell125">
  <circle cx="622.726" cy="476.649" r="8.40615" stroke-width="0.5" stroke="black" fill="green"/>
  <circle cx="622.726" cy="476.649" r="5.04972" stroke-width="0.5" stroke="black" fill="green"/>
   </g>
   <g id="cell126">
  <circle cx="628.988" cy="566.353" r="8.40607" stroke-width="0.5" stroke="black" fill="green"/>
  <circle cx="628.988" cy="566.353" r="5.04968" stroke-width="0.5" stroke="black" fill="green"/>
   </g>
   <g id="cell127">
  <circle cx="436.504" cy="359.139" r="8.40286" stroke-width="0.5" stroke="black" fill="green"/>
  <circle cx="436.504" cy="359.139" r="5.04873" stroke-width="0.5" stroke="black" fill="green"/>
   </g>
   <g id="cell128">
  <circle cx="372.115" cy="467.551" r="8.4045" stroke-width="0.5" stroke="black" fill="magenta"/>
  <circle cx="372.115" cy="467.551" r="5.04914" stroke-width="0.5" stroke="black" fill="magenta"/>
   </g>
   <g id="cell129">
  <circle cx="571.108" cy="542.679" r="8.40365" stroke-width="0.5" stroke="black" fill="cyan"/>
  <circle cx="571.108" cy="542.679" r="5.04887" stroke-width="0.5" stroke="black" fill="cyan"/>
   </g>
   <g id="cell130">
  <circle cx="546.436" cy="438.368" r="8.40142" stroke-width="0.5" stroke="black" fill="cyan"/>
  <circle cx="546.436" cy="438.368" r="5.0482" stroke-width="0.5" stroke="black" fill="cyan"/>
   </g>
   <g id="cell131">
  <circle cx="543.101" cy="513.807" r="6.65255" stroke-width="0.5" stroke="black" fill="cyan"/>
  <circle cx="543.101" cy="513.807" r="4.09809" stroke-width="0.5" stroke="black" fill="cyan"/>
   </g>
   <g id="cell132">
  <circle cx="444.31" cy="549.938" r="8.39893" stroke-width="0.5" stroke="black" fill="magenta"/>
  <circle cx="444.31" cy="549.938" r="5.04727" stroke-width="0.5" stroke="black" fill="magenta"/>
   </g>
   <g id="cell133">
  <circle cx="578.424" cy="467.007" r="8.39972" stroke-width="0.5" stroke="black" fill="cyan"/>
  <circle cx="578.424" cy="467.007" r="5.04748" stroke-width="0.5" stroke="black" fill="cyan"/>
   </g>
   <g id="cell201">
  <circle cx="555.572" cy="514.85" r="6.65255" stroke-width="0.5" stroke="black" fill="cyan"/>
  <circle cx="555.572" cy="514.85" r="4.09809" stroke-width="0.5" stroke="black" fill="cyan"/>
   </g>
   <g id="cell135">
  <circle cx="511.13" cy="582.559" r="8.39794" stroke-width="0.5" stroke="black" fill="magenta"/>
  <circle cx="511.13" cy="582.559" r="5.04681" stroke-width="0.5" stroke="black" fill="magenta"/>
   </g>
   <g id="cell136">
  <circle cx="471.206" cy="548.462" r="8.39553" stroke-width="0.5" stroke="black" fill="green"/>
  <circle cx="471.206" cy="548.462" r="5.04595" stroke-width="0.5" stroke="black" fill="green"/>
   </g>
   <g id="cell137">
  <circle cx="488.85" cy="615.302" r="8.39083" stroke-width="0.5" stroke="black" fill="green"/>
  <circle cx="488.85" cy="615.302" r="5.04433" stroke-width="0.5" stroke="black" fill="green"/>
   </g>
   <g id="cell138">
  <circle cx="503.322" cy="407.6" r="8.3926" stroke-width="0.5" stroke="black" fill="green"/>
  <circle cx="503.322" cy="407.6" r="5.04482" stroke-width="0.5" stroke="black" fill="green"/>
   </g>
   <g id="cell139">
  <circle cx="416.91" cy="407.189" r="8.38957" stroke-width="0.5" stroke="black" fill="magenta"/>
  <circle cx="416.91" cy="407.189" r="5.04365" stroke-width="0.5" stroke="black" fill="magenta"/>
   </g>
   <g id="cell140">
  <circle cx="521.506" cy="571.635" r="8.36827" stroke-width="0.5" stroke="black" fill="magenta"/>
  <circle cx="521.506" cy="571.635" r="5.0358" stroke-width="0.5" stroke="black" fill="magenta"/>
   </g>
   <g id="cell141">
  <circle cx="571.035" cy="453.161" r="8.38238" stroke-width="0.5" stroke="black" fill="cyan"/>
  <circle cx="571.035" cy="453.161" r="5.04129" stroke-width="0.5" stroke="black" fill="cyan"/>
   </g>
   <g id="cell142">
  <circle cx="541.98" cy="423.456" r="8.06497" stroke-width="0.5" stroke="black" fill="green"/>
  <circle cx="541.98" cy="423.456" r="4.89123" stroke-width="0.5" stroke="black" fill="green"/>
   </g>
   <g id="cell143">
  <circle cx="431.901" cy="405.208" r="8.37519" stroke-width="0.5" stroke="black" fill="magenta"/>
  <circle cx="431.901" cy="405.208" r="5.03855" stroke-width="0.5" stroke="black" fill="magenta"/>
   </g>
   <g id="cell144">
  <circle cx="547.056" cy="409.364" r="8.31836" stroke-width="0.5" stroke="black" fill="green"/>
  <circle cx="547.056" cy="409.364" r="5.01503" stroke-width="0.5" stroke="black" fill="green"/>
   </g>
   <g id="cell185">
  <circle cx="592.056" cy="560.614" r="7.99466" stroke-width="0.5" stroke="black" fill="cyan"/>
  <circle cx="592.056" cy="560.614" r="4.84921" stroke-width="0.5" stroke="black" fill="cyan"/>
   </g>
   <g id="cell147">
  <circle cx="516.063" cy="557.406" r="8.36827" stroke-width="0.5" stroke="black" fill="magenta"/>
  <circle cx="516.063" cy="557.406" r="5.0358" stroke-width="0.5" stroke="black" fill="magenta"/>
   </g>
   <g id="cell148">
  <circle cx="507.832" cy="462.984" r="7.82708" stroke-width="0.5" stroke="black" fill="magenta"/>
  <circle cx="507.832" cy="462.984" r="4.75562" stroke-width="0.5" stroke="black" fill="magenta"/>
   </g>
   <g id="cell149">
  <circle cx="573.175" cy="395.731" r="8.36972" stroke-width="0.5" stroke="black" fill="magenta"/>
  <circle cx="573.175" cy="395.731" r="5.03563" stroke-width="0.5" stroke="black" fill="magenta"/>
   </g>
   <g id="cell150">
  <circle cx="410.077" cy="581.832" r="8.26861" stroke-width="0.5" stroke="black" fill="green"/>
  <circle cx="410.077" cy="581.832" r="4.99183" stroke-width="0.5" stroke="black" fill="green"/>
   </g>
   <g id="cell151">
  <circle cx="419.06" cy="528.203" r="8.35882" stroke-width="0.5" stroke="black" fill="green"/>
  <circle cx="419.06" cy="528.203" r="5.031" stroke-width="0.5" stroke="black" fill="green"/>
   </g>
   <g id="cell152">
  <circle cx="372.156" cy="578.155" r="8.33135" stroke-width="0.5" stroke="black" fill="green"/>
  <circle cx="372.156" cy="578.155" r="5.02044" stroke-width="0.5" stroke="black" fill="green"/>
   </g>
   <g id="cell153">
  <circle cx="561.83" cy="465.613" r="8.35236" stroke-width="0.5" stroke="black" fill="cyan"/>
  <circle cx="561.83" cy="465.613" r="5.02821" stroke-width="0.5" stroke="black" fill="cyan"/>
   </g>
   <g id="cell154">
  <circle cx="387.593" cy="597.809" r="8.30953" stroke-width="0.5" stroke="black" fill="green"/>
  <circle cx="387.593" cy="597.809" r="5.01166" stroke-width="0.5" stroke="black" fill="green"/>
   </g>
   <g id="cell155">
  <circle cx="487.997" cy="583.119" r="8.34884" stroke-width="0.5" stroke="black" fill="green"/>
  <circle cx="487.997" cy="583.119" r="5.02667" stroke-width="0.5" stroke="black" fill="green"/>
   </g>
   <g id="cell156">
  <circle cx="455.612" cy="526.403" r="8.34869" stroke-width="0.5" stroke="black" fill="magenta"/>
  <circle cx="455.612" cy="526.403" r="5.02663" stroke-width="0.5" stroke="black" fill="magenta"/>
   </g>
   <g id="cell157">
  <circle cx="441.849" cy="520.287" r="8.31075" stroke-width="0.5" stroke="black" fill="magenta"/>
  <circle cx="441.849" cy="520.287" r="5.01147" stroke-width="0.5" stroke="black" fill="magenta"/>
   </g>
   <g id="cell158">
  <circle cx="563.19" cy="412.533" r="8.32244" stroke-width="0.5" stroke="black" fill="green"/>
  <circle cx="563.19" cy="412.533" r="5.01685" stroke-width="0.5" stroke="black" fill="green"/>
   </g>
   <g id="cell159">
  <circle cx="530.696" cy="397.852" r="7.31435" stroke-width="0.5" stroke="black" fill="green"/>
  <circle cx="530.696" cy="397.852" r="4.47839" stroke-width="0.5" stroke="black" fill="green"/>
   </g>
   <g id="cell160">
  <circle cx="464.817" cy="373.781" r="8.33002" stroke-width="0.5" stroke="black" fill="green"/>
  <circle cx="464.817" cy="373.781" r="5.01869" stroke-width="0.5" stroke="black" fill="green"/>
   </g>
   <g id="cell165">
  <circle cx="608.139" cy="525.843" r="7.53108" stroke-width="0.5" stroke="black" fill="magenta"/>
  <circle cx="608.139" cy="525.843" r="4.59093" stroke-width="0.5" stroke="black" fill="magenta"/>
   </g>
   <g id="cell166">
  <circle cx="482.001" cy="457.66" r="8.25731" stroke-width="0.5" stroke="black" fill="magenta"/>
  <circle cx="482.001" cy="457.66" r="4.98403" stroke-width="0.5" stroke="black" fill="magenta"/>
   </g>
   <g id="cell167">
  <circle cx="422.735" cy="392.947" r="8.23948" stroke-width="0.5" stroke="black" fill="green"/>
  <circle cx="422.735" cy="392.947" r="4.97503" stroke-width="0.5" stroke="black" fill="green"/>
   </g>
   <g id="cell170">
  <circle cx="460.091" cy="503.527" r="8.20088" stroke-width="0.5" stroke="black" fill="green"/>
  <circle cx="460.091" cy="503.527" r="4.95562" stroke-width="0.5" stroke="black" fill="green"/>
   </g>
   <g id="cell171">
  <circle cx="599.423" cy="480.981" r="8.1609" stroke-width="0.5" stroke="black" fill="cyan"/>
  <circle cx="599.423" cy="480.981" r="4.93506" stroke-width="0.5" stroke="black" fill="cyan"/>
   </g>
   <g id="cell172">
  <circle cx="549.481" cy="502.986" r="7.93968" stroke-width="0.5" stroke="black" fill="magenta"/>
  <circle cx="549.481" cy="502.986" r="4.82695" stroke-width="0.5" stroke="black" fill="magenta"/>
   </g>
   <g id="cell173">
  <circle cx="531.375" cy="519.993" r="8.12346" stroke-width="0.5" stroke="black" fill="cyan"/>
  <circle cx="531.375" cy="519.993" r="4.91678" stroke-width="0.5" stroke="black" fill="cyan"/>
   </g>
   <g id="cell174">
  <circle cx="499.56" cy="438.568" r="8.12793" stroke-width="0.5" stroke="black" fill="cyan"/>
  <circle cx="499.56" cy="438.568" r="4.91831" stroke-width="0.5" stroke="black" fill="cyan"/>
   </g>
   <g id="cell175">
  <circle cx="524.871" cy="607.256" r="6.91653" stroke-width="0.5" stroke="black" fill="green"/>
  <circle cx="524.871" cy="607.256" r="4.2501" stroke-width="0.5" stroke="black" fill="green"/>
   </g>
   <g id="cell176">
  <circle cx="556.51" cy="426.262" r="8.06497" stroke-width="0.5" stroke="black" fill="green"/>
  <circle cx="556.51" cy="426.262" r="4.89123" stroke-width="0.5" stroke="black" fill="green"/>
   </g>
   <g id="cell177">
  <circle cx="369.465" cy="563.403" r="7.83794" stroke-width="0.5" stroke="black" fill="cyan"/>
  <circle cx="369.465" cy="563.403" r="4.77209" stroke-width="0.5" stroke="black" fill="cyan"/>
   </g>
   <g id="cell178">
  <circle cx="563.649" cy="504.051" r="7.93968" stroke-width="0.5" stroke="black" fill="magenta"/>
  <circle cx="563.649" cy="504.051" r="4.82695" stroke-width="0.5" stroke="black" fill="magenta"/>
   </g>
   <g id="cell179">
  <circle cx="517.051" cy="516.063" r="8.0751" stroke-width="0.5" stroke="black" fill="cyan"/>
  <circle cx="517.051" cy="516.063" r="4.89005" stroke-width="0.5" stroke="black" fill="cyan"/>
   </g>
   <g id="cell180">
  <circle cx="619.196" cy="502.175" r="8.05651" stroke-width="0.5" stroke="black" fill="green"/>
  <circle cx="619.196" cy="502.175" r="4.87966" stroke-width="0.5" stroke="black" fill="green"/>
   </g>
   <g id="cell181">
  <circle cx="561.601" cy="527.048" r="7.89032" stroke-width="0.5" stroke="black" fill="cyan"/>
  <circle cx="561.601" cy="527.048" r="4.80118" stroke-width="0.5" stroke="black" fill="cyan"/>
   </g>
   <g id="cell182">
  <circle cx="533.493" cy="383.932" r="7.99472" stroke-width="0.5" stroke="black" fill="green"/>
  <circle cx="533.493" cy="383.932" r="4.85379" stroke-width="0.5" stroke="black" fill="green"/>
   </g>
   <g id="cell183">
  <circle cx="576.15" cy="511.233" r="8.03527" stroke-width="0.5" stroke="black" fill="magenta"/>
  <circle cx="576.15" cy="511.233" r="4.86813" stroke-width="0.5" stroke="black" fill="magenta"/>
   </g>
   <g id="cell184">
  <circle cx="432.069" cy="429.259" r="7.38987" stroke-width="0.5" stroke="black" fill="magenta"/>
  <circle cx="432.069" cy="429.259" r="4.52126" stroke-width="0.5" stroke="black" fill="magenta"/>
   </g>
   <g id="cell187">
  <circle cx="500.77" cy="496.491" r="7.96352" stroke-width="0.5" stroke="black" fill="cyan"/>
  <circle cx="500.77" cy="496.491" r="4.8287" stroke-width="0.5" stroke="black" fill="cyan"/>
   </g>
   <g id="cell188">
  <circle cx="534.01" cy="617.662" r="7.71834" stroke-width="0.5" stroke="black" fill="green"/>
  <circle cx="534.01" cy="617.662" r="4.70554" stroke-width="0.5" stroke="black" fill="green"/>
   </g>
   <g id="cell189">
  <circle cx="536.902" cy="476.308" r="7.85511" stroke-width="0.5" stroke="black" fill="cyan"/>
  <circle cx="536.902" cy="476.308" r="4.76947" stroke-width="0.5" stroke="black" fill="cyan"/>
   </g>
   <g id="cell190">
  <circle cx="547.188" cy="525.569" r="7.57136" stroke-width="0.5" stroke="black" fill="cyan"/>
  <circle cx="547.188" cy="525.569" r="4.63167" stroke-width="0.5" stroke="black" fill="cyan"/>
   </g>
   <g id="cell191">
  <circle cx="504.468" cy="476.414" r="7.82708" stroke-width="0.5" stroke="black" fill="magenta"/>
  <circle cx="504.468" cy="476.414" r="4.75562" stroke-width="0.5" stroke="black" fill="magenta"/>
   </g>
   <g id="cell192">
  <circle cx="475.511" cy="432.997" r="7.67669" stroke-width="0.5" stroke="black" fill="magenta"/>
  <circle cx="475.511" cy="432.997" r="4.66518" stroke-width="0.5" stroke="black" fill="magenta"/>
   </g>
   <g id="cell193">
  <circle cx="438.542" cy="417.613" r="7.38987" stroke-width="0.5" stroke="black" fill="magenta"/>
  <circle cx="438.542" cy="417.613" r="4.52126" stroke-width="0.5" stroke="black" fill="magenta"/>
   </g>
   <g id="cell194">
  <circle cx="601.858" cy="513.846" r="7.53108" stroke-width="0.5" stroke="black" fill="magenta"/>
  <circle cx="601.858" cy="513.846" r="4.59093" stroke-width="0.5" stroke="black" fill="magenta"/>
   </g>
   <g id="cell195">
  <circle cx="543.697" cy="395.133" r="7.31435" stroke-width="0.5" stroke="black" fill="green"/>
  <circle cx="543.697" cy="395.133" r="4.47839" stroke-width="0.5" stroke="black" fill="green"/>
   </g>
   <g id="cell196">
  <circle cx="461.921" cy="434.216" r="7.5441" stroke-width="0.5" stroke="black" fill="cyan"/>
  <circle cx="461.921" cy="434.216" r="4.58548" stroke-width="0.5" stroke="black" fill="cyan"/>
   </g>
   <g id="cell197">
  <circle cx="548.487" cy="616.892" r="7.51721" stroke-width="0.5" stroke="black" fill="green"/>
  <circle cx="548.487" cy="616.892" r="4.56994" stroke-width="0.5" stroke="black" fill="green"/>
   </g>
   <g id="cell198">
  <circle cx="425.725" cy="417.844" r="7.12298" stroke-width="0.5" stroke="black" fill="magenta"/>
  <circle cx="425.725" cy="417.844" r="4.36162" stroke-width="0.5" stroke="black" fill="magenta"/>
   </g>
   <g id="cell199">
  <circle cx="533.359" cy="597.881" r="6.91653" stroke-width="0.5" stroke="black" fill="green"/>
  <circle cx="533.359" cy="597.881" r="4.2501" stroke-width="0.5" stroke="black" fill="green"/>
   </g>
   <g id="cell200">
  <circle cx="445.26" cy="428.952" r="7.21075" stroke-width="0.5" stroke="black" fill="magenta"/>
  <circle cx="445.26" cy="428.952" r="4.38755" stroke-width="0.5" stroke="black" fill="magenta"/>
   </g>
   <g id="cell202">
  <circle cx="403.165" cy="606.744" r="7.0545" stroke-width="0.5" stroke="black" fill="cyan"/>
  <circle cx="403.165" cy="606.744" r="4.27772" stroke-width="0.5" stroke="black" fill="cyan"/>
   </g>
   <g id="cell203">
  <circle cx="361.039" cy="539.206" r="6.80873" stroke-width="0.5" stroke="black" fill="cyan"/>
  <circle cx="361.039" cy="539.206" r="4.15422" stroke-width="0.5" stroke="black" fill="cyan"/>
   </g>
   <g id="cell204">
  <circle cx="567.5" cy="491.916" r="6.82648" stroke-width="0.5" stroke="black" fill="magenta"/>
  <circle cx="567.5" cy="491.916" r="4.16357" stroke-width="0.5" stroke="black" fill="magenta"/>
   </g>
   <g id="cell205">
  <circle cx="427.729" cy="476.685" r="6.80815" stroke-width="0.5" stroke="black" fill="green"/>
  <circle cx="427.729" cy="476.685" r="4.10693" stroke-width="0.5" stroke="black" fill="green"/>
   </g>
   <g id="cell206">
  <circle cx="465.67" cy="624.694" r="6.67717" stroke-width="0.5" stroke="black" fill="magenta"/>
  <circle cx="465.67" cy="624.694" r="4.00951" stroke-width="0.5" stroke="black" fill="magenta"/>
   </g>
  </g>
 </g>
  <rect x="775" y="1035" width="200" height="10" stroke-width="2" stroke="rgb(255,255,255)" fill="rgb(0,0,0)"/>
  <text x="781.25" y="1028.75"
   font-family="Arial" font-size="25" fill="black" >
   200 &#956;m
  </text>
  <text x="25" y="1045"
   font-family="Arial" font-size="18.75" fill="black" >
   0 days, 0 hours, 0 minutes, and 45.1117 seconds
  </text>
  <rect x="0" y="70" width="1000" height="1000" stroke-width="2" stroke="rgb(0,0,0)" fill="none"/>
</svg>
