<?xml version="1.0" encoding="UTF-8" standalone="no"?>
<!-- Created with PhysiCell (http://PhysiCell.MathCancer.org/) -->
<svg 
 xmlns:dc="http://purl.org/dc/elements/1.1/" 
 xmlns:cc="http://creativecommons.org/ns#" 
 xmlns:rdf="http://www.w3.org/1999/02/22-rdf-syntax-ns#" 
 xmlns:svg="http://www.w3.org/2000/svg" 
 xmlns="http://www.w3.org/2000/svg" 
 version="1.1" 
 width="1000" 
 height="1070" 
 id="svg2">
  <rect x="0" y="0" width="1000" height="1070" stroke-width="2" stroke="white" fill="white"/>
  <text x="12.5" y="30"
   font-family="Arial" font-size="25" fill="black" >
   Current time: 1 days, 13 hours, and 6.00 minutes, z = 0.00 &#956;m
  </text>
  <text x="12.5" y="57.5"
   font-family="Arial" font-size="23.75" fill="black" >
   197 agents
  </text>
 <g id="tissue" 
    transform="translate(0,1070) scale(1,-1)">
  <g id="ECM">
  </g>
  <g id="cells">
   <g id="cell0">
  <circle cx="510.905" cy="542.478" r="8.41248" stroke-width="0.5" stroke="black" fill="magenta"/>
  <circle cx="510.905" cy="542.478" r="5.05162" stroke-width="0.5" stroke="black" fill="magenta"/>
   </g>
   <g id="cell1">
  <circle cx="593.868" cy="525.643" r="8.28262" stroke-width="0.5" stroke="black" fill="magenta"/>
  <circle cx="593.868" cy="525.643" r="4.9961" stroke-width="0.5" stroke="black" fill="magenta"/>
   </g>
   <g id="cell2">
  <circle cx="514.713" cy="597.245" r="8.41271" stroke-width="0.5" stroke="black" fill="magenta"/>
  <circle cx="514.713" cy="597.245" r="5.05167" stroke-width="0.5" stroke="black" fill="magenta"/>
   </g>
   <g id="cell3">
  <circle cx="525.764" cy="546.09" r="8.41234" stroke-width="0.5" stroke="black" fill="magenta"/>
  <circle cx="525.764" cy="546.09" r="5.05159" stroke-width="0.5" stroke="black" fill="magenta"/>
   </g>
   <g id="cell4">
  <circle cx="485.278" cy="443.32" r="8.40769" stroke-width="0.5" stroke="black" fill="magenta"/>
  <circle cx="485.278" cy="443.32" r="5.05021" stroke-width="0.5" stroke="black" fill="magenta"/>
   </g>
   <g id="cell5">
  <circle cx="468.258" cy="490.298" r="8.41271" stroke-width="0.5" stroke="black" fill="magenta"/>
  <circle cx="468.258" cy="490.298" r="5.05167" stroke-width="0.5" stroke="black" fill="magenta"/>
   </g>
   <g id="cell163">
  <circle cx="536.673" cy="574.929" r="8.31485" stroke-width="0.5" stroke="black" fill="green"/>
  <circle cx="536.673" cy="574.929" r="5.01132" stroke-width="0.5" stroke="black" fill="green"/>
   </g>
   <g id="cell7">
  <circle cx="496.493" cy="453.309" r="8.26596" stroke-width="0.5" stroke="black" fill="magenta"/>
  <circle cx="496.493" cy="453.309" r="4.98825" stroke-width="0.5" stroke="black" fill="magenta"/>
   </g>
   <g id="cell8">
  <circle cx="380.029" cy="552.407" r="8.31491" stroke-width="0.5" stroke="black" fill="magenta"/>
  <circle cx="380.029" cy="552.407" r="5.01133" stroke-width="0.5" stroke="black" fill="magenta"/>
   </g>
   <g id="cell161">
  <circle cx="451.42" cy="382.298" r="8.28057" stroke-width="0.5" stroke="black" fill="green"/>
  <circle cx="451.42" cy="382.298" r="4.99806" stroke-width="0.5" stroke="black" fill="green"/>
   </g>
   <g id="cell10">
  <circle cx="586.623" cy="389.004" r="8.37208" stroke-width="0.5" stroke="black" fill="magenta"/>
  <circle cx="586.623" cy="389.004" r="5.03661" stroke-width="0.5" stroke="black" fill="magenta"/>
   </g>
   <g id="cell11">
  <circle cx="592.144" cy="590.097" r="8.41271" stroke-width="0.5" stroke="black" fill="magenta"/>
  <circle cx="592.144" cy="590.097" r="5.05167" stroke-width="0.5" stroke="black" fill="magenta"/>
   </g>
   <g id="cell12">
  <circle cx="500.155" cy="592.953" r="8.39874" stroke-width="0.5" stroke="black" fill="magenta"/>
  <circle cx="500.155" cy="592.953" r="5.04711" stroke-width="0.5" stroke="black" fill="magenta"/>
   </g>
   <g id="cell13">
  <circle cx="383.729" cy="567.14" r="8.41271" stroke-width="0.5" stroke="black" fill="magenta"/>
  <circle cx="383.729" cy="567.14" r="5.05167" stroke-width="0.5" stroke="black" fill="magenta"/>
   </g>
   <g id="cell14">
  <circle cx="517.958" cy="403.326" r="8.41271" stroke-width="0.5" stroke="black" fill="magenta"/>
  <circle cx="517.958" cy="403.326" r="5.05167" stroke-width="0.5" stroke="black" fill="magenta"/>
   </g>
   <g id="cell15">
  <circle cx="381.862" cy="479.121" r="8.40494" stroke-width="0.5" stroke="black" fill="magenta"/>
  <circle cx="381.862" cy="479.121" r="5.04929" stroke-width="0.5" stroke="black" fill="magenta"/>
   </g>
   <g id="cell16">
  <circle cx="451.595" cy="417.412" r="7.2727" stroke-width="0.5" stroke="black" fill="magenta"/>
  <circle cx="451.595" cy="417.412" r="4.42606" stroke-width="0.5" stroke="black" fill="magenta"/>
   </g>
   <g id="cell17">
  <circle cx="579.536" cy="497.519" r="8.05651" stroke-width="0.5" stroke="black" fill="magenta"/>
  <circle cx="579.536" cy="497.519" r="4.87966" stroke-width="0.5" stroke="black" fill="magenta"/>
   </g>
   <g id="cell18">
  <circle cx="519.192" cy="388.397" r="8.41271" stroke-width="0.5" stroke="black" fill="magenta"/>
  <circle cx="519.192" cy="388.397" r="5.05167" stroke-width="0.5" stroke="black" fill="magenta"/>
   </g>
   <g id="cell19">
  <circle cx="457.042" cy="541.532" r="8.41094" stroke-width="0.5" stroke="black" fill="magenta"/>
  <circle cx="457.042" cy="541.532" r="5.05122" stroke-width="0.5" stroke="black" fill="magenta"/>
   </g>
   <g id="cell20">
  <circle cx="530.873" cy="412.37" r="8.41271" stroke-width="0.5" stroke="black" fill="magenta"/>
  <circle cx="530.873" cy="412.37" r="5.05167" stroke-width="0.5" stroke="black" fill="magenta"/>
   </g>
   <g id="cell21">
  <circle cx="467.557" cy="636.478" r="6.71158" stroke-width="0.5" stroke="black" fill="magenta"/>
  <circle cx="467.557" cy="636.478" r="4.03435" stroke-width="0.5" stroke="black" fill="magenta"/>
   </g>
   <g id="cell22">
  <circle cx="556.091" cy="492.017" r="6.90471" stroke-width="0.5" stroke="black" fill="magenta"/>
  <circle cx="556.091" cy="492.017" r="4.21313" stroke-width="0.5" stroke="black" fill="magenta"/>
   </g>
   <g id="cell23">
  <circle cx="552.954" cy="478.767" r="8.41271" stroke-width="0.5" stroke="black" fill="magenta"/>
  <circle cx="552.954" cy="478.767" r="5.05167" stroke-width="0.5" stroke="black" fill="magenta"/>
   </g>
   <g id="cell24">
  <circle cx="564.281" cy="383.561" r="8.41271" stroke-width="0.5" stroke="black" fill="magenta"/>
  <circle cx="564.281" cy="383.561" r="5.05167" stroke-width="0.5" stroke="black" fill="magenta"/>
   </g>
   <g id="cell25">
  <circle cx="648.234" cy="543.205" r="8.41257" stroke-width="0.5" stroke="black" fill="green"/>
  <circle cx="648.234" cy="543.205" r="5.05164" stroke-width="0.5" stroke="black" fill="green"/>
   </g>
   <g id="cell26">
  <circle cx="558.019" cy="397.725" r="8.41093" stroke-width="0.5" stroke="black" fill="green"/>
  <circle cx="558.019" cy="397.725" r="5.0512" stroke-width="0.5" stroke="black" fill="green"/>
   </g>
   <g id="cell27">
  <circle cx="463.088" cy="405.407" r="8.41262" stroke-width="0.5" stroke="black" fill="green"/>
  <circle cx="463.088" cy="405.407" r="5.05165" stroke-width="0.5" stroke="black" fill="green"/>
   </g>
   <g id="cell28">
  <circle cx="429.34" cy="540.891" r="8.36178" stroke-width="0.5" stroke="black" fill="green"/>
  <circle cx="429.34" cy="540.891" r="5.03227" stroke-width="0.5" stroke="black" fill="green"/>
   </g>
   <g id="cell29">
  <circle cx="450.929" cy="518.405" r="1.73556" stroke-width="0.5" stroke="black" fill="green"/>
  <circle cx="450.929" cy="518.405" r="1.67451" stroke-width="0.5" stroke="black" fill="black"/>
   </g>
   <g id="cell30">
  <circle cx="481.026" cy="535.845" r="8.39647" stroke-width="0.5" stroke="black" fill="green"/>
  <circle cx="481.026" cy="535.845" r="5.04629" stroke-width="0.5" stroke="black" fill="green"/>
   </g>
   <g id="cell31">
  <circle cx="413.432" cy="543.104" r="8.41271" stroke-width="0.5" stroke="black" fill="green"/>
  <circle cx="413.432" cy="543.104" r="5.05167" stroke-width="0.5" stroke="black" fill="green"/>
   </g>
   <g id="cell169">
  <circle cx="519.289" cy="501.078" r="8.24418" stroke-width="0.5" stroke="black" fill="cyan"/>
  <circle cx="519.289" cy="501.078" r="4.97741" stroke-width="0.5" stroke="black" fill="cyan"/>
   </g>
   <g id="cell33">
  <circle cx="501.567" cy="423.173" r="8.3937" stroke-width="0.5" stroke="black" fill="green"/>
  <circle cx="501.567" cy="423.173" r="5.04523" stroke-width="0.5" stroke="black" fill="green"/>
   </g>
   <g id="cell168">
  <circle cx="382.938" cy="517.604" r="8.24834" stroke-width="0.5" stroke="black" fill="cyan"/>
  <circle cx="382.938" cy="517.604" r="4.9796" stroke-width="0.5" stroke="black" fill="cyan"/>
   </g>
   <g id="cell35">
  <circle cx="558.639" cy="553.217" r="8.41271" stroke-width="0.5" stroke="black" fill="green"/>
  <circle cx="558.639" cy="553.217" r="5.05167" stroke-width="0.5" stroke="black" fill="green"/>
   </g>
   <g id="cell36">
  <circle cx="387.377" cy="582.168" r="8.31524" stroke-width="0.5" stroke="black" fill="green"/>
  <circle cx="387.377" cy="582.168" r="5.01413" stroke-width="0.5" stroke="black" fill="green"/>
   </g>
   <g id="cell37">
  <circle cx="641.678" cy="455.96" r="8.41261" stroke-width="0.5" stroke="black" fill="green"/>
  <circle cx="641.678" cy="455.96" r="5.05165" stroke-width="0.5" stroke="black" fill="green"/>
   </g>
   <g id="cell38">
  <circle cx="525.732" cy="586.141" r="8.31485" stroke-width="0.5" stroke="black" fill="green"/>
  <circle cx="525.732" cy="586.141" r="5.01132" stroke-width="0.5" stroke="black" fill="green"/>
   </g>
   <g id="cell39">
  <circle cx="611.727" cy="489.29" r="8.07654" stroke-width="0.5" stroke="black" fill="green"/>
  <circle cx="611.727" cy="489.29" r="4.89046" stroke-width="0.5" stroke="black" fill="green"/>
   </g>
   <g id="cell40">
  <circle cx="486.201" cy="567.041" r="8.35236" stroke-width="0.5" stroke="black" fill="green"/>
  <circle cx="486.201" cy="567.041" r="5.02821" stroke-width="0.5" stroke="black" fill="green"/>
   </g>
   <g id="cell41">
  <circle cx="366.561" cy="482.121" r="8.41271" stroke-width="0.5" stroke="black" fill="green"/>
  <circle cx="366.561" cy="482.121" r="5.05167" stroke-width="0.5" stroke="black" fill="green"/>
   </g>
   <g id="cell42">
  <circle cx="438.38" cy="491.246" r="8.41271" stroke-width="0.5" stroke="black" fill="green"/>
  <circle cx="438.38" cy="491.246" r="5.05167" stroke-width="0.5" stroke="black" fill="green"/>
   </g>
   <g id="cell43">
  <circle cx="564.003" cy="439.314" r="8.41271" stroke-width="0.5" stroke="black" fill="green"/>
  <circle cx="564.003" cy="439.314" r="5.05167" stroke-width="0.5" stroke="black" fill="green"/>
   </g>
   <g id="cell164">
  <circle cx="398.604" cy="571.164" r="8.27663" stroke-width="0.5" stroke="black" fill="green"/>
  <circle cx="398.604" cy="571.164" r="4.99555" stroke-width="0.5" stroke="black" fill="green"/>
   </g>
   <g id="cell145">
  <circle cx="413.187" cy="420.748" r="7.19604" stroke-width="0.5" stroke="black" fill="magenta"/>
  <circle cx="413.187" cy="420.748" r="4.40489" stroke-width="0.5" stroke="black" fill="magenta"/>
   </g>
   <g id="cell46">
  <circle cx="515.855" cy="618.259" r="8.41192" stroke-width="0.5" stroke="black" fill="green"/>
  <circle cx="515.855" cy="618.259" r="5.05148" stroke-width="0.5" stroke="black" fill="green"/>
   </g>
   <g id="cell47">
  <circle cx="485.874" cy="491.111" r="8.41221" stroke-width="0.5" stroke="black" fill="green"/>
  <circle cx="485.874" cy="491.111" r="5.05155" stroke-width="0.5" stroke="black" fill="green"/>
   </g>
   <g id="cell48">
  <circle cx="576.294" cy="604.979" r="8.4109" stroke-width="0.5" stroke="black" fill="green"/>
  <circle cx="576.294" cy="604.979" r="5.05121" stroke-width="0.5" stroke="black" fill="green"/>
   </g>
   <g id="cell49">
  <circle cx="438.186" cy="390.966" r="8.24914" stroke-width="0.5" stroke="black" fill="green"/>
  <circle cx="438.186" cy="390.966" r="4.97981" stroke-width="0.5" stroke="black" fill="green"/>
   </g>
   <g id="cell50">
  <circle cx="502.35" cy="512.01" r="8.41019" stroke-width="0.5" stroke="black" fill="cyan"/>
  <circle cx="502.35" cy="512.01" r="5.051" stroke-width="0.5" stroke="black" fill="cyan"/>
   </g>
   <g id="cell51">
  <circle cx="401.483" cy="593.459" r="7.11815" stroke-width="0.5" stroke="black" fill="cyan"/>
  <circle cx="401.483" cy="593.459" r="4.31954" stroke-width="0.5" stroke="black" fill="cyan"/>
   </g>
   <g id="cell52">
  <circle cx="516.071" cy="418.029" r="8.41271" stroke-width="0.5" stroke="black" fill="cyan"/>
  <circle cx="516.071" cy="418.029" r="5.05167" stroke-width="0.5" stroke="black" fill="cyan"/>
   </g>
   <g id="cell53">
  <circle cx="572.241" cy="425.748" r="8.41204" stroke-width="0.5" stroke="black" fill="cyan"/>
  <circle cx="572.241" cy="425.748" r="5.05151" stroke-width="0.5" stroke="black" fill="cyan"/>
   </g>
   <g id="cell54">
  <circle cx="479.041" cy="418.133" r="8.4123" stroke-width="0.5" stroke="black" fill="cyan"/>
  <circle cx="479.041" cy="418.133" r="5.05158" stroke-width="0.5" stroke="black" fill="cyan"/>
   </g>
   <g id="cell55">
  <circle cx="523.113" cy="458.718" r="8.41207" stroke-width="0.5" stroke="black" fill="cyan"/>
  <circle cx="523.113" cy="458.718" r="5.05152" stroke-width="0.5" stroke="black" fill="cyan"/>
   </g>
   <g id="cell56">
  <circle cx="622.583" cy="522.605" r="8.41271" stroke-width="0.5" stroke="black" fill="cyan"/>
  <circle cx="622.583" cy="522.605" r="5.05167" stroke-width="0.5" stroke="black" fill="cyan"/>
   </g>
   <g id="cell105">
  <circle cx="503.344" cy="608.228" r="8.39203" stroke-width="0.5" stroke="black" fill="green"/>
  <circle cx="503.344" cy="608.228" r="5.04478" stroke-width="0.5" stroke="black" fill="green"/>
   </g>
   <g id="cell58">
  <circle cx="568.586" cy="478.725" r="8.35568" stroke-width="0.5" stroke="black" fill="cyan"/>
  <circle cx="568.586" cy="478.725" r="5.02965" stroke-width="0.5" stroke="black" fill="cyan"/>
   </g>
   <g id="cell59">
  <circle cx="385.732" cy="440.058" r="8.41271" stroke-width="0.5" stroke="black" fill="cyan"/>
  <circle cx="385.732" cy="440.058" r="5.05167" stroke-width="0.5" stroke="black" fill="cyan"/>
   </g>
   <g id="cell60">
  <circle cx="594.057" cy="466.322" r="8.17502" stroke-width="0.5" stroke="black" fill="cyan"/>
  <circle cx="594.057" cy="466.322" r="4.94236" stroke-width="0.5" stroke="black" fill="cyan"/>
   </g>
   <g id="cell186">
  <circle cx="354.657" cy="562.232" r="7.87105" stroke-width="0.5" stroke="black" fill="cyan"/>
  <circle cx="354.657" cy="562.232" r="4.79" stroke-width="0.5" stroke="black" fill="cyan"/>
   </g>
   <g id="cell62">
  <circle cx="513.577" cy="433.284" r="8.14391" stroke-width="0.5" stroke="black" fill="cyan"/>
  <circle cx="513.577" cy="433.284" r="4.92667" stroke-width="0.5" stroke="black" fill="cyan"/>
   </g>
   <g id="cell63">
  <circle cx="586.826" cy="539.437" r="8.40414" stroke-width="0.5" stroke="black" fill="cyan"/>
  <circle cx="586.826" cy="539.437" r="5.04904" stroke-width="0.5" stroke="black" fill="cyan"/>
   </g>
   <g id="cell64">
  <circle cx="509.499" cy="638.562" r="8.41271" stroke-width="0.5" stroke="black" fill="cyan"/>
  <circle cx="509.499" cy="638.562" r="5.05167" stroke-width="0.5" stroke="black" fill="cyan"/>
   </g>
   <g id="cell65">
  <circle cx="546.411" cy="465.002" r="8.41243" stroke-width="0.5" stroke="black" fill="cyan"/>
  <circle cx="546.411" cy="465.002" r="5.05161" stroke-width="0.5" stroke="black" fill="cyan"/>
   </g>
   <g id="cell66">
  <circle cx="536.032" cy="534.803" r="8.41228" stroke-width="0.5" stroke="black" fill="cyan"/>
  <circle cx="536.032" cy="534.803" r="5.05157" stroke-width="0.5" stroke="black" fill="cyan"/>
   </g>
   <g id="cell67">
  <circle cx="354.66" cy="492.852" r="8.41271" stroke-width="0.5" stroke="black" fill="cyan"/>
  <circle cx="354.66" cy="492.852" r="5.05167" stroke-width="0.5" stroke="black" fill="cyan"/>
   </g>
   <g id="cell68">
  <circle cx="555.311" cy="561.789" r="1.38109" stroke-width="0.5" stroke="black" fill="cyan"/>
  <circle cx="555.311" cy="561.789" r="1.3695" stroke-width="0.5" stroke="black" fill="black"/>
   </g>
   <g id="cell69">
  <circle cx="441.829" cy="461.643" r="8.41271" stroke-width="0.5" stroke="black" fill="cyan"/>
  <circle cx="441.829" cy="461.643" r="5.05167" stroke-width="0.5" stroke="black" fill="cyan"/>
   </g>
   <g id="cell70">
  <circle cx="583.797" cy="482.593" r="8.41271" stroke-width="0.5" stroke="black" fill="cyan"/>
  <circle cx="583.797" cy="482.593" r="5.05167" stroke-width="0.5" stroke="black" fill="cyan"/>
   </g>
   <g id="cell71">
  <circle cx="382.851" cy="532.988" r="1.97239" stroke-width="0.5" stroke="black" fill="cyan"/>
  <circle cx="382.851" cy="532.988" r="1.86346" stroke-width="0.5" stroke="black" fill="black"/>
   </g>
   <g id="cell72">
  <circle cx="534.258" cy="503.428" r="8.24418" stroke-width="0.5" stroke="black" fill="cyan"/>
  <circle cx="534.258" cy="503.428" r="4.97741" stroke-width="0.5" stroke="black" fill="cyan"/>
   </g>
   <g id="cell73">
  <circle cx="366.421" cy="550.15" r="6.88828" stroke-width="0.5" stroke="black" fill="cyan"/>
  <circle cx="366.421" cy="550.15" r="4.20453" stroke-width="0.5" stroke="black" fill="cyan"/>
   </g>
   <g id="cell162">
  <circle cx="374.737" cy="538.113" r="8.31491" stroke-width="0.5" stroke="black" fill="magenta"/>
  <circle cx="374.737" cy="538.113" r="5.01133" stroke-width="0.5" stroke="black" fill="magenta"/>
   </g>
   <g id="cell75">
  <circle cx="527.887" cy="427.813" r="8.41262" stroke-width="0.5" stroke="black" fill="cyan"/>
  <circle cx="527.887" cy="427.813" r="5.05165" stroke-width="0.5" stroke="black" fill="cyan"/>
   </g>
   <g id="cell76">
  <circle cx="437.264" cy="375.125" r="8.41143" stroke-width="0.5" stroke="black" fill="green"/>
  <circle cx="437.264" cy="375.125" r="5.05136" stroke-width="0.5" stroke="black" fill="green"/>
   </g>
   <g id="cell77">
  <circle cx="470.631" cy="446.777" r="8.41172" stroke-width="0.5" stroke="black" fill="magenta"/>
  <circle cx="470.631" cy="446.777" r="5.05143" stroke-width="0.5" stroke="black" fill="magenta"/>
   </g>
   <g id="cell78">
  <circle cx="626.237" cy="457.153" r="8.41238" stroke-width="0.5" stroke="black" fill="green"/>
  <circle cx="626.237" cy="457.153" r="5.0516" stroke-width="0.5" stroke="black" fill="green"/>
   </g>
   <g id="cell79">
  <circle cx="519.148" cy="473.834" r="8.4126" stroke-width="0.5" stroke="black" fill="cyan"/>
  <circle cx="519.148" cy="473.834" r="5.05165" stroke-width="0.5" stroke="black" fill="cyan"/>
   </g>
   <g id="cell80">
  <circle cx="542.245" cy="629.737" r="7.56601" stroke-width="0.5" stroke="black" fill="green"/>
  <circle cx="542.245" cy="629.737" r="4.59925" stroke-width="0.5" stroke="black" fill="green"/>
   </g>
   <g id="cell81">
  <circle cx="547.606" cy="586.698" r="8.41253" stroke-width="0.5" stroke="black" fill="green"/>
  <circle cx="547.606" cy="586.698" r="5.05163" stroke-width="0.5" stroke="black" fill="green"/>
   </g>
   <g id="cell82">
  <circle cx="531.113" cy="560.408" r="8.39014" stroke-width="0.5" stroke="black" fill="magenta"/>
  <circle cx="531.113" cy="560.408" r="5.04388" stroke-width="0.5" stroke="black" fill="magenta"/>
   </g>
   <g id="cell83">
  <circle cx="635.468" cy="552.193" r="1.41347" stroke-width="0.5" stroke="black" fill="green"/>
  <circle cx="635.468" cy="552.193" r="1.39996" stroke-width="0.5" stroke="black" fill="black"/>
   </g>
   <g id="cell84">
  <circle cx="512.622" cy="487.839" r="7.9888" stroke-width="0.5" stroke="black" fill="cyan"/>
  <circle cx="512.622" cy="487.839" r="4.8427" stroke-width="0.5" stroke="black" fill="cyan"/>
   </g>
   <g id="cell85">
  <circle cx="346.776" cy="541.551" r="8.41209" stroke-width="0.5" stroke="black" fill="cyan"/>
  <circle cx="346.776" cy="541.551" r="5.05153" stroke-width="0.5" stroke="black" fill="cyan"/>
   </g>
   <g id="cell86">
  <circle cx="496.296" cy="538.249" r="8.40839" stroke-width="0.5" stroke="black" fill="magenta"/>
  <circle cx="496.296" cy="538.249" r="5.05044" stroke-width="0.5" stroke="black" fill="magenta"/>
   </g>
   <g id="cell87">
  <circle cx="576.659" cy="557.65" r="8.41183" stroke-width="0.5" stroke="black" fill="cyan"/>
  <circle cx="576.659" cy="557.65" r="5.05146" stroke-width="0.5" stroke="black" fill="cyan"/>
   </g>
   <g id="cell88">
  <circle cx="443.498" cy="535.01" r="8.31639" stroke-width="0.5" stroke="black" fill="magenta"/>
  <circle cx="443.498" cy="535.01" r="5.01395" stroke-width="0.5" stroke="black" fill="magenta"/>
   </g>
   <g id="cell89">
  <circle cx="554.579" cy="451.728" r="8.38404" stroke-width="0.5" stroke="black" fill="cyan"/>
  <circle cx="554.579" cy="451.728" r="5.04192" stroke-width="0.5" stroke="black" fill="cyan"/>
   </g>
   <g id="cell90">
  <circle cx="637.726" cy="471.585" r="8.4065" stroke-width="0.5" stroke="black" fill="green"/>
  <circle cx="637.726" cy="471.585" r="5.04984" stroke-width="0.5" stroke="black" fill="green"/>
   </g>
   <g id="cell91">
  <circle cx="546.399" cy="563.039" r="8.41217" stroke-width="0.5" stroke="black" fill="magenta"/>
  <circle cx="546.399" cy="563.039" r="5.05155" stroke-width="0.5" stroke="black" fill="magenta"/>
   </g>
   <g id="cell92">
  <circle cx="487.086" cy="550.842" r="8.41236" stroke-width="0.5" stroke="black" fill="green"/>
  <circle cx="487.086" cy="550.842" r="5.05159" stroke-width="0.5" stroke="black" fill="green"/>
   </g>
   <g id="cell93">
  <circle cx="540.786" cy="549.242" r="8.41217" stroke-width="0.5" stroke="black" fill="magenta"/>
  <circle cx="540.786" cy="549.242" r="5.05155" stroke-width="0.5" stroke="black" fill="magenta"/>
   </g>
   <g id="cell94">
  <circle cx="542.213" cy="490.096" r="8.41231" stroke-width="0.5" stroke="black" fill="cyan"/>
  <circle cx="542.213" cy="490.096" r="5.05158" stroke-width="0.5" stroke="black" fill="cyan"/>
   </g>
   <g id="cell95">
  <circle cx="464.571" cy="420.54" r="7.59158" stroke-width="0.5" stroke="black" fill="cyan"/>
  <circle cx="464.571" cy="420.54" r="4.61393" stroke-width="0.5" stroke="black" fill="cyan"/>
   </g>
   <g id="cell96">
  <circle cx="552.2" cy="539.213" r="8.40101" stroke-width="0.5" stroke="black" fill="cyan"/>
  <circle cx="552.2" cy="539.213" r="5.04795" stroke-width="0.5" stroke="black" fill="cyan"/>
   </g>
   <g id="cell97">
  <circle cx="420.54" cy="464.121" r="8.41189" stroke-width="0.5" stroke="black" fill="green"/>
  <circle cx="420.54" cy="464.121" r="5.05148" stroke-width="0.5" stroke="black" fill="green"/>
   </g>
   <g id="cell98">
  <circle cx="491.226" cy="523.318" r="8.40749" stroke-width="0.5" stroke="black" fill="green"/>
  <circle cx="491.226" cy="523.318" r="5.05016" stroke-width="0.5" stroke="black" fill="green"/>
   </g>
   <g id="cell99">
  <circle cx="364.295" cy="525.461" r="8.41209" stroke-width="0.5" stroke="black" fill="cyan"/>
  <circle cx="364.295" cy="525.461" r="5.05153" stroke-width="0.5" stroke="black" fill="cyan"/>
   </g>
   <g id="cell100">
  <circle cx="447.176" cy="403.845" r="8.41208" stroke-width="0.5" stroke="black" fill="green"/>
  <circle cx="447.176" cy="403.845" r="5.05152" stroke-width="0.5" stroke="black" fill="green"/>
   </g>
   <g id="cell101">
  <circle cx="527.231" cy="487.563" r="7.88646" stroke-width="0.5" stroke="black" fill="cyan"/>
  <circle cx="527.231" cy="487.563" r="4.78715" stroke-width="0.5" stroke="black" fill="cyan"/>
   </g>
   <g id="cell102">
  <circle cx="440.697" cy="476.747" r="6.8659" stroke-width="0.5" stroke="black" fill="green"/>
  <circle cx="440.697" cy="476.747" r="4.14868" stroke-width="0.5" stroke="black" fill="green"/>
   </g>
   <g id="cell103">
  <circle cx="592.971" cy="449.498" r="8.40828" stroke-width="0.5" stroke="black" fill="cyan"/>
  <circle cx="592.971" cy="449.498" r="5.05042" stroke-width="0.5" stroke="black" fill="cyan"/>
   </g>
   <g id="cell104">
  <circle cx="606.089" cy="554.723" r="8.01826" stroke-width="0.5" stroke="black" fill="cyan"/>
  <circle cx="606.089" cy="554.723" r="4.86195" stroke-width="0.5" stroke="black" fill="cyan"/>
   </g>
   <g id="cell106">
  <circle cx="455.257" cy="447.378" r="8.41172" stroke-width="0.5" stroke="black" fill="magenta"/>
  <circle cx="455.257" cy="447.378" r="5.05143" stroke-width="0.5" stroke="black" fill="magenta"/>
   </g>
   <g id="cell107">
  <circle cx="465.397" cy="389.584" r="8.28057" stroke-width="0.5" stroke="black" fill="green"/>
  <circle cx="465.397" cy="389.584" r="4.99806" stroke-width="0.5" stroke="black" fill="green"/>
   </g>
   <g id="cell108">
  <circle cx="560.803" cy="608.02" r="8.41157" stroke-width="0.5" stroke="black" fill="green"/>
  <circle cx="560.803" cy="608.02" r="5.05138" stroke-width="0.5" stroke="black" fill="green"/>
   </g>
   <g id="cell109">
  <circle cx="576.591" cy="589.002" r="8.4109" stroke-width="0.5" stroke="black" fill="green"/>
  <circle cx="576.591" cy="589.002" r="5.05121" stroke-width="0.5" stroke="black" fill="green"/>
   </g>
   <g id="cell110">
  <circle cx="368.855" cy="510.293" r="8.41116" stroke-width="0.5" stroke="black" fill="cyan"/>
  <circle cx="368.855" cy="510.293" r="5.05127" stroke-width="0.5" stroke="black" fill="cyan"/>
   </g>
   <g id="cell111">
  <circle cx="457.875" cy="556.614" r="8.39968" stroke-width="0.5" stroke="black" fill="magenta"/>
  <circle cx="457.875" cy="556.614" r="5.04754" stroke-width="0.5" stroke="black" fill="magenta"/>
   </g>
   <g id="cell112">
  <circle cx="493.269" cy="467.515" r="8.38031" stroke-width="0.5" stroke="black" fill="magenta"/>
  <circle cx="493.269" cy="467.515" r="5.04011" stroke-width="0.5" stroke="black" fill="magenta"/>
   </g>
   <g id="cell113">
  <circle cx="548.926" cy="381.188" r="8.38734" stroke-width="0.5" stroke="black" fill="green"/>
  <circle cx="548.926" cy="381.188" r="5.0429" stroke-width="0.5" stroke="black" fill="green"/>
   </g>
   <g id="cell114">
  <circle cx="525.684" cy="443.118" r="8.40972" stroke-width="0.5" stroke="black" fill="cyan"/>
  <circle cx="525.684" cy="443.118" r="5.05088" stroke-width="0.5" stroke="black" fill="cyan"/>
   </g>
   <g id="cell115">
  <circle cx="538.314" cy="451.98" r="8.40203" stroke-width="0.5" stroke="black" fill="cyan"/>
  <circle cx="538.314" cy="451.98" r="5.04841" stroke-width="0.5" stroke="black" fill="cyan"/>
   </g>
   <g id="cell116">
  <circle cx="521.01" cy="531.263" r="8.09408" stroke-width="0.5" stroke="black" fill="cyan"/>
  <circle cx="521.01" cy="531.263" r="4.9002" stroke-width="0.5" stroke="black" fill="cyan"/>
   </g>
   <g id="cell117">
  <circle cx="501.543" cy="624.595" r="8.40938" stroke-width="0.5" stroke="black" fill="green"/>
  <circle cx="501.543" cy="624.595" r="5.05077" stroke-width="0.5" stroke="black" fill="green"/>
   </g>
   <g id="cell118">
  <circle cx="511.089" cy="448.607" r="8.4089" stroke-width="0.5" stroke="black" fill="cyan"/>
  <circle cx="511.089" cy="448.607" r="5.0506" stroke-width="0.5" stroke="black" fill="cyan"/>
   </g>
   <g id="cell119">
  <circle cx="546.538" cy="602.346" r="8.14389" stroke-width="0.5" stroke="black" fill="green"/>
  <circle cx="546.538" cy="602.346" r="4.92667" stroke-width="0.5" stroke="black" fill="green"/>
   </g>
   <g id="cell120">
  <circle cx="579.986" cy="439.913" r="8.40828" stroke-width="0.5" stroke="black" fill="cyan"/>
  <circle cx="579.986" cy="439.913" r="5.05042" stroke-width="0.5" stroke="black" fill="cyan"/>
   </g>
   <g id="cell121">
  <circle cx="450.716" cy="366.419" r="8.40339" stroke-width="0.5" stroke="black" fill="green"/>
  <circle cx="450.716" cy="366.419" r="5.04891" stroke-width="0.5" stroke="black" fill="green"/>
   </g>
   <g id="cell122">
  <circle cx="506.443" cy="527.307" r="8.40839" stroke-width="0.5" stroke="black" fill="magenta"/>
  <circle cx="506.443" cy="527.307" r="5.05044" stroke-width="0.5" stroke="black" fill="magenta"/>
   </g>
   <g id="cell123">
  <circle cx="487.424" cy="507.115" r="8.40749" stroke-width="0.5" stroke="black" fill="green"/>
  <circle cx="487.424" cy="507.115" r="5.05016" stroke-width="0.5" stroke="black" fill="green"/>
   </g>
   <g id="cell124">
  <circle cx="488.466" cy="429.321" r="7.71758" stroke-width="0.5" stroke="black" fill="magenta"/>
  <circle cx="488.466" cy="429.321" r="4.6891" stroke-width="0.5" stroke="black" fill="magenta"/>
   </g>
   <g id="cell125">
  <circle cx="623.054" cy="482.132" r="6.68798" stroke-width="0.5" stroke="black" fill="green"/>
  <circle cx="623.054" cy="482.132" r="4.01906" stroke-width="0.5" stroke="black" fill="green"/>
   </g>
   <g id="cell126">
  <circle cx="628.988" cy="566.353" r="8.40643" stroke-width="0.5" stroke="black" fill="green"/>
  <circle cx="628.988" cy="566.353" r="5.0498" stroke-width="0.5" stroke="black" fill="green"/>
   </g>
   <g id="cell127">
  <circle cx="436.491" cy="359.132" r="8.40339" stroke-width="0.5" stroke="black" fill="green"/>
  <circle cx="436.491" cy="359.132" r="5.04891" stroke-width="0.5" stroke="black" fill="green"/>
   </g>
   <g id="cell128">
  <circle cx="372.115" cy="467.551" r="8.40494" stroke-width="0.5" stroke="black" fill="magenta"/>
  <circle cx="372.115" cy="467.551" r="5.04929" stroke-width="0.5" stroke="black" fill="magenta"/>
   </g>
   <g id="cell129">
  <circle cx="571.016" cy="542.671" r="8.40414" stroke-width="0.5" stroke="black" fill="cyan"/>
  <circle cx="571.016" cy="542.671" r="5.04904" stroke-width="0.5" stroke="black" fill="cyan"/>
   </g>
   <g id="cell130">
  <circle cx="546.516" cy="438.258" r="8.40203" stroke-width="0.5" stroke="black" fill="cyan"/>
  <circle cx="546.516" cy="438.258" r="5.04841" stroke-width="0.5" stroke="black" fill="cyan"/>
   </g>
   <g id="cell131">
  <circle cx="543.017" cy="513.845" r="6.75507" stroke-width="0.5" stroke="black" fill="cyan"/>
  <circle cx="543.017" cy="513.845" r="4.15922" stroke-width="0.5" stroke="black" fill="cyan"/>
   </g>
   <g id="cell132">
  <circle cx="444.244" cy="549.888" r="8.39968" stroke-width="0.5" stroke="black" fill="magenta"/>
  <circle cx="444.244" cy="549.888" r="5.04754" stroke-width="0.5" stroke="black" fill="magenta"/>
   </g>
   <g id="cell133">
  <circle cx="578.516" cy="466.965" r="8.40043" stroke-width="0.5" stroke="black" fill="cyan"/>
  <circle cx="578.516" cy="466.965" r="5.04773" stroke-width="0.5" stroke="black" fill="cyan"/>
   </g>
   <g id="cell201">
  <circle cx="555.712" cy="514.908" r="6.75507" stroke-width="0.5" stroke="black" fill="cyan"/>
  <circle cx="555.712" cy="514.908" r="4.15922" stroke-width="0.5" stroke="black" fill="cyan"/>
   </g>
   <g id="cell135">
  <circle cx="510.955" cy="582.505" r="8.39874" stroke-width="0.5" stroke="black" fill="magenta"/>
  <circle cx="510.955" cy="582.505" r="5.04711" stroke-width="0.5" stroke="black" fill="magenta"/>
   </g>
   <g id="cell136">
  <circle cx="471.155" cy="548.431" r="8.39647" stroke-width="0.5" stroke="black" fill="green"/>
  <circle cx="471.155" cy="548.431" r="5.04629" stroke-width="0.5" stroke="black" fill="green"/>
   </g>
   <g id="cell137">
  <circle cx="488.813" cy="615.202" r="8.39203" stroke-width="0.5" stroke="black" fill="green"/>
  <circle cx="488.813" cy="615.202" r="5.04478" stroke-width="0.5" stroke="black" fill="green"/>
   </g>
   <g id="cell138">
  <circle cx="503.237" cy="407.579" r="8.3937" stroke-width="0.5" stroke="black" fill="green"/>
  <circle cx="503.237" cy="407.579" r="5.04523" stroke-width="0.5" stroke="black" fill="green"/>
   </g>
   <g id="cell139">
  <circle cx="416.796" cy="407.122" r="8.39083" stroke-width="0.5" stroke="black" fill="magenta"/>
  <circle cx="416.796" cy="407.122" r="5.04414" stroke-width="0.5" stroke="black" fill="magenta"/>
   </g>
   <g id="cell140">
  <circle cx="521.332" cy="571.55" r="8.3707" stroke-width="0.5" stroke="black" fill="magenta"/>
  <circle cx="521.332" cy="571.55" r="5.03677" stroke-width="0.5" stroke="black" fill="magenta"/>
   </g>
   <g id="cell141">
  <circle cx="571.104" cy="453.098" r="8.38404" stroke-width="0.5" stroke="black" fill="cyan"/>
  <circle cx="571.104" cy="453.098" r="5.04192" stroke-width="0.5" stroke="black" fill="cyan"/>
   </g>
   <g id="cell142">
  <circle cx="541.994" cy="423.348" r="8.08463" stroke-width="0.5" stroke="black" fill="green"/>
  <circle cx="541.994" cy="423.348" r="4.90135" stroke-width="0.5" stroke="black" fill="green"/>
   </g>
   <g id="cell143">
  <circle cx="431.78" cy="405.133" r="8.37724" stroke-width="0.5" stroke="black" fill="magenta"/>
  <circle cx="431.78" cy="405.133" r="5.03935" stroke-width="0.5" stroke="black" fill="magenta"/>
   </g>
   <g id="cell144">
  <circle cx="547.022" cy="409.205" r="8.32357" stroke-width="0.5" stroke="black" fill="green"/>
  <circle cx="547.022" cy="409.205" r="5.01729" stroke-width="0.5" stroke="black" fill="green"/>
   </g>
   <g id="cell185">
  <circle cx="592.033" cy="560.624" r="8.01826" stroke-width="0.5" stroke="black" fill="cyan"/>
  <circle cx="592.033" cy="560.624" r="4.86195" stroke-width="0.5" stroke="black" fill="cyan"/>
   </g>
   <g id="cell147">
  <circle cx="516.035" cy="557.306" r="8.3707" stroke-width="0.5" stroke="black" fill="magenta"/>
  <circle cx="516.035" cy="557.306" r="5.03677" stroke-width="0.5" stroke="black" fill="magenta"/>
   </g>
   <g id="cell148">
  <circle cx="507.751" cy="463.016" r="7.86007" stroke-width="0.5" stroke="black" fill="magenta"/>
  <circle cx="507.751" cy="463.016" r="4.77418" stroke-width="0.5" stroke="black" fill="magenta"/>
   </g>
   <g id="cell149">
  <circle cx="573.229" cy="395.802" r="8.37208" stroke-width="0.5" stroke="black" fill="magenta"/>
  <circle cx="573.229" cy="395.802" r="5.03661" stroke-width="0.5" stroke="black" fill="magenta"/>
   </g>
   <g id="cell150">
  <circle cx="410.164" cy="581.788" r="8.27663" stroke-width="0.5" stroke="black" fill="green"/>
  <circle cx="410.164" cy="581.788" r="4.99555" stroke-width="0.5" stroke="black" fill="green"/>
   </g>
   <g id="cell151">
  <circle cx="419.156" cy="528.264" r="8.36178" stroke-width="0.5" stroke="black" fill="green"/>
  <circle cx="419.156" cy="528.264" r="5.03227" stroke-width="0.5" stroke="black" fill="green"/>
   </g>
   <g id="cell152">
  <circle cx="372.265" cy="578.191" r="8.33584" stroke-width="0.5" stroke="black" fill="green"/>
  <circle cx="372.265" cy="578.191" r="5.02236" stroke-width="0.5" stroke="black" fill="green"/>
   </g>
   <g id="cell153">
  <circle cx="561.794" cy="465.487" r="8.35568" stroke-width="0.5" stroke="black" fill="cyan"/>
  <circle cx="561.794" cy="465.487" r="5.02965" stroke-width="0.5" stroke="black" fill="cyan"/>
   </g>
   <g id="cell154">
  <circle cx="387.556" cy="597.906" r="8.31524" stroke-width="0.5" stroke="black" fill="green"/>
  <circle cx="387.556" cy="597.906" r="5.01413" stroke-width="0.5" stroke="black" fill="green"/>
   </g>
   <g id="cell155">
  <circle cx="488.055" cy="583.063" r="8.35236" stroke-width="0.5" stroke="black" fill="green"/>
  <circle cx="488.055" cy="583.063" r="5.02821" stroke-width="0.5" stroke="black" fill="green"/>
   </g>
   <g id="cell156">
  <circle cx="455.644" cy="526.39" r="8.35222" stroke-width="0.5" stroke="black" fill="magenta"/>
  <circle cx="455.644" cy="526.39" r="5.02818" stroke-width="0.5" stroke="black" fill="magenta"/>
   </g>
   <g id="cell157">
  <circle cx="441.9" cy="520.212" r="8.31639" stroke-width="0.5" stroke="black" fill="magenta"/>
  <circle cx="441.9" cy="520.212" r="5.01395" stroke-width="0.5" stroke="black" fill="magenta"/>
   </g>
   <g id="cell158">
  <circle cx="563.292" cy="412.414" r="8.32742" stroke-width="0.5" stroke="black" fill="green"/>
  <circle cx="563.292" cy="412.414" r="5.019" stroke-width="0.5" stroke="black" fill="green"/>
   </g>
   <g id="cell159">
  <circle cx="530.679" cy="397.762" r="7.37787" stroke-width="0.5" stroke="black" fill="green"/>
  <circle cx="530.679" cy="397.762" r="4.51507" stroke-width="0.5" stroke="black" fill="green"/>
   </g>
   <g id="cell160">
  <circle cx="464.814" cy="373.786" r="8.33458" stroke-width="0.5" stroke="black" fill="green"/>
  <circle cx="464.814" cy="373.786" r="5.02073" stroke-width="0.5" stroke="black" fill="green"/>
   </g>
   <g id="cell165">
  <circle cx="608.139" cy="525.89" r="7.58064" stroke-width="0.5" stroke="black" fill="magenta"/>
  <circle cx="608.139" cy="525.89" r="4.6197" stroke-width="0.5" stroke="black" fill="magenta"/>
   </g>
   <g id="cell166">
  <circle cx="481.9" cy="457.623" r="8.26596" stroke-width="0.5" stroke="black" fill="magenta"/>
  <circle cx="481.9" cy="457.623" r="4.98825" stroke-width="0.5" stroke="black" fill="magenta"/>
   </g>
   <g id="cell167">
  <circle cx="422.641" cy="392.855" r="8.24914" stroke-width="0.5" stroke="black" fill="green"/>
  <circle cx="422.641" cy="392.855" r="4.97981" stroke-width="0.5" stroke="black" fill="green"/>
   </g>
   <g id="cell170">
  <circle cx="460.12" cy="503.479" r="8.21273" stroke-width="0.5" stroke="black" fill="green"/>
  <circle cx="460.12" cy="503.479" r="4.96162" stroke-width="0.5" stroke="black" fill="green"/>
   </g>
   <g id="cell171">
  <circle cx="599.295" cy="480.853" r="8.17502" stroke-width="0.5" stroke="black" fill="cyan"/>
  <circle cx="599.295" cy="480.853" r="4.94236" stroke-width="0.5" stroke="black" fill="cyan"/>
   </g>
   <g id="cell172">
  <circle cx="549.506" cy="502.931" r="7.96678" stroke-width="0.5" stroke="black" fill="magenta"/>
  <circle cx="549.506" cy="502.931" r="4.84129" stroke-width="0.5" stroke="black" fill="magenta"/>
   </g>
   <g id="cell173">
  <circle cx="531.245" cy="520.104" r="8.13971" stroke-width="0.5" stroke="black" fill="cyan"/>
  <circle cx="531.245" cy="520.104" r="4.92524" stroke-width="0.5" stroke="black" fill="cyan"/>
   </g>
   <g id="cell174">
  <circle cx="499.518" cy="438.571" r="8.14391" stroke-width="0.5" stroke="black" fill="cyan"/>
  <circle cx="499.518" cy="438.571" r="4.92667" stroke-width="0.5" stroke="black" fill="cyan"/>
   </g>
   <g id="cell175">
  <circle cx="524.79" cy="607.263" r="7.0039" stroke-width="0.5" stroke="black" fill="green"/>
  <circle cx="524.79" cy="607.263" r="4.30172" stroke-width="0.5" stroke="black" fill="green"/>
   </g>
   <g id="cell176">
  <circle cx="556.573" cy="426.148" r="8.08463" stroke-width="0.5" stroke="black" fill="green"/>
  <circle cx="556.573" cy="426.148" r="4.90135" stroke-width="0.5" stroke="black" fill="green"/>
   </g>
   <g id="cell177">
  <circle cx="369.442" cy="563.376" r="7.87105" stroke-width="0.5" stroke="black" fill="cyan"/>
  <circle cx="369.442" cy="563.376" r="4.79" stroke-width="0.5" stroke="black" fill="cyan"/>
   </g>
   <g id="cell178">
  <circle cx="563.719" cy="504.005" r="7.96678" stroke-width="0.5" stroke="black" fill="magenta"/>
  <circle cx="563.719" cy="504.005" r="4.84129" stroke-width="0.5" stroke="black" fill="magenta"/>
   </g>
   <g id="cell179">
  <circle cx="516.936" cy="516.242" r="8.09408" stroke-width="0.5" stroke="black" fill="cyan"/>
  <circle cx="516.936" cy="516.242" r="4.9002" stroke-width="0.5" stroke="black" fill="cyan"/>
   </g>
   <g id="cell180">
  <circle cx="619.29" cy="502.356" r="8.07654" stroke-width="0.5" stroke="black" fill="green"/>
  <circle cx="619.29" cy="502.356" r="4.89046" stroke-width="0.5" stroke="black" fill="green"/>
   </g>
   <g id="cell181">
  <circle cx="561.959" cy="527.224" r="7.92033" stroke-width="0.5" stroke="black" fill="cyan"/>
  <circle cx="561.959" cy="527.224" r="4.8172" stroke-width="0.5" stroke="black" fill="cyan"/>
   </g>
   <g id="cell182">
  <circle cx="533.643" cy="383.754" r="8.01842" stroke-width="0.5" stroke="black" fill="green"/>
  <circle cx="533.643" cy="383.754" r="4.8663" stroke-width="0.5" stroke="black" fill="green"/>
   </g>
   <g id="cell183">
  <circle cx="576.095" cy="511.447" r="8.05651" stroke-width="0.5" stroke="black" fill="magenta"/>
  <circle cx="576.095" cy="511.447" r="4.87966" stroke-width="0.5" stroke="black" fill="magenta"/>
   </g>
   <g id="cell184">
  <circle cx="432.122" cy="429.277" r="7.44921" stroke-width="0.5" stroke="black" fill="magenta"/>
  <circle cx="432.122" cy="429.277" r="4.55532" stroke-width="0.5" stroke="black" fill="magenta"/>
   </g>
   <g id="cell187">
  <circle cx="500.502" cy="496.618" r="7.9888" stroke-width="0.5" stroke="black" fill="cyan"/>
  <circle cx="500.502" cy="496.618" r="4.8427" stroke-width="0.5" stroke="black" fill="cyan"/>
   </g>
   <g id="cell188">
  <circle cx="533.997" cy="617.726" r="7.75841" stroke-width="0.5" stroke="black" fill="green"/>
  <circle cx="533.997" cy="617.726" r="4.72772" stroke-width="0.5" stroke="black" fill="green"/>
   </g>
   <g id="cell189">
  <circle cx="536.748" cy="476.227" r="7.88646" stroke-width="0.5" stroke="black" fill="cyan"/>
  <circle cx="536.748" cy="476.227" r="4.78715" stroke-width="0.5" stroke="black" fill="cyan"/>
   </g>
   <g id="cell190">
  <circle cx="547.485" cy="525.666" r="7.62083" stroke-width="0.5" stroke="black" fill="cyan"/>
  <circle cx="547.485" cy="525.666" r="4.65904" stroke-width="0.5" stroke="black" fill="cyan"/>
   </g>
   <g id="cell191">
  <circle cx="504.31" cy="476.493" r="7.86007" stroke-width="0.5" stroke="black" fill="magenta"/>
  <circle cx="504.31" cy="476.493" r="4.77418" stroke-width="0.5" stroke="black" fill="magenta"/>
   </g>
   <g id="cell192">
  <circle cx="475.313" cy="432.833" r="7.71758" stroke-width="0.5" stroke="black" fill="magenta"/>
  <circle cx="475.313" cy="432.833" r="4.6891" stroke-width="0.5" stroke="black" fill="magenta"/>
   </g>
   <g id="cell193">
  <circle cx="438.658" cy="417.504" r="7.44921" stroke-width="0.5" stroke="black" fill="magenta"/>
  <circle cx="438.658" cy="417.504" r="4.55532" stroke-width="0.5" stroke="black" fill="magenta"/>
   </g>
   <g id="cell194">
  <circle cx="601.846" cy="513.799" r="7.58064" stroke-width="0.5" stroke="black" fill="magenta"/>
  <circle cx="601.846" cy="513.799" r="4.6197" stroke-width="0.5" stroke="black" fill="magenta"/>
   </g>
   <g id="cell195">
  <circle cx="543.735" cy="394.874" r="7.37787" stroke-width="0.5" stroke="black" fill="green"/>
  <circle cx="543.735" cy="394.874" r="4.51507" stroke-width="0.5" stroke="black" fill="green"/>
   </g>
   <g id="cell196">
  <circle cx="461.609" cy="434.384" r="7.59158" stroke-width="0.5" stroke="black" fill="cyan"/>
  <circle cx="461.609" cy="434.384" r="4.61393" stroke-width="0.5" stroke="black" fill="cyan"/>
   </g>
   <g id="cell197">
  <circle cx="548.558" cy="616.96" r="7.56601" stroke-width="0.5" stroke="black" fill="green"/>
  <circle cx="548.558" cy="616.96" r="4.59925" stroke-width="0.5" stroke="black" fill="green"/>
   </g>
   <g id="cell198">
  <circle cx="425.685" cy="417.817" r="7.19604" stroke-width="0.5" stroke="black" fill="magenta"/>
  <circle cx="425.685" cy="417.817" r="4.40489" stroke-width="0.5" stroke="black" fill="magenta"/>
   </g>
   <g id="cell199">
  <circle cx="533.454" cy="597.784" r="7.0039" stroke-width="0.5" stroke="black" fill="green"/>
  <circle cx="533.454" cy="597.784" r="4.30172" stroke-width="0.5" stroke="black" fill="green"/>
   </g>
   <g id="cell200">
  <circle cx="445.405" cy="429" r="7.2727" stroke-width="0.5" stroke="black" fill="magenta"/>
  <circle cx="445.405" cy="429" r="4.42606" stroke-width="0.5" stroke="black" fill="magenta"/>
   </g>
   <g id="cell202">
  <circle cx="403.156" cy="606.821" r="7.11815" stroke-width="0.5" stroke="black" fill="cyan"/>
  <circle cx="403.156" cy="606.821" r="4.31954" stroke-width="0.5" stroke="black" fill="cyan"/>
   </g>
   <g id="cell203">
  <circle cx="360.768" cy="539.01" r="6.88828" stroke-width="0.5" stroke="black" fill="cyan"/>
  <circle cx="360.768" cy="539.01" r="4.20453" stroke-width="0.5" stroke="black" fill="cyan"/>
   </g>
   <g id="cell204">
  <circle cx="567.938" cy="491.9" r="6.90471" stroke-width="0.5" stroke="black" fill="magenta"/>
  <circle cx="567.938" cy="491.9" r="4.21313" stroke-width="0.5" stroke="black" fill="magenta"/>
   </g>
   <g id="cell205">
  <circle cx="427.687" cy="476.736" r="6.8659" stroke-width="0.5" stroke="black" fill="green"/>
  <circle cx="427.687" cy="476.736" r="4.14868" stroke-width="0.5" stroke="black" fill="green"/>
   </g>
   <g id="cell206">
  <circle cx="465.65" cy="624.567" r="6.71158" stroke-width="0.5" stroke="black" fill="magenta"/>
  <circle cx="465.65" cy="624.567" r="4.03435" stroke-width="0.5" stroke="black" fill="magenta"/>
   </g>
   <g id="cell207">
  <circle cx="623.237" cy="470.251" r="6.68798" stroke-width="0.5" stroke="black" fill="green"/>
  <circle cx="623.237" cy="470.251" r="4.01906" stroke-width="0.5" stroke="black" fill="green"/>
   </g>
  </g>
 </g>
  <rect x="775" y="1035" width="200" height="10" stroke-width="2" stroke="rgb(255,255,255)" fill="rgb(0,0,0)"/>
  <text x="781.25" y="1028.75"
   font-family="Arial" font-size="25" fill="black" >
   200 &#956;m
  </text>
  <text x="25" y="1045"
   font-family="Arial" font-size="18.75" fill="black" >
   0 days, 0 hours, 0 minutes, and 45.3985 seconds
  </text>
  <rect x="0" y="70" width="1000" height="1000" stroke-width="2" stroke="rgb(0,0,0)" fill="none"/>
</svg>
