<?xml version="1.0" encoding="UTF-8" standalone="no"?>
<!-- Created with PhysiCell (http://PhysiCell.MathCancer.org/) -->
<svg 
 xmlns:dc="http://purl.org/dc/elements/1.1/" 
 xmlns:cc="http://creativecommons.org/ns#" 
 xmlns:rdf="http://www.w3.org/1999/02/22-rdf-syntax-ns#" 
 xmlns:svg="http://www.w3.org/2000/svg" 
 xmlns="http://www.w3.org/2000/svg" 
 version="1.1" 
 width="1000" 
 height="1070" 
 id="svg2">
  <rect x="0" y="0" width="1000" height="1070" stroke-width="2" stroke="white" fill="white"/>
  <text x="12.5" y="30"
   font-family="Arial" font-size="25" fill="black" >
   Current time: 1 days, 5 hours, and 36.00 minutes, z = 0.00 &#956;m
  </text>
  <text x="12.5" y="57.5"
   font-family="Arial" font-size="23.75" fill="black" >
   164 agents
  </text>
 <g id="tissue" 
    transform="translate(0,1070) scale(1,-1)">
  <g id="ECM">
  </g>
  <g id="cells">
   <g id="cell0">
  <circle cx="514.106" cy="534.937" r="8.41088" stroke-width="0.5" stroke="black" fill="magenta"/>
  <circle cx="514.106" cy="534.937" r="5.05119" stroke-width="0.5" stroke="black" fill="magenta"/>
   </g>
   <g id="cell1">
  <circle cx="594.445" cy="525.403" r="7.30216" stroke-width="0.5" stroke="black" fill="magenta"/>
  <circle cx="594.445" cy="525.403" r="4.43696" stroke-width="0.5" stroke="black" fill="magenta"/>
   </g>
   <g id="cell2">
  <circle cx="518.943" cy="599.04" r="8.41271" stroke-width="0.5" stroke="black" fill="magenta"/>
  <circle cx="518.943" cy="599.04" r="5.05167" stroke-width="0.5" stroke="black" fill="magenta"/>
   </g>
   <g id="cell3">
  <circle cx="523.702" cy="546.663" r="8.40973" stroke-width="0.5" stroke="black" fill="magenta"/>
  <circle cx="523.702" cy="546.663" r="5.05088" stroke-width="0.5" stroke="black" fill="magenta"/>
   </g>
   <g id="cell4">
  <circle cx="486.455" cy="448.038" r="8.3717" stroke-width="0.5" stroke="black" fill="magenta"/>
  <circle cx="486.455" cy="448.038" r="5.03652" stroke-width="0.5" stroke="black" fill="magenta"/>
   </g>
   <g id="cell5">
  <circle cx="465.569" cy="492.477" r="8.41271" stroke-width="0.5" stroke="black" fill="magenta"/>
  <circle cx="465.569" cy="492.477" r="5.05167" stroke-width="0.5" stroke="black" fill="magenta"/>
   </g>
   <g id="cell163">
  <circle cx="537.562" cy="577.615" r="7.56779" stroke-width="0.5" stroke="black" fill="green"/>
  <circle cx="537.562" cy="577.615" r="4.59981" stroke-width="0.5" stroke="black" fill="green"/>
   </g>
   <g id="cell7">
  <circle cx="496.965" cy="457.637" r="7.17138" stroke-width="0.5" stroke="black" fill="magenta"/>
  <circle cx="496.965" cy="457.637" r="4.35681" stroke-width="0.5" stroke="black" fill="magenta"/>
   </g>
   <g id="cell8">
  <circle cx="377.873" cy="548.683" r="7.56839" stroke-width="0.5" stroke="black" fill="magenta"/>
  <circle cx="377.873" cy="548.683" r="4.59998" stroke-width="0.5" stroke="black" fill="magenta"/>
   </g>
   <g id="cell161">
  <circle cx="451.263" cy="382.141" r="7.21353" stroke-width="0.5" stroke="black" fill="green"/>
  <circle cx="451.263" cy="382.141" r="4.42113" stroke-width="0.5" stroke="black" fill="green"/>
   </g>
   <g id="cell10">
  <circle cx="586.112" cy="389.414" r="8.06667" stroke-width="0.5" stroke="black" fill="magenta"/>
  <circle cx="586.112" cy="389.414" r="4.88515" stroke-width="0.5" stroke="black" fill="magenta"/>
   </g>
   <g id="cell11">
  <circle cx="592.097" cy="590.052" r="8.41271" stroke-width="0.5" stroke="black" fill="magenta"/>
  <circle cx="592.097" cy="590.052" r="5.05167" stroke-width="0.5" stroke="black" fill="magenta"/>
   </g>
   <g id="cell12">
  <circle cx="505.169" cy="592.631" r="8.29667" stroke-width="0.5" stroke="black" fill="magenta"/>
  <circle cx="505.169" cy="592.631" r="5.00279" stroke-width="0.5" stroke="black" fill="magenta"/>
   </g>
   <g id="cell13">
  <circle cx="386.16" cy="567.629" r="8.41271" stroke-width="0.5" stroke="black" fill="magenta"/>
  <circle cx="386.16" cy="567.629" r="5.05167" stroke-width="0.5" stroke="black" fill="magenta"/>
   </g>
   <g id="cell14">
  <circle cx="520.559" cy="404.382" r="8.41271" stroke-width="0.5" stroke="black" fill="magenta"/>
  <circle cx="520.559" cy="404.382" r="5.05167" stroke-width="0.5" stroke="black" fill="magenta"/>
   </g>
   <g id="cell15">
  <circle cx="381.817" cy="479.092" r="8.34884" stroke-width="0.5" stroke="black" fill="magenta"/>
  <circle cx="381.817" cy="479.092" r="5.02667" stroke-width="0.5" stroke="black" fill="magenta"/>
   </g>
   <g id="cell16">
  <circle cx="440.071" cy="420.915" r="8.032" stroke-width="0.5" stroke="black" fill="magenta"/>
  <circle cx="440.071" cy="420.915" r="4.87875" stroke-width="0.5" stroke="black" fill="magenta"/>
   </g>
   <g id="cell17">
  <circle cx="573.103" cy="496.643" r="8.41271" stroke-width="0.5" stroke="black" fill="magenta"/>
  <circle cx="573.103" cy="496.643" r="5.05167" stroke-width="0.5" stroke="black" fill="magenta"/>
   </g>
   <g id="cell18">
  <circle cx="518.29" cy="389.48" r="8.41271" stroke-width="0.5" stroke="black" fill="magenta"/>
  <circle cx="518.29" cy="389.48" r="5.05167" stroke-width="0.5" stroke="black" fill="magenta"/>
   </g>
   <g id="cell19">
  <circle cx="458.548" cy="540.296" r="8.39842" stroke-width="0.5" stroke="black" fill="magenta"/>
  <circle cx="458.548" cy="540.296" r="5.04709" stroke-width="0.5" stroke="black" fill="magenta"/>
   </g>
   <g id="cell20">
  <circle cx="531.815" cy="414.669" r="8.41271" stroke-width="0.5" stroke="black" fill="magenta"/>
  <circle cx="531.815" cy="414.669" r="5.05167" stroke-width="0.5" stroke="black" fill="magenta"/>
   </g>
   <g id="cell21">
  <circle cx="466.883" cy="632.265" r="8.41271" stroke-width="0.5" stroke="black" fill="magenta"/>
  <circle cx="466.883" cy="632.265" r="5.05167" stroke-width="0.5" stroke="black" fill="magenta"/>
   </g>
   <g id="cell22">
  <circle cx="557.995" cy="496.535" r="8.41271" stroke-width="0.5" stroke="black" fill="magenta"/>
  <circle cx="557.995" cy="496.535" r="5.05167" stroke-width="0.5" stroke="black" fill="magenta"/>
   </g>
   <g id="cell23">
  <circle cx="550.404" cy="482.76" r="8.41271" stroke-width="0.5" stroke="black" fill="magenta"/>
  <circle cx="550.404" cy="482.76" r="5.05167" stroke-width="0.5" stroke="black" fill="magenta"/>
   </g>
   <g id="cell24">
  <circle cx="558.529" cy="382.453" r="8.41271" stroke-width="0.5" stroke="black" fill="magenta"/>
  <circle cx="558.529" cy="382.453" r="5.05167" stroke-width="0.5" stroke="black" fill="magenta"/>
   </g>
   <g id="cell25">
  <circle cx="648.488" cy="543.028" r="8.41157" stroke-width="0.5" stroke="black" fill="green"/>
  <circle cx="648.488" cy="543.028" r="5.05138" stroke-width="0.5" stroke="black" fill="green"/>
   </g>
   <g id="cell26">
  <circle cx="558.567" cy="398.059" r="8.39834" stroke-width="0.5" stroke="black" fill="green"/>
  <circle cx="558.567" cy="398.059" r="5.04696" stroke-width="0.5" stroke="black" fill="green"/>
   </g>
   <g id="cell27">
  <circle cx="463.854" cy="404.159" r="8.412" stroke-width="0.5" stroke="black" fill="green"/>
  <circle cx="463.854" cy="404.159" r="5.0515" stroke-width="0.5" stroke="black" fill="green"/>
   </g>
   <g id="cell28">
  <circle cx="432.022" cy="537.347" r="7.97646" stroke-width="0.5" stroke="black" fill="green"/>
  <circle cx="432.022" cy="537.347" r="4.83584" stroke-width="0.5" stroke="black" fill="green"/>
   </g>
   <g id="cell29">
  <circle cx="449.213" cy="513.133" r="6.83713" stroke-width="0.5" stroke="black" fill="green"/>
  <circle cx="449.213" cy="513.133" r="4.12773" stroke-width="0.5" stroke="black" fill="green"/>
   </g>
   <g id="cell30">
  <circle cx="483.452" cy="537.24" r="8.27742" stroke-width="0.5" stroke="black" fill="green"/>
  <circle cx="483.452" cy="537.24" r="4.99389" stroke-width="0.5" stroke="black" fill="green"/>
   </g>
   <g id="cell31">
  <circle cx="411.845" cy="542.769" r="8.41271" stroke-width="0.5" stroke="black" fill="green"/>
  <circle cx="411.845" cy="542.769" r="5.05167" stroke-width="0.5" stroke="black" fill="green"/>
   </g>
   <g id="cell169">
  <circle cx="529.114" cy="496.196" r="7.02028" stroke-width="0.5" stroke="black" fill="cyan"/>
  <circle cx="529.114" cy="496.196" r="4.25575" stroke-width="0.5" stroke="black" fill="cyan"/>
   </g>
   <g id="cell33">
  <circle cx="501.665" cy="423.501" r="8.25377" stroke-width="0.5" stroke="black" fill="green"/>
  <circle cx="501.665" cy="423.501" r="4.98209" stroke-width="0.5" stroke="black" fill="green"/>
   </g>
   <g id="cell168">
  <circle cx="382.395" cy="517.71" r="7.04562" stroke-width="0.5" stroke="black" fill="cyan"/>
  <circle cx="382.395" cy="517.71" r="4.27468" stroke-width="0.5" stroke="black" fill="cyan"/>
   </g>
   <g id="cell35">
  <circle cx="554.434" cy="545.445" r="8.41271" stroke-width="0.5" stroke="black" fill="green"/>
  <circle cx="554.434" cy="545.445" r="5.05167" stroke-width="0.5" stroke="black" fill="green"/>
   </g>
   <g id="cell36">
  <circle cx="385.594" cy="582.478" r="7.5392" stroke-width="0.5" stroke="black" fill="green"/>
  <circle cx="385.594" cy="582.478" r="4.61477" stroke-width="0.5" stroke="black" fill="green"/>
   </g>
   <g id="cell37">
  <circle cx="640.197" cy="457.099" r="8.41189" stroke-width="0.5" stroke="black" fill="green"/>
  <circle cx="640.197" cy="457.099" r="5.05147" stroke-width="0.5" stroke="black" fill="green"/>
   </g>
   <g id="cell38">
  <circle cx="530.536" cy="590.021" r="7.56779" stroke-width="0.5" stroke="black" fill="green"/>
  <circle cx="530.536" cy="590.021" r="4.59981" stroke-width="0.5" stroke="black" fill="green"/>
   </g>
   <g id="cell39">
  <circle cx="613.19" cy="491.113" r="8.41271" stroke-width="0.5" stroke="black" fill="green"/>
  <circle cx="613.19" cy="491.113" r="5.05167" stroke-width="0.5" stroke="black" fill="green"/>
   </g>
   <g id="cell40">
  <circle cx="485.794" cy="567.651" r="7.89373" stroke-width="0.5" stroke="black" fill="green"/>
  <circle cx="485.794" cy="567.651" r="4.78957" stroke-width="0.5" stroke="black" fill="green"/>
   </g>
   <g id="cell41">
  <circle cx="366.572" cy="482.111" r="8.41271" stroke-width="0.5" stroke="black" fill="green"/>
  <circle cx="366.572" cy="482.111" r="5.05167" stroke-width="0.5" stroke="black" fill="green"/>
   </g>
   <g id="cell42">
  <circle cx="438.329" cy="491.668" r="8.41271" stroke-width="0.5" stroke="black" fill="green"/>
  <circle cx="438.329" cy="491.668" r="5.05167" stroke-width="0.5" stroke="black" fill="green"/>
   </g>
   <g id="cell43">
  <circle cx="561.53" cy="438.682" r="8.41271" stroke-width="0.5" stroke="black" fill="green"/>
  <circle cx="561.53" cy="438.682" r="5.05167" stroke-width="0.5" stroke="black" fill="green"/>
   </g>
   <g id="cell164">
  <circle cx="397.882" cy="576.057" r="7.19752" stroke-width="0.5" stroke="black" fill="green"/>
  <circle cx="397.882" cy="576.057" r="4.40317" stroke-width="0.5" stroke="black" fill="green"/>
   </g>
   <g id="cell145">
  <circle cx="425.721" cy="420.171" r="8.032" stroke-width="0.5" stroke="black" fill="magenta"/>
  <circle cx="425.721" cy="420.171" r="4.87875" stroke-width="0.5" stroke="black" fill="magenta"/>
   </g>
   <g id="cell46">
  <circle cx="520.742" cy="614.501" r="8.40632" stroke-width="0.5" stroke="black" fill="green"/>
  <circle cx="520.742" cy="614.501" r="5.04976" stroke-width="0.5" stroke="black" fill="green"/>
   </g>
   <g id="cell47">
  <circle cx="500.601" cy="494.011" r="8.40873" stroke-width="0.5" stroke="black" fill="green"/>
  <circle cx="500.601" cy="494.011" r="5.05054" stroke-width="0.5" stroke="black" fill="green"/>
   </g>
   <g id="cell48">
  <circle cx="570.968" cy="604.823" r="8.39812" stroke-width="0.5" stroke="black" fill="green"/>
  <circle cx="570.968" cy="604.823" r="5.04709" stroke-width="0.5" stroke="black" fill="green"/>
   </g>
   <g id="cell49">
  <circle cx="438.568" cy="390.78" r="7.0545" stroke-width="0.5" stroke="black" fill="green"/>
  <circle cx="438.568" cy="390.78" r="4.27772" stroke-width="0.5" stroke="black" fill="green"/>
   </g>
   <g id="cell50">
  <circle cx="512.587" cy="507.663" r="8.39231" stroke-width="0.5" stroke="black" fill="cyan"/>
  <circle cx="512.587" cy="507.663" r="5.04481" stroke-width="0.5" stroke="black" fill="cyan"/>
   </g>
   <g id="cell51">
  <circle cx="402.633" cy="596.928" r="8.41271" stroke-width="0.5" stroke="black" fill="cyan"/>
  <circle cx="402.633" cy="596.928" r="5.05167" stroke-width="0.5" stroke="black" fill="cyan"/>
   </g>
   <g id="cell52">
  <circle cx="516.702" cy="419.219" r="8.41271" stroke-width="0.5" stroke="black" fill="cyan"/>
  <circle cx="516.702" cy="419.219" r="5.05167" stroke-width="0.5" stroke="black" fill="cyan"/>
   </g>
   <g id="cell53">
  <circle cx="572.023" cy="426.622" r="8.40731" stroke-width="0.5" stroke="black" fill="cyan"/>
  <circle cx="572.023" cy="426.622" r="5.05008" stroke-width="0.5" stroke="black" fill="cyan"/>
   </g>
   <g id="cell54">
  <circle cx="480.074" cy="421.958" r="8.40944" stroke-width="0.5" stroke="black" fill="cyan"/>
  <circle cx="480.074" cy="421.958" r="5.05076" stroke-width="0.5" stroke="black" fill="cyan"/>
   </g>
   <g id="cell55">
  <circle cx="522.282" cy="460.759" r="8.40755" stroke-width="0.5" stroke="black" fill="cyan"/>
  <circle cx="522.282" cy="460.759" r="5.0502" stroke-width="0.5" stroke="black" fill="cyan"/>
   </g>
   <g id="cell56">
  <circle cx="621.303" cy="522.735" r="8.41271" stroke-width="0.5" stroke="black" fill="cyan"/>
  <circle cx="621.303" cy="522.735" r="5.05167" stroke-width="0.5" stroke="black" fill="cyan"/>
   </g>
   <g id="cell105">
  <circle cx="506.376" cy="607.745" r="8.23976" stroke-width="0.5" stroke="black" fill="green"/>
  <circle cx="506.376" cy="607.745" r="4.97725" stroke-width="0.5" stroke="black" fill="green"/>
   </g>
   <g id="cell58">
  <circle cx="565.302" cy="483.771" r="7.9229" stroke-width="0.5" stroke="black" fill="cyan"/>
  <circle cx="565.302" cy="483.771" r="4.80599" stroke-width="0.5" stroke="black" fill="cyan"/>
   </g>
   <g id="cell59">
  <circle cx="385.732" cy="440.058" r="8.41271" stroke-width="0.5" stroke="black" fill="cyan"/>
  <circle cx="385.732" cy="440.058" r="5.05167" stroke-width="0.5" stroke="black" fill="cyan"/>
   </g>
   <g id="cell60">
  <circle cx="590.121" cy="468.903" r="6.69288" stroke-width="0.5" stroke="black" fill="cyan"/>
  <circle cx="590.121" cy="468.903" r="4.02051" stroke-width="0.5" stroke="black" fill="cyan"/>
   </g>
   <g id="cell61">
  <circle cx="557.056" cy="621.932" r="1.39843" stroke-width="0.5" stroke="black" fill="cyan"/>
  <circle cx="557.056" cy="621.932" r="1.38586" stroke-width="0.5" stroke="black" fill="black"/>
   </g>
   <g id="cell62">
  <circle cx="512.735" cy="434.797" r="8.38171" stroke-width="0.5" stroke="black" fill="cyan"/>
  <circle cx="512.735" cy="434.797" r="5.0406" stroke-width="0.5" stroke="black" fill="cyan"/>
   </g>
   <g id="cell63">
  <circle cx="585.614" cy="540.176" r="8.34216" stroke-width="0.5" stroke="black" fill="cyan"/>
  <circle cx="585.614" cy="540.176" r="5.02389" stroke-width="0.5" stroke="black" fill="cyan"/>
   </g>
   <g id="cell64">
  <circle cx="509.737" cy="639.029" r="8.41271" stroke-width="0.5" stroke="black" fill="cyan"/>
  <circle cx="509.737" cy="639.029" r="5.05167" stroke-width="0.5" stroke="black" fill="cyan"/>
   </g>
   <g id="cell65">
  <circle cx="544.851" cy="468.234" r="8.41049" stroke-width="0.5" stroke="black" fill="cyan"/>
  <circle cx="544.851" cy="468.234" r="5.05108" stroke-width="0.5" stroke="black" fill="cyan"/>
   </g>
   <g id="cell66">
  <circle cx="530.408" cy="533.07" r="8.40925" stroke-width="0.5" stroke="black" fill="cyan"/>
  <circle cx="530.408" cy="533.07" r="5.0507" stroke-width="0.5" stroke="black" fill="cyan"/>
   </g>
   <g id="cell67">
  <circle cx="354.673" cy="492.841" r="8.41271" stroke-width="0.5" stroke="black" fill="cyan"/>
  <circle cx="354.673" cy="492.841" r="5.05167" stroke-width="0.5" stroke="black" fill="cyan"/>
   </g>
   <g id="cell68">
  <circle cx="562.816" cy="558.793" r="8.41271" stroke-width="0.5" stroke="black" fill="cyan"/>
  <circle cx="562.816" cy="558.793" r="5.05167" stroke-width="0.5" stroke="black" fill="cyan"/>
   </g>
   <g id="cell69">
  <circle cx="441.726" cy="461.318" r="8.41271" stroke-width="0.5" stroke="black" fill="cyan"/>
  <circle cx="441.726" cy="461.318" r="5.05167" stroke-width="0.5" stroke="black" fill="cyan"/>
   </g>
   <g id="cell70">
  <circle cx="580.42" cy="482.604" r="8.41271" stroke-width="0.5" stroke="black" fill="cyan"/>
  <circle cx="580.42" cy="482.604" r="5.05167" stroke-width="0.5" stroke="black" fill="cyan"/>
   </g>
   <g id="cell71">
  <circle cx="385.061" cy="530.78" r="7.04562" stroke-width="0.5" stroke="black" fill="cyan"/>
  <circle cx="385.061" cy="530.78" r="4.27468" stroke-width="0.5" stroke="black" fill="cyan"/>
   </g>
   <g id="cell72">
  <circle cx="527.526" cy="508.958" r="7.02028" stroke-width="0.5" stroke="black" fill="cyan"/>
  <circle cx="527.526" cy="508.958" r="4.25575" stroke-width="0.5" stroke="black" fill="cyan"/>
   </g>
   <g id="cell73">
  <circle cx="363.826" cy="553.315" r="8.41093" stroke-width="0.5" stroke="black" fill="cyan"/>
  <circle cx="363.826" cy="553.315" r="5.0512" stroke-width="0.5" stroke="black" fill="cyan"/>
   </g>
   <g id="cell162">
  <circle cx="372.639" cy="536.106" r="7.56839" stroke-width="0.5" stroke="black" fill="magenta"/>
  <circle cx="372.639" cy="536.106" r="4.59998" stroke-width="0.5" stroke="black" fill="magenta"/>
   </g>
   <g id="cell75">
  <circle cx="528.185" cy="429.798" r="8.41202" stroke-width="0.5" stroke="black" fill="cyan"/>
  <circle cx="528.185" cy="429.798" r="5.0515" stroke-width="0.5" stroke="black" fill="cyan"/>
   </g>
   <g id="cell76">
  <circle cx="437.763" cy="376.24" r="8.40241" stroke-width="0.5" stroke="black" fill="green"/>
  <circle cx="437.763" cy="376.24" r="5.04857" stroke-width="0.5" stroke="black" fill="green"/>
   </g>
   <g id="cell77">
  <circle cx="475.659" cy="437.073" r="8.40478" stroke-width="0.5" stroke="black" fill="magenta"/>
  <circle cx="475.659" cy="437.073" r="5.04928" stroke-width="0.5" stroke="black" fill="magenta"/>
   </g>
   <g id="cell78">
  <circle cx="624.906" cy="461.878" r="8.41008" stroke-width="0.5" stroke="black" fill="green"/>
  <circle cx="624.906" cy="461.878" r="5.05098" stroke-width="0.5" stroke="black" fill="green"/>
   </g>
   <g id="cell79">
  <circle cx="519.586" cy="476.338" r="8.4118" stroke-width="0.5" stroke="black" fill="cyan"/>
  <circle cx="519.586" cy="476.338" r="5.05145" stroke-width="0.5" stroke="black" fill="cyan"/>
   </g>
   <g id="cell80">
  <circle cx="543.706" cy="617.131" r="8.38131" stroke-width="0.5" stroke="black" fill="green"/>
  <circle cx="543.706" cy="617.131" r="5.0405" stroke-width="0.5" stroke="black" fill="green"/>
   </g>
   <g id="cell81">
  <circle cx="545.149" cy="593.374" r="8.41124" stroke-width="0.5" stroke="black" fill="green"/>
  <circle cx="545.149" cy="593.374" r="5.05131" stroke-width="0.5" stroke="black" fill="green"/>
   </g>
   <g id="cell82">
  <circle cx="531.797" cy="559.158" r="8.2233" stroke-width="0.5" stroke="black" fill="magenta"/>
  <circle cx="531.797" cy="559.158" r="4.96709" stroke-width="0.5" stroke="black" fill="magenta"/>
   </g>
   <g id="cell83">
  <circle cx="635.34" cy="552.091" r="8.3612" stroke-width="0.5" stroke="black" fill="green"/>
  <circle cx="635.34" cy="552.091" r="5.03213" stroke-width="0.5" stroke="black" fill="green"/>
   </g>
   <g id="cell84">
  <circle cx="515.879" cy="491.715" r="8.41103" stroke-width="0.5" stroke="black" fill="cyan"/>
  <circle cx="515.879" cy="491.715" r="5.05123" stroke-width="0.5" stroke="black" fill="cyan"/>
   </g>
   <g id="cell85">
  <circle cx="352.163" cy="542.387" r="8.40773" stroke-width="0.5" stroke="black" fill="cyan"/>
  <circle cx="352.163" cy="542.387" r="5.05027" stroke-width="0.5" stroke="black" fill="cyan"/>
   </g>
   <g id="cell86">
  <circle cx="498.937" cy="535.808" r="8.37748" stroke-width="0.5" stroke="black" fill="magenta"/>
  <circle cx="498.937" cy="535.808" r="5.03897" stroke-width="0.5" stroke="black" fill="magenta"/>
   </g>
   <g id="cell87">
  <circle cx="578.944" cy="557.297" r="8.40567" stroke-width="0.5" stroke="black" fill="cyan"/>
  <circle cx="578.944" cy="557.297" r="5.04961" stroke-width="0.5" stroke="black" fill="cyan"/>
   </g>
   <g id="cell88">
  <circle cx="445.694" cy="534.99" r="7.55518" stroke-width="0.5" stroke="black" fill="magenta"/>
  <circle cx="445.694" cy="534.99" r="4.61573" stroke-width="0.5" stroke="black" fill="magenta"/>
   </g>
   <g id="cell89">
  <circle cx="551.61" cy="450.76" r="8.17096" stroke-width="0.5" stroke="black" fill="cyan"/>
  <circle cx="551.61" cy="450.76" r="4.94534" stroke-width="0.5" stroke="black" fill="cyan"/>
   </g>
   <g id="cell90">
  <circle cx="636.681" cy="472.677" r="8.36187" stroke-width="0.5" stroke="black" fill="green"/>
  <circle cx="636.681" cy="472.677" r="5.03253" stroke-width="0.5" stroke="black" fill="green"/>
   </g>
   <g id="cell91">
  <circle cx="546.887" cy="558.997" r="8.40837" stroke-width="0.5" stroke="black" fill="magenta"/>
  <circle cx="546.887" cy="558.997" r="5.05049" stroke-width="0.5" stroke="black" fill="magenta"/>
   </g>
   <g id="cell92">
  <circle cx="487.334" cy="552.365" r="8.40994" stroke-width="0.5" stroke="black" fill="green"/>
  <circle cx="487.334" cy="552.365" r="5.05091" stroke-width="0.5" stroke="black" fill="green"/>
   </g>
   <g id="cell93">
  <circle cx="538.915" cy="546.041" r="8.40837" stroke-width="0.5" stroke="black" fill="magenta"/>
  <circle cx="538.915" cy="546.041" r="5.05049" stroke-width="0.5" stroke="black" fill="magenta"/>
   </g>
   <g id="cell94">
  <circle cx="543.006" cy="496.325" r="8.40953" stroke-width="0.5" stroke="black" fill="cyan"/>
  <circle cx="543.006" cy="496.325" r="5.05079" stroke-width="0.5" stroke="black" fill="cyan"/>
   </g>
   <g id="cell95">
  <circle cx="464.682" cy="425.733" r="8.40944" stroke-width="0.5" stroke="black" fill="cyan"/>
  <circle cx="464.682" cy="425.733" r="5.05076" stroke-width="0.5" stroke="black" fill="cyan"/>
   </g>
   <g id="cell96">
  <circle cx="546.19" cy="532.214" r="8.31589" stroke-width="0.5" stroke="black" fill="cyan"/>
  <circle cx="546.19" cy="532.214" r="5.0121" stroke-width="0.5" stroke="black" fill="cyan"/>
   </g>
   <g id="cell97">
  <circle cx="422.09" cy="466.802" r="8.40613" stroke-width="0.5" stroke="black" fill="green"/>
  <circle cx="422.09" cy="466.802" r="5.04978" stroke-width="0.5" stroke="black" fill="green"/>
   </g>
   <g id="cell98">
  <circle cx="489.954" cy="523.155" r="8.37007" stroke-width="0.5" stroke="black" fill="green"/>
  <circle cx="489.954" cy="523.155" r="5.03604" stroke-width="0.5" stroke="black" fill="green"/>
   </g>
   <g id="cell99">
  <circle cx="360.003" cy="528.426" r="8.40773" stroke-width="0.5" stroke="black" fill="cyan"/>
  <circle cx="360.003" cy="528.426" r="5.05027" stroke-width="0.5" stroke="black" fill="cyan"/>
   </g>
   <g id="cell100">
  <circle cx="447.929" cy="401.869" r="8.40765" stroke-width="0.5" stroke="black" fill="green"/>
  <circle cx="447.929" cy="401.869" r="5.05022" stroke-width="0.5" stroke="black" fill="green"/>
   </g>
   <g id="cell101">
  <circle cx="534.602" cy="482.652" r="8.30653" stroke-width="0.5" stroke="black" fill="cyan"/>
  <circle cx="534.602" cy="482.652" r="5.00791" stroke-width="0.5" stroke="black" fill="cyan"/>
   </g>
   <g id="cell102">
  <circle cx="435.224" cy="475.955" r="8.40613" stroke-width="0.5" stroke="black" fill="green"/>
  <circle cx="435.224" cy="475.955" r="5.04978" stroke-width="0.5" stroke="black" fill="green"/>
   </g>
   <g id="cell103">
  <circle cx="591.737" cy="448.057" r="8.37663" stroke-width="0.5" stroke="black" fill="cyan"/>
  <circle cx="591.737" cy="448.057" r="5.0388" stroke-width="0.5" stroke="black" fill="cyan"/>
   </g>
   <g id="cell104">
  <circle cx="599.646" cy="556.879" r="8.14979" stroke-width="0.5" stroke="black" fill="cyan"/>
  <circle cx="599.646" cy="556.879" r="4.9301" stroke-width="0.5" stroke="black" fill="cyan"/>
   </g>
   <g id="cell106">
  <circle cx="460.947" cy="440.777" r="8.40478" stroke-width="0.5" stroke="black" fill="magenta"/>
  <circle cx="460.947" cy="440.777" r="5.04928" stroke-width="0.5" stroke="black" fill="magenta"/>
   </g>
   <g id="cell107">
  <circle cx="462.66" cy="389.518" r="7.21353" stroke-width="0.5" stroke="black" fill="green"/>
  <circle cx="462.66" cy="389.518" r="4.42113" stroke-width="0.5" stroke="black" fill="green"/>
   </g>
   <g id="cell108">
  <circle cx="555.034" cy="605.878" r="8.40353" stroke-width="0.5" stroke="black" fill="green"/>
  <circle cx="555.034" cy="605.878" r="5.04881" stroke-width="0.5" stroke="black" fill="green"/>
   </g>
   <g id="cell109">
  <circle cx="576.513" cy="589.828" r="8.39812" stroke-width="0.5" stroke="black" fill="green"/>
  <circle cx="576.513" cy="589.828" r="5.04709" stroke-width="0.5" stroke="black" fill="green"/>
   </g>
   <g id="cell110">
  <circle cx="369.806" cy="510.242" r="8.40022" stroke-width="0.5" stroke="black" fill="cyan"/>
  <circle cx="369.806" cy="510.242" r="5.04764" stroke-width="0.5" stroke="black" fill="cyan"/>
   </g>
   <g id="cell111">
  <circle cx="458.588" cy="555.365" r="8.30477" stroke-width="0.5" stroke="black" fill="magenta"/>
  <circle cx="458.588" cy="555.365" r="5.00766" stroke-width="0.5" stroke="black" fill="magenta"/>
   </g>
   <g id="cell112">
  <circle cx="494.604" cy="471.346" r="8.1385" stroke-width="0.5" stroke="black" fill="magenta"/>
  <circle cx="494.604" cy="471.346" r="4.92478" stroke-width="0.5" stroke="black" fill="magenta"/>
   </g>
   <g id="cell113">
  <circle cx="545.036" cy="389.629" r="8.19935" stroke-width="0.5" stroke="black" fill="green"/>
  <circle cx="545.036" cy="389.629" r="4.95616" stroke-width="0.5" stroke="black" fill="green"/>
   </g>
   <g id="cell114">
  <circle cx="524.705" cy="445.099" r="8.38851" stroke-width="0.5" stroke="black" fill="cyan"/>
  <circle cx="524.705" cy="445.099" r="5.04363" stroke-width="0.5" stroke="black" fill="cyan"/>
   </g>
   <g id="cell115">
  <circle cx="536.773" cy="454.936" r="8.32469" stroke-width="0.5" stroke="black" fill="cyan"/>
  <circle cx="536.773" cy="454.936" r="5.0173" stroke-width="0.5" stroke="black" fill="cyan"/>
   </g>
   <g id="cell116">
  <circle cx="520.672" cy="521.176" r="8.39231" stroke-width="0.5" stroke="black" fill="cyan"/>
  <circle cx="520.672" cy="521.176" r="5.04481" stroke-width="0.5" stroke="black" fill="cyan"/>
   </g>
   <g id="cell117">
  <circle cx="507.299" cy="623.312" r="8.3857" stroke-width="0.5" stroke="black" fill="green"/>
  <circle cx="507.299" cy="623.312" r="5.04243" stroke-width="0.5" stroke="black" fill="green"/>
   </g>
   <g id="cell118">
  <circle cx="509.749" cy="450.724" r="8.38171" stroke-width="0.5" stroke="black" fill="cyan"/>
  <circle cx="509.749" cy="450.724" r="5.0406" stroke-width="0.5" stroke="black" fill="cyan"/>
   </g>
   <g id="cell119">
  <circle cx="533.552" cy="604.791" r="8.38131" stroke-width="0.5" stroke="black" fill="green"/>
  <circle cx="533.552" cy="604.791" r="5.0405" stroke-width="0.5" stroke="black" fill="green"/>
   </g>
   <g id="cell120">
  <circle cx="577.062" cy="441.899" r="8.37663" stroke-width="0.5" stroke="black" fill="cyan"/>
  <circle cx="577.062" cy="441.899" r="5.0388" stroke-width="0.5" stroke="black" fill="cyan"/>
   </g>
   <g id="cell121">
  <circle cx="451.06" cy="367.381" r="8.33619" stroke-width="0.5" stroke="black" fill="green"/>
  <circle cx="451.06" cy="367.381" r="5.02274" stroke-width="0.5" stroke="black" fill="green"/>
   </g>
   <g id="cell122">
  <circle cx="505.463" cy="522.149" r="8.37748" stroke-width="0.5" stroke="black" fill="magenta"/>
  <circle cx="505.463" cy="522.149" r="5.03897" stroke-width="0.5" stroke="black" fill="magenta"/>
   </g>
   <g id="cell123">
  <circle cx="496.85" cy="509.2" r="8.37007" stroke-width="0.5" stroke="black" fill="green"/>
  <circle cx="496.85" cy="509.2" r="5.03604" stroke-width="0.5" stroke="black" fill="green"/>
   </g>
   <g id="cell124">
  <circle cx="490.28" cy="433.589" r="8.3717" stroke-width="0.5" stroke="black" fill="magenta"/>
  <circle cx="490.28" cy="433.589" r="5.03652" stroke-width="0.5" stroke="black" fill="magenta"/>
   </g>
   <g id="cell125">
  <circle cx="621.504" cy="477.48" r="8.36187" stroke-width="0.5" stroke="black" fill="green"/>
  <circle cx="621.504" cy="477.48" r="5.03253" stroke-width="0.5" stroke="black" fill="green"/>
   </g>
   <g id="cell126">
  <circle cx="628.862" cy="566.633" r="8.3612" stroke-width="0.5" stroke="black" fill="green"/>
  <circle cx="628.862" cy="566.633" r="5.03213" stroke-width="0.5" stroke="black" fill="green"/>
   </g>
   <g id="cell127">
  <circle cx="436.794" cy="360.478" r="8.33619" stroke-width="0.5" stroke="black" fill="green"/>
  <circle cx="436.794" cy="360.478" r="5.02274" stroke-width="0.5" stroke="black" fill="green"/>
   </g>
   <g id="cell128">
  <circle cx="372.136" cy="467.6" r="8.34884" stroke-width="0.5" stroke="black" fill="magenta"/>
  <circle cx="372.136" cy="467.6" r="5.02667" stroke-width="0.5" stroke="black" fill="magenta"/>
   </g>
   <g id="cell129">
  <circle cx="570.151" cy="544.213" r="8.34216" stroke-width="0.5" stroke="black" fill="cyan"/>
  <circle cx="570.151" cy="544.213" r="5.02389" stroke-width="0.5" stroke="black" fill="cyan"/>
   </g>
   <g id="cell130">
  <circle cx="540.323" cy="439.753" r="8.32469" stroke-width="0.5" stroke="black" fill="cyan"/>
  <circle cx="540.323" cy="439.753" r="5.0173" stroke-width="0.5" stroke="black" fill="cyan"/>
   </g>
   <g id="cell131">
  <circle cx="537.806" cy="519.022" r="8.31589" stroke-width="0.5" stroke="black" fill="cyan"/>
  <circle cx="537.806" cy="519.022" r="5.0121" stroke-width="0.5" stroke="black" fill="cyan"/>
   </g>
   <g id="cell132">
  <circle cx="445.347" cy="548.763" r="8.30477" stroke-width="0.5" stroke="black" fill="magenta"/>
  <circle cx="445.347" cy="548.763" r="5.00766" stroke-width="0.5" stroke="black" fill="magenta"/>
   </g>
   <g id="cell133">
  <circle cx="575.222" cy="467.298" r="8.31095" stroke-width="0.5" stroke="black" fill="cyan"/>
  <circle cx="575.222" cy="467.298" r="5.00971" stroke-width="0.5" stroke="black" fill="cyan"/>
   </g>
   <g id="cell134">
  <circle cx="534.756" cy="470.425" r="2.5287" stroke-width="0.5" stroke="black" fill="cyan"/>
  <circle cx="534.756" cy="470.425" r="2.22562" stroke-width="0.5" stroke="black" fill="black"/>
   </g>
   <g id="cell135">
  <circle cx="517.22" cy="584.162" r="8.29667" stroke-width="0.5" stroke="black" fill="magenta"/>
  <circle cx="517.22" cy="584.162" r="5.00279" stroke-width="0.5" stroke="black" fill="magenta"/>
   </g>
   <g id="cell136">
  <circle cx="471.987" cy="547.952" r="8.27742" stroke-width="0.5" stroke="black" fill="green"/>
  <circle cx="471.987" cy="547.952" r="4.99389" stroke-width="0.5" stroke="black" fill="green"/>
   </g>
   <g id="cell137">
  <circle cx="491.667" cy="612.83" r="8.23976" stroke-width="0.5" stroke="black" fill="green"/>
  <circle cx="491.667" cy="612.83" r="4.97725" stroke-width="0.5" stroke="black" fill="green"/>
   </g>
   <g id="cell138">
  <circle cx="500.653" cy="407.907" r="8.25377" stroke-width="0.5" stroke="black" fill="green"/>
  <circle cx="500.653" cy="407.907" r="4.98209" stroke-width="0.5" stroke="black" fill="green"/>
   </g>
   <g id="cell139">
  <circle cx="418.755" cy="407.462" r="8.22925" stroke-width="0.5" stroke="black" fill="magenta"/>
  <circle cx="418.755" cy="407.462" r="4.96993" stroke-width="0.5" stroke="black" fill="magenta"/>
   </g>
   <g id="cell140">
  <circle cx="524.513" cy="571.678" r="8.05375" stroke-width="0.5" stroke="black" fill="magenta"/>
  <circle cx="524.513" cy="571.678" r="4.88656" stroke-width="0.5" stroke="black" fill="magenta"/>
   </g>
   <g id="cell141">
  <circle cx="566.751" cy="453.848" r="8.17096" stroke-width="0.5" stroke="black" fill="cyan"/>
  <circle cx="566.751" cy="453.848" r="4.94534" stroke-width="0.5" stroke="black" fill="cyan"/>
   </g>
   <g id="cell142">
  <circle cx="550.271" cy="428.326" r="7.66052" stroke-width="0.5" stroke="black" fill="green"/>
  <circle cx="550.271" cy="428.326" r="4.6778" stroke-width="0.5" stroke="black" fill="green"/>
   </g>
   <g id="cell143">
  <circle cx="433.612" cy="407.825" r="8.11148" stroke-width="0.5" stroke="black" fill="magenta"/>
  <circle cx="433.612" cy="407.825" r="4.9161" stroke-width="0.5" stroke="black" fill="magenta"/>
   </g>
   <g id="cell144">
  <circle cx="545.861" cy="409.181" r="7.62525" stroke-width="0.5" stroke="black" fill="green"/>
  <circle cx="545.861" cy="409.181" r="4.65773" stroke-width="0.5" stroke="black" fill="green"/>
   </g>
   <g id="cell146">
  <circle cx="588.828" cy="548.721" r="1.19167" stroke-width="0.5" stroke="black" fill="cyan"/>
  <circle cx="588.828" cy="548.721" r="1.17976" stroke-width="0.5" stroke="black" fill="black"/>
   </g>
   <g id="cell147">
  <circle cx="516.892" cy="559.552" r="8.05375" stroke-width="0.5" stroke="black" fill="magenta"/>
  <circle cx="516.892" cy="559.552" r="4.88656" stroke-width="0.5" stroke="black" fill="magenta"/>
   </g>
   <g id="cell148">
  <circle cx="508.07" cy="465.964" r="8.1385" stroke-width="0.5" stroke="black" fill="magenta"/>
  <circle cx="508.07" cy="465.964" r="4.92478" stroke-width="0.5" stroke="black" fill="magenta"/>
   </g>
   <g id="cell149">
  <circle cx="573.921" cy="397.38" r="8.06667" stroke-width="0.5" stroke="black" fill="magenta"/>
  <circle cx="573.921" cy="397.38" r="4.88515" stroke-width="0.5" stroke="black" fill="magenta"/>
   </g>
   <g id="cell150">
  <circle cx="409.141" cy="583.636" r="7.19752" stroke-width="0.5" stroke="black" fill="green"/>
  <circle cx="409.141" cy="583.636" r="4.40317" stroke-width="0.5" stroke="black" fill="green"/>
   </g>
   <g id="cell151">
  <circle cx="419.441" cy="529.145" r="7.97646" stroke-width="0.5" stroke="black" fill="green"/>
  <circle cx="419.441" cy="529.145" r="4.83584" stroke-width="0.5" stroke="black" fill="green"/>
   </g>
   <g id="cell152">
  <circle cx="373.216" cy="575.137" r="7.73716" stroke-width="0.5" stroke="black" fill="green"/>
  <circle cx="373.216" cy="575.137" r="4.71717" stroke-width="0.5" stroke="black" fill="green"/>
   </g>
   <g id="cell153">
  <circle cx="559.915" cy="470.163" r="7.9229" stroke-width="0.5" stroke="black" fill="cyan"/>
  <circle cx="559.915" cy="470.163" r="4.80599" stroke-width="0.5" stroke="black" fill="cyan"/>
   </g>
   <g id="cell154">
  <circle cx="387.503" cy="596.605" r="7.5392" stroke-width="0.5" stroke="black" fill="green"/>
  <circle cx="387.503" cy="596.605" r="4.61477" stroke-width="0.5" stroke="black" fill="green"/>
   </g>
   <g id="cell155">
  <circle cx="484.421" cy="582.502" r="7.89373" stroke-width="0.5" stroke="black" fill="green"/>
  <circle cx="484.421" cy="582.502" r="4.78957" stroke-width="0.5" stroke="black" fill="green"/>
   </g>
   <g id="cell156">
  <circle cx="455.144" cy="525.385" r="7.89251" stroke-width="0.5" stroke="black" fill="magenta"/>
  <circle cx="455.144" cy="525.385" r="4.78922" stroke-width="0.5" stroke="black" fill="magenta"/>
   </g>
   <g id="cell157">
  <circle cx="440.682" cy="522.883" r="7.55518" stroke-width="0.5" stroke="black" fill="magenta"/>
  <circle cx="440.682" cy="522.883" r="4.61573" stroke-width="0.5" stroke="black" fill="magenta"/>
   </g>
   <g id="cell158">
  <circle cx="558.525" cy="416.38" r="7.66052" stroke-width="0.5" stroke="black" fill="green"/>
  <circle cx="558.525" cy="416.38" r="4.6778" stroke-width="0.5" stroke="black" fill="green"/>
   </g>
   <g id="cell159">
  <circle cx="534.608" cy="400.158" r="7.62525" stroke-width="0.5" stroke="black" fill="green"/>
  <circle cx="534.608" cy="400.158" r="4.65773" stroke-width="0.5" stroke="black" fill="green"/>
   </g>
   <g id="cell160">
  <circle cx="463.961" cy="375.48" r="7.73651" stroke-width="0.5" stroke="black" fill="green"/>
  <circle cx="463.961" cy="375.48" r="4.70418" stroke-width="0.5" stroke="black" fill="green"/>
   </g>
   <g id="cell165">
  <circle cx="606.839" cy="520.923" r="7.30216" stroke-width="0.5" stroke="black" fill="magenta"/>
  <circle cx="606.839" cy="520.923" r="4.43696" stroke-width="0.5" stroke="black" fill="magenta"/>
   </g>
   <g id="cell166">
  <circle cx="484.765" cy="461.84" r="7.17138" stroke-width="0.5" stroke="black" fill="magenta"/>
  <circle cx="484.765" cy="461.84" r="4.35681" stroke-width="0.5" stroke="black" fill="magenta"/>
   </g>
   <g id="cell167">
  <circle cx="426.346" cy="395.761" r="7.0545" stroke-width="0.5" stroke="black" fill="green"/>
  <circle cx="426.346" cy="395.761" r="4.27772" stroke-width="0.5" stroke="black" fill="green"/>
   </g>
   <g id="cell170">
  <circle cx="458.114" cy="504.212" r="6.83713" stroke-width="0.5" stroke="black" fill="green"/>
  <circle cx="458.114" cy="504.212" r="4.12773" stroke-width="0.5" stroke="black" fill="green"/>
   </g>
   <g id="cell171">
  <circle cx="595.592" cy="480.206" r="6.69288" stroke-width="0.5" stroke="black" fill="cyan"/>
  <circle cx="595.592" cy="480.206" r="4.02051" stroke-width="0.5" stroke="black" fill="cyan"/>
   </g>
  </g>
 </g>
  <rect x="775" y="1035" width="200" height="10" stroke-width="2" stroke="rgb(255,255,255)" fill="rgb(0,0,0)"/>
  <text x="781.25" y="1028.75"
   font-family="Arial" font-size="25" fill="black" >
   200 &#956;m
  </text>
  <text x="25" y="1045"
   font-family="Arial" font-size="18.75" fill="black" >
   0 days, 0 hours, 0 minutes, and 35.3573 seconds
  </text>
  <rect x="0" y="70" width="1000" height="1000" stroke-width="2" stroke="rgb(0,0,0)" fill="none"/>
</svg>
