<?xml version="1.0" encoding="UTF-8" standalone="no"?>
<!-- Created with PhysiCell (http://PhysiCell.MathCancer.org/) -->
<svg 
 xmlns:dc="http://purl.org/dc/elements/1.1/" 
 xmlns:cc="http://creativecommons.org/ns#" 
 xmlns:rdf="http://www.w3.org/1999/02/22-rdf-syntax-ns#" 
 xmlns:svg="http://www.w3.org/2000/svg" 
 xmlns="http://www.w3.org/2000/svg" 
 version="1.1" 
 width="1000" 
 height="1070" 
 id="svg2">
  <rect x="0" y="0" width="1000" height="1070" stroke-width="2" stroke="white" fill="white"/>
  <text x="12.5" y="30"
   font-family="Arial" font-size="25" fill="black" >
   Current time: 1 days, 6 hours, and 0.00 minutes, z = 0.00 &#956;m
  </text>
  <text x="12.5" y="57.5"
   font-family="Arial" font-size="23.75" fill="black" >
   180 agents
  </text>
 <g id="tissue" 
    transform="translate(0,1070) scale(1,-1)">
  <g id="ECM">
  </g>
  <g id="cells">
   <g id="cell0">
  <circle cx="507.935" cy="547.534" r="8.4116" stroke-width="0.5" stroke="black" fill="magenta"/>
  <circle cx="507.935" cy="547.534" r="5.05139" stroke-width="0.5" stroke="black" fill="magenta"/>
   </g>
   <g id="cell1">
  <circle cx="608.012" cy="536.723" r="7.06683" stroke-width="0.5" stroke="black" fill="magenta"/>
  <circle cx="608.012" cy="536.723" r="4.29841" stroke-width="0.5" stroke="black" fill="magenta"/>
   </g>
   <g id="cell2">
  <circle cx="510.877" cy="600.57" r="8.38766" stroke-width="0.5" stroke="black" fill="magenta"/>
  <circle cx="510.877" cy="600.57" r="5.04306" stroke-width="0.5" stroke="black" fill="magenta"/>
   </g>
   <g id="cell3">
  <circle cx="523.042" cy="547.118" r="8.41271" stroke-width="0.5" stroke="black" fill="magenta"/>
  <circle cx="523.042" cy="547.118" r="5.05167" stroke-width="0.5" stroke="black" fill="magenta"/>
   </g>
   <g id="cell4">
  <circle cx="477.248" cy="438.932" r="8.41271" stroke-width="0.5" stroke="black" fill="magenta"/>
  <circle cx="477.248" cy="438.932" r="5.05167" stroke-width="0.5" stroke="black" fill="magenta"/>
   </g>
   <g id="cell5">
  <circle cx="457.316" cy="494.44" r="8.37808" stroke-width="0.5" stroke="black" fill="magenta"/>
  <circle cx="457.316" cy="494.44" r="5.03914" stroke-width="0.5" stroke="black" fill="magenta"/>
   </g>
   <g id="cell6">
  <circle cx="582.865" cy="516.826" r="8.38118" stroke-width="0.5" stroke="black" fill="magenta"/>
  <circle cx="582.865" cy="516.826" r="5.04034" stroke-width="0.5" stroke="black" fill="magenta"/>
   </g>
   <g id="cell7">
  <circle cx="500.332" cy="456.878" r="8.24253" stroke-width="0.5" stroke="black" fill="magenta"/>
  <circle cx="500.332" cy="456.878" r="4.98014" stroke-width="0.5" stroke="black" fill="magenta"/>
   </g>
   <g id="cell8">
  <circle cx="385.272" cy="538.202" r="8.39085" stroke-width="0.5" stroke="black" fill="magenta"/>
  <circle cx="385.272" cy="538.202" r="5.04422" stroke-width="0.5" stroke="black" fill="magenta"/>
   </g>
   <g id="cell9">
  <circle cx="460.396" cy="594.271" r="8.10448" stroke-width="0.5" stroke="black" fill="magenta"/>
  <circle cx="460.396" cy="594.271" r="4.90539" stroke-width="0.5" stroke="black" fill="magenta"/>
   </g>
   <g id="cell10">
  <circle cx="576.078" cy="392.581" r="7.98892" stroke-width="0.5" stroke="black" fill="magenta"/>
  <circle cx="576.078" cy="392.581" r="4.84272" stroke-width="0.5" stroke="black" fill="magenta"/>
   </g>
   <g id="cell11">
  <circle cx="589.748" cy="590.273" r="8.41271" stroke-width="0.5" stroke="black" fill="magenta"/>
  <circle cx="589.748" cy="590.273" r="5.05167" stroke-width="0.5" stroke="black" fill="magenta"/>
   </g>
   <g id="cell12">
  <circle cx="497.856" cy="593.352" r="8.37466" stroke-width="0.5" stroke="black" fill="magenta"/>
  <circle cx="497.856" cy="593.352" r="5.03818" stroke-width="0.5" stroke="black" fill="magenta"/>
   </g>
   <g id="cell13">
  <circle cx="380.346" cy="563.999" r="8.41271" stroke-width="0.5" stroke="black" fill="magenta"/>
  <circle cx="380.346" cy="563.999" r="5.05167" stroke-width="0.5" stroke="black" fill="magenta"/>
   </g>
   <g id="cell14">
  <circle cx="531.416" cy="399.149" r="8.41271" stroke-width="0.5" stroke="black" fill="magenta"/>
  <circle cx="531.416" cy="399.149" r="5.05167" stroke-width="0.5" stroke="black" fill="magenta"/>
   </g>
   <g id="cell15">
  <circle cx="386.524" cy="471.566" r="8.06667" stroke-width="0.5" stroke="black" fill="magenta"/>
  <circle cx="386.524" cy="471.566" r="4.88515" stroke-width="0.5" stroke="black" fill="magenta"/>
   </g>
   <g id="cell16">
  <circle cx="425.479" cy="410.901" r="7.41548" stroke-width="0.5" stroke="black" fill="magenta"/>
  <circle cx="425.479" cy="410.901" r="4.50723" stroke-width="0.5" stroke="black" fill="magenta"/>
   </g>
   <g id="cell17">
  <circle cx="598.246" cy="496.769" r="8.31164" stroke-width="0.5" stroke="black" fill="magenta"/>
  <circle cx="598.246" cy="496.769" r="5.01035" stroke-width="0.5" stroke="black" fill="magenta"/>
   </g>
   <g id="cell18">
  <circle cx="522.522" cy="387.184" r="8.18833" stroke-width="0.5" stroke="black" fill="magenta"/>
  <circle cx="522.522" cy="387.184" r="4.94921" stroke-width="0.5" stroke="black" fill="magenta"/>
   </g>
   <g id="cell19">
  <circle cx="447.862" cy="539.03" r="6.92764" stroke-width="0.5" stroke="black" fill="magenta"/>
  <circle cx="447.862" cy="539.03" r="4.1918" stroke-width="0.5" stroke="black" fill="magenta"/>
   </g>
   <g id="cell20">
  <circle cx="524.889" cy="412.694" r="8.41271" stroke-width="0.5" stroke="black" fill="magenta"/>
  <circle cx="524.889" cy="412.694" r="5.05167" stroke-width="0.5" stroke="black" fill="magenta"/>
   </g>
   <g id="cell21">
  <circle cx="464.474" cy="634.471" r="8.41271" stroke-width="0.5" stroke="black" fill="magenta"/>
  <circle cx="464.474" cy="634.471" r="5.05167" stroke-width="0.5" stroke="black" fill="magenta"/>
   </g>
   <g id="cell22">
  <circle cx="559.076" cy="499.306" r="8.41217" stroke-width="0.5" stroke="black" fill="magenta"/>
  <circle cx="559.076" cy="499.306" r="5.05154" stroke-width="0.5" stroke="black" fill="magenta"/>
   </g>
   <g id="cell23">
  <circle cx="520.861" cy="488.957" r="8.41271" stroke-width="0.5" stroke="black" fill="magenta"/>
  <circle cx="520.861" cy="488.957" r="5.05167" stroke-width="0.5" stroke="black" fill="magenta"/>
   </g>
   <g id="cell24">
  <circle cx="557.78" cy="383.512" r="8.41271" stroke-width="0.5" stroke="black" fill="magenta"/>
  <circle cx="557.78" cy="383.512" r="5.05167" stroke-width="0.5" stroke="black" fill="magenta"/>
   </g>
   <g id="cell25">
  <circle cx="640.943" cy="550.03" r="8.41271" stroke-width="0.5" stroke="black" fill="green"/>
  <circle cx="640.943" cy="550.03" r="5.05167" stroke-width="0.5" stroke="black" fill="green"/>
   </g>
   <g id="cell26">
  <circle cx="546.121" cy="393.926" r="8.4097" stroke-width="0.5" stroke="black" fill="green"/>
  <circle cx="546.121" cy="393.926" r="5.05084" stroke-width="0.5" stroke="black" fill="green"/>
   </g>
   <g id="cell27">
  <circle cx="455.197" cy="381.9" r="8.3641" stroke-width="0.5" stroke="black" fill="green"/>
  <circle cx="455.197" cy="381.9" r="5.03375" stroke-width="0.5" stroke="black" fill="green"/>
   </g>
   <g id="cell28">
  <circle cx="436.515" cy="530.524" r="8.41271" stroke-width="0.5" stroke="black" fill="green"/>
  <circle cx="436.515" cy="530.524" r="5.05167" stroke-width="0.5" stroke="black" fill="green"/>
   </g>
   <g id="cell29">
  <circle cx="449.951" cy="521.868" r="8.41271" stroke-width="0.5" stroke="black" fill="green"/>
  <circle cx="449.951" cy="521.868" r="5.05167" stroke-width="0.5" stroke="black" fill="green"/>
   </g>
   <g id="cell127">
  <circle cx="394.678" cy="566.383" r="7.77972" stroke-width="0.5" stroke="black" fill="magenta"/>
  <circle cx="394.678" cy="566.383" r="4.73093" stroke-width="0.5" stroke="black" fill="magenta"/>
   </g>
   <g id="cell31">
  <circle cx="408.748" cy="543.569" r="7.08639" stroke-width="0.5" stroke="black" fill="green"/>
  <circle cx="408.748" cy="543.569" r="4.29876" stroke-width="0.5" stroke="black" fill="green"/>
   </g>
   <g id="cell122">
  <circle cx="572.757" cy="493.24" r="8.27627" stroke-width="0.5" stroke="black" fill="magenta"/>
  <circle cx="572.757" cy="493.24" r="4.99607" stroke-width="0.5" stroke="black" fill="magenta"/>
   </g>
   <g id="cell33">
  <circle cx="491.033" cy="415.461" r="8.38532" stroke-width="0.5" stroke="black" fill="green"/>
  <circle cx="491.033" cy="415.461" r="5.04199" stroke-width="0.5" stroke="black" fill="green"/>
   </g>
   <g id="cell34">
  <circle cx="402.981" cy="451.067" r="8.39316" stroke-width="0.5" stroke="black" fill="green"/>
  <circle cx="402.981" cy="451.067" r="5.04503" stroke-width="0.5" stroke="black" fill="green"/>
   </g>
   <g id="cell35">
  <circle cx="553.763" cy="554.58" r="8.4122" stroke-width="0.5" stroke="black" fill="green"/>
  <circle cx="553.763" cy="554.58" r="5.05155" stroke-width="0.5" stroke="black" fill="green"/>
   </g>
   <g id="cell36">
  <circle cx="385.85" cy="578.66" r="8.41271" stroke-width="0.5" stroke="black" fill="green"/>
  <circle cx="385.85" cy="578.66" r="5.05167" stroke-width="0.5" stroke="black" fill="green"/>
   </g>
   <g id="cell37">
  <circle cx="632.569" cy="453.018" r="8.41083" stroke-width="0.5" stroke="black" fill="green"/>
  <circle cx="632.569" cy="453.018" r="5.05118" stroke-width="0.5" stroke="black" fill="green"/>
   </g>
   <g id="cell38">
  <circle cx="538.522" cy="594.987" r="8.23444" stroke-width="0.5" stroke="black" fill="green"/>
  <circle cx="538.522" cy="594.987" r="4.97252" stroke-width="0.5" stroke="black" fill="green"/>
   </g>
   <g id="cell39">
  <circle cx="613.261" cy="498.892" r="8.39976" stroke-width="0.5" stroke="black" fill="green"/>
  <circle cx="613.261" cy="498.892" r="5.04768" stroke-width="0.5" stroke="black" fill="green"/>
   </g>
   <g id="cell40">
  <circle cx="472.638" cy="579.57" r="7.56796" stroke-width="0.5" stroke="black" fill="green"/>
  <circle cx="472.638" cy="579.57" r="4.59986" stroke-width="0.5" stroke="black" fill="green"/>
   </g>
   <g id="cell41">
  <circle cx="373.817" cy="489.99" r="8.41088" stroke-width="0.5" stroke="black" fill="green"/>
  <circle cx="373.817" cy="489.99" r="5.05119" stroke-width="0.5" stroke="black" fill="green"/>
   </g>
   <g id="cell42">
  <circle cx="441.721" cy="494.188" r="8.41271" stroke-width="0.5" stroke="black" fill="green"/>
  <circle cx="441.721" cy="494.188" r="5.05167" stroke-width="0.5" stroke="black" fill="green"/>
   </g>
   <g id="cell43">
  <circle cx="555.185" cy="428.5" r="8.41182" stroke-width="0.5" stroke="black" fill="green"/>
  <circle cx="555.185" cy="428.5" r="5.05145" stroke-width="0.5" stroke="black" fill="green"/>
   </g>
   <g id="cell44">
  <circle cx="475.398" cy="623.288" r="8.41271" stroke-width="0.5" stroke="black" fill="green"/>
  <circle cx="475.398" cy="623.288" r="5.05167" stroke-width="0.5" stroke="black" fill="green"/>
   </g>
   <g id="cell45">
  <circle cx="414.376" cy="557.04" r="8.41271" stroke-width="0.5" stroke="black" fill="green"/>
  <circle cx="414.376" cy="557.04" r="5.05167" stroke-width="0.5" stroke="black" fill="green"/>
   </g>
   <g id="cell46">
  <circle cx="524.106" cy="608.489" r="8.41271" stroke-width="0.5" stroke="black" fill="green"/>
  <circle cx="524.106" cy="608.489" r="5.05167" stroke-width="0.5" stroke="black" fill="green"/>
   </g>
   <g id="cell47">
  <circle cx="502.739" cy="494.568" r="8.41207" stroke-width="0.5" stroke="black" fill="green"/>
  <circle cx="502.739" cy="494.568" r="5.05152" stroke-width="0.5" stroke="black" fill="green"/>
   </g>
   <g id="cell48">
  <circle cx="563.057" cy="600.604" r="8.41271" stroke-width="0.5" stroke="black" fill="green"/>
  <circle cx="563.057" cy="600.604" r="5.05167" stroke-width="0.5" stroke="black" fill="green"/>
   </g>
   <g id="cell49">
  <circle cx="428.872" cy="396.598" r="8.41271" stroke-width="0.5" stroke="black" fill="green"/>
  <circle cx="428.872" cy="396.598" r="5.05167" stroke-width="0.5" stroke="black" fill="green"/>
   </g>
   <g id="cell50">
  <circle cx="515.752" cy="503.872" r="8.41271" stroke-width="0.5" stroke="black" fill="cyan"/>
  <circle cx="515.752" cy="503.872" r="5.05167" stroke-width="0.5" stroke="black" fill="cyan"/>
   </g>
   <g id="cell51">
  <circle cx="395.657" cy="591.772" r="8.41271" stroke-width="0.5" stroke="black" fill="cyan"/>
  <circle cx="395.657" cy="591.772" r="5.05167" stroke-width="0.5" stroke="black" fill="cyan"/>
   </g>
   <g id="cell108">
  <circle cx="335.854" cy="544.778" r="8.40055" stroke-width="0.5" stroke="black" fill="cyan"/>
  <circle cx="335.854" cy="544.778" r="5.04783" stroke-width="0.5" stroke="black" fill="cyan"/>
   </g>
   <g id="cell53">
  <circle cx="579.091" cy="438.473" r="7.11815" stroke-width="0.5" stroke="black" fill="cyan"/>
  <circle cx="579.091" cy="438.473" r="4.31954" stroke-width="0.5" stroke="black" fill="cyan"/>
   </g>
   <g id="cell54">
  <circle cx="476.977" cy="423.338" r="8.41271" stroke-width="0.5" stroke="black" fill="cyan"/>
  <circle cx="476.977" cy="423.338" r="5.05167" stroke-width="0.5" stroke="black" fill="cyan"/>
   </g>
   <g id="cell55">
  <circle cx="523.503" cy="473.786" r="8.39987" stroke-width="0.5" stroke="black" fill="cyan"/>
  <circle cx="523.503" cy="473.786" r="5.04751" stroke-width="0.5" stroke="black" fill="cyan"/>
   </g>
   <g id="cell56">
  <circle cx="616.913" cy="525.835" r="8.41271" stroke-width="0.5" stroke="black" fill="cyan"/>
  <circle cx="616.913" cy="525.835" r="5.05167" stroke-width="0.5" stroke="black" fill="cyan"/>
   </g>
   <g id="cell57">
  <circle cx="416.924" cy="617.466" r="8.41271" stroke-width="0.5" stroke="black" fill="cyan"/>
  <circle cx="416.924" cy="617.466" r="5.05167" stroke-width="0.5" stroke="black" fill="cyan"/>
   </g>
   <g id="cell58">
  <circle cx="547.96" cy="475.567" r="8.41271" stroke-width="0.5" stroke="black" fill="cyan"/>
  <circle cx="547.96" cy="475.567" r="5.05167" stroke-width="0.5" stroke="black" fill="cyan"/>
   </g>
   <g id="cell59">
  <circle cx="393.928" cy="425.877" r="6.783" stroke-width="0.5" stroke="black" fill="cyan"/>
  <circle cx="393.928" cy="425.877" r="4.10594" stroke-width="0.5" stroke="black" fill="cyan"/>
   </g>
   <g id="cell60">
  <circle cx="609.374" cy="469.583" r="7.40054" stroke-width="0.5" stroke="black" fill="cyan"/>
  <circle cx="609.374" cy="469.583" r="4.5205" stroke-width="0.5" stroke="black" fill="cyan"/>
   </g>
   <g id="cell61">
  <circle cx="560.525" cy="615.382" r="7.41548" stroke-width="0.5" stroke="black" fill="cyan"/>
  <circle cx="560.525" cy="615.382" r="4.50723" stroke-width="0.5" stroke="black" fill="cyan"/>
   </g>
   <g id="cell62">
  <circle cx="518.038" cy="437.11" r="7.74619" stroke-width="0.5" stroke="black" fill="cyan"/>
  <circle cx="518.038" cy="437.11" r="4.71889" stroke-width="0.5" stroke="black" fill="cyan"/>
   </g>
   <g id="cell63">
  <circle cx="594.341" cy="554.956" r="8.40671" stroke-width="0.5" stroke="black" fill="cyan"/>
  <circle cx="594.341" cy="554.956" r="5.04992" stroke-width="0.5" stroke="black" fill="cyan"/>
   </g>
   <g id="cell64">
  <circle cx="509.954" cy="636.391" r="8.41271" stroke-width="0.5" stroke="black" fill="cyan"/>
  <circle cx="509.954" cy="636.391" r="5.05167" stroke-width="0.5" stroke="black" fill="cyan"/>
   </g>
   <g id="cell65">
  <circle cx="534.385" cy="462.101" r="8.41271" stroke-width="0.5" stroke="black" fill="cyan"/>
  <circle cx="534.385" cy="462.101" r="5.05167" stroke-width="0.5" stroke="black" fill="cyan"/>
   </g>
   <g id="cell66">
  <circle cx="550.183" cy="533.603" r="8.41093" stroke-width="0.5" stroke="black" fill="cyan"/>
  <circle cx="550.183" cy="533.603" r="5.0512" stroke-width="0.5" stroke="black" fill="cyan"/>
   </g>
   <g id="cell67">
  <circle cx="360.625" cy="497.78" r="7.9082" stroke-width="0.5" stroke="black" fill="cyan"/>
  <circle cx="360.625" cy="497.78" r="4.79783" stroke-width="0.5" stroke="black" fill="cyan"/>
   </g>
   <g id="cell68">
  <circle cx="566.644" cy="566.708" r="7.0545" stroke-width="0.5" stroke="black" fill="cyan"/>
  <circle cx="566.644" cy="566.708" r="4.27772" stroke-width="0.5" stroke="black" fill="cyan"/>
   </g>
   <g id="cell69">
  <circle cx="440.151" cy="464.085" r="4.44716" stroke-width="0.5" stroke="black" fill="cyan"/>
  <circle cx="440.151" cy="464.085" r="2.97217" stroke-width="0.5" stroke="black" fill="black"/>
   </g>
   <g id="cell70">
  <circle cx="589.586" cy="472.452" r="8.40826" stroke-width="0.5" stroke="black" fill="cyan"/>
  <circle cx="589.586" cy="472.452" r="5.05039" stroke-width="0.5" stroke="black" fill="cyan"/>
   </g>
   <g id="cell71">
  <circle cx="372.177" cy="509.244" r="8.40749" stroke-width="0.5" stroke="black" fill="cyan"/>
  <circle cx="372.177" cy="509.244" r="5.0502" stroke-width="0.5" stroke="black" fill="cyan"/>
   </g>
   <g id="cell72">
  <circle cx="541.481" cy="520.665" r="8.41224" stroke-width="0.5" stroke="black" fill="cyan"/>
  <circle cx="541.481" cy="520.665" r="5.05156" stroke-width="0.5" stroke="black" fill="cyan"/>
   </g>
   <g id="cell73">
  <circle cx="346.774" cy="556.472" r="8.40055" stroke-width="0.5" stroke="black" fill="cyan"/>
  <circle cx="346.774" cy="556.472" r="5.04783" stroke-width="0.5" stroke="black" fill="cyan"/>
   </g>
   <g id="cell74">
  <circle cx="540.512" cy="434.971" r="8.1609" stroke-width="0.5" stroke="black" fill="cyan"/>
  <circle cx="540.512" cy="434.971" r="4.93506" stroke-width="0.5" stroke="black" fill="cyan"/>
   </g>
   <g id="cell75">
  <circle cx="533.131" cy="497.932" r="8.41224" stroke-width="0.5" stroke="black" fill="cyan"/>
  <circle cx="533.131" cy="497.932" r="5.05156" stroke-width="0.5" stroke="black" fill="cyan"/>
   </g>
   <g id="cell76">
  <circle cx="527.384" cy="555.426" r="1.74696" stroke-width="0.5" stroke="black" fill="green"/>
  <circle cx="527.384" cy="555.426" r="1.67742" stroke-width="0.5" stroke="black" fill="black"/>
   </g>
   <g id="cell77">
  <circle cx="545.747" cy="506.009" r="8.357" stroke-width="0.5" stroke="black" fill="magenta"/>
  <circle cx="545.747" cy="506.009" r="5.03027" stroke-width="0.5" stroke="black" fill="magenta"/>
   </g>
   <g id="cell78">
  <circle cx="343.529" cy="486.235" r="8.41214" stroke-width="0.5" stroke="black" fill="cyan"/>
  <circle cx="343.529" cy="486.235" r="5.05154" stroke-width="0.5" stroke="black" fill="cyan"/>
   </g>
   <g id="cell79">
  <circle cx="487.181" cy="499.611" r="8.08578" stroke-width="0.5" stroke="black" fill="green"/>
  <circle cx="487.181" cy="499.611" r="4.89551" stroke-width="0.5" stroke="black" fill="green"/>
   </g>
   <g id="cell80">
  <circle cx="468.337" cy="484.103" r="8.41207" stroke-width="0.5" stroke="black" fill="magenta"/>
  <circle cx="468.337" cy="484.103" r="5.05152" stroke-width="0.5" stroke="black" fill="magenta"/>
   </g>
   <g id="cell81">
  <circle cx="482.094" cy="556.446" r="8.41202" stroke-width="0.5" stroke="black" fill="green"/>
  <circle cx="482.094" cy="556.446" r="5.0515" stroke-width="0.5" stroke="black" fill="green"/>
   </g>
   <g id="cell82">
  <circle cx="571.799" cy="527.656" r="8.2017" stroke-width="0.5" stroke="black" fill="cyan"/>
  <circle cx="571.799" cy="527.656" r="4.95703" stroke-width="0.5" stroke="black" fill="cyan"/>
   </g>
   <g id="cell83">
  <circle cx="564.792" cy="453.389" r="8.40671" stroke-width="0.5" stroke="black" fill="green"/>
  <circle cx="564.792" cy="453.389" r="5.04992" stroke-width="0.5" stroke="black" fill="green"/>
   </g>
   <g id="cell84">
  <circle cx="514.869" cy="534.434" r="7.99907" stroke-width="0.5" stroke="black" fill="magenta"/>
  <circle cx="514.869" cy="534.434" r="4.85377" stroke-width="0.5" stroke="black" fill="magenta"/>
   </g>
   <g id="cell85">
  <circle cx="375.389" cy="549.672" r="8.41154" stroke-width="0.5" stroke="black" fill="magenta"/>
  <circle cx="375.389" cy="549.672" r="5.05138" stroke-width="0.5" stroke="black" fill="magenta"/>
   </g>
   <g id="cell86">
  <circle cx="606.966" cy="484.185" r="8.41147" stroke-width="0.5" stroke="black" fill="green"/>
  <circle cx="606.966" cy="484.185" r="5.05136" stroke-width="0.5" stroke="black" fill="green"/>
   </g>
   <g id="cell87">
  <circle cx="359.952" cy="547.398" r="8.41136" stroke-width="0.5" stroke="black" fill="cyan"/>
  <circle cx="359.952" cy="547.398" r="5.05133" stroke-width="0.5" stroke="black" fill="cyan"/>
   </g>
   <g id="cell88">
  <circle cx="536.07" cy="539.558" r="7.97547" stroke-width="0.5" stroke="black" fill="cyan"/>
  <circle cx="536.07" cy="539.558" r="4.83557" stroke-width="0.5" stroke="black" fill="cyan"/>
   </g>
   <g id="cell89">
  <circle cx="360.134" cy="465.982" r="8.40639" stroke-width="0.5" stroke="black" fill="green"/>
  <circle cx="360.134" cy="465.982" r="5.04984" stroke-width="0.5" stroke="black" fill="green"/>
   </g>
   <g id="cell90">
  <circle cx="639.366" cy="467.436" r="8.41083" stroke-width="0.5" stroke="black" fill="green"/>
  <circle cx="639.366" cy="467.436" r="5.05118" stroke-width="0.5" stroke="black" fill="green"/>
   </g>
   <g id="cell91">
  <circle cx="380.764" cy="523.139" r="8.40702" stroke-width="0.5" stroke="black" fill="cyan"/>
  <circle cx="380.764" cy="523.139" r="5.05005" stroke-width="0.5" stroke="black" fill="cyan"/>
   </g>
   <g id="cell92">
  <circle cx="510.108" cy="615.615" r="8.41023" stroke-width="0.5" stroke="black" fill="magenta"/>
  <circle cx="510.108" cy="615.615" r="5.051" stroke-width="0.5" stroke="black" fill="magenta"/>
   </g>
   <g id="cell93">
  <circle cx="551.016" cy="408.829" r="8.07491" stroke-width="0.5" stroke="black" fill="green"/>
  <circle cx="551.016" cy="408.829" r="4.88999" stroke-width="0.5" stroke="black" fill="green"/>
   </g>
   <g id="cell94">
  <circle cx="388.238" cy="508.982" r="8.40749" stroke-width="0.5" stroke="black" fill="cyan"/>
  <circle cx="388.238" cy="508.982" r="5.0502" stroke-width="0.5" stroke="black" fill="cyan"/>
   </g>
   <g id="cell95">
  <circle cx="370.048" cy="535.007" r="8.40702" stroke-width="0.5" stroke="black" fill="cyan"/>
  <circle cx="370.048" cy="535.007" r="5.05005" stroke-width="0.5" stroke="black" fill="cyan"/>
   </g>
   <g id="cell96">
  <circle cx="577.046" cy="463.106" r="8.39764" stroke-width="0.5" stroke="black" fill="cyan"/>
  <circle cx="577.046" cy="463.106" r="5.04687" stroke-width="0.5" stroke="black" fill="cyan"/>
   </g>
   <g id="cell97">
  <circle cx="359.119" cy="482.194" r="8.40639" stroke-width="0.5" stroke="black" fill="green"/>
  <circle cx="359.119" cy="482.194" r="5.04984" stroke-width="0.5" stroke="black" fill="green"/>
   </g>
   <g id="cell98">
  <circle cx="581.938" cy="545.212" r="8.40671" stroke-width="0.5" stroke="black" fill="cyan"/>
  <circle cx="581.938" cy="545.212" r="5.04992" stroke-width="0.5" stroke="black" fill="cyan"/>
   </g>
   <g id="cell99">
  <circle cx="550.016" cy="459.573" r="8.40671" stroke-width="0.5" stroke="black" fill="green"/>
  <circle cx="550.016" cy="459.573" r="5.04992" stroke-width="0.5" stroke="black" fill="green"/>
   </g>
   <g id="cell100">
  <circle cx="636.003" cy="482.356" r="7.84231" stroke-width="0.5" stroke="black" fill="green"/>
  <circle cx="636.003" cy="482.356" r="4.76456" stroke-width="0.5" stroke="black" fill="green"/>
   </g>
   <g id="cell101">
  <circle cx="570.833" cy="508.28" r="8.40007" stroke-width="0.5" stroke="black" fill="magenta"/>
  <circle cx="570.833" cy="508.28" r="5.04776" stroke-width="0.5" stroke="black" fill="magenta"/>
   </g>
   <g id="cell102">
  <circle cx="461.795" cy="396.263" r="8.26236" stroke-width="0.5" stroke="black" fill="green"/>
  <circle cx="461.795" cy="396.263" r="4.98708" stroke-width="0.5" stroke="black" fill="green"/>
   </g>
   <g id="cell103">
  <circle cx="563.67" cy="541.442" r="8.40282" stroke-width="0.5" stroke="black" fill="cyan"/>
  <circle cx="563.67" cy="541.442" r="5.04861" stroke-width="0.5" stroke="black" fill="cyan"/>
   </g>
   <g id="cell104">
  <circle cx="628.982" cy="500.954" r="8.39976" stroke-width="0.5" stroke="black" fill="green"/>
  <circle cx="628.982" cy="500.954" r="5.04768" stroke-width="0.5" stroke="black" fill="green"/>
   </g>
   <g id="cell105">
  <circle cx="574.803" cy="478.436" r="8.36027" stroke-width="0.5" stroke="black" fill="magenta"/>
  <circle cx="574.803" cy="478.436" r="5.03268" stroke-width="0.5" stroke="black" fill="magenta"/>
   </g>
   <g id="cell106">
  <circle cx="537.056" cy="554.758" r="8.40159" stroke-width="0.5" stroke="black" fill="green"/>
  <circle cx="537.056" cy="554.758" r="5.04816" stroke-width="0.5" stroke="black" fill="green"/>
   </g>
   <g id="cell107">
  <circle cx="510.949" cy="585.586" r="8.40154" stroke-width="0.5" stroke="black" fill="magenta"/>
  <circle cx="510.949" cy="585.586" r="5.04811" stroke-width="0.5" stroke="black" fill="magenta"/>
   </g>
   <g id="cell109">
  <circle cx="514.879" cy="451.641" r="8.39987" stroke-width="0.5" stroke="black" fill="cyan"/>
  <circle cx="514.879" cy="451.641" r="5.04751" stroke-width="0.5" stroke="black" fill="cyan"/>
   </g>
   <g id="cell110">
  <circle cx="562.506" cy="469.134" r="8.39764" stroke-width="0.5" stroke="black" fill="cyan"/>
  <circle cx="562.506" cy="469.134" r="5.04687" stroke-width="0.5" stroke="black" fill="cyan"/>
   </g>
   <g id="cell111">
  <circle cx="560.671" cy="484.432" r="8.3916" stroke-width="0.5" stroke="black" fill="magenta"/>
  <circle cx="560.671" cy="484.432" r="5.04485" stroke-width="0.5" stroke="black" fill="magenta"/>
   </g>
   <g id="cell112">
  <circle cx="387.932" cy="456.398" r="8.39316" stroke-width="0.5" stroke="black" fill="green"/>
  <circle cx="387.932" cy="456.398" r="5.04503" stroke-width="0.5" stroke="black" fill="green"/>
   </g>
   <g id="cell113">
  <circle cx="390.193" cy="552.525" r="8.35488" stroke-width="0.5" stroke="black" fill="magenta"/>
  <circle cx="390.193" cy="552.525" r="5.03026" stroke-width="0.5" stroke="black" fill="magenta"/>
   </g>
   <g id="cell114">
  <circle cx="523.606" cy="593.056" r="8.19375" stroke-width="0.5" stroke="black" fill="magenta"/>
  <circle cx="523.606" cy="593.056" r="4.9541" stroke-width="0.5" stroke="black" fill="magenta"/>
   </g>
   <g id="cell115">
  <circle cx="504.573" cy="423.908" r="8.27651" stroke-width="0.5" stroke="black" fill="green"/>
  <circle cx="504.573" cy="423.908" r="4.99627" stroke-width="0.5" stroke="black" fill="green"/>
   </g>
   <g id="cell116">
  <circle cx="441.799" cy="478.153" r="8.38206" stroke-width="0.5" stroke="black" fill="cyan"/>
  <circle cx="441.799" cy="478.153" r="5.04069" stroke-width="0.5" stroke="black" fill="cyan"/>
   </g>
   <g id="cell117">
  <circle cx="609.558" cy="513.084" r="7.86056" stroke-width="0.5" stroke="black" fill="magenta"/>
  <circle cx="609.558" cy="513.084" r="4.77432" stroke-width="0.5" stroke="black" fill="magenta"/>
   </g>
   <g id="cell118">
  <circle cx="624.145" cy="471.93" r="8.37675" stroke-width="0.5" stroke="black" fill="green"/>
  <circle cx="624.145" cy="471.93" r="5.03893" stroke-width="0.5" stroke="black" fill="green"/>
   </g>
   <g id="cell119">
  <circle cx="498.253" cy="578.648" r="8.0323" stroke-width="0.5" stroke="black" fill="magenta"/>
  <circle cx="498.253" cy="578.648" r="4.87228" stroke-width="0.5" stroke="black" fill="magenta"/>
   </g>
   <g id="cell120">
  <circle cx="471.806" cy="498.798" r="8.37808" stroke-width="0.5" stroke="black" fill="magenta"/>
  <circle cx="471.806" cy="498.798" r="5.03914" stroke-width="0.5" stroke="black" fill="magenta"/>
   </g>
   <g id="cell121">
  <circle cx="448.068" cy="452.817" r="8.23252" stroke-width="0.5" stroke="black" fill="cyan"/>
  <circle cx="448.068" cy="452.817" r="4.97492" stroke-width="0.5" stroke="black" fill="cyan"/>
   </g>
   <g id="cell123">
  <circle cx="414.001" cy="462.059" r="8.12423" stroke-width="0.5" stroke="black" fill="cyan"/>
  <circle cx="414.001" cy="462.059" r="4.92135" stroke-width="0.5" stroke="black" fill="cyan"/>
   </g>
   <g id="cell124">
  <circle cx="445.786" cy="398.527" r="6.71872" stroke-width="0.5" stroke="black" fill="green"/>
  <circle cx="445.786" cy="398.527" r="4.05415" stroke-width="0.5" stroke="black" fill="green"/>
   </g>
   <g id="cell125">
  <circle cx="487.578" cy="449.711" r="7.84551" stroke-width="0.5" stroke="black" fill="green"/>
  <circle cx="487.578" cy="449.711" r="4.76845" stroke-width="0.5" stroke="black" fill="green"/>
   </g>
   <g id="cell126">
  <circle cx="485.731" cy="585.232" r="8.0115" stroke-width="0.5" stroke="black" fill="magenta"/>
  <circle cx="485.731" cy="585.232" r="4.86104" stroke-width="0.5" stroke="black" fill="magenta"/>
   </g>
   <g id="cell128">
  <circle cx="534.902" cy="483.211" r="8.03646" stroke-width="0.5" stroke="black" fill="magenta"/>
  <circle cx="534.902" cy="483.211" r="4.87339" stroke-width="0.5" stroke="black" fill="magenta"/>
   </g>
   <g id="cell129">
  <circle cx="528.551" cy="512.466" r="8.34644" stroke-width="0.5" stroke="black" fill="magenta"/>
  <circle cx="528.551" cy="512.466" r="5.02572" stroke-width="0.5" stroke="black" fill="magenta"/>
   </g>
   <g id="cell130">
  <circle cx="367.704" cy="446.155" r="8.26004" stroke-width="0.5" stroke="black" fill="cyan"/>
  <circle cx="367.704" cy="446.155" r="4.98822" stroke-width="0.5" stroke="black" fill="cyan"/>
   </g>
   <g id="cell131">
  <circle cx="600.829" cy="524.874" r="8.33911" stroke-width="0.5" stroke="black" fill="magenta"/>
  <circle cx="600.829" cy="524.874" r="5.02235" stroke-width="0.5" stroke="black" fill="magenta"/>
   </g>
   <g id="cell132">
  <circle cx="508.788" cy="480.182" r="8.32032" stroke-width="0.5" stroke="black" fill="magenta"/>
  <circle cx="508.788" cy="480.182" r="5.01383" stroke-width="0.5" stroke="black" fill="magenta"/>
   </g>
   <g id="cell133">
  <circle cx="584.491" cy="502.131" r="8.31164" stroke-width="0.5" stroke="black" fill="magenta"/>
  <circle cx="584.491" cy="502.131" r="5.01035" stroke-width="0.5" stroke="black" fill="magenta"/>
   </g>
   <g id="cell134">
  <circle cx="490.634" cy="431.218" r="8.27651" stroke-width="0.5" stroke="black" fill="green"/>
  <circle cx="490.634" cy="431.218" r="4.99627" stroke-width="0.5" stroke="black" fill="green"/>
   </g>
   <g id="cell135">
  <circle cx="586.608" cy="487.491" r="8.27627" stroke-width="0.5" stroke="black" fill="magenta"/>
  <circle cx="586.608" cy="487.491" r="4.99607" stroke-width="0.5" stroke="black" fill="magenta"/>
   </g>
   <g id="cell136">
  <circle cx="382.625" cy="441.478" r="8.26004" stroke-width="0.5" stroke="black" fill="cyan"/>
  <circle cx="382.625" cy="441.478" r="4.98822" stroke-width="0.5" stroke="black" fill="cyan"/>
   </g>
   <g id="cell137">
  <circle cx="494.99" cy="482.601" r="7.1329" stroke-width="0.5" stroke="black" fill="magenta"/>
  <circle cx="494.99" cy="482.601" r="4.37419" stroke-width="0.5" stroke="black" fill="magenta"/>
   </g>
   <g id="cell138">
  <circle cx="474.168" cy="387.545" r="7.61133" stroke-width="0.5" stroke="black" fill="green"/>
  <circle cx="474.168" cy="387.545" r="4.63929" stroke-width="0.5" stroke="black" fill="green"/>
   </g>
   <g id="cell139">
  <circle cx="453.335" cy="467.464" r="8.23252" stroke-width="0.5" stroke="black" fill="cyan"/>
  <circle cx="453.335" cy="467.464" r="4.97492" stroke-width="0.5" stroke="black" fill="cyan"/>
   </g>
   <g id="cell140">
  <circle cx="548.454" cy="606.878" r="8.23444" stroke-width="0.5" stroke="black" fill="green"/>
  <circle cx="548.454" cy="606.878" r="4.97252" stroke-width="0.5" stroke="black" fill="green"/>
   </g>
   <g id="cell141">
  <circle cx="586.894" cy="530.83" r="8.2017" stroke-width="0.5" stroke="black" fill="cyan"/>
  <circle cx="586.894" cy="530.83" r="4.95703" stroke-width="0.5" stroke="black" fill="cyan"/>
   </g>
   <g id="cell142">
  <circle cx="515.156" cy="593.081" r="1.09243" stroke-width="0.5" stroke="black" fill="magenta"/>
  <circle cx="515.156" cy="593.081" r="1.08579" stroke-width="0.5" stroke="black" fill="black"/>
   </g>
   <g id="cell143">
  <circle cx="530.031" cy="446.771" r="8.20689" stroke-width="0.5" stroke="black" fill="cyan"/>
  <circle cx="530.031" cy="446.771" r="4.95867" stroke-width="0.5" stroke="black" fill="cyan"/>
   </g>
   <g id="cell144">
  <circle cx="516.443" cy="400.548" r="8.18833" stroke-width="0.5" stroke="black" fill="magenta"/>
  <circle cx="516.443" cy="400.548" r="4.94921" stroke-width="0.5" stroke="black" fill="magenta"/>
   </g>
   <g id="cell145">
  <circle cx="552.443" cy="444.126" r="8.1609" stroke-width="0.5" stroke="black" fill="cyan"/>
  <circle cx="552.443" cy="444.126" r="4.93506" stroke-width="0.5" stroke="black" fill="cyan"/>
   </g>
   <g id="cell146">
  <circle cx="418.243" cy="447.167" r="8.12423" stroke-width="0.5" stroke="black" fill="cyan"/>
  <circle cx="418.243" cy="447.167" r="4.92135" stroke-width="0.5" stroke="black" fill="cyan"/>
   </g>
   <g id="cell147">
  <circle cx="535.4" cy="570.289" r="8.14002" stroke-width="0.5" stroke="black" fill="green"/>
  <circle cx="535.4" cy="570.289" r="4.92535" stroke-width="0.5" stroke="black" fill="green"/>
   </g>
   <g id="cell148">
  <circle cx="590.259" cy="455.077" r="8.13813" stroke-width="0.5" stroke="black" fill="cyan"/>
  <circle cx="590.259" cy="455.077" r="4.92317" stroke-width="0.5" stroke="black" fill="cyan"/>
   </g>
   <g id="cell149">
  <circle cx="468.136" cy="606.372" r="7.65483" stroke-width="0.5" stroke="black" fill="magenta"/>
  <circle cx="468.136" cy="606.372" r="4.66976" stroke-width="0.5" stroke="black" fill="magenta"/>
   </g>
   <g id="cell150">
  <circle cx="478.491" cy="512.472" r="8.08578" stroke-width="0.5" stroke="black" fill="green"/>
  <circle cx="478.491" cy="512.472" r="4.89551" stroke-width="0.5" stroke="black" fill="green"/>
   </g>
   <g id="cell151">
  <circle cx="565.381" cy="403.014" r="8.07491" stroke-width="0.5" stroke="black" fill="green"/>
  <circle cx="565.381" cy="403.014" r="4.88999" stroke-width="0.5" stroke="black" fill="green"/>
   </g>
   <g id="cell152">
  <circle cx="498.435" cy="565.561" r="6.78596" stroke-width="0.5" stroke="black" fill="magenta"/>
  <circle cx="498.435" cy="565.561" r="4.14949" stroke-width="0.5" stroke="black" fill="magenta"/>
   </g>
   <g id="cell153">
  <circle cx="547.047" cy="491.001" r="8.03646" stroke-width="0.5" stroke="black" fill="magenta"/>
  <circle cx="547.047" cy="491.001" r="4.87339" stroke-width="0.5" stroke="black" fill="magenta"/>
   </g>
   <g id="cell154">
  <circle cx="372.451" cy="474.873" r="8.06667" stroke-width="0.5" stroke="black" fill="magenta"/>
  <circle cx="372.451" cy="474.873" r="4.88515" stroke-width="0.5" stroke="black" fill="magenta"/>
   </g>
   <g id="cell155">
  <circle cx="474.704" cy="594.005" r="8.0115" stroke-width="0.5" stroke="black" fill="magenta"/>
  <circle cx="474.704" cy="594.005" r="4.86104" stroke-width="0.5" stroke="black" fill="magenta"/>
   </g>
   <g id="cell156">
  <circle cx="515.381" cy="519.536" r="7.99907" stroke-width="0.5" stroke="black" fill="magenta"/>
  <circle cx="515.381" cy="519.536" r="4.85377" stroke-width="0.5" stroke="black" fill="magenta"/>
   </g>
   <g id="cell157">
  <circle cx="511.273" cy="465.954" r="7.91978" stroke-width="0.5" stroke="black" fill="magenta"/>
  <circle cx="511.273" cy="465.954" r="4.81638" stroke-width="0.5" stroke="black" fill="magenta"/>
   </g>
   <g id="cell158">
  <circle cx="590.518" cy="393.465" r="7.98892" stroke-width="0.5" stroke="black" fill="magenta"/>
  <circle cx="590.518" cy="393.465" r="4.84272" stroke-width="0.5" stroke="black" fill="magenta"/>
   </g>
   <g id="cell159">
  <circle cx="527.662" cy="527.416" r="7.97547" stroke-width="0.5" stroke="black" fill="cyan"/>
  <circle cx="527.662" cy="527.416" r="4.83557" stroke-width="0.5" stroke="black" fill="cyan"/>
   </g>
   <g id="cell160">
  <circle cx="346.113" cy="501.551" r="7.9082" stroke-width="0.5" stroke="black" fill="cyan"/>
  <circle cx="346.113" cy="501.551" r="4.79783" stroke-width="0.5" stroke="black" fill="cyan"/>
   </g>
   <g id="cell161">
  <circle cx="500.979" cy="442.268" r="7.84551" stroke-width="0.5" stroke="black" fill="green"/>
  <circle cx="500.979" cy="442.268" r="4.76845" stroke-width="0.5" stroke="black" fill="green"/>
   </g>
   <g id="cell162">
  <circle cx="595.934" cy="511.004" r="7.86056" stroke-width="0.5" stroke="black" fill="magenta"/>
  <circle cx="595.934" cy="511.004" r="4.77432" stroke-width="0.5" stroke="black" fill="magenta"/>
   </g>
   <g id="cell163">
  <circle cx="528.178" cy="426.949" r="7.74619" stroke-width="0.5" stroke="black" fill="cyan"/>
  <circle cx="528.178" cy="426.949" r="4.71889" stroke-width="0.5" stroke="black" fill="cyan"/>
   </g>
   <g id="cell164">
  <circle cx="622.161" cy="486.96" r="7.84231" stroke-width="0.5" stroke="black" fill="green"/>
  <circle cx="622.161" cy="486.96" r="4.76456" stroke-width="0.5" stroke="black" fill="green"/>
   </g>
   <g id="cell165">
  <circle cx="454.419" cy="607.071" r="7.65483" stroke-width="0.5" stroke="black" fill="magenta"/>
  <circle cx="454.419" cy="607.071" r="4.66976" stroke-width="0.5" stroke="black" fill="magenta"/>
   </g>
   <g id="cell166">
  <circle cx="399.838" cy="578.467" r="6.82287" stroke-width="0.5" stroke="black" fill="magenta"/>
  <circle cx="399.838" cy="578.467" r="4.18545" stroke-width="0.5" stroke="black" fill="magenta"/>
   </g>
   <g id="cell167">
  <circle cx="468.309" cy="374.332" r="7.61133" stroke-width="0.5" stroke="black" fill="green"/>
  <circle cx="468.309" cy="374.332" r="4.63929" stroke-width="0.5" stroke="black" fill="green"/>
   </g>
   <g id="cell168">
  <circle cx="604.774" cy="456.5" r="7.40054" stroke-width="0.5" stroke="black" fill="cyan"/>
  <circle cx="604.774" cy="456.5" r="4.5205" stroke-width="0.5" stroke="black" fill="cyan"/>
   </g>
   <g id="cell169">
  <circle cx="486.125" cy="570.932" r="7.56796" stroke-width="0.5" stroke="black" fill="green"/>
  <circle cx="486.125" cy="570.932" r="4.59986" stroke-width="0.5" stroke="black" fill="green"/>
   </g>
   <g id="cell170">
  <circle cx="498.701" cy="470.501" r="7.1329" stroke-width="0.5" stroke="black" fill="magenta"/>
  <circle cx="498.701" cy="470.501" r="4.37419" stroke-width="0.5" stroke="black" fill="magenta"/>
   </g>
   <g id="cell171">
  <circle cx="434.879" cy="420.351" r="7.41548" stroke-width="0.5" stroke="black" fill="magenta"/>
  <circle cx="434.879" cy="420.351" r="4.50723" stroke-width="0.5" stroke="black" fill="magenta"/>
   </g>
   <g id="cell172">
  <circle cx="556.681" cy="628.852" r="7.41548" stroke-width="0.5" stroke="black" fill="cyan"/>
  <circle cx="556.681" cy="628.852" r="4.50723" stroke-width="0.5" stroke="black" fill="cyan"/>
   </g>
   <g id="cell173">
  <circle cx="428.006" cy="458.124" r="7.22626" stroke-width="0.5" stroke="black" fill="cyan"/>
  <circle cx="428.006" cy="458.124" r="4.40043" stroke-width="0.5" stroke="black" fill="cyan"/>
   </g>
   <g id="cell174">
  <circle cx="407.537" cy="569.162" r="6.82287" stroke-width="0.5" stroke="black" fill="magenta"/>
  <circle cx="407.537" cy="569.162" r="4.18545" stroke-width="0.5" stroke="black" fill="magenta"/>
   </g>
   <g id="cell175">
  <circle cx="596.176" cy="540.78" r="7.06683" stroke-width="0.5" stroke="black" fill="magenta"/>
  <circle cx="596.176" cy="540.78" r="4.29841" stroke-width="0.5" stroke="black" fill="magenta"/>
   </g>
   <g id="cell176">
  <circle cx="565.728" cy="438.73" r="7.11815" stroke-width="0.5" stroke="black" fill="cyan"/>
  <circle cx="565.728" cy="438.73" r="4.31954" stroke-width="0.5" stroke="black" fill="cyan"/>
   </g>
   <g id="cell177">
  <circle cx="420.027" cy="536.233" r="7.08639" stroke-width="0.5" stroke="black" fill="green"/>
  <circle cx="420.027" cy="536.233" r="4.29876" stroke-width="0.5" stroke="black" fill="green"/>
   </g>
   <g id="cell178">
  <circle cx="495.871" cy="553.8" r="6.78596" stroke-width="0.5" stroke="black" fill="magenta"/>
  <circle cx="495.871" cy="553.8" r="4.14949" stroke-width="0.5" stroke="black" fill="magenta"/>
   </g>
   <g id="cell179">
  <circle cx="570.469" cy="554.108" r="7.0545" stroke-width="0.5" stroke="black" fill="cyan"/>
  <circle cx="570.469" cy="554.108" r="4.27772" stroke-width="0.5" stroke="black" fill="cyan"/>
   </g>
   <g id="cell180">
  <circle cx="458.718" cy="533.009" r="6.92764" stroke-width="0.5" stroke="black" fill="magenta"/>
  <circle cx="458.718" cy="533.009" r="4.1918" stroke-width="0.5" stroke="black" fill="magenta"/>
   </g>
   <g id="cell181">
  <circle cx="396.494" cy="438.386" r="6.783" stroke-width="0.5" stroke="black" fill="cyan"/>
  <circle cx="396.494" cy="438.386" r="4.10594" stroke-width="0.5" stroke="black" fill="cyan"/>
   </g>
   <g id="cell182">
  <circle cx="441.628" cy="386.506" r="6.71872" stroke-width="0.5" stroke="black" fill="green"/>
  <circle cx="441.628" cy="386.506" r="4.05415" stroke-width="0.5" stroke="black" fill="green"/>
   </g>
  </g>
 </g>
  <rect x="775" y="1035" width="200" height="10" stroke-width="2" stroke="rgb(255,255,255)" fill="rgb(0,0,0)"/>
  <text x="781.25" y="1028.75"
   font-family="Arial" font-size="25" fill="black" >
   200 &#956;m
  </text>
  <text x="25" y="1045"
   font-family="Arial" font-size="18.75" fill="black" >
   0 days, 0 hours, 0 minutes, and 32.4958 seconds
  </text>
  <rect x="0" y="70" width="1000" height="1000" stroke-width="2" stroke="rgb(0,0,0)" fill="none"/>
</svg>
