<?xml version="1.0" encoding="UTF-8" standalone="no"?>
<!-- Created with PhysiCell (http://PhysiCell.MathCancer.org/) -->
<svg 
 xmlns:dc="http://purl.org/dc/elements/1.1/" 
 xmlns:cc="http://creativecommons.org/ns#" 
 xmlns:rdf="http://www.w3.org/1999/02/22-rdf-syntax-ns#" 
 xmlns:svg="http://www.w3.org/2000/svg" 
 xmlns="http://www.w3.org/2000/svg" 
 version="1.1" 
 width="1000" 
 height="1070" 
 id="svg2">
  <rect x="0" y="0" width="1000" height="1070" stroke-width="2" stroke="white" fill="white"/>
  <text x="12.5" y="30"
   font-family="Arial" font-size="25" fill="black" >
   Current time: 0 days, 9 hours, and 39.00 minutes, z = 0.00 &#956;m
  </text>
  <text x="12.5" y="57.5"
   font-family="Arial" font-size="23.75" fill="black" >
   105 agents
  </text>
 <g id="tissue" 
    transform="translate(0,1070) scale(1,-1)">
  <g id="ECM">
  </g>
  <g id="cells">
   <g id="cell0">
  <circle cx="517.812" cy="533.08" r="7.90853" stroke-width="0.5" stroke="black" fill="magenta"/>
  <circle cx="517.812" cy="533.08" r="4.79791" stroke-width="0.5" stroke="black" fill="magenta"/>
   </g>
   <g id="cell1">
  <circle cx="602.492" cy="526.171" r="8.41271" stroke-width="0.5" stroke="black" fill="magenta"/>
  <circle cx="602.492" cy="526.171" r="5.05167" stroke-width="0.5" stroke="black" fill="magenta"/>
   </g>
   <g id="cell2">
  <circle cx="511.543" cy="599.27" r="8.41271" stroke-width="0.5" stroke="black" fill="magenta"/>
  <circle cx="511.543" cy="599.27" r="5.05167" stroke-width="0.5" stroke="black" fill="magenta"/>
   </g>
   <g id="cell3">
  <circle cx="524.189" cy="545.205" r="7.56049" stroke-width="0.5" stroke="black" fill="magenta"/>
  <circle cx="524.189" cy="545.205" r="4.61557" stroke-width="0.5" stroke="black" fill="magenta"/>
   </g>
   <g id="cell4">
  <circle cx="487.931" cy="438.331" r="8.21273" stroke-width="0.5" stroke="black" fill="magenta"/>
  <circle cx="487.931" cy="438.331" r="4.96162" stroke-width="0.5" stroke="black" fill="magenta"/>
   </g>
   <g id="cell5">
  <circle cx="465.032" cy="493.3" r="8.41271" stroke-width="0.5" stroke="black" fill="magenta"/>
  <circle cx="465.032" cy="493.3" r="5.05167" stroke-width="0.5" stroke="black" fill="magenta"/>
   </g>
   <g id="cell6">
  <circle cx="595.637" cy="512.669" r="8.41271" stroke-width="0.5" stroke="black" fill="magenta"/>
  <circle cx="595.637" cy="512.669" r="5.05167" stroke-width="0.5" stroke="black" fill="magenta"/>
   </g>
   <g id="cell7">
  <circle cx="509.986" cy="462.006" r="8.41271" stroke-width="0.5" stroke="black" fill="magenta"/>
  <circle cx="509.986" cy="462.006" r="5.05167" stroke-width="0.5" stroke="black" fill="magenta"/>
   </g>
   <g id="cell8">
  <circle cx="376.278" cy="544.168" r="8.41271" stroke-width="0.5" stroke="black" fill="magenta"/>
  <circle cx="376.278" cy="544.168" r="5.05167" stroke-width="0.5" stroke="black" fill="magenta"/>
   </g>
   <g id="cell9">
  <circle cx="460.472" cy="599.786" r="8.41271" stroke-width="0.5" stroke="black" fill="magenta"/>
  <circle cx="460.472" cy="599.786" r="5.05167" stroke-width="0.5" stroke="black" fill="magenta"/>
   </g>
   <g id="cell10">
  <circle cx="583.447" cy="392.105" r="8.41271" stroke-width="0.5" stroke="black" fill="magenta"/>
  <circle cx="583.447" cy="392.105" r="5.05167" stroke-width="0.5" stroke="black" fill="magenta"/>
   </g>
   <g id="cell11">
  <circle cx="589.748" cy="590.273" r="8.41271" stroke-width="0.5" stroke="black" fill="magenta"/>
  <circle cx="589.748" cy="590.273" r="5.05167" stroke-width="0.5" stroke="black" fill="magenta"/>
   </g>
   <g id="cell12">
  <circle cx="506.319" cy="585.077" r="8.41271" stroke-width="0.5" stroke="black" fill="magenta"/>
  <circle cx="506.319" cy="585.077" r="5.05167" stroke-width="0.5" stroke="black" fill="magenta"/>
   </g>
   <g id="cell13">
  <circle cx="386.194" cy="568.228" r="8.41271" stroke-width="0.5" stroke="black" fill="magenta"/>
  <circle cx="386.194" cy="568.228" r="5.05167" stroke-width="0.5" stroke="black" fill="magenta"/>
   </g>
   <g id="cell14">
  <circle cx="528.583" cy="399.167" r="8.41271" stroke-width="0.5" stroke="black" fill="magenta"/>
  <circle cx="528.583" cy="399.167" r="5.05167" stroke-width="0.5" stroke="black" fill="magenta"/>
   </g>
   <g id="cell15">
  <circle cx="379.65" cy="475.1" r="8.41271" stroke-width="0.5" stroke="black" fill="magenta"/>
  <circle cx="379.65" cy="475.1" r="5.05167" stroke-width="0.5" stroke="black" fill="magenta"/>
   </g>
   <g id="cell16">
  <circle cx="428.96" cy="413.217" r="8.41271" stroke-width="0.5" stroke="black" fill="magenta"/>
  <circle cx="428.96" cy="413.217" r="5.05167" stroke-width="0.5" stroke="black" fill="magenta"/>
   </g>
   <g id="cell17">
  <circle cx="569.322" cy="488.756" r="8.41271" stroke-width="0.5" stroke="black" fill="magenta"/>
  <circle cx="569.322" cy="488.756" r="5.05167" stroke-width="0.5" stroke="black" fill="magenta"/>
   </g>
   <g id="cell18">
  <circle cx="517.419" cy="388.935" r="8.41271" stroke-width="0.5" stroke="black" fill="magenta"/>
  <circle cx="517.419" cy="388.935" r="5.05167" stroke-width="0.5" stroke="black" fill="magenta"/>
   </g>
   <g id="cell19">
  <circle cx="456.338" cy="543.558" r="7.81315" stroke-width="0.5" stroke="black" fill="magenta"/>
  <circle cx="456.338" cy="543.558" r="4.74367" stroke-width="0.5" stroke="black" fill="magenta"/>
   </g>
   <g id="cell20">
  <circle cx="531.145" cy="414.091" r="8.41271" stroke-width="0.5" stroke="black" fill="magenta"/>
  <circle cx="531.145" cy="414.091" r="5.05167" stroke-width="0.5" stroke="black" fill="magenta"/>
   </g>
   <g id="cell21">
  <circle cx="464.368" cy="634.574" r="8.41271" stroke-width="0.5" stroke="black" fill="magenta"/>
  <circle cx="464.368" cy="634.574" r="5.05167" stroke-width="0.5" stroke="black" fill="magenta"/>
   </g>
   <g id="cell22">
  <circle cx="557.498" cy="498.431" r="8.41271" stroke-width="0.5" stroke="black" fill="magenta"/>
  <circle cx="557.498" cy="498.431" r="5.05167" stroke-width="0.5" stroke="black" fill="magenta"/>
   </g>
   <g id="cell23">
  <circle cx="539.757" cy="484.429" r="8.41271" stroke-width="0.5" stroke="black" fill="magenta"/>
  <circle cx="539.757" cy="484.429" r="5.05167" stroke-width="0.5" stroke="black" fill="magenta"/>
   </g>
   <g id="cell24">
  <circle cx="559.283" cy="379.8" r="8.41271" stroke-width="0.5" stroke="black" fill="magenta"/>
  <circle cx="559.283" cy="379.8" r="5.05167" stroke-width="0.5" stroke="black" fill="magenta"/>
   </g>
   <g id="cell25">
  <circle cx="645.526" cy="545.4" r="8.10448" stroke-width="0.5" stroke="black" fill="green"/>
  <circle cx="645.526" cy="545.4" r="4.90539" stroke-width="0.5" stroke="black" fill="green"/>
   </g>
   <g id="cell26">
  <circle cx="551.086" cy="401.245" r="8.41271" stroke-width="0.5" stroke="black" fill="green"/>
  <circle cx="551.086" cy="401.245" r="5.05167" stroke-width="0.5" stroke="black" fill="green"/>
   </g>
   <g id="cell27">
  <circle cx="463.321" cy="390.546" r="8.2239" stroke-width="0.5" stroke="black" fill="green"/>
  <circle cx="463.321" cy="390.546" r="4.96725" stroke-width="0.5" stroke="black" fill="green"/>
   </g>
   <g id="cell28">
  <circle cx="434.002" cy="530.745" r="8.41271" stroke-width="0.5" stroke="black" fill="green"/>
  <circle cx="434.002" cy="530.745" r="5.05167" stroke-width="0.5" stroke="black" fill="green"/>
   </g>
   <g id="cell29">
  <circle cx="450.389" cy="516.67" r="8.41271" stroke-width="0.5" stroke="black" fill="green"/>
  <circle cx="450.389" cy="516.67" r="5.05167" stroke-width="0.5" stroke="black" fill="green"/>
   </g>
   <g id="cell30">
  <circle cx="481.08" cy="535.078" r="7.63698" stroke-width="0.5" stroke="black" fill="green"/>
  <circle cx="481.08" cy="535.078" r="4.64085" stroke-width="0.5" stroke="black" fill="green"/>
   </g>
   <g id="cell31">
  <circle cx="412.757" cy="541.193" r="8.41271" stroke-width="0.5" stroke="black" fill="green"/>
  <circle cx="412.757" cy="541.193" r="5.05167" stroke-width="0.5" stroke="black" fill="green"/>
   </g>
   <g id="cell32">
  <circle cx="422.309" cy="480.495" r="7.3599" stroke-width="0.5" stroke="black" fill="green"/>
  <circle cx="422.309" cy="480.495" r="4.47294" stroke-width="0.5" stroke="black" fill="green"/>
   </g>
   <g id="cell33">
  <circle cx="496.311" cy="425.339" r="8.41271" stroke-width="0.5" stroke="black" fill="green"/>
  <circle cx="496.311" cy="425.339" r="5.05167" stroke-width="0.5" stroke="black" fill="green"/>
   </g>
   <g id="cell34">
  <circle cx="397.088" cy="450.831" r="8.41271" stroke-width="0.5" stroke="black" fill="green"/>
  <circle cx="397.088" cy="450.831" r="5.05167" stroke-width="0.5" stroke="black" fill="green"/>
   </g>
   <g id="cell35">
  <circle cx="550.858" cy="542.074" r="8.41271" stroke-width="0.5" stroke="black" fill="green"/>
  <circle cx="550.858" cy="542.074" r="5.05167" stroke-width="0.5" stroke="black" fill="green"/>
   </g>
   <g id="cell36">
  <circle cx="391.486" cy="582.903" r="8.41271" stroke-width="0.5" stroke="black" fill="green"/>
  <circle cx="391.486" cy="582.903" r="5.05167" stroke-width="0.5" stroke="black" fill="green"/>
   </g>
   <g id="cell37">
  <circle cx="639.535" cy="457.334" r="8.1947" stroke-width="0.5" stroke="black" fill="green"/>
  <circle cx="639.535" cy="457.334" r="4.95246" stroke-width="0.5" stroke="black" fill="green"/>
   </g>
   <g id="cell38">
  <circle cx="532.216" cy="598.556" r="8.15353" stroke-width="0.5" stroke="black" fill="green"/>
  <circle cx="532.216" cy="598.556" r="4.93122" stroke-width="0.5" stroke="black" fill="green"/>
   </g>
   <g id="cell39">
  <circle cx="613.458" cy="490.595" r="8.41271" stroke-width="0.5" stroke="black" fill="green"/>
  <circle cx="613.458" cy="490.595" r="5.05167" stroke-width="0.5" stroke="black" fill="green"/>
   </g>
   <g id="cell40">
  <circle cx="485.348" cy="571.779" r="8.41271" stroke-width="0.5" stroke="black" fill="green"/>
  <circle cx="485.348" cy="571.779" r="5.05167" stroke-width="0.5" stroke="black" fill="green"/>
   </g>
   <g id="cell41">
  <circle cx="364.925" cy="480.252" r="8.41271" stroke-width="0.5" stroke="black" fill="green"/>
  <circle cx="364.925" cy="480.252" r="5.05167" stroke-width="0.5" stroke="black" fill="green"/>
   </g>
   <g id="cell42">
  <circle cx="438.842" cy="494.268" r="8.41271" stroke-width="0.5" stroke="black" fill="green"/>
  <circle cx="438.842" cy="494.268" r="5.05167" stroke-width="0.5" stroke="black" fill="green"/>
   </g>
   <g id="cell43">
  <circle cx="558.489" cy="443.368" r="8.41271" stroke-width="0.5" stroke="black" fill="green"/>
  <circle cx="558.489" cy="443.368" r="5.05167" stroke-width="0.5" stroke="black" fill="green"/>
   </g>
   <g id="cell44">
  <circle cx="475.857" cy="624.021" r="8.41271" stroke-width="0.5" stroke="black" fill="green"/>
  <circle cx="475.857" cy="624.021" r="5.05167" stroke-width="0.5" stroke="black" fill="green"/>
   </g>
   <g id="cell45">
  <circle cx="414.953" cy="557.066" r="8.41271" stroke-width="0.5" stroke="black" fill="green"/>
  <circle cx="414.953" cy="557.066" r="5.05167" stroke-width="0.5" stroke="black" fill="green"/>
   </g>
   <g id="cell46">
  <circle cx="525.545" cy="610.981" r="6.78181" stroke-width="0.5" stroke="black" fill="green"/>
  <circle cx="525.545" cy="610.981" r="4.08714" stroke-width="0.5" stroke="black" fill="green"/>
   </g>
   <g id="cell47">
  <circle cx="505.422" cy="504.069" r="7.30216" stroke-width="0.5" stroke="black" fill="green"/>
  <circle cx="505.422" cy="504.069" r="4.43696" stroke-width="0.5" stroke="black" fill="green"/>
   </g>
   <g id="cell48">
  <circle cx="563.288" cy="601.924" r="8.41271" stroke-width="0.5" stroke="black" fill="green"/>
  <circle cx="563.288" cy="601.924" r="5.05167" stroke-width="0.5" stroke="black" fill="green"/>
   </g>
   <g id="cell49">
  <circle cx="429.826" cy="397.641" r="8.41271" stroke-width="0.5" stroke="black" fill="green"/>
  <circle cx="429.826" cy="397.641" r="5.05167" stroke-width="0.5" stroke="black" fill="green"/>
   </g>
   <g id="cell50">
  <circle cx="519.508" cy="518.593" r="7.95045" stroke-width="0.5" stroke="black" fill="cyan"/>
  <circle cx="519.508" cy="518.593" r="4.82139" stroke-width="0.5" stroke="black" fill="cyan"/>
   </g>
   <g id="cell51">
  <circle cx="398.721" cy="597.201" r="8.41271" stroke-width="0.5" stroke="black" fill="cyan"/>
  <circle cx="398.721" cy="597.201" r="5.05167" stroke-width="0.5" stroke="black" fill="cyan"/>
   </g>
   <g id="cell52">
  <circle cx="519.6" cy="424.575" r="8.41271" stroke-width="0.5" stroke="black" fill="cyan"/>
  <circle cx="519.6" cy="424.575" r="5.05167" stroke-width="0.5" stroke="black" fill="cyan"/>
   </g>
   <g id="cell53">
  <circle cx="572.903" cy="430.577" r="6.95901" stroke-width="0.5" stroke="black" fill="cyan"/>
  <circle cx="572.903" cy="430.577" r="4.21341" stroke-width="0.5" stroke="black" fill="cyan"/>
   </g>
   <g id="cell54">
  <circle cx="481.291" cy="425.436" r="7.49456" stroke-width="0.5" stroke="black" fill="cyan"/>
  <circle cx="481.291" cy="425.436" r="4.55548" stroke-width="0.5" stroke="black" fill="cyan"/>
   </g>
   <g id="cell55">
  <circle cx="523.708" cy="464.003" r="6.94819" stroke-width="0.5" stroke="black" fill="cyan"/>
  <circle cx="523.708" cy="464.003" r="4.23989" stroke-width="0.5" stroke="black" fill="cyan"/>
   </g>
   <g id="cell56">
  <circle cx="617.613" cy="522.333" r="8.41271" stroke-width="0.5" stroke="black" fill="cyan"/>
  <circle cx="617.613" cy="522.333" r="5.05167" stroke-width="0.5" stroke="black" fill="cyan"/>
   </g>
   <g id="cell105">
  <circle cx="513.169" cy="613.143" r="6.78181" stroke-width="0.5" stroke="black" fill="green"/>
  <circle cx="513.169" cy="613.143" r="4.08714" stroke-width="0.5" stroke="black" fill="green"/>
   </g>
   <g id="cell58">
  <circle cx="555.025" cy="483.235" r="8.41271" stroke-width="0.5" stroke="black" fill="cyan"/>
  <circle cx="555.025" cy="483.235" r="5.05167" stroke-width="0.5" stroke="black" fill="cyan"/>
   </g>
   <g id="cell59">
  <circle cx="385.463" cy="439.803" r="8.41271" stroke-width="0.5" stroke="black" fill="cyan"/>
  <circle cx="385.463" cy="439.803" r="5.05167" stroke-width="0.5" stroke="black" fill="cyan"/>
   </g>
   <g id="cell60">
  <circle cx="593.104" cy="473.646" r="8.41271" stroke-width="0.5" stroke="black" fill="cyan"/>
  <circle cx="593.104" cy="473.646" r="5.05167" stroke-width="0.5" stroke="black" fill="cyan"/>
   </g>
   <g id="cell61">
  <circle cx="554.183" cy="614.855" r="8.41271" stroke-width="0.5" stroke="black" fill="cyan"/>
  <circle cx="554.183" cy="614.855" r="5.05167" stroke-width="0.5" stroke="black" fill="cyan"/>
   </g>
   <g id="cell62">
  <circle cx="520.564" cy="450.367" r="8.22925" stroke-width="0.5" stroke="black" fill="cyan"/>
  <circle cx="520.564" cy="450.367" r="4.96993" stroke-width="0.5" stroke="black" fill="cyan"/>
   </g>
   <g id="cell63">
  <circle cx="575.059" cy="540.886" r="7.86286" stroke-width="0.5" stroke="black" fill="cyan"/>
  <circle cx="575.059" cy="540.886" r="4.77207" stroke-width="0.5" stroke="black" fill="cyan"/>
   </g>
   <g id="cell64">
  <circle cx="509.962" cy="636.825" r="8.41271" stroke-width="0.5" stroke="black" fill="cyan"/>
  <circle cx="509.962" cy="636.825" r="5.05167" stroke-width="0.5" stroke="black" fill="cyan"/>
   </g>
   <g id="cell65">
  <circle cx="546.719" cy="470.786" r="7.79564" stroke-width="0.5" stroke="black" fill="cyan"/>
  <circle cx="546.719" cy="470.786" r="4.73359" stroke-width="0.5" stroke="black" fill="cyan"/>
   </g>
   <g id="cell66">
  <circle cx="531.781" cy="533.287" r="7.44242" stroke-width="0.5" stroke="black" fill="cyan"/>
  <circle cx="531.781" cy="533.287" r="4.52373" stroke-width="0.5" stroke="black" fill="cyan"/>
   </g>
   <g id="cell67">
  <circle cx="354.711" cy="492.599" r="8.41271" stroke-width="0.5" stroke="black" fill="cyan"/>
  <circle cx="354.711" cy="492.599" r="5.05167" stroke-width="0.5" stroke="black" fill="cyan"/>
   </g>
   <g id="cell68">
  <circle cx="563.446" cy="551.306" r="8.41271" stroke-width="0.5" stroke="black" fill="cyan"/>
  <circle cx="563.446" cy="551.306" r="5.05167" stroke-width="0.5" stroke="black" fill="cyan"/>
   </g>
   <g id="cell69">
  <circle cx="441.447" cy="461.641" r="8.41271" stroke-width="0.5" stroke="black" fill="cyan"/>
  <circle cx="441.447" cy="461.641" r="5.05167" stroke-width="0.5" stroke="black" fill="cyan"/>
   </g>
   <g id="cell70">
  <circle cx="577.124" cy="475.172" r="8.41271" stroke-width="0.5" stroke="black" fill="cyan"/>
  <circle cx="577.124" cy="475.172" r="5.05167" stroke-width="0.5" stroke="black" fill="cyan"/>
   </g>
   <g id="cell71">
  <circle cx="377.712" cy="520.989" r="8.41271" stroke-width="0.5" stroke="black" fill="cyan"/>
  <circle cx="377.712" cy="520.989" r="5.05167" stroke-width="0.5" stroke="black" fill="cyan"/>
   </g>
   <g id="cell72">
  <circle cx="532.115" cy="511.21" r="7.51976" stroke-width="0.5" stroke="black" fill="cyan"/>
  <circle cx="532.115" cy="511.21" r="4.57072" stroke-width="0.5" stroke="black" fill="cyan"/>
   </g>
   <g id="cell73">
  <circle cx="363.46" cy="552.177" r="7.9229" stroke-width="0.5" stroke="black" fill="cyan"/>
  <circle cx="363.46" cy="552.177" r="4.80599" stroke-width="0.5" stroke="black" fill="cyan"/>
   </g>
   <g id="cell74">
  <circle cx="542.614" cy="444.925" r="8.41271" stroke-width="0.5" stroke="black" fill="cyan"/>
  <circle cx="542.614" cy="444.925" r="5.05167" stroke-width="0.5" stroke="black" fill="cyan"/>
   </g>
   <g id="cell75">
  <circle cx="528.929" cy="437.251" r="8.22925" stroke-width="0.5" stroke="black" fill="cyan"/>
  <circle cx="528.929" cy="437.251" r="4.96993" stroke-width="0.5" stroke="black" fill="cyan"/>
   </g>
   <g id="cell76">
  <circle cx="447.488" cy="380.726" r="6.98682" stroke-width="0.5" stroke="black" fill="green"/>
  <circle cx="447.488" cy="380.726" r="4.2597" stroke-width="0.5" stroke="black" fill="green"/>
   </g>
   <g id="cell77">
  <circle cx="473.156" cy="437.471" r="8.21273" stroke-width="0.5" stroke="black" fill="magenta"/>
  <circle cx="473.156" cy="437.471" r="4.96162" stroke-width="0.5" stroke="black" fill="magenta"/>
   </g>
   <g id="cell78">
  <circle cx="625.023" cy="461.394" r="7.66994" stroke-width="0.5" stroke="black" fill="green"/>
  <circle cx="625.023" cy="461.394" r="4.67583" stroke-width="0.5" stroke="black" fill="green"/>
   </g>
   <g id="cell79">
  <circle cx="516.4" cy="476.212" r="8.16806" stroke-width="0.5" stroke="black" fill="cyan"/>
  <circle cx="516.4" cy="476.212" r="4.93877" stroke-width="0.5" stroke="black" fill="cyan"/>
   </g>
   <g id="cell80">
  <circle cx="539.102" cy="612.496" r="8.00968" stroke-width="0.5" stroke="black" fill="green"/>
  <circle cx="539.102" cy="612.496" r="4.86387" stroke-width="0.5" stroke="black" fill="green"/>
   </g>
   <g id="cell81">
  <circle cx="547.703" cy="600.158" r="8.00968" stroke-width="0.5" stroke="black" fill="green"/>
  <circle cx="547.703" cy="600.158" r="4.86387" stroke-width="0.5" stroke="black" fill="green"/>
   </g>
   <g id="cell82">
  <circle cx="531.12" cy="557.483" r="8.10448" stroke-width="0.5" stroke="black" fill="magenta"/>
  <circle cx="531.12" cy="557.483" r="4.90539" stroke-width="0.5" stroke="black" fill="magenta"/>
   </g>
   <g id="cell83">
  <circle cx="634.686" cy="556.351" r="8.10448" stroke-width="0.5" stroke="black" fill="green"/>
  <circle cx="634.686" cy="556.351" r="4.90539" stroke-width="0.5" stroke="black" fill="green"/>
   </g>
   <g id="cell84">
  <circle cx="519.687" cy="503.548" r="7.95045" stroke-width="0.5" stroke="black" fill="cyan"/>
  <circle cx="519.687" cy="503.548" r="4.82139" stroke-width="0.5" stroke="black" fill="cyan"/>
   </g>
   <g id="cell85">
  <circle cx="353.974" cy="541.816" r="6.94938" stroke-width="0.5" stroke="black" fill="cyan"/>
  <circle cx="353.974" cy="541.816" r="4.25516" stroke-width="0.5" stroke="black" fill="cyan"/>
   </g>
   <g id="cell86">
  <circle cx="506.324" cy="525.13" r="7.90853" stroke-width="0.5" stroke="black" fill="magenta"/>
  <circle cx="506.324" cy="525.13" r="4.79791" stroke-width="0.5" stroke="black" fill="magenta"/>
   </g>
   <g id="cell87">
  <circle cx="576.86" cy="554.384" r="6.42291" stroke-width="0.5" stroke="black" fill="cyan"/>
  <circle cx="576.86" cy="554.384" r="3.91702" stroke-width="0.5" stroke="black" fill="cyan"/>
   </g>
   <g id="cell88">
  <circle cx="448.994" cy="531.615" r="7.81315" stroke-width="0.5" stroke="black" fill="magenta"/>
  <circle cx="448.994" cy="531.615" r="4.74367" stroke-width="0.5" stroke="black" fill="magenta"/>
   </g>
   <g id="cell89">
  <circle cx="551.851" cy="457.133" r="7.79564" stroke-width="0.5" stroke="black" fill="cyan"/>
  <circle cx="551.851" cy="457.133" r="4.73359" stroke-width="0.5" stroke="black" fill="cyan"/>
   </g>
   <g id="cell90">
  <circle cx="630.741" cy="474.77" r="7.66994" stroke-width="0.5" stroke="black" fill="green"/>
  <circle cx="630.741" cy="474.77" r="4.67583" stroke-width="0.5" stroke="black" fill="green"/>
   </g>
   <g id="cell91">
  <circle cx="544.77" cy="555.395" r="7.11319" stroke-width="0.5" stroke="black" fill="magenta"/>
  <circle cx="544.77" cy="555.395" r="4.3703" stroke-width="0.5" stroke="black" fill="magenta"/>
   </g>
   <g id="cell92">
  <circle cx="482.466" cy="549.494" r="7.63698" stroke-width="0.5" stroke="black" fill="green"/>
  <circle cx="482.466" cy="549.494" r="4.64085" stroke-width="0.5" stroke="black" fill="green"/>
   </g>
   <g id="cell93">
  <circle cx="537.17" cy="545.329" r="7.11319" stroke-width="0.5" stroke="black" fill="magenta"/>
  <circle cx="537.17" cy="545.329" r="4.3703" stroke-width="0.5" stroke="black" fill="magenta"/>
   </g>
   <g id="cell94">
  <circle cx="532.716" cy="497.135" r="7.51976" stroke-width="0.5" stroke="black" fill="cyan"/>
  <circle cx="532.716" cy="497.135" r="4.57072" stroke-width="0.5" stroke="black" fill="cyan"/>
   </g>
   <g id="cell95">
  <circle cx="467.213" cy="424.177" r="7.49456" stroke-width="0.5" stroke="black" fill="cyan"/>
  <circle cx="467.213" cy="424.177" r="4.55548" stroke-width="0.5" stroke="black" fill="cyan"/>
   </g>
   <g id="cell96">
  <circle cx="540.534" cy="522.402" r="7.44242" stroke-width="0.5" stroke="black" fill="cyan"/>
  <circle cx="540.534" cy="522.402" r="4.52373" stroke-width="0.5" stroke="black" fill="cyan"/>
   </g>
   <g id="cell97">
  <circle cx="422.757" cy="467.516" r="6.40127" stroke-width="0.5" stroke="black" fill="green"/>
  <circle cx="422.757" cy="467.516" r="3.9272" stroke-width="0.5" stroke="black" fill="green"/>
   </g>
   <g id="cell98">
  <circle cx="496.961" cy="514.882" r="7.30216" stroke-width="0.5" stroke="black" fill="green"/>
  <circle cx="496.961" cy="514.882" r="4.43696" stroke-width="0.5" stroke="black" fill="green"/>
   </g>
   <g id="cell99">
  <circle cx="357.763" cy="529.27" r="6.94938" stroke-width="0.5" stroke="black" fill="cyan"/>
  <circle cx="357.763" cy="529.27" r="4.25516" stroke-width="0.5" stroke="black" fill="cyan"/>
   </g>
   <g id="cell100">
  <circle cx="449.268" cy="393.824" r="6.98682" stroke-width="0.5" stroke="black" fill="green"/>
  <circle cx="449.268" cy="393.824" r="4.2597" stroke-width="0.5" stroke="black" fill="green"/>
   </g>
   <g id="cell101">
  <circle cx="533.218" cy="472.241" r="6.94819" stroke-width="0.5" stroke="black" fill="cyan"/>
  <circle cx="533.218" cy="472.241" r="4.23989" stroke-width="0.5" stroke="black" fill="cyan"/>
   </g>
   <g id="cell102">
  <circle cx="433.381" cy="473.219" r="6.40127" stroke-width="0.5" stroke="black" fill="green"/>
  <circle cx="433.381" cy="473.219" r="3.9272" stroke-width="0.5" stroke="black" fill="green"/>
   </g>
   <g id="cell103">
  <circle cx="573.008" cy="443.756" r="6.95901" stroke-width="0.5" stroke="black" fill="cyan"/>
  <circle cx="573.008" cy="443.756" r="4.21341" stroke-width="0.5" stroke="black" fill="cyan"/>
   </g>
   <g id="cell104">
  <circle cx="588.829" cy="553.901" r="6.42291" stroke-width="0.5" stroke="black" fill="cyan"/>
  <circle cx="588.829" cy="553.901" r="3.91702" stroke-width="0.5" stroke="black" fill="cyan"/>
   </g>
  </g>
 </g>
  <rect x="775" y="1035" width="200" height="10" stroke-width="2" stroke="rgb(255,255,255)" fill="rgb(0,0,0)"/>
  <text x="781.25" y="1028.75"
   font-family="Arial" font-size="25" fill="black" >
   200 &#956;m
  </text>
  <text x="25" y="1045"
   font-family="Arial" font-size="18.75" fill="black" >
   0 days, 0 hours, 0 minutes, and 10.8341 seconds
  </text>
  <rect x="0" y="70" width="1000" height="1000" stroke-width="2" stroke="rgb(0,0,0)" fill="none"/>
</svg>
