<?xml version="1.0" encoding="UTF-8" standalone="no"?>
<!-- Created with PhysiCell (http://PhysiCell.MathCancer.org/) -->
<svg 
 xmlns:dc="http://purl.org/dc/elements/1.1/" 
 xmlns:cc="http://creativecommons.org/ns#" 
 xmlns:rdf="http://www.w3.org/1999/02/22-rdf-syntax-ns#" 
 xmlns:svg="http://www.w3.org/2000/svg" 
 xmlns="http://www.w3.org/2000/svg" 
 version="1.1" 
 width="1000" 
 height="1070" 
 id="svg2">
  <rect x="0" y="0" width="1000" height="1070" stroke-width="2" stroke="white" fill="white"/>
  <text x="12.5" y="30"
   font-family="Arial" font-size="25" fill="black" >
   Current time: 0 days, 19 hours, and 54.00 minutes, z = 0.00 &#956;m
  </text>
  <text x="12.5" y="57.5"
   font-family="Arial" font-size="23.75" fill="black" >
   135 agents
  </text>
 <g id="tissue" 
    transform="translate(0,1070) scale(1,-1)">
  <g id="ECM">
  </g>
  <g id="cells">
   <g id="cell0">
  <circle cx="513.36" cy="535.64" r="8.38532" stroke-width="0.5" stroke="black" fill="magenta"/>
  <circle cx="513.36" cy="535.64" r="5.04199" stroke-width="0.5" stroke="black" fill="magenta"/>
   </g>
   <g id="cell1">
  <circle cx="601.755" cy="524.065" r="8.41271" stroke-width="0.5" stroke="black" fill="magenta"/>
  <circle cx="601.755" cy="524.065" r="5.05167" stroke-width="0.5" stroke="black" fill="magenta"/>
   </g>
   <g id="cell2">
  <circle cx="515.975" cy="597.928" r="8.41271" stroke-width="0.5" stroke="black" fill="magenta"/>
  <circle cx="515.975" cy="597.928" r="5.05167" stroke-width="0.5" stroke="black" fill="magenta"/>
   </g>
   <g id="cell3">
  <circle cx="522.855" cy="547.821" r="8.36785" stroke-width="0.5" stroke="black" fill="magenta"/>
  <circle cx="522.855" cy="547.821" r="5.03553" stroke-width="0.5" stroke="black" fill="magenta"/>
   </g>
   <g id="cell4">
  <circle cx="488.578" cy="446.031" r="7.75256" stroke-width="0.5" stroke="black" fill="magenta"/>
  <circle cx="488.578" cy="446.031" r="4.71028" stroke-width="0.5" stroke="black" fill="magenta"/>
   </g>
   <g id="cell5">
  <circle cx="465.032" cy="493.3" r="8.41271" stroke-width="0.5" stroke="black" fill="magenta"/>
  <circle cx="465.032" cy="493.3" r="5.05167" stroke-width="0.5" stroke="black" fill="magenta"/>
   </g>
   <g id="cell6">
  <circle cx="596.704" cy="514.722" r="3.3642" stroke-width="0.5" stroke="black" fill="magenta"/>
  <circle cx="596.704" cy="514.722" r="2.62376" stroke-width="0.5" stroke="black" fill="black"/>
   </g>
   <g id="cell7">
  <circle cx="496.393" cy="457.888" r="8.1947" stroke-width="0.5" stroke="black" fill="magenta"/>
  <circle cx="496.393" cy="457.888" r="4.95246" stroke-width="0.5" stroke="black" fill="magenta"/>
   </g>
   <g id="cell8">
  <circle cx="376.378" cy="542.71" r="8.41271" stroke-width="0.5" stroke="black" fill="magenta"/>
  <circle cx="376.378" cy="542.71" r="5.05167" stroke-width="0.5" stroke="black" fill="magenta"/>
   </g>
   <g id="cell9">
  <circle cx="460.472" cy="599.786" r="3.66624" stroke-width="0.5" stroke="black" fill="magenta"/>
  <circle cx="460.472" cy="599.786" r="2.75003" stroke-width="0.5" stroke="black" fill="black"/>
   </g>
   <g id="cell10">
  <circle cx="583.447" cy="392.105" r="8.41271" stroke-width="0.5" stroke="black" fill="magenta"/>
  <circle cx="583.447" cy="392.105" r="5.05167" stroke-width="0.5" stroke="black" fill="magenta"/>
   </g>
   <g id="cell11">
  <circle cx="591.951" cy="590.051" r="8.41271" stroke-width="0.5" stroke="black" fill="magenta"/>
  <circle cx="591.951" cy="590.051" r="5.05167" stroke-width="0.5" stroke="black" fill="magenta"/>
   </g>
   <g id="cell12">
  <circle cx="504.058" cy="591.329" r="6.75639" stroke-width="0.5" stroke="black" fill="magenta"/>
  <circle cx="504.058" cy="591.329" r="4.06813" stroke-width="0.5" stroke="black" fill="magenta"/>
   </g>
   <g id="cell13">
  <circle cx="386.194" cy="568.228" r="8.41271" stroke-width="0.5" stroke="black" fill="magenta"/>
  <circle cx="386.194" cy="568.228" r="5.05167" stroke-width="0.5" stroke="black" fill="magenta"/>
   </g>
   <g id="cell14">
  <circle cx="528.864" cy="400.394" r="8.41271" stroke-width="0.5" stroke="black" fill="magenta"/>
  <circle cx="528.864" cy="400.394" r="5.05167" stroke-width="0.5" stroke="black" fill="magenta"/>
   </g>
   <g id="cell15">
  <circle cx="384.159" cy="477.049" r="7.38797" stroke-width="0.5" stroke="black" fill="magenta"/>
  <circle cx="384.159" cy="477.049" r="4.49029" stroke-width="0.5" stroke="black" fill="magenta"/>
   </g>
   <g id="cell16">
  <circle cx="429.043" cy="412.527" r="8.41271" stroke-width="0.5" stroke="black" fill="magenta"/>
  <circle cx="429.043" cy="412.527" r="5.05167" stroke-width="0.5" stroke="black" fill="magenta"/>
   </g>
   <g id="cell17">
  <circle cx="570.901" cy="491.395" r="8.41271" stroke-width="0.5" stroke="black" fill="magenta"/>
  <circle cx="570.901" cy="491.395" r="5.05167" stroke-width="0.5" stroke="black" fill="magenta"/>
   </g>
   <g id="cell18">
  <circle cx="518.183" cy="389.61" r="8.41271" stroke-width="0.5" stroke="black" fill="magenta"/>
  <circle cx="518.183" cy="389.61" r="5.05167" stroke-width="0.5" stroke="black" fill="magenta"/>
   </g>
   <g id="cell19">
  <circle cx="460.063" cy="540.722" r="8.18988" stroke-width="0.5" stroke="black" fill="magenta"/>
  <circle cx="460.063" cy="540.722" r="4.95248" stroke-width="0.5" stroke="black" fill="magenta"/>
   </g>
   <g id="cell20">
  <circle cx="530.829" cy="415.532" r="8.41271" stroke-width="0.5" stroke="black" fill="magenta"/>
  <circle cx="530.829" cy="415.532" r="5.05167" stroke-width="0.5" stroke="black" fill="magenta"/>
   </g>
   <g id="cell21">
  <circle cx="465.999" cy="633.077" r="8.41271" stroke-width="0.5" stroke="black" fill="magenta"/>
  <circle cx="465.999" cy="633.077" r="5.05167" stroke-width="0.5" stroke="black" fill="magenta"/>
   </g>
   <g id="cell22">
  <circle cx="556.066" cy="494.823" r="8.41271" stroke-width="0.5" stroke="black" fill="magenta"/>
  <circle cx="556.066" cy="494.823" r="5.05167" stroke-width="0.5" stroke="black" fill="magenta"/>
   </g>
   <g id="cell23">
  <circle cx="545.553" cy="483.921" r="8.41271" stroke-width="0.5" stroke="black" fill="magenta"/>
  <circle cx="545.553" cy="483.921" r="5.05167" stroke-width="0.5" stroke="black" fill="magenta"/>
   </g>
   <g id="cell24">
  <circle cx="558.797" cy="381.598" r="8.41271" stroke-width="0.5" stroke="black" fill="magenta"/>
  <circle cx="558.797" cy="381.598" r="5.05167" stroke-width="0.5" stroke="black" fill="magenta"/>
   </g>
   <g id="cell25">
  <circle cx="647.732" cy="543.57" r="8.39571" stroke-width="0.5" stroke="black" fill="green"/>
  <circle cx="647.732" cy="543.57" r="5.04599" stroke-width="0.5" stroke="black" fill="green"/>
   </g>
   <g id="cell26">
  <circle cx="555.222" cy="396.544" r="8.18833" stroke-width="0.5" stroke="black" fill="green"/>
  <circle cx="555.222" cy="396.544" r="4.94921" stroke-width="0.5" stroke="black" fill="green"/>
   </g>
   <g id="cell27">
  <circle cx="465.786" cy="395.782" r="8.40215" stroke-width="0.5" stroke="black" fill="green"/>
  <circle cx="465.786" cy="395.782" r="5.04833" stroke-width="0.5" stroke="black" fill="green"/>
   </g>
   <g id="cell28">
  <circle cx="432.78" cy="530.695" r="8.41271" stroke-width="0.5" stroke="black" fill="green"/>
  <circle cx="432.78" cy="530.695" r="5.05167" stroke-width="0.5" stroke="black" fill="green"/>
   </g>
   <g id="cell29">
  <circle cx="450.427" cy="516.248" r="8.41271" stroke-width="0.5" stroke="black" fill="green"/>
  <circle cx="450.427" cy="516.248" r="5.05167" stroke-width="0.5" stroke="black" fill="green"/>
   </g>
   <g id="cell30">
  <circle cx="483.445" cy="535.186" r="8.37092" stroke-width="0.5" stroke="black" fill="green"/>
  <circle cx="483.445" cy="535.186" r="5.03613" stroke-width="0.5" stroke="black" fill="green"/>
   </g>
   <g id="cell31">
  <circle cx="412.807" cy="541.561" r="8.41271" stroke-width="0.5" stroke="black" fill="green"/>
  <circle cx="412.807" cy="541.561" r="5.05167" stroke-width="0.5" stroke="black" fill="green"/>
   </g>
   <g id="cell32">
  <circle cx="421.017" cy="481.974" r="8.35568" stroke-width="0.5" stroke="black" fill="green"/>
  <circle cx="421.017" cy="481.974" r="5.02965" stroke-width="0.5" stroke="black" fill="green"/>
   </g>
   <g id="cell33">
  <circle cx="501.668" cy="421.43" r="8.41271" stroke-width="0.5" stroke="black" fill="green"/>
  <circle cx="501.668" cy="421.43" r="5.05167" stroke-width="0.5" stroke="black" fill="green"/>
   </g>
   <g id="cell34">
  <circle cx="397.088" cy="450.831" r="8.41271" stroke-width="0.5" stroke="black" fill="green"/>
  <circle cx="397.088" cy="450.831" r="5.05167" stroke-width="0.5" stroke="black" fill="green"/>
   </g>
   <g id="cell35">
  <circle cx="552.799" cy="542.689" r="8.41271" stroke-width="0.5" stroke="black" fill="green"/>
  <circle cx="552.799" cy="542.689" r="5.05167" stroke-width="0.5" stroke="black" fill="green"/>
   </g>
   <g id="cell36">
  <circle cx="391.486" cy="582.903" r="8.41271" stroke-width="0.5" stroke="black" fill="green"/>
  <circle cx="391.486" cy="582.903" r="5.05167" stroke-width="0.5" stroke="black" fill="green"/>
   </g>
   <g id="cell37">
  <circle cx="639.883" cy="457.979" r="8.40056" stroke-width="0.5" stroke="black" fill="green"/>
  <circle cx="639.883" cy="457.979" r="5.04776" stroke-width="0.5" stroke="black" fill="green"/>
   </g>
   <g id="cell38">
  <circle cx="529.455" cy="590.083" r="8.39834" stroke-width="0.5" stroke="black" fill="green"/>
  <circle cx="529.455" cy="590.083" r="5.04696" stroke-width="0.5" stroke="black" fill="green"/>
   </g>
   <g id="cell39">
  <circle cx="613.926" cy="489.958" r="8.41271" stroke-width="0.5" stroke="black" fill="green"/>
  <circle cx="613.926" cy="489.958" r="5.05167" stroke-width="0.5" stroke="black" fill="green"/>
   </g>
   <g id="cell40">
  <circle cx="485.348" cy="571.779" r="8.41271" stroke-width="0.5" stroke="black" fill="green"/>
  <circle cx="485.348" cy="571.779" r="5.05167" stroke-width="0.5" stroke="black" fill="green"/>
   </g>
   <g id="cell41">
  <circle cx="364.07" cy="481.262" r="8.41271" stroke-width="0.5" stroke="black" fill="green"/>
  <circle cx="364.07" cy="481.262" r="5.05167" stroke-width="0.5" stroke="black" fill="green"/>
   </g>
   <g id="cell42">
  <circle cx="438.822" cy="494.166" r="8.41271" stroke-width="0.5" stroke="black" fill="green"/>
  <circle cx="438.822" cy="494.166" r="5.05167" stroke-width="0.5" stroke="black" fill="green"/>
   </g>
   <g id="cell43">
  <circle cx="561.461" cy="440.872" r="8.41271" stroke-width="0.5" stroke="black" fill="green"/>
  <circle cx="561.461" cy="440.872" r="5.05167" stroke-width="0.5" stroke="black" fill="green"/>
   </g>
   <g id="cell44">
  <circle cx="474.227" cy="625.518" r="3.66624" stroke-width="0.5" stroke="black" fill="green"/>
  <circle cx="474.227" cy="625.518" r="2.75003" stroke-width="0.5" stroke="black" fill="black"/>
   </g>
   <g id="cell45">
  <circle cx="414.902" cy="556.698" r="1.45214" stroke-width="0.5" stroke="black" fill="green"/>
  <circle cx="414.902" cy="556.698" r="1.43612" stroke-width="0.5" stroke="black" fill="black"/>
   </g>
   <g id="cell46">
  <circle cx="520.461" cy="612.81" r="8.31491" stroke-width="0.5" stroke="black" fill="green"/>
  <circle cx="520.461" cy="612.81" r="5.01133" stroke-width="0.5" stroke="black" fill="green"/>
   </g>
   <g id="cell47">
  <circle cx="504.338" cy="495.845" r="8.35236" stroke-width="0.5" stroke="black" fill="green"/>
  <circle cx="504.338" cy="495.845" r="5.02821" stroke-width="0.5" stroke="black" fill="green"/>
   </g>
   <g id="cell48">
  <circle cx="571.029" cy="604.606" r="8.1853" stroke-width="0.5" stroke="black" fill="green"/>
  <circle cx="571.029" cy="604.606" r="4.95275" stroke-width="0.5" stroke="black" fill="green"/>
   </g>
   <g id="cell49">
  <circle cx="431.944" cy="397.143" r="8.41271" stroke-width="0.5" stroke="black" fill="green"/>
  <circle cx="431.944" cy="397.143" r="5.05167" stroke-width="0.5" stroke="black" fill="green"/>
   </g>
   <g id="cell50">
  <circle cx="512.315" cy="509.196" r="8.09094" stroke-width="0.5" stroke="black" fill="cyan"/>
  <circle cx="512.315" cy="509.196" r="4.90057" stroke-width="0.5" stroke="black" fill="cyan"/>
   </g>
   <g id="cell51">
  <circle cx="398.721" cy="597.201" r="8.41271" stroke-width="0.5" stroke="black" fill="cyan"/>
  <circle cx="398.721" cy="597.201" r="5.05167" stroke-width="0.5" stroke="black" fill="cyan"/>
   </g>
   <g id="cell52">
  <circle cx="517.388" cy="423.214" r="8.41271" stroke-width="0.5" stroke="black" fill="cyan"/>
  <circle cx="517.388" cy="423.214" r="5.05167" stroke-width="0.5" stroke="black" fill="cyan"/>
   </g>
   <g id="cell53">
  <circle cx="572.667" cy="429.444" r="8.33026" stroke-width="0.5" stroke="black" fill="cyan"/>
  <circle cx="572.667" cy="429.444" r="5.01837" stroke-width="0.5" stroke="black" fill="cyan"/>
   </g>
   <g id="cell54">
  <circle cx="481.795" cy="421.483" r="8.3632" stroke-width="0.5" stroke="black" fill="cyan"/>
  <circle cx="481.795" cy="421.483" r="5.03288" stroke-width="0.5" stroke="black" fill="cyan"/>
   </g>
   <g id="cell55">
  <circle cx="521.548" cy="463.769" r="8.33426" stroke-width="0.5" stroke="black" fill="cyan"/>
  <circle cx="521.548" cy="463.769" r="5.02101" stroke-width="0.5" stroke="black" fill="cyan"/>
   </g>
   <g id="cell56">
  <circle cx="617.283" cy="522.387" r="8.41271" stroke-width="0.5" stroke="black" fill="cyan"/>
  <circle cx="617.283" cy="522.387" r="5.05167" stroke-width="0.5" stroke="black" fill="cyan"/>
   </g>
   <g id="cell105">
  <circle cx="505.525" cy="609.1" r="7.98194" stroke-width="0.5" stroke="black" fill="green"/>
  <circle cx="505.525" cy="609.1" r="4.84592" stroke-width="0.5" stroke="black" fill="green"/>
   </g>
   <g id="cell58">
  <circle cx="560.525" cy="479.853" r="8.41271" stroke-width="0.5" stroke="black" fill="cyan"/>
  <circle cx="560.525" cy="479.853" r="5.05167" stroke-width="0.5" stroke="black" fill="cyan"/>
   </g>
   <g id="cell59">
  <circle cx="385.463" cy="439.803" r="8.41271" stroke-width="0.5" stroke="black" fill="cyan"/>
  <circle cx="385.463" cy="439.803" r="5.05167" stroke-width="0.5" stroke="black" fill="cyan"/>
   </g>
   <g id="cell60">
  <circle cx="591.898" cy="473.851" r="8.41271" stroke-width="0.5" stroke="black" fill="cyan"/>
  <circle cx="591.898" cy="473.851" r="5.05167" stroke-width="0.5" stroke="black" fill="cyan"/>
   </g>
   <g id="cell61">
  <circle cx="557.362" cy="622.586" r="8.41271" stroke-width="0.5" stroke="black" fill="cyan"/>
  <circle cx="557.362" cy="622.586" r="5.05167" stroke-width="0.5" stroke="black" fill="cyan"/>
   </g>
   <g id="cell62">
  <circle cx="514.135" cy="438.343" r="7.91712" stroke-width="0.5" stroke="black" fill="cyan"/>
  <circle cx="514.135" cy="438.343" r="4.80409" stroke-width="0.5" stroke="black" fill="cyan"/>
   </g>
   <g id="cell63">
  <circle cx="580.948" cy="542.869" r="7.2824" stroke-width="0.5" stroke="black" fill="cyan"/>
  <circle cx="580.948" cy="542.869" r="4.42953" stroke-width="0.5" stroke="black" fill="cyan"/>
   </g>
   <g id="cell64">
  <circle cx="509.722" cy="639.364" r="8.41271" stroke-width="0.5" stroke="black" fill="cyan"/>
  <circle cx="509.722" cy="639.364" r="5.05167" stroke-width="0.5" stroke="black" fill="cyan"/>
   </g>
   <g id="cell65">
  <circle cx="549.085" cy="468.872" r="8.37935" stroke-width="0.5" stroke="black" fill="cyan"/>
  <circle cx="549.085" cy="468.872" r="5.0396" stroke-width="0.5" stroke="black" fill="cyan"/>
   </g>
   <g id="cell66">
  <circle cx="529.134" cy="533.78" r="8.36032" stroke-width="0.5" stroke="black" fill="cyan"/>
  <circle cx="529.134" cy="533.78" r="5.03165" stroke-width="0.5" stroke="black" fill="cyan"/>
   </g>
   <g id="cell67">
  <circle cx="353.889" cy="493.602" r="8.41271" stroke-width="0.5" stroke="black" fill="cyan"/>
  <circle cx="353.889" cy="493.602" r="5.05167" stroke-width="0.5" stroke="black" fill="cyan"/>
   </g>
   <g id="cell68">
  <circle cx="562.922" cy="554.92" r="8.41271" stroke-width="0.5" stroke="black" fill="cyan"/>
  <circle cx="562.922" cy="554.92" r="5.05167" stroke-width="0.5" stroke="black" fill="cyan"/>
   </g>
   <g id="cell69">
  <circle cx="442.222" cy="460.334" r="8.41271" stroke-width="0.5" stroke="black" fill="cyan"/>
  <circle cx="442.222" cy="460.334" r="5.05167" stroke-width="0.5" stroke="black" fill="cyan"/>
   </g>
   <g id="cell70">
  <circle cx="576.133" cy="476.632" r="8.41271" stroke-width="0.5" stroke="black" fill="cyan"/>
  <circle cx="576.133" cy="476.632" r="5.05167" stroke-width="0.5" stroke="black" fill="cyan"/>
   </g>
   <g id="cell71">
  <circle cx="380.127" cy="527.771" r="8.21839" stroke-width="0.5" stroke="black" fill="cyan"/>
  <circle cx="380.127" cy="527.771" r="4.96448" stroke-width="0.5" stroke="black" fill="cyan"/>
   </g>
   <g id="cell72">
  <circle cx="528.154" cy="509.364" r="8.36458" stroke-width="0.5" stroke="black" fill="cyan"/>
  <circle cx="528.154" cy="509.364" r="5.03347" stroke-width="0.5" stroke="black" fill="cyan"/>
   </g>
   <g id="cell73">
  <circle cx="364.592" cy="552.879" r="8.38608" stroke-width="0.5" stroke="black" fill="cyan"/>
  <circle cx="364.592" cy="552.879" r="5.04229" stroke-width="0.5" stroke="black" fill="cyan"/>
   </g>
   <g id="cell74">
  <circle cx="548.63" cy="434.242" r="3.27" stroke-width="0.5" stroke="black" fill="cyan"/>
  <circle cx="548.63" cy="434.242" r="2.56464" stroke-width="0.5" stroke="black" fill="black"/>
   </g>
   <g id="cell75">
  <circle cx="529.333" cy="433.564" r="8.40244" stroke-width="0.5" stroke="black" fill="cyan"/>
  <circle cx="529.333" cy="433.564" r="5.04843" stroke-width="0.5" stroke="black" fill="cyan"/>
   </g>
   <g id="cell76">
  <circle cx="442.195" cy="382.145" r="8.25391" stroke-width="0.5" stroke="black" fill="green"/>
  <circle cx="442.195" cy="382.145" r="4.98574" stroke-width="0.5" stroke="black" fill="green"/>
   </g>
   <g id="cell77">
  <circle cx="477.924" cy="436.424" r="8.29093" stroke-width="0.5" stroke="black" fill="magenta"/>
  <circle cx="477.924" cy="436.424" r="5.00095" stroke-width="0.5" stroke="black" fill="magenta"/>
   </g>
   <g id="cell78">
  <circle cx="624.525" cy="462.371" r="8.37324" stroke-width="0.5" stroke="black" fill="green"/>
  <circle cx="624.525" cy="462.371" r="5.03763" stroke-width="0.5" stroke="black" fill="green"/>
   </g>
   <g id="cell79">
  <circle cx="517.525" cy="479.33" r="8.39913" stroke-width="0.5" stroke="black" fill="cyan"/>
  <circle cx="517.525" cy="479.33" r="5.04725" stroke-width="0.5" stroke="black" fill="cyan"/>
   </g>
   <g id="cell80">
  <circle cx="543.327" cy="616.101" r="7.91053" stroke-width="0.5" stroke="black" fill="green"/>
  <circle cx="543.327" cy="616.101" r="4.80178" stroke-width="0.5" stroke="black" fill="green"/>
   </g>
   <g id="cell81">
  <circle cx="544.942" cy="594.748" r="8.39073" stroke-width="0.5" stroke="black" fill="green"/>
  <circle cx="544.942" cy="594.748" r="5.04445" stroke-width="0.5" stroke="black" fill="green"/>
   </g>
   <g id="cell82">
  <circle cx="532.391" cy="559.819" r="8.39571" stroke-width="0.5" stroke="black" fill="magenta"/>
  <circle cx="532.391" cy="559.819" r="5.04599" stroke-width="0.5" stroke="black" fill="magenta"/>
   </g>
   <g id="cell83">
  <circle cx="635.597" cy="552.624" r="7.5814" stroke-width="0.5" stroke="black" fill="green"/>
  <circle cx="635.597" cy="552.624" r="4.61032" stroke-width="0.5" stroke="black" fill="green"/>
   </g>
   <g id="cell84">
  <circle cx="520.317" cy="495.595" r="8.38753" stroke-width="0.5" stroke="black" fill="cyan"/>
  <circle cx="520.317" cy="495.595" r="5.04286" stroke-width="0.5" stroke="black" fill="cyan"/>
   </g>
   <g id="cell85">
  <circle cx="352.526" cy="542.492" r="8.33713" stroke-width="0.5" stroke="black" fill="cyan"/>
  <circle cx="352.526" cy="542.492" r="5.02268" stroke-width="0.5" stroke="black" fill="cyan"/>
   </g>
   <g id="cell86">
  <circle cx="498.647" cy="534.975" r="7.8472" stroke-width="0.5" stroke="black" fill="magenta"/>
  <circle cx="498.647" cy="534.975" r="4.76636" stroke-width="0.5" stroke="black" fill="magenta"/>
   </g>
   <g id="cell87">
  <circle cx="578.647" cy="557.458" r="8.30511" stroke-width="0.5" stroke="black" fill="cyan"/>
  <circle cx="578.647" cy="557.458" r="5.00838" stroke-width="0.5" stroke="black" fill="cyan"/>
   </g>
   <g id="cell88">
  <circle cx="448.3" cy="531.588" r="8.38028" stroke-width="0.5" stroke="black" fill="magenta"/>
  <circle cx="448.3" cy="531.588" r="5.03997" stroke-width="0.5" stroke="black" fill="magenta"/>
   </g>
   <g id="cell89">
  <circle cx="553.138" cy="452.857" r="6.87195" stroke-width="0.5" stroke="black" fill="cyan"/>
  <circle cx="553.138" cy="452.857" r="4.161" stroke-width="0.5" stroke="black" fill="cyan"/>
   </g>
   <g id="cell90">
  <circle cx="635.843" cy="472.589" r="7.59064" stroke-width="0.5" stroke="black" fill="green"/>
  <circle cx="635.843" cy="472.589" r="4.61868" stroke-width="0.5" stroke="black" fill="green"/>
   </g>
   <g id="cell91">
  <circle cx="547.481" cy="557.409" r="8.34712" stroke-width="0.5" stroke="black" fill="magenta"/>
  <circle cx="547.481" cy="557.409" r="5.02749" stroke-width="0.5" stroke="black" fill="magenta"/>
   </g>
   <g id="cell92">
  <circle cx="482.459" cy="550.878" r="8.37092" stroke-width="0.5" stroke="black" fill="green"/>
  <circle cx="482.459" cy="550.878" r="5.03613" stroke-width="0.5" stroke="black" fill="green"/>
   </g>
   <g id="cell93">
  <circle cx="537.873" cy="546.014" r="8.34712" stroke-width="0.5" stroke="black" fill="magenta"/>
  <circle cx="537.873" cy="546.014" r="5.02749" stroke-width="0.5" stroke="black" fill="magenta"/>
   </g>
   <g id="cell94">
  <circle cx="536.512" cy="496.263" r="8.36458" stroke-width="0.5" stroke="black" fill="cyan"/>
  <circle cx="536.512" cy="496.263" r="5.03347" stroke-width="0.5" stroke="black" fill="cyan"/>
   </g>
   <g id="cell95">
  <circle cx="466.519" cy="426.135" r="8.3632" stroke-width="0.5" stroke="black" fill="cyan"/>
  <circle cx="466.519" cy="426.135" r="5.03288" stroke-width="0.5" stroke="black" fill="cyan"/>
   </g>
   <g id="cell96">
  <circle cx="546.795" cy="529.536" r="6.92075" stroke-width="0.5" stroke="black" fill="cyan"/>
  <circle cx="546.795" cy="529.536" r="4.19836" stroke-width="0.5" stroke="black" fill="cyan"/>
   </g>
   <g id="cell97">
  <circle cx="421.636" cy="466.115" r="8.31226" stroke-width="0.5" stroke="black" fill="green"/>
  <circle cx="421.636" cy="466.115" r="5.01209" stroke-width="0.5" stroke="black" fill="green"/>
   </g>
   <g id="cell98">
  <circle cx="491.277" cy="522.503" r="7.72374" stroke-width="0.5" stroke="black" fill="green"/>
  <circle cx="491.277" cy="522.503" r="4.69836" stroke-width="0.5" stroke="black" fill="green"/>
   </g>
   <g id="cell99">
  <circle cx="358.306" cy="527.708" r="8.33713" stroke-width="0.5" stroke="black" fill="cyan"/>
  <circle cx="358.306" cy="527.708" r="5.02268" stroke-width="0.5" stroke="black" fill="cyan"/>
   </g>
   <g id="cell100">
  <circle cx="449.574" cy="396.149" r="8.3358" stroke-width="0.5" stroke="black" fill="green"/>
  <circle cx="449.574" cy="396.149" r="5.02157" stroke-width="0.5" stroke="black" fill="green"/>
   </g>
   <g id="cell101">
  <circle cx="531.995" cy="480.147" r="6.80768" stroke-width="0.5" stroke="black" fill="cyan"/>
  <circle cx="531.995" cy="480.147" r="4.12541" stroke-width="0.5" stroke="black" fill="cyan"/>
   </g>
   <g id="cell102">
  <circle cx="435.038" cy="474.549" r="8.31226" stroke-width="0.5" stroke="black" fill="green"/>
  <circle cx="435.038" cy="474.549" r="5.01209" stroke-width="0.5" stroke="black" fill="green"/>
   </g>
   <g id="cell103">
  <circle cx="590.976" cy="447.759" r="7.83169" stroke-width="0.5" stroke="black" fill="cyan"/>
  <circle cx="590.976" cy="447.759" r="4.76171" stroke-width="0.5" stroke="black" fill="cyan"/>
   </g>
   <g id="cell104">
  <circle cx="593.719" cy="552.765" r="8.30511" stroke-width="0.5" stroke="black" fill="cyan"/>
  <circle cx="593.719" cy="552.765" r="5.00838" stroke-width="0.5" stroke="black" fill="cyan"/>
   </g>
   <g id="cell106">
  <circle cx="463.892" cy="441.391" r="8.29093" stroke-width="0.5" stroke="black" fill="magenta"/>
  <circle cx="463.892" cy="441.391" r="5.00095" stroke-width="0.5" stroke="black" fill="magenta"/>
   </g>
   <g id="cell107">
  <circle cx="457.46" cy="383.082" r="7.78866" stroke-width="0.5" stroke="black" fill="green"/>
  <circle cx="457.46" cy="383.082" r="4.74308" stroke-width="0.5" stroke="black" fill="green"/>
   </g>
   <g id="cell108">
  <circle cx="555.512" cy="606.722" r="8.27097" stroke-width="0.5" stroke="black" fill="green"/>
  <circle cx="555.512" cy="606.722" r="4.99048" stroke-width="0.5" stroke="black" fill="green"/>
   </g>
   <g id="cell109">
  <circle cx="576.574" cy="590.059" r="8.1853" stroke-width="0.5" stroke="black" fill="green"/>
  <circle cx="576.574" cy="590.059" r="4.95275" stroke-width="0.5" stroke="black" fill="green"/>
   </g>
   <g id="cell110">
  <circle cx="373.693" cy="513.527" r="8.21839" stroke-width="0.5" stroke="black" fill="cyan"/>
  <circle cx="373.693" cy="513.527" r="4.96448" stroke-width="0.5" stroke="black" fill="cyan"/>
   </g>
   <g id="cell111">
  <circle cx="455.975" cy="553.501" r="6.7314" stroke-width="0.5" stroke="black" fill="magenta"/>
  <circle cx="455.975" cy="553.501" r="4.09578" stroke-width="0.5" stroke="black" fill="magenta"/>
   </g>
   <g id="cell112">
  <circle cx="507.055" cy="467.904" r="8.1947" stroke-width="0.5" stroke="black" fill="magenta"/>
  <circle cx="507.055" cy="467.904" r="4.95246" stroke-width="0.5" stroke="black" fill="magenta"/>
   </g>
   <g id="cell113">
  <circle cx="543.072" cy="406.236" r="8.18833" stroke-width="0.5" stroke="black" fill="green"/>
  <circle cx="543.072" cy="406.236" r="4.94921" stroke-width="0.5" stroke="black" fill="green"/>
   </g>
   <g id="cell114">
  <circle cx="524.993" cy="448.651" r="8.02774" stroke-width="0.5" stroke="black" fill="cyan"/>
  <circle cx="524.993" cy="448.651" r="4.87319" stroke-width="0.5" stroke="black" fill="cyan"/>
   </g>
   <g id="cell115">
  <circle cx="537.854" cy="454.577" r="6.95256" stroke-width="0.5" stroke="black" fill="cyan"/>
  <circle cx="537.854" cy="454.577" r="4.25768" stroke-width="0.5" stroke="black" fill="cyan"/>
   </g>
   <g id="cell116">
  <circle cx="519.922" cy="522.062" r="8.09094" stroke-width="0.5" stroke="black" fill="cyan"/>
  <circle cx="519.922" cy="522.062" r="4.90057" stroke-width="0.5" stroke="black" fill="cyan"/>
   </g>
   <g id="cell117">
  <circle cx="509.784" cy="623.811" r="7.98194" stroke-width="0.5" stroke="black" fill="green"/>
  <circle cx="509.784" cy="623.811" r="4.84592" stroke-width="0.5" stroke="black" fill="green"/>
   </g>
   <g id="cell118">
  <circle cx="510.489" cy="453.14" r="7.91712" stroke-width="0.5" stroke="black" fill="cyan"/>
  <circle cx="510.489" cy="453.14" r="4.80409" stroke-width="0.5" stroke="black" fill="cyan"/>
   </g>
   <g id="cell119">
  <circle cx="533.378" cy="604.911" r="7.91053" stroke-width="0.5" stroke="black" fill="green"/>
  <circle cx="533.378" cy="604.911" r="4.80178" stroke-width="0.5" stroke="black" fill="green"/>
   </g>
   <g id="cell120">
  <circle cx="576.53" cy="444.296" r="7.83169" stroke-width="0.5" stroke="black" fill="cyan"/>
  <circle cx="576.53" cy="444.296" r="4.76171" stroke-width="0.5" stroke="black" fill="cyan"/>
   </g>
   <g id="cell121">
  <circle cx="451.377" cy="370.592" r="7.1105" stroke-width="0.5" stroke="black" fill="green"/>
  <circle cx="451.377" cy="370.592" r="4.36413" stroke-width="0.5" stroke="black" fill="green"/>
   </g>
   <g id="cell122">
  <circle cx="505.523" cy="522.642" r="7.8472" stroke-width="0.5" stroke="black" fill="magenta"/>
  <circle cx="505.523" cy="522.642" r="4.76636" stroke-width="0.5" stroke="black" fill="magenta"/>
   </g>
   <g id="cell123">
  <circle cx="497.59" cy="509.63" r="7.72374" stroke-width="0.5" stroke="black" fill="green"/>
  <circle cx="497.59" cy="509.63" r="4.69836" stroke-width="0.5" stroke="black" fill="green"/>
   </g>
   <g id="cell124">
  <circle cx="491.802" cy="432.546" r="7.75256" stroke-width="0.5" stroke="black" fill="magenta"/>
  <circle cx="491.802" cy="432.546" r="4.71028" stroke-width="0.5" stroke="black" fill="magenta"/>
   </g>
   <g id="cell125">
  <circle cx="622.301" cy="477.351" r="7.59064" stroke-width="0.5" stroke="black" fill="green"/>
  <circle cx="622.301" cy="477.351" r="4.61868" stroke-width="0.5" stroke="black" fill="green"/>
   </g>
   <g id="cell126">
  <circle cx="629.361" cy="565.557" r="7.5814" stroke-width="0.5" stroke="black" fill="green"/>
  <circle cx="629.361" cy="565.557" r="4.61032" stroke-width="0.5" stroke="black" fill="green"/>
   </g>
   <g id="cell127">
  <circle cx="440.525" cy="362.839" r="7.1105" stroke-width="0.5" stroke="black" fill="green"/>
  <circle cx="440.525" cy="362.839" r="4.36413" stroke-width="0.5" stroke="black" fill="green"/>
   </g>
   <g id="cell128">
  <circle cx="373.081" cy="469.732" r="7.38797" stroke-width="0.5" stroke="black" fill="magenta"/>
  <circle cx="373.081" cy="469.732" r="4.49029" stroke-width="0.5" stroke="black" fill="magenta"/>
   </g>
   <g id="cell129">
  <circle cx="567.365" cy="540.57" r="7.2824" stroke-width="0.5" stroke="black" fill="cyan"/>
  <circle cx="567.365" cy="540.57" r="4.42953" stroke-width="0.5" stroke="black" fill="cyan"/>
   </g>
   <g id="cell130">
  <circle cx="544.502" cy="443.065" r="6.95256" stroke-width="0.5" stroke="black" fill="cyan"/>
  <circle cx="544.502" cy="443.065" r="4.25768" stroke-width="0.5" stroke="black" fill="cyan"/>
   </g>
   <g id="cell131">
  <circle cx="538.264" cy="519.69" r="6.92075" stroke-width="0.5" stroke="black" fill="cyan"/>
  <circle cx="538.264" cy="519.69" r="4.19836" stroke-width="0.5" stroke="black" fill="cyan"/>
   </g>
   <g id="cell132">
  <circle cx="447.322" cy="545.084" r="6.7314" stroke-width="0.5" stroke="black" fill="magenta"/>
  <circle cx="447.322" cy="545.084" r="4.09578" stroke-width="0.5" stroke="black" fill="magenta"/>
   </g>
   <g id="cell133">
  <circle cx="561.849" cy="462.523" r="6.87195" stroke-width="0.5" stroke="black" fill="cyan"/>
  <circle cx="561.849" cy="462.523" r="4.161" stroke-width="0.5" stroke="black" fill="cyan"/>
   </g>
   <g id="cell134">
  <circle cx="535.068" cy="467.532" r="6.80768" stroke-width="0.5" stroke="black" fill="cyan"/>
  <circle cx="535.068" cy="467.532" r="4.12541" stroke-width="0.5" stroke="black" fill="cyan"/>
   </g>
   <g id="cell135">
  <circle cx="509.33" cy="580.419" r="6.75639" stroke-width="0.5" stroke="black" fill="magenta"/>
  <circle cx="509.33" cy="580.419" r="4.06813" stroke-width="0.5" stroke="black" fill="magenta"/>
   </g>
  </g>
 </g>
  <rect x="775" y="1035" width="200" height="10" stroke-width="2" stroke="rgb(255,255,255)" fill="rgb(0,0,0)"/>
  <text x="781.25" y="1028.75"
   font-family="Arial" font-size="25" fill="black" >
   200 &#956;m
  </text>
  <text x="25" y="1045"
   font-family="Arial" font-size="18.75" fill="black" >
   0 days, 0 hours, 0 minutes, and 23.3624 seconds
  </text>
  <rect x="0" y="70" width="1000" height="1000" stroke-width="2" stroke="rgb(0,0,0)" fill="none"/>
</svg>
