<?xml version="1.0" encoding="UTF-8" standalone="no"?>
<!-- Created with PhysiCell (http://PhysiCell.MathCancer.org/) -->
<svg 
 xmlns:dc="http://purl.org/dc/elements/1.1/" 
 xmlns:cc="http://creativecommons.org/ns#" 
 xmlns:rdf="http://www.w3.org/1999/02/22-rdf-syntax-ns#" 
 xmlns:svg="http://www.w3.org/2000/svg" 
 xmlns="http://www.w3.org/2000/svg" 
 version="1.1" 
 width="1000" 
 height="1070" 
 id="svg2">
  <rect x="0" y="0" width="1000" height="1070" stroke-width="2" stroke="white" fill="white"/>
  <text x="12.5" y="30"
   font-family="Arial" font-size="25" fill="black" >
   Current time: 0 days, 11 hours, and 0.00 minutes, z = 0.00 &#956;m
  </text>
  <text x="12.5" y="57.5"
   font-family="Arial" font-size="23.75" fill="black" >
   106 agents
  </text>
 <g id="tissue" 
    transform="translate(0,1070) scale(1,-1)">
  <g id="ECM">
  </g>
  <g id="cells">
   <g id="cell0">
  <circle cx="510.066" cy="537.601" r="8.18177" stroke-width="0.5" stroke="black" fill="magenta"/>
  <circle cx="510.066" cy="537.601" r="4.94584" stroke-width="0.5" stroke="black" fill="magenta"/>
   </g>
   <g id="cell1">
  <circle cx="602.492" cy="526.171" r="8.41271" stroke-width="0.5" stroke="black" fill="magenta"/>
  <circle cx="602.492" cy="526.171" r="5.05167" stroke-width="0.5" stroke="black" fill="magenta"/>
   </g>
   <g id="cell2">
  <circle cx="513.859" cy="595.732" r="7.87851" stroke-width="0.5" stroke="black" fill="magenta"/>
  <circle cx="513.859" cy="595.732" r="4.78096" stroke-width="0.5" stroke="black" fill="magenta"/>
   </g>
   <g id="cell3">
  <circle cx="523.939" cy="542.878" r="8.41271" stroke-width="0.5" stroke="black" fill="magenta"/>
  <circle cx="523.939" cy="542.878" r="5.05167" stroke-width="0.5" stroke="black" fill="magenta"/>
   </g>
   <g id="cell4">
  <circle cx="483.453" cy="437.926" r="8.41271" stroke-width="0.5" stroke="black" fill="magenta"/>
  <circle cx="483.453" cy="437.926" r="5.05167" stroke-width="0.5" stroke="black" fill="magenta"/>
   </g>
   <g id="cell5">
  <circle cx="461.148" cy="497.052" r="8.28262" stroke-width="0.5" stroke="black" fill="magenta"/>
  <circle cx="461.148" cy="497.052" r="4.9961" stroke-width="0.5" stroke="black" fill="magenta"/>
   </g>
   <g id="cell6">
  <circle cx="595.637" cy="512.669" r="8.41271" stroke-width="0.5" stroke="black" fill="magenta"/>
  <circle cx="595.637" cy="512.669" r="5.05167" stroke-width="0.5" stroke="black" fill="magenta"/>
   </g>
   <g id="cell7">
  <circle cx="511.973" cy="464.702" r="8.41271" stroke-width="0.5" stroke="black" fill="magenta"/>
  <circle cx="511.973" cy="464.702" r="5.05167" stroke-width="0.5" stroke="black" fill="magenta"/>
   </g>
   <g id="cell8">
  <circle cx="384.606" cy="540.614" r="8.16806" stroke-width="0.5" stroke="black" fill="magenta"/>
  <circle cx="384.606" cy="540.614" r="4.93877" stroke-width="0.5" stroke="black" fill="magenta"/>
   </g>
   <g id="cell9">
  <circle cx="460.472" cy="599.786" r="8.41271" stroke-width="0.5" stroke="black" fill="magenta"/>
  <circle cx="460.472" cy="599.786" r="5.05167" stroke-width="0.5" stroke="black" fill="magenta"/>
   </g>
   <g id="cell10">
  <circle cx="583.447" cy="392.105" r="8.41271" stroke-width="0.5" stroke="black" fill="magenta"/>
  <circle cx="583.447" cy="392.105" r="5.05167" stroke-width="0.5" stroke="black" fill="magenta"/>
   </g>
   <g id="cell11">
  <circle cx="589.748" cy="590.273" r="8.41271" stroke-width="0.5" stroke="black" fill="magenta"/>
  <circle cx="589.748" cy="590.273" r="5.05167" stroke-width="0.5" stroke="black" fill="magenta"/>
   </g>
   <g id="cell12">
  <circle cx="503.835" cy="585.066" r="8.41271" stroke-width="0.5" stroke="black" fill="magenta"/>
  <circle cx="503.835" cy="585.066" r="5.05167" stroke-width="0.5" stroke="black" fill="magenta"/>
   </g>
   <g id="cell13">
  <circle cx="385.753" cy="567.929" r="8.41271" stroke-width="0.5" stroke="black" fill="magenta"/>
  <circle cx="385.753" cy="567.929" r="5.05167" stroke-width="0.5" stroke="black" fill="magenta"/>
   </g>
   <g id="cell14">
  <circle cx="528.781" cy="400.93" r="8.41271" stroke-width="0.5" stroke="black" fill="magenta"/>
  <circle cx="528.781" cy="400.93" r="5.05167" stroke-width="0.5" stroke="black" fill="magenta"/>
   </g>
   <g id="cell15">
  <circle cx="377.944" cy="473.574" r="8.41271" stroke-width="0.5" stroke="black" fill="magenta"/>
  <circle cx="377.944" cy="473.574" r="5.05167" stroke-width="0.5" stroke="black" fill="magenta"/>
   </g>
   <g id="cell16">
  <circle cx="428.96" cy="413.217" r="8.41271" stroke-width="0.5" stroke="black" fill="magenta"/>
  <circle cx="428.96" cy="413.217" r="5.05167" stroke-width="0.5" stroke="black" fill="magenta"/>
   </g>
   <g id="cell17">
  <circle cx="583.293" cy="491.623" r="7.0545" stroke-width="0.5" stroke="black" fill="magenta"/>
  <circle cx="583.293" cy="491.623" r="4.27772" stroke-width="0.5" stroke="black" fill="magenta"/>
   </g>
   <g id="cell18">
  <circle cx="518.339" cy="389.909" r="8.41271" stroke-width="0.5" stroke="black" fill="magenta"/>
  <circle cx="518.339" cy="389.909" r="5.05167" stroke-width="0.5" stroke="black" fill="magenta"/>
   </g>
   <g id="cell19">
  <circle cx="451.991" cy="536.582" r="8.41271" stroke-width="0.5" stroke="black" fill="magenta"/>
  <circle cx="451.991" cy="536.582" r="5.05167" stroke-width="0.5" stroke="black" fill="magenta"/>
   </g>
   <g id="cell20">
  <circle cx="528.442" cy="416.112" r="8.41271" stroke-width="0.5" stroke="black" fill="magenta"/>
  <circle cx="528.442" cy="416.112" r="5.05167" stroke-width="0.5" stroke="black" fill="magenta"/>
   </g>
   <g id="cell21">
  <circle cx="464.368" cy="634.574" r="8.41271" stroke-width="0.5" stroke="black" fill="magenta"/>
  <circle cx="464.368" cy="634.574" r="5.05167" stroke-width="0.5" stroke="black" fill="magenta"/>
   </g>
   <g id="cell22">
  <circle cx="559.631" cy="494.342" r="8.3031" stroke-width="0.5" stroke="black" fill="magenta"/>
  <circle cx="559.631" cy="494.342" r="5.00583" stroke-width="0.5" stroke="black" fill="magenta"/>
   </g>
   <g id="cell23">
  <circle cx="536.643" cy="481.469" r="8.41271" stroke-width="0.5" stroke="black" fill="magenta"/>
  <circle cx="536.643" cy="481.469" r="5.05167" stroke-width="0.5" stroke="black" fill="magenta"/>
   </g>
   <g id="cell24">
  <circle cx="558.711" cy="380.569" r="8.41271" stroke-width="0.5" stroke="black" fill="magenta"/>
  <circle cx="558.711" cy="380.569" r="5.05167" stroke-width="0.5" stroke="black" fill="magenta"/>
   </g>
   <g id="cell25">
  <circle cx="640.943" cy="550.03" r="8.41271" stroke-width="0.5" stroke="black" fill="green"/>
  <circle cx="640.943" cy="550.03" r="5.05167" stroke-width="0.5" stroke="black" fill="green"/>
   </g>
   <g id="cell26">
  <circle cx="547.077" cy="395.582" r="7.75912" stroke-width="0.5" stroke="black" fill="green"/>
  <circle cx="547.077" cy="395.582" r="4.71248" stroke-width="0.5" stroke="black" fill="green"/>
   </g>
   <g id="cell27">
  <circle cx="451.756" cy="386.966" r="6.73287" stroke-width="0.5" stroke="black" fill="green"/>
  <circle cx="451.756" cy="386.966" r="4.05039" stroke-width="0.5" stroke="black" fill="green"/>
   </g>
   <g id="cell28">
  <circle cx="437.414" cy="531.024" r="8.41271" stroke-width="0.5" stroke="black" fill="green"/>
  <circle cx="437.414" cy="531.024" r="5.05167" stroke-width="0.5" stroke="black" fill="green"/>
   </g>
   <g id="cell29">
  <circle cx="450.003" cy="521.109" r="8.41271" stroke-width="0.5" stroke="black" fill="green"/>
  <circle cx="450.003" cy="521.109" r="5.05167" stroke-width="0.5" stroke="black" fill="green"/>
   </g>
   <g id="cell30">
  <circle cx="481.58" cy="540.282" r="2.5701" stroke-width="0.5" stroke="black" fill="green"/>
  <circle cx="481.58" cy="540.282" r="2.25579" stroke-width="0.5" stroke="black" fill="black"/>
   </g>
   <g id="cell31">
  <circle cx="412.757" cy="541.193" r="8.41271" stroke-width="0.5" stroke="black" fill="green"/>
  <circle cx="412.757" cy="541.193" r="5.05167" stroke-width="0.5" stroke="black" fill="green"/>
   </g>
   <g id="cell32">
  <circle cx="425.655" cy="474.59" r="2.42814" stroke-width="0.5" stroke="black" fill="green"/>
  <circle cx="425.655" cy="474.59" r="2.17648" stroke-width="0.5" stroke="black" fill="black"/>
   </g>
   <g id="cell33">
  <circle cx="493.06" cy="425.635" r="8.41271" stroke-width="0.5" stroke="black" fill="green"/>
  <circle cx="493.06" cy="425.635" r="5.05167" stroke-width="0.5" stroke="black" fill="green"/>
   </g>
   <g id="cell34">
  <circle cx="397.088" cy="450.831" r="8.41271" stroke-width="0.5" stroke="black" fill="green"/>
  <circle cx="397.088" cy="450.831" r="5.05167" stroke-width="0.5" stroke="black" fill="green"/>
   </g>
   <g id="cell35">
  <circle cx="552.344" cy="547.118" r="8.30918" stroke-width="0.5" stroke="black" fill="green"/>
  <circle cx="552.344" cy="547.118" r="5.00867" stroke-width="0.5" stroke="black" fill="green"/>
   </g>
   <g id="cell36">
  <circle cx="391.386" cy="582.533" r="8.41271" stroke-width="0.5" stroke="black" fill="green"/>
  <circle cx="391.386" cy="582.533" r="5.05167" stroke-width="0.5" stroke="black" fill="green"/>
   </g>
   <g id="cell37">
  <circle cx="633.17" cy="455.038" r="8.01277" stroke-width="0.5" stroke="black" fill="green"/>
  <circle cx="633.17" cy="455.038" r="4.85584" stroke-width="0.5" stroke="black" fill="green"/>
   </g>
   <g id="cell38">
  <circle cx="536.718" cy="601.689" r="8.41271" stroke-width="0.5" stroke="black" fill="green"/>
  <circle cx="536.718" cy="601.689" r="5.05167" stroke-width="0.5" stroke="black" fill="green"/>
   </g>
   <g id="cell39">
  <circle cx="616.146" cy="498.056" r="5.4536" stroke-width="0.5" stroke="black" fill="green"/>
  <circle cx="616.146" cy="498.056" r="3.32666" stroke-width="0.5" stroke="black" fill="green"/>
   </g>
   <g id="cell40">
  <circle cx="490.312" cy="577.593" r="8.27097" stroke-width="0.5" stroke="black" fill="green"/>
  <circle cx="490.312" cy="577.593" r="4.99048" stroke-width="0.5" stroke="black" fill="green"/>
   </g>
   <g id="cell41">
  <circle cx="370.186" cy="486.643" r="8.02418" stroke-width="0.5" stroke="black" fill="green"/>
  <circle cx="370.186" cy="486.643" r="4.86209" stroke-width="0.5" stroke="black" fill="green"/>
   </g>
   <g id="cell42">
  <circle cx="438.86" cy="494.27" r="8.41271" stroke-width="0.5" stroke="black" fill="green"/>
  <circle cx="438.86" cy="494.27" r="5.05167" stroke-width="0.5" stroke="black" fill="green"/>
   </g>
   <g id="cell43">
  <circle cx="555.782" cy="438.129" r="8.22925" stroke-width="0.5" stroke="black" fill="green"/>
  <circle cx="555.782" cy="438.129" r="4.96993" stroke-width="0.5" stroke="black" fill="green"/>
   </g>
   <g id="cell44">
  <circle cx="475.857" cy="624.021" r="8.41271" stroke-width="0.5" stroke="black" fill="green"/>
  <circle cx="475.857" cy="624.021" r="5.05167" stroke-width="0.5" stroke="black" fill="green"/>
   </g>
   <g id="cell45">
  <circle cx="414.953" cy="557.066" r="8.41271" stroke-width="0.5" stroke="black" fill="green"/>
  <circle cx="414.953" cy="557.066" r="5.05167" stroke-width="0.5" stroke="black" fill="green"/>
   </g>
   <g id="cell46">
  <circle cx="522.148" cy="608.348" r="8.41271" stroke-width="0.5" stroke="black" fill="green"/>
  <circle cx="522.148" cy="608.348" r="5.05167" stroke-width="0.5" stroke="black" fill="green"/>
   </g>
   <g id="cell47">
  <circle cx="505.245" cy="503.368" r="8.28262" stroke-width="0.5" stroke="black" fill="green"/>
  <circle cx="505.245" cy="503.368" r="4.9961" stroke-width="0.5" stroke="black" fill="green"/>
   </g>
   <g id="cell48">
  <circle cx="564.505" cy="602.798" r="8.41271" stroke-width="0.5" stroke="black" fill="green"/>
  <circle cx="564.505" cy="602.798" r="5.05167" stroke-width="0.5" stroke="black" fill="green"/>
   </g>
   <g id="cell49">
  <circle cx="429.826" cy="397.641" r="8.41271" stroke-width="0.5" stroke="black" fill="green"/>
  <circle cx="429.826" cy="397.641" r="5.05167" stroke-width="0.5" stroke="black" fill="green"/>
   </g>
   <g id="cell50">
  <circle cx="517.718" cy="513.179" r="8.41271" stroke-width="0.5" stroke="black" fill="cyan"/>
  <circle cx="517.718" cy="513.179" r="5.05167" stroke-width="0.5" stroke="black" fill="cyan"/>
   </g>
   <g id="cell51">
  <circle cx="398.569" cy="596.898" r="8.41271" stroke-width="0.5" stroke="black" fill="cyan"/>
  <circle cx="398.569" cy="596.898" r="5.05167" stroke-width="0.5" stroke="black" fill="cyan"/>
   </g>
   <g id="cell52">
  <circle cx="525.101" cy="424.327" r="1.25143" stroke-width="0.5" stroke="black" fill="cyan"/>
  <circle cx="525.101" cy="424.327" r="1.24538" stroke-width="0.5" stroke="black" fill="black"/>
   </g>
   <g id="cell53">
  <circle cx="571.497" cy="436.024" r="8.41271" stroke-width="0.5" stroke="black" fill="cyan"/>
  <circle cx="571.497" cy="436.024" r="5.05167" stroke-width="0.5" stroke="black" fill="cyan"/>
   </g>
   <g id="cell54">
  <circle cx="477.159" cy="423.653" r="8.41271" stroke-width="0.5" stroke="black" fill="cyan"/>
  <circle cx="477.159" cy="423.653" r="5.05167" stroke-width="0.5" stroke="black" fill="cyan"/>
   </g>
   <g id="cell55">
  <circle cx="526.875" cy="469.343" r="8.41271" stroke-width="0.5" stroke="black" fill="cyan"/>
  <circle cx="526.875" cy="469.343" r="5.05167" stroke-width="0.5" stroke="black" fill="cyan"/>
   </g>
   <g id="cell56">
  <circle cx="617.613" cy="522.333" r="8.41271" stroke-width="0.5" stroke="black" fill="cyan"/>
  <circle cx="617.613" cy="522.333" r="5.05167" stroke-width="0.5" stroke="black" fill="cyan"/>
   </g>
   <g id="cell57">
  <circle cx="416.924" cy="617.466" r="8.41271" stroke-width="0.5" stroke="black" fill="cyan"/>
  <circle cx="416.924" cy="617.466" r="5.05167" stroke-width="0.5" stroke="black" fill="cyan"/>
   </g>
   <g id="cell58">
  <circle cx="552.33" cy="480.51" r="8.41271" stroke-width="0.5" stroke="black" fill="cyan"/>
  <circle cx="552.33" cy="480.51" r="5.05167" stroke-width="0.5" stroke="black" fill="cyan"/>
   </g>
   <g id="cell59">
  <circle cx="385.463" cy="439.803" r="8.41271" stroke-width="0.5" stroke="black" fill="cyan"/>
  <circle cx="385.463" cy="439.803" r="5.05167" stroke-width="0.5" stroke="black" fill="cyan"/>
   </g>
   <g id="cell60">
  <circle cx="594.696" cy="472.983" r="8.41271" stroke-width="0.5" stroke="black" fill="cyan"/>
  <circle cx="594.696" cy="472.983" r="5.05167" stroke-width="0.5" stroke="black" fill="cyan"/>
   </g>
   <g id="cell61">
  <circle cx="552.923" cy="613.874" r="8.41271" stroke-width="0.5" stroke="black" fill="cyan"/>
  <circle cx="552.923" cy="613.874" r="5.05167" stroke-width="0.5" stroke="black" fill="cyan"/>
   </g>
   <g id="cell62">
  <circle cx="526.377" cy="443.92" r="8.41271" stroke-width="0.5" stroke="black" fill="cyan"/>
  <circle cx="526.377" cy="443.92" r="5.05167" stroke-width="0.5" stroke="black" fill="cyan"/>
   </g>
   <g id="cell63">
  <circle cx="590.814" cy="551.931" r="7.08765" stroke-width="0.5" stroke="black" fill="cyan"/>
  <circle cx="590.814" cy="551.931" r="4.32343" stroke-width="0.5" stroke="black" fill="cyan"/>
   </g>
   <g id="cell64">
  <circle cx="509.962" cy="636.825" r="8.41271" stroke-width="0.5" stroke="black" fill="cyan"/>
  <circle cx="509.962" cy="636.825" r="5.05167" stroke-width="0.5" stroke="black" fill="cyan"/>
   </g>
   <g id="cell65">
  <circle cx="542.822" cy="467.279" r="8.41271" stroke-width="0.5" stroke="black" fill="cyan"/>
  <circle cx="542.822" cy="467.279" r="5.05167" stroke-width="0.5" stroke="black" fill="cyan"/>
   </g>
   <g id="cell66">
  <circle cx="550.721" cy="531.14" r="8.03527" stroke-width="0.5" stroke="black" fill="cyan"/>
  <circle cx="550.721" cy="531.14" r="4.86813" stroke-width="0.5" stroke="black" fill="cyan"/>
   </g>
   <g id="cell67">
  <circle cx="358.003" cy="496.166" r="8.29667" stroke-width="0.5" stroke="black" fill="cyan"/>
  <circle cx="358.003" cy="496.166" r="5.00279" stroke-width="0.5" stroke="black" fill="cyan"/>
   </g>
   <g id="cell68">
  <circle cx="566.217" cy="556.38" r="8.41271" stroke-width="0.5" stroke="black" fill="cyan"/>
  <circle cx="566.217" cy="556.38" r="5.05167" stroke-width="0.5" stroke="black" fill="cyan"/>
   </g>
   <g id="cell69">
  <circle cx="437.355" cy="464.76" r="8.41271" stroke-width="0.5" stroke="black" fill="cyan"/>
  <circle cx="437.355" cy="464.76" r="5.05167" stroke-width="0.5" stroke="black" fill="cyan"/>
   </g>
   <g id="cell70">
  <circle cx="580.603" cy="478.245" r="7.44242" stroke-width="0.5" stroke="black" fill="cyan"/>
  <circle cx="580.603" cy="478.245" r="4.52373" stroke-width="0.5" stroke="black" fill="cyan"/>
   </g>
   <g id="cell71">
  <circle cx="374.099" cy="515.469" r="7.21906" stroke-width="0.5" stroke="black" fill="cyan"/>
  <circle cx="374.099" cy="515.469" r="4.4201" stroke-width="0.5" stroke="black" fill="cyan"/>
   </g>
   <g id="cell72">
  <circle cx="532.806" cy="517.936" r="8.31766" stroke-width="0.5" stroke="black" fill="cyan"/>
  <circle cx="532.806" cy="517.936" r="5.0126" stroke-width="0.5" stroke="black" fill="cyan"/>
   </g>
   <g id="cell73">
  <circle cx="345.532" cy="549.553" r="8.13008" stroke-width="0.5" stroke="black" fill="cyan"/>
  <circle cx="345.532" cy="549.553" r="4.91894" stroke-width="0.5" stroke="black" fill="cyan"/>
   </g>
   <g id="cell74">
  <circle cx="542.219" cy="446.342" r="8.41271" stroke-width="0.5" stroke="black" fill="cyan"/>
  <circle cx="542.219" cy="446.342" r="5.05167" stroke-width="0.5" stroke="black" fill="cyan"/>
   </g>
   <g id="cell75">
  <circle cx="531.576" cy="502.261" r="8.31766" stroke-width="0.5" stroke="black" fill="cyan"/>
  <circle cx="531.576" cy="502.261" r="5.0126" stroke-width="0.5" stroke="black" fill="cyan"/>
   </g>
   <g id="cell76">
  <circle cx="537.982" cy="548.354" r="8.30918" stroke-width="0.5" stroke="black" fill="green"/>
  <circle cx="537.982" cy="548.354" r="5.00867" stroke-width="0.5" stroke="black" fill="green"/>
   </g>
   <g id="cell77">
  <circle cx="544.656" cy="494.085" r="8.3031" stroke-width="0.5" stroke="black" fill="magenta"/>
  <circle cx="544.656" cy="494.085" r="5.00583" stroke-width="0.5" stroke="black" fill="magenta"/>
   </g>
   <g id="cell78">
  <circle cx="344.693" cy="487.724" r="8.29667" stroke-width="0.5" stroke="black" fill="cyan"/>
  <circle cx="344.693" cy="487.724" r="5.00279" stroke-width="0.5" stroke="black" fill="cyan"/>
   </g>
   <g id="cell79">
  <circle cx="489.556" cy="504.791" r="8.28262" stroke-width="0.5" stroke="black" fill="green"/>
  <circle cx="489.556" cy="504.791" r="4.9961" stroke-width="0.5" stroke="black" fill="green"/>
   </g>
   <g id="cell80">
  <circle cx="471.852" cy="486.677" r="8.28262" stroke-width="0.5" stroke="black" fill="magenta"/>
  <circle cx="471.852" cy="486.677" r="4.9961" stroke-width="0.5" stroke="black" fill="magenta"/>
   </g>
   <g id="cell81">
  <circle cx="482.609" cy="563.862" r="8.27097" stroke-width="0.5" stroke="black" fill="green"/>
  <circle cx="482.609" cy="563.862" r="4.99048" stroke-width="0.5" stroke="black" fill="green"/>
   </g>
   <g id="cell82">
  <circle cx="571.321" cy="534.387" r="6.53156" stroke-width="0.5" stroke="black" fill="cyan"/>
  <circle cx="571.321" cy="534.387" r="3.94463" stroke-width="0.5" stroke="black" fill="cyan"/>
   </g>
   <g id="cell83">
  <circle cx="560.948" cy="451.682" r="7.08765" stroke-width="0.5" stroke="black" fill="green"/>
  <circle cx="560.948" cy="451.682" r="4.32343" stroke-width="0.5" stroke="black" fill="green"/>
   </g>
   <g id="cell84">
  <circle cx="521.389" cy="528.164" r="8.18177" stroke-width="0.5" stroke="black" fill="magenta"/>
  <circle cx="521.389" cy="528.164" r="4.94584" stroke-width="0.5" stroke="black" fill="magenta"/>
   </g>
   <g id="cell85">
  <circle cx="372.941" cy="549.58" r="8.16806" stroke-width="0.5" stroke="black" fill="magenta"/>
  <circle cx="372.941" cy="549.58" r="4.93877" stroke-width="0.5" stroke="black" fill="magenta"/>
   </g>
   <g id="cell86">
  <circle cx="603.277" cy="486.149" r="8.15353" stroke-width="0.5" stroke="black" fill="green"/>
  <circle cx="603.277" cy="486.149" r="4.93122" stroke-width="0.5" stroke="black" fill="green"/>
   </g>
   <g id="cell87">
  <circle cx="359.285" cy="542.905" r="8.13008" stroke-width="0.5" stroke="black" fill="cyan"/>
  <circle cx="359.285" cy="542.905" r="4.91894" stroke-width="0.5" stroke="black" fill="cyan"/>
   </g>
   <g id="cell88">
  <circle cx="535.591" cy="533.076" r="8.03527" stroke-width="0.5" stroke="black" fill="cyan"/>
  <circle cx="535.591" cy="533.076" r="4.86813" stroke-width="0.5" stroke="black" fill="cyan"/>
   </g>
   <g id="cell89">
  <circle cx="364.297" cy="469.576" r="6.98305" stroke-width="0.5" stroke="black" fill="green"/>
  <circle cx="364.297" cy="469.576" r="4.27151" stroke-width="0.5" stroke="black" fill="green"/>
   </g>
   <g id="cell90">
  <circle cx="637.614" cy="469.611" r="8.01277" stroke-width="0.5" stroke="black" fill="green"/>
  <circle cx="637.614" cy="469.611" r="4.85584" stroke-width="0.5" stroke="black" fill="green"/>
   </g>
   <g id="cell91">
  <circle cx="381.349" cy="526.922" r="7.1075" stroke-width="0.5" stroke="black" fill="cyan"/>
  <circle cx="381.349" cy="526.922" r="4.35322" stroke-width="0.5" stroke="black" fill="cyan"/>
   </g>
   <g id="cell92">
  <circle cx="507.033" cy="608.144" r="7.87851" stroke-width="0.5" stroke="black" fill="magenta"/>
  <circle cx="507.033" cy="608.144" r="4.78096" stroke-width="0.5" stroke="black" fill="magenta"/>
   </g>
   <g id="cell93">
  <circle cx="555.679" cy="407.621" r="7.75912" stroke-width="0.5" stroke="black" fill="green"/>
  <circle cx="555.679" cy="407.621" r="4.71248" stroke-width="0.5" stroke="black" fill="green"/>
   </g>
   <g id="cell94">
  <circle cx="387.908" cy="515.268" r="7.21906" stroke-width="0.5" stroke="black" fill="cyan"/>
  <circle cx="387.908" cy="515.268" r="4.4201" stroke-width="0.5" stroke="black" fill="cyan"/>
   </g>
   <g id="cell95">
  <circle cx="371.393" cy="535.566" r="7.1075" stroke-width="0.5" stroke="black" fill="cyan"/>
  <circle cx="371.393" cy="535.566" r="4.35322" stroke-width="0.5" stroke="black" fill="cyan"/>
   </g>
   <g id="cell96">
  <circle cx="569.883" cy="469.285" r="7.44242" stroke-width="0.5" stroke="black" fill="cyan"/>
  <circle cx="569.883" cy="469.285" r="4.52373" stroke-width="0.5" stroke="black" fill="cyan"/>
   </g>
   <g id="cell97">
  <circle cx="357.294" cy="480.808" r="6.98305" stroke-width="0.5" stroke="black" fill="green"/>
  <circle cx="357.294" cy="480.808" r="4.27151" stroke-width="0.5" stroke="black" fill="green"/>
   </g>
   <g id="cell98">
  <circle cx="578.083" cy="547.688" r="7.08765" stroke-width="0.5" stroke="black" fill="cyan"/>
  <circle cx="578.083" cy="547.688" r="4.32343" stroke-width="0.5" stroke="black" fill="cyan"/>
   </g>
   <g id="cell99">
  <circle cx="557.118" cy="464.544" r="7.08765" stroke-width="0.5" stroke="black" fill="green"/>
  <circle cx="557.118" cy="464.544" r="4.32343" stroke-width="0.5" stroke="black" fill="green"/>
   </g>
   <g id="cell100">
  <circle cx="617.512" cy="486.003" r="6.8711" stroke-width="0.5" stroke="black" fill="green"/>
  <circle cx="617.512" cy="486.003" r="4.19133" stroke-width="0.5" stroke="black" fill="green"/>
   </g>
   <g id="cell101">
  <circle cx="573.081" cy="488.188" r="5.59916" stroke-width="0.5" stroke="black" fill="magenta"/>
  <circle cx="573.081" cy="488.188" r="3.39522" stroke-width="0.5" stroke="black" fill="magenta"/>
   </g>
   <g id="cell102">
  <circle cx="463.957" cy="390.637" r="6.73287" stroke-width="0.5" stroke="black" fill="green"/>
  <circle cx="463.957" cy="390.637" r="4.05039" stroke-width="0.5" stroke="black" fill="green"/>
   </g>
   <g id="cell103">
  <circle cx="563.996" cy="542.785" r="6.53156" stroke-width="0.5" stroke="black" fill="cyan"/>
  <circle cx="563.996" cy="542.785" r="3.94463" stroke-width="0.5" stroke="black" fill="cyan"/>
   </g>
   <g id="cell104">
  <circle cx="625.978" cy="498.752" r="5.4536" stroke-width="0.5" stroke="black" fill="green"/>
  <circle cx="625.978" cy="498.752" r="3.32666" stroke-width="0.5" stroke="black" fill="green"/>
   </g>
   <g id="cell105">
  <circle cx="565.017" cy="483.185" r="5.59916" stroke-width="0.5" stroke="black" fill="magenta"/>
  <circle cx="565.017" cy="483.185" r="3.39522" stroke-width="0.5" stroke="black" fill="magenta"/>
   </g>
  </g>
 </g>
  <rect x="775" y="1035" width="200" height="10" stroke-width="2" stroke="rgb(255,255,255)" fill="rgb(0,0,0)"/>
  <text x="781.25" y="1028.75"
   font-family="Arial" font-size="25" fill="black" >
   200 &#956;m
  </text>
  <text x="25" y="1045"
   font-family="Arial" font-size="18.75" fill="black" >
   0 days, 0 hours, 0 minutes, and 11.6318 seconds
  </text>
  <rect x="0" y="70" width="1000" height="1000" stroke-width="2" stroke="rgb(0,0,0)" fill="none"/>
</svg>
