<?xml version="1.0" encoding="UTF-8" standalone="no"?>
<!-- Created with PhysiCell (http://PhysiCell.MathCancer.org/) -->
<svg 
 xmlns:dc="http://purl.org/dc/elements/1.1/" 
 xmlns:cc="http://creativecommons.org/ns#" 
 xmlns:rdf="http://www.w3.org/1999/02/22-rdf-syntax-ns#" 
 xmlns:svg="http://www.w3.org/2000/svg" 
 xmlns="http://www.w3.org/2000/svg" 
 version="1.1" 
 width="1000" 
 height="1070" 
 id="svg2">
  <rect x="0" y="0" width="1000" height="1070" stroke-width="2" stroke="white" fill="white"/>
  <text x="12.5" y="30"
   font-family="Arial" font-size="25" fill="black" >
   Current time: 1 days, 14 hours, and 48.00 minutes, z = 0.00 &#956;m
  </text>
  <text x="12.5" y="57.5"
   font-family="Arial" font-size="23.75" fill="black" >
   201 agents
  </text>
 <g id="tissue" 
    transform="translate(0,1070) scale(1,-1)">
  <g id="ECM">
  </g>
  <g id="cells">
   <g id="cell0">
  <circle cx="510.28" cy="543.168" r="8.41257" stroke-width="0.5" stroke="black" fill="magenta"/>
  <circle cx="510.28" cy="543.168" r="5.05164" stroke-width="0.5" stroke="black" fill="magenta"/>
   </g>
   <g id="cell1">
  <circle cx="593.467" cy="525.894" r="8.33257" stroke-width="0.5" stroke="black" fill="magenta"/>
  <circle cx="593.467" cy="525.894" r="5.01941" stroke-width="0.5" stroke="black" fill="magenta"/>
   </g>
   <g id="cell2">
  <circle cx="513.927" cy="597.032" r="8.41271" stroke-width="0.5" stroke="black" fill="magenta"/>
  <circle cx="513.927" cy="597.032" r="5.05167" stroke-width="0.5" stroke="black" fill="magenta"/>
   </g>
   <g id="cell3">
  <circle cx="525.304" cy="546.701" r="8.41248" stroke-width="0.5" stroke="black" fill="magenta"/>
  <circle cx="525.304" cy="546.701" r="5.05162" stroke-width="0.5" stroke="black" fill="magenta"/>
   </g>
   <g id="cell4">
  <circle cx="484.579" cy="443.217" r="8.40958" stroke-width="0.5" stroke="black" fill="magenta"/>
  <circle cx="484.579" cy="443.217" r="5.05081" stroke-width="0.5" stroke="black" fill="magenta"/>
   </g>
   <g id="cell5">
  <circle cx="469.203" cy="490.591" r="8.41271" stroke-width="0.5" stroke="black" fill="magenta"/>
  <circle cx="469.203" cy="490.591" r="5.05167" stroke-width="0.5" stroke="black" fill="magenta"/>
   </g>
   <g id="cell163">
  <circle cx="535.736" cy="575.22" r="8.35232" stroke-width="0.5" stroke="black" fill="green"/>
  <circle cx="535.736" cy="575.22" r="5.0282" stroke-width="0.5" stroke="black" fill="green"/>
   </g>
   <g id="cell7">
  <circle cx="495.806" cy="453.285" r="8.32236" stroke-width="0.5" stroke="black" fill="magenta"/>
  <circle cx="495.806" cy="453.285" r="5.01488" stroke-width="0.5" stroke="black" fill="magenta"/>
   </g>
   <g id="cell8">
  <circle cx="379.95" cy="552.771" r="8.35236" stroke-width="0.5" stroke="black" fill="magenta"/>
  <circle cx="379.95" cy="552.771" r="5.02821" stroke-width="0.5" stroke="black" fill="magenta"/>
   </g>
   <g id="cell161">
  <circle cx="452.134" cy="385.84" r="8.33128" stroke-width="0.5" stroke="black" fill="green"/>
  <circle cx="452.134" cy="385.84" r="5.02052" stroke-width="0.5" stroke="black" fill="green"/>
   </g>
   <g id="cell10">
  <circle cx="586.233" cy="388.502" r="8.38753" stroke-width="0.5" stroke="black" fill="magenta"/>
  <circle cx="586.233" cy="388.502" r="5.04286" stroke-width="0.5" stroke="black" fill="magenta"/>
   </g>
   <g id="cell11">
  <circle cx="591.96" cy="590.396" r="8.41271" stroke-width="0.5" stroke="black" fill="magenta"/>
  <circle cx="591.96" cy="590.396" r="5.05167" stroke-width="0.5" stroke="black" fill="magenta"/>
   </g>
   <g id="cell12">
  <circle cx="499.395" cy="593.486" r="8.40403" stroke-width="0.5" stroke="black" fill="magenta"/>
  <circle cx="499.395" cy="593.486" r="5.04898" stroke-width="0.5" stroke="black" fill="magenta"/>
   </g>
   <g id="cell13">
  <circle cx="383.882" cy="567.513" r="8.41271" stroke-width="0.5" stroke="black" fill="magenta"/>
  <circle cx="383.882" cy="567.513" r="5.05167" stroke-width="0.5" stroke="black" fill="magenta"/>
   </g>
   <g id="cell14">
  <circle cx="517.694" cy="402.753" r="8.41271" stroke-width="0.5" stroke="black" fill="magenta"/>
  <circle cx="517.694" cy="402.753" r="5.05167" stroke-width="0.5" stroke="black" fill="magenta"/>
   </g>
   <g id="cell15">
  <circle cx="381.865" cy="479.123" r="8.40788" stroke-width="0.5" stroke="black" fill="magenta"/>
  <circle cx="381.865" cy="479.123" r="5.05027" stroke-width="0.5" stroke="black" fill="magenta"/>
   </g>
   <g id="cell16">
  <circle cx="452.579" cy="417.108" r="7.70422" stroke-width="0.5" stroke="black" fill="magenta"/>
  <circle cx="452.579" cy="417.108" r="4.68435" stroke-width="0.5" stroke="black" fill="magenta"/>
   </g>
   <g id="cell17">
  <circle cx="582.655" cy="498.13" r="8.1947" stroke-width="0.5" stroke="black" fill="magenta"/>
  <circle cx="582.655" cy="498.13" r="4.95246" stroke-width="0.5" stroke="black" fill="magenta"/>
   </g>
   <g id="cell18">
  <circle cx="519.43" cy="387.657" r="8.41271" stroke-width="0.5" stroke="black" fill="magenta"/>
  <circle cx="519.43" cy="387.657" r="5.05167" stroke-width="0.5" stroke="black" fill="magenta"/>
   </g>
   <g id="cell19">
  <circle cx="456.627" cy="541.392" r="8.41161" stroke-width="0.5" stroke="black" fill="magenta"/>
  <circle cx="456.627" cy="541.392" r="5.0514" stroke-width="0.5" stroke="black" fill="magenta"/>
   </g>
   <g id="cell20">
  <circle cx="530.445" cy="412.009" r="8.41271" stroke-width="0.5" stroke="black" fill="magenta"/>
  <circle cx="530.445" cy="412.009" r="5.05167" stroke-width="0.5" stroke="black" fill="magenta"/>
   </g>
   <g id="cell21">
  <circle cx="467.629" cy="636.923" r="7.21189" stroke-width="0.5" stroke="black" fill="magenta"/>
  <circle cx="467.629" cy="636.923" r="4.37993" stroke-width="0.5" stroke="black" fill="magenta"/>
   </g>
   <g id="cell22">
  <circle cx="559.078" cy="491.685" r="7.47078" stroke-width="0.5" stroke="black" fill="magenta"/>
  <circle cx="559.078" cy="491.685" r="4.55643" stroke-width="0.5" stroke="black" fill="magenta"/>
   </g>
   <g id="cell23">
  <circle cx="553.63" cy="477.971" r="8.41271" stroke-width="0.5" stroke="black" fill="magenta"/>
  <circle cx="553.63" cy="477.971" r="5.05167" stroke-width="0.5" stroke="black" fill="magenta"/>
   </g>
   <g id="cell24">
  <circle cx="566.374" cy="383.639" r="8.41271" stroke-width="0.5" stroke="black" fill="magenta"/>
  <circle cx="566.374" cy="383.639" r="5.05167" stroke-width="0.5" stroke="black" fill="magenta"/>
   </g>
   <g id="cell25">
  <circle cx="643.984" cy="545.911" r="7.0225" stroke-width="0.5" stroke="black" fill="green"/>
  <circle cx="643.984" cy="545.911" r="4.25642" stroke-width="0.5" stroke="black" fill="green"/>
   </g>
   <g id="cell26">
  <circle cx="558.565" cy="398.033" r="8.4116" stroke-width="0.5" stroke="black" fill="green"/>
  <circle cx="558.565" cy="398.033" r="5.05139" stroke-width="0.5" stroke="black" fill="green"/>
   </g>
   <g id="cell27">
  <circle cx="462.49" cy="405.997" r="8.41265" stroke-width="0.5" stroke="black" fill="green"/>
  <circle cx="462.49" cy="405.997" r="5.05166" stroke-width="0.5" stroke="black" fill="green"/>
   </g>
   <g id="cell28">
  <circle cx="429.77" cy="541.918" r="8.38118" stroke-width="0.5" stroke="black" fill="green"/>
  <circle cx="429.77" cy="541.918" r="5.04034" stroke-width="0.5" stroke="black" fill="green"/>
   </g>
   <g id="cell29">
  <circle cx="451.151" cy="518.603" r="1.38401" stroke-width="0.5" stroke="black" fill="green"/>
  <circle cx="451.151" cy="518.603" r="1.36838" stroke-width="0.5" stroke="black" fill="black"/>
   </g>
   <g id="cell30">
  <circle cx="480.491" cy="536.151" r="8.40262" stroke-width="0.5" stroke="black" fill="green"/>
  <circle cx="480.491" cy="536.151" r="5.04851" stroke-width="0.5" stroke="black" fill="green"/>
   </g>
   <g id="cell31">
  <circle cx="413.783" cy="543.473" r="8.41271" stroke-width="0.5" stroke="black" fill="green"/>
  <circle cx="413.783" cy="543.473" r="5.05167" stroke-width="0.5" stroke="black" fill="green"/>
   </g>
   <g id="cell169">
  <circle cx="519.26" cy="502.013" r="8.30905" stroke-width="0.5" stroke="black" fill="cyan"/>
  <circle cx="519.26" cy="502.013" r="5.00864" stroke-width="0.5" stroke="black" fill="cyan"/>
   </g>
   <g id="cell33">
  <circle cx="501.318" cy="422.948" r="8.4009" stroke-width="0.5" stroke="black" fill="green"/>
  <circle cx="501.318" cy="422.948" r="5.04788" stroke-width="0.5" stroke="black" fill="green"/>
   </g>
   <g id="cell168">
  <circle cx="382.38" cy="517.874" r="8.31159" stroke-width="0.5" stroke="black" fill="cyan"/>
  <circle cx="382.38" cy="517.874" r="5.0099" stroke-width="0.5" stroke="black" fill="cyan"/>
   </g>
   <g id="cell35">
  <circle cx="558.649" cy="555.204" r="8.41271" stroke-width="0.5" stroke="black" fill="green"/>
  <circle cx="558.649" cy="555.204" r="5.05167" stroke-width="0.5" stroke="black" fill="green"/>
   </g>
   <g id="cell36">
  <circle cx="388.32" cy="582.542" r="8.35251" stroke-width="0.5" stroke="black" fill="green"/>
  <circle cx="388.32" cy="582.542" r="5.02979" stroke-width="0.5" stroke="black" fill="green"/>
   </g>
   <g id="cell37">
  <circle cx="642.247" cy="456.028" r="8.41265" stroke-width="0.5" stroke="black" fill="green"/>
  <circle cx="642.247" cy="456.028" r="5.05166" stroke-width="0.5" stroke="black" fill="green"/>
   </g>
   <g id="cell38">
  <circle cx="524.734" cy="586.21" r="8.35232" stroke-width="0.5" stroke="black" fill="green"/>
  <circle cx="524.734" cy="586.21" r="5.0282" stroke-width="0.5" stroke="black" fill="green"/>
   </g>
   <g id="cell39">
  <circle cx="611.466" cy="490.125" r="8.20689" stroke-width="0.5" stroke="black" fill="green"/>
  <circle cx="611.466" cy="490.125" r="4.95867" stroke-width="0.5" stroke="black" fill="green"/>
   </g>
   <g id="cell40">
  <circle cx="486.244" cy="567.063" r="8.37537" stroke-width="0.5" stroke="black" fill="green"/>
  <circle cx="486.244" cy="567.063" r="5.03798" stroke-width="0.5" stroke="black" fill="green"/>
   </g>
   <g id="cell41">
  <circle cx="366.56" cy="482.121" r="8.41271" stroke-width="0.5" stroke="black" fill="green"/>
  <circle cx="366.56" cy="482.121" r="5.05167" stroke-width="0.5" stroke="black" fill="green"/>
   </g>
   <g id="cell42">
  <circle cx="438.209" cy="490.746" r="8.41271" stroke-width="0.5" stroke="black" fill="green"/>
  <circle cx="438.209" cy="490.746" r="5.05167" stroke-width="0.5" stroke="black" fill="green"/>
   </g>
   <g id="cell43">
  <circle cx="564.443" cy="438.766" r="8.41271" stroke-width="0.5" stroke="black" fill="green"/>
  <circle cx="564.443" cy="438.766" r="5.05167" stroke-width="0.5" stroke="black" fill="green"/>
   </g>
   <g id="cell164">
  <circle cx="398.993" cy="570.847" r="8.32887" stroke-width="0.5" stroke="black" fill="green"/>
  <circle cx="398.993" cy="570.847" r="5.01908" stroke-width="0.5" stroke="black" fill="green"/>
   </g>
   <g id="cell145">
  <circle cx="411.727" cy="420.875" r="7.67617" stroke-width="0.5" stroke="black" fill="magenta"/>
  <circle cx="411.727" cy="420.875" r="4.68147" stroke-width="0.5" stroke="black" fill="magenta"/>
   </g>
   <g id="cell46">
  <circle cx="515.766" cy="619.365" r="8.41221" stroke-width="0.5" stroke="black" fill="green"/>
  <circle cx="515.766" cy="619.365" r="5.05155" stroke-width="0.5" stroke="black" fill="green"/>
   </g>
   <g id="cell47">
  <circle cx="484.753" cy="491.181" r="8.4124" stroke-width="0.5" stroke="black" fill="green"/>
  <circle cx="484.753" cy="491.181" r="5.0516" stroke-width="0.5" stroke="black" fill="green"/>
   </g>
   <g id="cell48">
  <circle cx="577.446" cy="604.714" r="8.41158" stroke-width="0.5" stroke="black" fill="green"/>
  <circle cx="577.446" cy="604.714" r="5.0514" stroke-width="0.5" stroke="black" fill="green"/>
   </g>
   <g id="cell49">
  <circle cx="437.332" cy="391.124" r="8.31209" stroke-width="0.5" stroke="black" fill="green"/>
  <circle cx="437.332" cy="391.124" r="5.01002" stroke-width="0.5" stroke="black" fill="green"/>
   </g>
   <g id="cell50">
  <circle cx="501.575" cy="512.651" r="8.41114" stroke-width="0.5" stroke="black" fill="cyan"/>
  <circle cx="501.575" cy="512.651" r="5.05127" stroke-width="0.5" stroke="black" fill="cyan"/>
   </g>
   <g id="cell51">
  <circle cx="401.124" cy="592.894" r="7.59183" stroke-width="0.5" stroke="black" fill="cyan"/>
  <circle cx="401.124" cy="592.894" r="4.61399" stroke-width="0.5" stroke="black" fill="cyan"/>
   </g>
   <g id="cell52">
  <circle cx="515.871" cy="417.67" r="8.41271" stroke-width="0.5" stroke="black" fill="cyan"/>
  <circle cx="515.871" cy="417.67" r="5.05167" stroke-width="0.5" stroke="black" fill="cyan"/>
   </g>
   <g id="cell53">
  <circle cx="572.924" cy="425.335" r="8.41229" stroke-width="0.5" stroke="black" fill="cyan"/>
  <circle cx="572.924" cy="425.335" r="5.05157" stroke-width="0.5" stroke="black" fill="cyan"/>
   </g>
   <g id="cell54">
  <circle cx="479.991" cy="416.4" r="8.41245" stroke-width="0.5" stroke="black" fill="cyan"/>
  <circle cx="479.991" cy="416.4" r="5.05161" stroke-width="0.5" stroke="black" fill="cyan"/>
   </g>
   <g id="cell55">
  <circle cx="522.428" cy="458.967" r="8.41231" stroke-width="0.5" stroke="black" fill="cyan"/>
  <circle cx="522.428" cy="458.967" r="5.05158" stroke-width="0.5" stroke="black" fill="cyan"/>
   </g>
   <g id="cell56">
  <circle cx="622.755" cy="522.505" r="8.41271" stroke-width="0.5" stroke="black" fill="cyan"/>
  <circle cx="622.755" cy="522.505" r="5.05167" stroke-width="0.5" stroke="black" fill="cyan"/>
   </g>
   <g id="cell105">
  <circle cx="503.571" cy="608.675" r="8.39986" stroke-width="0.5" stroke="black" fill="green"/>
  <circle cx="503.571" cy="608.675" r="5.04761" stroke-width="0.5" stroke="black" fill="green"/>
   </g>
   <g id="cell58">
  <circle cx="568.838" cy="475.823" r="8.37742" stroke-width="0.5" stroke="black" fill="cyan"/>
  <circle cx="568.838" cy="475.823" r="5.03881" stroke-width="0.5" stroke="black" fill="cyan"/>
   </g>
   <g id="cell59">
  <circle cx="385.732" cy="440.058" r="8.41271" stroke-width="0.5" stroke="black" fill="cyan"/>
  <circle cx="385.732" cy="440.058" r="5.05167" stroke-width="0.5" stroke="black" fill="cyan"/>
   </g>
   <g id="cell60">
  <circle cx="595.861" cy="465.209" r="8.26685" stroke-width="0.5" stroke="black" fill="cyan"/>
  <circle cx="595.861" cy="465.209" r="4.98849" stroke-width="0.5" stroke="black" fill="cyan"/>
   </g>
   <g id="cell186">
  <circle cx="354.924" cy="562.196" r="3.63958" stroke-width="0.5" stroke="black" fill="cyan"/>
  <circle cx="354.924" cy="562.196" r="2.71672" stroke-width="0.5" stroke="black" fill="black"/>
   </g>
   <g id="cell62">
  <circle cx="513.301" cy="433.09" r="8.24791" stroke-width="0.5" stroke="black" fill="cyan"/>
  <circle cx="513.301" cy="433.09" r="4.97947" stroke-width="0.5" stroke="black" fill="cyan"/>
   </g>
   <g id="cell63">
  <circle cx="586.049" cy="539.782" r="8.40738" stroke-width="0.5" stroke="black" fill="cyan"/>
  <circle cx="586.049" cy="539.782" r="5.05011" stroke-width="0.5" stroke="black" fill="cyan"/>
   </g>
   <g id="cell64">
  <circle cx="509.378" cy="638.31" r="8.41271" stroke-width="0.5" stroke="black" fill="cyan"/>
  <circle cx="509.378" cy="638.31" r="5.05167" stroke-width="0.5" stroke="black" fill="cyan"/>
   </g>
   <g id="cell65">
  <circle cx="545.552" cy="464.56" r="8.41254" stroke-width="0.5" stroke="black" fill="cyan"/>
  <circle cx="545.552" cy="464.56" r="5.05163" stroke-width="0.5" stroke="black" fill="cyan"/>
   </g>
   <g id="cell66">
  <circle cx="535.02" cy="535.623" r="8.41244" stroke-width="0.5" stroke="black" fill="cyan"/>
  <circle cx="535.02" cy="535.623" r="5.05161" stroke-width="0.5" stroke="black" fill="cyan"/>
   </g>
   <g id="cell67">
  <circle cx="354.66" cy="492.852" r="8.41271" stroke-width="0.5" stroke="black" fill="cyan"/>
  <circle cx="354.66" cy="492.852" r="5.05167" stroke-width="0.5" stroke="black" fill="cyan"/>
   </g>
   <g id="cell212">
  <circle cx="569.53" cy="499.829" r="6.72835" stroke-width="0.5" stroke="black" fill="magenta"/>
  <circle cx="569.53" cy="499.829" r="4.10199" stroke-width="0.5" stroke="black" fill="magenta"/>
   </g>
   <g id="cell69">
  <circle cx="443.495" cy="460.828" r="8.41271" stroke-width="0.5" stroke="black" fill="cyan"/>
  <circle cx="443.495" cy="460.828" r="5.05167" stroke-width="0.5" stroke="black" fill="cyan"/>
   </g>
   <g id="cell70">
  <circle cx="584.385" cy="481.727" r="8.41271" stroke-width="0.5" stroke="black" fill="cyan"/>
  <circle cx="584.385" cy="481.727" r="5.05167" stroke-width="0.5" stroke="black" fill="cyan"/>
   </g>
   <g id="cell71">
  <circle cx="382.124" cy="533.454" r="1.55108" stroke-width="0.5" stroke="black" fill="cyan"/>
  <circle cx="382.124" cy="533.454" r="1.52279" stroke-width="0.5" stroke="black" fill="black"/>
   </g>
   <g id="cell72">
  <circle cx="534.765" cy="502.13" r="8.30905" stroke-width="0.5" stroke="black" fill="cyan"/>
  <circle cx="534.765" cy="502.13" r="5.00864" stroke-width="0.5" stroke="black" fill="cyan"/>
   </g>
   <g id="cell73">
  <circle cx="365.67" cy="549.998" r="7.46203" stroke-width="0.5" stroke="black" fill="cyan"/>
  <circle cx="365.67" cy="549.998" r="4.55209" stroke-width="0.5" stroke="black" fill="cyan"/>
   </g>
   <g id="cell162">
  <circle cx="374.524" cy="538.478" r="8.35236" stroke-width="0.5" stroke="black" fill="magenta"/>
  <circle cx="374.524" cy="538.478" r="5.02821" stroke-width="0.5" stroke="black" fill="magenta"/>
   </g>
   <g id="cell75">
  <circle cx="527.835" cy="427.619" r="8.41266" stroke-width="0.5" stroke="black" fill="cyan"/>
  <circle cx="527.835" cy="427.619" r="5.05166" stroke-width="0.5" stroke="black" fill="cyan"/>
   </g>
   <g id="cell76">
  <circle cx="436.299" cy="375.568" r="8.41191" stroke-width="0.5" stroke="black" fill="green"/>
  <circle cx="436.299" cy="375.568" r="5.05148" stroke-width="0.5" stroke="black" fill="green"/>
   </g>
   <g id="cell77">
  <circle cx="469.897" cy="446.969" r="8.41209" stroke-width="0.5" stroke="black" fill="magenta"/>
  <circle cx="469.897" cy="446.969" r="5.05153" stroke-width="0.5" stroke="black" fill="magenta"/>
   </g>
   <g id="cell78">
  <circle cx="626.265" cy="455.715" r="8.4125" stroke-width="0.5" stroke="black" fill="green"/>
  <circle cx="626.265" cy="455.715" r="5.05163" stroke-width="0.5" stroke="black" fill="green"/>
   </g>
   <g id="cell79">
  <circle cx="518.368" cy="474.236" r="8.41264" stroke-width="0.5" stroke="black" fill="cyan"/>
  <circle cx="518.368" cy="474.236" r="5.05166" stroke-width="0.5" stroke="black" fill="cyan"/>
   </g>
   <g id="cell80">
  <circle cx="542.276" cy="630.796" r="7.89237" stroke-width="0.5" stroke="black" fill="green"/>
  <circle cx="542.276" cy="630.796" r="4.78918" stroke-width="0.5" stroke="black" fill="green"/>
   </g>
   <g id="cell81">
  <circle cx="546.951" cy="586.516" r="8.41259" stroke-width="0.5" stroke="black" fill="green"/>
  <circle cx="546.951" cy="586.516" r="5.05165" stroke-width="0.5" stroke="black" fill="green"/>
   </g>
   <g id="cell82">
  <circle cx="530.676" cy="560.636" r="8.3987" stroke-width="0.5" stroke="black" fill="magenta"/>
  <circle cx="530.676" cy="560.636" r="5.0471" stroke-width="0.5" stroke="black" fill="magenta"/>
   </g>
   <g id="cell211">
  <circle cx="450.202" cy="371.654" r="6.95477" stroke-width="0.5" stroke="black" fill="green"/>
  <circle cx="450.202" cy="371.654" r="4.21213" stroke-width="0.5" stroke="black" fill="green"/>
   </g>
   <g id="cell84">
  <circle cx="512.192" cy="488.659" r="8.15346" stroke-width="0.5" stroke="black" fill="cyan"/>
  <circle cx="512.192" cy="488.659" r="4.93121" stroke-width="0.5" stroke="black" fill="cyan"/>
   </g>
   <g id="cell85">
  <circle cx="345.252" cy="541.898" r="8.41232" stroke-width="0.5" stroke="black" fill="cyan"/>
  <circle cx="345.252" cy="541.898" r="5.05158" stroke-width="0.5" stroke="black" fill="cyan"/>
   </g>
   <g id="cell86">
  <circle cx="495.711" cy="538.991" r="8.41002" stroke-width="0.5" stroke="black" fill="magenta"/>
  <circle cx="495.711" cy="538.991" r="5.05094" stroke-width="0.5" stroke="black" fill="magenta"/>
   </g>
   <g id="cell87">
  <circle cx="574.078" cy="558.275" r="8.41216" stroke-width="0.5" stroke="black" fill="cyan"/>
  <circle cx="574.078" cy="558.275" r="5.05155" stroke-width="0.5" stroke="black" fill="cyan"/>
   </g>
   <g id="cell88">
  <circle cx="443.271" cy="534.459" r="8.35323" stroke-width="0.5" stroke="black" fill="magenta"/>
  <circle cx="443.271" cy="534.459" r="5.0297" stroke-width="0.5" stroke="black" fill="magenta"/>
   </g>
   <g id="cell89">
  <circle cx="553.925" cy="450.438" r="8.39491" stroke-width="0.5" stroke="black" fill="cyan"/>
  <circle cx="553.925" cy="450.438" r="5.04594" stroke-width="0.5" stroke="black" fill="cyan"/>
   </g>
   <g id="cell90">
  <circle cx="637.446" cy="471.317" r="8.40884" stroke-width="0.5" stroke="black" fill="green"/>
  <circle cx="637.446" cy="471.317" r="5.05058" stroke-width="0.5" stroke="black" fill="green"/>
   </g>
   <g id="cell91">
  <circle cx="545.719" cy="563.668" r="8.41237" stroke-width="0.5" stroke="black" fill="magenta"/>
  <circle cx="545.719" cy="563.668" r="5.0516" stroke-width="0.5" stroke="black" fill="magenta"/>
   </g>
   <g id="cell92">
  <circle cx="486.267" cy="551.173" r="8.41249" stroke-width="0.5" stroke="black" fill="green"/>
  <circle cx="486.267" cy="551.173" r="5.05162" stroke-width="0.5" stroke="black" fill="green"/>
   </g>
   <g id="cell93">
  <circle cx="540.877" cy="549.534" r="8.41237" stroke-width="0.5" stroke="black" fill="magenta"/>
  <circle cx="540.877" cy="549.534" r="5.0516" stroke-width="0.5" stroke="black" fill="magenta"/>
   </g>
   <g id="cell94">
  <circle cx="543.544" cy="489.348" r="8.41246" stroke-width="0.5" stroke="black" fill="cyan"/>
  <circle cx="543.544" cy="489.348" r="5.05162" stroke-width="0.5" stroke="black" fill="cyan"/>
   </g>
   <g id="cell95">
  <circle cx="465.772" cy="421.31" r="7.90838" stroke-width="0.5" stroke="black" fill="cyan"/>
  <circle cx="465.772" cy="421.31" r="4.79787" stroke-width="0.5" stroke="black" fill="cyan"/>
   </g>
   <g id="cell96">
  <circle cx="553.972" cy="540.552" r="8.40543" stroke-width="0.5" stroke="black" fill="cyan"/>
  <circle cx="553.972" cy="540.552" r="5.04948" stroke-width="0.5" stroke="black" fill="cyan"/>
   </g>
   <g id="cell97">
  <circle cx="420.425" cy="463.912" r="8.4122" stroke-width="0.5" stroke="black" fill="green"/>
  <circle cx="420.425" cy="463.912" r="5.05155" stroke-width="0.5" stroke="black" fill="green"/>
   </g>
   <g id="cell98">
  <circle cx="490.726" cy="524.033" r="8.40946" stroke-width="0.5" stroke="black" fill="green"/>
  <circle cx="490.726" cy="524.033" r="5.05078" stroke-width="0.5" stroke="black" fill="green"/>
   </g>
   <g id="cell99">
  <circle cx="367.03" cy="524.767" r="8.41232" stroke-width="0.5" stroke="black" fill="cyan"/>
  <circle cx="367.03" cy="524.767" r="5.05158" stroke-width="0.5" stroke="black" fill="cyan"/>
   </g>
   <g id="cell100">
  <circle cx="446.464" cy="403.854" r="8.41232" stroke-width="0.5" stroke="black" fill="green"/>
  <circle cx="446.464" cy="403.854" r="5.05158" stroke-width="0.5" stroke="black" fill="green"/>
   </g>
   <g id="cell101">
  <circle cx="527.409" cy="488.593" r="8.09114" stroke-width="0.5" stroke="black" fill="cyan"/>
  <circle cx="527.409" cy="488.593" r="4.89923" stroke-width="0.5" stroke="black" fill="cyan"/>
   </g>
   <g id="cell102">
  <circle cx="441.356" cy="475.978" r="7.38764" stroke-width="0.5" stroke="black" fill="green"/>
  <circle cx="441.356" cy="475.978" r="4.49021" stroke-width="0.5" stroke="black" fill="green"/>
   </g>
   <g id="cell103">
  <circle cx="592.693" cy="449.708" r="8.40995" stroke-width="0.5" stroke="black" fill="cyan"/>
  <circle cx="592.693" cy="449.708" r="5.05093" stroke-width="0.5" stroke="black" fill="cyan"/>
   </g>
   <g id="cell104">
  <circle cx="606.73" cy="554.13" r="8.17158" stroke-width="0.5" stroke="black" fill="cyan"/>
  <circle cx="606.73" cy="554.13" r="4.94236" stroke-width="0.5" stroke="black" fill="cyan"/>
   </g>
   <g id="cell106">
  <circle cx="454.766" cy="449.523" r="8.41209" stroke-width="0.5" stroke="black" fill="magenta"/>
  <circle cx="454.766" cy="449.523" r="5.05153" stroke-width="0.5" stroke="black" fill="magenta"/>
   </g>
   <g id="cell107">
  <circle cx="467.064" cy="390.679" r="8.33128" stroke-width="0.5" stroke="black" fill="green"/>
  <circle cx="467.064" cy="390.679" r="5.02052" stroke-width="0.5" stroke="black" fill="green"/>
   </g>
   <g id="cell108">
  <circle cx="562.111" cy="609.036" r="8.412" stroke-width="0.5" stroke="black" fill="green"/>
  <circle cx="562.111" cy="609.036" r="5.0515" stroke-width="0.5" stroke="black" fill="green"/>
   </g>
   <g id="cell109">
  <circle cx="576.472" cy="588.773" r="8.41158" stroke-width="0.5" stroke="black" fill="green"/>
  <circle cx="576.472" cy="588.773" r="5.0514" stroke-width="0.5" stroke="black" fill="green"/>
   </g>
   <g id="cell110">
  <circle cx="369.124" cy="509.087" r="8.41175" stroke-width="0.5" stroke="black" fill="cyan"/>
  <circle cx="369.124" cy="509.087" r="5.05143" stroke-width="0.5" stroke="black" fill="cyan"/>
   </g>
   <g id="cell111">
  <circle cx="457.148" cy="556.496" r="8.4046" stroke-width="0.5" stroke="black" fill="magenta"/>
  <circle cx="457.148" cy="556.496" r="5.04923" stroke-width="0.5" stroke="black" fill="magenta"/>
   </g>
   <g id="cell112">
  <circle cx="492.442" cy="467.573" r="8.39261" stroke-width="0.5" stroke="black" fill="magenta"/>
  <circle cx="492.442" cy="467.573" r="5.04489" stroke-width="0.5" stroke="black" fill="magenta"/>
   </g>
   <g id="cell113">
  <circle cx="548.219" cy="375.005" r="6.66467" stroke-width="0.5" stroke="black" fill="green"/>
  <circle cx="548.219" cy="375.005" r="4.00542" stroke-width="0.5" stroke="black" fill="green"/>
   </g>
   <g id="cell114">
  <circle cx="525.127" cy="443.106" r="8.41085" stroke-width="0.5" stroke="black" fill="cyan"/>
  <circle cx="525.127" cy="443.106" r="5.0512" stroke-width="0.5" stroke="black" fill="cyan"/>
   </g>
   <g id="cell115">
  <circle cx="538.296" cy="450.913" r="8.40606" stroke-width="0.5" stroke="black" fill="cyan"/>
  <circle cx="538.296" cy="450.913" r="5.04974" stroke-width="0.5" stroke="black" fill="cyan"/>
   </g>
   <g id="cell116">
  <circle cx="520.282" cy="532.015" r="8.21757" stroke-width="0.5" stroke="black" fill="cyan"/>
  <circle cx="520.282" cy="532.015" r="4.96426" stroke-width="0.5" stroke="black" fill="cyan"/>
   </g>
   <g id="cell117">
  <circle cx="500.877" cy="624.679" r="8.41064" stroke-width="0.5" stroke="black" fill="green"/>
  <circle cx="500.877" cy="624.679" r="5.05113" stroke-width="0.5" stroke="black" fill="green"/>
   </g>
   <g id="cell118">
  <circle cx="510.553" cy="448.658" r="8.41034" stroke-width="0.5" stroke="black" fill="cyan"/>
  <circle cx="510.553" cy="448.658" r="5.05103" stroke-width="0.5" stroke="black" fill="cyan"/>
   </g>
   <g id="cell119">
  <circle cx="548.136" cy="602.22" r="8.24789" stroke-width="0.5" stroke="black" fill="green"/>
  <circle cx="548.136" cy="602.22" r="4.97947" stroke-width="0.5" stroke="black" fill="green"/>
   </g>
   <g id="cell120">
  <circle cx="580.479" cy="439.372" r="8.40995" stroke-width="0.5" stroke="black" fill="cyan"/>
  <circle cx="580.479" cy="439.372" r="5.05093" stroke-width="0.5" stroke="black" fill="cyan"/>
   </g>
   <g id="cell121">
  <circle cx="452.547" cy="358.852" r="6.95477" stroke-width="0.5" stroke="black" fill="green"/>
  <circle cx="452.547" cy="358.852" r="4.21213" stroke-width="0.5" stroke="black" fill="green"/>
   </g>
   <g id="cell122">
  <circle cx="505.748" cy="528.079" r="8.41002" stroke-width="0.5" stroke="black" fill="magenta"/>
  <circle cx="505.748" cy="528.079" r="5.05094" stroke-width="0.5" stroke="black" fill="magenta"/>
   </g>
   <g id="cell123">
  <circle cx="486.851" cy="507.096" r="8.40946" stroke-width="0.5" stroke="black" fill="green"/>
  <circle cx="486.851" cy="507.096" r="5.05078" stroke-width="0.5" stroke="black" fill="green"/>
   </g>
   <g id="cell124">
  <circle cx="487.838" cy="428.979" r="7.98718" stroke-width="0.5" stroke="black" fill="magenta"/>
  <circle cx="487.838" cy="428.979" r="4.84222" stroke-width="0.5" stroke="black" fill="magenta"/>
   </g>
   <g id="cell125">
  <circle cx="624.368" cy="483.416" r="7.17832" stroke-width="0.5" stroke="black" fill="green"/>
  <circle cx="624.368" cy="483.416" r="4.35934" stroke-width="0.5" stroke="black" fill="green"/>
   </g>
   <g id="cell126">
  <circle cx="628.988" cy="566.353" r="8.4088" stroke-width="0.5" stroke="black" fill="green"/>
  <circle cx="628.988" cy="566.353" r="5.05056" stroke-width="0.5" stroke="black" fill="green"/>
   </g>
   <g id="cell127">
  <circle cx="432.792" cy="361.508" r="7.0184" stroke-width="0.5" stroke="black" fill="green"/>
  <circle cx="432.792" cy="361.508" r="4.25517" stroke-width="0.5" stroke="black" fill="green"/>
   </g>
   <g id="cell128">
  <circle cx="372.114" cy="467.548" r="8.40788" stroke-width="0.5" stroke="black" fill="magenta"/>
  <circle cx="372.114" cy="467.548" r="5.05027" stroke-width="0.5" stroke="black" fill="magenta"/>
   </g>
   <g id="cell129">
  <circle cx="569.851" cy="542.727" r="8.40738" stroke-width="0.5" stroke="black" fill="cyan"/>
  <circle cx="569.851" cy="542.727" r="5.05011" stroke-width="0.5" stroke="black" fill="cyan"/>
   </g>
   <g id="cell130">
  <circle cx="546.464" cy="437.035" r="8.40606" stroke-width="0.5" stroke="black" fill="cyan"/>
  <circle cx="546.464" cy="437.035" r="5.04974" stroke-width="0.5" stroke="black" fill="cyan"/>
   </g>
   <g id="cell131">
  <circle cx="542.818" cy="514.079" r="7.42216" stroke-width="0.5" stroke="black" fill="cyan"/>
  <circle cx="542.818" cy="514.079" r="4.54683" stroke-width="0.5" stroke="black" fill="cyan"/>
   </g>
   <g id="cell132">
  <circle cx="443.701" cy="549.451" r="8.4046" stroke-width="0.5" stroke="black" fill="magenta"/>
  <circle cx="443.701" cy="549.451" r="5.04923" stroke-width="0.5" stroke="black" fill="magenta"/>
   </g>
   <g id="cell133">
  <circle cx="580.412" cy="465.889" r="8.40507" stroke-width="0.5" stroke="black" fill="cyan"/>
  <circle cx="580.412" cy="465.889" r="5.04935" stroke-width="0.5" stroke="black" fill="cyan"/>
   </g>
   <g id="cell201">
  <circle cx="555.963" cy="518.051" r="7.42216" stroke-width="0.5" stroke="black" fill="cyan"/>
  <circle cx="555.963" cy="518.051" r="4.54683" stroke-width="0.5" stroke="black" fill="cyan"/>
   </g>
   <g id="cell135">
  <circle cx="509.796" cy="582.412" r="8.40403" stroke-width="0.5" stroke="black" fill="magenta"/>
  <circle cx="509.796" cy="582.412" r="5.04898" stroke-width="0.5" stroke="black" fill="magenta"/>
   </g>
   <g id="cell136">
  <circle cx="470.516" cy="548.522" r="8.40262" stroke-width="0.5" stroke="black" fill="green"/>
  <circle cx="470.516" cy="548.522" r="5.04851" stroke-width="0.5" stroke="black" fill="green"/>
   </g>
   <g id="cell137">
  <circle cx="488.631" cy="614.527" r="8.39986" stroke-width="0.5" stroke="black" fill="green"/>
  <circle cx="488.631" cy="614.527" r="5.04761" stroke-width="0.5" stroke="black" fill="green"/>
   </g>
   <g id="cell138">
  <circle cx="503.025" cy="407.325" r="8.4009" stroke-width="0.5" stroke="black" fill="green"/>
  <circle cx="503.025" cy="407.325" r="5.04788" stroke-width="0.5" stroke="black" fill="green"/>
   </g>
   <g id="cell139">
  <circle cx="416.031" cy="407.041" r="8.39913" stroke-width="0.5" stroke="black" fill="magenta"/>
  <circle cx="416.031" cy="407.041" r="5.04725" stroke-width="0.5" stroke="black" fill="magenta"/>
   </g>
   <g id="cell140">
  <circle cx="520.499" cy="571.641" r="8.38666" stroke-width="0.5" stroke="black" fill="magenta"/>
  <circle cx="520.499" cy="571.641" r="5.04293" stroke-width="0.5" stroke="black" fill="magenta"/>
   </g>
   <g id="cell141">
  <circle cx="571.784" cy="452.652" r="8.39491" stroke-width="0.5" stroke="black" fill="cyan"/>
  <circle cx="571.784" cy="452.652" r="5.04594" stroke-width="0.5" stroke="black" fill="cyan"/>
   </g>
   <g id="cell142">
  <circle cx="542.017" cy="422.371" r="8.21209" stroke-width="0.5" stroke="black" fill="green"/>
  <circle cx="542.017" cy="422.371" r="4.96505" stroke-width="0.5" stroke="black" fill="green"/>
   </g>
   <g id="cell143">
  <circle cx="430.996" cy="405.082" r="8.3907" stroke-width="0.5" stroke="black" fill="magenta"/>
  <circle cx="430.996" cy="405.082" r="5.04444" stroke-width="0.5" stroke="black" fill="magenta"/>
   </g>
   <g id="cell144">
  <circle cx="546.121" cy="407.938" r="8.35763" stroke-width="0.5" stroke="black" fill="green"/>
  <circle cx="546.121" cy="407.938" r="5.03163" stroke-width="0.5" stroke="black" fill="green"/>
   </g>
   <g id="cell185">
  <circle cx="596.923" cy="564.617" r="6.95062" stroke-width="0.5" stroke="black" fill="cyan"/>
  <circle cx="596.923" cy="564.617" r="4.24224" stroke-width="0.5" stroke="black" fill="cyan"/>
   </g>
   <g id="cell147">
  <circle cx="515.442" cy="557.601" r="8.38666" stroke-width="0.5" stroke="black" fill="magenta"/>
  <circle cx="515.442" cy="557.601" r="5.04293" stroke-width="0.5" stroke="black" fill="magenta"/>
   </g>
   <g id="cell148">
  <circle cx="507.07" cy="463.288" r="8.07526" stroke-width="0.5" stroke="black" fill="magenta"/>
  <circle cx="507.07" cy="463.288" r="4.89186" stroke-width="0.5" stroke="black" fill="magenta"/>
   </g>
   <g id="cell149">
  <circle cx="573.688" cy="396.757" r="8.38753" stroke-width="0.5" stroke="black" fill="magenta"/>
  <circle cx="573.688" cy="396.757" r="5.04286" stroke-width="0.5" stroke="black" fill="magenta"/>
   </g>
   <g id="cell150">
  <circle cx="410.812" cy="581.369" r="8.32887" stroke-width="0.5" stroke="black" fill="green"/>
  <circle cx="410.812" cy="581.369" r="5.01908" stroke-width="0.5" stroke="black" fill="green"/>
   </g>
   <g id="cell151">
  <circle cx="420.133" cy="528.875" r="8.38118" stroke-width="0.5" stroke="black" fill="green"/>
  <circle cx="420.133" cy="528.875" r="5.04034" stroke-width="0.5" stroke="black" fill="green"/>
   </g>
   <g id="cell152">
  <circle cx="372.939" cy="578.791" r="8.36518" stroke-width="0.5" stroke="black" fill="green"/>
  <circle cx="372.939" cy="578.791" r="5.03457" stroke-width="0.5" stroke="black" fill="green"/>
   </g>
   <g id="cell153">
  <circle cx="560.757" cy="463.742" r="8.37742" stroke-width="0.5" stroke="black" fill="cyan"/>
  <circle cx="560.757" cy="463.742" r="5.03881" stroke-width="0.5" stroke="black" fill="cyan"/>
   </g>
   <g id="cell154">
  <circle cx="387.136" cy="598.431" r="8.35251" stroke-width="0.5" stroke="black" fill="green"/>
  <circle cx="387.136" cy="598.431" r="5.02979" stroke-width="0.5" stroke="black" fill="green"/>
   </g>
   <g id="cell155">
  <circle cx="488.145" cy="582.833" r="8.37537" stroke-width="0.5" stroke="black" fill="green"/>
  <circle cx="488.145" cy="582.833" r="5.03798" stroke-width="0.5" stroke="black" fill="green"/>
   </g>
   <g id="cell156">
  <circle cx="455.814" cy="526.241" r="8.37529" stroke-width="0.5" stroke="black" fill="magenta"/>
  <circle cx="455.814" cy="526.241" r="5.03796" stroke-width="0.5" stroke="black" fill="magenta"/>
   </g>
   <g id="cell157">
  <circle cx="442.286" cy="519.525" r="8.35323" stroke-width="0.5" stroke="black" fill="magenta"/>
  <circle cx="442.286" cy="519.525" r="5.0297" stroke-width="0.5" stroke="black" fill="magenta"/>
   </g>
   <g id="cell158">
  <circle cx="565.173" cy="411.68" r="8.35999" stroke-width="0.5" stroke="black" fill="green"/>
  <circle cx="565.173" cy="411.68" r="5.03261" stroke-width="0.5" stroke="black" fill="green"/>
   </g>
   <g id="cell159">
  <circle cx="530.762" cy="397.169" r="7.78879" stroke-width="0.5" stroke="black" fill="green"/>
  <circle cx="530.762" cy="397.169" r="4.74604" stroke-width="0.5" stroke="black" fill="green"/>
   </g>
   <g id="cell160">
  <circle cx="464.25" cy="375.042" r="8.36443" stroke-width="0.5" stroke="black" fill="green"/>
  <circle cx="464.25" cy="375.042" r="5.03363" stroke-width="0.5" stroke="black" fill="green"/>
   </g>
   <g id="cell165">
  <circle cx="608.099" cy="526.278" r="7.90576" stroke-width="0.5" stroke="black" fill="magenta"/>
  <circle cx="608.099" cy="526.278" r="4.80313" stroke-width="0.5" stroke="black" fill="magenta"/>
   </g>
   <g id="cell166">
  <circle cx="481.146" cy="457.574" r="8.32236" stroke-width="0.5" stroke="black" fill="magenta"/>
  <circle cx="481.146" cy="457.574" r="5.01488" stroke-width="0.5" stroke="black" fill="magenta"/>
   </g>
   <g id="cell167">
  <circle cx="421.701" cy="392.657" r="8.31209" stroke-width="0.5" stroke="black" fill="green"/>
  <circle cx="421.701" cy="392.657" r="5.01002" stroke-width="0.5" stroke="black" fill="green"/>
   </g>
   <g id="cell170">
  <circle cx="460.284" cy="503.234" r="8.28985" stroke-width="0.5" stroke="black" fill="green"/>
  <circle cx="460.284" cy="503.234" r="4.99956" stroke-width="0.5" stroke="black" fill="green"/>
   </g>
   <g id="cell171">
  <circle cx="599.7" cy="480.287" r="8.26685" stroke-width="0.5" stroke="black" fill="cyan"/>
  <circle cx="599.7" cy="480.287" r="4.98849" stroke-width="0.5" stroke="black" fill="cyan"/>
   </g>
   <g id="cell172">
  <circle cx="550.426" cy="502.61" r="8.14147" stroke-width="0.5" stroke="black" fill="magenta"/>
  <circle cx="550.426" cy="502.61" r="4.9311" stroke-width="0.5" stroke="black" fill="magenta"/>
   </g>
   <g id="cell173">
  <circle cx="530.596" cy="520.874" r="8.24536" stroke-width="0.5" stroke="black" fill="cyan"/>
  <circle cx="530.596" cy="520.874" r="4.97865" stroke-width="0.5" stroke="black" fill="cyan"/>
   </g>
   <g id="cell174">
  <circle cx="499.029" cy="438.471" r="8.24791" stroke-width="0.5" stroke="black" fill="cyan"/>
  <circle cx="499.029" cy="438.471" r="4.97947" stroke-width="0.5" stroke="black" fill="cyan"/>
   </g>
   <g id="cell175">
  <circle cx="524.422" cy="607.193" r="7.56908" stroke-width="0.5" stroke="black" fill="green"/>
  <circle cx="524.422" cy="607.193" r="4.62698" stroke-width="0.5" stroke="black" fill="green"/>
   </g>
   <g id="cell176">
  <circle cx="557.088" cy="425.139" r="8.21209" stroke-width="0.5" stroke="black" fill="green"/>
  <circle cx="557.088" cy="425.139" r="4.96505" stroke-width="0.5" stroke="black" fill="green"/>
   </g>
   <g id="cell177">
  <circle cx="369.225" cy="563.858" r="8.08412" stroke-width="0.5" stroke="black" fill="cyan"/>
  <circle cx="369.225" cy="563.858" r="4.90206" stroke-width="0.5" stroke="black" fill="cyan"/>
   </g>
   <g id="cell178">
  <circle cx="562.309" cy="508.007" r="6.72835" stroke-width="0.5" stroke="black" fill="magenta"/>
  <circle cx="562.309" cy="508.007" r="4.10199" stroke-width="0.5" stroke="black" fill="magenta"/>
   </g>
   <g id="cell179">
  <circle cx="516.154" cy="517.021" r="8.21757" stroke-width="0.5" stroke="black" fill="cyan"/>
  <circle cx="516.154" cy="517.021" r="4.96426" stroke-width="0.5" stroke="black" fill="cyan"/>
   </g>
   <g id="cell180">
  <circle cx="619.668" cy="503.229" r="8.20689" stroke-width="0.5" stroke="black" fill="green"/>
  <circle cx="619.668" cy="503.229" r="4.95867" stroke-width="0.5" stroke="black" fill="green"/>
   </g>
   <g id="cell181">
  <circle cx="563.199" cy="528.724" r="5.74785" stroke-width="0.5" stroke="black" fill="cyan"/>
  <circle cx="563.199" cy="528.724" r="3.67196" stroke-width="0.5" stroke="black" fill="black"/>
   </g>
   <g id="cell182">
  <circle cx="533.913" cy="382.25" r="8.17199" stroke-width="0.5" stroke="black" fill="green"/>
  <circle cx="533.913" cy="382.25" r="4.945" stroke-width="0.5" stroke="black" fill="green"/>
   </g>
   <g id="cell183">
  <circle cx="575.506" cy="511.519" r="8.1947" stroke-width="0.5" stroke="black" fill="magenta"/>
  <circle cx="575.506" cy="511.519" r="4.95246" stroke-width="0.5" stroke="black" fill="magenta"/>
   </g>
   <g id="cell184">
  <circle cx="432.608" cy="429.936" r="7.83192" stroke-width="0.5" stroke="black" fill="magenta"/>
  <circle cx="432.608" cy="429.936" r="4.76915" stroke-width="0.5" stroke="black" fill="magenta"/>
   </g>
   <g id="cell187">
  <circle cx="499.261" cy="497.088" r="8.15346" stroke-width="0.5" stroke="black" fill="cyan"/>
  <circle cx="499.261" cy="497.088" r="4.93121" stroke-width="0.5" stroke="black" fill="cyan"/>
   </g>
   <g id="cell188">
  <circle cx="533.896" cy="618.313" r="8.01646" stroke-width="0.5" stroke="black" fill="green"/>
  <circle cx="533.896" cy="618.313" r="4.86666" stroke-width="0.5" stroke="black" fill="green"/>
   </g>
   <g id="cell189">
  <circle cx="535.684" cy="476.053" r="8.09114" stroke-width="0.5" stroke="black" fill="cyan"/>
  <circle cx="535.684" cy="476.053" r="4.89923" stroke-width="0.5" stroke="black" fill="cyan"/>
   </g>
   <g id="cell190">
  <circle cx="546.75" cy="527.617" r="7.93653" stroke-width="0.5" stroke="black" fill="cyan"/>
  <circle cx="546.75" cy="527.617" r="4.82901" stroke-width="0.5" stroke="black" fill="cyan"/>
   </g>
   <g id="cell191">
  <circle cx="503.32" cy="477.158" r="8.07526" stroke-width="0.5" stroke="black" fill="magenta"/>
  <circle cx="503.32" cy="477.158" r="4.89186" stroke-width="0.5" stroke="black" fill="magenta"/>
   </g>
   <g id="cell192">
  <circle cx="474.293" cy="432.829" r="7.98718" stroke-width="0.5" stroke="black" fill="magenta"/>
  <circle cx="474.293" cy="432.829" r="4.84222" stroke-width="0.5" stroke="black" fill="magenta"/>
   </g>
   <g id="cell193">
  <circle cx="438.952" cy="417.333" r="7.83192" stroke-width="0.5" stroke="black" fill="magenta"/>
  <circle cx="438.952" cy="417.333" r="4.76915" stroke-width="0.5" stroke="black" fill="magenta"/>
   </g>
   <g id="cell194">
  <circle cx="601.59" cy="513.657" r="7.90576" stroke-width="0.5" stroke="black" fill="magenta"/>
  <circle cx="601.59" cy="513.657" r="4.80313" stroke-width="0.5" stroke="black" fill="magenta"/>
   </g>
   <g id="cell195">
  <circle cx="543.841" cy="393.5" r="7.78879" stroke-width="0.5" stroke="black" fill="green"/>
  <circle cx="543.841" cy="393.5" r="4.74604" stroke-width="0.5" stroke="black" fill="green"/>
   </g>
   <g id="cell196">
  <circle cx="459.864" cy="435.271" r="7.90838" stroke-width="0.5" stroke="black" fill="cyan"/>
  <circle cx="459.864" cy="435.271" r="4.79787" stroke-width="0.5" stroke="black" fill="cyan"/>
   </g>
   <g id="cell197">
  <circle cx="549.01" cy="617.421" r="7.89237" stroke-width="0.5" stroke="black" fill="green"/>
  <circle cx="549.01" cy="617.421" r="4.78918" stroke-width="0.5" stroke="black" fill="green"/>
   </g>
   <g id="cell198">
  <circle cx="425.161" cy="418.214" r="7.67617" stroke-width="0.5" stroke="black" fill="magenta"/>
  <circle cx="425.161" cy="418.214" r="4.68147" stroke-width="0.5" stroke="black" fill="magenta"/>
   </g>
   <g id="cell199">
  <circle cx="534.443" cy="597.19" r="7.56908" stroke-width="0.5" stroke="black" fill="green"/>
  <circle cx="534.443" cy="597.19" r="4.62698" stroke-width="0.5" stroke="black" fill="green"/>
   </g>
   <g id="cell200">
  <circle cx="446.504" cy="429.41" r="7.70422" stroke-width="0.5" stroke="black" fill="magenta"/>
  <circle cx="446.504" cy="429.41" r="4.68435" stroke-width="0.5" stroke="black" fill="magenta"/>
   </g>
   <g id="cell202">
  <circle cx="402.988" cy="607.215" r="7.59183" stroke-width="0.5" stroke="black" fill="cyan"/>
  <circle cx="402.988" cy="607.215" r="4.61399" stroke-width="0.5" stroke="black" fill="cyan"/>
   </g>
   <g id="cell203">
  <circle cx="359.653" cy="537.609" r="7.46203" stroke-width="0.5" stroke="black" fill="cyan"/>
  <circle cx="359.653" cy="537.609" r="4.55209" stroke-width="0.5" stroke="black" fill="cyan"/>
   </g>
   <g id="cell204">
  <circle cx="572.264" cy="488.667" r="7.47078" stroke-width="0.5" stroke="black" fill="magenta"/>
  <circle cx="572.264" cy="488.667" r="4.55643" stroke-width="0.5" stroke="black" fill="magenta"/>
   </g>
   <g id="cell205">
  <circle cx="427.41" cy="477.242" r="7.38764" stroke-width="0.5" stroke="black" fill="green"/>
  <circle cx="427.41" cy="477.242" r="4.49021" stroke-width="0.5" stroke="black" fill="green"/>
   </g>
   <g id="cell206">
  <circle cx="465.579" cy="624.122" r="7.21189" stroke-width="0.5" stroke="black" fill="magenta"/>
  <circle cx="465.579" cy="624.122" r="4.37993" stroke-width="0.5" stroke="black" fill="magenta"/>
   </g>
   <g id="cell207">
  <circle cx="622.697" cy="469.989" r="7.17832" stroke-width="0.5" stroke="black" fill="green"/>
  <circle cx="622.697" cy="469.989" r="4.35934" stroke-width="0.5" stroke="black" fill="green"/>
   </g>
   <g id="cell208">
  <circle cx="588.104" cy="554.758" r="6.95062" stroke-width="0.5" stroke="black" fill="cyan"/>
  <circle cx="588.104" cy="554.758" r="4.24224" stroke-width="0.5" stroke="black" fill="cyan"/>
   </g>
   <g id="cell209">
  <circle cx="441.553" cy="351.569" r="7.0184" stroke-width="0.5" stroke="black" fill="green"/>
  <circle cx="441.553" cy="351.569" r="4.25517" stroke-width="0.5" stroke="black" fill="green"/>
   </g>
   <g id="cell210">
  <circle cx="655.221" cy="538.756" r="7.0225" stroke-width="0.5" stroke="black" fill="green"/>
  <circle cx="655.221" cy="538.756" r="4.25642" stroke-width="0.5" stroke="black" fill="green"/>
   </g>
   <g id="cell213">
  <circle cx="553.475" cy="385.632" r="6.66467" stroke-width="0.5" stroke="black" fill="green"/>
  <circle cx="553.475" cy="385.632" r="4.00542" stroke-width="0.5" stroke="black" fill="green"/>
   </g>
  </g>
 </g>
  <rect x="775" y="1035" width="200" height="10" stroke-width="2" stroke="rgb(255,255,255)" fill="rgb(0,0,0)"/>
  <text x="781.25" y="1028.75"
   font-family="Arial" font-size="25" fill="black" >
   200 &#956;m
  </text>
  <text x="25" y="1045"
   font-family="Arial" font-size="18.75" fill="black" >
   0 days, 0 hours, 0 minutes, and 47.8211 seconds
  </text>
  <rect x="0" y="70" width="1000" height="1000" stroke-width="2" stroke="rgb(0,0,0)" fill="none"/>
</svg>
