<?xml version="1.0" encoding="UTF-8" standalone="no"?>
<!-- Created with PhysiCell (http://PhysiCell.MathCancer.org/) -->
<svg 
 xmlns:dc="http://purl.org/dc/elements/1.1/" 
 xmlns:cc="http://creativecommons.org/ns#" 
 xmlns:rdf="http://www.w3.org/1999/02/22-rdf-syntax-ns#" 
 xmlns:svg="http://www.w3.org/2000/svg" 
 xmlns="http://www.w3.org/2000/svg" 
 version="1.1" 
 width="1000" 
 height="1070" 
 id="svg2">
  <rect x="0" y="0" width="1000" height="1070" stroke-width="2" stroke="white" fill="white"/>
  <text x="12.5" y="30"
   font-family="Arial" font-size="25" fill="black" >
   Current time: 0 days, 14 hours, and 0.00 minutes, z = 0.00 &#956;m
  </text>
  <text x="12.5" y="57.5"
   font-family="Arial" font-size="23.75" fill="black" >
   117 agents
  </text>
 <g id="tissue" 
    transform="translate(0,1070) scale(1,-1)">
  <g id="ECM">
  </g>
  <g id="cells">
   <g id="cell0">
  <circle cx="516.01" cy="534.197" r="8.26685" stroke-width="0.5" stroke="black" fill="magenta"/>
  <circle cx="516.01" cy="534.197" r="4.98849" stroke-width="0.5" stroke="black" fill="magenta"/>
   </g>
   <g id="cell1">
  <circle cx="602.492" cy="526.171" r="8.41271" stroke-width="0.5" stroke="black" fill="magenta"/>
  <circle cx="602.492" cy="526.171" r="5.05167" stroke-width="0.5" stroke="black" fill="magenta"/>
   </g>
   <g id="cell2">
  <circle cx="514.695" cy="599.17" r="8.41271" stroke-width="0.5" stroke="black" fill="magenta"/>
  <circle cx="514.695" cy="599.17" r="5.05167" stroke-width="0.5" stroke="black" fill="magenta"/>
   </g>
   <g id="cell3">
  <circle cx="524" cy="546.845" r="8.17158" stroke-width="0.5" stroke="black" fill="magenta"/>
  <circle cx="524" cy="546.845" r="4.9453" stroke-width="0.5" stroke="black" fill="magenta"/>
   </g>
   <g id="cell4">
  <circle cx="490.595" cy="437.417" r="8.35404" stroke-width="0.5" stroke="black" fill="magenta"/>
  <circle cx="490.595" cy="437.417" r="5.02894" stroke-width="0.5" stroke="black" fill="magenta"/>
   </g>
   <g id="cell5">
  <circle cx="465.032" cy="493.3" r="8.41271" stroke-width="0.5" stroke="black" fill="magenta"/>
  <circle cx="465.032" cy="493.3" r="5.05167" stroke-width="0.5" stroke="black" fill="magenta"/>
   </g>
   <g id="cell6">
  <circle cx="595.637" cy="512.669" r="8.41271" stroke-width="0.5" stroke="black" fill="magenta"/>
  <circle cx="595.637" cy="512.669" r="5.05167" stroke-width="0.5" stroke="black" fill="magenta"/>
   </g>
   <g id="cell7">
  <circle cx="504.092" cy="456.073" r="7.24243" stroke-width="0.5" stroke="black" fill="magenta"/>
  <circle cx="504.092" cy="456.073" r="4.39934" stroke-width="0.5" stroke="black" fill="magenta"/>
   </g>
   <g id="cell8">
  <circle cx="376.348" cy="542.213" r="8.41271" stroke-width="0.5" stroke="black" fill="magenta"/>
  <circle cx="376.348" cy="542.213" r="5.05167" stroke-width="0.5" stroke="black" fill="magenta"/>
   </g>
   <g id="cell9">
  <circle cx="460.472" cy="599.786" r="8.41271" stroke-width="0.5" stroke="black" fill="magenta"/>
  <circle cx="460.472" cy="599.786" r="5.05167" stroke-width="0.5" stroke="black" fill="magenta"/>
   </g>
   <g id="cell10">
  <circle cx="583.447" cy="392.105" r="8.41271" stroke-width="0.5" stroke="black" fill="magenta"/>
  <circle cx="583.447" cy="392.105" r="5.05167" stroke-width="0.5" stroke="black" fill="magenta"/>
   </g>
   <g id="cell11">
  <circle cx="590.952" cy="590.109" r="8.41271" stroke-width="0.5" stroke="black" fill="magenta"/>
  <circle cx="590.952" cy="590.109" r="5.05167" stroke-width="0.5" stroke="black" fill="magenta"/>
   </g>
   <g id="cell12">
  <circle cx="506.936" cy="586.343" r="8.41271" stroke-width="0.5" stroke="black" fill="magenta"/>
  <circle cx="506.936" cy="586.343" r="5.05167" stroke-width="0.5" stroke="black" fill="magenta"/>
   </g>
   <g id="cell13">
  <circle cx="386.194" cy="568.228" r="8.41271" stroke-width="0.5" stroke="black" fill="magenta"/>
  <circle cx="386.194" cy="568.228" r="5.05167" stroke-width="0.5" stroke="black" fill="magenta"/>
   </g>
   <g id="cell14">
  <circle cx="529.676" cy="399.254" r="8.41271" stroke-width="0.5" stroke="black" fill="magenta"/>
  <circle cx="529.676" cy="399.254" r="5.05167" stroke-width="0.5" stroke="black" fill="magenta"/>
   </g>
   <g id="cell15">
  <circle cx="379.65" cy="475.1" r="8.41271" stroke-width="0.5" stroke="black" fill="magenta"/>
  <circle cx="379.65" cy="475.1" r="5.05167" stroke-width="0.5" stroke="black" fill="magenta"/>
   </g>
   <g id="cell16">
  <circle cx="428.962" cy="413.186" r="8.41271" stroke-width="0.5" stroke="black" fill="magenta"/>
  <circle cx="428.962" cy="413.186" r="5.05167" stroke-width="0.5" stroke="black" fill="magenta"/>
   </g>
   <g id="cell17">
  <circle cx="570.189" cy="490.99" r="8.41271" stroke-width="0.5" stroke="black" fill="magenta"/>
  <circle cx="570.189" cy="490.99" r="5.05167" stroke-width="0.5" stroke="black" fill="magenta"/>
   </g>
   <g id="cell18">
  <circle cx="518.09" cy="389.514" r="8.41271" stroke-width="0.5" stroke="black" fill="magenta"/>
  <circle cx="518.09" cy="389.514" r="5.05167" stroke-width="0.5" stroke="black" fill="magenta"/>
   </g>
   <g id="cell19">
  <circle cx="459.071" cy="540.282" r="7.18777" stroke-width="0.5" stroke="black" fill="magenta"/>
  <circle cx="459.071" cy="540.282" r="4.38526" stroke-width="0.5" stroke="black" fill="magenta"/>
   </g>
   <g id="cell20">
  <circle cx="531.413" cy="414.314" r="8.41271" stroke-width="0.5" stroke="black" fill="magenta"/>
  <circle cx="531.413" cy="414.314" r="5.05167" stroke-width="0.5" stroke="black" fill="magenta"/>
   </g>
   <g id="cell21">
  <circle cx="464.368" cy="634.574" r="8.41271" stroke-width="0.5" stroke="black" fill="magenta"/>
  <circle cx="464.368" cy="634.574" r="5.05167" stroke-width="0.5" stroke="black" fill="magenta"/>
   </g>
   <g id="cell22">
  <circle cx="555.69" cy="495.556" r="8.41271" stroke-width="0.5" stroke="black" fill="magenta"/>
  <circle cx="555.69" cy="495.556" r="5.05167" stroke-width="0.5" stroke="black" fill="magenta"/>
   </g>
   <g id="cell23">
  <circle cx="544.293" cy="485.544" r="8.41271" stroke-width="0.5" stroke="black" fill="magenta"/>
  <circle cx="544.293" cy="485.544" r="5.05167" stroke-width="0.5" stroke="black" fill="magenta"/>
   </g>
   <g id="cell24">
  <circle cx="559.132" cy="380.355" r="8.41271" stroke-width="0.5" stroke="black" fill="magenta"/>
  <circle cx="559.132" cy="380.355" r="5.05167" stroke-width="0.5" stroke="black" fill="magenta"/>
   </g>
   <g id="cell25">
  <circle cx="645.68" cy="545.244" r="8.32291" stroke-width="0.5" stroke="black" fill="green"/>
  <circle cx="645.68" cy="545.244" r="5.01502" stroke-width="0.5" stroke="black" fill="green"/>
   </g>
   <g id="cell26">
  <circle cx="554.349" cy="398.2" r="7.21189" stroke-width="0.5" stroke="black" fill="green"/>
  <circle cx="554.349" cy="398.2" r="4.37993" stroke-width="0.5" stroke="black" fill="green"/>
   </g>
   <g id="cell27">
  <circle cx="463.633" cy="389.701" r="8.35727" stroke-width="0.5" stroke="black" fill="green"/>
  <circle cx="463.633" cy="389.701" r="5.03034" stroke-width="0.5" stroke="black" fill="green"/>
   </g>
   <g id="cell28">
  <circle cx="433.163" cy="530.706" r="8.41271" stroke-width="0.5" stroke="black" fill="green"/>
  <circle cx="433.163" cy="530.706" r="5.05167" stroke-width="0.5" stroke="black" fill="green"/>
   </g>
   <g id="cell29">
  <circle cx="450.463" cy="515.959" r="8.41271" stroke-width="0.5" stroke="black" fill="green"/>
  <circle cx="450.463" cy="515.959" r="5.05167" stroke-width="0.5" stroke="black" fill="green"/>
   </g>
   <g id="cell30">
  <circle cx="481.028" cy="534.531" r="8.18833" stroke-width="0.5" stroke="black" fill="green"/>
  <circle cx="481.028" cy="534.531" r="4.94921" stroke-width="0.5" stroke="black" fill="green"/>
   </g>
   <g id="cell31">
  <circle cx="412.806" cy="541.552" r="8.41271" stroke-width="0.5" stroke="black" fill="green"/>
  <circle cx="412.806" cy="541.552" r="5.05167" stroke-width="0.5" stroke="black" fill="green"/>
   </g>
   <g id="cell32">
  <circle cx="421.381" cy="481.607" r="8.10448" stroke-width="0.5" stroke="black" fill="green"/>
  <circle cx="421.381" cy="481.607" r="4.90539" stroke-width="0.5" stroke="black" fill="green"/>
   </g>
   <g id="cell33">
  <circle cx="498.307" cy="423.951" r="8.41271" stroke-width="0.5" stroke="black" fill="green"/>
  <circle cx="498.307" cy="423.951" r="5.05167" stroke-width="0.5" stroke="black" fill="green"/>
   </g>
   <g id="cell34">
  <circle cx="397.088" cy="450.831" r="8.41271" stroke-width="0.5" stroke="black" fill="green"/>
  <circle cx="397.088" cy="450.831" r="5.05167" stroke-width="0.5" stroke="black" fill="green"/>
   </g>
   <g id="cell35">
  <circle cx="552.738" cy="541.181" r="8.41271" stroke-width="0.5" stroke="black" fill="green"/>
  <circle cx="552.738" cy="541.181" r="5.05167" stroke-width="0.5" stroke="black" fill="green"/>
   </g>
   <g id="cell36">
  <circle cx="391.486" cy="582.903" r="8.41271" stroke-width="0.5" stroke="black" fill="green"/>
  <circle cx="391.486" cy="582.903" r="5.05167" stroke-width="0.5" stroke="black" fill="green"/>
   </g>
   <g id="cell37">
  <circle cx="639.814" cy="457.325" r="8.34884" stroke-width="0.5" stroke="black" fill="green"/>
  <circle cx="639.814" cy="457.325" r="5.02667" stroke-width="0.5" stroke="black" fill="green"/>
   </g>
   <g id="cell38">
  <circle cx="529.759" cy="597.374" r="8.33699" stroke-width="0.5" stroke="black" fill="green"/>
  <circle cx="529.759" cy="597.374" r="5.02141" stroke-width="0.5" stroke="black" fill="green"/>
   </g>
   <g id="cell39">
  <circle cx="613.458" cy="490.595" r="8.41271" stroke-width="0.5" stroke="black" fill="green"/>
  <circle cx="613.458" cy="490.595" r="5.05167" stroke-width="0.5" stroke="black" fill="green"/>
   </g>
   <g id="cell40">
  <circle cx="485.348" cy="571.779" r="8.41271" stroke-width="0.5" stroke="black" fill="green"/>
  <circle cx="485.348" cy="571.779" r="5.05167" stroke-width="0.5" stroke="black" fill="green"/>
   </g>
   <g id="cell41">
  <circle cx="364.925" cy="480.252" r="8.41271" stroke-width="0.5" stroke="black" fill="green"/>
  <circle cx="364.925" cy="480.252" r="5.05167" stroke-width="0.5" stroke="black" fill="green"/>
   </g>
   <g id="cell42">
  <circle cx="438.842" cy="494.268" r="8.41271" stroke-width="0.5" stroke="black" fill="green"/>
  <circle cx="438.842" cy="494.268" r="5.05167" stroke-width="0.5" stroke="black" fill="green"/>
   </g>
   <g id="cell43">
  <circle cx="563.271" cy="441.438" r="8.41271" stroke-width="0.5" stroke="black" fill="green"/>
  <circle cx="563.271" cy="441.438" r="5.05167" stroke-width="0.5" stroke="black" fill="green"/>
   </g>
   <g id="cell44">
  <circle cx="475.857" cy="624.021" r="8.41271" stroke-width="0.5" stroke="black" fill="green"/>
  <circle cx="475.857" cy="624.021" r="5.05167" stroke-width="0.5" stroke="black" fill="green"/>
   </g>
   <g id="cell45">
  <circle cx="414.903" cy="556.707" r="4.64437" stroke-width="0.5" stroke="black" fill="green"/>
  <circle cx="414.903" cy="556.707" r="3.17578" stroke-width="0.5" stroke="black" fill="black"/>
   </g>
   <g id="cell46">
  <circle cx="523.713" cy="611.477" r="7.87851" stroke-width="0.5" stroke="black" fill="green"/>
  <circle cx="523.713" cy="611.477" r="4.78096" stroke-width="0.5" stroke="black" fill="green"/>
   </g>
   <g id="cell47">
  <circle cx="503.962" cy="502.813" r="8.08613" stroke-width="0.5" stroke="black" fill="green"/>
  <circle cx="503.962" cy="502.813" r="4.8956" stroke-width="0.5" stroke="black" fill="green"/>
   </g>
   <g id="cell48">
  <circle cx="569.985" cy="603.224" r="7.10409" stroke-width="0.5" stroke="black" fill="green"/>
  <circle cx="569.985" cy="603.224" r="4.35442" stroke-width="0.5" stroke="black" fill="green"/>
   </g>
   <g id="cell49">
  <circle cx="429.98" cy="397.609" r="8.41271" stroke-width="0.5" stroke="black" fill="green"/>
  <circle cx="429.98" cy="397.609" r="5.05167" stroke-width="0.5" stroke="black" fill="green"/>
   </g>
   <g id="cell50">
  <circle cx="512.994" cy="515.229" r="6.76618" stroke-width="0.5" stroke="black" fill="cyan"/>
  <circle cx="512.994" cy="515.229" r="4.10531" stroke-width="0.5" stroke="black" fill="cyan"/>
   </g>
   <g id="cell51">
  <circle cx="398.721" cy="597.201" r="8.41271" stroke-width="0.5" stroke="black" fill="cyan"/>
  <circle cx="398.721" cy="597.201" r="5.05167" stroke-width="0.5" stroke="black" fill="cyan"/>
   </g>
   <g id="cell52">
  <circle cx="518.587" cy="423.131" r="8.41271" stroke-width="0.5" stroke="black" fill="cyan"/>
  <circle cx="518.587" cy="423.131" r="5.05167" stroke-width="0.5" stroke="black" fill="cyan"/>
   </g>
   <g id="cell53">
  <circle cx="573.592" cy="430.064" r="7.96365" stroke-width="0.5" stroke="black" fill="cyan"/>
  <circle cx="573.592" cy="430.064" r="4.82873" stroke-width="0.5" stroke="black" fill="cyan"/>
   </g>
   <g id="cell54">
  <circle cx="482.555" cy="424.354" r="8.14594" stroke-width="0.5" stroke="black" fill="cyan"/>
  <circle cx="482.555" cy="424.354" r="4.92726" stroke-width="0.5" stroke="black" fill="cyan"/>
   </g>
   <g id="cell55">
  <circle cx="524.363" cy="463.42" r="7.98501" stroke-width="0.5" stroke="black" fill="cyan"/>
  <circle cx="524.363" cy="463.42" r="4.84633" stroke-width="0.5" stroke="black" fill="cyan"/>
   </g>
   <g id="cell56">
  <circle cx="617.613" cy="522.333" r="8.41271" stroke-width="0.5" stroke="black" fill="cyan"/>
  <circle cx="617.613" cy="522.333" r="5.05167" stroke-width="0.5" stroke="black" fill="cyan"/>
   </g>
   <g id="cell105">
  <circle cx="507.642" cy="610.274" r="6.27108" stroke-width="0.5" stroke="black" fill="green"/>
  <circle cx="507.642" cy="610.274" r="3.80692" stroke-width="0.5" stroke="black" fill="green"/>
   </g>
   <g id="cell58">
  <circle cx="558.967" cy="480.319" r="8.41271" stroke-width="0.5" stroke="black" fill="cyan"/>
  <circle cx="558.967" cy="480.319" r="5.05167" stroke-width="0.5" stroke="black" fill="cyan"/>
   </g>
   <g id="cell59">
  <circle cx="385.463" cy="439.803" r="8.41271" stroke-width="0.5" stroke="black" fill="cyan"/>
  <circle cx="385.463" cy="439.803" r="5.05167" stroke-width="0.5" stroke="black" fill="cyan"/>
   </g>
   <g id="cell60">
  <circle cx="592.473" cy="473.742" r="8.41271" stroke-width="0.5" stroke="black" fill="cyan"/>
  <circle cx="592.473" cy="473.742" r="5.05167" stroke-width="0.5" stroke="black" fill="cyan"/>
   </g>
   <g id="cell61">
  <circle cx="552.118" cy="620.279" r="8.41271" stroke-width="0.5" stroke="black" fill="cyan"/>
  <circle cx="552.118" cy="620.279" r="5.05167" stroke-width="0.5" stroke="black" fill="cyan"/>
   </g>
   <g id="cell62">
  <circle cx="514.954" cy="446.731" r="8.35882" stroke-width="0.5" stroke="black" fill="cyan"/>
  <circle cx="514.954" cy="446.731" r="5.031" stroke-width="0.5" stroke="black" fill="cyan"/>
   </g>
   <g id="cell63">
  <circle cx="573.253" cy="541.586" r="8.25377" stroke-width="0.5" stroke="black" fill="cyan"/>
  <circle cx="573.253" cy="541.586" r="4.98209" stroke-width="0.5" stroke="black" fill="cyan"/>
   </g>
   <g id="cell64">
  <circle cx="509.967" cy="636.745" r="8.41271" stroke-width="0.5" stroke="black" fill="cyan"/>
  <circle cx="509.967" cy="636.745" r="5.05167" stroke-width="0.5" stroke="black" fill="cyan"/>
   </g>
   <g id="cell65">
  <circle cx="546.893" cy="470.256" r="8.23444" stroke-width="0.5" stroke="black" fill="cyan"/>
  <circle cx="546.893" cy="470.256" r="4.97252" stroke-width="0.5" stroke="black" fill="cyan"/>
   </g>
   <g id="cell66">
  <circle cx="531.088" cy="533.396" r="8.13008" stroke-width="0.5" stroke="black" fill="cyan"/>
  <circle cx="531.088" cy="533.396" r="4.91894" stroke-width="0.5" stroke="black" fill="cyan"/>
   </g>
   <g id="cell67">
  <circle cx="354.711" cy="492.599" r="8.41271" stroke-width="0.5" stroke="black" fill="cyan"/>
  <circle cx="354.711" cy="492.599" r="5.05167" stroke-width="0.5" stroke="black" fill="cyan"/>
   </g>
   <g id="cell68">
  <circle cx="562.604" cy="553.39" r="8.41271" stroke-width="0.5" stroke="black" fill="cyan"/>
  <circle cx="562.604" cy="553.39" r="5.05167" stroke-width="0.5" stroke="black" fill="cyan"/>
   </g>
   <g id="cell69">
  <circle cx="442.055" cy="460.649" r="8.41271" stroke-width="0.5" stroke="black" fill="cyan"/>
  <circle cx="442.055" cy="460.649" r="5.05167" stroke-width="0.5" stroke="black" fill="cyan"/>
   </g>
   <g id="cell70">
  <circle cx="576.608" cy="476.719" r="8.41271" stroke-width="0.5" stroke="black" fill="cyan"/>
  <circle cx="576.608" cy="476.719" r="5.05167" stroke-width="0.5" stroke="black" fill="cyan"/>
   </g>
   <g id="cell71">
  <circle cx="379.581" cy="527.544" r="7.3599" stroke-width="0.5" stroke="black" fill="cyan"/>
  <circle cx="379.581" cy="527.544" r="4.47294" stroke-width="0.5" stroke="black" fill="cyan"/>
   </g>
   <g id="cell72">
  <circle cx="532.481" cy="511.654" r="8.15353" stroke-width="0.5" stroke="black" fill="cyan"/>
  <circle cx="532.481" cy="511.654" r="4.93122" stroke-width="0.5" stroke="black" fill="cyan"/>
   </g>
   <g id="cell73">
  <circle cx="364.555" cy="552.515" r="8.27097" stroke-width="0.5" stroke="black" fill="cyan"/>
  <circle cx="364.555" cy="552.515" r="4.99048" stroke-width="0.5" stroke="black" fill="cyan"/>
   </g>
   <g id="cell74">
  <circle cx="549.132" cy="441.987" r="7.21189" stroke-width="0.5" stroke="black" fill="cyan"/>
  <circle cx="549.132" cy="441.987" r="4.37993" stroke-width="0.5" stroke="black" fill="cyan"/>
   </g>
   <g id="cell75">
  <circle cx="527.393" cy="436.718" r="8.35882" stroke-width="0.5" stroke="black" fill="cyan"/>
  <circle cx="527.393" cy="436.718" r="5.031" stroke-width="0.5" stroke="black" fill="cyan"/>
   </g>
   <g id="cell76">
  <circle cx="441.23" cy="382.688" r="7.51751" stroke-width="0.5" stroke="black" fill="green"/>
  <circle cx="441.23" cy="382.688" r="4.5956" stroke-width="0.5" stroke="black" fill="green"/>
   </g>
   <g id="cell77">
  <circle cx="476.158" cy="437.593" r="7.7434" stroke-width="0.5" stroke="black" fill="magenta"/>
  <circle cx="476.158" cy="437.593" r="4.70959" stroke-width="0.5" stroke="black" fill="magenta"/>
   </g>
   <g id="cell78">
  <circle cx="624.496" cy="460.992" r="8.20122" stroke-width="0.5" stroke="black" fill="green"/>
  <circle cx="624.496" cy="460.992" r="4.95945" stroke-width="0.5" stroke="black" fill="green"/>
   </g>
   <g id="cell79">
  <circle cx="517.756" cy="479.702" r="8.34117" stroke-width="0.5" stroke="black" fill="cyan"/>
  <circle cx="517.756" cy="479.702" r="5.02327" stroke-width="0.5" stroke="black" fill="cyan"/>
   </g>
   <g id="cell80">
  <circle cx="539.19" cy="610.681" r="8.29641" stroke-width="0.5" stroke="black" fill="green"/>
  <circle cx="539.19" cy="610.681" r="5.00506" stroke-width="0.5" stroke="black" fill="green"/>
   </g>
   <g id="cell81">
  <circle cx="545.159" cy="596.011" r="8.29641" stroke-width="0.5" stroke="black" fill="green"/>
  <circle cx="545.159" cy="596.011" r="5.00506" stroke-width="0.5" stroke="black" fill="green"/>
   </g>
   <g id="cell82">
  <circle cx="532.941" cy="559.042" r="8.32291" stroke-width="0.5" stroke="black" fill="magenta"/>
  <circle cx="532.941" cy="559.042" r="5.01502" stroke-width="0.5" stroke="black" fill="magenta"/>
   </g>
   <g id="cell83">
  <circle cx="634.532" cy="556.506" r="8.32291" stroke-width="0.5" stroke="black" fill="green"/>
  <circle cx="634.532" cy="556.506" r="5.01502" stroke-width="0.5" stroke="black" fill="green"/>
   </g>
   <g id="cell84">
  <circle cx="519.463" cy="502.762" r="8.27885" stroke-width="0.5" stroke="black" fill="cyan"/>
  <circle cx="519.463" cy="502.762" r="4.99429" stroke-width="0.5" stroke="black" fill="cyan"/>
   </g>
   <g id="cell85">
  <circle cx="352.892" cy="542.328" r="8.00022" stroke-width="0.5" stroke="black" fill="cyan"/>
  <circle cx="352.892" cy="542.328" r="4.85731" stroke-width="0.5" stroke="black" fill="cyan"/>
   </g>
   <g id="cell86">
  <circle cx="503.868" cy="525.513" r="8.26685" stroke-width="0.5" stroke="black" fill="magenta"/>
  <circle cx="503.868" cy="525.513" r="4.98849" stroke-width="0.5" stroke="black" fill="magenta"/>
   </g>
   <g id="cell87">
  <circle cx="577.452" cy="556.357" r="7.81928" stroke-width="0.5" stroke="black" fill="cyan"/>
  <circle cx="577.452" cy="556.357" r="4.75845" stroke-width="0.5" stroke="black" fill="cyan"/>
   </g>
   <g id="cell88">
  <circle cx="448.563" cy="531.275" r="8.23948" stroke-width="0.5" stroke="black" fill="magenta"/>
  <circle cx="448.563" cy="531.275" r="4.97503" stroke-width="0.5" stroke="black" fill="magenta"/>
   </g>
   <g id="cell89">
  <circle cx="553.717" cy="456.057" r="8.23444" stroke-width="0.5" stroke="black" fill="cyan"/>
  <circle cx="553.717" cy="456.057" r="4.97252" stroke-width="0.5" stroke="black" fill="cyan"/>
   </g>
   <g id="cell90">
  <circle cx="630.99" cy="475.18" r="8.20122" stroke-width="0.5" stroke="black" fill="green"/>
  <circle cx="630.99" cy="475.18" r="4.95945" stroke-width="0.5" stroke="black" fill="green"/>
   </g>
   <g id="cell91">
  <circle cx="547.754" cy="556.363" r="8.056" stroke-width="0.5" stroke="black" fill="magenta"/>
  <circle cx="547.754" cy="556.363" r="4.89023" stroke-width="0.5" stroke="black" fill="magenta"/>
   </g>
   <g id="cell92">
  <circle cx="482.518" cy="550.041" r="8.18833" stroke-width="0.5" stroke="black" fill="green"/>
  <circle cx="482.518" cy="550.041" r="4.94921" stroke-width="0.5" stroke="black" fill="green"/>
   </g>
   <g id="cell93">
  <circle cx="538.481" cy="545.694" r="8.056" stroke-width="0.5" stroke="black" fill="magenta"/>
  <circle cx="538.481" cy="545.694" r="4.89023" stroke-width="0.5" stroke="black" fill="magenta"/>
   </g>
   <g id="cell94">
  <circle cx="533.446" cy="496.278" r="8.15353" stroke-width="0.5" stroke="black" fill="cyan"/>
  <circle cx="533.446" cy="496.278" r="4.93122" stroke-width="0.5" stroke="black" fill="cyan"/>
   </g>
   <g id="cell95">
  <circle cx="467.102" cy="425.987" r="8.14594" stroke-width="0.5" stroke="black" fill="cyan"/>
  <circle cx="467.102" cy="425.987" r="4.92726" stroke-width="0.5" stroke="black" fill="cyan"/>
   </g>
   <g id="cell96">
  <circle cx="542.724" cy="523.305" r="8.13008" stroke-width="0.5" stroke="black" fill="cyan"/>
  <circle cx="542.724" cy="523.305" r="4.91894" stroke-width="0.5" stroke="black" fill="cyan"/>
   </g>
   <g id="cell97">
  <circle cx="421.846" cy="466.421" r="7.85747" stroke-width="0.5" stroke="black" fill="green"/>
  <circle cx="421.846" cy="466.421" r="4.78282" stroke-width="0.5" stroke="black" fill="green"/>
   </g>
   <g id="cell98">
  <circle cx="493.703" cy="514.216" r="8.08613" stroke-width="0.5" stroke="black" fill="green"/>
  <circle cx="493.703" cy="514.216" r="4.8956" stroke-width="0.5" stroke="black" fill="green"/>
   </g>
   <g id="cell99">
  <circle cx="358.169" cy="528.066" r="8.00022" stroke-width="0.5" stroke="black" fill="cyan"/>
  <circle cx="358.169" cy="528.066" r="4.85731" stroke-width="0.5" stroke="black" fill="cyan"/>
   </g>
   <g id="cell100">
  <circle cx="449.056" cy="395.156" r="7.9938" stroke-width="0.5" stroke="black" fill="green"/>
  <circle cx="449.056" cy="395.156" r="4.85022" stroke-width="0.5" stroke="black" fill="green"/>
   </g>
   <g id="cell101">
  <circle cx="532.672" cy="475.856" r="7.98501" stroke-width="0.5" stroke="black" fill="cyan"/>
  <circle cx="532.672" cy="475.856" r="4.84633" stroke-width="0.5" stroke="black" fill="cyan"/>
   </g>
   <g id="cell102">
  <circle cx="434.612" cy="474.195" r="7.85747" stroke-width="0.5" stroke="black" fill="green"/>
  <circle cx="434.612" cy="474.195" r="4.78282" stroke-width="0.5" stroke="black" fill="green"/>
   </g>
   <g id="cell103">
  <circle cx="578.059" cy="444.817" r="7.96365" stroke-width="0.5" stroke="black" fill="cyan"/>
  <circle cx="578.059" cy="444.817" r="4.82873" stroke-width="0.5" stroke="black" fill="cyan"/>
   </g>
   <g id="cell104">
  <circle cx="591.89" cy="553.556" r="7.81928" stroke-width="0.5" stroke="black" fill="cyan"/>
  <circle cx="591.89" cy="553.556" r="4.75845" stroke-width="0.5" stroke="black" fill="cyan"/>
   </g>
   <g id="cell106">
  <circle cx="462.476" cy="439.996" r="7.7434" stroke-width="0.5" stroke="black" fill="magenta"/>
  <circle cx="462.476" cy="439.996" r="4.70959" stroke-width="0.5" stroke="black" fill="magenta"/>
   </g>
   <g id="cell107">
  <circle cx="454.578" cy="377.654" r="7.51751" stroke-width="0.5" stroke="black" fill="green"/>
  <circle cx="454.578" cy="377.654" r="4.5956" stroke-width="0.5" stroke="black" fill="green"/>
   </g>
   <g id="cell108">
  <circle cx="556.401" cy="605.797" r="7.63698" stroke-width="0.5" stroke="black" fill="green"/>
  <circle cx="556.401" cy="605.797" r="4.64085" stroke-width="0.5" stroke="black" fill="green"/>
   </g>
   <g id="cell109">
  <circle cx="576.752" cy="591.714" r="7.10409" stroke-width="0.5" stroke="black" fill="green"/>
  <circle cx="576.752" cy="591.714" r="4.35442" stroke-width="0.5" stroke="black" fill="green"/>
   </g>
   <g id="cell110">
  <circle cx="374.077" cy="514.419" r="7.3599" stroke-width="0.5" stroke="black" fill="cyan"/>
  <circle cx="374.077" cy="514.419" r="4.47294" stroke-width="0.5" stroke="black" fill="cyan"/>
   </g>
   <g id="cell111">
  <circle cx="453.904" cy="552.102" r="7.18777" stroke-width="0.5" stroke="black" fill="magenta"/>
  <circle cx="453.904" cy="552.102" r="4.38526" stroke-width="0.5" stroke="black" fill="magenta"/>
   </g>
   <g id="cell112">
  <circle cx="510.899" cy="467.089" r="7.24243" stroke-width="0.5" stroke="black" fill="magenta"/>
  <circle cx="510.899" cy="467.089" r="4.39934" stroke-width="0.5" stroke="black" fill="magenta"/>
   </g>
   <g id="cell113">
  <circle cx="542.736" cy="405.414" r="7.21189" stroke-width="0.5" stroke="black" fill="green"/>
  <circle cx="542.736" cy="405.414" r="4.37993" stroke-width="0.5" stroke="black" fill="green"/>
   </g>
   <g id="cell114">
  <circle cx="527.698" cy="450.751" r="6.18131" stroke-width="0.5" stroke="black" fill="cyan"/>
  <circle cx="527.698" cy="450.751" r="3.78906" stroke-width="0.5" stroke="black" fill="cyan"/>
   </g>
   <g id="cell115">
  <circle cx="537.735" cy="445.919" r="6.18131" stroke-width="0.5" stroke="black" fill="cyan"/>
  <circle cx="537.735" cy="445.919" r="3.78906" stroke-width="0.5" stroke="black" fill="cyan"/>
   </g>
   <g id="cell116">
  <circle cx="523.333" cy="522.28" r="6.76618" stroke-width="0.5" stroke="black" fill="cyan"/>
  <circle cx="523.333" cy="522.28" r="4.10531" stroke-width="0.5" stroke="black" fill="cyan"/>
   </g>
   <g id="cell117">
  <circle cx="511.044" cy="621.327" r="6.27108" stroke-width="0.5" stroke="black" fill="green"/>
  <circle cx="511.044" cy="621.327" r="3.80692" stroke-width="0.5" stroke="black" fill="green"/>
   </g>
  </g>
 </g>
  <rect x="775" y="1035" width="200" height="10" stroke-width="2" stroke="rgb(255,255,255)" fill="rgb(0,0,0)"/>
  <text x="781.25" y="1028.75"
   font-family="Arial" font-size="25" fill="black" >
   200 &#956;m
  </text>
  <text x="25" y="1045"
   font-family="Arial" font-size="18.75" fill="black" >
   0 days, 0 hours, 0 minutes, and 16.0995 seconds
  </text>
  <rect x="0" y="70" width="1000" height="1000" stroke-width="2" stroke="rgb(0,0,0)" fill="none"/>
</svg>
