<?xml version="1.0" encoding="UTF-8" standalone="no"?>
<!-- Created with PhysiCell (http://PhysiCell.MathCancer.org/) -->
<svg 
 xmlns:dc="http://purl.org/dc/elements/1.1/" 
 xmlns:cc="http://creativecommons.org/ns#" 
 xmlns:rdf="http://www.w3.org/1999/02/22-rdf-syntax-ns#" 
 xmlns:svg="http://www.w3.org/2000/svg" 
 xmlns="http://www.w3.org/2000/svg" 
 version="1.1" 
 width="1000" 
 height="1070" 
 id="svg2">
  <rect x="0" y="0" width="1000" height="1070" stroke-width="2" stroke="white" fill="white"/>
  <text x="12.5" y="30"
   font-family="Arial" font-size="25" fill="black" >
   Current time: 1 days, 1 hours, and 12.00 minutes, z = 0.00 &#956;m
  </text>
  <text x="12.5" y="57.5"
   font-family="Arial" font-size="23.75" fill="black" >
   158 agents
  </text>
 <g id="tissue" 
    transform="translate(0,1070) scale(1,-1)">
  <g id="ECM">
  </g>
  <g id="cells">
   <g id="cell0">
  <circle cx="514.96" cy="534.545" r="8.4065" stroke-width="0.5" stroke="black" fill="magenta"/>
  <circle cx="514.96" cy="534.545" r="5.04982" stroke-width="0.5" stroke="black" fill="magenta"/>
   </g>
   <g id="cell1">
  <circle cx="601.502" cy="523.23" r="8.41271" stroke-width="0.5" stroke="black" fill="magenta"/>
  <circle cx="601.502" cy="523.23" r="5.05167" stroke-width="0.5" stroke="black" fill="magenta"/>
   </g>
   <g id="cell2">
  <circle cx="518.717" cy="597.933" r="8.41271" stroke-width="0.5" stroke="black" fill="magenta"/>
  <circle cx="518.717" cy="597.933" r="5.05167" stroke-width="0.5" stroke="black" fill="magenta"/>
   </g>
   <g id="cell3">
  <circle cx="523.758" cy="547.192" r="8.40256" stroke-width="0.5" stroke="black" fill="magenta"/>
  <circle cx="523.758" cy="547.192" r="5.04859" stroke-width="0.5" stroke="black" fill="magenta"/>
   </g>
   <g id="cell4">
  <circle cx="486.302" cy="447.978" r="8.26965" stroke-width="0.5" stroke="black" fill="magenta"/>
  <circle cx="486.302" cy="447.978" r="4.99012" stroke-width="0.5" stroke="black" fill="magenta"/>
   </g>
   <g id="cell5">
  <circle cx="465.032" cy="493.3" r="8.41271" stroke-width="0.5" stroke="black" fill="magenta"/>
  <circle cx="465.032" cy="493.3" r="5.05167" stroke-width="0.5" stroke="black" fill="magenta"/>
   </g>
   <g id="cell6">
  <circle cx="597.156" cy="515.541" r="1.39843" stroke-width="0.5" stroke="black" fill="magenta"/>
  <circle cx="597.156" cy="515.541" r="1.38586" stroke-width="0.5" stroke="black" fill="black"/>
   </g>
   <g id="cell7">
  <circle cx="496.243" cy="459.221" r="8.36458" stroke-width="0.5" stroke="black" fill="magenta"/>
  <circle cx="496.243" cy="459.221" r="5.03347" stroke-width="0.5" stroke="black" fill="magenta"/>
   </g>
   <g id="cell8">
  <circle cx="376.405" cy="542.847" r="8.41271" stroke-width="0.5" stroke="black" fill="magenta"/>
  <circle cx="376.405" cy="542.847" r="5.05167" stroke-width="0.5" stroke="black" fill="magenta"/>
   </g>
   <g id="cell9">
  <circle cx="460.472" cy="599.786" r="1.45214" stroke-width="0.5" stroke="black" fill="magenta"/>
  <circle cx="460.472" cy="599.786" r="1.43612" stroke-width="0.5" stroke="black" fill="black"/>
   </g>
   <g id="cell10">
  <circle cx="586.64" cy="389.054" r="7.21189" stroke-width="0.5" stroke="black" fill="magenta"/>
  <circle cx="586.64" cy="389.054" r="4.37993" stroke-width="0.5" stroke="black" fill="magenta"/>
   </g>
   <g id="cell11">
  <circle cx="592.077" cy="590.052" r="8.41271" stroke-width="0.5" stroke="black" fill="magenta"/>
  <circle cx="592.077" cy="590.052" r="5.05167" stroke-width="0.5" stroke="black" fill="magenta"/>
   </g>
   <g id="cell12">
  <circle cx="504.866" cy="593.07" r="8.00101" stroke-width="0.5" stroke="black" fill="magenta"/>
  <circle cx="504.866" cy="593.07" r="4.84939" stroke-width="0.5" stroke="black" fill="magenta"/>
   </g>
   <g id="cell13">
  <circle cx="388.703" cy="568.315" r="8.41271" stroke-width="0.5" stroke="black" fill="magenta"/>
  <circle cx="388.703" cy="568.315" r="5.05167" stroke-width="0.5" stroke="black" fill="magenta"/>
   </g>
   <g id="cell14">
  <circle cx="526.542" cy="401.336" r="8.41271" stroke-width="0.5" stroke="black" fill="magenta"/>
  <circle cx="526.542" cy="401.336" r="5.05167" stroke-width="0.5" stroke="black" fill="magenta"/>
   </g>
   <g id="cell15">
  <circle cx="383.594" cy="478.072" r="8.18833" stroke-width="0.5" stroke="black" fill="magenta"/>
  <circle cx="383.594" cy="478.072" r="4.94921" stroke-width="0.5" stroke="black" fill="magenta"/>
   </g>
   <g id="cell16">
  <circle cx="437.254" cy="421.381" r="6.96748" stroke-width="0.5" stroke="black" fill="magenta"/>
  <circle cx="437.254" cy="421.381" r="4.28851" stroke-width="0.5" stroke="black" fill="magenta"/>
   </g>
   <g id="cell17">
  <circle cx="571.086" cy="495.406" r="8.41271" stroke-width="0.5" stroke="black" fill="magenta"/>
  <circle cx="571.086" cy="495.406" r="5.05167" stroke-width="0.5" stroke="black" fill="magenta"/>
   </g>
   <g id="cell18">
  <circle cx="518.452" cy="389.844" r="8.41271" stroke-width="0.5" stroke="black" fill="magenta"/>
  <circle cx="518.452" cy="389.844" r="5.05167" stroke-width="0.5" stroke="black" fill="magenta"/>
   </g>
   <g id="cell19">
  <circle cx="458.59" cy="540.362" r="8.36351" stroke-width="0.5" stroke="black" fill="magenta"/>
  <circle cx="458.59" cy="540.362" r="5.03345" stroke-width="0.5" stroke="black" fill="magenta"/>
   </g>
   <g id="cell20">
  <circle cx="531.51" cy="416.28" r="8.41271" stroke-width="0.5" stroke="black" fill="magenta"/>
  <circle cx="531.51" cy="416.28" r="5.05167" stroke-width="0.5" stroke="black" fill="magenta"/>
   </g>
   <g id="cell21">
  <circle cx="466.782" cy="632.357" r="8.41271" stroke-width="0.5" stroke="black" fill="magenta"/>
  <circle cx="466.782" cy="632.357" r="5.05167" stroke-width="0.5" stroke="black" fill="magenta"/>
   </g>
   <g id="cell22">
  <circle cx="555.326" cy="495.443" r="8.41271" stroke-width="0.5" stroke="black" fill="magenta"/>
  <circle cx="555.326" cy="495.443" r="5.05167" stroke-width="0.5" stroke="black" fill="magenta"/>
   </g>
   <g id="cell23">
  <circle cx="547.398" cy="481.488" r="8.41271" stroke-width="0.5" stroke="black" fill="magenta"/>
  <circle cx="547.398" cy="481.488" r="5.05167" stroke-width="0.5" stroke="black" fill="magenta"/>
   </g>
   <g id="cell24">
  <circle cx="558.869" cy="381.078" r="8.41271" stroke-width="0.5" stroke="black" fill="magenta"/>
  <circle cx="558.869" cy="381.078" r="5.05167" stroke-width="0.5" stroke="black" fill="magenta"/>
   </g>
   <g id="cell25">
  <circle cx="648.362" cy="543.115" r="8.40884" stroke-width="0.5" stroke="black" fill="green"/>
  <circle cx="648.362" cy="543.115" r="5.05057" stroke-width="0.5" stroke="black" fill="green"/>
   </g>
   <g id="cell26">
  <circle cx="557.184" cy="396.529" r="8.3632" stroke-width="0.5" stroke="black" fill="green"/>
  <circle cx="557.184" cy="396.529" r="5.03288" stroke-width="0.5" stroke="black" fill="green"/>
   </g>
   <g id="cell27">
  <circle cx="464.749" cy="398.002" r="8.4103" stroke-width="0.5" stroke="black" fill="green"/>
  <circle cx="464.749" cy="398.002" r="5.05102" stroke-width="0.5" stroke="black" fill="green"/>
   </g>
   <g id="cell28">
  <circle cx="433.468" cy="534.854" r="6.95901" stroke-width="0.5" stroke="black" fill="green"/>
  <circle cx="433.468" cy="534.854" r="4.21341" stroke-width="0.5" stroke="black" fill="green"/>
   </g>
   <g id="cell29">
  <circle cx="450.237" cy="514.061" r="8.41271" stroke-width="0.5" stroke="black" fill="green"/>
  <circle cx="450.237" cy="514.061" r="5.05167" stroke-width="0.5" stroke="black" fill="green"/>
   </g>
   <g id="cell30">
  <circle cx="485.432" cy="537.011" r="7.93157" stroke-width="0.5" stroke="black" fill="green"/>
  <circle cx="485.432" cy="537.011" r="4.81209" stroke-width="0.5" stroke="black" fill="green"/>
   </g>
   <g id="cell31">
  <circle cx="412.248" cy="542.198" r="8.41271" stroke-width="0.5" stroke="black" fill="green"/>
  <circle cx="412.248" cy="542.198" r="5.05167" stroke-width="0.5" stroke="black" fill="green"/>
   </g>
   <g id="cell32">
  <circle cx="421.367" cy="481.396" r="1.76496" stroke-width="0.5" stroke="black" fill="green"/>
  <circle cx="421.367" cy="481.396" r="1.71211" stroke-width="0.5" stroke="black" fill="black"/>
   </g>
   <g id="cell33">
  <circle cx="502.143" cy="424.913" r="7.84675" stroke-width="0.5" stroke="black" fill="green"/>
  <circle cx="502.143" cy="424.913" r="4.7629" stroke-width="0.5" stroke="black" fill="green"/>
   </g>
   <g id="cell34">
  <circle cx="396.819" cy="450.575" r="1.82001" stroke-width="0.5" stroke="black" fill="green"/>
  <circle cx="396.819" cy="450.575" r="1.7574" stroke-width="0.5" stroke="black" fill="black"/>
   </g>
   <g id="cell35">
  <circle cx="554.234" cy="544.494" r="8.41271" stroke-width="0.5" stroke="black" fill="green"/>
  <circle cx="554.234" cy="544.494" r="5.05167" stroke-width="0.5" stroke="black" fill="green"/>
   </g>
   <g id="cell36">
  <circle cx="387.838" cy="583.623" r="4.96094" stroke-width="0.5" stroke="black" fill="green"/>
  <circle cx="387.838" cy="583.623" r="3.05327" stroke-width="0.5" stroke="black" fill="green"/>
   </g>
   <g id="cell37">
  <circle cx="640.142" cy="457.243" r="8.40994" stroke-width="0.5" stroke="black" fill="green"/>
  <circle cx="640.142" cy="457.243" r="5.05091" stroke-width="0.5" stroke="black" fill="green"/>
   </g>
   <g id="cell38">
  <circle cx="530.279" cy="587.323" r="8.40944" stroke-width="0.5" stroke="black" fill="green"/>
  <circle cx="530.279" cy="587.323" r="5.05076" stroke-width="0.5" stroke="black" fill="green"/>
   </g>
   <g id="cell39">
  <circle cx="613.31" cy="490.918" r="8.41271" stroke-width="0.5" stroke="black" fill="green"/>
  <circle cx="613.31" cy="490.918" r="5.05167" stroke-width="0.5" stroke="black" fill="green"/>
   </g>
   <g id="cell40">
  <circle cx="485.72" cy="566.473" r="6.78181" stroke-width="0.5" stroke="black" fill="green"/>
  <circle cx="485.72" cy="566.473" r="4.08714" stroke-width="0.5" stroke="black" fill="green"/>
   </g>
   <g id="cell41">
  <circle cx="365.032" cy="481.738" r="8.41271" stroke-width="0.5" stroke="black" fill="green"/>
  <circle cx="365.032" cy="481.738" r="5.05167" stroke-width="0.5" stroke="black" fill="green"/>
   </g>
   <g id="cell42">
  <circle cx="438.678" cy="493.436" r="8.41271" stroke-width="0.5" stroke="black" fill="green"/>
  <circle cx="438.678" cy="493.436" r="5.05167" stroke-width="0.5" stroke="black" fill="green"/>
   </g>
   <g id="cell43">
  <circle cx="560.045" cy="438.328" r="8.41271" stroke-width="0.5" stroke="black" fill="green"/>
  <circle cx="560.045" cy="438.328" r="5.05167" stroke-width="0.5" stroke="black" fill="green"/>
   </g>
   <g id="cell44">
  <circle cx="473.443" cy="626.238" r="1.45214" stroke-width="0.5" stroke="black" fill="green"/>
  <circle cx="473.443" cy="626.238" r="1.43612" stroke-width="0.5" stroke="black" fill="black"/>
   </g>
   <g id="cell145">
  <circle cx="425.368" cy="417.484" r="6.96748" stroke-width="0.5" stroke="black" fill="magenta"/>
  <circle cx="425.368" cy="417.484" r="4.28851" stroke-width="0.5" stroke="black" fill="magenta"/>
   </g>
   <g id="cell46">
  <circle cx="521.29" cy="613.483" r="8.39083" stroke-width="0.5" stroke="black" fill="green"/>
  <circle cx="521.29" cy="613.483" r="5.04414" stroke-width="0.5" stroke="black" fill="green"/>
   </g>
   <g id="cell47">
  <circle cx="503.635" cy="494.559" r="8.39913" stroke-width="0.5" stroke="black" fill="green"/>
  <circle cx="503.635" cy="494.559" r="5.04725" stroke-width="0.5" stroke="black" fill="green"/>
   </g>
   <g id="cell48">
  <circle cx="571.033" cy="604.801" r="8.36254" stroke-width="0.5" stroke="black" fill="green"/>
  <circle cx="571.033" cy="604.801" r="5.0335" stroke-width="0.5" stroke="black" fill="green"/>
   </g>
   <g id="cell49">
  <circle cx="432.743" cy="394.515" r="8.41271" stroke-width="0.5" stroke="black" fill="green"/>
  <circle cx="432.743" cy="394.515" r="5.05167" stroke-width="0.5" stroke="black" fill="green"/>
   </g>
   <g id="cell50">
  <circle cx="512.651" cy="507.82" r="8.34221" stroke-width="0.5" stroke="black" fill="cyan"/>
  <circle cx="512.651" cy="507.82" r="5.02416" stroke-width="0.5" stroke="black" fill="cyan"/>
   </g>
   <g id="cell51">
  <circle cx="400.742" cy="597.276" r="8.41271" stroke-width="0.5" stroke="black" fill="cyan"/>
  <circle cx="400.742" cy="597.276" r="5.05167" stroke-width="0.5" stroke="black" fill="cyan"/>
   </g>
   <g id="cell52">
  <circle cx="516.771" cy="421.126" r="8.41271" stroke-width="0.5" stroke="black" fill="cyan"/>
  <circle cx="516.771" cy="421.126" r="5.05167" stroke-width="0.5" stroke="black" fill="cyan"/>
   </g>
   <g id="cell53">
  <circle cx="572.163" cy="428.063" r="8.39422" stroke-width="0.5" stroke="black" fill="cyan"/>
  <circle cx="572.163" cy="428.063" r="5.04543" stroke-width="0.5" stroke="black" fill="cyan"/>
   </g>
   <g id="cell54">
  <circle cx="480.549" cy="421.984" r="8.40154" stroke-width="0.5" stroke="black" fill="cyan"/>
  <circle cx="480.549" cy="421.984" r="5.04811" stroke-width="0.5" stroke="black" fill="cyan"/>
   </g>
   <g id="cell55">
  <circle cx="522.52" cy="462.146" r="8.39509" stroke-width="0.5" stroke="black" fill="cyan"/>
  <circle cx="522.52" cy="462.146" r="5.0459" stroke-width="0.5" stroke="black" fill="cyan"/>
   </g>
   <g id="cell56">
  <circle cx="617.084" cy="522.402" r="8.41271" stroke-width="0.5" stroke="black" fill="cyan"/>
  <circle cx="617.084" cy="522.402" r="5.05167" stroke-width="0.5" stroke="black" fill="cyan"/>
   </g>
   <g id="cell105">
  <circle cx="507.201" cy="607.581" r="7.79319" stroke-width="0.5" stroke="black" fill="green"/>
  <circle cx="507.201" cy="607.581" r="4.7412" stroke-width="0.5" stroke="black" fill="green"/>
   </g>
   <g id="cell58">
  <circle cx="563.079" cy="484.461" r="6.83713" stroke-width="0.5" stroke="black" fill="cyan"/>
  <circle cx="563.079" cy="484.461" r="4.12773" stroke-width="0.5" stroke="black" fill="cyan"/>
   </g>
   <g id="cell59">
  <circle cx="385.732" cy="440.058" r="8.41271" stroke-width="0.5" stroke="black" fill="cyan"/>
  <circle cx="385.732" cy="440.058" r="5.05167" stroke-width="0.5" stroke="black" fill="cyan"/>
   </g>
   <g id="cell60">
  <circle cx="591.891" cy="473.914" r="8.41271" stroke-width="0.5" stroke="black" fill="cyan"/>
  <circle cx="591.891" cy="473.914" r="5.05167" stroke-width="0.5" stroke="black" fill="cyan"/>
   </g>
   <g id="cell61">
  <circle cx="557.056" cy="621.932" r="2.72971" stroke-width="0.5" stroke="black" fill="cyan"/>
  <circle cx="557.056" cy="621.932" r="2.33853" stroke-width="0.5" stroke="black" fill="black"/>
   </g>
   <g id="cell62">
  <circle cx="512.55" cy="436.365" r="8.30498" stroke-width="0.5" stroke="black" fill="cyan"/>
  <circle cx="512.55" cy="436.365" r="5.00694" stroke-width="0.5" stroke="black" fill="cyan"/>
   </g>
   <g id="cell63">
  <circle cx="584.715" cy="539.109" r="8.16448" stroke-width="0.5" stroke="black" fill="cyan"/>
  <circle cx="584.715" cy="539.109" r="4.93767" stroke-width="0.5" stroke="black" fill="cyan"/>
   </g>
   <g id="cell64">
  <circle cx="509.693" cy="638.829" r="8.41271" stroke-width="0.5" stroke="black" fill="cyan"/>
  <circle cx="509.693" cy="638.829" r="5.05167" stroke-width="0.5" stroke="black" fill="cyan"/>
   </g>
   <g id="cell65">
  <circle cx="549.014" cy="464.717" r="8.40516" stroke-width="0.5" stroke="black" fill="cyan"/>
  <circle cx="549.014" cy="464.717" r="5.04937" stroke-width="0.5" stroke="black" fill="cyan"/>
   </g>
   <g id="cell66">
  <circle cx="530.325" cy="533.25" r="8.4009" stroke-width="0.5" stroke="black" fill="cyan"/>
  <circle cx="530.325" cy="533.25" r="5.04788" stroke-width="0.5" stroke="black" fill="cyan"/>
   </g>
   <g id="cell67">
  <circle cx="354.001" cy="493.483" r="8.41271" stroke-width="0.5" stroke="black" fill="cyan"/>
  <circle cx="354.001" cy="493.483" r="5.05167" stroke-width="0.5" stroke="black" fill="cyan"/>
   </g>
   <g id="cell68">
  <circle cx="563.114" cy="557.38" r="8.41271" stroke-width="0.5" stroke="black" fill="cyan"/>
  <circle cx="563.114" cy="557.38" r="5.05167" stroke-width="0.5" stroke="black" fill="cyan"/>
   </g>
   <g id="cell69">
  <circle cx="442.046" cy="460.688" r="8.41271" stroke-width="0.5" stroke="black" fill="cyan"/>
  <circle cx="442.046" cy="460.688" r="5.05167" stroke-width="0.5" stroke="black" fill="cyan"/>
   </g>
   <g id="cell70">
  <circle cx="576.865" cy="480.302" r="8.41271" stroke-width="0.5" stroke="black" fill="cyan"/>
  <circle cx="576.865" cy="480.302" r="5.05167" stroke-width="0.5" stroke="black" fill="cyan"/>
   </g>
   <g id="cell71">
  <circle cx="380.277" cy="527.781" r="8.36972" stroke-width="0.5" stroke="black" fill="cyan"/>
  <circle cx="380.277" cy="527.781" r="5.03563" stroke-width="0.5" stroke="black" fill="cyan"/>
   </g>
   <g id="cell72">
  <circle cx="528.565" cy="506.553" r="8.40185" stroke-width="0.5" stroke="black" fill="cyan"/>
  <circle cx="528.565" cy="506.553" r="5.04822" stroke-width="0.5" stroke="black" fill="cyan"/>
   </g>
   <g id="cell73">
  <circle cx="364.558" cy="552.985" r="8.40667" stroke-width="0.5" stroke="black" fill="cyan"/>
  <circle cx="364.558" cy="552.985" r="5.04987" stroke-width="0.5" stroke="black" fill="cyan"/>
   </g>
   <g id="cell74">
  <circle cx="548.625" cy="434.084" r="1.36727" stroke-width="0.5" stroke="black" fill="cyan"/>
  <circle cx="548.625" cy="434.084" r="1.35537" stroke-width="0.5" stroke="black" fill="black"/>
   </g>
   <g id="cell75">
  <circle cx="528.425" cy="431.647" r="8.41036" stroke-width="0.5" stroke="black" fill="cyan"/>
  <circle cx="528.425" cy="431.647" r="5.05104" stroke-width="0.5" stroke="black" fill="cyan"/>
   </g>
   <g id="cell76">
  <circle cx="442.295" cy="381.982" r="8.37739" stroke-width="0.5" stroke="black" fill="green"/>
  <circle cx="442.295" cy="381.982" r="5.03944" stroke-width="0.5" stroke="black" fill="green"/>
   </g>
   <g id="cell77">
  <circle cx="475.969" cy="436.963" r="8.38553" stroke-width="0.5" stroke="black" fill="magenta"/>
  <circle cx="475.969" cy="436.963" r="5.04223" stroke-width="0.5" stroke="black" fill="magenta"/>
   </g>
   <g id="cell78">
  <circle cx="624.842" cy="461.96" r="8.40377" stroke-width="0.5" stroke="black" fill="green"/>
  <circle cx="624.842" cy="461.96" r="5.04899" stroke-width="0.5" stroke="black" fill="green"/>
   </g>
   <g id="cell79">
  <circle cx="516.12" cy="478.452" r="8.40961" stroke-width="0.5" stroke="black" fill="cyan"/>
  <circle cx="516.12" cy="478.452" r="5.05081" stroke-width="0.5" stroke="black" fill="cyan"/>
   </g>
   <g id="cell80">
  <circle cx="542.597" cy="615.79" r="8.30362" stroke-width="0.5" stroke="black" fill="green"/>
  <circle cx="542.597" cy="615.79" r="5.00655" stroke-width="0.5" stroke="black" fill="green"/>
   </g>
   <g id="cell81">
  <circle cx="545.389" cy="593.14" r="8.40771" stroke-width="0.5" stroke="black" fill="green"/>
  <circle cx="545.389" cy="593.14" r="5.05027" stroke-width="0.5" stroke="black" fill="green"/>
   </g>
   <g id="cell82">
  <circle cx="532.557" cy="559.058" r="7.73782" stroke-width="0.5" stroke="black" fill="magenta"/>
  <circle cx="532.557" cy="559.058" r="4.70073" stroke-width="0.5" stroke="black" fill="magenta"/>
   </g>
   <g id="cell83">
  <circle cx="635.386" cy="552.182" r="8.23242" stroke-width="0.5" stroke="black" fill="green"/>
  <circle cx="635.386" cy="552.182" r="4.97194" stroke-width="0.5" stroke="black" fill="green"/>
   </g>
   <g id="cell84">
  <circle cx="519.406" cy="493.824" r="8.407" stroke-width="0.5" stroke="black" fill="cyan"/>
  <circle cx="519.406" cy="493.824" r="5.04998" stroke-width="0.5" stroke="black" fill="cyan"/>
   </g>
   <g id="cell85">
  <circle cx="352.457" cy="542.516" r="8.39571" stroke-width="0.5" stroke="black" fill="cyan"/>
  <circle cx="352.457" cy="542.516" r="5.0462" stroke-width="0.5" stroke="black" fill="cyan"/>
   </g>
   <g id="cell86">
  <circle cx="500.131" cy="535.419" r="8.29011" stroke-width="0.5" stroke="black" fill="magenta"/>
  <circle cx="500.131" cy="535.419" r="5.00024" stroke-width="0.5" stroke="black" fill="magenta"/>
   </g>
   <g id="cell87">
  <circle cx="579.071" cy="557.995" r="8.38863" stroke-width="0.5" stroke="black" fill="cyan"/>
  <circle cx="579.071" cy="557.995" r="5.04357" stroke-width="0.5" stroke="black" fill="cyan"/>
   </g>
   <g id="cell88">
  <circle cx="448.737" cy="533.705" r="5.43103" stroke-width="0.5" stroke="black" fill="magenta"/>
  <circle cx="448.737" cy="533.705" r="3.28023" stroke-width="0.5" stroke="black" fill="magenta"/>
   </g>
   <g id="cell89">
  <circle cx="551.124" cy="450.341" r="7.53064" stroke-width="0.5" stroke="black" fill="cyan"/>
  <circle cx="551.124" cy="450.341" r="4.60007" stroke-width="0.5" stroke="black" fill="cyan"/>
   </g>
   <g id="cell90">
  <circle cx="636.544" cy="472.664" r="8.23483" stroke-width="0.5" stroke="black" fill="green"/>
  <circle cx="636.544" cy="472.664" r="4.97361" stroke-width="0.5" stroke="black" fill="green"/>
   </g>
   <g id="cell91">
  <circle cx="547.281" cy="558.43" r="8.39791" stroke-width="0.5" stroke="black" fill="magenta"/>
  <circle cx="547.281" cy="558.43" r="5.04708" stroke-width="0.5" stroke="black" fill="magenta"/>
   </g>
   <g id="cell92">
  <circle cx="485.534" cy="552.341" r="8.40327" stroke-width="0.5" stroke="black" fill="green"/>
  <circle cx="485.534" cy="552.341" r="5.04872" stroke-width="0.5" stroke="black" fill="green"/>
   </g>
   <g id="cell93">
  <circle cx="538.873" cy="545.921" r="8.39791" stroke-width="0.5" stroke="black" fill="magenta"/>
  <circle cx="538.873" cy="545.921" r="5.04708" stroke-width="0.5" stroke="black" fill="magenta"/>
   </g>
   <g id="cell94">
  <circle cx="540.141" cy="495.803" r="8.40185" stroke-width="0.5" stroke="black" fill="cyan"/>
  <circle cx="540.141" cy="495.803" r="5.04822" stroke-width="0.5" stroke="black" fill="cyan"/>
   </g>
   <g id="cell95">
  <circle cx="465.08" cy="425.795" r="8.40154" stroke-width="0.5" stroke="black" fill="cyan"/>
  <circle cx="465.08" cy="425.795" r="5.04811" stroke-width="0.5" stroke="black" fill="cyan"/>
   </g>
   <g id="cell96">
  <circle cx="545.627" cy="531.898" r="8.07014" stroke-width="0.5" stroke="black" fill="cyan"/>
  <circle cx="545.627" cy="531.898" r="4.88835" stroke-width="0.5" stroke="black" fill="cyan"/>
   </g>
   <g id="cell97">
  <circle cx="421.581" cy="466.491" r="8.3902" stroke-width="0.5" stroke="black" fill="green"/>
  <circle cx="421.581" cy="466.491" r="5.04425" stroke-width="0.5" stroke="black" fill="green"/>
   </g>
   <g id="cell98">
  <circle cx="490.993" cy="523.049" r="8.26395" stroke-width="0.5" stroke="black" fill="green"/>
  <circle cx="490.993" cy="523.049" r="4.98818" stroke-width="0.5" stroke="black" fill="green"/>
   </g>
   <g id="cell99">
  <circle cx="358.331" cy="527.644" r="8.39571" stroke-width="0.5" stroke="black" fill="cyan"/>
  <circle cx="358.331" cy="527.644" r="5.0462" stroke-width="0.5" stroke="black" fill="cyan"/>
   </g>
   <g id="cell100">
  <circle cx="448.658" cy="396.736" r="8.39543" stroke-width="0.5" stroke="black" fill="green"/>
  <circle cx="448.658" cy="396.736" r="5.04601" stroke-width="0.5" stroke="black" fill="green"/>
   </g>
   <g id="cell101">
  <circle cx="530.911" cy="483.927" r="8.03642" stroke-width="0.5" stroke="black" fill="cyan"/>
  <circle cx="530.911" cy="483.927" r="4.87076" stroke-width="0.5" stroke="black" fill="cyan"/>
   </g>
   <g id="cell102">
  <circle cx="435.064" cy="475.129" r="8.3902" stroke-width="0.5" stroke="black" fill="green"/>
  <circle cx="435.064" cy="475.129" r="5.04425" stroke-width="0.5" stroke="black" fill="green"/>
   </g>
   <g id="cell103">
  <circle cx="591.09" cy="447.81" r="8.28717" stroke-width="0.5" stroke="black" fill="cyan"/>
  <circle cx="591.09" cy="447.81" r="4.99957" stroke-width="0.5" stroke="black" fill="cyan"/>
   </g>
   <g id="cell104">
  <circle cx="599.646" cy="556.879" r="7.47941" stroke-width="0.5" stroke="black" fill="cyan"/>
  <circle cx="599.646" cy="556.879" r="4.55009" stroke-width="0.5" stroke="black" fill="cyan"/>
   </g>
   <g id="cell106">
  <circle cx="461.434" cy="440.914" r="8.38553" stroke-width="0.5" stroke="black" fill="magenta"/>
  <circle cx="461.434" cy="440.914" r="5.04223" stroke-width="0.5" stroke="black" fill="magenta"/>
   </g>
   <g id="cell107">
  <circle cx="457.955" cy="383.73" r="8.27855" stroke-width="0.5" stroke="black" fill="green"/>
  <circle cx="457.955" cy="383.73" r="4.99648" stroke-width="0.5" stroke="black" fill="green"/>
   </g>
   <g id="cell108">
  <circle cx="555.1" cy="605.969" r="8.38118" stroke-width="0.5" stroke="black" fill="green"/>
  <circle cx="555.1" cy="605.969" r="5.04034" stroke-width="0.5" stroke="black" fill="green"/>
   </g>
   <g id="cell109">
  <circle cx="576.526" cy="589.847" r="8.36254" stroke-width="0.5" stroke="black" fill="green"/>
  <circle cx="576.526" cy="589.847" r="5.0335" stroke-width="0.5" stroke="black" fill="green"/>
   </g>
   <g id="cell110">
  <circle cx="373.595" cy="513.313" r="8.36972" stroke-width="0.5" stroke="black" fill="cyan"/>
  <circle cx="373.595" cy="513.313" r="5.03563" stroke-width="0.5" stroke="black" fill="cyan"/>
   </g>
   <g id="cell111">
  <circle cx="454.868" cy="554.512" r="8.02975" stroke-width="0.5" stroke="black" fill="magenta"/>
  <circle cx="454.868" cy="554.512" r="4.86959" stroke-width="0.5" stroke="black" fill="magenta"/>
   </g>
   <g id="cell112">
  <circle cx="497.6" cy="473.472" r="7.4383" stroke-width="0.5" stroke="black" fill="magenta"/>
  <circle cx="497.6" cy="473.472" r="4.52782" stroke-width="0.5" stroke="black" fill="magenta"/>
   </g>
   <g id="cell113">
  <circle cx="542.078" cy="393.423" r="7.65023" stroke-width="0.5" stroke="black" fill="green"/>
  <circle cx="542.078" cy="393.423" r="4.65455" stroke-width="0.5" stroke="black" fill="green"/>
   </g>
   <g id="cell114">
  <circle cx="524.447" cy="446.618" r="8.32901" stroke-width="0.5" stroke="black" fill="cyan"/>
  <circle cx="524.447" cy="446.618" r="5.01943" stroke-width="0.5" stroke="black" fill="cyan"/>
   </g>
   <g id="cell115">
  <circle cx="537.088" cy="455.016" r="8.10151" stroke-width="0.5" stroke="black" fill="cyan"/>
  <circle cx="537.088" cy="455.016" r="4.90998" stroke-width="0.5" stroke="black" fill="cyan"/>
   </g>
   <g id="cell116">
  <circle cx="521.535" cy="520.556" r="8.34221" stroke-width="0.5" stroke="black" fill="cyan"/>
  <circle cx="521.535" cy="520.556" r="5.02416" stroke-width="0.5" stroke="black" fill="cyan"/>
   </g>
   <g id="cell117">
  <circle cx="508.444" cy="622.92" r="8.31911" stroke-width="0.5" stroke="black" fill="green"/>
  <circle cx="508.444" cy="622.92" r="5.01452" stroke-width="0.5" stroke="black" fill="green"/>
   </g>
   <g id="cell118">
  <circle cx="509.856" cy="451.87" r="8.30498" stroke-width="0.5" stroke="black" fill="cyan"/>
  <circle cx="509.856" cy="451.87" r="5.00694" stroke-width="0.5" stroke="black" fill="cyan"/>
   </g>
   <g id="cell119">
  <circle cx="533.201" cy="603.113" r="8.30362" stroke-width="0.5" stroke="black" fill="green"/>
  <circle cx="533.201" cy="603.113" r="5.00655" stroke-width="0.5" stroke="black" fill="green"/>
   </g>
   <g id="cell120">
  <circle cx="576.04" cy="443.278" r="8.28717" stroke-width="0.5" stroke="black" fill="cyan"/>
  <circle cx="576.04" cy="443.278" r="4.99957" stroke-width="0.5" stroke="black" fill="cyan"/>
   </g>
   <g id="cell121">
  <circle cx="451.636" cy="369.428" r="8.14286" stroke-width="0.5" stroke="black" fill="green"/>
  <circle cx="451.636" cy="369.428" r="4.93277" stroke-width="0.5" stroke="black" fill="green"/>
   </g>
   <g id="cell122">
  <circle cx="506.276" cy="521.877" r="8.29011" stroke-width="0.5" stroke="black" fill="magenta"/>
  <circle cx="506.276" cy="521.877" r="5.00024" stroke-width="0.5" stroke="black" fill="magenta"/>
   </g>
   <g id="cell123">
  <circle cx="497.261" cy="509.024" r="8.26395" stroke-width="0.5" stroke="black" fill="green"/>
  <circle cx="497.261" cy="509.024" r="4.98818" stroke-width="0.5" stroke="black" fill="green"/>
   </g>
   <g id="cell124">
  <circle cx="490.479" cy="433.785" r="8.26965" stroke-width="0.5" stroke="black" fill="magenta"/>
  <circle cx="490.479" cy="433.785" r="4.99012" stroke-width="0.5" stroke="black" fill="magenta"/>
   </g>
   <g id="cell125">
  <circle cx="621.64" cy="477.461" r="8.23483" stroke-width="0.5" stroke="black" fill="green"/>
  <circle cx="621.64" cy="477.461" r="4.97361" stroke-width="0.5" stroke="black" fill="green"/>
   </g>
   <g id="cell126">
  <circle cx="628.942" cy="566.454" r="8.23242" stroke-width="0.5" stroke="black" fill="green"/>
  <circle cx="628.942" cy="566.454" r="4.97194" stroke-width="0.5" stroke="black" fill="green"/>
   </g>
   <g id="cell127">
  <circle cx="438.396" cy="361.39" r="8.14286" stroke-width="0.5" stroke="black" fill="green"/>
  <circle cx="438.396" cy="361.39" r="4.93277" stroke-width="0.5" stroke="black" fill="green"/>
   </g>
   <g id="cell128">
  <circle cx="372.571" cy="468.353" r="8.18833" stroke-width="0.5" stroke="black" fill="magenta"/>
  <circle cx="372.571" cy="468.353" r="4.94921" stroke-width="0.5" stroke="black" fill="magenta"/>
   </g>
   <g id="cell129">
  <circle cx="569.671" cy="542.659" r="8.16448" stroke-width="0.5" stroke="black" fill="cyan"/>
  <circle cx="569.671" cy="542.659" r="4.93767" stroke-width="0.5" stroke="black" fill="cyan"/>
   </g>
   <g id="cell130">
  <circle cx="541.535" cy="439.743" r="8.10151" stroke-width="0.5" stroke="black" fill="cyan"/>
  <circle cx="541.535" cy="439.743" r="4.90998" stroke-width="0.5" stroke="black" fill="cyan"/>
   </g>
   <g id="cell131">
  <circle cx="537.213" cy="519.293" r="8.07014" stroke-width="0.5" stroke="black" fill="cyan"/>
  <circle cx="537.213" cy="519.293" r="4.88835" stroke-width="0.5" stroke="black" fill="cyan"/>
   </g>
   <g id="cell132">
  <circle cx="444.14" cy="544.627" r="8.02975" stroke-width="0.5" stroke="black" fill="magenta"/>
  <circle cx="444.14" cy="544.627" r="4.86959" stroke-width="0.5" stroke="black" fill="magenta"/>
   </g>
   <g id="cell133">
  <circle cx="571.286" cy="465.683" r="8.05239" stroke-width="0.5" stroke="black" fill="cyan"/>
  <circle cx="571.286" cy="465.683" r="4.87836" stroke-width="0.5" stroke="black" fill="cyan"/>
   </g>
   <g id="cell134">
  <circle cx="535.453" cy="470.26" r="8.03642" stroke-width="0.5" stroke="black" fill="cyan"/>
  <circle cx="535.453" cy="470.26" r="4.87076" stroke-width="0.5" stroke="black" fill="cyan"/>
   </g>
   <g id="cell135">
  <circle cx="515.74" cy="583.291" r="8.00101" stroke-width="0.5" stroke="black" fill="magenta"/>
  <circle cx="515.74" cy="583.291" r="4.84939" stroke-width="0.5" stroke="black" fill="magenta"/>
   </g>
   <g id="cell136">
  <circle cx="472.661" cy="544.208" r="7.93157" stroke-width="0.5" stroke="black" fill="green"/>
  <circle cx="472.661" cy="544.208" r="4.81209" stroke-width="0.5" stroke="black" fill="green"/>
   </g>
   <g id="cell137">
  <circle cx="493.06" cy="611.734" r="7.79319" stroke-width="0.5" stroke="black" fill="green"/>
  <circle cx="493.06" cy="611.734" r="4.7412" stroke-width="0.5" stroke="black" fill="green"/>
   </g>
   <g id="cell138">
  <circle cx="500.208" cy="410.173" r="7.84675" stroke-width="0.5" stroke="black" fill="green"/>
  <circle cx="500.208" cy="410.173" r="4.7629" stroke-width="0.5" stroke="black" fill="green"/>
   </g>
   <g id="cell139">
  <circle cx="421.877" cy="404.758" r="7.75912" stroke-width="0.5" stroke="black" fill="magenta"/>
  <circle cx="421.877" cy="404.758" r="4.71248" stroke-width="0.5" stroke="black" fill="magenta"/>
   </g>
   <g id="cell140">
  <circle cx="526.086" cy="571.232" r="7.08007" stroke-width="0.5" stroke="black" fill="magenta"/>
  <circle cx="526.086" cy="571.232" r="4.33966" stroke-width="0.5" stroke="black" fill="magenta"/>
   </g>
   <g id="cell141">
  <circle cx="564.784" cy="452.717" r="7.53064" stroke-width="0.5" stroke="black" fill="cyan"/>
  <circle cx="564.784" cy="452.717" r="4.60007" stroke-width="0.5" stroke="black" fill="cyan"/>
   </g>
   <g id="cell142">
  <circle cx="551.642" cy="424.765" r="5.75311" stroke-width="0.5" stroke="black" fill="green"/>
  <circle cx="551.642" cy="424.765" r="3.53044" stroke-width="0.5" stroke="black" fill="green"/>
   </g>
   <g id="cell143">
  <circle cx="434.864" cy="408.802" r="7.29882" stroke-width="0.5" stroke="black" fill="magenta"/>
  <circle cx="434.864" cy="408.802" r="4.46845" stroke-width="0.5" stroke="black" fill="magenta"/>
   </g>
   <g id="cell144">
  <circle cx="545.251" cy="408.504" r="5.70614" stroke-width="0.5" stroke="black" fill="green"/>
  <circle cx="545.251" cy="408.504" r="3.49837" stroke-width="0.5" stroke="black" fill="green"/>
   </g>
   <g id="cell146">
  <circle cx="589.113" cy="549.412" r="2.35737" stroke-width="0.5" stroke="black" fill="cyan"/>
  <circle cx="589.113" cy="549.412" r="1.99152" stroke-width="0.5" stroke="black" fill="black"/>
   </g>
   <g id="cell147">
  <circle cx="519.343" cy="560.364" r="7.08007" stroke-width="0.5" stroke="black" fill="magenta"/>
  <circle cx="519.343" cy="560.364" r="4.33966" stroke-width="0.5" stroke="black" fill="magenta"/>
   </g>
   <g id="cell148">
  <circle cx="508.592" cy="466.138" r="7.4383" stroke-width="0.5" stroke="black" fill="magenta"/>
  <circle cx="508.592" cy="466.138" r="4.52782" stroke-width="0.5" stroke="black" fill="magenta"/>
   </g>
   <g id="cell149">
  <circle cx="577.233" cy="397.981" r="7.21189" stroke-width="0.5" stroke="black" fill="magenta"/>
  <circle cx="577.233" cy="397.981" r="4.37993" stroke-width="0.5" stroke="black" fill="magenta"/>
   </g>
   <g id="cell150">
  <circle cx="398.523" cy="580.363" r="7.08639" stroke-width="0.5" stroke="black" fill="green"/>
  <circle cx="398.523" cy="580.363" r="4.29876" stroke-width="0.5" stroke="black" fill="green"/>
   </g>
   <g id="cell151">
  <circle cx="420.983" cy="530.63" r="6.95901" stroke-width="0.5" stroke="black" fill="green"/>
  <circle cx="420.983" cy="530.63" r="4.21341" stroke-width="0.5" stroke="black" fill="green"/>
   </g>
   <g id="cell152">
  <circle cx="379.588" cy="577.805" r="5.9276" stroke-width="0.5" stroke="black" fill="green"/>
  <circle cx="379.588" cy="577.805" r="3.62449" stroke-width="0.5" stroke="black" fill="green"/>
   </g>
   <g id="cell153">
  <circle cx="559.504" cy="473.019" r="6.83713" stroke-width="0.5" stroke="black" fill="cyan"/>
  <circle cx="559.504" cy="473.019" r="4.12773" stroke-width="0.5" stroke="black" fill="cyan"/>
   </g>
   <g id="cell154">
  <circle cx="388.999" cy="592.831" r="4.96094" stroke-width="0.5" stroke="black" fill="green"/>
  <circle cx="388.999" cy="592.831" r="3.05327" stroke-width="0.5" stroke="black" fill="green"/>
   </g>
   <g id="cell155">
  <circle cx="484.717" cy="579.147" r="6.78181" stroke-width="0.5" stroke="black" fill="green"/>
  <circle cx="484.717" cy="579.147" r="4.08714" stroke-width="0.5" stroke="black" fill="green"/>
   </g>
   <g id="cell156">
  <circle cx="456.851" cy="526.565" r="6.77615" stroke-width="0.5" stroke="black" fill="magenta"/>
  <circle cx="456.851" cy="526.565" r="4.08539" stroke-width="0.5" stroke="black" fill="magenta"/>
   </g>
   <g id="cell157">
  <circle cx="441.934" cy="527.189" r="5.43103" stroke-width="0.5" stroke="black" fill="magenta"/>
  <circle cx="441.934" cy="527.189" r="3.28023" stroke-width="0.5" stroke="black" fill="magenta"/>
   </g>
   <g id="cell158">
  <circle cx="552.233" cy="414.718" r="5.75311" stroke-width="0.5" stroke="black" fill="green"/>
  <circle cx="552.233" cy="414.718" r="3.53044" stroke-width="0.5" stroke="black" fill="green"/>
   </g>
   <g id="cell159">
  <circle cx="537.177" cy="404.573" r="5.70614" stroke-width="0.5" stroke="black" fill="green"/>
  <circle cx="537.177" cy="404.573" r="3.49837" stroke-width="0.5" stroke="black" fill="green"/>
   </g>
  </g>
 </g>
  <rect x="775" y="1035" width="200" height="10" stroke-width="2" stroke="rgb(255,255,255)" fill="rgb(0,0,0)"/>
  <text x="781.25" y="1028.75"
   font-family="Arial" font-size="25" fill="black" >
   200 &#956;m
  </text>
  <text x="25" y="1045"
   font-family="Arial" font-size="18.75" fill="black" >
   0 days, 0 hours, 0 minutes, and 30.0663 seconds
  </text>
  <rect x="0" y="70" width="1000" height="1000" stroke-width="2" stroke="rgb(0,0,0)" fill="none"/>
</svg>
