<?xml version="1.0" encoding="UTF-8" standalone="no"?>
<!-- Created with PhysiCell (http://PhysiCell.MathCancer.org/) -->
<svg 
 xmlns:dc="http://purl.org/dc/elements/1.1/" 
 xmlns:cc="http://creativecommons.org/ns#" 
 xmlns:rdf="http://www.w3.org/1999/02/22-rdf-syntax-ns#" 
 xmlns:svg="http://www.w3.org/2000/svg" 
 xmlns="http://www.w3.org/2000/svg" 
 version="1.1" 
 width="1000" 
 height="1070" 
 id="svg2">
  <rect x="0" y="0" width="1000" height="1070" stroke-width="2" stroke="white" fill="white"/>
  <text x="12.5" y="30"
   font-family="Arial" font-size="25" fill="black" >
   Current time: 1 days, 2 hours, and 48.00 minutes, z = 0.00 &#956;m
  </text>
  <text x="12.5" y="57.5"
   font-family="Arial" font-size="23.75" fill="black" >
   160 agents
  </text>
 <g id="tissue" 
    transform="translate(0,1070) scale(1,-1)">
  <g id="ECM">
  </g>
  <g id="cells">
   <g id="cell0">
  <circle cx="514.887" cy="534.542" r="8.40873" stroke-width="0.5" stroke="black" fill="magenta"/>
  <circle cx="514.887" cy="534.542" r="5.05054" stroke-width="0.5" stroke="black" fill="magenta"/>
   </g>
   <g id="cell1">
  <circle cx="601.473" cy="523.132" r="8.41271" stroke-width="0.5" stroke="black" fill="magenta"/>
  <circle cx="601.473" cy="523.132" r="5.05167" stroke-width="0.5" stroke="black" fill="magenta"/>
   </g>
   <g id="cell2">
  <circle cx="518.925" cy="598.084" r="8.41271" stroke-width="0.5" stroke="black" fill="magenta"/>
  <circle cx="518.925" cy="598.084" r="5.05167" stroke-width="0.5" stroke="black" fill="magenta"/>
   </g>
   <g id="cell3">
  <circle cx="523.863" cy="546.849" r="8.40621" stroke-width="0.5" stroke="black" fill="magenta"/>
  <circle cx="523.863" cy="546.849" r="5.04979" stroke-width="0.5" stroke="black" fill="magenta"/>
   </g>
   <g id="cell4">
  <circle cx="485.548" cy="448.198" r="8.32208" stroke-width="0.5" stroke="black" fill="magenta"/>
  <circle cx="485.548" cy="448.198" r="5.0148" stroke-width="0.5" stroke="black" fill="magenta"/>
   </g>
   <g id="cell5">
  <circle cx="465.032" cy="493.3" r="8.41271" stroke-width="0.5" stroke="black" fill="magenta"/>
  <circle cx="465.032" cy="493.3" r="5.05167" stroke-width="0.5" stroke="black" fill="magenta"/>
   </g>
   <g id="cell163">
  <circle cx="533.556" cy="579.263" r="6.75477" stroke-width="0.5" stroke="black" fill="green"/>
  <circle cx="533.556" cy="579.263" r="4.06769" stroke-width="0.5" stroke="black" fill="green"/>
   </g>
   <g id="cell7">
  <circle cx="495.745" cy="459.077" r="8.38206" stroke-width="0.5" stroke="black" fill="magenta"/>
  <circle cx="495.745" cy="459.077" r="5.04069" stroke-width="0.5" stroke="black" fill="magenta"/>
   </g>
   <g id="cell8">
  <circle cx="377.071" cy="548.294" r="6.75639" stroke-width="0.5" stroke="black" fill="magenta"/>
  <circle cx="377.071" cy="548.294" r="4.06813" stroke-width="0.5" stroke="black" fill="magenta"/>
   </g>
   <g id="cell9">
  <circle cx="460.472" cy="599.786" r="1.19198" stroke-width="0.5" stroke="black" fill="magenta"/>
  <circle cx="460.472" cy="599.786" r="1.1876" stroke-width="0.5" stroke="black" fill="black"/>
   </g>
   <g id="cell10">
  <circle cx="586.832" cy="388.873" r="7.63698" stroke-width="0.5" stroke="black" fill="magenta"/>
  <circle cx="586.832" cy="388.873" r="4.64085" stroke-width="0.5" stroke="black" fill="magenta"/>
   </g>
   <g id="cell11">
  <circle cx="592.086" cy="590.052" r="8.41271" stroke-width="0.5" stroke="black" fill="magenta"/>
  <circle cx="592.086" cy="590.052" r="5.05167" stroke-width="0.5" stroke="black" fill="magenta"/>
   </g>
   <g id="cell12">
  <circle cx="505.313" cy="592.034" r="8.15353" stroke-width="0.5" stroke="black" fill="magenta"/>
  <circle cx="505.313" cy="592.034" r="4.93122" stroke-width="0.5" stroke="black" fill="magenta"/>
   </g>
   <g id="cell13">
  <circle cx="389.39" cy="569.45" r="8.41271" stroke-width="0.5" stroke="black" fill="magenta"/>
  <circle cx="389.39" cy="569.45" r="5.05167" stroke-width="0.5" stroke="black" fill="magenta"/>
   </g>
   <g id="cell14">
  <circle cx="522.152" cy="404.066" r="8.41271" stroke-width="0.5" stroke="black" fill="magenta"/>
  <circle cx="522.152" cy="404.066" r="5.05167" stroke-width="0.5" stroke="black" fill="magenta"/>
   </g>
   <g id="cell15">
  <circle cx="381.846" cy="478.975" r="8.27097" stroke-width="0.5" stroke="black" fill="magenta"/>
  <circle cx="381.846" cy="478.975" r="4.99048" stroke-width="0.5" stroke="black" fill="magenta"/>
   </g>
   <g id="cell16">
  <circle cx="438.294" cy="421.863" r="7.53266" stroke-width="0.5" stroke="black" fill="magenta"/>
  <circle cx="438.294" cy="421.863" r="4.61119" stroke-width="0.5" stroke="black" fill="magenta"/>
   </g>
   <g id="cell17">
  <circle cx="571.433" cy="496.445" r="8.41271" stroke-width="0.5" stroke="black" fill="magenta"/>
  <circle cx="571.433" cy="496.445" r="5.05167" stroke-width="0.5" stroke="black" fill="magenta"/>
   </g>
   <g id="cell18">
  <circle cx="517.998" cy="389.378" r="8.41271" stroke-width="0.5" stroke="black" fill="magenta"/>
  <circle cx="517.998" cy="389.378" r="5.05167" stroke-width="0.5" stroke="black" fill="magenta"/>
   </g>
   <g id="cell19">
  <circle cx="457.988" cy="540.641" r="8.38137" stroke-width="0.5" stroke="black" fill="magenta"/>
  <circle cx="457.988" cy="540.641" r="5.04067" stroke-width="0.5" stroke="black" fill="magenta"/>
   </g>
   <g id="cell20">
  <circle cx="531.987" cy="415.648" r="8.41271" stroke-width="0.5" stroke="black" fill="magenta"/>
  <circle cx="531.987" cy="415.648" r="5.05167" stroke-width="0.5" stroke="black" fill="magenta"/>
   </g>
   <g id="cell21">
  <circle cx="466.873" cy="632.274" r="8.41271" stroke-width="0.5" stroke="black" fill="magenta"/>
  <circle cx="466.873" cy="632.274" r="5.05167" stroke-width="0.5" stroke="black" fill="magenta"/>
   </g>
   <g id="cell22">
  <circle cx="556.006" cy="496.707" r="8.41271" stroke-width="0.5" stroke="black" fill="magenta"/>
  <circle cx="556.006" cy="496.707" r="5.05167" stroke-width="0.5" stroke="black" fill="magenta"/>
   </g>
   <g id="cell23">
  <circle cx="548.912" cy="482.569" r="8.41271" stroke-width="0.5" stroke="black" fill="magenta"/>
  <circle cx="548.912" cy="482.569" r="5.05167" stroke-width="0.5" stroke="black" fill="magenta"/>
   </g>
   <g id="cell24">
  <circle cx="557.987" cy="381.702" r="8.41271" stroke-width="0.5" stroke="black" fill="magenta"/>
  <circle cx="557.987" cy="381.702" r="5.05167" stroke-width="0.5" stroke="black" fill="magenta"/>
   </g>
   <g id="cell25">
  <circle cx="648.427" cy="543.07" r="8.41023" stroke-width="0.5" stroke="black" fill="green"/>
  <circle cx="648.427" cy="543.07" r="5.051" stroke-width="0.5" stroke="black" fill="green"/>
   </g>
   <g id="cell26">
  <circle cx="557.404" cy="397.263" r="8.38118" stroke-width="0.5" stroke="black" fill="green"/>
  <circle cx="557.404" cy="397.263" r="5.04034" stroke-width="0.5" stroke="black" fill="green"/>
   </g>
   <g id="cell27">
  <circle cx="464.728" cy="400.61" r="8.41116" stroke-width="0.5" stroke="black" fill="green"/>
  <circle cx="464.728" cy="400.61" r="5.05127" stroke-width="0.5" stroke="black" fill="green"/>
   </g>
   <g id="cell28">
  <circle cx="434.507" cy="535.012" r="7.44242" stroke-width="0.5" stroke="black" fill="green"/>
  <circle cx="434.507" cy="535.012" r="4.52373" stroke-width="0.5" stroke="black" fill="green"/>
   </g>
   <g id="cell29">
  <circle cx="450.069" cy="513.264" r="8.41271" stroke-width="0.5" stroke="black" fill="green"/>
  <circle cx="450.069" cy="513.264" r="5.05167" stroke-width="0.5" stroke="black" fill="green"/>
   </g>
   <g id="cell30">
  <circle cx="484.73" cy="537.054" r="8.11002" stroke-width="0.5" stroke="black" fill="green"/>
  <circle cx="484.73" cy="537.054" r="4.90906" stroke-width="0.5" stroke="black" fill="green"/>
   </g>
   <g id="cell31">
  <circle cx="412.097" cy="542.395" r="8.41271" stroke-width="0.5" stroke="black" fill="green"/>
  <circle cx="412.097" cy="542.395" r="5.05167" stroke-width="0.5" stroke="black" fill="green"/>
   </g>
   <g id="cell32">
  <circle cx="421.367" cy="481.396" r="1.43044" stroke-width="0.5" stroke="black" fill="green"/>
  <circle cx="421.367" cy="481.396" r="1.41583" stroke-width="0.5" stroke="black" fill="black"/>
   </g>
   <g id="cell33">
  <circle cx="501.937" cy="424.41" r="8.05651" stroke-width="0.5" stroke="black" fill="green"/>
  <circle cx="501.937" cy="424.41" r="4.87966" stroke-width="0.5" stroke="black" fill="green"/>
   </g>
   <g id="cell34">
  <circle cx="396.819" cy="450.575" r="1.47065" stroke-width="0.5" stroke="black" fill="green"/>
  <circle cx="396.819" cy="450.575" r="1.45328" stroke-width="0.5" stroke="black" fill="black"/>
   </g>
   <g id="cell35">
  <circle cx="554.423" cy="545.071" r="8.41271" stroke-width="0.5" stroke="black" fill="green"/>
  <circle cx="554.423" cy="545.071" r="5.05167" stroke-width="0.5" stroke="black" fill="green"/>
   </g>
   <g id="cell36">
  <circle cx="387.744" cy="582.813" r="6.31461" stroke-width="0.5" stroke="black" fill="green"/>
  <circle cx="387.744" cy="582.813" r="3.90067" stroke-width="0.5" stroke="black" fill="green"/>
   </g>
   <g id="cell37">
  <circle cx="640.17" cy="457.169" r="8.41093" stroke-width="0.5" stroke="black" fill="green"/>
  <circle cx="640.17" cy="457.169" r="5.0512" stroke-width="0.5" stroke="black" fill="green"/>
   </g>
   <g id="cell38">
  <circle cx="530.567" cy="591.028" r="6.75477" stroke-width="0.5" stroke="black" fill="green"/>
  <circle cx="530.567" cy="591.028" r="4.06769" stroke-width="0.5" stroke="black" fill="green"/>
   </g>
   <g id="cell39">
  <circle cx="613.248" cy="491.018" r="8.41271" stroke-width="0.5" stroke="black" fill="green"/>
  <circle cx="613.248" cy="491.018" r="5.05167" stroke-width="0.5" stroke="black" fill="green"/>
   </g>
   <g id="cell40">
  <circle cx="485.802" cy="566.978" r="7.27253" stroke-width="0.5" stroke="black" fill="green"/>
  <circle cx="485.802" cy="566.978" r="4.41835" stroke-width="0.5" stroke="black" fill="green"/>
   </g>
   <g id="cell41">
  <circle cx="366.57" cy="482.067" r="8.41271" stroke-width="0.5" stroke="black" fill="green"/>
  <circle cx="366.57" cy="482.067" r="5.05167" stroke-width="0.5" stroke="black" fill="green"/>
   </g>
   <g id="cell42">
  <circle cx="438.543" cy="492.752" r="8.41271" stroke-width="0.5" stroke="black" fill="green"/>
  <circle cx="438.543" cy="492.752" r="5.05167" stroke-width="0.5" stroke="black" fill="green"/>
   </g>
   <g id="cell43">
  <circle cx="561.051" cy="438.061" r="8.41271" stroke-width="0.5" stroke="black" fill="green"/>
  <circle cx="561.051" cy="438.061" r="5.05167" stroke-width="0.5" stroke="black" fill="green"/>
   </g>
   <g id="cell44">
  <circle cx="473.353" cy="626.321" r="1.19198" stroke-width="0.5" stroke="black" fill="green"/>
  <circle cx="473.353" cy="626.321" r="1.1876" stroke-width="0.5" stroke="black" fill="black"/>
   </g>
   <g id="cell145">
  <circle cx="425.351" cy="418.049" r="7.53266" stroke-width="0.5" stroke="black" fill="magenta"/>
  <circle cx="425.351" cy="418.049" r="4.61119" stroke-width="0.5" stroke="black" fill="magenta"/>
   </g>
   <g id="cell46">
  <circle cx="521.044" cy="613.455" r="8.39874" stroke-width="0.5" stroke="black" fill="green"/>
  <circle cx="521.044" cy="613.455" r="5.04711" stroke-width="0.5" stroke="black" fill="green"/>
   </g>
   <g id="cell47">
  <circle cx="503.175" cy="494.568" r="8.40403" stroke-width="0.5" stroke="black" fill="green"/>
  <circle cx="503.175" cy="494.568" r="5.04898" stroke-width="0.5" stroke="black" fill="green"/>
   </g>
   <g id="cell48">
  <circle cx="570.952" cy="604.809" r="8.38074" stroke-width="0.5" stroke="black" fill="green"/>
  <circle cx="570.952" cy="604.809" r="5.0407" stroke-width="0.5" stroke="black" fill="green"/>
   </g>
   <g id="cell49">
  <circle cx="432.056" cy="393.931" r="8.41271" stroke-width="0.5" stroke="black" fill="green"/>
  <circle cx="432.056" cy="393.931" r="5.05167" stroke-width="0.5" stroke="black" fill="green"/>
   </g>
   <g id="cell50">
  <circle cx="512.513" cy="507.795" r="8.36787" stroke-width="0.5" stroke="black" fill="cyan"/>
  <circle cx="512.513" cy="507.795" r="5.03511" stroke-width="0.5" stroke="black" fill="cyan"/>
   </g>
   <g id="cell51">
  <circle cx="401.748" cy="597.096" r="8.41271" stroke-width="0.5" stroke="black" fill="cyan"/>
  <circle cx="401.748" cy="597.096" r="5.05167" stroke-width="0.5" stroke="black" fill="cyan"/>
   </g>
   <g id="cell52">
  <circle cx="516.68" cy="418.976" r="8.41271" stroke-width="0.5" stroke="black" fill="cyan"/>
  <circle cx="516.68" cy="418.976" r="5.05167" stroke-width="0.5" stroke="black" fill="cyan"/>
   </g>
   <g id="cell53">
  <circle cx="572.497" cy="427.007" r="8.4009" stroke-width="0.5" stroke="black" fill="cyan"/>
  <circle cx="572.497" cy="427.007" r="5.04788" stroke-width="0.5" stroke="black" fill="cyan"/>
   </g>
   <g id="cell54">
  <circle cx="480.468" cy="422.137" r="8.40557" stroke-width="0.5" stroke="black" fill="cyan"/>
  <circle cx="480.468" cy="422.137" r="5.04951" stroke-width="0.5" stroke="black" fill="cyan"/>
   </g>
   <g id="cell55">
  <circle cx="522.21" cy="461.399" r="8.40145" stroke-width="0.5" stroke="black" fill="cyan"/>
  <circle cx="522.21" cy="461.399" r="5.04817" stroke-width="0.5" stroke="black" fill="cyan"/>
   </g>
   <g id="cell56">
  <circle cx="617.058" cy="522.404" r="8.41271" stroke-width="0.5" stroke="black" fill="cyan"/>
  <circle cx="617.058" cy="522.404" r="5.05167" stroke-width="0.5" stroke="black" fill="cyan"/>
   </g>
   <g id="cell105">
  <circle cx="506.877" cy="607.048" r="8.02419" stroke-width="0.5" stroke="black" fill="green"/>
  <circle cx="506.877" cy="607.048" r="4.86733" stroke-width="0.5" stroke="black" fill="green"/>
   </g>
   <g id="cell58">
  <circle cx="563.32" cy="484.813" r="7.33129" stroke-width="0.5" stroke="black" fill="cyan"/>
  <circle cx="563.32" cy="484.813" r="4.45516" stroke-width="0.5" stroke="black" fill="cyan"/>
   </g>
   <g id="cell59">
  <circle cx="385.732" cy="440.058" r="8.41271" stroke-width="0.5" stroke="black" fill="cyan"/>
  <circle cx="385.732" cy="440.058" r="5.05167" stroke-width="0.5" stroke="black" fill="cyan"/>
   </g>
   <g id="cell60">
  <circle cx="591.617" cy="474.022" r="8.41271" stroke-width="0.5" stroke="black" fill="cyan"/>
  <circle cx="591.617" cy="474.022" r="5.05167" stroke-width="0.5" stroke="black" fill="cyan"/>
   </g>
   <g id="cell61">
  <circle cx="557.056" cy="621.932" r="2.04991" stroke-width="0.5" stroke="black" fill="cyan"/>
  <circle cx="557.056" cy="621.932" r="1.93256" stroke-width="0.5" stroke="black" fill="black"/>
   </g>
   <g id="cell62">
  <circle cx="512.566" cy="435.455" r="8.34435" stroke-width="0.5" stroke="black" fill="cyan"/>
  <circle cx="512.566" cy="435.455" r="5.02483" stroke-width="0.5" stroke="black" fill="cyan"/>
   </g>
   <g id="cell63">
  <circle cx="585.253" cy="539.966" r="8.25601" stroke-width="0.5" stroke="black" fill="cyan"/>
  <circle cx="585.253" cy="539.966" r="4.98363" stroke-width="0.5" stroke="black" fill="cyan"/>
   </g>
   <g id="cell64">
  <circle cx="509.674" cy="638.585" r="8.41271" stroke-width="0.5" stroke="black" fill="cyan"/>
  <circle cx="509.674" cy="638.585" r="5.05167" stroke-width="0.5" stroke="black" fill="cyan"/>
   </g>
   <g id="cell65">
  <circle cx="548.409" cy="464.607" r="8.40788" stroke-width="0.5" stroke="black" fill="cyan"/>
  <circle cx="548.409" cy="464.607" r="5.05027" stroke-width="0.5" stroke="black" fill="cyan"/>
   </g>
   <g id="cell66">
  <circle cx="530.445" cy="533.22" r="8.40516" stroke-width="0.5" stroke="black" fill="cyan"/>
  <circle cx="530.445" cy="533.22" r="5.04937" stroke-width="0.5" stroke="black" fill="cyan"/>
   </g>
   <g id="cell67">
  <circle cx="354.547" cy="492.954" r="8.41271" stroke-width="0.5" stroke="black" fill="cyan"/>
  <circle cx="354.547" cy="492.954" r="5.05167" stroke-width="0.5" stroke="black" fill="cyan"/>
   </g>
   <g id="cell68">
  <circle cx="562.926" cy="558.325" r="8.41271" stroke-width="0.5" stroke="black" fill="cyan"/>
  <circle cx="562.926" cy="558.325" r="5.05167" stroke-width="0.5" stroke="black" fill="cyan"/>
   </g>
   <g id="cell69">
  <circle cx="441.943" cy="460.905" r="8.41271" stroke-width="0.5" stroke="black" fill="cyan"/>
  <circle cx="441.943" cy="460.905" r="5.05167" stroke-width="0.5" stroke="black" fill="cyan"/>
   </g>
   <g id="cell70">
  <circle cx="577.582" cy="481.622" r="8.41271" stroke-width="0.5" stroke="black" fill="cyan"/>
  <circle cx="577.582" cy="481.622" r="5.05167" stroke-width="0.5" stroke="black" fill="cyan"/>
   </g>
   <g id="cell71">
  <circle cx="382.75" cy="525.091" r="8.38532" stroke-width="0.5" stroke="black" fill="cyan"/>
  <circle cx="382.75" cy="525.091" r="5.04199" stroke-width="0.5" stroke="black" fill="cyan"/>
   </g>
   <g id="cell72">
  <circle cx="528.431" cy="506.289" r="8.40576" stroke-width="0.5" stroke="black" fill="cyan"/>
  <circle cx="528.431" cy="506.289" r="5.04957" stroke-width="0.5" stroke="black" fill="cyan"/>
   </g>
   <g id="cell73">
  <circle cx="363.98" cy="553.378" r="8.40884" stroke-width="0.5" stroke="black" fill="cyan"/>
  <circle cx="363.98" cy="553.378" r="5.05057" stroke-width="0.5" stroke="black" fill="cyan"/>
   </g>
   <g id="cell162">
  <circle cx="374.565" cy="536.429" r="6.75639" stroke-width="0.5" stroke="black" fill="magenta"/>
  <circle cx="374.565" cy="536.429" r="4.06813" stroke-width="0.5" stroke="black" fill="magenta"/>
   </g>
   <g id="cell75">
  <circle cx="527.671" cy="430.467" r="8.41121" stroke-width="0.5" stroke="black" fill="cyan"/>
  <circle cx="527.671" cy="430.467" r="5.05128" stroke-width="0.5" stroke="black" fill="cyan"/>
   </g>
   <g id="cell76">
  <circle cx="439.039" cy="379.692" r="8.39017" stroke-width="0.5" stroke="black" fill="green"/>
  <circle cx="439.039" cy="379.692" r="5.04426" stroke-width="0.5" stroke="black" fill="green"/>
   </g>
   <g id="cell77">
  <circle cx="475.653" cy="436.948" r="8.39536" stroke-width="0.5" stroke="black" fill="magenta"/>
  <circle cx="475.653" cy="436.948" r="5.04595" stroke-width="0.5" stroke="black" fill="magenta"/>
   </g>
   <g id="cell78">
  <circle cx="624.875" cy="461.918" r="8.40699" stroke-width="0.5" stroke="black" fill="green"/>
  <circle cx="624.875" cy="461.918" r="5.05003" stroke-width="0.5" stroke="black" fill="green"/>
   </g>
   <g id="cell79">
  <circle cx="517.232" cy="477.838" r="8.41072" stroke-width="0.5" stroke="black" fill="cyan"/>
  <circle cx="517.232" cy="477.838" r="5.05114" stroke-width="0.5" stroke="black" fill="cyan"/>
   </g>
   <g id="cell80">
  <circle cx="543.286" cy="616.632" r="8.34348" stroke-width="0.5" stroke="black" fill="green"/>
  <circle cx="543.286" cy="616.632" r="5.02459" stroke-width="0.5" stroke="black" fill="green"/>
   </g>
   <g id="cell81">
  <circle cx="545.12" cy="593.022" r="8.4095" stroke-width="0.5" stroke="black" fill="green"/>
  <circle cx="545.12" cy="593.022" r="5.05081" stroke-width="0.5" stroke="black" fill="green"/>
   </g>
   <g id="cell82">
  <circle cx="531.969" cy="559.237" r="7.98754" stroke-width="0.5" stroke="black" fill="magenta"/>
  <circle cx="531.969" cy="559.237" r="4.84233" stroke-width="0.5" stroke="black" fill="magenta"/>
   </g>
   <g id="cell83">
  <circle cx="635.362" cy="552.135" r="8.29866" stroke-width="0.5" stroke="black" fill="green"/>
  <circle cx="635.362" cy="552.135" r="5.00398" stroke-width="0.5" stroke="black" fill="green"/>
   </g>
   <g id="cell84">
  <circle cx="518.979" cy="493.558" r="8.40905" stroke-width="0.5" stroke="black" fill="cyan"/>
  <circle cx="518.979" cy="493.558" r="5.05064" stroke-width="0.5" stroke="black" fill="cyan"/>
   </g>
   <g id="cell85">
  <circle cx="352.347" cy="542.45" r="8.40184" stroke-width="0.5" stroke="black" fill="cyan"/>
  <circle cx="352.347" cy="542.45" r="5.04835" stroke-width="0.5" stroke="black" fill="cyan"/>
   </g>
   <g id="cell86">
  <circle cx="499.894" cy="535.625" r="8.33497" stroke-width="0.5" stroke="black" fill="magenta"/>
  <circle cx="499.894" cy="535.625" r="5.02082" stroke-width="0.5" stroke="black" fill="magenta"/>
   </g>
   <g id="cell87">
  <circle cx="578.957" cy="557.024" r="8.39733" stroke-width="0.5" stroke="black" fill="cyan"/>
  <circle cx="578.957" cy="557.024" r="5.04676" stroke-width="0.5" stroke="black" fill="cyan"/>
   </g>
   <g id="cell88">
  <circle cx="446.945" cy="533.936" r="6.42048" stroke-width="0.5" stroke="black" fill="magenta"/>
  <circle cx="446.945" cy="533.936" r="3.94073" stroke-width="0.5" stroke="black" fill="magenta"/>
   </g>
   <g id="cell89">
  <circle cx="551.153" cy="449.68" r="7.86453" stroke-width="0.5" stroke="black" fill="cyan"/>
  <circle cx="551.153" cy="449.68" r="4.78585" stroke-width="0.5" stroke="black" fill="cyan"/>
   </g>
   <g id="cell90">
  <circle cx="636.615" cy="472.671" r="8.30017" stroke-width="0.5" stroke="black" fill="green"/>
  <circle cx="636.615" cy="472.671" r="5.00498" stroke-width="0.5" stroke="black" fill="green"/>
   </g>
   <g id="cell91">
  <circle cx="547.058" cy="558.857" r="8.40325" stroke-width="0.5" stroke="black" fill="magenta"/>
  <circle cx="547.058" cy="558.857" r="5.04888" stroke-width="0.5" stroke="black" fill="magenta"/>
   </g>
   <g id="cell92">
  <circle cx="486.413" cy="552.351" r="8.40667" stroke-width="0.5" stroke="black" fill="green"/>
  <circle cx="486.413" cy="552.351" r="5.04987" stroke-width="0.5" stroke="black" fill="green"/>
   </g>
   <g id="cell93">
  <circle cx="538.956" cy="546.146" r="8.40325" stroke-width="0.5" stroke="black" fill="magenta"/>
  <circle cx="538.956" cy="546.146" r="5.04888" stroke-width="0.5" stroke="black" fill="magenta"/>
   </g>
   <g id="cell94">
  <circle cx="540.843" cy="496.384" r="8.40576" stroke-width="0.5" stroke="black" fill="cyan"/>
  <circle cx="540.843" cy="496.384" r="5.04957" stroke-width="0.5" stroke="black" fill="cyan"/>
   </g>
   <g id="cell95">
  <circle cx="464.858" cy="425.796" r="8.40557" stroke-width="0.5" stroke="black" fill="cyan"/>
  <circle cx="464.858" cy="425.796" r="5.04951" stroke-width="0.5" stroke="black" fill="cyan"/>
   </g>
   <g id="cell96">
  <circle cx="545.877" cy="532.152" r="8.19691" stroke-width="0.5" stroke="black" fill="cyan"/>
  <circle cx="545.877" cy="532.152" r="4.95438" stroke-width="0.5" stroke="black" fill="cyan"/>
   </g>
   <g id="cell97">
  <circle cx="421.749" cy="466.601" r="8.39833" stroke-width="0.5" stroke="black" fill="green"/>
  <circle cx="421.749" cy="466.601" r="5.04716" stroke-width="0.5" stroke="black" fill="green"/>
   </g>
   <g id="cell98">
  <circle cx="490.822" cy="523.138" r="8.31848" stroke-width="0.5" stroke="black" fill="green"/>
  <circle cx="490.822" cy="523.138" r="5.01364" stroke-width="0.5" stroke="black" fill="green"/>
   </g>
   <g id="cell99">
  <circle cx="358.447" cy="527.675" r="8.40184" stroke-width="0.5" stroke="black" fill="cyan"/>
  <circle cx="358.447" cy="527.675" r="5.04835" stroke-width="0.5" stroke="black" fill="cyan"/>
   </g>
   <g id="cell100">
  <circle cx="447.225" cy="399.089" r="8.40167" stroke-width="0.5" stroke="black" fill="green"/>
  <circle cx="447.225" cy="399.089" r="5.04823" stroke-width="0.5" stroke="black" fill="green"/>
   </g>
   <g id="cell101">
  <circle cx="531.522" cy="484.288" r="8.17582" stroke-width="0.5" stroke="black" fill="cyan"/>
  <circle cx="531.522" cy="484.288" r="4.94395" stroke-width="0.5" stroke="black" fill="cyan"/>
   </g>
   <g id="cell102">
  <circle cx="435.134" cy="475.485" r="8.39833" stroke-width="0.5" stroke="black" fill="green"/>
  <circle cx="435.134" cy="475.485" r="5.04716" stroke-width="0.5" stroke="black" fill="green"/>
   </g>
   <g id="cell103">
  <circle cx="591.205" cy="447.849" r="8.3331" stroke-width="0.5" stroke="black" fill="cyan"/>
  <circle cx="591.205" cy="447.849" r="5.02042" stroke-width="0.5" stroke="black" fill="cyan"/>
   </g>
   <g id="cell104">
  <circle cx="599.646" cy="556.879" r="7.82132" stroke-width="0.5" stroke="black" fill="cyan"/>
  <circle cx="599.646" cy="556.879" r="4.75047" stroke-width="0.5" stroke="black" fill="cyan"/>
   </g>
   <g id="cell106">
  <circle cx="461.115" cy="440.946" r="8.39536" stroke-width="0.5" stroke="black" fill="magenta"/>
  <circle cx="461.115" cy="440.946" r="5.04595" stroke-width="0.5" stroke="black" fill="magenta"/>
   </g>
   <g id="cell107">
  <circle cx="460.475" cy="388.272" r="5.71492" stroke-width="0.5" stroke="black" fill="green"/>
  <circle cx="460.475" cy="388.272" r="3.49277" stroke-width="0.5" stroke="black" fill="green"/>
   </g>
   <g id="cell108">
  <circle cx="554.974" cy="605.748" r="8.3926" stroke-width="0.5" stroke="black" fill="green"/>
  <circle cx="554.974" cy="605.748" r="5.04482" stroke-width="0.5" stroke="black" fill="green"/>
   </g>
   <g id="cell109">
  <circle cx="576.518" cy="589.845" r="8.38074" stroke-width="0.5" stroke="black" fill="green"/>
  <circle cx="576.518" cy="589.845" r="5.0407" stroke-width="0.5" stroke="black" fill="green"/>
   </g>
   <g id="cell110">
  <circle cx="373.06" cy="512.526" r="8.38532" stroke-width="0.5" stroke="black" fill="cyan"/>
  <circle cx="373.06" cy="512.526" r="5.04199" stroke-width="0.5" stroke="black" fill="cyan"/>
   </g>
   <g id="cell111">
  <circle cx="455.548" cy="555.282" r="8.17181" stroke-width="0.5" stroke="black" fill="magenta"/>
  <circle cx="455.548" cy="555.282" r="4.94334" stroke-width="0.5" stroke="black" fill="magenta"/>
   </g>
   <g id="cell112">
  <circle cx="496.462" cy="473.697" r="7.79541" stroke-width="0.5" stroke="black" fill="magenta"/>
  <circle cx="496.462" cy="473.697" r="4.7371" stroke-width="0.5" stroke="black" fill="magenta"/>
   </g>
   <g id="cell113">
  <circle cx="543.364" cy="390.947" r="7.93283" stroke-width="0.5" stroke="black" fill="green"/>
  <circle cx="543.364" cy="390.947" r="4.8149" stroke-width="0.5" stroke="black" fill="green"/>
   </g>
   <g id="cell114">
  <circle cx="524.232" cy="445.77" r="8.3595" stroke-width="0.5" stroke="black" fill="cyan"/>
  <circle cx="524.232" cy="445.77" r="5.03226" stroke-width="0.5" stroke="black" fill="cyan"/>
   </g>
   <g id="cell115">
  <circle cx="536.718" cy="454.639" r="8.21676" stroke-width="0.5" stroke="black" fill="cyan"/>
  <circle cx="536.718" cy="454.639" r="4.96731" stroke-width="0.5" stroke="black" fill="cyan"/>
   </g>
   <g id="cell116">
  <circle cx="521.543" cy="520.527" r="8.36787" stroke-width="0.5" stroke="black" fill="cyan"/>
  <circle cx="521.543" cy="520.527" r="5.03511" stroke-width="0.5" stroke="black" fill="cyan"/>
   </g>
   <g id="cell117">
  <circle cx="508.293" cy="622.669" r="8.35325" stroke-width="0.5" stroke="black" fill="green"/>
  <circle cx="508.293" cy="622.669" r="5.02933" stroke-width="0.5" stroke="black" fill="green"/>
   </g>
   <g id="cell118">
  <circle cx="509.388" cy="451.321" r="8.34435" stroke-width="0.5" stroke="black" fill="cyan"/>
  <circle cx="509.388" cy="451.321" r="5.02483" stroke-width="0.5" stroke="black" fill="cyan"/>
   </g>
   <g id="cell119">
  <circle cx="533.68" cy="604.399" r="8.34348" stroke-width="0.5" stroke="black" fill="green"/>
  <circle cx="533.68" cy="604.399" r="5.02459" stroke-width="0.5" stroke="black" fill="green"/>
   </g>
   <g id="cell120">
  <circle cx="576.361" cy="442.415" r="8.3331" stroke-width="0.5" stroke="black" fill="cyan"/>
  <circle cx="576.361" cy="442.415" r="5.02042" stroke-width="0.5" stroke="black" fill="cyan"/>
   </g>
   <g id="cell121">
  <circle cx="451.411" cy="369.171" r="8.24267" stroke-width="0.5" stroke="black" fill="green"/>
  <circle cx="451.411" cy="369.171" r="4.98083" stroke-width="0.5" stroke="black" fill="green"/>
   </g>
   <g id="cell122">
  <circle cx="506.186" cy="521.98" r="8.33497" stroke-width="0.5" stroke="black" fill="magenta"/>
  <circle cx="506.186" cy="521.98" r="5.02082" stroke-width="0.5" stroke="black" fill="magenta"/>
   </g>
   <g id="cell123">
  <circle cx="497.063" cy="509.092" r="8.31848" stroke-width="0.5" stroke="black" fill="green"/>
  <circle cx="497.063" cy="509.092" r="5.01364" stroke-width="0.5" stroke="black" fill="green"/>
   </g>
   <g id="cell124">
  <circle cx="490.376" cy="434.069" r="8.32208" stroke-width="0.5" stroke="black" fill="magenta"/>
  <circle cx="490.376" cy="434.069" r="5.0148" stroke-width="0.5" stroke="black" fill="magenta"/>
   </g>
   <g id="cell125">
  <circle cx="621.57" cy="477.471" r="8.30017" stroke-width="0.5" stroke="black" fill="green"/>
  <circle cx="621.57" cy="477.471" r="5.00498" stroke-width="0.5" stroke="black" fill="green"/>
   </g>
   <g id="cell126">
  <circle cx="628.9" cy="566.546" r="8.29866" stroke-width="0.5" stroke="black" fill="green"/>
  <circle cx="628.9" cy="566.546" r="5.00398" stroke-width="0.5" stroke="black" fill="green"/>
   </g>
   <g id="cell127">
  <circle cx="438.085" cy="361.31" r="8.24267" stroke-width="0.5" stroke="black" fill="green"/>
  <circle cx="438.085" cy="361.31" r="4.98083" stroke-width="0.5" stroke="black" fill="green"/>
   </g>
   <g id="cell128">
  <circle cx="372.234" cy="467.649" r="8.27097" stroke-width="0.5" stroke="black" fill="magenta"/>
  <circle cx="372.234" cy="467.649" r="4.99048" stroke-width="0.5" stroke="black" fill="magenta"/>
   </g>
   <g id="cell129">
  <circle cx="570.111" cy="543.966" r="8.25601" stroke-width="0.5" stroke="black" fill="cyan"/>
  <circle cx="570.111" cy="543.966" r="4.98363" stroke-width="0.5" stroke="black" fill="cyan"/>
   </g>
   <g id="cell130">
  <circle cx="540.668" cy="439.047" r="8.21676" stroke-width="0.5" stroke="black" fill="cyan"/>
  <circle cx="540.668" cy="439.047" r="4.96731" stroke-width="0.5" stroke="black" fill="cyan"/>
   </g>
   <g id="cell131">
  <circle cx="537.327" cy="519.182" r="8.19691" stroke-width="0.5" stroke="black" fill="cyan"/>
  <circle cx="537.327" cy="519.182" r="4.95438" stroke-width="0.5" stroke="black" fill="cyan"/>
   </g>
   <g id="cell132">
  <circle cx="443.89" cy="546.385" r="8.17181" stroke-width="0.5" stroke="black" fill="magenta"/>
  <circle cx="443.89" cy="546.385" r="4.94334" stroke-width="0.5" stroke="black" fill="magenta"/>
   </g>
   <g id="cell133">
  <circle cx="573.626" cy="466.037" r="8.18578" stroke-width="0.5" stroke="black" fill="cyan"/>
  <circle cx="573.626" cy="466.037" r="4.94845" stroke-width="0.5" stroke="black" fill="cyan"/>
   </g>
   <g id="cell134">
  <circle cx="534.65" cy="469.945" r="7.43868" stroke-width="0.5" stroke="black" fill="cyan"/>
  <circle cx="534.65" cy="469.945" r="4.52393" stroke-width="0.5" stroke="black" fill="black"/>
   </g>
   <g id="cell135">
  <circle cx="517.275" cy="583.28" r="8.15353" stroke-width="0.5" stroke="black" fill="magenta"/>
  <circle cx="517.275" cy="583.28" r="4.93122" stroke-width="0.5" stroke="black" fill="magenta"/>
   </g>
   <g id="cell136">
  <circle cx="472.174" cy="545.746" r="8.11002" stroke-width="0.5" stroke="black" fill="green"/>
  <circle cx="472.174" cy="545.746" r="4.90906" stroke-width="0.5" stroke="black" fill="green"/>
   </g>
   <g id="cell137">
  <circle cx="492.637" cy="612.01" r="8.02419" stroke-width="0.5" stroke="black" fill="green"/>
  <circle cx="492.637" cy="612.01" r="4.86733" stroke-width="0.5" stroke="black" fill="green"/>
   </g>
   <g id="cell138">
  <circle cx="500.201" cy="409.365" r="8.05651" stroke-width="0.5" stroke="black" fill="green"/>
  <circle cx="500.201" cy="409.365" r="4.87966" stroke-width="0.5" stroke="black" fill="green"/>
   </g>
   <g id="cell139">
  <circle cx="421.505" cy="404.72" r="8.00101" stroke-width="0.5" stroke="black" fill="magenta"/>
  <circle cx="421.505" cy="404.72" r="4.84939" stroke-width="0.5" stroke="black" fill="magenta"/>
   </g>
   <g id="cell140">
  <circle cx="523.959" cy="570.843" r="7.58968" stroke-width="0.5" stroke="black" fill="magenta"/>
  <circle cx="523.959" cy="570.843" r="4.63471" stroke-width="0.5" stroke="black" fill="magenta"/>
   </g>
   <g id="cell141">
  <circle cx="565.47" cy="453.103" r="7.86453" stroke-width="0.5" stroke="black" fill="cyan"/>
  <circle cx="565.47" cy="453.103" r="4.78585" stroke-width="0.5" stroke="black" fill="cyan"/>
   </g>
   <g id="cell142">
  <circle cx="551.185" cy="427.661" r="6.67359" stroke-width="0.5" stroke="black" fill="green"/>
  <circle cx="551.185" cy="427.661" r="4.10475" stroke-width="0.5" stroke="black" fill="green"/>
   </g>
   <g id="cell143">
  <circle cx="435.272" cy="408.46" r="7.72472" stroke-width="0.5" stroke="black" fill="magenta"/>
  <circle cx="435.272" cy="408.46" r="4.71037" stroke-width="0.5" stroke="black" fill="magenta"/>
   </g>
   <g id="cell144">
  <circle cx="546.946" cy="408.025" r="6.6007" stroke-width="0.5" stroke="black" fill="green"/>
  <circle cx="546.946" cy="408.025" r="4.05915" stroke-width="0.5" stroke="black" fill="green"/>
   </g>
   <g id="cell146">
  <circle cx="588.849" cy="548.779" r="1.75585" stroke-width="0.5" stroke="black" fill="cyan"/>
  <circle cx="588.849" cy="548.779" r="1.64516" stroke-width="0.5" stroke="black" fill="black"/>
   </g>
   <g id="cell147">
  <circle cx="517.512" cy="559.324" r="7.58968" stroke-width="0.5" stroke="black" fill="magenta"/>
  <circle cx="517.512" cy="559.324" r="4.63471" stroke-width="0.5" stroke="black" fill="magenta"/>
   </g>
   <g id="cell148">
  <circle cx="508.192" cy="466.174" r="7.79541" stroke-width="0.5" stroke="black" fill="magenta"/>
  <circle cx="508.192" cy="466.174" r="4.7371" stroke-width="0.5" stroke="black" fill="magenta"/>
   </g>
   <g id="cell149">
  <circle cx="576.667" cy="398.138" r="7.63698" stroke-width="0.5" stroke="black" fill="magenta"/>
  <circle cx="576.667" cy="398.138" r="4.64085" stroke-width="0.5" stroke="black" fill="magenta"/>
   </g>
   <g id="cell150">
  <circle cx="400.327" cy="579.64" r="7.54436" stroke-width="0.5" stroke="black" fill="green"/>
  <circle cx="400.327" cy="579.64" r="4.58555" stroke-width="0.5" stroke="black" fill="green"/>
   </g>
   <g id="cell151">
  <circle cx="421.272" cy="530.477" r="7.44242" stroke-width="0.5" stroke="black" fill="green"/>
  <circle cx="421.272" cy="530.477" r="4.52373" stroke-width="0.5" stroke="black" fill="green"/>
   </g>
   <g id="cell152">
  <circle cx="377.105" cy="576.653" r="6.84172" stroke-width="0.5" stroke="black" fill="green"/>
  <circle cx="377.105" cy="576.653" r="4.19761" stroke-width="0.5" stroke="black" fill="green"/>
   </g>
   <g id="cell153">
  <circle cx="560.397" cy="472.057" r="7.33129" stroke-width="0.5" stroke="black" fill="cyan"/>
  <circle cx="560.397" cy="472.057" r="4.45516" stroke-width="0.5" stroke="black" fill="cyan"/>
   </g>
   <g id="cell154">
  <circle cx="388.08" cy="594.561" r="6.31461" stroke-width="0.5" stroke="black" fill="green"/>
  <circle cx="388.08" cy="594.561" r="3.90067" stroke-width="0.5" stroke="black" fill="green"/>
   </g>
   <g id="cell155">
  <circle cx="484.596" cy="580.581" r="7.27253" stroke-width="0.5" stroke="black" fill="green"/>
  <circle cx="484.596" cy="580.581" r="4.41835" stroke-width="0.5" stroke="black" fill="green"/>
   </g>
   <g id="cell156">
  <circle cx="456.254" cy="526.374" r="7.26938" stroke-width="0.5" stroke="black" fill="magenta"/>
  <circle cx="456.254" cy="526.374" r="4.41736" stroke-width="0.5" stroke="black" fill="magenta"/>
   </g>
   <g id="cell157">
  <circle cx="441.725" cy="524.011" r="6.42048" stroke-width="0.5" stroke="black" fill="magenta"/>
  <circle cx="441.725" cy="524.011" r="3.94073" stroke-width="0.5" stroke="black" fill="magenta"/>
   </g>
   <g id="cell158">
  <circle cx="556.395" cy="416.148" r="6.67359" stroke-width="0.5" stroke="black" fill="green"/>
  <circle cx="556.395" cy="416.148" r="4.10475" stroke-width="0.5" stroke="black" fill="green"/>
   </g>
   <g id="cell159">
  <circle cx="535.901" cy="402.513" r="6.6007" stroke-width="0.5" stroke="black" fill="green"/>
  <circle cx="535.901" cy="402.513" r="4.05915" stroke-width="0.5" stroke="black" fill="green"/>
   </g>
   <g id="cell160">
  <circle cx="463.608" cy="376.824" r="6.96162" stroke-width="0.5" stroke="black" fill="green"/>
  <circle cx="463.608" cy="376.824" r="4.23195" stroke-width="0.5" stroke="black" fill="green"/>
   </g>
   <g id="cell161">
  <circle cx="451.953" cy="382.133" r="5.71492" stroke-width="0.5" stroke="black" fill="green"/>
  <circle cx="451.953" cy="382.133" r="3.49277" stroke-width="0.5" stroke="black" fill="green"/>
   </g>
  </g>
 </g>
  <rect x="775" y="1035" width="200" height="10" stroke-width="2" stroke="rgb(255,255,255)" fill="rgb(0,0,0)"/>
  <text x="781.25" y="1028.75"
   font-family="Arial" font-size="25" fill="black" >
   200 &#956;m
  </text>
  <text x="25" y="1045"
   font-family="Arial" font-size="18.75" fill="black" >
   0 days, 0 hours, 0 minutes, and 31.9274 seconds
  </text>
  <rect x="0" y="70" width="1000" height="1000" stroke-width="2" stroke="rgb(0,0,0)" fill="none"/>
</svg>
