<?xml version="1.0" encoding="UTF-8" standalone="no"?>
<!-- Created with PhysiCell (http://PhysiCell.MathCancer.org/) -->
<svg 
 xmlns:dc="http://purl.org/dc/elements/1.1/" 
 xmlns:cc="http://creativecommons.org/ns#" 
 xmlns:rdf="http://www.w3.org/1999/02/22-rdf-syntax-ns#" 
 xmlns:svg="http://www.w3.org/2000/svg" 
 xmlns="http://www.w3.org/2000/svg" 
 version="1.1" 
 width="1000" 
 height="1070" 
 id="svg2">
  <rect x="0" y="0" width="1000" height="1070" stroke-width="2" stroke="white" fill="white"/>
  <text x="12.5" y="30"
   font-family="Arial" font-size="25" fill="black" >
   Current time: 0 days, 0 hours, and 54.00 minutes, z = 0.00 &#956;m
  </text>
  <text x="12.5" y="57.5"
   font-family="Arial" font-size="23.75" fill="black" >
   75 agents
  </text>
 <g id="tissue" 
    transform="translate(0,1070) scale(1,-1)">
  <g id="ECM">
  </g>
  <g id="cells">
   <g id="cell0">
  <circle cx="513.767" cy="529.89" r="8.41271" stroke-width="0.5" stroke="black" fill="magenta"/>
  <circle cx="513.767" cy="529.89" r="5.05167" stroke-width="0.5" stroke="black" fill="magenta"/>
   </g>
   <g id="cell1">
  <circle cx="604.281" cy="530.149" r="8.41271" stroke-width="0.5" stroke="black" fill="magenta"/>
  <circle cx="604.281" cy="530.149" r="5.05167" stroke-width="0.5" stroke="black" fill="magenta"/>
   </g>
   <g id="cell2">
  <circle cx="510.835" cy="600.598" r="8.41271" stroke-width="0.5" stroke="black" fill="magenta"/>
  <circle cx="510.835" cy="600.598" r="5.05167" stroke-width="0.5" stroke="black" fill="magenta"/>
   </g>
   <g id="cell3">
  <circle cx="532.957" cy="545.455" r="8.41271" stroke-width="0.5" stroke="black" fill="magenta"/>
  <circle cx="532.957" cy="545.455" r="5.05167" stroke-width="0.5" stroke="black" fill="magenta"/>
   </g>
   <g id="cell4">
  <circle cx="481.582" cy="439.461" r="8.41271" stroke-width="0.5" stroke="black" fill="magenta"/>
  <circle cx="481.582" cy="439.461" r="5.05167" stroke-width="0.5" stroke="black" fill="magenta"/>
   </g>
   <g id="cell5">
  <circle cx="465.032" cy="493.3" r="8.41271" stroke-width="0.5" stroke="black" fill="magenta"/>
  <circle cx="465.032" cy="493.3" r="5.05167" stroke-width="0.5" stroke="black" fill="magenta"/>
   </g>
   <g id="cell6">
  <circle cx="593.685" cy="508.741" r="8.41271" stroke-width="0.5" stroke="black" fill="magenta"/>
  <circle cx="593.685" cy="508.741" r="5.05167" stroke-width="0.5" stroke="black" fill="magenta"/>
   </g>
   <g id="cell7">
  <circle cx="512.462" cy="464.89" r="8.41271" stroke-width="0.5" stroke="black" fill="magenta"/>
  <circle cx="512.462" cy="464.89" r="5.05167" stroke-width="0.5" stroke="black" fill="magenta"/>
   </g>
   <g id="cell8">
  <circle cx="375.891" cy="544.521" r="8.41271" stroke-width="0.5" stroke="black" fill="magenta"/>
  <circle cx="375.891" cy="544.521" r="5.05167" stroke-width="0.5" stroke="black" fill="magenta"/>
   </g>
   <g id="cell9">
  <circle cx="460.472" cy="599.786" r="8.41271" stroke-width="0.5" stroke="black" fill="magenta"/>
  <circle cx="460.472" cy="599.786" r="5.05167" stroke-width="0.5" stroke="black" fill="magenta"/>
   </g>
   <g id="cell10">
  <circle cx="583.447" cy="392.105" r="8.41271" stroke-width="0.5" stroke="black" fill="magenta"/>
  <circle cx="583.447" cy="392.105" r="5.05167" stroke-width="0.5" stroke="black" fill="magenta"/>
   </g>
   <g id="cell11">
  <circle cx="589.748" cy="590.273" r="8.41271" stroke-width="0.5" stroke="black" fill="magenta"/>
  <circle cx="589.748" cy="590.273" r="5.05167" stroke-width="0.5" stroke="black" fill="magenta"/>
   </g>
   <g id="cell12">
  <circle cx="506.649" cy="586.005" r="8.41271" stroke-width="0.5" stroke="black" fill="magenta"/>
  <circle cx="506.649" cy="586.005" r="5.05167" stroke-width="0.5" stroke="black" fill="magenta"/>
   </g>
   <g id="cell13">
  <circle cx="385.984" cy="567.64" r="8.41271" stroke-width="0.5" stroke="black" fill="magenta"/>
  <circle cx="385.984" cy="567.64" r="5.05167" stroke-width="0.5" stroke="black" fill="magenta"/>
   </g>
   <g id="cell14">
  <circle cx="529.012" cy="396.332" r="8.41271" stroke-width="0.5" stroke="black" fill="magenta"/>
  <circle cx="529.012" cy="396.332" r="5.05167" stroke-width="0.5" stroke="black" fill="magenta"/>
   </g>
   <g id="cell15">
  <circle cx="380.82" cy="474.708" r="8.41271" stroke-width="0.5" stroke="black" fill="magenta"/>
  <circle cx="380.82" cy="474.708" r="5.05167" stroke-width="0.5" stroke="black" fill="magenta"/>
   </g>
   <g id="cell16">
  <circle cx="428.96" cy="413.216" r="8.41271" stroke-width="0.5" stroke="black" fill="magenta"/>
  <circle cx="428.96" cy="413.216" r="5.05167" stroke-width="0.5" stroke="black" fill="magenta"/>
   </g>
   <g id="cell17">
  <circle cx="571.753" cy="489.996" r="8.41271" stroke-width="0.5" stroke="black" fill="magenta"/>
  <circle cx="571.753" cy="489.996" r="5.05167" stroke-width="0.5" stroke="black" fill="magenta"/>
   </g>
   <g id="cell18">
  <circle cx="516.281" cy="388.022" r="8.41271" stroke-width="0.5" stroke="black" fill="magenta"/>
  <circle cx="516.281" cy="388.022" r="5.05167" stroke-width="0.5" stroke="black" fill="magenta"/>
   </g>
   <g id="cell19">
  <circle cx="451.772" cy="538.952" r="8.41271" stroke-width="0.5" stroke="black" fill="magenta"/>
  <circle cx="451.772" cy="538.952" r="5.05167" stroke-width="0.5" stroke="black" fill="magenta"/>
   </g>
   <g id="cell20">
  <circle cx="532.418" cy="417.039" r="8.41271" stroke-width="0.5" stroke="black" fill="magenta"/>
  <circle cx="532.418" cy="417.039" r="5.05167" stroke-width="0.5" stroke="black" fill="magenta"/>
   </g>
   <g id="cell21">
  <circle cx="464.369" cy="634.574" r="8.41271" stroke-width="0.5" stroke="black" fill="magenta"/>
  <circle cx="464.369" cy="634.574" r="5.05167" stroke-width="0.5" stroke="black" fill="magenta"/>
   </g>
   <g id="cell22">
  <circle cx="557.015" cy="493.498" r="8.41271" stroke-width="0.5" stroke="black" fill="magenta"/>
  <circle cx="557.015" cy="493.498" r="5.05167" stroke-width="0.5" stroke="black" fill="magenta"/>
   </g>
   <g id="cell23">
  <circle cx="536.341" cy="482.134" r="8.41271" stroke-width="0.5" stroke="black" fill="magenta"/>
  <circle cx="536.341" cy="482.134" r="5.05167" stroke-width="0.5" stroke="black" fill="magenta"/>
   </g>
   <g id="cell24">
  <circle cx="559.289" cy="379.786" r="8.41271" stroke-width="0.5" stroke="black" fill="magenta"/>
  <circle cx="559.289" cy="379.786" r="5.05167" stroke-width="0.5" stroke="black" fill="magenta"/>
   </g>
   <g id="cell25">
  <circle cx="640.943" cy="550.03" r="8.41271" stroke-width="0.5" stroke="black" fill="green"/>
  <circle cx="640.943" cy="550.03" r="5.05167" stroke-width="0.5" stroke="black" fill="green"/>
   </g>
   <g id="cell26">
  <circle cx="551.186" cy="401.27" r="8.41271" stroke-width="0.5" stroke="black" fill="green"/>
  <circle cx="551.186" cy="401.27" r="5.05167" stroke-width="0.5" stroke="black" fill="green"/>
   </g>
   <g id="cell27">
  <circle cx="457.446" cy="388.678" r="8.41271" stroke-width="0.5" stroke="black" fill="green"/>
  <circle cx="457.446" cy="388.678" r="5.05167" stroke-width="0.5" stroke="black" fill="green"/>
   </g>
   <g id="cell28">
  <circle cx="438.488" cy="530.83" r="8.41271" stroke-width="0.5" stroke="black" fill="green"/>
  <circle cx="438.488" cy="530.83" r="5.05167" stroke-width="0.5" stroke="black" fill="green"/>
   </g>
   <g id="cell29">
  <circle cx="449.148" cy="518.934" r="8.41271" stroke-width="0.5" stroke="black" fill="green"/>
  <circle cx="449.148" cy="518.934" r="5.05167" stroke-width="0.5" stroke="black" fill="green"/>
   </g>
   <g id="cell30">
  <circle cx="481.58" cy="540.282" r="8.41271" stroke-width="0.5" stroke="black" fill="green"/>
  <circle cx="481.58" cy="540.282" r="5.05167" stroke-width="0.5" stroke="black" fill="green"/>
   </g>
   <g id="cell31">
  <circle cx="412.752" cy="541.157" r="8.41271" stroke-width="0.5" stroke="black" fill="green"/>
  <circle cx="412.752" cy="541.157" r="5.05167" stroke-width="0.5" stroke="black" fill="green"/>
   </g>
   <g id="cell32">
  <circle cx="425.373" cy="474.827" r="8.41271" stroke-width="0.5" stroke="black" fill="green"/>
  <circle cx="425.373" cy="474.827" r="5.05167" stroke-width="0.5" stroke="black" fill="green"/>
   </g>
   <g id="cell33">
  <circle cx="494.022" cy="423.461" r="8.41271" stroke-width="0.5" stroke="black" fill="green"/>
  <circle cx="494.022" cy="423.461" r="5.05167" stroke-width="0.5" stroke="black" fill="green"/>
   </g>
   <g id="cell34">
  <circle cx="397.172" cy="450.91" r="8.41271" stroke-width="0.5" stroke="black" fill="green"/>
  <circle cx="397.172" cy="450.91" r="5.05167" stroke-width="0.5" stroke="black" fill="green"/>
   </g>
   <g id="cell35">
  <circle cx="548.463" cy="544.883" r="8.41271" stroke-width="0.5" stroke="black" fill="green"/>
  <circle cx="548.463" cy="544.883" r="5.05167" stroke-width="0.5" stroke="black" fill="green"/>
   </g>
   <g id="cell36">
  <circle cx="391.27" cy="582.655" r="8.41271" stroke-width="0.5" stroke="black" fill="green"/>
  <circle cx="391.27" cy="582.655" r="5.05167" stroke-width="0.5" stroke="black" fill="green"/>
   </g>
   <g id="cell37">
  <circle cx="634.871" cy="460.618" r="8.41271" stroke-width="0.5" stroke="black" fill="green"/>
  <circle cx="634.871" cy="460.618" r="5.05167" stroke-width="0.5" stroke="black" fill="green"/>
   </g>
   <g id="cell38">
  <circle cx="536.266" cy="601.801" r="8.41271" stroke-width="0.5" stroke="black" fill="green"/>
  <circle cx="536.266" cy="601.801" r="5.05167" stroke-width="0.5" stroke="black" fill="green"/>
   </g>
   <g id="cell39">
  <circle cx="613.458" cy="490.595" r="8.41271" stroke-width="0.5" stroke="black" fill="green"/>
  <circle cx="613.458" cy="490.595" r="5.05167" stroke-width="0.5" stroke="black" fill="green"/>
   </g>
   <g id="cell40">
  <circle cx="485.348" cy="571.779" r="8.41271" stroke-width="0.5" stroke="black" fill="green"/>
  <circle cx="485.348" cy="571.779" r="5.05167" stroke-width="0.5" stroke="black" fill="green"/>
   </g>
   <g id="cell41">
  <circle cx="364.15" cy="480.153" r="8.41271" stroke-width="0.5" stroke="black" fill="green"/>
  <circle cx="364.15" cy="480.153" r="5.05167" stroke-width="0.5" stroke="black" fill="green"/>
   </g>
   <g id="cell42">
  <circle cx="438.842" cy="494.268" r="8.41271" stroke-width="0.5" stroke="black" fill="green"/>
  <circle cx="438.842" cy="494.268" r="5.05167" stroke-width="0.5" stroke="black" fill="green"/>
   </g>
   <g id="cell43">
  <circle cx="558.581" cy="445.735" r="8.41271" stroke-width="0.5" stroke="black" fill="green"/>
  <circle cx="558.581" cy="445.735" r="5.05167" stroke-width="0.5" stroke="black" fill="green"/>
   </g>
   <g id="cell44">
  <circle cx="475.857" cy="624.021" r="8.41271" stroke-width="0.5" stroke="black" fill="green"/>
  <circle cx="475.857" cy="624.021" r="5.05167" stroke-width="0.5" stroke="black" fill="green"/>
   </g>
   <g id="cell45">
  <circle cx="414.958" cy="557.102" r="8.41271" stroke-width="0.5" stroke="black" fill="green"/>
  <circle cx="414.958" cy="557.102" r="5.05167" stroke-width="0.5" stroke="black" fill="green"/>
   </g>
   <g id="cell46">
  <circle cx="522.702" cy="610.851" r="8.41271" stroke-width="0.5" stroke="black" fill="green"/>
  <circle cx="522.702" cy="610.851" r="5.05167" stroke-width="0.5" stroke="black" fill="green"/>
   </g>
   <g id="cell47">
  <circle cx="502.98" cy="507.121" r="8.41271" stroke-width="0.5" stroke="black" fill="green"/>
  <circle cx="502.98" cy="507.121" r="5.05167" stroke-width="0.5" stroke="black" fill="green"/>
   </g>
   <g id="cell48">
  <circle cx="564.521" cy="602.782" r="8.41271" stroke-width="0.5" stroke="black" fill="green"/>
  <circle cx="564.521" cy="602.782" r="5.05167" stroke-width="0.5" stroke="black" fill="green"/>
   </g>
   <g id="cell49">
  <circle cx="429.826" cy="397.641" r="8.41271" stroke-width="0.5" stroke="black" fill="green"/>
  <circle cx="429.826" cy="397.641" r="5.05167" stroke-width="0.5" stroke="black" fill="green"/>
   </g>
   <g id="cell50">
  <circle cx="518.944" cy="515.168" r="8.41271" stroke-width="0.5" stroke="black" fill="cyan"/>
  <circle cx="518.944" cy="515.168" r="5.05167" stroke-width="0.5" stroke="black" fill="cyan"/>
   </g>
   <g id="cell51">
  <circle cx="399.146" cy="598.036" r="8.41271" stroke-width="0.5" stroke="black" fill="cyan"/>
  <circle cx="399.146" cy="598.036" r="5.05167" stroke-width="0.5" stroke="black" fill="cyan"/>
   </g>
   <g id="cell52">
  <circle cx="521.696" cy="428.974" r="8.41271" stroke-width="0.5" stroke="black" fill="cyan"/>
  <circle cx="521.696" cy="428.974" r="5.05167" stroke-width="0.5" stroke="black" fill="cyan"/>
   </g>
   <g id="cell53">
  <circle cx="571.3" cy="435.995" r="8.41271" stroke-width="0.5" stroke="black" fill="cyan"/>
  <circle cx="571.3" cy="435.995" r="5.05167" stroke-width="0.5" stroke="black" fill="cyan"/>
   </g>
   <g id="cell54">
  <circle cx="478.068" cy="424.292" r="8.41271" stroke-width="0.5" stroke="black" fill="cyan"/>
  <circle cx="478.068" cy="424.292" r="5.05167" stroke-width="0.5" stroke="black" fill="cyan"/>
   </g>
   <g id="cell55">
  <circle cx="527.109" cy="469.751" r="8.41271" stroke-width="0.5" stroke="black" fill="cyan"/>
  <circle cx="527.109" cy="469.751" r="5.05167" stroke-width="0.5" stroke="black" fill="cyan"/>
   </g>
   <g id="cell56">
  <circle cx="617.776" cy="522.284" r="8.41271" stroke-width="0.5" stroke="black" fill="cyan"/>
  <circle cx="617.776" cy="522.284" r="5.05167" stroke-width="0.5" stroke="black" fill="cyan"/>
   </g>
   <g id="cell57">
  <circle cx="416.924" cy="617.466" r="6.44044" stroke-width="0.5" stroke="black" fill="cyan"/>
  <circle cx="416.924" cy="617.466" r="3.99684" stroke-width="0.5" stroke="black" fill="black"/>
   </g>
   <g id="cell58">
  <circle cx="551.507" cy="479.062" r="8.41271" stroke-width="0.5" stroke="black" fill="cyan"/>
  <circle cx="551.507" cy="479.062" r="5.05167" stroke-width="0.5" stroke="black" fill="cyan"/>
   </g>
   <g id="cell59">
  <circle cx="385.379" cy="439.723" r="8.41271" stroke-width="0.5" stroke="black" fill="cyan"/>
  <circle cx="385.379" cy="439.723" r="5.05167" stroke-width="0.5" stroke="black" fill="cyan"/>
   </g>
   <g id="cell60">
  <circle cx="593.593" cy="473.6" r="8.41271" stroke-width="0.5" stroke="black" fill="cyan"/>
  <circle cx="593.593" cy="473.6" r="5.05167" stroke-width="0.5" stroke="black" fill="cyan"/>
   </g>
   <g id="cell61">
  <circle cx="552.999" cy="613.957" r="8.41271" stroke-width="0.5" stroke="black" fill="cyan"/>
  <circle cx="552.999" cy="613.957" r="5.05167" stroke-width="0.5" stroke="black" fill="cyan"/>
   </g>
   <g id="cell62">
  <circle cx="525.033" cy="444.904" r="8.41271" stroke-width="0.5" stroke="black" fill="cyan"/>
  <circle cx="525.033" cy="444.904" r="5.05167" stroke-width="0.5" stroke="black" fill="cyan"/>
   </g>
   <g id="cell63">
  <circle cx="577.789" cy="546.447" r="8.41271" stroke-width="0.5" stroke="black" fill="cyan"/>
  <circle cx="577.789" cy="546.447" r="5.05167" stroke-width="0.5" stroke="black" fill="cyan"/>
   </g>
   <g id="cell64">
  <circle cx="509.962" cy="636.825" r="8.41271" stroke-width="0.5" stroke="black" fill="cyan"/>
  <circle cx="509.962" cy="636.825" r="5.05167" stroke-width="0.5" stroke="black" fill="cyan"/>
   </g>
   <g id="cell65">
  <circle cx="542.435" cy="466.221" r="8.41271" stroke-width="0.5" stroke="black" fill="cyan"/>
  <circle cx="542.435" cy="466.221" r="5.05167" stroke-width="0.5" stroke="black" fill="cyan"/>
   </g>
   <g id="cell66">
  <circle cx="535.417" cy="530.047" r="8.41271" stroke-width="0.5" stroke="black" fill="cyan"/>
  <circle cx="535.417" cy="530.047" r="5.05167" stroke-width="0.5" stroke="black" fill="cyan"/>
   </g>
   <g id="cell67">
  <circle cx="354.317" cy="493.09" r="8.41271" stroke-width="0.5" stroke="black" fill="cyan"/>
  <circle cx="354.317" cy="493.09" r="5.05167" stroke-width="0.5" stroke="black" fill="cyan"/>
   </g>
   <g id="cell68">
  <circle cx="562.78" cy="551.722" r="8.41271" stroke-width="0.5" stroke="black" fill="cyan"/>
  <circle cx="562.78" cy="551.722" r="5.05167" stroke-width="0.5" stroke="black" fill="cyan"/>
   </g>
   <g id="cell69">
  <circle cx="437.638" cy="464.522" r="8.41271" stroke-width="0.5" stroke="black" fill="cyan"/>
  <circle cx="437.638" cy="464.522" r="5.05167" stroke-width="0.5" stroke="black" fill="cyan"/>
   </g>
   <g id="cell70">
  <circle cx="576.692" cy="475.162" r="8.41271" stroke-width="0.5" stroke="black" fill="cyan"/>
  <circle cx="576.692" cy="475.162" r="5.05167" stroke-width="0.5" stroke="black" fill="cyan"/>
   </g>
   <g id="cell71">
  <circle cx="377.712" cy="520.989" r="8.41271" stroke-width="0.5" stroke="black" fill="cyan"/>
  <circle cx="377.712" cy="520.989" r="5.05167" stroke-width="0.5" stroke="black" fill="cyan"/>
   </g>
   <g id="cell72">
  <circle cx="534.986" cy="514.023" r="8.41271" stroke-width="0.5" stroke="black" fill="cyan"/>
  <circle cx="534.986" cy="514.023" r="5.05167" stroke-width="0.5" stroke="black" fill="cyan"/>
   </g>
   <g id="cell73">
  <circle cx="360.355" cy="545.935" r="8.41271" stroke-width="0.5" stroke="black" fill="cyan"/>
  <circle cx="360.355" cy="545.935" r="5.05167" stroke-width="0.5" stroke="black" fill="cyan"/>
   </g>
   <g id="cell74">
  <circle cx="542.505" cy="446.539" r="8.41271" stroke-width="0.5" stroke="black" fill="cyan"/>
  <circle cx="542.505" cy="446.539" r="5.05167" stroke-width="0.5" stroke="black" fill="cyan"/>
   </g>
  </g>
 </g>
  <rect x="775" y="1035" width="200" height="10" stroke-width="2" stroke="rgb(255,255,255)" fill="rgb(0,0,0)"/>
  <text x="781.25" y="1028.75"
   font-family="Arial" font-size="25" fill="black" >
   200 &#956;m
  </text>
  <text x="25" y="1045"
   font-family="Arial" font-size="18.75" fill="black" >
   0 days, 0 hours, 0 minutes, and 0.9763 seconds
  </text>
  <rect x="0" y="70" width="1000" height="1000" stroke-width="2" stroke="rgb(0,0,0)" fill="none"/>
</svg>
