<?xml version="1.0" encoding="UTF-8" standalone="no"?>
<!-- Created with PhysiCell (http://PhysiCell.MathCancer.org/) -->
<svg 
 xmlns:dc="http://purl.org/dc/elements/1.1/" 
 xmlns:cc="http://creativecommons.org/ns#" 
 xmlns:rdf="http://www.w3.org/1999/02/22-rdf-syntax-ns#" 
 xmlns:svg="http://www.w3.org/2000/svg" 
 xmlns="http://www.w3.org/2000/svg" 
 version="1.1" 
 width="1000" 
 height="1070" 
 id="svg2">
  <rect x="0" y="0" width="1000" height="1070" stroke-width="2" stroke="white" fill="white"/>
  <text x="12.5" y="30"
   font-family="Arial" font-size="25" fill="black" >
   Current time: 0 days, 7 hours, and 39.00 minutes, z = 0.00 &#956;m
  </text>
  <text x="12.5" y="57.5"
   font-family="Arial" font-size="23.75" fill="black" >
   100 agents
  </text>
 <g id="tissue" 
    transform="translate(0,1070) scale(1,-1)">
  <g id="ECM">
  </g>
  <g id="cells">
   <g id="cell0">
  <circle cx="518.755" cy="532.772" r="7.51976" stroke-width="0.5" stroke="black" fill="magenta"/>
  <circle cx="518.755" cy="532.772" r="4.57072" stroke-width="0.5" stroke="black" fill="magenta"/>
   </g>
   <g id="cell1">
  <circle cx="602.492" cy="526.171" r="8.41271" stroke-width="0.5" stroke="black" fill="magenta"/>
  <circle cx="602.492" cy="526.171" r="5.05167" stroke-width="0.5" stroke="black" fill="magenta"/>
   </g>
   <g id="cell2">
  <circle cx="511.347" cy="600.585" r="8.41271" stroke-width="0.5" stroke="black" fill="magenta"/>
  <circle cx="511.347" cy="600.585" r="5.05167" stroke-width="0.5" stroke="black" fill="magenta"/>
   </g>
   <g id="cell3">
  <circle cx="525.018" cy="543.958" r="6.87707" stroke-width="0.5" stroke="black" fill="magenta"/>
  <circle cx="525.018" cy="543.958" r="4.21258" stroke-width="0.5" stroke="black" fill="magenta"/>
   </g>
   <g id="cell4">
  <circle cx="487.912" cy="438.348" r="8.05651" stroke-width="0.5" stroke="black" fill="magenta"/>
  <circle cx="487.912" cy="438.348" r="4.87966" stroke-width="0.5" stroke="black" fill="magenta"/>
   </g>
   <g id="cell5">
  <circle cx="465.032" cy="493.3" r="8.41271" stroke-width="0.5" stroke="black" fill="magenta"/>
  <circle cx="465.032" cy="493.3" r="5.05167" stroke-width="0.5" stroke="black" fill="magenta"/>
   </g>
   <g id="cell6">
  <circle cx="595.637" cy="512.669" r="8.41271" stroke-width="0.5" stroke="black" fill="magenta"/>
  <circle cx="595.637" cy="512.669" r="5.05167" stroke-width="0.5" stroke="black" fill="magenta"/>
   </g>
   <g id="cell7">
  <circle cx="511.763" cy="462.252" r="8.41271" stroke-width="0.5" stroke="black" fill="magenta"/>
  <circle cx="511.763" cy="462.252" r="5.05167" stroke-width="0.5" stroke="black" fill="magenta"/>
   </g>
   <g id="cell8">
  <circle cx="376.004" cy="544.324" r="8.41271" stroke-width="0.5" stroke="black" fill="magenta"/>
  <circle cx="376.004" cy="544.324" r="5.05167" stroke-width="0.5" stroke="black" fill="magenta"/>
   </g>
   <g id="cell9">
  <circle cx="460.472" cy="599.786" r="8.41271" stroke-width="0.5" stroke="black" fill="magenta"/>
  <circle cx="460.472" cy="599.786" r="5.05167" stroke-width="0.5" stroke="black" fill="magenta"/>
   </g>
   <g id="cell10">
  <circle cx="583.447" cy="392.105" r="8.41271" stroke-width="0.5" stroke="black" fill="magenta"/>
  <circle cx="583.447" cy="392.105" r="5.05167" stroke-width="0.5" stroke="black" fill="magenta"/>
   </g>
   <g id="cell11">
  <circle cx="589.748" cy="590.273" r="8.41271" stroke-width="0.5" stroke="black" fill="magenta"/>
  <circle cx="589.748" cy="590.273" r="5.05167" stroke-width="0.5" stroke="black" fill="magenta"/>
   </g>
   <g id="cell12">
  <circle cx="506.702" cy="586.19" r="8.41271" stroke-width="0.5" stroke="black" fill="magenta"/>
  <circle cx="506.702" cy="586.19" r="5.05167" stroke-width="0.5" stroke="black" fill="magenta"/>
   </g>
   <g id="cell13">
  <circle cx="386.194" cy="568.228" r="8.41271" stroke-width="0.5" stroke="black" fill="magenta"/>
  <circle cx="386.194" cy="568.228" r="5.05167" stroke-width="0.5" stroke="black" fill="magenta"/>
   </g>
   <g id="cell14">
  <circle cx="528.56" cy="399.184" r="8.41271" stroke-width="0.5" stroke="black" fill="magenta"/>
  <circle cx="528.56" cy="399.184" r="5.05167" stroke-width="0.5" stroke="black" fill="magenta"/>
   </g>
   <g id="cell15">
  <circle cx="379.65" cy="475.1" r="8.41271" stroke-width="0.5" stroke="black" fill="magenta"/>
  <circle cx="379.65" cy="475.1" r="5.05167" stroke-width="0.5" stroke="black" fill="magenta"/>
   </g>
   <g id="cell16">
  <circle cx="428.96" cy="413.217" r="8.41271" stroke-width="0.5" stroke="black" fill="magenta"/>
  <circle cx="428.96" cy="413.217" r="5.05167" stroke-width="0.5" stroke="black" fill="magenta"/>
   </g>
   <g id="cell17">
  <circle cx="569.896" cy="488.71" r="8.41271" stroke-width="0.5" stroke="black" fill="magenta"/>
  <circle cx="569.896" cy="488.71" r="5.05167" stroke-width="0.5" stroke="black" fill="magenta"/>
   </g>
   <g id="cell18">
  <circle cx="517.415" cy="388.932" r="8.41271" stroke-width="0.5" stroke="black" fill="magenta"/>
  <circle cx="517.415" cy="388.932" r="5.05167" stroke-width="0.5" stroke="black" fill="magenta"/>
   </g>
   <g id="cell19">
  <circle cx="455.94" cy="542.914" r="7.3599" stroke-width="0.5" stroke="black" fill="magenta"/>
  <circle cx="455.94" cy="542.914" r="4.47294" stroke-width="0.5" stroke="black" fill="magenta"/>
   </g>
   <g id="cell20">
  <circle cx="531.106" cy="414.109" r="8.41271" stroke-width="0.5" stroke="black" fill="magenta"/>
  <circle cx="531.106" cy="414.109" r="5.05167" stroke-width="0.5" stroke="black" fill="magenta"/>
   </g>
   <g id="cell21">
  <circle cx="464.368" cy="634.574" r="8.41271" stroke-width="0.5" stroke="black" fill="magenta"/>
  <circle cx="464.368" cy="634.574" r="5.05167" stroke-width="0.5" stroke="black" fill="magenta"/>
   </g>
   <g id="cell22">
  <circle cx="556.89" cy="496.367" r="8.41271" stroke-width="0.5" stroke="black" fill="magenta"/>
  <circle cx="556.89" cy="496.367" r="5.05167" stroke-width="0.5" stroke="black" fill="magenta"/>
   </g>
   <g id="cell23">
  <circle cx="536.872" cy="482.008" r="8.41271" stroke-width="0.5" stroke="black" fill="magenta"/>
  <circle cx="536.872" cy="482.008" r="5.05167" stroke-width="0.5" stroke="black" fill="magenta"/>
   </g>
   <g id="cell24">
  <circle cx="559.285" cy="379.796" r="8.41271" stroke-width="0.5" stroke="black" fill="magenta"/>
  <circle cx="559.285" cy="379.796" r="5.05167" stroke-width="0.5" stroke="black" fill="magenta"/>
   </g>
   <g id="cell25">
  <circle cx="645.357" cy="545.57" r="7.86286" stroke-width="0.5" stroke="black" fill="green"/>
  <circle cx="645.357" cy="545.57" r="4.77207" stroke-width="0.5" stroke="black" fill="green"/>
   </g>
   <g id="cell26">
  <circle cx="551.114" cy="401.251" r="8.41271" stroke-width="0.5" stroke="black" fill="green"/>
  <circle cx="551.114" cy="401.251" r="5.05167" stroke-width="0.5" stroke="black" fill="green"/>
   </g>
   <g id="cell27">
  <circle cx="462.695" cy="390.662" r="8.07654" stroke-width="0.5" stroke="black" fill="green"/>
  <circle cx="462.695" cy="390.662" r="4.89046" stroke-width="0.5" stroke="black" fill="green"/>
   </g>
   <g id="cell28">
  <circle cx="434.445" cy="530.772" r="8.41271" stroke-width="0.5" stroke="black" fill="green"/>
  <circle cx="434.445" cy="530.772" r="5.05167" stroke-width="0.5" stroke="black" fill="green"/>
   </g>
   <g id="cell29">
  <circle cx="450.341" cy="517.196" r="8.41271" stroke-width="0.5" stroke="black" fill="green"/>
  <circle cx="450.341" cy="517.196" r="5.05167" stroke-width="0.5" stroke="black" fill="green"/>
   </g>
   <g id="cell30">
  <circle cx="481.131" cy="535.608" r="7.08639" stroke-width="0.5" stroke="black" fill="green"/>
  <circle cx="481.131" cy="535.608" r="4.29876" stroke-width="0.5" stroke="black" fill="green"/>
   </g>
   <g id="cell31">
  <circle cx="412.757" cy="541.193" r="8.41271" stroke-width="0.5" stroke="black" fill="green"/>
  <circle cx="412.757" cy="541.193" r="5.05167" stroke-width="0.5" stroke="black" fill="green"/>
   </g>
   <g id="cell32">
  <circle cx="421.716" cy="480.554" r="6.75639" stroke-width="0.5" stroke="black" fill="green"/>
  <circle cx="421.716" cy="480.554" r="4.06813" stroke-width="0.5" stroke="black" fill="green"/>
   </g>
   <g id="cell33">
  <circle cx="495.176" cy="424.752" r="8.41271" stroke-width="0.5" stroke="black" fill="green"/>
  <circle cx="495.176" cy="424.752" r="5.05167" stroke-width="0.5" stroke="black" fill="green"/>
   </g>
   <g id="cell34">
  <circle cx="397.088" cy="450.831" r="8.41271" stroke-width="0.5" stroke="black" fill="green"/>
  <circle cx="397.088" cy="450.831" r="5.05167" stroke-width="0.5" stroke="black" fill="green"/>
   </g>
   <g id="cell35">
  <circle cx="551.018" cy="543.002" r="8.41271" stroke-width="0.5" stroke="black" fill="green"/>
  <circle cx="551.018" cy="543.002" r="5.05167" stroke-width="0.5" stroke="black" fill="green"/>
   </g>
   <g id="cell36">
  <circle cx="391.486" cy="582.903" r="8.41271" stroke-width="0.5" stroke="black" fill="green"/>
  <circle cx="391.486" cy="582.903" r="5.05167" stroke-width="0.5" stroke="black" fill="green"/>
   </g>
   <g id="cell37">
  <circle cx="639.202" cy="457.431" r="8.02418" stroke-width="0.5" stroke="black" fill="green"/>
  <circle cx="639.202" cy="457.431" r="4.86209" stroke-width="0.5" stroke="black" fill="green"/>
   </g>
   <g id="cell38">
  <circle cx="531.898" cy="598.399" r="7.95045" stroke-width="0.5" stroke="black" fill="green"/>
  <circle cx="531.898" cy="598.399" r="4.82139" stroke-width="0.5" stroke="black" fill="green"/>
   </g>
   <g id="cell39">
  <circle cx="613.458" cy="490.595" r="8.41271" stroke-width="0.5" stroke="black" fill="green"/>
  <circle cx="613.458" cy="490.595" r="5.05167" stroke-width="0.5" stroke="black" fill="green"/>
   </g>
   <g id="cell40">
  <circle cx="485.348" cy="571.779" r="8.41271" stroke-width="0.5" stroke="black" fill="green"/>
  <circle cx="485.348" cy="571.779" r="5.05167" stroke-width="0.5" stroke="black" fill="green"/>
   </g>
   <g id="cell41">
  <circle cx="364.925" cy="480.252" r="8.41271" stroke-width="0.5" stroke="black" fill="green"/>
  <circle cx="364.925" cy="480.252" r="5.05167" stroke-width="0.5" stroke="black" fill="green"/>
   </g>
   <g id="cell42">
  <circle cx="438.842" cy="494.268" r="8.41271" stroke-width="0.5" stroke="black" fill="green"/>
  <circle cx="438.842" cy="494.268" r="5.05167" stroke-width="0.5" stroke="black" fill="green"/>
   </g>
   <g id="cell43">
  <circle cx="559.058" cy="445.638" r="8.41271" stroke-width="0.5" stroke="black" fill="green"/>
  <circle cx="559.058" cy="445.638" r="5.05167" stroke-width="0.5" stroke="black" fill="green"/>
   </g>
   <g id="cell44">
  <circle cx="475.857" cy="624.021" r="8.41271" stroke-width="0.5" stroke="black" fill="green"/>
  <circle cx="475.857" cy="624.021" r="5.05167" stroke-width="0.5" stroke="black" fill="green"/>
   </g>
   <g id="cell45">
  <circle cx="414.953" cy="557.066" r="8.41271" stroke-width="0.5" stroke="black" fill="green"/>
  <circle cx="414.953" cy="557.066" r="5.05167" stroke-width="0.5" stroke="black" fill="green"/>
   </g>
   <g id="cell46">
  <circle cx="522.8" cy="611.085" r="8.41271" stroke-width="0.5" stroke="black" fill="green"/>
  <circle cx="522.8" cy="611.085" r="5.05167" stroke-width="0.5" stroke="black" fill="green"/>
   </g>
   <g id="cell47">
  <circle cx="506.422" cy="505.06" r="6.71158" stroke-width="0.5" stroke="black" fill="green"/>
  <circle cx="506.422" cy="505.06" r="4.03435" stroke-width="0.5" stroke="black" fill="green"/>
   </g>
   <g id="cell48">
  <circle cx="564.028" cy="602.748" r="8.41271" stroke-width="0.5" stroke="black" fill="green"/>
  <circle cx="564.028" cy="602.748" r="5.05167" stroke-width="0.5" stroke="black" fill="green"/>
   </g>
   <g id="cell49">
  <circle cx="429.826" cy="397.641" r="8.41271" stroke-width="0.5" stroke="black" fill="green"/>
  <circle cx="429.826" cy="397.641" r="5.05167" stroke-width="0.5" stroke="black" fill="green"/>
   </g>
   <g id="cell50">
  <circle cx="519.971" cy="519.036" r="7.59183" stroke-width="0.5" stroke="black" fill="cyan"/>
  <circle cx="519.971" cy="519.036" r="4.61399" stroke-width="0.5" stroke="black" fill="cyan"/>
   </g>
   <g id="cell51">
  <circle cx="398.721" cy="597.201" r="8.41271" stroke-width="0.5" stroke="black" fill="cyan"/>
  <circle cx="398.721" cy="597.201" r="5.05167" stroke-width="0.5" stroke="black" fill="cyan"/>
   </g>
   <g id="cell52">
  <circle cx="520.078" cy="425.134" r="8.41271" stroke-width="0.5" stroke="black" fill="cyan"/>
  <circle cx="520.078" cy="425.134" r="5.05167" stroke-width="0.5" stroke="black" fill="cyan"/>
   </g>
   <g id="cell53">
  <circle cx="571.511" cy="435.826" r="8.41271" stroke-width="0.5" stroke="black" fill="cyan"/>
  <circle cx="571.511" cy="435.826" r="5.05167" stroke-width="0.5" stroke="black" fill="cyan"/>
   </g>
   <g id="cell54">
  <circle cx="480.972" cy="426.51" r="6.89675" stroke-width="0.5" stroke="black" fill="cyan"/>
  <circle cx="480.972" cy="426.51" r="4.17024" stroke-width="0.5" stroke="black" fill="cyan"/>
   </g>
   <g id="cell55">
  <circle cx="529.747" cy="468.231" r="7.97646" stroke-width="0.5" stroke="black" fill="cyan"/>
  <circle cx="529.747" cy="468.231" r="4.83584" stroke-width="0.5" stroke="black" fill="cyan"/>
   </g>
   <g id="cell56">
  <circle cx="617.613" cy="522.333" r="8.41271" stroke-width="0.5" stroke="black" fill="cyan"/>
  <circle cx="617.613" cy="522.333" r="5.05167" stroke-width="0.5" stroke="black" fill="cyan"/>
   </g>
   <g id="cell57">
  <circle cx="416.924" cy="617.466" r="1.38109" stroke-width="0.5" stroke="black" fill="cyan"/>
  <circle cx="416.924" cy="617.466" r="1.3695" stroke-width="0.5" stroke="black" fill="black"/>
   </g>
   <g id="cell58">
  <circle cx="552.846" cy="481.413" r="8.41271" stroke-width="0.5" stroke="black" fill="cyan"/>
  <circle cx="552.846" cy="481.413" r="5.05167" stroke-width="0.5" stroke="black" fill="cyan"/>
   </g>
   <g id="cell59">
  <circle cx="385.463" cy="439.803" r="8.41271" stroke-width="0.5" stroke="black" fill="cyan"/>
  <circle cx="385.463" cy="439.803" r="5.05167" stroke-width="0.5" stroke="black" fill="cyan"/>
   </g>
   <g id="cell60">
  <circle cx="593.166" cy="473.641" r="8.41271" stroke-width="0.5" stroke="black" fill="cyan"/>
  <circle cx="593.166" cy="473.641" r="5.05167" stroke-width="0.5" stroke="black" fill="cyan"/>
   </g>
   <g id="cell61">
  <circle cx="553.004" cy="614.275" r="8.41271" stroke-width="0.5" stroke="black" fill="cyan"/>
  <circle cx="553.004" cy="614.275" r="5.05167" stroke-width="0.5" stroke="black" fill="cyan"/>
   </g>
   <g id="cell62">
  <circle cx="521.633" cy="450.695" r="8.08613" stroke-width="0.5" stroke="black" fill="cyan"/>
  <circle cx="521.633" cy="450.695" r="4.8956" stroke-width="0.5" stroke="black" fill="cyan"/>
   </g>
   <g id="cell63">
  <circle cx="575.292" cy="540.57" r="7.44242" stroke-width="0.5" stroke="black" fill="cyan"/>
  <circle cx="575.292" cy="540.57" r="4.52373" stroke-width="0.5" stroke="black" fill="cyan"/>
   </g>
   <g id="cell64">
  <circle cx="509.962" cy="636.825" r="8.41271" stroke-width="0.5" stroke="black" fill="cyan"/>
  <circle cx="509.962" cy="636.825" r="5.05167" stroke-width="0.5" stroke="black" fill="cyan"/>
   </g>
   <g id="cell65">
  <circle cx="544.036" cy="469.525" r="7.33129" stroke-width="0.5" stroke="black" fill="cyan"/>
  <circle cx="544.036" cy="469.525" r="4.45516" stroke-width="0.5" stroke="black" fill="cyan"/>
   </g>
   <g id="cell66">
  <circle cx="532.02" cy="533.777" r="6.83713" stroke-width="0.5" stroke="black" fill="cyan"/>
  <circle cx="532.02" cy="533.777" r="4.12773" stroke-width="0.5" stroke="black" fill="cyan"/>
   </g>
   <g id="cell67">
  <circle cx="354.711" cy="492.599" r="8.41271" stroke-width="0.5" stroke="black" fill="cyan"/>
  <circle cx="354.711" cy="492.599" r="5.05167" stroke-width="0.5" stroke="black" fill="cyan"/>
   </g>
   <g id="cell68">
  <circle cx="564.944" cy="551.606" r="8.41271" stroke-width="0.5" stroke="black" fill="cyan"/>
  <circle cx="564.944" cy="551.606" r="5.05167" stroke-width="0.5" stroke="black" fill="cyan"/>
   </g>
   <g id="cell69">
  <circle cx="440.19" cy="463.083" r="8.41271" stroke-width="0.5" stroke="black" fill="cyan"/>
  <circle cx="440.19" cy="463.083" r="5.05167" stroke-width="0.5" stroke="black" fill="cyan"/>
   </g>
   <g id="cell70">
  <circle cx="577.204" cy="474.95" r="8.41271" stroke-width="0.5" stroke="black" fill="cyan"/>
  <circle cx="577.204" cy="474.95" r="5.05167" stroke-width="0.5" stroke="black" fill="cyan"/>
   </g>
   <g id="cell71">
  <circle cx="377.712" cy="520.989" r="8.41271" stroke-width="0.5" stroke="black" fill="cyan"/>
  <circle cx="377.712" cy="520.989" r="5.05167" stroke-width="0.5" stroke="black" fill="cyan"/>
   </g>
   <g id="cell72">
  <circle cx="531.4" cy="511.75" r="6.92764" stroke-width="0.5" stroke="black" fill="cyan"/>
  <circle cx="531.4" cy="511.75" r="4.1918" stroke-width="0.5" stroke="black" fill="cyan"/>
   </g>
   <g id="cell73">
  <circle cx="362.984" cy="551.149" r="7.54436" stroke-width="0.5" stroke="black" fill="cyan"/>
  <circle cx="362.984" cy="551.149" r="4.58555" stroke-width="0.5" stroke="black" fill="cyan"/>
   </g>
   <g id="cell74">
  <circle cx="543.019" cy="445.267" r="8.41271" stroke-width="0.5" stroke="black" fill="cyan"/>
  <circle cx="543.019" cy="445.267" r="5.05167" stroke-width="0.5" stroke="black" fill="cyan"/>
   </g>
   <g id="cell75">
  <circle cx="529.484" cy="437.58" r="8.08613" stroke-width="0.5" stroke="black" fill="cyan"/>
  <circle cx="529.484" cy="437.58" r="4.8956" stroke-width="0.5" stroke="black" fill="cyan"/>
   </g>
   <g id="cell76">
  <circle cx="448.334" cy="385.235" r="8.07654" stroke-width="0.5" stroke="black" fill="green"/>
  <circle cx="448.334" cy="385.235" r="4.89046" stroke-width="0.5" stroke="black" fill="green"/>
   </g>
   <g id="cell77">
  <circle cx="473.293" cy="437.835" r="8.05651" stroke-width="0.5" stroke="black" fill="magenta"/>
  <circle cx="473.293" cy="437.835" r="4.87966" stroke-width="0.5" stroke="black" fill="magenta"/>
   </g>
   <g id="cell78">
  <circle cx="625.573" cy="461.814" r="7.07851" stroke-width="0.5" stroke="black" fill="green"/>
  <circle cx="625.573" cy="461.814" r="4.33061" stroke-width="0.5" stroke="black" fill="green"/>
   </g>
   <g id="cell79">
  <circle cx="517.194" cy="476.381" r="7.97646" stroke-width="0.5" stroke="black" fill="cyan"/>
  <circle cx="517.194" cy="476.381" r="4.83584" stroke-width="0.5" stroke="black" fill="cyan"/>
   </g>
   <g id="cell80">
  <circle cx="537.974" cy="611.935" r="7.68319" stroke-width="0.5" stroke="black" fill="green"/>
  <circle cx="537.974" cy="611.935" r="4.6874" stroke-width="0.5" stroke="black" fill="green"/>
   </g>
   <g id="cell81">
  <circle cx="546.742" cy="600.277" r="7.68319" stroke-width="0.5" stroke="black" fill="green"/>
  <circle cx="546.742" cy="600.277" r="4.6874" stroke-width="0.5" stroke="black" fill="green"/>
   </g>
   <g id="cell82">
  <circle cx="530.786" cy="555.582" r="7.86286" stroke-width="0.5" stroke="black" fill="magenta"/>
  <circle cx="530.786" cy="555.582" r="4.77207" stroke-width="0.5" stroke="black" fill="magenta"/>
   </g>
   <g id="cell83">
  <circle cx="634.855" cy="556.18" r="7.86286" stroke-width="0.5" stroke="black" fill="green"/>
  <circle cx="634.855" cy="556.18" r="4.77207" stroke-width="0.5" stroke="black" fill="green"/>
   </g>
   <g id="cell84">
  <circle cx="519.742" cy="504.759" r="7.59183" stroke-width="0.5" stroke="black" fill="cyan"/>
  <circle cx="519.742" cy="504.759" r="4.61399" stroke-width="0.5" stroke="black" fill="cyan"/>
   </g>
   <g id="cell85">
  <circle cx="355.053" cy="541.435" r="6.00748" stroke-width="0.5" stroke="black" fill="cyan"/>
  <circle cx="355.053" cy="541.435" r="3.65289" stroke-width="0.5" stroke="black" fill="cyan"/>
   </g>
   <g id="cell86">
  <circle cx="507.554" cy="525.215" r="7.51976" stroke-width="0.5" stroke="black" fill="magenta"/>
  <circle cx="507.554" cy="525.215" r="4.57072" stroke-width="0.5" stroke="black" fill="magenta"/>
   </g>
   <g id="cell87">
  <circle cx="579.944" cy="553.86" r="7.44242" stroke-width="0.5" stroke="black" fill="cyan"/>
  <circle cx="579.944" cy="553.86" r="4.52373" stroke-width="0.5" stroke="black" fill="cyan"/>
   </g>
   <g id="cell88">
  <circle cx="448.998" cy="531.707" r="7.3599" stroke-width="0.5" stroke="black" fill="magenta"/>
  <circle cx="448.998" cy="531.707" r="4.47294" stroke-width="0.5" stroke="black" fill="magenta"/>
   </g>
   <g id="cell89">
  <circle cx="550.891" cy="457.835" r="7.33129" stroke-width="0.5" stroke="black" fill="cyan"/>
  <circle cx="550.891" cy="457.835" r="4.45516" stroke-width="0.5" stroke="black" fill="cyan"/>
   </g>
   <g id="cell90">
  <circle cx="630.524" cy="474.252" r="7.07851" stroke-width="0.5" stroke="black" fill="green"/>
  <circle cx="630.524" cy="474.252" r="4.33061" stroke-width="0.5" stroke="black" fill="green"/>
   </g>
   <g id="cell91">
  <circle cx="542.893" cy="553.344" r="5.99997" stroke-width="0.5" stroke="black" fill="magenta"/>
  <circle cx="542.893" cy="553.344" r="3.70263" stroke-width="0.5" stroke="black" fill="magenta"/>
   </g>
   <g id="cell92">
  <circle cx="482.415" cy="548.964" r="7.08639" stroke-width="0.5" stroke="black" fill="green"/>
  <circle cx="482.415" cy="548.964" r="4.29876" stroke-width="0.5" stroke="black" fill="green"/>
   </g>
   <g id="cell93">
  <circle cx="536.811" cy="544.523" r="5.99997" stroke-width="0.5" stroke="black" fill="magenta"/>
  <circle cx="536.811" cy="544.523" r="3.70263" stroke-width="0.5" stroke="black" fill="magenta"/>
   </g>
   <g id="cell94">
  <circle cx="532.131" cy="498.819" r="6.92764" stroke-width="0.5" stroke="black" fill="cyan"/>
  <circle cx="532.131" cy="498.819" r="4.1918" stroke-width="0.5" stroke="black" fill="cyan"/>
   </g>
   <g id="cell95">
  <circle cx="468.548" cy="423.309" r="6.89675" stroke-width="0.5" stroke="black" fill="cyan"/>
  <circle cx="468.548" cy="423.309" r="4.17024" stroke-width="0.5" stroke="black" fill="cyan"/>
   </g>
   <g id="cell96">
  <circle cx="537.825" cy="522.689" r="6.83713" stroke-width="0.5" stroke="black" fill="cyan"/>
  <circle cx="537.825" cy="522.689" r="4.12773" stroke-width="0.5" stroke="black" fill="cyan"/>
   </g>
   <g id="cell97">
  <circle cx="427.375" cy="469.231" r="6.75639" stroke-width="0.5" stroke="black" fill="green"/>
  <circle cx="427.375" cy="469.231" r="4.06813" stroke-width="0.5" stroke="black" fill="green"/>
   </g>
   <g id="cell98">
  <circle cx="499.015" cy="515.261" r="6.71158" stroke-width="0.5" stroke="black" fill="green"/>
  <circle cx="499.015" cy="515.261" r="4.03435" stroke-width="0.5" stroke="black" fill="green"/>
   </g>
   <g id="cell99">
  <circle cx="357.434" cy="530.523" r="6.00748" stroke-width="0.5" stroke="black" fill="cyan"/>
  <circle cx="357.434" cy="530.523" r="3.65289" stroke-width="0.5" stroke="black" fill="cyan"/>
   </g>
  </g>
 </g>
  <rect x="775" y="1035" width="200" height="10" stroke-width="2" stroke="rgb(255,255,255)" fill="rgb(0,0,0)"/>
  <text x="781.25" y="1028.75"
   font-family="Arial" font-size="25" fill="black" >
   200 &#956;m
  </text>
  <text x="25" y="1045"
   font-family="Arial" font-size="18.75" fill="black" >
   0 days, 0 hours, 0 minutes, and 8.5284 seconds
  </text>
  <rect x="0" y="70" width="1000" height="1000" stroke-width="2" stroke="rgb(0,0,0)" fill="none"/>
</svg>
