<?xml version="1.0" encoding="UTF-8" standalone="no"?>
<!-- Created with PhysiCell (http://PhysiCell.MathCancer.org/) -->
<svg 
 xmlns:dc="http://purl.org/dc/elements/1.1/" 
 xmlns:cc="http://creativecommons.org/ns#" 
 xmlns:rdf="http://www.w3.org/1999/02/22-rdf-syntax-ns#" 
 xmlns:svg="http://www.w3.org/2000/svg" 
 xmlns="http://www.w3.org/2000/svg" 
 version="1.1" 
 width="1000" 
 height="1070" 
 id="svg2">
  <rect x="0" y="0" width="1000" height="1070" stroke-width="2" stroke="white" fill="white"/>
  <text x="12.5" y="30"
   font-family="Arial" font-size="25" fill="black" >
   Current time: 0 days, 7 hours, and 57.00 minutes, z = 0.00 &#956;m
  </text>
  <text x="12.5" y="57.5"
   font-family="Arial" font-size="23.75" fill="black" >
   100 agents
  </text>
 <g id="tissue" 
    transform="translate(0,1070) scale(1,-1)">
  <g id="ECM">
  </g>
  <g id="cells">
   <g id="cell0">
  <circle cx="518.629" cy="532.86" r="7.59183" stroke-width="0.5" stroke="black" fill="magenta"/>
  <circle cx="518.629" cy="532.86" r="4.61399" stroke-width="0.5" stroke="black" fill="magenta"/>
   </g>
   <g id="cell1">
  <circle cx="602.492" cy="526.171" r="8.41271" stroke-width="0.5" stroke="black" fill="magenta"/>
  <circle cx="602.492" cy="526.171" r="5.05167" stroke-width="0.5" stroke="black" fill="magenta"/>
   </g>
   <g id="cell2">
  <circle cx="511.359" cy="600.549" r="8.41271" stroke-width="0.5" stroke="black" fill="magenta"/>
  <circle cx="511.359" cy="600.549" r="5.05167" stroke-width="0.5" stroke="black" fill="magenta"/>
   </g>
   <g id="cell3">
  <circle cx="524.924" cy="544.189" r="7.00449" stroke-width="0.5" stroke="black" fill="magenta"/>
  <circle cx="524.924" cy="544.189" r="4.28966" stroke-width="0.5" stroke="black" fill="magenta"/>
   </g>
   <g id="cell4">
  <circle cx="487.841" cy="438.342" r="8.08613" stroke-width="0.5" stroke="black" fill="magenta"/>
  <circle cx="487.841" cy="438.342" r="4.8956" stroke-width="0.5" stroke="black" fill="magenta"/>
   </g>
   <g id="cell5">
  <circle cx="465.032" cy="493.3" r="8.41271" stroke-width="0.5" stroke="black" fill="magenta"/>
  <circle cx="465.032" cy="493.3" r="5.05167" stroke-width="0.5" stroke="black" fill="magenta"/>
   </g>
   <g id="cell6">
  <circle cx="595.637" cy="512.669" r="8.41271" stroke-width="0.5" stroke="black" fill="magenta"/>
  <circle cx="595.637" cy="512.669" r="5.05167" stroke-width="0.5" stroke="black" fill="magenta"/>
   </g>
   <g id="cell7">
  <circle cx="511.888" cy="462.362" r="8.41271" stroke-width="0.5" stroke="black" fill="magenta"/>
  <circle cx="511.888" cy="462.362" r="5.05167" stroke-width="0.5" stroke="black" fill="magenta"/>
   </g>
   <g id="cell8">
  <circle cx="376.076" cy="544.286" r="8.41271" stroke-width="0.5" stroke="black" fill="magenta"/>
  <circle cx="376.076" cy="544.286" r="5.05167" stroke-width="0.5" stroke="black" fill="magenta"/>
   </g>
   <g id="cell9">
  <circle cx="460.472" cy="599.786" r="8.41271" stroke-width="0.5" stroke="black" fill="magenta"/>
  <circle cx="460.472" cy="599.786" r="5.05167" stroke-width="0.5" stroke="black" fill="magenta"/>
   </g>
   <g id="cell10">
  <circle cx="583.447" cy="392.105" r="8.41271" stroke-width="0.5" stroke="black" fill="magenta"/>
  <circle cx="583.447" cy="392.105" r="5.05167" stroke-width="0.5" stroke="black" fill="magenta"/>
   </g>
   <g id="cell11">
  <circle cx="589.748" cy="590.273" r="8.41271" stroke-width="0.5" stroke="black" fill="magenta"/>
  <circle cx="589.748" cy="590.273" r="5.05167" stroke-width="0.5" stroke="black" fill="magenta"/>
   </g>
   <g id="cell12">
  <circle cx="506.693" cy="586.161" r="8.41271" stroke-width="0.5" stroke="black" fill="magenta"/>
  <circle cx="506.693" cy="586.161" r="5.05167" stroke-width="0.5" stroke="black" fill="magenta"/>
   </g>
   <g id="cell13">
  <circle cx="386.194" cy="568.228" r="8.41271" stroke-width="0.5" stroke="black" fill="magenta"/>
  <circle cx="386.194" cy="568.228" r="5.05167" stroke-width="0.5" stroke="black" fill="magenta"/>
   </g>
   <g id="cell14">
  <circle cx="528.563" cy="399.181" r="8.41271" stroke-width="0.5" stroke="black" fill="magenta"/>
  <circle cx="528.563" cy="399.181" r="5.05167" stroke-width="0.5" stroke="black" fill="magenta"/>
   </g>
   <g id="cell15">
  <circle cx="379.65" cy="475.1" r="8.41271" stroke-width="0.5" stroke="black" fill="magenta"/>
  <circle cx="379.65" cy="475.1" r="5.05167" stroke-width="0.5" stroke="black" fill="magenta"/>
   </g>
   <g id="cell16">
  <circle cx="428.96" cy="413.217" r="8.41271" stroke-width="0.5" stroke="black" fill="magenta"/>
  <circle cx="428.96" cy="413.217" r="5.05167" stroke-width="0.5" stroke="black" fill="magenta"/>
   </g>
   <g id="cell17">
  <circle cx="569.612" cy="488.532" r="8.41271" stroke-width="0.5" stroke="black" fill="magenta"/>
  <circle cx="569.612" cy="488.532" r="5.05167" stroke-width="0.5" stroke="black" fill="magenta"/>
   </g>
   <g id="cell18">
  <circle cx="517.415" cy="388.932" r="8.41271" stroke-width="0.5" stroke="black" fill="magenta"/>
  <circle cx="517.415" cy="388.932" r="5.05167" stroke-width="0.5" stroke="black" fill="magenta"/>
   </g>
   <g id="cell19">
  <circle cx="456.012" cy="543.03" r="7.44242" stroke-width="0.5" stroke="black" fill="magenta"/>
  <circle cx="456.012" cy="543.03" r="4.52373" stroke-width="0.5" stroke="black" fill="magenta"/>
   </g>
   <g id="cell20">
  <circle cx="531.112" cy="414.106" r="8.41271" stroke-width="0.5" stroke="black" fill="magenta"/>
  <circle cx="531.112" cy="414.106" r="5.05167" stroke-width="0.5" stroke="black" fill="magenta"/>
   </g>
   <g id="cell21">
  <circle cx="464.368" cy="634.574" r="8.41271" stroke-width="0.5" stroke="black" fill="magenta"/>
  <circle cx="464.368" cy="634.574" r="5.05167" stroke-width="0.5" stroke="black" fill="magenta"/>
   </g>
   <g id="cell22">
  <circle cx="556.841" cy="496.561" r="8.41271" stroke-width="0.5" stroke="black" fill="magenta"/>
  <circle cx="556.841" cy="496.561" r="5.05167" stroke-width="0.5" stroke="black" fill="magenta"/>
   </g>
   <g id="cell23">
  <circle cx="536.822" cy="482.197" r="8.41271" stroke-width="0.5" stroke="black" fill="magenta"/>
  <circle cx="536.822" cy="482.197" r="5.05167" stroke-width="0.5" stroke="black" fill="magenta"/>
   </g>
   <g id="cell24">
  <circle cx="559.284" cy="379.797" r="8.41271" stroke-width="0.5" stroke="black" fill="magenta"/>
  <circle cx="559.284" cy="379.797" r="5.05167" stroke-width="0.5" stroke="black" fill="magenta"/>
   </g>
   <g id="cell25">
  <circle cx="645.389" cy="545.538" r="7.90853" stroke-width="0.5" stroke="black" fill="green"/>
  <circle cx="645.389" cy="545.538" r="4.79791" stroke-width="0.5" stroke="black" fill="green"/>
   </g>
   <g id="cell26">
  <circle cx="551.11" cy="401.25" r="8.41271" stroke-width="0.5" stroke="black" fill="green"/>
  <circle cx="551.11" cy="401.25" r="5.05167" stroke-width="0.5" stroke="black" fill="green"/>
   </g>
   <g id="cell27">
  <circle cx="462.721" cy="390.672" r="8.10448" stroke-width="0.5" stroke="black" fill="green"/>
  <circle cx="462.721" cy="390.672" r="4.90539" stroke-width="0.5" stroke="black" fill="green"/>
   </g>
   <g id="cell28">
  <circle cx="434.365" cy="530.767" r="8.41271" stroke-width="0.5" stroke="black" fill="green"/>
  <circle cx="434.365" cy="530.767" r="5.05167" stroke-width="0.5" stroke="black" fill="green"/>
   </g>
   <g id="cell29">
  <circle cx="450.349" cy="517.101" r="8.41271" stroke-width="0.5" stroke="black" fill="green"/>
  <circle cx="450.349" cy="517.101" r="5.05167" stroke-width="0.5" stroke="black" fill="green"/>
   </g>
   <g id="cell30">
  <circle cx="481.123" cy="535.518" r="7.18097" stroke-width="0.5" stroke="black" fill="green"/>
  <circle cx="481.123" cy="535.518" r="4.36015" stroke-width="0.5" stroke="black" fill="green"/>
   </g>
   <g id="cell31">
  <circle cx="412.757" cy="541.193" r="8.41271" stroke-width="0.5" stroke="black" fill="green"/>
  <circle cx="412.757" cy="541.193" r="5.05167" stroke-width="0.5" stroke="black" fill="green"/>
   </g>
   <g id="cell32">
  <circle cx="421.633" cy="480.723" r="6.83713" stroke-width="0.5" stroke="black" fill="green"/>
  <circle cx="421.633" cy="480.723" r="4.12773" stroke-width="0.5" stroke="black" fill="green"/>
   </g>
   <g id="cell33">
  <circle cx="495.425" cy="424.872" r="8.41271" stroke-width="0.5" stroke="black" fill="green"/>
  <circle cx="495.425" cy="424.872" r="5.05167" stroke-width="0.5" stroke="black" fill="green"/>
   </g>
   <g id="cell34">
  <circle cx="397.088" cy="450.831" r="8.41271" stroke-width="0.5" stroke="black" fill="green"/>
  <circle cx="397.088" cy="450.831" r="5.05167" stroke-width="0.5" stroke="black" fill="green"/>
   </g>
   <g id="cell35">
  <circle cx="550.869" cy="542.871" r="8.41271" stroke-width="0.5" stroke="black" fill="green"/>
  <circle cx="550.869" cy="542.871" r="5.05167" stroke-width="0.5" stroke="black" fill="green"/>
   </g>
   <g id="cell36">
  <circle cx="391.486" cy="582.903" r="8.41271" stroke-width="0.5" stroke="black" fill="green"/>
  <circle cx="391.486" cy="582.903" r="5.05167" stroke-width="0.5" stroke="black" fill="green"/>
   </g>
   <g id="cell37">
  <circle cx="639.266" cy="457.411" r="8.05651" stroke-width="0.5" stroke="black" fill="green"/>
  <circle cx="639.266" cy="457.411" r="4.87966" stroke-width="0.5" stroke="black" fill="green"/>
   </g>
   <g id="cell38">
  <circle cx="531.867" cy="598.388" r="7.98892" stroke-width="0.5" stroke="black" fill="green"/>
  <circle cx="531.867" cy="598.388" r="4.84272" stroke-width="0.5" stroke="black" fill="green"/>
   </g>
   <g id="cell39">
  <circle cx="613.458" cy="490.595" r="8.41271" stroke-width="0.5" stroke="black" fill="green"/>
  <circle cx="613.458" cy="490.595" r="5.05167" stroke-width="0.5" stroke="black" fill="green"/>
   </g>
   <g id="cell40">
  <circle cx="485.348" cy="571.779" r="8.41271" stroke-width="0.5" stroke="black" fill="green"/>
  <circle cx="485.348" cy="571.779" r="5.05167" stroke-width="0.5" stroke="black" fill="green"/>
   </g>
   <g id="cell41">
  <circle cx="364.925" cy="480.252" r="8.41271" stroke-width="0.5" stroke="black" fill="green"/>
  <circle cx="364.925" cy="480.252" r="5.05167" stroke-width="0.5" stroke="black" fill="green"/>
   </g>
   <g id="cell42">
  <circle cx="438.842" cy="494.268" r="8.41271" stroke-width="0.5" stroke="black" fill="green"/>
  <circle cx="438.842" cy="494.268" r="5.05167" stroke-width="0.5" stroke="black" fill="green"/>
   </g>
   <g id="cell43">
  <circle cx="559.109" cy="445.441" r="8.41271" stroke-width="0.5" stroke="black" fill="green"/>
  <circle cx="559.109" cy="445.441" r="5.05167" stroke-width="0.5" stroke="black" fill="green"/>
   </g>
   <g id="cell44">
  <circle cx="475.857" cy="624.021" r="8.41271" stroke-width="0.5" stroke="black" fill="green"/>
  <circle cx="475.857" cy="624.021" r="5.05167" stroke-width="0.5" stroke="black" fill="green"/>
   </g>
   <g id="cell45">
  <circle cx="414.953" cy="557.066" r="8.41271" stroke-width="0.5" stroke="black" fill="green"/>
  <circle cx="414.953" cy="557.066" r="5.05167" stroke-width="0.5" stroke="black" fill="green"/>
   </g>
   <g id="cell46">
  <circle cx="522.749" cy="611.114" r="8.41271" stroke-width="0.5" stroke="black" fill="green"/>
  <circle cx="522.749" cy="611.114" r="5.05167" stroke-width="0.5" stroke="black" fill="green"/>
   </g>
   <g id="cell47">
  <circle cx="506.234" cy="504.912" r="6.78181" stroke-width="0.5" stroke="black" fill="green"/>
  <circle cx="506.234" cy="504.912" r="4.08714" stroke-width="0.5" stroke="black" fill="green"/>
   </g>
   <g id="cell48">
  <circle cx="563.94" cy="602.677" r="8.41271" stroke-width="0.5" stroke="black" fill="green"/>
  <circle cx="563.94" cy="602.677" r="5.05167" stroke-width="0.5" stroke="black" fill="green"/>
   </g>
   <g id="cell49">
  <circle cx="429.826" cy="397.641" r="8.41271" stroke-width="0.5" stroke="black" fill="green"/>
  <circle cx="429.826" cy="397.641" r="5.05167" stroke-width="0.5" stroke="black" fill="green"/>
   </g>
   <g id="cell50">
  <circle cx="519.93" cy="518.949" r="7.65871" stroke-width="0.5" stroke="black" fill="cyan"/>
  <circle cx="519.93" cy="518.949" r="4.6537" stroke-width="0.5" stroke="black" fill="cyan"/>
   </g>
   <g id="cell51">
  <circle cx="398.721" cy="597.201" r="8.41271" stroke-width="0.5" stroke="black" fill="cyan"/>
  <circle cx="398.721" cy="597.201" r="5.05167" stroke-width="0.5" stroke="black" fill="cyan"/>
   </g>
   <g id="cell52">
  <circle cx="520.012" cy="425.059" r="8.41271" stroke-width="0.5" stroke="black" fill="cyan"/>
  <circle cx="520.012" cy="425.059" r="5.05167" stroke-width="0.5" stroke="black" fill="cyan"/>
   </g>
   <g id="cell53">
  <circle cx="571.639" cy="435.725" r="8.41271" stroke-width="0.5" stroke="black" fill="cyan"/>
  <circle cx="571.639" cy="435.725" r="5.05167" stroke-width="0.5" stroke="black" fill="cyan"/>
   </g>
   <g id="cell54">
  <circle cx="481.128" cy="426.228" r="6.99069" stroke-width="0.5" stroke="black" fill="cyan"/>
  <circle cx="481.128" cy="426.228" r="4.23498" stroke-width="0.5" stroke="black" fill="cyan"/>
   </g>
   <g id="cell55">
  <circle cx="529.633" cy="468.335" r="8.01277" stroke-width="0.5" stroke="black" fill="cyan"/>
  <circle cx="529.633" cy="468.335" r="4.85584" stroke-width="0.5" stroke="black" fill="cyan"/>
   </g>
   <g id="cell56">
  <circle cx="617.613" cy="522.333" r="8.41271" stroke-width="0.5" stroke="black" fill="cyan"/>
  <circle cx="617.613" cy="522.333" r="5.05167" stroke-width="0.5" stroke="black" fill="cyan"/>
   </g>
   <g id="cell57">
  <circle cx="416.924" cy="617.466" r="1.33065" stroke-width="0.5" stroke="black" fill="cyan"/>
  <circle cx="416.924" cy="617.466" r="1.32157" stroke-width="0.5" stroke="black" fill="black"/>
   </g>
   <g id="cell58">
  <circle cx="552.852" cy="481.597" r="8.41271" stroke-width="0.5" stroke="black" fill="cyan"/>
  <circle cx="552.852" cy="481.597" r="5.05167" stroke-width="0.5" stroke="black" fill="cyan"/>
   </g>
   <g id="cell59">
  <circle cx="385.463" cy="439.803" r="8.41271" stroke-width="0.5" stroke="black" fill="cyan"/>
  <circle cx="385.463" cy="439.803" r="5.05167" stroke-width="0.5" stroke="black" fill="cyan"/>
   </g>
   <g id="cell60">
  <circle cx="593.173" cy="473.64" r="8.41271" stroke-width="0.5" stroke="black" fill="cyan"/>
  <circle cx="593.173" cy="473.64" r="5.05167" stroke-width="0.5" stroke="black" fill="cyan"/>
   </g>
   <g id="cell61">
  <circle cx="553.07" cy="614.339" r="8.41271" stroke-width="0.5" stroke="black" fill="cyan"/>
  <circle cx="553.07" cy="614.339" r="5.05167" stroke-width="0.5" stroke="black" fill="cyan"/>
   </g>
   <g id="cell62">
  <circle cx="521.667" cy="450.698" r="8.11327" stroke-width="0.5" stroke="black" fill="cyan"/>
  <circle cx="521.667" cy="450.698" r="4.91006" stroke-width="0.5" stroke="black" fill="cyan"/>
   </g>
   <g id="cell63">
  <circle cx="575.256" cy="540.483" r="7.51976" stroke-width="0.5" stroke="black" fill="cyan"/>
  <circle cx="575.256" cy="540.483" r="4.57072" stroke-width="0.5" stroke="black" fill="cyan"/>
   </g>
   <g id="cell64">
  <circle cx="509.962" cy="636.825" r="8.41271" stroke-width="0.5" stroke="black" fill="cyan"/>
  <circle cx="509.962" cy="636.825" r="5.05167" stroke-width="0.5" stroke="black" fill="cyan"/>
   </g>
   <g id="cell65">
  <circle cx="544.034" cy="469.611" r="7.41548" stroke-width="0.5" stroke="black" fill="cyan"/>
  <circle cx="544.034" cy="469.611" r="4.50723" stroke-width="0.5" stroke="black" fill="cyan"/>
   </g>
   <g id="cell66">
  <circle cx="531.987" cy="533.656" r="6.92764" stroke-width="0.5" stroke="black" fill="cyan"/>
  <circle cx="531.987" cy="533.656" r="4.1918" stroke-width="0.5" stroke="black" fill="cyan"/>
   </g>
   <g id="cell67">
  <circle cx="354.711" cy="492.599" r="8.41271" stroke-width="0.5" stroke="black" fill="cyan"/>
  <circle cx="354.711" cy="492.599" r="5.05167" stroke-width="0.5" stroke="black" fill="cyan"/>
   </g>
   <g id="cell68">
  <circle cx="564.823" cy="551.492" r="8.41271" stroke-width="0.5" stroke="black" fill="cyan"/>
  <circle cx="564.823" cy="551.492" r="5.05167" stroke-width="0.5" stroke="black" fill="cyan"/>
   </g>
   <g id="cell69">
  <circle cx="440.344" cy="463.009" r="8.41271" stroke-width="0.5" stroke="black" fill="cyan"/>
  <circle cx="440.344" cy="463.009" r="5.05167" stroke-width="0.5" stroke="black" fill="cyan"/>
   </g>
   <g id="cell70">
  <circle cx="577.209" cy="474.928" r="8.41271" stroke-width="0.5" stroke="black" fill="cyan"/>
  <circle cx="577.209" cy="474.928" r="5.05167" stroke-width="0.5" stroke="black" fill="cyan"/>
   </g>
   <g id="cell71">
  <circle cx="377.712" cy="520.989" r="8.41271" stroke-width="0.5" stroke="black" fill="cyan"/>
  <circle cx="377.712" cy="520.989" r="5.05167" stroke-width="0.5" stroke="black" fill="cyan"/>
   </g>
   <g id="cell72">
  <circle cx="531.579" cy="511.521" r="7.02257" stroke-width="0.5" stroke="black" fill="cyan"/>
  <circle cx="531.579" cy="511.521" r="4.25644" stroke-width="0.5" stroke="black" fill="cyan"/>
   </g>
   <g id="cell73">
  <circle cx="363.098" cy="551.413" r="7.61469" stroke-width="0.5" stroke="black" fill="cyan"/>
  <circle cx="363.098" cy="551.413" r="4.62762" stroke-width="0.5" stroke="black" fill="cyan"/>
   </g>
   <g id="cell74">
  <circle cx="543.066" cy="445.197" r="8.41271" stroke-width="0.5" stroke="black" fill="cyan"/>
  <circle cx="543.066" cy="445.197" r="5.05167" stroke-width="0.5" stroke="black" fill="cyan"/>
   </g>
   <g id="cell75">
  <circle cx="529.486" cy="437.5" r="8.11327" stroke-width="0.5" stroke="black" fill="cyan"/>
  <circle cx="529.486" cy="437.5" r="4.91006" stroke-width="0.5" stroke="black" fill="cyan"/>
   </g>
   <g id="cell76">
  <circle cx="448.308" cy="385.225" r="8.10448" stroke-width="0.5" stroke="black" fill="green"/>
  <circle cx="448.308" cy="385.225" r="4.90539" stroke-width="0.5" stroke="black" fill="green"/>
   </g>
   <g id="cell77">
  <circle cx="473.161" cy="437.47" r="8.08613" stroke-width="0.5" stroke="black" fill="magenta"/>
  <circle cx="473.161" cy="437.47" r="4.8956" stroke-width="0.5" stroke="black" fill="magenta"/>
   </g>
   <g id="cell78">
  <circle cx="625.471" cy="461.737" r="7.18898" stroke-width="0.5" stroke="black" fill="green"/>
  <circle cx="625.471" cy="461.737" r="4.39672" stroke-width="0.5" stroke="black" fill="green"/>
   </g>
   <g id="cell79">
  <circle cx="517.091" cy="476.608" r="8.01277" stroke-width="0.5" stroke="black" fill="cyan"/>
  <circle cx="517.091" cy="476.608" r="4.85584" stroke-width="0.5" stroke="black" fill="cyan"/>
   </g>
   <g id="cell80">
  <circle cx="537.981" cy="612.008" r="7.74582" stroke-width="0.5" stroke="black" fill="green"/>
  <circle cx="537.981" cy="612.008" r="4.72208" stroke-width="0.5" stroke="black" fill="green"/>
   </g>
   <g id="cell81">
  <circle cx="546.836" cy="600.258" r="7.74582" stroke-width="0.5" stroke="black" fill="green"/>
  <circle cx="546.836" cy="600.258" r="4.72208" stroke-width="0.5" stroke="black" fill="green"/>
   </g>
   <g id="cell82">
  <circle cx="530.804" cy="555.971" r="7.90853" stroke-width="0.5" stroke="black" fill="magenta"/>
  <circle cx="530.804" cy="555.971" r="4.79791" stroke-width="0.5" stroke="black" fill="magenta"/>
   </g>
   <g id="cell83">
  <circle cx="634.823" cy="556.212" r="7.90853" stroke-width="0.5" stroke="black" fill="green"/>
  <circle cx="634.823" cy="556.212" r="4.79791" stroke-width="0.5" stroke="black" fill="green"/>
   </g>
   <g id="cell84">
  <circle cx="519.764" cy="504.477" r="7.65871" stroke-width="0.5" stroke="black" fill="cyan"/>
  <circle cx="519.764" cy="504.477" r="4.6537" stroke-width="0.5" stroke="black" fill="cyan"/>
   </g>
   <g id="cell85">
  <circle cx="354.804" cy="541.48" r="6.14009" stroke-width="0.5" stroke="black" fill="cyan"/>
  <circle cx="354.804" cy="541.48" r="3.74133" stroke-width="0.5" stroke="black" fill="cyan"/>
   </g>
   <g id="cell86">
  <circle cx="507.381" cy="525.318" r="7.59183" stroke-width="0.5" stroke="black" fill="magenta"/>
  <circle cx="507.381" cy="525.318" r="4.61399" stroke-width="0.5" stroke="black" fill="magenta"/>
   </g>
   <g id="cell87">
  <circle cx="579.903" cy="553.939" r="7.51976" stroke-width="0.5" stroke="black" fill="cyan"/>
  <circle cx="579.903" cy="553.939" r="4.57072" stroke-width="0.5" stroke="black" fill="cyan"/>
   </g>
   <g id="cell88">
  <circle cx="448.997" cy="531.69" r="7.44242" stroke-width="0.5" stroke="black" fill="magenta"/>
  <circle cx="448.997" cy="531.69" r="4.52373" stroke-width="0.5" stroke="black" fill="magenta"/>
   </g>
   <g id="cell89">
  <circle cx="551.05" cy="457.81" r="7.41548" stroke-width="0.5" stroke="black" fill="cyan"/>
  <circle cx="551.05" cy="457.81" r="4.50723" stroke-width="0.5" stroke="black" fill="cyan"/>
   </g>
   <g id="cell90">
  <circle cx="630.563" cy="474.35" r="7.18898" stroke-width="0.5" stroke="black" fill="green"/>
  <circle cx="630.563" cy="474.35" r="4.39672" stroke-width="0.5" stroke="black" fill="green"/>
   </g>
   <g id="cell91">
  <circle cx="543.174" cy="553.813" r="6.21111" stroke-width="0.5" stroke="black" fill="magenta"/>
  <circle cx="543.174" cy="553.813" r="3.83242" stroke-width="0.5" stroke="black" fill="magenta"/>
   </g>
   <g id="cell92">
  <circle cx="482.424" cy="549.053" r="7.18097" stroke-width="0.5" stroke="black" fill="green"/>
  <circle cx="482.424" cy="549.053" r="4.36015" stroke-width="0.5" stroke="black" fill="green"/>
   </g>
   <g id="cell93">
  <circle cx="536.911" cy="544.671" r="6.21111" stroke-width="0.5" stroke="black" fill="magenta"/>
  <circle cx="536.911" cy="544.671" r="3.83242" stroke-width="0.5" stroke="black" fill="magenta"/>
   </g>
   <g id="cell94">
  <circle cx="532.281" cy="498.256" r="7.02257" stroke-width="0.5" stroke="black" fill="cyan"/>
  <circle cx="532.281" cy="498.256" r="4.25644" stroke-width="0.5" stroke="black" fill="cyan"/>
   </g>
   <g id="cell95">
  <circle cx="468.347" cy="423.842" r="6.99069" stroke-width="0.5" stroke="black" fill="cyan"/>
  <circle cx="468.347" cy="423.842" r="4.23498" stroke-width="0.5" stroke="black" fill="cyan"/>
   </g>
   <g id="cell96">
  <circle cx="538.389" cy="522.561" r="6.92764" stroke-width="0.5" stroke="black" fill="cyan"/>
  <circle cx="538.389" cy="522.561" r="4.1918" stroke-width="0.5" stroke="black" fill="cyan"/>
   </g>
   <g id="cell97">
  <circle cx="427.304" cy="469.135" r="6.83713" stroke-width="0.5" stroke="black" fill="green"/>
  <circle cx="427.304" cy="469.135" r="4.12773" stroke-width="0.5" stroke="black" fill="green"/>
   </g>
   <g id="cell98">
  <circle cx="498.8" cy="515.297" r="6.78181" stroke-width="0.5" stroke="black" fill="green"/>
  <circle cx="498.8" cy="515.297" r="4.08714" stroke-width="0.5" stroke="black" fill="green"/>
   </g>
   <g id="cell99">
  <circle cx="357.496" cy="530.252" r="6.14009" stroke-width="0.5" stroke="black" fill="cyan"/>
  <circle cx="357.496" cy="530.252" r="3.74133" stroke-width="0.5" stroke="black" fill="cyan"/>
   </g>
  </g>
 </g>
  <rect x="775" y="1035" width="200" height="10" stroke-width="2" stroke="rgb(255,255,255)" fill="rgb(0,0,0)"/>
  <text x="781.25" y="1028.75"
   font-family="Arial" font-size="25" fill="black" >
   200 &#956;m
  </text>
  <text x="25" y="1045"
   font-family="Arial" font-size="18.75" fill="black" >
   0 days, 0 hours, 0 minutes, and 8.8819 seconds
  </text>
  <rect x="0" y="70" width="1000" height="1000" stroke-width="2" stroke="rgb(0,0,0)" fill="none"/>
</svg>
