<?xml version="1.0" encoding="UTF-8" standalone="no"?>
<!-- Created with PhysiCell (http://PhysiCell.MathCancer.org/) -->
<svg 
 xmlns:dc="http://purl.org/dc/elements/1.1/" 
 xmlns:cc="http://creativecommons.org/ns#" 
 xmlns:rdf="http://www.w3.org/1999/02/22-rdf-syntax-ns#" 
 xmlns:svg="http://www.w3.org/2000/svg" 
 xmlns="http://www.w3.org/2000/svg" 
 version="1.1" 
 width="1000" 
 height="1070" 
 id="svg2">
  <rect x="0" y="0" width="1000" height="1070" stroke-width="2" stroke="white" fill="white"/>
  <text x="12.5" y="30"
   font-family="Arial" font-size="25" fill="black" >
   Current time: 0 days, 10 hours, and 39.00 minutes, z = 0.00 &#956;m
  </text>
  <text x="12.5" y="57.5"
   font-family="Arial" font-size="23.75" fill="black" >
   108 agents
  </text>
 <g id="tissue" 
    transform="translate(0,1070) scale(1,-1)">
  <g id="ECM">
  </g>
  <g id="cells">
   <g id="cell0">
  <circle cx="517.073" cy="533.385" r="8.03527" stroke-width="0.5" stroke="black" fill="magenta"/>
  <circle cx="517.073" cy="533.385" r="4.86813" stroke-width="0.5" stroke="black" fill="magenta"/>
   </g>
   <g id="cell1">
  <circle cx="602.492" cy="526.171" r="8.41271" stroke-width="0.5" stroke="black" fill="magenta"/>
  <circle cx="602.492" cy="526.171" r="5.05167" stroke-width="0.5" stroke="black" fill="magenta"/>
   </g>
   <g id="cell2">
  <circle cx="512.547" cy="599.36" r="8.41271" stroke-width="0.5" stroke="black" fill="magenta"/>
  <circle cx="512.547" cy="599.36" r="5.05167" stroke-width="0.5" stroke="black" fill="magenta"/>
   </g>
   <g id="cell3">
  <circle cx="523.883" cy="545.685" r="7.77932" stroke-width="0.5" stroke="black" fill="magenta"/>
  <circle cx="523.883" cy="545.685" r="4.73831" stroke-width="0.5" stroke="black" fill="magenta"/>
   </g>
   <g id="cell4">
  <circle cx="488.94" cy="437.72" r="8.26262" stroke-width="0.5" stroke="black" fill="magenta"/>
  <circle cx="488.94" cy="437.72" r="4.98642" stroke-width="0.5" stroke="black" fill="magenta"/>
   </g>
   <g id="cell5">
  <circle cx="465.032" cy="493.3" r="8.41271" stroke-width="0.5" stroke="black" fill="magenta"/>
  <circle cx="465.032" cy="493.3" r="5.05167" stroke-width="0.5" stroke="black" fill="magenta"/>
   </g>
   <g id="cell6">
  <circle cx="595.637" cy="512.669" r="8.41271" stroke-width="0.5" stroke="black" fill="magenta"/>
  <circle cx="595.637" cy="512.669" r="5.05167" stroke-width="0.5" stroke="black" fill="magenta"/>
   </g>
   <g id="cell7">
  <circle cx="509.406" cy="461.74" r="8.41271" stroke-width="0.5" stroke="black" fill="magenta"/>
  <circle cx="509.406" cy="461.74" r="5.05167" stroke-width="0.5" stroke="black" fill="magenta"/>
   </g>
   <g id="cell8">
  <circle cx="376.357" cy="544.117" r="8.41271" stroke-width="0.5" stroke="black" fill="magenta"/>
  <circle cx="376.357" cy="544.117" r="5.05167" stroke-width="0.5" stroke="black" fill="magenta"/>
   </g>
   <g id="cell9">
  <circle cx="460.472" cy="599.786" r="8.41271" stroke-width="0.5" stroke="black" fill="magenta"/>
  <circle cx="460.472" cy="599.786" r="5.05167" stroke-width="0.5" stroke="black" fill="magenta"/>
   </g>
   <g id="cell10">
  <circle cx="583.447" cy="392.105" r="8.41271" stroke-width="0.5" stroke="black" fill="magenta"/>
  <circle cx="583.447" cy="392.105" r="5.05167" stroke-width="0.5" stroke="black" fill="magenta"/>
   </g>
   <g id="cell11">
  <circle cx="589.748" cy="590.273" r="8.41271" stroke-width="0.5" stroke="black" fill="magenta"/>
  <circle cx="589.748" cy="590.273" r="5.05167" stroke-width="0.5" stroke="black" fill="magenta"/>
   </g>
   <g id="cell12">
  <circle cx="506.438" cy="585.368" r="8.41271" stroke-width="0.5" stroke="black" fill="magenta"/>
  <circle cx="506.438" cy="585.368" r="5.05167" stroke-width="0.5" stroke="black" fill="magenta"/>
   </g>
   <g id="cell13">
  <circle cx="386.194" cy="568.228" r="8.41271" stroke-width="0.5" stroke="black" fill="magenta"/>
  <circle cx="386.194" cy="568.228" r="5.05167" stroke-width="0.5" stroke="black" fill="magenta"/>
   </g>
   <g id="cell14">
  <circle cx="528.596" cy="399.161" r="8.41271" stroke-width="0.5" stroke="black" fill="magenta"/>
  <circle cx="528.596" cy="399.161" r="5.05167" stroke-width="0.5" stroke="black" fill="magenta"/>
   </g>
   <g id="cell15">
  <circle cx="379.65" cy="475.1" r="8.41271" stroke-width="0.5" stroke="black" fill="magenta"/>
  <circle cx="379.65" cy="475.1" r="5.05167" stroke-width="0.5" stroke="black" fill="magenta"/>
   </g>
   <g id="cell16">
  <circle cx="428.96" cy="413.217" r="8.41271" stroke-width="0.5" stroke="black" fill="magenta"/>
  <circle cx="428.96" cy="413.217" r="5.05167" stroke-width="0.5" stroke="black" fill="magenta"/>
   </g>
   <g id="cell17">
  <circle cx="570.033" cy="489.406" r="8.41271" stroke-width="0.5" stroke="black" fill="magenta"/>
  <circle cx="570.033" cy="489.406" r="5.05167" stroke-width="0.5" stroke="black" fill="magenta"/>
   </g>
   <g id="cell18">
  <circle cx="517.422" cy="388.939" r="8.41271" stroke-width="0.5" stroke="black" fill="magenta"/>
  <circle cx="517.422" cy="388.939" r="5.05167" stroke-width="0.5" stroke="black" fill="magenta"/>
   </g>
   <g id="cell19">
  <circle cx="456.47" cy="543.775" r="7.96365" stroke-width="0.5" stroke="black" fill="magenta"/>
  <circle cx="456.47" cy="543.775" r="4.82873" stroke-width="0.5" stroke="black" fill="magenta"/>
   </g>
   <g id="cell20">
  <circle cx="531.156" cy="414.085" r="8.41271" stroke-width="0.5" stroke="black" fill="magenta"/>
  <circle cx="531.156" cy="414.085" r="5.05167" stroke-width="0.5" stroke="black" fill="magenta"/>
   </g>
   <g id="cell21">
  <circle cx="464.368" cy="634.574" r="8.41271" stroke-width="0.5" stroke="black" fill="magenta"/>
  <circle cx="464.368" cy="634.574" r="5.05167" stroke-width="0.5" stroke="black" fill="magenta"/>
   </g>
   <g id="cell22">
  <circle cx="557.727" cy="498.422" r="8.41271" stroke-width="0.5" stroke="black" fill="magenta"/>
  <circle cx="557.727" cy="498.422" r="5.05167" stroke-width="0.5" stroke="black" fill="magenta"/>
   </g>
   <g id="cell23">
  <circle cx="540.825" cy="484.777" r="8.41271" stroke-width="0.5" stroke="black" fill="magenta"/>
  <circle cx="540.825" cy="484.777" r="5.05167" stroke-width="0.5" stroke="black" fill="magenta"/>
   </g>
   <g id="cell24">
  <circle cx="559.283" cy="379.801" r="8.41271" stroke-width="0.5" stroke="black" fill="magenta"/>
  <circle cx="559.283" cy="379.801" r="5.05167" stroke-width="0.5" stroke="black" fill="magenta"/>
   </g>
   <g id="cell25">
  <circle cx="645.58" cy="545.345" r="8.18177" stroke-width="0.5" stroke="black" fill="green"/>
  <circle cx="645.58" cy="545.345" r="4.94584" stroke-width="0.5" stroke="black" fill="green"/>
   </g>
   <g id="cell26">
  <circle cx="551.07" cy="401.242" r="8.41271" stroke-width="0.5" stroke="black" fill="green"/>
  <circle cx="551.07" cy="401.242" r="5.05167" stroke-width="0.5" stroke="black" fill="green"/>
   </g>
   <g id="cell27">
  <circle cx="463.494" cy="390.458" r="8.27097" stroke-width="0.5" stroke="black" fill="green"/>
  <circle cx="463.494" cy="390.458" r="4.99048" stroke-width="0.5" stroke="black" fill="green"/>
   </g>
   <g id="cell28">
  <circle cx="433.854" cy="530.736" r="8.41271" stroke-width="0.5" stroke="black" fill="green"/>
  <circle cx="433.854" cy="530.736" r="5.05167" stroke-width="0.5" stroke="black" fill="green"/>
   </g>
   <g id="cell29">
  <circle cx="450.406" cy="516.493" r="8.41271" stroke-width="0.5" stroke="black" fill="green"/>
  <circle cx="450.406" cy="516.493" r="5.05167" stroke-width="0.5" stroke="black" fill="green"/>
   </g>
   <g id="cell30">
  <circle cx="481.062" cy="534.888" r="7.83019" stroke-width="0.5" stroke="black" fill="green"/>
  <circle cx="481.062" cy="534.888" r="4.75343" stroke-width="0.5" stroke="black" fill="green"/>
   </g>
   <g id="cell31">
  <circle cx="412.757" cy="541.193" r="8.41271" stroke-width="0.5" stroke="black" fill="green"/>
  <circle cx="412.757" cy="541.193" r="5.05167" stroke-width="0.5" stroke="black" fill="green"/>
   </g>
   <g id="cell32">
  <circle cx="422.126" cy="480.858" r="7.61469" stroke-width="0.5" stroke="black" fill="green"/>
  <circle cx="422.126" cy="480.858" r="4.62762" stroke-width="0.5" stroke="black" fill="green"/>
   </g>
   <g id="cell33">
  <circle cx="497.543" cy="424.978" r="8.41271" stroke-width="0.5" stroke="black" fill="green"/>
  <circle cx="497.543" cy="424.978" r="5.05167" stroke-width="0.5" stroke="black" fill="green"/>
   </g>
   <g id="cell34">
  <circle cx="397.088" cy="450.831" r="8.41271" stroke-width="0.5" stroke="black" fill="green"/>
  <circle cx="397.088" cy="450.831" r="5.05167" stroke-width="0.5" stroke="black" fill="green"/>
   </g>
   <g id="cell35">
  <circle cx="551.213" cy="541.676" r="8.41271" stroke-width="0.5" stroke="black" fill="green"/>
  <circle cx="551.213" cy="541.676" r="5.05167" stroke-width="0.5" stroke="black" fill="green"/>
   </g>
   <g id="cell36">
  <circle cx="391.486" cy="582.903" r="8.41271" stroke-width="0.5" stroke="black" fill="green"/>
  <circle cx="391.486" cy="582.903" r="5.05167" stroke-width="0.5" stroke="black" fill="green"/>
   </g>
   <g id="cell37">
  <circle cx="639.639" cy="457.312" r="8.24914" stroke-width="0.5" stroke="black" fill="green"/>
  <circle cx="639.639" cy="457.312" r="4.97981" stroke-width="0.5" stroke="black" fill="green"/>
   </g>
   <g id="cell38">
  <circle cx="531.24" cy="598.183" r="8.21839" stroke-width="0.5" stroke="black" fill="green"/>
  <circle cx="531.24" cy="598.183" r="4.96448" stroke-width="0.5" stroke="black" fill="green"/>
   </g>
   <g id="cell39">
  <circle cx="613.458" cy="490.595" r="8.41271" stroke-width="0.5" stroke="black" fill="green"/>
  <circle cx="613.458" cy="490.595" r="5.05167" stroke-width="0.5" stroke="black" fill="green"/>
   </g>
   <g id="cell40">
  <circle cx="485.348" cy="571.779" r="8.41271" stroke-width="0.5" stroke="black" fill="green"/>
  <circle cx="485.348" cy="571.779" r="5.05167" stroke-width="0.5" stroke="black" fill="green"/>
   </g>
   <g id="cell41">
  <circle cx="364.925" cy="480.252" r="8.41271" stroke-width="0.5" stroke="black" fill="green"/>
  <circle cx="364.925" cy="480.252" r="5.05167" stroke-width="0.5" stroke="black" fill="green"/>
   </g>
   <g id="cell42">
  <circle cx="438.842" cy="494.268" r="8.41271" stroke-width="0.5" stroke="black" fill="green"/>
  <circle cx="438.842" cy="494.268" r="5.05167" stroke-width="0.5" stroke="black" fill="green"/>
   </g>
   <g id="cell43">
  <circle cx="558.509" cy="442.878" r="8.41271" stroke-width="0.5" stroke="black" fill="green"/>
  <circle cx="558.509" cy="442.878" r="5.05167" stroke-width="0.5" stroke="black" fill="green"/>
   </g>
   <g id="cell44">
  <circle cx="475.857" cy="624.021" r="8.41271" stroke-width="0.5" stroke="black" fill="green"/>
  <circle cx="475.857" cy="624.021" r="5.05167" stroke-width="0.5" stroke="black" fill="green"/>
   </g>
   <g id="cell45">
  <circle cx="414.953" cy="557.066" r="8.41271" stroke-width="0.5" stroke="black" fill="green"/>
  <circle cx="414.953" cy="557.066" r="5.05167" stroke-width="0.5" stroke="black" fill="green"/>
   </g>
   <g id="cell46">
  <circle cx="524.685" cy="610.645" r="7.08639" stroke-width="0.5" stroke="black" fill="green"/>
  <circle cx="524.685" cy="610.645" r="4.29876" stroke-width="0.5" stroke="black" fill="green"/>
   </g>
   <g id="cell47">
  <circle cx="504.884" cy="503.59" r="7.56839" stroke-width="0.5" stroke="black" fill="green"/>
  <circle cx="504.884" cy="503.59" r="4.59998" stroke-width="0.5" stroke="black" fill="green"/>
   </g>
   <g id="cell48">
  <circle cx="569.186" cy="599.429" r="6.71158" stroke-width="0.5" stroke="black" fill="green"/>
  <circle cx="569.186" cy="599.429" r="4.03435" stroke-width="0.5" stroke="black" fill="green"/>
   </g>
   <g id="cell49">
  <circle cx="429.826" cy="397.641" r="8.41271" stroke-width="0.5" stroke="black" fill="green"/>
  <circle cx="429.826" cy="397.641" r="5.05167" stroke-width="0.5" stroke="black" fill="green"/>
   </g>
   <g id="cell50">
  <circle cx="519.175" cy="518.692" r="8.06667" stroke-width="0.5" stroke="black" fill="cyan"/>
  <circle cx="519.175" cy="518.692" r="4.88515" stroke-width="0.5" stroke="black" fill="cyan"/>
   </g>
   <g id="cell51">
  <circle cx="398.721" cy="597.201" r="8.41271" stroke-width="0.5" stroke="black" fill="cyan"/>
  <circle cx="398.721" cy="597.201" r="5.05167" stroke-width="0.5" stroke="black" fill="cyan"/>
   </g>
   <g id="cell52">
  <circle cx="519.428" cy="424.369" r="8.41271" stroke-width="0.5" stroke="black" fill="cyan"/>
  <circle cx="519.428" cy="424.369" r="5.05167" stroke-width="0.5" stroke="black" fill="cyan"/>
   </g>
   <g id="cell53">
  <circle cx="572.894" cy="430.292" r="7.27253" stroke-width="0.5" stroke="black" fill="cyan"/>
  <circle cx="572.894" cy="430.292" r="4.41835" stroke-width="0.5" stroke="black" fill="cyan"/>
   </g>
   <g id="cell54">
  <circle cx="482.32" cy="424.222" r="7.72056" stroke-width="0.5" stroke="black" fill="cyan"/>
  <circle cx="482.32" cy="424.222" r="4.69003" stroke-width="0.5" stroke="black" fill="cyan"/>
   </g>
   <g id="cell55">
  <circle cx="523.633" cy="463.299" r="7.29813" stroke-width="0.5" stroke="black" fill="cyan"/>
  <circle cx="523.633" cy="463.299" r="4.45391" stroke-width="0.5" stroke="black" fill="cyan"/>
   </g>
   <g id="cell56">
  <circle cx="617.613" cy="522.333" r="8.41271" stroke-width="0.5" stroke="black" fill="cyan"/>
  <circle cx="617.613" cy="522.333" r="5.05167" stroke-width="0.5" stroke="black" fill="cyan"/>
   </g>
   <g id="cell105">
  <circle cx="511.886" cy="613.668" r="7.08639" stroke-width="0.5" stroke="black" fill="green"/>
  <circle cx="511.886" cy="613.668" r="4.29876" stroke-width="0.5" stroke="black" fill="green"/>
   </g>
   <g id="cell58">
  <circle cx="556.039" cy="483.047" r="8.41271" stroke-width="0.5" stroke="black" fill="cyan"/>
  <circle cx="556.039" cy="483.047" r="5.05167" stroke-width="0.5" stroke="black" fill="cyan"/>
   </g>
   <g id="cell59">
  <circle cx="385.463" cy="439.803" r="8.41271" stroke-width="0.5" stroke="black" fill="cyan"/>
  <circle cx="385.463" cy="439.803" r="5.05167" stroke-width="0.5" stroke="black" fill="cyan"/>
   </g>
   <g id="cell60">
  <circle cx="593.026" cy="473.654" r="8.41271" stroke-width="0.5" stroke="black" fill="cyan"/>
  <circle cx="593.026" cy="473.654" r="5.05167" stroke-width="0.5" stroke="black" fill="cyan"/>
   </g>
   <g id="cell61">
  <circle cx="553.836" cy="617.409" r="8.41271" stroke-width="0.5" stroke="black" fill="cyan"/>
  <circle cx="553.836" cy="617.409" r="5.05167" stroke-width="0.5" stroke="black" fill="cyan"/>
   </g>
   <g id="cell62">
  <circle cx="519.29" cy="449.538" r="8.27497" stroke-width="0.5" stroke="black" fill="cyan"/>
  <circle cx="519.29" cy="449.538" r="4.99242" stroke-width="0.5" stroke="black" fill="cyan"/>
   </g>
   <g id="cell63">
  <circle cx="574.731" cy="540.994" r="8.00101" stroke-width="0.5" stroke="black" fill="cyan"/>
  <circle cx="574.731" cy="540.994" r="4.84939" stroke-width="0.5" stroke="black" fill="cyan"/>
   </g>
   <g id="cell64">
  <circle cx="509.962" cy="636.825" r="8.41271" stroke-width="0.5" stroke="black" fill="cyan"/>
  <circle cx="509.962" cy="636.825" r="5.05167" stroke-width="0.5" stroke="black" fill="cyan"/>
   </g>
   <g id="cell65">
  <circle cx="546.831" cy="470.835" r="7.95045" stroke-width="0.5" stroke="black" fill="cyan"/>
  <circle cx="546.831" cy="470.835" r="4.82139" stroke-width="0.5" stroke="black" fill="cyan"/>
   </g>
   <g id="cell66">
  <circle cx="531.367" cy="533.031" r="7.67987" stroke-width="0.5" stroke="black" fill="cyan"/>
  <circle cx="531.367" cy="533.031" r="4.66617" stroke-width="0.5" stroke="black" fill="cyan"/>
   </g>
   <g id="cell67">
  <circle cx="354.711" cy="492.599" r="8.41271" stroke-width="0.5" stroke="black" fill="cyan"/>
  <circle cx="354.711" cy="492.599" r="5.05167" stroke-width="0.5" stroke="black" fill="cyan"/>
   </g>
   <g id="cell68">
  <circle cx="563.119" cy="551.79" r="8.41271" stroke-width="0.5" stroke="black" fill="cyan"/>
  <circle cx="563.119" cy="551.79" r="5.05167" stroke-width="0.5" stroke="black" fill="cyan"/>
   </g>
   <g id="cell69">
  <circle cx="441.613" cy="461.392" r="8.41271" stroke-width="0.5" stroke="black" fill="cyan"/>
  <circle cx="441.613" cy="461.392" r="5.05167" stroke-width="0.5" stroke="black" fill="cyan"/>
   </g>
   <g id="cell70">
  <circle cx="577.07" cy="475.408" r="8.41271" stroke-width="0.5" stroke="black" fill="cyan"/>
  <circle cx="577.07" cy="475.408" r="5.05167" stroke-width="0.5" stroke="black" fill="cyan"/>
   </g>
   <g id="cell71">
  <circle cx="377.712" cy="520.989" r="8.41271" stroke-width="0.5" stroke="black" fill="cyan"/>
  <circle cx="377.712" cy="520.989" r="5.05167" stroke-width="0.5" stroke="black" fill="cyan"/>
   </g>
   <g id="cell72">
  <circle cx="532.209" cy="511.475" r="7.7401" stroke-width="0.5" stroke="black" fill="cyan"/>
  <circle cx="532.209" cy="511.475" r="4.70142" stroke-width="0.5" stroke="black" fill="cyan"/>
   </g>
   <g id="cell73">
  <circle cx="363.631" cy="552.495" r="8.04604" stroke-width="0.5" stroke="black" fill="cyan"/>
  <circle cx="363.631" cy="552.495" r="4.87399" stroke-width="0.5" stroke="black" fill="cyan"/>
   </g>
   <g id="cell74">
  <circle cx="542.62" cy="444.835" r="8.41271" stroke-width="0.5" stroke="black" fill="cyan"/>
  <circle cx="542.62" cy="444.835" r="5.05167" stroke-width="0.5" stroke="black" fill="cyan"/>
   </g>
   <g id="cell75">
  <circle cx="528.869" cy="437.073" r="8.27497" stroke-width="0.5" stroke="black" fill="cyan"/>
  <circle cx="528.869" cy="437.073" r="4.99242" stroke-width="0.5" stroke="black" fill="cyan"/>
   </g>
   <g id="cell76">
  <circle cx="443.002" cy="383.067" r="6.05995" stroke-width="0.5" stroke="black" fill="green"/>
  <circle cx="443.002" cy="383.067" r="3.71641" stroke-width="0.5" stroke="black" fill="green"/>
   </g>
   <g id="cell77">
  <circle cx="475.712" cy="435.743" r="6.78528" stroke-width="0.5" stroke="black" fill="magenta"/>
  <circle cx="475.712" cy="435.743" r="4.12114" stroke-width="0.5" stroke="black" fill="magenta"/>
   </g>
   <g id="cell78">
  <circle cx="624.844" cy="461.255" r="7.85962" stroke-width="0.5" stroke="black" fill="green"/>
  <circle cx="624.844" cy="461.255" r="4.78115" stroke-width="0.5" stroke="black" fill="green"/>
   </g>
   <g id="cell79">
  <circle cx="516.051" cy="475.855" r="8.22925" stroke-width="0.5" stroke="black" fill="cyan"/>
  <circle cx="516.051" cy="475.855" r="4.96993" stroke-width="0.5" stroke="black" fill="cyan"/>
   </g>
   <g id="cell80">
  <circle cx="538.931" cy="612.497" r="8.11188" stroke-width="0.5" stroke="black" fill="green"/>
  <circle cx="538.931" cy="612.497" r="4.91632" stroke-width="0.5" stroke="black" fill="green"/>
   </g>
   <g id="cell81">
  <circle cx="546.001" cy="598.739" r="8.11188" stroke-width="0.5" stroke="black" fill="green"/>
  <circle cx="546.001" cy="598.739" r="4.91632" stroke-width="0.5" stroke="black" fill="green"/>
   </g>
   <g id="cell82">
  <circle cx="531.524" cy="557.978" r="8.18177" stroke-width="0.5" stroke="black" fill="magenta"/>
  <circle cx="531.524" cy="557.978" r="4.94584" stroke-width="0.5" stroke="black" fill="magenta"/>
   </g>
   <g id="cell83">
  <circle cx="634.632" cy="556.405" r="8.18177" stroke-width="0.5" stroke="black" fill="green"/>
  <circle cx="634.632" cy="556.405" r="4.94584" stroke-width="0.5" stroke="black" fill="green"/>
   </g>
   <g id="cell84">
  <circle cx="519.526" cy="503.445" r="8.06667" stroke-width="0.5" stroke="black" fill="cyan"/>
  <circle cx="519.526" cy="503.445" r="4.88515" stroke-width="0.5" stroke="black" fill="cyan"/>
   </g>
   <g id="cell85">
  <circle cx="353.587" cy="541.982" r="7.31956" stroke-width="0.5" stroke="black" fill="cyan"/>
  <circle cx="353.587" cy="541.982" r="4.4757" stroke-width="0.5" stroke="black" fill="cyan"/>
   </g>
   <g id="cell86">
  <circle cx="505.632" cy="524.929" r="8.03527" stroke-width="0.5" stroke="black" fill="magenta"/>
  <circle cx="505.632" cy="524.929" r="4.86813" stroke-width="0.5" stroke="black" fill="magenta"/>
   </g>
   <g id="cell87">
  <circle cx="577.06" cy="554.892" r="6.86742" stroke-width="0.5" stroke="black" fill="cyan"/>
  <circle cx="577.06" cy="554.892" r="4.20009" stroke-width="0.5" stroke="black" fill="cyan"/>
   </g>
   <g id="cell88">
  <circle cx="448.993" cy="531.584" r="7.96365" stroke-width="0.5" stroke="black" fill="magenta"/>
  <circle cx="448.993" cy="531.584" r="4.82873" stroke-width="0.5" stroke="black" fill="magenta"/>
   </g>
   <g id="cell89">
  <circle cx="552.224" cy="456.97" r="7.95045" stroke-width="0.5" stroke="black" fill="cyan"/>
  <circle cx="552.224" cy="456.97" r="4.82139" stroke-width="0.5" stroke="black" fill="cyan"/>
   </g>
   <g id="cell90">
  <circle cx="630.817" cy="474.93" r="7.85962" stroke-width="0.5" stroke="black" fill="green"/>
  <circle cx="630.817" cy="474.93" r="4.78115" stroke-width="0.5" stroke="black" fill="green"/>
   </g>
   <g id="cell91">
  <circle cx="545.648" cy="555.646" r="7.45694" stroke-width="0.5" stroke="black" fill="magenta"/>
  <circle cx="545.648" cy="555.646" r="4.56693" stroke-width="0.5" stroke="black" fill="magenta"/>
   </g>
   <g id="cell92">
  <circle cx="482.484" cy="549.684" r="7.83019" stroke-width="0.5" stroke="black" fill="green"/>
  <circle cx="482.484" cy="549.684" r="4.75343" stroke-width="0.5" stroke="black" fill="green"/>
   </g>
   <g id="cell93">
  <circle cx="537.343" cy="545.361" r="7.45694" stroke-width="0.5" stroke="black" fill="magenta"/>
  <circle cx="537.343" cy="545.361" r="4.56693" stroke-width="0.5" stroke="black" fill="magenta"/>
   </g>
   <g id="cell94">
  <circle cx="532.82" cy="497.027" r="7.7401" stroke-width="0.5" stroke="black" fill="cyan"/>
  <circle cx="532.82" cy="497.027" r="4.70142" stroke-width="0.5" stroke="black" fill="cyan"/>
   </g>
   <g id="cell95">
  <circle cx="467.535" cy="425.215" r="7.72056" stroke-width="0.5" stroke="black" fill="cyan"/>
  <circle cx="467.535" cy="425.215" r="4.69003" stroke-width="0.5" stroke="black" fill="cyan"/>
   </g>
   <g id="cell96">
  <circle cx="541.459" cy="522.616" r="7.67987" stroke-width="0.5" stroke="black" fill="cyan"/>
  <circle cx="541.459" cy="522.616" r="4.66617" stroke-width="0.5" stroke="black" fill="cyan"/>
   </g>
   <g id="cell97">
  <circle cx="422.396" cy="467.061" r="6.91626" stroke-width="0.5" stroke="black" fill="green"/>
  <circle cx="422.396" cy="467.061" r="4.24213" stroke-width="0.5" stroke="black" fill="green"/>
   </g>
   <g id="cell98">
  <circle cx="495.811" cy="514.582" r="7.56839" stroke-width="0.5" stroke="black" fill="green"/>
  <circle cx="495.811" cy="514.582" r="4.59998" stroke-width="0.5" stroke="black" fill="green"/>
   </g>
   <g id="cell99">
  <circle cx="357.9" cy="528.837" r="7.31956" stroke-width="0.5" stroke="black" fill="cyan"/>
  <circle cx="357.9" cy="528.837" r="4.4757" stroke-width="0.5" stroke="black" fill="cyan"/>
   </g>
   <g id="cell100">
  <circle cx="449.171" cy="394.093" r="7.32469" stroke-width="0.5" stroke="black" fill="green"/>
  <circle cx="449.171" cy="394.093" r="4.46711" stroke-width="0.5" stroke="black" fill="green"/>
   </g>
   <g id="cell101">
  <circle cx="532.751" cy="473.032" r="7.29813" stroke-width="0.5" stroke="black" fill="cyan"/>
  <circle cx="532.751" cy="473.032" r="4.45391" stroke-width="0.5" stroke="black" fill="cyan"/>
   </g>
   <g id="cell102">
  <circle cx="433.76" cy="473.56" r="6.91626" stroke-width="0.5" stroke="black" fill="green"/>
  <circle cx="433.76" cy="473.56" r="4.24213" stroke-width="0.5" stroke="black" fill="green"/>
   </g>
   <g id="cell103">
  <circle cx="573.324" cy="444.061" r="7.27253" stroke-width="0.5" stroke="black" fill="cyan"/>
  <circle cx="573.324" cy="444.061" r="4.41835" stroke-width="0.5" stroke="black" fill="cyan"/>
   </g>
   <g id="cell104">
  <circle cx="589.879" cy="553.838" r="6.86742" stroke-width="0.5" stroke="black" fill="cyan"/>
  <circle cx="589.879" cy="553.838" r="4.20009" stroke-width="0.5" stroke="black" fill="cyan"/>
   </g>
   <g id="cell106">
  <circle cx="465.101" cy="441.421" r="6.78528" stroke-width="0.5" stroke="black" fill="magenta"/>
  <circle cx="465.101" cy="441.421" r="4.12114" stroke-width="0.5" stroke="black" fill="magenta"/>
   </g>
   <g id="cell107">
  <circle cx="452.987" cy="377.52" r="6.05995" stroke-width="0.5" stroke="black" fill="green"/>
  <circle cx="452.987" cy="377.52" r="3.71641" stroke-width="0.5" stroke="black" fill="green"/>
   </g>
   <g id="cell108">
  <circle cx="558.07" cy="604.263" r="6.71158" stroke-width="0.5" stroke="black" fill="green"/>
  <circle cx="558.07" cy="604.263" r="4.03435" stroke-width="0.5" stroke="black" fill="green"/>
   </g>
  </g>
 </g>
  <rect x="775" y="1035" width="200" height="10" stroke-width="2" stroke="rgb(255,255,255)" fill="rgb(0,0,0)"/>
  <text x="781.25" y="1028.75"
   font-family="Arial" font-size="25" fill="black" >
   200 &#956;m
  </text>
  <text x="25" y="1045"
   font-family="Arial" font-size="18.75" fill="black" >
   0 days, 0 hours, 0 minutes, and 12.0586 seconds
  </text>
  <rect x="0" y="70" width="1000" height="1000" stroke-width="2" stroke="rgb(0,0,0)" fill="none"/>
</svg>
