<?xml version="1.0" encoding="UTF-8" standalone="no"?>
<!-- Created with PhysiCell (http://PhysiCell.MathCancer.org/) -->
<svg 
 xmlns:dc="http://purl.org/dc/elements/1.1/" 
 xmlns:cc="http://creativecommons.org/ns#" 
 xmlns:rdf="http://www.w3.org/1999/02/22-rdf-syntax-ns#" 
 xmlns:svg="http://www.w3.org/2000/svg" 
 xmlns="http://www.w3.org/2000/svg" 
 version="1.1" 
 width="1000" 
 height="1070" 
 id="svg2">
  <rect x="0" y="0" width="1000" height="1070" stroke-width="2" stroke="white" fill="white"/>
  <text x="12.5" y="30"
   font-family="Arial" font-size="25" fill="black" >
   Current time: 0 days, 8 hours, and 42.00 minutes, z = 0.00 &#956;m
  </text>
  <text x="12.5" y="57.5"
   font-family="Arial" font-size="23.75" fill="black" >
   104 agents
  </text>
 <g id="tissue" 
    transform="translate(0,1070) scale(1,-1)">
  <g id="ECM">
  </g>
  <g id="cells">
   <g id="cell0">
  <circle cx="518.345" cy="532.937" r="7.7401" stroke-width="0.5" stroke="black" fill="magenta"/>
  <circle cx="518.345" cy="532.937" r="4.70142" stroke-width="0.5" stroke="black" fill="magenta"/>
   </g>
   <g id="cell1">
  <circle cx="602.492" cy="526.171" r="8.41271" stroke-width="0.5" stroke="black" fill="magenta"/>
  <circle cx="602.492" cy="526.171" r="5.05167" stroke-width="0.5" stroke="black" fill="magenta"/>
   </g>
   <g id="cell2">
  <circle cx="511.412" cy="600.451" r="8.41271" stroke-width="0.5" stroke="black" fill="magenta"/>
  <circle cx="511.412" cy="600.451" r="5.05167" stroke-width="0.5" stroke="black" fill="magenta"/>
   </g>
   <g id="cell3">
  <circle cx="524.659" cy="544.642" r="7.26606" stroke-width="0.5" stroke="black" fill="magenta"/>
  <circle cx="524.659" cy="544.642" r="4.44517" stroke-width="0.5" stroke="black" fill="magenta"/>
   </g>
   <g id="cell4">
  <circle cx="487.821" cy="438.293" r="8.14594" stroke-width="0.5" stroke="black" fill="magenta"/>
  <circle cx="487.821" cy="438.293" r="4.92726" stroke-width="0.5" stroke="black" fill="magenta"/>
   </g>
   <g id="cell5">
  <circle cx="465.032" cy="493.3" r="8.41271" stroke-width="0.5" stroke="black" fill="magenta"/>
  <circle cx="465.032" cy="493.3" r="5.05167" stroke-width="0.5" stroke="black" fill="magenta"/>
   </g>
   <g id="cell6">
  <circle cx="595.637" cy="512.669" r="8.41271" stroke-width="0.5" stroke="black" fill="magenta"/>
  <circle cx="595.637" cy="512.669" r="5.05167" stroke-width="0.5" stroke="black" fill="magenta"/>
   </g>
   <g id="cell7">
  <circle cx="510.843" cy="462.312" r="8.41271" stroke-width="0.5" stroke="black" fill="magenta"/>
  <circle cx="510.843" cy="462.312" r="5.05167" stroke-width="0.5" stroke="black" fill="magenta"/>
   </g>
   <g id="cell8">
  <circle cx="376.177" cy="544.229" r="8.41271" stroke-width="0.5" stroke="black" fill="magenta"/>
  <circle cx="376.177" cy="544.229" r="5.05167" stroke-width="0.5" stroke="black" fill="magenta"/>
   </g>
   <g id="cell9">
  <circle cx="460.472" cy="599.786" r="8.41271" stroke-width="0.5" stroke="black" fill="magenta"/>
  <circle cx="460.472" cy="599.786" r="5.05167" stroke-width="0.5" stroke="black" fill="magenta"/>
   </g>
   <g id="cell10">
  <circle cx="583.447" cy="392.105" r="8.41271" stroke-width="0.5" stroke="black" fill="magenta"/>
  <circle cx="583.447" cy="392.105" r="5.05167" stroke-width="0.5" stroke="black" fill="magenta"/>
   </g>
   <g id="cell11">
  <circle cx="589.748" cy="590.273" r="8.41271" stroke-width="0.5" stroke="black" fill="magenta"/>
  <circle cx="589.748" cy="590.273" r="5.05167" stroke-width="0.5" stroke="black" fill="magenta"/>
   </g>
   <g id="cell12">
  <circle cx="506.669" cy="586.088" r="8.41271" stroke-width="0.5" stroke="black" fill="magenta"/>
  <circle cx="506.669" cy="586.088" r="5.05167" stroke-width="0.5" stroke="black" fill="magenta"/>
   </g>
   <g id="cell13">
  <circle cx="386.194" cy="568.228" r="8.41271" stroke-width="0.5" stroke="black" fill="magenta"/>
  <circle cx="386.194" cy="568.228" r="5.05167" stroke-width="0.5" stroke="black" fill="magenta"/>
   </g>
   <g id="cell14">
  <circle cx="528.572" cy="399.175" r="8.41271" stroke-width="0.5" stroke="black" fill="magenta"/>
  <circle cx="528.572" cy="399.175" r="5.05167" stroke-width="0.5" stroke="black" fill="magenta"/>
   </g>
   <g id="cell15">
  <circle cx="379.65" cy="475.1" r="8.41271" stroke-width="0.5" stroke="black" fill="magenta"/>
  <circle cx="379.65" cy="475.1" r="5.05167" stroke-width="0.5" stroke="black" fill="magenta"/>
   </g>
   <g id="cell16">
  <circle cx="428.96" cy="413.217" r="8.41271" stroke-width="0.5" stroke="black" fill="magenta"/>
  <circle cx="428.96" cy="413.217" r="5.05167" stroke-width="0.5" stroke="black" fill="magenta"/>
   </g>
   <g id="cell17">
  <circle cx="568.678" cy="488.111" r="8.41271" stroke-width="0.5" stroke="black" fill="magenta"/>
  <circle cx="568.678" cy="488.111" r="5.05167" stroke-width="0.5" stroke="black" fill="magenta"/>
   </g>
   <g id="cell18">
  <circle cx="517.417" cy="388.934" r="8.41271" stroke-width="0.5" stroke="black" fill="magenta"/>
  <circle cx="517.417" cy="388.934" r="5.05167" stroke-width="0.5" stroke="black" fill="magenta"/>
   </g>
   <g id="cell19">
  <circle cx="456.171" cy="543.288" r="7.61469" stroke-width="0.5" stroke="black" fill="magenta"/>
  <circle cx="456.171" cy="543.288" r="4.62762" stroke-width="0.5" stroke="black" fill="magenta"/>
   </g>
   <g id="cell20">
  <circle cx="531.125" cy="414.101" r="8.41271" stroke-width="0.5" stroke="black" fill="magenta"/>
  <circle cx="531.125" cy="414.101" r="5.05167" stroke-width="0.5" stroke="black" fill="magenta"/>
   </g>
   <g id="cell21">
  <circle cx="464.368" cy="634.574" r="8.41271" stroke-width="0.5" stroke="black" fill="magenta"/>
  <circle cx="464.368" cy="634.574" r="5.05167" stroke-width="0.5" stroke="black" fill="magenta"/>
   </g>
   <g id="cell22">
  <circle cx="557.006" cy="497.895" r="8.41271" stroke-width="0.5" stroke="black" fill="magenta"/>
  <circle cx="557.006" cy="497.895" r="5.05167" stroke-width="0.5" stroke="black" fill="magenta"/>
   </g>
   <g id="cell23">
  <circle cx="538.547" cy="484.383" r="8.41271" stroke-width="0.5" stroke="black" fill="magenta"/>
  <circle cx="538.547" cy="484.383" r="5.05167" stroke-width="0.5" stroke="black" fill="magenta"/>
   </g>
   <g id="cell24">
  <circle cx="559.284" cy="379.798" r="8.41271" stroke-width="0.5" stroke="black" fill="magenta"/>
  <circle cx="559.284" cy="379.798" r="5.05167" stroke-width="0.5" stroke="black" fill="magenta"/>
   </g>
   <g id="cell25">
  <circle cx="645.457" cy="545.469" r="8.00101" stroke-width="0.5" stroke="black" fill="green"/>
  <circle cx="645.457" cy="545.469" r="4.84939" stroke-width="0.5" stroke="black" fill="green"/>
   </g>
   <g id="cell26">
  <circle cx="551.1" cy="401.248" r="8.41271" stroke-width="0.5" stroke="black" fill="green"/>
  <circle cx="551.1" cy="401.248" r="5.05167" stroke-width="0.5" stroke="black" fill="green"/>
   </g>
   <g id="cell27">
  <circle cx="463.142" cy="390.589" r="8.1609" stroke-width="0.5" stroke="black" fill="green"/>
  <circle cx="463.142" cy="390.589" r="4.93506" stroke-width="0.5" stroke="black" fill="green"/>
   </g>
   <g id="cell28">
  <circle cx="434.187" cy="530.756" r="8.41271" stroke-width="0.5" stroke="black" fill="green"/>
  <circle cx="434.187" cy="530.756" r="5.05167" stroke-width="0.5" stroke="black" fill="green"/>
   </g>
   <g id="cell29">
  <circle cx="450.369" cy="516.891" r="8.41271" stroke-width="0.5" stroke="black" fill="green"/>
  <circle cx="450.369" cy="516.891" r="5.05167" stroke-width="0.5" stroke="black" fill="green"/>
   </g>
   <g id="cell30">
  <circle cx="481.102" cy="535.309" r="7.38797" stroke-width="0.5" stroke="black" fill="green"/>
  <circle cx="481.102" cy="535.309" r="4.49029" stroke-width="0.5" stroke="black" fill="green"/>
   </g>
   <g id="cell31">
  <circle cx="412.757" cy="541.193" r="8.41271" stroke-width="0.5" stroke="black" fill="green"/>
  <circle cx="412.757" cy="541.193" r="5.05167" stroke-width="0.5" stroke="black" fill="green"/>
   </g>
   <g id="cell32">
  <circle cx="421.798" cy="480.366" r="7.0545" stroke-width="0.5" stroke="black" fill="green"/>
  <circle cx="421.798" cy="480.366" r="4.27772" stroke-width="0.5" stroke="black" fill="green"/>
   </g>
   <g id="cell33">
  <circle cx="495.934" cy="425.156" r="8.41271" stroke-width="0.5" stroke="black" fill="green"/>
  <circle cx="495.934" cy="425.156" r="5.05167" stroke-width="0.5" stroke="black" fill="green"/>
   </g>
   <g id="cell34">
  <circle cx="397.088" cy="450.831" r="8.41271" stroke-width="0.5" stroke="black" fill="green"/>
  <circle cx="397.088" cy="450.831" r="5.05167" stroke-width="0.5" stroke="black" fill="green"/>
   </g>
   <g id="cell35">
  <circle cx="550.963" cy="542.73" r="8.41271" stroke-width="0.5" stroke="black" fill="green"/>
  <circle cx="550.963" cy="542.73" r="5.05167" stroke-width="0.5" stroke="black" fill="green"/>
   </g>
   <g id="cell36">
  <circle cx="391.486" cy="582.903" r="8.41271" stroke-width="0.5" stroke="black" fill="green"/>
  <circle cx="391.486" cy="582.903" r="5.05167" stroke-width="0.5" stroke="black" fill="green"/>
   </g>
   <g id="cell37">
  <circle cx="639.401" cy="457.37" r="8.1218" stroke-width="0.5" stroke="black" fill="green"/>
  <circle cx="639.401" cy="457.37" r="4.91457" stroke-width="0.5" stroke="black" fill="green"/>
   </g>
   <g id="cell38">
  <circle cx="531.837" cy="598.378" r="8.06667" stroke-width="0.5" stroke="black" fill="green"/>
  <circle cx="531.837" cy="598.378" r="4.88515" stroke-width="0.5" stroke="black" fill="green"/>
   </g>
   <g id="cell39">
  <circle cx="613.458" cy="490.595" r="8.41271" stroke-width="0.5" stroke="black" fill="green"/>
  <circle cx="613.458" cy="490.595" r="5.05167" stroke-width="0.5" stroke="black" fill="green"/>
   </g>
   <g id="cell40">
  <circle cx="485.348" cy="571.779" r="8.41271" stroke-width="0.5" stroke="black" fill="green"/>
  <circle cx="485.348" cy="571.779" r="5.05167" stroke-width="0.5" stroke="black" fill="green"/>
   </g>
   <g id="cell41">
  <circle cx="364.925" cy="480.252" r="8.41271" stroke-width="0.5" stroke="black" fill="green"/>
  <circle cx="364.925" cy="480.252" r="5.05167" stroke-width="0.5" stroke="black" fill="green"/>
   </g>
   <g id="cell42">
  <circle cx="438.842" cy="494.268" r="8.41271" stroke-width="0.5" stroke="black" fill="green"/>
  <circle cx="438.842" cy="494.268" r="5.05167" stroke-width="0.5" stroke="black" fill="green"/>
   </g>
   <g id="cell43">
  <circle cx="558.357" cy="444.169" r="8.41271" stroke-width="0.5" stroke="black" fill="green"/>
  <circle cx="558.357" cy="444.169" r="5.05167" stroke-width="0.5" stroke="black" fill="green"/>
   </g>
   <g id="cell44">
  <circle cx="475.857" cy="624.021" r="8.41271" stroke-width="0.5" stroke="black" fill="green"/>
  <circle cx="475.857" cy="624.021" r="5.05167" stroke-width="0.5" stroke="black" fill="green"/>
   </g>
   <g id="cell45">
  <circle cx="414.953" cy="557.066" r="8.41271" stroke-width="0.5" stroke="black" fill="green"/>
  <circle cx="414.953" cy="557.066" r="5.05167" stroke-width="0.5" stroke="black" fill="green"/>
   </g>
   <g id="cell46">
  <circle cx="522.652" cy="611.172" r="8.41271" stroke-width="0.5" stroke="black" fill="green"/>
  <circle cx="522.652" cy="611.172" r="5.05167" stroke-width="0.5" stroke="black" fill="green"/>
   </g>
   <g id="cell47">
  <circle cx="505.902" cy="504.56" r="6.99069" stroke-width="0.5" stroke="black" fill="green"/>
  <circle cx="505.902" cy="504.56" r="4.23498" stroke-width="0.5" stroke="black" fill="green"/>
   </g>
   <g id="cell48">
  <circle cx="563.608" cy="602.455" r="8.41271" stroke-width="0.5" stroke="black" fill="green"/>
  <circle cx="563.608" cy="602.455" r="5.05167" stroke-width="0.5" stroke="black" fill="green"/>
   </g>
   <g id="cell49">
  <circle cx="429.826" cy="397.641" r="8.41271" stroke-width="0.5" stroke="black" fill="green"/>
  <circle cx="429.826" cy="397.641" r="5.05167" stroke-width="0.5" stroke="black" fill="green"/>
   </g>
   <g id="cell50">
  <circle cx="519.799" cy="518.726" r="7.79564" stroke-width="0.5" stroke="black" fill="cyan"/>
  <circle cx="519.799" cy="518.726" r="4.73359" stroke-width="0.5" stroke="black" fill="cyan"/>
   </g>
   <g id="cell51">
  <circle cx="398.721" cy="597.201" r="8.41271" stroke-width="0.5" stroke="black" fill="cyan"/>
  <circle cx="398.721" cy="597.201" r="5.05167" stroke-width="0.5" stroke="black" fill="cyan"/>
   </g>
   <g id="cell52">
  <circle cx="519.858" cy="424.884" r="8.41271" stroke-width="0.5" stroke="black" fill="cyan"/>
  <circle cx="519.858" cy="424.884" r="5.05167" stroke-width="0.5" stroke="black" fill="cyan"/>
   </g>
   <g id="cell53">
  <circle cx="572.895" cy="430.934" r="6.69288" stroke-width="0.5" stroke="black" fill="cyan"/>
  <circle cx="572.895" cy="430.934" r="4.02051" stroke-width="0.5" stroke="black" fill="cyan"/>
   </g>
   <g id="cell54">
  <circle cx="481.241" cy="425.745" r="7.21189" stroke-width="0.5" stroke="black" fill="cyan"/>
  <circle cx="481.241" cy="425.745" r="4.37993" stroke-width="0.5" stroke="black" fill="cyan"/>
   </g>
   <g id="cell55">
  <circle cx="524.169" cy="464.691" r="6.5601" stroke-width="0.5" stroke="black" fill="cyan"/>
  <circle cx="524.169" cy="464.691" r="3.98796" stroke-width="0.5" stroke="black" fill="cyan"/>
   </g>
   <g id="cell56">
  <circle cx="617.613" cy="522.333" r="8.41271" stroke-width="0.5" stroke="black" fill="cyan"/>
  <circle cx="617.613" cy="522.333" r="5.05167" stroke-width="0.5" stroke="black" fill="cyan"/>
   </g>
   <g id="cell57">
  <circle cx="416.924" cy="617.466" r="1.22129" stroke-width="0.5" stroke="black" fill="cyan"/>
  <circle cx="416.924" cy="617.466" r="1.21615" stroke-width="0.5" stroke="black" fill="black"/>
   </g>
   <g id="cell58">
  <circle cx="554.048" cy="482.915" r="8.41271" stroke-width="0.5" stroke="black" fill="cyan"/>
  <circle cx="554.048" cy="482.915" r="5.05167" stroke-width="0.5" stroke="black" fill="cyan"/>
   </g>
   <g id="cell59">
  <circle cx="385.463" cy="439.803" r="8.41271" stroke-width="0.5" stroke="black" fill="cyan"/>
  <circle cx="385.463" cy="439.803" r="5.05167" stroke-width="0.5" stroke="black" fill="cyan"/>
   </g>
   <g id="cell60">
  <circle cx="593.169" cy="473.641" r="8.41271" stroke-width="0.5" stroke="black" fill="cyan"/>
  <circle cx="593.169" cy="473.641" r="5.05167" stroke-width="0.5" stroke="black" fill="cyan"/>
   </g>
   <g id="cell61">
  <circle cx="553.219" cy="614.519" r="8.41271" stroke-width="0.5" stroke="black" fill="cyan"/>
  <circle cx="553.219" cy="614.519" r="5.05167" stroke-width="0.5" stroke="black" fill="cyan"/>
   </g>
   <g id="cell62">
  <circle cx="521.619" cy="451.077" r="8.16806" stroke-width="0.5" stroke="black" fill="cyan"/>
  <circle cx="521.619" cy="451.077" r="4.93877" stroke-width="0.5" stroke="black" fill="cyan"/>
   </g>
   <g id="cell63">
  <circle cx="575.215" cy="540.259" r="7.67987" stroke-width="0.5" stroke="black" fill="cyan"/>
  <circle cx="575.215" cy="540.259" r="4.66617" stroke-width="0.5" stroke="black" fill="cyan"/>
   </g>
   <g id="cell64">
  <circle cx="509.962" cy="636.825" r="8.41271" stroke-width="0.5" stroke="black" fill="cyan"/>
  <circle cx="509.962" cy="636.825" r="5.05167" stroke-width="0.5" stroke="black" fill="cyan"/>
   </g>
   <g id="cell65">
  <circle cx="546.739" cy="470.283" r="7.59183" stroke-width="0.5" stroke="black" fill="cyan"/>
  <circle cx="546.739" cy="470.283" r="4.61399" stroke-width="0.5" stroke="black" fill="cyan"/>
   </g>
   <g id="cell66">
  <circle cx="531.975" cy="533.483" r="7.1497" stroke-width="0.5" stroke="black" fill="cyan"/>
  <circle cx="531.975" cy="533.483" r="4.34001" stroke-width="0.5" stroke="black" fill="cyan"/>
   </g>
   <g id="cell67">
  <circle cx="354.711" cy="492.599" r="8.41271" stroke-width="0.5" stroke="black" fill="cyan"/>
  <circle cx="354.711" cy="492.599" r="5.05167" stroke-width="0.5" stroke="black" fill="cyan"/>
   </g>
   <g id="cell68">
  <circle cx="564.623" cy="551.32" r="8.41271" stroke-width="0.5" stroke="black" fill="cyan"/>
  <circle cx="564.623" cy="551.32" r="5.05167" stroke-width="0.5" stroke="black" fill="cyan"/>
   </g>
   <g id="cell69">
  <circle cx="441.41" cy="461.691" r="8.41271" stroke-width="0.5" stroke="black" fill="cyan"/>
  <circle cx="441.41" cy="461.691" r="5.05167" stroke-width="0.5" stroke="black" fill="cyan"/>
   </g>
   <g id="cell70">
  <circle cx="577.182" cy="474.976" r="8.41271" stroke-width="0.5" stroke="black" fill="cyan"/>
  <circle cx="577.182" cy="474.976" r="5.05167" stroke-width="0.5" stroke="black" fill="cyan"/>
   </g>
   <g id="cell71">
  <circle cx="377.712" cy="520.989" r="8.41271" stroke-width="0.5" stroke="black" fill="cyan"/>
  <circle cx="377.712" cy="520.989" r="5.05167" stroke-width="0.5" stroke="black" fill="cyan"/>
   </g>
   <g id="cell72">
  <circle cx="531.897" cy="511.202" r="7.24243" stroke-width="0.5" stroke="black" fill="cyan"/>
  <circle cx="531.897" cy="511.202" r="4.39934" stroke-width="0.5" stroke="black" fill="cyan"/>
   </g>
   <g id="cell73">
  <circle cx="363.261" cy="551.78" r="7.75912" stroke-width="0.5" stroke="black" fill="cyan"/>
  <circle cx="363.261" cy="551.78" r="4.71248" stroke-width="0.5" stroke="black" fill="cyan"/>
   </g>
   <g id="cell74">
  <circle cx="542.832" cy="444.834" r="8.41271" stroke-width="0.5" stroke="black" fill="cyan"/>
  <circle cx="542.832" cy="444.834" r="5.05167" stroke-width="0.5" stroke="black" fill="cyan"/>
   </g>
   <g id="cell75">
  <circle cx="529.228" cy="437.445" r="8.16806" stroke-width="0.5" stroke="black" fill="cyan"/>
  <circle cx="529.228" cy="437.445" r="4.93877" stroke-width="0.5" stroke="black" fill="cyan"/>
   </g>
   <g id="cell76">
  <circle cx="447.53" cy="381.048" r="6.61694" stroke-width="0.5" stroke="black" fill="green"/>
  <circle cx="447.53" cy="381.048" r="4.01791" stroke-width="0.5" stroke="black" fill="green"/>
   </g>
   <g id="cell77">
  <circle cx="473.142" cy="437.39" r="8.14594" stroke-width="0.5" stroke="black" fill="magenta"/>
  <circle cx="473.142" cy="437.39" r="4.92726" stroke-width="0.5" stroke="black" fill="magenta"/>
   </g>
   <g id="cell78">
  <circle cx="625.25" cy="461.568" r="7.41524" stroke-width="0.5" stroke="black" fill="green"/>
  <circle cx="625.25" cy="461.568" r="4.52989" stroke-width="0.5" stroke="black" fill="green"/>
   </g>
   <g id="cell79">
  <circle cx="516.815" cy="476.563" r="8.08613" stroke-width="0.5" stroke="black" fill="cyan"/>
  <circle cx="516.815" cy="476.563" r="4.8956" stroke-width="0.5" stroke="black" fill="cyan"/>
   </g>
   <g id="cell80">
  <circle cx="538.01" cy="612.178" r="7.87128" stroke-width="0.5" stroke="black" fill="green"/>
  <circle cx="538.01" cy="612.178" r="4.79045" stroke-width="0.5" stroke="black" fill="green"/>
   </g>
   <g id="cell81">
  <circle cx="547.089" cy="600.253" r="7.87128" stroke-width="0.5" stroke="black" fill="green"/>
  <circle cx="547.089" cy="600.253" r="4.79045" stroke-width="0.5" stroke="black" fill="green"/>
   </g>
   <g id="cell82">
  <circle cx="530.916" cy="556.704" r="8.00101" stroke-width="0.5" stroke="black" fill="magenta"/>
  <circle cx="530.916" cy="556.704" r="4.84939" stroke-width="0.5" stroke="black" fill="magenta"/>
   </g>
   <g id="cell83">
  <circle cx="634.755" cy="556.281" r="8.00101" stroke-width="0.5" stroke="black" fill="green"/>
  <circle cx="634.755" cy="556.281" r="4.84939" stroke-width="0.5" stroke="black" fill="green"/>
   </g>
   <g id="cell84">
  <circle cx="519.764" cy="503.941" r="7.79564" stroke-width="0.5" stroke="black" fill="cyan"/>
  <circle cx="519.764" cy="503.941" r="4.73359" stroke-width="0.5" stroke="black" fill="cyan"/>
   </g>
   <g id="cell85">
  <circle cx="354.425" cy="541.625" r="6.48617" stroke-width="0.5" stroke="black" fill="cyan"/>
  <circle cx="354.425" cy="541.625" r="3.96773" stroke-width="0.5" stroke="black" fill="cyan"/>
   </g>
   <g id="cell86">
  <circle cx="506.951" cy="525.301" r="7.7401" stroke-width="0.5" stroke="black" fill="magenta"/>
  <circle cx="506.951" cy="525.301" r="4.70142" stroke-width="0.5" stroke="black" fill="magenta"/>
   </g>
   <g id="cell87">
  <circle cx="579.769" cy="554.101" r="7.67987" stroke-width="0.5" stroke="black" fill="cyan"/>
  <circle cx="579.769" cy="554.101" r="4.66617" stroke-width="0.5" stroke="black" fill="cyan"/>
   </g>
   <g id="cell88">
  <circle cx="448.996" cy="531.655" r="7.61469" stroke-width="0.5" stroke="black" fill="magenta"/>
  <circle cx="448.996" cy="531.655" r="4.62762" stroke-width="0.5" stroke="black" fill="magenta"/>
   </g>
   <g id="cell89">
  <circle cx="551.58" cy="457.221" r="7.59183" stroke-width="0.5" stroke="black" fill="cyan"/>
  <circle cx="551.58" cy="457.221" r="4.61399" stroke-width="0.5" stroke="black" fill="cyan"/>
   </g>
   <g id="cell90">
  <circle cx="630.649" cy="474.559" r="7.41524" stroke-width="0.5" stroke="black" fill="green"/>
  <circle cx="630.649" cy="474.559" r="4.52989" stroke-width="0.5" stroke="black" fill="green"/>
   </g>
   <g id="cell91">
  <circle cx="543.9" cy="554.755" r="6.6402" stroke-width="0.5" stroke="black" fill="magenta"/>
  <circle cx="543.9" cy="554.755" r="4.09168" stroke-width="0.5" stroke="black" fill="magenta"/>
   </g>
   <g id="cell92">
  <circle cx="482.444" cy="549.263" r="7.38797" stroke-width="0.5" stroke="black" fill="green"/>
  <circle cx="482.444" cy="549.263" r="4.49029" stroke-width="0.5" stroke="black" fill="green"/>
   </g>
   <g id="cell93">
  <circle cx="537.133" cy="545.02" r="6.6402" stroke-width="0.5" stroke="black" fill="magenta"/>
  <circle cx="537.133" cy="545.02" r="4.09168" stroke-width="0.5" stroke="black" fill="magenta"/>
   </g>
   <g id="cell94">
  <circle cx="532.493" cy="497.548" r="7.24243" stroke-width="0.5" stroke="black" fill="cyan"/>
  <circle cx="532.493" cy="497.548" r="4.39934" stroke-width="0.5" stroke="black" fill="cyan"/>
   </g>
   <g id="cell95">
  <circle cx="467.763" cy="424.17" r="7.21189" stroke-width="0.5" stroke="black" fill="cyan"/>
  <circle cx="467.763" cy="424.17" r="4.37993" stroke-width="0.5" stroke="black" fill="cyan"/>
   </g>
   <g id="cell96">
  <circle cx="539.408" cy="522.378" r="7.1497" stroke-width="0.5" stroke="black" fill="cyan"/>
  <circle cx="539.408" cy="522.378" r="4.34001" stroke-width="0.5" stroke="black" fill="cyan"/>
   </g>
   <g id="cell97">
  <circle cx="423.307" cy="468.292" r="5.78392" stroke-width="0.5" stroke="black" fill="green"/>
  <circle cx="423.307" cy="468.292" r="3.52687" stroke-width="0.5" stroke="black" fill="green"/>
   </g>
   <g id="cell98">
  <circle cx="498.082" cy="515.158" r="6.99069" stroke-width="0.5" stroke="black" fill="green"/>
  <circle cx="498.082" cy="515.158" r="4.23498" stroke-width="0.5" stroke="black" fill="green"/>
   </g>
   <g id="cell99">
  <circle cx="357.612" cy="529.797" r="6.48617" stroke-width="0.5" stroke="black" fill="cyan"/>
  <circle cx="357.612" cy="529.797" r="3.96773" stroke-width="0.5" stroke="black" fill="cyan"/>
   </g>
   <g id="cell100">
  <circle cx="449.405" cy="393.459" r="6.61694" stroke-width="0.5" stroke="black" fill="green"/>
  <circle cx="449.405" cy="393.459" r="4.01791" stroke-width="0.5" stroke="black" fill="green"/>
   </g>
   <g id="cell101">
  <circle cx="533.908" cy="471.612" r="6.5601" stroke-width="0.5" stroke="black" fill="cyan"/>
  <circle cx="533.908" cy="471.612" r="3.98796" stroke-width="0.5" stroke="black" fill="cyan"/>
   </g>
   <g id="cell102">
  <circle cx="433.378" cy="472.522" r="5.78392" stroke-width="0.5" stroke="black" fill="green"/>
  <circle cx="433.378" cy="472.522" r="3.52687" stroke-width="0.5" stroke="black" fill="green"/>
   </g>
   <g id="cell103">
  <circle cx="572.128" cy="443.414" r="6.69288" stroke-width="0.5" stroke="black" fill="cyan"/>
  <circle cx="572.128" cy="443.414" r="4.02051" stroke-width="0.5" stroke="black" fill="cyan"/>
   </g>
  </g>
 </g>
  <rect x="775" y="1035" width="200" height="10" stroke-width="2" stroke="rgb(255,255,255)" fill="rgb(0,0,0)"/>
  <text x="781.25" y="1028.75"
   font-family="Arial" font-size="25" fill="black" >
   200 &#956;m
  </text>
  <text x="25" y="1045"
   font-family="Arial" font-size="18.75" fill="black" >
   0 days, 0 hours, 0 minutes, and 9.7350 seconds
  </text>
  <rect x="0" y="70" width="1000" height="1000" stroke-width="2" stroke="rgb(0,0,0)" fill="none"/>
</svg>
