<?xml version="1.0" encoding="UTF-8" standalone="no"?>
<!-- Created with PhysiCell (http://PhysiCell.MathCancer.org/) -->
<svg 
 xmlns:dc="http://purl.org/dc/elements/1.1/" 
 xmlns:cc="http://creativecommons.org/ns#" 
 xmlns:rdf="http://www.w3.org/1999/02/22-rdf-syntax-ns#" 
 xmlns:svg="http://www.w3.org/2000/svg" 
 xmlns="http://www.w3.org/2000/svg" 
 version="1.1" 
 width="1000" 
 height="1070" 
 id="svg2">
  <rect x="0" y="0" width="1000" height="1070" stroke-width="2" stroke="white" fill="white"/>
  <text x="12.5" y="30"
   font-family="Arial" font-size="25" fill="black" >
   Current time: 0 days, 18 hours, and 30.00 minutes, z = 0.00 &#956;m
  </text>
  <text x="12.5" y="57.5"
   font-family="Arial" font-size="23.75" fill="black" >
   129 agents
  </text>
 <g id="tissue" 
    transform="translate(0,1070) scale(1,-1)">
  <g id="ECM">
  </g>
  <g id="cells">
   <g id="cell0">
  <circle cx="510.24" cy="538.953" r="8.38532" stroke-width="0.5" stroke="black" fill="magenta"/>
  <circle cx="510.24" cy="538.953" r="5.04199" stroke-width="0.5" stroke="black" fill="magenta"/>
   </g>
   <g id="cell1">
  <circle cx="603.364" cy="526.622" r="6.71158" stroke-width="0.5" stroke="black" fill="magenta"/>
  <circle cx="603.364" cy="526.622" r="4.03435" stroke-width="0.5" stroke="black" fill="magenta"/>
   </g>
   <g id="cell2">
  <circle cx="512.501" cy="599.115" r="7.74141" stroke-width="0.5" stroke="black" fill="magenta"/>
  <circle cx="512.501" cy="599.115" r="4.70871" stroke-width="0.5" stroke="black" fill="magenta"/>
   </g>
   <g id="cell3">
  <circle cx="524.744" cy="544.015" r="8.41271" stroke-width="0.5" stroke="black" fill="magenta"/>
  <circle cx="524.744" cy="544.015" r="5.05167" stroke-width="0.5" stroke="black" fill="magenta"/>
   </g>
   <g id="cell4">
  <circle cx="480.615" cy="438.418" r="8.41271" stroke-width="0.5" stroke="black" fill="magenta"/>
  <circle cx="480.615" cy="438.418" r="5.05167" stroke-width="0.5" stroke="black" fill="magenta"/>
   </g>
   <g id="cell5">
  <circle cx="454.272" cy="497.674" r="7.48472" stroke-width="0.5" stroke="black" fill="magenta"/>
  <circle cx="454.272" cy="497.674" r="4.55203" stroke-width="0.5" stroke="black" fill="magenta"/>
   </g>
   <g id="cell6">
  <circle cx="587.046" cy="510.229" r="7.56839" stroke-width="0.5" stroke="black" fill="magenta"/>
  <circle cx="587.046" cy="510.229" r="4.59998" stroke-width="0.5" stroke="black" fill="magenta"/>
   </g>
   <g id="cell7">
  <circle cx="509.835" cy="467.915" r="8.41271" stroke-width="0.5" stroke="black" fill="magenta"/>
  <circle cx="509.835" cy="467.915" r="5.05167" stroke-width="0.5" stroke="black" fill="magenta"/>
   </g>
   <g id="cell8">
  <circle cx="384.768" cy="539.98" r="7.83012" stroke-width="0.5" stroke="black" fill="magenta"/>
  <circle cx="384.768" cy="539.98" r="4.75679" stroke-width="0.5" stroke="black" fill="magenta"/>
   </g>
   <g id="cell9">
  <circle cx="460.472" cy="599.786" r="8.41271" stroke-width="0.5" stroke="black" fill="magenta"/>
  <circle cx="460.472" cy="599.786" r="5.05167" stroke-width="0.5" stroke="black" fill="magenta"/>
   </g>
   <g id="cell10">
  <circle cx="583.447" cy="392.105" r="8.41271" stroke-width="0.5" stroke="black" fill="magenta"/>
  <circle cx="583.447" cy="392.105" r="5.05167" stroke-width="0.5" stroke="black" fill="magenta"/>
   </g>
   <g id="cell11">
  <circle cx="589.748" cy="590.273" r="8.41271" stroke-width="0.5" stroke="black" fill="magenta"/>
  <circle cx="589.748" cy="590.273" r="5.05167" stroke-width="0.5" stroke="black" fill="magenta"/>
   </g>
   <g id="cell12">
  <circle cx="501.275" cy="592.19" r="7.36547" stroke-width="0.5" stroke="black" fill="magenta"/>
  <circle cx="501.275" cy="592.19" r="4.50029" stroke-width="0.5" stroke="black" fill="magenta"/>
   </g>
   <g id="cell13">
  <circle cx="381.176" cy="564.302" r="8.41271" stroke-width="0.5" stroke="black" fill="magenta"/>
  <circle cx="381.176" cy="564.302" r="5.05167" stroke-width="0.5" stroke="black" fill="magenta"/>
   </g>
   <g id="cell14">
  <circle cx="531.335" cy="400.049" r="8.41271" stroke-width="0.5" stroke="black" fill="magenta"/>
  <circle cx="531.335" cy="400.049" r="5.05167" stroke-width="0.5" stroke="black" fill="magenta"/>
   </g>
   <g id="cell15">
  <circle cx="378.732" cy="473.879" r="8.41271" stroke-width="0.5" stroke="black" fill="magenta"/>
  <circle cx="378.732" cy="473.879" r="5.05167" stroke-width="0.5" stroke="black" fill="magenta"/>
   </g>
   <g id="cell16">
  <circle cx="428.979" cy="412.992" r="8.41271" stroke-width="0.5" stroke="black" fill="magenta"/>
  <circle cx="428.979" cy="412.992" r="5.05167" stroke-width="0.5" stroke="black" fill="magenta"/>
   </g>
   <g id="cell17">
  <circle cx="590.001" cy="496.706" r="8.24914" stroke-width="0.5" stroke="black" fill="magenta"/>
  <circle cx="590.001" cy="496.706" r="4.97981" stroke-width="0.5" stroke="black" fill="magenta"/>
   </g>
   <g id="cell18">
  <circle cx="519.345" cy="390.802" r="8.41271" stroke-width="0.5" stroke="black" fill="magenta"/>
  <circle cx="519.345" cy="390.802" r="5.05167" stroke-width="0.5" stroke="black" fill="magenta"/>
   </g>
   <g id="cell19">
  <circle cx="451.991" cy="536.582" r="8.41271" stroke-width="0.5" stroke="black" fill="magenta"/>
  <circle cx="451.991" cy="536.582" r="5.05167" stroke-width="0.5" stroke="black" fill="magenta"/>
   </g>
   <g id="cell20">
  <circle cx="528.545" cy="414.931" r="8.41271" stroke-width="0.5" stroke="black" fill="magenta"/>
  <circle cx="528.545" cy="414.931" r="5.05167" stroke-width="0.5" stroke="black" fill="magenta"/>
   </g>
   <g id="cell21">
  <circle cx="464.368" cy="634.574" r="8.41271" stroke-width="0.5" stroke="black" fill="magenta"/>
  <circle cx="464.368" cy="634.574" r="5.05167" stroke-width="0.5" stroke="black" fill="magenta"/>
   </g>
   <g id="cell22">
  <circle cx="561.702" cy="498.458" r="8.3995" stroke-width="0.5" stroke="black" fill="magenta"/>
  <circle cx="561.702" cy="498.458" r="5.04738" stroke-width="0.5" stroke="black" fill="magenta"/>
   </g>
   <g id="cell23">
  <circle cx="534.444" cy="483.886" r="8.41271" stroke-width="0.5" stroke="black" fill="magenta"/>
  <circle cx="534.444" cy="483.886" r="5.05167" stroke-width="0.5" stroke="black" fill="magenta"/>
   </g>
   <g id="cell24">
  <circle cx="556.484" cy="383.253" r="8.41271" stroke-width="0.5" stroke="black" fill="magenta"/>
  <circle cx="556.484" cy="383.253" r="5.05167" stroke-width="0.5" stroke="black" fill="magenta"/>
   </g>
   <g id="cell25">
  <circle cx="640.943" cy="550.03" r="8.41271" stroke-width="0.5" stroke="black" fill="green"/>
  <circle cx="640.943" cy="550.03" r="5.05167" stroke-width="0.5" stroke="black" fill="green"/>
   </g>
   <g id="cell26">
  <circle cx="545.856" cy="394.567" r="8.33699" stroke-width="0.5" stroke="black" fill="green"/>
  <circle cx="545.856" cy="394.567" r="5.02141" stroke-width="0.5" stroke="black" fill="green"/>
   </g>
   <g id="cell27">
  <circle cx="454.436" cy="382.518" r="7.09195" stroke-width="0.5" stroke="black" fill="green"/>
  <circle cx="454.436" cy="382.518" r="4.3294" stroke-width="0.5" stroke="black" fill="green"/>
   </g>
   <g id="cell28">
  <circle cx="437.414" cy="531.024" r="8.41271" stroke-width="0.5" stroke="black" fill="green"/>
  <circle cx="437.414" cy="531.024" r="5.05167" stroke-width="0.5" stroke="black" fill="green"/>
   </g>
   <g id="cell29">
  <circle cx="450.003" cy="521.109" r="8.41271" stroke-width="0.5" stroke="black" fill="green"/>
  <circle cx="450.003" cy="521.109" r="5.05167" stroke-width="0.5" stroke="black" fill="green"/>
   </g>
   <g id="cell127">
  <circle cx="394.753" cy="562.629" r="6.787" stroke-width="0.5" stroke="black" fill="magenta"/>
  <circle cx="394.753" cy="562.629" r="4.15956" stroke-width="0.5" stroke="black" fill="magenta"/>
   </g>
   <g id="cell31">
  <circle cx="412.757" cy="541.193" r="8.41271" stroke-width="0.5" stroke="black" fill="green"/>
  <circle cx="412.757" cy="541.193" r="5.05167" stroke-width="0.5" stroke="black" fill="green"/>
   </g>
   <g id="cell122">
  <circle cx="572.067" cy="489.782" r="6.93215" stroke-width="0.5" stroke="black" fill="magenta"/>
  <circle cx="572.067" cy="489.782" r="4.2575" stroke-width="0.5" stroke="black" fill="magenta"/>
   </g>
   <g id="cell33">
  <circle cx="491.593" cy="418.576" r="7.67987" stroke-width="0.5" stroke="black" fill="green"/>
  <circle cx="491.593" cy="418.576" r="4.66617" stroke-width="0.5" stroke="black" fill="green"/>
   </g>
   <g id="cell34">
  <circle cx="402.386" cy="449.849" r="7.89373" stroke-width="0.5" stroke="black" fill="green"/>
  <circle cx="402.386" cy="449.849" r="4.78957" stroke-width="0.5" stroke="black" fill="green"/>
   </g>
   <g id="cell35">
  <circle cx="553.702" cy="552.977" r="8.40022" stroke-width="0.5" stroke="black" fill="green"/>
  <circle cx="553.702" cy="552.977" r="5.04764" stroke-width="0.5" stroke="black" fill="green"/>
   </g>
   <g id="cell36">
  <circle cx="389.556" cy="577.663" r="8.41271" stroke-width="0.5" stroke="black" fill="green"/>
  <circle cx="389.556" cy="577.663" r="5.05167" stroke-width="0.5" stroke="black" fill="green"/>
   </g>
   <g id="cell37">
  <circle cx="633.068" cy="454.705" r="8.36592" stroke-width="0.5" stroke="black" fill="green"/>
  <circle cx="633.068" cy="454.705" r="5.03403" stroke-width="0.5" stroke="black" fill="green"/>
   </g>
   <g id="cell38">
  <circle cx="537.455" cy="602.183" r="8.41271" stroke-width="0.5" stroke="black" fill="green"/>
  <circle cx="537.455" cy="602.183" r="5.05167" stroke-width="0.5" stroke="black" fill="green"/>
   </g>
   <g id="cell39">
  <circle cx="613.838" cy="498.747" r="8.0738" stroke-width="0.5" stroke="black" fill="green"/>
  <circle cx="613.838" cy="498.747" r="4.89788" stroke-width="0.5" stroke="black" fill="green"/>
   </g>
   <g id="cell40">
  <circle cx="484.586" cy="572.948" r="8.39571" stroke-width="0.5" stroke="black" fill="green"/>
  <circle cx="484.586" cy="572.948" r="5.04599" stroke-width="0.5" stroke="black" fill="green"/>
   </g>
   <g id="cell41">
  <circle cx="370.968" cy="487.363" r="8.36722" stroke-width="0.5" stroke="black" fill="green"/>
  <circle cx="370.968" cy="487.363" r="5.03458" stroke-width="0.5" stroke="black" fill="green"/>
   </g>
   <g id="cell42">
  <circle cx="439.922" cy="494.492" r="8.41271" stroke-width="0.5" stroke="black" fill="green"/>
  <circle cx="439.922" cy="494.492" r="5.05167" stroke-width="0.5" stroke="black" fill="green"/>
   </g>
   <g id="cell43">
  <circle cx="554.989" cy="437.476" r="8.39083" stroke-width="0.5" stroke="black" fill="green"/>
  <circle cx="554.989" cy="437.476" r="5.04414" stroke-width="0.5" stroke="black" fill="green"/>
   </g>
   <g id="cell44">
  <circle cx="475.857" cy="624.021" r="8.41271" stroke-width="0.5" stroke="black" fill="green"/>
  <circle cx="475.857" cy="624.021" r="5.05167" stroke-width="0.5" stroke="black" fill="green"/>
   </g>
   <g id="cell45">
  <circle cx="414.953" cy="557.066" r="8.41271" stroke-width="0.5" stroke="black" fill="green"/>
  <circle cx="414.953" cy="557.066" r="5.05167" stroke-width="0.5" stroke="black" fill="green"/>
   </g>
   <g id="cell46">
  <circle cx="523.063" cy="609.155" r="8.41271" stroke-width="0.5" stroke="black" fill="green"/>
  <circle cx="523.063" cy="609.155" r="5.05167" stroke-width="0.5" stroke="black" fill="green"/>
   </g>
   <g id="cell47">
  <circle cx="502.57" cy="499.957" r="8.39708" stroke-width="0.5" stroke="black" fill="green"/>
  <circle cx="502.57" cy="499.957" r="5.0465" stroke-width="0.5" stroke="black" fill="green"/>
   </g>
   <g id="cell48">
  <circle cx="564.485" cy="602.817" r="8.41271" stroke-width="0.5" stroke="black" fill="green"/>
  <circle cx="564.485" cy="602.817" r="5.05167" stroke-width="0.5" stroke="black" fill="green"/>
   </g>
   <g id="cell49">
  <circle cx="430.703" cy="397.463" r="8.41271" stroke-width="0.5" stroke="black" fill="green"/>
  <circle cx="430.703" cy="397.463" r="5.05167" stroke-width="0.5" stroke="black" fill="green"/>
   </g>
   <g id="cell50">
  <circle cx="516.266" cy="507.255" r="8.41271" stroke-width="0.5" stroke="black" fill="cyan"/>
  <circle cx="516.266" cy="507.255" r="5.05167" stroke-width="0.5" stroke="black" fill="cyan"/>
   </g>
   <g id="cell51">
  <circle cx="396.734" cy="593.114" r="8.41271" stroke-width="0.5" stroke="black" fill="cyan"/>
  <circle cx="396.734" cy="593.114" r="5.05167" stroke-width="0.5" stroke="black" fill="cyan"/>
   </g>
   <g id="cell108">
  <circle cx="336.111" cy="545.039" r="8.09537" stroke-width="0.5" stroke="black" fill="cyan"/>
  <circle cx="336.111" cy="545.039" r="4.90348" stroke-width="0.5" stroke="black" fill="cyan"/>
   </g>
   <g id="cell53">
  <circle cx="570.992" cy="436.343" r="8.41271" stroke-width="0.5" stroke="black" fill="cyan"/>
  <circle cx="570.992" cy="436.343" r="5.05167" stroke-width="0.5" stroke="black" fill="cyan"/>
   </g>
   <g id="cell54">
  <circle cx="477.046" cy="423.261" r="8.41271" stroke-width="0.5" stroke="black" fill="cyan"/>
  <circle cx="477.046" cy="423.261" r="5.05167" stroke-width="0.5" stroke="black" fill="cyan"/>
   </g>
   <g id="cell55">
  <circle cx="524.398" cy="472.445" r="8.07654" stroke-width="0.5" stroke="black" fill="cyan"/>
  <circle cx="524.398" cy="472.445" r="4.89046" stroke-width="0.5" stroke="black" fill="cyan"/>
   </g>
   <g id="cell56">
  <circle cx="616.417" cy="522.022" r="8.41271" stroke-width="0.5" stroke="black" fill="cyan"/>
  <circle cx="616.417" cy="522.022" r="5.05167" stroke-width="0.5" stroke="black" fill="cyan"/>
   </g>
   <g id="cell57">
  <circle cx="416.924" cy="617.466" r="8.41271" stroke-width="0.5" stroke="black" fill="cyan"/>
  <circle cx="416.924" cy="617.466" r="5.05167" stroke-width="0.5" stroke="black" fill="cyan"/>
   </g>
   <g id="cell58">
  <circle cx="546.745" cy="474.047" r="8.41271" stroke-width="0.5" stroke="black" fill="cyan"/>
  <circle cx="546.745" cy="474.047" r="5.05167" stroke-width="0.5" stroke="black" fill="cyan"/>
   </g>
   <g id="cell59">
  <circle cx="388.955" cy="436.186" r="6.73287" stroke-width="0.5" stroke="black" fill="cyan"/>
  <circle cx="388.955" cy="436.186" r="4.05039" stroke-width="0.5" stroke="black" fill="cyan"/>
   </g>
   <g id="cell60">
  <circle cx="596.217" cy="472.902" r="8.41271" stroke-width="0.5" stroke="black" fill="cyan"/>
  <circle cx="596.217" cy="472.902" r="5.05167" stroke-width="0.5" stroke="black" fill="cyan"/>
   </g>
   <g id="cell61">
  <circle cx="552.668" cy="613.648" r="8.41271" stroke-width="0.5" stroke="black" fill="cyan"/>
  <circle cx="552.668" cy="613.648" r="5.05167" stroke-width="0.5" stroke="black" fill="cyan"/>
   </g>
   <g id="cell62">
  <circle cx="526.4" cy="442.784" r="8.41271" stroke-width="0.5" stroke="black" fill="cyan"/>
  <circle cx="526.4" cy="442.784" r="5.05167" stroke-width="0.5" stroke="black" fill="cyan"/>
   </g>
   <g id="cell63">
  <circle cx="593.881" cy="553.283" r="8.25967" stroke-width="0.5" stroke="black" fill="cyan"/>
  <circle cx="593.881" cy="553.283" r="4.98656" stroke-width="0.5" stroke="black" fill="cyan"/>
   </g>
   <g id="cell64">
  <circle cx="509.962" cy="636.825" r="8.41271" stroke-width="0.5" stroke="black" fill="cyan"/>
  <circle cx="509.962" cy="636.825" r="5.05167" stroke-width="0.5" stroke="black" fill="cyan"/>
   </g>
   <g id="cell65">
  <circle cx="535.856" cy="461.817" r="8.41271" stroke-width="0.5" stroke="black" fill="cyan"/>
  <circle cx="535.856" cy="461.817" r="5.05167" stroke-width="0.5" stroke="black" fill="cyan"/>
   </g>
   <g id="cell66">
  <circle cx="550.846" cy="535.551" r="8.36849" stroke-width="0.5" stroke="black" fill="cyan"/>
  <circle cx="550.846" cy="535.551" r="5.03512" stroke-width="0.5" stroke="black" fill="cyan"/>
   </g>
   <g id="cell67">
  <circle cx="357.756" cy="496.354" r="8.39874" stroke-width="0.5" stroke="black" fill="cyan"/>
  <circle cx="357.756" cy="496.354" r="5.04711" stroke-width="0.5" stroke="black" fill="cyan"/>
   </g>
   <g id="cell68">
  <circle cx="569.01" cy="557.522" r="8.41271" stroke-width="0.5" stroke="black" fill="cyan"/>
  <circle cx="569.01" cy="557.522" r="5.05167" stroke-width="0.5" stroke="black" fill="cyan"/>
   </g>
   <g id="cell69">
  <circle cx="433.632" cy="461.429" r="6.32642" stroke-width="0.5" stroke="black" fill="cyan"/>
  <circle cx="433.632" cy="461.429" r="3.90663" stroke-width="0.5" stroke="black" fill="cyan"/>
   </g>
   <g id="cell70">
  <circle cx="584.479" cy="483.126" r="8.29993" stroke-width="0.5" stroke="black" fill="cyan"/>
  <circle cx="584.479" cy="483.126" r="5.00433" stroke-width="0.5" stroke="black" fill="cyan"/>
   </g>
   <g id="cell71">
  <circle cx="373.35" cy="513.173" r="8.2804" stroke-width="0.5" stroke="black" fill="cyan"/>
  <circle cx="373.35" cy="513.173" r="4.99763" stroke-width="0.5" stroke="black" fill="cyan"/>
   </g>
   <g id="cell72">
  <circle cx="534.972" cy="515.325" r="8.40123" stroke-width="0.5" stroke="black" fill="cyan"/>
  <circle cx="534.972" cy="515.325" r="5.048" stroke-width="0.5" stroke="black" fill="cyan"/>
   </g>
   <g id="cell73">
  <circle cx="347.183" cy="555.729" r="8.09537" stroke-width="0.5" stroke="black" fill="cyan"/>
  <circle cx="347.183" cy="555.729" r="4.90348" stroke-width="0.5" stroke="black" fill="cyan"/>
   </g>
   <g id="cell74">
  <circle cx="541.77" cy="446.571" r="8.41271" stroke-width="0.5" stroke="black" fill="cyan"/>
  <circle cx="541.77" cy="446.571" r="5.05167" stroke-width="0.5" stroke="black" fill="cyan"/>
   </g>
   <g id="cell75">
  <circle cx="534.298" cy="499.387" r="8.40123" stroke-width="0.5" stroke="black" fill="cyan"/>
  <circle cx="534.298" cy="499.387" r="5.048" stroke-width="0.5" stroke="black" fill="cyan"/>
   </g>
   <g id="cell76">
  <circle cx="529.485" cy="558.312" r="8.1234" stroke-width="0.5" stroke="black" fill="green"/>
  <circle cx="529.485" cy="558.312" r="4.91674" stroke-width="0.5" stroke="black" fill="green"/>
   </g>
   <g id="cell77">
  <circle cx="548.307" cy="500.515" r="6.98113" stroke-width="0.5" stroke="black" fill="magenta"/>
  <circle cx="548.307" cy="500.515" r="4.23171" stroke-width="0.5" stroke="black" fill="magenta"/>
   </g>
   <g id="cell78">
  <circle cx="343.431" cy="489.196" r="8.39874" stroke-width="0.5" stroke="black" fill="cyan"/>
  <circle cx="343.431" cy="489.196" r="5.04711" stroke-width="0.5" stroke="black" fill="cyan"/>
   </g>
   <g id="cell79">
  <circle cx="487.722" cy="505.19" r="8.39708" stroke-width="0.5" stroke="black" fill="green"/>
  <circle cx="487.722" cy="505.19" r="5.0465" stroke-width="0.5" stroke="black" fill="green"/>
   </g>
   <g id="cell80">
  <circle cx="472.784" cy="484.591" r="8.39708" stroke-width="0.5" stroke="black" fill="magenta"/>
  <circle cx="472.784" cy="484.591" r="5.0465" stroke-width="0.5" stroke="black" fill="magenta"/>
   </g>
   <g id="cell81">
  <circle cx="480.025" cy="557.857" r="8.39571" stroke-width="0.5" stroke="black" fill="green"/>
  <circle cx="480.025" cy="557.857" r="5.04599" stroke-width="0.5" stroke="black" fill="green"/>
   </g>
   <g id="cell82">
  <circle cx="575.563" cy="530.984" r="8.15647" stroke-width="0.5" stroke="black" fill="cyan"/>
  <circle cx="575.563" cy="530.984" r="4.93472" stroke-width="0.5" stroke="black" fill="cyan"/>
   </g>
   <g id="cell83">
  <circle cx="564.115" cy="450.516" r="8.25967" stroke-width="0.5" stroke="black" fill="green"/>
  <circle cx="564.115" cy="450.516" r="4.98656" stroke-width="0.5" stroke="black" fill="green"/>
   </g>
   <g id="cell84">
  <circle cx="521.285" cy="531.326" r="6.7879" stroke-width="0.5" stroke="black" fill="magenta"/>
  <circle cx="521.285" cy="531.326" r="4.09958" stroke-width="0.5" stroke="black" fill="magenta"/>
   </g>
   <g id="cell85">
  <circle cx="374.516" cy="550.461" r="8.38373" stroke-width="0.5" stroke="black" fill="magenta"/>
  <circle cx="374.516" cy="550.461" r="5.04136" stroke-width="0.5" stroke="black" fill="magenta"/>
   </g>
   <g id="cell86">
  <circle cx="602.604" cy="487.789" r="8.38206" stroke-width="0.5" stroke="black" fill="green"/>
  <circle cx="602.604" cy="487.789" r="5.04069" stroke-width="0.5" stroke="black" fill="green"/>
   </g>
   <g id="cell87">
  <circle cx="359.538" cy="546.193" r="8.37935" stroke-width="0.5" stroke="black" fill="cyan"/>
  <circle cx="359.538" cy="546.193" r="5.0396" stroke-width="0.5" stroke="black" fill="cyan"/>
   </g>
   <g id="cell88">
  <circle cx="535.209" cy="531.502" r="8.36849" stroke-width="0.5" stroke="black" fill="cyan"/>
  <circle cx="535.209" cy="531.502" r="5.03512" stroke-width="0.5" stroke="black" fill="cyan"/>
   </g>
   <g id="cell89">
  <circle cx="364.834" cy="467.145" r="8.25152" stroke-width="0.5" stroke="black" fill="green"/>
  <circle cx="364.834" cy="467.145" r="4.98357" stroke-width="0.5" stroke="black" fill="green"/>
   </g>
   <g id="cell90">
  <circle cx="637.716" cy="469.944" r="8.36592" stroke-width="0.5" stroke="black" fill="green"/>
  <circle cx="637.716" cy="469.944" r="5.03403" stroke-width="0.5" stroke="black" fill="green"/>
   </g>
   <g id="cell91">
  <circle cx="383.213" cy="525.307" r="8.26815" stroke-width="0.5" stroke="black" fill="cyan"/>
  <circle cx="383.213" cy="525.307" r="4.9919" stroke-width="0.5" stroke="black" fill="cyan"/>
   </g>
   <g id="cell92">
  <circle cx="507.471" cy="612.444" r="8.35062" stroke-width="0.5" stroke="black" fill="magenta"/>
  <circle cx="507.471" cy="612.444" r="5.02745" stroke-width="0.5" stroke="black" fill="magenta"/>
   </g>
   <g id="cell93">
  <circle cx="555.42" cy="407.234" r="8.33699" stroke-width="0.5" stroke="black" fill="green"/>
  <circle cx="555.42" cy="407.234" r="5.02141" stroke-width="0.5" stroke="black" fill="green"/>
   </g>
   <g id="cell94">
  <circle cx="388.971" cy="510.703" r="8.2804" stroke-width="0.5" stroke="black" fill="cyan"/>
  <circle cx="388.971" cy="510.703" r="4.99763" stroke-width="0.5" stroke="black" fill="cyan"/>
   </g>
   <g id="cell95">
  <circle cx="370.796" cy="535.231" r="8.26815" stroke-width="0.5" stroke="black" fill="cyan"/>
  <circle cx="370.796" cy="535.231" r="4.9919" stroke-width="0.5" stroke="black" fill="cyan"/>
   </g>
   <g id="cell96">
  <circle cx="581.257" cy="467.979" r="8.01572" stroke-width="0.5" stroke="black" fill="cyan"/>
  <circle cx="581.257" cy="467.979" r="4.86474" stroke-width="0.5" stroke="black" fill="cyan"/>
   </g>
   <g id="cell97">
  <circle cx="356.694" cy="480.551" r="8.25152" stroke-width="0.5" stroke="black" fill="green"/>
  <circle cx="356.694" cy="480.551" r="4.98357" stroke-width="0.5" stroke="black" fill="green"/>
   </g>
   <g id="cell98">
  <circle cx="580.017" cy="546.02" r="8.25967" stroke-width="0.5" stroke="black" fill="cyan"/>
  <circle cx="580.017" cy="546.02" r="4.98656" stroke-width="0.5" stroke="black" fill="cyan"/>
   </g>
   <g id="cell99">
  <circle cx="551.08" cy="458.892" r="8.25967" stroke-width="0.5" stroke="black" fill="green"/>
  <circle cx="551.08" cy="458.892" r="4.98656" stroke-width="0.5" stroke="black" fill="green"/>
   </g>
   <g id="cell100">
  <circle cx="621.975" cy="486.771" r="7.43352" stroke-width="0.5" stroke="black" fill="green"/>
  <circle cx="621.975" cy="486.771" r="4.53661" stroke-width="0.5" stroke="black" fill="green"/>
   </g>
   <g id="cell101">
  <circle cx="576.134" cy="502.161" r="8.08208" stroke-width="0.5" stroke="black" fill="magenta"/>
  <circle cx="576.134" cy="502.161" r="4.90089" stroke-width="0.5" stroke="black" fill="magenta"/>
   </g>
   <g id="cell102">
  <circle cx="465.825" cy="391.505" r="8.18833" stroke-width="0.5" stroke="black" fill="green"/>
  <circle cx="465.825" cy="391.505" r="4.94921" stroke-width="0.5" stroke="black" fill="green"/>
   </g>
   <g id="cell103">
  <circle cx="565.003" cy="542.245" r="8.15647" stroke-width="0.5" stroke="black" fill="cyan"/>
  <circle cx="565.003" cy="542.245" r="4.93472" stroke-width="0.5" stroke="black" fill="cyan"/>
   </g>
   <g id="cell104">
  <circle cx="628.922" cy="499.902" r="8.0738" stroke-width="0.5" stroke="black" fill="green"/>
  <circle cx="628.922" cy="499.902" r="4.89788" stroke-width="0.5" stroke="black" fill="green"/>
   </g>
   <g id="cell105">
  <circle cx="571.842" cy="477.785" r="6.93215" stroke-width="0.5" stroke="black" fill="magenta"/>
  <circle cx="571.842" cy="477.785" r="4.2575" stroke-width="0.5" stroke="black" fill="magenta"/>
   </g>
   <g id="cell106">
  <circle cx="539.662" cy="546.458" r="8.1234" stroke-width="0.5" stroke="black" fill="green"/>
  <circle cx="539.662" cy="546.458" r="4.91674" stroke-width="0.5" stroke="black" fill="green"/>
   </g>
   <g id="cell107">
  <circle cx="513.468" cy="585.029" r="8.1218" stroke-width="0.5" stroke="black" fill="magenta"/>
  <circle cx="513.468" cy="585.029" r="4.91457" stroke-width="0.5" stroke="black" fill="magenta"/>
   </g>
   <g id="cell109">
  <circle cx="520.905" cy="457.444" r="8.07654" stroke-width="0.5" stroke="black" fill="cyan"/>
  <circle cx="520.905" cy="457.444" r="4.89046" stroke-width="0.5" stroke="black" fill="cyan"/>
   </g>
   <g id="cell110">
  <circle cx="562.03" cy="468.902" r="8.01572" stroke-width="0.5" stroke="black" fill="cyan"/>
  <circle cx="562.03" cy="468.902" r="4.86474" stroke-width="0.5" stroke="black" fill="cyan"/>
   </g>
   <g id="cell111">
  <circle cx="560.035" cy="483.758" r="7.84557" stroke-width="0.5" stroke="black" fill="magenta"/>
  <circle cx="560.035" cy="483.758" r="4.78028" stroke-width="0.5" stroke="black" fill="magenta"/>
   </g>
   <g id="cell112">
  <circle cx="387.801" cy="453.511" r="7.89373" stroke-width="0.5" stroke="black" fill="green"/>
  <circle cx="387.801" cy="453.511" r="4.78957" stroke-width="0.5" stroke="black" fill="green"/>
   </g>
   <g id="cell113">
  <circle cx="387.977" cy="552.538" r="6.787" stroke-width="0.5" stroke="black" fill="magenta"/>
  <circle cx="387.977" cy="552.538" r="4.15956" stroke-width="0.5" stroke="black" fill="magenta"/>
   </g>
   <g id="cell114">
  <circle cx="525.095" cy="593.765" r="7.74141" stroke-width="0.5" stroke="black" fill="magenta"/>
  <circle cx="525.095" cy="593.765" r="4.70871" stroke-width="0.5" stroke="black" fill="magenta"/>
   </g>
   <g id="cell115">
  <circle cx="497.963" cy="430.609" r="6.75819" stroke-width="0.5" stroke="black" fill="green"/>
  <circle cx="497.963" cy="430.609" r="4.14428" stroke-width="0.5" stroke="black" fill="green"/>
   </g>
   <g id="cell116">
  <circle cx="440.286" cy="473.204" r="7.59183" stroke-width="0.5" stroke="black" fill="cyan"/>
  <circle cx="440.286" cy="473.204" r="4.61399" stroke-width="0.5" stroke="black" fill="cyan"/>
   </g>
   <g id="cell117">
  <circle cx="601.085" cy="504.949" r="7.56839" stroke-width="0.5" stroke="black" fill="magenta"/>
  <circle cx="601.085" cy="504.949" r="4.59998" stroke-width="0.5" stroke="black" fill="magenta"/>
   </g>
   <g id="cell118">
  <circle cx="612.439" cy="476.339" r="7.43352" stroke-width="0.5" stroke="black" fill="green"/>
  <circle cx="612.439" cy="476.339" r="4.53661" stroke-width="0.5" stroke="black" fill="green"/>
   </g>
   <g id="cell119">
  <circle cx="494.9" cy="581.805" r="6.55748" stroke-width="0.5" stroke="black" fill="magenta"/>
  <circle cx="494.9" cy="581.805" r="4.03786" stroke-width="0.5" stroke="black" fill="magenta"/>
   </g>
   <g id="cell120">
  <circle cx="467.693" cy="497.918" r="7.48472" stroke-width="0.5" stroke="black" fill="magenta"/>
  <circle cx="467.693" cy="497.918" r="4.55203" stroke-width="0.5" stroke="black" fill="magenta"/>
   </g>
   <g id="cell121">
  <circle cx="446.115" cy="460.67" r="6.99346" stroke-width="0.5" stroke="black" fill="cyan"/>
  <circle cx="446.115" cy="460.67" r="4.28873" stroke-width="0.5" stroke="black" fill="cyan"/>
   </g>
   <g id="cell123">
  <circle cx="422.711" cy="456.616" r="6.32642" stroke-width="0.5" stroke="black" fill="cyan"/>
  <circle cx="422.711" cy="456.616" r="3.90663" stroke-width="0.5" stroke="black" fill="cyan"/>
   </g>
   <g id="cell124">
  <circle cx="444.201" cy="391.317" r="7.09195" stroke-width="0.5" stroke="black" fill="green"/>
  <circle cx="444.201" cy="391.317" r="4.3294" stroke-width="0.5" stroke="black" fill="green"/>
   </g>
   <g id="cell125">
  <circle cx="493.935" cy="442.68" r="6.75819" stroke-width="0.5" stroke="black" fill="green"/>
  <circle cx="493.935" cy="442.68" r="4.14428" stroke-width="0.5" stroke="black" fill="green"/>
   </g>
   <g id="cell126">
  <circle cx="484.254" cy="586.888" r="6.55748" stroke-width="0.5" stroke="black" fill="magenta"/>
  <circle cx="484.254" cy="586.888" r="4.03786" stroke-width="0.5" stroke="black" fill="magenta"/>
   </g>
   <g id="cell128">
  <circle cx="547.591" cy="488.183" r="6.98113" stroke-width="0.5" stroke="black" fill="magenta"/>
  <circle cx="547.591" cy="488.183" r="4.23171" stroke-width="0.5" stroke="black" fill="magenta"/>
   </g>
   <g id="cell129">
  <circle cx="521.833" cy="519.652" r="6.7879" stroke-width="0.5" stroke="black" fill="magenta"/>
  <circle cx="521.833" cy="519.652" r="4.09958" stroke-width="0.5" stroke="black" fill="magenta"/>
   </g>
   <g id="cell130">
  <circle cx="378.304" cy="443.197" r="6.73287" stroke-width="0.5" stroke="black" fill="cyan"/>
  <circle cx="378.304" cy="443.197" r="4.05039" stroke-width="0.5" stroke="black" fill="cyan"/>
   </g>
   <g id="cell131">
  <circle cx="597.264" cy="516.805" r="6.71158" stroke-width="0.5" stroke="black" fill="magenta"/>
  <circle cx="597.264" cy="516.805" r="4.03435" stroke-width="0.5" stroke="black" fill="magenta"/>
   </g>
  </g>
 </g>
  <rect x="775" y="1035" width="200" height="10" stroke-width="2" stroke="rgb(255,255,255)" fill="rgb(0,0,0)"/>
  <text x="781.25" y="1028.75"
   font-family="Arial" font-size="25" fill="black" >
   200 &#956;m
  </text>
  <text x="25" y="1045"
   font-family="Arial" font-size="18.75" fill="black" >
   0 days, 0 hours, 0 minutes, and 19.7649 seconds
  </text>
  <rect x="0" y="70" width="1000" height="1000" stroke-width="2" stroke="rgb(0,0,0)" fill="none"/>
</svg>
