<?xml version="1.0" encoding="UTF-8" standalone="no"?>
<!-- Created with PhysiCell (http://PhysiCell.MathCancer.org/) -->
<svg 
 xmlns:dc="http://purl.org/dc/elements/1.1/" 
 xmlns:cc="http://creativecommons.org/ns#" 
 xmlns:rdf="http://www.w3.org/1999/02/22-rdf-syntax-ns#" 
 xmlns:svg="http://www.w3.org/2000/svg" 
 xmlns="http://www.w3.org/2000/svg" 
 version="1.1" 
 width="1000" 
 height="1070" 
 id="svg2">
  <rect x="0" y="0" width="1000" height="1070" stroke-width="2" stroke="white" fill="white"/>
  <text x="12.5" y="30"
   font-family="Arial" font-size="25" fill="black" >
   Current time: 0 days, 11 hours, and 30.00 minutes, z = 0.00 &#956;m
  </text>
  <text x="12.5" y="57.5"
   font-family="Arial" font-size="23.75" fill="black" >
   109 agents
  </text>
 <g id="tissue" 
    transform="translate(0,1070) scale(1,-1)">
  <g id="ECM">
  </g>
  <g id="cells">
   <g id="cell0">
  <circle cx="516.438" cy="533.732" r="8.11327" stroke-width="0.5" stroke="black" fill="magenta"/>
  <circle cx="516.438" cy="533.732" r="4.91006" stroke-width="0.5" stroke="black" fill="magenta"/>
   </g>
   <g id="cell1">
  <circle cx="602.492" cy="526.171" r="8.41271" stroke-width="0.5" stroke="black" fill="magenta"/>
  <circle cx="602.492" cy="526.171" r="5.05167" stroke-width="0.5" stroke="black" fill="magenta"/>
   </g>
   <g id="cell2">
  <circle cx="514.371" cy="599.595" r="8.41271" stroke-width="0.5" stroke="black" fill="magenta"/>
  <circle cx="514.371" cy="599.595" r="5.05167" stroke-width="0.5" stroke="black" fill="magenta"/>
   </g>
   <g id="cell3">
  <circle cx="523.819" cy="545.993" r="7.91259" stroke-width="0.5" stroke="black" fill="magenta"/>
  <circle cx="523.819" cy="545.993" r="4.81094" stroke-width="0.5" stroke="black" fill="magenta"/>
   </g>
   <g id="cell4">
  <circle cx="489.481" cy="437.584" r="8.29331" stroke-width="0.5" stroke="black" fill="magenta"/>
  <circle cx="489.481" cy="437.584" r="5.0012" stroke-width="0.5" stroke="black" fill="magenta"/>
   </g>
   <g id="cell5">
  <circle cx="465.032" cy="493.3" r="8.41271" stroke-width="0.5" stroke="black" fill="magenta"/>
  <circle cx="465.032" cy="493.3" r="5.05167" stroke-width="0.5" stroke="black" fill="magenta"/>
   </g>
   <g id="cell6">
  <circle cx="595.637" cy="512.669" r="8.41271" stroke-width="0.5" stroke="black" fill="magenta"/>
  <circle cx="595.637" cy="512.669" r="5.05167" stroke-width="0.5" stroke="black" fill="magenta"/>
   </g>
   <g id="cell7">
  <circle cx="509.211" cy="461.616" r="8.41271" stroke-width="0.5" stroke="black" fill="magenta"/>
  <circle cx="509.211" cy="461.616" r="5.05167" stroke-width="0.5" stroke="black" fill="magenta"/>
   </g>
   <g id="cell8">
  <circle cx="376.408" cy="544.083" r="8.41271" stroke-width="0.5" stroke="black" fill="magenta"/>
  <circle cx="376.408" cy="544.083" r="5.05167" stroke-width="0.5" stroke="black" fill="magenta"/>
   </g>
   <g id="cell9">
  <circle cx="460.472" cy="599.786" r="8.41271" stroke-width="0.5" stroke="black" fill="magenta"/>
  <circle cx="460.472" cy="599.786" r="5.05167" stroke-width="0.5" stroke="black" fill="magenta"/>
   </g>
   <g id="cell10">
  <circle cx="583.447" cy="392.105" r="8.41271" stroke-width="0.5" stroke="black" fill="magenta"/>
  <circle cx="583.447" cy="392.105" r="5.05167" stroke-width="0.5" stroke="black" fill="magenta"/>
   </g>
   <g id="cell11">
  <circle cx="588.911" cy="590.532" r="8.41271" stroke-width="0.5" stroke="black" fill="magenta"/>
  <circle cx="588.911" cy="590.532" r="5.05167" stroke-width="0.5" stroke="black" fill="magenta"/>
   </g>
   <g id="cell12">
  <circle cx="506.889" cy="586.252" r="8.41271" stroke-width="0.5" stroke="black" fill="magenta"/>
  <circle cx="506.889" cy="586.252" r="5.05167" stroke-width="0.5" stroke="black" fill="magenta"/>
   </g>
   <g id="cell13">
  <circle cx="386.194" cy="568.228" r="8.41271" stroke-width="0.5" stroke="black" fill="magenta"/>
  <circle cx="386.194" cy="568.228" r="5.05167" stroke-width="0.5" stroke="black" fill="magenta"/>
   </g>
   <g id="cell14">
  <circle cx="528.607" cy="399.157" r="8.41271" stroke-width="0.5" stroke="black" fill="magenta"/>
  <circle cx="528.607" cy="399.157" r="5.05167" stroke-width="0.5" stroke="black" fill="magenta"/>
   </g>
   <g id="cell15">
  <circle cx="379.65" cy="475.1" r="8.41271" stroke-width="0.5" stroke="black" fill="magenta"/>
  <circle cx="379.65" cy="475.1" r="5.05167" stroke-width="0.5" stroke="black" fill="magenta"/>
   </g>
   <g id="cell16">
  <circle cx="428.96" cy="413.216" r="8.41271" stroke-width="0.5" stroke="black" fill="magenta"/>
  <circle cx="428.96" cy="413.216" r="5.05167" stroke-width="0.5" stroke="black" fill="magenta"/>
   </g>
   <g id="cell17">
  <circle cx="570.431" cy="489.851" r="8.41271" stroke-width="0.5" stroke="black" fill="magenta"/>
  <circle cx="570.431" cy="489.851" r="5.05167" stroke-width="0.5" stroke="black" fill="magenta"/>
   </g>
   <g id="cell18">
  <circle cx="517.427" cy="388.942" r="8.41271" stroke-width="0.5" stroke="black" fill="magenta"/>
  <circle cx="517.427" cy="388.942" r="5.05167" stroke-width="0.5" stroke="black" fill="magenta"/>
   </g>
   <g id="cell19">
  <circle cx="456.556" cy="543.915" r="8.05651" stroke-width="0.5" stroke="black" fill="magenta"/>
  <circle cx="456.556" cy="543.915" r="4.87966" stroke-width="0.5" stroke="black" fill="magenta"/>
   </g>
   <g id="cell20">
  <circle cx="531.161" cy="414.083" r="8.41271" stroke-width="0.5" stroke="black" fill="magenta"/>
  <circle cx="531.161" cy="414.083" r="5.05167" stroke-width="0.5" stroke="black" fill="magenta"/>
   </g>
   <g id="cell21">
  <circle cx="464.368" cy="634.574" r="8.41271" stroke-width="0.5" stroke="black" fill="magenta"/>
  <circle cx="464.368" cy="634.574" r="5.05167" stroke-width="0.5" stroke="black" fill="magenta"/>
   </g>
   <g id="cell22">
  <circle cx="557.556" cy="498.045" r="8.41271" stroke-width="0.5" stroke="black" fill="magenta"/>
  <circle cx="557.556" cy="498.045" r="5.05167" stroke-width="0.5" stroke="black" fill="magenta"/>
   </g>
   <g id="cell23">
  <circle cx="541.706" cy="485.133" r="8.41271" stroke-width="0.5" stroke="black" fill="magenta"/>
  <circle cx="541.706" cy="485.133" r="5.05167" stroke-width="0.5" stroke="black" fill="magenta"/>
   </g>
   <g id="cell24">
  <circle cx="559.282" cy="379.803" r="8.41271" stroke-width="0.5" stroke="black" fill="magenta"/>
  <circle cx="559.282" cy="379.803" r="5.05167" stroke-width="0.5" stroke="black" fill="magenta"/>
   </g>
   <g id="cell25">
  <circle cx="645.615" cy="545.31" r="8.22925" stroke-width="0.5" stroke="black" fill="green"/>
  <circle cx="645.615" cy="545.31" r="4.96993" stroke-width="0.5" stroke="black" fill="green"/>
   </g>
   <g id="cell26">
  <circle cx="551.055" cy="401.239" r="8.41271" stroke-width="0.5" stroke="black" fill="green"/>
  <circle cx="551.055" cy="401.239" r="5.05167" stroke-width="0.5" stroke="black" fill="green"/>
   </g>
   <g id="cell27">
  <circle cx="463.577" cy="390.256" r="8.29993" stroke-width="0.5" stroke="black" fill="green"/>
  <circle cx="463.577" cy="390.256" r="5.00433" stroke-width="0.5" stroke="black" fill="green"/>
   </g>
   <g id="cell28">
  <circle cx="433.758" cy="530.731" r="8.41271" stroke-width="0.5" stroke="black" fill="green"/>
  <circle cx="433.758" cy="530.731" r="5.05167" stroke-width="0.5" stroke="black" fill="green"/>
   </g>
   <g id="cell29">
  <circle cx="450.417" cy="516.378" r="8.41271" stroke-width="0.5" stroke="black" fill="green"/>
  <circle cx="450.417" cy="516.378" r="5.05167" stroke-width="0.5" stroke="black" fill="green"/>
   </g>
   <g id="cell30">
  <circle cx="481.05" cy="534.764" r="7.95045" stroke-width="0.5" stroke="black" fill="green"/>
  <circle cx="481.05" cy="534.764" r="4.82139" stroke-width="0.5" stroke="black" fill="green"/>
   </g>
   <g id="cell31">
  <circle cx="412.757" cy="541.193" r="8.41271" stroke-width="0.5" stroke="black" fill="green"/>
  <circle cx="412.757" cy="541.193" r="5.05167" stroke-width="0.5" stroke="black" fill="green"/>
   </g>
   <g id="cell32">
  <circle cx="421.866" cy="481.121" r="7.77763" stroke-width="0.5" stroke="black" fill="green"/>
  <circle cx="421.866" cy="481.121" r="4.7232" stroke-width="0.5" stroke="black" fill="green"/>
   </g>
   <g id="cell33">
  <circle cx="497.897" cy="424.693" r="8.41271" stroke-width="0.5" stroke="black" fill="green"/>
  <circle cx="497.897" cy="424.693" r="5.05167" stroke-width="0.5" stroke="black" fill="green"/>
   </g>
   <g id="cell34">
  <circle cx="397.088" cy="450.831" r="8.41271" stroke-width="0.5" stroke="black" fill="green"/>
  <circle cx="397.088" cy="450.831" r="5.05167" stroke-width="0.5" stroke="black" fill="green"/>
   </g>
   <g id="cell35">
  <circle cx="551.611" cy="541.291" r="8.41271" stroke-width="0.5" stroke="black" fill="green"/>
  <circle cx="551.611" cy="541.291" r="5.05167" stroke-width="0.5" stroke="black" fill="green"/>
   </g>
   <g id="cell36">
  <circle cx="391.486" cy="582.903" r="8.41271" stroke-width="0.5" stroke="black" fill="green"/>
  <circle cx="391.486" cy="582.903" r="5.05167" stroke-width="0.5" stroke="black" fill="green"/>
   </g>
   <g id="cell37">
  <circle cx="639.703" cy="457.304" r="8.28262" stroke-width="0.5" stroke="black" fill="green"/>
  <circle cx="639.703" cy="457.304" r="4.9961" stroke-width="0.5" stroke="black" fill="green"/>
   </g>
   <g id="cell38">
  <circle cx="529.766" cy="597.366" r="8.25826" stroke-width="0.5" stroke="black" fill="green"/>
  <circle cx="529.766" cy="597.366" r="4.98429" stroke-width="0.5" stroke="black" fill="green"/>
   </g>
   <g id="cell39">
  <circle cx="613.458" cy="490.595" r="8.41271" stroke-width="0.5" stroke="black" fill="green"/>
  <circle cx="613.458" cy="490.595" r="5.05167" stroke-width="0.5" stroke="black" fill="green"/>
   </g>
   <g id="cell40">
  <circle cx="485.348" cy="571.779" r="8.41271" stroke-width="0.5" stroke="black" fill="green"/>
  <circle cx="485.348" cy="571.779" r="5.05167" stroke-width="0.5" stroke="black" fill="green"/>
   </g>
   <g id="cell41">
  <circle cx="364.925" cy="480.252" r="8.41271" stroke-width="0.5" stroke="black" fill="green"/>
  <circle cx="364.925" cy="480.252" r="5.05167" stroke-width="0.5" stroke="black" fill="green"/>
   </g>
   <g id="cell42">
  <circle cx="438.842" cy="494.268" r="8.41271" stroke-width="0.5" stroke="black" fill="green"/>
  <circle cx="438.842" cy="494.268" r="5.05167" stroke-width="0.5" stroke="black" fill="green"/>
   </g>
   <g id="cell43">
  <circle cx="558.515" cy="442.48" r="8.41271" stroke-width="0.5" stroke="black" fill="green"/>
  <circle cx="558.515" cy="442.48" r="5.05167" stroke-width="0.5" stroke="black" fill="green"/>
   </g>
   <g id="cell44">
  <circle cx="475.857" cy="624.021" r="8.41271" stroke-width="0.5" stroke="black" fill="green"/>
  <circle cx="475.857" cy="624.021" r="5.05167" stroke-width="0.5" stroke="black" fill="green"/>
   </g>
   <g id="cell45">
  <circle cx="414.953" cy="557.066" r="8.41271" stroke-width="0.5" stroke="black" fill="green"/>
  <circle cx="414.953" cy="557.066" r="5.05167" stroke-width="0.5" stroke="black" fill="green"/>
   </g>
   <g id="cell46">
  <circle cx="524.108" cy="610.748" r="7.33129" stroke-width="0.5" stroke="black" fill="green"/>
  <circle cx="524.108" cy="610.748" r="4.45516" stroke-width="0.5" stroke="black" fill="green"/>
   </g>
   <g id="cell47">
  <circle cx="504.461" cy="503.242" r="7.7401" stroke-width="0.5" stroke="black" fill="green"/>
  <circle cx="504.461" cy="503.242" r="4.70142" stroke-width="0.5" stroke="black" fill="green"/>
   </g>
   <g id="cell48">
  <circle cx="568.587" cy="601.353" r="5.73015" stroke-width="0.5" stroke="black" fill="green"/>
  <circle cx="568.587" cy="601.353" r="3.4926" stroke-width="0.5" stroke="black" fill="green"/>
   </g>
   <g id="cell49">
  <circle cx="429.828" cy="397.64" r="8.41271" stroke-width="0.5" stroke="black" fill="green"/>
  <circle cx="429.828" cy="397.64" r="5.05167" stroke-width="0.5" stroke="black" fill="green"/>
   </g>
   <g id="cell50">
  <circle cx="518.968" cy="518.932" r="8.13813" stroke-width="0.5" stroke="black" fill="cyan"/>
  <circle cx="518.968" cy="518.932" r="4.92317" stroke-width="0.5" stroke="black" fill="cyan"/>
   </g>
   <g id="cell51">
  <circle cx="398.721" cy="597.201" r="8.41271" stroke-width="0.5" stroke="black" fill="cyan"/>
  <circle cx="398.721" cy="597.201" r="5.05167" stroke-width="0.5" stroke="black" fill="cyan"/>
   </g>
   <g id="cell52">
  <circle cx="519.344" cy="424.266" r="8.41271" stroke-width="0.5" stroke="black" fill="cyan"/>
  <circle cx="519.344" cy="424.266" r="5.05167" stroke-width="0.5" stroke="black" fill="cyan"/>
   </g>
   <g id="cell53">
  <circle cx="572.864" cy="430.089" r="7.49456" stroke-width="0.5" stroke="black" fill="cyan"/>
  <circle cx="572.864" cy="430.089" r="4.55548" stroke-width="0.5" stroke="black" fill="cyan"/>
   </g>
   <g id="cell54">
  <circle cx="482.412" cy="424.194" r="7.86286" stroke-width="0.5" stroke="black" fill="cyan"/>
  <circle cx="482.412" cy="424.194" r="4.77207" stroke-width="0.5" stroke="black" fill="cyan"/>
   </g>
   <g id="cell55">
  <circle cx="523.798" cy="462.795" r="7.52619" stroke-width="0.5" stroke="black" fill="cyan"/>
  <circle cx="523.798" cy="462.795" r="4.58854" stroke-width="0.5" stroke="black" fill="cyan"/>
   </g>
   <g id="cell56">
  <circle cx="617.613" cy="522.333" r="8.41271" stroke-width="0.5" stroke="black" fill="cyan"/>
  <circle cx="617.613" cy="522.333" r="5.05167" stroke-width="0.5" stroke="black" fill="cyan"/>
   </g>
   <g id="cell105">
  <circle cx="510.733" cy="613.8" r="7.33129" stroke-width="0.5" stroke="black" fill="green"/>
  <circle cx="510.733" cy="613.8" r="4.45516" stroke-width="0.5" stroke="black" fill="green"/>
   </g>
   <g id="cell58">
  <circle cx="556.831" cy="482.581" r="8.41271" stroke-width="0.5" stroke="black" fill="cyan"/>
  <circle cx="556.831" cy="482.581" r="5.05167" stroke-width="0.5" stroke="black" fill="cyan"/>
   </g>
   <g id="cell59">
  <circle cx="385.463" cy="439.803" r="8.41271" stroke-width="0.5" stroke="black" fill="cyan"/>
  <circle cx="385.463" cy="439.803" r="5.05167" stroke-width="0.5" stroke="black" fill="cyan"/>
   </g>
   <g id="cell60">
  <circle cx="592.96" cy="473.662" r="8.41271" stroke-width="0.5" stroke="black" fill="cyan"/>
  <circle cx="592.96" cy="473.662" r="5.05167" stroke-width="0.5" stroke="black" fill="cyan"/>
   </g>
   <g id="cell61">
  <circle cx="553.229" cy="618.751" r="8.41271" stroke-width="0.5" stroke="black" fill="cyan"/>
  <circle cx="553.229" cy="618.751" r="5.05167" stroke-width="0.5" stroke="black" fill="cyan"/>
   </g>
   <g id="cell62">
  <circle cx="518.47" cy="448.998" r="8.3031" stroke-width="0.5" stroke="black" fill="cyan"/>
  <circle cx="518.47" cy="448.998" r="5.00583" stroke-width="0.5" stroke="black" fill="cyan"/>
   </g>
   <g id="cell63">
  <circle cx="574.273" cy="541.153" r="8.08613" stroke-width="0.5" stroke="black" fill="cyan"/>
  <circle cx="574.273" cy="541.153" r="4.8956" stroke-width="0.5" stroke="black" fill="cyan"/>
   </g>
   <g id="cell64">
  <circle cx="509.962" cy="636.825" r="8.41271" stroke-width="0.5" stroke="black" fill="cyan"/>
  <circle cx="509.962" cy="636.825" r="5.05167" stroke-width="0.5" stroke="black" fill="cyan"/>
   </g>
   <g id="cell65">
  <circle cx="546.758" cy="470.798" r="8.04604" stroke-width="0.5" stroke="black" fill="cyan"/>
  <circle cx="546.758" cy="470.798" r="4.87399" stroke-width="0.5" stroke="black" fill="cyan"/>
   </g>
   <g id="cell66">
  <circle cx="530.957" cy="532.807" r="7.83019" stroke-width="0.5" stroke="black" fill="cyan"/>
  <circle cx="530.957" cy="532.807" r="4.75343" stroke-width="0.5" stroke="black" fill="cyan"/>
   </g>
   <g id="cell67">
  <circle cx="354.711" cy="492.599" r="8.41271" stroke-width="0.5" stroke="black" fill="cyan"/>
  <circle cx="354.711" cy="492.599" r="5.05167" stroke-width="0.5" stroke="black" fill="cyan"/>
   </g>
   <g id="cell68">
  <circle cx="562.676" cy="552.335" r="8.41271" stroke-width="0.5" stroke="black" fill="cyan"/>
  <circle cx="562.676" cy="552.335" r="5.05167" stroke-width="0.5" stroke="black" fill="cyan"/>
   </g>
   <g id="cell69">
  <circle cx="441.777" cy="461.129" r="8.41271" stroke-width="0.5" stroke="black" fill="cyan"/>
  <circle cx="441.777" cy="461.129" r="5.05167" stroke-width="0.5" stroke="black" fill="cyan"/>
   </g>
   <g id="cell70">
  <circle cx="577.027" cy="475.629" r="8.41271" stroke-width="0.5" stroke="black" fill="cyan"/>
  <circle cx="577.027" cy="475.629" r="5.05167" stroke-width="0.5" stroke="black" fill="cyan"/>
   </g>
   <g id="cell71">
  <circle cx="377.712" cy="520.989" r="8.41271" stroke-width="0.5" stroke="black" fill="cyan"/>
  <circle cx="377.712" cy="520.989" r="5.05167" stroke-width="0.5" stroke="black" fill="cyan"/>
   </g>
   <g id="cell72">
  <circle cx="532.248" cy="511.723" r="7.87851" stroke-width="0.5" stroke="black" fill="cyan"/>
  <circle cx="532.248" cy="511.723" r="4.78096" stroke-width="0.5" stroke="black" fill="cyan"/>
   </g>
   <g id="cell73">
  <circle cx="363.745" cy="552.698" r="8.1218" stroke-width="0.5" stroke="black" fill="cyan"/>
  <circle cx="363.745" cy="552.698" r="4.91457" stroke-width="0.5" stroke="black" fill="cyan"/>
   </g>
   <g id="cell74">
  <circle cx="542.645" cy="444.744" r="8.41271" stroke-width="0.5" stroke="black" fill="cyan"/>
  <circle cx="542.645" cy="444.744" r="5.05167" stroke-width="0.5" stroke="black" fill="cyan"/>
   </g>
   <g id="cell75">
  <circle cx="528.795" cy="437.027" r="8.3031" stroke-width="0.5" stroke="black" fill="cyan"/>
  <circle cx="528.795" cy="437.027" r="5.00583" stroke-width="0.5" stroke="black" fill="cyan"/>
   </g>
   <g id="cell76">
  <circle cx="442.429" cy="382.957" r="6.52512" stroke-width="0.5" stroke="black" fill="green"/>
  <circle cx="442.429" cy="382.957" r="4.00847" stroke-width="0.5" stroke="black" fill="green"/>
   </g>
   <g id="cell77">
  <circle cx="475.888" cy="436.285" r="7.06727" stroke-width="0.5" stroke="black" fill="magenta"/>
  <circle cx="475.888" cy="436.285" r="4.30425" stroke-width="0.5" stroke="black" fill="magenta"/>
   </g>
   <g id="cell78">
  <circle cx="624.727" cy="461.166" r="7.97541" stroke-width="0.5" stroke="black" fill="green"/>
  <circle cx="624.727" cy="461.166" r="4.84359" stroke-width="0.5" stroke="black" fill="green"/>
   </g>
   <g id="cell79">
  <circle cx="516.112" cy="475.602" r="8.26685" stroke-width="0.5" stroke="black" fill="cyan"/>
  <circle cx="516.112" cy="475.602" r="4.98849" stroke-width="0.5" stroke="black" fill="cyan"/>
   </g>
   <g id="cell80">
  <circle cx="538.827" cy="611.947" r="8.17424" stroke-width="0.5" stroke="black" fill="green"/>
  <circle cx="538.827" cy="611.947" r="4.94735" stroke-width="0.5" stroke="black" fill="green"/>
   </g>
   <g id="cell81">
  <circle cx="545.229" cy="597.766" r="8.17424" stroke-width="0.5" stroke="black" fill="green"/>
  <circle cx="545.229" cy="597.766" r="4.94735" stroke-width="0.5" stroke="black" fill="green"/>
   </g>
   <g id="cell82">
  <circle cx="532.044" cy="558.186" r="8.22925" stroke-width="0.5" stroke="black" fill="magenta"/>
  <circle cx="532.044" cy="558.186" r="4.96993" stroke-width="0.5" stroke="black" fill="magenta"/>
   </g>
   <g id="cell83">
  <circle cx="634.597" cy="556.441" r="8.22925" stroke-width="0.5" stroke="black" fill="green"/>
  <circle cx="634.597" cy="556.441" r="4.96993" stroke-width="0.5" stroke="black" fill="green"/>
   </g>
   <g id="cell84">
  <circle cx="519.375" cy="503.527" r="8.13813" stroke-width="0.5" stroke="black" fill="cyan"/>
  <circle cx="519.375" cy="503.527" r="4.92317" stroke-width="0.5" stroke="black" fill="cyan"/>
   </g>
   <g id="cell85">
  <circle cx="353.33" cy="542.091" r="7.55002" stroke-width="0.5" stroke="black" fill="cyan"/>
  <circle cx="353.33" cy="542.091" r="4.60899" stroke-width="0.5" stroke="black" fill="cyan"/>
   </g>
   <g id="cell86">
  <circle cx="505.115" cy="524.797" r="8.11327" stroke-width="0.5" stroke="black" fill="magenta"/>
  <circle cx="505.115" cy="524.797" r="4.91006" stroke-width="0.5" stroke="black" fill="magenta"/>
   </g>
   <g id="cell87">
  <circle cx="577.092" cy="555.333" r="7.17847" stroke-width="0.5" stroke="black" fill="cyan"/>
  <circle cx="577.092" cy="555.333" r="4.389" stroke-width="0.5" stroke="black" fill="cyan"/>
   </g>
   <g id="cell88">
  <circle cx="448.993" cy="531.565" r="8.05651" stroke-width="0.5" stroke="black" fill="magenta"/>
  <circle cx="448.993" cy="531.565" r="4.87966" stroke-width="0.5" stroke="black" fill="magenta"/>
   </g>
   <g id="cell89">
  <circle cx="552.509" cy="456.825" r="8.04604" stroke-width="0.5" stroke="black" fill="cyan"/>
  <circle cx="552.509" cy="456.825" r="4.87399" stroke-width="0.5" stroke="black" fill="cyan"/>
   </g>
   <g id="cell90">
  <circle cx="630.869" cy="475.028" r="7.97541" stroke-width="0.5" stroke="black" fill="green"/>
  <circle cx="630.869" cy="475.028" r="4.84359" stroke-width="0.5" stroke="black" fill="green"/>
   </g>
   <g id="cell91">
  <circle cx="546.467" cy="555.596" r="7.66296" stroke-width="0.5" stroke="black" fill="magenta"/>
  <circle cx="546.467" cy="555.596" r="4.6816" stroke-width="0.5" stroke="black" fill="magenta"/>
   </g>
   <g id="cell92">
  <circle cx="482.496" cy="549.808" r="7.95045" stroke-width="0.5" stroke="black" fill="green"/>
  <circle cx="482.496" cy="549.808" r="4.82139" stroke-width="0.5" stroke="black" fill="green"/>
   </g>
   <g id="cell93">
  <circle cx="537.595" cy="545.223" r="7.66296" stroke-width="0.5" stroke="black" fill="magenta"/>
  <circle cx="537.595" cy="545.223" r="4.6816" stroke-width="0.5" stroke="black" fill="magenta"/>
   </g>
   <g id="cell94">
  <circle cx="532.842" cy="496.972" r="7.87851" stroke-width="0.5" stroke="black" fill="cyan"/>
  <circle cx="532.842" cy="496.972" r="4.78096" stroke-width="0.5" stroke="black" fill="cyan"/>
   </g>
   <g id="cell95">
  <circle cx="467.266" cy="425.655" r="7.86286" stroke-width="0.5" stroke="black" fill="cyan"/>
  <circle cx="467.266" cy="425.655" r="4.77207" stroke-width="0.5" stroke="black" fill="cyan"/>
   </g>
   <g id="cell96">
  <circle cx="542.009" cy="522.86" r="7.83019" stroke-width="0.5" stroke="black" fill="cyan"/>
  <circle cx="542.009" cy="522.86" r="4.75343" stroke-width="0.5" stroke="black" fill="cyan"/>
   </g>
   <g id="cell97">
  <circle cx="422.194" cy="466.838" r="7.23723" stroke-width="0.5" stroke="black" fill="green"/>
  <circle cx="422.194" cy="466.838" r="4.43223" stroke-width="0.5" stroke="black" fill="green"/>
   </g>
   <g id="cell98">
  <circle cx="494.979" cy="514.369" r="7.7401" stroke-width="0.5" stroke="black" fill="green"/>
  <circle cx="494.979" cy="514.369" r="4.70142" stroke-width="0.5" stroke="black" fill="green"/>
   </g>
   <g id="cell99">
  <circle cx="357.993" cy="528.559" r="7.55002" stroke-width="0.5" stroke="black" fill="cyan"/>
  <circle cx="357.993" cy="528.559" r="4.60899" stroke-width="0.5" stroke="black" fill="cyan"/>
   </g>
   <g id="cell100">
  <circle cx="449.15" cy="394.465" r="7.54617" stroke-width="0.5" stroke="black" fill="green"/>
  <circle cx="449.15" cy="394.465" r="4.5982" stroke-width="0.5" stroke="black" fill="green"/>
   </g>
   <g id="cell101">
  <circle cx="532.35" cy="473.844" r="7.52619" stroke-width="0.5" stroke="black" fill="cyan"/>
  <circle cx="532.35" cy="473.844" r="4.58854" stroke-width="0.5" stroke="black" fill="cyan"/>
   </g>
   <g id="cell102">
  <circle cx="434.056" cy="473.782" r="7.23723" stroke-width="0.5" stroke="black" fill="green"/>
  <circle cx="434.056" cy="473.782" r="4.43223" stroke-width="0.5" stroke="black" fill="green"/>
   </g>
   <g id="cell103">
  <circle cx="573.51" cy="444.299" r="7.49456" stroke-width="0.5" stroke="black" fill="cyan"/>
  <circle cx="573.51" cy="444.299" r="4.55548" stroke-width="0.5" stroke="black" fill="cyan"/>
   </g>
   <g id="cell104">
  <circle cx="590.542" cy="553.773" r="7.17847" stroke-width="0.5" stroke="black" fill="cyan"/>
  <circle cx="590.542" cy="553.773" r="4.389" stroke-width="0.5" stroke="black" fill="cyan"/>
   </g>
   <g id="cell106">
  <circle cx="464.206" cy="440.888" r="7.06727" stroke-width="0.5" stroke="black" fill="magenta"/>
  <circle cx="464.206" cy="440.888" r="4.30425" stroke-width="0.5" stroke="black" fill="magenta"/>
   </g>
   <g id="cell107">
  <circle cx="453.496" cy="377.461" r="6.52512" stroke-width="0.5" stroke="black" fill="green"/>
  <circle cx="453.496" cy="377.461" r="4.00847" stroke-width="0.5" stroke="black" fill="green"/>
   </g>
   <g id="cell108">
  <circle cx="557.385" cy="604.953" r="6.92764" stroke-width="0.5" stroke="black" fill="green"/>
  <circle cx="557.385" cy="604.953" r="4.1918" stroke-width="0.5" stroke="black" fill="green"/>
   </g>
   <g id="cell109">
  <circle cx="576.457" cy="594.124" r="5.73015" stroke-width="0.5" stroke="black" fill="green"/>
  <circle cx="576.457" cy="594.124" r="3.4926" stroke-width="0.5" stroke="black" fill="green"/>
   </g>
  </g>
 </g>
  <rect x="775" y="1035" width="200" height="10" stroke-width="2" stroke="rgb(255,255,255)" fill="rgb(0,0,0)"/>
  <text x="781.25" y="1028.75"
   font-family="Arial" font-size="25" fill="black" >
   200 &#956;m
  </text>
  <text x="25" y="1045"
   font-family="Arial" font-size="18.75" fill="black" >
   0 days, 0 hours, 0 minutes, and 13.0957 seconds
  </text>
  <rect x="0" y="70" width="1000" height="1000" stroke-width="2" stroke="rgb(0,0,0)" fill="none"/>
</svg>
