<?xml version="1.0" encoding="UTF-8" standalone="no"?>
<!-- Created with PhysiCell (http://PhysiCell.MathCancer.org/) -->
<svg 
 xmlns:dc="http://purl.org/dc/elements/1.1/" 
 xmlns:cc="http://creativecommons.org/ns#" 
 xmlns:rdf="http://www.w3.org/1999/02/22-rdf-syntax-ns#" 
 xmlns:svg="http://www.w3.org/2000/svg" 
 xmlns="http://www.w3.org/2000/svg" 
 version="1.1" 
 width="1000" 
 height="1070" 
 id="svg2">
  <rect x="0" y="0" width="1000" height="1070" stroke-width="2" stroke="white" fill="white"/>
  <text x="12.5" y="30"
   font-family="Arial" font-size="25" fill="black" >
   Current time: 1 days, 6 hours, and 39.00 minutes, z = 0.00 &#956;m
  </text>
  <text x="12.5" y="57.5"
   font-family="Arial" font-size="23.75" fill="black" >
   173 agents
  </text>
 <g id="tissue" 
    transform="translate(0,1070) scale(1,-1)">
  <g id="ECM">
  </g>
  <g id="cells">
   <g id="cell0">
  <circle cx="512.851" cy="536.765" r="8.41136" stroke-width="0.5" stroke="black" fill="magenta"/>
  <circle cx="512.851" cy="536.765" r="5.05133" stroke-width="0.5" stroke="black" fill="magenta"/>
   </g>
   <g id="cell1">
  <circle cx="593.957" cy="526.715" r="7.59183" stroke-width="0.5" stroke="black" fill="magenta"/>
  <circle cx="593.957" cy="526.715" r="4.61399" stroke-width="0.5" stroke="black" fill="magenta"/>
   </g>
   <g id="cell2">
  <circle cx="517.722" cy="598.669" r="8.41271" stroke-width="0.5" stroke="black" fill="magenta"/>
  <circle cx="517.722" cy="598.669" r="5.05167" stroke-width="0.5" stroke="black" fill="magenta"/>
   </g>
   <g id="cell3">
  <circle cx="523.857" cy="546.871" r="8.41051" stroke-width="0.5" stroke="black" fill="magenta"/>
  <circle cx="523.857" cy="546.871" r="5.0511" stroke-width="0.5" stroke="black" fill="magenta"/>
   </g>
   <g id="cell4">
  <circle cx="486.284" cy="447.86" r="8.38263" stroke-width="0.5" stroke="black" fill="magenta"/>
  <circle cx="486.284" cy="447.86" r="5.04096" stroke-width="0.5" stroke="black" fill="magenta"/>
   </g>
   <g id="cell5">
  <circle cx="466.196" cy="491.448" r="8.41271" stroke-width="0.5" stroke="black" fill="magenta"/>
  <circle cx="466.196" cy="491.448" r="5.05167" stroke-width="0.5" stroke="black" fill="magenta"/>
   </g>
   <g id="cell163">
  <circle cx="538.478" cy="577.592" r="7.79522" stroke-width="0.5" stroke="black" fill="green"/>
  <circle cx="538.478" cy="577.592" r="4.73348" stroke-width="0.5" stroke="black" fill="green"/>
   </g>
   <g id="cell7">
  <circle cx="496.865" cy="457.522" r="7.48809" stroke-width="0.5" stroke="black" fill="magenta"/>
  <circle cx="496.865" cy="457.522" r="4.5533" stroke-width="0.5" stroke="black" fill="magenta"/>
   </g>
   <g id="cell8">
  <circle cx="378.395" cy="549.773" r="7.79564" stroke-width="0.5" stroke="black" fill="magenta"/>
  <circle cx="378.395" cy="549.773" r="4.73359" stroke-width="0.5" stroke="black" fill="magenta"/>
   </g>
   <g id="cell161">
  <circle cx="450.931" cy="382.394" r="7.55296" stroke-width="0.5" stroke="black" fill="green"/>
  <circle cx="450.931" cy="382.394" r="4.61588" stroke-width="0.5" stroke="black" fill="green"/>
   </g>
   <g id="cell10">
  <circle cx="586.032" cy="389.462" r="8.1609" stroke-width="0.5" stroke="black" fill="magenta"/>
  <circle cx="586.032" cy="389.462" r="4.93506" stroke-width="0.5" stroke="black" fill="magenta"/>
   </g>
   <g id="cell11">
  <circle cx="592.097" cy="590.052" r="8.41271" stroke-width="0.5" stroke="black" fill="magenta"/>
  <circle cx="592.097" cy="590.052" r="5.05167" stroke-width="0.5" stroke="black" fill="magenta"/>
   </g>
   <g id="cell12">
  <circle cx="504.033" cy="592.513" r="8.32788" stroke-width="0.5" stroke="black" fill="magenta"/>
  <circle cx="504.033" cy="592.513" r="5.01729" stroke-width="0.5" stroke="black" fill="magenta"/>
   </g>
   <g id="cell13">
  <circle cx="385.717" cy="567.06" r="8.41271" stroke-width="0.5" stroke="black" fill="magenta"/>
  <circle cx="385.717" cy="567.06" r="5.05167" stroke-width="0.5" stroke="black" fill="magenta"/>
   </g>
   <g id="cell14">
  <circle cx="519.946" cy="404.586" r="8.41271" stroke-width="0.5" stroke="black" fill="magenta"/>
  <circle cx="519.946" cy="404.586" r="5.05167" stroke-width="0.5" stroke="black" fill="magenta"/>
   </g>
   <g id="cell15">
  <circle cx="381.831" cy="479.101" r="8.36592" stroke-width="0.5" stroke="black" fill="magenta"/>
  <circle cx="381.831" cy="479.101" r="5.03403" stroke-width="0.5" stroke="black" fill="magenta"/>
   </g>
   <g id="cell16">
  <circle cx="440.578" cy="420.357" r="8.1367" stroke-width="0.5" stroke="black" fill="magenta"/>
  <circle cx="440.578" cy="420.357" r="4.93105" stroke-width="0.5" stroke="black" fill="magenta"/>
   </g>
   <g id="cell17">
  <circle cx="573.722" cy="495.683" r="8.41271" stroke-width="0.5" stroke="black" fill="magenta"/>
  <circle cx="573.722" cy="495.683" r="5.05167" stroke-width="0.5" stroke="black" fill="magenta"/>
   </g>
   <g id="cell18">
  <circle cx="518.84" cy="389.527" r="8.41271" stroke-width="0.5" stroke="black" fill="magenta"/>
  <circle cx="518.84" cy="389.527" r="5.05167" stroke-width="0.5" stroke="black" fill="magenta"/>
   </g>
   <g id="cell19">
  <circle cx="458.429" cy="540.619" r="8.4022" stroke-width="0.5" stroke="black" fill="magenta"/>
  <circle cx="458.429" cy="540.619" r="5.04842" stroke-width="0.5" stroke="black" fill="magenta"/>
   </g>
   <g id="cell20">
  <circle cx="531.707" cy="414.336" r="8.41271" stroke-width="0.5" stroke="black" fill="magenta"/>
  <circle cx="531.707" cy="414.336" r="5.05167" stroke-width="0.5" stroke="black" fill="magenta"/>
   </g>
   <g id="cell21">
  <circle cx="466.883" cy="632.265" r="8.41271" stroke-width="0.5" stroke="black" fill="magenta"/>
  <circle cx="466.883" cy="632.265" r="5.05167" stroke-width="0.5" stroke="black" fill="magenta"/>
   </g>
   <g id="cell22">
  <circle cx="560.103" cy="493.513" r="6.89675" stroke-width="0.5" stroke="black" fill="magenta"/>
  <circle cx="560.103" cy="493.513" r="4.17024" stroke-width="0.5" stroke="black" fill="magenta"/>
   </g>
   <g id="cell23">
  <circle cx="551.6" cy="482.546" r="8.41271" stroke-width="0.5" stroke="black" fill="magenta"/>
  <circle cx="551.6" cy="482.546" r="5.05167" stroke-width="0.5" stroke="black" fill="magenta"/>
   </g>
   <g id="cell24">
  <circle cx="559.709" cy="383.36" r="8.41271" stroke-width="0.5" stroke="black" fill="magenta"/>
  <circle cx="559.709" cy="383.36" r="5.05167" stroke-width="0.5" stroke="black" fill="magenta"/>
   </g>
   <g id="cell25">
  <circle cx="648.268" cy="543.181" r="8.41187" stroke-width="0.5" stroke="black" fill="green"/>
  <circle cx="648.268" cy="543.181" r="5.05147" stroke-width="0.5" stroke="black" fill="green"/>
   </g>
   <g id="cell26">
  <circle cx="557.935" cy="398.818" r="8.40215" stroke-width="0.5" stroke="black" fill="green"/>
  <circle cx="557.935" cy="398.818" r="5.04833" stroke-width="0.5" stroke="black" fill="green"/>
   </g>
   <g id="cell27">
  <circle cx="463.867" cy="404.813" r="8.41219" stroke-width="0.5" stroke="black" fill="green"/>
  <circle cx="463.867" cy="404.813" r="5.05155" stroke-width="0.5" stroke="black" fill="green"/>
   </g>
   <g id="cell28">
  <circle cx="431.069" cy="537.983" r="8.09544" stroke-width="0.5" stroke="black" fill="green"/>
  <circle cx="431.069" cy="537.983" r="4.90058" stroke-width="0.5" stroke="black" fill="green"/>
   </g>
   <g id="cell29">
  <circle cx="449.241" cy="512.683" r="7.18097" stroke-width="0.5" stroke="black" fill="green"/>
  <circle cx="449.241" cy="512.683" r="4.36015" stroke-width="0.5" stroke="black" fill="green"/>
   </g>
   <g id="cell30">
  <circle cx="483.112" cy="537.289" r="8.31387" stroke-width="0.5" stroke="black" fill="green"/>
  <circle cx="483.112" cy="537.289" r="5.01105" stroke-width="0.5" stroke="black" fill="green"/>
   </g>
   <g id="cell31">
  <circle cx="411.842" cy="542.787" r="8.41271" stroke-width="0.5" stroke="black" fill="green"/>
  <circle cx="411.842" cy="542.787" r="5.05167" stroke-width="0.5" stroke="black" fill="green"/>
   </g>
   <g id="cell169">
  <circle cx="528.069" cy="493.105" r="7.35837" stroke-width="0.5" stroke="black" fill="cyan"/>
  <circle cx="528.069" cy="493.105" r="4.47248" stroke-width="0.5" stroke="black" fill="cyan"/>
   </g>
   <g id="cell33">
  <circle cx="500.952" cy="422.206" r="8.29667" stroke-width="0.5" stroke="black" fill="green"/>
  <circle cx="500.952" cy="422.206" r="5.00279" stroke-width="0.5" stroke="black" fill="green"/>
   </g>
   <g id="cell168">
  <circle cx="382.569" cy="517.496" r="7.38202" stroke-width="0.5" stroke="black" fill="cyan"/>
  <circle cx="382.569" cy="517.496" r="4.4883" stroke-width="0.5" stroke="black" fill="cyan"/>
   </g>
   <g id="cell35">
  <circle cx="554.805" cy="546.091" r="8.41271" stroke-width="0.5" stroke="black" fill="green"/>
  <circle cx="554.805" cy="546.091" r="5.05167" stroke-width="0.5" stroke="black" fill="green"/>
   </g>
   <g id="cell36">
  <circle cx="385.416" cy="582.262" r="7.78658" stroke-width="0.5" stroke="black" fill="green"/>
  <circle cx="385.416" cy="582.262" r="4.75011" stroke-width="0.5" stroke="black" fill="green"/>
   </g>
   <g id="cell37">
  <circle cx="640.202" cy="457.084" r="8.41211" stroke-width="0.5" stroke="black" fill="green"/>
  <circle cx="640.202" cy="457.084" r="5.05153" stroke-width="0.5" stroke="black" fill="green"/>
   </g>
   <g id="cell38">
  <circle cx="530.109" cy="589.913" r="7.79522" stroke-width="0.5" stroke="black" fill="green"/>
  <circle cx="530.109" cy="589.913" r="4.73348" stroke-width="0.5" stroke="black" fill="green"/>
   </g>
   <g id="cell39">
  <circle cx="610.68" cy="486.648" r="6.67717" stroke-width="0.5" stroke="black" fill="green"/>
  <circle cx="610.68" cy="486.648" r="4.00951" stroke-width="0.5" stroke="black" fill="green"/>
   </g>
   <g id="cell40">
  <circle cx="485.777" cy="567.733" r="8.03527" stroke-width="0.5" stroke="black" fill="green"/>
  <circle cx="485.777" cy="567.733" r="4.86813" stroke-width="0.5" stroke="black" fill="green"/>
   </g>
   <g id="cell41">
  <circle cx="366.569" cy="482.114" r="8.41271" stroke-width="0.5" stroke="black" fill="green"/>
  <circle cx="366.569" cy="482.114" r="5.05167" stroke-width="0.5" stroke="black" fill="green"/>
   </g>
   <g id="cell42">
  <circle cx="438.33" cy="491.676" r="8.41271" stroke-width="0.5" stroke="black" fill="green"/>
  <circle cx="438.33" cy="491.676" r="5.05167" stroke-width="0.5" stroke="black" fill="green"/>
   </g>
   <g id="cell43">
  <circle cx="563.003" cy="440.406" r="8.41271" stroke-width="0.5" stroke="black" fill="green"/>
  <circle cx="563.003" cy="440.406" r="5.05167" stroke-width="0.5" stroke="black" fill="green"/>
   </g>
   <g id="cell164">
  <circle cx="398.053" cy="575.364" r="7.53385" stroke-width="0.5" stroke="black" fill="green"/>
  <circle cx="398.053" cy="575.364" r="4.59932" stroke-width="0.5" stroke="black" fill="green"/>
   </g>
   <g id="cell145">
  <circle cx="425.941" cy="420.299" r="8.1367" stroke-width="0.5" stroke="black" fill="magenta"/>
  <circle cx="425.941" cy="420.299" r="4.93105" stroke-width="0.5" stroke="black" fill="magenta"/>
   </g>
   <g id="cell46">
  <circle cx="519.04" cy="616.247" r="8.40801" stroke-width="0.5" stroke="black" fill="green"/>
  <circle cx="519.04" cy="616.247" r="5.05031" stroke-width="0.5" stroke="black" fill="green"/>
   </g>
   <g id="cell47">
  <circle cx="498.739" cy="493.801" r="8.40978" stroke-width="0.5" stroke="black" fill="green"/>
  <circle cx="498.739" cy="493.801" r="5.05086" stroke-width="0.5" stroke="black" fill="green"/>
   </g>
   <g id="cell48">
  <circle cx="570.91" cy="604.818" r="8.40198" stroke-width="0.5" stroke="black" fill="green"/>
  <circle cx="570.91" cy="604.818" r="5.04842" stroke-width="0.5" stroke="black" fill="green"/>
   </g>
   <g id="cell49">
  <circle cx="439.252" cy="390.796" r="7.38797" stroke-width="0.5" stroke="black" fill="green"/>
  <circle cx="439.252" cy="390.796" r="4.49029" stroke-width="0.5" stroke="black" fill="green"/>
   </g>
   <g id="cell50">
  <circle cx="510.01" cy="505.973" r="8.39772" stroke-width="0.5" stroke="black" fill="cyan"/>
  <circle cx="510.01" cy="505.973" r="5.0468" stroke-width="0.5" stroke="black" fill="cyan"/>
   </g>
   <g id="cell51">
  <circle cx="402.724" cy="597.147" r="8.41271" stroke-width="0.5" stroke="black" fill="cyan"/>
  <circle cx="402.724" cy="597.147" r="5.05167" stroke-width="0.5" stroke="black" fill="cyan"/>
   </g>
   <g id="cell52">
  <circle cx="516.799" cy="419.735" r="8.41271" stroke-width="0.5" stroke="black" fill="cyan"/>
  <circle cx="516.799" cy="419.735" r="5.05167" stroke-width="0.5" stroke="black" fill="cyan"/>
   </g>
   <g id="cell53">
  <circle cx="571.391" cy="426.822" r="8.40873" stroke-width="0.5" stroke="black" fill="cyan"/>
  <circle cx="571.391" cy="426.822" r="5.05054" stroke-width="0.5" stroke="black" fill="cyan"/>
   </g>
   <g id="cell54">
  <circle cx="479.982" cy="421.858" r="8.4103" stroke-width="0.5" stroke="black" fill="cyan"/>
  <circle cx="479.982" cy="421.858" r="5.05102" stroke-width="0.5" stroke="black" fill="cyan"/>
   </g>
   <g id="cell55">
  <circle cx="522.302" cy="460.668" r="8.40891" stroke-width="0.5" stroke="black" fill="cyan"/>
  <circle cx="522.302" cy="460.668" r="5.05062" stroke-width="0.5" stroke="black" fill="cyan"/>
   </g>
   <g id="cell56">
  <circle cx="621.262" cy="522.731" r="8.41271" stroke-width="0.5" stroke="black" fill="cyan"/>
  <circle cx="621.262" cy="522.731" r="5.05167" stroke-width="0.5" stroke="black" fill="cyan"/>
   </g>
   <g id="cell105">
  <circle cx="505.665" cy="607.928" r="8.28648" stroke-width="0.5" stroke="black" fill="green"/>
  <circle cx="505.665" cy="607.928" r="4.99941" stroke-width="0.5" stroke="black" fill="green"/>
   </g>
   <g id="cell58">
  <circle cx="566.977" cy="481.948" r="8.05651" stroke-width="0.5" stroke="black" fill="cyan"/>
  <circle cx="566.977" cy="481.948" r="4.87966" stroke-width="0.5" stroke="black" fill="cyan"/>
   </g>
   <g id="cell59">
  <circle cx="385.732" cy="440.058" r="8.41271" stroke-width="0.5" stroke="black" fill="cyan"/>
  <circle cx="385.732" cy="440.058" r="5.05167" stroke-width="0.5" stroke="black" fill="cyan"/>
   </g>
   <g id="cell60">
  <circle cx="589.542" cy="469.204" r="6.99069" stroke-width="0.5" stroke="black" fill="cyan"/>
  <circle cx="589.542" cy="469.204" r="4.23498" stroke-width="0.5" stroke="black" fill="cyan"/>
   </g>
   <g id="cell61">
  <circle cx="557.056" cy="621.932" r="1.22129" stroke-width="0.5" stroke="black" fill="cyan"/>
  <circle cx="557.056" cy="621.932" r="1.21615" stroke-width="0.5" stroke="black" fill="black"/>
   </g>
   <g id="cell62">
  <circle cx="516.04" cy="434.218" r="6.84944" stroke-width="0.5" stroke="black" fill="cyan"/>
  <circle cx="516.04" cy="434.218" r="4.14279" stroke-width="0.5" stroke="black" fill="cyan"/>
   </g>
   <g id="cell63">
  <circle cx="586.111" cy="539.543" r="8.36104" stroke-width="0.5" stroke="black" fill="cyan"/>
  <circle cx="586.111" cy="539.543" r="5.03208" stroke-width="0.5" stroke="black" fill="cyan"/>
   </g>
   <g id="cell64">
  <circle cx="509.789" cy="639.299" r="8.41271" stroke-width="0.5" stroke="black" fill="cyan"/>
  <circle cx="509.789" cy="639.299" r="5.05167" stroke-width="0.5" stroke="black" fill="cyan"/>
   </g>
   <g id="cell65">
  <circle cx="544.524" cy="468.738" r="8.41108" stroke-width="0.5" stroke="black" fill="cyan"/>
  <circle cx="544.524" cy="468.738" r="5.05125" stroke-width="0.5" stroke="black" fill="cyan"/>
   </g>
   <g id="cell66">
  <circle cx="530.685" cy="533.188" r="8.41016" stroke-width="0.5" stroke="black" fill="cyan"/>
  <circle cx="530.685" cy="533.188" r="5.05098" stroke-width="0.5" stroke="black" fill="cyan"/>
   </g>
   <g id="cell67">
  <circle cx="354.669" cy="492.844" r="8.41271" stroke-width="0.5" stroke="black" fill="cyan"/>
  <circle cx="354.669" cy="492.844" r="5.05167" stroke-width="0.5" stroke="black" fill="cyan"/>
   </g>
   <g id="cell68">
  <circle cx="561.747" cy="558.342" r="4.90029" stroke-width="0.5" stroke="black" fill="cyan"/>
  <circle cx="561.747" cy="558.342" r="3.29037" stroke-width="0.5" stroke="black" fill="black"/>
   </g>
   <g id="cell69">
  <circle cx="441.707" cy="461.316" r="8.41271" stroke-width="0.5" stroke="black" fill="cyan"/>
  <circle cx="441.707" cy="461.316" r="5.05167" stroke-width="0.5" stroke="black" fill="cyan"/>
   </g>
   <g id="cell70">
  <circle cx="582.223" cy="482.504" r="8.41271" stroke-width="0.5" stroke="black" fill="cyan"/>
  <circle cx="582.223" cy="482.504" r="5.05167" stroke-width="0.5" stroke="black" fill="cyan"/>
   </g>
   <g id="cell71">
  <circle cx="385.026" cy="531.256" r="7.38202" stroke-width="0.5" stroke="black" fill="cyan"/>
  <circle cx="385.026" cy="531.256" r="4.4883" stroke-width="0.5" stroke="black" fill="cyan"/>
   </g>
   <g id="cell72">
  <circle cx="529.848" cy="506.097" r="7.35837" stroke-width="0.5" stroke="black" fill="cyan"/>
  <circle cx="529.848" cy="506.097" r="4.47248" stroke-width="0.5" stroke="black" fill="cyan"/>
   </g>
   <g id="cell73">
  <circle cx="364.957" cy="548.371" r="6.80781" stroke-width="0.5" stroke="black" fill="cyan"/>
  <circle cx="364.957" cy="548.371" r="4.10683" stroke-width="0.5" stroke="black" fill="cyan"/>
   </g>
   <g id="cell162">
  <circle cx="372.23" cy="537.023" r="7.79564" stroke-width="0.5" stroke="black" fill="magenta"/>
  <circle cx="372.23" cy="537.023" r="4.73359" stroke-width="0.5" stroke="black" fill="magenta"/>
   </g>
   <g id="cell75">
  <circle cx="529.421" cy="429.508" r="8.4122" stroke-width="0.5" stroke="black" fill="cyan"/>
  <circle cx="529.421" cy="429.508" r="5.05155" stroke-width="0.5" stroke="black" fill="cyan"/>
   </g>
   <g id="cell76">
  <circle cx="437.336" cy="375.914" r="8.40513" stroke-width="0.5" stroke="black" fill="green"/>
  <circle cx="437.336" cy="375.914" r="5.04946" stroke-width="0.5" stroke="black" fill="green"/>
   </g>
   <g id="cell77">
  <circle cx="475.65" cy="436.99" r="8.40688" stroke-width="0.5" stroke="black" fill="magenta"/>
  <circle cx="475.65" cy="436.99" r="5.04997" stroke-width="0.5" stroke="black" fill="magenta"/>
   </g>
   <g id="cell78">
  <circle cx="624.912" cy="461.871" r="8.41077" stroke-width="0.5" stroke="black" fill="green"/>
  <circle cx="624.912" cy="461.871" r="5.05117" stroke-width="0.5" stroke="black" fill="green"/>
   </g>
   <g id="cell79">
  <circle cx="519.798" cy="476.323" r="8.41204" stroke-width="0.5" stroke="black" fill="cyan"/>
  <circle cx="519.798" cy="476.323" r="5.05151" stroke-width="0.5" stroke="black" fill="cyan"/>
   </g>
   <g id="cell80">
  <circle cx="544.252" cy="618.024" r="8.38966" stroke-width="0.5" stroke="black" fill="green"/>
  <circle cx="544.252" cy="618.024" r="5.04377" stroke-width="0.5" stroke="black" fill="green"/>
   </g>
   <g id="cell81">
  <circle cx="546.095" cy="590.882" r="8.41162" stroke-width="0.5" stroke="black" fill="green"/>
  <circle cx="546.095" cy="590.882" r="5.05141" stroke-width="0.5" stroke="black" fill="green"/>
   </g>
   <g id="cell82">
  <circle cx="531.904" cy="559.375" r="8.27453" stroke-width="0.5" stroke="black" fill="magenta"/>
  <circle cx="531.904" cy="559.375" r="4.99231" stroke-width="0.5" stroke="black" fill="magenta"/>
   </g>
   <g id="cell83">
  <circle cx="635.451" cy="552.179" r="5.52469" stroke-width="0.5" stroke="black" fill="green"/>
  <circle cx="635.451" cy="552.179" r="3.57278" stroke-width="0.5" stroke="black" fill="black"/>
   </g>
   <g id="cell84">
  <circle cx="513.998" cy="490.98" r="8.41147" stroke-width="0.5" stroke="black" fill="cyan"/>
  <circle cx="513.998" cy="490.98" r="5.05136" stroke-width="0.5" stroke="black" fill="cyan"/>
   </g>
   <g id="cell85">
  <circle cx="351.91" cy="542.214" r="8.40904" stroke-width="0.5" stroke="black" fill="cyan"/>
  <circle cx="351.91" cy="542.214" r="5.05067" stroke-width="0.5" stroke="black" fill="cyan"/>
   </g>
   <g id="cell86">
  <circle cx="498.288" cy="535.926" r="8.38686" stroke-width="0.5" stroke="black" fill="magenta"/>
  <circle cx="498.288" cy="535.926" r="5.04269" stroke-width="0.5" stroke="black" fill="magenta"/>
   </g>
   <g id="cell87">
  <circle cx="578.973" cy="557.548" r="8.40753" stroke-width="0.5" stroke="black" fill="cyan"/>
  <circle cx="578.973" cy="557.548" r="5.0502" stroke-width="0.5" stroke="black" fill="cyan"/>
   </g>
   <g id="cell88">
  <circle cx="445.134" cy="535.5" r="7.79594" stroke-width="0.5" stroke="black" fill="magenta"/>
  <circle cx="445.134" cy="535.5" r="4.74967" stroke-width="0.5" stroke="black" fill="magenta"/>
   </g>
   <g id="cell89">
  <circle cx="551.923" cy="451.342" r="8.23666" stroke-width="0.5" stroke="black" fill="cyan"/>
  <circle cx="551.923" cy="451.342" r="4.97717" stroke-width="0.5" stroke="black" fill="cyan"/>
   </g>
   <g id="cell90">
  <circle cx="636.694" cy="472.679" r="8.37544" stroke-width="0.5" stroke="black" fill="green"/>
  <circle cx="636.694" cy="472.679" r="5.03815" stroke-width="0.5" stroke="black" fill="green"/>
   </g>
   <g id="cell91">
  <circle cx="546.945" cy="559.349" r="8.40951" stroke-width="0.5" stroke="black" fill="magenta"/>
  <circle cx="546.945" cy="559.349" r="5.05083" stroke-width="0.5" stroke="black" fill="magenta"/>
   </g>
   <g id="cell92">
  <circle cx="487.682" cy="552.286" r="8.41067" stroke-width="0.5" stroke="black" fill="green"/>
  <circle cx="487.682" cy="552.286" r="5.05113" stroke-width="0.5" stroke="black" fill="green"/>
   </g>
   <g id="cell93">
  <circle cx="539.063" cy="546.295" r="8.40951" stroke-width="0.5" stroke="black" fill="magenta"/>
  <circle cx="539.063" cy="546.295" r="5.05083" stroke-width="0.5" stroke="black" fill="magenta"/>
   </g>
   <g id="cell94">
  <circle cx="542.398" cy="495.043" r="8.41036" stroke-width="0.5" stroke="black" fill="cyan"/>
  <circle cx="542.398" cy="495.043" r="5.05104" stroke-width="0.5" stroke="black" fill="cyan"/>
   </g>
   <g id="cell95">
  <circle cx="464.63" cy="425.9" r="8.4103" stroke-width="0.5" stroke="black" fill="cyan"/>
  <circle cx="464.63" cy="425.9" r="5.05102" stroke-width="0.5" stroke="black" fill="cyan"/>
   </g>
   <g id="cell96">
  <circle cx="546.387" cy="532.682" r="8.34187" stroke-width="0.5" stroke="black" fill="cyan"/>
  <circle cx="546.387" cy="532.682" r="5.02381" stroke-width="0.5" stroke="black" fill="cyan"/>
   </g>
   <g id="cell97">
  <circle cx="422.104" cy="466.789" r="8.40786" stroke-width="0.5" stroke="black" fill="green"/>
  <circle cx="422.104" cy="466.789" r="5.05032" stroke-width="0.5" stroke="black" fill="green"/>
   </g>
   <g id="cell98">
  <circle cx="489.643" cy="523.336" r="8.38143" stroke-width="0.5" stroke="black" fill="green"/>
  <circle cx="489.643" cy="523.336" r="5.04062" stroke-width="0.5" stroke="black" fill="green"/>
   </g>
   <g id="cell99">
  <circle cx="359.914" cy="528.347" r="8.40904" stroke-width="0.5" stroke="black" fill="cyan"/>
  <circle cx="359.914" cy="528.347" r="5.05067" stroke-width="0.5" stroke="black" fill="cyan"/>
   </g>
   <g id="cell100">
  <circle cx="447.987" cy="402.917" r="8.40899" stroke-width="0.5" stroke="black" fill="green"/>
  <circle cx="447.987" cy="402.917" r="5.05064" stroke-width="0.5" stroke="black" fill="green"/>
   </g>
   <g id="cell101">
  <circle cx="535.432" cy="480.942" r="8.33506" stroke-width="0.5" stroke="black" fill="cyan"/>
  <circle cx="535.432" cy="480.942" r="5.02087" stroke-width="0.5" stroke="black" fill="cyan"/>
   </g>
   <g id="cell102">
  <circle cx="435.227" cy="475.962" r="8.40786" stroke-width="0.5" stroke="black" fill="green"/>
  <circle cx="435.227" cy="475.962" r="5.05032" stroke-width="0.5" stroke="black" fill="green"/>
   </g>
   <g id="cell103">
  <circle cx="592.618" cy="448.462" r="8.38623" stroke-width="0.5" stroke="black" fill="cyan"/>
  <circle cx="592.618" cy="448.462" r="5.04256" stroke-width="0.5" stroke="black" fill="cyan"/>
   </g>
   <g id="cell104">
  <circle cx="599.646" cy="556.879" r="8.22119" stroke-width="0.5" stroke="black" fill="cyan"/>
  <circle cx="599.646" cy="556.879" r="4.96646" stroke-width="0.5" stroke="black" fill="cyan"/>
   </g>
   <g id="cell106">
  <circle cx="461.074" cy="441.041" r="8.40688" stroke-width="0.5" stroke="black" fill="magenta"/>
  <circle cx="461.074" cy="441.041" r="5.04997" stroke-width="0.5" stroke="black" fill="magenta"/>
   </g>
   <g id="cell107">
  <circle cx="463.107" cy="389.788" r="7.55296" stroke-width="0.5" stroke="black" fill="green"/>
  <circle cx="463.107" cy="389.788" r="4.61588" stroke-width="0.5" stroke="black" fill="green"/>
   </g>
   <g id="cell108">
  <circle cx="555.064" cy="605.695" r="8.40596" stroke-width="0.5" stroke="black" fill="green"/>
  <circle cx="555.064" cy="605.695" r="5.04964" stroke-width="0.5" stroke="black" fill="green"/>
   </g>
   <g id="cell109">
  <circle cx="576.509" cy="589.837" r="8.40198" stroke-width="0.5" stroke="black" fill="green"/>
  <circle cx="576.509" cy="589.837" r="5.04842" stroke-width="0.5" stroke="black" fill="green"/>
   </g>
   <g id="cell110">
  <circle cx="369.558" cy="510.108" r="8.40353" stroke-width="0.5" stroke="black" fill="cyan"/>
  <circle cx="369.558" cy="510.108" r="5.04881" stroke-width="0.5" stroke="black" fill="cyan"/>
   </g>
   <g id="cell111">
  <circle cx="459.051" cy="555.804" r="8.33377" stroke-width="0.5" stroke="black" fill="magenta"/>
  <circle cx="459.051" cy="555.804" r="5.02069" stroke-width="0.5" stroke="black" fill="magenta"/>
   </g>
   <g id="cell112">
  <circle cx="494.456" cy="471.506" r="8.21302" stroke-width="0.5" stroke="black" fill="magenta"/>
  <circle cx="494.456" cy="471.506" r="4.96276" stroke-width="0.5" stroke="black" fill="magenta"/>
   </g>
   <g id="cell113">
  <circle cx="545.353" cy="389.229" r="8.25715" stroke-width="0.5" stroke="black" fill="green"/>
  <circle cx="545.353" cy="389.229" r="4.98467" stroke-width="0.5" stroke="black" fill="green"/>
   </g>
   <g id="cell114">
  <circle cx="525.26" cy="445.027" r="8.39493" stroke-width="0.5" stroke="black" fill="cyan"/>
  <circle cx="525.26" cy="445.027" r="5.04596" stroke-width="0.5" stroke="black" fill="cyan"/>
   </g>
   <g id="cell115">
  <circle cx="536.969" cy="455.297" r="8.34827" stroke-width="0.5" stroke="black" fill="cyan"/>
  <circle cx="536.969" cy="455.297" r="5.02744" stroke-width="0.5" stroke="black" fill="cyan"/>
   </g>
   <g id="cell116">
  <circle cx="519.286" cy="525.564" r="6.69981" stroke-width="0.5" stroke="black" fill="cyan"/>
  <circle cx="519.286" cy="525.564" r="4.03052" stroke-width="0.5" stroke="black" fill="cyan"/>
   </g>
   <g id="cell117">
  <circle cx="505.246" cy="623.887" r="8.39287" stroke-width="0.5" stroke="black" fill="green"/>
  <circle cx="505.246" cy="623.887" r="5.04512" stroke-width="0.5" stroke="black" fill="green"/>
   </g>
   <g id="cell118">
  <circle cx="509.911" cy="450.527" r="8.38995" stroke-width="0.5" stroke="black" fill="cyan"/>
  <circle cx="509.911" cy="450.527" r="5.04384" stroke-width="0.5" stroke="black" fill="cyan"/>
   </g>
   <g id="cell119">
  <circle cx="541.126" cy="604.093" r="6.84922" stroke-width="0.5" stroke="black" fill="green"/>
  <circle cx="541.126" cy="604.093" r="4.14273" stroke-width="0.5" stroke="black" fill="green"/>
   </g>
   <g id="cell120">
  <circle cx="578.473" cy="441.56" r="8.38623" stroke-width="0.5" stroke="black" fill="cyan"/>
  <circle cx="578.473" cy="441.56" r="5.04256" stroke-width="0.5" stroke="black" fill="cyan"/>
   </g>
   <g id="cell121">
  <circle cx="450.793" cy="367.254" r="8.35665" stroke-width="0.5" stroke="black" fill="green"/>
  <circle cx="450.793" cy="367.254" r="5.03126" stroke-width="0.5" stroke="black" fill="green"/>
   </g>
   <g id="cell122">
  <circle cx="505.526" cy="522.345" r="8.38686" stroke-width="0.5" stroke="black" fill="magenta"/>
  <circle cx="505.526" cy="522.345" r="5.04269" stroke-width="0.5" stroke="black" fill="magenta"/>
   </g>
   <g id="cell123">
  <circle cx="495.404" cy="509.296" r="8.38143" stroke-width="0.5" stroke="black" fill="green"/>
  <circle cx="495.404" cy="509.296" r="5.04062" stroke-width="0.5" stroke="black" fill="green"/>
   </g>
   <g id="cell124">
  <circle cx="490.206" cy="433.349" r="8.38263" stroke-width="0.5" stroke="black" fill="magenta"/>
  <circle cx="490.206" cy="433.349" r="5.04096" stroke-width="0.5" stroke="black" fill="magenta"/>
   </g>
   <g id="cell125">
  <circle cx="621.488" cy="477.486" r="8.37544" stroke-width="0.5" stroke="black" fill="green"/>
  <circle cx="621.488" cy="477.486" r="5.03815" stroke-width="0.5" stroke="black" fill="green"/>
   </g>
   <g id="cell126">
  <circle cx="628.97" cy="566.391" r="8.37495" stroke-width="0.5" stroke="black" fill="green"/>
  <circle cx="628.97" cy="566.391" r="5.03787" stroke-width="0.5" stroke="black" fill="green"/>
   </g>
   <g id="cell127">
  <circle cx="436.661" cy="360.04" r="8.35665" stroke-width="0.5" stroke="black" fill="green"/>
  <circle cx="436.661" cy="360.04" r="5.03126" stroke-width="0.5" stroke="black" fill="green"/>
   </g>
   <g id="cell128">
  <circle cx="372.129" cy="467.586" r="8.36592" stroke-width="0.5" stroke="black" fill="magenta"/>
  <circle cx="372.129" cy="467.586" r="5.03403" stroke-width="0.5" stroke="black" fill="magenta"/>
   </g>
   <g id="cell129">
  <circle cx="570.626" cy="544.012" r="8.36104" stroke-width="0.5" stroke="black" fill="cyan"/>
  <circle cx="570.626" cy="544.012" r="5.03208" stroke-width="0.5" stroke="black" fill="cyan"/>
   </g>
   <g id="cell130">
  <circle cx="540.836" cy="440.105" r="8.34827" stroke-width="0.5" stroke="black" fill="cyan"/>
  <circle cx="540.836" cy="440.105" r="5.02744" stroke-width="0.5" stroke="black" fill="cyan"/>
   </g>
   <g id="cell131">
  <circle cx="546.155" cy="518.346" r="6.81339" stroke-width="0.5" stroke="black" fill="cyan"/>
  <circle cx="546.155" cy="518.346" r="4.12756" stroke-width="0.5" stroke="black" fill="cyan"/>
   </g>
   <g id="cell132">
  <circle cx="445.664" cy="549.547" r="8.33377" stroke-width="0.5" stroke="black" fill="magenta"/>
  <circle cx="445.664" cy="549.547" r="5.02069" stroke-width="0.5" stroke="black" fill="magenta"/>
   </g>
   <g id="cell133">
  <circle cx="575.156" cy="468.445" r="8.33828" stroke-width="0.5" stroke="black" fill="cyan"/>
  <circle cx="575.156" cy="468.445" r="5.02214" stroke-width="0.5" stroke="black" fill="cyan"/>
   </g>
   <g id="cell134">
  <circle cx="534.663" cy="471.06" r="2.08451" stroke-width="0.5" stroke="black" fill="cyan"/>
  <circle cx="534.663" cy="471.06" r="1.95258" stroke-width="0.5" stroke="black" fill="black"/>
   </g>
   <g id="cell135">
  <circle cx="516.279" cy="583.887" r="8.32788" stroke-width="0.5" stroke="black" fill="magenta"/>
  <circle cx="516.279" cy="583.887" r="5.01729" stroke-width="0.5" stroke="black" fill="magenta"/>
   </g>
   <g id="cell136">
  <circle cx="472.13" cy="548.096" r="8.31387" stroke-width="0.5" stroke="black" fill="green"/>
  <circle cx="472.13" cy="548.096" r="5.01105" stroke-width="0.5" stroke="black" fill="green"/>
   </g>
   <g id="cell137">
  <circle cx="491.143" cy="613.356" r="8.28648" stroke-width="0.5" stroke="black" fill="green"/>
  <circle cx="491.143" cy="613.356" r="4.99941" stroke-width="0.5" stroke="black" fill="green"/>
   </g>
   <g id="cell138">
  <circle cx="501.413" cy="406.408" r="8.29667" stroke-width="0.5" stroke="black" fill="green"/>
  <circle cx="501.413" cy="406.408" r="5.00279" stroke-width="0.5" stroke="black" fill="green"/>
   </g>
   <g id="cell139">
  <circle cx="418.532" cy="407.572" r="8.27885" stroke-width="0.5" stroke="black" fill="magenta"/>
  <circle cx="418.532" cy="407.572" r="4.99429" stroke-width="0.5" stroke="black" fill="magenta"/>
   </g>
   <g id="cell140">
  <circle cx="524.922" cy="572.164" r="8.15216" stroke-width="0.5" stroke="black" fill="magenta"/>
  <circle cx="524.922" cy="572.164" r="4.93636" stroke-width="0.5" stroke="black" fill="magenta"/>
   </g>
   <g id="cell141">
  <circle cx="567.018" cy="455.327" r="8.23666" stroke-width="0.5" stroke="black" fill="cyan"/>
  <circle cx="567.018" cy="455.327" r="4.97717" stroke-width="0.5" stroke="black" fill="cyan"/>
   </g>
   <g id="cell142">
  <circle cx="544.195" cy="424.28" r="6.39657" stroke-width="0.5" stroke="black" fill="green"/>
  <circle cx="544.195" cy="424.28" r="3.90914" stroke-width="0.5" stroke="black" fill="green"/>
   </g>
   <g id="cell143">
  <circle cx="433.384" cy="407.569" r="8.19376" stroke-width="0.5" stroke="black" fill="magenta"/>
  <circle cx="433.384" cy="407.569" r="4.95686" stroke-width="0.5" stroke="black" fill="magenta"/>
   </g>
   <g id="cell144">
  <circle cx="545.925" cy="409.101" r="7.8451" stroke-width="0.5" stroke="black" fill="green"/>
  <circle cx="545.925" cy="409.101" r="4.77813" stroke-width="0.5" stroke="black" fill="green"/>
   </g>
   <g id="cell146">
  <circle cx="588.669" cy="548.237" r="1.04017" stroke-width="0.5" stroke="black" fill="cyan"/>
  <circle cx="588.669" cy="548.237" r="1.03528" stroke-width="0.5" stroke="black" fill="black"/>
   </g>
   <g id="cell147">
  <circle cx="516.979" cy="559.917" r="8.15216" stroke-width="0.5" stroke="black" fill="magenta"/>
  <circle cx="516.979" cy="559.917" r="4.93636" stroke-width="0.5" stroke="black" fill="magenta"/>
   </g>
   <g id="cell148">
  <circle cx="508.109" cy="466.026" r="8.21302" stroke-width="0.5" stroke="black" fill="magenta"/>
  <circle cx="508.109" cy="466.026" r="4.96276" stroke-width="0.5" stroke="black" fill="magenta"/>
   </g>
   <g id="cell149">
  <circle cx="573.04" cy="396.369" r="8.1609" stroke-width="0.5" stroke="black" fill="magenta"/>
  <circle cx="573.04" cy="396.369" r="4.93506" stroke-width="0.5" stroke="black" fill="magenta"/>
   </g>
   <g id="cell150">
  <circle cx="409.646" cy="583.695" r="7.53385" stroke-width="0.5" stroke="black" fill="green"/>
  <circle cx="409.646" cy="583.695" r="4.59932" stroke-width="0.5" stroke="black" fill="green"/>
   </g>
   <g id="cell151">
  <circle cx="418.928" cy="528.754" r="8.09544" stroke-width="0.5" stroke="black" fill="green"/>
  <circle cx="418.928" cy="528.754" r="4.90058" stroke-width="0.5" stroke="black" fill="green"/>
   </g>
   <g id="cell152">
  <circle cx="372.648" cy="574.731" r="7.9255" stroke-width="0.5" stroke="black" fill="green"/>
  <circle cx="372.648" cy="574.731" r="4.81941" stroke-width="0.5" stroke="black" fill="green"/>
   </g>
   <g id="cell153">
  <circle cx="559.677" cy="469.041" r="8.05651" stroke-width="0.5" stroke="black" fill="cyan"/>
  <circle cx="559.677" cy="469.041" r="4.87966" stroke-width="0.5" stroke="black" fill="cyan"/>
   </g>
   <g id="cell154">
  <circle cx="387.347" cy="596.927" r="7.78658" stroke-width="0.5" stroke="black" fill="green"/>
  <circle cx="387.347" cy="596.927" r="4.75011" stroke-width="0.5" stroke="black" fill="green"/>
   </g>
   <g id="cell155">
  <circle cx="484.394" cy="582.887" r="8.03527" stroke-width="0.5" stroke="black" fill="green"/>
  <circle cx="484.394" cy="582.887" r="4.86813" stroke-width="0.5" stroke="black" fill="green"/>
   </g>
   <g id="cell156">
  <circle cx="454.86" cy="525.621" r="8.0344" stroke-width="0.5" stroke="black" fill="magenta"/>
  <circle cx="454.86" cy="525.621" r="4.8679" stroke-width="0.5" stroke="black" fill="magenta"/>
   </g>
   <g id="cell157">
  <circle cx="440.294" cy="522.799" r="7.79594" stroke-width="0.5" stroke="black" fill="magenta"/>
  <circle cx="440.294" cy="522.799" r="4.74967" stroke-width="0.5" stroke="black" fill="magenta"/>
   </g>
   <g id="cell158">
  <circle cx="558.963" cy="416.657" r="7.87048" stroke-width="0.5" stroke="black" fill="green"/>
  <circle cx="558.963" cy="416.657" r="4.79208" stroke-width="0.5" stroke="black" fill="green"/>
   </g>
   <g id="cell159">
  <circle cx="534.137" cy="399.566" r="7.8451" stroke-width="0.5" stroke="black" fill="green"/>
  <circle cx="534.137" cy="399.566" r="4.77813" stroke-width="0.5" stroke="black" fill="green"/>
   </g>
   <g id="cell160">
  <circle cx="463.959" cy="375.23" r="7.92101" stroke-width="0.5" stroke="black" fill="green"/>
  <circle cx="463.959" cy="375.23" r="4.80824" stroke-width="0.5" stroke="black" fill="green"/>
   </g>
   <g id="cell165">
  <circle cx="606.476" cy="521.095" r="7.59183" stroke-width="0.5" stroke="black" fill="magenta"/>
  <circle cx="606.476" cy="521.095" r="4.61399" stroke-width="0.5" stroke="black" fill="magenta"/>
   </g>
   <g id="cell166">
  <circle cx="484.144" cy="461.935" r="7.48809" stroke-width="0.5" stroke="black" fill="magenta"/>
  <circle cx="484.144" cy="461.935" r="4.5533" stroke-width="0.5" stroke="black" fill="magenta"/>
   </g>
   <g id="cell167">
  <circle cx="426.029" cy="395.234" r="7.38797" stroke-width="0.5" stroke="black" fill="green"/>
  <circle cx="426.029" cy="395.234" r="4.49029" stroke-width="0.5" stroke="black" fill="green"/>
   </g>
   <g id="cell170">
  <circle cx="459.044" cy="503.756" r="7.18097" stroke-width="0.5" stroke="black" fill="green"/>
  <circle cx="459.044" cy="503.756" r="4.36015" stroke-width="0.5" stroke="black" fill="green"/>
   </g>
   <g id="cell171">
  <circle cx="596.436" cy="480.457" r="6.99069" stroke-width="0.5" stroke="black" fill="cyan"/>
  <circle cx="596.436" cy="480.457" r="4.23498" stroke-width="0.5" stroke="black" fill="cyan"/>
   </g>
   <g id="cell172">
  <circle cx="552.942" cy="501.717" r="5.55629" stroke-width="0.5" stroke="black" fill="magenta"/>
  <circle cx="552.942" cy="501.717" r="3.36895" stroke-width="0.5" stroke="black" fill="magenta"/>
   </g>
   <g id="cell173">
  <circle cx="533.088" cy="518.899" r="6.81339" stroke-width="0.5" stroke="black" fill="cyan"/>
  <circle cx="533.088" cy="518.899" r="4.12756" stroke-width="0.5" stroke="black" fill="cyan"/>
   </g>
   <g id="cell174">
  <circle cx="503.65" cy="436.488" r="6.84944" stroke-width="0.5" stroke="black" fill="cyan"/>
  <circle cx="503.65" cy="436.488" r="4.14279" stroke-width="0.5" stroke="black" fill="cyan"/>
   </g>
   <g id="cell175">
  <circle cx="528.979" cy="606.397" r="6.84922" stroke-width="0.5" stroke="black" fill="green"/>
  <circle cx="528.979" cy="606.397" r="4.14273" stroke-width="0.5" stroke="black" fill="green"/>
   </g>
   <g id="cell176">
  <circle cx="555.054" cy="429.419" r="6.39657" stroke-width="0.5" stroke="black" fill="green"/>
  <circle cx="555.054" cy="429.419" r="3.90914" stroke-width="0.5" stroke="black" fill="green"/>
   </g>
   <g id="cell177">
  <circle cx="363.34" cy="561.212" r="6.80781" stroke-width="0.5" stroke="black" fill="cyan"/>
  <circle cx="363.34" cy="561.212" r="4.10683" stroke-width="0.5" stroke="black" fill="cyan"/>
   </g>
   <g id="cell178">
  <circle cx="555.245" cy="511.211" r="5.55629" stroke-width="0.5" stroke="black" fill="magenta"/>
  <circle cx="555.245" cy="511.211" r="3.36895" stroke-width="0.5" stroke="black" fill="magenta"/>
   </g>
   <g id="cell179">
  <circle cx="520.505" cy="514.198" r="6.69981" stroke-width="0.5" stroke="black" fill="cyan"/>
  <circle cx="520.505" cy="514.198" r="4.03052" stroke-width="0.5" stroke="black" fill="cyan"/>
   </g>
   <g id="cell180">
  <circle cx="615.961" cy="496.119" r="6.67717" stroke-width="0.5" stroke="black" fill="green"/>
  <circle cx="615.961" cy="496.119" r="4.00951" stroke-width="0.5" stroke="black" fill="green"/>
   </g>
  </g>
 </g>
  <rect x="775" y="1035" width="200" height="10" stroke-width="2" stroke="rgb(255,255,255)" fill="rgb(0,0,0)"/>
  <text x="781.25" y="1028.75"
   font-family="Arial" font-size="25" fill="black" >
   200 &#956;m
  </text>
  <text x="25" y="1045"
   font-family="Arial" font-size="18.75" fill="black" >
   0 days, 0 hours, 0 minutes, and 36.5930 seconds
  </text>
  <rect x="0" y="70" width="1000" height="1000" stroke-width="2" stroke="rgb(0,0,0)" fill="none"/>
</svg>
