<?xml version="1.0" encoding="UTF-8" standalone="no"?>
<!-- Created with PhysiCell (http://PhysiCell.MathCancer.org/) -->
<svg 
 xmlns:dc="http://purl.org/dc/elements/1.1/" 
 xmlns:cc="http://creativecommons.org/ns#" 
 xmlns:rdf="http://www.w3.org/1999/02/22-rdf-syntax-ns#" 
 xmlns:svg="http://www.w3.org/2000/svg" 
 xmlns="http://www.w3.org/2000/svg" 
 version="1.1" 
 width="1000" 
 height="1070" 
 id="svg2">
  <rect x="0" y="0" width="1000" height="1070" stroke-width="2" stroke="white" fill="white"/>
  <text x="12.5" y="30"
   font-family="Arial" font-size="25" fill="black" >
   Current time: 0 days, 1 hours, and 30.00 minutes, z = 0.00 &#956;m
  </text>
  <text x="12.5" y="57.5"
   font-family="Arial" font-size="23.75" fill="black" >
   81 agents
  </text>
 <g id="tissue" 
    transform="translate(0,1070) scale(1,-1)">
  <g id="ECM">
  </g>
  <g id="cells">
   <g id="cell0">
  <circle cx="514.523" cy="530.268" r="8.41271" stroke-width="0.5" stroke="black" fill="magenta"/>
  <circle cx="514.523" cy="530.268" r="5.05167" stroke-width="0.5" stroke="black" fill="magenta"/>
   </g>
   <g id="cell1">
  <circle cx="604.256" cy="530.081" r="8.41271" stroke-width="0.5" stroke="black" fill="magenta"/>
  <circle cx="604.256" cy="530.081" r="5.05167" stroke-width="0.5" stroke="black" fill="magenta"/>
   </g>
   <g id="cell2">
  <circle cx="510.881" cy="600.601" r="8.41271" stroke-width="0.5" stroke="black" fill="magenta"/>
  <circle cx="510.881" cy="600.601" r="5.05167" stroke-width="0.5" stroke="black" fill="magenta"/>
   </g>
   <g id="cell3">
  <circle cx="527.634" cy="545.498" r="8.41271" stroke-width="0.5" stroke="black" fill="magenta"/>
  <circle cx="527.634" cy="545.498" r="5.05167" stroke-width="0.5" stroke="black" fill="magenta"/>
   </g>
   <g id="cell4">
  <circle cx="481.805" cy="439.288" r="8.41271" stroke-width="0.5" stroke="black" fill="magenta"/>
  <circle cx="481.805" cy="439.288" r="5.05167" stroke-width="0.5" stroke="black" fill="magenta"/>
   </g>
   <g id="cell5">
  <circle cx="462.177" cy="496.072" r="6.71158" stroke-width="0.5" stroke="black" fill="magenta"/>
  <circle cx="462.177" cy="496.072" r="4.03435" stroke-width="0.5" stroke="black" fill="magenta"/>
   </g>
   <g id="cell6">
  <circle cx="593.717" cy="508.805" r="8.41271" stroke-width="0.5" stroke="black" fill="magenta"/>
  <circle cx="593.717" cy="508.805" r="5.05167" stroke-width="0.5" stroke="black" fill="magenta"/>
   </g>
   <g id="cell7">
  <circle cx="512.359" cy="464.854" r="8.41271" stroke-width="0.5" stroke="black" fill="magenta"/>
  <circle cx="512.359" cy="464.854" r="5.05167" stroke-width="0.5" stroke="black" fill="magenta"/>
   </g>
   <g id="cell8">
  <circle cx="375.891" cy="544.521" r="8.41271" stroke-width="0.5" stroke="black" fill="magenta"/>
  <circle cx="375.891" cy="544.521" r="5.05167" stroke-width="0.5" stroke="black" fill="magenta"/>
   </g>
   <g id="cell9">
  <circle cx="460.472" cy="599.786" r="8.41271" stroke-width="0.5" stroke="black" fill="magenta"/>
  <circle cx="460.472" cy="599.786" r="5.05167" stroke-width="0.5" stroke="black" fill="magenta"/>
   </g>
   <g id="cell10">
  <circle cx="583.447" cy="392.105" r="8.41271" stroke-width="0.5" stroke="black" fill="magenta"/>
  <circle cx="583.447" cy="392.105" r="5.05167" stroke-width="0.5" stroke="black" fill="magenta"/>
   </g>
   <g id="cell11">
  <circle cx="589.748" cy="590.273" r="8.41271" stroke-width="0.5" stroke="black" fill="magenta"/>
  <circle cx="589.748" cy="590.273" r="5.05167" stroke-width="0.5" stroke="black" fill="magenta"/>
   </g>
   <g id="cell12">
  <circle cx="506.663" cy="586.054" r="8.41271" stroke-width="0.5" stroke="black" fill="magenta"/>
  <circle cx="506.663" cy="586.054" r="5.05167" stroke-width="0.5" stroke="black" fill="magenta"/>
   </g>
   <g id="cell13">
  <circle cx="386.105" cy="567.982" r="8.41271" stroke-width="0.5" stroke="black" fill="magenta"/>
  <circle cx="386.105" cy="567.982" r="5.05167" stroke-width="0.5" stroke="black" fill="magenta"/>
   </g>
   <g id="cell14">
  <circle cx="528.93" cy="396.972" r="8.41271" stroke-width="0.5" stroke="black" fill="magenta"/>
  <circle cx="528.93" cy="396.972" r="5.05167" stroke-width="0.5" stroke="black" fill="magenta"/>
   </g>
   <g id="cell15">
  <circle cx="379.913" cy="475.006" r="8.41271" stroke-width="0.5" stroke="black" fill="magenta"/>
  <circle cx="379.913" cy="475.006" r="5.05167" stroke-width="0.5" stroke="black" fill="magenta"/>
   </g>
   <g id="cell16">
  <circle cx="428.96" cy="413.217" r="8.41271" stroke-width="0.5" stroke="black" fill="magenta"/>
  <circle cx="428.96" cy="413.217" r="5.05167" stroke-width="0.5" stroke="black" fill="magenta"/>
   </g>
   <g id="cell17">
  <circle cx="573.249" cy="489.996" r="8.41271" stroke-width="0.5" stroke="black" fill="magenta"/>
  <circle cx="573.249" cy="489.996" r="5.05167" stroke-width="0.5" stroke="black" fill="magenta"/>
   </g>
   <g id="cell18">
  <circle cx="516.493" cy="388.167" r="8.41271" stroke-width="0.5" stroke="black" fill="magenta"/>
  <circle cx="516.493" cy="388.167" r="5.05167" stroke-width="0.5" stroke="black" fill="magenta"/>
   </g>
   <g id="cell19">
  <circle cx="451.806" cy="538.654" r="8.41271" stroke-width="0.5" stroke="black" fill="magenta"/>
  <circle cx="451.806" cy="538.654" r="5.05167" stroke-width="0.5" stroke="black" fill="magenta"/>
   </g>
   <g id="cell20">
  <circle cx="531.978" cy="416.623" r="8.41271" stroke-width="0.5" stroke="black" fill="magenta"/>
  <circle cx="531.978" cy="416.623" r="5.05167" stroke-width="0.5" stroke="black" fill="magenta"/>
   </g>
   <g id="cell21">
  <circle cx="464.368" cy="634.574" r="8.41271" stroke-width="0.5" stroke="black" fill="magenta"/>
  <circle cx="464.368" cy="634.574" r="5.05167" stroke-width="0.5" stroke="black" fill="magenta"/>
   </g>
   <g id="cell22">
  <circle cx="559.605" cy="492.035" r="6.86652" stroke-width="0.5" stroke="black" fill="magenta"/>
  <circle cx="559.605" cy="492.035" r="4.14883" stroke-width="0.5" stroke="black" fill="magenta"/>
   </g>
   <g id="cell23">
  <circle cx="537.052" cy="482.544" r="8.41271" stroke-width="0.5" stroke="black" fill="magenta"/>
  <circle cx="537.052" cy="482.544" r="5.05167" stroke-width="0.5" stroke="black" fill="magenta"/>
   </g>
   <g id="cell24">
  <circle cx="559.288" cy="379.786" r="8.41271" stroke-width="0.5" stroke="black" fill="magenta"/>
  <circle cx="559.288" cy="379.786" r="5.05167" stroke-width="0.5" stroke="black" fill="magenta"/>
   </g>
   <g id="cell25">
  <circle cx="640.943" cy="550.03" r="8.41271" stroke-width="0.5" stroke="black" fill="green"/>
  <circle cx="640.943" cy="550.03" r="5.05167" stroke-width="0.5" stroke="black" fill="green"/>
   </g>
   <g id="cell26">
  <circle cx="551.18" cy="401.268" r="8.41271" stroke-width="0.5" stroke="black" fill="green"/>
  <circle cx="551.18" cy="401.268" r="5.05167" stroke-width="0.5" stroke="black" fill="green"/>
   </g>
   <g id="cell27">
  <circle cx="457.446" cy="388.678" r="8.41271" stroke-width="0.5" stroke="black" fill="green"/>
  <circle cx="457.446" cy="388.678" r="5.05167" stroke-width="0.5" stroke="black" fill="green"/>
   </g>
   <g id="cell28">
  <circle cx="438.343" cy="530.854" r="8.41271" stroke-width="0.5" stroke="black" fill="green"/>
  <circle cx="438.343" cy="530.854" r="5.05167" stroke-width="0.5" stroke="black" fill="green"/>
   </g>
   <g id="cell29">
  <circle cx="449.259" cy="519.208" r="8.41271" stroke-width="0.5" stroke="black" fill="green"/>
  <circle cx="449.259" cy="519.208" r="5.05167" stroke-width="0.5" stroke="black" fill="green"/>
   </g>
   <g id="cell30">
  <circle cx="481.58" cy="540.282" r="8.41271" stroke-width="0.5" stroke="black" fill="green"/>
  <circle cx="481.58" cy="540.282" r="5.05167" stroke-width="0.5" stroke="black" fill="green"/>
   </g>
   <g id="cell31">
  <circle cx="412.756" cy="541.192" r="8.41271" stroke-width="0.5" stroke="black" fill="green"/>
  <circle cx="412.756" cy="541.192" r="5.05167" stroke-width="0.5" stroke="black" fill="green"/>
   </g>
   <g id="cell32">
  <circle cx="425.371" cy="474.828" r="8.41271" stroke-width="0.5" stroke="black" fill="green"/>
  <circle cx="425.371" cy="474.828" r="5.05167" stroke-width="0.5" stroke="black" fill="green"/>
   </g>
   <g id="cell33">
  <circle cx="493.912" cy="423.716" r="8.41271" stroke-width="0.5" stroke="black" fill="green"/>
  <circle cx="493.912" cy="423.716" r="5.05167" stroke-width="0.5" stroke="black" fill="green"/>
   </g>
   <g id="cell34">
  <circle cx="397.092" cy="450.834" r="8.41271" stroke-width="0.5" stroke="black" fill="green"/>
  <circle cx="397.092" cy="450.834" r="5.05167" stroke-width="0.5" stroke="black" fill="green"/>
   </g>
   <g id="cell35">
  <circle cx="554.753" cy="542.68" r="6.92764" stroke-width="0.5" stroke="black" fill="green"/>
  <circle cx="554.753" cy="542.68" r="4.1918" stroke-width="0.5" stroke="black" fill="green"/>
   </g>
   <g id="cell36">
  <circle cx="391.389" cy="582.784" r="8.41271" stroke-width="0.5" stroke="black" fill="green"/>
  <circle cx="391.389" cy="582.784" r="5.05167" stroke-width="0.5" stroke="black" fill="green"/>
   </g>
   <g id="cell37">
  <circle cx="634.871" cy="460.618" r="8.41271" stroke-width="0.5" stroke="black" fill="green"/>
  <circle cx="634.871" cy="460.618" r="5.05167" stroke-width="0.5" stroke="black" fill="green"/>
   </g>
   <g id="cell38">
  <circle cx="536.148" cy="601.883" r="8.41271" stroke-width="0.5" stroke="black" fill="green"/>
  <circle cx="536.148" cy="601.883" r="5.05167" stroke-width="0.5" stroke="black" fill="green"/>
   </g>
   <g id="cell39">
  <circle cx="613.458" cy="490.595" r="8.41271" stroke-width="0.5" stroke="black" fill="green"/>
  <circle cx="613.458" cy="490.595" r="5.05167" stroke-width="0.5" stroke="black" fill="green"/>
   </g>
   <g id="cell40">
  <circle cx="485.348" cy="571.779" r="8.41271" stroke-width="0.5" stroke="black" fill="green"/>
  <circle cx="485.348" cy="571.779" r="5.05167" stroke-width="0.5" stroke="black" fill="green"/>
   </g>
   <g id="cell41">
  <circle cx="365.019" cy="479.94" r="8.41271" stroke-width="0.5" stroke="black" fill="green"/>
  <circle cx="365.019" cy="479.94" r="5.05167" stroke-width="0.5" stroke="black" fill="green"/>
   </g>
   <g id="cell42">
  <circle cx="438.842" cy="494.268" r="8.41271" stroke-width="0.5" stroke="black" fill="green"/>
  <circle cx="438.842" cy="494.268" r="5.05167" stroke-width="0.5" stroke="black" fill="green"/>
   </g>
   <g id="cell43">
  <circle cx="558.423" cy="445.713" r="8.41271" stroke-width="0.5" stroke="black" fill="green"/>
  <circle cx="558.423" cy="445.713" r="5.05167" stroke-width="0.5" stroke="black" fill="green"/>
   </g>
   <g id="cell44">
  <circle cx="475.857" cy="624.021" r="8.41271" stroke-width="0.5" stroke="black" fill="green"/>
  <circle cx="475.857" cy="624.021" r="5.05167" stroke-width="0.5" stroke="black" fill="green"/>
   </g>
   <g id="cell45">
  <circle cx="414.953" cy="557.067" r="8.41271" stroke-width="0.5" stroke="black" fill="green"/>
  <circle cx="414.953" cy="557.067" r="5.05167" stroke-width="0.5" stroke="black" fill="green"/>
   </g>
   <g id="cell46">
  <circle cx="522.763" cy="610.72" r="8.41271" stroke-width="0.5" stroke="black" fill="green"/>
  <circle cx="522.763" cy="610.72" r="5.05167" stroke-width="0.5" stroke="black" fill="green"/>
   </g>
   <g id="cell47">
  <circle cx="507.068" cy="507.989" r="6.71158" stroke-width="0.5" stroke="black" fill="green"/>
  <circle cx="507.068" cy="507.989" r="4.03435" stroke-width="0.5" stroke="black" fill="green"/>
   </g>
   <g id="cell48">
  <circle cx="564.512" cy="602.791" r="8.41271" stroke-width="0.5" stroke="black" fill="green"/>
  <circle cx="564.512" cy="602.791" r="5.05167" stroke-width="0.5" stroke="black" fill="green"/>
   </g>
   <g id="cell49">
  <circle cx="429.826" cy="397.641" r="8.41271" stroke-width="0.5" stroke="black" fill="green"/>
  <circle cx="429.826" cy="397.641" r="5.05167" stroke-width="0.5" stroke="black" fill="green"/>
   </g>
   <g id="cell50">
  <circle cx="519.282" cy="515.353" r="8.41271" stroke-width="0.5" stroke="black" fill="cyan"/>
  <circle cx="519.282" cy="515.353" r="5.05167" stroke-width="0.5" stroke="black" fill="cyan"/>
   </g>
   <g id="cell51">
  <circle cx="398.906" cy="597.566" r="8.41271" stroke-width="0.5" stroke="black" fill="cyan"/>
  <circle cx="398.906" cy="597.566" r="5.05167" stroke-width="0.5" stroke="black" fill="cyan"/>
   </g>
   <g id="cell52">
  <circle cx="522.068" cy="428.875" r="8.41271" stroke-width="0.5" stroke="black" fill="cyan"/>
  <circle cx="522.068" cy="428.875" r="5.05167" stroke-width="0.5" stroke="black" fill="cyan"/>
   </g>
   <g id="cell53">
  <circle cx="571.258" cy="436.026" r="8.41271" stroke-width="0.5" stroke="black" fill="cyan"/>
  <circle cx="571.258" cy="436.026" r="5.05167" stroke-width="0.5" stroke="black" fill="cyan"/>
   </g>
   <g id="cell54">
  <circle cx="477.955" cy="424.21" r="8.41271" stroke-width="0.5" stroke="black" fill="cyan"/>
  <circle cx="477.955" cy="424.21" r="5.05167" stroke-width="0.5" stroke="black" fill="cyan"/>
   </g>
   <g id="cell55">
  <circle cx="527.035" cy="470.178" r="8.41271" stroke-width="0.5" stroke="black" fill="cyan"/>
  <circle cx="527.035" cy="470.178" r="5.05167" stroke-width="0.5" stroke="black" fill="cyan"/>
   </g>
   <g id="cell56">
  <circle cx="617.769" cy="522.288" r="8.41271" stroke-width="0.5" stroke="black" fill="cyan"/>
  <circle cx="617.769" cy="522.288" r="5.05167" stroke-width="0.5" stroke="black" fill="cyan"/>
   </g>
   <g id="cell57">
  <circle cx="416.924" cy="617.466" r="8.41271" stroke-width="0.5" stroke="black" fill="cyan"/>
  <circle cx="416.924" cy="617.466" r="5.05167" stroke-width="0.5" stroke="black" fill="cyan"/>
   </g>
   <g id="cell58">
  <circle cx="552.158" cy="480.172" r="8.41271" stroke-width="0.5" stroke="black" fill="cyan"/>
  <circle cx="552.158" cy="480.172" r="5.05167" stroke-width="0.5" stroke="black" fill="cyan"/>
   </g>
   <g id="cell59">
  <circle cx="385.46" cy="439.799" r="8.41271" stroke-width="0.5" stroke="black" fill="cyan"/>
  <circle cx="385.46" cy="439.799" r="5.05167" stroke-width="0.5" stroke="black" fill="cyan"/>
   </g>
   <g id="cell60">
  <circle cx="593.198" cy="473.628" r="8.41271" stroke-width="0.5" stroke="black" fill="cyan"/>
  <circle cx="593.198" cy="473.628" r="5.05167" stroke-width="0.5" stroke="black" fill="cyan"/>
   </g>
   <g id="cell61">
  <circle cx="553.006" cy="613.946" r="8.41271" stroke-width="0.5" stroke="black" fill="cyan"/>
  <circle cx="553.006" cy="613.946" r="5.05167" stroke-width="0.5" stroke="black" fill="cyan"/>
   </g>
   <g id="cell62">
  <circle cx="525.444" cy="444.683" r="8.41271" stroke-width="0.5" stroke="black" fill="cyan"/>
  <circle cx="525.444" cy="444.683" r="5.05167" stroke-width="0.5" stroke="black" fill="cyan"/>
   </g>
   <g id="cell63">
  <circle cx="578.261" cy="546.194" r="8.41271" stroke-width="0.5" stroke="black" fill="cyan"/>
  <circle cx="578.261" cy="546.194" r="5.05167" stroke-width="0.5" stroke="black" fill="cyan"/>
   </g>
   <g id="cell64">
  <circle cx="509.962" cy="636.825" r="8.41271" stroke-width="0.5" stroke="black" fill="cyan"/>
  <circle cx="509.962" cy="636.825" r="5.05167" stroke-width="0.5" stroke="black" fill="cyan"/>
   </g>
   <g id="cell65">
  <circle cx="542.609" cy="467.493" r="8.41271" stroke-width="0.5" stroke="black" fill="cyan"/>
  <circle cx="542.609" cy="467.493" r="5.05167" stroke-width="0.5" stroke="black" fill="cyan"/>
   </g>
   <g id="cell66">
  <circle cx="535.362" cy="532.033" r="8.41271" stroke-width="0.5" stroke="black" fill="cyan"/>
  <circle cx="535.362" cy="532.033" r="5.05167" stroke-width="0.5" stroke="black" fill="cyan"/>
   </g>
   <g id="cell67">
  <circle cx="357.714" cy="495.878" r="6.80881" stroke-width="0.5" stroke="black" fill="cyan"/>
  <circle cx="357.714" cy="495.878" r="4.10709" stroke-width="0.5" stroke="black" fill="cyan"/>
   </g>
   <g id="cell68">
  <circle cx="564.155" cy="553.757" r="8.41271" stroke-width="0.5" stroke="black" fill="cyan"/>
  <circle cx="564.155" cy="553.757" r="5.05167" stroke-width="0.5" stroke="black" fill="cyan"/>
   </g>
   <g id="cell69">
  <circle cx="437.64" cy="464.521" r="8.41271" stroke-width="0.5" stroke="black" fill="cyan"/>
  <circle cx="437.64" cy="464.521" r="5.05167" stroke-width="0.5" stroke="black" fill="cyan"/>
   </g>
   <g id="cell70">
  <circle cx="577.153" cy="474.879" r="8.41271" stroke-width="0.5" stroke="black" fill="cyan"/>
  <circle cx="577.153" cy="474.879" r="5.05167" stroke-width="0.5" stroke="black" fill="cyan"/>
   </g>
   <g id="cell71">
  <circle cx="377.712" cy="520.989" r="8.41271" stroke-width="0.5" stroke="black" fill="cyan"/>
  <circle cx="377.712" cy="520.989" r="5.05167" stroke-width="0.5" stroke="black" fill="cyan"/>
   </g>
   <g id="cell72">
  <circle cx="533.706" cy="517.548" r="7.02257" stroke-width="0.5" stroke="black" fill="cyan"/>
  <circle cx="533.706" cy="517.548" r="4.25644" stroke-width="0.5" stroke="black" fill="cyan"/>
   </g>
   <g id="cell73">
  <circle cx="360.355" cy="545.935" r="8.41271" stroke-width="0.5" stroke="black" fill="cyan"/>
  <circle cx="360.355" cy="545.935" r="5.05167" stroke-width="0.5" stroke="black" fill="cyan"/>
   </g>
   <g id="cell74">
  <circle cx="542.238" cy="446.488" r="8.41271" stroke-width="0.5" stroke="black" fill="cyan"/>
  <circle cx="542.238" cy="446.488" r="5.05167" stroke-width="0.5" stroke="black" fill="cyan"/>
   </g>
   <g id="cell75">
  <circle cx="535.647" cy="504.33" r="7.02257" stroke-width="0.5" stroke="black" fill="cyan"/>
  <circle cx="535.647" cy="504.33" r="4.25644" stroke-width="0.5" stroke="black" fill="cyan"/>
   </g>
   <g id="cell76">
  <circle cx="541.864" cy="545.039" r="6.92764" stroke-width="0.5" stroke="black" fill="green"/>
  <circle cx="541.864" cy="545.039" r="4.1918" stroke-width="0.5" stroke="black" fill="green"/>
   </g>
   <g id="cell77">
  <circle cx="547.093" cy="493.438" r="6.86652" stroke-width="0.5" stroke="black" fill="magenta"/>
  <circle cx="547.093" cy="493.438" r="4.14883" stroke-width="0.5" stroke="black" fill="magenta"/>
   </g>
   <g id="cell78">
  <circle cx="347.796" cy="487.599" r="6.80881" stroke-width="0.5" stroke="black" fill="cyan"/>
  <circle cx="347.796" cy="487.599" r="4.10709" stroke-width="0.5" stroke="black" fill="cyan"/>
   </g>
   <g id="cell79">
  <circle cx="494.688" cy="505.24" r="6.71158" stroke-width="0.5" stroke="black" fill="green"/>
  <circle cx="494.688" cy="505.24" r="4.03435" stroke-width="0.5" stroke="black" fill="green"/>
   </g>
   <g id="cell80">
  <circle cx="470.841" cy="487.659" r="6.71158" stroke-width="0.5" stroke="black" fill="magenta"/>
  <circle cx="470.841" cy="487.659" r="4.03435" stroke-width="0.5" stroke="black" fill="magenta"/>
   </g>
  </g>
 </g>
  <rect x="775" y="1035" width="200" height="10" stroke-width="2" stroke="rgb(255,255,255)" fill="rgb(0,0,0)"/>
  <text x="781.25" y="1028.75"
   font-family="Arial" font-size="25" fill="black" >
   200 &#956;m
  </text>
  <text x="25" y="1045"
   font-family="Arial" font-size="18.75" fill="black" >
   0 days, 0 hours, 0 minutes, and 1.5675 seconds
  </text>
  <rect x="0" y="70" width="1000" height="1000" stroke-width="2" stroke="rgb(0,0,0)" fill="none"/>
</svg>
