<?xml version="1.0" encoding="UTF-8" standalone="no"?>
<!-- Created with PhysiCell (http://PhysiCell.MathCancer.org/) -->
<svg 
 xmlns:dc="http://purl.org/dc/elements/1.1/" 
 xmlns:cc="http://creativecommons.org/ns#" 
 xmlns:rdf="http://www.w3.org/1999/02/22-rdf-syntax-ns#" 
 xmlns:svg="http://www.w3.org/2000/svg" 
 xmlns="http://www.w3.org/2000/svg" 
 version="1.1" 
 width="1000" 
 height="1070" 
 id="svg2">
  <rect x="0" y="0" width="1000" height="1070" stroke-width="2" stroke="white" fill="white"/>
  <text x="12.5" y="30"
   font-family="Arial" font-size="25" fill="black" >
   Current time: 0 days, 13 hours, and 27.00 minutes, z = 0.00 &#956;m
  </text>
  <text x="12.5" y="57.5"
   font-family="Arial" font-size="23.75" fill="black" >
   116 agents
  </text>
 <g id="tissue" 
    transform="translate(0,1070) scale(1,-1)">
  <g id="ECM">
  </g>
  <g id="cells">
   <g id="cell0">
  <circle cx="515.896" cy="534.191" r="8.24438" stroke-width="0.5" stroke="black" fill="magenta"/>
  <circle cx="515.896" cy="534.191" r="4.97746" stroke-width="0.5" stroke="black" fill="magenta"/>
   </g>
   <g id="cell1">
  <circle cx="602.492" cy="526.171" r="8.41271" stroke-width="0.5" stroke="black" fill="magenta"/>
  <circle cx="602.492" cy="526.171" r="5.05167" stroke-width="0.5" stroke="black" fill="magenta"/>
   </g>
   <g id="cell2">
  <circle cx="514.264" cy="599.803" r="8.41271" stroke-width="0.5" stroke="black" fill="magenta"/>
  <circle cx="514.264" cy="599.803" r="5.05167" stroke-width="0.5" stroke="black" fill="magenta"/>
   </g>
   <g id="cell3">
  <circle cx="523.931" cy="546.695" r="8.13399" stroke-width="0.5" stroke="black" fill="magenta"/>
  <circle cx="523.931" cy="546.695" r="4.92654" stroke-width="0.5" stroke="black" fill="magenta"/>
   </g>
   <g id="cell4">
  <circle cx="490.464" cy="437.439" r="8.34511" stroke-width="0.5" stroke="black" fill="magenta"/>
  <circle cx="490.464" cy="437.439" r="5.02502" stroke-width="0.5" stroke="black" fill="magenta"/>
   </g>
   <g id="cell5">
  <circle cx="465.032" cy="493.3" r="8.41271" stroke-width="0.5" stroke="black" fill="magenta"/>
  <circle cx="465.032" cy="493.3" r="5.05167" stroke-width="0.5" stroke="black" fill="magenta"/>
   </g>
   <g id="cell6">
  <circle cx="595.637" cy="512.669" r="8.41271" stroke-width="0.5" stroke="black" fill="magenta"/>
  <circle cx="595.637" cy="512.669" r="5.05167" stroke-width="0.5" stroke="black" fill="magenta"/>
   </g>
   <g id="cell7">
  <circle cx="504.753" cy="456.078" r="7.08639" stroke-width="0.5" stroke="black" fill="magenta"/>
  <circle cx="504.753" cy="456.078" r="4.29876" stroke-width="0.5" stroke="black" fill="magenta"/>
   </g>
   <g id="cell8">
  <circle cx="376.407" cy="543.033" r="8.41271" stroke-width="0.5" stroke="black" fill="magenta"/>
  <circle cx="376.407" cy="543.033" r="5.05167" stroke-width="0.5" stroke="black" fill="magenta"/>
   </g>
   <g id="cell9">
  <circle cx="460.472" cy="599.786" r="8.41271" stroke-width="0.5" stroke="black" fill="magenta"/>
  <circle cx="460.472" cy="599.786" r="5.05167" stroke-width="0.5" stroke="black" fill="magenta"/>
   </g>
   <g id="cell10">
  <circle cx="583.447" cy="392.105" r="8.41271" stroke-width="0.5" stroke="black" fill="magenta"/>
  <circle cx="583.447" cy="392.105" r="5.05167" stroke-width="0.5" stroke="black" fill="magenta"/>
   </g>
   <g id="cell11">
  <circle cx="590.665" cy="590.146" r="8.41271" stroke-width="0.5" stroke="black" fill="magenta"/>
  <circle cx="590.665" cy="590.146" r="5.05167" stroke-width="0.5" stroke="black" fill="magenta"/>
   </g>
   <g id="cell12">
  <circle cx="507.027" cy="586.496" r="8.41271" stroke-width="0.5" stroke="black" fill="magenta"/>
  <circle cx="507.027" cy="586.496" r="5.05167" stroke-width="0.5" stroke="black" fill="magenta"/>
   </g>
   <g id="cell13">
  <circle cx="386.194" cy="568.228" r="8.41271" stroke-width="0.5" stroke="black" fill="magenta"/>
  <circle cx="386.194" cy="568.228" r="5.05167" stroke-width="0.5" stroke="black" fill="magenta"/>
   </g>
   <g id="cell14">
  <circle cx="529.731" cy="399.226" r="8.41271" stroke-width="0.5" stroke="black" fill="magenta"/>
  <circle cx="529.731" cy="399.226" r="5.05167" stroke-width="0.5" stroke="black" fill="magenta"/>
   </g>
   <g id="cell15">
  <circle cx="379.65" cy="475.1" r="8.41271" stroke-width="0.5" stroke="black" fill="magenta"/>
  <circle cx="379.65" cy="475.1" r="5.05167" stroke-width="0.5" stroke="black" fill="magenta"/>
   </g>
   <g id="cell16">
  <circle cx="428.961" cy="413.204" r="8.41271" stroke-width="0.5" stroke="black" fill="magenta"/>
  <circle cx="428.961" cy="413.204" r="5.05167" stroke-width="0.5" stroke="black" fill="magenta"/>
   </g>
   <g id="cell17">
  <circle cx="570.178" cy="490.816" r="8.41271" stroke-width="0.5" stroke="black" fill="magenta"/>
  <circle cx="570.178" cy="490.816" r="5.05167" stroke-width="0.5" stroke="black" fill="magenta"/>
   </g>
   <g id="cell18">
  <circle cx="518.076" cy="389.502" r="8.41271" stroke-width="0.5" stroke="black" fill="magenta"/>
  <circle cx="518.076" cy="389.502" r="5.05167" stroke-width="0.5" stroke="black" fill="magenta"/>
   </g>
   <g id="cell19">
  <circle cx="458.809" cy="540.357" r="7.01189" stroke-width="0.5" stroke="black" fill="magenta"/>
  <circle cx="458.809" cy="540.357" r="4.27679" stroke-width="0.5" stroke="black" fill="magenta"/>
   </g>
   <g id="cell20">
  <circle cx="531.52" cy="414.283" r="8.41271" stroke-width="0.5" stroke="black" fill="magenta"/>
  <circle cx="531.52" cy="414.283" r="5.05167" stroke-width="0.5" stroke="black" fill="magenta"/>
   </g>
   <g id="cell21">
  <circle cx="464.368" cy="634.574" r="8.41271" stroke-width="0.5" stroke="black" fill="magenta"/>
  <circle cx="464.368" cy="634.574" r="5.05167" stroke-width="0.5" stroke="black" fill="magenta"/>
   </g>
   <g id="cell22">
  <circle cx="555.669" cy="495.716" r="8.41271" stroke-width="0.5" stroke="black" fill="magenta"/>
  <circle cx="555.669" cy="495.716" r="5.05167" stroke-width="0.5" stroke="black" fill="magenta"/>
   </g>
   <g id="cell23">
  <circle cx="543.962" cy="485.772" r="8.41271" stroke-width="0.5" stroke="black" fill="magenta"/>
  <circle cx="543.962" cy="485.772" r="5.05167" stroke-width="0.5" stroke="black" fill="magenta"/>
   </g>
   <g id="cell24">
  <circle cx="559.201" cy="380.101" r="8.41271" stroke-width="0.5" stroke="black" fill="magenta"/>
  <circle cx="559.201" cy="380.101" r="5.05167" stroke-width="0.5" stroke="black" fill="magenta"/>
   </g>
   <g id="cell25">
  <circle cx="645.67" cy="545.255" r="8.30918" stroke-width="0.5" stroke="black" fill="green"/>
  <circle cx="645.67" cy="545.255" r="5.00867" stroke-width="0.5" stroke="black" fill="green"/>
   </g>
   <g id="cell26">
  <circle cx="554.117" cy="398.553" r="7.0545" stroke-width="0.5" stroke="black" fill="green"/>
  <circle cx="554.117" cy="398.553" r="4.27772" stroke-width="0.5" stroke="black" fill="green"/>
   </g>
   <g id="cell27">
  <circle cx="463.541" cy="389.622" r="8.34884" stroke-width="0.5" stroke="black" fill="green"/>
  <circle cx="463.541" cy="389.622" r="5.02667" stroke-width="0.5" stroke="black" fill="green"/>
   </g>
   <g id="cell28">
  <circle cx="433.254" cy="530.71" r="8.41271" stroke-width="0.5" stroke="black" fill="green"/>
  <circle cx="433.254" cy="530.71" r="5.05167" stroke-width="0.5" stroke="black" fill="green"/>
   </g>
   <g id="cell29">
  <circle cx="450.458" cy="515.999" r="8.41271" stroke-width="0.5" stroke="black" fill="green"/>
  <circle cx="450.458" cy="515.999" r="5.05167" stroke-width="0.5" stroke="black" fill="green"/>
   </g>
   <g id="cell30">
  <circle cx="481.031" cy="534.568" r="8.15353" stroke-width="0.5" stroke="black" fill="green"/>
  <circle cx="481.031" cy="534.568" r="4.93122" stroke-width="0.5" stroke="black" fill="green"/>
   </g>
   <g id="cell31">
  <circle cx="412.785" cy="541.399" r="8.41271" stroke-width="0.5" stroke="black" fill="green"/>
  <circle cx="412.785" cy="541.399" r="5.05167" stroke-width="0.5" stroke="black" fill="green"/>
   </g>
   <g id="cell32">
  <circle cx="421.457" cy="481.531" r="8.05651" stroke-width="0.5" stroke="black" fill="green"/>
  <circle cx="421.457" cy="481.531" r="4.87966" stroke-width="0.5" stroke="black" fill="green"/>
   </g>
   <g id="cell33">
  <circle cx="498.226" cy="424.029" r="8.41271" stroke-width="0.5" stroke="black" fill="green"/>
  <circle cx="498.226" cy="424.029" r="5.05167" stroke-width="0.5" stroke="black" fill="green"/>
   </g>
   <g id="cell34">
  <circle cx="397.088" cy="450.831" r="8.41271" stroke-width="0.5" stroke="black" fill="green"/>
  <circle cx="397.088" cy="450.831" r="5.05167" stroke-width="0.5" stroke="black" fill="green"/>
   </g>
   <g id="cell35">
  <circle cx="552.626" cy="540.854" r="8.41271" stroke-width="0.5" stroke="black" fill="green"/>
  <circle cx="552.626" cy="540.854" r="5.05167" stroke-width="0.5" stroke="black" fill="green"/>
   </g>
   <g id="cell36">
  <circle cx="391.486" cy="582.903" r="8.41271" stroke-width="0.5" stroke="black" fill="green"/>
  <circle cx="391.486" cy="582.903" r="5.05167" stroke-width="0.5" stroke="black" fill="green"/>
   </g>
   <g id="cell37">
  <circle cx="639.797" cy="457.315" r="8.33911" stroke-width="0.5" stroke="black" fill="green"/>
  <circle cx="639.797" cy="457.315" r="5.02235" stroke-width="0.5" stroke="black" fill="green"/>
   </g>
   <g id="cell38">
  <circle cx="529.529" cy="597.24" r="8.32543" stroke-width="0.5" stroke="black" fill="green"/>
  <circle cx="529.529" cy="597.24" r="5.01617" stroke-width="0.5" stroke="black" fill="green"/>
   </g>
   <g id="cell39">
  <circle cx="613.458" cy="490.595" r="8.41271" stroke-width="0.5" stroke="black" fill="green"/>
  <circle cx="613.458" cy="490.595" r="5.05167" stroke-width="0.5" stroke="black" fill="green"/>
   </g>
   <g id="cell40">
  <circle cx="485.348" cy="571.779" r="8.41271" stroke-width="0.5" stroke="black" fill="green"/>
  <circle cx="485.348" cy="571.779" r="5.05167" stroke-width="0.5" stroke="black" fill="green"/>
   </g>
   <g id="cell41">
  <circle cx="364.925" cy="480.252" r="8.41271" stroke-width="0.5" stroke="black" fill="green"/>
  <circle cx="364.925" cy="480.252" r="5.05167" stroke-width="0.5" stroke="black" fill="green"/>
   </g>
   <g id="cell42">
  <circle cx="438.842" cy="494.268" r="8.41271" stroke-width="0.5" stroke="black" fill="green"/>
  <circle cx="438.842" cy="494.268" r="5.05167" stroke-width="0.5" stroke="black" fill="green"/>
   </g>
   <g id="cell43">
  <circle cx="562.636" cy="441.148" r="8.41271" stroke-width="0.5" stroke="black" fill="green"/>
  <circle cx="562.636" cy="441.148" r="5.05167" stroke-width="0.5" stroke="black" fill="green"/>
   </g>
   <g id="cell44">
  <circle cx="475.857" cy="624.021" r="8.41271" stroke-width="0.5" stroke="black" fill="green"/>
  <circle cx="475.857" cy="624.021" r="5.05167" stroke-width="0.5" stroke="black" fill="green"/>
   </g>
   <g id="cell45">
  <circle cx="414.925" cy="556.86" r="6.44044" stroke-width="0.5" stroke="black" fill="green"/>
  <circle cx="414.925" cy="556.86" r="3.99684" stroke-width="0.5" stroke="black" fill="black"/>
   </g>
   <g id="cell46">
  <circle cx="523.926" cy="611.349" r="7.79564" stroke-width="0.5" stroke="black" fill="green"/>
  <circle cx="523.926" cy="611.349" r="4.73359" stroke-width="0.5" stroke="black" fill="green"/>
   </g>
   <g id="cell47">
  <circle cx="503.876" cy="502.711" r="8.03527" stroke-width="0.5" stroke="black" fill="green"/>
  <circle cx="503.876" cy="502.711" r="4.86813" stroke-width="0.5" stroke="black" fill="green"/>
   </g>
   <g id="cell48">
  <circle cx="569.696" cy="602.886" r="6.89042" stroke-width="0.5" stroke="black" fill="green"/>
  <circle cx="569.696" cy="602.886" r="4.22719" stroke-width="0.5" stroke="black" fill="green"/>
   </g>
   <g id="cell49">
  <circle cx="429.914" cy="397.628" r="8.41271" stroke-width="0.5" stroke="black" fill="green"/>
  <circle cx="429.914" cy="397.628" r="5.05167" stroke-width="0.5" stroke="black" fill="green"/>
   </g>
   <g id="cell50">
  <circle cx="514.211" cy="515.936" r="6.61236" stroke-width="0.5" stroke="black" fill="cyan"/>
  <circle cx="514.211" cy="515.936" r="3.99778" stroke-width="0.5" stroke="black" fill="cyan"/>
   </g>
   <g id="cell51">
  <circle cx="398.721" cy="597.201" r="8.41271" stroke-width="0.5" stroke="black" fill="cyan"/>
  <circle cx="398.721" cy="597.201" r="5.05167" stroke-width="0.5" stroke="black" fill="cyan"/>
   </g>
   <g id="cell52">
  <circle cx="518.484" cy="422.759" r="8.41271" stroke-width="0.5" stroke="black" fill="cyan"/>
  <circle cx="518.484" cy="422.759" r="5.05167" stroke-width="0.5" stroke="black" fill="cyan"/>
   </g>
   <g id="cell53">
  <circle cx="573.104" cy="430.137" r="7.89373" stroke-width="0.5" stroke="black" fill="cyan"/>
  <circle cx="573.104" cy="430.137" r="4.78957" stroke-width="0.5" stroke="black" fill="cyan"/>
   </g>
   <g id="cell54">
  <circle cx="482.507" cy="424.365" r="8.10448" stroke-width="0.5" stroke="black" fill="cyan"/>
  <circle cx="482.507" cy="424.365" r="4.90539" stroke-width="0.5" stroke="black" fill="cyan"/>
   </g>
   <g id="cell55">
  <circle cx="524.429" cy="462.718" r="7.91782" stroke-width="0.5" stroke="black" fill="cyan"/>
  <circle cx="524.429" cy="462.718" r="4.80996" stroke-width="0.5" stroke="black" fill="cyan"/>
   </g>
   <g id="cell56">
  <circle cx="617.613" cy="522.333" r="8.41271" stroke-width="0.5" stroke="black" fill="cyan"/>
  <circle cx="617.613" cy="522.333" r="5.05167" stroke-width="0.5" stroke="black" fill="cyan"/>
   </g>
   <g id="cell105">
  <circle cx="509.465" cy="614.025" r="7.79564" stroke-width="0.5" stroke="black" fill="green"/>
  <circle cx="509.465" cy="614.025" r="4.73359" stroke-width="0.5" stroke="black" fill="green"/>
   </g>
   <g id="cell58">
  <circle cx="558.666" cy="480.54" r="8.41271" stroke-width="0.5" stroke="black" fill="cyan"/>
  <circle cx="558.666" cy="480.54" r="5.05167" stroke-width="0.5" stroke="black" fill="cyan"/>
   </g>
   <g id="cell59">
  <circle cx="385.463" cy="439.803" r="8.41271" stroke-width="0.5" stroke="black" fill="cyan"/>
  <circle cx="385.463" cy="439.803" r="5.05167" stroke-width="0.5" stroke="black" fill="cyan"/>
   </g>
   <g id="cell60">
  <circle cx="592.641" cy="473.711" r="8.41271" stroke-width="0.5" stroke="black" fill="cyan"/>
  <circle cx="592.641" cy="473.711" r="5.05167" stroke-width="0.5" stroke="black" fill="cyan"/>
   </g>
   <g id="cell61">
  <circle cx="552.391" cy="620.039" r="8.41271" stroke-width="0.5" stroke="black" fill="cyan"/>
  <circle cx="552.391" cy="620.039" r="5.05167" stroke-width="0.5" stroke="black" fill="cyan"/>
   </g>
   <g id="cell62">
  <circle cx="515.878" cy="447.408" r="8.35062" stroke-width="0.5" stroke="black" fill="cyan"/>
  <circle cx="515.878" cy="447.408" r="5.02745" stroke-width="0.5" stroke="black" fill="cyan"/>
   </g>
   <g id="cell63">
  <circle cx="573.263" cy="541.523" r="8.22925" stroke-width="0.5" stroke="black" fill="cyan"/>
  <circle cx="573.263" cy="541.523" r="4.96993" stroke-width="0.5" stroke="black" fill="cyan"/>
   </g>
   <g id="cell64">
  <circle cx="509.962" cy="636.825" r="8.41271" stroke-width="0.5" stroke="black" fill="cyan"/>
  <circle cx="509.962" cy="636.825" r="5.05167" stroke-width="0.5" stroke="black" fill="cyan"/>
   </g>
   <g id="cell65">
  <circle cx="546.804" cy="470.48" r="8.20689" stroke-width="0.5" stroke="black" fill="cyan"/>
  <circle cx="546.804" cy="470.48" r="4.95867" stroke-width="0.5" stroke="black" fill="cyan"/>
   </g>
   <g id="cell66">
  <circle cx="531.134" cy="533.595" r="8.08613" stroke-width="0.5" stroke="black" fill="cyan"/>
  <circle cx="531.134" cy="533.595" r="4.8956" stroke-width="0.5" stroke="black" fill="cyan"/>
   </g>
   <g id="cell67">
  <circle cx="354.711" cy="492.599" r="8.41271" stroke-width="0.5" stroke="black" fill="cyan"/>
  <circle cx="354.711" cy="492.599" r="5.05167" stroke-width="0.5" stroke="black" fill="cyan"/>
   </g>
   <g id="cell68">
  <circle cx="562.452" cy="553.153" r="8.41271" stroke-width="0.5" stroke="black" fill="cyan"/>
  <circle cx="562.452" cy="553.153" r="5.05167" stroke-width="0.5" stroke="black" fill="cyan"/>
   </g>
   <g id="cell69">
  <circle cx="442.014" cy="460.724" r="8.41271" stroke-width="0.5" stroke="black" fill="cyan"/>
  <circle cx="442.014" cy="460.724" r="5.05167" stroke-width="0.5" stroke="black" fill="cyan"/>
   </g>
   <g id="cell70">
  <circle cx="576.745" cy="476.527" r="8.41271" stroke-width="0.5" stroke="black" fill="cyan"/>
  <circle cx="576.745" cy="476.527" r="5.05167" stroke-width="0.5" stroke="black" fill="cyan"/>
   </g>
   <g id="cell71">
  <circle cx="379.904" cy="526.688" r="7.21189" stroke-width="0.5" stroke="black" fill="cyan"/>
  <circle cx="379.904" cy="526.688" r="4.37993" stroke-width="0.5" stroke="black" fill="cyan"/>
   </g>
   <g id="cell72">
  <circle cx="532.318" cy="511.929" r="8.11327" stroke-width="0.5" stroke="black" fill="cyan"/>
  <circle cx="532.318" cy="511.929" r="4.91006" stroke-width="0.5" stroke="black" fill="cyan"/>
   </g>
   <g id="cell73">
  <circle cx="364.235" cy="552.732" r="8.24914" stroke-width="0.5" stroke="black" fill="cyan"/>
  <circle cx="364.235" cy="552.732" r="4.97981" stroke-width="0.5" stroke="black" fill="cyan"/>
   </g>
   <g id="cell74">
  <circle cx="548.82" cy="442.57" r="7.0545" stroke-width="0.5" stroke="black" fill="cyan"/>
  <circle cx="548.82" cy="442.57" r="4.27772" stroke-width="0.5" stroke="black" fill="cyan"/>
   </g>
   <g id="cell75">
  <circle cx="527.382" cy="436.335" r="8.35062" stroke-width="0.5" stroke="black" fill="cyan"/>
  <circle cx="527.382" cy="436.335" r="5.02745" stroke-width="0.5" stroke="black" fill="cyan"/>
   </g>
   <g id="cell76">
  <circle cx="441.464" cy="382.71" r="7.37229" stroke-width="0.5" stroke="black" fill="green"/>
  <circle cx="441.464" cy="382.71" r="4.51273" stroke-width="0.5" stroke="black" fill="green"/>
   </g>
   <g id="cell77">
  <circle cx="476.154" cy="437.456" r="7.63943" stroke-width="0.5" stroke="black" fill="magenta"/>
  <circle cx="476.154" cy="437.456" r="4.64978" stroke-width="0.5" stroke="black" fill="magenta"/>
   </g>
   <g id="cell78">
  <circle cx="624.535" cy="461.021" r="8.16838" stroke-width="0.5" stroke="black" fill="green"/>
  <circle cx="624.535" cy="461.021" r="4.94325" stroke-width="0.5" stroke="black" fill="green"/>
   </g>
   <g id="cell79">
  <circle cx="517.788" cy="479.534" r="8.33026" stroke-width="0.5" stroke="black" fill="cyan"/>
  <circle cx="517.788" cy="479.534" r="5.01837" stroke-width="0.5" stroke="black" fill="cyan"/>
   </g>
   <g id="cell80">
  <circle cx="539.153" cy="611.02" r="8.27855" stroke-width="0.5" stroke="black" fill="green"/>
  <circle cx="539.153" cy="611.02" r="4.99696" stroke-width="0.5" stroke="black" fill="green"/>
   </g>
   <g id="cell81">
  <circle cx="545.062" cy="596.394" r="8.27855" stroke-width="0.5" stroke="black" fill="green"/>
  <circle cx="545.062" cy="596.394" r="4.99696" stroke-width="0.5" stroke="black" fill="green"/>
   </g>
   <g id="cell82">
  <circle cx="532.89" cy="558.691" r="8.30918" stroke-width="0.5" stroke="black" fill="magenta"/>
  <circle cx="532.89" cy="558.691" r="5.00867" stroke-width="0.5" stroke="black" fill="magenta"/>
   </g>
   <g id="cell83">
  <circle cx="634.543" cy="556.496" r="8.30918" stroke-width="0.5" stroke="black" fill="green"/>
  <circle cx="634.543" cy="556.496" r="5.00867" stroke-width="0.5" stroke="black" fill="green"/>
   </g>
   <g id="cell84">
  <circle cx="519.319" cy="503.185" r="8.25826" stroke-width="0.5" stroke="black" fill="cyan"/>
  <circle cx="519.319" cy="503.185" r="4.98429" stroke-width="0.5" stroke="black" fill="cyan"/>
   </g>
   <g id="cell85">
  <circle cx="352.948" cy="542.281" r="7.93504" stroke-width="0.5" stroke="black" fill="cyan"/>
  <circle cx="352.948" cy="542.281" r="4.82267" stroke-width="0.5" stroke="black" fill="cyan"/>
   </g>
   <g id="cell86">
  <circle cx="504.216" cy="524.935" r="8.24438" stroke-width="0.5" stroke="black" fill="magenta"/>
  <circle cx="504.216" cy="524.935" r="4.97746" stroke-width="0.5" stroke="black" fill="magenta"/>
   </g>
   <g id="cell87">
  <circle cx="577.21" cy="556.199" r="7.72519" stroke-width="0.5" stroke="black" fill="cyan"/>
  <circle cx="577.21" cy="556.199" r="4.70615" stroke-width="0.5" stroke="black" fill="cyan"/>
   </g>
   <g id="cell88">
  <circle cx="448.622" cy="531.286" r="8.21273" stroke-width="0.5" stroke="black" fill="magenta"/>
  <circle cx="448.622" cy="531.286" r="4.96162" stroke-width="0.5" stroke="black" fill="magenta"/>
   </g>
   <g id="cell89">
  <circle cx="553.618" cy="456.363" r="8.20689" stroke-width="0.5" stroke="black" fill="cyan"/>
  <circle cx="553.618" cy="456.363" r="4.95867" stroke-width="0.5" stroke="black" fill="cyan"/>
   </g>
   <g id="cell90">
  <circle cx="630.967" cy="475.161" r="8.16838" stroke-width="0.5" stroke="black" fill="green"/>
  <circle cx="630.967" cy="475.161" r="4.94325" stroke-width="0.5" stroke="black" fill="green"/>
   </g>
   <g id="cell91">
  <circle cx="547.653" cy="555.92" r="7.99956" stroke-width="0.5" stroke="black" fill="magenta"/>
  <circle cx="547.653" cy="555.92" r="4.86139" stroke-width="0.5" stroke="black" fill="magenta"/>
   </g>
   <g id="cell92">
  <circle cx="482.515" cy="550.003" r="8.15353" stroke-width="0.5" stroke="black" fill="green"/>
  <circle cx="482.515" cy="550.003" r="4.93122" stroke-width="0.5" stroke="black" fill="green"/>
   </g>
   <g id="cell93">
  <circle cx="538.445" cy="545.5" r="7.99956" stroke-width="0.5" stroke="black" fill="magenta"/>
  <circle cx="538.445" cy="545.5" r="4.86139" stroke-width="0.5" stroke="black" fill="magenta"/>
   </g>
   <g id="cell94">
  <circle cx="533.12" cy="496.538" r="8.11327" stroke-width="0.5" stroke="black" fill="cyan"/>
  <circle cx="533.12" cy="496.538" r="4.91006" stroke-width="0.5" stroke="black" fill="cyan"/>
   </g>
   <g id="cell95">
  <circle cx="467.115" cy="426.033" r="8.10448" stroke-width="0.5" stroke="black" fill="cyan"/>
  <circle cx="467.115" cy="426.033" r="4.90539" stroke-width="0.5" stroke="black" fill="cyan"/>
   </g>
   <g id="cell96">
  <circle cx="542.622" cy="523.391" r="8.08613" stroke-width="0.5" stroke="black" fill="cyan"/>
  <circle cx="542.622" cy="523.391" r="4.8956" stroke-width="0.5" stroke="black" fill="cyan"/>
   </g>
   <g id="cell97">
  <circle cx="421.899" cy="466.486" r="7.76844" stroke-width="0.5" stroke="black" fill="green"/>
  <circle cx="421.899" cy="466.486" r="4.73429" stroke-width="0.5" stroke="black" fill="green"/>
   </g>
   <g id="cell98">
  <circle cx="493.737" cy="514.091" r="8.03527" stroke-width="0.5" stroke="black" fill="green"/>
  <circle cx="493.737" cy="514.091" r="4.86813" stroke-width="0.5" stroke="black" fill="green"/>
   </g>
   <g id="cell99">
  <circle cx="358.142" cy="528.14" r="7.93504" stroke-width="0.5" stroke="black" fill="cyan"/>
  <circle cx="358.142" cy="528.14" r="4.82267" stroke-width="0.5" stroke="black" fill="cyan"/>
   </g>
   <g id="cell100">
  <circle cx="449.049" cy="395.069" r="7.92812" stroke-width="0.5" stroke="black" fill="green"/>
  <circle cx="449.049" cy="395.069" r="4.81459" stroke-width="0.5" stroke="black" fill="green"/>
   </g>
   <g id="cell101">
  <circle cx="532.568" cy="475.486" r="7.91782" stroke-width="0.5" stroke="black" fill="cyan"/>
  <circle cx="532.568" cy="475.486" r="4.80996" stroke-width="0.5" stroke="black" fill="cyan"/>
   </g>
   <g id="cell102">
  <circle cx="434.524" cy="474.13" r="7.76844" stroke-width="0.5" stroke="black" fill="green"/>
  <circle cx="434.524" cy="474.13" r="4.73429" stroke-width="0.5" stroke="black" fill="green"/>
   </g>
   <g id="cell103">
  <circle cx="577.19" cy="444.925" r="7.89373" stroke-width="0.5" stroke="black" fill="cyan"/>
  <circle cx="577.19" cy="444.925" r="4.78957" stroke-width="0.5" stroke="black" fill="cyan"/>
   </g>
   <g id="cell104">
  <circle cx="591.512" cy="553.627" r="7.72519" stroke-width="0.5" stroke="black" fill="cyan"/>
  <circle cx="591.512" cy="553.627" r="4.70615" stroke-width="0.5" stroke="black" fill="cyan"/>
   </g>
   <g id="cell106">
  <circle cx="462.71" cy="439.976" r="7.63943" stroke-width="0.5" stroke="black" fill="magenta"/>
  <circle cx="462.71" cy="439.976" r="4.64978" stroke-width="0.5" stroke="black" fill="magenta"/>
   </g>
   <g id="cell107">
  <circle cx="454.511" cy="377.762" r="7.37229" stroke-width="0.5" stroke="black" fill="green"/>
  <circle cx="454.511" cy="377.762" r="4.51273" stroke-width="0.5" stroke="black" fill="green"/>
   </g>
   <g id="cell108">
  <circle cx="556.552" cy="605.659" r="7.51976" stroke-width="0.5" stroke="black" fill="green"/>
  <circle cx="556.552" cy="605.659" r="4.57072" stroke-width="0.5" stroke="black" fill="green"/>
   </g>
   <g id="cell109">
  <circle cx="576.758" cy="592.13" r="6.89042" stroke-width="0.5" stroke="black" fill="green"/>
  <circle cx="576.758" cy="592.13" r="4.22719" stroke-width="0.5" stroke="black" fill="green"/>
   </g>
   <g id="cell110">
  <circle cx="373.985" cy="514.212" r="7.21189" stroke-width="0.5" stroke="black" fill="cyan"/>
  <circle cx="373.985" cy="514.212" r="4.37993" stroke-width="0.5" stroke="black" fill="cyan"/>
   </g>
   <g id="cell111">
  <circle cx="454.022" cy="551.972" r="7.01189" stroke-width="0.5" stroke="black" fill="magenta"/>
  <circle cx="454.022" cy="551.972" r="4.27679" stroke-width="0.5" stroke="black" fill="magenta"/>
   </g>
   <g id="cell112">
  <circle cx="511.317" cy="466.897" r="7.08639" stroke-width="0.5" stroke="black" fill="magenta"/>
  <circle cx="511.317" cy="466.897" r="4.29876" stroke-width="0.5" stroke="black" fill="magenta"/>
   </g>
   <g id="cell113">
  <circle cx="542.665" cy="405.438" r="7.0545" stroke-width="0.5" stroke="black" fill="green"/>
  <circle cx="542.665" cy="405.438" r="4.27772" stroke-width="0.5" stroke="black" fill="green"/>
   </g>
   <g id="cell114">
  <circle cx="528.403" cy="450.609" r="5.86347" stroke-width="0.5" stroke="black" fill="cyan"/>
  <circle cx="528.403" cy="450.609" r="3.58182" stroke-width="0.5" stroke="black" fill="cyan"/>
   </g>
   <g id="cell115">
  <circle cx="537.97" cy="446.431" r="5.86347" stroke-width="0.5" stroke="black" fill="cyan"/>
  <circle cx="537.97" cy="446.431" r="3.58182" stroke-width="0.5" stroke="black" fill="cyan"/>
   </g>
   <g id="cell116">
  <circle cx="523.879" cy="522.863" r="6.61236" stroke-width="0.5" stroke="black" fill="cyan"/>
  <circle cx="523.879" cy="522.863" r="3.99778" stroke-width="0.5" stroke="black" fill="cyan"/>
   </g>
  </g>
 </g>
  <rect x="775" y="1035" width="200" height="10" stroke-width="2" stroke="rgb(255,255,255)" fill="rgb(0,0,0)"/>
  <text x="781.25" y="1028.75"
   font-family="Arial" font-size="25" fill="black" >
   200 &#956;m
  </text>
  <text x="25" y="1045"
   font-family="Arial" font-size="18.75" fill="black" >
   0 days, 0 hours, 0 minutes, and 15.4403 seconds
  </text>
  <rect x="0" y="70" width="1000" height="1000" stroke-width="2" stroke="rgb(0,0,0)" fill="none"/>
</svg>
