<?xml version="1.0" encoding="UTF-8" standalone="no"?>
<!-- Created with PhysiCell (http://PhysiCell.MathCancer.org/) -->
<svg 
 xmlns:dc="http://purl.org/dc/elements/1.1/" 
 xmlns:cc="http://creativecommons.org/ns#" 
 xmlns:rdf="http://www.w3.org/1999/02/22-rdf-syntax-ns#" 
 xmlns:svg="http://www.w3.org/2000/svg" 
 xmlns="http://www.w3.org/2000/svg" 
 version="1.1" 
 width="1000" 
 height="1070" 
 id="svg2">
  <rect x="0" y="0" width="1000" height="1070" stroke-width="2" stroke="white" fill="white"/>
  <text x="12.5" y="30"
   font-family="Arial" font-size="25" fill="black" >
   Current time: 0 days, 18 hours, and 57.00 minutes, z = 0.00 &#956;m
  </text>
  <text x="12.5" y="57.5"
   font-family="Arial" font-size="23.75" fill="black" >
   133 agents
  </text>
 <g id="tissue" 
    transform="translate(0,1070) scale(1,-1)">
  <g id="ECM">
  </g>
  <g id="cells">
   <g id="cell0">
  <circle cx="513.463" cy="535.647" r="8.37742" stroke-width="0.5" stroke="black" fill="magenta"/>
  <circle cx="513.463" cy="535.647" r="5.03881" stroke-width="0.5" stroke="black" fill="magenta"/>
   </g>
   <g id="cell1">
  <circle cx="601.934" cy="524.68" r="8.41271" stroke-width="0.5" stroke="black" fill="magenta"/>
  <circle cx="601.934" cy="524.68" r="5.05167" stroke-width="0.5" stroke="black" fill="magenta"/>
   </g>
   <g id="cell2">
  <circle cx="515.509" cy="597.998" r="8.41271" stroke-width="0.5" stroke="black" fill="magenta"/>
  <circle cx="515.509" cy="597.998" r="5.05167" stroke-width="0.5" stroke="black" fill="magenta"/>
   </g>
   <g id="cell3">
  <circle cx="523.043" cy="547.67" r="8.35487" stroke-width="0.5" stroke="black" fill="magenta"/>
  <circle cx="523.043" cy="547.67" r="5.03022" stroke-width="0.5" stroke="black" fill="magenta"/>
   </g>
   <g id="cell4">
  <circle cx="488.848" cy="445.797" r="7.55952" stroke-width="0.5" stroke="black" fill="magenta"/>
  <circle cx="488.848" cy="445.797" r="4.5969" stroke-width="0.5" stroke="black" fill="magenta"/>
   </g>
   <g id="cell5">
  <circle cx="465.032" cy="493.3" r="8.41271" stroke-width="0.5" stroke="black" fill="magenta"/>
  <circle cx="465.032" cy="493.3" r="5.05167" stroke-width="0.5" stroke="black" fill="magenta"/>
   </g>
   <g id="cell6">
  <circle cx="596.385" cy="514.124" r="4.64437" stroke-width="0.5" stroke="black" fill="magenta"/>
  <circle cx="596.385" cy="514.124" r="3.17578" stroke-width="0.5" stroke="black" fill="black"/>
   </g>
   <g id="cell7">
  <circle cx="496.681" cy="457.421" r="8.13008" stroke-width="0.5" stroke="black" fill="magenta"/>
  <circle cx="496.681" cy="457.421" r="4.91894" stroke-width="0.5" stroke="black" fill="magenta"/>
   </g>
   <g id="cell8">
  <circle cx="376.367" cy="542.654" r="8.41271" stroke-width="0.5" stroke="black" fill="magenta"/>
  <circle cx="376.367" cy="542.654" r="5.05167" stroke-width="0.5" stroke="black" fill="magenta"/>
   </g>
   <g id="cell9">
  <circle cx="460.472" cy="599.786" r="5.54925" stroke-width="0.5" stroke="black" fill="magenta"/>
  <circle cx="460.472" cy="599.786" r="3.58213" stroke-width="0.5" stroke="black" fill="black"/>
   </g>
   <g id="cell10">
  <circle cx="583.447" cy="392.105" r="8.41271" stroke-width="0.5" stroke="black" fill="magenta"/>
  <circle cx="583.447" cy="392.105" r="5.05167" stroke-width="0.5" stroke="black" fill="magenta"/>
   </g>
   <g id="cell11">
  <circle cx="591.898" cy="590.051" r="8.41271" stroke-width="0.5" stroke="black" fill="magenta"/>
  <circle cx="591.898" cy="590.051" r="5.05167" stroke-width="0.5" stroke="black" fill="magenta"/>
   </g>
   <g id="cell12">
  <circle cx="506.573" cy="585.727" r="8.41271" stroke-width="0.5" stroke="black" fill="magenta"/>
  <circle cx="506.573" cy="585.727" r="5.05167" stroke-width="0.5" stroke="black" fill="magenta"/>
   </g>
   <g id="cell13">
  <circle cx="386.194" cy="568.228" r="8.41271" stroke-width="0.5" stroke="black" fill="magenta"/>
  <circle cx="386.194" cy="568.228" r="5.05167" stroke-width="0.5" stroke="black" fill="magenta"/>
   </g>
   <g id="cell14">
  <circle cx="529.01" cy="400.01" r="8.41271" stroke-width="0.5" stroke="black" fill="magenta"/>
  <circle cx="529.01" cy="400.01" r="5.05167" stroke-width="0.5" stroke="black" fill="magenta"/>
   </g>
   <g id="cell15">
  <circle cx="383.978" cy="476.883" r="7.11815" stroke-width="0.5" stroke="black" fill="magenta"/>
  <circle cx="383.978" cy="476.883" r="4.31954" stroke-width="0.5" stroke="black" fill="magenta"/>
   </g>
   <g id="cell16">
  <circle cx="429.014" cy="412.699" r="8.41271" stroke-width="0.5" stroke="black" fill="magenta"/>
  <circle cx="429.014" cy="412.699" r="5.05167" stroke-width="0.5" stroke="black" fill="magenta"/>
   </g>
   <g id="cell17">
  <circle cx="571.077" cy="491.289" r="8.41271" stroke-width="0.5" stroke="black" fill="magenta"/>
  <circle cx="571.077" cy="491.289" r="5.05167" stroke-width="0.5" stroke="black" fill="magenta"/>
   </g>
   <g id="cell18">
  <circle cx="518.077" cy="389.507" r="8.41271" stroke-width="0.5" stroke="black" fill="magenta"/>
  <circle cx="518.077" cy="389.507" r="5.05167" stroke-width="0.5" stroke="black" fill="magenta"/>
   </g>
   <g id="cell19">
  <circle cx="461.521" cy="539.591" r="8.1237" stroke-width="0.5" stroke="black" fill="magenta"/>
  <circle cx="461.521" cy="539.591" r="4.9189" stroke-width="0.5" stroke="black" fill="magenta"/>
   </g>
   <g id="cell20">
  <circle cx="530.66" cy="415.14" r="8.41271" stroke-width="0.5" stroke="black" fill="magenta"/>
  <circle cx="530.66" cy="415.14" r="5.05167" stroke-width="0.5" stroke="black" fill="magenta"/>
   </g>
   <g id="cell21">
  <circle cx="465.102" cy="633.9" r="8.41271" stroke-width="0.5" stroke="black" fill="magenta"/>
  <circle cx="465.102" cy="633.9" r="5.05167" stroke-width="0.5" stroke="black" fill="magenta"/>
   </g>
   <g id="cell22">
  <circle cx="556.402" cy="495.058" r="8.41271" stroke-width="0.5" stroke="black" fill="magenta"/>
  <circle cx="556.402" cy="495.058" r="5.05167" stroke-width="0.5" stroke="black" fill="magenta"/>
   </g>
   <g id="cell23">
  <circle cx="545.686" cy="484.446" r="8.41271" stroke-width="0.5" stroke="black" fill="magenta"/>
  <circle cx="545.686" cy="484.446" r="5.05167" stroke-width="0.5" stroke="black" fill="magenta"/>
   </g>
   <g id="cell24">
  <circle cx="558.771" cy="381.706" r="8.41271" stroke-width="0.5" stroke="black" fill="magenta"/>
  <circle cx="558.771" cy="381.706" r="5.05167" stroke-width="0.5" stroke="black" fill="magenta"/>
   </g>
   <g id="cell25">
  <circle cx="647.496" cy="543.748" r="8.39083" stroke-width="0.5" stroke="black" fill="green"/>
  <circle cx="647.496" cy="543.748" r="5.04414" stroke-width="0.5" stroke="black" fill="green"/>
   </g>
   <g id="cell26">
  <circle cx="555.095" cy="396.558" r="8.1218" stroke-width="0.5" stroke="black" fill="green"/>
  <circle cx="555.095" cy="396.558" r="4.91457" stroke-width="0.5" stroke="black" fill="green"/>
   </g>
   <g id="cell27">
  <circle cx="465.907" cy="394.991" r="8.39913" stroke-width="0.5" stroke="black" fill="green"/>
  <circle cx="465.907" cy="394.991" r="5.04725" stroke-width="0.5" stroke="black" fill="green"/>
   </g>
   <g id="cell28">
  <circle cx="432.971" cy="530.707" r="8.41271" stroke-width="0.5" stroke="black" fill="green"/>
  <circle cx="432.971" cy="530.707" r="5.05167" stroke-width="0.5" stroke="black" fill="green"/>
   </g>
   <g id="cell29">
  <circle cx="450.288" cy="517.325" r="8.41271" stroke-width="0.5" stroke="black" fill="green"/>
  <circle cx="450.288" cy="517.325" r="5.05167" stroke-width="0.5" stroke="black" fill="green"/>
   </g>
   <g id="cell30">
  <circle cx="483.573" cy="534.512" r="8.35882" stroke-width="0.5" stroke="black" fill="green"/>
  <circle cx="483.573" cy="534.512" r="5.031" stroke-width="0.5" stroke="black" fill="green"/>
   </g>
   <g id="cell31">
  <circle cx="412.807" cy="541.561" r="8.41271" stroke-width="0.5" stroke="black" fill="green"/>
  <circle cx="412.807" cy="541.561" r="5.05167" stroke-width="0.5" stroke="black" fill="green"/>
   </g>
   <g id="cell32">
  <circle cx="421.044" cy="481.946" r="8.33911" stroke-width="0.5" stroke="black" fill="green"/>
  <circle cx="421.044" cy="481.946" r="5.02235" stroke-width="0.5" stroke="black" fill="green"/>
   </g>
   <g id="cell33">
  <circle cx="501.88" cy="421.977" r="8.41271" stroke-width="0.5" stroke="black" fill="green"/>
  <circle cx="501.88" cy="421.977" r="5.05167" stroke-width="0.5" stroke="black" fill="green"/>
   </g>
   <g id="cell34">
  <circle cx="397.088" cy="450.831" r="8.41271" stroke-width="0.5" stroke="black" fill="green"/>
  <circle cx="397.088" cy="450.831" r="5.05167" stroke-width="0.5" stroke="black" fill="green"/>
   </g>
   <g id="cell35">
  <circle cx="552.822" cy="542.57" r="8.41271" stroke-width="0.5" stroke="black" fill="green"/>
  <circle cx="552.822" cy="542.57" r="5.05167" stroke-width="0.5" stroke="black" fill="green"/>
   </g>
   <g id="cell36">
  <circle cx="391.486" cy="582.903" r="8.41271" stroke-width="0.5" stroke="black" fill="green"/>
  <circle cx="391.486" cy="582.903" r="5.05167" stroke-width="0.5" stroke="black" fill="green"/>
   </g>
   <g id="cell37">
  <circle cx="639.829" cy="458.211" r="8.39708" stroke-width="0.5" stroke="black" fill="green"/>
  <circle cx="639.829" cy="458.211" r="5.0465" stroke-width="0.5" stroke="black" fill="green"/>
   </g>
   <g id="cell38">
  <circle cx="529.263" cy="590.547" r="8.39422" stroke-width="0.5" stroke="black" fill="green"/>
  <circle cx="529.263" cy="590.547" r="5.04543" stroke-width="0.5" stroke="black" fill="green"/>
   </g>
   <g id="cell39">
  <circle cx="614.121" cy="489.667" r="8.41271" stroke-width="0.5" stroke="black" fill="green"/>
  <circle cx="614.121" cy="489.667" r="5.05167" stroke-width="0.5" stroke="black" fill="green"/>
   </g>
   <g id="cell40">
  <circle cx="485.348" cy="571.779" r="8.41271" stroke-width="0.5" stroke="black" fill="green"/>
  <circle cx="485.348" cy="571.779" r="5.05167" stroke-width="0.5" stroke="black" fill="green"/>
   </g>
   <g id="cell41">
  <circle cx="364.089" cy="481.177" r="8.41271" stroke-width="0.5" stroke="black" fill="green"/>
  <circle cx="364.089" cy="481.177" r="5.05167" stroke-width="0.5" stroke="black" fill="green"/>
   </g>
   <g id="cell42">
  <circle cx="438.83" cy="494.205" r="8.41271" stroke-width="0.5" stroke="black" fill="green"/>
  <circle cx="438.83" cy="494.205" r="5.05167" stroke-width="0.5" stroke="black" fill="green"/>
   </g>
   <g id="cell43">
  <circle cx="561.687" cy="441.01" r="8.41271" stroke-width="0.5" stroke="black" fill="green"/>
  <circle cx="561.687" cy="441.01" r="5.05167" stroke-width="0.5" stroke="black" fill="green"/>
   </g>
   <g id="cell44">
  <circle cx="475.123" cy="624.695" r="5.54925" stroke-width="0.5" stroke="black" fill="green"/>
  <circle cx="475.123" cy="624.695" r="3.58213" stroke-width="0.5" stroke="black" fill="black"/>
   </g>
   <g id="cell45">
  <circle cx="414.902" cy="556.698" r="1.6312" stroke-width="0.5" stroke="black" fill="green"/>
  <circle cx="414.902" cy="556.698" r="1.59812" stroke-width="0.5" stroke="black" fill="black"/>
   </g>
   <g id="cell46">
  <circle cx="520.58" cy="612.603" r="8.28629" stroke-width="0.5" stroke="black" fill="green"/>
  <circle cx="520.58" cy="612.603" r="4.99786" stroke-width="0.5" stroke="black" fill="green"/>
   </g>
   <g id="cell47">
  <circle cx="504.722" cy="496.224" r="8.33481" stroke-width="0.5" stroke="black" fill="green"/>
  <circle cx="504.722" cy="496.224" r="5.02043" stroke-width="0.5" stroke="black" fill="green"/>
   </g>
   <g id="cell48">
  <circle cx="570.999" cy="604.522" r="8.11746" stroke-width="0.5" stroke="black" fill="green"/>
  <circle cx="570.999" cy="604.522" r="4.91912" stroke-width="0.5" stroke="black" fill="green"/>
   </g>
   <g id="cell49">
  <circle cx="431.367" cy="397.243" r="8.41271" stroke-width="0.5" stroke="black" fill="green"/>
  <circle cx="431.367" cy="397.243" r="5.05167" stroke-width="0.5" stroke="black" fill="green"/>
   </g>
   <g id="cell50">
  <circle cx="511.513" cy="509.937" r="7.99492" stroke-width="0.5" stroke="black" fill="cyan"/>
  <circle cx="511.513" cy="509.937" r="4.84927" stroke-width="0.5" stroke="black" fill="cyan"/>
   </g>
   <g id="cell51">
  <circle cx="398.721" cy="597.201" r="8.41271" stroke-width="0.5" stroke="black" fill="cyan"/>
  <circle cx="398.721" cy="597.201" r="5.05167" stroke-width="0.5" stroke="black" fill="cyan"/>
   </g>
   <g id="cell52">
  <circle cx="517.658" cy="423.592" r="8.41271" stroke-width="0.5" stroke="black" fill="cyan"/>
  <circle cx="517.658" cy="423.592" r="5.05167" stroke-width="0.5" stroke="black" fill="cyan"/>
   </g>
   <g id="cell53">
  <circle cx="572.774" cy="429.545" r="8.30618" stroke-width="0.5" stroke="black" fill="cyan"/>
  <circle cx="572.774" cy="429.545" r="5.00727" stroke-width="0.5" stroke="black" fill="cyan"/>
   </g>
   <g id="cell54">
  <circle cx="481.927" cy="421.635" r="8.34884" stroke-width="0.5" stroke="black" fill="cyan"/>
  <circle cx="481.927" cy="421.635" r="5.02667" stroke-width="0.5" stroke="black" fill="cyan"/>
   </g>
   <g id="cell55">
  <circle cx="522.051" cy="463.845" r="8.3114" stroke-width="0.5" stroke="black" fill="cyan"/>
  <circle cx="522.051" cy="463.845" r="5.01082" stroke-width="0.5" stroke="black" fill="cyan"/>
   </g>
   <g id="cell56">
  <circle cx="617.423" cy="522.369" r="8.41271" stroke-width="0.5" stroke="black" fill="cyan"/>
  <circle cx="617.423" cy="522.369" r="5.05167" stroke-width="0.5" stroke="black" fill="cyan"/>
   </g>
   <g id="cell105">
  <circle cx="505.655" cy="609.48" r="7.85207" stroke-width="0.5" stroke="black" fill="green"/>
  <circle cx="505.655" cy="609.48" r="4.77549" stroke-width="0.5" stroke="black" fill="green"/>
   </g>
   <g id="cell58">
  <circle cx="560.424" cy="479.86" r="8.41271" stroke-width="0.5" stroke="black" fill="cyan"/>
  <circle cx="560.424" cy="479.86" r="5.05167" stroke-width="0.5" stroke="black" fill="cyan"/>
   </g>
   <g id="cell59">
  <circle cx="385.463" cy="439.803" r="8.41271" stroke-width="0.5" stroke="black" fill="cyan"/>
  <circle cx="385.463" cy="439.803" r="5.05167" stroke-width="0.5" stroke="black" fill="cyan"/>
   </g>
   <g id="cell60">
  <circle cx="591.878" cy="473.854" r="8.41271" stroke-width="0.5" stroke="black" fill="cyan"/>
  <circle cx="591.878" cy="473.854" r="5.05167" stroke-width="0.5" stroke="black" fill="cyan"/>
   </g>
   <g id="cell61">
  <circle cx="557.062" cy="622.67" r="8.41271" stroke-width="0.5" stroke="black" fill="cyan"/>
  <circle cx="557.062" cy="622.67" r="5.05167" stroke-width="0.5" stroke="black" fill="cyan"/>
   </g>
   <g id="cell62">
  <circle cx="514.087" cy="438.501" r="7.76991" stroke-width="0.5" stroke="black" fill="cyan"/>
  <circle cx="514.087" cy="438.501" r="4.72057" stroke-width="0.5" stroke="black" fill="cyan"/>
   </g>
   <g id="cell63">
  <circle cx="580.007" cy="542.796" r="6.99503" stroke-width="0.5" stroke="black" fill="cyan"/>
  <circle cx="580.007" cy="542.796" r="4.2459" stroke-width="0.5" stroke="black" fill="cyan"/>
   </g>
   <g id="cell64">
  <circle cx="509.729" cy="639.064" r="8.41271" stroke-width="0.5" stroke="black" fill="cyan"/>
  <circle cx="509.729" cy="639.064" r="5.05167" stroke-width="0.5" stroke="black" fill="cyan"/>
   </g>
   <g id="cell65">
  <circle cx="547.859" cy="469.383" r="8.36972" stroke-width="0.5" stroke="black" fill="cyan"/>
  <circle cx="547.859" cy="469.383" r="5.03563" stroke-width="0.5" stroke="black" fill="cyan"/>
   </g>
   <g id="cell66">
  <circle cx="529.27" cy="533.622" r="8.34511" stroke-width="0.5" stroke="black" fill="cyan"/>
  <circle cx="529.27" cy="533.622" r="5.02502" stroke-width="0.5" stroke="black" fill="cyan"/>
   </g>
   <g id="cell67">
  <circle cx="353.945" cy="493.534" r="8.41271" stroke-width="0.5" stroke="black" fill="cyan"/>
  <circle cx="353.945" cy="493.534" r="5.05167" stroke-width="0.5" stroke="black" fill="cyan"/>
   </g>
   <g id="cell68">
  <circle cx="563.05" cy="554.867" r="8.41271" stroke-width="0.5" stroke="black" fill="cyan"/>
  <circle cx="563.05" cy="554.867" r="5.05167" stroke-width="0.5" stroke="black" fill="cyan"/>
   </g>
   <g id="cell69">
  <circle cx="442.216" cy="460.346" r="8.41271" stroke-width="0.5" stroke="black" fill="cyan"/>
  <circle cx="442.216" cy="460.346" r="5.05167" stroke-width="0.5" stroke="black" fill="cyan"/>
   </g>
   <g id="cell70">
  <circle cx="576.082" cy="476.517" r="8.41271" stroke-width="0.5" stroke="black" fill="cyan"/>
  <circle cx="576.082" cy="476.517" r="5.05167" stroke-width="0.5" stroke="black" fill="cyan"/>
   </g>
   <g id="cell71">
  <circle cx="380.067" cy="527.768" r="8.1609" stroke-width="0.5" stroke="black" fill="cyan"/>
  <circle cx="380.067" cy="527.768" r="4.93506" stroke-width="0.5" stroke="black" fill="cyan"/>
   </g>
   <g id="cell72">
  <circle cx="528.836" cy="509.763" r="8.35062" stroke-width="0.5" stroke="black" fill="cyan"/>
  <circle cx="528.836" cy="509.763" r="5.02745" stroke-width="0.5" stroke="black" fill="cyan"/>
   </g>
   <g id="cell73">
  <circle cx="364.606" cy="552.836" r="8.3784" stroke-width="0.5" stroke="black" fill="cyan"/>
  <circle cx="364.606" cy="552.836" r="5.03921" stroke-width="0.5" stroke="black" fill="cyan"/>
   </g>
   <g id="cell74">
  <circle cx="548.609" cy="434.173" r="4.48715" stroke-width="0.5" stroke="black" fill="cyan"/>
  <circle cx="548.609" cy="434.173" r="3.09179" stroke-width="0.5" stroke="black" fill="black"/>
   </g>
   <g id="cell75">
  <circle cx="529.425" cy="434.138" r="8.3995" stroke-width="0.5" stroke="black" fill="cyan"/>
  <circle cx="529.425" cy="434.138" r="5.04738" stroke-width="0.5" stroke="black" fill="cyan"/>
   </g>
   <g id="cell76">
  <circle cx="442.121" cy="381.989" r="8.20701" stroke-width="0.5" stroke="black" fill="green"/>
  <circle cx="442.121" cy="381.989" r="4.96353" stroke-width="0.5" stroke="black" fill="green"/>
   </g>
   <g id="cell77">
  <circle cx="478.087" cy="436.562" r="8.25518" stroke-width="0.5" stroke="black" fill="magenta"/>
  <circle cx="478.087" cy="436.562" r="4.98396" stroke-width="0.5" stroke="black" fill="magenta"/>
   </g>
   <g id="cell78">
  <circle cx="624.448" cy="462.52" r="8.36183" stroke-width="0.5" stroke="black" fill="green"/>
  <circle cx="624.448" cy="462.52" r="5.03301" stroke-width="0.5" stroke="black" fill="green"/>
   </g>
   <g id="cell79">
  <circle cx="517.401" cy="479.011" r="8.39523" stroke-width="0.5" stroke="black" fill="cyan"/>
  <circle cx="517.401" cy="479.011" r="5.04581" stroke-width="0.5" stroke="black" fill="cyan"/>
   </g>
   <g id="cell80">
  <circle cx="543.435" cy="615.799" r="7.7611" stroke-width="0.5" stroke="black" fill="green"/>
  <circle cx="543.435" cy="615.799" r="4.71737" stroke-width="0.5" stroke="black" fill="green"/>
   </g>
   <g id="cell81">
  <circle cx="544.878" cy="595.003" r="8.38442" stroke-width="0.5" stroke="black" fill="green"/>
  <circle cx="544.878" cy="595.003" r="5.0421" stroke-width="0.5" stroke="black" fill="green"/>
   </g>
   <g id="cell82">
  <circle cx="532.523" cy="559.713" r="8.39083" stroke-width="0.5" stroke="black" fill="magenta"/>
  <circle cx="532.523" cy="559.713" r="5.04414" stroke-width="0.5" stroke="black" fill="magenta"/>
   </g>
   <g id="cell83">
  <circle cx="635.669" cy="552.782" r="7.34562" stroke-width="0.5" stroke="black" fill="green"/>
  <circle cx="635.669" cy="552.782" r="4.46774" stroke-width="0.5" stroke="black" fill="green"/>
   </g>
   <g id="cell84">
  <circle cx="520.439" cy="497.253" r="8.38028" stroke-width="0.5" stroke="black" fill="cyan"/>
  <circle cx="520.439" cy="497.253" r="5.03997" stroke-width="0.5" stroke="black" fill="cyan"/>
   </g>
   <g id="cell85">
  <circle cx="352.554" cy="542.482" r="8.31511" stroke-width="0.5" stroke="black" fill="cyan"/>
  <circle cx="352.554" cy="542.482" r="5.01306" stroke-width="0.5" stroke="black" fill="cyan"/>
   </g>
   <g id="cell86">
  <circle cx="498.685" cy="534.87" r="7.67946" stroke-width="0.5" stroke="black" fill="magenta"/>
  <circle cx="498.685" cy="534.87" r="4.67033" stroke-width="0.5" stroke="black" fill="magenta"/>
   </g>
   <g id="cell87">
  <circle cx="578.827" cy="557.211" r="8.27359" stroke-width="0.5" stroke="black" fill="cyan"/>
  <circle cx="578.827" cy="557.211" r="4.99391" stroke-width="0.5" stroke="black" fill="cyan"/>
   </g>
   <g id="cell88">
  <circle cx="448.429" cy="532.603" r="8.37092" stroke-width="0.5" stroke="black" fill="magenta"/>
  <circle cx="448.429" cy="532.603" r="5.03613" stroke-width="0.5" stroke="black" fill="magenta"/>
   </g>
   <g id="cell89">
  <circle cx="553.106" cy="452.471" r="6.64305" stroke-width="0.5" stroke="black" fill="cyan"/>
  <circle cx="553.106" cy="452.471" r="3.99678" stroke-width="0.5" stroke="black" fill="cyan"/>
   </g>
   <g id="cell90">
  <circle cx="635.567" cy="472.526" r="7.35504" stroke-width="0.5" stroke="black" fill="green"/>
  <circle cx="635.567" cy="472.526" r="4.47765" stroke-width="0.5" stroke="black" fill="green"/>
   </g>
   <g id="cell91">
  <circle cx="547.601" cy="557.328" r="8.32806" stroke-width="0.5" stroke="black" fill="magenta"/>
  <circle cx="547.601" cy="557.328" r="5.01949" stroke-width="0.5" stroke="black" fill="magenta"/>
   </g>
   <g id="cell92">
  <circle cx="482.504" cy="550.206" r="8.35882" stroke-width="0.5" stroke="black" fill="green"/>
  <circle cx="482.504" cy="550.206" r="5.031" stroke-width="0.5" stroke="black" fill="green"/>
   </g>
   <g id="cell93">
  <circle cx="537.979" cy="545.938" r="8.32806" stroke-width="0.5" stroke="black" fill="magenta"/>
  <circle cx="537.979" cy="545.938" r="5.01949" stroke-width="0.5" stroke="black" fill="magenta"/>
   </g>
   <g id="cell94">
  <circle cx="536.659" cy="496.549" r="8.35062" stroke-width="0.5" stroke="black" fill="cyan"/>
  <circle cx="536.659" cy="496.549" r="5.02745" stroke-width="0.5" stroke="black" fill="cyan"/>
   </g>
   <g id="cell95">
  <circle cx="466.723" cy="426.244" r="8.34884" stroke-width="0.5" stroke="black" fill="cyan"/>
  <circle cx="466.723" cy="426.244" r="5.02667" stroke-width="0.5" stroke="black" fill="cyan"/>
   </g>
   <g id="cell96">
  <circle cx="546.124" cy="528.231" r="6.65849" stroke-width="0.5" stroke="black" fill="cyan"/>
  <circle cx="546.124" cy="528.231" r="4.01342" stroke-width="0.5" stroke="black" fill="cyan"/>
   </g>
   <g id="cell97">
  <circle cx="421.641" cy="466.132" r="8.28286" stroke-width="0.5" stroke="black" fill="green"/>
  <circle cx="421.641" cy="466.132" r="4.99889" stroke-width="0.5" stroke="black" fill="green"/>
   </g>
   <g id="cell98">
  <circle cx="491.902" cy="522.369" r="7.5204" stroke-width="0.5" stroke="black" fill="green"/>
  <circle cx="491.902" cy="522.369" r="4.58016" stroke-width="0.5" stroke="black" fill="green"/>
   </g>
   <g id="cell99">
  <circle cx="358.296" cy="527.733" r="8.31511" stroke-width="0.5" stroke="black" fill="cyan"/>
  <circle cx="358.296" cy="527.733" r="5.01306" stroke-width="0.5" stroke="black" fill="cyan"/>
   </g>
   <g id="cell100">
  <circle cx="449.66" cy="395.927" r="8.31338" stroke-width="0.5" stroke="black" fill="green"/>
  <circle cx="449.66" cy="395.927" r="5.01156" stroke-width="0.5" stroke="black" fill="green"/>
   </g>
   <g id="cell101">
  <circle cx="533.012" cy="475.449" r="8.3114" stroke-width="0.5" stroke="black" fill="cyan"/>
  <circle cx="533.012" cy="475.449" r="5.01082" stroke-width="0.5" stroke="black" fill="cyan"/>
   </g>
   <g id="cell102">
  <circle cx="435.005" cy="474.51" r="8.28286" stroke-width="0.5" stroke="black" fill="green"/>
  <circle cx="435.005" cy="474.51" r="4.99889" stroke-width="0.5" stroke="black" fill="green"/>
   </g>
   <g id="cell103">
  <circle cx="590.729" cy="447.698" r="7.65761" stroke-width="0.5" stroke="black" fill="cyan"/>
  <circle cx="590.729" cy="447.698" r="4.66325" stroke-width="0.5" stroke="black" fill="cyan"/>
   </g>
   <g id="cell104">
  <circle cx="594.021" cy="553.008" r="8.27359" stroke-width="0.5" stroke="black" fill="cyan"/>
  <circle cx="594.021" cy="553.008" r="4.99391" stroke-width="0.5" stroke="black" fill="cyan"/>
   </g>
   <g id="cell106">
  <circle cx="464.072" cy="441.419" r="8.25518" stroke-width="0.5" stroke="black" fill="magenta"/>
  <circle cx="464.072" cy="441.419" r="4.98396" stroke-width="0.5" stroke="black" fill="magenta"/>
   </g>
   <g id="cell107">
  <circle cx="457.112" cy="382.926" r="7.59952" stroke-width="0.5" stroke="black" fill="green"/>
  <circle cx="457.112" cy="382.926" r="4.63724" stroke-width="0.5" stroke="black" fill="green"/>
   </g>
   <g id="cell108">
  <circle cx="555.628" cy="606.778" r="8.22925" stroke-width="0.5" stroke="black" fill="green"/>
  <circle cx="555.628" cy="606.778" r="4.96993" stroke-width="0.5" stroke="black" fill="green"/>
   </g>
   <g id="cell109">
  <circle cx="576.591" cy="590.151" r="8.11746" stroke-width="0.5" stroke="black" fill="green"/>
  <circle cx="576.591" cy="590.151" r="4.91912" stroke-width="0.5" stroke="black" fill="green"/>
   </g>
   <g id="cell110">
  <circle cx="373.732" cy="513.614" r="8.1609" stroke-width="0.5" stroke="black" fill="cyan"/>
  <circle cx="373.732" cy="513.614" r="4.93506" stroke-width="0.5" stroke="black" fill="cyan"/>
   </g>
   <g id="cell111">
  <circle cx="454.566" cy="552.631" r="6.44779" stroke-width="0.5" stroke="black" fill="magenta"/>
  <circle cx="454.566" cy="552.631" r="3.90413" stroke-width="0.5" stroke="black" fill="magenta"/>
   </g>
   <g id="cell112">
  <circle cx="507.286" cy="467.46" r="8.13008" stroke-width="0.5" stroke="black" fill="magenta"/>
  <circle cx="507.286" cy="467.46" r="4.91894" stroke-width="0.5" stroke="black" fill="magenta"/>
   </g>
   <g id="cell113">
  <circle cx="543.029" cy="406.137" r="8.1218" stroke-width="0.5" stroke="black" fill="green"/>
  <circle cx="543.029" cy="406.137" r="4.91457" stroke-width="0.5" stroke="black" fill="green"/>
   </g>
   <g id="cell114">
  <circle cx="524.586" cy="448.736" r="7.91088" stroke-width="0.5" stroke="black" fill="cyan"/>
  <circle cx="524.586" cy="448.736" r="4.81161" stroke-width="0.5" stroke="black" fill="cyan"/>
   </g>
   <g id="cell115">
  <circle cx="537.114" cy="453.658" r="6.5601" stroke-width="0.5" stroke="black" fill="cyan"/>
  <circle cx="537.114" cy="453.658" r="4.01455" stroke-width="0.5" stroke="black" fill="cyan"/>
   </g>
   <g id="cell116">
  <circle cx="519.987" cy="522.002" r="7.99492" stroke-width="0.5" stroke="black" fill="cyan"/>
  <circle cx="519.987" cy="522.002" r="4.84927" stroke-width="0.5" stroke="black" fill="cyan"/>
   </g>
   <g id="cell117">
  <circle cx="510.273" cy="623.705" r="7.85207" stroke-width="0.5" stroke="black" fill="green"/>
  <circle cx="510.273" cy="623.705" r="4.77549" stroke-width="0.5" stroke="black" fill="green"/>
   </g>
   <g id="cell118">
  <circle cx="510.666" cy="453.141" r="7.76991" stroke-width="0.5" stroke="black" fill="cyan"/>
  <circle cx="510.666" cy="453.141" r="4.72057" stroke-width="0.5" stroke="black" fill="cyan"/>
   </g>
   <g id="cell119">
  <circle cx="533.513" cy="605.101" r="7.7611" stroke-width="0.5" stroke="black" fill="green"/>
  <circle cx="533.513" cy="605.101" r="4.71737" stroke-width="0.5" stroke="black" fill="green"/>
   </g>
   <g id="cell120">
  <circle cx="576.659" cy="444.175" r="7.65761" stroke-width="0.5" stroke="black" fill="cyan"/>
  <circle cx="576.659" cy="444.175" r="4.66325" stroke-width="0.5" stroke="black" fill="cyan"/>
   </g>
   <g id="cell121">
  <circle cx="451.341" cy="371.013" r="6.70645" stroke-width="0.5" stroke="black" fill="green"/>
  <circle cx="451.341" cy="371.013" r="4.12451" stroke-width="0.5" stroke="black" fill="green"/>
   </g>
   <g id="cell122">
  <circle cx="505.765" cy="523.171" r="7.67946" stroke-width="0.5" stroke="black" fill="magenta"/>
  <circle cx="505.765" cy="523.171" r="4.67033" stroke-width="0.5" stroke="black" fill="magenta"/>
   </g>
   <g id="cell123">
  <circle cx="497.042" cy="509.307" r="7.5204" stroke-width="0.5" stroke="black" fill="green"/>
  <circle cx="497.042" cy="509.307" r="4.58016" stroke-width="0.5" stroke="black" fill="green"/>
   </g>
   <g id="cell124">
  <circle cx="491.723" cy="432.595" r="7.55952" stroke-width="0.5" stroke="black" fill="magenta"/>
  <circle cx="491.723" cy="432.595" r="4.5969" stroke-width="0.5" stroke="black" fill="magenta"/>
   </g>
   <g id="cell125">
  <circle cx="622.514" cy="477.322" r="7.35504" stroke-width="0.5" stroke="black" fill="green"/>
  <circle cx="622.514" cy="477.322" r="4.47765" stroke-width="0.5" stroke="black" fill="green"/>
   </g>
   <g id="cell126">
  <circle cx="629.525" cy="565.22" r="7.34562" stroke-width="0.5" stroke="black" fill="green"/>
  <circle cx="629.525" cy="565.22" r="4.46774" stroke-width="0.5" stroke="black" fill="green"/>
   </g>
   <g id="cell127">
  <circle cx="441.383" cy="363.47" r="6.70645" stroke-width="0.5" stroke="black" fill="green"/>
  <circle cx="441.383" cy="363.47" r="4.12451" stroke-width="0.5" stroke="black" fill="green"/>
   </g>
   <g id="cell128">
  <circle cx="373.187" cy="470.051" r="7.11815" stroke-width="0.5" stroke="black" fill="magenta"/>
  <circle cx="373.187" cy="470.051" r="4.31954" stroke-width="0.5" stroke="black" fill="magenta"/>
   </g>
   <g id="cell129">
  <circle cx="567.062" cy="540.685" r="6.99503" stroke-width="0.5" stroke="black" fill="cyan"/>
  <circle cx="567.062" cy="540.685" r="4.2459" stroke-width="0.5" stroke="black" fill="cyan"/>
   </g>
   <g id="cell130">
  <circle cx="545.216" cy="444.172" r="6.5601" stroke-width="0.5" stroke="black" fill="cyan"/>
  <circle cx="545.216" cy="444.172" r="4.01455" stroke-width="0.5" stroke="black" fill="cyan"/>
   </g>
   <g id="cell131">
  <circle cx="538.14" cy="519.28" r="6.65849" stroke-width="0.5" stroke="black" fill="cyan"/>
  <circle cx="538.14" cy="519.28" r="4.01342" stroke-width="0.5" stroke="black" fill="cyan"/>
   </g>
   <g id="cell132">
  <circle cx="447.094" cy="544.983" r="6.44779" stroke-width="0.5" stroke="black" fill="magenta"/>
  <circle cx="447.094" cy="544.983" r="3.90413" stroke-width="0.5" stroke="black" fill="magenta"/>
   </g>
   <g id="cell133">
  <circle cx="559.894" cy="462.191" r="6.64305" stroke-width="0.5" stroke="black" fill="cyan"/>
  <circle cx="559.894" cy="462.191" r="3.99678" stroke-width="0.5" stroke="black" fill="cyan"/>
   </g>
  </g>
 </g>
  <rect x="775" y="1035" width="200" height="10" stroke-width="2" stroke="rgb(255,255,255)" fill="rgb(0,0,0)"/>
  <text x="781.25" y="1028.75"
   font-family="Arial" font-size="25" fill="black" >
   200 &#956;m
  </text>
  <text x="25" y="1045"
   font-family="Arial" font-size="18.75" fill="black" >
   0 days, 0 hours, 0 minutes, and 22.2363 seconds
  </text>
  <rect x="0" y="70" width="1000" height="1000" stroke-width="2" stroke="rgb(0,0,0)" fill="none"/>
</svg>
