<?xml version="1.0" encoding="UTF-8" standalone="no"?>
<!-- Created with PhysiCell (http://PhysiCell.MathCancer.org/) -->
<svg 
 xmlns:dc="http://purl.org/dc/elements/1.1/" 
 xmlns:cc="http://creativecommons.org/ns#" 
 xmlns:rdf="http://www.w3.org/1999/02/22-rdf-syntax-ns#" 
 xmlns:svg="http://www.w3.org/2000/svg" 
 xmlns="http://www.w3.org/2000/svg" 
 version="1.1" 
 width="1000" 
 height="1070" 
 id="svg2">
  <rect x="0" y="0" width="1000" height="1070" stroke-width="2" stroke="white" fill="white"/>
  <text x="12.5" y="30"
   font-family="Arial" font-size="25" fill="black" >
   Current time: 0 days, 9 hours, and 3.00 minutes, z = 0.00 &#956;m
  </text>
  <text x="12.5" y="57.5"
   font-family="Arial" font-size="23.75" fill="black" >
   105 agents
  </text>
 <g id="tissue" 
    transform="translate(0,1070) scale(1,-1)">
  <g id="ECM">
  </g>
  <g id="cells">
   <g id="cell0">
  <circle cx="518.174" cy="532.98" r="7.81315" stroke-width="0.5" stroke="black" fill="magenta"/>
  <circle cx="518.174" cy="532.98" r="4.74367" stroke-width="0.5" stroke="black" fill="magenta"/>
   </g>
   <g id="cell1">
  <circle cx="602.492" cy="526.171" r="8.41271" stroke-width="0.5" stroke="black" fill="magenta"/>
  <circle cx="602.492" cy="526.171" r="5.05167" stroke-width="0.5" stroke="black" fill="magenta"/>
   </g>
   <g id="cell2">
  <circle cx="511.447" cy="600.402" r="8.41271" stroke-width="0.5" stroke="black" fill="magenta"/>
  <circle cx="511.447" cy="600.402" r="5.05167" stroke-width="0.5" stroke="black" fill="magenta"/>
   </g>
   <g id="cell3">
  <circle cx="524.514" cy="544.847" r="7.39421" stroke-width="0.5" stroke="black" fill="magenta"/>
  <circle cx="524.514" cy="544.847" r="4.51999" stroke-width="0.5" stroke="black" fill="magenta"/>
   </g>
   <g id="cell4">
  <circle cx="487.863" cy="438.304" r="8.17502" stroke-width="0.5" stroke="black" fill="magenta"/>
  <circle cx="487.863" cy="438.304" r="4.94236" stroke-width="0.5" stroke="black" fill="magenta"/>
   </g>
   <g id="cell5">
  <circle cx="465.032" cy="493.3" r="8.41271" stroke-width="0.5" stroke="black" fill="magenta"/>
  <circle cx="465.032" cy="493.3" r="5.05167" stroke-width="0.5" stroke="black" fill="magenta"/>
   </g>
   <g id="cell6">
  <circle cx="595.637" cy="512.669" r="8.41271" stroke-width="0.5" stroke="black" fill="magenta"/>
  <circle cx="595.637" cy="512.669" r="5.05167" stroke-width="0.5" stroke="black" fill="magenta"/>
   </g>
   <g id="cell7">
  <circle cx="510.491" cy="462.191" r="8.41271" stroke-width="0.5" stroke="black" fill="magenta"/>
  <circle cx="510.491" cy="462.191" r="5.05167" stroke-width="0.5" stroke="black" fill="magenta"/>
   </g>
   <g id="cell8">
  <circle cx="376.218" cy="544.205" r="8.41271" stroke-width="0.5" stroke="black" fill="magenta"/>
  <circle cx="376.218" cy="544.205" r="5.05167" stroke-width="0.5" stroke="black" fill="magenta"/>
   </g>
   <g id="cell9">
  <circle cx="460.472" cy="599.786" r="8.41271" stroke-width="0.5" stroke="black" fill="magenta"/>
  <circle cx="460.472" cy="599.786" r="5.05167" stroke-width="0.5" stroke="black" fill="magenta"/>
   </g>
   <g id="cell10">
  <circle cx="583.447" cy="392.105" r="8.41271" stroke-width="0.5" stroke="black" fill="magenta"/>
  <circle cx="583.447" cy="392.105" r="5.05167" stroke-width="0.5" stroke="black" fill="magenta"/>
   </g>
   <g id="cell11">
  <circle cx="589.748" cy="590.273" r="8.41271" stroke-width="0.5" stroke="black" fill="magenta"/>
  <circle cx="589.748" cy="590.273" r="5.05167" stroke-width="0.5" stroke="black" fill="magenta"/>
   </g>
   <g id="cell12">
  <circle cx="506.658" cy="586.054" r="8.41271" stroke-width="0.5" stroke="black" fill="magenta"/>
  <circle cx="506.658" cy="586.054" r="5.05167" stroke-width="0.5" stroke="black" fill="magenta"/>
   </g>
   <g id="cell13">
  <circle cx="386.194" cy="568.228" r="8.41271" stroke-width="0.5" stroke="black" fill="magenta"/>
  <circle cx="386.194" cy="568.228" r="5.05167" stroke-width="0.5" stroke="black" fill="magenta"/>
   </g>
   <g id="cell14">
  <circle cx="528.576" cy="399.173" r="8.41271" stroke-width="0.5" stroke="black" fill="magenta"/>
  <circle cx="528.576" cy="399.173" r="5.05167" stroke-width="0.5" stroke="black" fill="magenta"/>
   </g>
   <g id="cell15">
  <circle cx="379.65" cy="475.1" r="8.41271" stroke-width="0.5" stroke="black" fill="magenta"/>
  <circle cx="379.65" cy="475.1" r="5.05167" stroke-width="0.5" stroke="black" fill="magenta"/>
   </g>
   <g id="cell16">
  <circle cx="428.96" cy="413.217" r="8.41271" stroke-width="0.5" stroke="black" fill="magenta"/>
  <circle cx="428.96" cy="413.217" r="5.05167" stroke-width="0.5" stroke="black" fill="magenta"/>
   </g>
   <g id="cell17">
  <circle cx="568.841" cy="488.304" r="8.41271" stroke-width="0.5" stroke="black" fill="magenta"/>
  <circle cx="568.841" cy="488.304" r="5.05167" stroke-width="0.5" stroke="black" fill="magenta"/>
   </g>
   <g id="cell18">
  <circle cx="517.418" cy="388.934" r="8.41271" stroke-width="0.5" stroke="black" fill="magenta"/>
  <circle cx="517.418" cy="388.934" r="5.05167" stroke-width="0.5" stroke="black" fill="magenta"/>
   </g>
   <g id="cell19">
  <circle cx="456.238" cy="543.397" r="7.70049" stroke-width="0.5" stroke="black" fill="magenta"/>
  <circle cx="456.238" cy="543.397" r="4.67828" stroke-width="0.5" stroke="black" fill="magenta"/>
   </g>
   <g id="cell20">
  <circle cx="531.132" cy="414.097" r="8.41271" stroke-width="0.5" stroke="black" fill="magenta"/>
  <circle cx="531.132" cy="414.097" r="5.05167" stroke-width="0.5" stroke="black" fill="magenta"/>
   </g>
   <g id="cell21">
  <circle cx="464.368" cy="634.574" r="8.41271" stroke-width="0.5" stroke="black" fill="magenta"/>
  <circle cx="464.368" cy="634.574" r="5.05167" stroke-width="0.5" stroke="black" fill="magenta"/>
   </g>
   <g id="cell22">
  <circle cx="557.19" cy="498.19" r="8.41271" stroke-width="0.5" stroke="black" fill="magenta"/>
  <circle cx="557.19" cy="498.19" r="5.05167" stroke-width="0.5" stroke="black" fill="magenta"/>
   </g>
   <g id="cell23">
  <circle cx="539.073" cy="484.329" r="8.41271" stroke-width="0.5" stroke="black" fill="magenta"/>
  <circle cx="539.073" cy="484.329" r="5.05167" stroke-width="0.5" stroke="black" fill="magenta"/>
   </g>
   <g id="cell24">
  <circle cx="559.284" cy="379.799" r="8.41271" stroke-width="0.5" stroke="black" fill="magenta"/>
  <circle cx="559.284" cy="379.799" r="5.05167" stroke-width="0.5" stroke="black" fill="magenta"/>
   </g>
   <g id="cell25">
  <circle cx="645.485" cy="545.441" r="8.04604" stroke-width="0.5" stroke="black" fill="green"/>
  <circle cx="645.485" cy="545.441" r="4.87399" stroke-width="0.5" stroke="black" fill="green"/>
   </g>
   <g id="cell26">
  <circle cx="551.095" cy="401.247" r="8.41271" stroke-width="0.5" stroke="black" fill="green"/>
  <circle cx="551.095" cy="401.247" r="5.05167" stroke-width="0.5" stroke="black" fill="green"/>
   </g>
   <g id="cell27">
  <circle cx="463.21" cy="390.574" r="8.18833" stroke-width="0.5" stroke="black" fill="green"/>
  <circle cx="463.21" cy="390.574" r="4.94921" stroke-width="0.5" stroke="black" fill="green"/>
   </g>
   <g id="cell28">
  <circle cx="434.113" cy="530.751" r="8.41271" stroke-width="0.5" stroke="black" fill="green"/>
  <circle cx="434.113" cy="530.751" r="5.05167" stroke-width="0.5" stroke="black" fill="green"/>
   </g>
   <g id="cell29">
  <circle cx="450.377" cy="516.802" r="8.41271" stroke-width="0.5" stroke="black" fill="green"/>
  <circle cx="450.377" cy="516.802" r="5.05167" stroke-width="0.5" stroke="black" fill="green"/>
   </g>
   <g id="cell30">
  <circle cx="481.094" cy="535.217" r="7.49456" stroke-width="0.5" stroke="black" fill="green"/>
  <circle cx="481.094" cy="535.217" r="4.55548" stroke-width="0.5" stroke="black" fill="green"/>
   </g>
   <g id="cell31">
  <circle cx="412.757" cy="541.193" r="8.41271" stroke-width="0.5" stroke="black" fill="green"/>
  <circle cx="412.757" cy="541.193" r="5.05167" stroke-width="0.5" stroke="black" fill="green"/>
   </g>
   <g id="cell32">
  <circle cx="421.933" cy="480.433" r="7.18097" stroke-width="0.5" stroke="black" fill="green"/>
  <circle cx="421.933" cy="480.433" r="4.36015" stroke-width="0.5" stroke="black" fill="green"/>
   </g>
   <g id="cell33">
  <circle cx="496.092" cy="425.236" r="8.41271" stroke-width="0.5" stroke="black" fill="green"/>
  <circle cx="496.092" cy="425.236" r="5.05167" stroke-width="0.5" stroke="black" fill="green"/>
   </g>
   <g id="cell34">
  <circle cx="397.088" cy="450.831" r="8.41271" stroke-width="0.5" stroke="black" fill="green"/>
  <circle cx="397.088" cy="450.831" r="5.05167" stroke-width="0.5" stroke="black" fill="green"/>
   </g>
   <g id="cell35">
  <circle cx="550.92" cy="542.554" r="8.41271" stroke-width="0.5" stroke="black" fill="green"/>
  <circle cx="550.92" cy="542.554" r="5.05167" stroke-width="0.5" stroke="black" fill="green"/>
   </g>
   <g id="cell36">
  <circle cx="391.486" cy="582.903" r="8.41271" stroke-width="0.5" stroke="black" fill="green"/>
  <circle cx="391.486" cy="582.903" r="5.05167" stroke-width="0.5" stroke="black" fill="green"/>
   </g>
   <g id="cell37">
  <circle cx="639.456" cy="457.355" r="8.15353" stroke-width="0.5" stroke="black" fill="green"/>
  <circle cx="639.456" cy="457.355" r="4.93122" stroke-width="0.5" stroke="black" fill="green"/>
   </g>
   <g id="cell38">
  <circle cx="531.848" cy="598.375" r="8.10448" stroke-width="0.5" stroke="black" fill="green"/>
  <circle cx="531.848" cy="598.375" r="4.90539" stroke-width="0.5" stroke="black" fill="green"/>
   </g>
   <g id="cell39">
  <circle cx="613.458" cy="490.595" r="8.41271" stroke-width="0.5" stroke="black" fill="green"/>
  <circle cx="613.458" cy="490.595" r="5.05167" stroke-width="0.5" stroke="black" fill="green"/>
   </g>
   <g id="cell40">
  <circle cx="485.348" cy="571.779" r="8.41271" stroke-width="0.5" stroke="black" fill="green"/>
  <circle cx="485.348" cy="571.779" r="5.05167" stroke-width="0.5" stroke="black" fill="green"/>
   </g>
   <g id="cell41">
  <circle cx="364.925" cy="480.252" r="8.41271" stroke-width="0.5" stroke="black" fill="green"/>
  <circle cx="364.925" cy="480.252" r="5.05167" stroke-width="0.5" stroke="black" fill="green"/>
   </g>
   <g id="cell42">
  <circle cx="438.842" cy="494.268" r="8.41271" stroke-width="0.5" stroke="black" fill="green"/>
  <circle cx="438.842" cy="494.268" r="5.05167" stroke-width="0.5" stroke="black" fill="green"/>
   </g>
   <g id="cell43">
  <circle cx="558.435" cy="443.72" r="8.41271" stroke-width="0.5" stroke="black" fill="green"/>
  <circle cx="558.435" cy="443.72" r="5.05167" stroke-width="0.5" stroke="black" fill="green"/>
   </g>
   <g id="cell44">
  <circle cx="475.857" cy="624.021" r="8.41271" stroke-width="0.5" stroke="black" fill="green"/>
  <circle cx="475.857" cy="624.021" r="5.05167" stroke-width="0.5" stroke="black" fill="green"/>
   </g>
   <g id="cell45">
  <circle cx="414.953" cy="557.066" r="8.41271" stroke-width="0.5" stroke="black" fill="green"/>
  <circle cx="414.953" cy="557.066" r="5.05167" stroke-width="0.5" stroke="black" fill="green"/>
   </g>
   <g id="cell46">
  <circle cx="522.621" cy="611.192" r="8.41271" stroke-width="0.5" stroke="black" fill="green"/>
  <circle cx="522.621" cy="611.192" r="5.05167" stroke-width="0.5" stroke="black" fill="green"/>
   </g>
   <g id="cell47">
  <circle cx="505.729" cy="504.377" r="7.11815" stroke-width="0.5" stroke="black" fill="green"/>
  <circle cx="505.729" cy="504.377" r="4.31954" stroke-width="0.5" stroke="black" fill="green"/>
   </g>
   <g id="cell48">
  <circle cx="563.376" cy="602.325" r="8.41271" stroke-width="0.5" stroke="black" fill="green"/>
  <circle cx="563.376" cy="602.325" r="5.05167" stroke-width="0.5" stroke="black" fill="green"/>
   </g>
   <g id="cell49">
  <circle cx="429.826" cy="397.641" r="8.41271" stroke-width="0.5" stroke="black" fill="green"/>
  <circle cx="429.826" cy="397.641" r="5.05167" stroke-width="0.5" stroke="black" fill="green"/>
   </g>
   <g id="cell50">
  <circle cx="519.7" cy="518.658" r="7.86286" stroke-width="0.5" stroke="black" fill="cyan"/>
  <circle cx="519.7" cy="518.658" r="4.77207" stroke-width="0.5" stroke="black" fill="cyan"/>
   </g>
   <g id="cell51">
  <circle cx="398.721" cy="597.201" r="8.41271" stroke-width="0.5" stroke="black" fill="cyan"/>
  <circle cx="398.721" cy="597.201" r="5.05167" stroke-width="0.5" stroke="black" fill="cyan"/>
   </g>
   <g id="cell52">
  <circle cx="519.756" cy="424.761" r="8.41271" stroke-width="0.5" stroke="black" fill="cyan"/>
  <circle cx="519.756" cy="424.761" r="5.05167" stroke-width="0.5" stroke="black" fill="cyan"/>
   </g>
   <g id="cell53">
  <circle cx="572.903" cy="430.746" r="6.78181" stroke-width="0.5" stroke="black" fill="cyan"/>
  <circle cx="572.903" cy="430.746" r="4.08714" stroke-width="0.5" stroke="black" fill="cyan"/>
   </g>
   <g id="cell54">
  <circle cx="481.261" cy="425.613" r="7.33129" stroke-width="0.5" stroke="black" fill="cyan"/>
  <circle cx="481.261" cy="425.613" r="4.45516" stroke-width="0.5" stroke="black" fill="cyan"/>
   </g>
   <g id="cell55">
  <circle cx="523.973" cy="464.436" r="6.71395" stroke-width="0.5" stroke="black" fill="cyan"/>
  <circle cx="523.973" cy="464.436" r="4.09026" stroke-width="0.5" stroke="black" fill="cyan"/>
   </g>
   <g id="cell56">
  <circle cx="617.613" cy="522.333" r="8.41271" stroke-width="0.5" stroke="black" fill="cyan"/>
  <circle cx="617.613" cy="522.333" r="5.05167" stroke-width="0.5" stroke="black" fill="cyan"/>
   </g>
   <g id="cell57">
  <circle cx="416.924" cy="617.466" r="1.16344" stroke-width="0.5" stroke="black" fill="cyan"/>
  <circle cx="416.924" cy="617.466" r="1.15973" stroke-width="0.5" stroke="black" fill="black"/>
   </g>
   <g id="cell58">
  <circle cx="554.4" cy="483.124" r="8.41271" stroke-width="0.5" stroke="black" fill="cyan"/>
  <circle cx="554.4" cy="483.124" r="5.05167" stroke-width="0.5" stroke="black" fill="cyan"/>
   </g>
   <g id="cell59">
  <circle cx="385.463" cy="439.803" r="8.41271" stroke-width="0.5" stroke="black" fill="cyan"/>
  <circle cx="385.463" cy="439.803" r="5.05167" stroke-width="0.5" stroke="black" fill="cyan"/>
   </g>
   <g id="cell60">
  <circle cx="593.148" cy="473.642" r="8.41271" stroke-width="0.5" stroke="black" fill="cyan"/>
  <circle cx="593.148" cy="473.642" r="5.05167" stroke-width="0.5" stroke="black" fill="cyan"/>
   </g>
   <g id="cell61">
  <circle cx="553.284" cy="614.622" r="8.41271" stroke-width="0.5" stroke="black" fill="cyan"/>
  <circle cx="553.284" cy="614.622" r="5.05167" stroke-width="0.5" stroke="black" fill="cyan"/>
   </g>
   <g id="cell62">
  <circle cx="521.308" cy="450.883" r="8.1947" stroke-width="0.5" stroke="black" fill="cyan"/>
  <circle cx="521.308" cy="450.883" r="4.95246" stroke-width="0.5" stroke="black" fill="cyan"/>
   </g>
   <g id="cell63">
  <circle cx="575.167" cy="540.385" r="7.75912" stroke-width="0.5" stroke="black" fill="cyan"/>
  <circle cx="575.167" cy="540.385" r="4.71248" stroke-width="0.5" stroke="black" fill="cyan"/>
   </g>
   <g id="cell64">
  <circle cx="509.962" cy="636.825" r="8.41271" stroke-width="0.5" stroke="black" fill="cyan"/>
  <circle cx="509.962" cy="636.825" r="5.05167" stroke-width="0.5" stroke="black" fill="cyan"/>
   </g>
   <g id="cell65">
  <circle cx="546.668" cy="470.599" r="7.67987" stroke-width="0.5" stroke="black" fill="cyan"/>
  <circle cx="546.668" cy="470.599" r="4.66617" stroke-width="0.5" stroke="black" fill="cyan"/>
   </g>
   <g id="cell66">
  <circle cx="531.94" cy="533.41" r="7.27253" stroke-width="0.5" stroke="black" fill="cyan"/>
  <circle cx="531.94" cy="533.41" r="4.41835" stroke-width="0.5" stroke="black" fill="cyan"/>
   </g>
   <g id="cell67">
  <circle cx="354.711" cy="492.599" r="8.41271" stroke-width="0.5" stroke="black" fill="cyan"/>
  <circle cx="354.711" cy="492.599" r="5.05167" stroke-width="0.5" stroke="black" fill="cyan"/>
   </g>
   <g id="cell68">
  <circle cx="563.797" cy="551.127" r="8.41271" stroke-width="0.5" stroke="black" fill="cyan"/>
  <circle cx="563.797" cy="551.127" r="5.05167" stroke-width="0.5" stroke="black" fill="cyan"/>
   </g>
   <g id="cell69">
  <circle cx="441.447" cy="461.641" r="8.41271" stroke-width="0.5" stroke="black" fill="cyan"/>
  <circle cx="441.447" cy="461.641" r="5.05167" stroke-width="0.5" stroke="black" fill="cyan"/>
   </g>
   <g id="cell70">
  <circle cx="577.161" cy="475.04" r="8.41271" stroke-width="0.5" stroke="black" fill="cyan"/>
  <circle cx="577.161" cy="475.04" r="5.05167" stroke-width="0.5" stroke="black" fill="cyan"/>
   </g>
   <g id="cell71">
  <circle cx="377.712" cy="520.989" r="8.41271" stroke-width="0.5" stroke="black" fill="cyan"/>
  <circle cx="377.712" cy="520.989" r="5.05167" stroke-width="0.5" stroke="black" fill="cyan"/>
   </g>
   <g id="cell72">
  <circle cx="531.993" cy="511.17" r="7.3599" stroke-width="0.5" stroke="black" fill="cyan"/>
  <circle cx="531.993" cy="511.17" r="4.47294" stroke-width="0.5" stroke="black" fill="cyan"/>
   </g>
   <g id="cell73">
  <circle cx="363.338" cy="551.938" r="7.83019" stroke-width="0.5" stroke="black" fill="cyan"/>
  <circle cx="363.338" cy="551.938" r="4.75343" stroke-width="0.5" stroke="black" fill="cyan"/>
   </g>
   <g id="cell74">
  <circle cx="542.663" cy="444.922" r="8.41271" stroke-width="0.5" stroke="black" fill="cyan"/>
  <circle cx="542.663" cy="444.922" r="5.05167" stroke-width="0.5" stroke="black" fill="cyan"/>
   </g>
   <g id="cell75">
  <circle cx="529.029" cy="437.393" r="8.1947" stroke-width="0.5" stroke="black" fill="cyan"/>
  <circle cx="529.029" cy="437.393" r="4.95246" stroke-width="0.5" stroke="black" fill="cyan"/>
   </g>
   <g id="cell76">
  <circle cx="447.514" cy="380.93" r="6.76267" stroke-width="0.5" stroke="black" fill="green"/>
  <circle cx="447.514" cy="380.93" r="4.11565" stroke-width="0.5" stroke="black" fill="green"/>
   </g>
   <g id="cell77">
  <circle cx="473.148" cy="437.423" r="8.17502" stroke-width="0.5" stroke="black" fill="magenta"/>
  <circle cx="473.148" cy="437.423" r="4.94236" stroke-width="0.5" stroke="black" fill="magenta"/>
   </g>
   <g id="cell78">
  <circle cx="625.158" cy="461.497" r="7.52605" stroke-width="0.5" stroke="black" fill="green"/>
  <circle cx="625.158" cy="461.497" r="4.59395" stroke-width="0.5" stroke="black" fill="green"/>
   </g>
   <g id="cell79">
  <circle cx="516.691" cy="476.41" r="8.1218" stroke-width="0.5" stroke="black" fill="cyan"/>
  <circle cx="516.691" cy="476.41" r="4.91457" stroke-width="0.5" stroke="black" fill="cyan"/>
   </g>
   <g id="cell80">
  <circle cx="538.031" cy="612.253" r="7.93174" stroke-width="0.5" stroke="black" fill="green"/>
  <circle cx="538.031" cy="612.253" r="4.82282" stroke-width="0.5" stroke="black" fill="green"/>
   </g>
   <g id="cell81">
  <circle cx="547.232" cy="600.271" r="7.93174" stroke-width="0.5" stroke="black" fill="green"/>
  <circle cx="547.232" cy="600.271" r="4.82282" stroke-width="0.5" stroke="black" fill="green"/>
   </g>
   <g id="cell82">
  <circle cx="530.981" cy="557.011" r="8.04604" stroke-width="0.5" stroke="black" fill="magenta"/>
  <circle cx="530.981" cy="557.011" r="4.87399" stroke-width="0.5" stroke="black" fill="magenta"/>
   </g>
   <g id="cell83">
  <circle cx="634.727" cy="556.309" r="8.04604" stroke-width="0.5" stroke="black" fill="green"/>
  <circle cx="634.727" cy="556.309" r="4.87399" stroke-width="0.5" stroke="black" fill="green"/>
   </g>
   <g id="cell84">
  <circle cx="519.743" cy="503.765" r="7.86286" stroke-width="0.5" stroke="black" fill="cyan"/>
  <circle cx="519.743" cy="503.765" r="4.77207" stroke-width="0.5" stroke="black" fill="cyan"/>
   </g>
   <g id="cell85">
  <circle cx="354.249" cy="541.7" r="6.68091" stroke-width="0.5" stroke="black" fill="cyan"/>
  <circle cx="354.249" cy="541.7" r="4.09035" stroke-width="0.5" stroke="black" fill="cyan"/>
   </g>
   <g id="cell86">
  <circle cx="506.728" cy="525.25" r="7.81315" stroke-width="0.5" stroke="black" fill="magenta"/>
  <circle cx="506.728" cy="525.25" r="4.74367" stroke-width="0.5" stroke="black" fill="magenta"/>
   </g>
   <g id="cell87">
  <circle cx="576.571" cy="554.399" r="6.17688" stroke-width="0.5" stroke="black" fill="cyan"/>
  <circle cx="576.571" cy="554.399" r="3.75292" stroke-width="0.5" stroke="black" fill="cyan"/>
   </g>
   <g id="cell88">
  <circle cx="448.995" cy="531.638" r="7.70049" stroke-width="0.5" stroke="black" fill="magenta"/>
  <circle cx="448.995" cy="531.638" r="4.67828" stroke-width="0.5" stroke="black" fill="magenta"/>
   </g>
   <g id="cell89">
  <circle cx="551.643" cy="457.184" r="7.67987" stroke-width="0.5" stroke="black" fill="cyan"/>
  <circle cx="551.643" cy="457.184" r="4.66617" stroke-width="0.5" stroke="black" fill="cyan"/>
   </g>
   <g id="cell90">
  <circle cx="630.686" cy="474.646" r="7.52605" stroke-width="0.5" stroke="black" fill="green"/>
  <circle cx="630.686" cy="474.646" r="4.59395" stroke-width="0.5" stroke="black" fill="green"/>
   </g>
   <g id="cell91">
  <circle cx="544.232" cy="555.1" r="6.84749" stroke-width="0.5" stroke="black" fill="magenta"/>
  <circle cx="544.232" cy="555.1" r="4.21478" stroke-width="0.5" stroke="black" fill="magenta"/>
   </g>
   <g id="cell92">
  <circle cx="482.453" cy="549.355" r="7.49456" stroke-width="0.5" stroke="black" fill="green"/>
  <circle cx="482.453" cy="549.355" r="4.55548" stroke-width="0.5" stroke="black" fill="green"/>
   </g>
   <g id="cell93">
  <circle cx="537.198" cy="545.151" r="6.84749" stroke-width="0.5" stroke="black" fill="magenta"/>
  <circle cx="537.198" cy="545.151" r="4.21478" stroke-width="0.5" stroke="black" fill="magenta"/>
   </g>
   <g id="cell94">
  <circle cx="532.595" cy="497.336" r="7.3599" stroke-width="0.5" stroke="black" fill="cyan"/>
  <circle cx="532.595" cy="497.336" r="4.47294" stroke-width="0.5" stroke="black" fill="cyan"/>
   </g>
   <g id="cell95">
  <circle cx="467.538" cy="424.179" r="7.33129" stroke-width="0.5" stroke="black" fill="cyan"/>
  <circle cx="467.538" cy="424.179" r="4.45516" stroke-width="0.5" stroke="black" fill="cyan"/>
   </g>
   <g id="cell96">
  <circle cx="539.851" cy="522.362" r="7.27253" stroke-width="0.5" stroke="black" fill="cyan"/>
  <circle cx="539.851" cy="522.362" r="4.41835" stroke-width="0.5" stroke="black" fill="cyan"/>
   </g>
   <g id="cell97">
  <circle cx="423.101" cy="468.023" r="6.03609" stroke-width="0.5" stroke="black" fill="green"/>
  <circle cx="423.101" cy="468.023" r="3.69473" stroke-width="0.5" stroke="black" fill="green"/>
   </g>
   <g id="cell98">
  <circle cx="497.676" cy="515.062" r="7.11815" stroke-width="0.5" stroke="black" fill="green"/>
  <circle cx="497.676" cy="515.062" r="4.31954" stroke-width="0.5" stroke="black" fill="green"/>
   </g>
   <g id="cell99">
  <circle cx="357.67" cy="529.589" r="6.68091" stroke-width="0.5" stroke="black" fill="cyan"/>
  <circle cx="357.67" cy="529.589" r="4.09035" stroke-width="0.5" stroke="black" fill="cyan"/>
   </g>
   <g id="cell100">
  <circle cx="449.353" cy="393.592" r="6.76267" stroke-width="0.5" stroke="black" fill="green"/>
  <circle cx="449.353" cy="393.592" r="4.11565" stroke-width="0.5" stroke="black" fill="green"/>
   </g>
   <g id="cell101">
  <circle cx="533.589" cy="471.84" r="6.71395" stroke-width="0.5" stroke="black" fill="cyan"/>
  <circle cx="533.589" cy="471.84" r="4.09026" stroke-width="0.5" stroke="black" fill="cyan"/>
   </g>
   <g id="cell102">
  <circle cx="433.413" cy="472.775" r="6.03609" stroke-width="0.5" stroke="black" fill="green"/>
  <circle cx="433.413" cy="472.775" r="3.69473" stroke-width="0.5" stroke="black" fill="green"/>
   </g>
   <g id="cell103">
  <circle cx="572.668" cy="443.584" r="6.78181" stroke-width="0.5" stroke="black" fill="cyan"/>
  <circle cx="572.668" cy="443.584" r="4.08714" stroke-width="0.5" stroke="black" fill="cyan"/>
   </g>
   <g id="cell104">
  <circle cx="587.876" cy="553.938" r="6.17688" stroke-width="0.5" stroke="black" fill="cyan"/>
  <circle cx="587.876" cy="553.938" r="3.75292" stroke-width="0.5" stroke="black" fill="cyan"/>
   </g>
  </g>
 </g>
  <rect x="775" y="1035" width="200" height="10" stroke-width="2" stroke="rgb(255,255,255)" fill="rgb(0,0,0)"/>
  <text x="781.25" y="1028.75"
   font-family="Arial" font-size="25" fill="black" >
   200 &#956;m
  </text>
  <text x="25" y="1045"
   font-family="Arial" font-size="18.75" fill="black" >
   0 days, 0 hours, 0 minutes, and 10.1611 seconds
  </text>
  <rect x="0" y="70" width="1000" height="1000" stroke-width="2" stroke="rgb(0,0,0)" fill="none"/>
</svg>
