<?xml version="1.0" encoding="UTF-8" standalone="no"?>
<!-- Created with PhysiCell (http://PhysiCell.MathCancer.org/) -->
<svg 
 xmlns:dc="http://purl.org/dc/elements/1.1/" 
 xmlns:cc="http://creativecommons.org/ns#" 
 xmlns:rdf="http://www.w3.org/1999/02/22-rdf-syntax-ns#" 
 xmlns:svg="http://www.w3.org/2000/svg" 
 xmlns="http://www.w3.org/2000/svg" 
 version="1.1" 
 width="1000" 
 height="1070" 
 id="svg2">
  <rect x="0" y="0" width="1000" height="1070" stroke-width="2" stroke="white" fill="white"/>
  <text x="12.5" y="30"
   font-family="Arial" font-size="25" fill="black" >
   Current time: 0 days, 7 hours, and 42.00 minutes, z = 0.00 &#956;m
  </text>
  <text x="12.5" y="57.5"
   font-family="Arial" font-size="23.75" fill="black" >
   100 agents
  </text>
 <g id="tissue" 
    transform="translate(0,1070) scale(1,-1)">
  <g id="ECM">
  </g>
  <g id="cells">
   <g id="cell0">
  <circle cx="518.736" cy="532.791" r="7.51976" stroke-width="0.5" stroke="black" fill="magenta"/>
  <circle cx="518.736" cy="532.791" r="4.57072" stroke-width="0.5" stroke="black" fill="magenta"/>
   </g>
   <g id="cell1">
  <circle cx="602.492" cy="526.171" r="8.41271" stroke-width="0.5" stroke="black" fill="magenta"/>
  <circle cx="602.492" cy="526.171" r="5.05167" stroke-width="0.5" stroke="black" fill="magenta"/>
   </g>
   <g id="cell2">
  <circle cx="511.348" cy="600.579" r="8.41271" stroke-width="0.5" stroke="black" fill="magenta"/>
  <circle cx="511.348" cy="600.579" r="5.05167" stroke-width="0.5" stroke="black" fill="magenta"/>
   </g>
   <g id="cell3">
  <circle cx="525.012" cy="543.997" r="6.87707" stroke-width="0.5" stroke="black" fill="magenta"/>
  <circle cx="525.012" cy="543.997" r="4.21258" stroke-width="0.5" stroke="black" fill="magenta"/>
   </g>
   <g id="cell4">
  <circle cx="487.902" cy="438.347" r="8.05651" stroke-width="0.5" stroke="black" fill="magenta"/>
  <circle cx="487.902" cy="438.347" r="4.87966" stroke-width="0.5" stroke="black" fill="magenta"/>
   </g>
   <g id="cell5">
  <circle cx="465.032" cy="493.3" r="8.41271" stroke-width="0.5" stroke="black" fill="magenta"/>
  <circle cx="465.032" cy="493.3" r="5.05167" stroke-width="0.5" stroke="black" fill="magenta"/>
   </g>
   <g id="cell6">
  <circle cx="595.637" cy="512.669" r="8.41271" stroke-width="0.5" stroke="black" fill="magenta"/>
  <circle cx="595.637" cy="512.669" r="5.05167" stroke-width="0.5" stroke="black" fill="magenta"/>
   </g>
   <g id="cell7">
  <circle cx="511.782" cy="462.27" r="8.41271" stroke-width="0.5" stroke="black" fill="magenta"/>
  <circle cx="511.782" cy="462.27" r="5.05167" stroke-width="0.5" stroke="black" fill="magenta"/>
   </g>
   <g id="cell8">
  <circle cx="376.019" cy="544.317" r="8.41271" stroke-width="0.5" stroke="black" fill="magenta"/>
  <circle cx="376.019" cy="544.317" r="5.05167" stroke-width="0.5" stroke="black" fill="magenta"/>
   </g>
   <g id="cell9">
  <circle cx="460.472" cy="599.786" r="8.41271" stroke-width="0.5" stroke="black" fill="magenta"/>
  <circle cx="460.472" cy="599.786" r="5.05167" stroke-width="0.5" stroke="black" fill="magenta"/>
   </g>
   <g id="cell10">
  <circle cx="583.447" cy="392.105" r="8.41271" stroke-width="0.5" stroke="black" fill="magenta"/>
  <circle cx="583.447" cy="392.105" r="5.05167" stroke-width="0.5" stroke="black" fill="magenta"/>
   </g>
   <g id="cell11">
  <circle cx="589.748" cy="590.273" r="8.41271" stroke-width="0.5" stroke="black" fill="magenta"/>
  <circle cx="589.748" cy="590.273" r="5.05167" stroke-width="0.5" stroke="black" fill="magenta"/>
   </g>
   <g id="cell12">
  <circle cx="506.7" cy="586.185" r="8.41271" stroke-width="0.5" stroke="black" fill="magenta"/>
  <circle cx="506.7" cy="586.185" r="5.05167" stroke-width="0.5" stroke="black" fill="magenta"/>
   </g>
   <g id="cell13">
  <circle cx="386.194" cy="568.228" r="8.41271" stroke-width="0.5" stroke="black" fill="magenta"/>
  <circle cx="386.194" cy="568.228" r="5.05167" stroke-width="0.5" stroke="black" fill="magenta"/>
   </g>
   <g id="cell14">
  <circle cx="528.561" cy="399.183" r="8.41271" stroke-width="0.5" stroke="black" fill="magenta"/>
  <circle cx="528.561" cy="399.183" r="5.05167" stroke-width="0.5" stroke="black" fill="magenta"/>
   </g>
   <g id="cell15">
  <circle cx="379.65" cy="475.1" r="8.41271" stroke-width="0.5" stroke="black" fill="magenta"/>
  <circle cx="379.65" cy="475.1" r="5.05167" stroke-width="0.5" stroke="black" fill="magenta"/>
   </g>
   <g id="cell16">
  <circle cx="428.96" cy="413.217" r="8.41271" stroke-width="0.5" stroke="black" fill="magenta"/>
  <circle cx="428.96" cy="413.217" r="5.05167" stroke-width="0.5" stroke="black" fill="magenta"/>
   </g>
   <g id="cell17">
  <circle cx="569.852" cy="488.682" r="8.41271" stroke-width="0.5" stroke="black" fill="magenta"/>
  <circle cx="569.852" cy="488.682" r="5.05167" stroke-width="0.5" stroke="black" fill="magenta"/>
   </g>
   <g id="cell18">
  <circle cx="517.415" cy="388.932" r="8.41271" stroke-width="0.5" stroke="black" fill="magenta"/>
  <circle cx="517.415" cy="388.932" r="5.05167" stroke-width="0.5" stroke="black" fill="magenta"/>
   </g>
   <g id="cell19">
  <circle cx="455.95" cy="542.93" r="7.3599" stroke-width="0.5" stroke="black" fill="magenta"/>
  <circle cx="455.95" cy="542.93" r="4.47294" stroke-width="0.5" stroke="black" fill="magenta"/>
   </g>
   <g id="cell20">
  <circle cx="531.107" cy="414.109" r="8.41271" stroke-width="0.5" stroke="black" fill="magenta"/>
  <circle cx="531.107" cy="414.109" r="5.05167" stroke-width="0.5" stroke="black" fill="magenta"/>
   </g>
   <g id="cell21">
  <circle cx="464.368" cy="634.574" r="8.41271" stroke-width="0.5" stroke="black" fill="magenta"/>
  <circle cx="464.368" cy="634.574" r="5.05167" stroke-width="0.5" stroke="black" fill="magenta"/>
   </g>
   <g id="cell22">
  <circle cx="556.882" cy="496.398" r="8.41271" stroke-width="0.5" stroke="black" fill="magenta"/>
  <circle cx="556.882" cy="496.398" r="5.05167" stroke-width="0.5" stroke="black" fill="magenta"/>
   </g>
   <g id="cell23">
  <circle cx="536.864" cy="482.035" r="8.41271" stroke-width="0.5" stroke="black" fill="magenta"/>
  <circle cx="536.864" cy="482.035" r="5.05167" stroke-width="0.5" stroke="black" fill="magenta"/>
   </g>
   <g id="cell24">
  <circle cx="559.285" cy="379.797" r="8.41271" stroke-width="0.5" stroke="black" fill="magenta"/>
  <circle cx="559.285" cy="379.797" r="5.05167" stroke-width="0.5" stroke="black" fill="magenta"/>
   </g>
   <g id="cell25">
  <circle cx="645.362" cy="545.566" r="7.86286" stroke-width="0.5" stroke="black" fill="green"/>
  <circle cx="645.362" cy="545.566" r="4.77207" stroke-width="0.5" stroke="black" fill="green"/>
   </g>
   <g id="cell26">
  <circle cx="551.113" cy="401.251" r="8.41271" stroke-width="0.5" stroke="black" fill="green"/>
  <circle cx="551.113" cy="401.251" r="5.05167" stroke-width="0.5" stroke="black" fill="green"/>
   </g>
   <g id="cell27">
  <circle cx="462.699" cy="390.663" r="8.07654" stroke-width="0.5" stroke="black" fill="green"/>
  <circle cx="462.699" cy="390.663" r="4.89046" stroke-width="0.5" stroke="black" fill="green"/>
   </g>
   <g id="cell28">
  <circle cx="434.433" cy="530.771" r="8.41271" stroke-width="0.5" stroke="black" fill="green"/>
  <circle cx="434.433" cy="530.771" r="5.05167" stroke-width="0.5" stroke="black" fill="green"/>
   </g>
   <g id="cell29">
  <circle cx="450.342" cy="517.182" r="8.41271" stroke-width="0.5" stroke="black" fill="green"/>
  <circle cx="450.342" cy="517.182" r="5.05167" stroke-width="0.5" stroke="black" fill="green"/>
   </g>
   <g id="cell30">
  <circle cx="481.13" cy="535.596" r="7.08639" stroke-width="0.5" stroke="black" fill="green"/>
  <circle cx="481.13" cy="535.596" r="4.29876" stroke-width="0.5" stroke="black" fill="green"/>
   </g>
   <g id="cell31">
  <circle cx="412.757" cy="541.193" r="8.41271" stroke-width="0.5" stroke="black" fill="green"/>
  <circle cx="412.757" cy="541.193" r="5.05167" stroke-width="0.5" stroke="black" fill="green"/>
   </g>
   <g id="cell32">
  <circle cx="421.699" cy="480.588" r="6.75639" stroke-width="0.5" stroke="black" fill="green"/>
  <circle cx="421.699" cy="480.588" r="4.06813" stroke-width="0.5" stroke="black" fill="green"/>
   </g>
   <g id="cell33">
  <circle cx="495.212" cy="424.771" r="8.41271" stroke-width="0.5" stroke="black" fill="green"/>
  <circle cx="495.212" cy="424.771" r="5.05167" stroke-width="0.5" stroke="black" fill="green"/>
   </g>
   <g id="cell34">
  <circle cx="397.088" cy="450.831" r="8.41271" stroke-width="0.5" stroke="black" fill="green"/>
  <circle cx="397.088" cy="450.831" r="5.05167" stroke-width="0.5" stroke="black" fill="green"/>
   </g>
   <g id="cell35">
  <circle cx="550.986" cy="542.982" r="8.41271" stroke-width="0.5" stroke="black" fill="green"/>
  <circle cx="550.986" cy="542.982" r="5.05167" stroke-width="0.5" stroke="black" fill="green"/>
   </g>
   <g id="cell36">
  <circle cx="391.486" cy="582.903" r="8.41271" stroke-width="0.5" stroke="black" fill="green"/>
  <circle cx="391.486" cy="582.903" r="5.05167" stroke-width="0.5" stroke="black" fill="green"/>
   </g>
   <g id="cell37">
  <circle cx="639.211" cy="457.428" r="8.02418" stroke-width="0.5" stroke="black" fill="green"/>
  <circle cx="639.211" cy="457.428" r="4.86209" stroke-width="0.5" stroke="black" fill="green"/>
   </g>
   <g id="cell38">
  <circle cx="531.894" cy="598.398" r="7.95045" stroke-width="0.5" stroke="black" fill="green"/>
  <circle cx="531.894" cy="598.398" r="4.82139" stroke-width="0.5" stroke="black" fill="green"/>
   </g>
   <g id="cell39">
  <circle cx="613.458" cy="490.595" r="8.41271" stroke-width="0.5" stroke="black" fill="green"/>
  <circle cx="613.458" cy="490.595" r="5.05167" stroke-width="0.5" stroke="black" fill="green"/>
   </g>
   <g id="cell40">
  <circle cx="485.348" cy="571.779" r="8.41271" stroke-width="0.5" stroke="black" fill="green"/>
  <circle cx="485.348" cy="571.779" r="5.05167" stroke-width="0.5" stroke="black" fill="green"/>
   </g>
   <g id="cell41">
  <circle cx="364.925" cy="480.252" r="8.41271" stroke-width="0.5" stroke="black" fill="green"/>
  <circle cx="364.925" cy="480.252" r="5.05167" stroke-width="0.5" stroke="black" fill="green"/>
   </g>
   <g id="cell42">
  <circle cx="438.842" cy="494.268" r="8.41271" stroke-width="0.5" stroke="black" fill="green"/>
  <circle cx="438.842" cy="494.268" r="5.05167" stroke-width="0.5" stroke="black" fill="green"/>
   </g>
   <g id="cell43">
  <circle cx="559.066" cy="445.606" r="8.41271" stroke-width="0.5" stroke="black" fill="green"/>
  <circle cx="559.066" cy="445.606" r="5.05167" stroke-width="0.5" stroke="black" fill="green"/>
   </g>
   <g id="cell44">
  <circle cx="475.857" cy="624.021" r="8.41271" stroke-width="0.5" stroke="black" fill="green"/>
  <circle cx="475.857" cy="624.021" r="5.05167" stroke-width="0.5" stroke="black" fill="green"/>
   </g>
   <g id="cell45">
  <circle cx="414.953" cy="557.066" r="8.41271" stroke-width="0.5" stroke="black" fill="green"/>
  <circle cx="414.953" cy="557.066" r="5.05167" stroke-width="0.5" stroke="black" fill="green"/>
   </g>
   <g id="cell46">
  <circle cx="522.792" cy="611.09" r="8.41271" stroke-width="0.5" stroke="black" fill="green"/>
  <circle cx="522.792" cy="611.09" r="5.05167" stroke-width="0.5" stroke="black" fill="green"/>
   </g>
   <g id="cell47">
  <circle cx="506.384" cy="505.034" r="6.71158" stroke-width="0.5" stroke="black" fill="green"/>
  <circle cx="506.384" cy="505.034" r="4.03435" stroke-width="0.5" stroke="black" fill="green"/>
   </g>
   <g id="cell48">
  <circle cx="564.015" cy="602.737" r="8.41271" stroke-width="0.5" stroke="black" fill="green"/>
  <circle cx="564.015" cy="602.737" r="5.05167" stroke-width="0.5" stroke="black" fill="green"/>
   </g>
   <g id="cell49">
  <circle cx="429.826" cy="397.641" r="8.41271" stroke-width="0.5" stroke="black" fill="green"/>
  <circle cx="429.826" cy="397.641" r="5.05167" stroke-width="0.5" stroke="black" fill="green"/>
   </g>
   <g id="cell50">
  <circle cx="519.963" cy="519.023" r="7.59183" stroke-width="0.5" stroke="black" fill="cyan"/>
  <circle cx="519.963" cy="519.023" r="4.61399" stroke-width="0.5" stroke="black" fill="cyan"/>
   </g>
   <g id="cell51">
  <circle cx="398.721" cy="597.201" r="8.41271" stroke-width="0.5" stroke="black" fill="cyan"/>
  <circle cx="398.721" cy="597.201" r="5.05167" stroke-width="0.5" stroke="black" fill="cyan"/>
   </g>
   <g id="cell52">
  <circle cx="520.067" cy="425.121" r="8.41271" stroke-width="0.5" stroke="black" fill="cyan"/>
  <circle cx="520.067" cy="425.121" r="5.05167" stroke-width="0.5" stroke="black" fill="cyan"/>
   </g>
   <g id="cell53">
  <circle cx="571.532" cy="435.809" r="8.41271" stroke-width="0.5" stroke="black" fill="cyan"/>
  <circle cx="571.532" cy="435.809" r="5.05167" stroke-width="0.5" stroke="black" fill="cyan"/>
   </g>
   <g id="cell54">
  <circle cx="480.994" cy="426.47" r="6.89675" stroke-width="0.5" stroke="black" fill="cyan"/>
  <circle cx="480.994" cy="426.47" r="4.17024" stroke-width="0.5" stroke="black" fill="cyan"/>
   </g>
   <g id="cell55">
  <circle cx="529.729" cy="468.247" r="7.97646" stroke-width="0.5" stroke="black" fill="cyan"/>
  <circle cx="529.729" cy="468.247" r="4.83584" stroke-width="0.5" stroke="black" fill="cyan"/>
   </g>
   <g id="cell56">
  <circle cx="617.613" cy="522.333" r="8.41271" stroke-width="0.5" stroke="black" fill="cyan"/>
  <circle cx="617.613" cy="522.333" r="5.05167" stroke-width="0.5" stroke="black" fill="cyan"/>
   </g>
   <g id="cell57">
  <circle cx="416.924" cy="617.466" r="1.38109" stroke-width="0.5" stroke="black" fill="cyan"/>
  <circle cx="416.924" cy="617.466" r="1.3695" stroke-width="0.5" stroke="black" fill="black"/>
   </g>
   <g id="cell58">
  <circle cx="552.845" cy="481.442" r="8.41271" stroke-width="0.5" stroke="black" fill="cyan"/>
  <circle cx="552.845" cy="481.442" r="5.05167" stroke-width="0.5" stroke="black" fill="cyan"/>
   </g>
   <g id="cell59">
  <circle cx="385.463" cy="439.803" r="8.41271" stroke-width="0.5" stroke="black" fill="cyan"/>
  <circle cx="385.463" cy="439.803" r="5.05167" stroke-width="0.5" stroke="black" fill="cyan"/>
   </g>
   <g id="cell60">
  <circle cx="593.167" cy="473.641" r="8.41271" stroke-width="0.5" stroke="black" fill="cyan"/>
  <circle cx="593.167" cy="473.641" r="5.05167" stroke-width="0.5" stroke="black" fill="cyan"/>
   </g>
   <g id="cell61">
  <circle cx="553.014" cy="614.285" r="8.41271" stroke-width="0.5" stroke="black" fill="cyan"/>
  <circle cx="553.014" cy="614.285" r="5.05167" stroke-width="0.5" stroke="black" fill="cyan"/>
   </g>
   <g id="cell62">
  <circle cx="521.638" cy="450.696" r="8.08613" stroke-width="0.5" stroke="black" fill="cyan"/>
  <circle cx="521.638" cy="450.696" r="4.8956" stroke-width="0.5" stroke="black" fill="cyan"/>
   </g>
   <g id="cell63">
  <circle cx="575.284" cy="540.559" r="7.44242" stroke-width="0.5" stroke="black" fill="cyan"/>
  <circle cx="575.284" cy="540.559" r="4.52373" stroke-width="0.5" stroke="black" fill="cyan"/>
   </g>
   <g id="cell64">
  <circle cx="509.962" cy="636.825" r="8.41271" stroke-width="0.5" stroke="black" fill="cyan"/>
  <circle cx="509.962" cy="636.825" r="5.05167" stroke-width="0.5" stroke="black" fill="cyan"/>
   </g>
   <g id="cell65">
  <circle cx="544.036" cy="469.537" r="7.33129" stroke-width="0.5" stroke="black" fill="cyan"/>
  <circle cx="544.036" cy="469.537" r="4.45516" stroke-width="0.5" stroke="black" fill="cyan"/>
   </g>
   <g id="cell66">
  <circle cx="532.008" cy="533.76" r="6.83713" stroke-width="0.5" stroke="black" fill="cyan"/>
  <circle cx="532.008" cy="533.76" r="4.12773" stroke-width="0.5" stroke="black" fill="cyan"/>
   </g>
   <g id="cell67">
  <circle cx="354.711" cy="492.599" r="8.41271" stroke-width="0.5" stroke="black" fill="cyan"/>
  <circle cx="354.711" cy="492.599" r="5.05167" stroke-width="0.5" stroke="black" fill="cyan"/>
   </g>
   <g id="cell68">
  <circle cx="564.926" cy="551.585" r="8.41271" stroke-width="0.5" stroke="black" fill="cyan"/>
  <circle cx="564.926" cy="551.585" r="5.05167" stroke-width="0.5" stroke="black" fill="cyan"/>
   </g>
   <g id="cell69">
  <circle cx="440.225" cy="463.066" r="8.41271" stroke-width="0.5" stroke="black" fill="cyan"/>
  <circle cx="440.225" cy="463.066" r="5.05167" stroke-width="0.5" stroke="black" fill="cyan"/>
   </g>
   <g id="cell70">
  <circle cx="577.205" cy="474.947" r="8.41271" stroke-width="0.5" stroke="black" fill="cyan"/>
  <circle cx="577.205" cy="474.947" r="5.05167" stroke-width="0.5" stroke="black" fill="cyan"/>
   </g>
   <g id="cell71">
  <circle cx="377.712" cy="520.989" r="8.41271" stroke-width="0.5" stroke="black" fill="cyan"/>
  <circle cx="377.712" cy="520.989" r="5.05167" stroke-width="0.5" stroke="black" fill="cyan"/>
   </g>
   <g id="cell72">
  <circle cx="531.43" cy="511.709" r="6.92764" stroke-width="0.5" stroke="black" fill="cyan"/>
  <circle cx="531.43" cy="511.709" r="4.1918" stroke-width="0.5" stroke="black" fill="cyan"/>
   </g>
   <g id="cell73">
  <circle cx="363.014" cy="551.211" r="7.54436" stroke-width="0.5" stroke="black" fill="cyan"/>
  <circle cx="363.014" cy="551.211" r="4.58555" stroke-width="0.5" stroke="black" fill="cyan"/>
   </g>
   <g id="cell74">
  <circle cx="543.028" cy="445.255" r="8.41271" stroke-width="0.5" stroke="black" fill="cyan"/>
  <circle cx="543.028" cy="445.255" r="5.05167" stroke-width="0.5" stroke="black" fill="cyan"/>
   </g>
   <g id="cell75">
  <circle cx="529.484" cy="437.567" r="8.08613" stroke-width="0.5" stroke="black" fill="cyan"/>
  <circle cx="529.484" cy="437.567" r="4.8956" stroke-width="0.5" stroke="black" fill="cyan"/>
   </g>
   <g id="cell76">
  <circle cx="448.33" cy="385.233" r="8.07654" stroke-width="0.5" stroke="black" fill="green"/>
  <circle cx="448.33" cy="385.233" r="4.89046" stroke-width="0.5" stroke="black" fill="green"/>
   </g>
   <g id="cell77">
  <circle cx="473.275" cy="437.772" r="8.05651" stroke-width="0.5" stroke="black" fill="magenta"/>
  <circle cx="473.275" cy="437.772" r="4.87966" stroke-width="0.5" stroke="black" fill="magenta"/>
   </g>
   <g id="cell78">
  <circle cx="625.559" cy="461.804" r="7.07851" stroke-width="0.5" stroke="black" fill="green"/>
  <circle cx="625.559" cy="461.804" r="4.33061" stroke-width="0.5" stroke="black" fill="green"/>
   </g>
   <g id="cell79">
  <circle cx="517.178" cy="476.416" r="7.97646" stroke-width="0.5" stroke="black" fill="cyan"/>
  <circle cx="517.178" cy="476.416" r="4.83584" stroke-width="0.5" stroke="black" fill="cyan"/>
   </g>
   <g id="cell80">
  <circle cx="537.976" cy="611.945" r="7.68319" stroke-width="0.5" stroke="black" fill="green"/>
  <circle cx="537.976" cy="611.945" r="4.6874" stroke-width="0.5" stroke="black" fill="green"/>
   </g>
   <g id="cell81">
  <circle cx="546.756" cy="600.275" r="7.68319" stroke-width="0.5" stroke="black" fill="green"/>
  <circle cx="546.756" cy="600.275" r="4.6874" stroke-width="0.5" stroke="black" fill="green"/>
   </g>
   <g id="cell82">
  <circle cx="530.796" cy="555.646" r="7.86286" stroke-width="0.5" stroke="black" fill="magenta"/>
  <circle cx="530.796" cy="555.646" r="4.77207" stroke-width="0.5" stroke="black" fill="magenta"/>
   </g>
   <g id="cell83">
  <circle cx="634.851" cy="556.185" r="7.86286" stroke-width="0.5" stroke="black" fill="green"/>
  <circle cx="634.851" cy="556.185" r="4.77207" stroke-width="0.5" stroke="black" fill="green"/>
   </g>
   <g id="cell84">
  <circle cx="519.75" cy="504.711" r="7.59183" stroke-width="0.5" stroke="black" fill="cyan"/>
  <circle cx="519.75" cy="504.711" r="4.61399" stroke-width="0.5" stroke="black" fill="cyan"/>
   </g>
   <g id="cell85">
  <circle cx="354.995" cy="541.437" r="6.00748" stroke-width="0.5" stroke="black" fill="cyan"/>
  <circle cx="354.995" cy="541.437" r="3.65289" stroke-width="0.5" stroke="black" fill="cyan"/>
   </g>
   <g id="cell86">
  <circle cx="507.529" cy="525.238" r="7.51976" stroke-width="0.5" stroke="black" fill="magenta"/>
  <circle cx="507.529" cy="525.238" r="4.57072" stroke-width="0.5" stroke="black" fill="magenta"/>
   </g>
   <g id="cell87">
  <circle cx="579.938" cy="553.872" r="7.44242" stroke-width="0.5" stroke="black" fill="cyan"/>
  <circle cx="579.938" cy="553.872" r="4.52373" stroke-width="0.5" stroke="black" fill="cyan"/>
   </g>
   <g id="cell88">
  <circle cx="448.999" cy="531.706" r="7.3599" stroke-width="0.5" stroke="black" fill="magenta"/>
  <circle cx="448.999" cy="531.706" r="4.47294" stroke-width="0.5" stroke="black" fill="magenta"/>
   </g>
   <g id="cell89">
  <circle cx="550.917" cy="457.831" r="7.33129" stroke-width="0.5" stroke="black" fill="cyan"/>
  <circle cx="550.917" cy="457.831" r="4.45516" stroke-width="0.5" stroke="black" fill="cyan"/>
   </g>
   <g id="cell90">
  <circle cx="630.529" cy="474.266" r="7.07851" stroke-width="0.5" stroke="black" fill="green"/>
  <circle cx="630.529" cy="474.266" r="4.33061" stroke-width="0.5" stroke="black" fill="green"/>
   </g>
   <g id="cell91">
  <circle cx="542.926" cy="553.408" r="5.99997" stroke-width="0.5" stroke="black" fill="magenta"/>
  <circle cx="542.926" cy="553.408" r="3.70263" stroke-width="0.5" stroke="black" fill="magenta"/>
   </g>
   <g id="cell92">
  <circle cx="482.416" cy="548.976" r="7.08639" stroke-width="0.5" stroke="black" fill="green"/>
  <circle cx="482.416" cy="548.976" r="4.29876" stroke-width="0.5" stroke="black" fill="green"/>
   </g>
   <g id="cell93">
  <circle cx="536.816" cy="544.558" r="5.99997" stroke-width="0.5" stroke="black" fill="magenta"/>
  <circle cx="536.816" cy="544.558" r="3.70263" stroke-width="0.5" stroke="black" fill="magenta"/>
   </g>
   <g id="cell94">
  <circle cx="532.158" cy="498.722" r="6.92764" stroke-width="0.5" stroke="black" fill="cyan"/>
  <circle cx="532.158" cy="498.722" r="4.1918" stroke-width="0.5" stroke="black" fill="cyan"/>
   </g>
   <g id="cell95">
  <circle cx="468.518" cy="423.394" r="6.89675" stroke-width="0.5" stroke="black" fill="cyan"/>
  <circle cx="468.518" cy="423.394" r="4.17024" stroke-width="0.5" stroke="black" fill="cyan"/>
   </g>
   <g id="cell96">
  <circle cx="537.928" cy="522.664" r="6.83713" stroke-width="0.5" stroke="black" fill="cyan"/>
  <circle cx="537.928" cy="522.664" r="4.12773" stroke-width="0.5" stroke="black" fill="cyan"/>
   </g>
   <g id="cell97">
  <circle cx="427.357" cy="469.213" r="6.75639" stroke-width="0.5" stroke="black" fill="green"/>
  <circle cx="427.357" cy="469.213" r="4.06813" stroke-width="0.5" stroke="black" fill="green"/>
   </g>
   <g id="cell98">
  <circle cx="498.985" cy="515.275" r="6.71158" stroke-width="0.5" stroke="black" fill="green"/>
  <circle cx="498.985" cy="515.275" r="4.03435" stroke-width="0.5" stroke="black" fill="green"/>
   </g>
   <g id="cell99">
  <circle cx="357.447" cy="530.466" r="6.00748" stroke-width="0.5" stroke="black" fill="cyan"/>
  <circle cx="357.447" cy="530.466" r="3.65289" stroke-width="0.5" stroke="black" fill="cyan"/>
   </g>
  </g>
 </g>
  <rect x="775" y="1035" width="200" height="10" stroke-width="2" stroke="rgb(255,255,255)" fill="rgb(0,0,0)"/>
  <text x="781.25" y="1028.75"
   font-family="Arial" font-size="25" fill="black" >
   200 &#956;m
  </text>
  <text x="25" y="1045"
   font-family="Arial" font-size="18.75" fill="black" >
   0 days, 0 hours, 0 minutes, and 8.5975 seconds
  </text>
  <rect x="0" y="70" width="1000" height="1000" stroke-width="2" stroke="rgb(0,0,0)" fill="none"/>
</svg>
