<?xml version="1.0" encoding="UTF-8" standalone="no"?>
<!-- Created with PhysiCell (http://PhysiCell.MathCancer.org/) -->
<svg 
 xmlns:dc="http://purl.org/dc/elements/1.1/" 
 xmlns:cc="http://creativecommons.org/ns#" 
 xmlns:rdf="http://www.w3.org/1999/02/22-rdf-syntax-ns#" 
 xmlns:svg="http://www.w3.org/2000/svg" 
 xmlns="http://www.w3.org/2000/svg" 
 version="1.1" 
 width="1000" 
 height="1070" 
 id="svg2">
  <rect x="0" y="0" width="1000" height="1070" stroke-width="2" stroke="white" fill="white"/>
  <text x="12.5" y="30"
   font-family="Arial" font-size="25" fill="black" >
   Current time: 0 days, 6 hours, and 57.00 minutes, z = 0.00 &#956;m
  </text>
  <text x="12.5" y="57.5"
   font-family="Arial" font-size="23.75" fill="black" >
   97 agents
  </text>
 <g id="tissue" 
    transform="translate(0,1070) scale(1,-1)">
  <g id="ECM">
  </g>
  <g id="cells">
   <g id="cell0">
  <circle cx="518.722" cy="532.518" r="7.33129" stroke-width="0.5" stroke="black" fill="magenta"/>
  <circle cx="518.722" cy="532.518" r="4.45516" stroke-width="0.5" stroke="black" fill="magenta"/>
   </g>
   <g id="cell1">
  <circle cx="602.492" cy="526.172" r="8.41271" stroke-width="0.5" stroke="black" fill="magenta"/>
  <circle cx="602.492" cy="526.172" r="5.05167" stroke-width="0.5" stroke="black" fill="magenta"/>
   </g>
   <g id="cell2">
  <circle cx="511.334" cy="600.66" r="8.41271" stroke-width="0.5" stroke="black" fill="magenta"/>
  <circle cx="511.334" cy="600.66" r="5.05167" stroke-width="0.5" stroke="black" fill="magenta"/>
   </g>
   <g id="cell3">
  <circle cx="526.625" cy="541.725" r="6.54587" stroke-width="0.5" stroke="black" fill="magenta"/>
  <circle cx="526.625" cy="541.725" r="4.00781" stroke-width="0.5" stroke="black" fill="magenta"/>
   </g>
   <g id="cell4">
  <circle cx="487.531" cy="438.14" r="7.97646" stroke-width="0.5" stroke="black" fill="magenta"/>
  <circle cx="487.531" cy="438.14" r="4.83584" stroke-width="0.5" stroke="black" fill="magenta"/>
   </g>
   <g id="cell5">
  <circle cx="465.032" cy="493.3" r="8.41271" stroke-width="0.5" stroke="black" fill="magenta"/>
  <circle cx="465.032" cy="493.3" r="5.05167" stroke-width="0.5" stroke="black" fill="magenta"/>
   </g>
   <g id="cell6">
  <circle cx="595.637" cy="512.669" r="8.41271" stroke-width="0.5" stroke="black" fill="magenta"/>
  <circle cx="595.637" cy="512.669" r="5.05167" stroke-width="0.5" stroke="black" fill="magenta"/>
   </g>
   <g id="cell7">
  <circle cx="511.58" cy="462.022" r="8.41271" stroke-width="0.5" stroke="black" fill="magenta"/>
  <circle cx="511.58" cy="462.022" r="5.05167" stroke-width="0.5" stroke="black" fill="magenta"/>
   </g>
   <g id="cell8">
  <circle cx="375.911" cy="544.404" r="8.41271" stroke-width="0.5" stroke="black" fill="magenta"/>
  <circle cx="375.911" cy="544.404" r="5.05167" stroke-width="0.5" stroke="black" fill="magenta"/>
   </g>
   <g id="cell9">
  <circle cx="460.472" cy="599.786" r="8.41271" stroke-width="0.5" stroke="black" fill="magenta"/>
  <circle cx="460.472" cy="599.786" r="5.05167" stroke-width="0.5" stroke="black" fill="magenta"/>
   </g>
   <g id="cell10">
  <circle cx="583.447" cy="392.105" r="8.41271" stroke-width="0.5" stroke="black" fill="magenta"/>
  <circle cx="583.447" cy="392.105" r="5.05167" stroke-width="0.5" stroke="black" fill="magenta"/>
   </g>
   <g id="cell11">
  <circle cx="589.748" cy="590.273" r="8.41271" stroke-width="0.5" stroke="black" fill="magenta"/>
  <circle cx="589.748" cy="590.273" r="5.05167" stroke-width="0.5" stroke="black" fill="magenta"/>
   </g>
   <g id="cell12">
  <circle cx="506.722" cy="586.251" r="8.41271" stroke-width="0.5" stroke="black" fill="magenta"/>
  <circle cx="506.722" cy="586.251" r="5.05167" stroke-width="0.5" stroke="black" fill="magenta"/>
   </g>
   <g id="cell13">
  <circle cx="386.194" cy="568.228" r="8.41271" stroke-width="0.5" stroke="black" fill="magenta"/>
  <circle cx="386.194" cy="568.228" r="5.05167" stroke-width="0.5" stroke="black" fill="magenta"/>
   </g>
   <g id="cell14">
  <circle cx="528.552" cy="399.193" r="8.41271" stroke-width="0.5" stroke="black" fill="magenta"/>
  <circle cx="528.552" cy="399.193" r="5.05167" stroke-width="0.5" stroke="black" fill="magenta"/>
   </g>
   <g id="cell15">
  <circle cx="379.65" cy="475.1" r="8.41271" stroke-width="0.5" stroke="black" fill="magenta"/>
  <circle cx="379.65" cy="475.1" r="5.05167" stroke-width="0.5" stroke="black" fill="magenta"/>
   </g>
   <g id="cell16">
  <circle cx="428.96" cy="413.217" r="8.41271" stroke-width="0.5" stroke="black" fill="magenta"/>
  <circle cx="428.96" cy="413.217" r="5.05167" stroke-width="0.5" stroke="black" fill="magenta"/>
   </g>
   <g id="cell17">
  <circle cx="570.396" cy="489.025" r="8.41271" stroke-width="0.5" stroke="black" fill="magenta"/>
  <circle cx="570.396" cy="489.025" r="5.05167" stroke-width="0.5" stroke="black" fill="magenta"/>
   </g>
   <g id="cell18">
  <circle cx="517.416" cy="388.933" r="8.41271" stroke-width="0.5" stroke="black" fill="magenta"/>
  <circle cx="517.416" cy="388.933" r="5.05167" stroke-width="0.5" stroke="black" fill="magenta"/>
   </g>
   <g id="cell19">
  <circle cx="455.757" cy="542.62" r="7.1497" stroke-width="0.5" stroke="black" fill="magenta"/>
  <circle cx="455.757" cy="542.62" r="4.34001" stroke-width="0.5" stroke="black" fill="magenta"/>
   </g>
   <g id="cell20">
  <circle cx="531.084" cy="414.119" r="8.41271" stroke-width="0.5" stroke="black" fill="magenta"/>
  <circle cx="531.084" cy="414.119" r="5.05167" stroke-width="0.5" stroke="black" fill="magenta"/>
   </g>
   <g id="cell21">
  <circle cx="464.368" cy="634.574" r="8.41271" stroke-width="0.5" stroke="black" fill="magenta"/>
  <circle cx="464.368" cy="634.574" r="5.05167" stroke-width="0.5" stroke="black" fill="magenta"/>
   </g>
   <g id="cell22">
  <circle cx="556.976" cy="495.96" r="8.41271" stroke-width="0.5" stroke="black" fill="magenta"/>
  <circle cx="556.976" cy="495.96" r="5.05167" stroke-width="0.5" stroke="black" fill="magenta"/>
   </g>
   <g id="cell23">
  <circle cx="536.972" cy="481.74" r="8.41271" stroke-width="0.5" stroke="black" fill="magenta"/>
  <circle cx="536.972" cy="481.74" r="5.05167" stroke-width="0.5" stroke="black" fill="magenta"/>
   </g>
   <g id="cell24">
  <circle cx="559.285" cy="379.795" r="8.41271" stroke-width="0.5" stroke="black" fill="magenta"/>
  <circle cx="559.285" cy="379.795" r="5.05167" stroke-width="0.5" stroke="black" fill="magenta"/>
   </g>
   <g id="cell25">
  <circle cx="645.272" cy="545.657" r="7.7401" stroke-width="0.5" stroke="black" fill="green"/>
  <circle cx="645.272" cy="545.657" r="4.70142" stroke-width="0.5" stroke="black" fill="green"/>
   </g>
   <g id="cell26">
  <circle cx="551.123" cy="401.253" r="8.41271" stroke-width="0.5" stroke="black" fill="green"/>
  <circle cx="551.123" cy="401.253" r="5.05167" stroke-width="0.5" stroke="black" fill="green"/>
   </g>
   <g id="cell27">
  <circle cx="462.625" cy="390.635" r="8.00101" stroke-width="0.5" stroke="black" fill="green"/>
  <circle cx="462.625" cy="390.635" r="4.84939" stroke-width="0.5" stroke="black" fill="green"/>
   </g>
   <g id="cell28">
  <circle cx="434.645" cy="530.787" r="8.41271" stroke-width="0.5" stroke="black" fill="green"/>
  <circle cx="434.645" cy="530.787" r="5.05167" stroke-width="0.5" stroke="black" fill="green"/>
   </g>
   <g id="cell29">
  <circle cx="450.321" cy="517.433" r="8.41271" stroke-width="0.5" stroke="black" fill="green"/>
  <circle cx="450.321" cy="517.433" r="5.05167" stroke-width="0.5" stroke="black" fill="green"/>
   </g>
   <g id="cell30">
  <circle cx="481.151" cy="535.811" r="6.86652" stroke-width="0.5" stroke="black" fill="green"/>
  <circle cx="481.151" cy="535.811" r="4.14883" stroke-width="0.5" stroke="black" fill="green"/>
   </g>
   <g id="cell31">
  <circle cx="412.757" cy="541.193" r="8.41271" stroke-width="0.5" stroke="black" fill="green"/>
  <circle cx="412.757" cy="541.193" r="5.05167" stroke-width="0.5" stroke="black" fill="green"/>
   </g>
   <g id="cell32">
  <circle cx="425.371" cy="474.829" r="8.41271" stroke-width="0.5" stroke="black" fill="green"/>
  <circle cx="425.371" cy="474.829" r="5.05167" stroke-width="0.5" stroke="black" fill="green"/>
   </g>
   <g id="cell33">
  <circle cx="494.884" cy="424.325" r="8.41271" stroke-width="0.5" stroke="black" fill="green"/>
  <circle cx="494.884" cy="424.325" r="5.05167" stroke-width="0.5" stroke="black" fill="green"/>
   </g>
   <g id="cell34">
  <circle cx="397.088" cy="450.831" r="8.41271" stroke-width="0.5" stroke="black" fill="green"/>
  <circle cx="397.088" cy="450.831" r="5.05167" stroke-width="0.5" stroke="black" fill="green"/>
   </g>
   <g id="cell35">
  <circle cx="551.318" cy="543.471" r="8.41271" stroke-width="0.5" stroke="black" fill="green"/>
  <circle cx="551.318" cy="543.471" r="5.05167" stroke-width="0.5" stroke="black" fill="green"/>
   </g>
   <g id="cell36">
  <circle cx="391.486" cy="582.903" r="8.41271" stroke-width="0.5" stroke="black" fill="green"/>
  <circle cx="391.486" cy="582.903" r="5.05167" stroke-width="0.5" stroke="black" fill="green"/>
   </g>
   <g id="cell37">
  <circle cx="639.034" cy="457.487" r="7.93688" stroke-width="0.5" stroke="black" fill="green"/>
  <circle cx="639.034" cy="457.487" r="4.81381" stroke-width="0.5" stroke="black" fill="green"/>
   </g>
   <g id="cell38">
  <circle cx="532.006" cy="598.445" r="7.84675" stroke-width="0.5" stroke="black" fill="green"/>
  <circle cx="532.006" cy="598.445" r="4.7629" stroke-width="0.5" stroke="black" fill="green"/>
   </g>
   <g id="cell39">
  <circle cx="613.458" cy="490.595" r="8.41271" stroke-width="0.5" stroke="black" fill="green"/>
  <circle cx="613.458" cy="490.595" r="5.05167" stroke-width="0.5" stroke="black" fill="green"/>
   </g>
   <g id="cell40">
  <circle cx="485.348" cy="571.779" r="8.41271" stroke-width="0.5" stroke="black" fill="green"/>
  <circle cx="485.348" cy="571.779" r="5.05167" stroke-width="0.5" stroke="black" fill="green"/>
   </g>
   <g id="cell41">
  <circle cx="364.925" cy="480.252" r="8.41271" stroke-width="0.5" stroke="black" fill="green"/>
  <circle cx="364.925" cy="480.252" r="5.05167" stroke-width="0.5" stroke="black" fill="green"/>
   </g>
   <g id="cell42">
  <circle cx="438.842" cy="494.268" r="8.41271" stroke-width="0.5" stroke="black" fill="green"/>
  <circle cx="438.842" cy="494.268" r="5.05167" stroke-width="0.5" stroke="black" fill="green"/>
   </g>
   <g id="cell43">
  <circle cx="558.888" cy="446.057" r="8.41271" stroke-width="0.5" stroke="black" fill="green"/>
  <circle cx="558.888" cy="446.057" r="5.05167" stroke-width="0.5" stroke="black" fill="green"/>
   </g>
   <g id="cell44">
  <circle cx="475.857" cy="624.021" r="8.41271" stroke-width="0.5" stroke="black" fill="green"/>
  <circle cx="475.857" cy="624.021" r="5.05167" stroke-width="0.5" stroke="black" fill="green"/>
   </g>
   <g id="cell45">
  <circle cx="414.953" cy="557.066" r="8.41271" stroke-width="0.5" stroke="black" fill="green"/>
  <circle cx="414.953" cy="557.066" r="5.05167" stroke-width="0.5" stroke="black" fill="green"/>
   </g>
   <g id="cell46">
  <circle cx="522.939" cy="611.005" r="8.41271" stroke-width="0.5" stroke="black" fill="green"/>
  <circle cx="522.939" cy="611.005" r="5.05167" stroke-width="0.5" stroke="black" fill="green"/>
   </g>
   <g id="cell47">
  <circle cx="504.151" cy="508.018" r="8.41271" stroke-width="0.5" stroke="black" fill="green"/>
  <circle cx="504.151" cy="508.018" r="5.05167" stroke-width="0.5" stroke="black" fill="green"/>
   </g>
   <g id="cell48">
  <circle cx="564.169" cy="602.875" r="8.41271" stroke-width="0.5" stroke="black" fill="green"/>
  <circle cx="564.169" cy="602.875" r="5.05167" stroke-width="0.5" stroke="black" fill="green"/>
   </g>
   <g id="cell49">
  <circle cx="429.826" cy="397.641" r="8.41271" stroke-width="0.5" stroke="black" fill="green"/>
  <circle cx="429.826" cy="397.641" r="5.05167" stroke-width="0.5" stroke="black" fill="green"/>
   </g>
   <g id="cell50">
  <circle cx="520.101" cy="519.268" r="7.41548" stroke-width="0.5" stroke="black" fill="cyan"/>
  <circle cx="520.101" cy="519.268" r="4.50723" stroke-width="0.5" stroke="black" fill="cyan"/>
   </g>
   <g id="cell51">
  <circle cx="398.721" cy="597.201" r="8.41271" stroke-width="0.5" stroke="black" fill="cyan"/>
  <circle cx="398.721" cy="597.201" r="5.05167" stroke-width="0.5" stroke="black" fill="cyan"/>
   </g>
   <g id="cell52">
  <circle cx="520.279" cy="425.354" r="8.41271" stroke-width="0.5" stroke="black" fill="cyan"/>
  <circle cx="520.279" cy="425.354" r="5.05167" stroke-width="0.5" stroke="black" fill="cyan"/>
   </g>
   <g id="cell53">
  <circle cx="571.259" cy="436.027" r="8.41271" stroke-width="0.5" stroke="black" fill="cyan"/>
  <circle cx="571.259" cy="436.027" r="5.05167" stroke-width="0.5" stroke="black" fill="cyan"/>
   </g>
   <g id="cell54">
  <circle cx="480.993" cy="426.614" r="6.71158" stroke-width="0.5" stroke="black" fill="cyan"/>
  <circle cx="480.993" cy="426.614" r="4.03435" stroke-width="0.5" stroke="black" fill="cyan"/>
   </g>
   <g id="cell55">
  <circle cx="530.005" cy="468.122" r="7.87851" stroke-width="0.5" stroke="black" fill="cyan"/>
  <circle cx="530.005" cy="468.122" r="4.78096" stroke-width="0.5" stroke="black" fill="cyan"/>
   </g>
   <g id="cell56">
  <circle cx="617.614" cy="522.333" r="8.41271" stroke-width="0.5" stroke="black" fill="cyan"/>
  <circle cx="617.614" cy="522.333" r="5.05167" stroke-width="0.5" stroke="black" fill="cyan"/>
   </g>
   <g id="cell57">
  <circle cx="416.924" cy="617.466" r="1.50862" stroke-width="0.5" stroke="black" fill="cyan"/>
  <circle cx="416.924" cy="617.466" r="1.48821" stroke-width="0.5" stroke="black" fill="black"/>
   </g>
   <g id="cell58">
  <circle cx="552.842" cy="481.028" r="8.41271" stroke-width="0.5" stroke="black" fill="cyan"/>
  <circle cx="552.842" cy="481.028" r="5.05167" stroke-width="0.5" stroke="black" fill="cyan"/>
   </g>
   <g id="cell59">
  <circle cx="385.463" cy="439.803" r="8.41271" stroke-width="0.5" stroke="black" fill="cyan"/>
  <circle cx="385.463" cy="439.803" r="5.05167" stroke-width="0.5" stroke="black" fill="cyan"/>
   </g>
   <g id="cell60">
  <circle cx="593.151" cy="473.642" r="8.41271" stroke-width="0.5" stroke="black" fill="cyan"/>
  <circle cx="593.151" cy="473.642" r="5.05167" stroke-width="0.5" stroke="black" fill="cyan"/>
   </g>
   <g id="cell61">
  <circle cx="552.84" cy="614.135" r="8.41271" stroke-width="0.5" stroke="black" fill="cyan"/>
  <circle cx="552.84" cy="614.135" r="5.05167" stroke-width="0.5" stroke="black" fill="cyan"/>
   </g>
   <g id="cell62">
  <circle cx="521.575" cy="450.664" r="8.01277" stroke-width="0.5" stroke="black" fill="cyan"/>
  <circle cx="521.575" cy="450.664" r="4.85584" stroke-width="0.5" stroke="black" fill="cyan"/>
   </g>
   <g id="cell63">
  <circle cx="575.655" cy="540.566" r="7.24243" stroke-width="0.5" stroke="black" fill="cyan"/>
  <circle cx="575.655" cy="540.566" r="4.39934" stroke-width="0.5" stroke="black" fill="cyan"/>
   </g>
   <g id="cell64">
  <circle cx="509.962" cy="636.825" r="8.41271" stroke-width="0.5" stroke="black" fill="cyan"/>
  <circle cx="509.962" cy="636.825" r="5.05167" stroke-width="0.5" stroke="black" fill="cyan"/>
   </g>
   <g id="cell65">
  <circle cx="544" cy="469.432" r="7.11815" stroke-width="0.5" stroke="black" fill="cyan"/>
  <circle cx="544" cy="469.432" r="4.31954" stroke-width="0.5" stroke="black" fill="cyan"/>
   </g>
   <g id="cell66">
  <circle cx="532.594" cy="533.522" r="6.67717" stroke-width="0.5" stroke="black" fill="cyan"/>
  <circle cx="532.594" cy="533.522" r="4.00951" stroke-width="0.5" stroke="black" fill="cyan"/>
   </g>
   <g id="cell67">
  <circle cx="354.711" cy="492.599" r="8.41271" stroke-width="0.5" stroke="black" fill="cyan"/>
  <circle cx="354.711" cy="492.599" r="5.05167" stroke-width="0.5" stroke="black" fill="cyan"/>
   </g>
   <g id="cell68">
  <circle cx="565.058" cy="552.132" r="8.41271" stroke-width="0.5" stroke="black" fill="cyan"/>
  <circle cx="565.058" cy="552.132" r="5.05167" stroke-width="0.5" stroke="black" fill="cyan"/>
   </g>
   <g id="cell69">
  <circle cx="437.64" cy="464.521" r="8.41271" stroke-width="0.5" stroke="black" fill="cyan"/>
  <circle cx="437.64" cy="464.521" r="5.05167" stroke-width="0.5" stroke="black" fill="cyan"/>
   </g>
   <g id="cell70">
  <circle cx="577.192" cy="475.004" r="8.41271" stroke-width="0.5" stroke="black" fill="cyan"/>
  <circle cx="577.192" cy="475.004" r="5.05167" stroke-width="0.5" stroke="black" fill="cyan"/>
   </g>
   <g id="cell71">
  <circle cx="377.712" cy="520.989" r="8.41271" stroke-width="0.5" stroke="black" fill="cyan"/>
  <circle cx="377.712" cy="520.989" r="5.05167" stroke-width="0.5" stroke="black" fill="cyan"/>
   </g>
   <g id="cell72">
  <circle cx="532.718" cy="513.87" r="6.73287" stroke-width="0.5" stroke="black" fill="cyan"/>
  <circle cx="532.718" cy="513.87" r="4.05039" stroke-width="0.5" stroke="black" fill="cyan"/>
   </g>
   <g id="cell73">
  <circle cx="362.657" cy="550.459" r="7.3599" stroke-width="0.5" stroke="black" fill="cyan"/>
  <circle cx="362.657" cy="550.459" r="4.47294" stroke-width="0.5" stroke="black" fill="cyan"/>
   </g>
   <g id="cell74">
  <circle cx="542.898" cy="445.451" r="8.41271" stroke-width="0.5" stroke="black" fill="cyan"/>
  <circle cx="542.898" cy="445.451" r="5.05167" stroke-width="0.5" stroke="black" fill="cyan"/>
   </g>
   <g id="cell75">
  <circle cx="529.51" cy="437.785" r="8.01277" stroke-width="0.5" stroke="black" fill="cyan"/>
  <circle cx="529.51" cy="437.785" r="4.85584" stroke-width="0.5" stroke="black" fill="cyan"/>
   </g>
   <g id="cell76">
  <circle cx="448.404" cy="385.261" r="8.00101" stroke-width="0.5" stroke="black" fill="green"/>
  <circle cx="448.404" cy="385.261" r="4.84939" stroke-width="0.5" stroke="black" fill="green"/>
   </g>
   <g id="cell77">
  <circle cx="473.152" cy="438.999" r="7.97646" stroke-width="0.5" stroke="black" fill="magenta"/>
  <circle cx="473.152" cy="438.999" r="4.83584" stroke-width="0.5" stroke="black" fill="magenta"/>
   </g>
   <g id="cell78">
  <circle cx="625.842" cy="462.015" r="6.78931" stroke-width="0.5" stroke="black" fill="green"/>
  <circle cx="625.842" cy="462.015" r="4.15405" stroke-width="0.5" stroke="black" fill="green"/>
   </g>
   <g id="cell79">
  <circle cx="517.422" cy="475.894" r="7.87851" stroke-width="0.5" stroke="black" fill="cyan"/>
  <circle cx="517.422" cy="475.894" r="4.78096" stroke-width="0.5" stroke="black" fill="cyan"/>
   </g>
   <g id="cell80">
  <circle cx="537.964" cy="611.759" r="7.51229" stroke-width="0.5" stroke="black" fill="green"/>
  <circle cx="537.964" cy="611.759" r="4.59127" stroke-width="0.5" stroke="black" fill="green"/>
   </g>
   <g id="cell81">
  <circle cx="546.521" cy="600.362" r="7.51229" stroke-width="0.5" stroke="black" fill="green"/>
  <circle cx="546.521" cy="600.362" r="4.59127" stroke-width="0.5" stroke="black" fill="green"/>
   </g>
   <g id="cell82">
  <circle cx="530.297" cy="553.075" r="7.7401" stroke-width="0.5" stroke="black" fill="magenta"/>
  <circle cx="530.297" cy="553.075" r="4.70142" stroke-width="0.5" stroke="black" fill="magenta"/>
   </g>
   <g id="cell83">
  <circle cx="634.941" cy="556.094" r="7.7401" stroke-width="0.5" stroke="black" fill="green"/>
  <circle cx="634.941" cy="556.094" r="4.70142" stroke-width="0.5" stroke="black" fill="green"/>
   </g>
   <g id="cell84">
  <circle cx="518.982" cy="505.446" r="7.41548" stroke-width="0.5" stroke="black" fill="cyan"/>
  <circle cx="518.982" cy="505.446" r="4.50723" stroke-width="0.5" stroke="black" fill="cyan"/>
   </g>
   <g id="cell85">
  <circle cx="356.16" cy="538.133" r="7.3599" stroke-width="0.5" stroke="black" fill="cyan"/>
  <circle cx="356.16" cy="538.133" r="4.47294" stroke-width="0.5" stroke="black" fill="cyan"/>
   </g>
   <g id="cell86">
  <circle cx="507.688" cy="525.494" r="7.33129" stroke-width="0.5" stroke="black" fill="magenta"/>
  <circle cx="507.688" cy="525.494" r="4.45516" stroke-width="0.5" stroke="black" fill="magenta"/>
   </g>
   <g id="cell87">
  <circle cx="579.851" cy="553.577" r="7.24243" stroke-width="0.5" stroke="black" fill="cyan"/>
  <circle cx="579.851" cy="553.577" r="4.39934" stroke-width="0.5" stroke="black" fill="cyan"/>
   </g>
   <g id="cell88">
  <circle cx="449" cy="531.748" r="7.1497" stroke-width="0.5" stroke="black" fill="magenta"/>
  <circle cx="449" cy="531.748" r="4.34001" stroke-width="0.5" stroke="black" fill="magenta"/>
   </g>
   <g id="cell89">
  <circle cx="550.447" cy="457.932" r="7.11815" stroke-width="0.5" stroke="black" fill="cyan"/>
  <circle cx="550.447" cy="457.932" r="4.31954" stroke-width="0.5" stroke="black" fill="cyan"/>
   </g>
   <g id="cell90">
  <circle cx="630.424" cy="473.996" r="6.78931" stroke-width="0.5" stroke="black" fill="green"/>
  <circle cx="630.424" cy="473.996" r="4.15405" stroke-width="0.5" stroke="black" fill="green"/>
   </g>
   <g id="cell91">
  <circle cx="541.851" cy="551.846" r="5.45306" stroke-width="0.5" stroke="black" fill="magenta"/>
  <circle cx="541.851" cy="551.846" r="3.35751" stroke-width="0.5" stroke="black" fill="magenta"/>
   </g>
   <g id="cell92">
  <circle cx="482.395" cy="548.76" r="6.86652" stroke-width="0.5" stroke="black" fill="green"/>
  <circle cx="482.395" cy="548.76" r="4.14883" stroke-width="0.5" stroke="black" fill="green"/>
   </g>
   <g id="cell93">
  <circle cx="537.632" cy="543.123" r="5.45306" stroke-width="0.5" stroke="black" fill="magenta"/>
  <circle cx="537.632" cy="543.123" r="3.35751" stroke-width="0.5" stroke="black" fill="magenta"/>
   </g>
   <g id="cell94">
  <circle cx="532.137" cy="502.46" r="6.73287" stroke-width="0.5" stroke="black" fill="cyan"/>
  <circle cx="532.137" cy="502.46" r="4.05039" stroke-width="0.5" stroke="black" fill="cyan"/>
   </g>
   <g id="cell95">
  <circle cx="469.341" cy="422.676" r="6.71158" stroke-width="0.5" stroke="black" fill="cyan"/>
  <circle cx="469.341" cy="422.676" r="4.03435" stroke-width="0.5" stroke="black" fill="cyan"/>
   </g>
   <g id="cell96">
  <circle cx="534.305" cy="523.932" r="6.67717" stroke-width="0.5" stroke="black" fill="cyan"/>
  <circle cx="534.305" cy="523.932" r="4.00951" stroke-width="0.5" stroke="black" fill="cyan"/>
   </g>
  </g>
 </g>
  <rect x="775" y="1035" width="200" height="10" stroke-width="2" stroke="rgb(255,255,255)" fill="rgb(0,0,0)"/>
  <text x="781.25" y="1028.75"
   font-family="Arial" font-size="25" fill="black" >
   200 &#956;m
  </text>
  <text x="25" y="1045"
   font-family="Arial" font-size="18.75" fill="black" >
   0 days, 0 hours, 0 minutes, and 7.7591 seconds
  </text>
  <rect x="0" y="70" width="1000" height="1000" stroke-width="2" stroke="rgb(0,0,0)" fill="none"/>
</svg>
