<?xml version="1.0" encoding="UTF-8" standalone="no"?>
<!-- Created with PhysiCell (http://PhysiCell.MathCancer.org/) -->
<svg 
 xmlns:dc="http://purl.org/dc/elements/1.1/" 
 xmlns:cc="http://creativecommons.org/ns#" 
 xmlns:rdf="http://www.w3.org/1999/02/22-rdf-syntax-ns#" 
 xmlns:svg="http://www.w3.org/2000/svg" 
 xmlns="http://www.w3.org/2000/svg" 
 version="1.1" 
 width="1000" 
 height="1070" 
 id="svg2">
  <rect x="0" y="0" width="1000" height="1070" stroke-width="2" stroke="white" fill="white"/>
  <text x="12.5" y="30"
   font-family="Arial" font-size="25" fill="black" >
   Current time: 0 days, 15 hours, and 12.00 minutes, z = 0.00 &#956;m
  </text>
  <text x="12.5" y="57.5"
   font-family="Arial" font-size="23.75" fill="black" >
   122 agents
  </text>
 <g id="tissue" 
    transform="translate(0,1070) scale(1,-1)">
  <g id="ECM">
  </g>
  <g id="cells">
   <g id="cell0">
  <circle cx="515.743" cy="534.656" r="8.30918" stroke-width="0.5" stroke="black" fill="magenta"/>
  <circle cx="515.743" cy="534.656" r="5.00867" stroke-width="0.5" stroke="black" fill="magenta"/>
   </g>
   <g id="cell1">
  <circle cx="602.492" cy="526.171" r="8.41271" stroke-width="0.5" stroke="black" fill="magenta"/>
  <circle cx="602.492" cy="526.171" r="5.05167" stroke-width="0.5" stroke="black" fill="magenta"/>
   </g>
   <g id="cell2">
  <circle cx="514.432" cy="598.834" r="8.41271" stroke-width="0.5" stroke="black" fill="magenta"/>
  <circle cx="514.432" cy="598.834" r="5.05167" stroke-width="0.5" stroke="black" fill="magenta"/>
   </g>
   <g id="cell3">
  <circle cx="524.001" cy="546.994" r="8.24208" stroke-width="0.5" stroke="black" fill="magenta"/>
  <circle cx="524.001" cy="546.994" r="4.9795" stroke-width="0.5" stroke="black" fill="magenta"/>
   </g>
   <g id="cell4">
  <circle cx="490.826" cy="437.413" r="8.37092" stroke-width="0.5" stroke="black" fill="magenta"/>
  <circle cx="490.826" cy="437.413" r="5.03613" stroke-width="0.5" stroke="black" fill="magenta"/>
   </g>
   <g id="cell5">
  <circle cx="465.032" cy="493.3" r="8.41271" stroke-width="0.5" stroke="black" fill="magenta"/>
  <circle cx="465.032" cy="493.3" r="5.05167" stroke-width="0.5" stroke="black" fill="magenta"/>
   </g>
   <g id="cell6">
  <circle cx="595.637" cy="512.669" r="8.41271" stroke-width="0.5" stroke="black" fill="magenta"/>
  <circle cx="595.637" cy="512.669" r="5.05167" stroke-width="0.5" stroke="black" fill="magenta"/>
   </g>
   <g id="cell7">
  <circle cx="499.927" cy="457.701" r="7.56839" stroke-width="0.5" stroke="black" fill="magenta"/>
  <circle cx="499.927" cy="457.701" r="4.59998" stroke-width="0.5" stroke="black" fill="magenta"/>
   </g>
   <g id="cell8">
  <circle cx="376.275" cy="542.197" r="8.41271" stroke-width="0.5" stroke="black" fill="magenta"/>
  <circle cx="376.275" cy="542.197" r="5.05167" stroke-width="0.5" stroke="black" fill="magenta"/>
   </g>
   <g id="cell9">
  <circle cx="460.472" cy="599.786" r="8.41271" stroke-width="0.5" stroke="black" fill="magenta"/>
  <circle cx="460.472" cy="599.786" r="5.05167" stroke-width="0.5" stroke="black" fill="magenta"/>
   </g>
   <g id="cell10">
  <circle cx="583.447" cy="392.105" r="8.41271" stroke-width="0.5" stroke="black" fill="magenta"/>
  <circle cx="583.447" cy="392.105" r="5.05167" stroke-width="0.5" stroke="black" fill="magenta"/>
   </g>
   <g id="cell11">
  <circle cx="591.373" cy="590.071" r="8.41271" stroke-width="0.5" stroke="black" fill="magenta"/>
  <circle cx="591.373" cy="590.071" r="5.05167" stroke-width="0.5" stroke="black" fill="magenta"/>
   </g>
   <g id="cell12">
  <circle cx="506.673" cy="585.906" r="8.41271" stroke-width="0.5" stroke="black" fill="magenta"/>
  <circle cx="506.673" cy="585.906" r="5.05167" stroke-width="0.5" stroke="black" fill="magenta"/>
   </g>
   <g id="cell13">
  <circle cx="386.194" cy="568.228" r="8.41271" stroke-width="0.5" stroke="black" fill="magenta"/>
  <circle cx="386.194" cy="568.228" r="5.05167" stroke-width="0.5" stroke="black" fill="magenta"/>
   </g>
   <g id="cell14">
  <circle cx="529.576" cy="399.308" r="8.41271" stroke-width="0.5" stroke="black" fill="magenta"/>
  <circle cx="529.576" cy="399.308" r="5.05167" stroke-width="0.5" stroke="black" fill="magenta"/>
   </g>
   <g id="cell15">
  <circle cx="379.65" cy="475.1" r="8.41271" stroke-width="0.5" stroke="black" fill="magenta"/>
  <circle cx="379.65" cy="475.1" r="5.05167" stroke-width="0.5" stroke="black" fill="magenta"/>
   </g>
   <g id="cell16">
  <circle cx="428.969" cy="413.096" r="8.41271" stroke-width="0.5" stroke="black" fill="magenta"/>
  <circle cx="428.969" cy="413.096" r="5.05167" stroke-width="0.5" stroke="black" fill="magenta"/>
   </g>
   <g id="cell17">
  <circle cx="570.578" cy="491.294" r="8.41271" stroke-width="0.5" stroke="black" fill="magenta"/>
  <circle cx="570.578" cy="491.294" r="5.05167" stroke-width="0.5" stroke="black" fill="magenta"/>
   </g>
   <g id="cell18">
  <circle cx="518.053" cy="389.482" r="8.41271" stroke-width="0.5" stroke="black" fill="magenta"/>
  <circle cx="518.053" cy="389.482" r="5.05167" stroke-width="0.5" stroke="black" fill="magenta"/>
   </g>
   <g id="cell19">
  <circle cx="459.611" cy="540.114" r="7.54007" stroke-width="0.5" stroke="black" fill="magenta"/>
  <circle cx="459.611" cy="540.114" r="4.59528" stroke-width="0.5" stroke="black" fill="magenta"/>
   </g>
   <g id="cell20">
  <circle cx="531.313" cy="414.363" r="8.41271" stroke-width="0.5" stroke="black" fill="magenta"/>
  <circle cx="531.313" cy="414.363" r="5.05167" stroke-width="0.5" stroke="black" fill="magenta"/>
   </g>
   <g id="cell21">
  <circle cx="464.368" cy="634.574" r="8.41271" stroke-width="0.5" stroke="black" fill="magenta"/>
  <circle cx="464.368" cy="634.574" r="5.05167" stroke-width="0.5" stroke="black" fill="magenta"/>
   </g>
   <g id="cell22">
  <circle cx="556.104" cy="495.537" r="8.41271" stroke-width="0.5" stroke="black" fill="magenta"/>
  <circle cx="556.104" cy="495.537" r="5.05167" stroke-width="0.5" stroke="black" fill="magenta"/>
   </g>
   <g id="cell23">
  <circle cx="545.061" cy="485.375" r="8.41271" stroke-width="0.5" stroke="black" fill="magenta"/>
  <circle cx="545.061" cy="485.375" r="5.05167" stroke-width="0.5" stroke="black" fill="magenta"/>
   </g>
   <g id="cell24">
  <circle cx="558.701" cy="381.981" r="8.41271" stroke-width="0.5" stroke="black" fill="magenta"/>
  <circle cx="558.701" cy="381.981" r="5.05167" stroke-width="0.5" stroke="black" fill="magenta"/>
   </g>
   <g id="cell25">
  <circle cx="645.698" cy="545.226" r="8.34884" stroke-width="0.5" stroke="black" fill="green"/>
  <circle cx="645.698" cy="545.226" r="5.02667" stroke-width="0.5" stroke="black" fill="green"/>
   </g>
   <g id="cell26">
  <circle cx="554.753" cy="396.603" r="7.54436" stroke-width="0.5" stroke="black" fill="green"/>
  <circle cx="554.753" cy="396.603" r="4.58555" stroke-width="0.5" stroke="black" fill="green"/>
   </g>
   <g id="cell27">
  <circle cx="464.607" cy="391.161" r="8.37321" stroke-width="0.5" stroke="black" fill="green"/>
  <circle cx="464.607" cy="391.161" r="5.03708" stroke-width="0.5" stroke="black" fill="green"/>
   </g>
   <g id="cell28">
  <circle cx="433.005" cy="530.7" r="8.41271" stroke-width="0.5" stroke="black" fill="green"/>
  <circle cx="433.005" cy="530.7" r="5.05167" stroke-width="0.5" stroke="black" fill="green"/>
   </g>
   <g id="cell29">
  <circle cx="450.465" cy="515.945" r="8.41271" stroke-width="0.5" stroke="black" fill="green"/>
  <circle cx="450.465" cy="515.945" r="5.05167" stroke-width="0.5" stroke="black" fill="green"/>
   </g>
   <g id="cell30">
  <circle cx="481.026" cy="534.466" r="8.25377" stroke-width="0.5" stroke="black" fill="green"/>
  <circle cx="481.026" cy="534.466" r="4.98209" stroke-width="0.5" stroke="black" fill="green"/>
   </g>
   <g id="cell31">
  <circle cx="412.807" cy="541.561" r="8.41271" stroke-width="0.5" stroke="black" fill="green"/>
  <circle cx="412.807" cy="541.561" r="5.05167" stroke-width="0.5" stroke="black" fill="green"/>
   </g>
   <g id="cell32">
  <circle cx="421.251" cy="481.737" r="8.1947" stroke-width="0.5" stroke="black" fill="green"/>
  <circle cx="421.251" cy="481.737" r="4.95246" stroke-width="0.5" stroke="black" fill="green"/>
   </g>
   <g id="cell33">
  <circle cx="498.476" cy="423.866" r="8.41271" stroke-width="0.5" stroke="black" fill="green"/>
  <circle cx="498.476" cy="423.866" r="5.05167" stroke-width="0.5" stroke="black" fill="green"/>
   </g>
   <g id="cell34">
  <circle cx="397.088" cy="450.831" r="8.41271" stroke-width="0.5" stroke="black" fill="green"/>
  <circle cx="397.088" cy="450.831" r="5.05167" stroke-width="0.5" stroke="black" fill="green"/>
   </g>
   <g id="cell35">
  <circle cx="553.09" cy="541.689" r="8.41271" stroke-width="0.5" stroke="black" fill="green"/>
  <circle cx="553.09" cy="541.689" r="5.05167" stroke-width="0.5" stroke="black" fill="green"/>
   </g>
   <g id="cell36">
  <circle cx="391.486" cy="582.903" r="8.41271" stroke-width="0.5" stroke="black" fill="green"/>
  <circle cx="391.486" cy="582.903" r="5.05167" stroke-width="0.5" stroke="black" fill="green"/>
   </g>
   <g id="cell37">
  <circle cx="639.838" cy="457.356" r="8.36722" stroke-width="0.5" stroke="black" fill="green"/>
  <circle cx="639.838" cy="457.356" r="5.03458" stroke-width="0.5" stroke="black" fill="green"/>
   </g>
   <g id="cell38">
  <circle cx="528.889" cy="593.328" r="8.35882" stroke-width="0.5" stroke="black" fill="green"/>
  <circle cx="528.889" cy="593.328" r="5.031" stroke-width="0.5" stroke="black" fill="green"/>
   </g>
   <g id="cell39">
  <circle cx="613.458" cy="490.595" r="8.41271" stroke-width="0.5" stroke="black" fill="green"/>
  <circle cx="613.458" cy="490.595" r="5.05167" stroke-width="0.5" stroke="black" fill="green"/>
   </g>
   <g id="cell40">
  <circle cx="485.348" cy="571.779" r="8.41271" stroke-width="0.5" stroke="black" fill="green"/>
  <circle cx="485.348" cy="571.779" r="5.05167" stroke-width="0.5" stroke="black" fill="green"/>
   </g>
   <g id="cell41">
  <circle cx="364.925" cy="480.252" r="8.41271" stroke-width="0.5" stroke="black" fill="green"/>
  <circle cx="364.925" cy="480.252" r="5.05167" stroke-width="0.5" stroke="black" fill="green"/>
   </g>
   <g id="cell42">
  <circle cx="438.842" cy="494.268" r="8.41271" stroke-width="0.5" stroke="black" fill="green"/>
  <circle cx="438.842" cy="494.268" r="5.05167" stroke-width="0.5" stroke="black" fill="green"/>
   </g>
   <g id="cell43">
  <circle cx="562.348" cy="441.939" r="8.41271" stroke-width="0.5" stroke="black" fill="green"/>
  <circle cx="562.348" cy="441.939" r="5.05167" stroke-width="0.5" stroke="black" fill="green"/>
   </g>
   <g id="cell44">
  <circle cx="475.857" cy="624.021" r="8.41271" stroke-width="0.5" stroke="black" fill="green"/>
  <circle cx="475.857" cy="624.021" r="5.05167" stroke-width="0.5" stroke="black" fill="green"/>
   </g>
   <g id="cell45">
  <circle cx="414.902" cy="556.698" r="3.11891" stroke-width="0.5" stroke="black" fill="green"/>
  <circle cx="414.902" cy="556.698" r="2.51913" stroke-width="0.5" stroke="black" fill="black"/>
   </g>
   <g id="cell46">
  <circle cx="521.521" cy="612.273" r="8.03527" stroke-width="0.5" stroke="black" fill="green"/>
  <circle cx="521.521" cy="612.273" r="4.86813" stroke-width="0.5" stroke="black" fill="green"/>
   </g>
   <g id="cell47">
  <circle cx="503.613" cy="502.227" r="8.18177" stroke-width="0.5" stroke="black" fill="green"/>
  <circle cx="503.613" cy="502.227" r="4.94584" stroke-width="0.5" stroke="black" fill="green"/>
   </g>
   <g id="cell48">
  <circle cx="570.351" cy="603.782" r="7.50261" stroke-width="0.5" stroke="black" fill="green"/>
  <circle cx="570.351" cy="603.782" r="4.58572" stroke-width="0.5" stroke="black" fill="green"/>
   </g>
   <g id="cell49">
  <circle cx="430.238" cy="397.523" r="8.41271" stroke-width="0.5" stroke="black" fill="green"/>
  <circle cx="430.238" cy="397.523" r="5.05167" stroke-width="0.5" stroke="black" fill="green"/>
   </g>
   <g id="cell50">
  <circle cx="512.205" cy="512.997" r="7.17846" stroke-width="0.5" stroke="black" fill="cyan"/>
  <circle cx="512.205" cy="512.997" r="4.37222" stroke-width="0.5" stroke="black" fill="cyan"/>
   </g>
   <g id="cell51">
  <circle cx="398.721" cy="597.201" r="8.41271" stroke-width="0.5" stroke="black" fill="cyan"/>
  <circle cx="398.721" cy="597.201" r="5.05167" stroke-width="0.5" stroke="black" fill="cyan"/>
   </g>
   <g id="cell52">
  <circle cx="518.502" cy="423.294" r="8.41271" stroke-width="0.5" stroke="black" fill="cyan"/>
  <circle cx="518.502" cy="423.294" r="5.05167" stroke-width="0.5" stroke="black" fill="cyan"/>
   </g>
   <g id="cell53">
  <circle cx="573.945" cy="429.845" r="8.09544" stroke-width="0.5" stroke="black" fill="cyan"/>
  <circle cx="573.945" cy="429.845" r="4.90058" stroke-width="0.5" stroke="black" fill="cyan"/>
   </g>
   <g id="cell54">
  <circle cx="482.658" cy="424.327" r="8.2239" stroke-width="0.5" stroke="black" fill="cyan"/>
  <circle cx="482.658" cy="424.327" r="4.96725" stroke-width="0.5" stroke="black" fill="cyan"/>
   </g>
   <g id="cell55">
  <circle cx="523.926" cy="464.295" r="8.11099" stroke-width="0.5" stroke="black" fill="cyan"/>
  <circle cx="523.926" cy="464.295" r="4.91273" stroke-width="0.5" stroke="black" fill="cyan"/>
   </g>
   <g id="cell56">
  <circle cx="617.613" cy="522.333" r="8.41271" stroke-width="0.5" stroke="black" fill="cyan"/>
  <circle cx="617.613" cy="522.333" r="5.05167" stroke-width="0.5" stroke="black" fill="cyan"/>
   </g>
   <g id="cell105">
  <circle cx="507.024" cy="610.554" r="6.75353" stroke-width="0.5" stroke="black" fill="green"/>
  <circle cx="507.024" cy="610.554" r="4.12454" stroke-width="0.5" stroke="black" fill="green"/>
   </g>
   <g id="cell58">
  <circle cx="559.7" cy="480.18" r="8.41271" stroke-width="0.5" stroke="black" fill="cyan"/>
  <circle cx="559.7" cy="480.18" r="5.05167" stroke-width="0.5" stroke="black" fill="cyan"/>
   </g>
   <g id="cell59">
  <circle cx="385.463" cy="439.803" r="8.41271" stroke-width="0.5" stroke="black" fill="cyan"/>
  <circle cx="385.463" cy="439.803" r="5.05167" stroke-width="0.5" stroke="black" fill="cyan"/>
   </g>
   <g id="cell60">
  <circle cx="592.081" cy="473.816" r="8.41271" stroke-width="0.5" stroke="black" fill="cyan"/>
  <circle cx="592.081" cy="473.816" r="5.05167" stroke-width="0.5" stroke="black" fill="cyan"/>
   </g>
   <g id="cell61">
  <circle cx="554.466" cy="622.389" r="8.41271" stroke-width="0.5" stroke="black" fill="cyan"/>
  <circle cx="554.466" cy="622.389" r="5.05167" stroke-width="0.5" stroke="black" fill="cyan"/>
   </g>
   <g id="cell62">
  <circle cx="515.878" cy="440.77" r="6.72663" stroke-width="0.5" stroke="black" fill="cyan"/>
  <circle cx="515.878" cy="440.77" r="4.0571" stroke-width="0.5" stroke="black" fill="cyan"/>
   </g>
   <g id="cell63">
  <circle cx="573.189" cy="541.82" r="8.29993" stroke-width="0.5" stroke="black" fill="cyan"/>
  <circle cx="573.189" cy="541.82" r="5.00433" stroke-width="0.5" stroke="black" fill="cyan"/>
   </g>
   <g id="cell64">
  <circle cx="509.983" cy="636.477" r="8.41271" stroke-width="0.5" stroke="black" fill="cyan"/>
  <circle cx="509.983" cy="636.477" r="5.05167" stroke-width="0.5" stroke="black" fill="cyan"/>
   </g>
   <g id="cell65">
  <circle cx="547.289" cy="470.01" r="8.28629" stroke-width="0.5" stroke="black" fill="cyan"/>
  <circle cx="547.289" cy="470.01" r="4.99786" stroke-width="0.5" stroke="black" fill="cyan"/>
   </g>
   <g id="cell66">
  <circle cx="530.904" cy="533.178" r="8.21273" stroke-width="0.5" stroke="black" fill="cyan"/>
  <circle cx="530.904" cy="533.178" r="4.96162" stroke-width="0.5" stroke="black" fill="cyan"/>
   </g>
   <g id="cell67">
  <circle cx="354.711" cy="492.599" r="8.41271" stroke-width="0.5" stroke="black" fill="cyan"/>
  <circle cx="354.711" cy="492.599" r="5.05167" stroke-width="0.5" stroke="black" fill="cyan"/>
   </g>
   <g id="cell68">
  <circle cx="562.863" cy="553.992" r="8.41271" stroke-width="0.5" stroke="black" fill="cyan"/>
  <circle cx="562.863" cy="553.992" r="5.05167" stroke-width="0.5" stroke="black" fill="cyan"/>
   </g>
   <g id="cell69">
  <circle cx="442.124" cy="460.523" r="8.41271" stroke-width="0.5" stroke="black" fill="cyan"/>
  <circle cx="442.124" cy="460.523" r="5.05167" stroke-width="0.5" stroke="black" fill="cyan"/>
   </g>
   <g id="cell70">
  <circle cx="576.176" cy="476.781" r="8.41271" stroke-width="0.5" stroke="black" fill="cyan"/>
  <circle cx="576.176" cy="476.781" r="5.05167" stroke-width="0.5" stroke="black" fill="cyan"/>
   </g>
   <g id="cell71">
  <circle cx="379.597" cy="527.734" r="7.65871" stroke-width="0.5" stroke="black" fill="cyan"/>
  <circle cx="379.597" cy="527.734" r="4.6537" stroke-width="0.5" stroke="black" fill="cyan"/>
   </g>
   <g id="cell72">
  <circle cx="532.648" cy="511.396" r="8.22925" stroke-width="0.5" stroke="black" fill="cyan"/>
  <circle cx="532.648" cy="511.396" r="4.96993" stroke-width="0.5" stroke="black" fill="cyan"/>
   </g>
   <g id="cell73">
  <circle cx="364.715" cy="552.489" r="8.31209" stroke-width="0.5" stroke="black" fill="cyan"/>
  <circle cx="364.715" cy="552.489" r="5.01002" stroke-width="0.5" stroke="black" fill="cyan"/>
   </g>
   <g id="cell74">
  <circle cx="548.62" cy="440.366" r="7.54436" stroke-width="0.5" stroke="black" fill="cyan"/>
  <circle cx="548.62" cy="440.366" r="4.58555" stroke-width="0.5" stroke="black" fill="cyan"/>
   </g>
   <g id="cell75">
  <circle cx="528.914" cy="435.432" r="8.37431" stroke-width="0.5" stroke="black" fill="cyan"/>
  <circle cx="528.914" cy="435.432" r="5.03754" stroke-width="0.5" stroke="black" fill="cyan"/>
   </g>
   <g id="cell76">
  <circle cx="440.914" cy="382.585" r="7.78737" stroke-width="0.5" stroke="black" fill="green"/>
  <circle cx="440.914" cy="382.585" r="4.74577" stroke-width="0.5" stroke="black" fill="green"/>
   </g>
   <g id="cell77">
  <circle cx="476.176" cy="437.812" r="7.94037" stroke-width="0.5" stroke="black" fill="magenta"/>
  <circle cx="476.176" cy="437.812" r="4.8199" stroke-width="0.5" stroke="black" fill="magenta"/>
   </g>
   <g id="cell78">
  <circle cx="624.421" cy="460.939" r="8.26291" stroke-width="0.5" stroke="black" fill="green"/>
  <circle cx="624.421" cy="460.939" r="4.98904" stroke-width="0.5" stroke="black" fill="green"/>
   </g>
   <g id="cell79">
  <circle cx="517.737" cy="479.448" r="8.36178" stroke-width="0.5" stroke="black" fill="cyan"/>
  <circle cx="517.737" cy="479.448" r="5.03227" stroke-width="0.5" stroke="black" fill="cyan"/>
   </g>
   <g id="cell80">
  <circle cx="543.738" cy="613.612" r="6.69234" stroke-width="0.5" stroke="black" fill="green"/>
  <circle cx="543.738" cy="613.612" r="4.04336" stroke-width="0.5" stroke="black" fill="green"/>
   </g>
   <g id="cell81">
  <circle cx="544.763" cy="595.843" r="8.33005" stroke-width="0.5" stroke="black" fill="green"/>
  <circle cx="544.763" cy="595.843" r="5.01989" stroke-width="0.5" stroke="black" fill="green"/>
   </g>
   <g id="cell82">
  <circle cx="532.952" cy="559.216" r="8.34884" stroke-width="0.5" stroke="black" fill="magenta"/>
  <circle cx="532.952" cy="559.216" r="5.02667" stroke-width="0.5" stroke="black" fill="magenta"/>
   </g>
   <g id="cell83">
  <circle cx="634.514" cy="556.525" r="8.34884" stroke-width="0.5" stroke="black" fill="green"/>
  <circle cx="634.514" cy="556.525" r="5.02667" stroke-width="0.5" stroke="black" fill="green"/>
   </g>
   <g id="cell84">
  <circle cx="519.86" cy="501.911" r="8.31766" stroke-width="0.5" stroke="black" fill="cyan"/>
  <circle cx="519.86" cy="501.911" r="5.0126" stroke-width="0.5" stroke="black" fill="cyan"/>
   </g>
   <g id="cell85">
  <circle cx="352.779" cy="542.398" r="8.12203" stroke-width="0.5" stroke="black" fill="cyan"/>
  <circle cx="352.779" cy="542.398" r="4.92032" stroke-width="0.5" stroke="black" fill="cyan"/>
   </g>
   <g id="cell86">
  <circle cx="499.169" cy="528.999" r="6.595" stroke-width="0.5" stroke="black" fill="magenta"/>
  <circle cx="499.169" cy="528.999" r="3.97538" stroke-width="0.5" stroke="black" fill="magenta"/>
   </g>
   <g id="cell87">
  <circle cx="577.969" cy="556.636" r="7.99538" stroke-width="0.5" stroke="black" fill="cyan"/>
  <circle cx="577.969" cy="556.636" r="4.85379" stroke-width="0.5" stroke="black" fill="cyan"/>
   </g>
   <g id="cell88">
  <circle cx="448.459" cy="531.313" r="8.28985" stroke-width="0.5" stroke="black" fill="magenta"/>
  <circle cx="448.459" cy="531.313" r="4.99956" stroke-width="0.5" stroke="black" fill="magenta"/>
   </g>
   <g id="cell89">
  <circle cx="553.832" cy="455.371" r="8.28629" stroke-width="0.5" stroke="black" fill="cyan"/>
  <circle cx="553.832" cy="455.371" r="4.99786" stroke-width="0.5" stroke="black" fill="cyan"/>
   </g>
   <g id="cell90">
  <circle cx="631.04" cy="475.202" r="8.26291" stroke-width="0.5" stroke="black" fill="green"/>
  <circle cx="631.04" cy="475.202" r="4.98904" stroke-width="0.5" stroke="black" fill="green"/>
   </g>
   <g id="cell91">
  <circle cx="547.842" cy="556.704" r="8.16127" stroke-width="0.5" stroke="black" fill="magenta"/>
  <circle cx="547.842" cy="556.704" r="4.94257" stroke-width="0.5" stroke="black" fill="magenta"/>
   </g>
   <g id="cell92">
  <circle cx="482.525" cy="550.105" r="8.25377" stroke-width="0.5" stroke="black" fill="green"/>
  <circle cx="482.525" cy="550.105" r="4.98209" stroke-width="0.5" stroke="black" fill="green"/>
   </g>
   <g id="cell93">
  <circle cx="538.571" cy="545.692" r="8.16127" stroke-width="0.5" stroke="black" fill="magenta"/>
  <circle cx="538.571" cy="545.692" r="4.94257" stroke-width="0.5" stroke="black" fill="magenta"/>
   </g>
   <g id="cell94">
  <circle cx="533.894" cy="495.847" r="8.22925" stroke-width="0.5" stroke="black" fill="cyan"/>
  <circle cx="533.894" cy="495.847" r="4.96993" stroke-width="0.5" stroke="black" fill="cyan"/>
   </g>
   <g id="cell95">
  <circle cx="467.066" cy="425.91" r="8.2239" stroke-width="0.5" stroke="black" fill="cyan"/>
  <circle cx="467.066" cy="425.91" r="4.96725" stroke-width="0.5" stroke="black" fill="cyan"/>
   </g>
   <g id="cell96">
  <circle cx="542.935" cy="523.199" r="8.21273" stroke-width="0.5" stroke="black" fill="cyan"/>
  <circle cx="542.935" cy="523.199" r="4.96162" stroke-width="0.5" stroke="black" fill="cyan"/>
   </g>
   <g id="cell97">
  <circle cx="421.758" cy="466.306" r="8.02301" stroke-width="0.5" stroke="black" fill="green"/>
  <circle cx="421.758" cy="466.306" r="4.87068" stroke-width="0.5" stroke="black" fill="green"/>
   </g>
   <g id="cell98">
  <circle cx="493.797" cy="514.549" r="8.18177" stroke-width="0.5" stroke="black" fill="green"/>
  <circle cx="493.797" cy="514.549" r="4.94584" stroke-width="0.5" stroke="black" fill="green"/>
   </g>
   <g id="cell99">
  <circle cx="358.216" cy="527.941" r="8.12203" stroke-width="0.5" stroke="black" fill="cyan"/>
  <circle cx="358.216" cy="527.941" r="4.92032" stroke-width="0.5" stroke="black" fill="cyan"/>
   </g>
   <g id="cell100">
  <circle cx="449.155" cy="395.271" r="8.11707" stroke-width="0.5" stroke="black" fill="green"/>
  <circle cx="449.155" cy="395.271" r="4.9153" stroke-width="0.5" stroke="black" fill="green"/>
   </g>
   <g id="cell101">
  <circle cx="532.987" cy="476.399" r="8.11099" stroke-width="0.5" stroke="black" fill="cyan"/>
  <circle cx="532.987" cy="476.399" r="4.91273" stroke-width="0.5" stroke="black" fill="cyan"/>
   </g>
   <g id="cell102">
  <circle cx="434.762" cy="474.306" r="8.02301" stroke-width="0.5" stroke="black" fill="green"/>
  <circle cx="434.762" cy="474.306" r="4.87068" stroke-width="0.5" stroke="black" fill="green"/>
   </g>
   <g id="cell103">
  <circle cx="585.93" cy="446.374" r="6.44231" stroke-width="0.5" stroke="black" fill="cyan"/>
  <circle cx="585.93" cy="446.374" r="3.90127" stroke-width="0.5" stroke="black" fill="cyan"/>
   </g>
   <g id="cell104">
  <circle cx="592.676" cy="553.393" r="7.99538" stroke-width="0.5" stroke="black" fill="cyan"/>
  <circle cx="592.676" cy="553.393" r="4.85379" stroke-width="0.5" stroke="black" fill="cyan"/>
   </g>
   <g id="cell106">
  <circle cx="462.091" cy="440.057" r="7.94037" stroke-width="0.5" stroke="black" fill="magenta"/>
  <circle cx="462.091" cy="440.057" r="4.8199" stroke-width="0.5" stroke="black" fill="magenta"/>
   </g>
   <g id="cell107">
  <circle cx="456.754" cy="380.332" r="6.19916" stroke-width="0.5" stroke="black" fill="green"/>
  <circle cx="456.754" cy="380.332" r="3.77918" stroke-width="0.5" stroke="black" fill="green"/>
   </g>
   <g id="cell108">
  <circle cx="555.926" cy="606.597" r="7.86286" stroke-width="0.5" stroke="black" fill="green"/>
  <circle cx="555.926" cy="606.597" r="4.77207" stroke-width="0.5" stroke="black" fill="green"/>
   </g>
   <g id="cell109">
  <circle cx="576.702" cy="591.062" r="7.50261" stroke-width="0.5" stroke="black" fill="green"/>
  <circle cx="576.702" cy="591.062" r="4.58572" stroke-width="0.5" stroke="black" fill="green"/>
   </g>
   <g id="cell110">
  <circle cx="374.04" cy="514.328" r="7.65871" stroke-width="0.5" stroke="black" fill="cyan"/>
  <circle cx="374.04" cy="514.328" r="4.6537" stroke-width="0.5" stroke="black" fill="cyan"/>
   </g>
   <g id="cell111">
  <circle cx="453.626" cy="552.252" r="7.54007" stroke-width="0.5" stroke="black" fill="magenta"/>
  <circle cx="453.626" cy="552.252" r="4.59528" stroke-width="0.5" stroke="black" fill="magenta"/>
   </g>
   <g id="cell112">
  <circle cx="509.871" cy="466.857" r="7.56839" stroke-width="0.5" stroke="black" fill="magenta"/>
  <circle cx="509.871" cy="466.857" r="4.59998" stroke-width="0.5" stroke="black" fill="magenta"/>
   </g>
   <g id="cell113">
  <circle cx="543.074" cy="405.327" r="7.54436" stroke-width="0.5" stroke="black" fill="green"/>
  <circle cx="543.074" cy="405.327" r="4.58555" stroke-width="0.5" stroke="black" fill="green"/>
   </g>
   <g id="cell114">
  <circle cx="525.45" cy="450.234" r="6.84172" stroke-width="0.5" stroke="black" fill="cyan"/>
  <circle cx="525.45" cy="450.234" r="4.19761" stroke-width="0.5" stroke="black" fill="cyan"/>
   </g>
   <g id="cell115">
  <circle cx="537.558" cy="446.817" r="6.84172" stroke-width="0.5" stroke="black" fill="cyan"/>
  <circle cx="537.558" cy="446.817" r="4.19761" stroke-width="0.5" stroke="black" fill="cyan"/>
   </g>
   <g id="cell116">
  <circle cx="522.329" cy="521.807" r="7.17846" stroke-width="0.5" stroke="black" fill="cyan"/>
  <circle cx="522.329" cy="521.807" r="4.37222" stroke-width="0.5" stroke="black" fill="cyan"/>
   </g>
   <g id="cell117">
  <circle cx="511.698" cy="622.288" r="6.75353" stroke-width="0.5" stroke="black" fill="green"/>
  <circle cx="511.698" cy="622.288" r="4.12454" stroke-width="0.5" stroke="black" fill="green"/>
   </g>
   <g id="cell118">
  <circle cx="512.17" cy="452.917" r="6.72663" stroke-width="0.5" stroke="black" fill="cyan"/>
  <circle cx="512.17" cy="452.917" r="4.0571" stroke-width="0.5" stroke="black" fill="cyan"/>
   </g>
   <g id="cell119">
  <circle cx="534.048" cy="606.182" r="6.69234" stroke-width="0.5" stroke="black" fill="green"/>
  <circle cx="534.048" cy="606.182" r="4.04336" stroke-width="0.5" stroke="black" fill="green"/>
   </g>
   <g id="cell120">
  <circle cx="575.015" cy="443.356" r="6.44231" stroke-width="0.5" stroke="black" fill="cyan"/>
  <circle cx="575.015" cy="443.356" r="3.90127" stroke-width="0.5" stroke="black" fill="cyan"/>
   </g>
   <g id="cell121">
  <circle cx="449.674" cy="371.283" r="6.19916" stroke-width="0.5" stroke="black" fill="green"/>
  <circle cx="449.674" cy="371.283" r="3.77918" stroke-width="0.5" stroke="black" fill="green"/>
   </g>
   <g id="cell122">
  <circle cx="508.934" cy="523.875" r="6.595" stroke-width="0.5" stroke="black" fill="magenta"/>
  <circle cx="508.934" cy="523.875" r="3.97538" stroke-width="0.5" stroke="black" fill="magenta"/>
   </g>
  </g>
 </g>
  <rect x="775" y="1035" width="200" height="10" stroke-width="2" stroke="rgb(255,255,255)" fill="rgb(0,0,0)"/>
  <text x="781.25" y="1028.75"
   font-family="Arial" font-size="25" fill="black" >
   200 &#956;m
  </text>
  <text x="25" y="1045"
   font-family="Arial" font-size="18.75" fill="black" >
   0 days, 0 hours, 0 minutes, and 17.5227 seconds
  </text>
  <rect x="0" y="70" width="1000" height="1000" stroke-width="2" stroke="rgb(0,0,0)" fill="none"/>
</svg>
