<?xml version="1.0" encoding="UTF-8" standalone="no"?>
<!-- Created with PhysiCell (http://PhysiCell.MathCancer.org/) -->
<svg 
 xmlns:dc="http://purl.org/dc/elements/1.1/" 
 xmlns:cc="http://creativecommons.org/ns#" 
 xmlns:rdf="http://www.w3.org/1999/02/22-rdf-syntax-ns#" 
 xmlns:svg="http://www.w3.org/2000/svg" 
 xmlns="http://www.w3.org/2000/svg" 
 version="1.1" 
 width="1000" 
 height="1070" 
 id="svg2">
  <rect x="0" y="0" width="1000" height="1070" stroke-width="2" stroke="white" fill="white"/>
  <text x="12.5" y="30"
   font-family="Arial" font-size="25" fill="black" >
   Current time: 0 days, 19 hours, and 15.00 minutes, z = 0.00 &#956;m
  </text>
  <text x="12.5" y="57.5"
   font-family="Arial" font-size="23.75" fill="black" >
   134 agents
  </text>
 <g id="tissue" 
    transform="translate(0,1070) scale(1,-1)">
  <g id="ECM">
  </g>
  <g id="cells">
   <g id="cell0">
  <circle cx="513.427" cy="535.693" r="8.38028" stroke-width="0.5" stroke="black" fill="magenta"/>
  <circle cx="513.427" cy="535.693" r="5.03997" stroke-width="0.5" stroke="black" fill="magenta"/>
   </g>
   <g id="cell1">
  <circle cx="601.851" cy="524.399" r="8.41271" stroke-width="0.5" stroke="black" fill="magenta"/>
  <circle cx="601.851" cy="524.399" r="5.05167" stroke-width="0.5" stroke="black" fill="magenta"/>
   </g>
   <g id="cell2">
  <circle cx="515.63" cy="598.004" r="8.41271" stroke-width="0.5" stroke="black" fill="magenta"/>
  <circle cx="515.63" cy="598.004" r="5.05167" stroke-width="0.5" stroke="black" fill="magenta"/>
   </g>
   <g id="cell3">
  <circle cx="522.969" cy="547.745" r="8.35957" stroke-width="0.5" stroke="black" fill="magenta"/>
  <circle cx="522.969" cy="547.745" r="5.03217" stroke-width="0.5" stroke="black" fill="magenta"/>
   </g>
   <g id="cell4">
  <circle cx="488.767" cy="445.885" r="7.62897" stroke-width="0.5" stroke="black" fill="magenta"/>
  <circle cx="488.767" cy="445.885" r="4.6381" stroke-width="0.5" stroke="black" fill="magenta"/>
   </g>
   <g id="cell5">
  <circle cx="465.032" cy="493.3" r="8.41271" stroke-width="0.5" stroke="black" fill="magenta"/>
  <circle cx="465.032" cy="493.3" r="5.05167" stroke-width="0.5" stroke="black" fill="magenta"/>
   </g>
   <g id="cell6">
  <circle cx="596.529" cy="514.396" r="4.0657" stroke-width="0.5" stroke="black" fill="magenta"/>
  <circle cx="596.529" cy="514.396" r="2.92016" stroke-width="0.5" stroke="black" fill="black"/>
   </g>
   <g id="cell7">
  <circle cx="496.602" cy="457.581" r="8.15353" stroke-width="0.5" stroke="black" fill="magenta"/>
  <circle cx="496.602" cy="457.581" r="4.93122" stroke-width="0.5" stroke="black" fill="magenta"/>
   </g>
   <g id="cell8">
  <circle cx="376.371" cy="542.673" r="8.41271" stroke-width="0.5" stroke="black" fill="magenta"/>
  <circle cx="376.371" cy="542.673" r="5.05167" stroke-width="0.5" stroke="black" fill="magenta"/>
   </g>
   <g id="cell9">
  <circle cx="460.472" cy="599.786" r="4.64437" stroke-width="0.5" stroke="black" fill="magenta"/>
  <circle cx="460.472" cy="599.786" r="3.17578" stroke-width="0.5" stroke="black" fill="black"/>
   </g>
   <g id="cell10">
  <circle cx="583.447" cy="392.105" r="8.41271" stroke-width="0.5" stroke="black" fill="magenta"/>
  <circle cx="583.447" cy="392.105" r="5.05167" stroke-width="0.5" stroke="black" fill="magenta"/>
   </g>
   <g id="cell11">
  <circle cx="591.917" cy="590.051" r="8.41271" stroke-width="0.5" stroke="black" fill="magenta"/>
  <circle cx="591.917" cy="590.051" r="5.05167" stroke-width="0.5" stroke="black" fill="magenta"/>
   </g>
   <g id="cell12">
  <circle cx="506.615" cy="585.784" r="8.41271" stroke-width="0.5" stroke="black" fill="magenta"/>
  <circle cx="506.615" cy="585.784" r="5.05167" stroke-width="0.5" stroke="black" fill="magenta"/>
   </g>
   <g id="cell13">
  <circle cx="386.194" cy="568.228" r="8.41271" stroke-width="0.5" stroke="black" fill="magenta"/>
  <circle cx="386.194" cy="568.228" r="5.05167" stroke-width="0.5" stroke="black" fill="magenta"/>
   </g>
   <g id="cell14">
  <circle cx="528.968" cy="400.114" r="8.41271" stroke-width="0.5" stroke="black" fill="magenta"/>
  <circle cx="528.968" cy="400.114" r="5.05167" stroke-width="0.5" stroke="black" fill="magenta"/>
   </g>
   <g id="cell15">
  <circle cx="384.042" cy="476.937" r="7.21189" stroke-width="0.5" stroke="black" fill="magenta"/>
  <circle cx="384.042" cy="476.937" r="4.37993" stroke-width="0.5" stroke="black" fill="magenta"/>
   </g>
   <g id="cell16">
  <circle cx="429.021" cy="412.653" r="8.41271" stroke-width="0.5" stroke="black" fill="magenta"/>
  <circle cx="429.021" cy="412.653" r="5.05167" stroke-width="0.5" stroke="black" fill="magenta"/>
   </g>
   <g id="cell17">
  <circle cx="571.033" cy="491.304" r="8.41271" stroke-width="0.5" stroke="black" fill="magenta"/>
  <circle cx="571.033" cy="491.304" r="5.05167" stroke-width="0.5" stroke="black" fill="magenta"/>
   </g>
   <g id="cell18">
  <circle cx="518.103" cy="389.532" r="8.41271" stroke-width="0.5" stroke="black" fill="magenta"/>
  <circle cx="518.103" cy="389.532" r="5.05167" stroke-width="0.5" stroke="black" fill="magenta"/>
   </g>
   <g id="cell19">
  <circle cx="460.307" cy="540.586" r="8.14774" stroke-width="0.5" stroke="black" fill="magenta"/>
  <circle cx="460.307" cy="540.586" r="4.93121" stroke-width="0.5" stroke="black" fill="magenta"/>
   </g>
   <g id="cell20">
  <circle cx="530.706" cy="415.247" r="8.41271" stroke-width="0.5" stroke="black" fill="magenta"/>
  <circle cx="530.706" cy="415.247" r="5.05167" stroke-width="0.5" stroke="black" fill="magenta"/>
   </g>
   <g id="cell21">
  <circle cx="465.556" cy="633.483" r="8.41271" stroke-width="0.5" stroke="black" fill="magenta"/>
  <circle cx="465.556" cy="633.483" r="5.05167" stroke-width="0.5" stroke="black" fill="magenta"/>
   </g>
   <g id="cell22">
  <circle cx="556.258" cy="494.928" r="8.41271" stroke-width="0.5" stroke="black" fill="magenta"/>
  <circle cx="556.258" cy="494.928" r="5.05167" stroke-width="0.5" stroke="black" fill="magenta"/>
   </g>
   <g id="cell23">
  <circle cx="545.428" cy="484.232" r="8.41271" stroke-width="0.5" stroke="black" fill="magenta"/>
  <circle cx="545.428" cy="484.232" r="5.05167" stroke-width="0.5" stroke="black" fill="magenta"/>
   </g>
   <g id="cell24">
  <circle cx="558.779" cy="381.671" r="8.41271" stroke-width="0.5" stroke="black" fill="magenta"/>
  <circle cx="558.779" cy="381.671" r="5.05167" stroke-width="0.5" stroke="black" fill="magenta"/>
   </g>
   <g id="cell25">
  <circle cx="647.576" cy="543.688" r="8.3926" stroke-width="0.5" stroke="black" fill="green"/>
  <circle cx="647.576" cy="543.688" r="5.04482" stroke-width="0.5" stroke="black" fill="green"/>
   </g>
   <g id="cell26">
  <circle cx="555.135" cy="396.554" r="8.14594" stroke-width="0.5" stroke="black" fill="green"/>
  <circle cx="555.135" cy="396.554" r="4.92726" stroke-width="0.5" stroke="black" fill="green"/>
   </g>
   <g id="cell27">
  <circle cx="465.876" cy="395.265" r="8.40022" stroke-width="0.5" stroke="black" fill="green"/>
  <circle cx="465.876" cy="395.265" r="5.04764" stroke-width="0.5" stroke="black" fill="green"/>
   </g>
   <g id="cell28">
  <circle cx="432.947" cy="530.706" r="8.41271" stroke-width="0.5" stroke="black" fill="green"/>
  <circle cx="432.947" cy="530.706" r="5.05167" stroke-width="0.5" stroke="black" fill="green"/>
   </g>
   <g id="cell29">
  <circle cx="450.353" cy="516.8" r="8.41271" stroke-width="0.5" stroke="black" fill="green"/>
  <circle cx="450.353" cy="516.8" r="5.05167" stroke-width="0.5" stroke="black" fill="green"/>
   </g>
   <g id="cell30">
  <circle cx="483.569" cy="534.723" r="8.3632" stroke-width="0.5" stroke="black" fill="green"/>
  <circle cx="483.569" cy="534.723" r="5.03288" stroke-width="0.5" stroke="black" fill="green"/>
   </g>
   <g id="cell31">
  <circle cx="412.807" cy="541.561" r="8.41271" stroke-width="0.5" stroke="black" fill="green"/>
  <circle cx="412.807" cy="541.561" r="5.05167" stroke-width="0.5" stroke="black" fill="green"/>
   </g>
   <g id="cell32">
  <circle cx="421.035" cy="481.956" r="8.34511" stroke-width="0.5" stroke="black" fill="green"/>
  <circle cx="421.035" cy="481.956" r="5.02502" stroke-width="0.5" stroke="black" fill="green"/>
   </g>
   <g id="cell33">
  <circle cx="501.826" cy="421.815" r="8.41271" stroke-width="0.5" stroke="black" fill="green"/>
  <circle cx="501.826" cy="421.815" r="5.05167" stroke-width="0.5" stroke="black" fill="green"/>
   </g>
   <g id="cell34">
  <circle cx="397.088" cy="450.831" r="8.41271" stroke-width="0.5" stroke="black" fill="green"/>
  <circle cx="397.088" cy="450.831" r="5.05167" stroke-width="0.5" stroke="black" fill="green"/>
   </g>
   <g id="cell35">
  <circle cx="552.759" cy="542.472" r="8.41271" stroke-width="0.5" stroke="black" fill="green"/>
  <circle cx="552.759" cy="542.472" r="5.05167" stroke-width="0.5" stroke="black" fill="green"/>
   </g>
   <g id="cell36">
  <circle cx="391.486" cy="582.903" r="8.41271" stroke-width="0.5" stroke="black" fill="green"/>
  <circle cx="391.486" cy="582.903" r="5.05167" stroke-width="0.5" stroke="black" fill="green"/>
   </g>
   <g id="cell37">
  <circle cx="639.841" cy="458.144" r="8.39834" stroke-width="0.5" stroke="black" fill="green"/>
  <circle cx="639.841" cy="458.144" r="5.04696" stroke-width="0.5" stroke="black" fill="green"/>
   </g>
   <g id="cell38">
  <circle cx="529.304" cy="590.41" r="8.39571" stroke-width="0.5" stroke="black" fill="green"/>
  <circle cx="529.304" cy="590.41" r="5.04599" stroke-width="0.5" stroke="black" fill="green"/>
   </g>
   <g id="cell39">
  <circle cx="614.065" cy="489.751" r="8.41271" stroke-width="0.5" stroke="black" fill="green"/>
  <circle cx="614.065" cy="489.751" r="5.05167" stroke-width="0.5" stroke="black" fill="green"/>
   </g>
   <g id="cell40">
  <circle cx="485.348" cy="571.779" r="8.41271" stroke-width="0.5" stroke="black" fill="green"/>
  <circle cx="485.348" cy="571.779" r="5.05167" stroke-width="0.5" stroke="black" fill="green"/>
   </g>
   <g id="cell41">
  <circle cx="364.079" cy="481.205" r="8.41271" stroke-width="0.5" stroke="black" fill="green"/>
  <circle cx="364.079" cy="481.205" r="5.05167" stroke-width="0.5" stroke="black" fill="green"/>
   </g>
   <g id="cell42">
  <circle cx="438.827" cy="494.194" r="8.41271" stroke-width="0.5" stroke="black" fill="green"/>
  <circle cx="438.827" cy="494.194" r="5.05167" stroke-width="0.5" stroke="black" fill="green"/>
   </g>
   <g id="cell43">
  <circle cx="561.625" cy="440.947" r="8.41271" stroke-width="0.5" stroke="black" fill="green"/>
  <circle cx="561.625" cy="440.947" r="5.05167" stroke-width="0.5" stroke="black" fill="green"/>
   </g>
   <g id="cell44">
  <circle cx="474.669" cy="625.112" r="4.64437" stroke-width="0.5" stroke="black" fill="green"/>
  <circle cx="474.669" cy="625.112" r="3.17578" stroke-width="0.5" stroke="black" fill="black"/>
   </g>
   <g id="cell45">
  <circle cx="414.902" cy="556.698" r="1.56818" stroke-width="0.5" stroke="black" fill="green"/>
  <circle cx="414.902" cy="556.698" r="1.54219" stroke-width="0.5" stroke="black" fill="black"/>
   </g>
   <g id="cell46">
  <circle cx="520.542" cy="612.674" r="8.29667" stroke-width="0.5" stroke="black" fill="green"/>
  <circle cx="520.542" cy="612.674" r="5.00279" stroke-width="0.5" stroke="black" fill="green"/>
   </g>
   <g id="cell47">
  <circle cx="504.487" cy="496.056" r="8.34117" stroke-width="0.5" stroke="black" fill="green"/>
  <circle cx="504.487" cy="496.056" r="5.02327" stroke-width="0.5" stroke="black" fill="green"/>
   </g>
   <g id="cell48">
  <circle cx="571.012" cy="604.552" r="8.14212" stroke-width="0.5" stroke="black" fill="green"/>
  <circle cx="571.012" cy="604.552" r="4.93146" stroke-width="0.5" stroke="black" fill="green"/>
   </g>
   <g id="cell49">
  <circle cx="431.521" cy="397.216" r="8.41271" stroke-width="0.5" stroke="black" fill="green"/>
  <circle cx="431.521" cy="397.216" r="5.05167" stroke-width="0.5" stroke="black" fill="green"/>
   </g>
   <g id="cell50">
  <circle cx="511.799" cy="509.645" r="8.02978" stroke-width="0.5" stroke="black" fill="cyan"/>
  <circle cx="511.799" cy="509.645" r="4.86807" stroke-width="0.5" stroke="black" fill="cyan"/>
   </g>
   <g id="cell51">
  <circle cx="398.721" cy="597.201" r="8.41271" stroke-width="0.5" stroke="black" fill="cyan"/>
  <circle cx="398.721" cy="597.201" r="5.05167" stroke-width="0.5" stroke="black" fill="cyan"/>
   </g>
   <g id="cell52">
  <circle cx="517.571" cy="423.466" r="8.41271" stroke-width="0.5" stroke="black" fill="cyan"/>
  <circle cx="517.571" cy="423.466" r="5.05167" stroke-width="0.5" stroke="black" fill="cyan"/>
   </g>
   <g id="cell53">
  <circle cx="572.743" cy="429.503" r="8.31491" stroke-width="0.5" stroke="black" fill="cyan"/>
  <circle cx="572.743" cy="429.503" r="5.01133" stroke-width="0.5" stroke="black" fill="cyan"/>
   </g>
   <g id="cell54">
  <circle cx="481.888" cy="421.586" r="8.35404" stroke-width="0.5" stroke="black" fill="cyan"/>
  <circle cx="481.888" cy="421.586" r="5.02894" stroke-width="0.5" stroke="black" fill="cyan"/>
   </g>
   <g id="cell55">
  <circle cx="521.801" cy="463.765" r="8.31969" stroke-width="0.5" stroke="black" fill="cyan"/>
  <circle cx="521.801" cy="463.765" r="5.01455" stroke-width="0.5" stroke="black" fill="cyan"/>
   </g>
   <g id="cell56">
  <circle cx="617.361" cy="522.377" r="8.41271" stroke-width="0.5" stroke="black" fill="cyan"/>
  <circle cx="617.361" cy="522.377" r="5.05167" stroke-width="0.5" stroke="black" fill="cyan"/>
   </g>
   <g id="cell105">
  <circle cx="505.594" cy="609.396" r="7.89927" stroke-width="0.5" stroke="black" fill="green"/>
  <circle cx="505.594" cy="609.396" r="4.80131" stroke-width="0.5" stroke="black" fill="green"/>
   </g>
   <g id="cell58">
  <circle cx="560.457" cy="479.905" r="8.41271" stroke-width="0.5" stroke="black" fill="cyan"/>
  <circle cx="560.457" cy="479.905" r="5.05167" stroke-width="0.5" stroke="black" fill="cyan"/>
   </g>
   <g id="cell59">
  <circle cx="385.463" cy="439.803" r="8.41271" stroke-width="0.5" stroke="black" fill="cyan"/>
  <circle cx="385.463" cy="439.803" r="5.05167" stroke-width="0.5" stroke="black" fill="cyan"/>
   </g>
   <g id="cell60">
  <circle cx="591.885" cy="473.853" r="8.41271" stroke-width="0.5" stroke="black" fill="cyan"/>
  <circle cx="591.885" cy="473.853" r="5.05167" stroke-width="0.5" stroke="black" fill="cyan"/>
   </g>
   <g id="cell61">
  <circle cx="557.173" cy="622.647" r="8.41271" stroke-width="0.5" stroke="black" fill="cyan"/>
  <circle cx="557.173" cy="622.647" r="5.05167" stroke-width="0.5" stroke="black" fill="cyan"/>
   </g>
   <g id="cell62">
  <circle cx="514.099" cy="438.454" r="7.82318" stroke-width="0.5" stroke="black" fill="cyan"/>
  <circle cx="514.099" cy="438.454" r="4.75108" stroke-width="0.5" stroke="black" fill="cyan"/>
   </g>
   <g id="cell63">
  <circle cx="580.305" cy="542.798" r="7.09353" stroke-width="0.5" stroke="black" fill="cyan"/>
  <circle cx="580.305" cy="542.798" r="4.31015" stroke-width="0.5" stroke="black" fill="cyan"/>
   </g>
   <g id="cell64">
  <circle cx="509.725" cy="639.175" r="8.41271" stroke-width="0.5" stroke="black" fill="cyan"/>
  <circle cx="509.725" cy="639.175" r="5.05167" stroke-width="0.5" stroke="black" fill="cyan"/>
   </g>
   <g id="cell65">
  <circle cx="548.719" cy="469.307" r="8.37321" stroke-width="0.5" stroke="black" fill="cyan"/>
  <circle cx="548.719" cy="469.307" r="5.03708" stroke-width="0.5" stroke="black" fill="cyan"/>
   </g>
   <g id="cell66">
  <circle cx="529.205" cy="533.695" r="8.35062" stroke-width="0.5" stroke="black" fill="cyan"/>
  <circle cx="529.205" cy="533.695" r="5.02745" stroke-width="0.5" stroke="black" fill="cyan"/>
   </g>
   <g id="cell67">
  <circle cx="353.925" cy="493.558" r="8.41271" stroke-width="0.5" stroke="black" fill="cyan"/>
  <circle cx="353.925" cy="493.558" r="5.05167" stroke-width="0.5" stroke="black" fill="cyan"/>
   </g>
   <g id="cell68">
  <circle cx="562.982" cy="554.852" r="8.41271" stroke-width="0.5" stroke="black" fill="cyan"/>
  <circle cx="562.982" cy="554.852" r="5.05167" stroke-width="0.5" stroke="black" fill="cyan"/>
   </g>
   <g id="cell69">
  <circle cx="442.219" cy="460.341" r="8.41271" stroke-width="0.5" stroke="black" fill="cyan"/>
  <circle cx="442.219" cy="460.341" r="5.05167" stroke-width="0.5" stroke="black" fill="cyan"/>
   </g>
   <g id="cell70">
  <circle cx="576.093" cy="476.521" r="8.41271" stroke-width="0.5" stroke="black" fill="cyan"/>
  <circle cx="576.093" cy="476.521" r="5.05167" stroke-width="0.5" stroke="black" fill="cyan"/>
   </g>
   <g id="cell71">
  <circle cx="380.088" cy="527.769" r="8.18177" stroke-width="0.5" stroke="black" fill="cyan"/>
  <circle cx="380.088" cy="527.769" r="4.94584" stroke-width="0.5" stroke="black" fill="cyan"/>
   </g>
   <g id="cell72">
  <circle cx="528.437" cy="509.691" r="8.35568" stroke-width="0.5" stroke="black" fill="cyan"/>
  <circle cx="528.437" cy="509.691" r="5.02965" stroke-width="0.5" stroke="black" fill="cyan"/>
   </g>
   <g id="cell73">
  <circle cx="364.601" cy="552.851" r="8.38118" stroke-width="0.5" stroke="black" fill="cyan"/>
  <circle cx="364.601" cy="552.851" r="5.04034" stroke-width="0.5" stroke="black" fill="cyan"/>
   </g>
   <g id="cell74">
  <circle cx="548.647" cy="434.169" r="3.93948" stroke-width="0.5" stroke="black" fill="cyan"/>
  <circle cx="548.647" cy="434.169" r="2.84894" stroke-width="0.5" stroke="black" fill="black"/>
   </g>
   <g id="cell75">
  <circle cx="529.384" cy="433.942" r="8.40056" stroke-width="0.5" stroke="black" fill="cyan"/>
  <circle cx="529.384" cy="433.942" r="5.04776" stroke-width="0.5" stroke="black" fill="cyan"/>
   </g>
   <g id="cell76">
  <circle cx="442.155" cy="382.041" r="8.22404" stroke-width="0.5" stroke="black" fill="green"/>
  <circle cx="442.155" cy="382.041" r="4.97167" stroke-width="0.5" stroke="black" fill="green"/>
   </g>
   <g id="cell77">
  <circle cx="478.04" cy="436.52" r="8.26815" stroke-width="0.5" stroke="black" fill="magenta"/>
  <circle cx="478.04" cy="436.52" r="4.99018" stroke-width="0.5" stroke="black" fill="magenta"/>
   </g>
   <g id="cell78">
  <circle cx="624.464" cy="462.471" r="8.36596" stroke-width="0.5" stroke="black" fill="green"/>
  <circle cx="624.464" cy="462.471" r="5.0347" stroke-width="0.5" stroke="black" fill="green"/>
   </g>
   <g id="cell79">
  <circle cx="517.417" cy="479.126" r="8.39664" stroke-width="0.5" stroke="black" fill="cyan"/>
  <circle cx="517.417" cy="479.126" r="5.04633" stroke-width="0.5" stroke="black" fill="cyan"/>
   </g>
   <g id="cell80">
  <circle cx="543.403" cy="615.914" r="7.81519" stroke-width="0.5" stroke="black" fill="green"/>
  <circle cx="543.403" cy="615.914" r="4.74821" stroke-width="0.5" stroke="black" fill="green"/>
   </g>
   <g id="cell81">
  <circle cx="544.898" cy="594.912" r="8.38671" stroke-width="0.5" stroke="black" fill="green"/>
  <circle cx="544.898" cy="594.912" r="5.04296" stroke-width="0.5" stroke="black" fill="green"/>
   </g>
   <g id="cell82">
  <circle cx="532.474" cy="559.751" r="8.3926" stroke-width="0.5" stroke="black" fill="magenta"/>
  <circle cx="532.474" cy="559.751" r="5.04482" stroke-width="0.5" stroke="black" fill="magenta"/>
   </g>
   <g id="cell83">
  <circle cx="635.645" cy="552.729" r="7.42958" stroke-width="0.5" stroke="black" fill="green"/>
  <circle cx="635.645" cy="552.729" r="4.51911" stroke-width="0.5" stroke="black" fill="green"/>
   </g>
   <g id="cell84">
  <circle cx="520.324" cy="496.467" r="8.38291" stroke-width="0.5" stroke="black" fill="cyan"/>
  <circle cx="520.324" cy="496.467" r="5.04103" stroke-width="0.5" stroke="black" fill="cyan"/>
   </g>
   <g id="cell85">
  <circle cx="352.544" cy="542.485" r="8.32309" stroke-width="0.5" stroke="black" fill="cyan"/>
  <circle cx="352.544" cy="542.485" r="5.01658" stroke-width="0.5" stroke="black" fill="cyan"/>
   </g>
   <g id="cell86">
  <circle cx="498.7" cy="534.956" r="7.74009" stroke-width="0.5" stroke="black" fill="magenta"/>
  <circle cx="498.7" cy="534.956" r="4.70537" stroke-width="0.5" stroke="black" fill="magenta"/>
   </g>
   <g id="cell87">
  <circle cx="578.77" cy="557.282" r="8.28503" stroke-width="0.5" stroke="black" fill="cyan"/>
  <circle cx="578.77" cy="557.282" r="4.99921" stroke-width="0.5" stroke="black" fill="cyan"/>
   </g>
   <g id="cell88">
  <circle cx="448.399" cy="531.921" r="8.37431" stroke-width="0.5" stroke="black" fill="magenta"/>
  <circle cx="448.399" cy="531.921" r="5.03754" stroke-width="0.5" stroke="black" fill="magenta"/>
   </g>
   <g id="cell89">
  <circle cx="553.24" cy="452.59" r="6.70204" stroke-width="0.5" stroke="black" fill="cyan"/>
  <circle cx="553.24" cy="452.59" r="4.03897" stroke-width="0.5" stroke="black" fill="cyan"/>
   </g>
   <g id="cell90">
  <circle cx="635.661" cy="472.553" r="7.43917" stroke-width="0.5" stroke="black" fill="green"/>
  <circle cx="635.661" cy="472.553" r="4.52857" stroke-width="0.5" stroke="black" fill="green"/>
   </g>
   <g id="cell91">
  <circle cx="547.556" cy="557.313" r="8.33497" stroke-width="0.5" stroke="black" fill="magenta"/>
  <circle cx="547.556" cy="557.313" r="5.02242" stroke-width="0.5" stroke="black" fill="magenta"/>
   </g>
   <g id="cell92">
  <circle cx="482.49" cy="550.405" r="8.3632" stroke-width="0.5" stroke="black" fill="green"/>
  <circle cx="482.49" cy="550.405" r="5.03288" stroke-width="0.5" stroke="black" fill="green"/>
   </g>
   <g id="cell93">
  <circle cx="537.925" cy="545.959" r="8.33497" stroke-width="0.5" stroke="black" fill="magenta"/>
  <circle cx="537.925" cy="545.959" r="5.02242" stroke-width="0.5" stroke="black" fill="magenta"/>
   </g>
   <g id="cell94">
  <circle cx="536.551" cy="496.541" r="8.35568" stroke-width="0.5" stroke="black" fill="cyan"/>
  <circle cx="536.551" cy="496.541" r="5.02965" stroke-width="0.5" stroke="black" fill="cyan"/>
   </g>
   <g id="cell95">
  <circle cx="466.661" cy="426.214" r="8.35404" stroke-width="0.5" stroke="black" fill="cyan"/>
  <circle cx="466.661" cy="426.214" r="5.02894" stroke-width="0.5" stroke="black" fill="cyan"/>
   </g>
   <g id="cell96">
  <circle cx="546.625" cy="529.007" r="6.73405" stroke-width="0.5" stroke="black" fill="cyan"/>
  <circle cx="546.625" cy="529.007" r="4.06835" stroke-width="0.5" stroke="black" fill="cyan"/>
   </g>
   <g id="cell97">
  <circle cx="421.638" cy="466.126" r="8.29352" stroke-width="0.5" stroke="black" fill="green"/>
  <circle cx="421.638" cy="466.126" r="5.00372" stroke-width="0.5" stroke="black" fill="green"/>
   </g>
   <g id="cell98">
  <circle cx="491.752" cy="522.42" r="7.5937" stroke-width="0.5" stroke="black" fill="green"/>
  <circle cx="491.752" cy="522.42" r="4.62317" stroke-width="0.5" stroke="black" fill="green"/>
   </g>
   <g id="cell99">
  <circle cx="358.299" cy="527.724" r="8.32309" stroke-width="0.5" stroke="black" fill="cyan"/>
  <circle cx="358.299" cy="527.724" r="5.01658" stroke-width="0.5" stroke="black" fill="cyan"/>
   </g>
   <g id="cell100">
  <circle cx="449.646" cy="395.996" r="8.32151" stroke-width="0.5" stroke="black" fill="green"/>
  <circle cx="449.646" cy="395.996" r="5.01522" stroke-width="0.5" stroke="black" fill="green"/>
   </g>
   <g id="cell101">
  <circle cx="531.828" cy="479.867" r="6.63852" stroke-width="0.5" stroke="black" fill="cyan"/>
  <circle cx="531.828" cy="479.867" r="4.00519" stroke-width="0.5" stroke="black" fill="cyan"/>
   </g>
   <g id="cell102">
  <circle cx="435.017" cy="474.522" r="8.29352" stroke-width="0.5" stroke="black" fill="green"/>
  <circle cx="435.017" cy="474.522" r="5.00372" stroke-width="0.5" stroke="black" fill="green"/>
   </g>
   <g id="cell103">
  <circle cx="590.808" cy="447.718" r="7.72067" stroke-width="0.5" stroke="black" fill="cyan"/>
  <circle cx="590.808" cy="447.718" r="4.69924" stroke-width="0.5" stroke="black" fill="cyan"/>
   </g>
   <g id="cell104">
  <circle cx="593.955" cy="552.964" r="8.28503" stroke-width="0.5" stroke="black" fill="cyan"/>
  <circle cx="593.955" cy="552.964" r="4.99921" stroke-width="0.5" stroke="black" fill="cyan"/>
   </g>
   <g id="cell106">
  <circle cx="464.023" cy="441.419" r="8.26815" stroke-width="0.5" stroke="black" fill="magenta"/>
  <circle cx="464.023" cy="441.419" r="4.99018" stroke-width="0.5" stroke="black" fill="magenta"/>
   </g>
   <g id="cell107">
  <circle cx="457.246" cy="382.972" r="7.66818" stroke-width="0.5" stroke="black" fill="green"/>
  <circle cx="457.246" cy="382.972" r="4.676" stroke-width="0.5" stroke="black" fill="green"/>
   </g>
   <g id="cell108">
  <circle cx="555.589" cy="606.761" r="8.24438" stroke-width="0.5" stroke="black" fill="green"/>
  <circle cx="555.589" cy="606.761" r="4.97746" stroke-width="0.5" stroke="black" fill="green"/>
   </g>
   <g id="cell109">
  <circle cx="576.585" cy="590.118" r="8.14212" stroke-width="0.5" stroke="black" fill="green"/>
  <circle cx="576.585" cy="590.118" r="4.93146" stroke-width="0.5" stroke="black" fill="green"/>
   </g>
   <g id="cell110">
  <circle cx="373.719" cy="513.584" r="8.18177" stroke-width="0.5" stroke="black" fill="cyan"/>
  <circle cx="373.719" cy="513.584" r="4.94584" stroke-width="0.5" stroke="black" fill="cyan"/>
   </g>
   <g id="cell111">
  <circle cx="455.637" cy="552.851" r="6.5262" stroke-width="0.5" stroke="black" fill="magenta"/>
  <circle cx="455.637" cy="552.851" r="3.95642" stroke-width="0.5" stroke="black" fill="magenta"/>
   </g>
   <g id="cell112">
  <circle cx="507.224" cy="467.592" r="8.15353" stroke-width="0.5" stroke="black" fill="magenta"/>
  <circle cx="507.224" cy="467.592" r="4.93122" stroke-width="0.5" stroke="black" fill="magenta"/>
   </g>
   <g id="cell113">
  <circle cx="543.044" cy="406.167" r="8.14594" stroke-width="0.5" stroke="black" fill="green"/>
  <circle cx="543.044" cy="406.167" r="4.92726" stroke-width="0.5" stroke="black" fill="green"/>
   </g>
   <g id="cell114">
  <circle cx="524.75" cy="448.696" r="7.95344" stroke-width="0.5" stroke="black" fill="cyan"/>
  <circle cx="524.75" cy="448.696" r="4.83424" stroke-width="0.5" stroke="black" fill="cyan"/>
   </g>
   <g id="cell115">
  <circle cx="537.408" cy="453.931" r="6.6957" stroke-width="0.5" stroke="black" fill="cyan"/>
  <circle cx="537.408" cy="453.931" r="4.09985" stroke-width="0.5" stroke="black" fill="cyan"/>
   </g>
   <g id="cell116">
  <circle cx="519.923" cy="522.083" r="8.02978" stroke-width="0.5" stroke="black" fill="cyan"/>
  <circle cx="519.923" cy="522.083" r="4.86807" stroke-width="0.5" stroke="black" fill="cyan"/>
   </g>
   <g id="cell117">
  <circle cx="510.121" cy="623.755" r="7.89927" stroke-width="0.5" stroke="black" fill="green"/>
  <circle cx="510.121" cy="623.755" r="4.80131" stroke-width="0.5" stroke="black" fill="green"/>
   </g>
   <g id="cell118">
  <circle cx="510.636" cy="453.136" r="7.82318" stroke-width="0.5" stroke="black" fill="cyan"/>
  <circle cx="510.636" cy="453.136" r="4.75108" stroke-width="0.5" stroke="black" fill="cyan"/>
   </g>
   <g id="cell119">
  <circle cx="533.479" cy="605.045" r="7.81519" stroke-width="0.5" stroke="black" fill="green"/>
  <circle cx="533.479" cy="605.045" r="4.74821" stroke-width="0.5" stroke="black" fill="green"/>
   </g>
   <g id="cell120">
  <circle cx="576.609" cy="444.216" r="7.72067" stroke-width="0.5" stroke="black" fill="cyan"/>
  <circle cx="576.609" cy="444.216" r="4.69924" stroke-width="0.5" stroke="black" fill="cyan"/>
   </g>
   <g id="cell121">
  <circle cx="451.353" cy="370.867" r="6.85264" stroke-width="0.5" stroke="black" fill="green"/>
  <circle cx="451.353" cy="370.867" r="4.21198" stroke-width="0.5" stroke="black" fill="green"/>
   </g>
   <g id="cell122">
  <circle cx="505.708" cy="523.024" r="7.74009" stroke-width="0.5" stroke="black" fill="magenta"/>
  <circle cx="505.708" cy="523.024" r="4.70537" stroke-width="0.5" stroke="black" fill="magenta"/>
   </g>
   <g id="cell123">
  <circle cx="497.15" cy="509.338" r="7.5937" stroke-width="0.5" stroke="black" fill="green"/>
  <circle cx="497.15" cy="509.338" r="4.62317" stroke-width="0.5" stroke="black" fill="green"/>
   </g>
   <g id="cell124">
  <circle cx="491.756" cy="432.584" r="7.62897" stroke-width="0.5" stroke="black" fill="magenta"/>
  <circle cx="491.756" cy="432.584" r="4.6381" stroke-width="0.5" stroke="black" fill="magenta"/>
   </g>
   <g id="cell125">
  <circle cx="622.448" cy="477.33" r="7.43917" stroke-width="0.5" stroke="black" fill="green"/>
  <circle cx="622.448" cy="477.33" r="4.52857" stroke-width="0.5" stroke="black" fill="green"/>
   </g>
   <g id="cell126">
  <circle cx="629.469" cy="565.334" r="7.42958" stroke-width="0.5" stroke="black" fill="green"/>
  <circle cx="629.469" cy="565.334" r="4.51911" stroke-width="0.5" stroke="black" fill="green"/>
   </g>
   <g id="cell127">
  <circle cx="441.087" cy="363.248" r="6.85264" stroke-width="0.5" stroke="black" fill="green"/>
  <circle cx="441.087" cy="363.248" r="4.21198" stroke-width="0.5" stroke="black" fill="green"/>
   </g>
   <g id="cell128">
  <circle cx="373.152" cy="469.946" r="7.21189" stroke-width="0.5" stroke="black" fill="magenta"/>
  <circle cx="373.152" cy="469.946" r="4.37993" stroke-width="0.5" stroke="black" fill="magenta"/>
   </g>
   <g id="cell129">
  <circle cx="567.145" cy="540.647" r="7.09353" stroke-width="0.5" stroke="black" fill="cyan"/>
  <circle cx="567.145" cy="540.647" r="4.31015" stroke-width="0.5" stroke="black" fill="cyan"/>
   </g>
   <g id="cell130">
  <circle cx="544.68" cy="443.494" r="6.6957" stroke-width="0.5" stroke="black" fill="cyan"/>
  <circle cx="544.68" cy="443.494" r="4.09985" stroke-width="0.5" stroke="black" fill="cyan"/>
   </g>
   <g id="cell131">
  <circle cx="538.343" cy="519.538" r="6.73405" stroke-width="0.5" stroke="black" fill="cyan"/>
  <circle cx="538.343" cy="519.538" r="4.06835" stroke-width="0.5" stroke="black" fill="cyan"/>
   </g>
   <g id="cell132">
  <circle cx="447.225" cy="544.976" r="6.5262" stroke-width="0.5" stroke="black" fill="magenta"/>
  <circle cx="447.225" cy="544.976" r="3.95642" stroke-width="0.5" stroke="black" fill="magenta"/>
   </g>
   <g id="cell133">
  <circle cx="560.872" cy="462.519" r="6.70204" stroke-width="0.5" stroke="black" fill="cyan"/>
  <circle cx="560.872" cy="462.519" r="4.03897" stroke-width="0.5" stroke="black" fill="cyan"/>
   </g>
   <g id="cell134">
  <circle cx="535.039" cy="467.803" r="6.63852" stroke-width="0.5" stroke="black" fill="cyan"/>
  <circle cx="535.039" cy="467.803" r="4.00519" stroke-width="0.5" stroke="black" fill="cyan"/>
   </g>
  </g>
 </g>
  <rect x="775" y="1035" width="200" height="10" stroke-width="2" stroke="rgb(255,255,255)" fill="rgb(0,0,0)"/>
  <text x="781.25" y="1028.75"
   font-family="Arial" font-size="25" fill="black" >
   200 &#956;m
  </text>
  <text x="25" y="1045"
   font-family="Arial" font-size="18.75" fill="black" >
   0 days, 0 hours, 0 minutes, and 22.5885 seconds
  </text>
  <rect x="0" y="70" width="1000" height="1000" stroke-width="2" stroke="rgb(0,0,0)" fill="none"/>
</svg>
