<?xml version="1.0" encoding="UTF-8" standalone="no"?>
<!-- Created with PhysiCell (http://PhysiCell.MathCancer.org/) -->
<svg 
 xmlns:dc="http://purl.org/dc/elements/1.1/" 
 xmlns:cc="http://creativecommons.org/ns#" 
 xmlns:rdf="http://www.w3.org/1999/02/22-rdf-syntax-ns#" 
 xmlns:svg="http://www.w3.org/2000/svg" 
 xmlns="http://www.w3.org/2000/svg" 
 version="1.1" 
 width="1000" 
 height="1070" 
 id="svg2">
  <rect x="0" y="0" width="1000" height="1070" stroke-width="2" stroke="white" fill="white"/>
  <text x="12.5" y="30"
   font-family="Arial" font-size="25" fill="black" >
   Current time: 1 days, 8 hours, and 33.00 minutes, z = 0.00 &#956;m
  </text>
  <text x="12.5" y="57.5"
   font-family="Arial" font-size="23.75" fill="black" >
   182 agents
  </text>
 <g id="tissue" 
    transform="translate(0,1070) scale(1,-1)">
  <g id="ECM">
  </g>
  <g id="cells">
   <g id="cell0">
  <circle cx="512.704" cy="537.58" r="8.41192" stroke-width="0.5" stroke="black" fill="magenta"/>
  <circle cx="512.704" cy="537.58" r="5.05148" stroke-width="0.5" stroke="black" fill="magenta"/>
   </g>
   <g id="cell1">
  <circle cx="593.617" cy="526.801" r="7.93688" stroke-width="0.5" stroke="black" fill="magenta"/>
  <circle cx="593.617" cy="526.801" r="4.81381" stroke-width="0.5" stroke="black" fill="magenta"/>
   </g>
   <g id="cell2">
  <circle cx="517.036" cy="598.901" r="8.41271" stroke-width="0.5" stroke="black" fill="magenta"/>
  <circle cx="517.036" cy="598.901" r="5.05167" stroke-width="0.5" stroke="black" fill="magenta"/>
   </g>
   <g id="cell3">
  <circle cx="524.048" cy="548.002" r="8.41141" stroke-width="0.5" stroke="black" fill="magenta"/>
  <circle cx="524.048" cy="548.002" r="5.05135" stroke-width="0.5" stroke="black" fill="magenta"/>
   </g>
   <g id="cell4">
  <circle cx="485.214" cy="447.267" r="8.39507" stroke-width="0.5" stroke="black" fill="magenta"/>
  <circle cx="485.214" cy="447.267" r="5.04577" stroke-width="0.5" stroke="black" fill="magenta"/>
   </g>
   <g id="cell5">
  <circle cx="466.883" cy="490.179" r="8.41271" stroke-width="0.5" stroke="black" fill="magenta"/>
  <circle cx="466.883" cy="490.179" r="5.05167" stroke-width="0.5" stroke="black" fill="magenta"/>
   </g>
   <g id="cell163">
  <circle cx="540.001" cy="574.936" r="8.05628" stroke-width="0.5" stroke="black" fill="green"/>
  <circle cx="540.001" cy="574.936" r="4.8796" stroke-width="0.5" stroke="black" fill="green"/>
   </g>
   <g id="cell7">
  <circle cx="496.289" cy="456.237" r="7.87507" stroke-width="0.5" stroke="black" fill="magenta"/>
  <circle cx="496.289" cy="456.237" r="4.77988" stroke-width="0.5" stroke="black" fill="magenta"/>
   </g>
   <g id="cell8">
  <circle cx="378.234" cy="552.072" r="8.05651" stroke-width="0.5" stroke="black" fill="magenta"/>
  <circle cx="378.234" cy="552.072" r="4.87966" stroke-width="0.5" stroke="black" fill="magenta"/>
   </g>
   <g id="cell161">
  <circle cx="451.335" cy="382.129" r="7.92507" stroke-width="0.5" stroke="black" fill="green"/>
  <circle cx="451.335" cy="382.129" r="4.82008" stroke-width="0.5" stroke="black" fill="green"/>
   </g>
   <g id="cell10">
  <circle cx="586.157" cy="389.42" r="8.26685" stroke-width="0.5" stroke="black" fill="magenta"/>
  <circle cx="586.157" cy="389.42" r="4.98849" stroke-width="0.5" stroke="black" fill="magenta"/>
   </g>
   <g id="cell11">
  <circle cx="592.135" cy="590.053" r="8.41271" stroke-width="0.5" stroke="black" fill="magenta"/>
  <circle cx="592.135" cy="590.053" r="5.05167" stroke-width="0.5" stroke="black" fill="magenta"/>
   </g>
   <g id="cell12">
  <circle cx="503.081" cy="592.725" r="8.3632" stroke-width="0.5" stroke="black" fill="magenta"/>
  <circle cx="503.081" cy="592.725" r="5.03288" stroke-width="0.5" stroke="black" fill="magenta"/>
   </g>
   <g id="cell13">
  <circle cx="384.605" cy="565.768" r="8.41271" stroke-width="0.5" stroke="black" fill="magenta"/>
  <circle cx="384.605" cy="565.768" r="5.05167" stroke-width="0.5" stroke="black" fill="magenta"/>
   </g>
   <g id="cell14">
  <circle cx="520.285" cy="404.246" r="8.41271" stroke-width="0.5" stroke="black" fill="magenta"/>
  <circle cx="520.285" cy="404.246" r="5.05167" stroke-width="0.5" stroke="black" fill="magenta"/>
   </g>
   <g id="cell15">
  <circle cx="381.846" cy="479.111" r="8.38532" stroke-width="0.5" stroke="black" fill="magenta"/>
  <circle cx="381.846" cy="479.111" r="5.04199" stroke-width="0.5" stroke="black" fill="magenta"/>
   </g>
   <g id="cell16">
  <circle cx="444.552" cy="418.334" r="8.25324" stroke-width="0.5" stroke="black" fill="magenta"/>
  <circle cx="444.552" cy="418.334" r="4.98647" stroke-width="0.5" stroke="black" fill="magenta"/>
   </g>
   <g id="cell17">
  <circle cx="573.427" cy="493.538" r="7.1497" stroke-width="0.5" stroke="black" fill="magenta"/>
  <circle cx="573.427" cy="493.538" r="4.34001" stroke-width="0.5" stroke="black" fill="magenta"/>
   </g>
   <g id="cell18">
  <circle cx="517.983" cy="389.349" r="8.41271" stroke-width="0.5" stroke="black" fill="magenta"/>
  <circle cx="517.983" cy="389.349" r="5.05167" stroke-width="0.5" stroke="black" fill="magenta"/>
   </g>
   <g id="cell19">
  <circle cx="457.981" cy="541.38" r="8.40653" stroke-width="0.5" stroke="black" fill="magenta"/>
  <circle cx="457.981" cy="541.38" r="5.04986" stroke-width="0.5" stroke="black" fill="magenta"/>
   </g>
   <g id="cell20">
  <circle cx="531.364" cy="414.648" r="8.41271" stroke-width="0.5" stroke="black" fill="magenta"/>
  <circle cx="531.364" cy="414.648" r="5.05167" stroke-width="0.5" stroke="black" fill="magenta"/>
   </g>
   <g id="cell21">
  <circle cx="466.883" cy="632.265" r="8.41271" stroke-width="0.5" stroke="black" fill="magenta"/>
  <circle cx="466.883" cy="632.265" r="5.05167" stroke-width="0.5" stroke="black" fill="magenta"/>
   </g>
   <g id="cell22">
  <circle cx="560.24" cy="493.567" r="7.46878" stroke-width="0.5" stroke="black" fill="magenta"/>
  <circle cx="560.24" cy="493.567" r="4.53982" stroke-width="0.5" stroke="black" fill="magenta"/>
   </g>
   <g id="cell23">
  <circle cx="553.081" cy="481.261" r="8.41271" stroke-width="0.5" stroke="black" fill="magenta"/>
  <circle cx="553.081" cy="481.261" r="5.05167" stroke-width="0.5" stroke="black" fill="magenta"/>
   </g>
   <g id="cell24">
  <circle cx="561.363" cy="384.699" r="8.41271" stroke-width="0.5" stroke="black" fill="magenta"/>
  <circle cx="561.363" cy="384.699" r="5.05167" stroke-width="0.5" stroke="black" fill="magenta"/>
   </g>
   <g id="cell25">
  <circle cx="648.234" cy="543.205" r="8.41221" stroke-width="0.5" stroke="black" fill="green"/>
  <circle cx="648.234" cy="543.205" r="5.05155" stroke-width="0.5" stroke="black" fill="green"/>
   </g>
   <g id="cell26">
  <circle cx="557.831" cy="399.892" r="8.4065" stroke-width="0.5" stroke="black" fill="green"/>
  <circle cx="557.831" cy="399.892" r="5.04982" stroke-width="0.5" stroke="black" fill="green"/>
   </g>
   <g id="cell27">
  <circle cx="463.683" cy="405.514" r="8.4124" stroke-width="0.5" stroke="black" fill="green"/>
  <circle cx="463.683" cy="405.514" r="5.0516" stroke-width="0.5" stroke="black" fill="green"/>
   </g>
   <g id="cell28">
  <circle cx="429.594" cy="538.734" r="8.22925" stroke-width="0.5" stroke="black" fill="green"/>
  <circle cx="429.594" cy="538.734" r="4.96993" stroke-width="0.5" stroke="black" fill="green"/>
   </g>
   <g id="cell29">
  <circle cx="449.599" cy="513.346" r="5.43577" stroke-width="0.5" stroke="black" fill="green"/>
  <circle cx="449.599" cy="513.346" r="3.48436" stroke-width="0.5" stroke="black" fill="black"/>
   </g>
   <g id="cell30">
  <circle cx="481.981" cy="537" r="8.35507" stroke-width="0.5" stroke="black" fill="green"/>
  <circle cx="481.981" cy="537" r="5.02949" stroke-width="0.5" stroke="black" fill="green"/>
   </g>
   <g id="cell31">
  <circle cx="412.218" cy="542.74" r="8.41271" stroke-width="0.5" stroke="black" fill="green"/>
  <circle cx="412.218" cy="542.74" r="5.05167" stroke-width="0.5" stroke="black" fill="green"/>
   </g>
   <g id="cell169">
  <circle cx="526.057" cy="495.912" r="7.79483" stroke-width="0.5" stroke="black" fill="cyan"/>
  <circle cx="526.057" cy="495.912" r="4.73337" stroke-width="0.5" stroke="black" fill="cyan"/>
   </g>
   <g id="cell33">
  <circle cx="501.151" cy="422.617" r="8.34511" stroke-width="0.5" stroke="black" fill="green"/>
  <circle cx="501.151" cy="422.617" r="5.02502" stroke-width="0.5" stroke="black" fill="green"/>
   </g>
   <g id="cell168">
  <circle cx="382.81" cy="517.08" r="7.81002" stroke-width="0.5" stroke="black" fill="cyan"/>
  <circle cx="382.81" cy="517.08" r="4.74269" stroke-width="0.5" stroke="black" fill="cyan"/>
   </g>
   <g id="cell35">
  <circle cx="555.488" cy="547.574" r="8.41271" stroke-width="0.5" stroke="black" fill="green"/>
  <circle cx="555.488" cy="547.574" r="5.05167" stroke-width="0.5" stroke="black" fill="green"/>
   </g>
   <g id="cell36">
  <circle cx="385.003" cy="581.32" r="8.05625" stroke-width="0.5" stroke="black" fill="green"/>
  <circle cx="385.003" cy="581.32" r="4.891" stroke-width="0.5" stroke="black" fill="green"/>
   </g>
   <g id="cell37">
  <circle cx="640.279" cy="456.97" r="8.41235" stroke-width="0.5" stroke="black" fill="green"/>
  <circle cx="640.279" cy="456.97" r="5.05159" stroke-width="0.5" stroke="black" fill="green"/>
   </g>
   <g id="cell38">
  <circle cx="529.441" cy="588.696" r="8.05628" stroke-width="0.5" stroke="black" fill="green"/>
  <circle cx="529.441" cy="588.696" r="4.8796" stroke-width="0.5" stroke="black" fill="green"/>
   </g>
   <g id="cell39">
  <circle cx="610.105" cy="486.01" r="7.21189" stroke-width="0.5" stroke="black" fill="green"/>
  <circle cx="610.105" cy="486.01" r="4.37993" stroke-width="0.5" stroke="black" fill="green"/>
   </g>
   <g id="cell40">
  <circle cx="485.84" cy="567.313" r="8.1947" stroke-width="0.5" stroke="black" fill="green"/>
  <circle cx="485.84" cy="567.313" r="4.95246" stroke-width="0.5" stroke="black" fill="green"/>
   </g>
   <g id="cell41">
  <circle cx="366.565" cy="482.118" r="8.41271" stroke-width="0.5" stroke="black" fill="green"/>
  <circle cx="366.565" cy="482.118" r="5.05167" stroke-width="0.5" stroke="black" fill="green"/>
   </g>
   <g id="cell42">
  <circle cx="438.333" cy="491.693" r="8.41271" stroke-width="0.5" stroke="black" fill="green"/>
  <circle cx="438.333" cy="491.693" r="5.05167" stroke-width="0.5" stroke="black" fill="green"/>
   </g>
   <g id="cell43">
  <circle cx="562.767" cy="440.135" r="8.41271" stroke-width="0.5" stroke="black" fill="green"/>
  <circle cx="562.767" cy="440.135" r="5.05167" stroke-width="0.5" stroke="black" fill="green"/>
   </g>
   <g id="cell164">
  <circle cx="397.863" cy="573.666" r="7.91134" stroke-width="0.5" stroke="black" fill="green"/>
  <circle cx="397.863" cy="573.666" r="4.80971" stroke-width="0.5" stroke="black" fill="green"/>
   </g>
   <g id="cell145">
  <circle cx="419.57" cy="420.428" r="7.00716" stroke-width="0.5" stroke="black" fill="magenta"/>
  <circle cx="419.57" cy="420.428" r="4.27276" stroke-width="0.5" stroke="black" fill="magenta"/>
   </g>
   <g id="cell46">
  <circle cx="517.292" cy="616.453" r="8.40994" stroke-width="0.5" stroke="black" fill="green"/>
  <circle cx="517.292" cy="616.453" r="5.05091" stroke-width="0.5" stroke="black" fill="green"/>
   </g>
   <g id="cell47">
  <circle cx="490.976" cy="492.505" r="8.41098" stroke-width="0.5" stroke="black" fill="green"/>
  <circle cx="490.976" cy="492.505" r="5.05122" stroke-width="0.5" stroke="black" fill="green"/>
   </g>
   <g id="cell48">
  <circle cx="572.161" cy="604.955" r="8.40639" stroke-width="0.5" stroke="black" fill="green"/>
  <circle cx="572.161" cy="604.955" r="5.04986" stroke-width="0.5" stroke="black" fill="green"/>
   </g>
   <g id="cell49">
  <circle cx="439.63" cy="390.853" r="7.81315" stroke-width="0.5" stroke="black" fill="green"/>
  <circle cx="439.63" cy="390.853" r="4.74367" stroke-width="0.5" stroke="black" fill="green"/>
   </g>
   <g id="cell50">
  <circle cx="507.564" cy="508.288" r="8.4039" stroke-width="0.5" stroke="black" fill="cyan"/>
  <circle cx="507.564" cy="508.288" r="5.04897" stroke-width="0.5" stroke="black" fill="cyan"/>
   </g>
   <g id="cell51">
  <circle cx="402.787" cy="597.335" r="8.41271" stroke-width="0.5" stroke="black" fill="cyan"/>
  <circle cx="402.787" cy="597.335" r="5.05167" stroke-width="0.5" stroke="black" fill="cyan"/>
   </g>
   <g id="cell52">
  <circle cx="516.639" cy="419.192" r="8.41271" stroke-width="0.5" stroke="black" fill="cyan"/>
  <circle cx="516.639" cy="419.192" r="5.05167" stroke-width="0.5" stroke="black" fill="cyan"/>
   </g>
   <g id="cell53">
  <circle cx="571.163" cy="426.756" r="8.41036" stroke-width="0.5" stroke="black" fill="cyan"/>
  <circle cx="571.163" cy="426.756" r="5.05104" stroke-width="0.5" stroke="black" fill="cyan"/>
   </g>
   <g id="cell54">
  <circle cx="478.878" cy="421.29" r="8.41129" stroke-width="0.5" stroke="black" fill="cyan"/>
  <circle cx="478.878" cy="421.29" r="5.05131" stroke-width="0.5" stroke="black" fill="cyan"/>
   </g>
   <g id="cell55">
  <circle cx="521.794" cy="459.26" r="8.41047" stroke-width="0.5" stroke="black" fill="cyan"/>
  <circle cx="521.794" cy="459.26" r="5.05108" stroke-width="0.5" stroke="black" fill="cyan"/>
   </g>
   <g id="cell56">
  <circle cx="621.566" cy="522.766" r="8.41271" stroke-width="0.5" stroke="black" fill="cyan"/>
  <circle cx="621.566" cy="522.766" r="5.05167" stroke-width="0.5" stroke="black" fill="cyan"/>
   </g>
   <g id="cell105">
  <circle cx="504.364" cy="607.912" r="8.33919" stroke-width="0.5" stroke="black" fill="green"/>
  <circle cx="504.364" cy="607.912" r="5.02318" stroke-width="0.5" stroke="black" fill="green"/>
   </g>
   <g id="cell58">
  <circle cx="567.713" cy="480.986" r="8.20689" stroke-width="0.5" stroke="black" fill="cyan"/>
  <circle cx="567.713" cy="480.986" r="4.95867" stroke-width="0.5" stroke="black" fill="cyan"/>
   </g>
   <g id="cell59">
  <circle cx="385.732" cy="440.058" r="8.41271" stroke-width="0.5" stroke="black" fill="cyan"/>
  <circle cx="385.732" cy="440.058" r="5.05167" stroke-width="0.5" stroke="black" fill="cyan"/>
   </g>
   <g id="cell60">
  <circle cx="590.529" cy="468.971" r="7.54436" stroke-width="0.5" stroke="black" fill="cyan"/>
  <circle cx="590.529" cy="468.971" r="4.58555" stroke-width="0.5" stroke="black" fill="cyan"/>
   </g>
   <g id="cell186">
  <circle cx="356.894" cy="563.199" r="6.34099" stroke-width="0.5" stroke="black" fill="cyan"/>
  <circle cx="356.894" cy="563.199" r="3.88845" stroke-width="0.5" stroke="black" fill="cyan"/>
   </g>
   <g id="cell62">
  <circle cx="515.154" cy="433.765" r="7.43389" stroke-width="0.5" stroke="black" fill="cyan"/>
  <circle cx="515.154" cy="433.765" r="4.52079" stroke-width="0.5" stroke="black" fill="cyan"/>
   </g>
   <g id="cell63">
  <circle cx="586.183" cy="539.913" r="8.38247" stroke-width="0.5" stroke="black" fill="cyan"/>
  <circle cx="586.183" cy="539.913" r="5.04092" stroke-width="0.5" stroke="black" fill="cyan"/>
   </g>
   <g id="cell64">
  <circle cx="509.62" cy="638.823" r="8.41271" stroke-width="0.5" stroke="black" fill="cyan"/>
  <circle cx="509.62" cy="638.823" r="5.05167" stroke-width="0.5" stroke="black" fill="cyan"/>
   </g>
   <g id="cell65">
  <circle cx="545.812" cy="465.842" r="8.41175" stroke-width="0.5" stroke="black" fill="cyan"/>
  <circle cx="545.812" cy="465.842" r="5.05143" stroke-width="0.5" stroke="black" fill="cyan"/>
   </g>
   <g id="cell66">
  <circle cx="530.958" cy="534.533" r="8.41121" stroke-width="0.5" stroke="black" fill="cyan"/>
  <circle cx="530.958" cy="534.533" r="5.05128" stroke-width="0.5" stroke="black" fill="cyan"/>
   </g>
   <g id="cell67">
  <circle cx="354.665" cy="492.848" r="8.41271" stroke-width="0.5" stroke="black" fill="cyan"/>
  <circle cx="354.665" cy="492.848" r="5.05167" stroke-width="0.5" stroke="black" fill="cyan"/>
   </g>
   <g id="cell68">
  <circle cx="558.245" cy="558.043" r="2.72971" stroke-width="0.5" stroke="black" fill="cyan"/>
  <circle cx="558.245" cy="558.043" r="2.33853" stroke-width="0.5" stroke="black" fill="black"/>
   </g>
   <g id="cell69">
  <circle cx="441.665" cy="461.309" r="8.41271" stroke-width="0.5" stroke="black" fill="cyan"/>
  <circle cx="441.665" cy="461.309" r="5.05167" stroke-width="0.5" stroke="black" fill="cyan"/>
   </g>
   <g id="cell70">
  <circle cx="582.819" cy="482.43" r="8.41271" stroke-width="0.5" stroke="black" fill="cyan"/>
  <circle cx="582.819" cy="482.43" r="5.05167" stroke-width="0.5" stroke="black" fill="cyan"/>
   </g>
   <g id="cell71">
  <circle cx="385.947" cy="531.529" r="7.81002" stroke-width="0.5" stroke="black" fill="cyan"/>
  <circle cx="385.947" cy="531.529" r="4.74269" stroke-width="0.5" stroke="black" fill="cyan"/>
   </g>
   <g id="cell72">
  <circle cx="534.715" cy="506.335" r="7.79483" stroke-width="0.5" stroke="black" fill="cyan"/>
  <circle cx="534.715" cy="506.335" r="4.73337" stroke-width="0.5" stroke="black" fill="cyan"/>
   </g>
   <g id="cell73">
  <circle cx="364.071" cy="549.218" r="7.38747" stroke-width="0.5" stroke="black" fill="cyan"/>
  <circle cx="364.071" cy="549.218" r="4.49016" stroke-width="0.5" stroke="black" fill="cyan"/>
   </g>
   <g id="cell162">
  <circle cx="373.045" cy="538.355" r="8.05651" stroke-width="0.5" stroke="black" fill="magenta"/>
  <circle cx="373.045" cy="538.355" r="4.87966" stroke-width="0.5" stroke="black" fill="magenta"/>
   </g>
   <g id="cell75">
  <circle cx="529.344" cy="429.679" r="8.41241" stroke-width="0.5" stroke="black" fill="cyan"/>
  <circle cx="529.344" cy="429.679" r="5.0516" stroke-width="0.5" stroke="black" fill="cyan"/>
   </g>
   <g id="cell76">
  <circle cx="437.229" cy="375.667" r="8.40824" stroke-width="0.5" stroke="black" fill="green"/>
  <circle cx="437.229" cy="375.667" r="5.05044" stroke-width="0.5" stroke="black" fill="green"/>
   </g>
   <g id="cell77">
  <circle cx="474.798" cy="436.527" r="8.40927" stroke-width="0.5" stroke="black" fill="magenta"/>
  <circle cx="474.798" cy="436.527" r="5.05072" stroke-width="0.5" stroke="black" fill="magenta"/>
   </g>
   <g id="cell78">
  <circle cx="625.016" cy="461.749" r="8.41157" stroke-width="0.5" stroke="black" fill="green"/>
  <circle cx="625.016" cy="461.749" r="5.05139" stroke-width="0.5" stroke="black" fill="green"/>
   </g>
   <g id="cell79">
  <circle cx="521.568" cy="474.137" r="8.41231" stroke-width="0.5" stroke="black" fill="cyan"/>
  <circle cx="521.568" cy="474.137" r="5.05158" stroke-width="0.5" stroke="black" fill="cyan"/>
   </g>
   <g id="cell80">
  <circle cx="545.214" cy="618.408" r="8.39918" stroke-width="0.5" stroke="black" fill="green"/>
  <circle cx="545.214" cy="618.408" r="5.04731" stroke-width="0.5" stroke="black" fill="green"/>
   </g>
   <g id="cell81">
  <circle cx="546.11" cy="589.597" r="8.41207" stroke-width="0.5" stroke="black" fill="green"/>
  <circle cx="546.11" cy="589.597" r="5.05152" stroke-width="0.5" stroke="black" fill="green"/>
   </g>
   <g id="cell82">
  <circle cx="532.371" cy="560.788" r="8.33231" stroke-width="0.5" stroke="black" fill="magenta"/>
  <circle cx="532.371" cy="560.788" r="5.01935" stroke-width="0.5" stroke="black" fill="magenta"/>
   </g>
   <g id="cell83">
  <circle cx="635.468" cy="552.193" r="2.84001" stroke-width="0.5" stroke="black" fill="green"/>
  <circle cx="635.468" cy="552.193" r="2.39179" stroke-width="0.5" stroke="black" fill="black"/>
   </g>
   <g id="cell84">
  <circle cx="515.966" cy="487.041" r="6.95847" stroke-width="0.5" stroke="black" fill="cyan"/>
  <circle cx="515.966" cy="487.041" r="4.21327" stroke-width="0.5" stroke="black" fill="cyan"/>
   </g>
   <g id="cell85">
  <circle cx="351.187" cy="541.776" r="8.41055" stroke-width="0.5" stroke="black" fill="cyan"/>
  <circle cx="351.187" cy="541.776" r="5.05111" stroke-width="0.5" stroke="black" fill="cyan"/>
   </g>
   <g id="cell86">
  <circle cx="497.491" cy="537.3" r="8.39754" stroke-width="0.5" stroke="black" fill="magenta"/>
  <circle cx="497.491" cy="537.3" r="5.04671" stroke-width="0.5" stroke="black" fill="magenta"/>
   </g>
   <g id="cell87">
  <circle cx="577.889" cy="557.656" r="8.40966" stroke-width="0.5" stroke="black" fill="cyan"/>
  <circle cx="577.889" cy="557.656" r="5.05085" stroke-width="0.5" stroke="black" fill="cyan"/>
   </g>
   <g id="cell88">
  <circle cx="444.24" cy="536.122" r="8.0607" stroke-width="0.5" stroke="black" fill="magenta"/>
  <circle cx="444.24" cy="536.122" r="4.89033" stroke-width="0.5" stroke="black" fill="magenta"/>
   </g>
   <g id="cell89">
  <circle cx="552.619" cy="451.944" r="8.31046" stroke-width="0.5" stroke="black" fill="cyan"/>
  <circle cx="552.619" cy="451.944" r="5.01118" stroke-width="0.5" stroke="black" fill="cyan"/>
   </g>
   <g id="cell90">
  <circle cx="636.908" cy="472.569" r="8.39086" stroke-width="0.5" stroke="black" fill="green"/>
  <circle cx="636.908" cy="472.569" r="5.04423" stroke-width="0.5" stroke="black" fill="green"/>
   </g>
   <g id="cell91">
  <circle cx="547.532" cy="560.639" r="8.41082" stroke-width="0.5" stroke="black" fill="magenta"/>
  <circle cx="547.532" cy="560.639" r="5.0512" stroke-width="0.5" stroke="black" fill="magenta"/>
   </g>
   <g id="cell92">
  <circle cx="488.321" cy="551.404" r="8.41151" stroke-width="0.5" stroke="black" fill="green"/>
  <circle cx="488.321" cy="551.404" r="5.05137" stroke-width="0.5" stroke="black" fill="green"/>
   </g>
   <g id="cell93">
  <circle cx="539.399" cy="547.689" r="8.41082" stroke-width="0.5" stroke="black" fill="magenta"/>
  <circle cx="539.399" cy="547.689" r="5.0512" stroke-width="0.5" stroke="black" fill="magenta"/>
   </g>
   <g id="cell94">
  <circle cx="542.686" cy="493.088" r="8.41133" stroke-width="0.5" stroke="black" fill="cyan"/>
  <circle cx="542.686" cy="493.088" r="5.05132" stroke-width="0.5" stroke="black" fill="cyan"/>
   </g>
   <g id="cell95">
  <circle cx="463.625" cy="425.874" r="8.41129" stroke-width="0.5" stroke="black" fill="cyan"/>
  <circle cx="463.625" cy="425.874" r="5.05131" stroke-width="0.5" stroke="black" fill="cyan"/>
   </g>
   <g id="cell96">
  <circle cx="547.218" cy="534.677" r="8.37132" stroke-width="0.5" stroke="black" fill="cyan"/>
  <circle cx="547.218" cy="534.677" r="5.03642" stroke-width="0.5" stroke="black" fill="cyan"/>
   </g>
   <g id="cell97">
  <circle cx="422.136" cy="466.762" r="8.40985" stroke-width="0.5" stroke="black" fill="green"/>
  <circle cx="422.136" cy="466.762" r="5.05092" stroke-width="0.5" stroke="black" fill="green"/>
   </g>
   <g id="cell98">
  <circle cx="489.79" cy="523.704" r="8.39436" stroke-width="0.5" stroke="black" fill="green"/>
  <circle cx="489.79" cy="523.704" r="5.04558" stroke-width="0.5" stroke="black" fill="green"/>
   </g>
   <g id="cell99">
  <circle cx="360.855" cy="528.992" r="8.41055" stroke-width="0.5" stroke="black" fill="cyan"/>
  <circle cx="360.855" cy="528.992" r="5.05111" stroke-width="0.5" stroke="black" fill="cyan"/>
   </g>
   <g id="cell100">
  <circle cx="447.738" cy="403.564" r="8.41051" stroke-width="0.5" stroke="black" fill="green"/>
  <circle cx="447.738" cy="403.564" r="5.05109" stroke-width="0.5" stroke="black" fill="green"/>
   </g>
   <g id="cell101">
  <circle cx="530.591" cy="484.082" r="6.72124" stroke-width="0.5" stroke="black" fill="cyan"/>
  <circle cx="530.591" cy="484.082" r="4.05498" stroke-width="0.5" stroke="black" fill="cyan"/>
   </g>
   <g id="cell102">
  <circle cx="435.233" cy="475.978" r="8.40985" stroke-width="0.5" stroke="black" fill="green"/>
  <circle cx="435.233" cy="475.978" r="5.05092" stroke-width="0.5" stroke="black" fill="green"/>
   </g>
   <g id="cell103">
  <circle cx="592.756" cy="448.53" r="8.39717" stroke-width="0.5" stroke="black" fill="cyan"/>
  <circle cx="592.756" cy="448.53" r="5.04664" stroke-width="0.5" stroke="black" fill="cyan"/>
   </g>
   <g id="cell104">
  <circle cx="604.663" cy="555.288" r="7.00822" stroke-width="0.5" stroke="black" fill="cyan"/>
  <circle cx="604.663" cy="555.288" r="4.26535" stroke-width="0.5" stroke="black" fill="cyan"/>
   </g>
   <g id="cell106">
  <circle cx="460.547" cy="441.228" r="8.40927" stroke-width="0.5" stroke="black" fill="magenta"/>
  <circle cx="460.547" cy="441.228" r="5.05072" stroke-width="0.5" stroke="black" fill="magenta"/>
   </g>
   <g id="cell107">
  <circle cx="464.011" cy="390.009" r="7.92507" stroke-width="0.5" stroke="black" fill="green"/>
  <circle cx="464.011" cy="390.009" r="4.82008" stroke-width="0.5" stroke="black" fill="green"/>
   </g>
   <g id="cell108">
  <circle cx="556.388" cy="606.682" r="8.40873" stroke-width="0.5" stroke="black" fill="green"/>
  <circle cx="556.388" cy="606.682" r="5.05054" stroke-width="0.5" stroke="black" fill="green"/>
   </g>
   <g id="cell109">
  <circle cx="576.551" cy="589.593" r="8.40639" stroke-width="0.5" stroke="black" fill="green"/>
  <circle cx="576.551" cy="589.593" r="5.04986" stroke-width="0.5" stroke="black" fill="green"/>
   </g>
   <g id="cell110">
  <circle cx="369.192" cy="509.921" r="8.40731" stroke-width="0.5" stroke="black" fill="cyan"/>
  <circle cx="369.192" cy="509.921" r="5.05008" stroke-width="0.5" stroke="black" fill="cyan"/>
   </g>
   <g id="cell111">
  <circle cx="459.067" cy="556.689" r="8.3666" stroke-width="0.5" stroke="black" fill="magenta"/>
  <circle cx="459.067" cy="556.689" r="5.03472" stroke-width="0.5" stroke="black" fill="magenta"/>
   </g>
   <g id="cell112">
  <circle cx="495.403" cy="470.583" r="8.29683" stroke-width="0.5" stroke="black" fill="magenta"/>
  <circle cx="495.403" cy="470.583" r="5.0034" stroke-width="0.5" stroke="black" fill="magenta"/>
   </g>
   <g id="cell113">
  <circle cx="546.458" cy="388.852" r="8.32226" stroke-width="0.5" stroke="black" fill="green"/>
  <circle cx="546.458" cy="388.852" r="5.01522" stroke-width="0.5" stroke="black" fill="green"/>
   </g>
   <g id="cell114">
  <circle cx="524.998" cy="444.316" r="8.40225" stroke-width="0.5" stroke="black" fill="cyan"/>
  <circle cx="524.998" cy="444.316" r="5.04851" stroke-width="0.5" stroke="black" fill="cyan"/>
   </g>
   <g id="cell115">
  <circle cx="536.844" cy="453.723" r="8.37501" stroke-width="0.5" stroke="black" fill="cyan"/>
  <circle cx="536.844" cy="453.723" r="5.03838" stroke-width="0.5" stroke="black" fill="cyan"/>
   </g>
   <g id="cell116">
  <circle cx="519.547" cy="525.052" r="7.26663" stroke-width="0.5" stroke="black" fill="cyan"/>
  <circle cx="519.547" cy="525.052" r="4.4164" stroke-width="0.5" stroke="black" fill="cyan"/>
   </g>
   <g id="cell117">
  <circle cx="503.271" cy="624.033" r="8.40105" stroke-width="0.5" stroke="black" fill="green"/>
  <circle cx="503.271" cy="624.033" r="5.04805" stroke-width="0.5" stroke="black" fill="green"/>
   </g>
   <g id="cell118">
  <circle cx="510.047" cy="449.251" r="8.39935" stroke-width="0.5" stroke="black" fill="cyan"/>
  <circle cx="510.047" cy="449.251" r="5.04735" stroke-width="0.5" stroke="black" fill="cyan"/>
   </g>
   <g id="cell119">
  <circle cx="541.897" cy="603.92" r="7.43378" stroke-width="0.5" stroke="black" fill="green"/>
  <circle cx="541.897" cy="603.92" r="4.52076" stroke-width="0.5" stroke="black" fill="green"/>
   </g>
   <g id="cell120">
  <circle cx="578.445" cy="441.394" r="8.39717" stroke-width="0.5" stroke="black" fill="cyan"/>
  <circle cx="578.445" cy="441.394" r="5.04664" stroke-width="0.5" stroke="black" fill="cyan"/>
   </g>
   <g id="cell121">
  <circle cx="450.669" cy="366.808" r="8.37989" stroke-width="0.5" stroke="black" fill="green"/>
  <circle cx="450.669" cy="366.808" r="5.04045" stroke-width="0.5" stroke="black" fill="green"/>
   </g>
   <g id="cell122">
  <circle cx="505.218" cy="524.053" r="8.39754" stroke-width="0.5" stroke="black" fill="magenta"/>
  <circle cx="505.218" cy="524.053" r="5.04671" stroke-width="0.5" stroke="black" fill="magenta"/>
   </g>
   <g id="cell123">
  <circle cx="491.979" cy="508.288" r="8.39436" stroke-width="0.5" stroke="black" fill="green"/>
  <circle cx="491.979" cy="508.288" r="5.04558" stroke-width="0.5" stroke="black" fill="green"/>
   </g>
   <g id="cell124">
  <circle cx="489.097" cy="432.575" r="8.39507" stroke-width="0.5" stroke="black" fill="magenta"/>
  <circle cx="489.097" cy="432.575" r="5.04577" stroke-width="0.5" stroke="black" fill="magenta"/>
   </g>
   <g id="cell125">
  <circle cx="621.801" cy="477.318" r="8.39086" stroke-width="0.5" stroke="black" fill="green"/>
  <circle cx="621.801" cy="477.318" r="5.04423" stroke-width="0.5" stroke="black" fill="green"/>
   </g>
   <g id="cell126">
  <circle cx="628.988" cy="566.353" r="8.39058" stroke-width="0.5" stroke="black" fill="green"/>
  <circle cx="628.988" cy="566.353" r="5.04408" stroke-width="0.5" stroke="black" fill="green"/>
   </g>
   <g id="cell127">
  <circle cx="436.368" cy="359.762" r="8.37989" stroke-width="0.5" stroke="black" fill="green"/>
  <circle cx="436.368" cy="359.762" r="5.04045" stroke-width="0.5" stroke="black" fill="green"/>
   </g>
   <g id="cell128">
  <circle cx="372.122" cy="467.568" r="8.38532" stroke-width="0.5" stroke="black" fill="magenta"/>
  <circle cx="372.122" cy="467.568" r="5.04199" stroke-width="0.5" stroke="black" fill="magenta"/>
   </g>
   <g id="cell129">
  <circle cx="570.751" cy="543.421" r="8.38247" stroke-width="0.5" stroke="black" fill="cyan"/>
  <circle cx="570.751" cy="543.421" r="5.04092" stroke-width="0.5" stroke="black" fill="cyan"/>
   </g>
   <g id="cell130">
  <circle cx="542.561" cy="438.979" r="8.37501" stroke-width="0.5" stroke="black" fill="cyan"/>
  <circle cx="542.561" cy="438.979" r="5.03838" stroke-width="0.5" stroke="black" fill="cyan"/>
   </g>
   <g id="cell131">
  <circle cx="543.648" cy="513.663" r="5.30129" stroke-width="0.5" stroke="black" fill="cyan"/>
  <circle cx="543.648" cy="513.663" r="3.26498" stroke-width="0.5" stroke="black" fill="cyan"/>
   </g>
   <g id="cell132">
  <circle cx="445.565" cy="550.566" r="8.3666" stroke-width="0.5" stroke="black" fill="magenta"/>
  <circle cx="445.565" cy="550.566" r="5.03472" stroke-width="0.5" stroke="black" fill="magenta"/>
   </g>
   <g id="cell133">
  <circle cx="575.921" cy="467.965" r="8.36923" stroke-width="0.5" stroke="black" fill="cyan"/>
  <circle cx="575.921" cy="467.965" r="5.03551" stroke-width="0.5" stroke="black" fill="cyan"/>
   </g>
   <g id="cell134">
  <circle cx="535.538" cy="471.05" r="1.58752" stroke-width="0.5" stroke="black" fill="cyan"/>
  <circle cx="535.538" cy="471.05" r="1.55816" stroke-width="0.5" stroke="black" fill="black"/>
   </g>
   <g id="cell135">
  <circle cx="515.028" cy="584.032" r="8.3632" stroke-width="0.5" stroke="black" fill="magenta"/>
  <circle cx="515.028" cy="584.032" r="5.03288" stroke-width="0.5" stroke="black" fill="magenta"/>
   </g>
   <g id="cell136">
  <circle cx="472.043" cy="548.815" r="8.35507" stroke-width="0.5" stroke="black" fill="green"/>
  <circle cx="472.043" cy="548.815" r="5.02949" stroke-width="0.5" stroke="black" fill="green"/>
   </g>
   <g id="cell137">
  <circle cx="490.306" cy="614.757" r="8.33919" stroke-width="0.5" stroke="black" fill="green"/>
  <circle cx="490.306" cy="614.757" r="5.02318" stroke-width="0.5" stroke="black" fill="green"/>
   </g>
   <g id="cell138">
  <circle cx="504.209" cy="406.914" r="8.34511" stroke-width="0.5" stroke="black" fill="green"/>
  <circle cx="504.209" cy="406.914" r="5.02502" stroke-width="0.5" stroke="black" fill="green"/>
   </g>
   <g id="cell139">
  <circle cx="417.647" cy="407.054" r="8.33481" stroke-width="0.5" stroke="black" fill="magenta"/>
  <circle cx="417.647" cy="407.054" r="5.02043" stroke-width="0.5" stroke="black" fill="magenta"/>
   </g>
   <g id="cell140">
  <circle cx="525.214" cy="573.637" r="8.26203" stroke-width="0.5" stroke="black" fill="magenta"/>
  <circle cx="525.214" cy="573.637" r="4.98928" stroke-width="0.5" stroke="black" fill="magenta"/>
   </g>
   <g id="cell141">
  <circle cx="568.496" cy="454.329" r="8.31046" stroke-width="0.5" stroke="black" fill="cyan"/>
  <circle cx="568.496" cy="454.329" r="5.01118" stroke-width="0.5" stroke="black" fill="cyan"/>
   </g>
   <g id="cell142">
  <circle cx="542.4" cy="423.766" r="7.18873" stroke-width="0.5" stroke="black" fill="green"/>
  <circle cx="542.4" cy="423.766" r="4.39921" stroke-width="0.5" stroke="black" fill="green"/>
   </g>
   <g id="cell143">
  <circle cx="432.711" cy="408.727" r="8.28584" stroke-width="0.5" stroke="black" fill="magenta"/>
  <circle cx="432.711" cy="408.727" r="5.00027" stroke-width="0.5" stroke="black" fill="magenta"/>
   </g>
   <g id="cell144">
  <circle cx="545.844" cy="409.81" r="8.08793" stroke-width="0.5" stroke="black" fill="green"/>
  <circle cx="545.844" cy="409.81" r="4.90514" stroke-width="0.5" stroke="black" fill="green"/>
   </g>
   <g id="cell185">
  <circle cx="592.267" cy="559.854" r="7.00822" stroke-width="0.5" stroke="black" fill="cyan"/>
  <circle cx="592.267" cy="559.854" r="4.26535" stroke-width="0.5" stroke="black" fill="cyan"/>
   </g>
   <g id="cell147">
  <circle cx="517.255" cy="561.14" r="8.26203" stroke-width="0.5" stroke="black" fill="magenta"/>
  <circle cx="517.255" cy="561.14" r="4.98928" stroke-width="0.5" stroke="black" fill="magenta"/>
   </g>
   <g id="cell148">
  <circle cx="507.303" cy="462.553" r="6.64245" stroke-width="0.5" stroke="black" fill="magenta"/>
  <circle cx="507.303" cy="462.553" r="4.01268" stroke-width="0.5" stroke="black" fill="magenta"/>
   </g>
   <g id="cell149">
  <circle cx="572.367" cy="394.898" r="8.26685" stroke-width="0.5" stroke="black" fill="magenta"/>
  <circle cx="572.367" cy="394.898" r="4.98849" stroke-width="0.5" stroke="black" fill="magenta"/>
   </g>
   <g id="cell150">
  <circle cx="409.545" cy="583.351" r="7.91134" stroke-width="0.5" stroke="black" fill="green"/>
  <circle cx="409.545" cy="583.351" r="4.80971" stroke-width="0.5" stroke="black" fill="green"/>
   </g>
   <g id="cell151">
  <circle cx="418.231" cy="528.105" r="8.22925" stroke-width="0.5" stroke="black" fill="green"/>
  <circle cx="418.231" cy="528.105" r="4.96993" stroke-width="0.5" stroke="black" fill="green"/>
   </g>
   <g id="cell152">
  <circle cx="371.704" cy="574.138" r="8.13348" stroke-width="0.5" stroke="black" fill="green"/>
  <circle cx="371.704" cy="574.138" r="4.92711" stroke-width="0.5" stroke="black" fill="green"/>
   </g>
   <g id="cell153">
  <circle cx="560.573" cy="467.598" r="8.20689" stroke-width="0.5" stroke="black" fill="cyan"/>
  <circle cx="560.573" cy="467.598" r="4.95867" stroke-width="0.5" stroke="black" fill="cyan"/>
   </g>
   <g id="cell154">
  <circle cx="387.137" cy="596.549" r="8.05625" stroke-width="0.5" stroke="black" fill="green"/>
  <circle cx="387.137" cy="596.549" r="4.891" stroke-width="0.5" stroke="black" fill="green"/>
   </g>
   <g id="cell155">
  <circle cx="484.541" cy="582.96" r="8.1947" stroke-width="0.5" stroke="black" fill="green"/>
  <circle cx="484.541" cy="582.96" r="4.95246" stroke-width="0.5" stroke="black" fill="green"/>
   </g>
   <g id="cell156">
  <circle cx="454.567" cy="526.056" r="8.1942" stroke-width="0.5" stroke="black" fill="magenta"/>
  <circle cx="454.567" cy="526.056" r="4.95234" stroke-width="0.5" stroke="black" fill="magenta"/>
   </g>
   <g id="cell157">
  <circle cx="440.37" cy="522.272" r="8.0607" stroke-width="0.5" stroke="black" fill="magenta"/>
  <circle cx="440.37" cy="522.272" r="4.89033" stroke-width="0.5" stroke="black" fill="magenta"/>
   </g>
   <g id="cell158">
  <circle cx="560.223" cy="415.367" r="8.1023" stroke-width="0.5" stroke="black" fill="green"/>
  <circle cx="560.223" cy="415.367" r="4.91256" stroke-width="0.5" stroke="black" fill="green"/>
   </g>
   <g id="cell159">
  <circle cx="534.445" cy="401.206" r="6.95985" stroke-width="0.5" stroke="black" fill="green"/>
  <circle cx="534.445" cy="401.206" r="4.25841" stroke-width="0.5" stroke="black" fill="green"/>
   </g>
   <g id="cell160">
  <circle cx="464.438" cy="374.661" r="8.12926" stroke-width="0.5" stroke="black" fill="green"/>
  <circle cx="464.438" cy="374.661" r="4.92027" stroke-width="0.5" stroke="black" fill="green"/>
   </g>
   <g id="cell165">
  <circle cx="606.563" cy="520.88" r="7.93688" stroke-width="0.5" stroke="black" fill="magenta"/>
  <circle cx="606.563" cy="520.88" r="4.81381" stroke-width="0.5" stroke="black" fill="magenta"/>
   </g>
   <g id="cell166">
  <circle cx="483.422" cy="462.038" r="7.87507" stroke-width="0.5" stroke="black" fill="magenta"/>
  <circle cx="483.422" cy="462.038" r="4.77988" stroke-width="0.5" stroke="black" fill="magenta"/>
   </g>
   <g id="cell167">
  <circle cx="425.897" cy="395.068" r="7.81315" stroke-width="0.5" stroke="black" fill="green"/>
  <circle cx="425.897" cy="395.068" r="4.74367" stroke-width="0.5" stroke="black" fill="green"/>
   </g>
   <g id="cell170">
  <circle cx="460.116" cy="503.496" r="7.67987" stroke-width="0.5" stroke="black" fill="green"/>
  <circle cx="460.116" cy="503.496" r="4.66617" stroke-width="0.5" stroke="black" fill="green"/>
   </g>
   <g id="cell171">
  <circle cx="597.452" cy="481.173" r="7.54436" stroke-width="0.5" stroke="black" fill="cyan"/>
  <circle cx="597.452" cy="481.173" r="4.58555" stroke-width="0.5" stroke="black" fill="cyan"/>
   </g>
   <g id="cell172">
  <circle cx="552.192" cy="503.373" r="6.69416" stroke-width="0.5" stroke="black" fill="magenta"/>
  <circle cx="552.192" cy="503.373" r="4.1082" stroke-width="0.5" stroke="black" fill="magenta"/>
   </g>
   <g id="cell173">
  <circle cx="532.469" cy="520.073" r="7.41601" stroke-width="0.5" stroke="black" fill="cyan"/>
  <circle cx="532.469" cy="520.073" r="4.51356" stroke-width="0.5" stroke="black" fill="cyan"/>
   </g>
   <g id="cell174">
  <circle cx="502.134" cy="437.443" r="7.43389" stroke-width="0.5" stroke="black" fill="cyan"/>
  <circle cx="502.134" cy="437.443" r="4.52079" stroke-width="0.5" stroke="black" fill="cyan"/>
   </g>
   <g id="cell175">
  <circle cx="529.569" cy="602.526" r="6.03329" stroke-width="0.5" stroke="black" fill="green"/>
  <circle cx="529.569" cy="602.526" r="3.6824" stroke-width="0.5" stroke="black" fill="green"/>
   </g>
   <g id="cell176">
  <circle cx="554.615" cy="428.544" r="7.18873" stroke-width="0.5" stroke="black" fill="green"/>
  <circle cx="554.615" cy="428.544" r="4.39921" stroke-width="0.5" stroke="black" fill="green"/>
   </g>
   <g id="cell177">
  <circle cx="368.694" cy="561.107" r="6.34099" stroke-width="0.5" stroke="black" fill="cyan"/>
  <circle cx="368.694" cy="561.107" r="3.88845" stroke-width="0.5" stroke="black" fill="cyan"/>
   </g>
   <g id="cell178">
  <circle cx="560.975" cy="511.518" r="6.69416" stroke-width="0.5" stroke="black" fill="magenta"/>
  <circle cx="560.975" cy="511.518" r="4.1082" stroke-width="0.5" stroke="black" fill="magenta"/>
   </g>
   <g id="cell179">
  <circle cx="521.613" cy="511.629" r="7.26663" stroke-width="0.5" stroke="black" fill="cyan"/>
  <circle cx="521.613" cy="511.629" r="4.4164" stroke-width="0.5" stroke="black" fill="cyan"/>
   </g>
   <g id="cell180">
  <circle cx="616.847" cy="497.653" r="7.21189" stroke-width="0.5" stroke="black" fill="green"/>
  <circle cx="616.847" cy="497.653" r="4.37993" stroke-width="0.5" stroke="black" fill="green"/>
   </g>
   <g id="cell181">
  <circle cx="554.937" cy="522.277" r="6.51497" stroke-width="0.5" stroke="black" fill="cyan"/>
  <circle cx="554.937" cy="522.277" r="4.00123" stroke-width="0.5" stroke="black" fill="cyan"/>
   </g>
   <g id="cell182">
  <circle cx="532.064" cy="388.553" r="6.95985" stroke-width="0.5" stroke="black" fill="green"/>
  <circle cx="532.064" cy="388.553" r="4.25841" stroke-width="0.5" stroke="black" fill="green"/>
   </g>
   <g id="cell183">
  <circle cx="576.539" cy="505.823" r="7.1497" stroke-width="0.5" stroke="black" fill="magenta"/>
  <circle cx="576.539" cy="505.823" r="4.34001" stroke-width="0.5" stroke="black" fill="magenta"/>
   </g>
   <g id="cell184">
  <circle cx="431.734" cy="422.461" r="7.00716" stroke-width="0.5" stroke="black" fill="magenta"/>
  <circle cx="431.734" cy="422.461" r="4.27276" stroke-width="0.5" stroke="black" fill="magenta"/>
   </g>
   <g id="cell187">
  <circle cx="505.228" cy="493.991" r="6.95847" stroke-width="0.5" stroke="black" fill="cyan"/>
  <circle cx="505.228" cy="493.991" r="4.21327" stroke-width="0.5" stroke="black" fill="cyan"/>
   </g>
   <g id="cell188">
  <circle cx="530.538" cy="613.917" r="6.03329" stroke-width="0.5" stroke="black" fill="green"/>
  <circle cx="530.538" cy="613.917" r="3.6824" stroke-width="0.5" stroke="black" fill="green"/>
   </g>
   <g id="cell189">
  <circle cx="540.367" cy="477.921" r="6.72124" stroke-width="0.5" stroke="black" fill="cyan"/>
  <circle cx="540.367" cy="477.921" r="4.05498" stroke-width="0.5" stroke="black" fill="cyan"/>
   </g>
   <g id="cell190">
  <circle cx="543.843" cy="523.078" r="5.30129" stroke-width="0.5" stroke="black" fill="cyan"/>
  <circle cx="543.843" cy="523.078" r="3.26498" stroke-width="0.5" stroke="black" fill="cyan"/>
   </g>
   <g id="cell191">
  <circle cx="508.129" cy="474.113" r="6.64245" stroke-width="0.5" stroke="black" fill="magenta"/>
  <circle cx="508.129" cy="474.113" r="4.01268" stroke-width="0.5" stroke="black" fill="magenta"/>
   </g>
  </g>
 </g>
  <rect x="775" y="1035" width="200" height="10" stroke-width="2" stroke="rgb(255,255,255)" fill="rgb(0,0,0)"/>
  <text x="781.25" y="1028.75"
   font-family="Arial" font-size="25" fill="black" >
   200 &#956;m
  </text>
  <text x="25" y="1045"
   font-family="Arial" font-size="18.75" fill="black" >
   0 days, 0 hours, 0 minutes, and 38.9215 seconds
  </text>
  <rect x="0" y="70" width="1000" height="1000" stroke-width="2" stroke="rgb(0,0,0)" fill="none"/>
</svg>
