<?xml version="1.0" encoding="UTF-8" standalone="no"?>
<!-- Created with PhysiCell (http://PhysiCell.MathCancer.org/) -->
<svg 
 xmlns:dc="http://purl.org/dc/elements/1.1/" 
 xmlns:cc="http://creativecommons.org/ns#" 
 xmlns:rdf="http://www.w3.org/1999/02/22-rdf-syntax-ns#" 
 xmlns:svg="http://www.w3.org/2000/svg" 
 xmlns="http://www.w3.org/2000/svg" 
 version="1.1" 
 width="1000" 
 height="1070" 
 id="svg2">
  <rect x="0" y="0" width="1000" height="1070" stroke-width="2" stroke="white" fill="white"/>
  <text x="12.5" y="30"
   font-family="Arial" font-size="25" fill="black" >
   Current time: 0 days, 21 hours, and 51.00 minutes, z = 0.00 &#956;m
  </text>
  <text x="12.5" y="57.5"
   font-family="Arial" font-size="23.75" fill="black" >
   144 agents
  </text>
 <g id="tissue" 
    transform="translate(0,1070) scale(1,-1)">
  <g id="ECM">
  </g>
  <g id="cells">
   <g id="cell0">
  <circle cx="514.184" cy="535.385" r="8.39708" stroke-width="0.5" stroke="black" fill="magenta"/>
  <circle cx="514.184" cy="535.385" r="5.0465" stroke-width="0.5" stroke="black" fill="magenta"/>
   </g>
   <g id="cell1">
  <circle cx="601.608" cy="523.583" r="8.41271" stroke-width="0.5" stroke="black" fill="magenta"/>
  <circle cx="601.608" cy="523.583" r="5.05167" stroke-width="0.5" stroke="black" fill="magenta"/>
   </g>
   <g id="cell2">
  <circle cx="517.479" cy="596.892" r="8.41271" stroke-width="0.5" stroke="black" fill="magenta"/>
  <circle cx="517.479" cy="596.892" r="5.05167" stroke-width="0.5" stroke="black" fill="magenta"/>
   </g>
   <g id="cell3">
  <circle cx="523.829" cy="548.14" r="8.38715" stroke-width="0.5" stroke="black" fill="magenta"/>
  <circle cx="523.829" cy="548.14" r="5.04307" stroke-width="0.5" stroke="black" fill="magenta"/>
   </g>
   <g id="cell4">
  <circle cx="487.756" cy="446.368" r="8.04255" stroke-width="0.5" stroke="black" fill="magenta"/>
  <circle cx="487.756" cy="446.368" r="4.87291" stroke-width="0.5" stroke="black" fill="magenta"/>
   </g>
   <g id="cell5">
  <circle cx="465.032" cy="493.3" r="8.41271" stroke-width="0.5" stroke="black" fill="magenta"/>
  <circle cx="465.032" cy="493.3" r="5.05167" stroke-width="0.5" stroke="black" fill="magenta"/>
   </g>
   <g id="cell6">
  <circle cx="596.962" cy="515.194" r="2.22333" stroke-width="0.5" stroke="black" fill="magenta"/>
  <circle cx="596.962" cy="515.194" r="2.05083" stroke-width="0.5" stroke="black" fill="black"/>
   </g>
   <g id="cell7">
  <circle cx="495.765" cy="458.367" r="8.28985" stroke-width="0.5" stroke="black" fill="magenta"/>
  <circle cx="495.765" cy="458.367" r="4.99956" stroke-width="0.5" stroke="black" fill="magenta"/>
   </g>
   <g id="cell8">
  <circle cx="376.393" cy="542.785" r="8.41271" stroke-width="0.5" stroke="black" fill="magenta"/>
  <circle cx="376.393" cy="542.785" r="5.05167" stroke-width="0.5" stroke="black" fill="magenta"/>
   </g>
   <g id="cell9">
  <circle cx="460.472" cy="599.786" r="2.34188" stroke-width="0.5" stroke="black" fill="magenta"/>
  <circle cx="460.472" cy="599.786" r="2.12529" stroke-width="0.5" stroke="black" fill="black"/>
   </g>
   <g id="cell10">
  <circle cx="583.447" cy="392.105" r="8.41271" stroke-width="0.5" stroke="black" fill="magenta"/>
  <circle cx="583.447" cy="392.105" r="5.05167" stroke-width="0.5" stroke="black" fill="magenta"/>
   </g>
   <g id="cell11">
  <circle cx="592.023" cy="590.051" r="8.41271" stroke-width="0.5" stroke="black" fill="magenta"/>
  <circle cx="592.023" cy="590.051" r="5.05167" stroke-width="0.5" stroke="black" fill="magenta"/>
   </g>
   <g id="cell12">
  <circle cx="503.539" cy="593.964" r="7.3599" stroke-width="0.5" stroke="black" fill="magenta"/>
  <circle cx="503.539" cy="593.964" r="4.47294" stroke-width="0.5" stroke="black" fill="magenta"/>
   </g>
   <g id="cell13">
  <circle cx="386.194" cy="568.228" r="8.41271" stroke-width="0.5" stroke="black" fill="magenta"/>
  <circle cx="386.194" cy="568.228" r="5.05167" stroke-width="0.5" stroke="black" fill="magenta"/>
   </g>
   <g id="cell14">
  <circle cx="528.907" cy="402.035" r="8.41271" stroke-width="0.5" stroke="black" fill="magenta"/>
  <circle cx="528.907" cy="402.035" r="5.05167" stroke-width="0.5" stroke="black" fill="magenta"/>
   </g>
   <g id="cell15">
  <circle cx="384.329" cy="477.367" r="7.83019" stroke-width="0.5" stroke="black" fill="magenta"/>
  <circle cx="384.329" cy="477.367" r="4.75343" stroke-width="0.5" stroke="black" fill="magenta"/>
   </g>
   <g id="cell16">
  <circle cx="434.167" cy="417.493" r="4.45477" stroke-width="0.5" stroke="black" fill="magenta"/>
  <circle cx="434.167" cy="417.493" r="2.70558" stroke-width="0.5" stroke="black" fill="magenta"/>
   </g>
   <g id="cell17">
  <circle cx="570.569" cy="491.526" r="8.41271" stroke-width="0.5" stroke="black" fill="magenta"/>
  <circle cx="570.569" cy="491.526" r="5.05167" stroke-width="0.5" stroke="black" fill="magenta"/>
   </g>
   <g id="cell18">
  <circle cx="518.821" cy="390.321" r="8.41271" stroke-width="0.5" stroke="black" fill="magenta"/>
  <circle cx="518.821" cy="390.321" r="5.05167" stroke-width="0.5" stroke="black" fill="magenta"/>
   </g>
   <g id="cell19">
  <circle cx="459.709" cy="540.544" r="8.28717" stroke-width="0.5" stroke="black" fill="magenta"/>
  <circle cx="459.709" cy="540.544" r="4.99957" stroke-width="0.5" stroke="black" fill="magenta"/>
   </g>
   <g id="cell20">
  <circle cx="529.508" cy="417.334" r="8.41271" stroke-width="0.5" stroke="black" fill="magenta"/>
  <circle cx="529.508" cy="417.334" r="5.05167" stroke-width="0.5" stroke="black" fill="magenta"/>
   </g>
   <g id="cell21">
  <circle cx="466.467" cy="632.647" r="8.41271" stroke-width="0.5" stroke="black" fill="magenta"/>
  <circle cx="466.467" cy="632.647" r="5.05167" stroke-width="0.5" stroke="black" fill="magenta"/>
   </g>
   <g id="cell22">
  <circle cx="555.4" cy="494.11" r="8.41271" stroke-width="0.5" stroke="black" fill="magenta"/>
  <circle cx="555.4" cy="494.11" r="5.05167" stroke-width="0.5" stroke="black" fill="magenta"/>
   </g>
   <g id="cell23">
  <circle cx="545.695" cy="482.267" r="8.41271" stroke-width="0.5" stroke="black" fill="magenta"/>
  <circle cx="545.695" cy="482.267" r="5.05167" stroke-width="0.5" stroke="black" fill="magenta"/>
   </g>
   <g id="cell24">
  <circle cx="558.843" cy="381.389" r="8.41271" stroke-width="0.5" stroke="black" fill="magenta"/>
  <circle cx="558.843" cy="381.389" r="5.05167" stroke-width="0.5" stroke="black" fill="magenta"/>
   </g>
   <g id="cell25">
  <circle cx="648.076" cy="543.318" r="8.403" stroke-width="0.5" stroke="black" fill="green"/>
  <circle cx="648.076" cy="543.318" r="5.04863" stroke-width="0.5" stroke="black" fill="green"/>
   </g>
   <g id="cell26">
  <circle cx="555.854" cy="396.463" r="8.28629" stroke-width="0.5" stroke="black" fill="green"/>
  <circle cx="555.854" cy="396.463" r="4.99786" stroke-width="0.5" stroke="black" fill="green"/>
   </g>
   <g id="cell27">
  <circle cx="465.332" cy="396.959" r="8.40667" stroke-width="0.5" stroke="black" fill="green"/>
  <circle cx="465.332" cy="396.959" r="5.04987" stroke-width="0.5" stroke="black" fill="green"/>
   </g>
   <g id="cell28">
  <circle cx="432.751" cy="530.78" r="8.41271" stroke-width="0.5" stroke="black" fill="green"/>
  <circle cx="432.751" cy="530.78" r="5.05167" stroke-width="0.5" stroke="black" fill="green"/>
   </g>
   <g id="cell29">
  <circle cx="450.493" cy="515.757" r="8.41271" stroke-width="0.5" stroke="black" fill="green"/>
  <circle cx="450.493" cy="515.757" r="5.05167" stroke-width="0.5" stroke="black" fill="green"/>
   </g>
   <g id="cell30">
  <circle cx="485.483" cy="535.412" r="7.19571" stroke-width="0.5" stroke="black" fill="green"/>
  <circle cx="485.483" cy="535.412" r="4.37399" stroke-width="0.5" stroke="black" fill="green"/>
   </g>
   <g id="cell31">
  <circle cx="412.807" cy="541.561" r="8.41271" stroke-width="0.5" stroke="black" fill="green"/>
  <circle cx="412.807" cy="541.561" r="5.05167" stroke-width="0.5" stroke="black" fill="green"/>
   </g>
   <g id="cell32">
  <circle cx="421.367" cy="481.396" r="3.18373" stroke-width="0.5" stroke="black" fill="green"/>
  <circle cx="421.367" cy="481.396" r="2.54627" stroke-width="0.5" stroke="black" fill="black"/>
   </g>
   <g id="cell33">
  <circle cx="502.456" cy="425.082" r="7.02257" stroke-width="0.5" stroke="black" fill="green"/>
  <circle cx="502.456" cy="425.082" r="4.25644" stroke-width="0.5" stroke="black" fill="green"/>
   </g>
   <g id="cell34">
  <circle cx="396.819" cy="450.575" r="3.3642" stroke-width="0.5" stroke="black" fill="green"/>
  <circle cx="396.819" cy="450.575" r="2.62376" stroke-width="0.5" stroke="black" fill="black"/>
   </g>
   <g id="cell35">
  <circle cx="553.764" cy="543.254" r="8.41271" stroke-width="0.5" stroke="black" fill="green"/>
  <circle cx="553.764" cy="543.254" r="5.05167" stroke-width="0.5" stroke="black" fill="green"/>
   </g>
   <g id="cell36">
  <circle cx="391.486" cy="582.903" r="8.41271" stroke-width="0.5" stroke="black" fill="green"/>
  <circle cx="391.486" cy="582.903" r="5.05167" stroke-width="0.5" stroke="black" fill="green"/>
   </g>
   <g id="cell37">
  <circle cx="640.019" cy="457.577" r="8.40576" stroke-width="0.5" stroke="black" fill="green"/>
  <circle cx="640.019" cy="457.577" r="5.04957" stroke-width="0.5" stroke="black" fill="green"/>
   </g>
   <g id="cell38">
  <circle cx="530.458" cy="588.554" r="8.4045" stroke-width="0.5" stroke="black" fill="green"/>
  <circle cx="530.458" cy="588.554" r="5.04914" stroke-width="0.5" stroke="black" fill="green"/>
   </g>
   <g id="cell39">
  <circle cx="613.588" cy="490.476" r="8.41271" stroke-width="0.5" stroke="black" fill="green"/>
  <circle cx="613.588" cy="490.476" r="5.05167" stroke-width="0.5" stroke="black" fill="green"/>
   </g>
   <g id="cell40">
  <circle cx="485.329" cy="571.619" r="8.41271" stroke-width="0.5" stroke="black" fill="green"/>
  <circle cx="485.329" cy="571.619" r="5.05167" stroke-width="0.5" stroke="black" fill="green"/>
   </g>
   <g id="cell41">
  <circle cx="364.148" cy="481.42" r="8.41271" stroke-width="0.5" stroke="black" fill="green"/>
  <circle cx="364.148" cy="481.42" r="5.05167" stroke-width="0.5" stroke="black" fill="green"/>
   </g>
   <g id="cell42">
  <circle cx="438.793" cy="494.019" r="8.41271" stroke-width="0.5" stroke="black" fill="green"/>
  <circle cx="438.793" cy="494.019" r="5.05167" stroke-width="0.5" stroke="black" fill="green"/>
   </g>
   <g id="cell43">
  <circle cx="560.795" cy="440.235" r="8.41271" stroke-width="0.5" stroke="black" fill="green"/>
  <circle cx="560.795" cy="440.235" r="5.05167" stroke-width="0.5" stroke="black" fill="green"/>
   </g>
   <g id="cell44">
  <circle cx="473.759" cy="625.948" r="2.34188" stroke-width="0.5" stroke="black" fill="green"/>
  <circle cx="473.759" cy="625.948" r="2.12529" stroke-width="0.5" stroke="black" fill="black"/>
   </g>
   <g id="cell145">
  <circle cx="426.275" cy="417.131" r="4.45477" stroke-width="0.5" stroke="black" fill="magenta"/>
  <circle cx="426.275" cy="417.131" r="2.70558" stroke-width="0.5" stroke="black" fill="magenta"/>
   </g>
   <g id="cell46">
  <circle cx="520.635" cy="612.549" r="8.35727" stroke-width="0.5" stroke="black" fill="green"/>
  <circle cx="520.635" cy="612.549" r="5.03034" stroke-width="0.5" stroke="black" fill="green"/>
   </g>
   <g id="cell47">
  <circle cx="504.615" cy="494.973" r="8.3784" stroke-width="0.5" stroke="black" fill="green"/>
  <circle cx="504.615" cy="494.973" r="5.03921" stroke-width="0.5" stroke="black" fill="green"/>
   </g>
   <g id="cell48">
  <circle cx="571.106" cy="604.719" r="8.2847" stroke-width="0.5" stroke="black" fill="green"/>
  <circle cx="571.106" cy="604.719" r="4.99976" stroke-width="0.5" stroke="black" fill="green"/>
   </g>
   <g id="cell49">
  <circle cx="432.697" cy="395.813" r="8.41271" stroke-width="0.5" stroke="black" fill="green"/>
  <circle cx="432.697" cy="395.813" r="5.05167" stroke-width="0.5" stroke="black" fill="green"/>
   </g>
   <g id="cell50">
  <circle cx="512.836" cy="508.307" r="8.232" stroke-width="0.5" stroke="black" fill="cyan"/>
  <circle cx="512.836" cy="508.307" r="4.97255" stroke-width="0.5" stroke="black" fill="cyan"/>
   </g>
   <g id="cell51">
  <circle cx="398.721" cy="597.201" r="8.41271" stroke-width="0.5" stroke="black" fill="cyan"/>
  <circle cx="398.721" cy="597.201" r="5.05167" stroke-width="0.5" stroke="black" fill="cyan"/>
   </g>
   <g id="cell52">
  <circle cx="516.072" cy="422.857" r="8.41271" stroke-width="0.5" stroke="black" fill="cyan"/>
  <circle cx="516.072" cy="422.857" r="5.05167" stroke-width="0.5" stroke="black" fill="cyan"/>
   </g>
   <g id="cell53">
  <circle cx="572.351" cy="429.331" r="8.36592" stroke-width="0.5" stroke="black" fill="cyan"/>
  <circle cx="572.351" cy="429.331" r="5.03403" stroke-width="0.5" stroke="black" fill="cyan"/>
   </g>
   <g id="cell54">
  <circle cx="481.298" cy="421.189" r="8.38454" stroke-width="0.5" stroke="black" fill="cyan"/>
  <circle cx="481.298" cy="421.189" r="5.04168" stroke-width="0.5" stroke="black" fill="cyan"/>
   </g>
   <g id="cell55">
  <circle cx="521.619" cy="463.719" r="8.36816" stroke-width="0.5" stroke="black" fill="cyan"/>
  <circle cx="521.619" cy="463.719" r="5.03541" stroke-width="0.5" stroke="black" fill="cyan"/>
   </g>
   <g id="cell56">
  <circle cx="617.172" cy="522.397" r="8.41271" stroke-width="0.5" stroke="black" fill="cyan"/>
  <circle cx="617.172" cy="522.397" r="5.05167" stroke-width="0.5" stroke="black" fill="cyan"/>
   </g>
   <g id="cell105">
  <circle cx="507.629" cy="606.71" r="6.85042" stroke-width="0.5" stroke="black" fill="green"/>
  <circle cx="507.629" cy="606.71" r="4.17841" stroke-width="0.5" stroke="black" fill="green"/>
   </g>
   <g id="cell58">
  <circle cx="560.794" cy="479.587" r="8.41271" stroke-width="0.5" stroke="black" fill="cyan"/>
  <circle cx="560.794" cy="479.587" r="5.05167" stroke-width="0.5" stroke="black" fill="cyan"/>
   </g>
   <g id="cell59">
  <circle cx="385.732" cy="440.058" r="8.41271" stroke-width="0.5" stroke="black" fill="cyan"/>
  <circle cx="385.732" cy="440.058" r="5.05167" stroke-width="0.5" stroke="black" fill="cyan"/>
   </g>
   <g id="cell60">
  <circle cx="592.155" cy="473.802" r="8.41271" stroke-width="0.5" stroke="black" fill="cyan"/>
  <circle cx="592.155" cy="473.802" r="5.05167" stroke-width="0.5" stroke="black" fill="cyan"/>
   </g>
   <g id="cell61">
  <circle cx="557.503" cy="622.455" r="8.41271" stroke-width="0.5" stroke="black" fill="cyan"/>
  <circle cx="557.503" cy="622.455" r="5.05167" stroke-width="0.5" stroke="black" fill="cyan"/>
   </g>
   <g id="cell62">
  <circle cx="513.573" cy="437.904" r="8.13499" stroke-width="0.5" stroke="black" fill="cyan"/>
  <circle cx="513.573" cy="437.904" r="4.92221" stroke-width="0.5" stroke="black" fill="cyan"/>
   </g>
   <g id="cell63">
  <circle cx="582.514" cy="542.863" r="7.7677" stroke-width="0.5" stroke="black" fill="cyan"/>
  <circle cx="582.514" cy="542.863" r="4.71973" stroke-width="0.5" stroke="black" fill="cyan"/>
   </g>
   <g id="cell64">
  <circle cx="509.72" cy="639.283" r="8.41271" stroke-width="0.5" stroke="black" fill="cyan"/>
  <circle cx="509.72" cy="639.283" r="5.05167" stroke-width="0.5" stroke="black" fill="cyan"/>
   </g>
   <g id="cell65">
  <circle cx="550.381" cy="467.332" r="8.3937" stroke-width="0.5" stroke="black" fill="cyan"/>
  <circle cx="550.381" cy="467.332" r="5.04523" stroke-width="0.5" stroke="black" fill="cyan"/>
   </g>
   <g id="cell66">
  <circle cx="529.555" cy="533.574" r="8.38291" stroke-width="0.5" stroke="black" fill="cyan"/>
  <circle cx="529.555" cy="533.574" r="5.04103" stroke-width="0.5" stroke="black" fill="cyan"/>
   </g>
   <g id="cell67">
  <circle cx="353.83" cy="493.673" r="8.41271" stroke-width="0.5" stroke="black" fill="cyan"/>
  <circle cx="353.83" cy="493.673" r="5.05167" stroke-width="0.5" stroke="black" fill="cyan"/>
   </g>
   <g id="cell68">
  <circle cx="563.25" cy="555.662" r="8.41271" stroke-width="0.5" stroke="black" fill="cyan"/>
  <circle cx="563.25" cy="555.662" r="5.05167" stroke-width="0.5" stroke="black" fill="cyan"/>
   </g>
   <g id="cell69">
  <circle cx="442.134" cy="460.509" r="8.41271" stroke-width="0.5" stroke="black" fill="cyan"/>
  <circle cx="442.134" cy="460.509" r="5.05167" stroke-width="0.5" stroke="black" fill="cyan"/>
   </g>
   <g id="cell70">
  <circle cx="576.388" cy="476.833" r="8.41271" stroke-width="0.5" stroke="black" fill="cyan"/>
  <circle cx="576.388" cy="476.833" r="5.05167" stroke-width="0.5" stroke="black" fill="cyan"/>
   </g>
   <g id="cell71">
  <circle cx="380.21" cy="527.777" r="8.3031" stroke-width="0.5" stroke="black" fill="cyan"/>
  <circle cx="380.21" cy="527.777" r="5.00583" stroke-width="0.5" stroke="black" fill="cyan"/>
   </g>
   <g id="cell72">
  <circle cx="528.505" cy="508.102" r="8.38532" stroke-width="0.5" stroke="black" fill="cyan"/>
  <circle cx="528.505" cy="508.102" r="5.04199" stroke-width="0.5" stroke="black" fill="cyan"/>
   </g>
   <g id="cell73">
  <circle cx="364.573" cy="552.937" r="8.39752" stroke-width="0.5" stroke="black" fill="cyan"/>
  <circle cx="364.573" cy="552.937" r="5.04666" stroke-width="0.5" stroke="black" fill="cyan"/>
   </g>
   <g id="cell74">
  <circle cx="548.888" cy="433.737" r="2.16946" stroke-width="0.5" stroke="black" fill="cyan"/>
  <circle cx="548.888" cy="433.737" r="2.0057" stroke-width="0.5" stroke="black" fill="black"/>
   </g>
   <g id="cell75">
  <circle cx="528.956" cy="432.864" r="8.40683" stroke-width="0.5" stroke="black" fill="cyan"/>
  <circle cx="528.956" cy="432.864" r="5.04993" stroke-width="0.5" stroke="black" fill="cyan"/>
   </g>
   <g id="cell76">
  <circle cx="442.018" cy="382.458" r="8.32297" stroke-width="0.5" stroke="black" fill="green"/>
  <circle cx="442.018" cy="382.458" r="5.01691" stroke-width="0.5" stroke="black" fill="green"/>
   </g>
   <g id="cell77">
  <circle cx="477.267" cy="436.181" r="8.34376" stroke-width="0.5" stroke="black" fill="magenta"/>
  <circle cx="477.267" cy="436.181" r="5.02488" stroke-width="0.5" stroke="black" fill="magenta"/>
   </g>
   <g id="cell78">
  <circle cx="624.695" cy="462.145" r="8.39021" stroke-width="0.5" stroke="black" fill="green"/>
  <circle cx="624.695" cy="462.145" r="5.04418" stroke-width="0.5" stroke="black" fill="green"/>
   </g>
   <g id="cell79">
  <circle cx="516.855" cy="479.211" r="8.40494" stroke-width="0.5" stroke="black" fill="cyan"/>
  <circle cx="516.855" cy="479.211" r="5.04929" stroke-width="0.5" stroke="black" fill="cyan"/>
   </g>
   <g id="cell80">
  <circle cx="543.015" cy="616.166" r="8.13142" stroke-width="0.5" stroke="black" fill="green"/>
  <circle cx="543.015" cy="616.166" r="4.92105" stroke-width="0.5" stroke="black" fill="green"/>
   </g>
   <g id="cell81">
  <circle cx="545.51" cy="594.147" r="8.40015" stroke-width="0.5" stroke="black" fill="green"/>
  <circle cx="545.51" cy="594.147" r="5.0478" stroke-width="0.5" stroke="black" fill="green"/>
   </g>
   <g id="cell82">
  <circle cx="534.009" cy="557.57" r="6.82978" stroke-width="0.5" stroke="black" fill="magenta"/>
  <circle cx="534.009" cy="557.57" r="4.12535" stroke-width="0.5" stroke="black" fill="magenta"/>
   </g>
   <g id="cell83">
  <circle cx="635.486" cy="552.386" r="7.94502" stroke-width="0.5" stroke="black" fill="green"/>
  <circle cx="635.486" cy="552.386" r="4.81963" stroke-width="0.5" stroke="black" fill="green"/>
   </g>
   <g id="cell84">
  <circle cx="520.816" cy="494.472" r="8.39834" stroke-width="0.5" stroke="black" fill="cyan"/>
  <circle cx="520.816" cy="494.472" r="5.04696" stroke-width="0.5" stroke="black" fill="cyan"/>
   </g>
   <g id="cell85">
  <circle cx="352.488" cy="542.505" r="8.36977" stroke-width="0.5" stroke="black" fill="cyan"/>
  <circle cx="352.488" cy="542.505" r="5.03628" stroke-width="0.5" stroke="black" fill="cyan"/>
   </g>
   <g id="cell86">
  <circle cx="499.391" cy="534.994" r="8.09607" stroke-width="0.5" stroke="black" fill="magenta"/>
  <circle cx="499.391" cy="534.994" r="4.90255" stroke-width="0.5" stroke="black" fill="magenta"/>
   </g>
   <g id="cell87">
  <circle cx="578.93" cy="557.839" r="8.35172" stroke-width="0.5" stroke="black" fill="cyan"/>
  <circle cx="578.93" cy="557.839" r="5.02877" stroke-width="0.5" stroke="black" fill="cyan"/>
   </g>
   <g id="cell88">
  <circle cx="448.228" cy="531.131" r="8.39422" stroke-width="0.5" stroke="black" fill="magenta"/>
  <circle cx="448.228" cy="531.131" r="5.04543" stroke-width="0.5" stroke="black" fill="magenta"/>
   </g>
   <g id="cell89">
  <circle cx="549.688" cy="453.132" r="6.13918" stroke-width="0.5" stroke="black" fill="cyan"/>
  <circle cx="549.688" cy="453.132" r="3.7532" stroke-width="0.5" stroke="black" fill="cyan"/>
   </g>
   <g id="cell90">
  <circle cx="636.231" cy="472.635" r="7.9511" stroke-width="0.5" stroke="black" fill="green"/>
  <circle cx="636.231" cy="472.635" r="4.82443" stroke-width="0.5" stroke="black" fill="green"/>
   </g>
   <g id="cell91">
  <circle cx="547.67" cy="557.462" r="8.3754" stroke-width="0.5" stroke="black" fill="magenta"/>
  <circle cx="547.67" cy="557.462" r="5.03881" stroke-width="0.5" stroke="black" fill="magenta"/>
   </g>
   <g id="cell92">
  <circle cx="483.299" cy="552.229" r="8.38891" stroke-width="0.5" stroke="black" fill="green"/>
  <circle cx="483.299" cy="552.229" r="5.0434" stroke-width="0.5" stroke="black" fill="green"/>
   </g>
   <g id="cell93">
  <circle cx="538.863" cy="545.128" r="8.3754" stroke-width="0.5" stroke="black" fill="magenta"/>
  <circle cx="538.863" cy="545.128" r="5.03881" stroke-width="0.5" stroke="black" fill="magenta"/>
   </g>
   <g id="cell94">
  <circle cx="537.536" cy="495.411" r="8.38532" stroke-width="0.5" stroke="black" fill="cyan"/>
  <circle cx="537.536" cy="495.411" r="5.04199" stroke-width="0.5" stroke="black" fill="cyan"/>
   </g>
   <g id="cell95">
  <circle cx="465.94" cy="425.819" r="8.38454" stroke-width="0.5" stroke="black" fill="cyan"/>
  <circle cx="465.94" cy="425.819" r="5.04168" stroke-width="0.5" stroke="black" fill="cyan"/>
   </g>
   <g id="cell96">
  <circle cx="545.922" cy="530.838" r="7.52585" stroke-width="0.5" stroke="black" fill="cyan"/>
  <circle cx="545.922" cy="530.838" r="4.57864" stroke-width="0.5" stroke="black" fill="cyan"/>
   </g>
   <g id="cell97">
  <circle cx="421.455" cy="466.412" r="8.35574" stroke-width="0.5" stroke="black" fill="green"/>
  <circle cx="421.455" cy="466.412" r="5.03071" stroke-width="0.5" stroke="black" fill="green"/>
   </g>
   <g id="cell98">
  <circle cx="491.047" cy="522.438" r="8.02732" stroke-width="0.5" stroke="black" fill="green"/>
  <circle cx="491.047" cy="522.438" r="4.86707" stroke-width="0.5" stroke="black" fill="green"/>
   </g>
   <g id="cell99">
  <circle cx="358.319" cy="527.673" r="8.36977" stroke-width="0.5" stroke="black" fill="cyan"/>
  <circle cx="358.319" cy="527.673" r="5.03628" stroke-width="0.5" stroke="black" fill="cyan"/>
   </g>
   <g id="cell100">
  <circle cx="449.122" cy="396.603" r="8.36903" stroke-width="0.5" stroke="black" fill="green"/>
  <circle cx="449.122" cy="396.603" r="5.0357" stroke-width="0.5" stroke="black" fill="green"/>
   </g>
   <g id="cell101">
  <circle cx="531.194" cy="482.137" r="7.44056" stroke-width="0.5" stroke="black" fill="cyan"/>
  <circle cx="531.194" cy="482.137" r="4.52905" stroke-width="0.5" stroke="black" fill="cyan"/>
   </g>
   <g id="cell102">
  <circle cx="434.986" cy="474.802" r="8.35574" stroke-width="0.5" stroke="black" fill="green"/>
  <circle cx="434.986" cy="474.802" r="5.03071" stroke-width="0.5" stroke="black" fill="green"/>
   </g>
   <g id="cell103">
  <circle cx="591.19" cy="447.808" r="8.08817" stroke-width="0.5" stroke="black" fill="cyan"/>
  <circle cx="591.19" cy="447.808" r="4.90048" stroke-width="0.5" stroke="black" fill="cyan"/>
   </g>
   <g id="cell104">
  <circle cx="593.972" cy="552.723" r="8.35172" stroke-width="0.5" stroke="black" fill="cyan"/>
  <circle cx="593.972" cy="552.723" r="5.02877" stroke-width="0.5" stroke="black" fill="cyan"/>
   </g>
   <g id="cell106">
  <circle cx="463.224" cy="441.178" r="8.34376" stroke-width="0.5" stroke="black" fill="magenta"/>
  <circle cx="463.224" cy="441.178" r="5.02488" stroke-width="0.5" stroke="black" fill="magenta"/>
   </g>
   <g id="cell107">
  <circle cx="457.638" cy="383.492" r="8.06525" stroke-width="0.5" stroke="black" fill="green"/>
  <circle cx="457.638" cy="383.492" r="4.89127" stroke-width="0.5" stroke="black" fill="green"/>
   </g>
   <g id="cell108">
  <circle cx="555.425" cy="606.639" r="8.33257" stroke-width="0.5" stroke="black" fill="green"/>
  <circle cx="555.425" cy="606.639" r="5.01941" stroke-width="0.5" stroke="black" fill="green"/>
   </g>
   <g id="cell109">
  <circle cx="576.55" cy="589.929" r="8.2847" stroke-width="0.5" stroke="black" fill="green"/>
  <circle cx="576.55" cy="589.929" r="4.99976" stroke-width="0.5" stroke="black" fill="green"/>
   </g>
   <g id="cell110">
  <circle cx="373.639" cy="513.409" r="8.3031" stroke-width="0.5" stroke="black" fill="cyan"/>
  <circle cx="373.639" cy="513.409" r="5.00583" stroke-width="0.5" stroke="black" fill="cyan"/>
   </g>
   <g id="cell111">
  <circle cx="456.477" cy="554.244" r="7.41582" stroke-width="0.5" stroke="black" fill="magenta"/>
  <circle cx="456.477" cy="554.244" r="4.5219" stroke-width="0.5" stroke="black" fill="magenta"/>
   </g>
   <g id="cell112">
  <circle cx="506.818" cy="467.943" r="8.28985" stroke-width="0.5" stroke="black" fill="magenta"/>
  <circle cx="506.818" cy="467.943" r="4.99956" stroke-width="0.5" stroke="black" fill="magenta"/>
   </g>
   <g id="cell113">
  <circle cx="542.728" cy="400.578" r="6.65844" stroke-width="0.5" stroke="black" fill="green"/>
  <circle cx="542.728" cy="400.578" r="4.02632" stroke-width="0.5" stroke="black" fill="green"/>
   </g>
   <g id="cell114">
  <circle cx="524.659" cy="448.134" r="8.19756" stroke-width="0.5" stroke="black" fill="cyan"/>
  <circle cx="524.659" cy="448.134" r="4.95868" stroke-width="0.5" stroke="black" fill="cyan"/>
   </g>
   <g id="cell115">
  <circle cx="537.329" cy="455.099" r="7.59401" stroke-width="0.5" stroke="black" fill="cyan"/>
  <circle cx="537.329" cy="455.099" r="4.63441" stroke-width="0.5" stroke="black" fill="cyan"/>
   </g>
   <g id="cell116">
  <circle cx="520.722" cy="521.392" r="8.232" stroke-width="0.5" stroke="black" fill="cyan"/>
  <circle cx="520.722" cy="521.392" r="4.97255" stroke-width="0.5" stroke="black" fill="cyan"/>
   </g>
   <g id="cell117">
  <circle cx="509.353" cy="623.463" r="8.1718" stroke-width="0.5" stroke="black" fill="green"/>
  <circle cx="509.353" cy="623.463" r="4.94435" stroke-width="0.5" stroke="black" fill="green"/>
   </g>
   <g id="cell118">
  <circle cx="510.047" cy="453.055" r="8.13499" stroke-width="0.5" stroke="black" fill="cyan"/>
  <circle cx="510.047" cy="453.055" r="4.92221" stroke-width="0.5" stroke="black" fill="cyan"/>
   </g>
   <g id="cell119">
  <circle cx="533.307" cy="603.917" r="8.13142" stroke-width="0.5" stroke="black" fill="green"/>
  <circle cx="533.307" cy="603.917" r="4.92105" stroke-width="0.5" stroke="black" fill="green"/>
   </g>
   <g id="cell120">
  <circle cx="576.107" cy="444.517" r="8.08817" stroke-width="0.5" stroke="black" fill="cyan"/>
  <circle cx="576.107" cy="444.517" r="4.90048" stroke-width="0.5" stroke="black" fill="cyan"/>
   </g>
   <g id="cell121">
  <circle cx="451.287" cy="370.148" r="7.69972" stroke-width="0.5" stroke="black" fill="green"/>
  <circle cx="451.287" cy="370.148" r="4.69942" stroke-width="0.5" stroke="black" fill="green"/>
   </g>
   <g id="cell122">
  <circle cx="505.945" cy="522.121" r="8.09607" stroke-width="0.5" stroke="black" fill="magenta"/>
  <circle cx="505.945" cy="522.121" r="4.90255" stroke-width="0.5" stroke="black" fill="magenta"/>
   </g>
   <g id="cell123">
  <circle cx="497.772" cy="509.114" r="8.02732" stroke-width="0.5" stroke="black" fill="green"/>
  <circle cx="497.772" cy="509.114" r="4.86707" stroke-width="0.5" stroke="black" fill="green"/>
   </g>
   <g id="cell124">
  <circle cx="491.339" cy="432.562" r="8.04255" stroke-width="0.5" stroke="black" fill="magenta"/>
  <circle cx="491.339" cy="432.562" r="4.87291" stroke-width="0.5" stroke="black" fill="magenta"/>
   </g>
   <g id="cell125">
  <circle cx="621.944" cy="477.414" r="7.9511" stroke-width="0.5" stroke="black" fill="green"/>
  <circle cx="621.944" cy="477.414" r="4.82443" stroke-width="0.5" stroke="black" fill="green"/>
   </g>
   <g id="cell126">
  <circle cx="629.128" cy="566.047" r="7.94502" stroke-width="0.5" stroke="black" fill="green"/>
  <circle cx="629.128" cy="566.047" r="4.81963" stroke-width="0.5" stroke="black" fill="green"/>
   </g>
   <g id="cell127">
  <circle cx="439.301" cy="361.991" r="7.69972" stroke-width="0.5" stroke="black" fill="green"/>
  <circle cx="439.301" cy="361.991" r="4.69942" stroke-width="0.5" stroke="black" fill="green"/>
   </g>
   <g id="cell128">
  <circle cx="372.891" cy="469.185" r="7.83019" stroke-width="0.5" stroke="black" fill="magenta"/>
  <circle cx="372.891" cy="469.185" r="4.75343" stroke-width="0.5" stroke="black" fill="magenta"/>
   </g>
   <g id="cell129">
  <circle cx="568.312" cy="540.679" r="7.7677" stroke-width="0.5" stroke="black" fill="cyan"/>
  <circle cx="568.312" cy="540.679" r="4.71973" stroke-width="0.5" stroke="black" fill="cyan"/>
   </g>
   <g id="cell130">
  <circle cx="543.771" cy="441.57" r="7.59401" stroke-width="0.5" stroke="black" fill="cyan"/>
  <circle cx="543.771" cy="441.57" r="4.63441" stroke-width="0.5" stroke="black" fill="cyan"/>
   </g>
   <g id="cell131">
  <circle cx="536.714" cy="520.333" r="7.52585" stroke-width="0.5" stroke="black" fill="cyan"/>
  <circle cx="536.714" cy="520.333" r="4.57864" stroke-width="0.5" stroke="black" fill="cyan"/>
   </g>
   <g id="cell132">
  <circle cx="446.534" cy="545.297" r="7.41582" stroke-width="0.5" stroke="black" fill="magenta"/>
  <circle cx="446.534" cy="545.297" r="4.5219" stroke-width="0.5" stroke="black" fill="magenta"/>
   </g>
   <g id="cell133">
  <circle cx="565.442" cy="465.596" r="7.48259" stroke-width="0.5" stroke="black" fill="cyan"/>
  <circle cx="565.442" cy="465.596" r="4.5512" stroke-width="0.5" stroke="black" fill="cyan"/>
   </g>
   <g id="cell134">
  <circle cx="535.656" cy="469.076" r="7.44056" stroke-width="0.5" stroke="black" fill="cyan"/>
  <circle cx="535.656" cy="469.076" r="4.52905" stroke-width="0.5" stroke="black" fill="cyan"/>
   </g>
   <g id="cell135">
  <circle cx="511.846" cy="583.656" r="7.3599" stroke-width="0.5" stroke="black" fill="magenta"/>
  <circle cx="511.846" cy="583.656" r="4.47294" stroke-width="0.5" stroke="black" fill="magenta"/>
   </g>
   <g id="cell136">
  <circle cx="473.637" cy="541.21" r="7.19571" stroke-width="0.5" stroke="black" fill="green"/>
  <circle cx="473.637" cy="541.21" r="4.37399" stroke-width="0.5" stroke="black" fill="green"/>
   </g>
   <g id="cell137">
  <circle cx="495.58" cy="610.93" r="6.85042" stroke-width="0.5" stroke="black" fill="green"/>
  <circle cx="495.58" cy="610.93" r="4.17841" stroke-width="0.5" stroke="black" fill="green"/>
   </g>
   <g id="cell138">
  <circle cx="500.437" cy="412.051" r="7.02257" stroke-width="0.5" stroke="black" fill="green"/>
  <circle cx="500.437" cy="412.051" r="4.25644" stroke-width="0.5" stroke="black" fill="green"/>
   </g>
   <g id="cell139">
  <circle cx="423.484" cy="407.423" r="6.86652" stroke-width="0.5" stroke="black" fill="magenta"/>
  <circle cx="423.484" cy="407.423" r="4.14883" stroke-width="0.5" stroke="black" fill="magenta"/>
   </g>
   <g id="cell140">
  <circle cx="524.266" cy="564.605" r="6.82978" stroke-width="0.5" stroke="black" fill="magenta"/>
  <circle cx="524.266" cy="564.605" r="4.12535" stroke-width="0.5" stroke="black" fill="magenta"/>
   </g>
   <g id="cell141">
  <circle cx="560.92" cy="453.812" r="6.13918" stroke-width="0.5" stroke="black" fill="cyan"/>
  <circle cx="560.92" cy="453.812" r="3.7532" stroke-width="0.5" stroke="black" fill="cyan"/>
   </g>
   <g id="cell142">
  <circle cx="547.722" cy="415.822" r="5.33946" stroke-width="0.5" stroke="black" fill="green"/>
  <circle cx="547.722" cy="415.822" r="3.23437" stroke-width="0.5" stroke="black" fill="green"/>
   </g>
   <g id="cell143">
  <circle cx="434.455" cy="408.599" r="5.56773" stroke-width="0.5" stroke="black" fill="magenta"/>
  <circle cx="434.455" cy="408.599" r="3.37803" stroke-width="0.5" stroke="black" fill="magenta"/>
   </g>
   <g id="cell144">
  <circle cx="539.278" cy="410.703" r="5.33946" stroke-width="0.5" stroke="black" fill="green"/>
  <circle cx="539.278" cy="410.703" r="3.23437" stroke-width="0.5" stroke="black" fill="green"/>
   </g>
  </g>
 </g>
  <rect x="775" y="1035" width="200" height="10" stroke-width="2" stroke="rgb(255,255,255)" fill="rgb(0,0,0)"/>
  <text x="781.25" y="1028.75"
   font-family="Arial" font-size="25" fill="black" >
   200 &#956;m
  </text>
  <text x="25" y="1045"
   font-family="Arial" font-size="18.75" fill="black" >
   0 days, 0 hours, 0 minutes, and 25.7068 seconds
  </text>
  <rect x="0" y="70" width="1000" height="1000" stroke-width="2" stroke="rgb(0,0,0)" fill="none"/>
</svg>
