<?xml version="1.0" encoding="UTF-8" standalone="no"?>
<!-- Created with PhysiCell (http://PhysiCell.MathCancer.org/) -->
<svg 
 xmlns:dc="http://purl.org/dc/elements/1.1/" 
 xmlns:cc="http://creativecommons.org/ns#" 
 xmlns:rdf="http://www.w3.org/1999/02/22-rdf-syntax-ns#" 
 xmlns:svg="http://www.w3.org/2000/svg" 
 xmlns="http://www.w3.org/2000/svg" 
 version="1.1" 
 width="1000" 
 height="1070" 
 id="svg2">
  <rect x="0" y="0" width="1000" height="1070" stroke-width="2" stroke="white" fill="white"/>
  <text x="12.5" y="30"
   font-family="Arial" font-size="25" fill="black" >
   Current time: 1 days, 16 hours, and 21.00 minutes, z = 0.00 &#956;m
  </text>
  <text x="12.5" y="57.5"
   font-family="Arial" font-size="23.75" fill="black" >
   208 agents
  </text>
 <g id="tissue" 
    transform="translate(0,1070) scale(1,-1)">
  <g id="ECM">
  </g>
  <g id="cells">
   <g id="cell0">
  <circle cx="509.378" cy="542.88" r="8.41262" stroke-width="0.5" stroke="black" fill="magenta"/>
  <circle cx="509.378" cy="542.88" r="5.05165" stroke-width="0.5" stroke="black" fill="magenta"/>
   </g>
   <g id="cell1">
  <circle cx="592.816" cy="525.205" r="8.36178" stroke-width="0.5" stroke="black" fill="magenta"/>
  <circle cx="592.816" cy="525.205" r="5.03227" stroke-width="0.5" stroke="black" fill="magenta"/>
   </g>
   <g id="cell2">
  <circle cx="513.665" cy="597.076" r="8.41271" stroke-width="0.5" stroke="black" fill="magenta"/>
  <circle cx="513.665" cy="597.076" r="5.05167" stroke-width="0.5" stroke="black" fill="magenta"/>
   </g>
   <g id="cell3">
  <circle cx="524.155" cy="546.653" r="8.41256" stroke-width="0.5" stroke="black" fill="magenta"/>
  <circle cx="524.155" cy="546.653" r="5.05164" stroke-width="0.5" stroke="black" fill="magenta"/>
   </g>
   <g id="cell4">
  <circle cx="483.938" cy="444.452" r="8.41071" stroke-width="0.5" stroke="black" fill="magenta"/>
  <circle cx="483.938" cy="444.452" r="5.05114" stroke-width="0.5" stroke="black" fill="magenta"/>
   </g>
   <g id="cell5">
  <circle cx="468.938" cy="490.491" r="8.41271" stroke-width="0.5" stroke="black" fill="magenta"/>
  <circle cx="468.938" cy="490.491" r="5.05167" stroke-width="0.5" stroke="black" fill="magenta"/>
   </g>
   <g id="cell163">
  <circle cx="532.175" cy="573.768" r="6.93094" stroke-width="0.5" stroke="black" fill="green"/>
  <circle cx="532.175" cy="573.768" r="4.20273" stroke-width="0.5" stroke="black" fill="green"/>
   </g>
   <g id="cell7">
  <circle cx="494.871" cy="454.748" r="8.35533" stroke-width="0.5" stroke="black" fill="magenta"/>
  <circle cx="494.871" cy="454.748" r="5.02957" stroke-width="0.5" stroke="black" fill="magenta"/>
   </g>
   <g id="cell8">
  <circle cx="379.473" cy="553.066" r="8.37431" stroke-width="0.5" stroke="black" fill="magenta"/>
  <circle cx="379.473" cy="553.066" r="5.03754" stroke-width="0.5" stroke="black" fill="magenta"/>
   </g>
   <g id="cell161">
  <circle cx="452.399" cy="386.271" r="8.36093" stroke-width="0.5" stroke="black" fill="green"/>
  <circle cx="452.399" cy="386.271" r="5.03291" stroke-width="0.5" stroke="black" fill="green"/>
   </g>
   <g id="cell10">
  <circle cx="583.133" cy="391.481" r="6.68019" stroke-width="0.5" stroke="black" fill="magenta"/>
  <circle cx="583.133" cy="391.481" r="4.0163" stroke-width="0.5" stroke="black" fill="magenta"/>
   </g>
   <g id="cell11">
  <circle cx="591.439" cy="591.237" r="8.41271" stroke-width="0.5" stroke="black" fill="magenta"/>
  <circle cx="591.439" cy="591.237" r="5.05167" stroke-width="0.5" stroke="black" fill="magenta"/>
   </g>
   <g id="cell12">
  <circle cx="498.868" cy="594.206" r="8.40715" stroke-width="0.5" stroke="black" fill="magenta"/>
  <circle cx="498.868" cy="594.206" r="5.05003" stroke-width="0.5" stroke="black" fill="magenta"/>
   </g>
   <g id="cell13">
  <circle cx="383.962" cy="567.719" r="8.41271" stroke-width="0.5" stroke="black" fill="magenta"/>
  <circle cx="383.962" cy="567.719" r="5.05167" stroke-width="0.5" stroke="black" fill="magenta"/>
   </g>
   <g id="cell14">
  <circle cx="517.138" cy="403.996" r="8.41271" stroke-width="0.5" stroke="black" fill="magenta"/>
  <circle cx="517.138" cy="403.996" r="5.05167" stroke-width="0.5" stroke="black" fill="magenta"/>
   </g>
   <g id="cell15">
  <circle cx="381.866" cy="479.123" r="8.40961" stroke-width="0.5" stroke="black" fill="magenta"/>
  <circle cx="381.866" cy="479.123" r="5.05081" stroke-width="0.5" stroke="black" fill="magenta"/>
   </g>
   <g id="cell16">
  <circle cx="452.653" cy="417.431" r="7.96668" stroke-width="0.5" stroke="black" fill="magenta"/>
  <circle cx="452.653" cy="417.431" r="4.83265" stroke-width="0.5" stroke="black" fill="magenta"/>
   </g>
   <g id="cell17">
  <circle cx="583.458" cy="497.443" r="8.27497" stroke-width="0.5" stroke="black" fill="magenta"/>
  <circle cx="583.458" cy="497.443" r="4.99242" stroke-width="0.5" stroke="black" fill="magenta"/>
   </g>
   <g id="cell18">
  <circle cx="518.669" cy="388.494" r="8.41271" stroke-width="0.5" stroke="black" fill="magenta"/>
  <circle cx="518.669" cy="388.494" r="5.05167" stroke-width="0.5" stroke="black" fill="magenta"/>
   </g>
   <g id="cell19">
  <circle cx="457.407" cy="541.338" r="8.412" stroke-width="0.5" stroke="black" fill="magenta"/>
  <circle cx="457.407" cy="541.338" r="5.0515" stroke-width="0.5" stroke="black" fill="magenta"/>
   </g>
   <g id="cell20">
  <circle cx="529.706" cy="412.599" r="8.41271" stroke-width="0.5" stroke="black" fill="magenta"/>
  <circle cx="529.706" cy="412.599" r="5.05167" stroke-width="0.5" stroke="black" fill="magenta"/>
   </g>
   <g id="cell21">
  <circle cx="467.688" cy="637.296" r="7.63698" stroke-width="0.5" stroke="black" fill="magenta"/>
  <circle cx="467.688" cy="637.296" r="4.64085" stroke-width="0.5" stroke="black" fill="magenta"/>
   </g>
   <g id="cell22">
  <circle cx="558.987" cy="489.555" r="7.82142" stroke-width="0.5" stroke="black" fill="magenta"/>
  <circle cx="558.987" cy="489.555" r="4.75696" stroke-width="0.5" stroke="black" fill="magenta"/>
   </g>
   <g id="cell23">
  <circle cx="554.171" cy="476.544" r="8.41271" stroke-width="0.5" stroke="black" fill="magenta"/>
  <circle cx="554.171" cy="476.544" r="5.05167" stroke-width="0.5" stroke="black" fill="magenta"/>
   </g>
   <g id="cell24">
  <circle cx="570.82" cy="385.21" r="8.41271" stroke-width="0.5" stroke="black" fill="magenta"/>
  <circle cx="570.82" cy="385.21" r="5.05167" stroke-width="0.5" stroke="black" fill="magenta"/>
   </g>
   <g id="cell25">
  <circle cx="643.612" cy="546.148" r="7.49453" stroke-width="0.5" stroke="black" fill="green"/>
  <circle cx="643.612" cy="546.148" r="4.55547" stroke-width="0.5" stroke="black" fill="green"/>
   </g>
   <g id="cell26">
  <circle cx="559.455" cy="396.706" r="8.412" stroke-width="0.5" stroke="black" fill="green"/>
  <circle cx="559.455" cy="396.706" r="5.0515" stroke-width="0.5" stroke="black" fill="green"/>
   </g>
   <g id="cell27">
  <circle cx="462.28" cy="405.831" r="8.41267" stroke-width="0.5" stroke="black" fill="green"/>
  <circle cx="462.28" cy="405.831" r="5.05166" stroke-width="0.5" stroke="black" fill="green"/>
   </g>
   <g id="cell28">
  <circle cx="429.144" cy="543.273" r="8.3926" stroke-width="0.5" stroke="black" fill="green"/>
  <circle cx="429.144" cy="543.273" r="5.04482" stroke-width="0.5" stroke="black" fill="green"/>
   </g>
   <g id="cell29">
  <circle cx="451.92" cy="519.111" r="1.13585" stroke-width="0.5" stroke="black" fill="green"/>
  <circle cx="451.92" cy="519.111" r="1.13158" stroke-width="0.5" stroke="black" fill="black"/>
   </g>
   <g id="cell30">
  <circle cx="479.68" cy="536.543" r="8.40625" stroke-width="0.5" stroke="black" fill="green"/>
  <circle cx="479.68" cy="536.543" r="5.04974" stroke-width="0.5" stroke="black" fill="green"/>
   </g>
   <g id="cell31">
  <circle cx="413.273" cy="543.828" r="8.41271" stroke-width="0.5" stroke="black" fill="green"/>
  <circle cx="413.273" cy="543.828" r="5.05167" stroke-width="0.5" stroke="black" fill="green"/>
   </g>
   <g id="cell169">
  <circle cx="520.134" cy="502.494" r="8.34692" stroke-width="0.5" stroke="black" fill="cyan"/>
  <circle cx="520.134" cy="502.494" r="5.02584" stroke-width="0.5" stroke="black" fill="cyan"/>
   </g>
   <g id="cell33">
  <circle cx="496.83" cy="416.826" r="8.40516" stroke-width="0.5" stroke="black" fill="green"/>
  <circle cx="496.83" cy="416.826" r="5.04937" stroke-width="0.5" stroke="black" fill="green"/>
   </g>
   <g id="cell168">
  <circle cx="381.48" cy="517.957" r="3.75815" stroke-width="0.5" stroke="black" fill="cyan"/>
  <circle cx="381.48" cy="517.957" r="2.78704" stroke-width="0.5" stroke="black" fill="black"/>
   </g>
   <g id="cell35">
  <circle cx="557.145" cy="557.325" r="8.41271" stroke-width="0.5" stroke="black" fill="green"/>
  <circle cx="557.145" cy="557.325" r="5.05167" stroke-width="0.5" stroke="black" fill="green"/>
   </g>
   <g id="cell36">
  <circle cx="388.85" cy="582.65" r="8.37436" stroke-width="0.5" stroke="black" fill="green"/>
  <circle cx="388.85" cy="582.65" r="5.03846" stroke-width="0.5" stroke="black" fill="green"/>
   </g>
   <g id="cell37">
  <circle cx="642.383" cy="456.142" r="8.41267" stroke-width="0.5" stroke="black" fill="green"/>
  <circle cx="642.383" cy="456.142" r="5.05166" stroke-width="0.5" stroke="black" fill="green"/>
   </g>
   <g id="cell38">
  <circle cx="524.114" cy="585.688" r="8.37428" stroke-width="0.5" stroke="black" fill="green"/>
  <circle cx="524.114" cy="585.688" r="5.03753" stroke-width="0.5" stroke="black" fill="green"/>
   </g>
   <g id="cell39">
  <circle cx="612.086" cy="491.017" r="8.28262" stroke-width="0.5" stroke="black" fill="green"/>
  <circle cx="612.086" cy="491.017" r="4.9961" stroke-width="0.5" stroke="black" fill="green"/>
   </g>
   <g id="cell40">
  <circle cx="486.172" cy="567.324" r="8.38891" stroke-width="0.5" stroke="black" fill="green"/>
  <circle cx="486.172" cy="567.324" r="5.0434" stroke-width="0.5" stroke="black" fill="green"/>
   </g>
   <g id="cell41">
  <circle cx="366.56" cy="482.122" r="8.41271" stroke-width="0.5" stroke="black" fill="green"/>
  <circle cx="366.56" cy="482.122" r="5.05167" stroke-width="0.5" stroke="black" fill="green"/>
   </g>
   <g id="cell42">
  <circle cx="437.449" cy="490.27" r="8.41271" stroke-width="0.5" stroke="black" fill="green"/>
  <circle cx="437.449" cy="490.27" r="5.05167" stroke-width="0.5" stroke="black" fill="green"/>
   </g>
   <g id="cell43">
  <circle cx="564.901" cy="438.379" r="8.41271" stroke-width="0.5" stroke="black" fill="green"/>
  <circle cx="564.901" cy="438.379" r="5.05167" stroke-width="0.5" stroke="black" fill="green"/>
   </g>
   <g id="cell164">
  <circle cx="399.254" cy="570.635" r="8.35941" stroke-width="0.5" stroke="black" fill="green"/>
  <circle cx="399.254" cy="570.635" r="5.03206" stroke-width="0.5" stroke="black" fill="green"/>
   </g>
   <g id="cell145">
  <circle cx="410.412" cy="420.746" r="7.95324" stroke-width="0.5" stroke="black" fill="magenta"/>
  <circle cx="410.412" cy="420.746" r="4.833" stroke-width="0.5" stroke="black" fill="magenta"/>
   </g>
   <g id="cell46">
  <circle cx="515.708" cy="619.715" r="8.41239" stroke-width="0.5" stroke="black" fill="green"/>
  <circle cx="515.708" cy="619.715" r="5.0516" stroke-width="0.5" stroke="black" fill="green"/>
   </g>
   <g id="cell47">
  <circle cx="484.468" cy="491.123" r="8.41251" stroke-width="0.5" stroke="black" fill="green"/>
  <circle cx="484.468" cy="491.123" r="5.05163" stroke-width="0.5" stroke="black" fill="green"/>
   </g>
   <g id="cell48">
  <circle cx="578.147" cy="604.262" r="8.41199" stroke-width="0.5" stroke="black" fill="green"/>
  <circle cx="578.147" cy="604.262" r="5.0515" stroke-width="0.5" stroke="black" fill="green"/>
   </g>
   <g id="cell49">
  <circle cx="437.186" cy="391.077" r="8.34884" stroke-width="0.5" stroke="black" fill="green"/>
  <circle cx="437.186" cy="391.077" r="5.02667" stroke-width="0.5" stroke="black" fill="green"/>
   </g>
   <g id="cell50">
  <circle cx="500.972" cy="512.888" r="8.4117" stroke-width="0.5" stroke="black" fill="cyan"/>
  <circle cx="500.972" cy="512.888" r="5.05142" stroke-width="0.5" stroke="black" fill="cyan"/>
   </g>
   <g id="cell51">
  <circle cx="400.868" cy="592.362" r="7.89373" stroke-width="0.5" stroke="black" fill="cyan"/>
  <circle cx="400.868" cy="592.362" r="4.78957" stroke-width="0.5" stroke="black" fill="cyan"/>
   </g>
   <g id="cell52">
  <circle cx="518.361" cy="415.479" r="3.9178" stroke-width="0.5" stroke="black" fill="cyan"/>
  <circle cx="518.361" cy="415.479" r="2.85647" stroke-width="0.5" stroke="black" fill="black"/>
   </g>
   <g id="cell53">
  <circle cx="573.411" cy="425.035" r="8.41244" stroke-width="0.5" stroke="black" fill="cyan"/>
  <circle cx="573.411" cy="425.035" r="5.05161" stroke-width="0.5" stroke="black" fill="cyan"/>
   </g>
   <g id="cell54">
  <circle cx="481.196" cy="417.003" r="8.41255" stroke-width="0.5" stroke="black" fill="cyan"/>
  <circle cx="481.196" cy="417.003" r="5.05164" stroke-width="0.5" stroke="black" fill="cyan"/>
   </g>
   <g id="cell55">
  <circle cx="521.399" cy="459.311" r="8.41245" stroke-width="0.5" stroke="black" fill="cyan"/>
  <circle cx="521.399" cy="459.311" r="5.05161" stroke-width="0.5" stroke="black" fill="cyan"/>
   </g>
   <g id="cell56">
  <circle cx="622.653" cy="522.139" r="8.41271" stroke-width="0.5" stroke="black" fill="cyan"/>
  <circle cx="622.653" cy="522.139" r="5.05167" stroke-width="0.5" stroke="black" fill="cyan"/>
   </g>
   <g id="cell105">
  <circle cx="503.668" cy="609.026" r="8.40449" stroke-width="0.5" stroke="black" fill="green"/>
  <circle cx="503.668" cy="609.026" r="5.0492" stroke-width="0.5" stroke="black" fill="green"/>
   </g>
   <g id="cell58">
  <circle cx="569.963" cy="474.151" r="8.39021" stroke-width="0.5" stroke="black" fill="cyan"/>
  <circle cx="569.963" cy="474.151" r="5.0439" stroke-width="0.5" stroke="black" fill="cyan"/>
   </g>
   <g id="cell59">
  <circle cx="385.732" cy="440.058" r="8.41271" stroke-width="0.5" stroke="black" fill="cyan"/>
  <circle cx="385.732" cy="440.058" r="5.05167" stroke-width="0.5" stroke="black" fill="cyan"/>
   </g>
   <g id="cell60">
  <circle cx="597.753" cy="464.653" r="8.32032" stroke-width="0.5" stroke="black" fill="cyan"/>
  <circle cx="597.753" cy="464.653" r="5.01383" stroke-width="0.5" stroke="black" fill="cyan"/>
   </g>
   <g id="cell186">
  <circle cx="354.924" cy="562.196" r="2.4864" stroke-width="0.5" stroke="black" fill="cyan"/>
  <circle cx="354.924" cy="562.196" r="2.19291" stroke-width="0.5" stroke="black" fill="black"/>
   </g>
   <g id="cell62">
  <circle cx="514.442" cy="433.474" r="8.3084" stroke-width="0.5" stroke="black" fill="cyan"/>
  <circle cx="514.442" cy="433.474" r="5.00847" stroke-width="0.5" stroke="black" fill="cyan"/>
   </g>
   <g id="cell63">
  <circle cx="585.331" cy="538.618" r="8.40929" stroke-width="0.5" stroke="black" fill="cyan"/>
  <circle cx="585.331" cy="538.618" r="5.05072" stroke-width="0.5" stroke="black" fill="cyan"/>
   </g>
   <g id="cell64">
  <circle cx="509.391" cy="638.118" r="8.41271" stroke-width="0.5" stroke="black" fill="cyan"/>
  <circle cx="509.391" cy="638.118" r="5.05167" stroke-width="0.5" stroke="black" fill="cyan"/>
   </g>
   <g id="cell65">
  <circle cx="545.281" cy="464.334" r="8.4126" stroke-width="0.5" stroke="black" fill="cyan"/>
  <circle cx="545.281" cy="464.334" r="5.05165" stroke-width="0.5" stroke="black" fill="cyan"/>
   </g>
   <g id="cell66">
  <circle cx="534.283" cy="536.043" r="8.41254" stroke-width="0.5" stroke="black" fill="cyan"/>
  <circle cx="534.283" cy="536.043" r="5.05163" stroke-width="0.5" stroke="black" fill="cyan"/>
   </g>
   <g id="cell67">
  <circle cx="354.659" cy="492.853" r="8.41271" stroke-width="0.5" stroke="black" fill="cyan"/>
  <circle cx="354.659" cy="492.853" r="5.05167" stroke-width="0.5" stroke="black" fill="cyan"/>
   </g>
   <g id="cell212">
  <circle cx="568.23" cy="498.516" r="7.30613" stroke-width="0.5" stroke="black" fill="magenta"/>
  <circle cx="568.23" cy="498.516" r="4.46001" stroke-width="0.5" stroke="black" fill="magenta"/>
   </g>
   <g id="cell69">
  <circle cx="443.659" cy="460.548" r="8.41271" stroke-width="0.5" stroke="black" fill="cyan"/>
  <circle cx="443.659" cy="460.548" r="5.05167" stroke-width="0.5" stroke="black" fill="cyan"/>
   </g>
   <g id="cell70">
  <circle cx="585.941" cy="479.963" r="8.41271" stroke-width="0.5" stroke="black" fill="cyan"/>
  <circle cx="585.941" cy="479.963" r="5.05167" stroke-width="0.5" stroke="black" fill="cyan"/>
   </g>
   <g id="cell71">
  <circle cx="381.687" cy="533.75" r="1.26703" stroke-width="0.5" stroke="black" fill="cyan"/>
  <circle cx="381.687" cy="533.75" r="1.25927" stroke-width="0.5" stroke="black" fill="black"/>
   </g>
   <g id="cell72">
  <circle cx="535.781" cy="502.108" r="8.34692" stroke-width="0.5" stroke="black" fill="cyan"/>
  <circle cx="535.781" cy="502.108" r="5.02584" stroke-width="0.5" stroke="black" fill="cyan"/>
   </g>
   <g id="cell73">
  <circle cx="364.685" cy="549.858" r="7.81632" stroke-width="0.5" stroke="black" fill="cyan"/>
  <circle cx="364.685" cy="549.858" r="4.75457" stroke-width="0.5" stroke="black" fill="cyan"/>
   </g>
   <g id="cell162">
  <circle cx="374.305" cy="538.694" r="8.37431" stroke-width="0.5" stroke="black" fill="magenta"/>
  <circle cx="374.305" cy="538.694" r="5.03754" stroke-width="0.5" stroke="black" fill="magenta"/>
   </g>
   <g id="cell75">
  <circle cx="528.461" cy="428.084" r="8.41268" stroke-width="0.5" stroke="black" fill="cyan"/>
  <circle cx="528.461" cy="428.084" r="5.05166" stroke-width="0.5" stroke="black" fill="cyan"/>
   </g>
   <g id="cell76">
  <circle cx="435.588" cy="375.455" r="8.4122" stroke-width="0.5" stroke="black" fill="green"/>
  <circle cx="435.588" cy="375.455" r="5.05155" stroke-width="0.5" stroke="black" fill="green"/>
   </g>
   <g id="cell77">
  <circle cx="469.37" cy="447.547" r="8.41231" stroke-width="0.5" stroke="black" fill="magenta"/>
  <circle cx="469.37" cy="447.547" r="5.05158" stroke-width="0.5" stroke="black" fill="magenta"/>
   </g>
   <g id="cell78">
  <circle cx="626.421" cy="455.229" r="8.41258" stroke-width="0.5" stroke="black" fill="green"/>
  <circle cx="626.421" cy="455.229" r="5.05164" stroke-width="0.5" stroke="black" fill="green"/>
   </g>
   <g id="cell79">
  <circle cx="518.114" cy="474.721" r="8.41266" stroke-width="0.5" stroke="black" fill="cyan"/>
  <circle cx="518.114" cy="474.721" r="5.05166" stroke-width="0.5" stroke="black" fill="cyan"/>
   </g>
   <g id="cell80">
  <circle cx="542.035" cy="632.161" r="8.08529" stroke-width="0.5" stroke="black" fill="green"/>
  <circle cx="542.035" cy="632.161" r="4.89538" stroke-width="0.5" stroke="black" fill="green"/>
   </g>
   <g id="cell81">
  <circle cx="553.211" cy="589.242" r="8.41264" stroke-width="0.5" stroke="black" fill="green"/>
  <circle cx="553.211" cy="589.242" r="5.05166" stroke-width="0.5" stroke="black" fill="green"/>
   </g>
   <g id="cell82">
  <circle cx="528.907" cy="560.468" r="8.40375" stroke-width="0.5" stroke="black" fill="magenta"/>
  <circle cx="528.907" cy="560.468" r="5.04889" stroke-width="0.5" stroke="black" fill="magenta"/>
   </g>
   <g id="cell211">
  <circle cx="449.983" cy="371.53" r="7.44004" stroke-width="0.5" stroke="black" fill="green"/>
  <circle cx="449.983" cy="371.53" r="4.52303" stroke-width="0.5" stroke="black" fill="green"/>
   </g>
   <g id="cell84">
  <circle cx="512.345" cy="489.409" r="8.2491" stroke-width="0.5" stroke="black" fill="cyan"/>
  <circle cx="512.345" cy="489.409" r="4.9798" stroke-width="0.5" stroke="black" fill="cyan"/>
   </g>
   <g id="cell85">
  <circle cx="345.284" cy="541.883" r="8.41246" stroke-width="0.5" stroke="black" fill="cyan"/>
  <circle cx="345.284" cy="541.883" r="5.05162" stroke-width="0.5" stroke="black" fill="cyan"/>
   </g>
   <g id="cell86">
  <circle cx="494.898" cy="538.963" r="8.41098" stroke-width="0.5" stroke="black" fill="magenta"/>
  <circle cx="494.898" cy="538.963" r="5.05122" stroke-width="0.5" stroke="black" fill="magenta"/>
   </g>
   <g id="cell87">
  <circle cx="572.909" cy="559.193" r="8.41236" stroke-width="0.5" stroke="black" fill="cyan"/>
  <circle cx="572.909" cy="559.193" r="5.05159" stroke-width="0.5" stroke="black" fill="cyan"/>
   </g>
   <g id="cell88">
  <circle cx="445.622" cy="534.16" r="6.9954" stroke-width="0.5" stroke="black" fill="magenta"/>
  <circle cx="445.622" cy="534.16" r="4.24649" stroke-width="0.5" stroke="black" fill="magenta"/>
   </g>
   <g id="cell89">
  <circle cx="554.093" cy="449.636" r="8.40133" stroke-width="0.5" stroke="black" fill="cyan"/>
  <circle cx="554.093" cy="449.636" r="5.04819" stroke-width="0.5" stroke="black" fill="cyan"/>
   </g>
   <g id="cell90">
  <circle cx="637.236" cy="471.372" r="8.41023" stroke-width="0.5" stroke="black" fill="green"/>
  <circle cx="637.236" cy="471.372" r="5.05101" stroke-width="0.5" stroke="black" fill="green"/>
   </g>
   <g id="cell91">
  <circle cx="543.456" cy="564.823" r="8.41249" stroke-width="0.5" stroke="black" fill="magenta"/>
  <circle cx="543.456" cy="564.823" r="5.05163" stroke-width="0.5" stroke="black" fill="magenta"/>
   </g>
   <g id="cell92">
  <circle cx="486.097" cy="551.502" r="8.41257" stroke-width="0.5" stroke="black" fill="green"/>
  <circle cx="486.097" cy="551.502" r="5.05164" stroke-width="0.5" stroke="black" fill="green"/>
   </g>
   <g id="cell93">
  <circle cx="539.963" cy="550.157" r="8.41249" stroke-width="0.5" stroke="black" fill="magenta"/>
  <circle cx="539.963" cy="550.157" r="5.05163" stroke-width="0.5" stroke="black" fill="magenta"/>
   </g>
   <g id="cell94">
  <circle cx="543.691" cy="488.171" r="8.41255" stroke-width="0.5" stroke="black" fill="cyan"/>
  <circle cx="543.691" cy="488.171" r="5.05164" stroke-width="0.5" stroke="black" fill="cyan"/>
   </g>
   <g id="cell95">
  <circle cx="466.507" cy="421.014" r="8.09535" stroke-width="0.5" stroke="black" fill="cyan"/>
  <circle cx="466.507" cy="421.014" r="4.90056" stroke-width="0.5" stroke="black" fill="cyan"/>
   </g>
   <g id="cell96">
  <circle cx="553.813" cy="542.113" r="8.40805" stroke-width="0.5" stroke="black" fill="cyan"/>
  <circle cx="553.813" cy="542.113" r="5.05033" stroke-width="0.5" stroke="black" fill="cyan"/>
   </g>
   <g id="cell97">
  <circle cx="420.512" cy="464.084" r="8.41238" stroke-width="0.5" stroke="black" fill="green"/>
  <circle cx="420.512" cy="464.084" r="5.0516" stroke-width="0.5" stroke="black" fill="green"/>
   </g>
   <g id="cell98">
  <circle cx="489.874" cy="524.168" r="8.41063" stroke-width="0.5" stroke="black" fill="green"/>
  <circle cx="489.874" cy="524.168" r="5.05112" stroke-width="0.5" stroke="black" fill="green"/>
   </g>
   <g id="cell99">
  <circle cx="367.971" cy="524.596" r="8.41246" stroke-width="0.5" stroke="black" fill="cyan"/>
  <circle cx="367.971" cy="524.596" r="5.05162" stroke-width="0.5" stroke="black" fill="cyan"/>
   </g>
   <g id="cell100">
  <circle cx="446.154" cy="403.992" r="8.41246" stroke-width="0.5" stroke="black" fill="green"/>
  <circle cx="446.154" cy="403.992" r="5.05162" stroke-width="0.5" stroke="black" fill="green"/>
   </g>
   <g id="cell101">
  <circle cx="527.679" cy="488.833" r="8.21005" stroke-width="0.5" stroke="black" fill="cyan"/>
  <circle cx="527.679" cy="488.833" r="4.96083" stroke-width="0.5" stroke="black" fill="cyan"/>
   </g>
   <g id="cell102">
  <circle cx="441.966" cy="475.705" r="7.75893" stroke-width="0.5" stroke="black" fill="green"/>
  <circle cx="441.966" cy="475.705" r="4.71243" stroke-width="0.5" stroke="black" fill="green"/>
   </g>
   <g id="cell103">
  <circle cx="592.709" cy="449.688" r="8.41094" stroke-width="0.5" stroke="black" fill="cyan"/>
  <circle cx="592.709" cy="449.688" r="5.05122" stroke-width="0.5" stroke="black" fill="cyan"/>
   </g>
   <g id="cell104">
  <circle cx="607.655" cy="554.116" r="8.26048" stroke-width="0.5" stroke="black" fill="cyan"/>
  <circle cx="607.655" cy="554.116" r="4.98642" stroke-width="0.5" stroke="black" fill="cyan"/>
   </g>
   <g id="cell106">
  <circle cx="454.322" cy="449.265" r="8.41231" stroke-width="0.5" stroke="black" fill="magenta"/>
  <circle cx="454.322" cy="449.265" r="5.05158" stroke-width="0.5" stroke="black" fill="magenta"/>
   </g>
   <g id="cell107">
  <circle cx="467.615" cy="390.893" r="8.36093" stroke-width="0.5" stroke="black" fill="green"/>
  <circle cx="467.615" cy="390.893" r="5.03291" stroke-width="0.5" stroke="black" fill="green"/>
   </g>
   <g id="cell108">
  <circle cx="562.863" cy="609.842" r="8.41225" stroke-width="0.5" stroke="black" fill="green"/>
  <circle cx="562.863" cy="609.842" r="5.05156" stroke-width="0.5" stroke="black" fill="green"/>
   </g>
   <g id="cell109">
  <circle cx="576.156" cy="588.439" r="8.41199" stroke-width="0.5" stroke="black" fill="green"/>
  <circle cx="576.156" cy="588.439" r="5.0515" stroke-width="0.5" stroke="black" fill="green"/>
   </g>
   <g id="cell110">
  <circle cx="369.482" cy="508.626" r="8.41209" stroke-width="0.5" stroke="black" fill="cyan"/>
  <circle cx="369.482" cy="508.626" r="5.05152" stroke-width="0.5" stroke="black" fill="cyan"/>
   </g>
   <g id="cell111">
  <circle cx="456.562" cy="556.466" r="8.40752" stroke-width="0.5" stroke="black" fill="magenta"/>
  <circle cx="456.562" cy="556.466" r="5.05018" stroke-width="0.5" stroke="black" fill="magenta"/>
   </g>
   <g id="cell112">
  <circle cx="491.56" cy="468.98" r="8.39987" stroke-width="0.5" stroke="black" fill="magenta"/>
  <circle cx="491.56" cy="468.98" r="5.04756" stroke-width="0.5" stroke="black" fill="magenta"/>
   </g>
   <g id="cell113">
  <circle cx="546.804" cy="369.189" r="7.11112" stroke-width="0.5" stroke="black" fill="green"/>
  <circle cx="546.804" cy="369.189" r="4.3172" stroke-width="0.5" stroke="black" fill="green"/>
   </g>
   <g id="cell114">
  <circle cx="525.038" cy="443.953" r="8.41151" stroke-width="0.5" stroke="black" fill="cyan"/>
  <circle cx="525.038" cy="443.953" r="5.05138" stroke-width="0.5" stroke="black" fill="cyan"/>
   </g>
   <g id="cell115">
  <circle cx="538.641" cy="450.571" r="8.40845" stroke-width="0.5" stroke="black" fill="cyan"/>
  <circle cx="538.641" cy="450.571" r="5.05049" stroke-width="0.5" stroke="black" fill="cyan"/>
   </g>
   <g id="cell116">
  <circle cx="519.738" cy="531.866" r="8.28933" stroke-width="0.5" stroke="black" fill="cyan"/>
  <circle cx="519.738" cy="531.866" r="4.99943" stroke-width="0.5" stroke="black" fill="cyan"/>
   </g>
   <g id="cell117">
  <circle cx="500.583" cy="624.75" r="8.41138" stroke-width="0.5" stroke="black" fill="green"/>
  <circle cx="500.583" cy="624.75" r="5.05134" stroke-width="0.5" stroke="black" fill="green"/>
   </g>
   <g id="cell118">
  <circle cx="509.558" cy="448.8" r="8.41119" stroke-width="0.5" stroke="black" fill="cyan"/>
  <circle cx="509.558" cy="448.8" r="5.05128" stroke-width="0.5" stroke="black" fill="cyan"/>
   </g>
   <g id="cell119">
  <circle cx="548.111" cy="603.96" r="8.30839" stroke-width="0.5" stroke="black" fill="green"/>
  <circle cx="548.111" cy="603.96" r="5.00846" stroke-width="0.5" stroke="black" fill="green"/>
   </g>
   <g id="cell120">
  <circle cx="580.859" cy="439.079" r="8.41094" stroke-width="0.5" stroke="black" fill="cyan"/>
  <circle cx="580.859" cy="439.079" r="5.05122" stroke-width="0.5" stroke="black" fill="cyan"/>
   </g>
   <g id="cell121">
  <circle cx="453.465" cy="357.975" r="7.44004" stroke-width="0.5" stroke="black" fill="green"/>
  <circle cx="453.465" cy="357.975" r="4.52303" stroke-width="0.5" stroke="black" fill="green"/>
   </g>
   <g id="cell122">
  <circle cx="505.016" cy="528.054" r="8.41098" stroke-width="0.5" stroke="black" fill="magenta"/>
  <circle cx="505.016" cy="528.054" r="5.05122" stroke-width="0.5" stroke="black" fill="magenta"/>
   </g>
   <g id="cell123">
  <circle cx="486.291" cy="507.098" r="8.41063" stroke-width="0.5" stroke="black" fill="green"/>
  <circle cx="486.291" cy="507.098" r="5.05112" stroke-width="0.5" stroke="black" fill="green"/>
   </g>
   <g id="cell124">
  <circle cx="488.442" cy="430.277" r="8.14487" stroke-width="0.5" stroke="black" fill="magenta"/>
  <circle cx="488.442" cy="430.277" r="4.92697" stroke-width="0.5" stroke="black" fill="magenta"/>
   </g>
   <g id="cell125">
  <circle cx="625.306" cy="483.744" r="7.61318" stroke-width="0.5" stroke="black" fill="green"/>
  <circle cx="625.306" cy="483.744" r="4.62717" stroke-width="0.5" stroke="black" fill="green"/>
   </g>
   <g id="cell126">
  <circle cx="628.988" cy="566.353" r="8.4102" stroke-width="0.5" stroke="black" fill="green"/>
  <circle cx="628.988" cy="566.353" r="5.05099" stroke-width="0.5" stroke="black" fill="green"/>
   </g>
   <g id="cell127">
  <circle cx="431.932" cy="360.96" r="7.49222" stroke-width="0.5" stroke="black" fill="green"/>
  <circle cx="431.932" cy="360.96" r="4.55479" stroke-width="0.5" stroke="black" fill="green"/>
   </g>
   <g id="cell128">
  <circle cx="372.113" cy="467.547" r="8.40961" stroke-width="0.5" stroke="black" fill="magenta"/>
  <circle cx="372.113" cy="467.547" r="5.05081" stroke-width="0.5" stroke="black" fill="magenta"/>
   </g>
   <g id="cell129">
  <circle cx="569.922" cy="543.322" r="8.40929" stroke-width="0.5" stroke="black" fill="cyan"/>
  <circle cx="569.922" cy="543.322" r="5.05072" stroke-width="0.5" stroke="black" fill="cyan"/>
   </g>
   <g id="cell130">
  <circle cx="546.336" cy="436.555" r="8.40845" stroke-width="0.5" stroke="black" fill="cyan"/>
  <circle cx="546.336" cy="436.555" r="5.05049" stroke-width="0.5" stroke="black" fill="cyan"/>
   </g>
   <g id="cell131">
  <circle cx="544.638" cy="514.327" r="7.80001" stroke-width="0.5" stroke="black" fill="cyan"/>
  <circle cx="544.638" cy="514.327" r="4.75581" stroke-width="0.5" stroke="black" fill="cyan"/>
   </g>
   <g id="cell132">
  <circle cx="443.931" cy="548.022" r="8.40752" stroke-width="0.5" stroke="black" fill="magenta"/>
  <circle cx="443.931" cy="548.022" r="5.05018" stroke-width="0.5" stroke="black" fill="magenta"/>
   </g>
   <g id="cell133">
  <circle cx="582.141" cy="464.461" r="8.40782" stroke-width="0.5" stroke="black" fill="cyan"/>
  <circle cx="582.141" cy="464.461" r="5.05025" stroke-width="0.5" stroke="black" fill="cyan"/>
   </g>
   <g id="cell201">
  <circle cx="558.522" cy="521.489" r="7.80001" stroke-width="0.5" stroke="black" fill="cyan"/>
  <circle cx="558.522" cy="521.489" r="4.75581" stroke-width="0.5" stroke="black" fill="cyan"/>
   </g>
   <g id="cell135">
  <circle cx="508.758" cy="582.814" r="8.40715" stroke-width="0.5" stroke="black" fill="magenta"/>
  <circle cx="508.758" cy="582.814" r="5.05003" stroke-width="0.5" stroke="black" fill="magenta"/>
   </g>
   <g id="cell136">
  <circle cx="470.468" cy="549.53" r="8.40625" stroke-width="0.5" stroke="black" fill="green"/>
  <circle cx="470.468" cy="549.53" r="5.04974" stroke-width="0.5" stroke="black" fill="green"/>
   </g>
   <g id="cell137">
  <circle cx="488.515" cy="614.287" r="8.40449" stroke-width="0.5" stroke="black" fill="green"/>
  <circle cx="488.515" cy="614.287" r="5.0492" stroke-width="0.5" stroke="black" fill="green"/>
   </g>
   <g id="cell138">
  <circle cx="501.838" cy="402.012" r="8.40516" stroke-width="0.5" stroke="black" fill="green"/>
  <circle cx="501.838" cy="402.012" r="5.04937" stroke-width="0.5" stroke="black" fill="green"/>
   </g>
   <g id="cell139">
  <circle cx="415.48" cy="406.853" r="8.40403" stroke-width="0.5" stroke="black" fill="magenta"/>
  <circle cx="415.48" cy="406.853" r="5.04898" stroke-width="0.5" stroke="black" fill="magenta"/>
   </g>
   <g id="cell140">
  <circle cx="518.44" cy="571.381" r="8.39607" stroke-width="0.5" stroke="black" fill="magenta"/>
  <circle cx="518.44" cy="571.381" r="5.04637" stroke-width="0.5" stroke="black" fill="magenta"/>
   </g>
   <g id="cell141">
  <circle cx="572.14" cy="452.3" r="8.40133" stroke-width="0.5" stroke="black" fill="cyan"/>
  <circle cx="572.14" cy="452.3" r="5.04819" stroke-width="0.5" stroke="black" fill="cyan"/>
   </g>
   <g id="cell142">
  <circle cx="542.181" cy="421.91" r="8.28589" stroke-width="0.5" stroke="black" fill="green"/>
  <circle cx="542.181" cy="421.91" r="4.9999" stroke-width="0.5" stroke="black" fill="green"/>
   </g>
   <g id="cell143">
  <circle cx="430.573" cy="405.087" r="8.39865" stroke-width="0.5" stroke="black" fill="magenta"/>
  <circle cx="430.573" cy="405.087" r="5.04728" stroke-width="0.5" stroke="black" fill="magenta"/>
   </g>
   <g id="cell144">
  <circle cx="547.677" cy="407.98" r="8.37762" stroke-width="0.5" stroke="black" fill="green"/>
  <circle cx="547.677" cy="407.98" r="5.03957" stroke-width="0.5" stroke="black" fill="green"/>
   </g>
   <g id="cell185">
  <circle cx="598.385" cy="568.037" r="7.47488" stroke-width="0.5" stroke="black" fill="cyan"/>
  <circle cx="598.385" cy="568.037" r="4.55903" stroke-width="0.5" stroke="black" fill="cyan"/>
   </g>
   <g id="cell147">
  <circle cx="513.856" cy="557.294" r="8.39607" stroke-width="0.5" stroke="black" fill="magenta"/>
  <circle cx="513.856" cy="557.294" r="5.04637" stroke-width="0.5" stroke="black" fill="magenta"/>
   </g>
   <g id="cell148">
  <circle cx="506.453" cy="463.992" r="8.20015" stroke-width="0.5" stroke="black" fill="magenta"/>
  <circle cx="506.453" cy="463.992" r="4.95648" stroke-width="0.5" stroke="black" fill="magenta"/>
   </g>
   <g id="cell149">
  <circle cx="574.077" cy="400.13" r="8.39664" stroke-width="0.5" stroke="black" fill="magenta"/>
  <circle cx="574.077" cy="400.13" r="5.04633" stroke-width="0.5" stroke="black" fill="magenta"/>
   </g>
   <g id="cell150">
  <circle cx="411.284" cy="581.059" r="8.35941" stroke-width="0.5" stroke="black" fill="green"/>
  <circle cx="411.284" cy="581.059" r="5.03206" stroke-width="0.5" stroke="black" fill="green"/>
   </g>
   <g id="cell151">
  <circle cx="419.93" cy="529.443" r="8.3926" stroke-width="0.5" stroke="black" fill="green"/>
  <circle cx="419.93" cy="529.443" r="5.04482" stroke-width="0.5" stroke="black" fill="green"/>
   </g>
   <g id="cell152">
  <circle cx="373.392" cy="579.32" r="8.38241" stroke-width="0.5" stroke="black" fill="green"/>
  <circle cx="373.392" cy="579.32" r="5.04133" stroke-width="0.5" stroke="black" fill="green"/>
   </g>
   <g id="cell153">
  <circle cx="560.701" cy="462.848" r="8.39021" stroke-width="0.5" stroke="black" fill="cyan"/>
  <circle cx="560.701" cy="462.848" r="5.0439" stroke-width="0.5" stroke="black" fill="cyan"/>
   </g>
   <g id="cell154">
  <circle cx="386.809" cy="598.604" r="8.37436" stroke-width="0.5" stroke="black" fill="green"/>
  <circle cx="386.809" cy="598.604" r="5.03846" stroke-width="0.5" stroke="black" fill="green"/>
   </g>
   <g id="cell155">
  <circle cx="488.157" cy="583.036" r="8.38891" stroke-width="0.5" stroke="black" fill="green"/>
  <circle cx="488.157" cy="583.036" r="5.0434" stroke-width="0.5" stroke="black" fill="green"/>
   </g>
   <g id="cell156">
  <circle cx="456.979" cy="526.265" r="8.38885" stroke-width="0.5" stroke="black" fill="magenta"/>
  <circle cx="456.979" cy="526.265" r="5.04338" stroke-width="0.5" stroke="black" fill="magenta"/>
   </g>
   <g id="cell157">
  <circle cx="443.304" cy="520.261" r="8.37483" stroke-width="0.5" stroke="black" fill="magenta"/>
  <circle cx="443.304" cy="520.261" r="5.03841" stroke-width="0.5" stroke="black" fill="magenta"/>
   </g>
   <g id="cell158">
  <circle cx="565.078" cy="411.672" r="8.37912" stroke-width="0.5" stroke="black" fill="green"/>
  <circle cx="565.078" cy="411.672" r="5.04016" stroke-width="0.5" stroke="black" fill="green"/>
   </g>
   <g id="cell159">
  <circle cx="530.507" cy="397.567" r="8.02328" stroke-width="0.5" stroke="black" fill="green"/>
  <circle cx="530.507" cy="397.567" r="4.87115" stroke-width="0.5" stroke="black" fill="green"/>
   </g>
   <g id="cell160">
  <circle cx="464.374" cy="375.41" r="8.38195" stroke-width="0.5" stroke="black" fill="green"/>
  <circle cx="464.374" cy="375.41" r="5.04078" stroke-width="0.5" stroke="black" fill="green"/>
   </g>
   <g id="cell165">
  <circle cx="607.861" cy="526.482" r="8.09455" stroke-width="0.5" stroke="black" fill="magenta"/>
  <circle cx="607.861" cy="526.482" r="4.90408" stroke-width="0.5" stroke="black" fill="magenta"/>
   </g>
   <g id="cell166">
  <circle cx="480.159" cy="458.808" r="8.35533" stroke-width="0.5" stroke="black" fill="magenta"/>
  <circle cx="480.159" cy="458.808" r="5.02957" stroke-width="0.5" stroke="black" fill="magenta"/>
   </g>
   <g id="cell167">
  <circle cx="421.411" cy="392.54" r="8.34884" stroke-width="0.5" stroke="black" fill="green"/>
  <circle cx="421.411" cy="392.54" r="5.02667" stroke-width="0.5" stroke="black" fill="green"/>
   </g>
   <g id="cell170">
  <circle cx="460.224" cy="503.321" r="8.33481" stroke-width="0.5" stroke="black" fill="green"/>
  <circle cx="460.224" cy="503.321" r="5.02043" stroke-width="0.5" stroke="black" fill="green"/>
   </g>
   <g id="cell171">
  <circle cx="601.414" cy="479.836" r="8.32032" stroke-width="0.5" stroke="black" fill="cyan"/>
  <circle cx="601.414" cy="479.836" r="5.01383" stroke-width="0.5" stroke="black" fill="cyan"/>
   </g>
   <g id="cell172">
  <circle cx="551.233" cy="501.435" r="8.24183" stroke-width="0.5" stroke="black" fill="magenta"/>
  <circle cx="551.233" cy="501.435" r="4.97986" stroke-width="0.5" stroke="black" fill="magenta"/>
   </g>
   <g id="cell173">
  <circle cx="530.973" cy="520.737" r="8.30679" stroke-width="0.5" stroke="black" fill="cyan"/>
  <circle cx="530.973" cy="520.737" r="5.00798" stroke-width="0.5" stroke="black" fill="cyan"/>
   </g>
   <g id="cell174">
  <circle cx="497.314" cy="441.311" r="6.94785" stroke-width="0.5" stroke="black" fill="cyan"/>
  <circle cx="497.314" cy="441.311" r="4.22472" stroke-width="0.5" stroke="black" fill="cyan"/>
   </g>
   <g id="cell175">
  <circle cx="524.652" cy="607.213" r="7.88927" stroke-width="0.5" stroke="black" fill="green"/>
  <circle cx="524.652" cy="607.213" r="4.80215" stroke-width="0.5" stroke="black" fill="green"/>
   </g>
   <g id="cell176">
  <circle cx="557.343" cy="424.866" r="8.28589" stroke-width="0.5" stroke="black" fill="green"/>
  <circle cx="557.343" cy="424.866" r="4.9999" stroke-width="0.5" stroke="black" fill="green"/>
   </g>
   <g id="cell177">
  <circle cx="369.01" cy="564.309" r="8.20613" stroke-width="0.5" stroke="black" fill="cyan"/>
  <circle cx="369.01" cy="564.309" r="4.96275" stroke-width="0.5" stroke="black" fill="cyan"/>
   </g>
   <g id="cell178">
  <circle cx="562.595" cy="509.235" r="7.30613" stroke-width="0.5" stroke="black" fill="magenta"/>
  <circle cx="562.595" cy="509.235" r="4.46001" stroke-width="0.5" stroke="black" fill="magenta"/>
   </g>
   <g id="cell179">
  <circle cx="515.84" cy="517.141" r="8.28933" stroke-width="0.5" stroke="black" fill="cyan"/>
  <circle cx="515.84" cy="517.141" r="4.99943" stroke-width="0.5" stroke="black" fill="cyan"/>
   </g>
   <g id="cell180">
  <circle cx="620.014" cy="504.485" r="8.28262" stroke-width="0.5" stroke="black" fill="green"/>
  <circle cx="620.014" cy="504.485" r="4.9961" stroke-width="0.5" stroke="black" fill="green"/>
   </g>
   <g id="cell181">
  <circle cx="563.874" cy="529.935" r="3.04404" stroke-width="0.5" stroke="black" fill="cyan"/>
  <circle cx="563.874" cy="529.935" r="2.47269" stroke-width="0.5" stroke="black" fill="black"/>
   </g>
   <g id="cell182">
  <circle cx="533.322" cy="382.49" r="8.26077" stroke-width="0.5" stroke="black" fill="green"/>
  <circle cx="533.322" cy="382.49" r="4.98801" stroke-width="0.5" stroke="black" fill="green"/>
   </g>
   <g id="cell183">
  <circle cx="579.356" cy="518.802" r="6.62539" stroke-width="0.5" stroke="black" fill="magenta"/>
  <circle cx="579.356" cy="518.802" r="4.00412" stroke-width="0.5" stroke="black" fill="magenta"/>
   </g>
   <g id="cell184">
  <circle cx="431.909" cy="430.532" r="8.04998" stroke-width="0.5" stroke="black" fill="magenta"/>
  <circle cx="431.909" cy="430.532" r="4.88473" stroke-width="0.5" stroke="black" fill="magenta"/>
   </g>
   <g id="cell187">
  <circle cx="498.926" cy="497.238" r="8.2491" stroke-width="0.5" stroke="black" fill="cyan"/>
  <circle cx="498.926" cy="497.238" r="4.9798" stroke-width="0.5" stroke="black" fill="cyan"/>
   </g>
   <g id="cell188">
  <circle cx="534.297" cy="618.86" r="8.16405" stroke-width="0.5" stroke="black" fill="green"/>
  <circle cx="534.297" cy="618.86" r="4.94189" stroke-width="0.5" stroke="black" fill="green"/>
   </g>
   <g id="cell189">
  <circle cx="534.461" cy="475.297" r="8.21005" stroke-width="0.5" stroke="black" fill="cyan"/>
  <circle cx="534.461" cy="475.297" r="4.96083" stroke-width="0.5" stroke="black" fill="cyan"/>
   </g>
   <g id="cell190">
  <circle cx="546.593" cy="528.7" r="8.11501" stroke-width="0.5" stroke="black" fill="cyan"/>
  <circle cx="546.593" cy="528.7" r="4.92005" stroke-width="0.5" stroke="black" fill="cyan"/>
   </g>
   <g id="cell191">
  <circle cx="502.965" cy="478.121" r="8.20015" stroke-width="0.5" stroke="black" fill="magenta"/>
  <circle cx="502.965" cy="478.121" r="4.95648" stroke-width="0.5" stroke="black" fill="magenta"/>
   </g>
   <g id="cell192">
  <circle cx="474.45" cy="433.335" r="8.14487" stroke-width="0.5" stroke="black" fill="magenta"/>
  <circle cx="474.45" cy="433.335" r="4.92697" stroke-width="0.5" stroke="black" fill="magenta"/>
   </g>
   <g id="cell193">
  <circle cx="438.571" cy="417.565" r="8.04998" stroke-width="0.5" stroke="black" fill="magenta"/>
  <circle cx="438.571" cy="417.565" r="4.88473" stroke-width="0.5" stroke="black" fill="magenta"/>
   </g>
   <g id="cell194">
  <circle cx="601.602" cy="513.365" r="8.09455" stroke-width="0.5" stroke="black" fill="magenta"/>
  <circle cx="601.602" cy="513.365" r="4.90408" stroke-width="0.5" stroke="black" fill="magenta"/>
   </g>
   <g id="cell195">
  <circle cx="544.508" cy="393.491" r="8.02328" stroke-width="0.5" stroke="black" fill="green"/>
  <circle cx="544.508" cy="393.491" r="4.87115" stroke-width="0.5" stroke="black" fill="green"/>
   </g>
   <g id="cell196">
  <circle cx="459.889" cy="435.176" r="8.09535" stroke-width="0.5" stroke="black" fill="cyan"/>
  <circle cx="459.889" cy="435.176" r="4.90056" stroke-width="0.5" stroke="black" fill="cyan"/>
   </g>
   <g id="cell197">
  <circle cx="549.921" cy="619.108" r="8.08529" stroke-width="0.5" stroke="black" fill="green"/>
  <circle cx="549.921" cy="619.108" r="4.89538" stroke-width="0.5" stroke="black" fill="green"/>
   </g>
   <g id="cell198">
  <circle cx="424.394" cy="418.402" r="7.95324" stroke-width="0.5" stroke="black" fill="magenta"/>
  <circle cx="424.394" cy="418.402" r="4.833" stroke-width="0.5" stroke="black" fill="magenta"/>
   </g>
   <g id="cell199">
  <circle cx="534.912" cy="596.47" r="7.88927" stroke-width="0.5" stroke="black" fill="green"/>
  <circle cx="534.912" cy="596.47" r="4.80215" stroke-width="0.5" stroke="black" fill="green"/>
   </g>
   <g id="cell200">
  <circle cx="446.131" cy="430.029" r="7.96668" stroke-width="0.5" stroke="black" fill="magenta"/>
  <circle cx="446.131" cy="430.029" r="4.83265" stroke-width="0.5" stroke="black" fill="magenta"/>
   </g>
   <g id="cell202">
  <circle cx="402.665" cy="607.194" r="7.89373" stroke-width="0.5" stroke="black" fill="cyan"/>
  <circle cx="402.665" cy="607.194" r="4.78957" stroke-width="0.5" stroke="black" fill="cyan"/>
   </g>
   <g id="cell203">
  <circle cx="360.664" cy="537.115" r="5.15559" stroke-width="0.5" stroke="black" fill="cyan"/>
  <circle cx="360.664" cy="537.115" r="3.37515" stroke-width="0.5" stroke="black" fill="black"/>
   </g>
   <g id="cell204">
  <circle cx="573.572" cy="487.371" r="7.82142" stroke-width="0.5" stroke="black" fill="magenta"/>
  <circle cx="573.572" cy="487.371" r="4.75696" stroke-width="0.5" stroke="black" fill="magenta"/>
   </g>
   <g id="cell205">
  <circle cx="427.459" cy="477.953" r="7.75893" stroke-width="0.5" stroke="black" fill="green"/>
  <circle cx="427.459" cy="477.953" r="4.71243" stroke-width="0.5" stroke="black" fill="green"/>
   </g>
   <g id="cell206">
  <circle cx="465.519" cy="623.75" r="7.63698" stroke-width="0.5" stroke="black" fill="magenta"/>
  <circle cx="465.519" cy="623.75" r="4.64085" stroke-width="0.5" stroke="black" fill="magenta"/>
   </g>
   <g id="cell207">
  <circle cx="622.113" cy="469.748" r="7.61318" stroke-width="0.5" stroke="black" fill="green"/>
  <circle cx="622.113" cy="469.748" r="4.62717" stroke-width="0.5" stroke="black" fill="green"/>
   </g>
   <g id="cell208">
  <circle cx="584.148" cy="551.95" r="6.0645" stroke-width="0.5" stroke="black" fill="cyan"/>
  <circle cx="584.148" cy="551.95" r="3.71091" stroke-width="0.5" stroke="black" fill="cyan"/>
   </g>
   <g id="cell209">
  <circle cx="441.479" cy="350.533" r="7.49222" stroke-width="0.5" stroke="black" fill="green"/>
  <circle cx="441.479" cy="350.533" r="4.55479" stroke-width="0.5" stroke="black" fill="green"/>
   </g>
   <g id="cell210">
  <circle cx="655.593" cy="538.519" r="7.49453" stroke-width="0.5" stroke="black" fill="green"/>
  <circle cx="655.593" cy="538.519" r="4.55547" stroke-width="0.5" stroke="black" fill="green"/>
   </g>
   <g id="cell213">
  <circle cx="557.659" cy="383.399" r="5.98675" stroke-width="0.5" stroke="black" fill="green"/>
  <circle cx="557.659" cy="383.399" r="3.6649" stroke-width="0.5" stroke="black" fill="green"/>
   </g>
   <g id="cell214">
  <circle cx="501.733" cy="429.646" r="6.94785" stroke-width="0.5" stroke="black" fill="cyan"/>
  <circle cx="501.733" cy="429.646" r="4.22472" stroke-width="0.5" stroke="black" fill="cyan"/>
   </g>
   <g id="cell215">
  <circle cx="433.905" cy="530.083" r="6.9954" stroke-width="0.5" stroke="black" fill="magenta"/>
  <circle cx="433.905" cy="530.083" r="4.24649" stroke-width="0.5" stroke="black" fill="magenta"/>
   </g>
   <g id="cell216">
  <circle cx="543.668" cy="578.892" r="6.93094" stroke-width="0.5" stroke="black" fill="green"/>
  <circle cx="543.668" cy="578.892" r="4.20273" stroke-width="0.5" stroke="black" fill="green"/>
   </g>
   <g id="cell217">
  <circle cx="546.774" cy="381.132" r="5.98675" stroke-width="0.5" stroke="black" fill="green"/>
  <circle cx="546.774" cy="381.132" r="3.6649" stroke-width="0.5" stroke="black" fill="green"/>
   </g>
   <g id="cell218">
  <circle cx="594.497" cy="556.043" r="6.0645" stroke-width="0.5" stroke="black" fill="cyan"/>
  <circle cx="594.497" cy="556.043" r="3.71091" stroke-width="0.5" stroke="black" fill="cyan"/>
   </g>
   <g id="cell219">
  <circle cx="575.3" cy="507.95" r="6.62539" stroke-width="0.5" stroke="black" fill="magenta"/>
  <circle cx="575.3" cy="507.95" r="4.00412" stroke-width="0.5" stroke="black" fill="magenta"/>
   </g>
   <g id="cell220">
  <circle cx="588.662" cy="381.632" r="6.68019" stroke-width="0.5" stroke="black" fill="magenta"/>
  <circle cx="588.662" cy="381.632" r="4.0163" stroke-width="0.5" stroke="black" fill="magenta"/>
   </g>
  </g>
 </g>
  <rect x="775" y="1035" width="200" height="10" stroke-width="2" stroke="rgb(255,255,255)" fill="rgb(0,0,0)"/>
  <text x="781.25" y="1028.75"
   font-family="Arial" font-size="25" fill="black" >
   200 &#956;m
  </text>
  <text x="25" y="1045"
   font-family="Arial" font-size="18.75" fill="black" >
   0 days, 0 hours, 0 minutes, and 49.8989 seconds
  </text>
  <rect x="0" y="70" width="1000" height="1000" stroke-width="2" stroke="rgb(0,0,0)" fill="none"/>
</svg>
