<?xml version="1.0" encoding="UTF-8" standalone="no"?>
<!-- Created with PhysiCell (http://PhysiCell.MathCancer.org/) -->
<svg 
 xmlns:dc="http://purl.org/dc/elements/1.1/" 
 xmlns:cc="http://creativecommons.org/ns#" 
 xmlns:rdf="http://www.w3.org/1999/02/22-rdf-syntax-ns#" 
 xmlns:svg="http://www.w3.org/2000/svg" 
 xmlns="http://www.w3.org/2000/svg" 
 version="1.1" 
 width="1000" 
 height="1070" 
 id="svg2">
  <rect x="0" y="0" width="1000" height="1070" stroke-width="2" stroke="white" fill="white"/>
  <text x="12.5" y="30"
   font-family="Arial" font-size="25" fill="black" >
   Current time: 1 days, 15 hours, and 9.00 minutes, z = 0.00 &#956;m
  </text>
  <text x="12.5" y="57.5"
   font-family="Arial" font-size="23.75" fill="black" >
   203 agents
  </text>
 <g id="tissue" 
    transform="translate(0,1070) scale(1,-1)">
  <g id="ECM">
  </g>
  <g id="cells">
   <g id="cell0">
  <circle cx="510.09" cy="543.288" r="8.41258" stroke-width="0.5" stroke="black" fill="magenta"/>
  <circle cx="510.09" cy="543.288" r="5.05164" stroke-width="0.5" stroke="black" fill="magenta"/>
   </g>
   <g id="cell1">
  <circle cx="593.393" cy="525.974" r="8.34117" stroke-width="0.5" stroke="black" fill="magenta"/>
  <circle cx="593.393" cy="525.974" r="5.02327" stroke-width="0.5" stroke="black" fill="magenta"/>
   </g>
   <g id="cell2">
  <circle cx="513.774" cy="597.074" r="8.41271" stroke-width="0.5" stroke="black" fill="magenta"/>
  <circle cx="513.774" cy="597.074" r="5.05167" stroke-width="0.5" stroke="black" fill="magenta"/>
   </g>
   <g id="cell3">
  <circle cx="525.086" cy="546.857" r="8.4125" stroke-width="0.5" stroke="black" fill="magenta"/>
  <circle cx="525.086" cy="546.857" r="5.05163" stroke-width="0.5" stroke="black" fill="magenta"/>
   </g>
   <g id="cell4">
  <circle cx="484.108" cy="443.493" r="8.40991" stroke-width="0.5" stroke="black" fill="magenta"/>
  <circle cx="484.108" cy="443.493" r="5.05091" stroke-width="0.5" stroke="black" fill="magenta"/>
   </g>
   <g id="cell5">
  <circle cx="469.151" cy="490.57" r="8.41271" stroke-width="0.5" stroke="black" fill="magenta"/>
  <circle cx="469.151" cy="490.57" r="5.05167" stroke-width="0.5" stroke="black" fill="magenta"/>
   </g>
   <g id="cell163">
  <circle cx="535.584" cy="575.316" r="8.35878" stroke-width="0.5" stroke="black" fill="green"/>
  <circle cx="535.584" cy="575.316" r="5.031" stroke-width="0.5" stroke="black" fill="green"/>
   </g>
   <g id="cell7">
  <circle cx="495.495" cy="454.319" r="8.33207" stroke-width="0.5" stroke="black" fill="magenta"/>
  <circle cx="495.495" cy="454.319" r="5.01929" stroke-width="0.5" stroke="black" fill="magenta"/>
   </g>
   <g id="cell8">
  <circle cx="379.87" cy="552.869" r="8.35882" stroke-width="0.5" stroke="black" fill="magenta"/>
  <circle cx="379.87" cy="552.869" r="5.031" stroke-width="0.5" stroke="black" fill="magenta"/>
   </g>
   <g id="cell161">
  <circle cx="452.21" cy="385.941" r="8.34001" stroke-width="0.5" stroke="black" fill="green"/>
  <circle cx="452.21" cy="385.941" r="5.02424" stroke-width="0.5" stroke="black" fill="green"/>
   </g>
   <g id="cell10">
  <circle cx="585.637" cy="388.273" r="8.39021" stroke-width="0.5" stroke="black" fill="magenta"/>
  <circle cx="585.637" cy="388.273" r="5.0439" stroke-width="0.5" stroke="black" fill="magenta"/>
   </g>
   <g id="cell11">
  <circle cx="591.886" cy="590.518" r="8.41271" stroke-width="0.5" stroke="black" fill="magenta"/>
  <circle cx="591.886" cy="590.518" r="5.05167" stroke-width="0.5" stroke="black" fill="magenta"/>
   </g>
   <g id="cell12">
  <circle cx="499.244" cy="593.6" r="8.40494" stroke-width="0.5" stroke="black" fill="magenta"/>
  <circle cx="499.244" cy="593.6" r="5.04929" stroke-width="0.5" stroke="black" fill="magenta"/>
   </g>
   <g id="cell13">
  <circle cx="383.926" cy="567.593" r="8.41271" stroke-width="0.5" stroke="black" fill="magenta"/>
  <circle cx="383.926" cy="567.593" r="5.05167" stroke-width="0.5" stroke="black" fill="magenta"/>
   </g>
   <g id="cell14">
  <circle cx="517.597" cy="402.667" r="8.41271" stroke-width="0.5" stroke="black" fill="magenta"/>
  <circle cx="517.597" cy="402.667" r="5.05167" stroke-width="0.5" stroke="black" fill="magenta"/>
   </g>
   <g id="cell15">
  <circle cx="381.865" cy="479.123" r="8.40839" stroke-width="0.5" stroke="black" fill="magenta"/>
  <circle cx="381.865" cy="479.123" r="5.05043" stroke-width="0.5" stroke="black" fill="magenta"/>
   </g>
   <g id="cell16">
  <circle cx="452.584" cy="417.119" r="7.78131" stroke-width="0.5" stroke="black" fill="magenta"/>
  <circle cx="452.584" cy="417.119" r="4.72869" stroke-width="0.5" stroke="black" fill="magenta"/>
   </g>
   <g id="cell17">
  <circle cx="582.962" cy="498.076" r="8.21839" stroke-width="0.5" stroke="black" fill="magenta"/>
  <circle cx="582.962" cy="498.076" r="4.96448" stroke-width="0.5" stroke="black" fill="magenta"/>
   </g>
   <g id="cell18">
  <circle cx="519.238" cy="387.518" r="8.41271" stroke-width="0.5" stroke="black" fill="magenta"/>
  <circle cx="519.238" cy="387.518" r="5.05167" stroke-width="0.5" stroke="black" fill="magenta"/>
   </g>
   <g id="cell19">
  <circle cx="457.354" cy="541.661" r="8.41172" stroke-width="0.5" stroke="black" fill="magenta"/>
  <circle cx="457.354" cy="541.661" r="5.05143" stroke-width="0.5" stroke="black" fill="magenta"/>
   </g>
   <g id="cell20">
  <circle cx="530.348" cy="411.93" r="8.41271" stroke-width="0.5" stroke="black" fill="magenta"/>
  <circle cx="530.348" cy="411.93" r="5.05167" stroke-width="0.5" stroke="black" fill="magenta"/>
   </g>
   <g id="cell21">
  <circle cx="467.644" cy="637.021" r="7.33129" stroke-width="0.5" stroke="black" fill="magenta"/>
  <circle cx="467.644" cy="637.021" r="4.45516" stroke-width="0.5" stroke="black" fill="magenta"/>
   </g>
   <g id="cell22">
  <circle cx="559.248" cy="491.477" r="7.57369" stroke-width="0.5" stroke="black" fill="magenta"/>
  <circle cx="559.248" cy="491.477" r="4.61632" stroke-width="0.5" stroke="black" fill="magenta"/>
   </g>
   <g id="cell23">
  <circle cx="553.872" cy="477.79" r="8.41271" stroke-width="0.5" stroke="black" fill="magenta"/>
  <circle cx="553.872" cy="477.79" r="5.05167" stroke-width="0.5" stroke="black" fill="magenta"/>
   </g>
   <g id="cell24">
  <circle cx="567.728" cy="384.07" r="8.41271" stroke-width="0.5" stroke="black" fill="magenta"/>
  <circle cx="567.728" cy="384.07" r="5.05167" stroke-width="0.5" stroke="black" fill="magenta"/>
   </g>
   <g id="cell25">
  <circle cx="643.893" cy="545.969" r="7.14965" stroke-width="0.5" stroke="black" fill="green"/>
  <circle cx="643.893" cy="545.969" r="4.34" stroke-width="0.5" stroke="black" fill="green"/>
   </g>
   <g id="cell26">
  <circle cx="558.605" cy="397.728" r="8.41172" stroke-width="0.5" stroke="black" fill="green"/>
  <circle cx="558.605" cy="397.728" r="5.05142" stroke-width="0.5" stroke="black" fill="green"/>
   </g>
   <g id="cell27">
  <circle cx="462.473" cy="405.958" r="8.41266" stroke-width="0.5" stroke="black" fill="green"/>
  <circle cx="462.473" cy="405.958" r="5.05166" stroke-width="0.5" stroke="black" fill="green"/>
   </g>
   <g id="cell28">
  <circle cx="429.608" cy="542.47" r="8.38454" stroke-width="0.5" stroke="black" fill="green"/>
  <circle cx="429.608" cy="542.47" r="5.04168" stroke-width="0.5" stroke="black" fill="green"/>
   </g>
   <g id="cell29">
  <circle cx="451.317" cy="518.665" r="1.31621" stroke-width="0.5" stroke="black" fill="green"/>
  <circle cx="451.317" cy="518.665" r="1.3049" stroke-width="0.5" stroke="black" fill="black"/>
   </g>
   <g id="cell30">
  <circle cx="480.323" cy="536.219" r="8.40368" stroke-width="0.5" stroke="black" fill="green"/>
  <circle cx="480.323" cy="536.219" r="5.04888" stroke-width="0.5" stroke="black" fill="green"/>
   </g>
   <g id="cell31">
  <circle cx="413.761" cy="543.522" r="8.41271" stroke-width="0.5" stroke="black" fill="green"/>
  <circle cx="413.761" cy="543.522" r="5.05167" stroke-width="0.5" stroke="black" fill="green"/>
   </g>
   <g id="cell169">
  <circle cx="519.408" cy="502.138" r="8.32021" stroke-width="0.5" stroke="black" fill="cyan"/>
  <circle cx="519.408" cy="502.138" r="5.01381" stroke-width="0.5" stroke="black" fill="cyan"/>
   </g>
   <g id="cell33">
  <circle cx="500.325" cy="420.326" r="8.40215" stroke-width="0.5" stroke="black" fill="green"/>
  <circle cx="500.325" cy="420.326" r="5.04833" stroke-width="0.5" stroke="black" fill="green"/>
   </g>
   <g id="cell168">
  <circle cx="382.081" cy="517.999" r="7.57288" stroke-width="0.5" stroke="black" fill="cyan"/>
  <circle cx="382.081" cy="517.999" r="4.58897" stroke-width="0.5" stroke="black" fill="black"/>
   </g>
   <g id="cell35">
  <circle cx="558.663" cy="555.518" r="8.41271" stroke-width="0.5" stroke="black" fill="green"/>
  <circle cx="558.663" cy="555.518" r="5.05167" stroke-width="0.5" stroke="black" fill="green"/>
   </g>
   <g id="cell36">
  <circle cx="388.529" cy="582.62" r="8.35894" stroke-width="0.5" stroke="black" fill="green"/>
  <circle cx="388.529" cy="582.62" r="5.03239" stroke-width="0.5" stroke="black" fill="green"/>
   </g>
   <g id="cell37">
  <circle cx="642.285" cy="456.037" r="8.41265" stroke-width="0.5" stroke="black" fill="green"/>
  <circle cx="642.285" cy="456.037" r="5.05166" stroke-width="0.5" stroke="black" fill="green"/>
   </g>
   <g id="cell38">
  <circle cx="524.584" cy="586.311" r="8.35878" stroke-width="0.5" stroke="black" fill="green"/>
  <circle cx="524.584" cy="586.311" r="5.031" stroke-width="0.5" stroke="black" fill="green"/>
   </g>
   <g id="cell39">
  <circle cx="611.582" cy="490.322" r="8.22925" stroke-width="0.5" stroke="black" fill="green"/>
  <circle cx="611.582" cy="490.322" r="4.96993" stroke-width="0.5" stroke="black" fill="green"/>
   </g>
   <g id="cell40">
  <circle cx="486.233" cy="567.1" r="8.37935" stroke-width="0.5" stroke="black" fill="green"/>
  <circle cx="486.233" cy="567.1" r="5.0396" stroke-width="0.5" stroke="black" fill="green"/>
   </g>
   <g id="cell41">
  <circle cx="366.56" cy="482.121" r="8.41271" stroke-width="0.5" stroke="black" fill="green"/>
  <circle cx="366.56" cy="482.121" r="5.05167" stroke-width="0.5" stroke="black" fill="green"/>
   </g>
   <g id="cell42">
  <circle cx="438.118" cy="490.607" r="8.41271" stroke-width="0.5" stroke="black" fill="green"/>
  <circle cx="438.118" cy="490.607" r="5.05167" stroke-width="0.5" stroke="black" fill="green"/>
   </g>
   <g id="cell43">
  <circle cx="564.496" cy="438.691" r="8.41271" stroke-width="0.5" stroke="black" fill="green"/>
  <circle cx="564.496" cy="438.691" r="5.05167" stroke-width="0.5" stroke="black" fill="green"/>
   </g>
   <g id="cell164">
  <circle cx="399.074" cy="570.791" r="8.33786" stroke-width="0.5" stroke="black" fill="green"/>
  <circle cx="399.074" cy="570.791" r="5.02297" stroke-width="0.5" stroke="black" fill="green"/>
   </g>
   <g id="cell145">
  <circle cx="411.411" cy="420.896" r="7.75837" stroke-width="0.5" stroke="black" fill="magenta"/>
  <circle cx="411.411" cy="420.896" r="4.72719" stroke-width="0.5" stroke="black" fill="magenta"/>
   </g>
   <g id="cell46">
  <circle cx="515.75" cy="619.46" r="8.41227" stroke-width="0.5" stroke="black" fill="green"/>
  <circle cx="515.75" cy="619.46" r="5.05157" stroke-width="0.5" stroke="black" fill="green"/>
   </g>
   <g id="cell47">
  <circle cx="484.696" cy="491.166" r="8.41243" stroke-width="0.5" stroke="black" fill="green"/>
  <circle cx="484.696" cy="491.166" r="5.05161" stroke-width="0.5" stroke="black" fill="green"/>
   </g>
   <g id="cell48">
  <circle cx="577.643" cy="604.631" r="8.4117" stroke-width="0.5" stroke="black" fill="green"/>
  <circle cx="577.643" cy="604.631" r="5.05143" stroke-width="0.5" stroke="black" fill="green"/>
   </g>
   <g id="cell49">
  <circle cx="437.284" cy="391.096" r="8.32291" stroke-width="0.5" stroke="black" fill="green"/>
  <circle cx="437.284" cy="391.096" r="5.01502" stroke-width="0.5" stroke="black" fill="green"/>
   </g>
   <g id="cell50">
  <circle cx="501.417" cy="512.758" r="8.41131" stroke-width="0.5" stroke="black" fill="cyan"/>
  <circle cx="501.417" cy="512.758" r="5.05131" stroke-width="0.5" stroke="black" fill="cyan"/>
   </g>
   <g id="cell51">
  <circle cx="400.979" cy="592.711" r="7.67987" stroke-width="0.5" stroke="black" fill="cyan"/>
  <circle cx="400.979" cy="592.711" r="4.66617" stroke-width="0.5" stroke="black" fill="cyan"/>
   </g>
   <g id="cell52">
  <circle cx="515.819" cy="417.66" r="8.41271" stroke-width="0.5" stroke="black" fill="cyan"/>
  <circle cx="515.819" cy="417.66" r="5.05167" stroke-width="0.5" stroke="black" fill="black"/>
   </g>
   <g id="cell53">
  <circle cx="573.088" cy="425.368" r="8.41233" stroke-width="0.5" stroke="black" fill="cyan"/>
  <circle cx="573.088" cy="425.368" r="5.05159" stroke-width="0.5" stroke="black" fill="cyan"/>
   </g>
   <g id="cell54">
  <circle cx="480.206" cy="416.25" r="8.41248" stroke-width="0.5" stroke="black" fill="cyan"/>
  <circle cx="480.206" cy="416.25" r="5.05162" stroke-width="0.5" stroke="black" fill="cyan"/>
   </g>
   <g id="cell55">
  <circle cx="522.234" cy="458.975" r="8.41235" stroke-width="0.5" stroke="black" fill="cyan"/>
  <circle cx="522.234" cy="458.975" r="5.05159" stroke-width="0.5" stroke="black" fill="cyan"/>
   </g>
   <g id="cell56">
  <circle cx="622.761" cy="522.463" r="8.41271" stroke-width="0.5" stroke="black" fill="cyan"/>
  <circle cx="622.761" cy="522.463" r="5.05167" stroke-width="0.5" stroke="black" fill="cyan"/>
   </g>
   <g id="cell105">
  <circle cx="503.551" cy="608.762" r="8.40122" stroke-width="0.5" stroke="black" fill="green"/>
  <circle cx="503.551" cy="608.762" r="5.04809" stroke-width="0.5" stroke="black" fill="green"/>
   </g>
   <g id="cell58">
  <circle cx="569.142" cy="475.435" r="8.38118" stroke-width="0.5" stroke="black" fill="cyan"/>
  <circle cx="569.142" cy="475.435" r="5.04034" stroke-width="0.5" stroke="black" fill="cyan"/>
   </g>
   <g id="cell59">
  <circle cx="385.732" cy="440.058" r="8.41271" stroke-width="0.5" stroke="black" fill="cyan"/>
  <circle cx="385.732" cy="440.058" r="5.05167" stroke-width="0.5" stroke="black" fill="cyan"/>
   </g>
   <g id="cell60">
  <circle cx="596.348" cy="465.047" r="8.28262" stroke-width="0.5" stroke="black" fill="cyan"/>
  <circle cx="596.348" cy="465.047" r="4.9961" stroke-width="0.5" stroke="black" fill="cyan"/>
   </g>
   <g id="cell186">
  <circle cx="354.924" cy="562.196" r="3.24234" stroke-width="0.5" stroke="black" fill="cyan"/>
  <circle cx="354.924" cy="562.196" r="2.54883" stroke-width="0.5" stroke="black" fill="black"/>
   </g>
   <g id="cell62">
  <circle cx="514.608" cy="433.154" r="8.26576" stroke-width="0.5" stroke="black" fill="cyan"/>
  <circle cx="514.608" cy="433.154" r="4.98819" stroke-width="0.5" stroke="black" fill="cyan"/>
   </g>
   <g id="cell63">
  <circle cx="585.934" cy="539.785" r="8.40794" stroke-width="0.5" stroke="black" fill="cyan"/>
  <circle cx="585.934" cy="539.785" r="5.05029" stroke-width="0.5" stroke="black" fill="cyan"/>
   </g>
   <g id="cell64">
  <circle cx="509.367" cy="638.257" r="8.41271" stroke-width="0.5" stroke="black" fill="cyan"/>
  <circle cx="509.367" cy="638.257" r="5.05167" stroke-width="0.5" stroke="black" fill="cyan"/>
   </g>
   <g id="cell65">
  <circle cx="545.494" cy="464.527" r="8.41255" stroke-width="0.5" stroke="black" fill="cyan"/>
  <circle cx="545.494" cy="464.527" r="5.05164" stroke-width="0.5" stroke="black" fill="cyan"/>
   </g>
   <g id="cell66">
  <circle cx="534.734" cy="535.793" r="8.41247" stroke-width="0.5" stroke="black" fill="cyan"/>
  <circle cx="534.734" cy="535.793" r="5.05162" stroke-width="0.5" stroke="black" fill="cyan"/>
   </g>
   <g id="cell67">
  <circle cx="354.66" cy="492.852" r="8.41271" stroke-width="0.5" stroke="black" fill="cyan"/>
  <circle cx="354.66" cy="492.852" r="5.05167" stroke-width="0.5" stroke="black" fill="cyan"/>
   </g>
   <g id="cell212">
  <circle cx="569.673" cy="499.797" r="6.88353" stroke-width="0.5" stroke="black" fill="magenta"/>
  <circle cx="569.673" cy="499.797" r="4.20124" stroke-width="0.5" stroke="black" fill="magenta"/>
   </g>
   <g id="cell69">
  <circle cx="443.689" cy="460.761" r="8.41271" stroke-width="0.5" stroke="black" fill="cyan"/>
  <circle cx="443.689" cy="460.761" r="5.05167" stroke-width="0.5" stroke="black" fill="cyan"/>
   </g>
   <g id="cell70">
  <circle cx="584.744" cy="481.348" r="8.41271" stroke-width="0.5" stroke="black" fill="cyan"/>
  <circle cx="584.744" cy="481.348" r="5.05167" stroke-width="0.5" stroke="black" fill="cyan"/>
   </g>
   <g id="cell71">
  <circle cx="382.039" cy="533.51" r="1.47265" stroke-width="0.5" stroke="black" fill="cyan"/>
  <circle cx="382.039" cy="533.51" r="1.45214" stroke-width="0.5" stroke="black" fill="black"/>
   </g>
   <g id="cell72">
  <circle cx="534.97" cy="502.136" r="8.32021" stroke-width="0.5" stroke="black" fill="cyan"/>
  <circle cx="534.97" cy="502.136" r="5.01381" stroke-width="0.5" stroke="black" fill="cyan"/>
   </g>
   <g id="cell73">
  <circle cx="365.47" cy="550.03" r="7.56607" stroke-width="0.5" stroke="black" fill="cyan"/>
  <circle cx="365.47" cy="550.03" r="4.61259" stroke-width="0.5" stroke="black" fill="cyan"/>
   </g>
   <g id="cell162">
  <circle cx="374.536" cy="538.556" r="8.35882" stroke-width="0.5" stroke="black" fill="magenta"/>
  <circle cx="374.536" cy="538.556" r="5.031" stroke-width="0.5" stroke="black" fill="magenta"/>
   </g>
   <g id="cell75">
  <circle cx="528.182" cy="427.483" r="8.41266" stroke-width="0.5" stroke="black" fill="cyan"/>
  <circle cx="528.182" cy="427.483" r="5.05166" stroke-width="0.5" stroke="black" fill="cyan"/>
   </g>
   <g id="cell76">
  <circle cx="436.147" cy="375.534" r="8.41199" stroke-width="0.5" stroke="black" fill="green"/>
  <circle cx="436.147" cy="375.534" r="5.0515" stroke-width="0.5" stroke="black" fill="green"/>
   </g>
   <g id="cell77">
  <circle cx="469.724" cy="447.142" r="8.41216" stroke-width="0.5" stroke="black" fill="magenta"/>
  <circle cx="469.724" cy="447.142" r="5.05154" stroke-width="0.5" stroke="black" fill="magenta"/>
   </g>
   <g id="cell78">
  <circle cx="626.305" cy="455.592" r="8.41253" stroke-width="0.5" stroke="black" fill="green"/>
  <circle cx="626.305" cy="455.592" r="5.05163" stroke-width="0.5" stroke="black" fill="green"/>
   </g>
   <g id="cell79">
  <circle cx="518.292" cy="474.301" r="8.41265" stroke-width="0.5" stroke="black" fill="cyan"/>
  <circle cx="518.292" cy="474.301" r="5.05166" stroke-width="0.5" stroke="black" fill="cyan"/>
   </g>
   <g id="cell80">
  <circle cx="542.326" cy="630.991" r="7.94925" stroke-width="0.5" stroke="black" fill="green"/>
  <circle cx="542.326" cy="630.991" r="4.82106" stroke-width="0.5" stroke="black" fill="green"/>
   </g>
   <g id="cell81">
  <circle cx="546.753" cy="586.616" r="8.41261" stroke-width="0.5" stroke="black" fill="green"/>
  <circle cx="546.753" cy="586.616" r="5.05165" stroke-width="0.5" stroke="black" fill="green"/>
   </g>
   <g id="cell82">
  <circle cx="530.532" cy="560.736" r="8.40018" stroke-width="0.5" stroke="black" fill="magenta"/>
  <circle cx="530.532" cy="560.736" r="5.04763" stroke-width="0.5" stroke="black" fill="magenta"/>
   </g>
   <g id="cell211">
  <circle cx="450.158" cy="371.6" r="7.08274" stroke-width="0.5" stroke="black" fill="green"/>
  <circle cx="450.158" cy="371.6" r="4.29765" stroke-width="0.5" stroke="black" fill="green"/>
   </g>
   <g id="cell84">
  <circle cx="512.194" cy="488.801" r="8.18171" stroke-width="0.5" stroke="black" fill="cyan"/>
  <circle cx="512.194" cy="488.801" r="4.94583" stroke-width="0.5" stroke="black" fill="cyan"/>
   </g>
   <g id="cell85">
  <circle cx="345.163" cy="541.925" r="8.41236" stroke-width="0.5" stroke="black" fill="cyan"/>
  <circle cx="345.163" cy="541.925" r="5.05159" stroke-width="0.5" stroke="black" fill="cyan"/>
   </g>
   <g id="cell86">
  <circle cx="495.538" cy="539.077" r="8.4103" stroke-width="0.5" stroke="black" fill="magenta"/>
  <circle cx="495.538" cy="539.077" r="5.05102" stroke-width="0.5" stroke="black" fill="magenta"/>
   </g>
   <g id="cell87">
  <circle cx="574.175" cy="558.356" r="8.41222" stroke-width="0.5" stroke="black" fill="cyan"/>
  <circle cx="574.175" cy="558.356" r="5.05156" stroke-width="0.5" stroke="black" fill="cyan"/>
   </g>
   <g id="cell88">
  <circle cx="445.87" cy="535.659" r="6.65091" stroke-width="0.5" stroke="black" fill="magenta"/>
  <circle cx="445.87" cy="535.659" r="4.00523" stroke-width="0.5" stroke="black" fill="magenta"/>
   </g>
   <g id="cell89">
  <circle cx="553.871" cy="450.265" r="8.39679" stroke-width="0.5" stroke="black" fill="cyan"/>
  <circle cx="553.871" cy="450.265" r="5.04661" stroke-width="0.5" stroke="black" fill="cyan"/>
   </g>
   <g id="cell90">
  <circle cx="637.416" cy="471.313" r="8.40925" stroke-width="0.5" stroke="black" fill="green"/>
  <circle cx="637.416" cy="471.313" r="5.05071" stroke-width="0.5" stroke="black" fill="green"/>
   </g>
   <g id="cell91">
  <circle cx="545.58" cy="563.769" r="8.41241" stroke-width="0.5" stroke="black" fill="magenta"/>
  <circle cx="545.58" cy="563.769" r="5.05161" stroke-width="0.5" stroke="black" fill="magenta"/>
   </g>
   <g id="cell92">
  <circle cx="486.161" cy="551.252" r="8.41252" stroke-width="0.5" stroke="black" fill="green"/>
  <circle cx="486.161" cy="551.252" r="5.05163" stroke-width="0.5" stroke="black" fill="green"/>
   </g>
   <g id="cell93">
  <circle cx="540.743" cy="549.63" r="8.41241" stroke-width="0.5" stroke="black" fill="magenta"/>
  <circle cx="540.743" cy="549.63" r="5.05161" stroke-width="0.5" stroke="black" fill="magenta"/>
   </g>
   <g id="cell94">
  <circle cx="543.629" cy="489.114" r="8.41249" stroke-width="0.5" stroke="black" fill="cyan"/>
  <circle cx="543.629" cy="489.114" r="5.05162" stroke-width="0.5" stroke="black" fill="cyan"/>
   </g>
   <g id="cell95">
  <circle cx="465.898" cy="421.26" r="7.96352" stroke-width="0.5" stroke="black" fill="cyan"/>
  <circle cx="465.898" cy="421.26" r="4.8287" stroke-width="0.5" stroke="black" fill="cyan"/>
   </g>
   <g id="cell96">
  <circle cx="553.985" cy="540.841" r="8.4062" stroke-width="0.5" stroke="black" fill="cyan"/>
  <circle cx="553.985" cy="540.841" r="5.04973" stroke-width="0.5" stroke="black" fill="cyan"/>
   </g>
   <g id="cell97">
  <circle cx="420.424" cy="463.91" r="8.41225" stroke-width="0.5" stroke="black" fill="green"/>
  <circle cx="420.424" cy="463.91" r="5.05157" stroke-width="0.5" stroke="black" fill="green"/>
   </g>
   <g id="cell98">
  <circle cx="490.553" cy="524.124" r="8.4098" stroke-width="0.5" stroke="black" fill="green"/>
  <circle cx="490.553" cy="524.124" r="5.05088" stroke-width="0.5" stroke="black" fill="green"/>
   </g>
   <g id="cell99">
  <circle cx="367.511" cy="524.625" r="8.41236" stroke-width="0.5" stroke="black" fill="cyan"/>
  <circle cx="367.511" cy="524.625" r="5.05159" stroke-width="0.5" stroke="black" fill="cyan"/>
   </g>
   <g id="cell100">
  <circle cx="446.392" cy="403.833" r="8.41236" stroke-width="0.5" stroke="black" fill="green"/>
  <circle cx="446.392" cy="403.833" r="5.05159" stroke-width="0.5" stroke="black" fill="green"/>
   </g>
   <g id="cell101">
  <circle cx="527.443" cy="488.662" r="8.12627" stroke-width="0.5" stroke="black" fill="cyan"/>
  <circle cx="527.443" cy="488.662" r="4.91777" stroke-width="0.5" stroke="black" fill="cyan"/>
   </g>
   <g id="cell102">
  <circle cx="441.488" cy="475.839" r="7.49427" stroke-width="0.5" stroke="black" fill="green"/>
  <circle cx="441.488" cy="475.839" r="4.55541" stroke-width="0.5" stroke="black" fill="green"/>
   </g>
   <g id="cell103">
  <circle cx="592.704" cy="449.672" r="8.41024" stroke-width="0.5" stroke="black" fill="cyan"/>
  <circle cx="592.704" cy="449.672" r="5.05101" stroke-width="0.5" stroke="black" fill="cyan"/>
   </g>
   <g id="cell104">
  <circle cx="606.776" cy="554.077" r="8.19784" stroke-width="0.5" stroke="black" fill="cyan"/>
  <circle cx="606.776" cy="554.077" r="4.95562" stroke-width="0.5" stroke="black" fill="cyan"/>
   </g>
   <g id="cell106">
  <circle cx="454.755" cy="449.609" r="8.41216" stroke-width="0.5" stroke="black" fill="magenta"/>
  <circle cx="454.755" cy="449.609" r="5.05154" stroke-width="0.5" stroke="black" fill="magenta"/>
   </g>
   <g id="cell107">
  <circle cx="467.225" cy="390.766" r="8.34001" stroke-width="0.5" stroke="black" fill="green"/>
  <circle cx="467.225" cy="390.766" r="5.02424" stroke-width="0.5" stroke="black" fill="green"/>
   </g>
   <g id="cell108">
  <circle cx="562.361" cy="609.249" r="8.41207" stroke-width="0.5" stroke="black" fill="green"/>
  <circle cx="562.361" cy="609.249" r="5.05152" stroke-width="0.5" stroke="black" fill="green"/>
   </g>
   <g id="cell109">
  <circle cx="576.424" cy="588.712" r="8.4117" stroke-width="0.5" stroke="black" fill="green"/>
  <circle cx="576.424" cy="588.712" r="5.05143" stroke-width="0.5" stroke="black" fill="green"/>
   </g>
   <g id="cell110">
  <circle cx="369.169" cy="508.884" r="8.41185" stroke-width="0.5" stroke="black" fill="cyan"/>
  <circle cx="369.169" cy="508.884" r="5.05146" stroke-width="0.5" stroke="black" fill="cyan"/>
   </g>
   <g id="cell111">
  <circle cx="457.059" cy="556.642" r="8.40546" stroke-width="0.5" stroke="black" fill="magenta"/>
  <circle cx="457.059" cy="556.642" r="5.04952" stroke-width="0.5" stroke="black" fill="magenta"/>
   </g>
   <g id="cell112">
  <circle cx="492.179" cy="468.087" r="8.39475" stroke-width="0.5" stroke="black" fill="magenta"/>
  <circle cx="492.179" cy="468.087" r="5.04569" stroke-width="0.5" stroke="black" fill="magenta"/>
   </g>
   <g id="cell113">
  <circle cx="547.47" cy="373.992" r="6.74548" stroke-width="0.5" stroke="black" fill="green"/>
  <circle cx="547.47" cy="373.992" r="4.06456" stroke-width="0.5" stroke="black" fill="green"/>
   </g>
   <g id="cell114">
  <circle cx="525.267" cy="443.36" r="8.41104" stroke-width="0.5" stroke="black" fill="cyan"/>
  <circle cx="525.267" cy="443.36" r="5.05125" stroke-width="0.5" stroke="black" fill="cyan"/>
   </g>
   <g id="cell115">
  <circle cx="538.344" cy="450.856" r="8.40676" stroke-width="0.5" stroke="black" fill="cyan"/>
  <circle cx="538.344" cy="450.856" r="5.04997" stroke-width="0.5" stroke="black" fill="cyan"/>
   </g>
   <g id="cell116">
  <circle cx="520.102" cy="532.087" r="8.23875" stroke-width="0.5" stroke="black" fill="cyan"/>
  <circle cx="520.102" cy="532.087" r="4.97484" stroke-width="0.5" stroke="black" fill="cyan"/>
   </g>
   <g id="cell117">
  <circle cx="500.79" cy="624.688" r="8.41085" stroke-width="0.5" stroke="black" fill="green"/>
  <circle cx="500.79" cy="624.688" r="5.05119" stroke-width="0.5" stroke="black" fill="green"/>
   </g>
   <g id="cell118">
  <circle cx="510.149" cy="448.49" r="8.41059" stroke-width="0.5" stroke="black" fill="cyan"/>
  <circle cx="510.149" cy="448.49" r="5.05111" stroke-width="0.5" stroke="black" fill="cyan"/>
   </g>
   <g id="cell119">
  <circle cx="548.449" cy="602.256" r="8.26574" stroke-width="0.5" stroke="black" fill="green"/>
  <circle cx="548.449" cy="602.256" r="4.98819" stroke-width="0.5" stroke="black" fill="green"/>
   </g>
   <g id="cell120">
  <circle cx="580.561" cy="439.343" r="8.41024" stroke-width="0.5" stroke="black" fill="cyan"/>
  <circle cx="580.561" cy="439.343" r="5.05101" stroke-width="0.5" stroke="black" fill="cyan"/>
   </g>
   <g id="cell121">
  <circle cx="452.779" cy="358.604" r="7.08274" stroke-width="0.5" stroke="black" fill="green"/>
  <circle cx="452.779" cy="358.604" r="4.29765" stroke-width="0.5" stroke="black" fill="green"/>
   </g>
   <g id="cell122">
  <circle cx="505.569" cy="528.171" r="8.4103" stroke-width="0.5" stroke="black" fill="magenta"/>
  <circle cx="505.569" cy="528.171" r="5.05102" stroke-width="0.5" stroke="black" fill="magenta"/>
   </g>
   <g id="cell123">
  <circle cx="486.707" cy="507.1" r="8.4098" stroke-width="0.5" stroke="black" fill="green"/>
  <circle cx="486.707" cy="507.1" r="5.05088" stroke-width="0.5" stroke="black" fill="green"/>
   </g>
   <g id="cell124">
  <circle cx="488.27" cy="429.291" r="8.03374" stroke-width="0.5" stroke="black" fill="magenta"/>
  <circle cx="488.27" cy="429.291" r="4.8677" stroke-width="0.5" stroke="black" fill="magenta"/>
   </g>
   <g id="cell125">
  <circle cx="624.583" cy="483.522" r="7.29987" stroke-width="0.5" stroke="black" fill="green"/>
  <circle cx="624.583" cy="483.522" r="4.43626" stroke-width="0.5" stroke="black" fill="green"/>
   </g>
   <g id="cell126">
  <circle cx="628.988" cy="566.353" r="8.40921" stroke-width="0.5" stroke="black" fill="green"/>
  <circle cx="628.988" cy="566.353" r="5.05069" stroke-width="0.5" stroke="black" fill="green"/>
   </g>
   <g id="cell127">
  <circle cx="432.588" cy="361.382" r="7.14611" stroke-width="0.5" stroke="black" fill="green"/>
  <circle cx="432.588" cy="361.382" r="4.33892" stroke-width="0.5" stroke="black" fill="green"/>
   </g>
   <g id="cell128">
  <circle cx="372.114" cy="467.548" r="8.40839" stroke-width="0.5" stroke="black" fill="magenta"/>
  <circle cx="372.114" cy="467.548" r="5.05043" stroke-width="0.5" stroke="black" fill="magenta"/>
   </g>
   <g id="cell129">
  <circle cx="569.883" cy="542.926" r="8.40794" stroke-width="0.5" stroke="black" fill="cyan"/>
  <circle cx="569.883" cy="542.926" r="5.05029" stroke-width="0.5" stroke="black" fill="cyan"/>
   </g>
   <g id="cell130">
  <circle cx="546.414" cy="436.897" r="8.40676" stroke-width="0.5" stroke="black" fill="cyan"/>
  <circle cx="546.414" cy="436.897" r="5.04997" stroke-width="0.5" stroke="black" fill="cyan"/>
   </g>
   <g id="cell131">
  <circle cx="543.237" cy="514.198" r="7.53486" stroke-width="0.5" stroke="black" fill="cyan"/>
  <circle cx="543.237" cy="514.198" r="4.61018" stroke-width="0.5" stroke="black" fill="cyan"/>
   </g>
   <g id="cell132">
  <circle cx="443.841" cy="549.137" r="8.40546" stroke-width="0.5" stroke="black" fill="magenta"/>
  <circle cx="443.841" cy="549.137" r="5.04952" stroke-width="0.5" stroke="black" fill="magenta"/>
   </g>
   <g id="cell133">
  <circle cx="580.864" cy="465.591" r="8.40588" stroke-width="0.5" stroke="black" fill="cyan"/>
  <circle cx="580.864" cy="465.591" r="5.04962" stroke-width="0.5" stroke="black" fill="cyan"/>
   </g>
   <g id="cell201">
  <circle cx="556.652" cy="519.051" r="7.53486" stroke-width="0.5" stroke="black" fill="cyan"/>
  <circle cx="556.652" cy="519.051" r="4.61018" stroke-width="0.5" stroke="black" fill="cyan"/>
   </g>
   <g id="cell135">
  <circle cx="509.614" cy="582.475" r="8.40494" stroke-width="0.5" stroke="black" fill="magenta"/>
  <circle cx="509.614" cy="582.475" r="5.04929" stroke-width="0.5" stroke="black" fill="magenta"/>
   </g>
   <g id="cell136">
  <circle cx="470.64" cy="548.797" r="8.40368" stroke-width="0.5" stroke="black" fill="green"/>
  <circle cx="470.64" cy="548.797" r="5.04888" stroke-width="0.5" stroke="black" fill="green"/>
   </g>
   <g id="cell137">
  <circle cx="488.581" cy="614.453" r="8.40122" stroke-width="0.5" stroke="black" fill="green"/>
  <circle cx="488.581" cy="614.453" r="5.04809" stroke-width="0.5" stroke="black" fill="green"/>
   </g>
   <g id="cell138">
  <circle cx="502.939" cy="406.084" r="8.40215" stroke-width="0.5" stroke="black" fill="green"/>
  <circle cx="502.939" cy="406.084" r="5.04833" stroke-width="0.5" stroke="black" fill="green"/>
   </g>
   <g id="cell139">
  <circle cx="415.895" cy="407.025" r="8.40056" stroke-width="0.5" stroke="black" fill="magenta"/>
  <circle cx="415.895" cy="407.025" r="5.04776" stroke-width="0.5" stroke="black" fill="magenta"/>
   </g>
   <g id="cell140">
  <circle cx="520.357" cy="571.746" r="8.38943" stroke-width="0.5" stroke="black" fill="magenta"/>
  <circle cx="520.357" cy="571.746" r="5.04396" stroke-width="0.5" stroke="black" fill="magenta"/>
   </g>
   <g id="cell141">
  <circle cx="571.866" cy="452.594" r="8.39679" stroke-width="0.5" stroke="black" fill="cyan"/>
  <circle cx="571.866" cy="452.594" r="5.04661" stroke-width="0.5" stroke="black" fill="cyan"/>
   </g>
   <g id="cell142">
  <circle cx="542.084" cy="422.266" r="8.23389" stroke-width="0.5" stroke="black" fill="green"/>
  <circle cx="542.084" cy="422.266" r="4.97554" stroke-width="0.5" stroke="black" fill="green"/>
   </g>
   <g id="cell143">
  <circle cx="430.89" cy="405.077" r="8.39304" stroke-width="0.5" stroke="black" fill="magenta"/>
  <circle cx="430.89" cy="405.077" r="5.04529" stroke-width="0.5" stroke="black" fill="magenta"/>
   </g>
   <g id="cell144">
  <circle cx="546.032" cy="407.861" r="8.36351" stroke-width="0.5" stroke="black" fill="green"/>
  <circle cx="546.032" cy="407.861" r="5.03401" stroke-width="0.5" stroke="black" fill="green"/>
   </g>
   <g id="cell185">
  <circle cx="596.919" cy="564.724" r="7.09829" stroke-width="0.5" stroke="black" fill="cyan"/>
  <circle cx="596.919" cy="564.724" r="4.33358" stroke-width="0.5" stroke="black" fill="cyan"/>
   </g>
   <g id="cell147">
  <circle cx="515.241" cy="557.744" r="8.38943" stroke-width="0.5" stroke="black" fill="magenta"/>
  <circle cx="515.241" cy="557.744" r="5.04396" stroke-width="0.5" stroke="black" fill="magenta"/>
   </g>
   <g id="cell148">
  <circle cx="507.053" cy="463.434" r="8.11217" stroke-width="0.5" stroke="black" fill="magenta"/>
  <circle cx="507.053" cy="463.434" r="4.9113" stroke-width="0.5" stroke="black" fill="magenta"/>
   </g>
   <g id="cell149">
  <circle cx="573.911" cy="397.71" r="8.39021" stroke-width="0.5" stroke="black" fill="magenta"/>
  <circle cx="573.911" cy="397.71" r="5.0439" stroke-width="0.5" stroke="black" fill="magenta"/>
   </g>
   <g id="cell150">
  <circle cx="410.931" cy="581.297" r="8.33786" stroke-width="0.5" stroke="black" fill="green"/>
  <circle cx="410.931" cy="581.297" r="5.02297" stroke-width="0.5" stroke="black" fill="green"/>
   </g>
   <g id="cell151">
  <circle cx="420.508" cy="529.01" r="8.38454" stroke-width="0.5" stroke="black" fill="green"/>
  <circle cx="420.508" cy="529.01" r="5.04168" stroke-width="0.5" stroke="black" fill="green"/>
   </g>
   <g id="cell152">
  <circle cx="373.089" cy="578.948" r="8.37025" stroke-width="0.5" stroke="black" fill="green"/>
  <circle cx="373.089" cy="578.948" r="5.03659" stroke-width="0.5" stroke="black" fill="green"/>
   </g>
   <g id="cell153">
  <circle cx="560.699" cy="463.554" r="8.38118" stroke-width="0.5" stroke="black" fill="cyan"/>
  <circle cx="560.699" cy="463.554" r="5.04034" stroke-width="0.5" stroke="black" fill="cyan"/>
   </g>
   <g id="cell154">
  <circle cx="387.028" cy="598.509" r="8.35894" stroke-width="0.5" stroke="black" fill="green"/>
  <circle cx="387.028" cy="598.509" r="5.03239" stroke-width="0.5" stroke="black" fill="green"/>
   </g>
   <g id="cell155">
  <circle cx="488.115" cy="582.844" r="8.37935" stroke-width="0.5" stroke="black" fill="green"/>
  <circle cx="488.115" cy="582.844" r="5.0396" stroke-width="0.5" stroke="black" fill="green"/>
   </g>
   <g id="cell156">
  <circle cx="455.737" cy="526.437" r="8.37928" stroke-width="0.5" stroke="black" fill="magenta"/>
  <circle cx="455.737" cy="526.437" r="5.03958" stroke-width="0.5" stroke="black" fill="magenta"/>
   </g>
   <g id="cell157">
  <circle cx="442.561" cy="519.256" r="8.35958" stroke-width="0.5" stroke="black" fill="magenta"/>
  <circle cx="442.561" cy="519.256" r="5.03231" stroke-width="0.5" stroke="black" fill="magenta"/>
   </g>
   <g id="cell158">
  <circle cx="565.727" cy="411.509" r="8.36562" stroke-width="0.5" stroke="black" fill="green"/>
  <circle cx="565.727" cy="411.509" r="5.03487" stroke-width="0.5" stroke="black" fill="green"/>
   </g>
   <g id="cell159">
  <circle cx="530.685" cy="397.026" r="7.85845" stroke-width="0.5" stroke="black" fill="green"/>
  <circle cx="530.685" cy="397.026" r="4.78385" stroke-width="0.5" stroke="black" fill="green"/>
   </g>
   <g id="cell160">
  <circle cx="464.266" cy="375.193" r="8.36958" stroke-width="0.5" stroke="black" fill="green"/>
  <circle cx="464.266" cy="375.193" r="5.03578" stroke-width="0.5" stroke="black" fill="green"/>
   </g>
   <g id="cell165">
  <circle cx="608.085" cy="526.361" r="7.96161" stroke-width="0.5" stroke="black" fill="magenta"/>
  <circle cx="608.085" cy="526.361" r="4.83353" stroke-width="0.5" stroke="black" fill="magenta"/>
   </g>
   <g id="cell166">
  <circle cx="480.923" cy="457.828" r="8.33207" stroke-width="0.5" stroke="black" fill="magenta"/>
  <circle cx="480.923" cy="457.828" r="5.01929" stroke-width="0.5" stroke="black" fill="magenta"/>
   </g>
   <g id="cell167">
  <circle cx="421.612" cy="392.647" r="8.32291" stroke-width="0.5" stroke="black" fill="green"/>
  <circle cx="421.612" cy="392.647" r="5.01502" stroke-width="0.5" stroke="black" fill="green"/>
   </g>
   <g id="cell170">
  <circle cx="460.271" cy="503.252" r="8.3031" stroke-width="0.5" stroke="black" fill="green"/>
  <circle cx="460.271" cy="503.252" r="5.00583" stroke-width="0.5" stroke="black" fill="green"/>
   </g>
   <g id="cell171">
  <circle cx="600.092" cy="480.147" r="8.28262" stroke-width="0.5" stroke="black" fill="cyan"/>
  <circle cx="600.092" cy="480.147" r="4.9961" stroke-width="0.5" stroke="black" fill="cyan"/>
   </g>
   <g id="cell172">
  <circle cx="550.498" cy="502.366" r="8.17118" stroke-width="0.5" stroke="black" fill="magenta"/>
  <circle cx="550.498" cy="502.366" r="4.94581" stroke-width="0.5" stroke="black" fill="magenta"/>
   </g>
   <g id="cell173">
  <circle cx="530.646" cy="520.904" r="8.26348" stroke-width="0.5" stroke="black" fill="cyan"/>
  <circle cx="530.646" cy="520.904" r="4.98747" stroke-width="0.5" stroke="black" fill="cyan"/>
   </g>
   <g id="cell174">
  <circle cx="496.914" cy="442.035" r="6.57681" stroke-width="0.5" stroke="black" fill="cyan"/>
  <circle cx="496.914" cy="442.035" r="3.9704" stroke-width="0.5" stroke="black" fill="cyan"/>
   </g>
   <g id="cell175">
  <circle cx="524.448" cy="607.154" r="7.66447" stroke-width="0.5" stroke="black" fill="green"/>
  <circle cx="524.448" cy="607.154" r="4.68005" stroke-width="0.5" stroke="black" fill="green"/>
   </g>
   <g id="cell176">
  <circle cx="557.2" cy="424.952" r="8.23389" stroke-width="0.5" stroke="black" fill="green"/>
  <circle cx="557.2" cy="424.952" r="4.97554" stroke-width="0.5" stroke="black" fill="green"/>
   </g>
   <g id="cell177">
  <circle cx="369.201" cy="564.004" r="8.12027" stroke-width="0.5" stroke="black" fill="cyan"/>
  <circle cx="369.201" cy="564.004" r="4.92038" stroke-width="0.5" stroke="black" fill="cyan"/>
   </g>
   <g id="cell178">
  <circle cx="562.309" cy="508.255" r="6.88353" stroke-width="0.5" stroke="black" fill="magenta"/>
  <circle cx="562.309" cy="508.255" r="4.20124" stroke-width="0.5" stroke="black" fill="magenta"/>
   </g>
   <g id="cell179">
  <circle cx="516.056" cy="517.118" r="8.23875" stroke-width="0.5" stroke="black" fill="cyan"/>
  <circle cx="516.056" cy="517.118" r="4.97484" stroke-width="0.5" stroke="black" fill="cyan"/>
   </g>
   <g id="cell180">
  <circle cx="619.759" cy="503.469" r="8.22925" stroke-width="0.5" stroke="black" fill="green"/>
  <circle cx="619.759" cy="503.469" r="4.96993" stroke-width="0.5" stroke="black" fill="green"/>
   </g>
   <g id="cell181">
  <circle cx="563.024" cy="528.613" r="4.50167" stroke-width="0.5" stroke="black" fill="cyan"/>
  <circle cx="563.024" cy="528.613" r="3.10468" stroke-width="0.5" stroke="black" fill="black"/>
   </g>
   <g id="cell182">
  <circle cx="533.79" cy="382.103" r="8.19823" stroke-width="0.5" stroke="black" fill="green"/>
  <circle cx="533.79" cy="382.103" r="4.95795" stroke-width="0.5" stroke="black" fill="green"/>
   </g>
   <g id="cell183">
  <circle cx="575.807" cy="511.536" r="8.21839" stroke-width="0.5" stroke="black" fill="magenta"/>
  <circle cx="575.807" cy="511.536" r="4.96448" stroke-width="0.5" stroke="black" fill="magenta"/>
   </g>
   <g id="cell184">
  <circle cx="432.471" cy="430.098" r="7.8967" stroke-width="0.5" stroke="black" fill="magenta"/>
  <circle cx="432.471" cy="430.098" r="4.80409" stroke-width="0.5" stroke="black" fill="magenta"/>
   </g>
   <g id="cell187">
  <circle cx="499.182" cy="497.16" r="8.18171" stroke-width="0.5" stroke="black" fill="cyan"/>
  <circle cx="499.182" cy="497.16" r="4.94583" stroke-width="0.5" stroke="black" fill="cyan"/>
   </g>
   <g id="cell188">
  <circle cx="533.89" cy="618.447" r="8.06022" stroke-width="0.5" stroke="black" fill="green"/>
  <circle cx="533.89" cy="618.447" r="4.88937" stroke-width="0.5" stroke="black" fill="green"/>
   </g>
   <g id="cell189">
  <circle cx="535.476" cy="475.939" r="8.12627" stroke-width="0.5" stroke="black" fill="cyan"/>
  <circle cx="535.476" cy="475.939" r="4.91777" stroke-width="0.5" stroke="black" fill="cyan"/>
   </g>
   <g id="cell190">
  <circle cx="546.54" cy="527.929" r="7.9896" stroke-width="0.5" stroke="black" fill="cyan"/>
  <circle cx="546.54" cy="527.929" r="4.85657" stroke-width="0.5" stroke="black" fill="cyan"/>
   </g>
   <g id="cell191">
  <circle cx="503.239" cy="477.339" r="8.11217" stroke-width="0.5" stroke="black" fill="magenta"/>
  <circle cx="503.239" cy="477.339" r="4.9113" stroke-width="0.5" stroke="black" fill="magenta"/>
   </g>
   <g id="cell192">
  <circle cx="474.292" cy="432.898" r="8.03374" stroke-width="0.5" stroke="black" fill="magenta"/>
  <circle cx="474.292" cy="432.898" r="4.8677" stroke-width="0.5" stroke="black" fill="magenta"/>
   </g>
   <g id="cell193">
  <circle cx="438.859" cy="417.365" r="7.8967" stroke-width="0.5" stroke="black" fill="magenta"/>
  <circle cx="438.859" cy="417.365" r="4.80409" stroke-width="0.5" stroke="black" fill="magenta"/>
   </g>
   <g id="cell194">
  <circle cx="601.502" cy="513.674" r="7.96161" stroke-width="0.5" stroke="black" fill="magenta"/>
  <circle cx="601.502" cy="513.674" r="4.83353" stroke-width="0.5" stroke="black" fill="magenta"/>
   </g>
   <g id="cell195">
  <circle cx="544.128" cy="393.174" r="7.85845" stroke-width="0.5" stroke="black" fill="green"/>
  <circle cx="544.128" cy="393.174" r="4.78385" stroke-width="0.5" stroke="black" fill="green"/>
   </g>
   <g id="cell196">
  <circle cx="459.814" cy="435.345" r="7.96352" stroke-width="0.5" stroke="black" fill="cyan"/>
  <circle cx="459.814" cy="435.345" r="4.8287" stroke-width="0.5" stroke="black" fill="cyan"/>
   </g>
   <g id="cell197">
  <circle cx="549.1" cy="617.52" r="7.94925" stroke-width="0.5" stroke="black" fill="green"/>
  <circle cx="549.1" cy="617.52" r="4.82106" stroke-width="0.5" stroke="black" fill="green"/>
   </g>
   <g id="cell198">
  <circle cx="424.983" cy="418.279" r="7.75837" stroke-width="0.5" stroke="black" fill="magenta"/>
  <circle cx="424.983" cy="418.279" r="4.72719" stroke-width="0.5" stroke="black" fill="magenta"/>
   </g>
   <g id="cell199">
  <circle cx="534.705" cy="597.06" r="7.66447" stroke-width="0.5" stroke="black" fill="green"/>
  <circle cx="534.705" cy="597.06" r="4.68005" stroke-width="0.5" stroke="black" fill="green"/>
   </g>
   <g id="cell200">
  <circle cx="446.442" cy="429.515" r="7.78131" stroke-width="0.5" stroke="black" fill="magenta"/>
  <circle cx="446.442" cy="429.515" r="4.72869" stroke-width="0.5" stroke="black" fill="magenta"/>
   </g>
   <g id="cell202">
  <circle cx="402.927" cy="607.206" r="7.67987" stroke-width="0.5" stroke="black" fill="cyan"/>
  <circle cx="402.927" cy="607.206" r="4.66617" stroke-width="0.5" stroke="black" fill="cyan"/>
   </g>
   <g id="cell203">
  <circle cx="359.603" cy="537.32" r="7.56607" stroke-width="0.5" stroke="black" fill="cyan"/>
  <circle cx="359.603" cy="537.32" r="4.61259" stroke-width="0.5" stroke="black" fill="cyan"/>
   </g>
   <g id="cell204">
  <circle cx="572.59" cy="488.423" r="7.57369" stroke-width="0.5" stroke="black" fill="magenta"/>
  <circle cx="572.59" cy="488.423" r="4.61632" stroke-width="0.5" stroke="black" fill="magenta"/>
   </g>
   <g id="cell205">
  <circle cx="427.391" cy="477.374" r="7.49427" stroke-width="0.5" stroke="black" fill="green"/>
  <circle cx="427.391" cy="477.374" r="4.55541" stroke-width="0.5" stroke="black" fill="green"/>
   </g>
   <g id="cell206">
  <circle cx="465.563" cy="624.024" r="7.33129" stroke-width="0.5" stroke="black" fill="magenta"/>
  <circle cx="465.563" cy="624.024" r="4.45516" stroke-width="0.5" stroke="black" fill="magenta"/>
   </g>
   <g id="cell207">
  <circle cx="622.567" cy="469.932" r="7.29987" stroke-width="0.5" stroke="black" fill="green"/>
  <circle cx="622.567" cy="469.932" r="4.43626" stroke-width="0.5" stroke="black" fill="green"/>
   </g>
   <g id="cell208">
  <circle cx="588.246" cy="554.45" r="7.09829" stroke-width="0.5" stroke="black" fill="cyan"/>
  <circle cx="588.246" cy="554.45" r="4.33358" stroke-width="0.5" stroke="black" fill="cyan"/>
   </g>
   <g id="cell209">
  <circle cx="441.523" cy="351.31" r="7.14611" stroke-width="0.5" stroke="black" fill="green"/>
  <circle cx="441.523" cy="351.31" r="4.33892" stroke-width="0.5" stroke="black" fill="green"/>
   </g>
   <g id="cell210">
  <circle cx="655.312" cy="538.698" r="7.14965" stroke-width="0.5" stroke="black" fill="green"/>
  <circle cx="655.312" cy="538.698" r="4.34" stroke-width="0.5" stroke="black" fill="green"/>
   </g>
   <g id="cell213">
  <circle cx="554.032" cy="384.506" r="6.74548" stroke-width="0.5" stroke="black" fill="green"/>
  <circle cx="554.032" cy="384.506" r="4.06456" stroke-width="0.5" stroke="black" fill="green"/>
   </g>
   <g id="cell214">
  <circle cx="501.991" cy="432.646" r="6.57681" stroke-width="0.5" stroke="black" fill="cyan"/>
  <circle cx="501.991" cy="432.646" r="3.9704" stroke-width="0.5" stroke="black" fill="cyan"/>
   </g>
   <g id="cell215">
  <circle cx="435.589" cy="530.398" r="6.65091" stroke-width="0.5" stroke="black" fill="magenta"/>
  <circle cx="435.589" cy="530.398" r="4.00523" stroke-width="0.5" stroke="black" fill="magenta"/>
   </g>
  </g>
 </g>
  <rect x="775" y="1035" width="200" height="10" stroke-width="2" stroke="rgb(255,255,255)" fill="rgb(0,0,0)"/>
  <text x="781.25" y="1028.75"
   font-family="Arial" font-size="25" fill="black" >
   200 &#956;m
  </text>
  <text x="25" y="1045"
   font-family="Arial" font-size="18.75" fill="black" >
   0 days, 0 hours, 0 minutes, and 48.2845 seconds
  </text>
  <rect x="0" y="70" width="1000" height="1000" stroke-width="2" stroke="rgb(0,0,0)" fill="none"/>
</svg>
