<?xml version="1.0" encoding="UTF-8" standalone="no"?>
<!-- Created with PhysiCell (http://PhysiCell.MathCancer.org/) -->
<svg 
 xmlns:dc="http://purl.org/dc/elements/1.1/" 
 xmlns:cc="http://creativecommons.org/ns#" 
 xmlns:rdf="http://www.w3.org/1999/02/22-rdf-syntax-ns#" 
 xmlns:svg="http://www.w3.org/2000/svg" 
 xmlns="http://www.w3.org/2000/svg" 
 version="1.1" 
 width="1000" 
 height="1070" 
 id="svg2">
  <rect x="0" y="0" width="1000" height="1070" stroke-width="2" stroke="white" fill="white"/>
  <text x="12.5" y="30"
   font-family="Arial" font-size="25" fill="black" >
   Current time: 0 days, 21 hours, and 24.00 minutes, z = 0.00 &#956;m
  </text>
  <text x="12.5" y="57.5"
   font-family="Arial" font-size="23.75" fill="black" >
   141 agents
  </text>
 <g id="tissue" 
    transform="translate(0,1070) scale(1,-1)">
  <g id="ECM">
  </g>
  <g id="cells">
   <g id="cell0">
  <circle cx="513.986" cy="535.338" r="8.39473" stroke-width="0.5" stroke="black" fill="magenta"/>
  <circle cx="513.986" cy="535.338" r="5.04562" stroke-width="0.5" stroke="black" fill="magenta"/>
   </g>
   <g id="cell1">
  <circle cx="601.633" cy="523.665" r="8.41271" stroke-width="0.5" stroke="black" fill="magenta"/>
  <circle cx="601.633" cy="523.665" r="5.05167" stroke-width="0.5" stroke="black" fill="magenta"/>
   </g>
   <g id="cell2">
  <circle cx="516.953" cy="596.735" r="8.41271" stroke-width="0.5" stroke="black" fill="magenta"/>
  <circle cx="516.953" cy="596.735" r="5.05167" stroke-width="0.5" stroke="black" fill="magenta"/>
   </g>
   <g id="cell3">
  <circle cx="523.652" cy="548.13" r="8.3833" stroke-width="0.5" stroke="black" fill="magenta"/>
  <circle cx="523.652" cy="548.13" r="5.04161" stroke-width="0.5" stroke="black" fill="magenta"/>
   </g>
   <g id="cell4">
  <circle cx="488.007" cy="446.281" r="7.98484" stroke-width="0.5" stroke="black" fill="magenta"/>
  <circle cx="488.007" cy="446.281" r="4.84144" stroke-width="0.5" stroke="black" fill="magenta"/>
   </g>
   <g id="cell5">
  <circle cx="465.032" cy="493.3" r="8.41271" stroke-width="0.5" stroke="black" fill="magenta"/>
  <circle cx="465.032" cy="493.3" r="5.05167" stroke-width="0.5" stroke="black" fill="magenta"/>
   </g>
   <g id="cell6">
  <circle cx="596.917" cy="515.113" r="2.42814" stroke-width="0.5" stroke="black" fill="magenta"/>
  <circle cx="596.917" cy="515.113" r="2.17648" stroke-width="0.5" stroke="black" fill="black"/>
   </g>
   <g id="cell7">
  <circle cx="495.949" cy="458.29" r="8.27097" stroke-width="0.5" stroke="black" fill="magenta"/>
  <circle cx="495.949" cy="458.29" r="4.99048" stroke-width="0.5" stroke="black" fill="magenta"/>
   </g>
   <g id="cell8">
  <circle cx="376.39" cy="542.771" r="8.41271" stroke-width="0.5" stroke="black" fill="magenta"/>
  <circle cx="376.39" cy="542.771" r="5.05167" stroke-width="0.5" stroke="black" fill="magenta"/>
   </g>
   <g id="cell9">
  <circle cx="460.472" cy="599.786" r="2.5701" stroke-width="0.5" stroke="black" fill="magenta"/>
  <circle cx="460.472" cy="599.786" r="2.25579" stroke-width="0.5" stroke="black" fill="black"/>
   </g>
   <g id="cell10">
  <circle cx="583.447" cy="392.105" r="8.41271" stroke-width="0.5" stroke="black" fill="magenta"/>
  <circle cx="583.447" cy="392.105" r="5.05167" stroke-width="0.5" stroke="black" fill="magenta"/>
   </g>
   <g id="cell11">
  <circle cx="592.009" cy="590.051" r="8.41271" stroke-width="0.5" stroke="black" fill="magenta"/>
  <circle cx="592.009" cy="590.051" r="5.05167" stroke-width="0.5" stroke="black" fill="magenta"/>
   </g>
   <g id="cell12">
  <circle cx="503.444" cy="593.073" r="7.21189" stroke-width="0.5" stroke="black" fill="magenta"/>
  <circle cx="503.444" cy="593.073" r="4.37993" stroke-width="0.5" stroke="black" fill="magenta"/>
   </g>
   <g id="cell13">
  <circle cx="386.194" cy="568.228" r="8.41271" stroke-width="0.5" stroke="black" fill="magenta"/>
  <circle cx="386.194" cy="568.228" r="5.05167" stroke-width="0.5" stroke="black" fill="magenta"/>
   </g>
   <g id="cell14">
  <circle cx="528.517" cy="401.383" r="8.41271" stroke-width="0.5" stroke="black" fill="magenta"/>
  <circle cx="528.517" cy="401.383" r="5.05167" stroke-width="0.5" stroke="black" fill="magenta"/>
   </g>
   <g id="cell15">
  <circle cx="384.316" cy="477.295" r="7.7401" stroke-width="0.5" stroke="black" fill="magenta"/>
  <circle cx="384.316" cy="477.295" r="4.70142" stroke-width="0.5" stroke="black" fill="magenta"/>
   </g>
   <g id="cell16">
  <circle cx="432.91" cy="413.705" r="6.73287" stroke-width="0.5" stroke="black" fill="magenta"/>
  <circle cx="432.91" cy="413.705" r="4.05039" stroke-width="0.5" stroke="black" fill="magenta"/>
   </g>
   <g id="cell17">
  <circle cx="570.711" cy="491.493" r="8.41271" stroke-width="0.5" stroke="black" fill="magenta"/>
  <circle cx="570.711" cy="491.493" r="5.05167" stroke-width="0.5" stroke="black" fill="magenta"/>
   </g>
   <g id="cell18">
  <circle cx="518.494" cy="389.946" r="8.41271" stroke-width="0.5" stroke="black" fill="magenta"/>
  <circle cx="518.494" cy="389.946" r="5.05167" stroke-width="0.5" stroke="black" fill="magenta"/>
   </g>
   <g id="cell19">
  <circle cx="459.961" cy="540.59" r="8.26788" stroke-width="0.5" stroke="black" fill="magenta"/>
  <circle cx="459.961" cy="540.59" r="4.9905" stroke-width="0.5" stroke="black" fill="magenta"/>
   </g>
   <g id="cell20">
  <circle cx="531.13" cy="416.49" r="8.41271" stroke-width="0.5" stroke="black" fill="magenta"/>
  <circle cx="531.13" cy="416.49" r="5.05167" stroke-width="0.5" stroke="black" fill="magenta"/>
   </g>
   <g id="cell21">
  <circle cx="466.391" cy="632.716" r="8.41271" stroke-width="0.5" stroke="black" fill="magenta"/>
  <circle cx="466.391" cy="632.716" r="5.05167" stroke-width="0.5" stroke="black" fill="magenta"/>
   </g>
   <g id="cell22">
  <circle cx="555.729" cy="494.285" r="8.41271" stroke-width="0.5" stroke="black" fill="magenta"/>
  <circle cx="555.729" cy="494.285" r="5.05167" stroke-width="0.5" stroke="black" fill="magenta"/>
   </g>
   <g id="cell23">
  <circle cx="545.864" cy="482.753" r="8.41271" stroke-width="0.5" stroke="black" fill="magenta"/>
  <circle cx="545.864" cy="482.753" r="5.05167" stroke-width="0.5" stroke="black" fill="magenta"/>
   </g>
   <g id="cell24">
  <circle cx="558.815" cy="381.52" r="8.41271" stroke-width="0.5" stroke="black" fill="magenta"/>
  <circle cx="558.815" cy="381.52" r="5.05167" stroke-width="0.5" stroke="black" fill="magenta"/>
   </g>
   <g id="cell25">
  <circle cx="648.012" cy="543.365" r="8.40154" stroke-width="0.5" stroke="black" fill="green"/>
  <circle cx="648.012" cy="543.365" r="5.04811" stroke-width="0.5" stroke="black" fill="green"/>
   </g>
   <g id="cell26">
  <circle cx="555.265" cy="396.573" r="8.26685" stroke-width="0.5" stroke="black" fill="green"/>
  <circle cx="555.265" cy="396.573" r="4.98849" stroke-width="0.5" stroke="black" fill="green"/>
   </g>
   <g id="cell27">
  <circle cx="465.447" cy="396.728" r="8.40576" stroke-width="0.5" stroke="black" fill="green"/>
  <circle cx="465.447" cy="396.728" r="5.04957" stroke-width="0.5" stroke="black" fill="green"/>
   </g>
   <g id="cell28">
  <circle cx="432.884" cy="530.74" r="8.41271" stroke-width="0.5" stroke="black" fill="green"/>
  <circle cx="432.884" cy="530.74" r="5.05167" stroke-width="0.5" stroke="black" fill="green"/>
   </g>
   <g id="cell29">
  <circle cx="450.48" cy="515.847" r="8.41271" stroke-width="0.5" stroke="black" fill="green"/>
  <circle cx="450.48" cy="515.847" r="5.05167" stroke-width="0.5" stroke="black" fill="green"/>
   </g>
   <g id="cell30">
  <circle cx="485.394" cy="535.048" r="7.03503" stroke-width="0.5" stroke="black" fill="green"/>
  <circle cx="485.394" cy="535.048" r="4.27051" stroke-width="0.5" stroke="black" fill="green"/>
   </g>
   <g id="cell31">
  <circle cx="412.807" cy="541.561" r="8.41271" stroke-width="0.5" stroke="black" fill="green"/>
  <circle cx="412.807" cy="541.561" r="5.05167" stroke-width="0.5" stroke="black" fill="green"/>
   </g>
   <g id="cell32">
  <circle cx="421.367" cy="481.396" r="3.6509" stroke-width="0.5" stroke="black" fill="green"/>
  <circle cx="421.367" cy="481.396" r="2.74303" stroke-width="0.5" stroke="black" fill="black"/>
   </g>
   <g id="cell33">
  <circle cx="502.907" cy="425.052" r="6.86652" stroke-width="0.5" stroke="black" fill="green"/>
  <circle cx="502.907" cy="425.052" r="4.14883" stroke-width="0.5" stroke="black" fill="green"/>
   </g>
   <g id="cell34">
  <circle cx="396.819" cy="450.575" r="3.9178" stroke-width="0.5" stroke="black" fill="green"/>
  <circle cx="396.819" cy="450.575" r="2.85647" stroke-width="0.5" stroke="black" fill="black"/>
   </g>
   <g id="cell35">
  <circle cx="553.404" cy="543.194" r="8.41271" stroke-width="0.5" stroke="black" fill="green"/>
  <circle cx="553.404" cy="543.194" r="5.05167" stroke-width="0.5" stroke="black" fill="green"/>
   </g>
   <g id="cell36">
  <circle cx="391.486" cy="582.903" r="8.41271" stroke-width="0.5" stroke="black" fill="green"/>
  <circle cx="391.486" cy="582.903" r="5.05167" stroke-width="0.5" stroke="black" fill="green"/>
   </g>
   <g id="cell37">
  <circle cx="639.991" cy="457.653" r="8.40472" stroke-width="0.5" stroke="black" fill="green"/>
  <circle cx="639.991" cy="457.653" r="5.04922" stroke-width="0.5" stroke="black" fill="green"/>
   </g>
   <g id="cell38">
  <circle cx="530.288" cy="588.909" r="8.40327" stroke-width="0.5" stroke="black" fill="green"/>
  <circle cx="530.288" cy="588.909" r="5.04872" stroke-width="0.5" stroke="black" fill="green"/>
   </g>
   <g id="cell39">
  <circle cx="613.652" cy="490.377" r="8.41271" stroke-width="0.5" stroke="black" fill="green"/>
  <circle cx="613.652" cy="490.377" r="5.05167" stroke-width="0.5" stroke="black" fill="green"/>
   </g>
   <g id="cell40">
  <circle cx="485.334" cy="571.668" r="8.41271" stroke-width="0.5" stroke="black" fill="green"/>
  <circle cx="485.334" cy="571.668" r="5.05167" stroke-width="0.5" stroke="black" fill="green"/>
   </g>
   <g id="cell41">
  <circle cx="364.114" cy="481.385" r="8.41271" stroke-width="0.5" stroke="black" fill="green"/>
  <circle cx="364.114" cy="481.385" r="5.05167" stroke-width="0.5" stroke="black" fill="green"/>
   </g>
   <g id="cell42">
  <circle cx="438.801" cy="494.062" r="8.41271" stroke-width="0.5" stroke="black" fill="green"/>
  <circle cx="438.801" cy="494.062" r="5.05167" stroke-width="0.5" stroke="black" fill="green"/>
   </g>
   <g id="cell43">
  <circle cx="560.951" cy="440.646" r="8.41271" stroke-width="0.5" stroke="black" fill="green"/>
  <circle cx="560.951" cy="440.646" r="5.05167" stroke-width="0.5" stroke="black" fill="green"/>
   </g>
   <g id="cell44">
  <circle cx="473.834" cy="625.879" r="2.5701" stroke-width="0.5" stroke="black" fill="green"/>
  <circle cx="473.834" cy="625.879" r="2.25579" stroke-width="0.5" stroke="black" fill="black"/>
   </g>
   <g id="cell45">
  <circle cx="414.902" cy="556.698" r="1.20653" stroke-width="0.5" stroke="black" fill="green"/>
  <circle cx="414.902" cy="556.698" r="1.20179" stroke-width="0.5" stroke="black" fill="black"/>
   </g>
   <g id="cell46">
  <circle cx="520.914" cy="612.9" r="8.34884" stroke-width="0.5" stroke="black" fill="green"/>
  <circle cx="520.914" cy="612.9" r="5.02667" stroke-width="0.5" stroke="black" fill="green"/>
   </g>
   <g id="cell47">
  <circle cx="504.544" cy="495.11" r="8.37321" stroke-width="0.5" stroke="black" fill="green"/>
  <circle cx="504.544" cy="495.11" r="5.03708" stroke-width="0.5" stroke="black" fill="green"/>
   </g>
   <g id="cell48">
  <circle cx="571.079" cy="604.697" r="8.26502" stroke-width="0.5" stroke="black" fill="green"/>
  <circle cx="571.079" cy="604.697" r="4.99072" stroke-width="0.5" stroke="black" fill="green"/>
   </g>
   <g id="cell49">
  <circle cx="432.939" cy="397.721" r="8.41271" stroke-width="0.5" stroke="black" fill="green"/>
  <circle cx="432.939" cy="397.721" r="5.05167" stroke-width="0.5" stroke="black" fill="green"/>
   </g>
   <g id="cell50">
  <circle cx="512.779" cy="508.431" r="8.20406" stroke-width="0.5" stroke="black" fill="cyan"/>
  <circle cx="512.779" cy="508.431" r="4.9587" stroke-width="0.5" stroke="black" fill="cyan"/>
   </g>
   <g id="cell51">
  <circle cx="398.721" cy="597.201" r="8.41271" stroke-width="0.5" stroke="black" fill="cyan"/>
  <circle cx="398.721" cy="597.201" r="5.05167" stroke-width="0.5" stroke="black" fill="cyan"/>
   </g>
   <g id="cell52">
  <circle cx="516.947" cy="422.607" r="8.41271" stroke-width="0.5" stroke="black" fill="cyan"/>
  <circle cx="516.947" cy="422.607" r="5.05167" stroke-width="0.5" stroke="black" fill="cyan"/>
   </g>
   <g id="cell53">
  <circle cx="572.269" cy="429.467" r="8.35882" stroke-width="0.5" stroke="black" fill="cyan"/>
  <circle cx="572.269" cy="429.467" r="5.031" stroke-width="0.5" stroke="black" fill="cyan"/>
   </g>
   <g id="cell54">
  <circle cx="481.444" cy="421.26" r="8.38028" stroke-width="0.5" stroke="black" fill="cyan"/>
  <circle cx="481.444" cy="421.26" r="5.03997" stroke-width="0.5" stroke="black" fill="cyan"/>
   </g>
   <g id="cell55">
  <circle cx="521.523" cy="463.779" r="8.36141" stroke-width="0.5" stroke="black" fill="cyan"/>
  <circle cx="521.523" cy="463.779" r="5.03263" stroke-width="0.5" stroke="black" fill="cyan"/>
   </g>
   <g id="cell56">
  <circle cx="617.191" cy="522.395" r="8.41271" stroke-width="0.5" stroke="black" fill="cyan"/>
  <circle cx="617.191" cy="522.395" r="5.05167" stroke-width="0.5" stroke="black" fill="cyan"/>
   </g>
   <g id="cell105">
  <circle cx="508.083" cy="607.414" r="6.65814" stroke-width="0.5" stroke="black" fill="green"/>
  <circle cx="508.083" cy="607.414" r="4.05356" stroke-width="0.5" stroke="black" fill="green"/>
   </g>
   <g id="cell58">
  <circle cx="560.885" cy="479.477" r="8.41271" stroke-width="0.5" stroke="black" fill="cyan"/>
  <circle cx="560.885" cy="479.477" r="5.05167" stroke-width="0.5" stroke="black" fill="cyan"/>
   </g>
   <g id="cell59">
  <circle cx="385.732" cy="440.058" r="8.41271" stroke-width="0.5" stroke="black" fill="cyan"/>
  <circle cx="385.732" cy="440.058" r="5.05167" stroke-width="0.5" stroke="black" fill="cyan"/>
   </g>
   <g id="cell60">
  <circle cx="592.134" cy="473.806" r="8.41271" stroke-width="0.5" stroke="black" fill="cyan"/>
  <circle cx="592.134" cy="473.806" r="5.05167" stroke-width="0.5" stroke="black" fill="cyan"/>
   </g>
   <g id="cell61">
  <circle cx="557.528" cy="622.475" r="8.41271" stroke-width="0.5" stroke="black" fill="cyan"/>
  <circle cx="557.528" cy="622.475" r="5.05167" stroke-width="0.5" stroke="black" fill="cyan"/>
   </g>
   <g id="cell62">
  <circle cx="514.022" cy="437.961" r="8.09179" stroke-width="0.5" stroke="black" fill="cyan"/>
  <circle cx="514.022" cy="437.961" r="4.89945" stroke-width="0.5" stroke="black" fill="cyan"/>
   </g>
   <g id="cell63">
  <circle cx="582.039" cy="542.923" r="7.66815" stroke-width="0.5" stroke="black" fill="cyan"/>
  <circle cx="582.039" cy="542.923" r="4.662" stroke-width="0.5" stroke="black" fill="cyan"/>
   </g>
   <g id="cell64">
  <circle cx="509.721" cy="639.335" r="8.41271" stroke-width="0.5" stroke="black" fill="cyan"/>
  <circle cx="509.721" cy="639.335" r="5.05167" stroke-width="0.5" stroke="black" fill="cyan"/>
   </g>
   <g id="cell65">
  <circle cx="550.009" cy="467.749" r="8.39083" stroke-width="0.5" stroke="black" fill="cyan"/>
  <circle cx="550.009" cy="467.749" r="5.04414" stroke-width="0.5" stroke="black" fill="cyan"/>
   </g>
   <g id="cell66">
  <circle cx="529.467" cy="533.505" r="8.3784" stroke-width="0.5" stroke="black" fill="cyan"/>
  <circle cx="529.467" cy="533.505" r="5.03921" stroke-width="0.5" stroke="black" fill="cyan"/>
   </g>
   <g id="cell67">
  <circle cx="353.836" cy="493.666" r="8.41271" stroke-width="0.5" stroke="black" fill="cyan"/>
  <circle cx="353.836" cy="493.666" r="5.05167" stroke-width="0.5" stroke="black" fill="cyan"/>
   </g>
   <g id="cell68">
  <circle cx="563.144" cy="555.483" r="8.41271" stroke-width="0.5" stroke="black" fill="cyan"/>
  <circle cx="563.144" cy="555.483" r="5.05167" stroke-width="0.5" stroke="black" fill="cyan"/>
   </g>
   <g id="cell69">
  <circle cx="442.14" cy="460.497" r="8.41271" stroke-width="0.5" stroke="black" fill="cyan"/>
  <circle cx="442.14" cy="460.497" r="5.05167" stroke-width="0.5" stroke="black" fill="cyan"/>
   </g>
   <g id="cell70">
  <circle cx="576.47" cy="476.887" r="8.41271" stroke-width="0.5" stroke="black" fill="cyan"/>
  <circle cx="576.47" cy="476.887" r="5.05167" stroke-width="0.5" stroke="black" fill="cyan"/>
   </g>
   <g id="cell71">
  <circle cx="380.194" cy="527.776" r="8.28629" stroke-width="0.5" stroke="black" fill="cyan"/>
  <circle cx="380.194" cy="527.776" r="4.99786" stroke-width="0.5" stroke="black" fill="cyan"/>
   </g>
   <g id="cell72">
  <circle cx="528.467" cy="508.328" r="8.38118" stroke-width="0.5" stroke="black" fill="cyan"/>
  <circle cx="528.467" cy="508.328" r="5.04034" stroke-width="0.5" stroke="black" fill="cyan"/>
   </g>
   <g id="cell73">
  <circle cx="364.576" cy="552.926" r="8.39523" stroke-width="0.5" stroke="black" fill="cyan"/>
  <circle cx="364.576" cy="552.926" r="5.04581" stroke-width="0.5" stroke="black" fill="cyan"/>
   </g>
   <g id="cell74">
  <circle cx="548.911" cy="433.703" r="2.36767" stroke-width="0.5" stroke="black" fill="cyan"/>
  <circle cx="548.911" cy="433.703" r="2.12858" stroke-width="0.5" stroke="black" fill="black"/>
   </g>
   <g id="cell75">
  <circle cx="529.215" cy="432.627" r="8.40596" stroke-width="0.5" stroke="black" fill="cyan"/>
  <circle cx="529.215" cy="432.627" r="5.04964" stroke-width="0.5" stroke="black" fill="cyan"/>
   </g>
   <g id="cell76">
  <circle cx="442.098" cy="382.375" r="8.30926" stroke-width="0.5" stroke="black" fill="green"/>
  <circle cx="442.098" cy="382.375" r="5.01091" stroke-width="0.5" stroke="black" fill="green"/>
   </g>
   <g id="cell77">
  <circle cx="477.488" cy="436.229" r="8.33325" stroke-width="0.5" stroke="black" fill="magenta"/>
  <circle cx="477.488" cy="436.229" r="5.02026" stroke-width="0.5" stroke="black" fill="magenta"/>
   </g>
   <g id="cell78">
  <circle cx="624.663" cy="462.188" r="8.38682" stroke-width="0.5" stroke="black" fill="green"/>
  <circle cx="624.663" cy="462.188" r="5.04291" stroke-width="0.5" stroke="black" fill="green"/>
   </g>
   <g id="cell79">
  <circle cx="517.095" cy="479.269" r="8.40378" stroke-width="0.5" stroke="black" fill="cyan"/>
  <circle cx="517.095" cy="479.269" r="5.0489" stroke-width="0.5" stroke="black" fill="cyan"/>
   </g>
   <g id="cell80">
  <circle cx="543.101" cy="616.217" r="8.08765" stroke-width="0.5" stroke="black" fill="green"/>
  <circle cx="543.101" cy="616.217" r="4.89807" stroke-width="0.5" stroke="black" fill="green"/>
   </g>
   <g id="cell81">
  <circle cx="545.4" cy="594.287" r="8.39827" stroke-width="0.5" stroke="black" fill="green"/>
  <circle cx="545.4" cy="594.287" r="5.04715" stroke-width="0.5" stroke="black" fill="green"/>
   </g>
   <g id="cell82">
  <circle cx="534.216" cy="557.532" r="6.70281" stroke-width="0.5" stroke="black" fill="magenta"/>
  <circle cx="534.216" cy="557.532" r="4.03155" stroke-width="0.5" stroke="black" fill="magenta"/>
   </g>
   <g id="cell83">
  <circle cx="635.507" cy="552.431" r="7.87215" stroke-width="0.5" stroke="black" fill="green"/>
  <circle cx="635.507" cy="552.431" r="4.77885" stroke-width="0.5" stroke="black" fill="green"/>
   </g>
   <g id="cell84">
  <circle cx="520.628" cy="494.693" r="8.39618" stroke-width="0.5" stroke="black" fill="cyan"/>
  <circle cx="520.628" cy="494.693" r="5.04616" stroke-width="0.5" stroke="black" fill="cyan"/>
   </g>
   <g id="cell85">
  <circle cx="352.495" cy="542.503" r="8.36326" stroke-width="0.5" stroke="black" fill="cyan"/>
  <circle cx="352.495" cy="542.503" r="5.03365" stroke-width="0.5" stroke="black" fill="cyan"/>
   </g>
   <g id="cell86">
  <circle cx="499.184" cy="534.871" r="8.04672" stroke-width="0.5" stroke="black" fill="magenta"/>
  <circle cx="499.184" cy="534.871" r="4.87629" stroke-width="0.5" stroke="black" fill="magenta"/>
   </g>
   <g id="cell87">
  <circle cx="578.741" cy="557.827" r="8.34245" stroke-width="0.5" stroke="black" fill="cyan"/>
  <circle cx="578.741" cy="557.827" r="5.02483" stroke-width="0.5" stroke="black" fill="cyan"/>
   </g>
   <g id="cell88">
  <circle cx="448.39" cy="531.24" r="8.39144" stroke-width="0.5" stroke="black" fill="magenta"/>
  <circle cx="448.39" cy="531.24" r="5.04437" stroke-width="0.5" stroke="black" fill="magenta"/>
   </g>
   <g id="cell89">
  <circle cx="549.343" cy="452.847" r="5.87524" stroke-width="0.5" stroke="black" fill="cyan"/>
  <circle cx="549.343" cy="452.847" r="3.57743" stroke-width="0.5" stroke="black" fill="cyan"/>
   </g>
   <g id="cell90">
  <circle cx="636.159" cy="472.628" r="7.87905" stroke-width="0.5" stroke="black" fill="green"/>
  <circle cx="636.159" cy="472.628" r="4.78443" stroke-width="0.5" stroke="black" fill="green"/>
   </g>
   <g id="cell91">
  <circle cx="547.721" cy="557.546" r="8.36976" stroke-width="0.5" stroke="black" fill="magenta"/>
  <circle cx="547.721" cy="557.546" r="5.03662" stroke-width="0.5" stroke="black" fill="magenta"/>
   </g>
   <g id="cell92">
  <circle cx="483.1" cy="552.126" r="8.38532" stroke-width="0.5" stroke="black" fill="green"/>
  <circle cx="483.1" cy="552.126" r="5.04199" stroke-width="0.5" stroke="black" fill="green"/>
   </g>
   <g id="cell93">
  <circle cx="538.597" cy="545.241" r="8.36976" stroke-width="0.5" stroke="black" fill="magenta"/>
  <circle cx="538.597" cy="545.241" r="5.03662" stroke-width="0.5" stroke="black" fill="magenta"/>
   </g>
   <g id="cell94">
  <circle cx="536.917" cy="495.283" r="8.38118" stroke-width="0.5" stroke="black" fill="cyan"/>
  <circle cx="536.917" cy="495.283" r="5.04034" stroke-width="0.5" stroke="black" fill="cyan"/>
   </g>
   <g id="cell95">
  <circle cx="466.104" cy="425.904" r="8.38028" stroke-width="0.5" stroke="black" fill="cyan"/>
  <circle cx="466.104" cy="425.904" r="5.03997" stroke-width="0.5" stroke="black" fill="cyan"/>
   </g>
   <g id="cell96">
  <circle cx="546.494" cy="530.286" r="7.39342" stroke-width="0.5" stroke="black" fill="cyan"/>
  <circle cx="546.494" cy="530.286" r="4.49883" stroke-width="0.5" stroke="black" fill="cyan"/>
   </g>
   <g id="cell97">
  <circle cx="421.452" cy="466.41" r="8.34708" stroke-width="0.5" stroke="black" fill="green"/>
  <circle cx="421.452" cy="466.41" r="5.02712" stroke-width="0.5" stroke="black" fill="green"/>
   </g>
   <g id="cell98">
  <circle cx="491.037" cy="522.327" r="7.96706" stroke-width="0.5" stroke="black" fill="green"/>
  <circle cx="491.037" cy="522.327" r="4.83449" stroke-width="0.5" stroke="black" fill="green"/>
   </g>
   <g id="cell99">
  <circle cx="358.317" cy="527.679" r="8.36326" stroke-width="0.5" stroke="black" fill="cyan"/>
  <circle cx="358.317" cy="527.679" r="5.03365" stroke-width="0.5" stroke="black" fill="cyan"/>
   </g>
   <g id="cell100">
  <circle cx="449.25" cy="396.511" r="8.36241" stroke-width="0.5" stroke="black" fill="green"/>
  <circle cx="449.25" cy="396.511" r="5.03297" stroke-width="0.5" stroke="black" fill="green"/>
   </g>
   <g id="cell101">
  <circle cx="531.527" cy="481.625" r="7.29757" stroke-width="0.5" stroke="black" fill="cyan"/>
  <circle cx="531.527" cy="481.625" r="4.44206" stroke-width="0.5" stroke="black" fill="cyan"/>
   </g>
   <g id="cell102">
  <circle cx="434.976" cy="474.774" r="8.34708" stroke-width="0.5" stroke="black" fill="green"/>
  <circle cx="434.976" cy="474.774" r="5.02712" stroke-width="0.5" stroke="black" fill="green"/>
   </g>
   <g id="cell103">
  <circle cx="591.203" cy="447.811" r="8.03744" stroke-width="0.5" stroke="black" fill="cyan"/>
  <circle cx="591.203" cy="447.811" r="4.87379" stroke-width="0.5" stroke="black" fill="cyan"/>
   </g>
   <g id="cell104">
  <circle cx="593.681" cy="552.528" r="8.34245" stroke-width="0.5" stroke="black" fill="cyan"/>
  <circle cx="593.681" cy="552.528" r="5.02483" stroke-width="0.5" stroke="black" fill="cyan"/>
   </g>
   <g id="cell106">
  <circle cx="463.422" cy="441.237" r="8.33325" stroke-width="0.5" stroke="black" fill="magenta"/>
  <circle cx="463.422" cy="441.237" r="5.02026" stroke-width="0.5" stroke="black" fill="magenta"/>
   </g>
   <g id="cell107">
  <circle cx="457.638" cy="383.394" r="8.01071" stroke-width="0.5" stroke="black" fill="green"/>
  <circle cx="457.638" cy="383.394" r="4.86284" stroke-width="0.5" stroke="black" fill="green"/>
   </g>
   <g id="cell108">
  <circle cx="555.431" cy="606.665" r="8.32032" stroke-width="0.5" stroke="black" fill="green"/>
  <circle cx="555.431" cy="606.665" r="5.01383" stroke-width="0.5" stroke="black" fill="green"/>
   </g>
   <g id="cell109">
  <circle cx="576.554" cy="589.956" r="8.26502" stroke-width="0.5" stroke="black" fill="green"/>
  <circle cx="576.554" cy="589.956" r="4.99072" stroke-width="0.5" stroke="black" fill="green"/>
   </g>
   <g id="cell110">
  <circle cx="373.649" cy="513.431" r="8.28629" stroke-width="0.5" stroke="black" fill="cyan"/>
  <circle cx="373.649" cy="513.431" r="4.99786" stroke-width="0.5" stroke="black" fill="cyan"/>
   </g>
   <g id="cell111">
  <circle cx="456.534" cy="554.106" r="7.26571" stroke-width="0.5" stroke="black" fill="magenta"/>
  <circle cx="456.534" cy="554.106" r="4.43206" stroke-width="0.5" stroke="black" fill="magenta"/>
   </g>
   <g id="cell112">
  <circle cx="506.844" cy="468.043" r="8.27097" stroke-width="0.5" stroke="black" fill="magenta"/>
  <circle cx="506.844" cy="468.043" r="4.99048" stroke-width="0.5" stroke="black" fill="magenta"/>
   </g>
   <g id="cell113">
  <circle cx="543.05" cy="406.55" r="8.26685" stroke-width="0.5" stroke="black" fill="green"/>
  <circle cx="543.05" cy="406.55" r="4.98849" stroke-width="0.5" stroke="black" fill="green"/>
   </g>
   <g id="cell114">
  <circle cx="524.949" cy="448.306" r="8.16408" stroke-width="0.5" stroke="black" fill="cyan"/>
  <circle cx="524.949" cy="448.306" r="4.94231" stroke-width="0.5" stroke="black" fill="cyan"/>
   </g>
   <g id="cell115">
  <circle cx="537.525" cy="455.063" r="7.46445" stroke-width="0.5" stroke="black" fill="cyan"/>
  <circle cx="537.525" cy="455.063" r="4.56035" stroke-width="0.5" stroke="black" fill="cyan"/>
   </g>
   <g id="cell116">
  <circle cx="520.546" cy="521.463" r="8.20406" stroke-width="0.5" stroke="black" fill="cyan"/>
  <circle cx="520.546" cy="521.463" r="4.9587" stroke-width="0.5" stroke="black" fill="cyan"/>
   </g>
   <g id="cell117">
  <circle cx="509.393" cy="623.526" r="8.1343" stroke-width="0.5" stroke="black" fill="green"/>
  <circle cx="509.393" cy="623.526" r="4.92545" stroke-width="0.5" stroke="black" fill="green"/>
   </g>
   <g id="cell118">
  <circle cx="510.227" cy="453.105" r="8.09179" stroke-width="0.5" stroke="black" fill="cyan"/>
  <circle cx="510.227" cy="453.105" r="4.89945" stroke-width="0.5" stroke="black" fill="cyan"/>
   </g>
   <g id="cell119">
  <circle cx="533.396" cy="604.162" r="8.08765" stroke-width="0.5" stroke="black" fill="green"/>
  <circle cx="533.396" cy="604.162" r="4.89807" stroke-width="0.5" stroke="black" fill="green"/>
   </g>
   <g id="cell120">
  <circle cx="576.256" cy="444.515" r="8.03744" stroke-width="0.5" stroke="black" fill="cyan"/>
  <circle cx="576.256" cy="444.515" r="4.87379" stroke-width="0.5" stroke="black" fill="cyan"/>
   </g>
   <g id="cell121">
  <circle cx="451.334" cy="370.205" r="7.58445" stroke-width="0.5" stroke="black" fill="green"/>
  <circle cx="451.334" cy="370.205" r="4.63549" stroke-width="0.5" stroke="black" fill="green"/>
   </g>
   <g id="cell122">
  <circle cx="505.836" cy="522.125" r="8.04672" stroke-width="0.5" stroke="black" fill="magenta"/>
  <circle cx="505.836" cy="522.125" r="4.87629" stroke-width="0.5" stroke="black" fill="magenta"/>
   </g>
   <g id="cell123">
  <circle cx="497.801" cy="509.168" r="7.96706" stroke-width="0.5" stroke="black" fill="green"/>
  <circle cx="497.801" cy="509.168" r="4.83449" stroke-width="0.5" stroke="black" fill="green"/>
   </g>
   <g id="cell124">
  <circle cx="491.604" cy="432.486" r="7.98484" stroke-width="0.5" stroke="black" fill="magenta"/>
  <circle cx="491.604" cy="432.486" r="4.84144" stroke-width="0.5" stroke="black" fill="magenta"/>
   </g>
   <g id="cell125">
  <circle cx="622.013" cy="477.402" r="7.87905" stroke-width="0.5" stroke="black" fill="green"/>
  <circle cx="622.013" cy="477.402" r="4.78443" stroke-width="0.5" stroke="black" fill="green"/>
   </g>
   <g id="cell126">
  <circle cx="629.171" cy="565.955" r="7.87215" stroke-width="0.5" stroke="black" fill="green"/>
  <circle cx="629.171" cy="565.955" r="4.77885" stroke-width="0.5" stroke="black" fill="green"/>
   </g>
   <g id="cell127">
  <circle cx="439.536" cy="362.151" r="7.58445" stroke-width="0.5" stroke="black" fill="green"/>
  <circle cx="439.536" cy="362.151" r="4.63549" stroke-width="0.5" stroke="black" fill="green"/>
   </g>
   <g id="cell128">
  <circle cx="372.932" cy="469.299" r="7.7401" stroke-width="0.5" stroke="black" fill="magenta"/>
  <circle cx="372.932" cy="469.299" r="4.70142" stroke-width="0.5" stroke="black" fill="magenta"/>
   </g>
   <g id="cell129">
  <circle cx="567.932" cy="540.702" r="7.66815" stroke-width="0.5" stroke="black" fill="cyan"/>
  <circle cx="567.932" cy="540.702" r="4.662" stroke-width="0.5" stroke="black" fill="cyan"/>
   </g>
   <g id="cell130">
  <circle cx="544.028" cy="441.625" r="7.46445" stroke-width="0.5" stroke="black" fill="cyan"/>
  <circle cx="544.028" cy="441.625" r="4.56035" stroke-width="0.5" stroke="black" fill="cyan"/>
   </g>
   <g id="cell131">
  <circle cx="537.143" cy="520.204" r="7.39342" stroke-width="0.5" stroke="black" fill="cyan"/>
  <circle cx="537.143" cy="520.204" r="4.49883" stroke-width="0.5" stroke="black" fill="cyan"/>
   </g>
   <g id="cell132">
  <circle cx="446.878" cy="545.263" r="7.26571" stroke-width="0.5" stroke="black" fill="magenta"/>
  <circle cx="446.878" cy="545.263" r="4.43206" stroke-width="0.5" stroke="black" fill="magenta"/>
   </g>
   <g id="cell133">
  <circle cx="564.691" cy="465.052" r="7.34562" stroke-width="0.5" stroke="black" fill="cyan"/>
  <circle cx="564.691" cy="465.052" r="4.46774" stroke-width="0.5" stroke="black" fill="cyan"/>
   </g>
   <g id="cell134">
  <circle cx="535.388" cy="468.635" r="7.29757" stroke-width="0.5" stroke="black" fill="cyan"/>
  <circle cx="535.388" cy="468.635" r="4.44206" stroke-width="0.5" stroke="black" fill="cyan"/>
   </g>
   <g id="cell135">
  <circle cx="511.281" cy="582.851" r="7.21189" stroke-width="0.5" stroke="black" fill="magenta"/>
  <circle cx="511.281" cy="582.851" r="4.37993" stroke-width="0.5" stroke="black" fill="magenta"/>
   </g>
   <g id="cell136">
  <circle cx="473.822" cy="540.911" r="7.03503" stroke-width="0.5" stroke="black" fill="green"/>
  <circle cx="473.822" cy="540.911" r="4.27051" stroke-width="0.5" stroke="black" fill="green"/>
   </g>
   <g id="cell137">
  <circle cx="496.101" cy="610.773" r="6.65814" stroke-width="0.5" stroke="black" fill="green"/>
  <circle cx="496.101" cy="610.773" r="4.05356" stroke-width="0.5" stroke="black" fill="green"/>
   </g>
   <g id="cell138">
  <circle cx="500.48" cy="412.296" r="6.86652" stroke-width="0.5" stroke="black" fill="green"/>
  <circle cx="500.48" cy="412.296" r="4.14883" stroke-width="0.5" stroke="black" fill="green"/>
   </g>
   <g id="cell139">
  <circle cx="422.422" cy="407.812" r="6.73287" stroke-width="0.5" stroke="black" fill="magenta"/>
  <circle cx="422.422" cy="407.812" r="4.05039" stroke-width="0.5" stroke="black" fill="magenta"/>
   </g>
   <g id="cell140">
  <circle cx="525.259" cy="565.035" r="6.70281" stroke-width="0.5" stroke="black" fill="magenta"/>
  <circle cx="525.259" cy="565.035" r="4.03155" stroke-width="0.5" stroke="black" fill="magenta"/>
   </g>
   <g id="cell141">
  <circle cx="559.913" cy="453.863" r="5.87524" stroke-width="0.5" stroke="black" fill="cyan"/>
  <circle cx="559.913" cy="453.863" r="3.57743" stroke-width="0.5" stroke="black" fill="cyan"/>
   </g>
  </g>
 </g>
  <rect x="775" y="1035" width="200" height="10" stroke-width="2" stroke="rgb(255,255,255)" fill="rgb(0,0,0)"/>
  <text x="781.25" y="1028.75"
   font-family="Arial" font-size="25" fill="black" >
   200 &#956;m
  </text>
  <text x="25" y="1045"
   font-family="Arial" font-size="18.75" fill="black" >
   0 days, 0 hours, 0 minutes, and 25.1566 seconds
  </text>
  <rect x="0" y="70" width="1000" height="1000" stroke-width="2" stroke="rgb(0,0,0)" fill="none"/>
</svg>
