<?xml version="1.0" encoding="UTF-8" standalone="no"?>
<!-- Created with PhysiCell (http://PhysiCell.MathCancer.org/) -->
<svg 
 xmlns:dc="http://purl.org/dc/elements/1.1/" 
 xmlns:cc="http://creativecommons.org/ns#" 
 xmlns:rdf="http://www.w3.org/1999/02/22-rdf-syntax-ns#" 
 xmlns:svg="http://www.w3.org/2000/svg" 
 xmlns="http://www.w3.org/2000/svg" 
 version="1.1" 
 width="1000" 
 height="1070" 
 id="svg2">
  <rect x="0" y="0" width="1000" height="1070" stroke-width="2" stroke="white" fill="white"/>
  <text x="12.5" y="30"
   font-family="Arial" font-size="25" fill="black" >
   Current time: 0 days, 12 hours, and 0.00 minutes, z = 0.00 &#956;m
  </text>
  <text x="12.5" y="57.5"
   font-family="Arial" font-size="23.75" fill="black" >
   112 agents
  </text>
 <g id="tissue" 
    transform="translate(0,1070) scale(1,-1)">
  <g id="ECM">
  </g>
  <g id="cells">
   <g id="cell0">
  <circle cx="516.094" cy="533.964" r="8.15353" stroke-width="0.5" stroke="black" fill="magenta"/>
  <circle cx="516.094" cy="533.964" r="4.93122" stroke-width="0.5" stroke="black" fill="magenta"/>
   </g>
   <g id="cell1">
  <circle cx="602.492" cy="526.171" r="8.41271" stroke-width="0.5" stroke="black" fill="magenta"/>
  <circle cx="602.492" cy="526.171" r="5.05167" stroke-width="0.5" stroke="black" fill="magenta"/>
   </g>
   <g id="cell2">
  <circle cx="514.444" cy="599.672" r="8.41271" stroke-width="0.5" stroke="black" fill="magenta"/>
  <circle cx="514.444" cy="599.672" r="5.05167" stroke-width="0.5" stroke="black" fill="magenta"/>
   </g>
   <g id="cell3">
  <circle cx="523.862" cy="546.145" r="7.98095" stroke-width="0.5" stroke="black" fill="magenta"/>
  <circle cx="523.862" cy="546.145" r="4.84741" stroke-width="0.5" stroke="black" fill="magenta"/>
   </g>
   <g id="cell4">
  <circle cx="489.869" cy="437.536" r="8.30918" stroke-width="0.5" stroke="black" fill="magenta"/>
  <circle cx="489.869" cy="437.536" r="5.00867" stroke-width="0.5" stroke="black" fill="magenta"/>
   </g>
   <g id="cell5">
  <circle cx="465.032" cy="493.3" r="8.41271" stroke-width="0.5" stroke="black" fill="magenta"/>
  <circle cx="465.032" cy="493.3" r="5.05167" stroke-width="0.5" stroke="black" fill="magenta"/>
   </g>
   <g id="cell6">
  <circle cx="595.637" cy="512.669" r="8.41271" stroke-width="0.5" stroke="black" fill="magenta"/>
  <circle cx="595.637" cy="512.669" r="5.05167" stroke-width="0.5" stroke="black" fill="magenta"/>
   </g>
   <g id="cell7">
  <circle cx="506.733" cy="456.932" r="6.67717" stroke-width="0.5" stroke="black" fill="magenta"/>
  <circle cx="506.733" cy="456.932" r="4.00951" stroke-width="0.5" stroke="black" fill="magenta"/>
   </g>
   <g id="cell8">
  <circle cx="376.429" cy="543.962" r="8.41271" stroke-width="0.5" stroke="black" fill="magenta"/>
  <circle cx="376.429" cy="543.962" r="5.05167" stroke-width="0.5" stroke="black" fill="magenta"/>
   </g>
   <g id="cell9">
  <circle cx="460.472" cy="599.786" r="8.41271" stroke-width="0.5" stroke="black" fill="magenta"/>
  <circle cx="460.472" cy="599.786" r="5.05167" stroke-width="0.5" stroke="black" fill="magenta"/>
   </g>
   <g id="cell10">
  <circle cx="583.447" cy="392.105" r="8.41271" stroke-width="0.5" stroke="black" fill="magenta"/>
  <circle cx="583.447" cy="392.105" r="5.05167" stroke-width="0.5" stroke="black" fill="magenta"/>
   </g>
   <g id="cell11">
  <circle cx="589.414" cy="590.396" r="8.41271" stroke-width="0.5" stroke="black" fill="magenta"/>
  <circle cx="589.414" cy="590.396" r="5.05167" stroke-width="0.5" stroke="black" fill="magenta"/>
   </g>
   <g id="cell12">
  <circle cx="506.999" cy="586.447" r="8.41271" stroke-width="0.5" stroke="black" fill="magenta"/>
  <circle cx="506.999" cy="586.447" r="5.05167" stroke-width="0.5" stroke="black" fill="magenta"/>
   </g>
   <g id="cell13">
  <circle cx="386.194" cy="568.228" r="8.41271" stroke-width="0.5" stroke="black" fill="magenta"/>
  <circle cx="386.194" cy="568.228" r="5.05167" stroke-width="0.5" stroke="black" fill="magenta"/>
   </g>
   <g id="cell14">
  <circle cx="528.614" cy="399.155" r="8.41271" stroke-width="0.5" stroke="black" fill="magenta"/>
  <circle cx="528.614" cy="399.155" r="5.05167" stroke-width="0.5" stroke="black" fill="magenta"/>
   </g>
   <g id="cell15">
  <circle cx="379.65" cy="475.1" r="8.41271" stroke-width="0.5" stroke="black" fill="magenta"/>
  <circle cx="379.65" cy="475.1" r="5.05167" stroke-width="0.5" stroke="black" fill="magenta"/>
   </g>
   <g id="cell16">
  <circle cx="428.96" cy="413.216" r="8.41271" stroke-width="0.5" stroke="black" fill="magenta"/>
  <circle cx="428.96" cy="413.216" r="5.05167" stroke-width="0.5" stroke="black" fill="magenta"/>
   </g>
   <g id="cell17">
  <circle cx="570.526" cy="490.074" r="8.41271" stroke-width="0.5" stroke="black" fill="magenta"/>
  <circle cx="570.526" cy="490.074" r="5.05167" stroke-width="0.5" stroke="black" fill="magenta"/>
   </g>
   <g id="cell18">
  <circle cx="517.429" cy="388.945" r="8.41271" stroke-width="0.5" stroke="black" fill="magenta"/>
  <circle cx="517.429" cy="388.945" r="5.05167" stroke-width="0.5" stroke="black" fill="magenta"/>
   </g>
   <g id="cell19">
  <circle cx="458.077" cy="540.522" r="6.46959" stroke-width="0.5" stroke="black" fill="magenta"/>
  <circle cx="458.077" cy="540.522" r="3.9196" stroke-width="0.5" stroke="black" fill="magenta"/>
   </g>
   <g id="cell20">
  <circle cx="531.163" cy="414.082" r="8.41271" stroke-width="0.5" stroke="black" fill="magenta"/>
  <circle cx="531.163" cy="414.082" r="5.05167" stroke-width="0.5" stroke="black" fill="magenta"/>
   </g>
   <g id="cell21">
  <circle cx="464.368" cy="634.574" r="8.41271" stroke-width="0.5" stroke="black" fill="magenta"/>
  <circle cx="464.368" cy="634.574" r="5.05167" stroke-width="0.5" stroke="black" fill="magenta"/>
   </g>
   <g id="cell22">
  <circle cx="557.235" cy="497.627" r="8.41271" stroke-width="0.5" stroke="black" fill="magenta"/>
  <circle cx="557.235" cy="497.627" r="5.05167" stroke-width="0.5" stroke="black" fill="magenta"/>
   </g>
   <g id="cell23">
  <circle cx="542.234" cy="485.37" r="8.41271" stroke-width="0.5" stroke="black" fill="magenta"/>
  <circle cx="542.234" cy="485.37" r="5.05167" stroke-width="0.5" stroke="black" fill="magenta"/>
   </g>
   <g id="cell24">
  <circle cx="559.282" cy="379.803" r="8.41271" stroke-width="0.5" stroke="black" fill="magenta"/>
  <circle cx="559.282" cy="379.803" r="5.05167" stroke-width="0.5" stroke="black" fill="magenta"/>
   </g>
   <g id="cell25">
  <circle cx="645.632" cy="545.293" r="8.25377" stroke-width="0.5" stroke="black" fill="green"/>
  <circle cx="645.632" cy="545.293" r="4.98209" stroke-width="0.5" stroke="black" fill="green"/>
   </g>
   <g id="cell26">
  <circle cx="551.045" cy="401.237" r="8.41271" stroke-width="0.5" stroke="black" fill="green"/>
  <circle cx="551.045" cy="401.237" r="5.05167" stroke-width="0.5" stroke="black" fill="green"/>
   </g>
   <g id="cell27">
  <circle cx="463.543" cy="390.026" r="8.31491" stroke-width="0.5" stroke="black" fill="green"/>
  <circle cx="463.543" cy="390.026" r="5.01133" stroke-width="0.5" stroke="black" fill="green"/>
   </g>
   <g id="cell28">
  <circle cx="433.564" cy="530.722" r="8.41271" stroke-width="0.5" stroke="black" fill="green"/>
  <circle cx="433.564" cy="530.722" r="5.05167" stroke-width="0.5" stroke="black" fill="green"/>
   </g>
   <g id="cell29">
  <circle cx="450.435" cy="516.207" r="8.41271" stroke-width="0.5" stroke="black" fill="green"/>
  <circle cx="450.435" cy="516.207" r="5.05167" stroke-width="0.5" stroke="black" fill="green"/>
   </g>
   <g id="cell30">
  <circle cx="481.044" cy="534.703" r="8.01277" stroke-width="0.5" stroke="black" fill="green"/>
  <circle cx="481.044" cy="534.703" r="4.85584" stroke-width="0.5" stroke="black" fill="green"/>
   </g>
   <g id="cell31">
  <circle cx="412.757" cy="541.193" r="8.41271" stroke-width="0.5" stroke="black" fill="green"/>
  <circle cx="412.757" cy="541.193" r="5.05167" stroke-width="0.5" stroke="black" fill="green"/>
   </g>
   <g id="cell32">
  <circle cx="421.737" cy="481.25" r="7.86286" stroke-width="0.5" stroke="black" fill="green"/>
  <circle cx="421.737" cy="481.25" r="4.77207" stroke-width="0.5" stroke="black" fill="green"/>
   </g>
   <g id="cell33">
  <circle cx="498.019" cy="424.482" r="8.41271" stroke-width="0.5" stroke="black" fill="green"/>
  <circle cx="498.019" cy="424.482" r="5.05167" stroke-width="0.5" stroke="black" fill="green"/>
   </g>
   <g id="cell34">
  <circle cx="397.088" cy="450.831" r="8.41271" stroke-width="0.5" stroke="black" fill="green"/>
  <circle cx="397.088" cy="450.831" r="5.05167" stroke-width="0.5" stroke="black" fill="green"/>
   </g>
   <g id="cell35">
  <circle cx="551.889" cy="541.003" r="8.41271" stroke-width="0.5" stroke="black" fill="green"/>
  <circle cx="551.889" cy="541.003" r="5.05167" stroke-width="0.5" stroke="black" fill="green"/>
   </g>
   <g id="cell36">
  <circle cx="391.486" cy="582.903" r="8.41271" stroke-width="0.5" stroke="black" fill="green"/>
  <circle cx="391.486" cy="582.903" r="5.05167" stroke-width="0.5" stroke="black" fill="green"/>
   </g>
   <g id="cell37">
  <circle cx="639.733" cy="457.303" r="8.29993" stroke-width="0.5" stroke="black" fill="green"/>
  <circle cx="639.733" cy="457.303" r="5.00433" stroke-width="0.5" stroke="black" fill="green"/>
   </g>
   <g id="cell38">
  <circle cx="529.69" cy="597.196" r="8.27885" stroke-width="0.5" stroke="black" fill="green"/>
  <circle cx="529.69" cy="597.196" r="4.99429" stroke-width="0.5" stroke="black" fill="green"/>
   </g>
   <g id="cell39">
  <circle cx="613.458" cy="490.595" r="8.41271" stroke-width="0.5" stroke="black" fill="green"/>
  <circle cx="613.458" cy="490.595" r="5.05167" stroke-width="0.5" stroke="black" fill="green"/>
   </g>
   <g id="cell40">
  <circle cx="485.348" cy="571.779" r="8.41271" stroke-width="0.5" stroke="black" fill="green"/>
  <circle cx="485.348" cy="571.779" r="5.05167" stroke-width="0.5" stroke="black" fill="green"/>
   </g>
   <g id="cell41">
  <circle cx="364.925" cy="480.252" r="8.41271" stroke-width="0.5" stroke="black" fill="green"/>
  <circle cx="364.925" cy="480.252" r="5.05167" stroke-width="0.5" stroke="black" fill="green"/>
   </g>
   <g id="cell42">
  <circle cx="438.842" cy="494.268" r="8.41271" stroke-width="0.5" stroke="black" fill="green"/>
  <circle cx="438.842" cy="494.268" r="5.05167" stroke-width="0.5" stroke="black" fill="green"/>
   </g>
   <g id="cell43">
  <circle cx="558.518" cy="442.28" r="8.41271" stroke-width="0.5" stroke="black" fill="green"/>
  <circle cx="558.518" cy="442.28" r="5.05167" stroke-width="0.5" stroke="black" fill="green"/>
   </g>
   <g id="cell44">
  <circle cx="475.857" cy="624.021" r="8.41271" stroke-width="0.5" stroke="black" fill="green"/>
  <circle cx="475.857" cy="624.021" r="5.05167" stroke-width="0.5" stroke="black" fill="green"/>
   </g>
   <g id="cell45">
  <circle cx="414.953" cy="557.066" r="8.41271" stroke-width="0.5" stroke="black" fill="green"/>
  <circle cx="414.953" cy="557.066" r="5.05167" stroke-width="0.5" stroke="black" fill="green"/>
   </g>
   <g id="cell46">
  <circle cx="524.068" cy="610.888" r="7.46878" stroke-width="0.5" stroke="black" fill="green"/>
  <circle cx="524.068" cy="610.888" r="4.53982" stroke-width="0.5" stroke="black" fill="green"/>
   </g>
   <g id="cell47">
  <circle cx="504.245" cy="503.065" r="7.83019" stroke-width="0.5" stroke="black" fill="green"/>
  <circle cx="504.245" cy="503.065" r="4.75343" stroke-width="0.5" stroke="black" fill="green"/>
   </g>
   <g id="cell48">
  <circle cx="568.812" cy="601.717" r="6.05381" stroke-width="0.5" stroke="black" fill="green"/>
  <circle cx="568.812" cy="601.717" r="3.70794" stroke-width="0.5" stroke="black" fill="green"/>
   </g>
   <g id="cell49">
  <circle cx="429.835" cy="397.64" r="8.41271" stroke-width="0.5" stroke="black" fill="green"/>
  <circle cx="429.835" cy="397.64" r="5.05167" stroke-width="0.5" stroke="black" fill="green"/>
   </g>
   <g id="cell50">
  <circle cx="518.904" cy="519.122" r="8.17502" stroke-width="0.5" stroke="black" fill="cyan"/>
  <circle cx="518.904" cy="519.122" r="4.94236" stroke-width="0.5" stroke="black" fill="cyan"/>
   </g>
   <g id="cell51">
  <circle cx="398.721" cy="597.201" r="8.41271" stroke-width="0.5" stroke="black" fill="cyan"/>
  <circle cx="398.721" cy="597.201" r="5.05167" stroke-width="0.5" stroke="black" fill="cyan"/>
   </g>
   <g id="cell52">
  <circle cx="519.311" cy="424.225" r="8.41271" stroke-width="0.5" stroke="black" fill="cyan"/>
  <circle cx="519.311" cy="424.225" r="5.05167" stroke-width="0.5" stroke="black" fill="cyan"/>
   </g>
   <g id="cell53">
  <circle cx="572.832" cy="429.993" r="7.61469" stroke-width="0.5" stroke="black" fill="cyan"/>
  <circle cx="572.832" cy="429.993" r="4.62762" stroke-width="0.5" stroke="black" fill="cyan"/>
   </g>
   <g id="cell54">
  <circle cx="482.41" cy="424.246" r="7.93688" stroke-width="0.5" stroke="black" fill="cyan"/>
  <circle cx="482.41" cy="424.246" r="4.81381" stroke-width="0.5" stroke="black" fill="cyan"/>
   </g>
   <g id="cell55">
  <circle cx="524.177" cy="462.522" r="7.64591" stroke-width="0.5" stroke="black" fill="cyan"/>
  <circle cx="524.177" cy="462.522" r="4.65767" stroke-width="0.5" stroke="black" fill="cyan"/>
   </g>
   <g id="cell56">
  <circle cx="617.613" cy="522.333" r="8.41271" stroke-width="0.5" stroke="black" fill="cyan"/>
  <circle cx="617.613" cy="522.333" r="5.05167" stroke-width="0.5" stroke="black" fill="cyan"/>
   </g>
   <g id="cell105">
  <circle cx="510.326" cy="613.813" r="7.46878" stroke-width="0.5" stroke="black" fill="green"/>
  <circle cx="510.326" cy="613.813" r="4.53982" stroke-width="0.5" stroke="black" fill="green"/>
   </g>
   <g id="cell58">
  <circle cx="557.256" cy="482.17" r="8.41271" stroke-width="0.5" stroke="black" fill="cyan"/>
  <circle cx="557.256" cy="482.17" r="5.05167" stroke-width="0.5" stroke="black" fill="cyan"/>
   </g>
   <g id="cell59">
  <circle cx="385.463" cy="439.803" r="8.41271" stroke-width="0.5" stroke="black" fill="cyan"/>
  <circle cx="385.463" cy="439.803" r="5.05167" stroke-width="0.5" stroke="black" fill="cyan"/>
   </g>
   <g id="cell60">
  <circle cx="592.916" cy="473.668" r="8.41271" stroke-width="0.5" stroke="black" fill="cyan"/>
  <circle cx="592.916" cy="473.668" r="5.05167" stroke-width="0.5" stroke="black" fill="cyan"/>
   </g>
   <g id="cell61">
  <circle cx="552.996" cy="619.084" r="8.41271" stroke-width="0.5" stroke="black" fill="cyan"/>
  <circle cx="552.996" cy="619.084" r="5.05167" stroke-width="0.5" stroke="black" fill="cyan"/>
   </g>
   <g id="cell62">
  <circle cx="518.09" cy="448.8" r="8.31766" stroke-width="0.5" stroke="black" fill="cyan"/>
  <circle cx="518.09" cy="448.8" r="5.0126" stroke-width="0.5" stroke="black" fill="cyan"/>
   </g>
   <g id="cell63">
  <circle cx="573.916" cy="541.277" r="8.13008" stroke-width="0.5" stroke="black" fill="cyan"/>
  <circle cx="573.916" cy="541.277" r="4.91894" stroke-width="0.5" stroke="black" fill="cyan"/>
   </g>
   <g id="cell64">
  <circle cx="509.962" cy="636.825" r="8.41271" stroke-width="0.5" stroke="black" fill="cyan"/>
  <circle cx="509.962" cy="636.825" r="5.05167" stroke-width="0.5" stroke="black" fill="cyan"/>
   </g>
   <g id="cell65">
  <circle cx="546.636" cy="470.766" r="8.09544" stroke-width="0.5" stroke="black" fill="cyan"/>
  <circle cx="546.636" cy="470.766" r="4.90058" stroke-width="0.5" stroke="black" fill="cyan"/>
   </g>
   <g id="cell66">
  <circle cx="530.713" cy="532.678" r="7.90853" stroke-width="0.5" stroke="black" fill="cyan"/>
  <circle cx="530.713" cy="532.678" r="4.79791" stroke-width="0.5" stroke="black" fill="cyan"/>
   </g>
   <g id="cell67">
  <circle cx="354.711" cy="492.599" r="8.41271" stroke-width="0.5" stroke="black" fill="cyan"/>
  <circle cx="354.711" cy="492.599" r="5.05167" stroke-width="0.5" stroke="black" fill="cyan"/>
   </g>
   <g id="cell68">
  <circle cx="562.317" cy="552.697" r="8.41271" stroke-width="0.5" stroke="black" fill="cyan"/>
  <circle cx="562.317" cy="552.697" r="5.05167" stroke-width="0.5" stroke="black" fill="cyan"/>
   </g>
   <g id="cell69">
  <circle cx="441.855" cy="461.001" r="8.41271" stroke-width="0.5" stroke="black" fill="cyan"/>
  <circle cx="441.855" cy="461.001" r="5.05167" stroke-width="0.5" stroke="black" fill="cyan"/>
   </g>
   <g id="cell70">
  <circle cx="576.998" cy="475.781" r="8.41271" stroke-width="0.5" stroke="black" fill="cyan"/>
  <circle cx="576.998" cy="475.781" r="5.05167" stroke-width="0.5" stroke="black" fill="cyan"/>
   </g>
   <g id="cell71">
  <circle cx="380.119" cy="525.535" r="6.75639" stroke-width="0.5" stroke="black" fill="cyan"/>
  <circle cx="380.119" cy="525.535" r="4.06813" stroke-width="0.5" stroke="black" fill="cyan"/>
   </g>
   <g id="cell72">
  <circle cx="532.274" cy="511.841" r="7.95045" stroke-width="0.5" stroke="black" fill="cyan"/>
  <circle cx="532.274" cy="511.841" r="4.82139" stroke-width="0.5" stroke="black" fill="cyan"/>
   </g>
   <g id="cell73">
  <circle cx="363.826" cy="552.775" r="8.1609" stroke-width="0.5" stroke="black" fill="cyan"/>
  <circle cx="363.826" cy="552.775" r="4.93506" stroke-width="0.5" stroke="black" fill="cyan"/>
   </g>
   <g id="cell74">
  <circle cx="542.663" cy="444.695" r="8.41271" stroke-width="0.5" stroke="black" fill="cyan"/>
  <circle cx="542.663" cy="444.695" r="5.05167" stroke-width="0.5" stroke="black" fill="cyan"/>
   </g>
   <g id="cell75">
  <circle cx="528.748" cy="437.029" r="8.31766" stroke-width="0.5" stroke="black" fill="cyan"/>
  <circle cx="528.748" cy="437.029" r="5.0126" stroke-width="0.5" stroke="black" fill="cyan"/>
   </g>
   <g id="cell76">
  <circle cx="442.139" cy="382.888" r="6.78178" stroke-width="0.5" stroke="black" fill="green"/>
  <circle cx="442.139" cy="382.888" r="4.16467" stroke-width="0.5" stroke="black" fill="green"/>
   </g>
   <g id="cell77">
  <circle cx="476.091" cy="436.709" r="7.23365" stroke-width="0.5" stroke="black" fill="magenta"/>
  <circle cx="476.091" cy="436.709" r="4.40766" stroke-width="0.5" stroke="black" fill="magenta"/>
   </g>
   <g id="cell78">
  <circle cx="624.669" cy="461.121" r="8.0349" stroke-width="0.5" stroke="black" fill="green"/>
  <circle cx="624.669" cy="461.121" r="4.87499" stroke-width="0.5" stroke="black" fill="green"/>
   </g>
   <g id="cell79">
  <circle cx="517.577" cy="478.07" r="8.28629" stroke-width="0.5" stroke="black" fill="cyan"/>
  <circle cx="517.577" cy="478.07" r="4.99786" stroke-width="0.5" stroke="black" fill="cyan"/>
   </g>
   <g id="cell80">
  <circle cx="538.879" cy="611.762" r="8.20632" stroke-width="0.5" stroke="black" fill="green"/>
  <circle cx="538.879" cy="611.762" r="4.96296" stroke-width="0.5" stroke="black" fill="green"/>
   </g>
   <g id="cell81">
  <circle cx="545.131" cy="597.442" r="8.20632" stroke-width="0.5" stroke="black" fill="green"/>
  <circle cx="545.131" cy="597.442" r="4.96296" stroke-width="0.5" stroke="black" fill="green"/>
   </g>
   <g id="cell82">
  <circle cx="532.438" cy="558.234" r="8.25377" stroke-width="0.5" stroke="black" fill="magenta"/>
  <circle cx="532.438" cy="558.234" r="4.98209" stroke-width="0.5" stroke="black" fill="magenta"/>
   </g>
   <g id="cell83">
  <circle cx="634.58" cy="556.458" r="8.25377" stroke-width="0.5" stroke="black" fill="green"/>
  <circle cx="634.58" cy="556.458" r="4.98209" stroke-width="0.5" stroke="black" fill="green"/>
   </g>
   <g id="cell84">
  <circle cx="519.293" cy="503.62" r="8.17502" stroke-width="0.5" stroke="black" fill="cyan"/>
  <circle cx="519.293" cy="503.62" r="4.94236" stroke-width="0.5" stroke="black" fill="cyan"/>
   </g>
   <g id="cell85">
  <circle cx="353.205" cy="542.146" r="7.66886" stroke-width="0.5" stroke="black" fill="cyan"/>
  <circle cx="353.205" cy="542.146" r="4.67632" stroke-width="0.5" stroke="black" fill="cyan"/>
   </g>
   <g id="cell86">
  <circle cx="504.872" cy="524.737" r="8.15353" stroke-width="0.5" stroke="black" fill="magenta"/>
  <circle cx="504.872" cy="524.737" r="4.93122" stroke-width="0.5" stroke="black" fill="magenta"/>
   </g>
   <g id="cell87">
  <circle cx="577.011" cy="555.577" r="7.34472" stroke-width="0.5" stroke="black" fill="cyan"/>
  <circle cx="577.011" cy="555.577" r="4.48753" stroke-width="0.5" stroke="black" fill="cyan"/>
   </g>
   <g id="cell88">
  <circle cx="448.787" cy="531.37" r="8.10448" stroke-width="0.5" stroke="black" fill="magenta"/>
  <circle cx="448.787" cy="531.37" r="4.90539" stroke-width="0.5" stroke="black" fill="magenta"/>
   </g>
   <g id="cell89">
  <circle cx="552.648" cy="456.759" r="8.09544" stroke-width="0.5" stroke="black" fill="cyan"/>
  <circle cx="552.648" cy="456.759" r="4.90058" stroke-width="0.5" stroke="black" fill="cyan"/>
   </g>
   <g id="cell90">
  <circle cx="630.897" cy="475.073" r="8.0349" stroke-width="0.5" stroke="black" fill="green"/>
  <circle cx="630.897" cy="475.073" r="4.87499" stroke-width="0.5" stroke="black" fill="green"/>
   </g>
   <g id="cell91">
  <circle cx="546.978" cy="555.465" r="7.76764" stroke-width="0.5" stroke="black" fill="magenta"/>
  <circle cx="546.978" cy="555.465" r="4.73869" stroke-width="0.5" stroke="black" fill="magenta"/>
   </g>
   <g id="cell92">
  <circle cx="482.502" cy="549.869" r="8.01277" stroke-width="0.5" stroke="black" fill="green"/>
  <circle cx="482.502" cy="549.869" r="4.85584" stroke-width="0.5" stroke="black" fill="green"/>
   </g>
   <g id="cell93">
  <circle cx="537.794" cy="545.076" r="7.76764" stroke-width="0.5" stroke="black" fill="magenta"/>
  <circle cx="537.794" cy="545.076" r="4.73869" stroke-width="0.5" stroke="black" fill="magenta"/>
   </g>
   <g id="cell94">
  <circle cx="532.833" cy="496.922" r="7.95045" stroke-width="0.5" stroke="black" fill="cyan"/>
  <circle cx="532.833" cy="496.922" r="4.82139" stroke-width="0.5" stroke="black" fill="cyan"/>
   </g>
   <g id="cell95">
  <circle cx="467.053" cy="426.146" r="7.93688" stroke-width="0.5" stroke="black" fill="cyan"/>
  <circle cx="467.053" cy="426.146" r="4.81381" stroke-width="0.5" stroke="black" fill="cyan"/>
   </g>
   <g id="cell96">
  <circle cx="542.241" cy="523.011" r="7.90853" stroke-width="0.5" stroke="black" fill="cyan"/>
  <circle cx="542.241" cy="523.011" r="4.79791" stroke-width="0.5" stroke="black" fill="cyan"/>
   </g>
   <g id="cell97">
  <circle cx="422.099" cy="466.729" r="7.40204" stroke-width="0.5" stroke="black" fill="green"/>
  <circle cx="422.099" cy="466.729" r="4.52785" stroke-width="0.5" stroke="black" fill="green"/>
   </g>
   <g id="cell98">
  <circle cx="494.57" cy="514.271" r="7.83019" stroke-width="0.5" stroke="black" fill="green"/>
  <circle cx="494.57" cy="514.271" r="4.75343" stroke-width="0.5" stroke="black" fill="green"/>
   </g>
   <g id="cell99">
  <circle cx="358.04" cy="528.425" r="7.66886" stroke-width="0.5" stroke="black" fill="cyan"/>
  <circle cx="358.04" cy="528.425" r="4.67632" stroke-width="0.5" stroke="black" fill="cyan"/>
   </g>
   <g id="cell100">
  <circle cx="449.121" cy="394.662" r="7.66274" stroke-width="0.5" stroke="black" fill="green"/>
  <circle cx="449.121" cy="394.662" r="4.66567" stroke-width="0.5" stroke="black" fill="green"/>
   </g>
   <g id="cell101">
  <circle cx="532.183" cy="474.369" r="7.64591" stroke-width="0.5" stroke="black" fill="cyan"/>
  <circle cx="532.183" cy="474.369" r="4.65767" stroke-width="0.5" stroke="black" fill="cyan"/>
   </g>
   <g id="cell102">
  <circle cx="434.202" cy="473.891" r="7.40204" stroke-width="0.5" stroke="black" fill="green"/>
  <circle cx="434.202" cy="473.891" r="4.52785" stroke-width="0.5" stroke="black" fill="green"/>
   </g>
   <g id="cell103">
  <circle cx="573.594" cy="444.428" r="7.61469" stroke-width="0.5" stroke="black" fill="cyan"/>
  <circle cx="573.594" cy="444.428" r="4.62762" stroke-width="0.5" stroke="black" fill="cyan"/>
   </g>
   <g id="cell104">
  <circle cx="590.793" cy="553.742" r="7.34472" stroke-width="0.5" stroke="black" fill="cyan"/>
  <circle cx="590.793" cy="553.742" r="4.48753" stroke-width="0.5" stroke="black" fill="cyan"/>
   </g>
   <g id="cell106">
  <circle cx="463.707" cy="440.181" r="7.23365" stroke-width="0.5" stroke="black" fill="magenta"/>
  <circle cx="463.707" cy="440.181" r="4.40766" stroke-width="0.5" stroke="black" fill="magenta"/>
   </g>
   <g id="cell107">
  <circle cx="453.842" cy="377.563" r="6.78178" stroke-width="0.5" stroke="black" fill="green"/>
  <circle cx="453.842" cy="377.563" r="4.16467" stroke-width="0.5" stroke="black" fill="green"/>
   </g>
   <g id="cell108">
  <circle cx="557.132" cy="605.141" r="7.08639" stroke-width="0.5" stroke="black" fill="green"/>
  <circle cx="557.132" cy="605.141" r="4.29876" stroke-width="0.5" stroke="black" fill="green"/>
   </g>
   <g id="cell109">
  <circle cx="576.602" cy="593.627" r="6.05381" stroke-width="0.5" stroke="black" fill="green"/>
  <circle cx="576.602" cy="593.627" r="3.70794" stroke-width="0.5" stroke="black" fill="green"/>
   </g>
   <g id="cell110">
  <circle cx="374.004" cy="514.243" r="6.75639" stroke-width="0.5" stroke="black" fill="cyan"/>
  <circle cx="374.004" cy="514.243" r="4.06813" stroke-width="0.5" stroke="black" fill="cyan"/>
   </g>
   <g id="cell111">
  <circle cx="454.303" cy="551.502" r="6.46959" stroke-width="0.5" stroke="black" fill="magenta"/>
  <circle cx="454.303" cy="551.502" r="3.9196" stroke-width="0.5" stroke="black" fill="magenta"/>
   </g>
   <g id="cell112">
  <circle cx="511.899" cy="466.778" r="6.67717" stroke-width="0.5" stroke="black" fill="magenta"/>
  <circle cx="511.899" cy="466.778" r="4.00951" stroke-width="0.5" stroke="black" fill="magenta"/>
   </g>
  </g>
 </g>
  <rect x="775" y="1035" width="200" height="10" stroke-width="2" stroke="rgb(255,255,255)" fill="rgb(0,0,0)"/>
  <text x="781.25" y="1028.75"
   font-family="Arial" font-size="25" fill="black" >
   200 &#956;m
  </text>
  <text x="25" y="1045"
   font-family="Arial" font-size="18.75" fill="black" >
   0 days, 0 hours, 0 minutes, and 13.6570 seconds
  </text>
  <rect x="0" y="70" width="1000" height="1000" stroke-width="2" stroke="rgb(0,0,0)" fill="none"/>
</svg>
