<?xml version="1.0" encoding="UTF-8" standalone="no"?>
<!-- Created with PhysiCell (http://PhysiCell.MathCancer.org/) -->
<svg 
 xmlns:dc="http://purl.org/dc/elements/1.1/" 
 xmlns:cc="http://creativecommons.org/ns#" 
 xmlns:rdf="http://www.w3.org/1999/02/22-rdf-syntax-ns#" 
 xmlns:svg="http://www.w3.org/2000/svg" 
 xmlns="http://www.w3.org/2000/svg" 
 version="1.1" 
 width="1000" 
 height="1070" 
 id="svg2">
  <rect x="0" y="0" width="1000" height="1070" stroke-width="2" stroke="white" fill="white"/>
  <text x="12.5" y="30"
   font-family="Arial" font-size="25" fill="black" >
   Current time: 1 days, 15 hours, and 24.00 minutes, z = 0.00 &#956;m
  </text>
  <text x="12.5" y="57.5"
   font-family="Arial" font-size="23.75" fill="black" >
   205 agents
  </text>
 <g id="tissue" 
    transform="translate(0,1070) scale(1,-1)">
  <g id="ECM">
  </g>
  <g id="cells">
   <g id="cell0">
  <circle cx="509.896" cy="543.246" r="8.41259" stroke-width="0.5" stroke="black" fill="magenta"/>
  <circle cx="509.896" cy="543.246" r="5.05165" stroke-width="0.5" stroke="black" fill="magenta"/>
   </g>
   <g id="cell1">
  <circle cx="593.35" cy="525.989" r="8.34511" stroke-width="0.5" stroke="black" fill="magenta"/>
  <circle cx="593.35" cy="525.989" r="5.02502" stroke-width="0.5" stroke="black" fill="magenta"/>
   </g>
   <g id="cell2">
  <circle cx="513.746" cy="597.074" r="8.41271" stroke-width="0.5" stroke="black" fill="magenta"/>
  <circle cx="513.746" cy="597.074" r="5.05167" stroke-width="0.5" stroke="black" fill="magenta"/>
   </g>
   <g id="cell3">
  <circle cx="524.769" cy="546.587" r="8.41251" stroke-width="0.5" stroke="black" fill="magenta"/>
  <circle cx="524.769" cy="546.587" r="5.05163" stroke-width="0.5" stroke="black" fill="magenta"/>
   </g>
   <g id="cell4">
  <circle cx="484.038" cy="443.86" r="8.41006" stroke-width="0.5" stroke="black" fill="magenta"/>
  <circle cx="484.038" cy="443.86" r="5.05095" stroke-width="0.5" stroke="black" fill="magenta"/>
   </g>
   <g id="cell5">
  <circle cx="469.112" cy="490.555" r="8.41271" stroke-width="0.5" stroke="black" fill="magenta"/>
  <circle cx="469.112" cy="490.555" r="5.05167" stroke-width="0.5" stroke="black" fill="magenta"/>
   </g>
   <g id="cell163">
  <circle cx="532.259" cy="572.519" r="6.65262" stroke-width="0.5" stroke="black" fill="green"/>
  <circle cx="532.259" cy="572.519" r="4.00519" stroke-width="0.5" stroke="black" fill="green"/>
   </g>
   <g id="cell7">
  <circle cx="495.193" cy="454.731" r="8.33653" stroke-width="0.5" stroke="black" fill="magenta"/>
  <circle cx="495.193" cy="454.731" r="5.02129" stroke-width="0.5" stroke="black" fill="magenta"/>
   </g>
   <g id="cell8">
  <circle cx="379.812" cy="552.943" r="8.36178" stroke-width="0.5" stroke="black" fill="magenta"/>
  <circle cx="379.812" cy="552.943" r="5.03227" stroke-width="0.5" stroke="black" fill="magenta"/>
   </g>
   <g id="cell161">
  <circle cx="452.253" cy="386.014" r="8.34401" stroke-width="0.5" stroke="black" fill="green"/>
  <circle cx="452.253" cy="386.014" r="5.02593" stroke-width="0.5" stroke="black" fill="green"/>
   </g>
   <g id="cell10">
  <circle cx="584.912" cy="387.978" r="8.39144" stroke-width="0.5" stroke="black" fill="magenta"/>
  <circle cx="584.912" cy="387.978" r="5.04437" stroke-width="0.5" stroke="black" fill="magenta"/>
   </g>
   <g id="cell11">
  <circle cx="591.82" cy="590.625" r="8.41271" stroke-width="0.5" stroke="black" fill="magenta"/>
  <circle cx="591.82" cy="590.625" r="5.05167" stroke-width="0.5" stroke="black" fill="magenta"/>
   </g>
   <g id="cell12">
  <circle cx="499.12" cy="593.734" r="8.40537" stroke-width="0.5" stroke="black" fill="magenta"/>
  <circle cx="499.12" cy="593.734" r="5.04944" stroke-width="0.5" stroke="black" fill="magenta"/>
   </g>
   <g id="cell13">
  <circle cx="383.955" cy="567.65" r="8.41271" stroke-width="0.5" stroke="black" fill="magenta"/>
  <circle cx="383.955" cy="567.65" r="5.05167" stroke-width="0.5" stroke="black" fill="magenta"/>
   </g>
   <g id="cell14">
  <circle cx="517.624" cy="403.114" r="8.41271" stroke-width="0.5" stroke="black" fill="magenta"/>
  <circle cx="517.624" cy="403.114" r="5.05167" stroke-width="0.5" stroke="black" fill="magenta"/>
   </g>
   <g id="cell15">
  <circle cx="381.865" cy="479.123" r="8.40862" stroke-width="0.5" stroke="black" fill="magenta"/>
  <circle cx="381.865" cy="479.123" r="5.0505" stroke-width="0.5" stroke="black" fill="magenta"/>
   </g>
   <g id="cell16">
  <circle cx="452.592" cy="417.154" r="7.81676" stroke-width="0.5" stroke="black" fill="magenta"/>
  <circle cx="452.592" cy="417.154" r="4.74888" stroke-width="0.5" stroke="black" fill="magenta"/>
   </g>
   <g id="cell17">
  <circle cx="583.125" cy="498.093" r="8.22925" stroke-width="0.5" stroke="black" fill="magenta"/>
  <circle cx="583.125" cy="498.093" r="4.96993" stroke-width="0.5" stroke="black" fill="magenta"/>
   </g>
   <g id="cell18">
  <circle cx="519.146" cy="387.611" r="8.41271" stroke-width="0.5" stroke="black" fill="magenta"/>
  <circle cx="519.146" cy="387.611" r="5.05167" stroke-width="0.5" stroke="black" fill="magenta"/>
   </g>
   <g id="cell19">
  <circle cx="457.308" cy="541.572" r="8.41177" stroke-width="0.5" stroke="black" fill="magenta"/>
  <circle cx="457.308" cy="541.572" r="5.05144" stroke-width="0.5" stroke="black" fill="magenta"/>
   </g>
   <g id="cell20">
  <circle cx="530.197" cy="411.992" r="8.41271" stroke-width="0.5" stroke="black" fill="magenta"/>
  <circle cx="530.197" cy="411.992" r="5.05167" stroke-width="0.5" stroke="black" fill="magenta"/>
   </g>
   <g id="cell21">
  <circle cx="467.654" cy="637.08" r="7.38797" stroke-width="0.5" stroke="black" fill="magenta"/>
  <circle cx="467.654" cy="637.08" r="4.49029" stroke-width="0.5" stroke="black" fill="magenta"/>
   </g>
   <g id="cell22">
  <circle cx="559.369" cy="491.3" r="7.62105" stroke-width="0.5" stroke="black" fill="magenta"/>
  <circle cx="559.369" cy="491.3" r="4.64361" stroke-width="0.5" stroke="black" fill="magenta"/>
   </g>
   <g id="cell23">
  <circle cx="554.043" cy="477.669" r="8.41271" stroke-width="0.5" stroke="black" fill="magenta"/>
  <circle cx="554.043" cy="477.669" r="5.05167" stroke-width="0.5" stroke="black" fill="magenta"/>
   </g>
   <g id="cell24">
  <circle cx="569.42" cy="384.397" r="8.41271" stroke-width="0.5" stroke="black" fill="magenta"/>
  <circle cx="569.42" cy="384.397" r="5.05167" stroke-width="0.5" stroke="black" fill="magenta"/>
   </g>
   <g id="cell25">
  <circle cx="643.833" cy="546.007" r="7.21184" stroke-width="0.5" stroke="black" fill="green"/>
  <circle cx="643.833" cy="546.007" r="4.37992" stroke-width="0.5" stroke="black" fill="green"/>
   </g>
   <g id="cell26">
  <circle cx="558.728" cy="397.31" r="8.41177" stroke-width="0.5" stroke="black" fill="green"/>
  <circle cx="558.728" cy="397.31" r="5.05144" stroke-width="0.5" stroke="black" fill="green"/>
   </g>
   <g id="cell27">
  <circle cx="462.443" cy="405.926" r="8.41266" stroke-width="0.5" stroke="black" fill="green"/>
  <circle cx="462.443" cy="405.926" r="5.05166" stroke-width="0.5" stroke="black" fill="green"/>
   </g>
   <g id="cell28">
  <circle cx="429.611" cy="542.82" r="8.38608" stroke-width="0.5" stroke="black" fill="green"/>
  <circle cx="429.611" cy="542.82" r="5.04229" stroke-width="0.5" stroke="black" fill="green"/>
   </g>
   <g id="cell29">
  <circle cx="451.494" cy="518.755" r="1.28389" stroke-width="0.5" stroke="black" fill="green"/>
  <circle cx="451.494" cy="518.755" r="1.27427" stroke-width="0.5" stroke="black" fill="black"/>
   </g>
   <g id="cell30">
  <circle cx="480.197" cy="536.316" r="8.40417" stroke-width="0.5" stroke="black" fill="green"/>
  <circle cx="480.197" cy="536.316" r="5.04904" stroke-width="0.5" stroke="black" fill="green"/>
   </g>
   <g id="cell31">
  <circle cx="413.698" cy="543.503" r="8.41271" stroke-width="0.5" stroke="black" fill="green"/>
  <circle cx="413.698" cy="543.503" r="5.05167" stroke-width="0.5" stroke="black" fill="green"/>
   </g>
   <g id="cell169">
  <circle cx="519.539" cy="502.24" r="8.32532" stroke-width="0.5" stroke="black" fill="cyan"/>
  <circle cx="519.539" cy="502.24" r="5.01615" stroke-width="0.5" stroke="black" fill="cyan"/>
   </g>
   <g id="cell33">
  <circle cx="499.77" cy="419.185" r="8.40272" stroke-width="0.5" stroke="black" fill="green"/>
  <circle cx="499.77" cy="419.185" r="5.04853" stroke-width="0.5" stroke="black" fill="green"/>
   </g>
   <g id="cell168">
  <circle cx="381.755" cy="517.964" r="6.37498" stroke-width="0.5" stroke="black" fill="cyan"/>
  <circle cx="381.755" cy="517.964" r="3.97001" stroke-width="0.5" stroke="black" fill="black"/>
   </g>
   <g id="cell35">
  <circle cx="558.503" cy="555.861" r="8.41271" stroke-width="0.5" stroke="black" fill="green"/>
  <circle cx="558.503" cy="555.861" r="5.05167" stroke-width="0.5" stroke="black" fill="green"/>
   </g>
   <g id="cell36">
  <circle cx="388.667" cy="582.668" r="8.36189" stroke-width="0.5" stroke="black" fill="green"/>
  <circle cx="388.667" cy="582.668" r="5.03357" stroke-width="0.5" stroke="black" fill="green"/>
   </g>
   <g id="cell37">
  <circle cx="642.309" cy="456.048" r="8.41266" stroke-width="0.5" stroke="black" fill="green"/>
  <circle cx="642.309" cy="456.048" r="5.05166" stroke-width="0.5" stroke="black" fill="green"/>
   </g>
   <g id="cell38">
  <circle cx="524.604" cy="586.028" r="8.36175" stroke-width="0.5" stroke="black" fill="green"/>
  <circle cx="524.604" cy="586.028" r="5.03227" stroke-width="0.5" stroke="black" fill="green"/>
   </g>
   <g id="cell39">
  <circle cx="611.675" cy="490.466" r="8.23948" stroke-width="0.5" stroke="black" fill="green"/>
  <circle cx="611.675" cy="490.466" r="4.97503" stroke-width="0.5" stroke="black" fill="green"/>
   </g>
   <g id="cell40">
  <circle cx="486.222" cy="567.142" r="8.38118" stroke-width="0.5" stroke="black" fill="green"/>
  <circle cx="486.222" cy="567.142" r="5.04034" stroke-width="0.5" stroke="black" fill="green"/>
   </g>
   <g id="cell41">
  <circle cx="366.56" cy="482.122" r="8.41271" stroke-width="0.5" stroke="black" fill="green"/>
  <circle cx="366.56" cy="482.122" r="5.05167" stroke-width="0.5" stroke="black" fill="green"/>
   </g>
   <g id="cell42">
  <circle cx="438.029" cy="490.521" r="8.41271" stroke-width="0.5" stroke="black" fill="green"/>
  <circle cx="438.029" cy="490.521" r="5.05167" stroke-width="0.5" stroke="black" fill="green"/>
   </g>
   <g id="cell43">
  <circle cx="564.559" cy="438.626" r="8.41271" stroke-width="0.5" stroke="black" fill="green"/>
  <circle cx="564.559" cy="438.626" r="5.05167" stroke-width="0.5" stroke="black" fill="green"/>
   </g>
   <g id="cell164">
  <circle cx="399.13" cy="570.753" r="8.34199" stroke-width="0.5" stroke="black" fill="green"/>
  <circle cx="399.13" cy="570.753" r="5.02474" stroke-width="0.5" stroke="black" fill="green"/>
   </g>
   <g id="cell145">
  <circle cx="411.194" cy="420.886" r="7.79591" stroke-width="0.5" stroke="black" fill="magenta"/>
  <circle cx="411.194" cy="420.886" r="4.74788" stroke-width="0.5" stroke="black" fill="magenta"/>
   </g>
   <g id="cell46">
  <circle cx="515.74" cy="619.5" r="8.41229" stroke-width="0.5" stroke="black" fill="green"/>
  <circle cx="515.74" cy="619.5" r="5.05157" stroke-width="0.5" stroke="black" fill="green"/>
   </g>
   <g id="cell47">
  <circle cx="484.655" cy="491.157" r="8.41245" stroke-width="0.5" stroke="black" fill="green"/>
  <circle cx="484.655" cy="491.157" r="5.05161" stroke-width="0.5" stroke="black" fill="green"/>
   </g>
   <g id="cell48">
  <circle cx="577.792" cy="604.56" r="8.41175" stroke-width="0.5" stroke="black" fill="green"/>
  <circle cx="577.792" cy="604.56" r="5.05144" stroke-width="0.5" stroke="black" fill="green"/>
   </g>
   <g id="cell49">
  <circle cx="437.251" cy="391.081" r="8.32788" stroke-width="0.5" stroke="black" fill="green"/>
  <circle cx="437.251" cy="391.081" r="5.01729" stroke-width="0.5" stroke="black" fill="green"/>
   </g>
   <g id="cell50">
  <circle cx="501.32" cy="512.824" r="8.41138" stroke-width="0.5" stroke="black" fill="cyan"/>
  <circle cx="501.32" cy="512.824" r="5.05134" stroke-width="0.5" stroke="black" fill="cyan"/>
   </g>
   <g id="cell51">
  <circle cx="400.872" cy="592.578" r="7.72056" stroke-width="0.5" stroke="black" fill="cyan"/>
  <circle cx="400.872" cy="592.578" r="4.69003" stroke-width="0.5" stroke="black" fill="cyan"/>
   </g>
   <g id="cell52">
  <circle cx="516.178" cy="417.573" r="7.00193" stroke-width="0.5" stroke="black" fill="cyan"/>
  <circle cx="516.178" cy="417.573" r="4.27611" stroke-width="0.5" stroke="black" fill="black"/>
   </g>
   <g id="cell53">
  <circle cx="573.195" cy="425.335" r="8.41235" stroke-width="0.5" stroke="black" fill="cyan"/>
  <circle cx="573.195" cy="425.335" r="5.05159" stroke-width="0.5" stroke="black" fill="cyan"/>
   </g>
   <g id="cell54">
  <circle cx="480.533" cy="416.576" r="8.41249" stroke-width="0.5" stroke="black" fill="cyan"/>
  <circle cx="480.533" cy="416.576" r="5.05162" stroke-width="0.5" stroke="black" fill="cyan"/>
   </g>
   <g id="cell55">
  <circle cx="521.974" cy="458.988" r="8.41237" stroke-width="0.5" stroke="black" fill="cyan"/>
  <circle cx="521.974" cy="458.988" r="5.0516" stroke-width="0.5" stroke="black" fill="cyan"/>
   </g>
   <g id="cell56">
  <circle cx="622.757" cy="522.423" r="8.41271" stroke-width="0.5" stroke="black" fill="cyan"/>
  <circle cx="622.757" cy="522.423" r="5.05167" stroke-width="0.5" stroke="black" fill="cyan"/>
   </g>
   <g id="cell105">
  <circle cx="503.541" cy="608.817" r="8.40184" stroke-width="0.5" stroke="black" fill="green"/>
  <circle cx="503.541" cy="608.817" r="5.0483" stroke-width="0.5" stroke="black" fill="green"/>
   </g>
   <g id="cell58">
  <circle cx="569.364" cy="475.196" r="8.38291" stroke-width="0.5" stroke="black" fill="cyan"/>
  <circle cx="569.364" cy="475.196" r="5.04103" stroke-width="0.5" stroke="black" fill="cyan"/>
   </g>
   <g id="cell59">
  <circle cx="385.732" cy="440.058" r="8.41271" stroke-width="0.5" stroke="black" fill="cyan"/>
  <circle cx="385.732" cy="440.058" r="5.05167" stroke-width="0.5" stroke="black" fill="cyan"/>
   </g>
   <g id="cell60">
  <circle cx="596.678" cy="464.941" r="8.28985" stroke-width="0.5" stroke="black" fill="cyan"/>
  <circle cx="596.678" cy="464.941" r="4.99956" stroke-width="0.5" stroke="black" fill="cyan"/>
   </g>
   <g id="cell186">
  <circle cx="354.924" cy="562.196" r="3.08271" stroke-width="0.5" stroke="black" fill="cyan"/>
  <circle cx="354.924" cy="562.196" r="2.48027" stroke-width="0.5" stroke="black" fill="black"/>
   </g>
   <g id="cell62">
  <circle cx="514.575" cy="432.958" r="8.27393" stroke-width="0.5" stroke="black" fill="cyan"/>
  <circle cx="514.575" cy="432.958" r="4.99214" stroke-width="0.5" stroke="black" fill="cyan"/>
   </g>
   <g id="cell63">
  <circle cx="585.835" cy="539.713" r="8.4082" stroke-width="0.5" stroke="black" fill="cyan"/>
  <circle cx="585.835" cy="539.713" r="5.05038" stroke-width="0.5" stroke="black" fill="cyan"/>
   </g>
   <g id="cell64">
  <circle cx="509.363" cy="638.223" r="8.41271" stroke-width="0.5" stroke="black" fill="cyan"/>
  <circle cx="509.363" cy="638.223" r="5.05167" stroke-width="0.5" stroke="black" fill="cyan"/>
   </g>
   <g id="cell65">
  <circle cx="545.492" cy="464.559" r="8.41256" stroke-width="0.5" stroke="black" fill="cyan"/>
  <circle cx="545.492" cy="464.559" r="5.05164" stroke-width="0.5" stroke="black" fill="cyan"/>
   </g>
   <g id="cell66">
  <circle cx="534.608" cy="535.846" r="8.41248" stroke-width="0.5" stroke="black" fill="cyan"/>
  <circle cx="534.608" cy="535.846" r="5.05162" stroke-width="0.5" stroke="black" fill="cyan"/>
   </g>
   <g id="cell67">
  <circle cx="354.659" cy="492.853" r="8.41271" stroke-width="0.5" stroke="black" fill="cyan"/>
  <circle cx="354.659" cy="492.853" r="5.05167" stroke-width="0.5" stroke="black" fill="cyan"/>
   </g>
   <g id="cell212">
  <circle cx="569.724" cy="499.782" r="6.95973" stroke-width="0.5" stroke="black" fill="magenta"/>
  <circle cx="569.724" cy="499.782" r="4.249" stroke-width="0.5" stroke="black" fill="magenta"/>
   </g>
   <g id="cell69">
  <circle cx="443.727" cy="460.744" r="8.41271" stroke-width="0.5" stroke="black" fill="cyan"/>
  <circle cx="443.727" cy="460.744" r="5.05167" stroke-width="0.5" stroke="black" fill="cyan"/>
   </g>
   <g id="cell70">
  <circle cx="584.98" cy="481.073" r="8.41271" stroke-width="0.5" stroke="black" fill="cyan"/>
  <circle cx="584.98" cy="481.073" r="5.05167" stroke-width="0.5" stroke="black" fill="cyan"/>
   </g>
   <g id="cell71">
  <circle cx="381.984" cy="533.547" r="1.43551" stroke-width="0.5" stroke="black" fill="cyan"/>
  <circle cx="381.984" cy="533.547" r="1.41806" stroke-width="0.5" stroke="black" fill="black"/>
   </g>
   <g id="cell72">
  <circle cx="535.119" cy="502.148" r="8.32532" stroke-width="0.5" stroke="black" fill="cyan"/>
  <circle cx="535.119" cy="502.148" r="5.01615" stroke-width="0.5" stroke="black" fill="cyan"/>
   </g>
   <g id="cell73">
  <circle cx="365.342" cy="550.055" r="7.61394" stroke-width="0.5" stroke="black" fill="cyan"/>
  <circle cx="365.342" cy="550.055" r="4.64016" stroke-width="0.5" stroke="black" fill="cyan"/>
   </g>
   <g id="cell162">
  <circle cx="374.543" cy="538.619" r="8.36178" stroke-width="0.5" stroke="black" fill="magenta"/>
  <circle cx="374.543" cy="538.619" r="5.03227" stroke-width="0.5" stroke="black" fill="magenta"/>
   </g>
   <g id="cell75">
  <circle cx="528.283" cy="427.392" r="8.41266" stroke-width="0.5" stroke="black" fill="cyan"/>
  <circle cx="528.283" cy="427.392" r="5.05166" stroke-width="0.5" stroke="black" fill="cyan"/>
   </g>
   <g id="cell76">
  <circle cx="436.035" cy="375.508" r="8.41203" stroke-width="0.5" stroke="black" fill="green"/>
  <circle cx="436.035" cy="375.508" r="5.05151" stroke-width="0.5" stroke="black" fill="green"/>
   </g>
   <g id="cell77">
  <circle cx="469.599" cy="447.221" r="8.41219" stroke-width="0.5" stroke="black" fill="magenta"/>
  <circle cx="469.599" cy="447.221" r="5.05155" stroke-width="0.5" stroke="black" fill="magenta"/>
   </g>
   <g id="cell78">
  <circle cx="626.332" cy="455.51" r="8.41254" stroke-width="0.5" stroke="black" fill="green"/>
  <circle cx="626.332" cy="455.51" r="5.05163" stroke-width="0.5" stroke="black" fill="green"/>
   </g>
   <g id="cell79">
  <circle cx="518.305" cy="474.393" r="8.41265" stroke-width="0.5" stroke="black" fill="cyan"/>
  <circle cx="518.305" cy="474.393" r="5.05166" stroke-width="0.5" stroke="black" fill="cyan"/>
   </g>
   <g id="cell80">
  <circle cx="542.332" cy="631.178" r="7.97533" stroke-width="0.5" stroke="black" fill="green"/>
  <circle cx="542.332" cy="631.178" r="4.83553" stroke-width="0.5" stroke="black" fill="green"/>
   </g>
   <g id="cell81">
  <circle cx="549.94" cy="588.697" r="8.41261" stroke-width="0.5" stroke="black" fill="green"/>
  <circle cx="549.94" cy="588.697" r="5.05165" stroke-width="0.5" stroke="black" fill="green"/>
   </g>
   <g id="cell82">
  <circle cx="529.999" cy="559.977" r="8.40086" stroke-width="0.5" stroke="black" fill="magenta"/>
  <circle cx="529.999" cy="559.977" r="5.04788" stroke-width="0.5" stroke="black" fill="magenta"/>
   </g>
   <g id="cell211">
  <circle cx="450.128" cy="371.574" r="7.1463" stroke-width="0.5" stroke="black" fill="green"/>
  <circle cx="450.128" cy="371.574" r="4.33898" stroke-width="0.5" stroke="black" fill="green"/>
   </g>
   <g id="cell84">
  <circle cx="512.238" cy="488.953" r="8.19464" stroke-width="0.5" stroke="black" fill="cyan"/>
  <circle cx="512.238" cy="488.953" r="4.95245" stroke-width="0.5" stroke="black" fill="cyan"/>
   </g>
   <g id="cell85">
  <circle cx="345.126" cy="541.937" r="8.41238" stroke-width="0.5" stroke="black" fill="cyan"/>
  <circle cx="345.126" cy="541.937" r="5.0516" stroke-width="0.5" stroke="black" fill="cyan"/>
   </g>
   <g id="cell86">
  <circle cx="495.413" cy="539.091" r="8.41043" stroke-width="0.5" stroke="black" fill="magenta"/>
  <circle cx="495.413" cy="539.091" r="5.05106" stroke-width="0.5" stroke="black" fill="magenta"/>
   </g>
   <g id="cell87">
  <circle cx="574.209" cy="558.436" r="8.41225" stroke-width="0.5" stroke="black" fill="cyan"/>
  <circle cx="574.209" cy="558.436" r="5.05157" stroke-width="0.5" stroke="black" fill="cyan"/>
   </g>
   <g id="cell88">
  <circle cx="445.478" cy="535.184" r="6.69368" stroke-width="0.5" stroke="black" fill="magenta"/>
  <circle cx="445.478" cy="535.184" r="4.03616" stroke-width="0.5" stroke="black" fill="magenta"/>
   </g>
   <g id="cell89">
  <circle cx="553.923" cy="450.138" r="8.39766" stroke-width="0.5" stroke="black" fill="cyan"/>
  <circle cx="553.923" cy="450.138" r="5.04692" stroke-width="0.5" stroke="black" fill="cyan"/>
   </g>
   <g id="cell90">
  <circle cx="637.387" cy="471.315" r="8.40944" stroke-width="0.5" stroke="black" fill="green"/>
  <circle cx="637.387" cy="471.315" r="5.05077" stroke-width="0.5" stroke="black" fill="green"/>
   </g>
   <g id="cell91">
  <circle cx="544.894" cy="564.242" r="8.41242" stroke-width="0.5" stroke="black" fill="magenta"/>
  <circle cx="544.894" cy="564.242" r="5.05161" stroke-width="0.5" stroke="black" fill="magenta"/>
   </g>
   <g id="cell92">
  <circle cx="486.215" cy="551.332" r="8.41253" stroke-width="0.5" stroke="black" fill="green"/>
  <circle cx="486.215" cy="551.332" r="5.05163" stroke-width="0.5" stroke="black" fill="green"/>
   </g>
   <g id="cell93">
  <circle cx="540.748" cy="549.666" r="8.41242" stroke-width="0.5" stroke="black" fill="magenta"/>
  <circle cx="540.748" cy="549.666" r="5.05161" stroke-width="0.5" stroke="black" fill="magenta"/>
   </g>
   <g id="cell94">
  <circle cx="543.659" cy="488.93" r="8.4125" stroke-width="0.5" stroke="black" fill="cyan"/>
  <circle cx="543.659" cy="488.93" r="5.05162" stroke-width="0.5" stroke="black" fill="cyan"/>
   </g>
   <g id="cell95">
  <circle cx="466.03" cy="421.207" r="7.9888" stroke-width="0.5" stroke="black" fill="cyan"/>
  <circle cx="466.03" cy="421.207" r="4.8427" stroke-width="0.5" stroke="black" fill="cyan"/>
   </g>
   <g id="cell96">
  <circle cx="553.994" cy="541.059" r="8.40655" stroke-width="0.5" stroke="black" fill="cyan"/>
  <circle cx="553.994" cy="541.059" r="5.04985" stroke-width="0.5" stroke="black" fill="cyan"/>
   </g>
   <g id="cell97">
  <circle cx="420.431" cy="463.922" r="8.41228" stroke-width="0.5" stroke="black" fill="green"/>
  <circle cx="420.431" cy="463.922" r="5.05157" stroke-width="0.5" stroke="black" fill="green"/>
   </g>
   <g id="cell98">
  <circle cx="490.426" cy="524.178" r="8.40996" stroke-width="0.5" stroke="black" fill="green"/>
  <circle cx="490.426" cy="524.178" r="5.05093" stroke-width="0.5" stroke="black" fill="green"/>
   </g>
   <g id="cell99">
  <circle cx="367.802" cy="524.567" r="8.41238" stroke-width="0.5" stroke="black" fill="cyan"/>
  <circle cx="367.802" cy="524.567" r="5.0516" stroke-width="0.5" stroke="black" fill="cyan"/>
   </g>
   <g id="cell100">
  <circle cx="446.338" cy="403.84" r="8.41238" stroke-width="0.5" stroke="black" fill="green"/>
  <circle cx="446.338" cy="403.84" r="5.0516" stroke-width="0.5" stroke="black" fill="green"/>
   </g>
   <g id="cell101">
  <circle cx="527.488" cy="488.713" r="8.14235" stroke-width="0.5" stroke="black" fill="cyan"/>
  <circle cx="527.488" cy="488.713" r="4.92616" stroke-width="0.5" stroke="black" fill="cyan"/>
   </g>
   <g id="cell102">
  <circle cx="441.578" cy="475.786" r="7.54409" stroke-width="0.5" stroke="black" fill="green"/>
  <circle cx="441.578" cy="475.786" r="4.58549" stroke-width="0.5" stroke="black" fill="green"/>
   </g>
   <g id="cell103">
  <circle cx="592.721" cy="449.655" r="8.41037" stroke-width="0.5" stroke="black" fill="cyan"/>
  <circle cx="592.721" cy="449.655" r="5.05105" stroke-width="0.5" stroke="black" fill="cyan"/>
   </g>
   <g id="cell104">
  <circle cx="606.799" cy="554.043" r="8.20986" stroke-width="0.5" stroke="black" fill="cyan"/>
  <circle cx="606.799" cy="554.043" r="4.96162" stroke-width="0.5" stroke="black" fill="cyan"/>
   </g>
   <g id="cell106">
  <circle cx="454.656" cy="449.584" r="8.41219" stroke-width="0.5" stroke="black" fill="magenta"/>
  <circle cx="454.656" cy="449.584" r="5.05155" stroke-width="0.5" stroke="black" fill="magenta"/>
   </g>
   <g id="cell107">
  <circle cx="467.32" cy="390.805" r="8.34401" stroke-width="0.5" stroke="black" fill="green"/>
  <circle cx="467.32" cy="390.805" r="5.02593" stroke-width="0.5" stroke="black" fill="green"/>
   </g>
   <g id="cell108">
  <circle cx="562.597" cy="609.46" r="8.41211" stroke-width="0.5" stroke="black" fill="green"/>
  <circle cx="562.597" cy="609.46" r="5.05153" stroke-width="0.5" stroke="black" fill="green"/>
   </g>
   <g id="cell109">
  <circle cx="576.382" cy="588.663" r="8.41175" stroke-width="0.5" stroke="black" fill="green"/>
  <circle cx="576.382" cy="588.663" r="5.05144" stroke-width="0.5" stroke="black" fill="green"/>
   </g>
   <g id="cell110">
  <circle cx="369.343" cy="508.826" r="8.41189" stroke-width="0.5" stroke="black" fill="cyan"/>
  <circle cx="369.343" cy="508.826" r="5.05147" stroke-width="0.5" stroke="black" fill="cyan"/>
   </g>
   <g id="cell111">
  <circle cx="457.032" cy="556.676" r="8.40585" stroke-width="0.5" stroke="black" fill="magenta"/>
  <circle cx="457.032" cy="556.676" r="5.04964" stroke-width="0.5" stroke="black" fill="magenta"/>
   </g>
   <g id="cell112">
  <circle cx="491.852" cy="468.644" r="8.39573" stroke-width="0.5" stroke="black" fill="magenta"/>
  <circle cx="491.852" cy="468.644" r="5.04605" stroke-width="0.5" stroke="black" fill="magenta"/>
   </g>
   <g id="cell113">
  <circle cx="547.124" cy="373.08" r="6.79865" stroke-width="0.5" stroke="black" fill="green"/>
  <circle cx="547.124" cy="373.08" r="4.10376" stroke-width="0.5" stroke="black" fill="green"/>
   </g>
   <g id="cell114">
  <circle cx="525.231" cy="443.46" r="8.41113" stroke-width="0.5" stroke="black" fill="cyan"/>
  <circle cx="525.231" cy="443.46" r="5.05128" stroke-width="0.5" stroke="black" fill="cyan"/>
   </g>
   <g id="cell115">
  <circle cx="538.458" cy="450.84" r="8.40709" stroke-width="0.5" stroke="black" fill="cyan"/>
  <circle cx="538.458" cy="450.84" r="5.05007" stroke-width="0.5" stroke="black" fill="cyan"/>
   </g>
   <g id="cell116">
  <circle cx="519.983" cy="532.038" r="8.24845" stroke-width="0.5" stroke="black" fill="cyan"/>
  <circle cx="519.983" cy="532.038" r="4.97963" stroke-width="0.5" stroke="black" fill="cyan"/>
   </g>
   <g id="cell117">
  <circle cx="500.736" cy="624.696" r="8.41095" stroke-width="0.5" stroke="black" fill="green"/>
  <circle cx="500.736" cy="624.696" r="5.05122" stroke-width="0.5" stroke="black" fill="green"/>
   </g>
   <g id="cell118">
  <circle cx="509.86" cy="448.46" r="8.4107" stroke-width="0.5" stroke="black" fill="cyan"/>
  <circle cx="509.86" cy="448.46" r="5.05114" stroke-width="0.5" stroke="black" fill="cyan"/>
   </g>
   <g id="cell119">
  <circle cx="548.381" cy="603.297" r="8.27392" stroke-width="0.5" stroke="black" fill="green"/>
  <circle cx="548.381" cy="603.297" r="4.99214" stroke-width="0.5" stroke="black" fill="green"/>
   </g>
   <g id="cell120">
  <circle cx="580.614" cy="439.319" r="8.41037" stroke-width="0.5" stroke="black" fill="cyan"/>
  <circle cx="580.614" cy="439.319" r="5.05105" stroke-width="0.5" stroke="black" fill="cyan"/>
   </g>
   <g id="cell121">
  <circle cx="452.931" cy="358.451" r="7.1463" stroke-width="0.5" stroke="black" fill="green"/>
  <circle cx="452.931" cy="358.451" r="4.33898" stroke-width="0.5" stroke="black" fill="green"/>
   </g>
   <g id="cell122">
  <circle cx="505.448" cy="528.197" r="8.41043" stroke-width="0.5" stroke="black" fill="magenta"/>
  <circle cx="505.448" cy="528.197" r="5.05106" stroke-width="0.5" stroke="black" fill="magenta"/>
   </g>
   <g id="cell123">
  <circle cx="486.617" cy="507.103" r="8.40996" stroke-width="0.5" stroke="black" fill="green"/>
  <circle cx="486.617" cy="507.103" r="5.05093" stroke-width="0.5" stroke="black" fill="green"/>
   </g>
   <g id="cell124">
  <circle cx="488.518" cy="429.677" r="8.05506" stroke-width="0.5" stroke="black" fill="magenta"/>
  <circle cx="488.518" cy="429.677" r="4.87925" stroke-width="0.5" stroke="black" fill="magenta"/>
   </g>
   <g id="cell125">
  <circle cx="624.735" cy="483.585" r="7.35777" stroke-width="0.5" stroke="black" fill="green"/>
  <circle cx="624.735" cy="483.585" r="4.47229" stroke-width="0.5" stroke="black" fill="green"/>
   </g>
   <g id="cell126">
  <circle cx="628.988" cy="566.353" r="8.4094" stroke-width="0.5" stroke="black" fill="green"/>
  <circle cx="628.988" cy="566.353" r="5.05075" stroke-width="0.5" stroke="black" fill="green"/>
   </g>
   <g id="cell127">
  <circle cx="432.447" cy="361.289" r="7.20855" stroke-width="0.5" stroke="black" fill="green"/>
  <circle cx="432.447" cy="361.289" r="4.37892" stroke-width="0.5" stroke="black" fill="green"/>
   </g>
   <g id="cell128">
  <circle cx="372.114" cy="467.548" r="8.40862" stroke-width="0.5" stroke="black" fill="magenta"/>
  <circle cx="372.114" cy="467.548" r="5.0505" stroke-width="0.5" stroke="black" fill="magenta"/>
   </g>
   <g id="cell129">
  <circle cx="569.886" cy="543.046" r="8.4082" stroke-width="0.5" stroke="black" fill="cyan"/>
  <circle cx="569.886" cy="543.046" r="5.05038" stroke-width="0.5" stroke="black" fill="cyan"/>
   </g>
   <g id="cell130">
  <circle cx="546.398" cy="436.789" r="8.40709" stroke-width="0.5" stroke="black" fill="cyan"/>
  <circle cx="546.398" cy="436.789" r="5.05007" stroke-width="0.5" stroke="black" fill="cyan"/>
   </g>
   <g id="cell131">
  <circle cx="543.537" cy="514.258" r="7.58617" stroke-width="0.5" stroke="black" fill="cyan"/>
  <circle cx="543.537" cy="514.258" r="4.63877" stroke-width="0.5" stroke="black" fill="cyan"/>
   </g>
   <g id="cell132">
  <circle cx="444.01" cy="548.837" r="8.40585" stroke-width="0.5" stroke="black" fill="magenta"/>
  <circle cx="444.01" cy="548.837" r="5.04964" stroke-width="0.5" stroke="black" fill="magenta"/>
   </g>
   <g id="cell133">
  <circle cx="581.164" cy="465.371" r="8.40625" stroke-width="0.5" stroke="black" fill="cyan"/>
  <circle cx="581.164" cy="465.371" r="5.04974" stroke-width="0.5" stroke="black" fill="cyan"/>
   </g>
   <g id="cell201">
  <circle cx="557.049" cy="519.618" r="7.58617" stroke-width="0.5" stroke="black" fill="cyan"/>
  <circle cx="557.049" cy="519.618" r="4.63877" stroke-width="0.5" stroke="black" fill="cyan"/>
   </g>
   <g id="cell135">
  <circle cx="509.377" cy="582.654" r="8.40537" stroke-width="0.5" stroke="black" fill="magenta"/>
  <circle cx="509.377" cy="582.654" r="5.04944" stroke-width="0.5" stroke="black" fill="magenta"/>
   </g>
   <g id="cell136">
  <circle cx="470.67" cy="549.081" r="8.40417" stroke-width="0.5" stroke="black" fill="green"/>
  <circle cx="470.67" cy="549.081" r="5.04904" stroke-width="0.5" stroke="black" fill="green"/>
   </g>
   <g id="cell137">
  <circle cx="488.543" cy="614.417" r="8.40184" stroke-width="0.5" stroke="black" fill="green"/>
  <circle cx="488.543" cy="614.417" r="5.0483" stroke-width="0.5" stroke="black" fill="green"/>
   </g>
   <g id="cell138">
  <circle cx="502.604" cy="404.51" r="8.40272" stroke-width="0.5" stroke="black" fill="green"/>
  <circle cx="502.604" cy="404.51" r="5.04853" stroke-width="0.5" stroke="black" fill="green"/>
   </g>
   <g id="cell139">
  <circle cx="415.799" cy="407.003" r="8.40123" stroke-width="0.5" stroke="black" fill="magenta"/>
  <circle cx="415.799" cy="407.003" r="5.048" stroke-width="0.5" stroke="black" fill="magenta"/>
   </g>
   <g id="cell140">
  <circle cx="519.253" cy="571.516" r="8.3907" stroke-width="0.5" stroke="black" fill="magenta"/>
  <circle cx="519.253" cy="571.516" r="5.04443" stroke-width="0.5" stroke="black" fill="magenta"/>
   </g>
   <g id="cell141">
  <circle cx="571.914" cy="452.551" r="8.39766" stroke-width="0.5" stroke="black" fill="cyan"/>
  <circle cx="571.914" cy="452.551" r="5.04692" stroke-width="0.5" stroke="black" fill="cyan"/>
   </g>
   <g id="cell142">
  <circle cx="542.232" cy="422.128" r="8.24387" stroke-width="0.5" stroke="black" fill="green"/>
  <circle cx="542.232" cy="422.128" r="4.98029" stroke-width="0.5" stroke="black" fill="green"/>
   </g>
   <g id="cell143">
  <circle cx="430.815" cy="405.076" r="8.39411" stroke-width="0.5" stroke="black" fill="magenta"/>
  <circle cx="430.815" cy="405.076" r="5.04567" stroke-width="0.5" stroke="black" fill="magenta"/>
   </g>
   <g id="cell144">
  <circle cx="546.079" cy="407.934" r="8.36621" stroke-width="0.5" stroke="black" fill="green"/>
  <circle cx="546.079" cy="407.934" r="5.03509" stroke-width="0.5" stroke="black" fill="green"/>
   </g>
   <g id="cell185">
  <circle cx="596.942" cy="564.823" r="7.16832" stroke-width="0.5" stroke="black" fill="cyan"/>
  <circle cx="596.942" cy="564.823" r="4.37628" stroke-width="0.5" stroke="black" fill="cyan"/>
   </g>
   <g id="cell147">
  <circle cx="514.898" cy="557.546" r="8.3907" stroke-width="0.5" stroke="black" fill="magenta"/>
  <circle cx="514.898" cy="557.546" r="5.04443" stroke-width="0.5" stroke="black" fill="magenta"/>
   </g>
   <g id="cell148">
  <circle cx="506.943" cy="463.588" r="8.12906" stroke-width="0.5" stroke="black" fill="magenta"/>
  <circle cx="506.943" cy="463.588" r="4.92011" stroke-width="0.5" stroke="black" fill="magenta"/>
   </g>
   <g id="cell149">
  <circle cx="574.117" cy="398.358" r="8.39144" stroke-width="0.5" stroke="black" fill="magenta"/>
  <circle cx="574.117" cy="398.358" r="5.04437" stroke-width="0.5" stroke="black" fill="magenta"/>
   </g>
   <g id="cell150">
  <circle cx="411.01" cy="581.251" r="8.34199" stroke-width="0.5" stroke="black" fill="green"/>
  <circle cx="411.01" cy="581.251" r="5.02474" stroke-width="0.5" stroke="black" fill="green"/>
   </g>
   <g id="cell151">
  <circle cx="420.863" cy="529.175" r="8.38608" stroke-width="0.5" stroke="black" fill="green"/>
  <circle cx="420.863" cy="529.175" r="5.04229" stroke-width="0.5" stroke="black" fill="green"/>
   </g>
   <g id="cell152">
  <circle cx="373.196" cy="579.057" r="8.37257" stroke-width="0.5" stroke="black" fill="green"/>
  <circle cx="373.196" cy="579.057" r="5.03751" stroke-width="0.5" stroke="black" fill="green"/>
   </g>
   <g id="cell153">
  <circle cx="560.694" cy="463.443" r="8.38291" stroke-width="0.5" stroke="black" fill="cyan"/>
  <circle cx="560.694" cy="463.443" r="5.04103" stroke-width="0.5" stroke="black" fill="cyan"/>
   </g>
   <g id="cell154">
  <circle cx="386.949" cy="598.561" r="8.36189" stroke-width="0.5" stroke="black" fill="green"/>
  <circle cx="386.949" cy="598.561" r="5.03357" stroke-width="0.5" stroke="black" fill="green"/>
   </g>
   <g id="cell155">
  <circle cx="488.095" cy="582.866" r="8.38118" stroke-width="0.5" stroke="black" fill="green"/>
  <circle cx="488.095" cy="582.866" r="5.04034" stroke-width="0.5" stroke="black" fill="green"/>
   </g>
   <g id="cell156">
  <circle cx="455.856" cy="526.511" r="8.38111" stroke-width="0.5" stroke="black" fill="magenta"/>
  <circle cx="455.856" cy="526.511" r="5.04032" stroke-width="0.5" stroke="black" fill="magenta"/>
   </g>
   <g id="cell157">
  <circle cx="442.719" cy="519.45" r="8.3625" stroke-width="0.5" stroke="black" fill="magenta"/>
  <circle cx="442.719" cy="519.45" r="5.0335" stroke-width="0.5" stroke="black" fill="magenta"/>
   </g>
   <g id="cell158">
  <circle cx="565.827" cy="411.452" r="8.3682" stroke-width="0.5" stroke="black" fill="green"/>
  <circle cx="565.827" cy="411.452" r="5.0359" stroke-width="0.5" stroke="black" fill="green"/>
   </g>
   <g id="cell159">
  <circle cx="530.521" cy="397.004" r="7.89023" stroke-width="0.5" stroke="black" fill="green"/>
  <circle cx="530.521" cy="397.004" r="4.80094" stroke-width="0.5" stroke="black" fill="green"/>
   </g>
   <g id="cell160">
  <circle cx="464.288" cy="375.262" r="8.37195" stroke-width="0.5" stroke="black" fill="green"/>
  <circle cx="464.288" cy="375.262" r="5.03675" stroke-width="0.5" stroke="black" fill="green"/>
   </g>
   <g id="cell165">
  <circle cx="608.072" cy="526.411" r="7.98716" stroke-width="0.5" stroke="black" fill="magenta"/>
  <circle cx="608.072" cy="526.411" r="4.8473" stroke-width="0.5" stroke="black" fill="magenta"/>
   </g>
   <g id="cell166">
  <circle cx="480.6" cy="458.222" r="8.33653" stroke-width="0.5" stroke="black" fill="magenta"/>
  <circle cx="480.6" cy="458.222" r="5.02129" stroke-width="0.5" stroke="black" fill="magenta"/>
   </g>
   <g id="cell167">
  <circle cx="421.555" cy="392.632" r="8.32788" stroke-width="0.5" stroke="black" fill="green"/>
  <circle cx="421.555" cy="392.632" r="5.01729" stroke-width="0.5" stroke="black" fill="green"/>
   </g>
   <g id="cell170">
  <circle cx="460.262" cy="503.266" r="8.30918" stroke-width="0.5" stroke="black" fill="green"/>
  <circle cx="460.262" cy="503.266" r="5.00867" stroke-width="0.5" stroke="black" fill="green"/>
   </g>
   <g id="cell171">
  <circle cx="600.364" cy="480.061" r="8.28985" stroke-width="0.5" stroke="black" fill="cyan"/>
  <circle cx="600.364" cy="480.061" r="4.99956" stroke-width="0.5" stroke="black" fill="cyan"/>
   </g>
   <g id="cell172">
  <circle cx="550.569" cy="502.179" r="8.18476" stroke-width="0.5" stroke="black" fill="magenta"/>
  <circle cx="550.569" cy="502.179" r="4.95246" stroke-width="0.5" stroke="black" fill="magenta"/>
   </g>
   <g id="cell173">
  <circle cx="530.708" cy="520.89" r="8.27179" stroke-width="0.5" stroke="black" fill="cyan"/>
  <circle cx="530.708" cy="520.89" r="4.99146" stroke-width="0.5" stroke="black" fill="cyan"/>
   </g>
   <g id="cell174">
  <circle cx="497.044" cy="442.156" r="6.62458" stroke-width="0.5" stroke="black" fill="cyan"/>
  <circle cx="497.044" cy="442.156" r="4.0039" stroke-width="0.5" stroke="black" fill="cyan"/>
   </g>
   <g id="cell175">
  <circle cx="524.495" cy="607.124" r="7.70793" stroke-width="0.5" stroke="black" fill="green"/>
  <circle cx="524.495" cy="607.124" r="4.704" stroke-width="0.5" stroke="black" fill="green"/>
   </g>
   <g id="cell176">
  <circle cx="557.335" cy="424.849" r="8.24387" stroke-width="0.5" stroke="black" fill="green"/>
  <circle cx="557.335" cy="424.849" r="4.98029" stroke-width="0.5" stroke="black" fill="green"/>
   </g>
   <g id="cell177">
  <circle cx="369.18" cy="564.107" r="8.13679" stroke-width="0.5" stroke="black" fill="cyan"/>
  <circle cx="369.18" cy="564.107" r="4.92866" stroke-width="0.5" stroke="black" fill="cyan"/>
   </g>
   <g id="cell178">
  <circle cx="562.303" cy="508.439" r="6.95973" stroke-width="0.5" stroke="black" fill="magenta"/>
  <circle cx="562.303" cy="508.439" r="4.249" stroke-width="0.5" stroke="black" fill="magenta"/>
   </g>
   <g id="cell179">
  <circle cx="516.004" cy="517.164" r="8.24845" stroke-width="0.5" stroke="black" fill="cyan"/>
  <circle cx="516.004" cy="517.164" r="4.97963" stroke-width="0.5" stroke="black" fill="cyan"/>
   </g>
   <g id="cell180">
  <circle cx="619.826" cy="503.658" r="8.23948" stroke-width="0.5" stroke="black" fill="green"/>
  <circle cx="619.826" cy="503.658" r="4.97503" stroke-width="0.5" stroke="black" fill="green"/>
   </g>
   <g id="cell181">
  <circle cx="563.081" cy="528.714" r="4.11106" stroke-width="0.5" stroke="black" fill="cyan"/>
  <circle cx="563.081" cy="528.714" r="2.93024" stroke-width="0.5" stroke="black" fill="black"/>
   </g>
   <g id="cell182">
  <circle cx="533.789" cy="382.034" r="8.21023" stroke-width="0.5" stroke="black" fill="green"/>
  <circle cx="533.789" cy="382.034" r="4.96382" stroke-width="0.5" stroke="black" fill="green"/>
   </g>
   <g id="cell183">
  <circle cx="575.967" cy="511.562" r="8.22925" stroke-width="0.5" stroke="black" fill="magenta"/>
  <circle cx="575.967" cy="511.562" r="4.96993" stroke-width="0.5" stroke="black" fill="magenta"/>
   </g>
   <g id="cell184">
  <circle cx="432.363" cy="430.195" r="7.92626" stroke-width="0.5" stroke="black" fill="magenta"/>
  <circle cx="432.363" cy="430.195" r="4.81988" stroke-width="0.5" stroke="black" fill="magenta"/>
   </g>
   <g id="cell187">
  <circle cx="499.131" cy="497.203" r="8.19464" stroke-width="0.5" stroke="black" fill="cyan"/>
  <circle cx="499.131" cy="497.203" r="4.95245" stroke-width="0.5" stroke="black" fill="cyan"/>
   </g>
   <g id="cell188">
  <circle cx="533.902" cy="618.544" r="8.08021" stroke-width="0.5" stroke="black" fill="green"/>
  <circle cx="533.902" cy="618.544" r="4.89964" stroke-width="0.5" stroke="black" fill="green"/>
   </g>
   <g id="cell189">
  <circle cx="535.281" cy="475.833" r="8.14235" stroke-width="0.5" stroke="black" fill="cyan"/>
  <circle cx="535.281" cy="475.833" r="4.92616" stroke-width="0.5" stroke="black" fill="cyan"/>
   </g>
   <g id="cell190">
  <circle cx="546.482" cy="528.113" r="8.01379" stroke-width="0.5" stroke="black" fill="cyan"/>
  <circle cx="546.482" cy="528.113" r="4.86901" stroke-width="0.5" stroke="black" fill="cyan"/>
   </g>
   <g id="cell191">
  <circle cx="503.245" cy="477.531" r="8.12906" stroke-width="0.5" stroke="black" fill="magenta"/>
  <circle cx="503.245" cy="477.531" r="4.92011" stroke-width="0.5" stroke="black" fill="magenta"/>
   </g>
   <g id="cell192">
  <circle cx="474.441" cy="432.946" r="8.05506" stroke-width="0.5" stroke="black" fill="magenta"/>
  <circle cx="474.441" cy="432.946" r="4.87925" stroke-width="0.5" stroke="black" fill="magenta"/>
   </g>
   <g id="cell193">
  <circle cx="438.792" cy="417.399" r="7.92626" stroke-width="0.5" stroke="black" fill="magenta"/>
  <circle cx="438.792" cy="417.399" r="4.81988" stroke-width="0.5" stroke="black" fill="magenta"/>
   </g>
   <g id="cell194">
  <circle cx="601.458" cy="513.674" r="7.98716" stroke-width="0.5" stroke="black" fill="magenta"/>
  <circle cx="601.458" cy="513.674" r="4.8473" stroke-width="0.5" stroke="black" fill="magenta"/>
   </g>
   <g id="cell195">
  <circle cx="543.877" cy="394.001" r="7.89023" stroke-width="0.5" stroke="black" fill="green"/>
  <circle cx="543.877" cy="394.001" r="4.80094" stroke-width="0.5" stroke="black" fill="green"/>
   </g>
   <g id="cell196">
  <circle cx="459.86" cy="435.326" r="7.9888" stroke-width="0.5" stroke="black" fill="cyan"/>
  <circle cx="459.86" cy="435.326" r="4.8427" stroke-width="0.5" stroke="black" fill="cyan"/>
   </g>
   <g id="cell197">
  <circle cx="549.235" cy="617.944" r="7.97533" stroke-width="0.5" stroke="black" fill="green"/>
  <circle cx="549.235" cy="617.944" r="4.83553" stroke-width="0.5" stroke="black" fill="green"/>
   </g>
   <g id="cell198">
  <circle cx="424.854" cy="418.314" r="7.79591" stroke-width="0.5" stroke="black" fill="magenta"/>
  <circle cx="424.854" cy="418.314" r="4.74788" stroke-width="0.5" stroke="black" fill="magenta"/>
   </g>
   <g id="cell199">
  <circle cx="534.897" cy="596.983" r="7.70793" stroke-width="0.5" stroke="black" fill="green"/>
  <circle cx="534.897" cy="596.983" r="4.704" stroke-width="0.5" stroke="black" fill="green"/>
   </g>
   <g id="cell200">
  <circle cx="446.392" cy="429.604" r="7.81676" stroke-width="0.5" stroke="black" fill="magenta"/>
  <circle cx="446.392" cy="429.604" r="4.74888" stroke-width="0.5" stroke="black" fill="magenta"/>
   </g>
   <g id="cell202">
  <circle cx="402.876" cy="607.173" r="7.72056" stroke-width="0.5" stroke="black" fill="cyan"/>
  <circle cx="402.876" cy="607.173" r="4.69003" stroke-width="0.5" stroke="black" fill="cyan"/>
   </g>
   <g id="cell203">
  <circle cx="359.583" cy="537.143" r="7.61394" stroke-width="0.5" stroke="black" fill="cyan"/>
  <circle cx="359.583" cy="537.143" r="4.64016" stroke-width="0.5" stroke="black" fill="cyan"/>
   </g>
   <g id="cell204">
  <circle cx="572.819" cy="488.285" r="7.62105" stroke-width="0.5" stroke="black" fill="magenta"/>
  <circle cx="572.819" cy="488.285" r="4.64361" stroke-width="0.5" stroke="black" fill="magenta"/>
   </g>
   <g id="cell205">
  <circle cx="427.388" cy="477.475" r="7.54409" stroke-width="0.5" stroke="black" fill="green"/>
  <circle cx="427.388" cy="477.475" r="4.58549" stroke-width="0.5" stroke="black" fill="green"/>
   </g>
   <g id="cell206">
  <circle cx="465.554" cy="623.965" r="7.38797" stroke-width="0.5" stroke="black" fill="magenta"/>
  <circle cx="465.554" cy="623.965" r="4.49029" stroke-width="0.5" stroke="black" fill="magenta"/>
   </g>
   <g id="cell207">
  <circle cx="622.476" cy="469.895" r="7.35777" stroke-width="0.5" stroke="black" fill="green"/>
  <circle cx="622.476" cy="469.895" r="4.47229" stroke-width="0.5" stroke="black" fill="green"/>
   </g>
   <g id="cell208">
  <circle cx="588.332" cy="554.33" r="7.16832" stroke-width="0.5" stroke="black" fill="cyan"/>
  <circle cx="588.332" cy="554.33" r="4.37628" stroke-width="0.5" stroke="black" fill="cyan"/>
   </g>
   <g id="cell209">
  <circle cx="441.509" cy="351.138" r="7.20855" stroke-width="0.5" stroke="black" fill="green"/>
  <circle cx="441.509" cy="351.138" r="4.37892" stroke-width="0.5" stroke="black" fill="green"/>
   </g>
   <g id="cell210">
  <circle cx="655.372" cy="538.66" r="7.21184" stroke-width="0.5" stroke="black" fill="green"/>
  <circle cx="655.372" cy="538.66" r="4.37992" stroke-width="0.5" stroke="black" fill="green"/>
   </g>
   <g id="cell213">
  <circle cx="557.439" cy="383.742" r="5.39609" stroke-width="0.5" stroke="black" fill="green"/>
  <circle cx="557.439" cy="383.742" r="3.25715" stroke-width="0.5" stroke="black" fill="green"/>
   </g>
   <g id="cell214">
  <circle cx="501.684" cy="431.99" r="6.62458" stroke-width="0.5" stroke="black" fill="cyan"/>
  <circle cx="501.684" cy="431.99" r="4.0039" stroke-width="0.5" stroke="black" fill="cyan"/>
   </g>
   <g id="cell215">
  <circle cx="434.782" cy="530.109" r="6.69368" stroke-width="0.5" stroke="black" fill="magenta"/>
  <circle cx="434.782" cy="530.109" r="4.03616" stroke-width="0.5" stroke="black" fill="magenta"/>
   </g>
   <g id="cell216">
  <circle cx="541.031" cy="579.372" r="6.65262" stroke-width="0.5" stroke="black" fill="green"/>
  <circle cx="541.031" cy="579.372" r="4.00519" stroke-width="0.5" stroke="black" fill="green"/>
   </g>
   <g id="cell217">
  <circle cx="548.047" cy="383.68" r="5.39609" stroke-width="0.5" stroke="black" fill="green"/>
  <circle cx="548.047" cy="383.68" r="3.25715" stroke-width="0.5" stroke="black" fill="green"/>
   </g>
  </g>
 </g>
  <rect x="775" y="1035" width="200" height="10" stroke-width="2" stroke="rgb(255,255,255)" fill="rgb(0,0,0)"/>
  <text x="781.25" y="1028.75"
   font-family="Arial" font-size="25" fill="black" >
   200 &#956;m
  </text>
  <text x="25" y="1045"
   font-family="Arial" font-size="18.75" fill="black" >
   0 days, 0 hours, 0 minutes, and 48.6155 seconds
  </text>
  <rect x="0" y="70" width="1000" height="1000" stroke-width="2" stroke="rgb(0,0,0)" fill="none"/>
</svg>
