<?xml version="1.0" encoding="UTF-8" standalone="no"?>
<!-- Created with PhysiCell (http://PhysiCell.MathCancer.org/) -->
<svg 
 xmlns:dc="http://purl.org/dc/elements/1.1/" 
 xmlns:cc="http://creativecommons.org/ns#" 
 xmlns:rdf="http://www.w3.org/1999/02/22-rdf-syntax-ns#" 
 xmlns:svg="http://www.w3.org/2000/svg" 
 xmlns="http://www.w3.org/2000/svg" 
 version="1.1" 
 width="1000" 
 height="1070" 
 id="svg2">
  <rect x="0" y="0" width="1000" height="1070" stroke-width="2" stroke="white" fill="white"/>
  <text x="12.5" y="30"
   font-family="Arial" font-size="25" fill="black" >
   Current time: 0 days, 22 hours, and 15.00 minutes, z = 0.00 &#956;m
  </text>
  <text x="12.5" y="57.5"
   font-family="Arial" font-size="23.75" fill="black" >
   146 agents
  </text>
 <g id="tissue" 
    transform="translate(0,1070) scale(1,-1)">
  <g id="ECM">
  </g>
  <g id="cells">
   <g id="cell0">
  <circle cx="514.299" cy="535.273" r="8.39874" stroke-width="0.5" stroke="black" fill="magenta"/>
  <circle cx="514.299" cy="535.273" r="5.04711" stroke-width="0.5" stroke="black" fill="magenta"/>
   </g>
   <g id="cell1">
  <circle cx="601.59" cy="523.522" r="8.41271" stroke-width="0.5" stroke="black" fill="magenta"/>
  <circle cx="601.59" cy="523.522" r="5.05167" stroke-width="0.5" stroke="black" fill="magenta"/>
   </g>
   <g id="cell2">
  <circle cx="517.863" cy="597.131" r="8.41271" stroke-width="0.5" stroke="black" fill="magenta"/>
  <circle cx="517.863" cy="597.131" r="5.05167" stroke-width="0.5" stroke="black" fill="magenta"/>
   </g>
   <g id="cell3">
  <circle cx="523.897" cy="547.022" r="8.38986" stroke-width="0.5" stroke="black" fill="magenta"/>
  <circle cx="523.897" cy="547.022" r="5.04408" stroke-width="0.5" stroke="black" fill="magenta"/>
   </g>
   <g id="cell4">
  <circle cx="487.372" cy="446.553" r="8.08304" stroke-width="0.5" stroke="black" fill="magenta"/>
  <circle cx="487.372" cy="446.553" r="4.89466" stroke-width="0.5" stroke="black" fill="magenta"/>
   </g>
   <g id="cell5">
  <circle cx="465.032" cy="493.3" r="8.41271" stroke-width="0.5" stroke="black" fill="magenta"/>
  <circle cx="465.032" cy="493.3" r="5.05167" stroke-width="0.5" stroke="black" fill="magenta"/>
   </g>
   <g id="cell6">
  <circle cx="596.995" cy="515.253" r="2.08246" stroke-width="0.5" stroke="black" fill="magenta"/>
  <circle cx="596.995" cy="515.253" r="1.95565" stroke-width="0.5" stroke="black" fill="black"/>
   </g>
   <g id="cell7">
  <circle cx="495.588" cy="458.455" r="8.3031" stroke-width="0.5" stroke="black" fill="magenta"/>
  <circle cx="495.588" cy="458.455" r="5.00583" stroke-width="0.5" stroke="black" fill="magenta"/>
   </g>
   <g id="cell8">
  <circle cx="376.395" cy="542.796" r="8.41271" stroke-width="0.5" stroke="black" fill="magenta"/>
  <circle cx="376.395" cy="542.796" r="5.05167" stroke-width="0.5" stroke="black" fill="magenta"/>
   </g>
   <g id="cell9">
  <circle cx="460.472" cy="599.786" r="2.1864" stroke-width="0.5" stroke="black" fill="magenta"/>
  <circle cx="460.472" cy="599.786" r="2.0266" stroke-width="0.5" stroke="black" fill="black"/>
   </g>
   <g id="cell10">
  <circle cx="583.447" cy="392.105" r="8.41271" stroke-width="0.5" stroke="black" fill="magenta"/>
  <circle cx="583.447" cy="392.105" r="5.05167" stroke-width="0.5" stroke="black" fill="magenta"/>
   </g>
   <g id="cell11">
  <circle cx="592.034" cy="590.051" r="8.41271" stroke-width="0.5" stroke="black" fill="magenta"/>
  <circle cx="592.034" cy="590.051" r="5.05167" stroke-width="0.5" stroke="black" fill="magenta"/>
   </g>
   <g id="cell12">
  <circle cx="503.693" cy="594.101" r="7.46878" stroke-width="0.5" stroke="black" fill="magenta"/>
  <circle cx="503.693" cy="594.101" r="4.53982" stroke-width="0.5" stroke="black" fill="magenta"/>
   </g>
   <g id="cell13">
  <circle cx="386.194" cy="568.228" r="8.41271" stroke-width="0.5" stroke="black" fill="magenta"/>
  <circle cx="386.194" cy="568.228" r="5.05167" stroke-width="0.5" stroke="black" fill="magenta"/>
   </g>
   <g id="cell14">
  <circle cx="529.028" cy="402.333" r="8.41271" stroke-width="0.5" stroke="black" fill="magenta"/>
  <circle cx="529.028" cy="402.333" r="5.05167" stroke-width="0.5" stroke="black" fill="magenta"/>
   </g>
   <g id="cell15">
  <circle cx="384.324" cy="477.43" r="7.89373" stroke-width="0.5" stroke="black" fill="magenta"/>
  <circle cx="384.324" cy="477.43" r="4.78957" stroke-width="0.5" stroke="black" fill="magenta"/>
   </g>
   <g id="cell16">
  <circle cx="434.735" cy="418.208" r="4.82958" stroke-width="0.5" stroke="black" fill="magenta"/>
  <circle cx="434.735" cy="418.208" r="2.9665" stroke-width="0.5" stroke="black" fill="magenta"/>
   </g>
   <g id="cell17">
  <circle cx="570.283" cy="491.603" r="8.41271" stroke-width="0.5" stroke="black" fill="magenta"/>
  <circle cx="570.283" cy="491.603" r="5.05167" stroke-width="0.5" stroke="black" fill="magenta"/>
   </g>
   <g id="cell18">
  <circle cx="519.139" cy="390.692" r="8.41271" stroke-width="0.5" stroke="black" fill="magenta"/>
  <circle cx="519.139" cy="390.692" r="5.05167" stroke-width="0.5" stroke="black" fill="magenta"/>
   </g>
   <g id="cell19">
  <circle cx="459.48" cy="540.501" r="8.30072" stroke-width="0.5" stroke="black" fill="magenta"/>
  <circle cx="459.48" cy="540.501" r="5.00583" stroke-width="0.5" stroke="black" fill="magenta"/>
   </g>
   <g id="cell20">
  <circle cx="529.805" cy="417.51" r="8.41271" stroke-width="0.5" stroke="black" fill="magenta"/>
  <circle cx="529.805" cy="417.51" r="5.05167" stroke-width="0.5" stroke="black" fill="magenta"/>
   </g>
   <g id="cell21">
  <circle cx="466.522" cy="632.596" r="8.41271" stroke-width="0.5" stroke="black" fill="magenta"/>
  <circle cx="466.522" cy="632.596" r="5.05167" stroke-width="0.5" stroke="black" fill="magenta"/>
   </g>
   <g id="cell22">
  <circle cx="554.922" cy="493.94" r="8.41271" stroke-width="0.5" stroke="black" fill="magenta"/>
  <circle cx="554.922" cy="493.94" r="5.05167" stroke-width="0.5" stroke="black" fill="magenta"/>
   </g>
   <g id="cell23">
  <circle cx="545.481" cy="481.801" r="8.41271" stroke-width="0.5" stroke="black" fill="magenta"/>
  <circle cx="545.481" cy="481.801" r="5.05167" stroke-width="0.5" stroke="black" fill="magenta"/>
   </g>
   <g id="cell24">
  <circle cx="558.873" cy="381.224" r="8.41271" stroke-width="0.5" stroke="black" fill="magenta"/>
  <circle cx="558.873" cy="381.224" r="5.05167" stroke-width="0.5" stroke="black" fill="magenta"/>
   </g>
   <g id="cell25">
  <circle cx="648.126" cy="543.282" r="8.40403" stroke-width="0.5" stroke="black" fill="green"/>
  <circle cx="648.126" cy="543.282" r="5.04898" stroke-width="0.5" stroke="black" fill="green"/>
   </g>
   <g id="cell26">
  <circle cx="556.464" cy="396.463" r="8.29993" stroke-width="0.5" stroke="black" fill="green"/>
  <circle cx="556.464" cy="396.463" r="5.00433" stroke-width="0.5" stroke="black" fill="green"/>
   </g>
   <g id="cell27">
  <circle cx="465.227" cy="397.149" r="8.40731" stroke-width="0.5" stroke="black" fill="green"/>
  <circle cx="465.227" cy="397.149" r="5.05008" stroke-width="0.5" stroke="black" fill="green"/>
   </g>
   <g id="cell28">
  <circle cx="432.597" cy="530.834" r="8.41271" stroke-width="0.5" stroke="black" fill="green"/>
  <circle cx="432.597" cy="530.834" r="5.05167" stroke-width="0.5" stroke="black" fill="green"/>
   </g>
   <g id="cell29">
  <circle cx="450.504" cy="515.684" r="8.41271" stroke-width="0.5" stroke="black" fill="green"/>
  <circle cx="450.504" cy="515.684" r="5.05167" stroke-width="0.5" stroke="black" fill="green"/>
   </g>
   <g id="cell30">
  <circle cx="485.554" cy="535.723" r="7.3173" stroke-width="0.5" stroke="black" fill="green"/>
  <circle cx="485.554" cy="535.723" r="4.45007" stroke-width="0.5" stroke="black" fill="green"/>
   </g>
   <g id="cell31">
  <circle cx="412.807" cy="541.561" r="8.41271" stroke-width="0.5" stroke="black" fill="green"/>
  <circle cx="412.807" cy="541.561" r="5.05167" stroke-width="0.5" stroke="black" fill="green"/>
   </g>
   <g id="cell32">
  <circle cx="421.367" cy="481.396" r="2.90037" stroke-width="0.5" stroke="black" fill="green"/>
  <circle cx="421.367" cy="481.396" r="2.41986" stroke-width="0.5" stroke="black" fill="black"/>
   </g>
   <g id="cell33">
  <circle cx="502.102" cy="424.945" r="7.1497" stroke-width="0.5" stroke="black" fill="green"/>
  <circle cx="502.102" cy="424.945" r="4.34001" stroke-width="0.5" stroke="black" fill="green"/>
   </g>
   <g id="cell34">
  <circle cx="396.819" cy="450.575" r="3.04602" stroke-width="0.5" stroke="black" fill="green"/>
  <circle cx="396.819" cy="450.575" r="2.48703" stroke-width="0.5" stroke="black" fill="black"/>
   </g>
   <g id="cell35">
  <circle cx="553.929" cy="543.325" r="8.41271" stroke-width="0.5" stroke="black" fill="green"/>
  <circle cx="553.929" cy="543.325" r="5.05167" stroke-width="0.5" stroke="black" fill="green"/>
   </g>
   <g id="cell36">
  <circle cx="391.486" cy="582.903" r="8.41271" stroke-width="0.5" stroke="black" fill="green"/>
  <circle cx="391.486" cy="582.903" r="5.05167" stroke-width="0.5" stroke="black" fill="green"/>
   </g>
   <g id="cell37">
  <circle cx="640.04" cy="457.518" r="8.4065" stroke-width="0.5" stroke="black" fill="green"/>
  <circle cx="640.04" cy="457.518" r="5.04982" stroke-width="0.5" stroke="black" fill="green"/>
   </g>
   <g id="cell38">
  <circle cx="530.542" cy="588.235" r="8.40537" stroke-width="0.5" stroke="black" fill="green"/>
  <circle cx="530.542" cy="588.235" r="5.04944" stroke-width="0.5" stroke="black" fill="green"/>
   </g>
   <g id="cell39">
  <circle cx="613.539" cy="490.554" r="8.41271" stroke-width="0.5" stroke="black" fill="green"/>
  <circle cx="613.539" cy="490.554" r="5.05167" stroke-width="0.5" stroke="black" fill="green"/>
   </g>
   <g id="cell40">
  <circle cx="485.324" cy="571.564" r="8.41271" stroke-width="0.5" stroke="black" fill="green"/>
  <circle cx="485.324" cy="571.564" r="5.05167" stroke-width="0.5" stroke="black" fill="green"/>
   </g>
   <g id="cell41">
  <circle cx="364.189" cy="481.451" r="8.41271" stroke-width="0.5" stroke="black" fill="green"/>
  <circle cx="364.189" cy="481.451" r="5.05167" stroke-width="0.5" stroke="black" fill="green"/>
   </g>
   <g id="cell42">
  <circle cx="438.785" cy="493.977" r="8.41271" stroke-width="0.5" stroke="black" fill="green"/>
  <circle cx="438.785" cy="493.977" r="5.05167" stroke-width="0.5" stroke="black" fill="green"/>
   </g>
   <g id="cell43">
  <circle cx="560.655" cy="439.95" r="8.41271" stroke-width="0.5" stroke="black" fill="green"/>
  <circle cx="560.655" cy="439.95" r="5.05167" stroke-width="0.5" stroke="black" fill="green"/>
   </g>
   <g id="cell44">
  <circle cx="473.704" cy="625.999" r="2.1864" stroke-width="0.5" stroke="black" fill="green"/>
  <circle cx="473.704" cy="625.999" r="2.0266" stroke-width="0.5" stroke="black" fill="black"/>
   </g>
   <g id="cell145">
  <circle cx="426.319" cy="416.762" r="4.82958" stroke-width="0.5" stroke="black" fill="magenta"/>
  <circle cx="426.319" cy="416.762" r="2.9665" stroke-width="0.5" stroke="black" fill="magenta"/>
   </g>
   <g id="cell46">
  <circle cx="520.583" cy="612.596" r="8.3632" stroke-width="0.5" stroke="black" fill="green"/>
  <circle cx="520.583" cy="612.596" r="5.03288" stroke-width="0.5" stroke="black" fill="green"/>
   </g>
   <g id="cell47">
  <circle cx="504.698" cy="494.87" r="8.38206" stroke-width="0.5" stroke="black" fill="green"/>
  <circle cx="504.698" cy="494.87" r="5.04069" stroke-width="0.5" stroke="black" fill="green"/>
   </g>
   <g id="cell48">
  <circle cx="571.13" cy="604.737" r="8.29852" stroke-width="0.5" stroke="black" fill="green"/>
  <circle cx="571.13" cy="604.737" r="5.006" stroke-width="0.5" stroke="black" fill="green"/>
   </g>
   <g id="cell49">
  <circle cx="432.791" cy="395.77" r="8.41271" stroke-width="0.5" stroke="black" fill="green"/>
  <circle cx="432.791" cy="395.77" r="5.05167" stroke-width="0.5" stroke="black" fill="green"/>
   </g>
   <g id="cell50">
  <circle cx="512.918" cy="508.219" r="8.2516" stroke-width="0.5" stroke="black" fill="cyan"/>
  <circle cx="512.918" cy="508.219" r="4.98211" stroke-width="0.5" stroke="black" fill="cyan"/>
   </g>
   <g id="cell51">
  <circle cx="398.721" cy="597.201" r="8.41271" stroke-width="0.5" stroke="black" fill="cyan"/>
  <circle cx="398.721" cy="597.201" r="5.05167" stroke-width="0.5" stroke="black" fill="cyan"/>
   </g>
   <g id="cell52">
  <circle cx="515.986" cy="422.85" r="8.41271" stroke-width="0.5" stroke="black" fill="cyan"/>
  <circle cx="515.986" cy="422.85" r="5.05167" stroke-width="0.5" stroke="black" fill="cyan"/>
   </g>
   <g id="cell53">
  <circle cx="572.415" cy="429.233" r="8.37092" stroke-width="0.5" stroke="black" fill="cyan"/>
  <circle cx="572.415" cy="429.233" r="5.03613" stroke-width="0.5" stroke="black" fill="cyan"/>
   </g>
   <g id="cell54">
  <circle cx="481.124" cy="421.184" r="8.38753" stroke-width="0.5" stroke="black" fill="cyan"/>
  <circle cx="481.124" cy="421.184" r="5.04286" stroke-width="0.5" stroke="black" fill="cyan"/>
   </g>
   <g id="cell55">
  <circle cx="521.699" cy="463.77" r="8.37291" stroke-width="0.5" stroke="black" fill="cyan"/>
  <circle cx="521.699" cy="463.77" r="5.03734" stroke-width="0.5" stroke="black" fill="cyan"/>
   </g>
   <g id="cell56">
  <circle cx="617.158" cy="522.398" r="8.41271" stroke-width="0.5" stroke="black" fill="cyan"/>
  <circle cx="617.158" cy="522.398" r="5.05167" stroke-width="0.5" stroke="black" fill="cyan"/>
   </g>
   <g id="cell105">
  <circle cx="507.495" cy="606.805" r="7.00184" stroke-width="0.5" stroke="black" fill="green"/>
  <circle cx="507.495" cy="606.805" r="4.27362" stroke-width="0.5" stroke="black" fill="green"/>
   </g>
   <g id="cell58">
  <circle cx="560.684" cy="479.611" r="8.41271" stroke-width="0.5" stroke="black" fill="cyan"/>
  <circle cx="560.684" cy="479.611" r="5.05167" stroke-width="0.5" stroke="black" fill="cyan"/>
   </g>
   <g id="cell59">
  <circle cx="385.732" cy="440.058" r="8.41271" stroke-width="0.5" stroke="black" fill="cyan"/>
  <circle cx="385.732" cy="440.058" r="5.05167" stroke-width="0.5" stroke="black" fill="cyan"/>
   </g>
   <g id="cell60">
  <circle cx="592.109" cy="473.811" r="8.41271" stroke-width="0.5" stroke="black" fill="cyan"/>
  <circle cx="592.109" cy="473.811" r="5.05167" stroke-width="0.5" stroke="black" fill="cyan"/>
   </g>
   <g id="cell61">
  <circle cx="557.444" cy="622.429" r="8.41271" stroke-width="0.5" stroke="black" fill="cyan"/>
  <circle cx="557.444" cy="622.429" r="5.05167" stroke-width="0.5" stroke="black" fill="cyan"/>
   </g>
   <g id="cell62">
  <circle cx="513.206" cy="437.96" r="8.16528" stroke-width="0.5" stroke="black" fill="cyan"/>
  <circle cx="513.206" cy="437.96" r="4.93793" stroke-width="0.5" stroke="black" fill="cyan"/>
   </g>
   <g id="cell63">
  <circle cx="581.547" cy="540.896" r="7.83802" stroke-width="0.5" stroke="black" fill="cyan"/>
  <circle cx="581.547" cy="540.896" r="4.7599" stroke-width="0.5" stroke="black" fill="cyan"/>
   </g>
   <g id="cell64">
  <circle cx="509.719" cy="639.262" r="8.41271" stroke-width="0.5" stroke="black" fill="cyan"/>
  <circle cx="509.719" cy="639.262" r="5.05167" stroke-width="0.5" stroke="black" fill="cyan"/>
   </g>
   <g id="cell65">
  <circle cx="550.719" cy="467.136" r="8.39571" stroke-width="0.5" stroke="black" fill="cyan"/>
  <circle cx="550.719" cy="467.136" r="5.04599" stroke-width="0.5" stroke="black" fill="cyan"/>
   </g>
   <g id="cell66">
  <circle cx="529.731" cy="533.522" r="8.38608" stroke-width="0.5" stroke="black" fill="cyan"/>
  <circle cx="529.731" cy="533.522" r="5.04229" stroke-width="0.5" stroke="black" fill="cyan"/>
   </g>
   <g id="cell67">
  <circle cx="353.828" cy="493.675" r="8.41271" stroke-width="0.5" stroke="black" fill="cyan"/>
  <circle cx="353.828" cy="493.675" r="5.05167" stroke-width="0.5" stroke="black" fill="cyan"/>
   </g>
   <g id="cell68">
  <circle cx="563.364" cy="555.8" r="8.41271" stroke-width="0.5" stroke="black" fill="cyan"/>
  <circle cx="563.364" cy="555.8" r="5.05167" stroke-width="0.5" stroke="black" fill="cyan"/>
   </g>
   <g id="cell69">
  <circle cx="442.128" cy="460.521" r="8.41271" stroke-width="0.5" stroke="black" fill="cyan"/>
  <circle cx="442.128" cy="460.521" r="5.05167" stroke-width="0.5" stroke="black" fill="cyan"/>
   </g>
   <g id="cell70">
  <circle cx="576.36" cy="476.968" r="8.41271" stroke-width="0.5" stroke="black" fill="cyan"/>
  <circle cx="576.36" cy="476.968" r="5.05167" stroke-width="0.5" stroke="black" fill="cyan"/>
   </g>
   <g id="cell71">
  <circle cx="380.221" cy="527.777" r="8.31491" stroke-width="0.5" stroke="black" fill="cyan"/>
  <circle cx="380.221" cy="527.777" r="5.01133" stroke-width="0.5" stroke="black" fill="cyan"/>
   </g>
   <g id="cell72">
  <circle cx="528.585" cy="507.824" r="8.38823" stroke-width="0.5" stroke="black" fill="cyan"/>
  <circle cx="528.585" cy="507.824" r="5.04313" stroke-width="0.5" stroke="black" fill="cyan"/>
   </g>
   <g id="cell73">
  <circle cx="364.57" cy="552.946" r="8.39913" stroke-width="0.5" stroke="black" fill="cyan"/>
  <circle cx="364.57" cy="552.946" r="5.04725" stroke-width="0.5" stroke="black" fill="cyan"/>
   </g>
   <g id="cell74">
  <circle cx="548.829" cy="433.826" r="2.03295" stroke-width="0.5" stroke="black" fill="cyan"/>
  <circle cx="548.829" cy="433.826" r="1.91262" stroke-width="0.5" stroke="black" fill="black"/>
   </g>
   <g id="cell75">
  <circle cx="528.621" cy="432.985" r="8.40745" stroke-width="0.5" stroke="black" fill="cyan"/>
  <circle cx="528.621" cy="432.985" r="5.05013" stroke-width="0.5" stroke="black" fill="cyan"/>
   </g>
   <g id="cell76">
  <circle cx="441.975" cy="382.487" r="8.33261" stroke-width="0.5" stroke="black" fill="green"/>
  <circle cx="441.975" cy="382.487" r="5.02107" stroke-width="0.5" stroke="black" fill="green"/>
   </g>
   <g id="cell77">
  <circle cx="476.961" cy="436.196" r="8.35114" stroke-width="0.5" stroke="black" fill="magenta"/>
  <circle cx="476.961" cy="436.196" r="5.02808" stroke-width="0.5" stroke="black" fill="magenta"/>
   </g>
   <g id="cell78">
  <circle cx="624.721" cy="462.112" r="8.3926" stroke-width="0.5" stroke="black" fill="green"/>
  <circle cx="624.721" cy="462.112" r="5.04506" stroke-width="0.5" stroke="black" fill="green"/>
   </g>
   <g id="cell79">
  <circle cx="516.653" cy="479.183" r="8.40576" stroke-width="0.5" stroke="black" fill="cyan"/>
  <circle cx="516.653" cy="479.183" r="5.04957" stroke-width="0.5" stroke="black" fill="cyan"/>
   </g>
   <g id="cell80">
  <circle cx="542.913" cy="616.061" r="8.16211" stroke-width="0.5" stroke="black" fill="green"/>
  <circle cx="542.913" cy="616.061" r="4.93692" stroke-width="0.5" stroke="black" fill="green"/>
   </g>
   <g id="cell81">
  <circle cx="545.536" cy="594.072" r="8.40148" stroke-width="0.5" stroke="black" fill="green"/>
  <circle cx="545.536" cy="594.072" r="5.04825" stroke-width="0.5" stroke="black" fill="green"/>
   </g>
   <g id="cell82">
  <circle cx="534.348" cy="557.762" r="6.95266" stroke-width="0.5" stroke="black" fill="magenta"/>
  <circle cx="534.348" cy="557.762" r="4.21134" stroke-width="0.5" stroke="black" fill="magenta"/>
   </g>
   <g id="cell83">
  <circle cx="635.468" cy="552.35" r="7.99621" stroke-width="0.5" stroke="black" fill="green"/>
  <circle cx="635.468" cy="552.35" r="4.84785" stroke-width="0.5" stroke="black" fill="green"/>
   </g>
   <g id="cell84">
  <circle cx="520.881" cy="494.293" r="8.39987" stroke-width="0.5" stroke="black" fill="cyan"/>
  <circle cx="520.881" cy="494.293" r="5.04751" stroke-width="0.5" stroke="black" fill="cyan"/>
   </g>
   <g id="cell85">
  <circle cx="352.483" cy="542.507" r="8.37434" stroke-width="0.5" stroke="black" fill="cyan"/>
  <circle cx="352.483" cy="542.507" r="5.03811" stroke-width="0.5" stroke="black" fill="cyan"/>
   </g>
   <g id="cell86">
  <circle cx="499.555" cy="535.077" r="8.13067" stroke-width="0.5" stroke="black" fill="magenta"/>
  <circle cx="499.555" cy="535.077" r="4.92069" stroke-width="0.5" stroke="black" fill="magenta"/>
   </g>
   <g id="cell87">
  <circle cx="578.873" cy="558.004" r="8.35824" stroke-width="0.5" stroke="black" fill="cyan"/>
  <circle cx="578.873" cy="558.004" r="5.03149" stroke-width="0.5" stroke="black" fill="cyan"/>
   </g>
   <g id="cell88">
  <circle cx="448.057" cy="531.035" r="8.39618" stroke-width="0.5" stroke="black" fill="magenta"/>
  <circle cx="448.057" cy="531.035" r="5.04616" stroke-width="0.5" stroke="black" fill="magenta"/>
   </g>
   <g id="cell89">
  <circle cx="549.954" cy="453.156" r="6.35943" stroke-width="0.5" stroke="black" fill="cyan"/>
  <circle cx="549.954" cy="453.156" r="3.89534" stroke-width="0.5" stroke="black" fill="cyan"/>
   </g>
   <g id="cell90">
  <circle cx="636.287" cy="472.64" r="8.00169" stroke-width="0.5" stroke="black" fill="green"/>
  <circle cx="636.287" cy="472.64" r="4.8521" stroke-width="0.5" stroke="black" fill="green"/>
   </g>
   <g id="cell91">
  <circle cx="547.863" cy="557.499" r="8.37936" stroke-width="0.5" stroke="black" fill="magenta"/>
  <circle cx="547.863" cy="557.499" r="5.04033" stroke-width="0.5" stroke="black" fill="magenta"/>
   </g>
   <g id="cell92">
  <circle cx="483.519" cy="552.309" r="8.39144" stroke-width="0.5" stroke="black" fill="green"/>
  <circle cx="483.519" cy="552.309" r="5.04437" stroke-width="0.5" stroke="black" fill="green"/>
   </g>
   <g id="cell93">
  <circle cx="538.998" cy="545.188" r="8.37936" stroke-width="0.5" stroke="black" fill="magenta"/>
  <circle cx="538.998" cy="545.188" r="5.04033" stroke-width="0.5" stroke="black" fill="magenta"/>
   </g>
   <g id="cell94">
  <circle cx="538.399" cy="495.55" r="8.38823" stroke-width="0.5" stroke="black" fill="cyan"/>
  <circle cx="538.399" cy="495.55" r="5.04313" stroke-width="0.5" stroke="black" fill="cyan"/>
   </g>
   <g id="cell95">
  <circle cx="465.739" cy="425.743" r="8.38753" stroke-width="0.5" stroke="black" fill="cyan"/>
  <circle cx="465.739" cy="425.743" r="5.04286" stroke-width="0.5" stroke="black" fill="cyan"/>
   </g>
   <g id="cell96">
  <circle cx="545.183" cy="531.403" r="7.62084" stroke-width="0.5" stroke="black" fill="cyan"/>
  <circle cx="545.183" cy="531.403" r="4.63491" stroke-width="0.5" stroke="black" fill="cyan"/>
   </g>
   <g id="cell97">
  <circle cx="421.462" cy="466.416" r="8.36182" stroke-width="0.5" stroke="black" fill="green"/>
  <circle cx="421.462" cy="466.416" r="5.0332" stroke-width="0.5" stroke="black" fill="green"/>
   </g>
   <g id="cell98">
  <circle cx="491.088" cy="522.535" r="8.06956" stroke-width="0.5" stroke="black" fill="green"/>
  <circle cx="491.088" cy="522.535" r="4.88957" stroke-width="0.5" stroke="black" fill="green"/>
   </g>
   <g id="cell99">
  <circle cx="358.321" cy="527.668" r="8.37434" stroke-width="0.5" stroke="black" fill="cyan"/>
  <circle cx="358.321" cy="527.668" r="5.03811" stroke-width="0.5" stroke="black" fill="cyan"/>
   </g>
   <g id="cell100">
  <circle cx="449.046" cy="396.681" r="8.37369" stroke-width="0.5" stroke="black" fill="green"/>
  <circle cx="449.046" cy="396.681" r="5.0376" stroke-width="0.5" stroke="black" fill="green"/>
   </g>
   <g id="cell101">
  <circle cx="530.936" cy="482.657" r="7.54384" stroke-width="0.5" stroke="black" fill="cyan"/>
  <circle cx="530.936" cy="482.657" r="4.59074" stroke-width="0.5" stroke="black" fill="cyan"/>
   </g>
   <g id="cell102">
  <circle cx="434.994" cy="474.829" r="8.36182" stroke-width="0.5" stroke="black" fill="green"/>
  <circle cx="434.994" cy="474.829" r="5.0332" stroke-width="0.5" stroke="black" fill="green"/>
   </g>
   <g id="cell103">
  <circle cx="591.141" cy="447.798" r="8.1237" stroke-width="0.5" stroke="black" fill="cyan"/>
  <circle cx="591.141" cy="447.798" r="4.9189" stroke-width="0.5" stroke="black" fill="cyan"/>
   </g>
   <g id="cell104">
  <circle cx="598.059" cy="555.747" r="6.63394" stroke-width="0.5" stroke="black" fill="cyan"/>
  <circle cx="598.059" cy="555.747" r="3.9935" stroke-width="0.5" stroke="black" fill="cyan"/>
   </g>
   <g id="cell106">
  <circle cx="462.923" cy="441.125" r="8.35114" stroke-width="0.5" stroke="black" fill="magenta"/>
  <circle cx="462.923" cy="441.125" r="5.02808" stroke-width="0.5" stroke="black" fill="magenta"/>
   </g>
   <g id="cell107">
  <circle cx="457.63" cy="383.57" r="8.10341" stroke-width="0.5" stroke="black" fill="green"/>
  <circle cx="457.63" cy="383.57" r="4.91086" stroke-width="0.5" stroke="black" fill="green"/>
   </g>
   <g id="cell108">
  <circle cx="555.419" cy="606.605" r="8.34117" stroke-width="0.5" stroke="black" fill="green"/>
  <circle cx="555.419" cy="606.605" r="5.02327" stroke-width="0.5" stroke="black" fill="green"/>
   </g>
   <g id="cell109">
  <circle cx="576.548" cy="589.908" r="8.29852" stroke-width="0.5" stroke="black" fill="green"/>
  <circle cx="576.548" cy="589.908" r="5.006" stroke-width="0.5" stroke="black" fill="green"/>
   </g>
   <g id="cell110">
  <circle cx="373.632" cy="513.392" r="8.31491" stroke-width="0.5" stroke="black" fill="cyan"/>
  <circle cx="373.632" cy="513.392" r="5.01133" stroke-width="0.5" stroke="black" fill="cyan"/>
   </g>
   <g id="cell111">
  <circle cx="456.374" cy="554.338" r="7.52336" stroke-width="0.5" stroke="black" fill="magenta"/>
  <circle cx="456.374" cy="554.338" r="4.58523" stroke-width="0.5" stroke="black" fill="magenta"/>
   </g>
   <g id="cell112">
  <circle cx="506.766" cy="467.899" r="8.3031" stroke-width="0.5" stroke="black" fill="magenta"/>
  <circle cx="506.766" cy="467.899" r="5.00583" stroke-width="0.5" stroke="black" fill="magenta"/>
   </g>
   <g id="cell113">
  <circle cx="542.693" cy="399.258" r="6.78197" stroke-width="0.5" stroke="black" fill="green"/>
  <circle cx="542.693" cy="399.258" r="4.11287" stroke-width="0.5" stroke="black" fill="green"/>
   </g>
   <g id="cell114">
  <circle cx="524.491" cy="448.164" r="8.221" stroke-width="0.5" stroke="black" fill="cyan"/>
  <circle cx="524.491" cy="448.164" r="4.96997" stroke-width="0.5" stroke="black" fill="cyan"/>
   </g>
   <g id="cell115">
  <circle cx="537.264" cy="455.247" r="7.68497" stroke-width="0.5" stroke="black" fill="cyan"/>
  <circle cx="537.264" cy="455.247" r="4.68568" stroke-width="0.5" stroke="black" fill="cyan"/>
   </g>
   <g id="cell116">
  <circle cx="520.939" cy="521.303" r="8.2516" stroke-width="0.5" stroke="black" fill="cyan"/>
  <circle cx="520.939" cy="521.303" r="4.98211" stroke-width="0.5" stroke="black" fill="cyan"/>
   </g>
   <g id="cell117">
  <circle cx="509.272" cy="623.435" r="8.19807" stroke-width="0.5" stroke="black" fill="green"/>
  <circle cx="509.272" cy="623.435" r="4.95738" stroke-width="0.5" stroke="black" fill="green"/>
   </g>
   <g id="cell118">
  <circle cx="509.902" cy="453.095" r="8.16528" stroke-width="0.5" stroke="black" fill="cyan"/>
  <circle cx="509.902" cy="453.095" r="4.93793" stroke-width="0.5" stroke="black" fill="cyan"/>
   </g>
   <g id="cell119">
  <circle cx="533.091" cy="603.669" r="8.16211" stroke-width="0.5" stroke="black" fill="green"/>
  <circle cx="533.091" cy="603.669" r="4.93692" stroke-width="0.5" stroke="black" fill="green"/>
   </g>
   <g id="cell120">
  <circle cx="575.961" cy="444.51" r="8.1237" stroke-width="0.5" stroke="black" fill="cyan"/>
  <circle cx="575.961" cy="444.51" r="4.9189" stroke-width="0.5" stroke="black" fill="cyan"/>
   </g>
   <g id="cell121">
  <circle cx="451.244" cy="370.1" r="7.77995" stroke-width="0.5" stroke="black" fill="green"/>
  <circle cx="451.244" cy="370.1" r="4.74329" stroke-width="0.5" stroke="black" fill="green"/>
   </g>
   <g id="cell122">
  <circle cx="506.073" cy="522.099" r="8.13067" stroke-width="0.5" stroke="black" fill="magenta"/>
  <circle cx="506.073" cy="522.099" r="4.92069" stroke-width="0.5" stroke="black" fill="magenta"/>
   </g>
   <g id="cell123">
  <circle cx="497.784" cy="509.075" r="8.06956" stroke-width="0.5" stroke="black" fill="green"/>
  <circle cx="497.784" cy="509.075" r="4.88957" stroke-width="0.5" stroke="black" fill="green"/>
   </g>
   <g id="cell124">
  <circle cx="491.04" cy="432.72" r="8.08304" stroke-width="0.5" stroke="black" fill="magenta"/>
  <circle cx="491.04" cy="432.72" r="4.89466" stroke-width="0.5" stroke="black" fill="magenta"/>
   </g>
   <g id="cell125">
  <circle cx="621.891" cy="477.423" r="8.00169" stroke-width="0.5" stroke="black" fill="green"/>
  <circle cx="621.891" cy="477.423" r="4.8521" stroke-width="0.5" stroke="black" fill="green"/>
   </g>
   <g id="cell126">
  <circle cx="629.095" cy="566.119" r="7.99621" stroke-width="0.5" stroke="black" fill="green"/>
  <circle cx="629.095" cy="566.119" r="4.84785" stroke-width="0.5" stroke="black" fill="green"/>
   </g>
   <g id="cell127">
  <circle cx="439.113" cy="361.863" r="7.77995" stroke-width="0.5" stroke="black" fill="green"/>
  <circle cx="439.113" cy="361.863" r="4.74329" stroke-width="0.5" stroke="black" fill="green"/>
   </g>
   <g id="cell128">
  <circle cx="372.857" cy="469.09" r="7.89373" stroke-width="0.5" stroke="black" fill="magenta"/>
  <circle cx="372.857" cy="469.09" r="4.78957" stroke-width="0.5" stroke="black" fill="magenta"/>
   </g>
   <g id="cell129">
  <circle cx="568.248" cy="540.694" r="7.83802" stroke-width="0.5" stroke="black" fill="cyan"/>
  <circle cx="568.248" cy="540.694" r="4.7599" stroke-width="0.5" stroke="black" fill="cyan"/>
   </g>
   <g id="cell130">
  <circle cx="543.638" cy="441.548" r="7.68497" stroke-width="0.5" stroke="black" fill="cyan"/>
  <circle cx="543.638" cy="441.548" r="4.68568" stroke-width="0.5" stroke="black" fill="cyan"/>
   </g>
   <g id="cell131">
  <circle cx="536.478" cy="520.278" r="7.62084" stroke-width="0.5" stroke="black" fill="cyan"/>
  <circle cx="536.478" cy="520.278" r="4.63491" stroke-width="0.5" stroke="black" fill="cyan"/>
   </g>
   <g id="cell132">
  <circle cx="446.222" cy="545.304" r="7.52336" stroke-width="0.5" stroke="black" fill="magenta"/>
  <circle cx="446.222" cy="545.304" r="4.58523" stroke-width="0.5" stroke="black" fill="magenta"/>
   </g>
   <g id="cell133">
  <circle cx="565.972" cy="465.789" r="7.5814" stroke-width="0.5" stroke="black" fill="cyan"/>
  <circle cx="565.972" cy="465.789" r="4.61032" stroke-width="0.5" stroke="black" fill="cyan"/>
   </g>
   <g id="cell134">
  <circle cx="535.935" cy="469.528" r="7.54384" stroke-width="0.5" stroke="black" fill="cyan"/>
  <circle cx="535.935" cy="469.528" r="4.59074" stroke-width="0.5" stroke="black" fill="cyan"/>
   </g>
   <g id="cell135">
  <circle cx="512.256" cy="583.862" r="7.46878" stroke-width="0.5" stroke="black" fill="magenta"/>
  <circle cx="512.256" cy="583.862" r="4.53982" stroke-width="0.5" stroke="black" fill="magenta"/>
   </g>
   <g id="cell136">
  <circle cx="473.478" cy="541.504" r="7.3173" stroke-width="0.5" stroke="black" fill="green"/>
  <circle cx="473.478" cy="541.504" r="4.45007" stroke-width="0.5" stroke="black" fill="green"/>
   </g>
   <g id="cell137">
  <circle cx="495.138" cy="611.066" r="7.00184" stroke-width="0.5" stroke="black" fill="green"/>
  <circle cx="495.138" cy="611.066" r="4.27362" stroke-width="0.5" stroke="black" fill="green"/>
   </g>
   <g id="cell138">
  <circle cx="500.388" cy="411.682" r="7.1497" stroke-width="0.5" stroke="black" fill="green"/>
  <circle cx="500.388" cy="411.682" r="4.34001" stroke-width="0.5" stroke="black" fill="green"/>
   </g>
   <g id="cell139">
  <circle cx="423.269" cy="406.704" r="6.99069" stroke-width="0.5" stroke="black" fill="magenta"/>
  <circle cx="423.269" cy="406.704" r="4.23498" stroke-width="0.5" stroke="black" fill="magenta"/>
   </g>
   <g id="cell140">
  <circle cx="523.223" cy="567.498" r="5.51833" stroke-width="0.5" stroke="black" fill="magenta"/>
  <circle cx="523.223" cy="567.498" r="3.34254" stroke-width="0.5" stroke="black" fill="magenta"/>
   </g>
   <g id="cell141">
  <circle cx="561.631" cy="453.683" r="6.35943" stroke-width="0.5" stroke="black" fill="cyan"/>
  <circle cx="561.631" cy="453.683" r="3.89534" stroke-width="0.5" stroke="black" fill="cyan"/>
   </g>
   <g id="cell142">
  <circle cx="548.127" cy="416.116" r="5.58196" stroke-width="0.5" stroke="black" fill="green"/>
  <circle cx="548.127" cy="416.116" r="3.4062" stroke-width="0.5" stroke="black" fill="green"/>
   </g>
   <g id="cell143">
  <circle cx="434.428" cy="408.817" r="5.81734" stroke-width="0.5" stroke="black" fill="magenta"/>
  <circle cx="434.428" cy="408.817" r="3.55167" stroke-width="0.5" stroke="black" fill="magenta"/>
   </g>
   <g id="cell144">
  <circle cx="539.639" cy="410.1" r="5.58196" stroke-width="0.5" stroke="black" fill="green"/>
  <circle cx="539.639" cy="410.1" r="3.4062" stroke-width="0.5" stroke="black" fill="green"/>
   </g>
   <g id="cell146">
  <circle cx="589.147" cy="549.423" r="6.63394" stroke-width="0.5" stroke="black" fill="cyan"/>
  <circle cx="589.147" cy="549.423" r="3.9935" stroke-width="0.5" stroke="black" fill="cyan"/>
   </g>
   <g id="cell147">
  <circle cx="523.84" cy="558.255" r="5.51833" stroke-width="0.5" stroke="black" fill="magenta"/>
  <circle cx="523.84" cy="558.255" r="3.34254" stroke-width="0.5" stroke="black" fill="magenta"/>
   </g>
  </g>
 </g>
  <rect x="775" y="1035" width="200" height="10" stroke-width="2" stroke="rgb(255,255,255)" fill="rgb(0,0,0)"/>
  <text x="781.25" y="1028.75"
   font-family="Arial" font-size="25" fill="black" >
   200 &#956;m
  </text>
  <text x="25" y="1045"
   font-family="Arial" font-size="18.75" fill="black" >
   0 days, 0 hours, 0 minutes, and 26.1978 seconds
  </text>
  <rect x="0" y="70" width="1000" height="1000" stroke-width="2" stroke="rgb(0,0,0)" fill="none"/>
</svg>
