<?xml version="1.0" encoding="UTF-8" standalone="no"?>
<!-- Created with PhysiCell (http://PhysiCell.MathCancer.org/) -->
<svg 
 xmlns:dc="http://purl.org/dc/elements/1.1/" 
 xmlns:cc="http://creativecommons.org/ns#" 
 xmlns:rdf="http://www.w3.org/1999/02/22-rdf-syntax-ns#" 
 xmlns:svg="http://www.w3.org/2000/svg" 
 xmlns="http://www.w3.org/2000/svg" 
 version="1.1" 
 width="1000" 
 height="1070" 
 id="svg2">
  <rect x="0" y="0" width="1000" height="1070" stroke-width="2" stroke="white" fill="white"/>
  <text x="12.5" y="30"
   font-family="Arial" font-size="25" fill="black" >
   Current time: 1 days, 6 hours, and 18.00 minutes, z = 0.00 &#956;m
  </text>
  <text x="12.5" y="57.5"
   font-family="Arial" font-size="23.75" fill="black" >
   170 agents
  </text>
 <g id="tissue" 
    transform="translate(0,1070) scale(1,-1)">
  <g id="ECM">
  </g>
  <g id="cells">
   <g id="cell0">
  <circle cx="513.929" cy="534.99" r="8.41121" stroke-width="0.5" stroke="black" fill="magenta"/>
  <circle cx="513.929" cy="534.99" r="5.05128" stroke-width="0.5" stroke="black" fill="magenta"/>
   </g>
   <g id="cell1">
  <circle cx="594.071" cy="526.302" r="7.49456" stroke-width="0.5" stroke="black" fill="magenta"/>
  <circle cx="594.071" cy="526.302" r="4.55548" stroke-width="0.5" stroke="black" fill="magenta"/>
   </g>
   <g id="cell2">
  <circle cx="517.772" cy="598.521" r="8.41271" stroke-width="0.5" stroke="black" fill="magenta"/>
  <circle cx="517.772" cy="598.521" r="5.05167" stroke-width="0.5" stroke="black" fill="magenta"/>
   </g>
   <g id="cell3">
  <circle cx="523.686" cy="546.675" r="8.41026" stroke-width="0.5" stroke="black" fill="magenta"/>
  <circle cx="523.686" cy="546.675" r="5.05103" stroke-width="0.5" stroke="black" fill="magenta"/>
   </g>
   <g id="cell4">
  <circle cx="486.356" cy="447.93" r="8.37904" stroke-width="0.5" stroke="black" fill="magenta"/>
  <circle cx="486.356" cy="447.93" r="5.03952" stroke-width="0.5" stroke="black" fill="magenta"/>
   </g>
   <g id="cell5">
  <circle cx="466" cy="491.78" r="8.41271" stroke-width="0.5" stroke="black" fill="magenta"/>
  <circle cx="466" cy="491.78" r="5.05167" stroke-width="0.5" stroke="black" fill="magenta"/>
   </g>
   <g id="cell163">
  <circle cx="538.259" cy="577.691" r="7.72009" stroke-width="0.5" stroke="black" fill="green"/>
  <circle cx="538.259" cy="577.691" r="4.6899" stroke-width="0.5" stroke="black" fill="green"/>
   </g>
   <g id="cell7">
  <circle cx="496.882" cy="457.57" r="7.38053" stroke-width="0.5" stroke="black" fill="magenta"/>
  <circle cx="496.882" cy="457.57" r="4.48775" stroke-width="0.5" stroke="black" fill="magenta"/>
   </g>
   <g id="cell8">
  <circle cx="378.148" cy="549.352" r="7.72056" stroke-width="0.5" stroke="black" fill="magenta"/>
  <circle cx="378.148" cy="549.352" r="4.69003" stroke-width="0.5" stroke="black" fill="magenta"/>
   </g>
   <g id="cell161">
  <circle cx="451.007" cy="382.328" r="7.44265" stroke-width="0.5" stroke="black" fill="green"/>
  <circle cx="451.007" cy="382.328" r="4.55331" stroke-width="0.5" stroke="black" fill="green"/>
   </g>
   <g id="cell10">
  <circle cx="586.061" cy="389.447" r="8.13008" stroke-width="0.5" stroke="black" fill="magenta"/>
  <circle cx="586.061" cy="389.447" r="4.91894" stroke-width="0.5" stroke="black" fill="magenta"/>
   </g>
   <g id="cell11">
  <circle cx="592.099" cy="590.052" r="8.41271" stroke-width="0.5" stroke="black" fill="magenta"/>
  <circle cx="592.099" cy="590.052" r="5.05167" stroke-width="0.5" stroke="black" fill="magenta"/>
   </g>
   <g id="cell12">
  <circle cx="504.169" cy="592.408" r="8.31766" stroke-width="0.5" stroke="black" fill="magenta"/>
  <circle cx="504.169" cy="592.408" r="5.0126" stroke-width="0.5" stroke="black" fill="magenta"/>
   </g>
   <g id="cell13">
  <circle cx="385.875" cy="567.292" r="8.41271" stroke-width="0.5" stroke="black" fill="magenta"/>
  <circle cx="385.875" cy="567.292" r="5.05167" stroke-width="0.5" stroke="black" fill="magenta"/>
   </g>
   <g id="cell14">
  <circle cx="520.125" cy="404.457" r="8.41271" stroke-width="0.5" stroke="black" fill="magenta"/>
  <circle cx="520.125" cy="404.457" r="5.05167" stroke-width="0.5" stroke="black" fill="magenta"/>
   </g>
   <g id="cell15">
  <circle cx="381.827" cy="479.098" r="8.36032" stroke-width="0.5" stroke="black" fill="magenta"/>
  <circle cx="381.827" cy="479.098" r="5.03165" stroke-width="0.5" stroke="black" fill="magenta"/>
   </g>
   <g id="cell16">
  <circle cx="440.416" cy="420.558" r="8.10258" stroke-width="0.5" stroke="black" fill="magenta"/>
  <circle cx="440.416" cy="420.558" r="4.91423" stroke-width="0.5" stroke="black" fill="magenta"/>
   </g>
   <g id="cell17">
  <circle cx="573.709" cy="495.877" r="8.41271" stroke-width="0.5" stroke="black" fill="magenta"/>
  <circle cx="573.709" cy="495.877" r="5.05167" stroke-width="0.5" stroke="black" fill="magenta"/>
   </g>
   <g id="cell18">
  <circle cx="518.589" cy="389.43" r="8.41271" stroke-width="0.5" stroke="black" fill="magenta"/>
  <circle cx="518.589" cy="389.43" r="5.05167" stroke-width="0.5" stroke="black" fill="magenta"/>
   </g>
   <g id="cell19">
  <circle cx="458.48" cy="540.494" r="8.40096" stroke-width="0.5" stroke="black" fill="magenta"/>
  <circle cx="458.48" cy="540.494" r="5.04799" stroke-width="0.5" stroke="black" fill="magenta"/>
   </g>
   <g id="cell20">
  <circle cx="531.668" cy="414.377" r="8.41271" stroke-width="0.5" stroke="black" fill="magenta"/>
  <circle cx="531.668" cy="414.377" r="5.05167" stroke-width="0.5" stroke="black" fill="magenta"/>
   </g>
   <g id="cell21">
  <circle cx="466.883" cy="632.265" r="8.41271" stroke-width="0.5" stroke="black" fill="magenta"/>
  <circle cx="466.883" cy="632.265" r="5.05167" stroke-width="0.5" stroke="black" fill="magenta"/>
   </g>
   <g id="cell22">
  <circle cx="559.98" cy="493.948" r="6.78181" stroke-width="0.5" stroke="black" fill="magenta"/>
  <circle cx="559.98" cy="493.948" r="4.08714" stroke-width="0.5" stroke="black" fill="magenta"/>
   </g>
   <g id="cell23">
  <circle cx="551.524" cy="482.832" r="8.41271" stroke-width="0.5" stroke="black" fill="magenta"/>
  <circle cx="551.524" cy="482.832" r="5.05167" stroke-width="0.5" stroke="black" fill="magenta"/>
   </g>
   <g id="cell24">
  <circle cx="559.253" cy="382.9" r="8.41271" stroke-width="0.5" stroke="black" fill="magenta"/>
  <circle cx="559.253" cy="382.9" r="5.05167" stroke-width="0.5" stroke="black" fill="magenta"/>
   </g>
   <g id="cell25">
  <circle cx="648.414" cy="543.079" r="8.41177" stroke-width="0.5" stroke="black" fill="green"/>
  <circle cx="648.414" cy="543.079" r="5.05144" stroke-width="0.5" stroke="black" fill="green"/>
   </g>
   <g id="cell26">
  <circle cx="558.198" cy="398.467" r="8.4009" stroke-width="0.5" stroke="black" fill="green"/>
  <circle cx="558.198" cy="398.467" r="5.04788" stroke-width="0.5" stroke="black" fill="green"/>
   </g>
   <g id="cell27">
  <circle cx="463.838" cy="404.613" r="8.41212" stroke-width="0.5" stroke="black" fill="green"/>
  <circle cx="463.838" cy="404.613" r="5.05153" stroke-width="0.5" stroke="black" fill="green"/>
   </g>
   <g id="cell28">
  <circle cx="431.374" cy="537.795" r="8.05651" stroke-width="0.5" stroke="black" fill="green"/>
  <circle cx="431.374" cy="537.795" r="4.87966" stroke-width="0.5" stroke="black" fill="green"/>
   </g>
   <g id="cell29">
  <circle cx="449.224" cy="512.808" r="7.0545" stroke-width="0.5" stroke="black" fill="green"/>
  <circle cx="449.224" cy="512.808" r="4.27772" stroke-width="0.5" stroke="black" fill="green"/>
   </g>
   <g id="cell30">
  <circle cx="483.331" cy="537.275" r="8.30193" stroke-width="0.5" stroke="black" fill="green"/>
  <circle cx="483.331" cy="537.275" r="5.00551" stroke-width="0.5" stroke="black" fill="green"/>
   </g>
   <g id="cell31">
  <circle cx="411.836" cy="542.786" r="8.41271" stroke-width="0.5" stroke="black" fill="green"/>
  <circle cx="411.836" cy="542.786" r="5.05167" stroke-width="0.5" stroke="black" fill="green"/>
   </g>
   <g id="cell169">
  <circle cx="528.492" cy="494.5" r="7.24066" stroke-width="0.5" stroke="black" fill="cyan"/>
  <circle cx="528.492" cy="494.5" r="4.39881" stroke-width="0.5" stroke="black" fill="cyan"/>
   </g>
   <g id="cell33">
  <circle cx="500.873" cy="422.114" r="8.28262" stroke-width="0.5" stroke="black" fill="green"/>
  <circle cx="500.873" cy="422.114" r="4.9961" stroke-width="0.5" stroke="black" fill="green"/>
   </g>
   <g id="cell168">
  <circle cx="382.513" cy="517.554" r="7.26566" stroke-width="0.5" stroke="black" fill="cyan"/>
  <circle cx="382.513" cy="517.554" r="4.41602" stroke-width="0.5" stroke="black" fill="cyan"/>
   </g>
   <g id="cell35">
  <circle cx="554.738" cy="546.029" r="8.41271" stroke-width="0.5" stroke="black" fill="green"/>
  <circle cx="554.738" cy="546.029" r="5.05167" stroke-width="0.5" stroke="black" fill="green"/>
   </g>
   <g id="cell36">
  <circle cx="385.484" cy="582.364" r="7.70646" stroke-width="0.5" stroke="black" fill="green"/>
  <circle cx="385.484" cy="582.364" r="4.70679" stroke-width="0.5" stroke="black" fill="green"/>
   </g>
   <g id="cell37">
  <circle cx="640.2" cy="457.088" r="8.41204" stroke-width="0.5" stroke="black" fill="green"/>
  <circle cx="640.2" cy="457.088" r="5.05151" stroke-width="0.5" stroke="black" fill="green"/>
   </g>
   <g id="cell38">
  <circle cx="530.24" cy="590.026" r="7.72009" stroke-width="0.5" stroke="black" fill="green"/>
  <circle cx="530.24" cy="590.026" r="4.6899" stroke-width="0.5" stroke="black" fill="green"/>
   </g>
   <g id="cell39">
  <circle cx="613.182" cy="491.127" r="8.41271" stroke-width="0.5" stroke="black" fill="green"/>
  <circle cx="613.182" cy="491.127" r="5.05167" stroke-width="0.5" stroke="black" fill="green"/>
   </g>
   <g id="cell40">
  <circle cx="485.782" cy="567.713" r="7.98892" stroke-width="0.5" stroke="black" fill="green"/>
  <circle cx="485.782" cy="567.713" r="4.84272" stroke-width="0.5" stroke="black" fill="green"/>
   </g>
   <g id="cell41">
  <circle cx="366.57" cy="482.113" r="8.41271" stroke-width="0.5" stroke="black" fill="green"/>
  <circle cx="366.57" cy="482.113" r="5.05167" stroke-width="0.5" stroke="black" fill="green"/>
   </g>
   <g id="cell42">
  <circle cx="438.329" cy="491.673" r="8.41271" stroke-width="0.5" stroke="black" fill="green"/>
  <circle cx="438.329" cy="491.673" r="5.05167" stroke-width="0.5" stroke="black" fill="green"/>
   </g>
   <g id="cell43">
  <circle cx="563.068" cy="440.477" r="8.41271" stroke-width="0.5" stroke="black" fill="green"/>
  <circle cx="563.068" cy="440.477" r="5.05167" stroke-width="0.5" stroke="black" fill="green"/>
   </g>
   <g id="cell164">
  <circle cx="398.021" cy="575.61" r="7.42351" stroke-width="0.5" stroke="black" fill="green"/>
  <circle cx="398.021" cy="575.61" r="4.53574" stroke-width="0.5" stroke="black" fill="green"/>
   </g>
   <g id="cell145">
  <circle cx="425.865" cy="420.28" r="8.10258" stroke-width="0.5" stroke="black" fill="magenta"/>
  <circle cx="425.865" cy="420.28" r="4.91423" stroke-width="0.5" stroke="black" fill="magenta"/>
   </g>
   <g id="cell46">
  <circle cx="519.307" cy="616.276" r="8.40745" stroke-width="0.5" stroke="black" fill="green"/>
  <circle cx="519.307" cy="616.276" r="5.05013" stroke-width="0.5" stroke="black" fill="green"/>
   </g>
   <g id="cell47">
  <circle cx="499.194" cy="493.73" r="8.40944" stroke-width="0.5" stroke="black" fill="green"/>
  <circle cx="499.194" cy="493.73" r="5.05076" stroke-width="0.5" stroke="black" fill="green"/>
   </g>
   <g id="cell48">
  <circle cx="570.873" cy="604.827" r="8.40072" stroke-width="0.5" stroke="black" fill="green"/>
  <circle cx="570.873" cy="604.827" r="5.04799" stroke-width="0.5" stroke="black" fill="green"/>
   </g>
   <g id="cell49">
  <circle cx="439.075" cy="390.751" r="7.27253" stroke-width="0.5" stroke="black" fill="green"/>
  <circle cx="439.075" cy="390.751" r="4.41835" stroke-width="0.5" stroke="black" fill="green"/>
   </g>
   <g id="cell50">
  <circle cx="511.708" cy="507.467" r="8.39595" stroke-width="0.5" stroke="black" fill="cyan"/>
  <circle cx="511.708" cy="507.467" r="5.04616" stroke-width="0.5" stroke="black" fill="cyan"/>
   </g>
   <g id="cell51">
  <circle cx="402.698" cy="597.082" r="8.41271" stroke-width="0.5" stroke="black" fill="cyan"/>
  <circle cx="402.698" cy="597.082" r="5.05167" stroke-width="0.5" stroke="black" fill="cyan"/>
   </g>
   <g id="cell52">
  <circle cx="516.699" cy="419.612" r="8.41271" stroke-width="0.5" stroke="black" fill="cyan"/>
  <circle cx="516.699" cy="419.612" r="5.05167" stroke-width="0.5" stroke="black" fill="cyan"/>
   </g>
   <g id="cell53">
  <circle cx="571.638" cy="426.753" r="8.40826" stroke-width="0.5" stroke="black" fill="cyan"/>
  <circle cx="571.638" cy="426.753" r="5.05039" stroke-width="0.5" stroke="black" fill="cyan"/>
   </g>
   <g id="cell54">
  <circle cx="480.085" cy="421.944" r="8.41002" stroke-width="0.5" stroke="black" fill="cyan"/>
  <circle cx="480.085" cy="421.944" r="5.05093" stroke-width="0.5" stroke="black" fill="cyan"/>
   </g>
   <g id="cell55">
  <circle cx="522.295" cy="460.741" r="8.40846" stroke-width="0.5" stroke="black" fill="cyan"/>
  <circle cx="522.295" cy="460.741" r="5.05048" stroke-width="0.5" stroke="black" fill="cyan"/>
   </g>
   <g id="cell56">
  <circle cx="621.312" cy="522.737" r="8.41271" stroke-width="0.5" stroke="black" fill="cyan"/>
  <circle cx="621.312" cy="522.737" r="5.05167" stroke-width="0.5" stroke="black" fill="cyan"/>
   </g>
   <g id="cell105">
  <circle cx="505.886" cy="607.9" r="8.27119" stroke-width="0.5" stroke="black" fill="green"/>
  <circle cx="505.886" cy="607.9" r="4.99225" stroke-width="0.5" stroke="black" fill="green"/>
   </g>
   <g id="cell58">
  <circle cx="566.697" cy="482.359" r="8.01277" stroke-width="0.5" stroke="black" fill="cyan"/>
  <circle cx="566.697" cy="482.359" r="4.85584" stroke-width="0.5" stroke="black" fill="cyan"/>
   </g>
   <g id="cell59">
  <circle cx="385.732" cy="440.058" r="8.41271" stroke-width="0.5" stroke="black" fill="cyan"/>
  <circle cx="385.732" cy="440.058" r="5.05167" stroke-width="0.5" stroke="black" fill="cyan"/>
   </g>
   <g id="cell60">
  <circle cx="589.561" cy="469.029" r="6.86652" stroke-width="0.5" stroke="black" fill="cyan"/>
  <circle cx="589.561" cy="469.029" r="4.14883" stroke-width="0.5" stroke="black" fill="cyan"/>
   </g>
   <g id="cell61">
  <circle cx="557.056" cy="621.932" r="1.28243" stroke-width="0.5" stroke="black" fill="cyan"/>
  <circle cx="557.056" cy="621.932" r="1.27531" stroke-width="0.5" stroke="black" fill="black"/>
   </g>
   <g id="cell62">
  <circle cx="516.063" cy="434.588" r="6.73666" stroke-width="0.5" stroke="black" fill="cyan"/>
  <circle cx="516.063" cy="434.588" r="4.06119" stroke-width="0.5" stroke="black" fill="cyan"/>
   </g>
   <g id="cell63">
  <circle cx="585.951" cy="539.729" r="8.35485" stroke-width="0.5" stroke="black" fill="cyan"/>
  <circle cx="585.951" cy="539.729" r="5.02943" stroke-width="0.5" stroke="black" fill="cyan"/>
   </g>
   <g id="cell64">
  <circle cx="509.794" cy="639.317" r="8.41271" stroke-width="0.5" stroke="black" fill="cyan"/>
  <circle cx="509.794" cy="639.317" r="5.05167" stroke-width="0.5" stroke="black" fill="cyan"/>
   </g>
   <g id="cell65">
  <circle cx="544.502" cy="468.994" r="8.41088" stroke-width="0.5" stroke="black" fill="cyan"/>
  <circle cx="544.502" cy="468.994" r="5.05119" stroke-width="0.5" stroke="black" fill="cyan"/>
   </g>
   <g id="cell66">
  <circle cx="530.226" cy="532.853" r="8.40986" stroke-width="0.5" stroke="black" fill="cyan"/>
  <circle cx="530.226" cy="532.853" r="5.05089" stroke-width="0.5" stroke="black" fill="cyan"/>
   </g>
   <g id="cell67">
  <circle cx="354.67" cy="492.843" r="8.41271" stroke-width="0.5" stroke="black" fill="cyan"/>
  <circle cx="354.67" cy="492.843" r="5.05167" stroke-width="0.5" stroke="black" fill="cyan"/>
   </g>
   <g id="cell68">
  <circle cx="562.369" cy="558.547" r="6.44044" stroke-width="0.5" stroke="black" fill="cyan"/>
  <circle cx="562.369" cy="558.547" r="3.99684" stroke-width="0.5" stroke="black" fill="black"/>
   </g>
   <g id="cell69">
  <circle cx="441.713" cy="461.317" r="8.41271" stroke-width="0.5" stroke="black" fill="cyan"/>
  <circle cx="441.713" cy="461.317" r="5.05167" stroke-width="0.5" stroke="black" fill="cyan"/>
   </g>
   <g id="cell70">
  <circle cx="581.818" cy="482.353" r="8.41271" stroke-width="0.5" stroke="black" fill="cyan"/>
  <circle cx="581.818" cy="482.353" r="5.05167" stroke-width="0.5" stroke="black" fill="cyan"/>
   </g>
   <g id="cell71">
  <circle cx="385.08" cy="531.094" r="7.26566" stroke-width="0.5" stroke="black" fill="cyan"/>
  <circle cx="385.08" cy="531.094" r="4.41602" stroke-width="0.5" stroke="black" fill="cyan"/>
   </g>
   <g id="cell72">
  <circle cx="526.337" cy="507.734" r="7.24066" stroke-width="0.5" stroke="black" fill="cyan"/>
  <circle cx="526.337" cy="507.734" r="4.39881" stroke-width="0.5" stroke="black" fill="cyan"/>
   </g>
   <g id="cell73">
  <circle cx="364.871" cy="548.453" r="6.71043" stroke-width="0.5" stroke="black" fill="cyan"/>
  <circle cx="364.871" cy="548.453" r="4.03405" stroke-width="0.5" stroke="black" fill="cyan"/>
   </g>
   <g id="cell162">
  <circle cx="372.261" cy="536.769" r="7.72056" stroke-width="0.5" stroke="black" fill="magenta"/>
  <circle cx="372.261" cy="536.769" r="4.69003" stroke-width="0.5" stroke="black" fill="magenta"/>
   </g>
   <g id="cell75">
  <circle cx="529.126" cy="429.536" r="8.41214" stroke-width="0.5" stroke="black" fill="cyan"/>
  <circle cx="529.126" cy="429.536" r="5.05154" stroke-width="0.5" stroke="black" fill="cyan"/>
   </g>
   <g id="cell76">
  <circle cx="437.472" cy="375.995" r="8.40424" stroke-width="0.5" stroke="black" fill="green"/>
  <circle cx="437.472" cy="375.995" r="5.04917" stroke-width="0.5" stroke="black" fill="green"/>
   </g>
   <g id="cell77">
  <circle cx="475.713" cy="437.034" r="8.40619" stroke-width="0.5" stroke="black" fill="magenta"/>
  <circle cx="475.713" cy="437.034" r="5.04974" stroke-width="0.5" stroke="black" fill="magenta"/>
   </g>
   <g id="cell78">
  <circle cx="624.911" cy="461.873" r="8.41055" stroke-width="0.5" stroke="black" fill="green"/>
  <circle cx="624.911" cy="461.873" r="5.05111" stroke-width="0.5" stroke="black" fill="green"/>
   </g>
   <g id="cell79">
  <circle cx="519.701" cy="476.364" r="8.41196" stroke-width="0.5" stroke="black" fill="cyan"/>
  <circle cx="519.701" cy="476.364" r="5.05149" stroke-width="0.5" stroke="black" fill="cyan"/>
   </g>
   <g id="cell80">
  <circle cx="543.991" cy="617.844" r="8.38692" stroke-width="0.5" stroke="black" fill="green"/>
  <circle cx="543.991" cy="617.844" r="5.04271" stroke-width="0.5" stroke="black" fill="green"/>
   </g>
   <g id="cell81">
  <circle cx="546.039" cy="591.293" r="8.4115" stroke-width="0.5" stroke="black" fill="green"/>
  <circle cx="546.039" cy="591.293" r="5.05137" stroke-width="0.5" stroke="black" fill="green"/>
   </g>
   <g id="cell82">
  <circle cx="531.855" cy="559.25" r="8.25777" stroke-width="0.5" stroke="black" fill="magenta"/>
  <circle cx="531.855" cy="559.25" r="4.98417" stroke-width="0.5" stroke="black" fill="magenta"/>
   </g>
   <g id="cell83">
  <circle cx="635.378" cy="552.119" r="7.61675" stroke-width="0.5" stroke="black" fill="green"/>
  <circle cx="635.378" cy="552.119" r="4.60831" stroke-width="0.5" stroke="black" fill="black"/>
   </g>
   <g id="cell84">
  <circle cx="514.531" cy="491.43" r="8.41133" stroke-width="0.5" stroke="black" fill="cyan"/>
  <circle cx="514.531" cy="491.43" r="5.05132" stroke-width="0.5" stroke="black" fill="cyan"/>
   </g>
   <g id="cell85">
  <circle cx="351.955" cy="542.251" r="8.40861" stroke-width="0.5" stroke="black" fill="cyan"/>
  <circle cx="351.955" cy="542.251" r="5.05054" stroke-width="0.5" stroke="black" fill="cyan"/>
   </g>
   <g id="cell86">
  <circle cx="498.756" cy="535.986" r="8.38378" stroke-width="0.5" stroke="black" fill="magenta"/>
  <circle cx="498.756" cy="535.986" r="5.04148" stroke-width="0.5" stroke="black" fill="magenta"/>
   </g>
   <g id="cell87">
  <circle cx="578.905" cy="557.497" r="8.40692" stroke-width="0.5" stroke="black" fill="cyan"/>
  <circle cx="578.905" cy="557.497" r="5.05001" stroke-width="0.5" stroke="black" fill="cyan"/>
   </g>
   <g id="cell88">
  <circle cx="445.314" cy="535.329" r="7.71771" stroke-width="0.5" stroke="black" fill="magenta"/>
  <circle cx="445.314" cy="535.329" r="4.70666" stroke-width="0.5" stroke="black" fill="magenta"/>
   </g>
   <g id="cell89">
  <circle cx="551.839" cy="451.097" r="8.21519" stroke-width="0.5" stroke="black" fill="cyan"/>
  <circle cx="551.839" cy="451.097" r="4.96691" stroke-width="0.5" stroke="black" fill="cyan"/>
   </g>
   <g id="cell90">
  <circle cx="636.691" cy="472.678" r="8.37099" stroke-width="0.5" stroke="black" fill="green"/>
  <circle cx="636.691" cy="472.678" r="5.03633" stroke-width="0.5" stroke="black" fill="green"/>
   </g>
   <g id="cell91">
  <circle cx="546.97" cy="559.226" r="8.40914" stroke-width="0.5" stroke="black" fill="magenta"/>
  <circle cx="546.97" cy="559.226" r="5.05072" stroke-width="0.5" stroke="black" fill="magenta"/>
   </g>
   <g id="cell92">
  <circle cx="487.578" cy="552.32" r="8.41043" stroke-width="0.5" stroke="black" fill="green"/>
  <circle cx="487.578" cy="552.32" r="5.05106" stroke-width="0.5" stroke="black" fill="green"/>
   </g>
   <g id="cell93">
  <circle cx="538.898" cy="546.208" r="8.40914" stroke-width="0.5" stroke="black" fill="magenta"/>
  <circle cx="538.898" cy="546.208" r="5.05072" stroke-width="0.5" stroke="black" fill="magenta"/>
   </g>
   <g id="cell94">
  <circle cx="542.797" cy="495.478" r="8.41009" stroke-width="0.5" stroke="black" fill="cyan"/>
  <circle cx="542.797" cy="495.478" r="5.05096" stroke-width="0.5" stroke="black" fill="cyan"/>
   </g>
   <g id="cell95">
  <circle cx="464.705" cy="425.868" r="8.41002" stroke-width="0.5" stroke="black" fill="cyan"/>
  <circle cx="464.705" cy="425.868" r="5.05093" stroke-width="0.5" stroke="black" fill="cyan"/>
   </g>
   <g id="cell96">
  <circle cx="546.268" cy="532.865" r="8.33336" stroke-width="0.5" stroke="black" fill="cyan"/>
  <circle cx="546.268" cy="532.865" r="5.02002" stroke-width="0.5" stroke="black" fill="cyan"/>
   </g>
   <g id="cell97">
  <circle cx="422.099" cy="466.794" r="8.40729" stroke-width="0.5" stroke="black" fill="green"/>
  <circle cx="422.099" cy="466.794" r="5.05014" stroke-width="0.5" stroke="black" fill="green"/>
   </g>
   <g id="cell98">
  <circle cx="489.618" cy="523.23" r="8.3777" stroke-width="0.5" stroke="black" fill="green"/>
  <circle cx="489.618" cy="523.23" r="5.03914" stroke-width="0.5" stroke="black" fill="green"/>
   </g>
   <g id="cell99">
  <circle cx="359.901" cy="528.347" r="8.40861" stroke-width="0.5" stroke="black" fill="cyan"/>
  <circle cx="359.901" cy="528.347" r="5.05054" stroke-width="0.5" stroke="black" fill="cyan"/>
   </g>
   <g id="cell100">
  <circle cx="447.954" cy="402.588" r="8.40855" stroke-width="0.5" stroke="black" fill="green"/>
  <circle cx="447.954" cy="402.588" r="5.0505" stroke-width="0.5" stroke="black" fill="green"/>
   </g>
   <g id="cell101">
  <circle cx="535.212" cy="481.463" r="8.32571" stroke-width="0.5" stroke="black" fill="cyan"/>
  <circle cx="535.212" cy="481.463" r="5.01668" stroke-width="0.5" stroke="black" fill="cyan"/>
   </g>
   <g id="cell102">
  <circle cx="435.226" cy="475.96" r="8.40729" stroke-width="0.5" stroke="black" fill="green"/>
  <circle cx="435.226" cy="475.96" r="5.05014" stroke-width="0.5" stroke="black" fill="green"/>
   </g>
   <g id="cell103">
  <circle cx="592.22" cy="448.273" r="8.38308" stroke-width="0.5" stroke="black" fill="cyan"/>
  <circle cx="592.22" cy="448.273" r="5.04134" stroke-width="0.5" stroke="black" fill="cyan"/>
   </g>
   <g id="cell104">
  <circle cx="599.646" cy="556.879" r="8.19784" stroke-width="0.5" stroke="black" fill="cyan"/>
  <circle cx="599.646" cy="556.879" r="4.95472" stroke-width="0.5" stroke="black" fill="cyan"/>
   </g>
   <g id="cell106">
  <circle cx="461.081" cy="440.969" r="8.40619" stroke-width="0.5" stroke="black" fill="magenta"/>
  <circle cx="461.081" cy="440.969" r="5.04974" stroke-width="0.5" stroke="black" fill="magenta"/>
   </g>
   <g id="cell107">
  <circle cx="462.976" cy="389.695" r="7.44265" stroke-width="0.5" stroke="black" fill="green"/>
  <circle cx="462.976" cy="389.695" r="4.55331" stroke-width="0.5" stroke="black" fill="green"/>
   </g>
   <g id="cell108">
  <circle cx="554.779" cy="605.675" r="8.40516" stroke-width="0.5" stroke="black" fill="green"/>
  <circle cx="554.779" cy="605.675" r="5.04937" stroke-width="0.5" stroke="black" fill="green"/>
   </g>
   <g id="cell109">
  <circle cx="576.51" cy="589.829" r="8.40072" stroke-width="0.5" stroke="black" fill="green"/>
  <circle cx="576.51" cy="589.829" r="5.04799" stroke-width="0.5" stroke="black" fill="green"/>
   </g>
   <g id="cell110">
  <circle cx="369.634" cy="510.148" r="8.40244" stroke-width="0.5" stroke="black" fill="cyan"/>
  <circle cx="369.634" cy="510.148" r="5.04843" stroke-width="0.5" stroke="black" fill="cyan"/>
   </g>
   <g id="cell111">
  <circle cx="458.946" cy="555.645" r="8.32427" stroke-width="0.5" stroke="black" fill="magenta"/>
  <circle cx="458.946" cy="555.645" r="5.01648" stroke-width="0.5" stroke="black" fill="magenta"/>
   </g>
   <g id="cell112">
  <circle cx="494.478" cy="471.462" r="8.18865" stroke-width="0.5" stroke="black" fill="magenta"/>
  <circle cx="494.478" cy="471.462" r="4.9505" stroke-width="0.5" stroke="black" fill="magenta"/>
   </g>
   <g id="cell113">
  <circle cx="545.266" cy="389.364" r="8.23824" stroke-width="0.5" stroke="black" fill="green"/>
  <circle cx="545.266" cy="389.364" r="4.97547" stroke-width="0.5" stroke="black" fill="green"/>
   </g>
   <g id="cell114">
  <circle cx="525.277" cy="445.19" r="8.39282" stroke-width="0.5" stroke="black" fill="cyan"/>
  <circle cx="525.277" cy="445.19" r="5.04521" stroke-width="0.5" stroke="black" fill="cyan"/>
   </g>
   <g id="cell115">
  <circle cx="537.019" cy="455.374" r="8.34054" stroke-width="0.5" stroke="black" fill="cyan"/>
  <circle cx="537.019" cy="455.374" r="5.02416" stroke-width="0.5" stroke="black" fill="cyan"/>
   </g>
   <g id="cell116">
  <circle cx="519.791" cy="520.933" r="8.39595" stroke-width="0.5" stroke="black" fill="cyan"/>
  <circle cx="519.791" cy="520.933" r="5.04616" stroke-width="0.5" stroke="black" fill="cyan"/>
   </g>
   <g id="cell117">
  <circle cx="505.721" cy="623.883" r="8.39052" stroke-width="0.5" stroke="black" fill="green"/>
  <circle cx="505.721" cy="623.883" r="5.04425" stroke-width="0.5" stroke="black" fill="green"/>
   </g>
   <g id="cell118">
  <circle cx="509.879" cy="450.597" r="8.38725" stroke-width="0.5" stroke="black" fill="cyan"/>
  <circle cx="509.879" cy="450.597" r="5.04279" stroke-width="0.5" stroke="black" fill="cyan"/>
   </g>
   <g id="cell119">
  <circle cx="540.728" cy="604.174" r="6.7364" stroke-width="0.5" stroke="black" fill="green"/>
  <circle cx="540.728" cy="604.174" r="4.06112" stroke-width="0.5" stroke="black" fill="green"/>
   </g>
   <g id="cell120">
  <circle cx="578.162" cy="441.773" r="8.38308" stroke-width="0.5" stroke="black" fill="cyan"/>
  <circle cx="578.162" cy="441.773" r="5.04134" stroke-width="0.5" stroke="black" fill="cyan"/>
   </g>
   <g id="cell121">
  <circle cx="450.888" cy="367.277" r="8.34994" stroke-width="0.5" stroke="black" fill="green"/>
  <circle cx="450.888" cy="367.277" r="5.0285" stroke-width="0.5" stroke="black" fill="green"/>
   </g>
   <g id="cell122">
  <circle cx="504.91" cy="522.236" r="8.38378" stroke-width="0.5" stroke="black" fill="magenta"/>
  <circle cx="504.91" cy="522.236" r="5.04148" stroke-width="0.5" stroke="black" fill="magenta"/>
   </g>
   <g id="cell123">
  <circle cx="496.287" cy="509.19" r="8.3777" stroke-width="0.5" stroke="black" fill="green"/>
  <circle cx="496.287" cy="509.19" r="5.03914" stroke-width="0.5" stroke="black" fill="green"/>
   </g>
   <g id="cell124">
  <circle cx="490.315" cy="433.441" r="8.37904" stroke-width="0.5" stroke="black" fill="magenta"/>
  <circle cx="490.315" cy="433.441" r="5.03952" stroke-width="0.5" stroke="black" fill="magenta"/>
   </g>
   <g id="cell125">
  <circle cx="621.494" cy="477.481" r="8.37099" stroke-width="0.5" stroke="black" fill="green"/>
  <circle cx="621.494" cy="477.481" r="5.03633" stroke-width="0.5" stroke="black" fill="green"/>
   </g>
   <g id="cell126">
  <circle cx="628.897" cy="566.553" r="8.37044" stroke-width="0.5" stroke="black" fill="green"/>
  <circle cx="628.897" cy="566.553" r="5.03601" stroke-width="0.5" stroke="black" fill="green"/>
   </g>
   <g id="cell127">
  <circle cx="436.708" cy="360.162" r="8.34994" stroke-width="0.5" stroke="black" fill="green"/>
  <circle cx="436.708" cy="360.162" r="5.0285" stroke-width="0.5" stroke="black" fill="green"/>
   </g>
   <g id="cell128">
  <circle cx="372.131" cy="467.59" r="8.36032" stroke-width="0.5" stroke="black" fill="magenta"/>
  <circle cx="372.131" cy="467.59" r="5.03165" stroke-width="0.5" stroke="black" fill="magenta"/>
   </g>
   <g id="cell129">
  <circle cx="570.429" cy="544.159" r="8.35485" stroke-width="0.5" stroke="black" fill="cyan"/>
  <circle cx="570.429" cy="544.159" r="5.02943" stroke-width="0.5" stroke="black" fill="cyan"/>
   </g>
   <g id="cell130">
  <circle cx="540.635" cy="440.024" r="8.34054" stroke-width="0.5" stroke="black" fill="cyan"/>
  <circle cx="540.635" cy="440.024" r="5.02416" stroke-width="0.5" stroke="black" fill="cyan"/>
   </g>
   <g id="cell131">
  <circle cx="545.439" cy="518.962" r="6.6949" stroke-width="0.5" stroke="black" fill="cyan"/>
  <circle cx="545.439" cy="518.962" r="4.04349" stroke-width="0.5" stroke="black" fill="cyan"/>
   </g>
   <g id="cell132">
  <circle cx="445.596" cy="549.3" r="8.32427" stroke-width="0.5" stroke="black" fill="magenta"/>
  <circle cx="445.596" cy="549.3" r="5.01648" stroke-width="0.5" stroke="black" fill="magenta"/>
   </g>
   <g id="cell133">
  <circle cx="575.264" cy="467.969" r="8.32932" stroke-width="0.5" stroke="black" fill="cyan"/>
  <circle cx="575.264" cy="467.969" r="5.01812" stroke-width="0.5" stroke="black" fill="cyan"/>
   </g>
   <g id="cell134">
  <circle cx="534.543" cy="470.855" r="2.22695" stroke-width="0.5" stroke="black" fill="cyan"/>
  <circle cx="534.543" cy="470.855" r="2.04762" stroke-width="0.5" stroke="black" fill="black"/>
   </g>
   <g id="cell135">
  <circle cx="516.502" cy="583.822" r="8.31766" stroke-width="0.5" stroke="black" fill="magenta"/>
  <circle cx="516.502" cy="583.822" r="5.0126" stroke-width="0.5" stroke="black" fill="magenta"/>
   </g>
   <g id="cell136">
  <circle cx="472.116" cy="548.006" r="8.30193" stroke-width="0.5" stroke="black" fill="green"/>
  <circle cx="472.116" cy="548.006" r="5.00551" stroke-width="0.5" stroke="black" fill="green"/>
   </g>
   <g id="cell137">
  <circle cx="491.321" cy="613.129" r="8.27119" stroke-width="0.5" stroke="black" fill="green"/>
  <circle cx="491.321" cy="613.129" r="4.99225" stroke-width="0.5" stroke="black" fill="green"/>
   </g>
   <g id="cell138">
  <circle cx="501.076" cy="406.529" r="8.28262" stroke-width="0.5" stroke="black" fill="green"/>
  <circle cx="501.076" cy="406.529" r="4.9961" stroke-width="0.5" stroke="black" fill="green"/>
   </g>
   <g id="cell139">
  <circle cx="418.601" cy="407.55" r="8.26262" stroke-width="0.5" stroke="black" fill="magenta"/>
  <circle cx="418.601" cy="407.55" r="4.98642" stroke-width="0.5" stroke="black" fill="magenta"/>
   </g>
   <g id="cell140">
  <circle cx="524.849" cy="571.959" r="8.12006" stroke-width="0.5" stroke="black" fill="magenta"/>
  <circle cx="524.849" cy="571.959" r="4.92032" stroke-width="0.5" stroke="black" fill="magenta"/>
   </g>
   <g id="cell141">
  <circle cx="567.073" cy="455.071" r="8.21519" stroke-width="0.5" stroke="black" fill="cyan"/>
  <circle cx="567.073" cy="455.071" r="4.96691" stroke-width="0.5" stroke="black" fill="cyan"/>
   </g>
   <g id="cell142">
  <circle cx="545.167" cy="424.804" r="6.23254" stroke-width="0.5" stroke="black" fill="green"/>
  <circle cx="545.167" cy="424.804" r="3.80204" stroke-width="0.5" stroke="black" fill="green"/>
   </g>
   <g id="cell143">
  <circle cx="433.448" cy="407.672" r="8.1669" stroke-width="0.5" stroke="black" fill="magenta"/>
  <circle cx="433.448" cy="407.672" r="4.94373" stroke-width="0.5" stroke="black" fill="magenta"/>
   </g>
   <g id="cell144">
  <circle cx="545.886" cy="409.156" r="7.77356" stroke-width="0.5" stroke="black" fill="green"/>
  <circle cx="545.886" cy="409.156" r="4.73941" stroke-width="0.5" stroke="black" fill="green"/>
   </g>
   <g id="cell146">
  <circle cx="588.731" cy="548.442" r="1.09241" stroke-width="0.5" stroke="black" fill="cyan"/>
  <circle cx="588.731" cy="548.442" r="1.08565" stroke-width="0.5" stroke="black" fill="black"/>
   </g>
   <g id="cell147">
  <circle cx="516.952" cy="559.768" r="8.12006" stroke-width="0.5" stroke="black" fill="magenta"/>
  <circle cx="516.952" cy="559.768" r="4.92032" stroke-width="0.5" stroke="black" fill="magenta"/>
   </g>
   <g id="cell148">
  <circle cx="508.075" cy="466.009" r="8.18865" stroke-width="0.5" stroke="black" fill="magenta"/>
  <circle cx="508.075" cy="466.009" r="4.9505" stroke-width="0.5" stroke="black" fill="magenta"/>
   </g>
   <g id="cell149">
  <circle cx="573.422" cy="396.853" r="8.13008" stroke-width="0.5" stroke="black" fill="magenta"/>
  <circle cx="573.422" cy="396.853" r="4.91894" stroke-width="0.5" stroke="black" fill="magenta"/>
   </g>
   <g id="cell150">
  <circle cx="409.518" cy="583.691" r="7.42351" stroke-width="0.5" stroke="black" fill="green"/>
  <circle cx="409.518" cy="583.691" r="4.53574" stroke-width="0.5" stroke="black" fill="green"/>
   </g>
   <g id="cell151">
  <circle cx="419.09" cy="528.879" r="8.05651" stroke-width="0.5" stroke="black" fill="green"/>
  <circle cx="419.09" cy="528.879" r="4.87966" stroke-width="0.5" stroke="black" fill="green"/>
   </g>
   <g id="cell152">
  <circle cx="372.834" cy="574.893" r="7.86424" stroke-width="0.5" stroke="black" fill="green"/>
  <circle cx="372.834" cy="574.893" r="4.78656" stroke-width="0.5" stroke="black" fill="green"/>
   </g>
   <g id="cell153">
  <circle cx="559.744" cy="469.315" r="8.01277" stroke-width="0.5" stroke="black" fill="cyan"/>
  <circle cx="559.744" cy="469.315" r="4.85584" stroke-width="0.5" stroke="black" fill="cyan"/>
   </g>
   <g id="cell154">
  <circle cx="387.396" cy="596.858" r="7.70646" stroke-width="0.5" stroke="black" fill="green"/>
  <circle cx="387.396" cy="596.858" r="4.70679" stroke-width="0.5" stroke="black" fill="green"/>
   </g>
   <g id="cell155">
  <circle cx="484.397" cy="582.774" r="7.98892" stroke-width="0.5" stroke="black" fill="green"/>
  <circle cx="484.397" cy="582.774" r="4.84272" stroke-width="0.5" stroke="black" fill="green"/>
   </g>
   <g id="cell156">
  <circle cx="454.942" cy="525.524" r="7.98793" stroke-width="0.5" stroke="black" fill="magenta"/>
  <circle cx="454.942" cy="525.524" r="4.84245" stroke-width="0.5" stroke="black" fill="magenta"/>
   </g>
   <g id="cell157">
  <circle cx="440.417" cy="522.81" r="7.71771" stroke-width="0.5" stroke="black" fill="magenta"/>
  <circle cx="440.417" cy="522.81" r="4.70666" stroke-width="0.5" stroke="black" fill="magenta"/>
   </g>
   <g id="cell158">
  <circle cx="558.825" cy="416.632" r="7.80217" stroke-width="0.5" stroke="black" fill="green"/>
  <circle cx="558.825" cy="416.632" r="4.75534" stroke-width="0.5" stroke="black" fill="green"/>
   </g>
   <g id="cell159">
  <circle cx="534.319" cy="399.742" r="7.77356" stroke-width="0.5" stroke="black" fill="green"/>
  <circle cx="534.319" cy="399.742" r="4.73941" stroke-width="0.5" stroke="black" fill="green"/>
   </g>
   <g id="cell160">
  <circle cx="463.968" cy="375.295" r="7.86049" stroke-width="0.5" stroke="black" fill="green"/>
  <circle cx="463.968" cy="375.295" r="4.77452" stroke-width="0.5" stroke="black" fill="green"/>
   </g>
   <g id="cell165">
  <circle cx="606.611" cy="521.008" r="7.49456" stroke-width="0.5" stroke="black" fill="magenta"/>
  <circle cx="606.611" cy="521.008" r="4.55548" stroke-width="0.5" stroke="black" fill="magenta"/>
   </g>
   <g id="cell166">
  <circle cx="484.317" cy="461.913" r="7.38053" stroke-width="0.5" stroke="black" fill="magenta"/>
  <circle cx="484.317" cy="461.913" r="4.48775" stroke-width="0.5" stroke="black" fill="magenta"/>
   </g>
   <g id="cell167">
  <circle cx="426.141" cy="395.414" r="7.27253" stroke-width="0.5" stroke="black" fill="green"/>
  <circle cx="426.141" cy="395.414" r="4.41835" stroke-width="0.5" stroke="black" fill="green"/>
   </g>
   <g id="cell170">
  <circle cx="458.734" cy="503.892" r="7.0545" stroke-width="0.5" stroke="black" fill="green"/>
  <circle cx="458.734" cy="503.892" r="4.27772" stroke-width="0.5" stroke="black" fill="green"/>
   </g>
   <g id="cell171">
  <circle cx="595.912" cy="480.389" r="6.86652" stroke-width="0.5" stroke="black" fill="cyan"/>
  <circle cx="595.912" cy="480.389" r="4.14883" stroke-width="0.5" stroke="black" fill="cyan"/>
   </g>
   <g id="cell172">
  <circle cx="553.524" cy="504.164" r="6.78181" stroke-width="0.5" stroke="black" fill="magenta"/>
  <circle cx="553.524" cy="504.164" r="4.08714" stroke-width="0.5" stroke="black" fill="magenta"/>
   </g>
   <g id="cell173">
  <circle cx="533.227" cy="518.717" r="6.6949" stroke-width="0.5" stroke="black" fill="cyan"/>
  <circle cx="533.227" cy="518.717" r="4.04349" stroke-width="0.5" stroke="black" fill="cyan"/>
   </g>
   <g id="cell174">
  <circle cx="503.79" cy="435.986" r="6.73666" stroke-width="0.5" stroke="black" fill="cyan"/>
  <circle cx="503.79" cy="435.986" r="4.06119" stroke-width="0.5" stroke="black" fill="cyan"/>
   </g>
   <g id="cell175">
  <circle cx="528.777" cy="606.261" r="6.7364" stroke-width="0.5" stroke="black" fill="green"/>
  <circle cx="528.777" cy="606.261" r="4.06112" stroke-width="0.5" stroke="black" fill="green"/>
   </g>
   <g id="cell176">
  <circle cx="555.191" cy="430.106" r="6.23254" stroke-width="0.5" stroke="black" fill="green"/>
  <circle cx="555.191" cy="430.106" r="3.80204" stroke-width="0.5" stroke="black" fill="green"/>
   </g>
   <g id="cell177">
  <circle cx="363.261" cy="561.227" r="6.71043" stroke-width="0.5" stroke="black" fill="cyan"/>
  <circle cx="363.261" cy="561.227" r="4.03405" stroke-width="0.5" stroke="black" fill="cyan"/>
   </g>
  </g>
 </g>
  <rect x="775" y="1035" width="200" height="10" stroke-width="2" stroke="rgb(255,255,255)" fill="rgb(0,0,0)"/>
  <text x="781.25" y="1028.75"
   font-family="Arial" font-size="25" fill="black" >
   200 &#956;m
  </text>
  <text x="25" y="1045"
   font-family="Arial" font-size="18.75" fill="black" >
   0 days, 0 hours, 0 minutes, and 36.1843 seconds
  </text>
  <rect x="0" y="70" width="1000" height="1000" stroke-width="2" stroke="rgb(0,0,0)" fill="none"/>
</svg>
