<?xml version="1.0" encoding="UTF-8" standalone="no"?>
<!-- Created with PhysiCell (http://PhysiCell.MathCancer.org/) -->
<svg 
 xmlns:dc="http://purl.org/dc/elements/1.1/" 
 xmlns:cc="http://creativecommons.org/ns#" 
 xmlns:rdf="http://www.w3.org/1999/02/22-rdf-syntax-ns#" 
 xmlns:svg="http://www.w3.org/2000/svg" 
 xmlns="http://www.w3.org/2000/svg" 
 version="1.1" 
 width="1000" 
 height="1070" 
 id="svg2">
  <rect x="0" y="0" width="1000" height="1070" stroke-width="2" stroke="white" fill="white"/>
  <text x="12.5" y="30"
   font-family="Arial" font-size="25" fill="black" >
   Current time: 0 days, 6 hours, and 33.00 minutes, z = 0.00 &#956;m
  </text>
  <text x="12.5" y="57.5"
   font-family="Arial" font-size="23.75" fill="black" >
   94 agents
  </text>
 <g id="tissue" 
    transform="translate(0,1070) scale(1,-1)">
  <g id="ECM">
  </g>
  <g id="cells">
   <g id="cell0">
  <circle cx="519.106" cy="532.407" r="7.21189" stroke-width="0.5" stroke="black" fill="magenta"/>
  <circle cx="519.106" cy="532.407" r="4.37993" stroke-width="0.5" stroke="black" fill="magenta"/>
   </g>
   <g id="cell1">
  <circle cx="602.488" cy="526.199" r="8.41271" stroke-width="0.5" stroke="black" fill="magenta"/>
  <circle cx="602.488" cy="526.199" r="5.05167" stroke-width="0.5" stroke="black" fill="magenta"/>
   </g>
   <g id="cell2">
  <circle cx="511.332" cy="600.695" r="8.41271" stroke-width="0.5" stroke="black" fill="magenta"/>
  <circle cx="511.332" cy="600.695" r="5.05167" stroke-width="0.5" stroke="black" fill="magenta"/>
   </g>
   <g id="cell3">
  <circle cx="527.606" cy="540.189" r="6.34099" stroke-width="0.5" stroke="black" fill="magenta"/>
  <circle cx="527.606" cy="540.189" r="3.87719" stroke-width="0.5" stroke="black" fill="magenta"/>
   </g>
   <g id="cell4">
  <circle cx="486.965" cy="437.577" r="7.9229" stroke-width="0.5" stroke="black" fill="magenta"/>
  <circle cx="486.965" cy="437.577" r="4.80599" stroke-width="0.5" stroke="black" fill="magenta"/>
   </g>
   <g id="cell5">
  <circle cx="465.032" cy="493.3" r="8.41271" stroke-width="0.5" stroke="black" fill="magenta"/>
  <circle cx="465.032" cy="493.3" r="5.05167" stroke-width="0.5" stroke="black" fill="magenta"/>
   </g>
   <g id="cell6">
  <circle cx="595.625" cy="512.645" r="8.41271" stroke-width="0.5" stroke="black" fill="magenta"/>
  <circle cx="595.625" cy="512.645" r="5.05167" stroke-width="0.5" stroke="black" fill="magenta"/>
   </g>
   <g id="cell7">
  <circle cx="511.536" cy="461.899" r="8.41271" stroke-width="0.5" stroke="black" fill="magenta"/>
  <circle cx="511.536" cy="461.899" r="5.05167" stroke-width="0.5" stroke="black" fill="magenta"/>
   </g>
   <g id="cell8">
  <circle cx="375.874" cy="544.441" r="8.41271" stroke-width="0.5" stroke="black" fill="magenta"/>
  <circle cx="375.874" cy="544.441" r="5.05167" stroke-width="0.5" stroke="black" fill="magenta"/>
   </g>
   <g id="cell9">
  <circle cx="460.472" cy="599.786" r="8.41271" stroke-width="0.5" stroke="black" fill="magenta"/>
  <circle cx="460.472" cy="599.786" r="5.05167" stroke-width="0.5" stroke="black" fill="magenta"/>
   </g>
   <g id="cell10">
  <circle cx="583.447" cy="392.105" r="8.41271" stroke-width="0.5" stroke="black" fill="magenta"/>
  <circle cx="583.447" cy="392.105" r="5.05167" stroke-width="0.5" stroke="black" fill="magenta"/>
   </g>
   <g id="cell11">
  <circle cx="589.748" cy="590.273" r="8.41271" stroke-width="0.5" stroke="black" fill="magenta"/>
  <circle cx="589.748" cy="590.273" r="5.05167" stroke-width="0.5" stroke="black" fill="magenta"/>
   </g>
   <g id="cell12">
  <circle cx="506.731" cy="586.28" r="8.41271" stroke-width="0.5" stroke="black" fill="magenta"/>
  <circle cx="506.731" cy="586.28" r="5.05167" stroke-width="0.5" stroke="black" fill="magenta"/>
   </g>
   <g id="cell13">
  <circle cx="386.194" cy="568.228" r="8.41271" stroke-width="0.5" stroke="black" fill="magenta"/>
  <circle cx="386.194" cy="568.228" r="5.05167" stroke-width="0.5" stroke="black" fill="magenta"/>
   </g>
   <g id="cell14">
  <circle cx="528.547" cy="399.201" r="8.41271" stroke-width="0.5" stroke="black" fill="magenta"/>
  <circle cx="528.547" cy="399.201" r="5.05167" stroke-width="0.5" stroke="black" fill="magenta"/>
   </g>
   <g id="cell15">
  <circle cx="379.65" cy="475.1" r="8.41271" stroke-width="0.5" stroke="black" fill="magenta"/>
  <circle cx="379.65" cy="475.1" r="5.05167" stroke-width="0.5" stroke="black" fill="magenta"/>
   </g>
   <g id="cell16">
  <circle cx="428.96" cy="413.217" r="8.41271" stroke-width="0.5" stroke="black" fill="magenta"/>
  <circle cx="428.96" cy="413.217" r="5.05167" stroke-width="0.5" stroke="black" fill="magenta"/>
   </g>
   <g id="cell17">
  <circle cx="570.611" cy="489.16" r="8.41271" stroke-width="0.5" stroke="black" fill="magenta"/>
  <circle cx="570.611" cy="489.16" r="5.05167" stroke-width="0.5" stroke="black" fill="magenta"/>
   </g>
   <g id="cell18">
  <circle cx="517.418" cy="388.935" r="8.41271" stroke-width="0.5" stroke="black" fill="magenta"/>
  <circle cx="517.418" cy="388.935" r="5.05167" stroke-width="0.5" stroke="black" fill="magenta"/>
   </g>
   <g id="cell19">
  <circle cx="455.648" cy="542.444" r="7.02257" stroke-width="0.5" stroke="black" fill="magenta"/>
  <circle cx="455.648" cy="542.444" r="4.25644" stroke-width="0.5" stroke="black" fill="magenta"/>
   </g>
   <g id="cell20">
  <circle cx="531.063" cy="414.128" r="8.41271" stroke-width="0.5" stroke="black" fill="magenta"/>
  <circle cx="531.063" cy="414.128" r="5.05167" stroke-width="0.5" stroke="black" fill="magenta"/>
   </g>
   <g id="cell21">
  <circle cx="464.368" cy="634.574" r="8.41271" stroke-width="0.5" stroke="black" fill="magenta"/>
  <circle cx="464.368" cy="634.574" r="5.05167" stroke-width="0.5" stroke="black" fill="magenta"/>
   </g>
   <g id="cell22">
  <circle cx="557.006" cy="495.737" r="8.41271" stroke-width="0.5" stroke="black" fill="magenta"/>
  <circle cx="557.006" cy="495.737" r="5.05167" stroke-width="0.5" stroke="black" fill="magenta"/>
   </g>
   <g id="cell23">
  <circle cx="536.974" cy="481.724" r="8.41271" stroke-width="0.5" stroke="black" fill="magenta"/>
  <circle cx="536.974" cy="481.724" r="5.05167" stroke-width="0.5" stroke="black" fill="magenta"/>
   </g>
   <g id="cell24">
  <circle cx="559.285" cy="379.795" r="8.41271" stroke-width="0.5" stroke="black" fill="magenta"/>
  <circle cx="559.285" cy="379.795" r="5.05167" stroke-width="0.5" stroke="black" fill="magenta"/>
   </g>
   <g id="cell25">
  <circle cx="645.215" cy="545.713" r="7.65871" stroke-width="0.5" stroke="black" fill="green"/>
  <circle cx="645.215" cy="545.713" r="4.6537" stroke-width="0.5" stroke="black" fill="green"/>
   </g>
   <g id="cell26">
  <circle cx="551.127" cy="401.254" r="8.41271" stroke-width="0.5" stroke="black" fill="green"/>
  <circle cx="551.127" cy="401.254" r="5.05167" stroke-width="0.5" stroke="black" fill="green"/>
   </g>
   <g id="cell27">
  <circle cx="462.578" cy="390.617" r="7.95045" stroke-width="0.5" stroke="black" fill="green"/>
  <circle cx="462.578" cy="390.617" r="4.82139" stroke-width="0.5" stroke="black" fill="green"/>
   </g>
   <g id="cell28">
  <circle cx="434.763" cy="530.8" r="8.41271" stroke-width="0.5" stroke="black" fill="green"/>
  <circle cx="434.763" cy="530.8" r="5.05167" stroke-width="0.5" stroke="black" fill="green"/>
   </g>
   <g id="cell29">
  <circle cx="450.312" cy="517.573" r="8.41271" stroke-width="0.5" stroke="black" fill="green"/>
  <circle cx="450.312" cy="517.573" r="5.05167" stroke-width="0.5" stroke="black" fill="green"/>
   </g>
   <g id="cell30">
  <circle cx="481.161" cy="535.913" r="6.75639" stroke-width="0.5" stroke="black" fill="green"/>
  <circle cx="481.161" cy="535.913" r="4.06813" stroke-width="0.5" stroke="black" fill="green"/>
   </g>
   <g id="cell31">
  <circle cx="412.757" cy="541.193" r="8.41271" stroke-width="0.5" stroke="black" fill="green"/>
  <circle cx="412.757" cy="541.193" r="5.05167" stroke-width="0.5" stroke="black" fill="green"/>
   </g>
   <g id="cell32">
  <circle cx="425.371" cy="474.829" r="8.41271" stroke-width="0.5" stroke="black" fill="green"/>
  <circle cx="425.371" cy="474.829" r="5.05167" stroke-width="0.5" stroke="black" fill="green"/>
   </g>
   <g id="cell33">
  <circle cx="494.006" cy="424.188" r="8.41271" stroke-width="0.5" stroke="black" fill="green"/>
  <circle cx="494.006" cy="424.188" r="5.05167" stroke-width="0.5" stroke="black" fill="green"/>
   </g>
   <g id="cell34">
  <circle cx="397.088" cy="450.831" r="8.41271" stroke-width="0.5" stroke="black" fill="green"/>
  <circle cx="397.088" cy="450.831" r="5.05167" stroke-width="0.5" stroke="black" fill="green"/>
   </g>
   <g id="cell35">
  <circle cx="551.663" cy="543.622" r="8.41271" stroke-width="0.5" stroke="black" fill="green"/>
  <circle cx="551.663" cy="543.622" r="5.05167" stroke-width="0.5" stroke="black" fill="green"/>
   </g>
   <g id="cell36">
  <circle cx="391.486" cy="582.903" r="8.41271" stroke-width="0.5" stroke="black" fill="green"/>
  <circle cx="391.486" cy="582.903" r="5.05167" stroke-width="0.5" stroke="black" fill="green"/>
   </g>
   <g id="cell37">
  <circle cx="638.926" cy="457.525" r="7.87851" stroke-width="0.5" stroke="black" fill="green"/>
  <circle cx="638.926" cy="457.525" r="4.78096" stroke-width="0.5" stroke="black" fill="green"/>
   </g>
   <g id="cell38">
  <circle cx="532.09" cy="598.491" r="7.77763" stroke-width="0.5" stroke="black" fill="green"/>
  <circle cx="532.09" cy="598.491" r="4.7232" stroke-width="0.5" stroke="black" fill="green"/>
   </g>
   <g id="cell39">
  <circle cx="613.458" cy="490.595" r="8.41271" stroke-width="0.5" stroke="black" fill="green"/>
  <circle cx="613.458" cy="490.595" r="5.05167" stroke-width="0.5" stroke="black" fill="green"/>
   </g>
   <g id="cell40">
  <circle cx="485.348" cy="571.779" r="8.41271" stroke-width="0.5" stroke="black" fill="green"/>
  <circle cx="485.348" cy="571.779" r="5.05167" stroke-width="0.5" stroke="black" fill="green"/>
   </g>
   <g id="cell41">
  <circle cx="364.925" cy="480.252" r="8.41271" stroke-width="0.5" stroke="black" fill="green"/>
  <circle cx="364.925" cy="480.252" r="5.05167" stroke-width="0.5" stroke="black" fill="green"/>
   </g>
   <g id="cell42">
  <circle cx="438.842" cy="494.268" r="8.41271" stroke-width="0.5" stroke="black" fill="green"/>
  <circle cx="438.842" cy="494.268" r="5.05167" stroke-width="0.5" stroke="black" fill="green"/>
   </g>
   <g id="cell43">
  <circle cx="558.754" cy="446.174" r="8.41271" stroke-width="0.5" stroke="black" fill="green"/>
  <circle cx="558.754" cy="446.174" r="5.05167" stroke-width="0.5" stroke="black" fill="green"/>
   </g>
   <g id="cell44">
  <circle cx="475.857" cy="624.021" r="8.41271" stroke-width="0.5" stroke="black" fill="green"/>
  <circle cx="475.857" cy="624.021" r="5.05167" stroke-width="0.5" stroke="black" fill="green"/>
   </g>
   <g id="cell45">
  <circle cx="414.953" cy="557.066" r="8.41271" stroke-width="0.5" stroke="black" fill="green"/>
  <circle cx="414.953" cy="557.066" r="5.05167" stroke-width="0.5" stroke="black" fill="green"/>
   </g>
   <g id="cell46">
  <circle cx="523.029" cy="610.952" r="8.41271" stroke-width="0.5" stroke="black" fill="green"/>
  <circle cx="523.029" cy="610.952" r="5.05167" stroke-width="0.5" stroke="black" fill="green"/>
   </g>
   <g id="cell47">
  <circle cx="504.151" cy="507.776" r="8.41271" stroke-width="0.5" stroke="black" fill="green"/>
  <circle cx="504.151" cy="507.776" r="5.05167" stroke-width="0.5" stroke="black" fill="green"/>
   </g>
   <g id="cell48">
  <circle cx="564.222" cy="602.923" r="8.41271" stroke-width="0.5" stroke="black" fill="green"/>
  <circle cx="564.222" cy="602.923" r="5.05167" stroke-width="0.5" stroke="black" fill="green"/>
   </g>
   <g id="cell49">
  <circle cx="429.826" cy="397.641" r="8.41271" stroke-width="0.5" stroke="black" fill="green"/>
  <circle cx="429.826" cy="397.641" r="5.05167" stroke-width="0.5" stroke="black" fill="green"/>
   </g>
   <g id="cell50">
  <circle cx="519.996" cy="519.456" r="7.30216" stroke-width="0.5" stroke="black" fill="cyan"/>
  <circle cx="519.996" cy="519.456" r="4.43696" stroke-width="0.5" stroke="black" fill="cyan"/>
   </g>
   <g id="cell51">
  <circle cx="398.721" cy="597.201" r="8.41271" stroke-width="0.5" stroke="black" fill="cyan"/>
  <circle cx="398.721" cy="597.201" r="5.05167" stroke-width="0.5" stroke="black" fill="cyan"/>
   </g>
   <g id="cell52">
  <circle cx="520.441" cy="425.528" r="8.41271" stroke-width="0.5" stroke="black" fill="cyan"/>
  <circle cx="520.441" cy="425.528" r="5.05167" stroke-width="0.5" stroke="black" fill="cyan"/>
   </g>
   <g id="cell53">
  <circle cx="571.223" cy="436.057" r="8.41271" stroke-width="0.5" stroke="black" fill="cyan"/>
  <circle cx="571.223" cy="436.057" r="5.05167" stroke-width="0.5" stroke="black" fill="cyan"/>
   </g>
   <g id="cell54">
  <circle cx="478.013" cy="425.349" r="8.41271" stroke-width="0.5" stroke="black" fill="cyan"/>
  <circle cx="478.013" cy="425.349" r="5.05167" stroke-width="0.5" stroke="black" fill="cyan"/>
   </g>
   <g id="cell55">
  <circle cx="530.14" cy="468.098" r="7.81315" stroke-width="0.5" stroke="black" fill="cyan"/>
  <circle cx="530.14" cy="468.098" r="4.74367" stroke-width="0.5" stroke="black" fill="cyan"/>
   </g>
   <g id="cell56">
  <circle cx="617.629" cy="522.329" r="8.41271" stroke-width="0.5" stroke="black" fill="cyan"/>
  <circle cx="617.629" cy="522.329" r="5.05167" stroke-width="0.5" stroke="black" fill="cyan"/>
   </g>
   <g id="cell57">
  <circle cx="416.924" cy="617.466" r="1.58878" stroke-width="0.5" stroke="black" fill="cyan"/>
  <circle cx="416.924" cy="617.466" r="1.56061" stroke-width="0.5" stroke="black" fill="black"/>
   </g>
   <g id="cell58">
  <circle cx="552.855" cy="480.819" r="8.41271" stroke-width="0.5" stroke="black" fill="cyan"/>
  <circle cx="552.855" cy="480.819" r="5.05167" stroke-width="0.5" stroke="black" fill="cyan"/>
   </g>
   <g id="cell59">
  <circle cx="385.463" cy="439.803" r="8.41271" stroke-width="0.5" stroke="black" fill="cyan"/>
  <circle cx="385.463" cy="439.803" r="5.05167" stroke-width="0.5" stroke="black" fill="cyan"/>
   </g>
   <g id="cell60">
  <circle cx="593.143" cy="473.643" r="8.41271" stroke-width="0.5" stroke="black" fill="cyan"/>
  <circle cx="593.143" cy="473.643" r="5.05167" stroke-width="0.5" stroke="black" fill="cyan"/>
   </g>
   <g id="cell61">
  <circle cx="552.742" cy="614.054" r="8.41271" stroke-width="0.5" stroke="black" fill="cyan"/>
  <circle cx="552.742" cy="614.054" r="5.05167" stroke-width="0.5" stroke="black" fill="cyan"/>
   </g>
   <g id="cell62">
  <circle cx="521.558" cy="450.63" r="7.96365" stroke-width="0.5" stroke="black" fill="cyan"/>
  <circle cx="521.558" cy="450.63" r="4.82873" stroke-width="0.5" stroke="black" fill="cyan"/>
   </g>
   <g id="cell63">
  <circle cx="575.921" cy="540.494" r="7.11815" stroke-width="0.5" stroke="black" fill="cyan"/>
  <circle cx="575.921" cy="540.494" r="4.31954" stroke-width="0.5" stroke="black" fill="cyan"/>
   </g>
   <g id="cell64">
  <circle cx="509.962" cy="636.825" r="8.41271" stroke-width="0.5" stroke="black" fill="cyan"/>
  <circle cx="509.962" cy="636.825" r="5.05167" stroke-width="0.5" stroke="black" fill="cyan"/>
   </g>
   <g id="cell65">
  <circle cx="543.924" cy="469.48" r="6.99069" stroke-width="0.5" stroke="black" fill="cyan"/>
  <circle cx="543.924" cy="469.48" r="4.23498" stroke-width="0.5" stroke="black" fill="cyan"/>
   </g>
   <g id="cell66">
  <circle cx="532.929" cy="527.538" r="8.41271" stroke-width="0.5" stroke="black" fill="cyan"/>
  <circle cx="532.929" cy="527.538" r="5.05167" stroke-width="0.5" stroke="black" fill="cyan"/>
   </g>
   <g id="cell67">
  <circle cx="354.711" cy="492.599" r="8.41271" stroke-width="0.5" stroke="black" fill="cyan"/>
  <circle cx="354.711" cy="492.599" r="5.05167" stroke-width="0.5" stroke="black" fill="cyan"/>
   </g>
   <g id="cell68">
  <circle cx="565.053" cy="552.447" r="8.41271" stroke-width="0.5" stroke="black" fill="cyan"/>
  <circle cx="565.053" cy="552.447" r="5.05167" stroke-width="0.5" stroke="black" fill="cyan"/>
   </g>
   <g id="cell69">
  <circle cx="437.64" cy="464.521" r="8.41271" stroke-width="0.5" stroke="black" fill="cyan"/>
  <circle cx="437.64" cy="464.521" r="5.05167" stroke-width="0.5" stroke="black" fill="cyan"/>
   </g>
   <g id="cell70">
  <circle cx="577.186" cy="475.032" r="8.41271" stroke-width="0.5" stroke="black" fill="cyan"/>
  <circle cx="577.186" cy="475.032" r="5.05167" stroke-width="0.5" stroke="black" fill="cyan"/>
   </g>
   <g id="cell71">
  <circle cx="377.712" cy="520.989" r="8.41271" stroke-width="0.5" stroke="black" fill="cyan"/>
  <circle cx="377.712" cy="520.989" r="5.05167" stroke-width="0.5" stroke="black" fill="cyan"/>
   </g>
   <g id="cell72">
  <circle cx="532.709" cy="511.529" r="8.41271" stroke-width="0.5" stroke="black" fill="cyan"/>
  <circle cx="532.709" cy="511.529" r="5.05167" stroke-width="0.5" stroke="black" fill="cyan"/>
   </g>
   <g id="cell73">
  <circle cx="362.663" cy="550.319" r="7.24243" stroke-width="0.5" stroke="black" fill="cyan"/>
  <circle cx="362.663" cy="550.319" r="4.39934" stroke-width="0.5" stroke="black" fill="cyan"/>
   </g>
   <g id="cell74">
  <circle cx="542.831" cy="445.567" r="8.41271" stroke-width="0.5" stroke="black" fill="cyan"/>
  <circle cx="542.831" cy="445.567" r="5.05167" stroke-width="0.5" stroke="black" fill="cyan"/>
   </g>
   <g id="cell75">
  <circle cx="529.565" cy="437.926" r="7.96365" stroke-width="0.5" stroke="black" fill="cyan"/>
  <circle cx="529.565" cy="437.926" r="4.82873" stroke-width="0.5" stroke="black" fill="cyan"/>
   </g>
   <g id="cell76">
  <circle cx="448.451" cy="385.279" r="7.95045" stroke-width="0.5" stroke="black" fill="green"/>
  <circle cx="448.451" cy="385.279" r="4.82139" stroke-width="0.5" stroke="black" fill="green"/>
   </g>
   <g id="cell77">
  <circle cx="472.873" cy="439.601" r="7.9229" stroke-width="0.5" stroke="black" fill="magenta"/>
  <circle cx="472.873" cy="439.601" r="4.80599" stroke-width="0.5" stroke="black" fill="magenta"/>
   </g>
   <g id="cell78">
  <circle cx="626.01" cy="462.138" r="6.60728" stroke-width="0.5" stroke="black" fill="green"/>
  <circle cx="626.01" cy="462.138" r="4.03994" stroke-width="0.5" stroke="black" fill="green"/>
   </g>
   <g id="cell79">
  <circle cx="517.566" cy="475.626" r="7.81315" stroke-width="0.5" stroke="black" fill="cyan"/>
  <circle cx="517.566" cy="475.626" r="4.74367" stroke-width="0.5" stroke="black" fill="cyan"/>
   </g>
   <g id="cell80">
  <circle cx="537.962" cy="611.659" r="7.39663" stroke-width="0.5" stroke="black" fill="green"/>
  <circle cx="537.962" cy="611.659" r="4.52511" stroke-width="0.5" stroke="black" fill="green"/>
   </g>
   <g id="cell81">
  <circle cx="546.387" cy="600.44" r="7.39663" stroke-width="0.5" stroke="black" fill="green"/>
  <circle cx="546.387" cy="600.44" r="4.52511" stroke-width="0.5" stroke="black" fill="green"/>
   </g>
   <g id="cell82">
  <circle cx="529.777" cy="552.317" r="7.65871" stroke-width="0.5" stroke="black" fill="magenta"/>
  <circle cx="529.777" cy="552.317" r="4.6537" stroke-width="0.5" stroke="black" fill="magenta"/>
   </g>
   <g id="cell83">
  <circle cx="634.997" cy="556.037" r="7.65871" stroke-width="0.5" stroke="black" fill="green"/>
  <circle cx="634.997" cy="556.037" r="4.6537" stroke-width="0.5" stroke="black" fill="green"/>
   </g>
   <g id="cell84">
  <circle cx="518.91" cy="505.883" r="7.30216" stroke-width="0.5" stroke="black" fill="cyan"/>
  <circle cx="518.91" cy="505.883" r="4.43696" stroke-width="0.5" stroke="black" fill="cyan"/>
   </g>
   <g id="cell85">
  <circle cx="356.191" cy="538.235" r="7.24243" stroke-width="0.5" stroke="black" fill="cyan"/>
  <circle cx="356.191" cy="538.235" r="4.39934" stroke-width="0.5" stroke="black" fill="cyan"/>
   </g>
   <g id="cell86">
  <circle cx="508.04" cy="526.403" r="7.21189" stroke-width="0.5" stroke="black" fill="magenta"/>
  <circle cx="508.04" cy="526.403" r="4.37993" stroke-width="0.5" stroke="black" fill="magenta"/>
   </g>
   <g id="cell87">
  <circle cx="579.701" cy="553.405" r="7.11815" stroke-width="0.5" stroke="black" fill="cyan"/>
  <circle cx="579.701" cy="553.405" r="4.31954" stroke-width="0.5" stroke="black" fill="cyan"/>
   </g>
   <g id="cell88">
  <circle cx="449" cy="531.772" r="7.02257" stroke-width="0.5" stroke="black" fill="magenta"/>
  <circle cx="449" cy="531.772" r="4.25644" stroke-width="0.5" stroke="black" fill="magenta"/>
   </g>
   <g id="cell89">
  <circle cx="550.096" cy="458.019" r="6.99069" stroke-width="0.5" stroke="black" fill="cyan"/>
  <circle cx="550.096" cy="458.019" r="4.23498" stroke-width="0.5" stroke="black" fill="cyan"/>
   </g>
   <g id="cell90">
  <circle cx="630.363" cy="473.834" r="6.60728" stroke-width="0.5" stroke="black" fill="green"/>
  <circle cx="630.363" cy="473.834" r="4.03994" stroke-width="0.5" stroke="black" fill="green"/>
   </g>
   <g id="cell91">
  <circle cx="541.352" cy="550.984" r="5.12983" stroke-width="0.5" stroke="black" fill="magenta"/>
  <circle cx="541.352" cy="550.984" r="3.1445" stroke-width="0.5" stroke="black" fill="magenta"/>
   </g>
   <g id="cell92">
  <circle cx="482.386" cy="548.658" r="6.75639" stroke-width="0.5" stroke="black" fill="green"/>
  <circle cx="482.386" cy="548.658" r="4.06813" stroke-width="0.5" stroke="black" fill="green"/>
   </g>
   <g id="cell93">
  <circle cx="537.075" cy="543.113" r="5.12983" stroke-width="0.5" stroke="black" fill="magenta"/>
  <circle cx="537.075" cy="543.113" r="3.1445" stroke-width="0.5" stroke="black" fill="magenta"/>
   </g>
  </g>
 </g>
  <rect x="775" y="1035" width="200" height="10" stroke-width="2" stroke="rgb(255,255,255)" fill="rgb(0,0,0)"/>
  <text x="781.25" y="1028.75"
   font-family="Arial" font-size="25" fill="black" >
   200 &#956;m
  </text>
  <text x="25" y="1045"
   font-family="Arial" font-size="18.75" fill="black" >
   0 days, 0 hours, 0 minutes, and 7.3098 seconds
  </text>
  <rect x="0" y="70" width="1000" height="1000" stroke-width="2" stroke="rgb(0,0,0)" fill="none"/>
</svg>
