<?xml version="1.0" encoding="UTF-8" standalone="no"?>
<!-- Created with PhysiCell (http://PhysiCell.MathCancer.org/) -->
<svg 
 xmlns:dc="http://purl.org/dc/elements/1.1/" 
 xmlns:cc="http://creativecommons.org/ns#" 
 xmlns:rdf="http://www.w3.org/1999/02/22-rdf-syntax-ns#" 
 xmlns:svg="http://www.w3.org/2000/svg" 
 xmlns="http://www.w3.org/2000/svg" 
 version="1.1" 
 width="1000" 
 height="1070" 
 id="svg2">
  <rect x="0" y="0" width="1000" height="1070" stroke-width="2" stroke="white" fill="white"/>
  <text x="12.5" y="30"
   font-family="Arial" font-size="25" fill="black" >
   Current time: 0 days, 20 hours, and 30.00 minutes, z = 0.00 &#956;m
  </text>
  <text x="12.5" y="57.5"
   font-family="Arial" font-size="23.75" fill="black" >
   128 agents
  </text>
 <g id="tissue" 
    transform="translate(0,1070) scale(1,-1)">
  <g id="ECM">
  </g>
  <g id="cells">
   <g id="cell0">
  <circle cx="481.313" cy="404.903" r="8.41271" stroke-width="0.5" stroke="black" fill="magenta"/>
  <circle cx="481.313" cy="404.903" r="5.05167" stroke-width="0.5" stroke="black" fill="magenta"/>
   </g>
   <g id="cell1">
  <circle cx="633.488" cy="509.16" r="8.40185" stroke-width="0.5" stroke="black" fill="magenta"/>
  <circle cx="633.488" cy="509.16" r="5.04822" stroke-width="0.5" stroke="black" fill="magenta"/>
   </g>
   <g id="cell2">
  <circle cx="479.148" cy="493.95" r="8.41271" stroke-width="0.5" stroke="black" fill="magenta"/>
  <circle cx="479.148" cy="493.95" r="5.05167" stroke-width="0.5" stroke="black" fill="magenta"/>
   </g>
   <g id="cell3">
  <circle cx="450.172" cy="451.328" r="8.3937" stroke-width="0.5" stroke="black" fill="magenta"/>
  <circle cx="450.172" cy="451.328" r="5.04523" stroke-width="0.5" stroke="black" fill="magenta"/>
   </g>
   <g id="cell4">
  <circle cx="417.686" cy="552.874" r="8.28629" stroke-width="0.5" stroke="black" fill="magenta"/>
  <circle cx="417.686" cy="552.874" r="4.99786" stroke-width="0.5" stroke="black" fill="magenta"/>
   </g>
   <g id="cell5">
  <circle cx="393.5" cy="440.755" r="8.41271" stroke-width="0.5" stroke="black" fill="magenta"/>
  <circle cx="393.5" cy="440.755" r="5.05167" stroke-width="0.5" stroke="black" fill="magenta"/>
   </g>
   <g id="cell6">
  <circle cx="431.276" cy="546.514" r="8.35727" stroke-width="0.5" stroke="black" fill="magenta"/>
  <circle cx="431.276" cy="546.514" r="5.03034" stroke-width="0.5" stroke="black" fill="magenta"/>
   </g>
   <g id="cell7">
  <circle cx="604.012" cy="508.172" r="8.41271" stroke-width="0.5" stroke="black" fill="magenta"/>
  <circle cx="604.012" cy="508.172" r="5.05167" stroke-width="0.5" stroke="black" fill="magenta"/>
   </g>
   <g id="cell8">
  <circle cx="387.592" cy="501.051" r="8.41271" stroke-width="0.5" stroke="black" fill="magenta"/>
  <circle cx="387.592" cy="501.051" r="5.05167" stroke-width="0.5" stroke="black" fill="magenta"/>
   </g>
   <g id="cell9">
  <circle cx="528.522" cy="401.472" r="8.02714" stroke-width="0.5" stroke="black" fill="magenta"/>
  <circle cx="528.522" cy="401.472" r="4.87262" stroke-width="0.5" stroke="black" fill="magenta"/>
   </g>
   <g id="cell10">
  <circle cx="595.62" cy="428.516" r="7.9229" stroke-width="0.5" stroke="black" fill="magenta"/>
  <circle cx="595.62" cy="428.516" r="4.80599" stroke-width="0.5" stroke="black" fill="magenta"/>
   </g>
   <g id="cell11">
  <circle cx="517.757" cy="501.299" r="8.41271" stroke-width="0.5" stroke="black" fill="magenta"/>
  <circle cx="517.757" cy="501.299" r="5.05167" stroke-width="0.5" stroke="black" fill="magenta"/>
   </g>
   <g id="cell12">
  <circle cx="603.161" cy="400.063" r="8.41271" stroke-width="0.5" stroke="black" fill="magenta"/>
  <circle cx="603.161" cy="400.063" r="5.05167" stroke-width="0.5" stroke="black" fill="magenta"/>
   </g>
   <g id="cell13">
  <circle cx="638.345" cy="494.949" r="8.30468" stroke-width="0.5" stroke="black" fill="magenta"/>
  <circle cx="638.345" cy="494.949" r="5.00821" stroke-width="0.5" stroke="black" fill="magenta"/>
   </g>
   <g id="cell14">
  <circle cx="363.298" cy="434.385" r="8.41271" stroke-width="0.5" stroke="black" fill="magenta"/>
  <circle cx="363.298" cy="434.385" r="5.05167" stroke-width="0.5" stroke="black" fill="magenta"/>
   </g>
   <g id="cell15">
  <circle cx="377.236" cy="490" r="8.41271" stroke-width="0.5" stroke="black" fill="magenta"/>
  <circle cx="377.236" cy="490" r="5.05167" stroke-width="0.5" stroke="black" fill="magenta"/>
   </g>
   <g id="cell16">
  <circle cx="510.97" cy="413.948" r="7.65871" stroke-width="0.5" stroke="black" fill="magenta"/>
  <circle cx="510.97" cy="413.948" r="4.6537" stroke-width="0.5" stroke="black" fill="magenta"/>
   </g>
   <g id="cell17">
  <circle cx="377.49" cy="579.82" r="8.31766" stroke-width="0.5" stroke="black" fill="magenta"/>
  <circle cx="377.49" cy="579.82" r="5.0126" stroke-width="0.5" stroke="black" fill="magenta"/>
   </g>
   <g id="cell18">
  <circle cx="528.259" cy="461.835" r="8.41271" stroke-width="0.5" stroke="black" fill="magenta"/>
  <circle cx="528.259" cy="461.835" r="5.05167" stroke-width="0.5" stroke="black" fill="magenta"/>
   </g>
   <g id="cell19">
  <circle cx="487.857" cy="460.601" r="8.41271" stroke-width="0.5" stroke="black" fill="magenta"/>
  <circle cx="487.857" cy="460.601" r="5.05167" stroke-width="0.5" stroke="black" fill="magenta"/>
   </g>
   <g id="cell20">
  <circle cx="495.926" cy="539.908" r="7.54436" stroke-width="0.5" stroke="black" fill="magenta"/>
  <circle cx="495.926" cy="539.908" r="4.58555" stroke-width="0.5" stroke="black" fill="magenta"/>
   </g>
   <g id="cell21">
  <circle cx="506.85" cy="595.709" r="8.1944" stroke-width="0.5" stroke="black" fill="magenta"/>
  <circle cx="506.85" cy="595.709" r="4.95428" stroke-width="0.5" stroke="black" fill="magenta"/>
   </g>
   <g id="cell22">
  <circle cx="542.16" cy="467.475" r="8.3632" stroke-width="0.5" stroke="black" fill="magenta"/>
  <circle cx="542.16" cy="467.475" r="5.03288" stroke-width="0.5" stroke="black" fill="magenta"/>
   </g>
   <g id="cell23">
  <circle cx="564.661" cy="600.68" r="8.41271" stroke-width="0.5" stroke="black" fill="magenta"/>
  <circle cx="564.661" cy="600.68" r="5.05167" stroke-width="0.5" stroke="black" fill="magenta"/>
   </g>
   <g id="cell24">
  <circle cx="502.621" cy="500.847" r="8.41271" stroke-width="0.5" stroke="black" fill="magenta"/>
  <circle cx="502.621" cy="500.847" r="5.05167" stroke-width="0.5" stroke="black" fill="magenta"/>
   </g>
   <g id="cell25">
  <circle cx="441.906" cy="517.802" r="8.41271" stroke-width="0.5" stroke="black" fill="green"/>
  <circle cx="441.906" cy="517.802" r="5.05167" stroke-width="0.5" stroke="black" fill="green"/>
   </g>
   <g id="cell26">
  <circle cx="481.655" cy="595.266" r="8.41271" stroke-width="0.5" stroke="black" fill="green"/>
  <circle cx="481.655" cy="595.266" r="5.05167" stroke-width="0.5" stroke="black" fill="green"/>
   </g>
   <g id="cell27">
  <circle cx="438.695" cy="588.699" r="8.40472" stroke-width="0.5" stroke="black" fill="green"/>
  <circle cx="438.695" cy="588.699" r="5.04922" stroke-width="0.5" stroke="black" fill="green"/>
   </g>
   <g id="cell28">
  <circle cx="504.099" cy="437.529" r="8.41271" stroke-width="0.5" stroke="black" fill="green"/>
  <circle cx="504.099" cy="437.529" r="5.05167" stroke-width="0.5" stroke="black" fill="green"/>
   </g>
   <g id="cell29">
  <circle cx="589.511" cy="514.035" r="8.41271" stroke-width="0.5" stroke="black" fill="green"/>
  <circle cx="589.511" cy="514.035" r="5.05167" stroke-width="0.5" stroke="black" fill="green"/>
   </g>
   <g id="cell30">
  <circle cx="585.263" cy="617.632" r="7.82237" stroke-width="0.5" stroke="black" fill="green"/>
  <circle cx="585.263" cy="617.632" r="4.75881" stroke-width="0.5" stroke="black" fill="green"/>
   </g>
   <g id="cell31">
  <circle cx="471.368" cy="416.921" r="8.41271" stroke-width="0.5" stroke="black" fill="green"/>
  <circle cx="471.368" cy="416.921" r="5.05167" stroke-width="0.5" stroke="black" fill="green"/>
   </g>
   <g id="cell32">
  <circle cx="555.505" cy="430.304" r="8.40244" stroke-width="0.5" stroke="black" fill="green"/>
  <circle cx="555.505" cy="430.304" r="5.04843" stroke-width="0.5" stroke="black" fill="green"/>
   </g>
   <g id="cell33">
  <circle cx="591.907" cy="568.176" r="8.32543" stroke-width="0.5" stroke="black" fill="green"/>
  <circle cx="591.907" cy="568.176" r="5.01617" stroke-width="0.5" stroke="black" fill="green"/>
   </g>
   <g id="cell34">
  <circle cx="560.013" cy="585.706" r="8.41271" stroke-width="0.5" stroke="black" fill="green"/>
  <circle cx="560.013" cy="585.706" r="5.05167" stroke-width="0.5" stroke="black" fill="green"/>
   </g>
   <g id="cell35">
  <circle cx="472.214" cy="507.922" r="8.41271" stroke-width="0.5" stroke="black" fill="green"/>
  <circle cx="472.214" cy="507.922" r="5.05167" stroke-width="0.5" stroke="black" fill="green"/>
   </g>
   <g id="cell36">
  <circle cx="455.336" cy="564.538" r="8.31209" stroke-width="0.5" stroke="black" fill="green"/>
  <circle cx="455.336" cy="564.538" r="5.01002" stroke-width="0.5" stroke="black" fill="green"/>
   </g>
   <g id="cell37">
  <circle cx="488.168" cy="506.677" r="8.41271" stroke-width="0.5" stroke="black" fill="green"/>
  <circle cx="488.168" cy="506.677" r="5.05167" stroke-width="0.5" stroke="black" fill="green"/>
   </g>
   <g id="cell38">
  <circle cx="615.476" cy="451.494" r="8.41271" stroke-width="0.5" stroke="black" fill="green"/>
  <circle cx="615.476" cy="451.494" r="5.05167" stroke-width="0.5" stroke="black" fill="green"/>
   </g>
   <g id="cell39">
  <circle cx="432.907" cy="531.051" r="8.41271" stroke-width="0.5" stroke="black" fill="green"/>
  <circle cx="432.907" cy="531.051" r="5.05167" stroke-width="0.5" stroke="black" fill="green"/>
   </g>
   <g id="cell40">
  <circle cx="475.32" cy="610.318" r="8.41271" stroke-width="0.5" stroke="black" fill="green"/>
  <circle cx="475.32" cy="610.318" r="5.05167" stroke-width="0.5" stroke="black" fill="green"/>
   </g>
   <g id="cell41">
  <circle cx="595.484" cy="413.626" r="8.41271" stroke-width="0.5" stroke="black" fill="green"/>
  <circle cx="595.484" cy="413.626" r="5.05167" stroke-width="0.5" stroke="black" fill="green"/>
   </g>
   <g id="cell42">
  <circle cx="457.477" cy="514.129" r="8.40327" stroke-width="0.5" stroke="black" fill="green"/>
  <circle cx="457.477" cy="514.129" r="5.04872" stroke-width="0.5" stroke="black" fill="green"/>
   </g>
   <g id="cell43">
  <circle cx="357.665" cy="458.998" r="8.41271" stroke-width="0.5" stroke="black" fill="green"/>
  <circle cx="357.665" cy="458.998" r="5.05167" stroke-width="0.5" stroke="black" fill="green"/>
   </g>
   <g id="cell44">
  <circle cx="501.929" cy="467.547" r="8.41271" stroke-width="0.5" stroke="black" fill="green"/>
  <circle cx="501.929" cy="467.547" r="5.05167" stroke-width="0.5" stroke="black" fill="green"/>
   </g>
   <g id="cell45">
  <circle cx="491.193" cy="631.405" r="7.541" stroke-width="0.5" stroke="black" fill="green"/>
  <circle cx="491.193" cy="631.405" r="4.60591" stroke-width="0.5" stroke="black" fill="green"/>
   </g>
   <g id="cell46">
  <circle cx="599.588" cy="455.059" r="8.41271" stroke-width="0.5" stroke="black" fill="green"/>
  <circle cx="599.588" cy="455.059" r="5.05167" stroke-width="0.5" stroke="black" fill="green"/>
   </g>
   <g id="cell47">
  <circle cx="509.619" cy="538.64" r="7.41548" stroke-width="0.5" stroke="black" fill="green"/>
  <circle cx="509.619" cy="538.64" r="4.50723" stroke-width="0.5" stroke="black" fill="green"/>
   </g>
   <g id="cell48">
  <circle cx="452.573" cy="383.833" r="8.41271" stroke-width="0.5" stroke="black" fill="green"/>
  <circle cx="452.573" cy="383.833" r="5.05167" stroke-width="0.5" stroke="black" fill="green"/>
   </g>
   <g id="cell49">
  <circle cx="443.978" cy="638.738" r="8.41271" stroke-width="0.5" stroke="black" fill="green"/>
  <circle cx="443.978" cy="638.738" r="5.05167" stroke-width="0.5" stroke="black" fill="green"/>
   </g>
   <g id="cell50">
  <circle cx="543.309" cy="563.212" r="8.38891" stroke-width="0.5" stroke="black" fill="cyan"/>
  <circle cx="543.309" cy="563.212" r="5.0434" stroke-width="0.5" stroke="black" fill="cyan"/>
   </g>
   <g id="cell51">
  <circle cx="547.259" cy="592.864" r="6.95901" stroke-width="0.5" stroke="black" fill="cyan"/>
  <circle cx="547.259" cy="592.864" r="4.21341" stroke-width="0.5" stroke="black" fill="cyan"/>
   </g>
   <g id="cell52">
  <circle cx="425.643" cy="463.19" r="6.91986" stroke-width="0.5" stroke="black" fill="cyan"/>
  <circle cx="425.643" cy="463.19" r="4.18922" stroke-width="0.5" stroke="black" fill="cyan"/>
   </g>
   <g id="cell53">
  <circle cx="543.505" cy="527.656" r="8.41271" stroke-width="0.5" stroke="black" fill="cyan"/>
  <circle cx="543.505" cy="527.656" r="5.05167" stroke-width="0.5" stroke="black" fill="cyan"/>
   </g>
   <g id="cell54">
  <circle cx="588.593" cy="394.506" r="8.41271" stroke-width="0.5" stroke="black" fill="cyan"/>
  <circle cx="588.593" cy="394.506" r="5.05167" stroke-width="0.5" stroke="black" fill="cyan"/>
   </g>
   <g id="cell55">
  <circle cx="524.604" cy="386.788" r="8.41271" stroke-width="0.5" stroke="black" fill="cyan"/>
  <circle cx="524.604" cy="386.788" r="5.05167" stroke-width="0.5" stroke="black" fill="cyan"/>
   </g>
   <g id="cell56">
  <circle cx="610.675" cy="476.342" r="8.41271" stroke-width="0.5" stroke="black" fill="cyan"/>
  <circle cx="610.675" cy="476.342" r="5.05167" stroke-width="0.5" stroke="black" fill="cyan"/>
   </g>
   <g id="cell57">
  <circle cx="533.231" cy="589.173" r="8.37714" stroke-width="0.5" stroke="black" fill="cyan"/>
  <circle cx="533.231" cy="589.173" r="5.0393" stroke-width="0.5" stroke="black" fill="cyan"/>
   </g>
   <g id="cell58">
  <circle cx="513.929" cy="457.672" r="7.9229" stroke-width="0.5" stroke="black" fill="cyan"/>
  <circle cx="513.929" cy="457.672" r="4.80599" stroke-width="0.5" stroke="black" fill="cyan"/>
   </g>
   <g id="cell59">
  <circle cx="517.965" cy="584.535" r="8.38206" stroke-width="0.5" stroke="black" fill="cyan"/>
  <circle cx="517.965" cy="584.535" r="5.04069" stroke-width="0.5" stroke="black" fill="cyan"/>
   </g>
   <g id="cell60">
  <circle cx="516.281" cy="427.742" r="8.31209" stroke-width="0.5" stroke="black" fill="cyan"/>
  <circle cx="516.281" cy="427.742" r="5.01002" stroke-width="0.5" stroke="black" fill="cyan"/>
   </g>
   <g id="cell61">
  <circle cx="643.562" cy="521.052" r="8.41271" stroke-width="0.5" stroke="black" fill="cyan"/>
  <circle cx="643.562" cy="521.052" r="5.05167" stroke-width="0.5" stroke="black" fill="cyan"/>
   </g>
   <g id="cell62">
  <circle cx="532.533" cy="362.003" r="8.41271" stroke-width="0.5" stroke="black" fill="cyan"/>
  <circle cx="532.533" cy="362.003" r="5.05167" stroke-width="0.5" stroke="black" fill="cyan"/>
   </g>
   <g id="cell63">
  <circle cx="575.933" cy="545.026" r="8.34117" stroke-width="0.5" stroke="black" fill="cyan"/>
  <circle cx="575.933" cy="545.026" r="5.02327" stroke-width="0.5" stroke="black" fill="cyan"/>
   </g>
   <g id="cell64">
  <circle cx="403.014" cy="601.349" r="8.41271" stroke-width="0.5" stroke="black" fill="cyan"/>
  <circle cx="403.014" cy="601.349" r="5.05167" stroke-width="0.5" stroke="black" fill="cyan"/>
   </g>
   <g id="cell65">
  <circle cx="510.583" cy="487.447" r="8.41271" stroke-width="0.5" stroke="black" fill="cyan"/>
  <circle cx="510.583" cy="487.447" r="5.05167" stroke-width="0.5" stroke="black" fill="cyan"/>
   </g>
   <g id="cell66">
  <circle cx="517.143" cy="472.844" r="8.41271" stroke-width="0.5" stroke="black" fill="cyan"/>
  <circle cx="517.143" cy="472.844" r="5.05167" stroke-width="0.5" stroke="black" fill="cyan"/>
   </g>
   <g id="cell67">
  <circle cx="434.074" cy="426.953" r="8.41271" stroke-width="0.5" stroke="black" fill="cyan"/>
  <circle cx="434.074" cy="426.953" r="5.05167" stroke-width="0.5" stroke="black" fill="cyan"/>
   </g>
   <g id="cell68">
  <circle cx="399.237" cy="490.752" r="8.41271" stroke-width="0.5" stroke="black" fill="cyan"/>
  <circle cx="399.237" cy="490.752" r="5.05167" stroke-width="0.5" stroke="black" fill="cyan"/>
   </g>
   <g id="cell69">
  <circle cx="604.736" cy="440.048" r="8.40403" stroke-width="0.5" stroke="black" fill="cyan"/>
  <circle cx="604.736" cy="440.048" r="5.04898" stroke-width="0.5" stroke="black" fill="cyan"/>
   </g>
   <g id="cell70">
  <circle cx="377.929" cy="439.797" r="8.41271" stroke-width="0.5" stroke="black" fill="cyan"/>
  <circle cx="377.929" cy="439.797" r="5.05167" stroke-width="0.5" stroke="black" fill="cyan"/>
   </g>
   <g id="cell71">
  <circle cx="402.217" cy="506.519" r="8.41271" stroke-width="0.5" stroke="black" fill="cyan"/>
  <circle cx="402.217" cy="506.519" r="5.05167" stroke-width="0.5" stroke="black" fill="cyan"/>
   </g>
   <g id="cell72">
  <circle cx="619.897" cy="435.703" r="8.41271" stroke-width="0.5" stroke="black" fill="cyan"/>
  <circle cx="619.897" cy="435.703" r="5.05167" stroke-width="0.5" stroke="black" fill="cyan"/>
   </g>
   <g id="cell73">
  <circle cx="419.507" cy="522.455" r="8.33026" stroke-width="0.5" stroke="black" fill="cyan"/>
  <circle cx="419.507" cy="522.455" r="5.01837" stroke-width="0.5" stroke="black" fill="cyan"/>
   </g>
   <g id="cell74">
  <circle cx="438.058" cy="484.014" r="8.41271" stroke-width="0.5" stroke="black" fill="cyan"/>
  <circle cx="438.058" cy="484.014" r="5.05167" stroke-width="0.5" stroke="black" fill="cyan"/>
   </g>
   <g id="cell75">
  <circle cx="466.705" cy="597.892" r="7.72294" stroke-width="0.5" stroke="black" fill="green"/>
  <circle cx="466.705" cy="597.892" r="4.70063" stroke-width="0.5" stroke="black" fill="green"/>
   </g>
   <g id="cell76">
  <circle cx="609.579" cy="423.23" r="8.40403" stroke-width="0.5" stroke="black" fill="cyan"/>
  <circle cx="609.579" cy="423.23" r="5.04898" stroke-width="0.5" stroke="black" fill="cyan"/>
   </g>
   <g id="cell77">
  <circle cx="460.067" cy="529.852" r="8.35404" stroke-width="0.5" stroke="black" fill="green"/>
  <circle cx="460.067" cy="529.852" r="5.0295" stroke-width="0.5" stroke="black" fill="green"/>
   </g>
   <g id="cell78">
  <circle cx="581.011" cy="408.023" r="7.99306" stroke-width="0.5" stroke="black" fill="green"/>
  <circle cx="581.011" cy="408.023" r="4.84874" stroke-width="0.5" stroke="black" fill="green"/>
   </g>
   <g id="cell79">
  <circle cx="414.589" cy="486.344" r="8.40215" stroke-width="0.5" stroke="black" fill="cyan"/>
  <circle cx="414.589" cy="486.344" r="5.04833" stroke-width="0.5" stroke="black" fill="cyan"/>
   </g>
   <g id="cell80">
  <circle cx="618.64" cy="511.946" r="8.40185" stroke-width="0.5" stroke="black" fill="magenta"/>
  <circle cx="618.64" cy="511.946" r="5.04822" stroke-width="0.5" stroke="black" fill="magenta"/>
   </g>
   <g id="cell81">
  <circle cx="438.335" cy="441.94" r="8.3937" stroke-width="0.5" stroke="black" fill="magenta"/>
  <circle cx="438.335" cy="441.94" r="5.04523" stroke-width="0.5" stroke="black" fill="magenta"/>
   </g>
   <g id="cell82">
  <circle cx="536.748" cy="604.722" r="8.39203" stroke-width="0.5" stroke="black" fill="cyan"/>
  <circle cx="536.748" cy="604.722" r="5.0446" stroke-width="0.5" stroke="black" fill="cyan"/>
   </g>
   <g id="cell83">
  <circle cx="481.723" cy="579.553" r="8.38891" stroke-width="0.5" stroke="black" fill="magenta"/>
  <circle cx="481.723" cy="579.553" r="5.0434" stroke-width="0.5" stroke="black" fill="magenta"/>
   </g>
   <g id="cell84">
  <circle cx="545.385" cy="578.754" r="8.31814" stroke-width="0.5" stroke="black" fill="cyan"/>
  <circle cx="545.385" cy="578.754" r="5.01414" stroke-width="0.5" stroke="black" fill="cyan"/>
   </g>
   <g id="cell85">
  <circle cx="530.391" cy="573.528" r="8.37714" stroke-width="0.5" stroke="black" fill="cyan"/>
  <circle cx="530.391" cy="573.528" r="5.0393" stroke-width="0.5" stroke="black" fill="cyan"/>
   </g>
   <g id="cell86">
  <circle cx="648.299" cy="506.212" r="8.38206" stroke-width="0.5" stroke="black" fill="magenta"/>
  <circle cx="648.299" cy="506.212" r="5.04069" stroke-width="0.5" stroke="black" fill="magenta"/>
   </g>
   <g id="cell87">
  <circle cx="570.893" cy="431.213" r="7.90274" stroke-width="0.5" stroke="black" fill="green"/>
  <circle cx="570.893" cy="431.213" r="4.79869" stroke-width="0.5" stroke="black" fill="green"/>
   </g>
   <g id="cell88">
  <circle cx="521.537" cy="600.06" r="8.38206" stroke-width="0.5" stroke="black" fill="cyan"/>
  <circle cx="521.537" cy="600.06" r="5.04069" stroke-width="0.5" stroke="black" fill="cyan"/>
   </g>
   <g id="cell89">
  <circle cx="562.463" cy="467.609" r="6.74372" stroke-width="0.5" stroke="black" fill="magenta"/>
  <circle cx="562.463" cy="467.609" r="4.07255" stroke-width="0.5" stroke="black" fill="magenta"/>
   </g>
   <g id="cell90">
  <circle cx="473.03" cy="538.982" r="8.35404" stroke-width="0.5" stroke="black" fill="green"/>
  <circle cx="473.03" cy="538.982" r="5.0295" stroke-width="0.5" stroke="black" fill="green"/>
   </g>
   <g id="cell91">
  <circle cx="418.944" cy="537.92" r="8.35727" stroke-width="0.5" stroke="black" fill="magenta"/>
  <circle cx="418.944" cy="537.92" r="5.03034" stroke-width="0.5" stroke="black" fill="magenta"/>
   </g>
   <g id="cell92">
  <circle cx="563.092" cy="536.167" r="8.1441" stroke-width="0.5" stroke="black" fill="cyan"/>
  <circle cx="563.092" cy="536.167" r="4.93079" stroke-width="0.5" stroke="black" fill="cyan"/>
   </g>
   <g id="cell93">
  <circle cx="427.337" cy="495.281" r="7.99027" stroke-width="0.5" stroke="black" fill="cyan"/>
  <circle cx="427.337" cy="495.281" r="4.84975" stroke-width="0.5" stroke="black" fill="cyan"/>
   </g>
   <g id="cell94">
  <circle cx="558.224" cy="569.74" r="8.31814" stroke-width="0.5" stroke="black" fill="cyan"/>
  <circle cx="558.224" cy="569.74" r="5.01414" stroke-width="0.5" stroke="black" fill="cyan"/>
   </g>
   <g id="cell95">
  <circle cx="589.868" cy="552.478" r="8.32543" stroke-width="0.5" stroke="black" fill="green"/>
  <circle cx="589.868" cy="552.478" r="5.01617" stroke-width="0.5" stroke="black" fill="green"/>
   </g>
   <g id="cell96">
  <circle cx="466.815" cy="582.983" r="8.15174" stroke-width="0.5" stroke="black" fill="green"/>
  <circle cx="466.815" cy="582.983" r="4.93567" stroke-width="0.5" stroke="black" fill="green"/>
   </g>
   <g id="cell97">
  <circle cx="623.633" cy="497.788" r="8.30468" stroke-width="0.5" stroke="black" fill="magenta"/>
  <circle cx="623.633" cy="497.788" r="5.00821" stroke-width="0.5" stroke="black" fill="magenta"/>
   </g>
   <g id="cell98">
  <circle cx="392.49" cy="579.247" r="8.31766" stroke-width="0.5" stroke="black" fill="magenta"/>
  <circle cx="392.49" cy="579.247" r="5.0126" stroke-width="0.5" stroke="black" fill="magenta"/>
   </g>
   <g id="cell99">
  <circle cx="528.561" cy="438.162" r="8.31209" stroke-width="0.5" stroke="black" fill="cyan"/>
  <circle cx="528.561" cy="438.162" r="5.01002" stroke-width="0.5" stroke="black" fill="cyan"/>
   </g>
   <g id="cell100">
  <circle cx="470.976" cy="568.055" r="8.31209" stroke-width="0.5" stroke="black" fill="green"/>
  <circle cx="470.976" cy="568.055" r="5.01002" stroke-width="0.5" stroke="black" fill="green"/>
   </g>
   <g id="cell101">
  <circle cx="609.265" cy="593.956" r="8.10854" stroke-width="0.5" stroke="black" fill="green"/>
  <circle cx="609.265" cy="593.956" r="4.91396" stroke-width="0.5" stroke="black" fill="green"/>
   </g>
   <g id="cell102">
  <circle cx="407.568" cy="563.935" r="8.28629" stroke-width="0.5" stroke="black" fill="magenta"/>
  <circle cx="407.568" cy="563.935" r="4.99786" stroke-width="0.5" stroke="black" fill="magenta"/>
   </g>
   <g id="cell103">
  <circle cx="539.281" cy="391.603" r="8.21839" stroke-width="0.5" stroke="black" fill="magenta"/>
  <circle cx="539.281" cy="391.603" r="4.96448" stroke-width="0.5" stroke="black" fill="magenta"/>
   </g>
   <g id="cell104">
  <circle cx="494.693" cy="587.158" r="8.1944" stroke-width="0.5" stroke="black" fill="magenta"/>
  <circle cx="494.693" cy="587.158" r="4.95428" stroke-width="0.5" stroke="black" fill="magenta"/>
   </g>
   <g id="cell105">
  <circle cx="451.695" cy="579.741" r="8.15174" stroke-width="0.5" stroke="black" fill="green"/>
  <circle cx="451.695" cy="579.741" r="4.93567" stroke-width="0.5" stroke="black" fill="green"/>
   </g>
   <g id="cell106">
  <circle cx="557.614" cy="522.422" r="7.49844" stroke-width="0.5" stroke="black" fill="cyan"/>
  <circle cx="557.614" cy="522.422" r="4.58054" stroke-width="0.5" stroke="black" fill="cyan"/>
   </g>
   <g id="cell107">
  <circle cx="594.28" cy="597.671" r="8.10854" stroke-width="0.5" stroke="black" fill="green"/>
  <circle cx="594.28" cy="597.671" r="4.91396" stroke-width="0.5" stroke="black" fill="green"/>
   </g>
   <g id="cell108">
  <circle cx="524.948" cy="415.388" r="8.02714" stroke-width="0.5" stroke="black" fill="magenta"/>
  <circle cx="524.948" cy="415.388" r="4.87262" stroke-width="0.5" stroke="black" fill="magenta"/>
   </g>
   <g id="cell109">
  <circle cx="417.808" cy="507.048" r="7.99027" stroke-width="0.5" stroke="black" fill="cyan"/>
  <circle cx="417.808" cy="507.048" r="4.84975" stroke-width="0.5" stroke="black" fill="cyan"/>
   </g>
   <g id="cell110">
  <circle cx="504.46" cy="611.101" r="8.03527" stroke-width="0.5" stroke="black" fill="green"/>
  <circle cx="504.46" cy="611.101" r="4.86813" stroke-width="0.5" stroke="black" fill="green"/>
   </g>
   <g id="cell111">
  <circle cx="570.503" cy="417.31" r="6.92946" stroke-width="0.5" stroke="black" fill="green"/>
  <circle cx="570.503" cy="417.31" r="4.24182" stroke-width="0.5" stroke="black" fill="green"/>
   </g>
   <g id="cell112">
  <circle cx="500.188" cy="452.167" r="7.9229" stroke-width="0.5" stroke="black" fill="cyan"/>
  <circle cx="500.188" cy="452.167" r="4.80599" stroke-width="0.5" stroke="black" fill="cyan"/>
   </g>
   <g id="cell113">
  <circle cx="584.266" cy="437.494" r="7.90274" stroke-width="0.5" stroke="black" fill="green"/>
  <circle cx="584.266" cy="437.494" r="4.79869" stroke-width="0.5" stroke="black" fill="green"/>
   </g>
   <g id="cell114">
  <circle cx="582.94" cy="422.665" r="7.9229" stroke-width="0.5" stroke="black" fill="magenta"/>
  <circle cx="582.94" cy="422.665" r="4.80599" stroke-width="0.5" stroke="black" fill="magenta"/>
   </g>
   <g id="cell115">
  <circle cx="597.106" cy="611.222" r="6.49583" stroke-width="0.5" stroke="black" fill="green"/>
  <circle cx="597.106" cy="611.222" r="3.97652" stroke-width="0.5" stroke="black" fill="green"/>
   </g>
   <g id="cell116">
  <circle cx="452.62" cy="594.765" r="7.72294" stroke-width="0.5" stroke="black" fill="green"/>
  <circle cx="452.62" cy="594.765" r="4.70063" stroke-width="0.5" stroke="black" fill="green"/>
   </g>
   <g id="cell117">
  <circle cx="504.596" cy="626.287" r="7.541" stroke-width="0.5" stroke="black" fill="green"/>
  <circle cx="504.596" cy="626.287" r="4.60591" stroke-width="0.5" stroke="black" fill="green"/>
   </g>
   <g id="cell118">
  <circle cx="500.943" cy="423.208" r="7.65871" stroke-width="0.5" stroke="black" fill="magenta"/>
  <circle cx="500.943" cy="423.208" r="4.6537" stroke-width="0.5" stroke="black" fill="magenta"/>
   </g>
   <g id="cell119">
  <circle cx="568.818" cy="513.755" r="7.49844" stroke-width="0.5" stroke="black" fill="cyan"/>
  <circle cx="568.818" cy="513.755" r="4.58054" stroke-width="0.5" stroke="black" fill="cyan"/>
   </g>
   <g id="cell120">
  <circle cx="484.876" cy="547.689" r="7.54436" stroke-width="0.5" stroke="black" fill="magenta"/>
  <circle cx="484.876" cy="547.689" r="4.58555" stroke-width="0.5" stroke="black" fill="magenta"/>
   </g>
   <g id="cell121">
  <circle cx="523.44" cy="540.813" r="7.41548" stroke-width="0.5" stroke="black" fill="green"/>
  <circle cx="523.44" cy="540.813" r="4.50723" stroke-width="0.5" stroke="black" fill="green"/>
   </g>
   <g id="cell122">
  <circle cx="559.177" cy="411.112" r="6.92946" stroke-width="0.5" stroke="black" fill="green"/>
  <circle cx="559.177" cy="411.112" r="4.24182" stroke-width="0.5" stroke="black" fill="green"/>
   </g>
   <g id="cell123">
  <circle cx="551.25" cy="605.21" r="6.95901" stroke-width="0.5" stroke="black" fill="cyan"/>
  <circle cx="551.25" cy="605.21" r="4.21341" stroke-width="0.5" stroke="black" fill="cyan"/>
   </g>
   <g id="cell124">
  <circle cx="411.93" cy="471.703" r="5.51547" stroke-width="0.5" stroke="black" fill="cyan"/>
  <circle cx="411.93" cy="471.703" r="3.34094" stroke-width="0.5" stroke="black" fill="cyan"/>
   </g>
   <g id="cell125">
  <circle cx="608.817" cy="607.767" r="6.49583" stroke-width="0.5" stroke="black" fill="green"/>
  <circle cx="608.817" cy="607.767" r="3.97652" stroke-width="0.5" stroke="black" fill="green"/>
   </g>
   <g id="cell126">
  <circle cx="553.265" cy="459.756" r="6.74372" stroke-width="0.5" stroke="black" fill="magenta"/>
  <circle cx="553.265" cy="459.756" r="4.07255" stroke-width="0.5" stroke="black" fill="magenta"/>
   </g>
   <g id="cell127">
  <circle cx="421.928" cy="474.301" r="5.51547" stroke-width="0.5" stroke="black" fill="cyan"/>
  <circle cx="421.928" cy="474.301" r="3.34094" stroke-width="0.5" stroke="black" fill="cyan"/>
   </g>
  </g>
 </g>
  <rect x="775" y="1035" width="200" height="10" stroke-width="2" stroke="rgb(255,255,255)" fill="rgb(0,0,0)"/>
  <text x="781.25" y="1028.75"
   font-family="Arial" font-size="25" fill="black" >
   200 &#956;m
  </text>
  <text x="25" y="1045"
   font-family="Arial" font-size="18.75" fill="black" >
   0 days, 0 hours, 0 minutes, and 22.4857 seconds
  </text>
  <rect x="0" y="70" width="1000" height="1000" stroke-width="2" stroke="rgb(0,0,0)" fill="none"/>
</svg>
