<?xml version="1.0" encoding="UTF-8" standalone="no"?>
<!-- Created with PhysiCell (http://PhysiCell.MathCancer.org/) -->
<svg 
 xmlns:dc="http://purl.org/dc/elements/1.1/" 
 xmlns:cc="http://creativecommons.org/ns#" 
 xmlns:rdf="http://www.w3.org/1999/02/22-rdf-syntax-ns#" 
 xmlns:svg="http://www.w3.org/2000/svg" 
 xmlns="http://www.w3.org/2000/svg" 
 version="1.1" 
 width="1000" 
 height="1070" 
 id="svg2">
  <rect x="0" y="0" width="1000" height="1070" stroke-width="2" stroke="white" fill="white"/>
  <text x="12.5" y="30"
   font-family="Arial" font-size="25" fill="black" >
   Current time: 1 days, 15 hours, and 30.00 minutes, z = 0.00 &#956;m
  </text>
  <text x="12.5" y="57.5"
   font-family="Arial" font-size="23.75" fill="black" >
   214 agents
  </text>
 <g id="tissue" 
    transform="translate(0,1070) scale(1,-1)">
  <g id="ECM">
  </g>
  <g id="cells">
   <g id="cell0">
  <circle cx="505.132" cy="547.707" r="8.41263" stroke-width="0.5" stroke="black" fill="magenta"/>
  <circle cx="505.132" cy="547.707" r="5.05165" stroke-width="0.5" stroke="black" fill="magenta"/>
   </g>
   <g id="cell1">
  <circle cx="614.219" cy="540.213" r="8.32282" stroke-width="0.5" stroke="black" fill="magenta"/>
  <circle cx="614.219" cy="540.213" r="5.0154" stroke-width="0.5" stroke="black" fill="magenta"/>
   </g>
   <g id="cell2">
  <circle cx="508.812" cy="601.95" r="8.41094" stroke-width="0.5" stroke="black" fill="magenta"/>
  <circle cx="508.812" cy="601.95" r="5.05121" stroke-width="0.5" stroke="black" fill="magenta"/>
   </g>
   <g id="cell3">
  <circle cx="518.554" cy="543.156" r="7.59183" stroke-width="0.5" stroke="black" fill="magenta"/>
  <circle cx="518.554" cy="543.156" r="4.61399" stroke-width="0.5" stroke="black" fill="magenta"/>
   </g>
   <g id="cell4">
  <circle cx="473.756" cy="437.571" r="8.41271" stroke-width="0.5" stroke="black" fill="magenta"/>
  <circle cx="473.756" cy="437.571" r="5.05167" stroke-width="0.5" stroke="black" fill="magenta"/>
   </g>
   <g id="cell5">
  <circle cx="455.028" cy="493.444" r="8.41028" stroke-width="0.5" stroke="black" fill="magenta"/>
  <circle cx="455.028" cy="493.444" r="5.05101" stroke-width="0.5" stroke="black" fill="magenta"/>
   </g>
   <g id="cell6">
  <circle cx="580.371" cy="520.11" r="8.41049" stroke-width="0.5" stroke="black" fill="magenta"/>
  <circle cx="580.371" cy="520.11" r="5.05108" stroke-width="0.5" stroke="black" fill="magenta"/>
   </g>
   <g id="cell7">
  <circle cx="498.546" cy="456.847" r="8.40107" stroke-width="0.5" stroke="black" fill="magenta"/>
  <circle cx="498.546" cy="456.847" r="5.0481" stroke-width="0.5" stroke="black" fill="magenta"/>
   </g>
   <g id="cell8">
  <circle cx="387.107" cy="538.759" r="8.41116" stroke-width="0.5" stroke="black" fill="magenta"/>
  <circle cx="387.107" cy="538.759" r="5.05127" stroke-width="0.5" stroke="black" fill="magenta"/>
   </g>
   <g id="cell9">
  <circle cx="460.38" cy="596.915" r="8.39203" stroke-width="0.5" stroke="black" fill="magenta"/>
  <circle cx="460.38" cy="596.915" r="5.0446" stroke-width="0.5" stroke="black" fill="magenta"/>
   </g>
   <g id="cell10">
  <circle cx="575.152" cy="392.252" r="8.38454" stroke-width="0.5" stroke="black" fill="magenta"/>
  <circle cx="575.152" cy="392.252" r="5.04168" stroke-width="0.5" stroke="black" fill="magenta"/>
   </g>
   <g id="cell11">
  <circle cx="589.663" cy="590.284" r="8.41271" stroke-width="0.5" stroke="black" fill="magenta"/>
  <circle cx="589.663" cy="590.284" r="5.05167" stroke-width="0.5" stroke="black" fill="magenta"/>
   </g>
   <g id="cell12">
  <circle cx="498.438" cy="591.824" r="7.65709" stroke-width="0.5" stroke="black" fill="magenta"/>
  <circle cx="498.438" cy="591.824" r="4.65323" stroke-width="0.5" stroke="black" fill="magenta"/>
   </g>
   <g id="cell13">
  <circle cx="380.114" cy="564.309" r="8.41271" stroke-width="0.5" stroke="black" fill="magenta"/>
  <circle cx="380.114" cy="564.309" r="5.05167" stroke-width="0.5" stroke="black" fill="magenta"/>
   </g>
   <g id="cell14">
  <circle cx="532.576" cy="401.645" r="7.38797" stroke-width="0.5" stroke="black" fill="magenta"/>
  <circle cx="532.576" cy="401.645" r="4.49029" stroke-width="0.5" stroke="black" fill="magenta"/>
   </g>
   <g id="cell15">
  <circle cx="396.925" cy="476.951" r="7.64476" stroke-width="0.5" stroke="black" fill="magenta"/>
  <circle cx="396.925" cy="476.951" r="4.64864" stroke-width="0.5" stroke="black" fill="magenta"/>
   </g>
   <g id="cell16">
  <circle cx="426.906" cy="412.444" r="8.347" stroke-width="0.5" stroke="black" fill="magenta"/>
  <circle cx="426.906" cy="412.444" r="5.02586" stroke-width="0.5" stroke="black" fill="magenta"/>
   </g>
   <g id="cell17">
  <circle cx="599.598" cy="502.13" r="8.40573" stroke-width="0.5" stroke="black" fill="magenta"/>
  <circle cx="599.598" cy="502.13" r="5.04958" stroke-width="0.5" stroke="black" fill="magenta"/>
   </g>
   <g id="cell18">
  <circle cx="516.792" cy="380.872" r="7.0437" stroke-width="0.5" stroke="black" fill="magenta"/>
  <circle cx="516.792" cy="380.872" r="4.27395" stroke-width="0.5" stroke="black" fill="magenta"/>
   </g>
   <g id="cell19">
  <circle cx="445.232" cy="536.06" r="7.57442" stroke-width="0.5" stroke="black" fill="magenta"/>
  <circle cx="445.232" cy="536.06" r="4.61426" stroke-width="0.5" stroke="black" fill="magenta"/>
   </g>
   <g id="cell20">
  <circle cx="520.714" cy="408.727" r="8.1947" stroke-width="0.5" stroke="black" fill="magenta"/>
  <circle cx="520.714" cy="408.727" r="4.95246" stroke-width="0.5" stroke="black" fill="magenta"/>
   </g>
   <g id="cell21">
  <circle cx="464.454" cy="634.485" r="8.41271" stroke-width="0.5" stroke="black" fill="magenta"/>
  <circle cx="464.454" cy="634.485" r="5.05167" stroke-width="0.5" stroke="black" fill="magenta"/>
   </g>
   <g id="cell22">
  <circle cx="559.865" cy="499.412" r="8.41267" stroke-width="0.5" stroke="black" fill="magenta"/>
  <circle cx="559.865" cy="499.412" r="5.05166" stroke-width="0.5" stroke="black" fill="magenta"/>
   </g>
   <g id="cell23">
  <circle cx="520.844" cy="489.743" r="8.41271" stroke-width="0.5" stroke="black" fill="magenta"/>
  <circle cx="520.844" cy="489.743" r="5.05167" stroke-width="0.5" stroke="black" fill="magenta"/>
   </g>
   <g id="cell24">
  <circle cx="561.433" cy="385.982" r="8.41271" stroke-width="0.5" stroke="black" fill="magenta"/>
  <circle cx="561.433" cy="385.982" r="5.05167" stroke-width="0.5" stroke="black" fill="magenta"/>
   </g>
   <g id="cell25">
  <circle cx="640.943" cy="550.03" r="8.41271" stroke-width="0.5" stroke="black" fill="green"/>
  <circle cx="640.943" cy="550.03" r="5.05167" stroke-width="0.5" stroke="black" fill="green"/>
   </g>
   <g id="cell26">
  <circle cx="548.151" cy="394.182" r="8.41249" stroke-width="0.5" stroke="black" fill="green"/>
  <circle cx="548.151" cy="394.182" r="5.05162" stroke-width="0.5" stroke="black" fill="green"/>
   </g>
   <g id="cell27">
  <circle cx="455.064" cy="380.281" r="8.4093" stroke-width="0.5" stroke="black" fill="green"/>
  <circle cx="455.064" cy="380.281" r="5.05074" stroke-width="0.5" stroke="black" fill="green"/>
   </g>
   <g id="cell28">
  <circle cx="433.341" cy="527.353" r="8.41271" stroke-width="0.5" stroke="black" fill="green"/>
  <circle cx="433.341" cy="527.353" r="5.05167" stroke-width="0.5" stroke="black" fill="green"/>
   </g>
   <g id="cell29">
  <circle cx="449.348" cy="521.933" r="8.41271" stroke-width="0.5" stroke="black" fill="green"/>
  <circle cx="449.348" cy="521.933" r="5.05167" stroke-width="0.5" stroke="black" fill="green"/>
   </g>
   <g id="cell127">
  <circle cx="394.848" cy="567.502" r="8.13888" stroke-width="0.5" stroke="black" fill="magenta"/>
  <circle cx="394.848" cy="567.502" r="4.92693" stroke-width="0.5" stroke="black" fill="magenta"/>
   </g>
   <g id="cell31">
  <circle cx="402.388" cy="541.426" r="8.32291" stroke-width="0.5" stroke="black" fill="green"/>
  <circle cx="402.388" cy="541.426" r="5.01502" stroke-width="0.5" stroke="black" fill="green"/>
   </g>
   <g id="cell122">
  <circle cx="574.441" cy="495.284" r="8.40331" stroke-width="0.5" stroke="black" fill="magenta"/>
  <circle cx="574.441" cy="495.284" r="5.04887" stroke-width="0.5" stroke="black" fill="magenta"/>
   </g>
   <g id="cell33">
  <circle cx="490.116" cy="415.461" r="8.41078" stroke-width="0.5" stroke="black" fill="green"/>
  <circle cx="490.116" cy="415.461" r="5.05116" stroke-width="0.5" stroke="black" fill="green"/>
   </g>
   <g id="cell34">
  <circle cx="407.317" cy="456.701" r="7.71974" stroke-width="0.5" stroke="black" fill="green"/>
  <circle cx="407.317" cy="456.701" r="4.6898" stroke-width="0.5" stroke="black" fill="green"/>
   </g>
   <g id="cell35">
  <circle cx="556.262" cy="553.94" r="8.41267" stroke-width="0.5" stroke="black" fill="green"/>
  <circle cx="556.262" cy="553.94" r="5.05166" stroke-width="0.5" stroke="black" fill="green"/>
   </g>
   <g id="cell36">
  <circle cx="384.782" cy="579.229" r="8.41271" stroke-width="0.5" stroke="black" fill="green"/>
  <circle cx="384.782" cy="579.229" r="5.05167" stroke-width="0.5" stroke="black" fill="green"/>
   </g>
   <g id="cell37">
  <circle cx="631.098" cy="454.156" r="8.41257" stroke-width="0.5" stroke="black" fill="green"/>
  <circle cx="631.098" cy="454.156" r="5.05164" stroke-width="0.5" stroke="black" fill="green"/>
   </g>
   <g id="cell38">
  <circle cx="542.233" cy="599.326" r="7.1413" stroke-width="0.5" stroke="black" fill="green"/>
  <circle cx="542.233" cy="599.326" r="4.33713" stroke-width="0.5" stroke="black" fill="green"/>
   </g>
   <g id="cell39">
  <circle cx="613.421" cy="498.143" r="7.21127" stroke-width="0.5" stroke="black" fill="green"/>
  <circle cx="613.421" cy="498.143" r="4.37976" stroke-width="0.5" stroke="black" fill="green"/>
   </g>
   <g id="cell40">
  <circle cx="471.29" cy="579.453" r="8.35724" stroke-width="0.5" stroke="black" fill="green"/>
  <circle cx="471.29" cy="579.453" r="5.03033" stroke-width="0.5" stroke="black" fill="green"/>
   </g>
   <g id="cell41">
  <circle cx="376.566" cy="486.587" r="8.41258" stroke-width="0.5" stroke="black" fill="green"/>
  <circle cx="376.566" cy="486.587" r="5.05164" stroke-width="0.5" stroke="black" fill="green"/>
   </g>
   <g id="cell42">
  <circle cx="439.587" cy="495.963" r="8.41271" stroke-width="0.5" stroke="black" fill="green"/>
  <circle cx="439.587" cy="495.963" r="5.05167" stroke-width="0.5" stroke="black" fill="green"/>
   </g>
   <g id="cell43">
  <circle cx="562.143" cy="418.513" r="8.41265" stroke-width="0.5" stroke="black" fill="green"/>
  <circle cx="562.143" cy="418.513" r="5.05166" stroke-width="0.5" stroke="black" fill="green"/>
   </g>
   <g id="cell44">
  <circle cx="475.254" cy="623.227" r="8.41271" stroke-width="0.5" stroke="black" fill="green"/>
  <circle cx="475.254" cy="623.227" r="5.05167" stroke-width="0.5" stroke="black" fill="green"/>
   </g>
   <g id="cell45">
  <circle cx="419.596" cy="557.86" r="8.41271" stroke-width="0.5" stroke="black" fill="green"/>
  <circle cx="419.596" cy="557.86" r="5.05167" stroke-width="0.5" stroke="black" fill="green"/>
   </g>
   <g id="cell46">
  <circle cx="521.988" cy="610.99" r="8.41271" stroke-width="0.5" stroke="black" fill="green"/>
  <circle cx="521.988" cy="610.99" r="5.05167" stroke-width="0.5" stroke="black" fill="green"/>
   </g>
   <g id="cell47">
  <circle cx="506.341" cy="495.959" r="8.41266" stroke-width="0.5" stroke="black" fill="green"/>
  <circle cx="506.341" cy="495.959" r="5.05166" stroke-width="0.5" stroke="black" fill="green"/>
   </g>
   <g id="cell48">
  <circle cx="570.142" cy="592.343" r="7.02257" stroke-width="0.5" stroke="black" fill="green"/>
  <circle cx="570.142" cy="592.343" r="4.25644" stroke-width="0.5" stroke="black" fill="green"/>
   </g>
   <g id="cell49">
  <circle cx="429.982" cy="397.229" r="8.41271" stroke-width="0.5" stroke="black" fill="green"/>
  <circle cx="429.982" cy="397.229" r="5.05167" stroke-width="0.5" stroke="black" fill="green"/>
   </g>
   <g id="cell50">
  <circle cx="519.405" cy="505.177" r="8.41271" stroke-width="0.5" stroke="black" fill="cyan"/>
  <circle cx="519.405" cy="505.177" r="5.05167" stroke-width="0.5" stroke="black" fill="cyan"/>
   </g>
   <g id="cell51">
  <circle cx="391.221" cy="594.031" r="8.41271" stroke-width="0.5" stroke="black" fill="cyan"/>
  <circle cx="391.221" cy="594.031" r="5.05167" stroke-width="0.5" stroke="black" fill="cyan"/>
   </g>
   <g id="cell108">
  <circle cx="336.1" cy="545.045" r="1.26655" stroke-width="0.5" stroke="black" fill="cyan"/>
  <circle cx="336.1" cy="545.045" r="1.25999" stroke-width="0.5" stroke="black" fill="black"/>
   </g>
   <g id="cell53">
  <circle cx="584.63" cy="436.419" r="8.32543" stroke-width="0.5" stroke="black" fill="cyan"/>
  <circle cx="584.63" cy="436.419" r="5.01617" stroke-width="0.5" stroke="black" fill="cyan"/>
   </g>
   <g id="cell54">
  <circle cx="475.341" cy="421.82" r="8.41271" stroke-width="0.5" stroke="black" fill="cyan"/>
  <circle cx="475.341" cy="421.82" r="5.05167" stroke-width="0.5" stroke="black" fill="cyan"/>
   </g>
   <g id="cell55">
  <circle cx="523.247" cy="474.225" r="8.4118" stroke-width="0.5" stroke="black" fill="cyan"/>
  <circle cx="523.247" cy="474.225" r="5.05145" stroke-width="0.5" stroke="black" fill="cyan"/>
   </g>
   <g id="cell56">
  <circle cx="620.029" cy="525.527" r="8.41271" stroke-width="0.5" stroke="black" fill="cyan"/>
  <circle cx="620.029" cy="525.527" r="5.05167" stroke-width="0.5" stroke="black" fill="cyan"/>
   </g>
   <g id="cell57">
  <circle cx="416.924" cy="617.466" r="8.41271" stroke-width="0.5" stroke="black" fill="cyan"/>
  <circle cx="416.924" cy="617.466" r="5.05167" stroke-width="0.5" stroke="black" fill="cyan"/>
   </g>
   <g id="cell58">
  <circle cx="540.238" cy="470.043" r="8.41271" stroke-width="0.5" stroke="black" fill="cyan"/>
  <circle cx="540.238" cy="470.043" r="5.05167" stroke-width="0.5" stroke="black" fill="cyan"/>
   </g>
   <g id="cell59">
  <circle cx="394.502" cy="419.678" r="8.29738" stroke-width="0.5" stroke="black" fill="cyan"/>
  <circle cx="394.502" cy="419.678" r="5.00358" stroke-width="0.5" stroke="black" fill="cyan"/>
   </g>
   <g id="cell60">
  <circle cx="609.887" cy="471.923" r="8.34791" stroke-width="0.5" stroke="black" fill="cyan"/>
  <circle cx="609.887" cy="471.923" r="5.02717" stroke-width="0.5" stroke="black" fill="cyan"/>
   </g>
   <g id="cell61">
  <circle cx="565.835" cy="619.027" r="8.347" stroke-width="0.5" stroke="black" fill="cyan"/>
  <circle cx="565.835" cy="619.027" r="5.02586" stroke-width="0.5" stroke="black" fill="cyan"/>
   </g>
   <g id="cell62">
  <circle cx="514.197" cy="435.891" r="8.36937" stroke-width="0.5" stroke="black" fill="cyan"/>
  <circle cx="514.197" cy="435.891" r="5.0361" stroke-width="0.5" stroke="black" fill="cyan"/>
   </g>
   <g id="cell63">
  <circle cx="606.403" cy="556.845" r="8.41228" stroke-width="0.5" stroke="black" fill="cyan"/>
  <circle cx="606.403" cy="556.845" r="5.05157" stroke-width="0.5" stroke="black" fill="cyan"/>
   </g>
   <g id="cell64">
  <circle cx="509.009" cy="635.6" r="8.41271" stroke-width="0.5" stroke="black" fill="cyan"/>
  <circle cx="509.009" cy="635.6" r="5.05167" stroke-width="0.5" stroke="black" fill="cyan"/>
   </g>
   <g id="cell65">
  <circle cx="529.109" cy="459.169" r="8.41271" stroke-width="0.5" stroke="black" fill="cyan"/>
  <circle cx="529.109" cy="459.169" r="5.05167" stroke-width="0.5" stroke="black" fill="cyan"/>
   </g>
   <g id="cell66">
  <circle cx="553.424" cy="534.997" r="8.41258" stroke-width="0.5" stroke="black" fill="cyan"/>
  <circle cx="553.424" cy="534.997" r="5.05164" stroke-width="0.5" stroke="black" fill="cyan"/>
   </g>
   <g id="cell67">
  <circle cx="365.073" cy="496.843" r="7.81095" stroke-width="0.5" stroke="black" fill="cyan"/>
  <circle cx="365.073" cy="496.843" r="4.74626" stroke-width="0.5" stroke="black" fill="cyan"/>
   </g>
   <g id="cell68">
  <circle cx="564.473" cy="571.797" r="8.32032" stroke-width="0.5" stroke="black" fill="cyan"/>
  <circle cx="564.473" cy="571.797" r="5.01383" stroke-width="0.5" stroke="black" fill="cyan"/>
   </g>
   <g id="cell215">
  <circle cx="534.105" cy="589.273" r="7.1413" stroke-width="0.5" stroke="black" fill="green"/>
  <circle cx="534.105" cy="589.273" r="4.33713" stroke-width="0.5" stroke="black" fill="green"/>
   </g>
   <g id="cell70">
  <circle cx="592.684" cy="475.802" r="8.41239" stroke-width="0.5" stroke="black" fill="cyan"/>
  <circle cx="592.684" cy="475.802" r="5.0516" stroke-width="0.5" stroke="black" fill="cyan"/>
   </g>
   <g id="cell71">
  <circle cx="372.008" cy="510.823" r="8.41234" stroke-width="0.5" stroke="black" fill="cyan"/>
  <circle cx="372.008" cy="510.823" r="5.05159" stroke-width="0.5" stroke="black" fill="cyan"/>
   </g>
   <g id="cell72">
  <circle cx="548.131" cy="520.82" r="7.86284" stroke-width="0.5" stroke="black" fill="cyan"/>
  <circle cx="548.131" cy="520.82" r="4.77207" stroke-width="0.5" stroke="black" fill="cyan"/>
   </g>
   <g id="cell73">
  <circle cx="347.012" cy="555.871" r="8.41184" stroke-width="0.5" stroke="black" fill="cyan"/>
  <circle cx="347.012" cy="555.871" r="5.05146" stroke-width="0.5" stroke="black" fill="cyan"/>
   </g>
   <g id="cell74">
  <circle cx="537.232" cy="429.99" r="8.39571" stroke-width="0.5" stroke="black" fill="cyan"/>
  <circle cx="537.232" cy="429.99" r="5.04599" stroke-width="0.5" stroke="black" fill="cyan"/>
   </g>
   <g id="cell75">
  <circle cx="533.514" cy="499.145" r="8.41268" stroke-width="0.5" stroke="black" fill="cyan"/>
  <circle cx="533.514" cy="499.145" r="5.05166" stroke-width="0.5" stroke="black" fill="cyan"/>
   </g>
   <g id="cell195">
  <circle cx="497.204" cy="471.567" r="7.95678" stroke-width="0.5" stroke="black" fill="magenta"/>
  <circle cx="497.204" cy="471.567" r="4.83221" stroke-width="0.5" stroke="black" fill="magenta"/>
   </g>
   <g id="cell77">
  <circle cx="546.587" cy="506.491" r="8.40882" stroke-width="0.5" stroke="black" fill="magenta"/>
  <circle cx="546.587" cy="506.491" r="5.05057" stroke-width="0.5" stroke="black" fill="magenta"/>
   </g>
   <g id="cell78">
  <circle cx="343.825" cy="485.692" r="8.41267" stroke-width="0.5" stroke="black" fill="cyan"/>
  <circle cx="343.825" cy="485.692" r="5.05166" stroke-width="0.5" stroke="black" fill="cyan"/>
   </g>
   <g id="cell79">
  <circle cx="491.292" cy="500.531" r="8.08363" stroke-width="0.5" stroke="black" fill="green"/>
  <circle cx="491.292" cy="500.531" r="4.89644" stroke-width="0.5" stroke="black" fill="green"/>
   </g>
   <g id="cell80">
  <circle cx="465.838" cy="482.809" r="8.41266" stroke-width="0.5" stroke="black" fill="magenta"/>
  <circle cx="465.838" cy="482.809" r="5.05166" stroke-width="0.5" stroke="black" fill="magenta"/>
   </g>
   <g id="cell81">
  <circle cx="476.513" cy="556.54" r="8.41266" stroke-width="0.5" stroke="black" fill="green"/>
  <circle cx="476.513" cy="556.54" r="5.05166" stroke-width="0.5" stroke="black" fill="green"/>
   </g>
   <g id="cell82">
  <circle cx="565.441" cy="524.579" r="8.39839" stroke-width="0.5" stroke="black" fill="cyan"/>
  <circle cx="565.441" cy="524.579" r="5.04702" stroke-width="0.5" stroke="black" fill="cyan"/>
   </g>
   <g id="cell83">
  <circle cx="574.201" cy="446.072" r="6.99038" stroke-width="0.5" stroke="black" fill="green"/>
  <circle cx="574.201" cy="446.072" r="4.2349" stroke-width="0.5" stroke="black" fill="green"/>
   </g>
   <g id="cell84">
  <circle cx="508.638" cy="533.04" r="8.38521" stroke-width="0.5" stroke="black" fill="magenta"/>
  <circle cx="508.638" cy="533.04" r="5.04219" stroke-width="0.5" stroke="black" fill="magenta"/>
   </g>
   <g id="cell85">
  <circle cx="375.945" cy="549.569" r="8.41263" stroke-width="0.5" stroke="black" fill="magenta"/>
  <circle cx="375.945" cy="549.569" r="5.05165" stroke-width="0.5" stroke="black" fill="magenta"/>
   </g>
   <g id="cell86">
  <circle cx="604.055" cy="486.879" r="8.41262" stroke-width="0.5" stroke="black" fill="green"/>
  <circle cx="604.055" cy="486.879" r="5.05165" stroke-width="0.5" stroke="black" fill="green"/>
   </g>
   <g id="cell87">
  <circle cx="360.487" cy="546.935" r="8.41261" stroke-width="0.5" stroke="black" fill="cyan"/>
  <circle cx="360.487" cy="546.935" r="5.05165" stroke-width="0.5" stroke="black" fill="cyan"/>
   </g>
   <g id="cell88">
  <circle cx="542.535" cy="546.331" r="8.38367" stroke-width="0.5" stroke="black" fill="cyan"/>
  <circle cx="542.535" cy="546.331" r="5.04134" stroke-width="0.5" stroke="black" fill="cyan"/>
   </g>
   <g id="cell89">
  <circle cx="356.84" cy="466.427" r="8.41226" stroke-width="0.5" stroke="black" fill="green"/>
  <circle cx="356.84" cy="466.427" r="5.05157" stroke-width="0.5" stroke="black" fill="green"/>
   </g>
   <g id="cell90">
  <circle cx="641.564" cy="466.226" r="8.41257" stroke-width="0.5" stroke="black" fill="green"/>
  <circle cx="641.564" cy="466.226" r="5.05164" stroke-width="0.5" stroke="black" fill="green"/>
   </g>
   <g id="cell91">
  <circle cx="382.648" cy="523.662" r="8.4123" stroke-width="0.5" stroke="black" fill="cyan"/>
  <circle cx="382.648" cy="523.662" r="5.05158" stroke-width="0.5" stroke="black" fill="cyan"/>
   </g>
   <g id="cell92">
  <circle cx="502.189" cy="614.292" r="7.14958" stroke-width="0.5" stroke="black" fill="magenta"/>
  <circle cx="502.189" cy="614.292" r="4.33998" stroke-width="0.5" stroke="black" fill="magenta"/>
   </g>
   <g id="cell93">
  <circle cx="548.92" cy="409.909" r="8.3901" stroke-width="0.5" stroke="black" fill="green"/>
  <circle cx="548.92" cy="409.909" r="5.04388" stroke-width="0.5" stroke="black" fill="green"/>
   </g>
   <g id="cell94">
  <circle cx="387.864" cy="508.584" r="8.41234" stroke-width="0.5" stroke="black" fill="cyan"/>
  <circle cx="387.864" cy="508.584" r="5.05159" stroke-width="0.5" stroke="black" fill="cyan"/>
   </g>
   <g id="cell95">
  <circle cx="359.47" cy="531.754" r="7.5195" stroke-width="0.5" stroke="black" fill="cyan"/>
  <circle cx="359.47" cy="531.754" r="4.57066" stroke-width="0.5" stroke="black" fill="cyan"/>
   </g>
   <g id="cell96">
  <circle cx="580.601" cy="465.282" r="8.41164" stroke-width="0.5" stroke="black" fill="cyan"/>
  <circle cx="580.601" cy="465.282" r="5.05141" stroke-width="0.5" stroke="black" fill="cyan"/>
   </g>
   <g id="cell97">
  <circle cx="359.648" cy="482.353" r="8.41226" stroke-width="0.5" stroke="black" fill="green"/>
  <circle cx="359.648" cy="482.353" r="5.05157" stroke-width="0.5" stroke="black" fill="green"/>
   </g>
   <g id="cell98">
  <circle cx="591.099" cy="555.727" r="7.89349" stroke-width="0.5" stroke="black" fill="cyan"/>
  <circle cx="591.099" cy="555.727" r="4.78951" stroke-width="0.5" stroke="black" fill="cyan"/>
   </g>
   <g id="cell99">
  <circle cx="550.158" cy="458.08" r="8.41228" stroke-width="0.5" stroke="black" fill="green"/>
  <circle cx="550.158" cy="458.08" r="5.05157" stroke-width="0.5" stroke="black" fill="green"/>
   </g>
   <g id="cell100">
  <circle cx="636.125" cy="481.169" r="8.37513" stroke-width="0.5" stroke="black" fill="green"/>
  <circle cx="636.125" cy="481.169" r="5.03806" stroke-width="0.5" stroke="black" fill="green"/>
   </g>
   <g id="cell101">
  <circle cx="570.208" cy="509.706" r="8.41181" stroke-width="0.5" stroke="black" fill="magenta"/>
  <circle cx="570.208" cy="509.706" r="5.05146" stroke-width="0.5" stroke="black" fill="magenta"/>
   </g>
   <g id="cell102">
  <circle cx="460.897" cy="393.425" r="6.82933" stroke-width="0.5" stroke="black" fill="green"/>
  <circle cx="460.897" cy="393.425" r="4.12522" stroke-width="0.5" stroke="black" fill="green"/>
   </g>
   <g id="cell103">
  <circle cx="567.122" cy="542.325" r="8.412" stroke-width="0.5" stroke="black" fill="cyan"/>
  <circle cx="567.122" cy="542.325" r="5.0515" stroke-width="0.5" stroke="black" fill="cyan"/>
   </g>
   <g id="cell104">
  <circle cx="631.229" cy="496.097" r="8.41179" stroke-width="0.5" stroke="black" fill="green"/>
  <circle cx="631.229" cy="496.097" r="5.05145" stroke-width="0.5" stroke="black" fill="green"/>
   </g>
   <g id="cell105">
  <circle cx="577.821" cy="480.711" r="8.40903" stroke-width="0.5" stroke="black" fill="magenta"/>
  <circle cx="577.821" cy="480.711" r="5.05068" stroke-width="0.5" stroke="black" fill="magenta"/>
   </g>
   <g id="cell106">
  <circle cx="536.63" cy="562.817" r="7.49406" stroke-width="0.5" stroke="black" fill="green"/>
  <circle cx="536.63" cy="562.817" r="4.55535" stroke-width="0.5" stroke="black" fill="green"/>
   </g>
   <g id="cell107">
  <circle cx="511.332" cy="586.698" r="8.41192" stroke-width="0.5" stroke="black" fill="magenta"/>
  <circle cx="511.332" cy="586.698" r="5.05148" stroke-width="0.5" stroke="black" fill="magenta"/>
   </g>
   <g id="cell109">
  <circle cx="513.193" cy="451.081" r="8.4118" stroke-width="0.5" stroke="black" fill="cyan"/>
  <circle cx="513.193" cy="451.081" r="5.05145" stroke-width="0.5" stroke="black" fill="cyan"/>
   </g>
   <g id="cell110">
  <circle cx="565.602" cy="471.221" r="8.41164" stroke-width="0.5" stroke="black" fill="cyan"/>
  <circle cx="565.602" cy="471.221" r="5.05141" stroke-width="0.5" stroke="black" fill="cyan"/>
   </g>
   <g id="cell111">
  <circle cx="563.813" cy="485.727" r="7.71967" stroke-width="0.5" stroke="black" fill="magenta"/>
  <circle cx="563.813" cy="485.727" r="4.68979" stroke-width="0.5" stroke="black" fill="magenta"/>
   </g>
   <g id="cell112">
  <circle cx="377.343" cy="457.255" r="8.41133" stroke-width="0.5" stroke="black" fill="green"/>
  <circle cx="377.343" cy="457.255" r="5.05132" stroke-width="0.5" stroke="black" fill="green"/>
   </g>
   <g id="cell113">
  <circle cx="390.406" cy="553.283" r="8.40866" stroke-width="0.5" stroke="black" fill="magenta"/>
  <circle cx="390.406" cy="553.283" r="5.05056" stroke-width="0.5" stroke="black" fill="magenta"/>
   </g>
   <g id="cell114">
  <circle cx="524.089" cy="579.814" r="8.1302" stroke-width="0.5" stroke="black" fill="magenta"/>
  <circle cx="524.089" cy="579.814" r="4.92056" stroke-width="0.5" stroke="black" fill="magenta"/>
   </g>
   <g id="cell115">
  <circle cx="502.578" cy="425.374" r="8.40333" stroke-width="0.5" stroke="black" fill="green"/>
  <circle cx="502.578" cy="425.374" r="5.04888" stroke-width="0.5" stroke="black" fill="green"/>
   </g>
   <g id="cell116">
  <circle cx="445.539" cy="481.115" r="8.41055" stroke-width="0.5" stroke="black" fill="cyan"/>
  <circle cx="445.539" cy="481.115" r="5.05109" stroke-width="0.5" stroke="black" fill="cyan"/>
   </g>
   <g id="cell117">
  <circle cx="609.632" cy="513.652" r="8.3763" stroke-width="0.5" stroke="black" fill="magenta"/>
  <circle cx="609.632" cy="513.652" r="5.03851" stroke-width="0.5" stroke="black" fill="magenta"/>
   </g>
   <g id="cell118">
  <circle cx="625.692" cy="469.263" r="8.41018" stroke-width="0.5" stroke="black" fill="green"/>
  <circle cx="625.692" cy="469.263" r="5.051" stroke-width="0.5" stroke="black" fill="green"/>
   </g>
   <g id="cell119">
  <circle cx="499.727" cy="577.44" r="8.38734" stroke-width="0.5" stroke="black" fill="magenta"/>
  <circle cx="499.727" cy="577.44" r="5.04304" stroke-width="0.5" stroke="black" fill="magenta"/>
   </g>
   <g id="cell120">
  <circle cx="463.979" cy="491.757" r="1.69746" stroke-width="0.5" stroke="black" fill="magenta"/>
  <circle cx="463.979" cy="491.757" r="1.65551" stroke-width="0.5" stroke="black" fill="black"/>
   </g>
   <g id="cell121">
  <circle cx="447.889" cy="454.549" r="8.4004" stroke-width="0.5" stroke="black" fill="cyan"/>
  <circle cx="447.889" cy="454.549" r="5.04786" stroke-width="0.5" stroke="black" fill="cyan"/>
   </g>
   <g id="cell123">
  <circle cx="418.613" cy="466.855" r="8.39328" stroke-width="0.5" stroke="black" fill="cyan"/>
  <circle cx="418.613" cy="466.855" r="5.04532" stroke-width="0.5" stroke="black" fill="cyan"/>
   </g>
   <g id="cell124">
  <circle cx="445.802" cy="399.569" r="8.2881" stroke-width="0.5" stroke="black" fill="green"/>
  <circle cx="445.802" cy="399.569" r="4.99907" stroke-width="0.5" stroke="black" fill="green"/>
   </g>
   <g id="cell125">
  <circle cx="485.636" cy="447.893" r="8.37537" stroke-width="0.5" stroke="black" fill="green"/>
  <circle cx="485.636" cy="447.893" r="5.03825" stroke-width="0.5" stroke="black" fill="green"/>
   </g>
   <g id="cell126">
  <circle cx="486.238" cy="584.435" r="8.386" stroke-width="0.5" stroke="black" fill="magenta"/>
  <circle cx="486.238" cy="584.435" r="5.04252" stroke-width="0.5" stroke="black" fill="magenta"/>
   </g>
   <g id="cell128">
  <circle cx="534.84" cy="484.065" r="8.38761" stroke-width="0.5" stroke="black" fill="magenta"/>
  <circle cx="534.84" cy="484.065" r="5.0431" stroke-width="0.5" stroke="black" fill="magenta"/>
   </g>
   <g id="cell129">
  <circle cx="533.586" cy="515.159" r="8.4081" stroke-width="0.5" stroke="black" fill="magenta"/>
  <circle cx="533.586" cy="515.159" r="5.05034" stroke-width="0.5" stroke="black" fill="magenta"/>
   </g>
   <g id="cell130">
  <circle cx="363.688" cy="448.941" r="8.40223" stroke-width="0.5" stroke="black" fill="cyan"/>
  <circle cx="363.688" cy="448.941" r="5.04849" stroke-width="0.5" stroke="black" fill="cyan"/>
   </g>
   <g id="cell131">
  <circle cx="604.919" cy="528.377" r="8.4076" stroke-width="0.5" stroke="black" fill="magenta"/>
  <circle cx="604.919" cy="528.377" r="5.05018" stroke-width="0.5" stroke="black" fill="magenta"/>
   </g>
   <g id="cell132">
  <circle cx="508.755" cy="480.713" r="8.40632" stroke-width="0.5" stroke="black" fill="magenta"/>
  <circle cx="508.755" cy="480.713" r="5.04976" stroke-width="0.5" stroke="black" fill="magenta"/>
   </g>
   <g id="cell133">
  <circle cx="584.957" cy="505.754" r="8.40573" stroke-width="0.5" stroke="black" fill="magenta"/>
  <circle cx="584.957" cy="505.754" r="5.04958" stroke-width="0.5" stroke="black" fill="magenta"/>
   </g>
   <g id="cell134">
  <circle cx="487.931" cy="431.452" r="8.40333" stroke-width="0.5" stroke="black" fill="green"/>
  <circle cx="487.931" cy="431.452" r="5.04888" stroke-width="0.5" stroke="black" fill="green"/>
   </g>
   <g id="cell135">
  <circle cx="589.019" cy="491.094" r="8.40331" stroke-width="0.5" stroke="black" fill="magenta"/>
  <circle cx="589.019" cy="491.094" r="5.04887" stroke-width="0.5" stroke="black" fill="magenta"/>
   </g>
   <g id="cell136">
  <circle cx="377.502" cy="440.972" r="8.40223" stroke-width="0.5" stroke="black" fill="cyan"/>
  <circle cx="377.502" cy="440.972" r="5.04849" stroke-width="0.5" stroke="black" fill="cyan"/>
   </g>
   <g id="cell137">
  <circle cx="494.424" cy="485.842" r="8.33238" stroke-width="0.5" stroke="black" fill="magenta"/>
  <circle cx="494.424" cy="485.842" r="5.02099" stroke-width="0.5" stroke="black" fill="magenta"/>
   </g>
   <g id="cell138">
  <circle cx="474.292" cy="387.956" r="8.36072" stroke-width="0.5" stroke="black" fill="green"/>
  <circle cx="474.292" cy="387.956" r="5.0324" stroke-width="0.5" stroke="black" fill="green"/>
   </g>
   <g id="cell139">
  <circle cx="455.79" cy="468.929" r="8.4004" stroke-width="0.5" stroke="black" fill="cyan"/>
  <circle cx="455.79" cy="468.929" r="5.04786" stroke-width="0.5" stroke="black" fill="cyan"/>
   </g>
   <g id="cell140">
  <circle cx="539.294" cy="616.234" r="7.88777" stroke-width="0.5" stroke="black" fill="green"/>
  <circle cx="539.294" cy="616.234" r="4.79719" stroke-width="0.5" stroke="black" fill="green"/>
   </g>
   <g id="cell141">
  <circle cx="590.029" cy="531.407" r="8.39839" stroke-width="0.5" stroke="black" fill="cyan"/>
  <circle cx="590.029" cy="531.407" r="5.04702" stroke-width="0.5" stroke="black" fill="cyan"/>
   </g>
   <g id="cell185">
  <circle cx="571.72" cy="633.602" r="8.19504" stroke-width="0.5" stroke="black" fill="cyan"/>
  <circle cx="571.72" cy="633.602" r="4.95642" stroke-width="0.5" stroke="black" fill="cyan"/>
   </g>
   <g id="cell143">
  <circle cx="528.004" cy="443.415" r="8.39874" stroke-width="0.5" stroke="black" fill="cyan"/>
  <circle cx="528.004" cy="443.415" r="5.04711" stroke-width="0.5" stroke="black" fill="cyan"/>
   </g>
   <g id="cell144">
  <circle cx="520.938" cy="393.871" r="8.1867" stroke-width="0.5" stroke="black" fill="magenta"/>
  <circle cx="520.938" cy="393.871" r="4.94979" stroke-width="0.5" stroke="black" fill="magenta"/>
   </g>
   <g id="cell145">
  <circle cx="559.571" cy="445.653" r="8.24031" stroke-width="0.5" stroke="black" fill="cyan"/>
  <circle cx="559.571" cy="445.653" r="4.97683" stroke-width="0.5" stroke="black" fill="cyan"/>
   </g>
   <g id="cell146">
  <circle cx="423.492" cy="447.136" r="8.39328" stroke-width="0.5" stroke="black" fill="cyan"/>
  <circle cx="423.492" cy="447.136" r="5.04532" stroke-width="0.5" stroke="black" fill="cyan"/>
   </g>
   <g id="cell147">
  <circle cx="538.53" cy="576.606" r="7.76689" stroke-width="0.5" stroke="black" fill="green"/>
  <circle cx="538.53" cy="576.606" r="4.71945" stroke-width="0.5" stroke="black" fill="green"/>
   </g>
   <g id="cell148">
  <circle cx="589.587" cy="451.839" r="8.39422" stroke-width="0.5" stroke="black" fill="cyan"/>
  <circle cx="589.587" cy="451.839" r="5.04543" stroke-width="0.5" stroke="black" fill="cyan"/>
   </g>
   <g id="cell149">
  <circle cx="470.413" cy="608.425" r="8.36388" stroke-width="0.5" stroke="black" fill="magenta"/>
  <circle cx="470.413" cy="608.425" r="5.03397" stroke-width="0.5" stroke="black" fill="magenta"/>
   </g>
   <g id="cell150">
  <circle cx="473.04" cy="520.246" r="8.39081" stroke-width="0.5" stroke="black" fill="green"/>
  <circle cx="473.04" cy="520.246" r="5.04413" stroke-width="0.5" stroke="black" fill="green"/>
   </g>
   <g id="cell151">
  <circle cx="562.602" cy="401.598" r="8.3901" stroke-width="0.5" stroke="black" fill="green"/>
  <circle cx="562.602" cy="401.598" r="5.04388" stroke-width="0.5" stroke="black" fill="green"/>
   </g>
   <g id="cell152">
  <circle cx="502.84" cy="562.693" r="8.30737" stroke-width="0.5" stroke="black" fill="magenta"/>
  <circle cx="502.84" cy="562.693" r="5.00941" stroke-width="0.5" stroke="black" fill="magenta"/>
   </g>
   <g id="cell153">
  <circle cx="547.533" cy="491.531" r="8.38761" stroke-width="0.5" stroke="black" fill="magenta"/>
  <circle cx="547.533" cy="491.531" r="5.0431" stroke-width="0.5" stroke="black" fill="magenta"/>
   </g>
   <g id="cell154">
  <circle cx="371.253" cy="471.936" r="8.38957" stroke-width="0.5" stroke="black" fill="magenta"/>
  <circle cx="371.253" cy="471.936" r="5.04365" stroke-width="0.5" stroke="black" fill="magenta"/>
   </g>
   <g id="cell155">
  <circle cx="474.913" cy="594.222" r="8.386" stroke-width="0.5" stroke="black" fill="magenta"/>
  <circle cx="474.913" cy="594.222" r="5.04252" stroke-width="0.5" stroke="black" fill="magenta"/>
   </g>
   <g id="cell156">
  <circle cx="513.001" cy="518.801" r="8.38521" stroke-width="0.5" stroke="black" fill="magenta"/>
  <circle cx="513.001" cy="518.801" r="5.04219" stroke-width="0.5" stroke="black" fill="magenta"/>
   </g>
   <g id="cell157">
  <circle cx="510.56" cy="465.891" r="8.38022" stroke-width="0.5" stroke="black" fill="magenta"/>
  <circle cx="510.56" cy="465.891" r="5.04049" stroke-width="0.5" stroke="black" fill="magenta"/>
   </g>
   <g id="cell158">
  <circle cx="590.2" cy="393.442" r="8.38454" stroke-width="0.5" stroke="black" fill="magenta"/>
  <circle cx="590.2" cy="393.442" r="5.04168" stroke-width="0.5" stroke="black" fill="magenta"/>
   </g>
   <g id="cell159">
  <circle cx="523.874" cy="529.347" r="8.38367" stroke-width="0.5" stroke="black" fill="cyan"/>
  <circle cx="523.874" cy="529.347" r="5.04134" stroke-width="0.5" stroke="black" fill="cyan"/>
   </g>
   <g id="cell160">
  <circle cx="342.957" cy="501.677" r="8.37933" stroke-width="0.5" stroke="black" fill="cyan"/>
  <circle cx="342.957" cy="501.677" r="5.0396" stroke-width="0.5" stroke="black" fill="cyan"/>
   </g>
   <g id="cell161">
  <circle cx="499.965" cy="441.533" r="8.37537" stroke-width="0.5" stroke="black" fill="green"/>
  <circle cx="499.965" cy="441.533" r="5.03825" stroke-width="0.5" stroke="black" fill="green"/>
   </g>
   <g id="cell162">
  <circle cx="595.096" cy="516.757" r="8.3763" stroke-width="0.5" stroke="black" fill="magenta"/>
  <circle cx="595.096" cy="516.757" r="5.03851" stroke-width="0.5" stroke="black" fill="magenta"/>
   </g>
   <g id="cell163">
  <circle cx="522.688" cy="423.599" r="8.36937" stroke-width="0.5" stroke="black" fill="cyan"/>
  <circle cx="522.688" cy="423.599" r="5.0361" stroke-width="0.5" stroke="black" fill="cyan"/>
   </g>
   <g id="cell164">
  <circle cx="620.117" cy="484.427" r="8.37513" stroke-width="0.5" stroke="black" fill="green"/>
  <circle cx="620.117" cy="484.427" r="5.03806" stroke-width="0.5" stroke="black" fill="green"/>
   </g>
   <g id="cell165">
  <circle cx="447.193" cy="601.371" r="7.17871" stroke-width="0.5" stroke="black" fill="magenta"/>
  <circle cx="447.193" cy="601.371" r="4.36731" stroke-width="0.5" stroke="black" fill="magenta"/>
   </g>
   <g id="cell166">
  <circle cx="400.079" cy="581.38" r="8.3137" stroke-width="0.5" stroke="black" fill="magenta"/>
  <circle cx="400.079" cy="581.38" r="5.01271" stroke-width="0.5" stroke="black" fill="magenta"/>
   </g>
   <g id="cell167">
  <circle cx="469.152" cy="372.883" r="8.36072" stroke-width="0.5" stroke="black" fill="green"/>
  <circle cx="469.152" cy="372.883" r="5.0324" stroke-width="0.5" stroke="black" fill="green"/>
   </g>
   <g id="cell168">
  <circle cx="605.058" cy="456.565" r="8.34791" stroke-width="0.5" stroke="black" fill="cyan"/>
  <circle cx="605.058" cy="456.565" r="5.02717" stroke-width="0.5" stroke="black" fill="cyan"/>
   </g>
   <g id="cell169">
  <circle cx="487.805" cy="568.099" r="8.35724" stroke-width="0.5" stroke="black" fill="green"/>
  <circle cx="487.805" cy="568.099" r="5.03033" stroke-width="0.5" stroke="black" fill="green"/>
   </g>
   <g id="cell170">
  <circle cx="474.973" cy="457.422" r="7.2121" stroke-width="0.5" stroke="black" fill="magenta"/>
  <circle cx="474.973" cy="457.422" r="4.41812" stroke-width="0.5" stroke="black" fill="magenta"/>
   </g>
   <g id="cell171">
  <circle cx="433.342" cy="418.913" r="1.78998" stroke-width="0.5" stroke="black" fill="magenta"/>
  <circle cx="433.342" cy="418.913" r="1.72993" stroke-width="0.5" stroke="black" fill="black"/>
   </g>
   <g id="cell172">
  <circle cx="541.209" cy="631.233" r="8.02319" stroke-width="0.5" stroke="black" fill="cyan"/>
  <circle cx="541.209" cy="631.233" r="4.87269" stroke-width="0.5" stroke="black" fill="cyan"/>
   </g>
   <g id="cell173">
  <circle cx="432.903" cy="459.921" r="8.33452" stroke-width="0.5" stroke="black" fill="cyan"/>
  <circle cx="432.903" cy="459.921" r="5.02072" stroke-width="0.5" stroke="black" fill="cyan"/>
   </g>
   <g id="cell174">
  <circle cx="409.647" cy="570" r="8.3137" stroke-width="0.5" stroke="black" fill="magenta"/>
  <circle cx="409.647" cy="570" r="5.01271" stroke-width="0.5" stroke="black" fill="magenta"/>
   </g>
   <g id="cell175">
  <circle cx="599.55" cy="543.027" r="8.32282" stroke-width="0.5" stroke="black" fill="magenta"/>
  <circle cx="599.55" cy="543.027" r="5.0154" stroke-width="0.5" stroke="black" fill="magenta"/>
   </g>
   <g id="cell176">
  <circle cx="568.735" cy="432.852" r="8.32543" stroke-width="0.5" stroke="black" fill="cyan"/>
  <circle cx="568.735" cy="432.852" r="5.01617" stroke-width="0.5" stroke="black" fill="cyan"/>
   </g>
   <g id="cell177">
  <circle cx="419.846" cy="536.264" r="8.32291" stroke-width="0.5" stroke="black" fill="green"/>
  <circle cx="419.846" cy="536.264" r="5.01502" stroke-width="0.5" stroke="black" fill="green"/>
   </g>
   <g id="cell178">
  <circle cx="491.399" cy="553.112" r="8.30737" stroke-width="0.5" stroke="black" fill="magenta"/>
  <circle cx="491.399" cy="553.112" r="5.00941" stroke-width="0.5" stroke="black" fill="magenta"/>
   </g>
   <g id="cell179">
  <circle cx="571.644" cy="557.593" r="8.32032" stroke-width="0.5" stroke="black" fill="cyan"/>
  <circle cx="571.644" cy="557.593" r="5.01383" stroke-width="0.5" stroke="black" fill="cyan"/>
   </g>
   <g id="cell180">
  <circle cx="459.38" cy="533.876" r="8.30918" stroke-width="0.5" stroke="black" fill="magenta"/>
  <circle cx="459.38" cy="533.876" r="5.00867" stroke-width="0.5" stroke="black" fill="magenta"/>
   </g>
   <g id="cell181">
  <circle cx="392.089" cy="435.158" r="8.13431" stroke-width="0.5" stroke="black" fill="cyan"/>
  <circle cx="392.089" cy="435.158" r="4.92718" stroke-width="0.5" stroke="black" fill="cyan"/>
   </g>
   <g id="cell182">
  <circle cx="439.936" cy="384.912" r="8.2881" stroke-width="0.5" stroke="black" fill="green"/>
  <circle cx="439.936" cy="384.912" r="4.99907" stroke-width="0.5" stroke="black" fill="green"/>
   </g>
   <g id="cell183">
  <circle cx="555.67" cy="593.687" r="8.25196" stroke-width="0.5" stroke="black" fill="green"/>
  <circle cx="555.67" cy="593.687" r="4.98224" stroke-width="0.5" stroke="black" fill="green"/>
   </g>
   <g id="cell184">
  <circle cx="553.022" cy="431.547" r="8.12894" stroke-width="0.5" stroke="black" fill="cyan"/>
  <circle cx="553.022" cy="431.547" r="4.92557" stroke-width="0.5" stroke="black" fill="cyan"/>
   </g>
   <g id="cell186">
  <circle cx="543.79" cy="443.956" r="8.12894" stroke-width="0.5" stroke="black" fill="cyan"/>
  <circle cx="543.79" cy="443.956" r="4.92557" stroke-width="0.5" stroke="black" fill="cyan"/>
   </g>
   <g id="cell187">
  <circle cx="507.966" cy="401.421" r="8.1867" stroke-width="0.5" stroke="black" fill="magenta"/>
  <circle cx="507.966" cy="401.421" r="4.94979" stroke-width="0.5" stroke="black" fill="magenta"/>
   </g>
   <g id="cell188">
  <circle cx="534.626" cy="414.992" r="8.1947" stroke-width="0.5" stroke="black" fill="magenta"/>
  <circle cx="534.626" cy="414.992" r="4.95246" stroke-width="0.5" stroke="black" fill="magenta"/>
   </g>
   <g id="cell189">
  <circle cx="405.624" cy="429.41" r="7.34731" stroke-width="0.5" stroke="black" fill="cyan"/>
  <circle cx="405.624" cy="429.41" r="4.49221" stroke-width="0.5" stroke="black" fill="cyan"/>
   </g>
   <g id="cell190">
  <circle cx="404.557" cy="556.369" r="8.13888" stroke-width="0.5" stroke="black" fill="magenta"/>
  <circle cx="404.557" cy="556.369" r="4.92693" stroke-width="0.5" stroke="black" fill="magenta"/>
   </g>
   <g id="cell191">
  <circle cx="522.33" cy="595.881" r="8.1302" stroke-width="0.5" stroke="black" fill="magenta"/>
  <circle cx="522.33" cy="595.881" r="4.92056" stroke-width="0.5" stroke="black" fill="magenta"/>
   </g>
   <g id="cell192">
  <circle cx="556.433" cy="631.306" r="8.02319" stroke-width="0.5" stroke="black" fill="cyan"/>
  <circle cx="556.433" cy="631.306" r="4.87269" stroke-width="0.5" stroke="black" fill="cyan"/>
   </g>
   <g id="cell193">
  <circle cx="479.695" cy="490.157" r="7.88019" stroke-width="0.5" stroke="black" fill="green"/>
  <circle cx="479.695" cy="490.157" r="4.79634" stroke-width="0.5" stroke="black" fill="green"/>
   </g>
   <g id="cell194">
  <circle cx="476.992" cy="505.145" r="7.88019" stroke-width="0.5" stroke="black" fill="green"/>
  <circle cx="476.992" cy="505.145" r="4.79634" stroke-width="0.5" stroke="black" fill="green"/>
   </g>
   <g id="cell196">
  <circle cx="552.275" cy="608.891" r="7.88777" stroke-width="0.5" stroke="black" fill="green"/>
  <circle cx="552.275" cy="608.891" r="4.79719" stroke-width="0.5" stroke="black" fill="green"/>
   </g>
   <g id="cell197">
  <circle cx="582.138" cy="544.215" r="7.89349" stroke-width="0.5" stroke="black" fill="cyan"/>
  <circle cx="582.138" cy="544.215" r="4.78951" stroke-width="0.5" stroke="black" fill="cyan"/>
   </g>
   <g id="cell198">
  <circle cx="538.538" cy="531.552" r="7.86284" stroke-width="0.5" stroke="black" fill="cyan"/>
  <circle cx="538.538" cy="531.552" r="4.77207" stroke-width="0.5" stroke="black" fill="cyan"/>
   </g>
   <g id="cell199">
  <circle cx="356.575" cy="508.929" r="7.81095" stroke-width="0.5" stroke="black" fill="cyan"/>
  <circle cx="356.575" cy="508.929" r="4.74626" stroke-width="0.5" stroke="black" fill="cyan"/>
   </g>
   <g id="cell200">
  <circle cx="549.978" cy="567.772" r="7.76689" stroke-width="0.5" stroke="black" fill="green"/>
  <circle cx="549.978" cy="567.772" r="4.71945" stroke-width="0.5" stroke="black" fill="green"/>
   </g>
   <g id="cell201">
  <circle cx="552.382" cy="478.151" r="7.71967" stroke-width="0.5" stroke="black" fill="magenta"/>
  <circle cx="552.382" cy="478.151" r="4.68979" stroke-width="0.5" stroke="black" fill="magenta"/>
   </g>
   <g id="cell202">
  <circle cx="392.78" cy="457.77" r="7.71974" stroke-width="0.5" stroke="black" fill="green"/>
  <circle cx="392.78" cy="457.77" r="4.6898" stroke-width="0.5" stroke="black" fill="green"/>
   </g>
   <g id="cell203">
  <circle cx="487.758" cy="599.815" r="7.65709" stroke-width="0.5" stroke="black" fill="magenta"/>
  <circle cx="487.758" cy="599.815" r="4.65323" stroke-width="0.5" stroke="black" fill="magenta"/>
   </g>
   <g id="cell204">
  <circle cx="385.321" cy="469.786" r="7.64476" stroke-width="0.5" stroke="black" fill="magenta"/>
  <circle cx="385.321" cy="469.786" r="4.64864" stroke-width="0.5" stroke="black" fill="magenta"/>
   </g>
   <g id="cell205">
  <circle cx="453.317" cy="546.917" r="7.57442" stroke-width="0.5" stroke="black" fill="magenta"/>
  <circle cx="453.317" cy="546.917" r="4.61426" stroke-width="0.5" stroke="black" fill="magenta"/>
   </g>
   <g id="cell206">
  <circle cx="516.059" cy="556.84" r="7.59183" stroke-width="0.5" stroke="black" fill="magenta"/>
  <circle cx="516.059" cy="556.84" r="4.61399" stroke-width="0.5" stroke="black" fill="magenta"/>
   </g>
   <g id="cell207">
  <circle cx="409.291" cy="442.694" r="7.34731" stroke-width="0.5" stroke="black" fill="cyan"/>
  <circle cx="409.291" cy="442.694" r="4.49221" stroke-width="0.5" stroke="black" fill="cyan"/>
   </g>
   <g id="cell208">
  <circle cx="373.036" cy="535.26" r="7.5195" stroke-width="0.5" stroke="black" fill="cyan"/>
  <circle cx="373.036" cy="535.26" r="4.57066" stroke-width="0.5" stroke="black" fill="cyan"/>
   </g>
   <g id="cell209">
  <circle cx="486.307" cy="463.481" r="7.2121" stroke-width="0.5" stroke="black" fill="magenta"/>
  <circle cx="486.307" cy="463.481" r="4.41812" stroke-width="0.5" stroke="black" fill="magenta"/>
   </g>
   <g id="cell210">
  <circle cx="528.892" cy="551.694" r="7.49406" stroke-width="0.5" stroke="black" fill="green"/>
  <circle cx="528.892" cy="551.694" r="4.55535" stroke-width="0.5" stroke="black" fill="green"/>
   </g>
   <g id="cell211">
  <circle cx="534.422" cy="389.02" r="7.38797" stroke-width="0.5" stroke="black" fill="magenta"/>
  <circle cx="534.422" cy="389.02" r="4.49029" stroke-width="0.5" stroke="black" fill="magenta"/>
   </g>
   <g id="cell212">
  <circle cx="456.536" cy="610.321" r="7.17871" stroke-width="0.5" stroke="black" fill="magenta"/>
  <circle cx="456.536" cy="610.321" r="4.36731" stroke-width="0.5" stroke="black" fill="magenta"/>
   </g>
   <g id="cell213">
  <circle cx="622.685" cy="507.978" r="7.21127" stroke-width="0.5" stroke="black" fill="green"/>
  <circle cx="622.685" cy="507.978" r="4.37976" stroke-width="0.5" stroke="black" fill="green"/>
   </g>
   <g id="cell214">
  <circle cx="512.629" cy="621.707" r="7.14958" stroke-width="0.5" stroke="black" fill="magenta"/>
  <circle cx="512.629" cy="621.707" r="4.33998" stroke-width="0.5" stroke="black" fill="magenta"/>
   </g>
   <g id="cell216">
  <circle cx="528.908" cy="377.665" r="7.0437" stroke-width="0.5" stroke="black" fill="magenta"/>
  <circle cx="528.908" cy="377.665" r="4.27395" stroke-width="0.5" stroke="black" fill="magenta"/>
   </g>
   <g id="cell217">
  <circle cx="565.444" cy="604.597" r="7.02257" stroke-width="0.5" stroke="black" fill="green"/>
  <circle cx="565.444" cy="604.597" r="4.25644" stroke-width="0.5" stroke="black" fill="green"/>
   </g>
   <g id="cell218">
  <circle cx="568.157" cy="457.357" r="6.99038" stroke-width="0.5" stroke="black" fill="green"/>
  <circle cx="568.157" cy="457.357" r="4.2349" stroke-width="0.5" stroke="black" fill="green"/>
   </g>
   <g id="cell219">
  <circle cx="462.532" cy="406.197" r="6.82933" stroke-width="0.5" stroke="black" fill="green"/>
  <circle cx="462.532" cy="406.197" r="4.12522" stroke-width="0.5" stroke="black" fill="green"/>
   </g>
  </g>
 </g>
  <rect x="775" y="1035" width="200" height="10" stroke-width="2" stroke="rgb(255,255,255)" fill="rgb(0,0,0)"/>
  <text x="781.25" y="1028.75"
   font-family="Arial" font-size="25" fill="black" >
   200 &#956;m
  </text>
  <text x="25" y="1045"
   font-family="Arial" font-size="18.75" fill="black" >
   0 days, 0 hours, 0 minutes, and 43.8856 seconds
  </text>
  <rect x="0" y="70" width="1000" height="1000" stroke-width="2" stroke="rgb(0,0,0)" fill="none"/>
</svg>
