<?xml version="1.0" encoding="UTF-8" standalone="no"?>
<!-- Created with PhysiCell (http://PhysiCell.MathCancer.org/) -->
<svg 
 xmlns:dc="http://purl.org/dc/elements/1.1/" 
 xmlns:cc="http://creativecommons.org/ns#" 
 xmlns:rdf="http://www.w3.org/1999/02/22-rdf-syntax-ns#" 
 xmlns:svg="http://www.w3.org/2000/svg" 
 xmlns="http://www.w3.org/2000/svg" 
 version="1.1" 
 width="1000" 
 height="1070" 
 id="svg2">
  <rect x="0" y="0" width="1000" height="1070" stroke-width="2" stroke="white" fill="white"/>
  <text x="12.5" y="30"
   font-family="Arial" font-size="25" fill="black" >
   Current time: 0 days, 16 hours, and 0.00 minutes, z = 0.00 &#956;m
  </text>
  <text x="12.5" y="57.5"
   font-family="Arial" font-size="23.75" fill="black" >
   116 agents
  </text>
 <g id="tissue" 
    transform="translate(0,1070) scale(1,-1)">
  <g id="ECM">
  </g>
  <g id="cells">
   <g id="cell0">
  <circle cx="481.313" cy="404.903" r="8.41271" stroke-width="0.5" stroke="black" fill="magenta"/>
  <circle cx="481.313" cy="404.903" r="5.05167" stroke-width="0.5" stroke="black" fill="magenta"/>
   </g>
   <g id="cell1">
  <circle cx="633.515" cy="509.166" r="8.37431" stroke-width="0.5" stroke="black" fill="magenta"/>
  <circle cx="633.515" cy="509.166" r="5.03754" stroke-width="0.5" stroke="black" fill="magenta"/>
   </g>
   <g id="cell2">
  <circle cx="478.897" cy="493.985" r="8.41271" stroke-width="0.5" stroke="black" fill="magenta"/>
  <circle cx="478.897" cy="493.985" r="5.05167" stroke-width="0.5" stroke="black" fill="magenta"/>
   </g>
   <g id="cell3">
  <circle cx="450.122" cy="451.288" r="8.34511" stroke-width="0.5" stroke="black" fill="magenta"/>
  <circle cx="450.122" cy="451.288" r="5.02502" stroke-width="0.5" stroke="black" fill="magenta"/>
   </g>
   <g id="cell4">
  <circle cx="415.637" cy="553.888" r="7.95045" stroke-width="0.5" stroke="black" fill="magenta"/>
  <circle cx="415.637" cy="553.888" r="4.82139" stroke-width="0.5" stroke="black" fill="magenta"/>
   </g>
   <g id="cell5">
  <circle cx="393.5" cy="440.755" r="8.41271" stroke-width="0.5" stroke="black" fill="magenta"/>
  <circle cx="393.5" cy="440.755" r="5.05167" stroke-width="0.5" stroke="black" fill="magenta"/>
   </g>
   <g id="cell6">
  <circle cx="434.65" cy="544.554" r="8.21273" stroke-width="0.5" stroke="black" fill="magenta"/>
  <circle cx="434.65" cy="544.554" r="4.96162" stroke-width="0.5" stroke="black" fill="magenta"/>
   </g>
   <g id="cell7">
  <circle cx="603.67" cy="508.644" r="8.41271" stroke-width="0.5" stroke="black" fill="magenta"/>
  <circle cx="603.67" cy="508.644" r="5.05167" stroke-width="0.5" stroke="black" fill="magenta"/>
   </g>
   <g id="cell8">
  <circle cx="389.076" cy="500.57" r="8.41271" stroke-width="0.5" stroke="black" fill="magenta"/>
  <circle cx="389.076" cy="500.57" r="5.05167" stroke-width="0.5" stroke="black" fill="magenta"/>
   </g>
   <g id="cell9">
  <circle cx="528.219" cy="401.964" r="6.93727" stroke-width="0.5" stroke="black" fill="magenta"/>
  <circle cx="528.219" cy="401.964" r="4.25375" stroke-width="0.5" stroke="black" fill="magenta"/>
   </g>
   <g id="cell10">
  <circle cx="593.897" cy="428.181" r="6.80881" stroke-width="0.5" stroke="black" fill="magenta"/>
  <circle cx="593.897" cy="428.181" r="4.10709" stroke-width="0.5" stroke="black" fill="magenta"/>
   </g>
   <g id="cell11">
  <circle cx="517.664" cy="501.26" r="8.41271" stroke-width="0.5" stroke="black" fill="magenta"/>
  <circle cx="517.664" cy="501.26" r="5.05167" stroke-width="0.5" stroke="black" fill="magenta"/>
   </g>
   <g id="cell12">
  <circle cx="602.702" cy="399.747" r="8.41271" stroke-width="0.5" stroke="black" fill="magenta"/>
  <circle cx="602.702" cy="399.747" r="5.05167" stroke-width="0.5" stroke="black" fill="magenta"/>
   </g>
   <g id="cell13">
  <circle cx="638.467" cy="495.257" r="8.01742" stroke-width="0.5" stroke="black" fill="magenta"/>
  <circle cx="638.467" cy="495.257" r="4.86554" stroke-width="0.5" stroke="black" fill="magenta"/>
   </g>
   <g id="cell14">
  <circle cx="363.298" cy="434.385" r="8.41271" stroke-width="0.5" stroke="black" fill="magenta"/>
  <circle cx="363.298" cy="434.385" r="5.05167" stroke-width="0.5" stroke="black" fill="magenta"/>
   </g>
   <g id="cell15">
  <circle cx="377.823" cy="490.568" r="8.41271" stroke-width="0.5" stroke="black" fill="magenta"/>
  <circle cx="377.823" cy="490.568" r="5.05167" stroke-width="0.5" stroke="black" fill="magenta"/>
   </g>
   <g id="cell16">
  <circle cx="508.557" cy="418.063" r="8.41271" stroke-width="0.5" stroke="black" fill="magenta"/>
  <circle cx="508.557" cy="418.063" r="5.05167" stroke-width="0.5" stroke="black" fill="magenta"/>
   </g>
   <g id="cell17">
  <circle cx="376.969" cy="579.817" r="8.06667" stroke-width="0.5" stroke="black" fill="magenta"/>
  <circle cx="376.969" cy="579.817" r="4.88515" stroke-width="0.5" stroke="black" fill="magenta"/>
   </g>
   <g id="cell18">
  <circle cx="527.758" cy="461.125" r="8.41271" stroke-width="0.5" stroke="black" fill="magenta"/>
  <circle cx="527.758" cy="461.125" r="5.05167" stroke-width="0.5" stroke="black" fill="magenta"/>
   </g>
   <g id="cell19">
  <circle cx="489.362" cy="458.795" r="8.41271" stroke-width="0.5" stroke="black" fill="magenta"/>
  <circle cx="489.362" cy="458.795" r="5.05167" stroke-width="0.5" stroke="black" fill="magenta"/>
   </g>
   <g id="cell20">
  <circle cx="489.655" cy="541.906" r="8.41271" stroke-width="0.5" stroke="black" fill="magenta"/>
  <circle cx="489.655" cy="541.906" r="5.05167" stroke-width="0.5" stroke="black" fill="magenta"/>
   </g>
   <g id="cell21">
  <circle cx="507.201" cy="594.848" r="7.6077" stroke-width="0.5" stroke="black" fill="magenta"/>
  <circle cx="507.201" cy="594.848" r="4.6325" stroke-width="0.5" stroke="black" fill="magenta"/>
   </g>
   <g id="cell22">
  <circle cx="541.954" cy="465.356" r="8.23444" stroke-width="0.5" stroke="black" fill="magenta"/>
  <circle cx="541.954" cy="465.356" r="4.97252" stroke-width="0.5" stroke="black" fill="magenta"/>
   </g>
   <g id="cell23">
  <circle cx="562.02" cy="602.066" r="8.41271" stroke-width="0.5" stroke="black" fill="magenta"/>
  <circle cx="562.02" cy="602.066" r="5.05167" stroke-width="0.5" stroke="black" fill="magenta"/>
   </g>
   <g id="cell24">
  <circle cx="502.535" cy="500.68" r="8.41271" stroke-width="0.5" stroke="black" fill="magenta"/>
  <circle cx="502.535" cy="500.68" r="5.05167" stroke-width="0.5" stroke="black" fill="magenta"/>
   </g>
   <g id="cell25">
  <circle cx="442.287" cy="517.843" r="8.41271" stroke-width="0.5" stroke="black" fill="green"/>
  <circle cx="442.287" cy="517.843" r="5.05167" stroke-width="0.5" stroke="black" fill="green"/>
   </g>
   <g id="cell26">
  <circle cx="479.586" cy="594.556" r="8.41271" stroke-width="0.5" stroke="black" fill="green"/>
  <circle cx="479.586" cy="594.556" r="5.05167" stroke-width="0.5" stroke="black" fill="green"/>
   </g>
   <g id="cell27">
  <circle cx="440.665" cy="589.386" r="8.38454" stroke-width="0.5" stroke="black" fill="green"/>
  <circle cx="440.665" cy="589.386" r="5.04168" stroke-width="0.5" stroke="black" fill="green"/>
   </g>
   <g id="cell28">
  <circle cx="503.533" cy="432.759" r="8.41271" stroke-width="0.5" stroke="black" fill="green"/>
  <circle cx="503.533" cy="432.759" r="5.05167" stroke-width="0.5" stroke="black" fill="green"/>
   </g>
   <g id="cell29">
  <circle cx="589.079" cy="514.204" r="8.41271" stroke-width="0.5" stroke="black" fill="green"/>
  <circle cx="589.079" cy="514.204" r="5.05167" stroke-width="0.5" stroke="black" fill="green"/>
   </g>
   <g id="cell30">
  <circle cx="588.248" cy="616.147" r="6.39879" stroke-width="0.5" stroke="black" fill="green"/>
  <circle cx="588.248" cy="616.147" r="3.8901" stroke-width="0.5" stroke="black" fill="green"/>
   </g>
   <g id="cell31">
  <circle cx="471.368" cy="416.921" r="8.41271" stroke-width="0.5" stroke="black" fill="green"/>
  <circle cx="471.368" cy="416.921" r="5.05167" stroke-width="0.5" stroke="black" fill="green"/>
   </g>
   <g id="cell32">
  <circle cx="558.466" cy="430.447" r="8.37641" stroke-width="0.5" stroke="black" fill="green"/>
  <circle cx="558.466" cy="430.447" r="5.0384" stroke-width="0.5" stroke="black" fill="green"/>
   </g>
   <g id="cell33">
  <circle cx="591.766" cy="567.378" r="8.09544" stroke-width="0.5" stroke="black" fill="green"/>
  <circle cx="591.766" cy="567.378" r="4.90058" stroke-width="0.5" stroke="black" fill="green"/>
   </g>
   <g id="cell34">
  <circle cx="562.752" cy="586.446" r="8.41271" stroke-width="0.5" stroke="black" fill="green"/>
  <circle cx="562.752" cy="586.446" r="5.05167" stroke-width="0.5" stroke="black" fill="green"/>
   </g>
   <g id="cell35">
  <circle cx="472.207" cy="508.061" r="8.41271" stroke-width="0.5" stroke="black" fill="green"/>
  <circle cx="472.207" cy="508.061" r="5.05167" stroke-width="0.5" stroke="black" fill="green"/>
   </g>
   <g id="cell36">
  <circle cx="453.327" cy="564.872" r="8.04604" stroke-width="0.5" stroke="black" fill="green"/>
  <circle cx="453.327" cy="564.872" r="4.87399" stroke-width="0.5" stroke="black" fill="green"/>
   </g>
   <g id="cell37">
  <circle cx="488.115" cy="506.578" r="8.41271" stroke-width="0.5" stroke="black" fill="green"/>
  <circle cx="488.115" cy="506.578" r="5.05167" stroke-width="0.5" stroke="black" fill="green"/>
   </g>
   <g id="cell38">
  <circle cx="614.221" cy="450.468" r="8.41271" stroke-width="0.5" stroke="black" fill="green"/>
  <circle cx="614.221" cy="450.468" r="5.05167" stroke-width="0.5" stroke="black" fill="green"/>
   </g>
   <g id="cell39">
  <circle cx="431.539" cy="529.547" r="8.41271" stroke-width="0.5" stroke="black" fill="green"/>
  <circle cx="431.539" cy="529.547" r="5.05167" stroke-width="0.5" stroke="black" fill="green"/>
   </g>
   <g id="cell40">
  <circle cx="472.658" cy="609.04" r="8.41271" stroke-width="0.5" stroke="black" fill="green"/>
  <circle cx="472.658" cy="609.04" r="5.05167" stroke-width="0.5" stroke="black" fill="green"/>
   </g>
   <g id="cell41">
  <circle cx="594.895" cy="413.624" r="8.41271" stroke-width="0.5" stroke="black" fill="green"/>
  <circle cx="594.895" cy="413.624" r="5.05167" stroke-width="0.5" stroke="black" fill="green"/>
   </g>
   <g id="cell42">
  <circle cx="457.941" cy="515.104" r="8.37935" stroke-width="0.5" stroke="black" fill="green"/>
  <circle cx="457.941" cy="515.104" r="5.0396" stroke-width="0.5" stroke="black" fill="green"/>
   </g>
   <g id="cell43">
  <circle cx="357.665" cy="458.998" r="8.41271" stroke-width="0.5" stroke="black" fill="green"/>
  <circle cx="357.665" cy="458.998" r="5.05167" stroke-width="0.5" stroke="black" fill="green"/>
   </g>
   <g id="cell44">
  <circle cx="501.513" cy="468.631" r="8.41271" stroke-width="0.5" stroke="black" fill="green"/>
  <circle cx="501.513" cy="468.631" r="5.05167" stroke-width="0.5" stroke="black" fill="green"/>
   </g>
   <g id="cell45">
  <circle cx="496.744" cy="628.401" r="7.08639" stroke-width="0.5" stroke="black" fill="green"/>
  <circle cx="496.744" cy="628.401" r="4.29876" stroke-width="0.5" stroke="black" fill="green"/>
   </g>
   <g id="cell46">
  <circle cx="598.75" cy="454.821" r="8.41271" stroke-width="0.5" stroke="black" fill="green"/>
  <circle cx="598.75" cy="454.821" r="5.05167" stroke-width="0.5" stroke="black" fill="green"/>
   </g>
   <g id="cell47">
  <circle cx="515.293" cy="539.253" r="8.41271" stroke-width="0.5" stroke="black" fill="green"/>
  <circle cx="515.293" cy="539.253" r="5.05167" stroke-width="0.5" stroke="black" fill="green"/>
   </g>
   <g id="cell48">
  <circle cx="452.573" cy="383.833" r="8.41271" stroke-width="0.5" stroke="black" fill="green"/>
  <circle cx="452.573" cy="383.833" r="5.05167" stroke-width="0.5" stroke="black" fill="green"/>
   </g>
   <g id="cell49">
  <circle cx="443.978" cy="638.738" r="8.41271" stroke-width="0.5" stroke="black" fill="green"/>
  <circle cx="443.978" cy="638.738" r="5.05167" stroke-width="0.5" stroke="black" fill="green"/>
   </g>
   <g id="cell50">
  <circle cx="543.804" cy="563.85" r="8.32788" stroke-width="0.5" stroke="black" fill="cyan"/>
  <circle cx="543.804" cy="563.85" r="5.01729" stroke-width="0.5" stroke="black" fill="cyan"/>
   </g>
   <g id="cell51">
  <circle cx="548.574" cy="594.18" r="8.41271" stroke-width="0.5" stroke="black" fill="cyan"/>
  <circle cx="548.574" cy="594.18" r="5.05167" stroke-width="0.5" stroke="black" fill="cyan"/>
   </g>
   <g id="cell52">
  <circle cx="421.241" cy="469.093" r="8.37537" stroke-width="0.5" stroke="black" fill="cyan"/>
  <circle cx="421.241" cy="469.093" r="5.03798" stroke-width="0.5" stroke="black" fill="cyan"/>
   </g>
   <g id="cell53">
  <circle cx="543.153" cy="527.749" r="8.41271" stroke-width="0.5" stroke="black" fill="cyan"/>
  <circle cx="543.153" cy="527.749" r="5.05167" stroke-width="0.5" stroke="black" fill="cyan"/>
   </g>
   <g id="cell54">
  <circle cx="587.476" cy="396.866" r="8.41271" stroke-width="0.5" stroke="black" fill="cyan"/>
  <circle cx="587.476" cy="396.866" r="5.05167" stroke-width="0.5" stroke="black" fill="cyan"/>
   </g>
   <g id="cell55">
  <circle cx="524.219" cy="388.359" r="8.41271" stroke-width="0.5" stroke="black" fill="cyan"/>
  <circle cx="524.219" cy="388.359" r="5.05167" stroke-width="0.5" stroke="black" fill="cyan"/>
   </g>
   <g id="cell56">
  <circle cx="610.675" cy="476.342" r="8.41271" stroke-width="0.5" stroke="black" fill="cyan"/>
  <circle cx="610.675" cy="476.342" r="5.05167" stroke-width="0.5" stroke="black" fill="cyan"/>
   </g>
   <g id="cell57">
  <circle cx="533.017" cy="589.023" r="8.28548" stroke-width="0.5" stroke="black" fill="cyan"/>
  <circle cx="533.017" cy="589.023" r="5.00009" stroke-width="0.5" stroke="black" fill="cyan"/>
   </g>
   <g id="cell58">
  <circle cx="514.146" cy="458.699" r="6.80881" stroke-width="0.5" stroke="black" fill="cyan"/>
  <circle cx="514.146" cy="458.699" r="4.10709" stroke-width="0.5" stroke="black" fill="cyan"/>
   </g>
   <g id="cell59">
  <circle cx="517.731" cy="584.316" r="8.3031" stroke-width="0.5" stroke="black" fill="cyan"/>
  <circle cx="517.731" cy="584.316" r="5.00583" stroke-width="0.5" stroke="black" fill="cyan"/>
   </g>
   <g id="cell60">
  <circle cx="518.853" cy="429.296" r="8.04604" stroke-width="0.5" stroke="black" fill="cyan"/>
  <circle cx="518.853" cy="429.296" r="4.87399" stroke-width="0.5" stroke="black" fill="cyan"/>
   </g>
   <g id="cell61">
  <circle cx="643.695" cy="520.971" r="8.41271" stroke-width="0.5" stroke="black" fill="cyan"/>
  <circle cx="643.695" cy="520.971" r="5.05167" stroke-width="0.5" stroke="black" fill="cyan"/>
   </g>
   <g id="cell62">
  <circle cx="532.533" cy="362.003" r="8.41271" stroke-width="0.5" stroke="black" fill="cyan"/>
  <circle cx="532.533" cy="362.003" r="5.05167" stroke-width="0.5" stroke="black" fill="cyan"/>
   </g>
   <g id="cell63">
  <circle cx="575.422" cy="544.353" r="8.15353" stroke-width="0.5" stroke="black" fill="cyan"/>
  <circle cx="575.422" cy="544.353" r="4.93122" stroke-width="0.5" stroke="black" fill="cyan"/>
   </g>
   <g id="cell64">
  <circle cx="403.014" cy="601.349" r="8.41271" stroke-width="0.5" stroke="black" fill="cyan"/>
  <circle cx="403.014" cy="601.349" r="5.05167" stroke-width="0.5" stroke="black" fill="cyan"/>
   </g>
   <g id="cell65">
  <circle cx="510.61" cy="487.344" r="8.41271" stroke-width="0.5" stroke="black" fill="cyan"/>
  <circle cx="510.61" cy="487.344" r="5.05167" stroke-width="0.5" stroke="black" fill="cyan"/>
   </g>
   <g id="cell66">
  <circle cx="517.104" cy="472.705" r="8.41271" stroke-width="0.5" stroke="black" fill="cyan"/>
  <circle cx="517.104" cy="472.705" r="5.05167" stroke-width="0.5" stroke="black" fill="cyan"/>
   </g>
   <g id="cell67">
  <circle cx="434.087" cy="427" r="8.41271" stroke-width="0.5" stroke="black" fill="cyan"/>
  <circle cx="434.087" cy="427" r="5.05167" stroke-width="0.5" stroke="black" fill="cyan"/>
   </g>
   <g id="cell68">
  <circle cx="400.811" cy="490.219" r="8.41271" stroke-width="0.5" stroke="black" fill="cyan"/>
  <circle cx="400.811" cy="490.219" r="5.05167" stroke-width="0.5" stroke="black" fill="cyan"/>
   </g>
   <g id="cell69">
  <circle cx="602.787" cy="439.279" r="8.38206" stroke-width="0.5" stroke="black" fill="cyan"/>
  <circle cx="602.787" cy="439.279" r="5.04069" stroke-width="0.5" stroke="black" fill="cyan"/>
   </g>
   <g id="cell70">
  <circle cx="377.929" cy="439.797" r="8.41271" stroke-width="0.5" stroke="black" fill="cyan"/>
  <circle cx="377.929" cy="439.797" r="5.05167" stroke-width="0.5" stroke="black" fill="cyan"/>
   </g>
   <g id="cell71">
  <circle cx="403.422" cy="506.092" r="8.41271" stroke-width="0.5" stroke="black" fill="cyan"/>
  <circle cx="403.422" cy="506.092" r="5.05167" stroke-width="0.5" stroke="black" fill="cyan"/>
   </g>
   <g id="cell72">
  <circle cx="618.197" cy="434.936" r="8.41271" stroke-width="0.5" stroke="black" fill="cyan"/>
  <circle cx="618.197" cy="434.936" r="5.05167" stroke-width="0.5" stroke="black" fill="cyan"/>
   </g>
   <g id="cell73">
  <circle cx="420.433" cy="518.773" r="8.11327" stroke-width="0.5" stroke="black" fill="cyan"/>
  <circle cx="420.433" cy="518.773" r="4.91006" stroke-width="0.5" stroke="black" fill="cyan"/>
   </g>
   <g id="cell74">
  <circle cx="435.982" cy="485.758" r="8.41271" stroke-width="0.5" stroke="black" fill="cyan"/>
  <circle cx="435.982" cy="485.758" r="5.05167" stroke-width="0.5" stroke="black" fill="cyan"/>
   </g>
   <g id="cell75">
  <circle cx="463.885" cy="596.167" r="8.0709" stroke-width="0.5" stroke="black" fill="green"/>
  <circle cx="463.885" cy="596.167" r="4.8901" stroke-width="0.5" stroke="black" fill="green"/>
   </g>
   <g id="cell76">
  <circle cx="607.055" cy="423.735" r="8.38206" stroke-width="0.5" stroke="black" fill="cyan"/>
  <circle cx="607.055" cy="423.735" r="5.04069" stroke-width="0.5" stroke="black" fill="cyan"/>
   </g>
   <g id="cell77">
  <circle cx="462.049" cy="530.306" r="8.20095" stroke-width="0.5" stroke="black" fill="green"/>
  <circle cx="462.049" cy="530.306" r="4.95811" stroke-width="0.5" stroke="black" fill="green"/>
   </g>
   <g id="cell78">
  <circle cx="581.146" cy="409.691" r="6.93078" stroke-width="0.5" stroke="black" fill="green"/>
  <circle cx="581.146" cy="409.691" r="4.21774" stroke-width="0.5" stroke="black" fill="green"/>
   </g>
   <g id="cell79">
  <circle cx="415.512" cy="483.929" r="8.37537" stroke-width="0.5" stroke="black" fill="cyan"/>
  <circle cx="415.512" cy="483.929" r="5.03798" stroke-width="0.5" stroke="black" fill="cyan"/>
   </g>
   <g id="cell80">
  <circle cx="618.56" cy="511.234" r="8.37431" stroke-width="0.5" stroke="black" fill="magenta"/>
  <circle cx="618.56" cy="511.234" r="5.03754" stroke-width="0.5" stroke="black" fill="magenta"/>
   </g>
   <g id="cell81">
  <circle cx="438.372" cy="441.933" r="8.34511" stroke-width="0.5" stroke="black" fill="magenta"/>
  <circle cx="438.372" cy="441.933" r="5.02502" stroke-width="0.5" stroke="black" fill="magenta"/>
   </g>
   <g id="cell82">
  <circle cx="536.434" cy="604.431" r="8.33911" stroke-width="0.5" stroke="black" fill="cyan"/>
  <circle cx="536.434" cy="604.431" r="5.02235" stroke-width="0.5" stroke="black" fill="cyan"/>
   </g>
   <g id="cell83">
  <circle cx="484.597" cy="579.901" r="8.32788" stroke-width="0.5" stroke="black" fill="magenta"/>
  <circle cx="484.597" cy="579.901" r="5.01729" stroke-width="0.5" stroke="black" fill="magenta"/>
   </g>
   <g id="cell84">
  <circle cx="544.959" cy="579.184" r="8.06787" stroke-width="0.5" stroke="black" fill="cyan"/>
  <circle cx="544.959" cy="579.184" r="4.89151" stroke-width="0.5" stroke="black" fill="cyan"/>
   </g>
   <g id="cell85">
  <circle cx="530.617" cy="573.364" r="8.28548" stroke-width="0.5" stroke="black" fill="cyan"/>
  <circle cx="530.617" cy="573.364" r="5.00009" stroke-width="0.5" stroke="black" fill="cyan"/>
   </g>
   <g id="cell86">
  <circle cx="648.247" cy="506.182" r="8.3031" stroke-width="0.5" stroke="black" fill="magenta"/>
  <circle cx="648.247" cy="506.182" r="5.00583" stroke-width="0.5" stroke="black" fill="magenta"/>
   </g>
   <g id="cell87">
  <circle cx="572.626" cy="429.177" r="6.71104" stroke-width="0.5" stroke="black" fill="green"/>
  <circle cx="572.626" cy="429.177" r="4.06655" stroke-width="0.5" stroke="black" fill="green"/>
   </g>
   <g id="cell88">
  <circle cx="521.255" cy="599.645" r="8.3031" stroke-width="0.5" stroke="black" fill="cyan"/>
  <circle cx="521.255" cy="599.645" r="5.00583" stroke-width="0.5" stroke="black" fill="cyan"/>
   </g>
   <g id="cell89">
  <circle cx="556.663" cy="464.74" r="8.23444" stroke-width="0.5" stroke="black" fill="magenta"/>
  <circle cx="556.663" cy="464.74" r="4.97252" stroke-width="0.5" stroke="black" fill="magenta"/>
   </g>
   <g id="cell90">
  <circle cx="474.425" cy="539.759" r="8.20095" stroke-width="0.5" stroke="black" fill="green"/>
  <circle cx="474.425" cy="539.759" r="4.95811" stroke-width="0.5" stroke="black" fill="green"/>
   </g>
   <g id="cell91">
  <circle cx="420.519" cy="540.241" r="8.21273" stroke-width="0.5" stroke="black" fill="magenta"/>
  <circle cx="420.519" cy="540.241" r="4.96162" stroke-width="0.5" stroke="black" fill="magenta"/>
   </g>
   <g id="cell92">
  <circle cx="564.22" cy="534.897" r="7.40986" stroke-width="0.5" stroke="black" fill="cyan"/>
  <circle cx="564.22" cy="534.897" r="4.52538" stroke-width="0.5" stroke="black" fill="cyan"/>
   </g>
   <g id="cell93">
  <circle cx="424.954" cy="494.792" r="6.87666" stroke-width="0.5" stroke="black" fill="cyan"/>
  <circle cx="424.954" cy="494.792" r="4.19836" stroke-width="0.5" stroke="black" fill="cyan"/>
   </g>
   <g id="cell94">
  <circle cx="557.959" cy="571.317" r="8.06787" stroke-width="0.5" stroke="black" fill="cyan"/>
  <circle cx="557.959" cy="571.317" r="4.89151" stroke-width="0.5" stroke="black" fill="cyan"/>
   </g>
   <g id="cell95">
  <circle cx="588.473" cy="552.395" r="8.09544" stroke-width="0.5" stroke="black" fill="green"/>
  <circle cx="588.473" cy="552.395" r="4.90058" stroke-width="0.5" stroke="black" fill="green"/>
   </g>
   <g id="cell96">
  <circle cx="465.812" cy="581.702" r="7.43248" stroke-width="0.5" stroke="black" fill="green"/>
  <circle cx="465.812" cy="581.702" r="4.54325" stroke-width="0.5" stroke="black" fill="green"/>
   </g>
   <g id="cell97">
  <circle cx="624.26" cy="497.657" r="8.01742" stroke-width="0.5" stroke="black" fill="magenta"/>
  <circle cx="624.26" cy="497.657" r="4.86554" stroke-width="0.5" stroke="black" fill="magenta"/>
   </g>
   <g id="cell98">
  <circle cx="391.458" cy="580.858" r="8.06667" stroke-width="0.5" stroke="black" fill="magenta"/>
  <circle cx="391.458" cy="580.858" r="4.88515" stroke-width="0.5" stroke="black" fill="magenta"/>
   </g>
   <g id="cell99">
  <circle cx="530.18" cy="439.624" r="8.04604" stroke-width="0.5" stroke="black" fill="cyan"/>
  <circle cx="530.18" cy="439.624" r="4.87399" stroke-width="0.5" stroke="black" fill="cyan"/>
   </g>
   <g id="cell100">
  <circle cx="468.466" cy="567.371" r="8.04604" stroke-width="0.5" stroke="black" fill="green"/>
  <circle cx="468.466" cy="567.371" r="4.87399" stroke-width="0.5" stroke="black" fill="green"/>
   </g>
   <g id="cell101">
  <circle cx="608.536" cy="594.473" r="7.26204" stroke-width="0.5" stroke="black" fill="green"/>
  <circle cx="608.536" cy="594.473" r="4.44414" stroke-width="0.5" stroke="black" fill="green"/>
   </g>
   <g id="cell102">
  <circle cx="406.584" cy="565.002" r="7.95045" stroke-width="0.5" stroke="black" fill="magenta"/>
  <circle cx="406.584" cy="565.002" r="4.82139" stroke-width="0.5" stroke="black" fill="magenta"/>
   </g>
   <g id="cell103">
  <circle cx="538.288" cy="393.608" r="7.70049" stroke-width="0.5" stroke="black" fill="magenta"/>
  <circle cx="538.288" cy="393.608" r="4.67828" stroke-width="0.5" stroke="black" fill="magenta"/>
   </g>
   <g id="cell104">
  <circle cx="494.036" cy="590.786" r="7.6077" stroke-width="0.5" stroke="black" fill="magenta"/>
  <circle cx="494.036" cy="590.786" r="4.6325" stroke-width="0.5" stroke="black" fill="magenta"/>
   </g>
   <g id="cell105">
  <circle cx="451.866" cy="579.455" r="7.43248" stroke-width="0.5" stroke="black" fill="green"/>
  <circle cx="451.866" cy="579.455" r="4.54325" stroke-width="0.5" stroke="black" fill="green"/>
   </g>
   <g id="cell106">
  <circle cx="562.731" cy="520.981" r="7.40986" stroke-width="0.5" stroke="black" fill="cyan"/>
  <circle cx="562.731" cy="520.981" r="4.52538" stroke-width="0.5" stroke="black" fill="cyan"/>
   </g>
   <g id="cell107">
  <circle cx="595.221" cy="597.961" r="7.26204" stroke-width="0.5" stroke="black" fill="green"/>
  <circle cx="595.221" cy="597.961" r="4.44414" stroke-width="0.5" stroke="black" fill="green"/>
   </g>
   <g id="cell108">
  <circle cx="520.752" cy="411.832" r="6.93727" stroke-width="0.5" stroke="black" fill="magenta"/>
  <circle cx="520.752" cy="411.832" r="4.25375" stroke-width="0.5" stroke="black" fill="magenta"/>
   </g>
   <g id="cell109">
  <circle cx="417.591" cy="505.132" r="6.87666" stroke-width="0.5" stroke="black" fill="cyan"/>
  <circle cx="417.591" cy="505.132" r="4.19836" stroke-width="0.5" stroke="black" fill="cyan"/>
   </g>
   <g id="cell110">
  <circle cx="503.54" cy="616.804" r="7.08639" stroke-width="0.5" stroke="black" fill="green"/>
  <circle cx="503.54" cy="616.804" r="4.29876" stroke-width="0.5" stroke="black" fill="green"/>
   </g>
   <g id="cell111">
  <circle cx="570.517" cy="416.766" r="6.93078" stroke-width="0.5" stroke="black" fill="green"/>
  <circle cx="570.517" cy="416.766" r="4.21774" stroke-width="0.5" stroke="black" fill="green"/>
   </g>
   <g id="cell112">
  <circle cx="502.444" cy="453.995" r="6.80881" stroke-width="0.5" stroke="black" fill="cyan"/>
  <circle cx="502.444" cy="453.995" r="4.10709" stroke-width="0.5" stroke="black" fill="cyan"/>
   </g>
   <g id="cell113">
  <circle cx="583.581" cy="435.02" r="6.71104" stroke-width="0.5" stroke="black" fill="green"/>
  <circle cx="583.581" cy="435.02" r="4.06655" stroke-width="0.5" stroke="black" fill="green"/>
   </g>
   <g id="cell114">
  <circle cx="583.176" cy="422.235" r="6.80881" stroke-width="0.5" stroke="black" fill="magenta"/>
  <circle cx="583.176" cy="422.235" r="4.10709" stroke-width="0.5" stroke="black" fill="magenta"/>
   </g>
   <g id="cell115">
  <circle cx="598.884" cy="610.354" r="6.39879" stroke-width="0.5" stroke="black" fill="green"/>
  <circle cx="598.884" cy="610.354" r="3.8901" stroke-width="0.5" stroke="black" fill="green"/>
   </g>
  </g>
 </g>
  <rect x="775" y="1035" width="200" height="10" stroke-width="2" stroke="rgb(255,255,255)" fill="rgb(0,0,0)"/>
  <text x="781.25" y="1028.75"
   font-family="Arial" font-size="25" fill="black" >
   200 &#956;m
  </text>
  <text x="25" y="1045"
   font-family="Arial" font-size="18.75" fill="black" >
   0 days, 0 hours, 0 minutes, and 17.4425 seconds
  </text>
  <rect x="0" y="70" width="1000" height="1000" stroke-width="2" stroke="rgb(0,0,0)" fill="none"/>
</svg>
