<?xml version="1.0" encoding="UTF-8" standalone="no"?>
<!-- Created with PhysiCell (http://PhysiCell.MathCancer.org/) -->
<svg 
 xmlns:dc="http://purl.org/dc/elements/1.1/" 
 xmlns:cc="http://creativecommons.org/ns#" 
 xmlns:rdf="http://www.w3.org/1999/02/22-rdf-syntax-ns#" 
 xmlns:svg="http://www.w3.org/2000/svg" 
 xmlns="http://www.w3.org/2000/svg" 
 version="1.1" 
 width="1000" 
 height="1070" 
 id="svg2">
  <rect x="0" y="0" width="1000" height="1070" stroke-width="2" stroke="white" fill="white"/>
  <text x="12.5" y="30"
   font-family="Arial" font-size="25" fill="black" >
   Current time: 0 days, 13 hours, and 54.00 minutes, z = 0.00 &#956;m
  </text>
  <text x="12.5" y="57.5"
   font-family="Arial" font-size="23.75" fill="black" >
   117 agents
  </text>
 <g id="tissue" 
    transform="translate(0,1070) scale(1,-1)">
  <g id="ECM">
  </g>
  <g id="cells">
   <g id="cell0">
  <circle cx="516.016" cy="534.176" r="8.26262" stroke-width="0.5" stroke="black" fill="magenta"/>
  <circle cx="516.016" cy="534.176" r="4.98642" stroke-width="0.5" stroke="black" fill="magenta"/>
   </g>
   <g id="cell1">
  <circle cx="602.492" cy="526.171" r="8.41271" stroke-width="0.5" stroke="black" fill="magenta"/>
  <circle cx="602.492" cy="526.171" r="5.05167" stroke-width="0.5" stroke="black" fill="magenta"/>
   </g>
   <g id="cell2">
  <circle cx="514.578" cy="599.322" r="8.41271" stroke-width="0.5" stroke="black" fill="magenta"/>
  <circle cx="514.578" cy="599.322" r="5.05167" stroke-width="0.5" stroke="black" fill="magenta"/>
   </g>
   <g id="cell3">
  <circle cx="523.996" cy="546.828" r="8.1645" stroke-width="0.5" stroke="black" fill="magenta"/>
  <circle cx="523.996" cy="546.828" r="4.94179" stroke-width="0.5" stroke="black" fill="magenta"/>
   </g>
   <g id="cell4">
  <circle cx="490.572" cy="437.42" r="8.35236" stroke-width="0.5" stroke="black" fill="magenta"/>
  <circle cx="490.572" cy="437.42" r="5.02821" stroke-width="0.5" stroke="black" fill="magenta"/>
   </g>
   <g id="cell5">
  <circle cx="465.032" cy="493.3" r="8.41271" stroke-width="0.5" stroke="black" fill="magenta"/>
  <circle cx="465.032" cy="493.3" r="5.05167" stroke-width="0.5" stroke="black" fill="magenta"/>
   </g>
   <g id="cell6">
  <circle cx="595.637" cy="512.669" r="8.41271" stroke-width="0.5" stroke="black" fill="magenta"/>
  <circle cx="595.637" cy="512.669" r="5.05167" stroke-width="0.5" stroke="black" fill="magenta"/>
   </g>
   <g id="cell7">
  <circle cx="504.202" cy="456.083" r="7.21189" stroke-width="0.5" stroke="black" fill="magenta"/>
  <circle cx="504.202" cy="456.083" r="4.37993" stroke-width="0.5" stroke="black" fill="magenta"/>
   </g>
   <g id="cell8">
  <circle cx="376.37" cy="542.339" r="8.41271" stroke-width="0.5" stroke="black" fill="magenta"/>
  <circle cx="376.37" cy="542.339" r="5.05167" stroke-width="0.5" stroke="black" fill="magenta"/>
   </g>
   <g id="cell9">
  <circle cx="460.472" cy="599.786" r="8.41271" stroke-width="0.5" stroke="black" fill="magenta"/>
  <circle cx="460.472" cy="599.786" r="5.05167" stroke-width="0.5" stroke="black" fill="magenta"/>
   </g>
   <g id="cell10">
  <circle cx="583.447" cy="392.105" r="8.41271" stroke-width="0.5" stroke="black" fill="magenta"/>
  <circle cx="583.447" cy="392.105" r="5.05167" stroke-width="0.5" stroke="black" fill="magenta"/>
   </g>
   <g id="cell11">
  <circle cx="590.905" cy="590.115" r="8.41271" stroke-width="0.5" stroke="black" fill="magenta"/>
  <circle cx="590.905" cy="590.115" r="5.05167" stroke-width="0.5" stroke="black" fill="magenta"/>
   </g>
   <g id="cell12">
  <circle cx="506.994" cy="586.44" r="8.41271" stroke-width="0.5" stroke="black" fill="magenta"/>
  <circle cx="506.994" cy="586.44" r="5.05167" stroke-width="0.5" stroke="black" fill="magenta"/>
   </g>
   <g id="cell13">
  <circle cx="386.194" cy="568.228" r="8.41271" stroke-width="0.5" stroke="black" fill="magenta"/>
  <circle cx="386.194" cy="568.228" r="5.05167" stroke-width="0.5" stroke="black" fill="magenta"/>
   </g>
   <g id="cell14">
  <circle cx="529.688" cy="399.249" r="8.41271" stroke-width="0.5" stroke="black" fill="magenta"/>
  <circle cx="529.688" cy="399.249" r="5.05167" stroke-width="0.5" stroke="black" fill="magenta"/>
   </g>
   <g id="cell15">
  <circle cx="379.65" cy="475.1" r="8.41271" stroke-width="0.5" stroke="black" fill="magenta"/>
  <circle cx="379.65" cy="475.1" r="5.05167" stroke-width="0.5" stroke="black" fill="magenta"/>
   </g>
   <g id="cell16">
  <circle cx="428.962" cy="413.19" r="8.41271" stroke-width="0.5" stroke="black" fill="magenta"/>
  <circle cx="428.962" cy="413.19" r="5.05167" stroke-width="0.5" stroke="black" fill="magenta"/>
   </g>
   <g id="cell17">
  <circle cx="570.178" cy="490.961" r="8.41271" stroke-width="0.5" stroke="black" fill="magenta"/>
  <circle cx="570.178" cy="490.961" r="5.05167" stroke-width="0.5" stroke="black" fill="magenta"/>
   </g>
   <g id="cell18">
  <circle cx="518.094" cy="389.516" r="8.41271" stroke-width="0.5" stroke="black" fill="magenta"/>
  <circle cx="518.094" cy="389.516" r="5.05167" stroke-width="0.5" stroke="black" fill="magenta"/>
   </g>
   <g id="cell19">
  <circle cx="459.024" cy="540.296" r="7.15384" stroke-width="0.5" stroke="black" fill="magenta"/>
  <circle cx="459.024" cy="540.296" r="4.36453" stroke-width="0.5" stroke="black" fill="magenta"/>
   </g>
   <g id="cell20">
  <circle cx="531.433" cy="414.309" r="8.41271" stroke-width="0.5" stroke="black" fill="magenta"/>
  <circle cx="531.433" cy="414.309" r="5.05167" stroke-width="0.5" stroke="black" fill="magenta"/>
   </g>
   <g id="cell21">
  <circle cx="464.368" cy="634.574" r="8.41271" stroke-width="0.5" stroke="black" fill="magenta"/>
  <circle cx="464.368" cy="634.574" r="5.05167" stroke-width="0.5" stroke="black" fill="magenta"/>
   </g>
   <g id="cell22">
  <circle cx="555.674" cy="495.572" r="8.41271" stroke-width="0.5" stroke="black" fill="magenta"/>
  <circle cx="555.674" cy="495.572" r="5.05167" stroke-width="0.5" stroke="black" fill="magenta"/>
   </g>
   <g id="cell23">
  <circle cx="544.228" cy="485.575" r="8.41271" stroke-width="0.5" stroke="black" fill="magenta"/>
  <circle cx="544.228" cy="485.575" r="5.05167" stroke-width="0.5" stroke="black" fill="magenta"/>
   </g>
   <g id="cell24">
  <circle cx="559.148" cy="380.296" r="8.41271" stroke-width="0.5" stroke="black" fill="magenta"/>
  <circle cx="559.148" cy="380.296" r="5.05167" stroke-width="0.5" stroke="black" fill="magenta"/>
   </g>
   <g id="cell25">
  <circle cx="645.678" cy="545.246" r="8.32032" stroke-width="0.5" stroke="black" fill="green"/>
  <circle cx="645.678" cy="545.246" r="5.01383" stroke-width="0.5" stroke="black" fill="green"/>
   </g>
   <g id="cell26">
  <circle cx="554.303" cy="398.278" r="7.18097" stroke-width="0.5" stroke="black" fill="green"/>
  <circle cx="554.303" cy="398.278" r="4.36015" stroke-width="0.5" stroke="black" fill="green"/>
   </g>
   <g id="cell27">
  <circle cx="463.617" cy="389.687" r="8.35568" stroke-width="0.5" stroke="black" fill="green"/>
  <circle cx="463.617" cy="389.687" r="5.02965" stroke-width="0.5" stroke="black" fill="green"/>
   </g>
   <g id="cell28">
  <circle cx="433.179" cy="530.707" r="8.41271" stroke-width="0.5" stroke="black" fill="green"/>
  <circle cx="433.179" cy="530.707" r="5.05167" stroke-width="0.5" stroke="black" fill="green"/>
   </g>
   <g id="cell29">
  <circle cx="450.462" cy="515.965" r="8.41271" stroke-width="0.5" stroke="black" fill="green"/>
  <circle cx="450.462" cy="515.965" r="5.05167" stroke-width="0.5" stroke="black" fill="green"/>
   </g>
   <g id="cell30">
  <circle cx="481.028" cy="534.538" r="8.18177" stroke-width="0.5" stroke="black" fill="green"/>
  <circle cx="481.028" cy="534.538" r="4.94584" stroke-width="0.5" stroke="black" fill="green"/>
   </g>
   <g id="cell31">
  <circle cx="412.805" cy="541.543" r="8.41271" stroke-width="0.5" stroke="black" fill="green"/>
  <circle cx="412.805" cy="541.543" r="5.05167" stroke-width="0.5" stroke="black" fill="green"/>
   </g>
   <g id="cell32">
  <circle cx="421.394" cy="481.594" r="8.09544" stroke-width="0.5" stroke="black" fill="green"/>
  <circle cx="421.394" cy="481.594" r="4.90058" stroke-width="0.5" stroke="black" fill="green"/>
   </g>
   <g id="cell33">
  <circle cx="498.293" cy="423.963" r="8.41271" stroke-width="0.5" stroke="black" fill="green"/>
  <circle cx="498.293" cy="423.963" r="5.05167" stroke-width="0.5" stroke="black" fill="green"/>
   </g>
   <g id="cell34">
  <circle cx="397.088" cy="450.831" r="8.41271" stroke-width="0.5" stroke="black" fill="green"/>
  <circle cx="397.088" cy="450.831" r="5.05167" stroke-width="0.5" stroke="black" fill="green"/>
   </g>
   <g id="cell35">
  <circle cx="552.715" cy="541.127" r="8.41271" stroke-width="0.5" stroke="black" fill="green"/>
  <circle cx="552.715" cy="541.127" r="5.05167" stroke-width="0.5" stroke="black" fill="green"/>
   </g>
   <g id="cell36">
  <circle cx="391.486" cy="582.903" r="8.41271" stroke-width="0.5" stroke="black" fill="green"/>
  <circle cx="391.486" cy="582.903" r="5.05167" stroke-width="0.5" stroke="black" fill="green"/>
   </g>
   <g id="cell37">
  <circle cx="639.811" cy="457.323" r="8.347" stroke-width="0.5" stroke="black" fill="green"/>
  <circle cx="639.811" cy="457.323" r="5.02586" stroke-width="0.5" stroke="black" fill="green"/>
   </g>
   <g id="cell38">
  <circle cx="529.632" cy="597.344" r="8.33481" stroke-width="0.5" stroke="black" fill="green"/>
  <circle cx="529.632" cy="597.344" r="5.02043" stroke-width="0.5" stroke="black" fill="green"/>
   </g>
   <g id="cell39">
  <circle cx="613.458" cy="490.595" r="8.41271" stroke-width="0.5" stroke="black" fill="green"/>
  <circle cx="613.458" cy="490.595" r="5.05167" stroke-width="0.5" stroke="black" fill="green"/>
   </g>
   <g id="cell40">
  <circle cx="485.348" cy="571.779" r="8.41271" stroke-width="0.5" stroke="black" fill="green"/>
  <circle cx="485.348" cy="571.779" r="5.05167" stroke-width="0.5" stroke="black" fill="green"/>
   </g>
   <g id="cell41">
  <circle cx="364.925" cy="480.252" r="8.41271" stroke-width="0.5" stroke="black" fill="green"/>
  <circle cx="364.925" cy="480.252" r="5.05167" stroke-width="0.5" stroke="black" fill="green"/>
   </g>
   <g id="cell42">
  <circle cx="438.842" cy="494.268" r="8.41271" stroke-width="0.5" stroke="black" fill="green"/>
  <circle cx="438.842" cy="494.268" r="5.05167" stroke-width="0.5" stroke="black" fill="green"/>
   </g>
   <g id="cell43">
  <circle cx="563.161" cy="441.377" r="8.41271" stroke-width="0.5" stroke="black" fill="green"/>
  <circle cx="563.161" cy="441.377" r="5.05167" stroke-width="0.5" stroke="black" fill="green"/>
   </g>
   <g id="cell44">
  <circle cx="475.857" cy="624.021" r="8.41271" stroke-width="0.5" stroke="black" fill="green"/>
  <circle cx="475.857" cy="624.021" r="5.05167" stroke-width="0.5" stroke="black" fill="green"/>
   </g>
   <g id="cell45">
  <circle cx="414.905" cy="556.716" r="4.90029" stroke-width="0.5" stroke="black" fill="green"/>
  <circle cx="414.905" cy="556.716" r="3.29037" stroke-width="0.5" stroke="black" fill="black"/>
   </g>
   <g id="cell46">
  <circle cx="523.79" cy="611.487" r="7.86286" stroke-width="0.5" stroke="black" fill="green"/>
  <circle cx="523.79" cy="611.487" r="4.77207" stroke-width="0.5" stroke="black" fill="green"/>
   </g>
   <g id="cell47">
  <circle cx="503.935" cy="502.775" r="8.07654" stroke-width="0.5" stroke="black" fill="green"/>
  <circle cx="503.935" cy="502.775" r="4.89046" stroke-width="0.5" stroke="black" fill="green"/>
   </g>
   <g id="cell48">
  <circle cx="569.936" cy="603.167" r="7.06384" stroke-width="0.5" stroke="black" fill="green"/>
  <circle cx="569.936" cy="603.167" r="4.33061" stroke-width="0.5" stroke="black" fill="green"/>
   </g>
   <g id="cell49">
  <circle cx="429.966" cy="397.613" r="8.41271" stroke-width="0.5" stroke="black" fill="green"/>
  <circle cx="429.966" cy="397.613" r="5.05167" stroke-width="0.5" stroke="black" fill="green"/>
   </g>
   <g id="cell50">
  <circle cx="513.186" cy="515.346" r="6.73298" stroke-width="0.5" stroke="black" fill="cyan"/>
  <circle cx="513.186" cy="515.346" r="4.08251" stroke-width="0.5" stroke="black" fill="cyan"/>
   </g>
   <g id="cell51">
  <circle cx="398.721" cy="597.201" r="8.41271" stroke-width="0.5" stroke="black" fill="cyan"/>
  <circle cx="398.721" cy="597.201" r="5.05167" stroke-width="0.5" stroke="black" fill="cyan"/>
   </g>
   <g id="cell52">
  <circle cx="518.571" cy="423.072" r="8.41271" stroke-width="0.5" stroke="black" fill="cyan"/>
  <circle cx="518.571" cy="423.072" r="5.05167" stroke-width="0.5" stroke="black" fill="cyan"/>
   </g>
   <g id="cell53">
  <circle cx="573.516" cy="430.072" r="7.95045" stroke-width="0.5" stroke="black" fill="cyan"/>
  <circle cx="573.516" cy="430.072" r="4.82139" stroke-width="0.5" stroke="black" fill="cyan"/>
   </g>
   <g id="cell54">
  <circle cx="482.547" cy="424.357" r="8.13813" stroke-width="0.5" stroke="black" fill="cyan"/>
  <circle cx="482.547" cy="424.357" r="4.92317" stroke-width="0.5" stroke="black" fill="cyan"/>
   </g>
   <g id="cell55">
  <circle cx="524.388" cy="463.3" r="7.97235" stroke-width="0.5" stroke="black" fill="cyan"/>
  <circle cx="524.388" cy="463.3" r="4.83953" stroke-width="0.5" stroke="black" fill="cyan"/>
   </g>
   <g id="cell56">
  <circle cx="617.613" cy="522.333" r="8.41271" stroke-width="0.5" stroke="black" fill="cyan"/>
  <circle cx="617.613" cy="522.333" r="5.05167" stroke-width="0.5" stroke="black" fill="cyan"/>
   </g>
   <g id="cell105">
  <circle cx="507.923" cy="610.276" r="6.24075" stroke-width="0.5" stroke="black" fill="green"/>
  <circle cx="507.923" cy="610.276" r="3.7876" stroke-width="0.5" stroke="black" fill="green"/>
   </g>
   <g id="cell58">
  <circle cx="558.912" cy="480.348" r="8.41271" stroke-width="0.5" stroke="black" fill="cyan"/>
  <circle cx="558.912" cy="480.348" r="5.05167" stroke-width="0.5" stroke="black" fill="cyan"/>
   </g>
   <g id="cell59">
  <circle cx="385.463" cy="439.803" r="8.41271" stroke-width="0.5" stroke="black" fill="cyan"/>
  <circle cx="385.463" cy="439.803" r="5.05167" stroke-width="0.5" stroke="black" fill="cyan"/>
   </g>
   <g id="cell60">
  <circle cx="592.503" cy="473.736" r="8.41271" stroke-width="0.5" stroke="black" fill="cyan"/>
  <circle cx="592.503" cy="473.736" r="5.05167" stroke-width="0.5" stroke="black" fill="cyan"/>
   </g>
   <g id="cell61">
  <circle cx="552.173" cy="620.241" r="8.41271" stroke-width="0.5" stroke="black" fill="cyan"/>
  <circle cx="552.173" cy="620.241" r="5.05167" stroke-width="0.5" stroke="black" fill="cyan"/>
   </g>
   <g id="cell62">
  <circle cx="515.11" cy="446.858" r="8.35727" stroke-width="0.5" stroke="black" fill="cyan"/>
  <circle cx="515.11" cy="446.858" r="5.03034" stroke-width="0.5" stroke="black" fill="cyan"/>
   </g>
   <g id="cell63">
  <circle cx="573.254" cy="541.571" r="8.24914" stroke-width="0.5" stroke="black" fill="cyan"/>
  <circle cx="573.254" cy="541.571" r="4.97981" stroke-width="0.5" stroke="black" fill="cyan"/>
   </g>
   <g id="cell64">
  <circle cx="509.963" cy="636.798" r="8.41271" stroke-width="0.5" stroke="black" fill="cyan"/>
  <circle cx="509.963" cy="636.798" r="5.05167" stroke-width="0.5" stroke="black" fill="cyan"/>
   </g>
   <g id="cell65">
  <circle cx="546.873" cy="470.291" r="8.22925" stroke-width="0.5" stroke="black" fill="cyan"/>
  <circle cx="546.873" cy="470.291" r="4.96993" stroke-width="0.5" stroke="black" fill="cyan"/>
   </g>
   <g id="cell66">
  <circle cx="531.1" cy="533.429" r="8.1218" stroke-width="0.5" stroke="black" fill="cyan"/>
  <circle cx="531.1" cy="533.429" r="4.91457" stroke-width="0.5" stroke="black" fill="cyan"/>
   </g>
   <g id="cell67">
  <circle cx="354.711" cy="492.599" r="8.41271" stroke-width="0.5" stroke="black" fill="cyan"/>
  <circle cx="354.711" cy="492.599" r="5.05167" stroke-width="0.5" stroke="black" fill="cyan"/>
   </g>
   <g id="cell68">
  <circle cx="562.58" cy="553.342" r="8.41271" stroke-width="0.5" stroke="black" fill="cyan"/>
  <circle cx="562.58" cy="553.342" r="5.05167" stroke-width="0.5" stroke="black" fill="cyan"/>
   </g>
   <g id="cell69">
  <circle cx="442.048" cy="460.662" r="8.41271" stroke-width="0.5" stroke="black" fill="cyan"/>
  <circle cx="442.048" cy="460.662" r="5.05167" stroke-width="0.5" stroke="black" fill="cyan"/>
   </g>
   <g id="cell70">
  <circle cx="576.634" cy="476.695" r="8.41271" stroke-width="0.5" stroke="black" fill="cyan"/>
  <circle cx="576.634" cy="476.695" r="5.05167" stroke-width="0.5" stroke="black" fill="cyan"/>
   </g>
   <g id="cell71">
  <circle cx="379.641" cy="527.414" r="7.33129" stroke-width="0.5" stroke="black" fill="cyan"/>
  <circle cx="379.641" cy="527.414" r="4.45516" stroke-width="0.5" stroke="black" fill="cyan"/>
   </g>
   <g id="cell72">
  <circle cx="532.457" cy="511.69" r="8.14594" stroke-width="0.5" stroke="black" fill="cyan"/>
  <circle cx="532.457" cy="511.69" r="4.92726" stroke-width="0.5" stroke="black" fill="cyan"/>
   </g>
   <g id="cell73">
  <circle cx="364.49" cy="552.565" r="8.26685" stroke-width="0.5" stroke="black" fill="cyan"/>
  <circle cx="364.49" cy="552.565" r="4.98849" stroke-width="0.5" stroke="black" fill="cyan"/>
   </g>
   <g id="cell74">
  <circle cx="549.07" cy="442.097" r="7.18097" stroke-width="0.5" stroke="black" fill="cyan"/>
  <circle cx="549.07" cy="442.097" r="4.36015" stroke-width="0.5" stroke="black" fill="cyan"/>
   </g>
   <g id="cell75">
  <circle cx="527.432" cy="436.708" r="8.35727" stroke-width="0.5" stroke="black" fill="cyan"/>
  <circle cx="527.432" cy="436.708" r="5.03034" stroke-width="0.5" stroke="black" fill="cyan"/>
   </g>
   <g id="cell76">
  <circle cx="441.272" cy="382.691" r="7.49021" stroke-width="0.5" stroke="black" fill="green"/>
  <circle cx="441.272" cy="382.691" r="4.58012" stroke-width="0.5" stroke="black" fill="green"/>
   </g>
   <g id="cell77">
  <circle cx="476.157" cy="437.57" r="7.72374" stroke-width="0.5" stroke="black" fill="magenta"/>
  <circle cx="476.157" cy="437.57" r="4.69836" stroke-width="0.5" stroke="black" fill="magenta"/>
   </g>
   <g id="cell78">
  <circle cx="624.503" cy="460.997" r="8.19504" stroke-width="0.5" stroke="black" fill="green"/>
  <circle cx="624.503" cy="460.997" r="4.95642" stroke-width="0.5" stroke="black" fill="green"/>
   </g>
   <g id="cell79">
  <circle cx="517.758" cy="479.677" r="8.33911" stroke-width="0.5" stroke="black" fill="cyan"/>
  <circle cx="517.758" cy="479.677" r="5.02235" stroke-width="0.5" stroke="black" fill="cyan"/>
   </g>
   <g id="cell80">
  <circle cx="539.201" cy="610.741" r="8.29304" stroke-width="0.5" stroke="black" fill="green"/>
  <circle cx="539.201" cy="610.741" r="5.00354" stroke-width="0.5" stroke="black" fill="green"/>
   </g>
   <g id="cell81">
  <circle cx="545.108" cy="596.082" r="8.29304" stroke-width="0.5" stroke="black" fill="green"/>
  <circle cx="545.108" cy="596.082" r="5.00354" stroke-width="0.5" stroke="black" fill="green"/>
   </g>
   <g id="cell82">
  <circle cx="532.94" cy="559.007" r="8.32032" stroke-width="0.5" stroke="black" fill="magenta"/>
  <circle cx="532.94" cy="559.007" r="5.01383" stroke-width="0.5" stroke="black" fill="magenta"/>
   </g>
   <g id="cell83">
  <circle cx="634.534" cy="556.504" r="8.32032" stroke-width="0.5" stroke="black" fill="green"/>
  <circle cx="634.534" cy="556.504" r="5.01383" stroke-width="0.5" stroke="black" fill="green"/>
   </g>
   <g id="cell84">
  <circle cx="519.432" cy="502.819" r="8.27497" stroke-width="0.5" stroke="black" fill="cyan"/>
  <circle cx="519.432" cy="502.819" r="4.99242" stroke-width="0.5" stroke="black" fill="cyan"/>
   </g>
   <g id="cell85">
  <circle cx="352.9" cy="542.319" r="7.98795" stroke-width="0.5" stroke="black" fill="cyan"/>
  <circle cx="352.9" cy="542.319" r="4.85084" stroke-width="0.5" stroke="black" fill="cyan"/>
   </g>
   <g id="cell86">
  <circle cx="503.916" cy="525.432" r="8.26262" stroke-width="0.5" stroke="black" fill="magenta"/>
  <circle cx="503.916" cy="525.432" r="4.98642" stroke-width="0.5" stroke="black" fill="magenta"/>
   </g>
   <g id="cell87">
  <circle cx="577.408" cy="556.331" r="7.80157" stroke-width="0.5" stroke="black" fill="cyan"/>
  <circle cx="577.408" cy="556.331" r="4.74867" stroke-width="0.5" stroke="black" fill="cyan"/>
   </g>
   <g id="cell88">
  <circle cx="448.574" cy="531.276" r="8.23444" stroke-width="0.5" stroke="black" fill="magenta"/>
  <circle cx="448.574" cy="531.276" r="4.97252" stroke-width="0.5" stroke="black" fill="magenta"/>
   </g>
   <g id="cell89">
  <circle cx="553.697" cy="456.113" r="8.22925" stroke-width="0.5" stroke="black" fill="cyan"/>
  <circle cx="553.697" cy="456.113" r="4.96993" stroke-width="0.5" stroke="black" fill="cyan"/>
   </g>
   <g id="cell90">
  <circle cx="630.986" cy="475.177" r="8.19504" stroke-width="0.5" stroke="black" fill="green"/>
  <circle cx="630.986" cy="475.177" r="4.95642" stroke-width="0.5" stroke="black" fill="green"/>
   </g>
   <g id="cell91">
  <circle cx="547.745" cy="556.311" r="8.04539" stroke-width="0.5" stroke="black" fill="magenta"/>
  <circle cx="547.745" cy="556.311" r="4.88484" stroke-width="0.5" stroke="black" fill="magenta"/>
   </g>
   <g id="cell92">
  <circle cx="482.518" cy="550.034" r="8.18177" stroke-width="0.5" stroke="black" fill="green"/>
  <circle cx="482.518" cy="550.034" r="4.94584" stroke-width="0.5" stroke="black" fill="green"/>
   </g>
   <g id="cell93">
  <circle cx="538.477" cy="545.68" r="8.04539" stroke-width="0.5" stroke="black" fill="magenta"/>
  <circle cx="538.477" cy="545.68" r="4.88484" stroke-width="0.5" stroke="black" fill="magenta"/>
   </g>
   <g id="cell94">
  <circle cx="533.397" cy="496.324" r="8.14594" stroke-width="0.5" stroke="black" fill="cyan"/>
  <circle cx="533.397" cy="496.324" r="4.92726" stroke-width="0.5" stroke="black" fill="cyan"/>
   </g>
   <g id="cell95">
  <circle cx="467.105" cy="425.995" r="8.13813" stroke-width="0.5" stroke="black" fill="cyan"/>
  <circle cx="467.105" cy="425.995" r="4.92317" stroke-width="0.5" stroke="black" fill="cyan"/>
   </g>
   <g id="cell96">
  <circle cx="542.701" cy="523.324" r="8.1218" stroke-width="0.5" stroke="black" fill="cyan"/>
  <circle cx="542.701" cy="523.324" r="4.91457" stroke-width="0.5" stroke="black" fill="cyan"/>
   </g>
   <g id="cell97">
  <circle cx="421.855" cy="466.432" r="7.84074" stroke-width="0.5" stroke="black" fill="green"/>
  <circle cx="421.855" cy="466.432" r="4.77376" stroke-width="0.5" stroke="black" fill="green"/>
   </g>
   <g id="cell98">
  <circle cx="493.708" cy="514.189" r="8.07654" stroke-width="0.5" stroke="black" fill="green"/>
  <circle cx="493.708" cy="514.189" r="4.89046" stroke-width="0.5" stroke="black" fill="green"/>
   </g>
   <g id="cell99">
  <circle cx="358.165" cy="528.079" r="7.98795" stroke-width="0.5" stroke="black" fill="cyan"/>
  <circle cx="358.165" cy="528.079" r="4.85084" stroke-width="0.5" stroke="black" fill="cyan"/>
   </g>
   <g id="cell100">
  <circle cx="449.055" cy="395.141" r="7.98142" stroke-width="0.5" stroke="black" fill="green"/>
  <circle cx="449.055" cy="395.141" r="4.84355" stroke-width="0.5" stroke="black" fill="green"/>
   </g>
   <g id="cell101">
  <circle cx="532.649" cy="475.788" r="7.97235" stroke-width="0.5" stroke="black" fill="cyan"/>
  <circle cx="532.649" cy="475.788" r="4.83953" stroke-width="0.5" stroke="black" fill="cyan"/>
   </g>
   <g id="cell102">
  <circle cx="434.596" cy="474.183" r="7.84074" stroke-width="0.5" stroke="black" fill="green"/>
  <circle cx="434.596" cy="474.183" r="4.77376" stroke-width="0.5" stroke="black" fill="green"/>
   </g>
   <g id="cell103">
  <circle cx="577.91" cy="444.836" r="7.95045" stroke-width="0.5" stroke="black" fill="cyan"/>
  <circle cx="577.91" cy="444.836" r="4.82139" stroke-width="0.5" stroke="black" fill="cyan"/>
   </g>
   <g id="cell104">
  <circle cx="591.82" cy="553.57" r="7.80157" stroke-width="0.5" stroke="black" fill="cyan"/>
  <circle cx="591.82" cy="553.57" r="4.74867" stroke-width="0.5" stroke="black" fill="cyan"/>
   </g>
   <g id="cell106">
  <circle cx="462.516" cy="439.991" r="7.72374" stroke-width="0.5" stroke="black" fill="magenta"/>
  <circle cx="462.516" cy="439.991" r="4.69836" stroke-width="0.5" stroke="black" fill="magenta"/>
   </g>
   <g id="cell107">
  <circle cx="454.568" cy="377.672" r="7.49021" stroke-width="0.5" stroke="black" fill="green"/>
  <circle cx="454.568" cy="377.672" r="4.58012" stroke-width="0.5" stroke="black" fill="green"/>
   </g>
   <g id="cell108">
  <circle cx="556.424" cy="605.771" r="7.61469" stroke-width="0.5" stroke="black" fill="green"/>
  <circle cx="556.424" cy="605.771" r="4.62762" stroke-width="0.5" stroke="black" fill="green"/>
   </g>
   <g id="cell109">
  <circle cx="576.754" cy="591.784" r="7.06384" stroke-width="0.5" stroke="black" fill="green"/>
  <circle cx="576.754" cy="591.784" r="4.33061" stroke-width="0.5" stroke="black" fill="green"/>
   </g>
   <g id="cell110">
  <circle cx="374.056" cy="514.37" r="7.33129" stroke-width="0.5" stroke="black" fill="cyan"/>
  <circle cx="374.056" cy="514.37" r="4.45516" stroke-width="0.5" stroke="black" fill="cyan"/>
   </g>
   <g id="cell111">
  <circle cx="453.927" cy="552.08" r="7.15384" stroke-width="0.5" stroke="black" fill="magenta"/>
  <circle cx="453.927" cy="552.08" r="4.36453" stroke-width="0.5" stroke="black" fill="magenta"/>
   </g>
   <g id="cell112">
  <circle cx="510.982" cy="467.052" r="7.21189" stroke-width="0.5" stroke="black" fill="magenta"/>
  <circle cx="510.982" cy="467.052" r="4.37993" stroke-width="0.5" stroke="black" fill="magenta"/>
   </g>
   <g id="cell113">
  <circle cx="542.717" cy="405.412" r="7.18097" stroke-width="0.5" stroke="black" fill="green"/>
  <circle cx="542.717" cy="405.412" r="4.36015" stroke-width="0.5" stroke="black" fill="green"/>
   </g>
   <g id="cell114">
  <circle cx="527.819" cy="450.72" r="6.11877" stroke-width="0.5" stroke="black" fill="cyan"/>
  <circle cx="527.819" cy="450.72" r="3.74903" stroke-width="0.5" stroke="black" fill="cyan"/>
   </g>
   <g id="cell115">
  <circle cx="537.75" cy="445.971" r="6.11877" stroke-width="0.5" stroke="black" fill="cyan"/>
  <circle cx="537.75" cy="445.971" r="3.74903" stroke-width="0.5" stroke="black" fill="cyan"/>
   </g>
   <g id="cell116">
  <circle cx="523.432" cy="522.355" r="6.73298" stroke-width="0.5" stroke="black" fill="cyan"/>
  <circle cx="523.432" cy="522.355" r="4.08251" stroke-width="0.5" stroke="black" fill="cyan"/>
   </g>
   <g id="cell117">
  <circle cx="510.933" cy="620.957" r="6.24075" stroke-width="0.5" stroke="black" fill="green"/>
  <circle cx="510.933" cy="620.957" r="3.7876" stroke-width="0.5" stroke="black" fill="green"/>
   </g>
  </g>
 </g>
  <rect x="775" y="1035" width="200" height="10" stroke-width="2" stroke="rgb(255,255,255)" fill="rgb(0,0,0)"/>
  <text x="781.25" y="1028.75"
   font-family="Arial" font-size="25" fill="black" >
   200 &#956;m
  </text>
  <text x="25" y="1045"
   font-family="Arial" font-size="18.75" fill="black" >
   0 days, 0 hours, 0 minutes, and 15.9697 seconds
  </text>
  <rect x="0" y="70" width="1000" height="1000" stroke-width="2" stroke="rgb(0,0,0)" fill="none"/>
</svg>
