<?xml version="1.0" encoding="UTF-8" standalone="no"?>
<!-- Created with PhysiCell (http://PhysiCell.MathCancer.org/) -->
<svg 
 xmlns:dc="http://purl.org/dc/elements/1.1/" 
 xmlns:cc="http://creativecommons.org/ns#" 
 xmlns:rdf="http://www.w3.org/1999/02/22-rdf-syntax-ns#" 
 xmlns:svg="http://www.w3.org/2000/svg" 
 xmlns="http://www.w3.org/2000/svg" 
 version="1.1" 
 width="1000" 
 height="1070" 
 id="svg2">
  <rect x="0" y="0" width="1000" height="1070" stroke-width="2" stroke="white" fill="white"/>
  <text x="12.5" y="30"
   font-family="Arial" font-size="25" fill="black" >
   Current time: 1 days, 2 hours, and 30.00 minutes, z = 0.00 &#956;m
  </text>
  <text x="12.5" y="57.5"
   font-family="Arial" font-size="23.75" fill="black" >
   164 agents
  </text>
 <g id="tissue" 
    transform="translate(0,1070) scale(1,-1)">
  <g id="ECM">
  </g>
  <g id="cells">
   <g id="cell0">
  <circle cx="478.079" cy="406.241" r="6.86652" stroke-width="0.5" stroke="black" fill="magenta"/>
  <circle cx="478.079" cy="406.241" r="4.14883" stroke-width="0.5" stroke="black" fill="magenta"/>
   </g>
   <g id="cell1">
  <circle cx="634.373" cy="508.236" r="8.41067" stroke-width="0.5" stroke="black" fill="magenta"/>
  <circle cx="634.373" cy="508.236" r="5.05113" stroke-width="0.5" stroke="black" fill="magenta"/>
   </g>
   <g id="cell2">
  <circle cx="480.249" cy="494.221" r="8.41271" stroke-width="0.5" stroke="black" fill="magenta"/>
  <circle cx="480.249" cy="494.221" r="5.05167" stroke-width="0.5" stroke="black" fill="magenta"/>
   </g>
   <g id="cell3">
  <circle cx="449.944" cy="451.218" r="8.40915" stroke-width="0.5" stroke="black" fill="magenta"/>
  <circle cx="449.944" cy="451.218" r="5.05067" stroke-width="0.5" stroke="black" fill="magenta"/>
   </g>
   <g id="cell4">
  <circle cx="412.674" cy="561.383" r="7.89545" stroke-width="0.5" stroke="black" fill="magenta"/>
  <circle cx="412.674" cy="561.383" r="4.79324" stroke-width="0.5" stroke="black" fill="magenta"/>
   </g>
   <g id="cell5">
  <circle cx="391.456" cy="441.531" r="8.41271" stroke-width="0.5" stroke="black" fill="magenta"/>
  <circle cx="391.456" cy="441.531" r="5.05167" stroke-width="0.5" stroke="black" fill="magenta"/>
   </g>
   <g id="cell6">
  <circle cx="435.702" cy="544.42" r="8.40244" stroke-width="0.5" stroke="black" fill="magenta"/>
  <circle cx="435.702" cy="544.42" r="5.04843" stroke-width="0.5" stroke="black" fill="magenta"/>
   </g>
   <g id="cell7">
  <circle cx="605.737" cy="506.33" r="8.41271" stroke-width="0.5" stroke="black" fill="magenta"/>
  <circle cx="605.737" cy="506.33" r="5.05167" stroke-width="0.5" stroke="black" fill="magenta"/>
   </g>
   <g id="cell8">
  <circle cx="386.013" cy="502.203" r="8.41271" stroke-width="0.5" stroke="black" fill="magenta"/>
  <circle cx="386.013" cy="502.203" r="5.05167" stroke-width="0.5" stroke="black" fill="magenta"/>
   </g>
   <g id="cell9">
  <circle cx="526.399" cy="401.987" r="8.34396" stroke-width="0.5" stroke="black" fill="magenta"/>
  <circle cx="526.399" cy="401.987" r="5.02577" stroke-width="0.5" stroke="black" fill="magenta"/>
   </g>
   <g id="cell10">
  <circle cx="595.309" cy="430.069" r="8.32543" stroke-width="0.5" stroke="black" fill="magenta"/>
  <circle cx="595.309" cy="430.069" r="5.01617" stroke-width="0.5" stroke="black" fill="magenta"/>
   </g>
   <g id="cell11">
  <circle cx="518.696" cy="501.07" r="8.41271" stroke-width="0.5" stroke="black" fill="magenta"/>
  <circle cx="518.696" cy="501.07" r="5.05167" stroke-width="0.5" stroke="black" fill="magenta"/>
   </g>
   <g id="cell12">
  <circle cx="599.272" cy="401.077" r="6.95901" stroke-width="0.5" stroke="black" fill="magenta"/>
  <circle cx="599.272" cy="401.077" r="4.21341" stroke-width="0.5" stroke="black" fill="magenta"/>
   </g>
   <g id="cell13">
  <circle cx="639.582" cy="494.067" r="8.39285" stroke-width="0.5" stroke="black" fill="magenta"/>
  <circle cx="639.582" cy="494.067" r="5.04514" stroke-width="0.5" stroke="black" fill="magenta"/>
   </g>
   <g id="cell14">
  <circle cx="365.935" cy="435.757" r="8.41271" stroke-width="0.5" stroke="black" fill="magenta"/>
  <circle cx="365.935" cy="435.757" r="5.05167" stroke-width="0.5" stroke="black" fill="magenta"/>
   </g>
   <g id="cell15">
  <circle cx="379.172" cy="488.848" r="8.41271" stroke-width="0.5" stroke="black" fill="magenta"/>
  <circle cx="379.172" cy="488.848" r="5.05167" stroke-width="0.5" stroke="black" fill="magenta"/>
   </g>
   <g id="cell16">
  <circle cx="514.53" cy="411.331" r="8.27885" stroke-width="0.5" stroke="black" fill="magenta"/>
  <circle cx="514.53" cy="411.331" r="4.99429" stroke-width="0.5" stroke="black" fill="magenta"/>
   </g>
   <g id="cell17">
  <circle cx="379.135" cy="578.144" r="8.39523" stroke-width="0.5" stroke="black" fill="magenta"/>
  <circle cx="379.135" cy="578.144" r="5.04581" stroke-width="0.5" stroke="black" fill="magenta"/>
   </g>
   <g id="cell18">
  <circle cx="529.351" cy="462.649" r="8.41271" stroke-width="0.5" stroke="black" fill="magenta"/>
  <circle cx="529.351" cy="462.649" r="5.05167" stroke-width="0.5" stroke="black" fill="magenta"/>
   </g>
   <g id="cell19">
  <circle cx="488.08" cy="462.09" r="8.41271" stroke-width="0.5" stroke="black" fill="magenta"/>
  <circle cx="488.08" cy="462.09" r="5.05167" stroke-width="0.5" stroke="black" fill="magenta"/>
   </g>
   <g id="cell20">
  <circle cx="494.651" cy="539.545" r="8.25826" stroke-width="0.5" stroke="black" fill="magenta"/>
  <circle cx="494.651" cy="539.545" r="4.98429" stroke-width="0.5" stroke="black" fill="magenta"/>
   </g>
   <g id="cell21">
  <circle cx="507.408" cy="597.484" r="8.37313" stroke-width="0.5" stroke="black" fill="magenta"/>
  <circle cx="507.408" cy="597.484" r="5.03733" stroke-width="0.5" stroke="black" fill="magenta"/>
   </g>
   <g id="cell22">
  <circle cx="543.583" cy="467.782" r="8.40353" stroke-width="0.5" stroke="black" fill="magenta"/>
  <circle cx="543.583" cy="467.782" r="5.04881" stroke-width="0.5" stroke="black" fill="magenta"/>
   </g>
   <g id="cell23">
  <circle cx="572.06" cy="603.797" r="7.0545" stroke-width="0.5" stroke="black" fill="magenta"/>
  <circle cx="572.06" cy="603.797" r="4.27772" stroke-width="0.5" stroke="black" fill="magenta"/>
   </g>
   <g id="cell24">
  <circle cx="503.69" cy="500.964" r="8.41271" stroke-width="0.5" stroke="black" fill="magenta"/>
  <circle cx="503.69" cy="500.964" r="5.05167" stroke-width="0.5" stroke="black" fill="magenta"/>
   </g>
   <g id="cell25">
  <circle cx="446.278" cy="521.913" r="8.00101" stroke-width="0.5" stroke="black" fill="green"/>
  <circle cx="446.278" cy="521.913" r="4.84939" stroke-width="0.5" stroke="black" fill="green"/>
   </g>
   <g id="cell26">
  <circle cx="480.643" cy="594.651" r="8.41271" stroke-width="0.5" stroke="black" fill="green"/>
  <circle cx="480.643" cy="594.651" r="5.05167" stroke-width="0.5" stroke="black" fill="green"/>
   </g>
   <g id="cell27">
  <circle cx="431.62" cy="583.108" r="8.41121" stroke-width="0.5" stroke="black" fill="green"/>
  <circle cx="431.62" cy="583.108" r="5.05128" stroke-width="0.5" stroke="black" fill="green"/>
   </g>
   <g id="cell28">
  <circle cx="503.412" cy="436.127" r="8.41271" stroke-width="0.5" stroke="black" fill="green"/>
  <circle cx="503.412" cy="436.127" r="5.05167" stroke-width="0.5" stroke="black" fill="green"/>
   </g>
   <g id="cell29">
  <circle cx="591.417" cy="512.671" r="8.41271" stroke-width="0.5" stroke="black" fill="green"/>
  <circle cx="591.417" cy="512.671" r="5.05167" stroke-width="0.5" stroke="black" fill="green"/>
   </g>
   <g id="cell30">
  <circle cx="583.084" cy="618.538" r="8.30851" stroke-width="0.5" stroke="black" fill="green"/>
  <circle cx="583.084" cy="618.538" r="5.00972" stroke-width="0.5" stroke="black" fill="green"/>
   </g>
   <g id="cell31">
  <circle cx="470.528" cy="418.198" r="8.41271" stroke-width="0.5" stroke="black" fill="green"/>
  <circle cx="470.528" cy="418.198" r="5.05167" stroke-width="0.5" stroke="black" fill="green"/>
   </g>
   <g id="cell32">
  <circle cx="555.81" cy="429.522" r="6.73137" stroke-width="0.5" stroke="black" fill="green"/>
  <circle cx="555.81" cy="429.522" r="4.04999" stroke-width="0.5" stroke="black" fill="green"/>
   </g>
   <g id="cell33">
  <circle cx="591.894" cy="570.166" r="8.39664" stroke-width="0.5" stroke="black" fill="green"/>
  <circle cx="591.894" cy="570.166" r="5.04633" stroke-width="0.5" stroke="black" fill="green"/>
   </g>
   <g id="cell34">
  <circle cx="561.635" cy="587.601" r="7.7401" stroke-width="0.5" stroke="black" fill="green"/>
  <circle cx="561.635" cy="587.601" r="4.70142" stroke-width="0.5" stroke="black" fill="green"/>
   </g>
   <g id="cell35">
  <circle cx="476.03" cy="509.731" r="6.71158" stroke-width="0.5" stroke="black" fill="green"/>
  <circle cx="476.03" cy="509.731" r="4.03435" stroke-width="0.5" stroke="black" fill="green"/>
   </g>
   <g id="cell36">
  <circle cx="453.397" cy="566.151" r="7.0093" stroke-width="0.5" stroke="black" fill="green"/>
  <circle cx="453.397" cy="566.151" r="4.25173" stroke-width="0.5" stroke="black" fill="green"/>
   </g>
   <g id="cell37">
  <circle cx="489.61" cy="506.691" r="8.41271" stroke-width="0.5" stroke="black" fill="green"/>
  <circle cx="489.61" cy="506.691" r="5.05167" stroke-width="0.5" stroke="black" fill="green"/>
   </g>
   <g id="cell38">
  <circle cx="618.572" cy="450.936" r="8.41271" stroke-width="0.5" stroke="black" fill="green"/>
  <circle cx="618.572" cy="450.936" r="5.05167" stroke-width="0.5" stroke="black" fill="green"/>
   </g>
   <g id="cell39">
  <circle cx="432.887" cy="529.099" r="8.41271" stroke-width="0.5" stroke="black" fill="green"/>
  <circle cx="432.887" cy="529.099" r="5.05167" stroke-width="0.5" stroke="black" fill="green"/>
   </g>
   <g id="cell40">
  <circle cx="481.61" cy="609.482" r="7.81315" stroke-width="0.5" stroke="black" fill="green"/>
  <circle cx="481.61" cy="609.482" r="4.74367" stroke-width="0.5" stroke="black" fill="green"/>
   </g>
   <g id="cell41">
  <circle cx="595.98" cy="414.787" r="8.41271" stroke-width="0.5" stroke="black" fill="green"/>
  <circle cx="595.98" cy="414.787" r="5.05167" stroke-width="0.5" stroke="black" fill="green"/>
   </g>
   <g id="cell42">
  <circle cx="458.825" cy="513.083" r="8.41093" stroke-width="0.5" stroke="black" fill="green"/>
  <circle cx="458.825" cy="513.083" r="5.0512" stroke-width="0.5" stroke="black" fill="green"/>
   </g>
   <g id="cell43">
  <circle cx="354.587" cy="462.219" r="7.7401" stroke-width="0.5" stroke="black" fill="green"/>
  <circle cx="354.587" cy="462.219" r="4.70142" stroke-width="0.5" stroke="black" fill="green"/>
   </g>
   <g id="cell44">
  <circle cx="502.604" cy="467.723" r="8.41271" stroke-width="0.5" stroke="black" fill="green"/>
  <circle cx="502.604" cy="467.723" r="5.05167" stroke-width="0.5" stroke="black" fill="green"/>
   </g>
   <g id="cell45">
  <circle cx="490.366" cy="631.716" r="8.26205" stroke-width="0.5" stroke="black" fill="green"/>
  <circle cx="490.366" cy="631.716" r="4.98911" stroke-width="0.5" stroke="black" fill="green"/>
   </g>
   <g id="cell46">
  <circle cx="603.168" cy="455.16" r="8.41271" stroke-width="0.5" stroke="black" fill="green"/>
  <circle cx="603.168" cy="455.16" r="5.05167" stroke-width="0.5" stroke="black" fill="green"/>
   </g>
   <g id="cell47">
  <circle cx="509.67" cy="538.226" r="8.23444" stroke-width="0.5" stroke="black" fill="green"/>
  <circle cx="509.67" cy="538.226" r="4.97252" stroke-width="0.5" stroke="black" fill="green"/>
   </g>
   <g id="cell48">
  <circle cx="446.983" cy="383.735" r="7.86286" stroke-width="0.5" stroke="black" fill="green"/>
  <circle cx="446.983" cy="383.735" r="4.77207" stroke-width="0.5" stroke="black" fill="green"/>
   </g>
   <g id="cell49">
  <circle cx="443.978" cy="638.738" r="8.41271" stroke-width="0.5" stroke="black" fill="green"/>
  <circle cx="443.978" cy="638.738" r="5.05167" stroke-width="0.5" stroke="black" fill="green"/>
   </g>
   <g id="cell50">
  <circle cx="540.532" cy="562.507" r="8.40826" stroke-width="0.5" stroke="black" fill="cyan"/>
  <circle cx="540.532" cy="562.507" r="5.05039" stroke-width="0.5" stroke="black" fill="cyan"/>
   </g>
   <g id="cell51">
  <circle cx="547.903" cy="593.495" r="8.13813" stroke-width="0.5" stroke="black" fill="cyan"/>
  <circle cx="547.903" cy="593.495" r="4.92317" stroke-width="0.5" stroke="black" fill="cyan"/>
   </g>
   <g id="cell52">
  <circle cx="429.229" cy="456.848" r="8.12902" stroke-width="0.5" stroke="black" fill="cyan"/>
  <circle cx="429.229" cy="456.848" r="4.91865" stroke-width="0.5" stroke="black" fill="cyan"/>
   </g>
   <g id="cell53">
  <circle cx="541.281" cy="528.446" r="8.41271" stroke-width="0.5" stroke="black" fill="cyan"/>
  <circle cx="541.281" cy="528.446" r="5.05167" stroke-width="0.5" stroke="black" fill="cyan"/>
   </g>
   <g id="cell54">
  <circle cx="584.21" cy="392.129" r="7.61469" stroke-width="0.5" stroke="black" fill="cyan"/>
  <circle cx="584.21" cy="392.129" r="4.62762" stroke-width="0.5" stroke="black" fill="cyan"/>
   </g>
   <g id="cell55">
  <circle cx="527.379" cy="384.995" r="8.00101" stroke-width="0.5" stroke="black" fill="cyan"/>
  <circle cx="527.379" cy="384.995" r="4.84939" stroke-width="0.5" stroke="black" fill="cyan"/>
   </g>
   <g id="cell56">
  <circle cx="610.675" cy="476.342" r="8.41271" stroke-width="0.5" stroke="black" fill="cyan"/>
  <circle cx="610.675" cy="476.342" r="5.05167" stroke-width="0.5" stroke="black" fill="cyan"/>
   </g>
   <g id="cell57">
  <circle cx="533.024" cy="589.091" r="8.40607" stroke-width="0.5" stroke="black" fill="cyan"/>
  <circle cx="533.024" cy="589.091" r="5.04976" stroke-width="0.5" stroke="black" fill="cyan"/>
   </g>
   <g id="cell58">
  <circle cx="514.735" cy="457.416" r="8.32543" stroke-width="0.5" stroke="black" fill="cyan"/>
  <circle cx="514.735" cy="457.416" r="5.01617" stroke-width="0.5" stroke="black" fill="cyan"/>
   </g>
   <g id="cell59">
  <circle cx="517.224" cy="585.281" r="8.407" stroke-width="0.5" stroke="black" fill="cyan"/>
  <circle cx="517.224" cy="585.281" r="5.04998" stroke-width="0.5" stroke="black" fill="cyan"/>
   </g>
   <g id="cell60">
  <circle cx="516.514" cy="426.822" r="8.39422" stroke-width="0.5" stroke="black" fill="cyan"/>
  <circle cx="516.514" cy="426.822" r="5.04543" stroke-width="0.5" stroke="black" fill="cyan"/>
   </g>
   <g id="cell61">
  <circle cx="644.192" cy="520.392" r="8.41271" stroke-width="0.5" stroke="black" fill="cyan"/>
  <circle cx="644.192" cy="520.392" r="5.05167" stroke-width="0.5" stroke="black" fill="cyan"/>
   </g>
   <g id="cell62">
  <circle cx="532.533" cy="362.003" r="8.41271" stroke-width="0.5" stroke="black" fill="cyan"/>
  <circle cx="532.533" cy="362.003" r="5.05167" stroke-width="0.5" stroke="black" fill="cyan"/>
   </g>
   <g id="cell63">
  <circle cx="575.438" cy="545.798" r="8.3995" stroke-width="0.5" stroke="black" fill="cyan"/>
  <circle cx="575.438" cy="545.798" r="5.04738" stroke-width="0.5" stroke="black" fill="cyan"/>
   </g>
   <g id="cell64">
  <circle cx="402.978" cy="601.308" r="8.41271" stroke-width="0.5" stroke="black" fill="cyan"/>
  <circle cx="402.978" cy="601.308" r="5.05167" stroke-width="0.5" stroke="black" fill="cyan"/>
   </g>
   <g id="cell65">
  <circle cx="511.018" cy="487.41" r="8.41271" stroke-width="0.5" stroke="black" fill="cyan"/>
  <circle cx="511.018" cy="487.41" r="5.05167" stroke-width="0.5" stroke="black" fill="cyan"/>
   </g>
   <g id="cell66">
  <circle cx="517.745" cy="473.023" r="8.41271" stroke-width="0.5" stroke="black" fill="cyan"/>
  <circle cx="517.745" cy="473.023" r="5.05167" stroke-width="0.5" stroke="black" fill="cyan"/>
   </g>
   <g id="cell67">
  <circle cx="434.283" cy="427.912" r="8.41271" stroke-width="0.5" stroke="black" fill="cyan"/>
  <circle cx="434.283" cy="427.912" r="5.05167" stroke-width="0.5" stroke="black" fill="cyan"/>
   </g>
   <g id="cell68">
  <circle cx="396.654" cy="490.715" r="8.41271" stroke-width="0.5" stroke="black" fill="cyan"/>
  <circle cx="396.654" cy="490.715" r="5.05167" stroke-width="0.5" stroke="black" fill="cyan"/>
   </g>
   <g id="cell69">
  <circle cx="607.662" cy="439.452" r="8.41108" stroke-width="0.5" stroke="black" fill="cyan"/>
  <circle cx="607.662" cy="439.452" r="5.05125" stroke-width="0.5" stroke="black" fill="cyan"/>
   </g>
   <g id="cell70">
  <circle cx="377.146" cy="445.715" r="7.77763" stroke-width="0.5" stroke="black" fill="cyan"/>
  <circle cx="377.146" cy="445.715" r="4.7232" stroke-width="0.5" stroke="black" fill="cyan"/>
   </g>
   <g id="cell71">
  <circle cx="400.832" cy="506.339" r="8.41271" stroke-width="0.5" stroke="black" fill="cyan"/>
  <circle cx="400.832" cy="506.339" r="5.05167" stroke-width="0.5" stroke="black" fill="cyan"/>
   </g>
   <g id="cell72">
  <circle cx="622.82" cy="435.255" r="8.41271" stroke-width="0.5" stroke="black" fill="cyan"/>
  <circle cx="622.82" cy="435.255" r="5.05167" stroke-width="0.5" stroke="black" fill="cyan"/>
   </g>
   <g id="cell73">
  <circle cx="417.704" cy="524.31" r="8.39752" stroke-width="0.5" stroke="black" fill="cyan"/>
  <circle cx="417.704" cy="524.31" r="5.04666" stroke-width="0.5" stroke="black" fill="cyan"/>
   </g>
   <g id="cell74">
  <circle cx="441.879" cy="484.969" r="8.41271" stroke-width="0.5" stroke="black" fill="cyan"/>
  <circle cx="441.879" cy="484.969" r="5.05167" stroke-width="0.5" stroke="black" fill="cyan"/>
   </g>
   <g id="cell75">
  <circle cx="467.734" cy="602.535" r="8.29106" stroke-width="0.5" stroke="black" fill="green"/>
  <circle cx="467.734" cy="602.535" r="5.00139" stroke-width="0.5" stroke="black" fill="green"/>
   </g>
   <g id="cell76">
  <circle cx="609.426" cy="423.619" r="8.41108" stroke-width="0.5" stroke="black" fill="cyan"/>
  <circle cx="609.426" cy="423.619" r="5.05125" stroke-width="0.5" stroke="black" fill="cyan"/>
   </g>
   <g id="cell77">
  <circle cx="459.765" cy="529.101" r="8.40183" stroke-width="0.5" stroke="black" fill="green"/>
  <circle cx="459.765" cy="529.101" r="5.0483" stroke-width="0.5" stroke="black" fill="green"/>
   </g>
   <g id="cell78">
  <circle cx="582.219" cy="406.987" r="8.33777" stroke-width="0.5" stroke="black" fill="green"/>
  <circle cx="582.219" cy="406.987" r="5.02228" stroke-width="0.5" stroke="black" fill="green"/>
   </g>
   <g id="cell79">
  <circle cx="410.04" cy="480.908" r="8.41072" stroke-width="0.5" stroke="black" fill="cyan"/>
  <circle cx="410.04" cy="480.908" r="5.05114" stroke-width="0.5" stroke="black" fill="cyan"/>
   </g>
   <g id="cell80">
  <circle cx="609.783" cy="520.503" r="7.94931" stroke-width="0.5" stroke="black" fill="magenta"/>
  <circle cx="609.783" cy="520.503" r="4.82107" stroke-width="0.5" stroke="black" fill="magenta"/>
   </g>
   <g id="cell81">
  <circle cx="436.952" cy="443.4" r="8.40915" stroke-width="0.5" stroke="black" fill="magenta"/>
  <circle cx="436.952" cy="443.4" r="5.05067" stroke-width="0.5" stroke="black" fill="magenta"/>
   </g>
   <g id="cell82">
  <circle cx="537.63" cy="605.125" r="8.40884" stroke-width="0.5" stroke="black" fill="cyan"/>
  <circle cx="537.63" cy="605.125" r="5.05057" stroke-width="0.5" stroke="black" fill="cyan"/>
   </g>
   <g id="cell83">
  <circle cx="485.022" cy="582.385" r="6.68937" stroke-width="0.5" stroke="black" fill="magenta"/>
  <circle cx="485.022" cy="582.385" r="4.0195" stroke-width="0.5" stroke="black" fill="magenta"/>
   </g>
   <g id="cell84">
  <circle cx="544.722" cy="577.991" r="8.39528" stroke-width="0.5" stroke="black" fill="cyan"/>
  <circle cx="544.722" cy="577.991" r="5.04601" stroke-width="0.5" stroke="black" fill="cyan"/>
   </g>
   <g id="cell85">
  <circle cx="529.114" cy="573.746" r="8.40607" stroke-width="0.5" stroke="black" fill="cyan"/>
  <circle cx="529.114" cy="573.746" r="5.04976" stroke-width="0.5" stroke="black" fill="cyan"/>
   </g>
   <g id="cell86">
  <circle cx="649.291" cy="505.668" r="8.407" stroke-width="0.5" stroke="black" fill="magenta"/>
  <circle cx="649.291" cy="505.668" r="5.04998" stroke-width="0.5" stroke="black" fill="magenta"/>
   </g>
   <g id="cell87">
  <circle cx="569.491" cy="430.46" r="8.32202" stroke-width="0.5" stroke="black" fill="green"/>
  <circle cx="569.491" cy="430.46" r="5.01517" stroke-width="0.5" stroke="black" fill="green"/>
   </g>
   <g id="cell88">
  <circle cx="522.408" cy="600.721" r="8.407" stroke-width="0.5" stroke="black" fill="cyan"/>
  <circle cx="522.408" cy="600.721" r="5.04998" stroke-width="0.5" stroke="black" fill="cyan"/>
   </g>
   <g id="cell89">
  <circle cx="558.293" cy="469.693" r="8.08116" stroke-width="0.5" stroke="black" fill="magenta"/>
  <circle cx="558.293" cy="469.693" r="4.89401" stroke-width="0.5" stroke="black" fill="magenta"/>
   </g>
   <g id="cell90">
  <circle cx="472.272" cy="538.518" r="8.40183" stroke-width="0.5" stroke="black" fill="green"/>
  <circle cx="472.272" cy="538.518" r="5.0483" stroke-width="0.5" stroke="black" fill="green"/>
   </g>
   <g id="cell91">
  <circle cx="421.366" cy="539.334" r="8.40244" stroke-width="0.5" stroke="black" fill="magenta"/>
  <circle cx="421.366" cy="539.334" r="5.04843" stroke-width="0.5" stroke="black" fill="magenta"/>
   </g>
   <g id="cell92">
  <circle cx="562.228" cy="537.526" r="8.36425" stroke-width="0.5" stroke="black" fill="cyan"/>
  <circle cx="562.228" cy="537.526" r="5.03396" stroke-width="0.5" stroke="black" fill="cyan"/>
   </g>
   <g id="cell93">
  <circle cx="418.731" cy="493.618" r="7.94732" stroke-width="0.5" stroke="black" fill="cyan"/>
  <circle cx="418.731" cy="493.618" r="4.82633" stroke-width="0.5" stroke="black" fill="cyan"/>
   </g>
   <g id="cell94">
  <circle cx="555.946" cy="566.394" r="8.39528" stroke-width="0.5" stroke="black" fill="cyan"/>
  <circle cx="555.946" cy="566.394" r="5.04601" stroke-width="0.5" stroke="black" fill="cyan"/>
   </g>
   <g id="cell95">
  <circle cx="592.647" cy="556.225" r="6.69896" stroke-width="0.5" stroke="black" fill="green"/>
  <circle cx="592.647" cy="556.225" r="4.03015" stroke-width="0.5" stroke="black" fill="green"/>
   </g>
   <g id="cell96">
  <circle cx="464.513" cy="573.35" r="7.7859" stroke-width="0.5" stroke="black" fill="green"/>
  <circle cx="464.513" cy="573.35" r="4.73351" stroke-width="0.5" stroke="black" fill="green"/>
   </g>
   <g id="cell97">
  <circle cx="624.645" cy="496.574" r="8.39285" stroke-width="0.5" stroke="black" fill="magenta"/>
  <circle cx="624.645" cy="496.574" r="5.04514" stroke-width="0.5" stroke="black" fill="magenta"/>
   </g>
   <g id="cell98">
  <circle cx="390.049" cy="586.698" r="7.16898" stroke-width="0.5" stroke="black" fill="magenta"/>
  <circle cx="390.049" cy="586.698" r="4.35588" stroke-width="0.5" stroke="black" fill="magenta"/>
   </g>
   <g id="cell99">
  <circle cx="528.688" cy="437.098" r="8.39422" stroke-width="0.5" stroke="black" fill="cyan"/>
  <circle cx="528.688" cy="437.098" r="5.04543" stroke-width="0.5" stroke="black" fill="cyan"/>
   </g>
   <g id="cell100">
  <circle cx="477.432" cy="562.053" r="8.39422" stroke-width="0.5" stroke="black" fill="green"/>
  <circle cx="477.432" cy="562.053" r="5.04543" stroke-width="0.5" stroke="black" fill="green"/>
   </g>
   <g id="cell101">
  <circle cx="606.637" cy="598.352" r="7.53468" stroke-width="0.5" stroke="black" fill="green"/>
  <circle cx="606.637" cy="598.352" r="4.58708" stroke-width="0.5" stroke="black" fill="green"/>
   </g>
   <g id="cell102">
  <circle cx="399.205" cy="562.729" r="7.22683" stroke-width="0.5" stroke="black" fill="magenta"/>
  <circle cx="399.205" cy="562.729" r="4.39362" stroke-width="0.5" stroke="black" fill="magenta"/>
   </g>
   <g id="cell103">
  <circle cx="539.293" cy="394.229" r="8.37742" stroke-width="0.5" stroke="black" fill="magenta"/>
  <circle cx="539.293" cy="394.229" r="5.03881" stroke-width="0.5" stroke="black" fill="magenta"/>
   </g>
   <g id="cell104">
  <circle cx="495.585" cy="577.324" r="7.05853" stroke-width="0.5" stroke="black" fill="magenta"/>
  <circle cx="495.585" cy="577.324" r="4.2882" stroke-width="0.5" stroke="black" fill="magenta"/>
   </g>
   <g id="cell105">
  <circle cx="451.19" cy="580.804" r="8.3656" stroke-width="0.5" stroke="black" fill="green"/>
  <circle cx="451.19" cy="580.804" r="5.03466" stroke-width="0.5" stroke="black" fill="green"/>
   </g>
   <g id="cell106">
  <circle cx="556.188" cy="523.157" r="8.2539" stroke-width="0.5" stroke="black" fill="cyan"/>
  <circle cx="556.188" cy="523.157" r="4.98513" stroke-width="0.5" stroke="black" fill="cyan"/>
   </g>
   <g id="cell107">
  <circle cx="591.897" cy="596.612" r="8.35804" stroke-width="0.5" stroke="black" fill="green"/>
  <circle cx="591.897" cy="596.612" r="5.03158" stroke-width="0.5" stroke="black" fill="green"/>
   </g>
   <g id="cell108">
  <circle cx="528.41" cy="416.956" r="8.34396" stroke-width="0.5" stroke="black" fill="magenta"/>
  <circle cx="528.41" cy="416.956" r="5.02577" stroke-width="0.5" stroke="black" fill="magenta"/>
   </g>
   <g id="cell109">
  <circle cx="416.316" cy="508.594" r="8.3374" stroke-width="0.5" stroke="black" fill="cyan"/>
  <circle cx="416.316" cy="508.594" r="5.02247" stroke-width="0.5" stroke="black" fill="cyan"/>
   </g>
   <g id="cell110">
  <circle cx="503.672" cy="612.241" r="8.34511" stroke-width="0.5" stroke="black" fill="green"/>
  <circle cx="503.672" cy="612.241" r="5.02502" stroke-width="0.5" stroke="black" fill="green"/>
   </g>
   <g id="cell111">
  <circle cx="568.858" cy="414.993" r="8.15537" stroke-width="0.5" stroke="black" fill="green"/>
  <circle cx="568.858" cy="414.993" r="4.93694" stroke-width="0.5" stroke="black" fill="green"/>
   </g>
   <g id="cell112">
  <circle cx="499.858" cy="451.92" r="8.32543" stroke-width="0.5" stroke="black" fill="cyan"/>
  <circle cx="499.858" cy="451.92" r="5.01617" stroke-width="0.5" stroke="black" fill="cyan"/>
   </g>
   <g id="cell113">
  <circle cx="582.4" cy="437.593" r="7.89991" stroke-width="0.5" stroke="black" fill="green"/>
  <circle cx="582.4" cy="437.593" r="4.80074" stroke-width="0.5" stroke="black" fill="green"/>
   </g>
   <g id="cell114">
  <circle cx="582.432" cy="422.391" r="8.32543" stroke-width="0.5" stroke="black" fill="magenta"/>
  <circle cx="582.432" cy="422.391" r="5.01617" stroke-width="0.5" stroke="black" fill="magenta"/>
   </g>
   <g id="cell115">
  <circle cx="597.067" cy="611.423" r="8.07461" stroke-width="0.5" stroke="black" fill="green"/>
  <circle cx="597.067" cy="611.423" r="4.89643" stroke-width="0.5" stroke="black" fill="green"/>
   </g>
   <g id="cell116">
  <circle cx="454.49" cy="609.571" r="7.72519" stroke-width="0.5" stroke="black" fill="green"/>
  <circle cx="454.49" cy="609.571" r="4.70393" stroke-width="0.5" stroke="black" fill="green"/>
   </g>
   <g id="cell117">
  <circle cx="505.558" cy="627.732" r="8.26205" stroke-width="0.5" stroke="black" fill="green"/>
  <circle cx="505.558" cy="627.732" r="4.98911" stroke-width="0.5" stroke="black" fill="green"/>
   </g>
   <g id="cell118">
  <circle cx="502.58" cy="420.503" r="8.27885" stroke-width="0.5" stroke="black" fill="magenta"/>
  <circle cx="502.58" cy="420.503" r="4.99429" stroke-width="0.5" stroke="black" fill="magenta"/>
   </g>
   <g id="cell119">
  <circle cx="576.213" cy="513.383" r="7.54124" stroke-width="0.5" stroke="black" fill="cyan"/>
  <circle cx="576.213" cy="513.383" r="4.59982" stroke-width="0.5" stroke="black" fill="cyan"/>
   </g>
   <g id="cell120">
  <circle cx="483.463" cy="548.74" r="8.25826" stroke-width="0.5" stroke="black" fill="magenta"/>
  <circle cx="483.463" cy="548.74" r="4.98429" stroke-width="0.5" stroke="black" fill="magenta"/>
   </g>
   <g id="cell121">
  <circle cx="523.65" cy="537.092" r="6.64478" stroke-width="0.5" stroke="black" fill="green"/>
  <circle cx="523.65" cy="537.092" r="4.02608" stroke-width="0.5" stroke="black" fill="green"/>
   </g>
   <g id="cell122">
  <circle cx="554.599" cy="408.791" r="8.15537" stroke-width="0.5" stroke="black" fill="green"/>
  <circle cx="554.599" cy="408.791" r="4.93694" stroke-width="0.5" stroke="black" fill="green"/>
   </g>
   <g id="cell123">
  <circle cx="551.652" cy="609.198" r="6.47602" stroke-width="0.5" stroke="black" fill="cyan"/>
  <circle cx="551.652" cy="609.198" r="3.9191" stroke-width="0.5" stroke="black" fill="cyan"/>
   </g>
   <g id="cell124">
  <circle cx="405.713" cy="466.083" r="7.89326" stroke-width="0.5" stroke="black" fill="cyan"/>
  <circle cx="405.713" cy="466.083" r="4.80219" stroke-width="0.5" stroke="black" fill="cyan"/>
   </g>
   <g id="cell125">
  <circle cx="612.469" cy="611.747" r="8.07461" stroke-width="0.5" stroke="black" fill="green"/>
  <circle cx="612.469" cy="611.747" r="4.89643" stroke-width="0.5" stroke="black" fill="green"/>
   </g>
   <g id="cell126">
  <circle cx="552.86" cy="456.205" r="8.08116" stroke-width="0.5" stroke="black" fill="magenta"/>
  <circle cx="552.86" cy="456.205" r="4.89401" stroke-width="0.5" stroke="black" fill="magenta"/>
   </g>
   <g id="cell127">
  <circle cx="420.107" cy="469.084" r="7.62216" stroke-width="0.5" stroke="black" fill="cyan"/>
  <circle cx="420.107" cy="469.084" r="4.65989" stroke-width="0.5" stroke="black" fill="cyan"/>
   </g>
   <g id="cell128">
  <circle cx="514.456" cy="392.901" r="8.00101" stroke-width="0.5" stroke="black" fill="cyan"/>
  <circle cx="514.456" cy="392.901" r="4.84939" stroke-width="0.5" stroke="black" fill="cyan"/>
   </g>
   <g id="cell129">
  <circle cx="428.431" cy="515.394" r="6.4658" stroke-width="0.5" stroke="black" fill="green"/>
  <circle cx="428.431" cy="515.394" r="3.93182" stroke-width="0.5" stroke="black" fill="green"/>
   </g>
   <g id="cell130">
  <circle cx="445.634" cy="499.142" r="4.21052" stroke-width="0.5" stroke="black" fill="cyan"/>
  <circle cx="445.634" cy="499.142" r="2.92955" stroke-width="0.5" stroke="black" fill="black"/>
   </g>
   <g id="cell131">
  <circle cx="619.844" cy="510.39" r="7.94931" stroke-width="0.5" stroke="black" fill="magenta"/>
  <circle cx="619.844" cy="510.39" r="4.82107" stroke-width="0.5" stroke="black" fill="magenta"/>
   </g>
   <g id="cell132">
  <circle cx="594.319" cy="444.026" r="6.90132" stroke-width="0.5" stroke="black" fill="green"/>
  <circle cx="594.319" cy="444.026" r="4.23071" stroke-width="0.5" stroke="black" fill="green"/>
   </g>
   <g id="cell133">
  <circle cx="424.363" cy="553.569" r="7.89545" stroke-width="0.5" stroke="black" fill="magenta"/>
  <circle cx="424.363" cy="553.569" r="4.79324" stroke-width="0.5" stroke="black" fill="magenta"/>
   </g>
   <g id="cell134">
  <circle cx="427.04" cy="481.673" r="7.62216" stroke-width="0.5" stroke="black" fill="cyan"/>
  <circle cx="427.04" cy="481.673" r="4.65989" stroke-width="0.5" stroke="black" fill="cyan"/>
   </g>
   <g id="cell135">
  <circle cx="433.123" cy="497.427" r="7.61915" stroke-width="0.5" stroke="black" fill="cyan"/>
  <circle cx="433.123" cy="497.427" r="4.65497" stroke-width="0.5" stroke="black" fill="cyan"/>
   </g>
   <g id="cell136">
  <circle cx="458.48" cy="383.936" r="2.0965" stroke-width="0.5" stroke="black" fill="green"/>
  <circle cx="458.48" cy="383.936" r="1.89812" stroke-width="0.5" stroke="black" fill="black"/>
   </g>
   <g id="cell137">
  <circle cx="469.129" cy="617.49" r="7.81315" stroke-width="0.5" stroke="black" fill="green"/>
  <circle cx="469.129" cy="617.49" r="4.74367" stroke-width="0.5" stroke="black" fill="green"/>
   </g>
   <g id="cell138">
  <circle cx="464.269" cy="586.925" r="6.72227" stroke-width="0.5" stroke="black" fill="green"/>
  <circle cx="464.269" cy="586.925" r="4.12183" stroke-width="0.5" stroke="black" fill="green"/>
   </g>
   <g id="cell139">
  <circle cx="442.473" cy="593.556" r="7.72519" stroke-width="0.5" stroke="black" fill="green"/>
  <circle cx="442.473" cy="593.556" r="4.70393" stroke-width="0.5" stroke="black" fill="green"/>
   </g>
   <g id="cell140">
  <circle cx="380.336" cy="431.361" r="7.77763" stroke-width="0.5" stroke="black" fill="cyan"/>
  <circle cx="380.336" cy="431.361" r="4.7232" stroke-width="0.5" stroke="black" fill="cyan"/>
   </g>
   <g id="cell141">
  <circle cx="363.368" cy="450.516" r="7.7401" stroke-width="0.5" stroke="black" fill="green"/>
  <circle cx="363.368" cy="450.516" r="4.70142" stroke-width="0.5" stroke="black" fill="green"/>
   </g>
   <g id="cell142">
  <circle cx="568.493" cy="575.09" r="7.7401" stroke-width="0.5" stroke="black" fill="green"/>
  <circle cx="568.493" cy="575.09" r="4.70142" stroke-width="0.5" stroke="black" fill="green"/>
   </g>
   <g id="cell143">
  <circle cx="562.412" cy="509.594" r="7.54124" stroke-width="0.5" stroke="black" fill="cyan"/>
  <circle cx="562.412" cy="509.594" r="4.59982" stroke-width="0.5" stroke="black" fill="cyan"/>
   </g>
   <g id="cell144">
  <circle cx="597.917" cy="387.733" r="7.61469" stroke-width="0.5" stroke="black" fill="cyan"/>
  <circle cx="597.917" cy="387.733" r="4.62762" stroke-width="0.5" stroke="black" fill="cyan"/>
   </g>
   <g id="cell145">
  <circle cx="610.324" cy="579.65" r="6.0495" stroke-width="0.5" stroke="black" fill="green"/>
  <circle cx="610.324" cy="579.65" r="3.68943" stroke-width="0.5" stroke="black" fill="green"/>
   </g>
   <g id="cell146">
  <circle cx="583.904" cy="451.658" r="6.90132" stroke-width="0.5" stroke="black" fill="green"/>
  <circle cx="583.904" cy="451.658" r="4.23071" stroke-width="0.5" stroke="black" fill="green"/>
   </g>
   <g id="cell147">
  <circle cx="406.45" cy="573.484" r="7.22683" stroke-width="0.5" stroke="black" fill="magenta"/>
  <circle cx="406.45" cy="573.484" r="4.39362" stroke-width="0.5" stroke="black" fill="magenta"/>
   </g>
   <g id="cell148">
  <circle cx="393.275" cy="574.284" r="7.16898" stroke-width="0.5" stroke="black" fill="magenta"/>
  <circle cx="393.275" cy="574.284" r="4.35588" stroke-width="0.5" stroke="black" fill="magenta"/>
   </g>
   <g id="cell149">
  <circle cx="455.553" cy="595.874" r="6.72227" stroke-width="0.5" stroke="black" fill="green"/>
  <circle cx="455.553" cy="595.874" r="4.12183" stroke-width="0.5" stroke="black" fill="green"/>
   </g>
   <g id="cell150">
  <circle cx="493.344" cy="589.495" r="5.94968" stroke-width="0.5" stroke="black" fill="magenta"/>
  <circle cx="493.344" cy="589.495" r="3.64458" stroke-width="0.5" stroke="black" fill="magenta"/>
   </g>
   <g id="cell151">
  <circle cx="559.998" cy="600.68" r="7.0545" stroke-width="0.5" stroke="black" fill="magenta"/>
  <circle cx="559.998" cy="600.68" r="4.27772" stroke-width="0.5" stroke="black" fill="magenta"/>
   </g>
   <g id="cell152">
  <circle cx="463.817" cy="557.903" r="7.0093" stroke-width="0.5" stroke="black" fill="green"/>
  <circle cx="463.817" cy="557.903" r="4.25173" stroke-width="0.5" stroke="black" fill="green"/>
   </g>
   <g id="cell153">
  <circle cx="611.755" cy="402.353" r="6.95901" stroke-width="0.5" stroke="black" fill="magenta"/>
  <circle cx="611.755" cy="402.353" r="4.21341" stroke-width="0.5" stroke="black" fill="magenta"/>
   </g>
   <g id="cell154">
  <circle cx="503.278" cy="585.725" r="5.94968" stroke-width="0.5" stroke="black" fill="magenta"/>
  <circle cx="503.278" cy="585.725" r="3.64458" stroke-width="0.5" stroke="black" fill="magenta"/>
   </g>
   <g id="cell155">
  <circle cx="488.763" cy="400.091" r="6.86652" stroke-width="0.5" stroke="black" fill="magenta"/>
  <circle cx="488.763" cy="400.091" r="4.14883" stroke-width="0.5" stroke="black" fill="magenta"/>
   </g>
   <g id="cell156">
  <circle cx="528.324" cy="548.784" r="6.64478" stroke-width="0.5" stroke="black" fill="green"/>
  <circle cx="528.324" cy="548.784" r="4.02608" stroke-width="0.5" stroke="black" fill="green"/>
   </g>
   <g id="cell157">
  <circle cx="439.329" cy="510.157" r="6.4658" stroke-width="0.5" stroke="black" fill="green"/>
  <circle cx="439.329" cy="510.157" r="3.93182" stroke-width="0.5" stroke="black" fill="green"/>
   </g>
   <g id="cell158">
  <circle cx="615.906" cy="589.599" r="6.0495" stroke-width="0.5" stroke="black" fill="green"/>
  <circle cx="615.906" cy="589.599" r="3.68943" stroke-width="0.5" stroke="black" fill="green"/>
   </g>
   <g id="cell159">
  <circle cx="543.448" cy="431.223" r="6.73137" stroke-width="0.5" stroke="black" fill="green"/>
  <circle cx="543.448" cy="431.223" r="4.04999" stroke-width="0.5" stroke="black" fill="green"/>
   </g>
   <g id="cell160">
  <circle cx="589.393" cy="544.274" r="6.69896" stroke-width="0.5" stroke="black" fill="green"/>
  <circle cx="589.393" cy="544.274" r="4.03015" stroke-width="0.5" stroke="black" fill="green"/>
   </g>
   <g id="cell161">
  <circle cx="466.95" cy="501.223" r="6.71158" stroke-width="0.5" stroke="black" fill="green"/>
  <circle cx="466.95" cy="501.223" r="4.03435" stroke-width="0.5" stroke="black" fill="green"/>
   </g>
   <g id="cell162">
  <circle cx="476.829" cy="575.066" r="6.68937" stroke-width="0.5" stroke="black" fill="magenta"/>
  <circle cx="476.829" cy="575.066" r="4.0195" stroke-width="0.5" stroke="black" fill="magenta"/>
   </g>
   <g id="cell163">
  <circle cx="547.679" cy="620.262" r="6.47602" stroke-width="0.5" stroke="black" fill="cyan"/>
  <circle cx="547.679" cy="620.262" r="3.9191" stroke-width="0.5" stroke="black" fill="cyan"/>
   </g>
  </g>
 </g>
  <rect x="775" y="1035" width="200" height="10" stroke-width="2" stroke="rgb(255,255,255)" fill="rgb(0,0,0)"/>
  <text x="781.25" y="1028.75"
   font-family="Arial" font-size="25" fill="black" >
   200 &#956;m
  </text>
  <text x="25" y="1045"
   font-family="Arial" font-size="18.75" fill="black" >
   0 days, 0 hours, 0 minutes, and 29.8050 seconds
  </text>
  <rect x="0" y="70" width="1000" height="1000" stroke-width="2" stroke="rgb(0,0,0)" fill="none"/>
</svg>
