<?xml version="1.0" encoding="UTF-8" standalone="no"?>
<!-- Created with PhysiCell (http://PhysiCell.MathCancer.org/) -->
<svg 
 xmlns:dc="http://purl.org/dc/elements/1.1/" 
 xmlns:cc="http://creativecommons.org/ns#" 
 xmlns:rdf="http://www.w3.org/1999/02/22-rdf-syntax-ns#" 
 xmlns:svg="http://www.w3.org/2000/svg" 
 xmlns="http://www.w3.org/2000/svg" 
 version="1.1" 
 width="1000" 
 height="1070" 
 id="svg2">
  <rect x="0" y="0" width="1000" height="1070" stroke-width="2" stroke="white" fill="white"/>
  <text x="12.5" y="30"
   font-family="Arial" font-size="25" fill="black" >
   Current time: 1 days, 3 hours, and 12.00 minutes, z = 0.00 &#956;m
  </text>
  <text x="12.5" y="57.5"
   font-family="Arial" font-size="23.75" fill="black" >
   159 agents
  </text>
 <g id="tissue" 
    transform="translate(0,1070) scale(1,-1)">
  <g id="ECM">
  </g>
  <g id="cells">
   <g id="cell0">
  <circle cx="514.862" cy="534.405" r="8.40915" stroke-width="0.5" stroke="black" fill="magenta"/>
  <circle cx="514.862" cy="534.405" r="5.05067" stroke-width="0.5" stroke="black" fill="magenta"/>
   </g>
   <g id="cell1">
  <circle cx="601.474" cy="523.132" r="8.41271" stroke-width="0.5" stroke="black" fill="magenta"/>
  <circle cx="601.474" cy="523.132" r="5.05167" stroke-width="0.5" stroke="black" fill="magenta"/>
   </g>
   <g id="cell2">
  <circle cx="519.011" cy="598.519" r="8.41271" stroke-width="0.5" stroke="black" fill="magenta"/>
  <circle cx="519.011" cy="598.519" r="5.05167" stroke-width="0.5" stroke="black" fill="magenta"/>
   </g>
   <g id="cell3">
  <circle cx="523.825" cy="546.666" r="8.4069" stroke-width="0.5" stroke="black" fill="magenta"/>
  <circle cx="523.825" cy="546.666" r="5.05001" stroke-width="0.5" stroke="black" fill="magenta"/>
   </g>
   <g id="cell4">
  <circle cx="485.415" cy="448.205" r="8.33182" stroke-width="0.5" stroke="black" fill="magenta"/>
  <circle cx="485.415" cy="448.205" r="5.01922" stroke-width="0.5" stroke="black" fill="magenta"/>
   </g>
   <g id="cell5">
  <circle cx="465.032" cy="493.3" r="8.41271" stroke-width="0.5" stroke="black" fill="magenta"/>
  <circle cx="465.032" cy="493.3" r="5.05167" stroke-width="0.5" stroke="black" fill="magenta"/>
   </g>
   <g id="cell163">
  <circle cx="534.442" cy="578.768" r="6.86511" stroke-width="0.5" stroke="black" fill="green"/>
  <circle cx="534.442" cy="578.768" r="4.14844" stroke-width="0.5" stroke="black" fill="green"/>
   </g>
   <g id="cell7">
  <circle cx="495.7" cy="459.005" r="8.38532" stroke-width="0.5" stroke="black" fill="magenta"/>
  <circle cx="495.7" cy="459.005" r="5.04199" stroke-width="0.5" stroke="black" fill="magenta"/>
   </g>
   <g id="cell8">
  <circle cx="377.173" cy="548.368" r="6.86652" stroke-width="0.5" stroke="black" fill="magenta"/>
  <circle cx="377.173" cy="548.368" r="4.14883" stroke-width="0.5" stroke="black" fill="magenta"/>
   </g>
   <g id="cell161">
  <circle cx="451.979" cy="382.092" r="5.97695" stroke-width="0.5" stroke="black" fill="green"/>
  <circle cx="451.979" cy="382.092" r="3.66545" stroke-width="0.5" stroke="black" fill="green"/>
   </g>
   <g id="cell10">
  <circle cx="586.837" cy="388.87" r="7.72056" stroke-width="0.5" stroke="black" fill="magenta"/>
  <circle cx="586.837" cy="388.87" r="4.69003" stroke-width="0.5" stroke="black" fill="magenta"/>
   </g>
   <g id="cell11">
  <circle cx="592.087" cy="590.052" r="8.41271" stroke-width="0.5" stroke="black" fill="magenta"/>
  <circle cx="592.087" cy="590.052" r="5.05167" stroke-width="0.5" stroke="black" fill="magenta"/>
   </g>
   <g id="cell12">
  <circle cx="505.583" cy="592" r="8.18177" stroke-width="0.5" stroke="black" fill="magenta"/>
  <circle cx="505.583" cy="592" r="4.94584" stroke-width="0.5" stroke="black" fill="magenta"/>
   </g>
   <g id="cell13">
  <circle cx="387.496" cy="567.619" r="8.41271" stroke-width="0.5" stroke="black" fill="magenta"/>
  <circle cx="387.496" cy="567.619" r="5.05167" stroke-width="0.5" stroke="black" fill="magenta"/>
   </g>
   <g id="cell14">
  <circle cx="521.923" cy="404.205" r="8.41271" stroke-width="0.5" stroke="black" fill="magenta"/>
  <circle cx="521.923" cy="404.205" r="5.05167" stroke-width="0.5" stroke="black" fill="magenta"/>
   </g>
   <g id="cell15">
  <circle cx="381.79" cy="479.036" r="8.28629" stroke-width="0.5" stroke="black" fill="magenta"/>
  <circle cx="381.79" cy="479.036" r="4.99786" stroke-width="0.5" stroke="black" fill="magenta"/>
   </g>
   <g id="cell16">
  <circle cx="438.476" cy="421.949" r="7.63359" stroke-width="0.5" stroke="black" fill="magenta"/>
  <circle cx="438.476" cy="421.949" r="4.66701" stroke-width="0.5" stroke="black" fill="magenta"/>
   </g>
   <g id="cell17">
  <circle cx="571.542" cy="496.618" r="8.41271" stroke-width="0.5" stroke="black" fill="magenta"/>
  <circle cx="571.542" cy="496.618" r="5.05167" stroke-width="0.5" stroke="black" fill="magenta"/>
   </g>
   <g id="cell18">
  <circle cx="518.041" cy="389.535" r="8.41271" stroke-width="0.5" stroke="black" fill="magenta"/>
  <circle cx="518.041" cy="389.535" r="5.05167" stroke-width="0.5" stroke="black" fill="magenta"/>
   </g>
   <g id="cell19">
  <circle cx="458.067" cy="540.666" r="8.3847" stroke-width="0.5" stroke="black" fill="magenta"/>
  <circle cx="458.067" cy="540.666" r="5.04197" stroke-width="0.5" stroke="black" fill="magenta"/>
   </g>
   <g id="cell20">
  <circle cx="532.105" cy="415.476" r="8.41271" stroke-width="0.5" stroke="black" fill="magenta"/>
  <circle cx="532.105" cy="415.476" r="5.05167" stroke-width="0.5" stroke="black" fill="magenta"/>
   </g>
   <g id="cell21">
  <circle cx="466.883" cy="632.265" r="8.41271" stroke-width="0.5" stroke="black" fill="magenta"/>
  <circle cx="466.883" cy="632.265" r="5.05167" stroke-width="0.5" stroke="black" fill="magenta"/>
   </g>
   <g id="cell22">
  <circle cx="556.092" cy="496.873" r="8.41271" stroke-width="0.5" stroke="black" fill="magenta"/>
  <circle cx="556.092" cy="496.873" r="5.05167" stroke-width="0.5" stroke="black" fill="magenta"/>
   </g>
   <g id="cell23">
  <circle cx="548.985" cy="482.763" r="8.41271" stroke-width="0.5" stroke="black" fill="magenta"/>
  <circle cx="548.985" cy="482.763" r="5.05167" stroke-width="0.5" stroke="black" fill="magenta"/>
   </g>
   <g id="cell24">
  <circle cx="557.3" cy="382.105" r="8.41271" stroke-width="0.5" stroke="black" fill="magenta"/>
  <circle cx="557.3" cy="382.105" r="5.05167" stroke-width="0.5" stroke="black" fill="magenta"/>
   </g>
   <g id="cell25">
  <circle cx="648.439" cy="543.062" r="8.41049" stroke-width="0.5" stroke="black" fill="green"/>
  <circle cx="648.439" cy="543.062" r="5.05108" stroke-width="0.5" stroke="black" fill="green"/>
   </g>
   <g id="cell26">
  <circle cx="557.54" cy="397.648" r="8.38454" stroke-width="0.5" stroke="black" fill="green"/>
  <circle cx="557.54" cy="397.648" r="5.04168" stroke-width="0.5" stroke="black" fill="green"/>
   </g>
   <g id="cell27">
  <circle cx="464.713" cy="401.331" r="8.41133" stroke-width="0.5" stroke="black" fill="green"/>
  <circle cx="464.713" cy="401.331" r="5.05132" stroke-width="0.5" stroke="black" fill="green"/>
   </g>
   <g id="cell28">
  <circle cx="434.243" cy="535.177" r="7.54436" stroke-width="0.5" stroke="black" fill="green"/>
  <circle cx="434.243" cy="535.177" r="4.58555" stroke-width="0.5" stroke="black" fill="green"/>
   </g>
   <g id="cell29">
  <circle cx="450.264" cy="512.811" r="8.41271" stroke-width="0.5" stroke="black" fill="green"/>
  <circle cx="450.264" cy="512.811" r="5.05167" stroke-width="0.5" stroke="black" fill="green"/>
   </g>
   <g id="cell30">
  <circle cx="484.575" cy="537.079" r="8.14306" stroke-width="0.5" stroke="black" fill="green"/>
  <circle cx="484.575" cy="537.079" r="4.92639" stroke-width="0.5" stroke="black" fill="green"/>
   </g>
   <g id="cell31">
  <circle cx="412.037" cy="542.474" r="8.41271" stroke-width="0.5" stroke="black" fill="green"/>
  <circle cx="412.037" cy="542.474" r="5.05167" stroke-width="0.5" stroke="black" fill="green"/>
   </g>
   <g id="cell32">
  <circle cx="421.367" cy="481.396" r="1.36072" stroke-width="0.5" stroke="black" fill="green"/>
  <circle cx="421.367" cy="481.396" r="1.35014" stroke-width="0.5" stroke="black" fill="black"/>
   </g>
   <g id="cell33">
  <circle cx="501.858" cy="424.25" r="8.09544" stroke-width="0.5" stroke="black" fill="green"/>
  <circle cx="501.858" cy="424.25" r="4.90058" stroke-width="0.5" stroke="black" fill="green"/>
   </g>
   <g id="cell34">
  <circle cx="396.819" cy="450.575" r="1.39843" stroke-width="0.5" stroke="black" fill="green"/>
  <circle cx="396.819" cy="450.575" r="1.38586" stroke-width="0.5" stroke="black" fill="black"/>
   </g>
   <g id="cell35">
  <circle cx="554.397" cy="545.183" r="8.41271" stroke-width="0.5" stroke="black" fill="green"/>
  <circle cx="554.397" cy="545.183" r="5.05167" stroke-width="0.5" stroke="black" fill="green"/>
   </g>
   <g id="cell36">
  <circle cx="386.149" cy="583.399" r="6.56585" stroke-width="0.5" stroke="black" fill="green"/>
  <circle cx="386.149" cy="583.399" r="4.0514" stroke-width="0.5" stroke="black" fill="green"/>
   </g>
   <g id="cell37">
  <circle cx="640.175" cy="457.155" r="8.41112" stroke-width="0.5" stroke="black" fill="green"/>
  <circle cx="640.175" cy="457.155" r="5.05126" stroke-width="0.5" stroke="black" fill="green"/>
   </g>
   <g id="cell38">
  <circle cx="530.343" cy="590.663" r="6.86511" stroke-width="0.5" stroke="black" fill="green"/>
  <circle cx="530.343" cy="590.663" r="4.14844" stroke-width="0.5" stroke="black" fill="green"/>
   </g>
   <g id="cell39">
  <circle cx="613.237" cy="491.037" r="8.41271" stroke-width="0.5" stroke="black" fill="green"/>
  <circle cx="613.237" cy="491.037" r="5.05167" stroke-width="0.5" stroke="black" fill="green"/>
   </g>
   <g id="cell40">
  <circle cx="485.811" cy="567.1" r="7.38797" stroke-width="0.5" stroke="black" fill="green"/>
  <circle cx="485.811" cy="567.1" r="4.49029" stroke-width="0.5" stroke="black" fill="green"/>
   </g>
   <g id="cell41">
  <circle cx="366.585" cy="482.097" r="8.41271" stroke-width="0.5" stroke="black" fill="green"/>
  <circle cx="366.585" cy="482.097" r="5.05167" stroke-width="0.5" stroke="black" fill="green"/>
   </g>
   <g id="cell42">
  <circle cx="438.487" cy="492.472" r="8.41271" stroke-width="0.5" stroke="black" fill="green"/>
  <circle cx="438.487" cy="492.472" r="5.05167" stroke-width="0.5" stroke="black" fill="green"/>
   </g>
   <g id="cell43">
  <circle cx="561.166" cy="438.149" r="8.41271" stroke-width="0.5" stroke="black" fill="green"/>
  <circle cx="561.166" cy="438.149" r="5.05167" stroke-width="0.5" stroke="black" fill="green"/>
   </g>
   <g id="cell164">
  <circle cx="396.213" cy="577.465" r="6.12888" stroke-width="0.5" stroke="black" fill="green"/>
  <circle cx="396.213" cy="577.465" r="3.7311" stroke-width="0.5" stroke="black" fill="green"/>
   </g>
   <g id="cell145">
  <circle cx="425.305" cy="418.168" r="7.63359" stroke-width="0.5" stroke="black" fill="magenta"/>
  <circle cx="425.305" cy="418.168" r="4.66701" stroke-width="0.5" stroke="black" fill="magenta"/>
   </g>
   <g id="cell46">
  <circle cx="520.982" cy="613.805" r="8.40022" stroke-width="0.5" stroke="black" fill="green"/>
  <circle cx="520.982" cy="613.805" r="5.04764" stroke-width="0.5" stroke="black" fill="green"/>
   </g>
   <g id="cell47">
  <circle cx="503.239" cy="494.523" r="8.40494" stroke-width="0.5" stroke="black" fill="green"/>
  <circle cx="503.239" cy="494.523" r="5.04929" stroke-width="0.5" stroke="black" fill="green"/>
   </g>
   <g id="cell48">
  <circle cx="570.916" cy="604.808" r="8.38413" stroke-width="0.5" stroke="black" fill="green"/>
  <circle cx="570.916" cy="604.808" r="5.04199" stroke-width="0.5" stroke="black" fill="green"/>
   </g>
   <g id="cell49">
  <circle cx="432.147" cy="393.763" r="8.41271" stroke-width="0.5" stroke="black" fill="green"/>
  <circle cx="432.147" cy="393.763" r="5.05167" stroke-width="0.5" stroke="black" fill="green"/>
   </g>
   <g id="cell50">
  <circle cx="512.505" cy="507.657" r="8.37265" stroke-width="0.5" stroke="black" fill="cyan"/>
  <circle cx="512.505" cy="507.657" r="5.03707" stroke-width="0.5" stroke="black" fill="cyan"/>
   </g>
   <g id="cell51">
  <circle cx="402.034" cy="596.996" r="8.41271" stroke-width="0.5" stroke="black" fill="cyan"/>
  <circle cx="402.034" cy="596.996" r="5.05167" stroke-width="0.5" stroke="black" fill="cyan"/>
   </g>
   <g id="cell52">
  <circle cx="516.667" cy="418.908" r="8.41271" stroke-width="0.5" stroke="black" fill="cyan"/>
  <circle cx="516.667" cy="418.908" r="5.05167" stroke-width="0.5" stroke="black" fill="cyan"/>
   </g>
   <g id="cell53">
  <circle cx="572.54" cy="426.903" r="8.40215" stroke-width="0.5" stroke="black" fill="cyan"/>
  <circle cx="572.54" cy="426.903" r="5.04833" stroke-width="0.5" stroke="black" fill="cyan"/>
   </g>
   <g id="cell54">
  <circle cx="480.442" cy="422.125" r="8.40632" stroke-width="0.5" stroke="black" fill="cyan"/>
  <circle cx="480.442" cy="422.125" r="5.04976" stroke-width="0.5" stroke="black" fill="cyan"/>
   </g>
   <g id="cell55">
  <circle cx="522.426" cy="461.628" r="8.40264" stroke-width="0.5" stroke="black" fill="cyan"/>
  <circle cx="522.426" cy="461.628" r="5.04858" stroke-width="0.5" stroke="black" fill="cyan"/>
   </g>
   <g id="cell56">
  <circle cx="617.057" cy="522.404" r="8.41271" stroke-width="0.5" stroke="black" fill="cyan"/>
  <circle cx="617.057" cy="522.404" r="5.05167" stroke-width="0.5" stroke="black" fill="cyan"/>
   </g>
   <g id="cell105">
  <circle cx="506.717" cy="607.129" r="8.06685" stroke-width="0.5" stroke="black" fill="green"/>
  <circle cx="506.717" cy="607.129" r="4.88983" stroke-width="0.5" stroke="black" fill="green"/>
   </g>
   <g id="cell58">
  <circle cx="563.453" cy="484.805" r="7.44242" stroke-width="0.5" stroke="black" fill="cyan"/>
  <circle cx="563.453" cy="484.805" r="4.52373" stroke-width="0.5" stroke="black" fill="cyan"/>
   </g>
   <g id="cell59">
  <circle cx="385.732" cy="440.058" r="8.41271" stroke-width="0.5" stroke="black" fill="cyan"/>
  <circle cx="385.732" cy="440.058" r="5.05167" stroke-width="0.5" stroke="black" fill="cyan"/>
   </g>
   <g id="cell60">
  <circle cx="591.673" cy="473.958" r="8.41271" stroke-width="0.5" stroke="black" fill="cyan"/>
  <circle cx="591.673" cy="473.958" r="5.05167" stroke-width="0.5" stroke="black" fill="cyan"/>
   </g>
   <g id="cell61">
  <circle cx="557.056" cy="621.932" r="1.92875" stroke-width="0.5" stroke="black" fill="cyan"/>
  <circle cx="557.056" cy="621.932" r="1.8429" stroke-width="0.5" stroke="black" fill="black"/>
   </g>
   <g id="cell62">
  <circle cx="512.472" cy="435.384" r="8.35167" stroke-width="0.5" stroke="black" fill="cyan"/>
  <circle cx="512.472" cy="435.384" r="5.02803" stroke-width="0.5" stroke="black" fill="cyan"/>
   </g>
   <g id="cell63">
  <circle cx="585.264" cy="540.08" r="8.27297" stroke-width="0.5" stroke="black" fill="cyan"/>
  <circle cx="585.264" cy="540.08" r="4.99184" stroke-width="0.5" stroke="black" fill="cyan"/>
   </g>
   <g id="cell64">
  <circle cx="509.675" cy="638.598" r="8.41271" stroke-width="0.5" stroke="black" fill="cyan"/>
  <circle cx="509.675" cy="638.598" r="5.05167" stroke-width="0.5" stroke="black" fill="cyan"/>
   </g>
   <g id="cell65">
  <circle cx="547.473" cy="465.283" r="8.40839" stroke-width="0.5" stroke="black" fill="cyan"/>
  <circle cx="547.473" cy="465.283" r="5.05043" stroke-width="0.5" stroke="black" fill="cyan"/>
   </g>
   <g id="cell66">
  <circle cx="530.492" cy="533.074" r="8.40596" stroke-width="0.5" stroke="black" fill="cyan"/>
  <circle cx="530.492" cy="533.074" r="5.04964" stroke-width="0.5" stroke="black" fill="cyan"/>
   </g>
   <g id="cell67">
  <circle cx="354.639" cy="492.871" r="8.41271" stroke-width="0.5" stroke="black" fill="cyan"/>
  <circle cx="354.639" cy="492.871" r="5.05167" stroke-width="0.5" stroke="black" fill="cyan"/>
   </g>
   <g id="cell68">
  <circle cx="562.865" cy="558.464" r="8.41271" stroke-width="0.5" stroke="black" fill="cyan"/>
  <circle cx="562.865" cy="558.464" r="5.05167" stroke-width="0.5" stroke="black" fill="cyan"/>
   </g>
   <g id="cell69">
  <circle cx="441.902" cy="460.993" r="8.41271" stroke-width="0.5" stroke="black" fill="cyan"/>
  <circle cx="441.902" cy="460.993" r="5.05167" stroke-width="0.5" stroke="black" fill="cyan"/>
   </g>
   <g id="cell70">
  <circle cx="577.838" cy="481.847" r="8.41271" stroke-width="0.5" stroke="black" fill="cyan"/>
  <circle cx="577.838" cy="481.847" r="5.05167" stroke-width="0.5" stroke="black" fill="cyan"/>
   </g>
   <g id="cell71">
  <circle cx="382.846" cy="525.056" r="8.38823" stroke-width="0.5" stroke="black" fill="cyan"/>
  <circle cx="382.846" cy="525.056" r="5.04313" stroke-width="0.5" stroke="black" fill="cyan"/>
   </g>
   <g id="cell72">
  <circle cx="528.407" cy="506.207" r="8.4065" stroke-width="0.5" stroke="black" fill="cyan"/>
  <circle cx="528.407" cy="506.207" r="5.04982" stroke-width="0.5" stroke="black" fill="cyan"/>
   </g>
   <g id="cell73">
  <circle cx="363.941" cy="553.418" r="8.40925" stroke-width="0.5" stroke="black" fill="cyan"/>
  <circle cx="363.941" cy="553.418" r="5.0507" stroke-width="0.5" stroke="black" fill="cyan"/>
   </g>
   <g id="cell162">
  <circle cx="374.307" cy="536.341" r="6.86652" stroke-width="0.5" stroke="black" fill="magenta"/>
  <circle cx="374.307" cy="536.341" r="4.14883" stroke-width="0.5" stroke="black" fill="magenta"/>
   </g>
   <g id="cell75">
  <circle cx="527.596" cy="430.33" r="8.41136" stroke-width="0.5" stroke="black" fill="cyan"/>
  <circle cx="527.596" cy="430.33" r="5.05133" stroke-width="0.5" stroke="black" fill="cyan"/>
   </g>
   <g id="cell76">
  <circle cx="438.833" cy="379.188" r="8.39256" stroke-width="0.5" stroke="black" fill="green"/>
  <circle cx="438.833" cy="379.188" r="5.04513" stroke-width="0.5" stroke="black" fill="green"/>
   </g>
   <g id="cell77">
  <circle cx="475.591" cy="436.907" r="8.3972" stroke-width="0.5" stroke="black" fill="magenta"/>
  <circle cx="475.591" cy="436.907" r="5.04662" stroke-width="0.5" stroke="black" fill="magenta"/>
   </g>
   <g id="cell78">
  <circle cx="624.881" cy="461.91" r="8.40759" stroke-width="0.5" stroke="black" fill="green"/>
  <circle cx="624.881" cy="461.91" r="5.05022" stroke-width="0.5" stroke="black" fill="green"/>
   </g>
   <g id="cell79">
  <circle cx="517.527" cy="477.626" r="8.41093" stroke-width="0.5" stroke="black" fill="cyan"/>
  <circle cx="517.527" cy="477.626" r="5.0512" stroke-width="0.5" stroke="black" fill="cyan"/>
   </g>
   <g id="cell80">
  <circle cx="543.472" cy="616.819" r="8.3509" stroke-width="0.5" stroke="black" fill="green"/>
  <circle cx="543.472" cy="616.819" r="5.02782" stroke-width="0.5" stroke="black" fill="green"/>
   </g>
   <g id="cell81">
  <circle cx="544.87" cy="593.099" r="8.40984" stroke-width="0.5" stroke="black" fill="green"/>
  <circle cx="544.87" cy="593.099" r="5.05091" stroke-width="0.5" stroke="black" fill="green"/>
   </g>
   <g id="cell82">
  <circle cx="531.804" cy="559.13" r="8.03406" stroke-width="0.5" stroke="black" fill="magenta"/>
  <circle cx="531.804" cy="559.13" r="4.86779" stroke-width="0.5" stroke="black" fill="magenta"/>
   </g>
   <g id="cell83">
  <circle cx="635.358" cy="552.127" r="8.31095" stroke-width="0.5" stroke="black" fill="green"/>
  <circle cx="635.358" cy="552.127" r="5.00971" stroke-width="0.5" stroke="black" fill="green"/>
   </g>
   <g id="cell84">
  <circle cx="519.2" cy="493.319" r="8.40944" stroke-width="0.5" stroke="black" fill="cyan"/>
  <circle cx="519.2" cy="493.319" r="5.05076" stroke-width="0.5" stroke="black" fill="cyan"/>
   </g>
   <g id="cell85">
  <circle cx="352.312" cy="542.442" r="8.40299" stroke-width="0.5" stroke="black" fill="cyan"/>
  <circle cx="352.312" cy="542.442" r="5.04873" stroke-width="0.5" stroke="black" fill="cyan"/>
   </g>
   <g id="cell86">
  <circle cx="499.837" cy="535.609" r="8.3433" stroke-width="0.5" stroke="black" fill="magenta"/>
  <circle cx="499.837" cy="535.609" r="5.02451" stroke-width="0.5" stroke="black" fill="magenta"/>
   </g>
   <g id="cell87">
  <circle cx="578.972" cy="557.007" r="8.39896" stroke-width="0.5" stroke="black" fill="cyan"/>
  <circle cx="578.972" cy="557.007" r="5.04733" stroke-width="0.5" stroke="black" fill="cyan"/>
   </g>
   <g id="cell88">
  <circle cx="446.835" cy="534.089" r="6.64235" stroke-width="0.5" stroke="black" fill="magenta"/>
  <circle cx="446.835" cy="534.089" r="4.07739" stroke-width="0.5" stroke="black" fill="magenta"/>
   </g>
   <g id="cell89">
  <circle cx="551.136" cy="449.956" r="7.92557" stroke-width="0.5" stroke="black" fill="cyan"/>
  <circle cx="551.136" cy="449.956" r="4.81869" stroke-width="0.5" stroke="black" fill="cyan"/>
   </g>
   <g id="cell90">
  <circle cx="636.628" cy="472.672" r="8.31229" stroke-width="0.5" stroke="black" fill="green"/>
  <circle cx="636.628" cy="472.672" r="5.01059" stroke-width="0.5" stroke="black" fill="green"/>
   </g>
   <g id="cell91">
  <circle cx="546.916" cy="558.89" r="8.40424" stroke-width="0.5" stroke="black" fill="magenta"/>
  <circle cx="546.916" cy="558.89" r="5.0492" stroke-width="0.5" stroke="black" fill="magenta"/>
   </g>
   <g id="cell92">
  <circle cx="486.574" cy="552.367" r="8.40731" stroke-width="0.5" stroke="black" fill="green"/>
  <circle cx="486.574" cy="552.367" r="5.05008" stroke-width="0.5" stroke="black" fill="green"/>
   </g>
   <g id="cell93">
  <circle cx="538.932" cy="546.073" r="8.40424" stroke-width="0.5" stroke="black" fill="magenta"/>
  <circle cx="538.932" cy="546.073" r="5.0492" stroke-width="0.5" stroke="black" fill="magenta"/>
   </g>
   <g id="cell94">
  <circle cx="540.82" cy="496.33" r="8.4065" stroke-width="0.5" stroke="black" fill="cyan"/>
  <circle cx="540.82" cy="496.33" r="5.04982" stroke-width="0.5" stroke="black" fill="cyan"/>
   </g>
   <g id="cell95">
  <circle cx="464.803" cy="425.759" r="8.40632" stroke-width="0.5" stroke="black" fill="cyan"/>
  <circle cx="464.803" cy="425.759" r="5.04976" stroke-width="0.5" stroke="black" fill="cyan"/>
   </g>
   <g id="cell96">
  <circle cx="545.985" cy="532.117" r="8.22037" stroke-width="0.5" stroke="black" fill="cyan"/>
  <circle cx="545.985" cy="532.117" r="4.96617" stroke-width="0.5" stroke="black" fill="cyan"/>
   </g>
   <g id="cell97">
  <circle cx="421.818" cy="466.647" r="8.39985" stroke-width="0.5" stroke="black" fill="green"/>
  <circle cx="421.818" cy="466.647" r="5.04769" stroke-width="0.5" stroke="black" fill="green"/>
   </g>
   <g id="cell98">
  <circle cx="490.745" cy="523.134" r="8.32861" stroke-width="0.5" stroke="black" fill="green"/>
  <circle cx="490.745" cy="523.134" r="5.0182" stroke-width="0.5" stroke="black" fill="green"/>
   </g>
   <g id="cell99">
  <circle cx="358.623" cy="527.75" r="8.40299" stroke-width="0.5" stroke="black" fill="cyan"/>
  <circle cx="358.623" cy="527.75" r="5.04873" stroke-width="0.5" stroke="black" fill="cyan"/>
   </g>
   <g id="cell100">
  <circle cx="447.27" cy="399.232" r="8.40283" stroke-width="0.5" stroke="black" fill="green"/>
  <circle cx="447.27" cy="399.232" r="5.04863" stroke-width="0.5" stroke="black" fill="green"/>
   </g>
   <g id="cell101">
  <circle cx="532.062" cy="483.56" r="8.2016" stroke-width="0.5" stroke="black" fill="cyan"/>
  <circle cx="532.062" cy="483.56" r="4.95702" stroke-width="0.5" stroke="black" fill="cyan"/>
   </g>
   <g id="cell102">
  <circle cx="435.162" cy="475.631" r="8.39985" stroke-width="0.5" stroke="black" fill="green"/>
  <circle cx="435.162" cy="475.631" r="5.04769" stroke-width="0.5" stroke="black" fill="green"/>
   </g>
   <g id="cell103">
  <circle cx="591.293" cy="447.881" r="8.34164" stroke-width="0.5" stroke="black" fill="cyan"/>
  <circle cx="591.293" cy="447.881" r="5.02415" stroke-width="0.5" stroke="black" fill="cyan"/>
   </g>
   <g id="cell104">
  <circle cx="599.646" cy="556.879" r="7.88593" stroke-width="0.5" stroke="black" fill="cyan"/>
  <circle cx="599.646" cy="556.879" r="4.787" stroke-width="0.5" stroke="black" fill="cyan"/>
   </g>
   <g id="cell106">
  <circle cx="461.051" cy="440.915" r="8.3972" stroke-width="0.5" stroke="black" fill="magenta"/>
  <circle cx="461.051" cy="440.915" r="5.04662" stroke-width="0.5" stroke="black" fill="magenta"/>
   </g>
   <g id="cell107">
  <circle cx="460.912" cy="388.566" r="5.97695" stroke-width="0.5" stroke="black" fill="green"/>
  <circle cx="460.912" cy="388.566" r="3.66545" stroke-width="0.5" stroke="black" fill="green"/>
   </g>
   <g id="cell108">
  <circle cx="554.924" cy="605.685" r="8.39473" stroke-width="0.5" stroke="black" fill="green"/>
  <circle cx="554.924" cy="605.685" r="5.04562" stroke-width="0.5" stroke="black" fill="green"/>
   </g>
   <g id="cell109">
  <circle cx="576.516" cy="589.848" r="8.38413" stroke-width="0.5" stroke="black" fill="green"/>
  <circle cx="576.516" cy="589.848" r="5.04199" stroke-width="0.5" stroke="black" fill="green"/>
   </g>
   <g id="cell110">
  <circle cx="373.024" cy="512.479" r="8.38823" stroke-width="0.5" stroke="black" fill="cyan"/>
  <circle cx="373.024" cy="512.479" r="5.04313" stroke-width="0.5" stroke="black" fill="cyan"/>
   </g>
   <g id="cell111">
  <circle cx="455.863" cy="555.358" r="8.19805" stroke-width="0.5" stroke="black" fill="magenta"/>
  <circle cx="455.863" cy="555.358" r="4.95649" stroke-width="0.5" stroke="black" fill="magenta"/>
   </g>
   <g id="cell112">
  <circle cx="496.28" cy="473.678" r="7.86292" stroke-width="0.5" stroke="black" fill="magenta"/>
  <circle cx="496.28" cy="473.678" r="4.77528" stroke-width="0.5" stroke="black" fill="magenta"/>
   </g>
   <g id="cell113">
  <circle cx="543.894" cy="390.405" r="7.98546" stroke-width="0.5" stroke="black" fill="green"/>
  <circle cx="543.894" cy="390.405" r="4.84375" stroke-width="0.5" stroke="black" fill="green"/>
   </g>
   <g id="cell114">
  <circle cx="524.142" cy="445.719" r="8.36518" stroke-width="0.5" stroke="black" fill="cyan"/>
  <circle cx="524.142" cy="445.719" r="5.03457" stroke-width="0.5" stroke="black" fill="cyan"/>
   </g>
   <g id="cell115">
  <circle cx="536.61" cy="454.496" r="8.23805" stroke-width="0.5" stroke="black" fill="cyan"/>
  <circle cx="536.61" cy="454.496" r="4.97752" stroke-width="0.5" stroke="black" fill="cyan"/>
   </g>
   <g id="cell116">
  <circle cx="521.526" cy="520.416" r="8.37265" stroke-width="0.5" stroke="black" fill="cyan"/>
  <circle cx="521.526" cy="520.416" r="5.03707" stroke-width="0.5" stroke="black" fill="cyan"/>
   </g>
   <g id="cell117">
  <circle cx="508" cy="622.737" r="8.35961" stroke-width="0.5" stroke="black" fill="green"/>
  <circle cx="508" cy="622.737" r="5.03199" stroke-width="0.5" stroke="black" fill="green"/>
   </g>
   <g id="cell118">
  <circle cx="509.374" cy="451.286" r="8.35167" stroke-width="0.5" stroke="black" fill="cyan"/>
  <circle cx="509.374" cy="451.286" r="5.02803" stroke-width="0.5" stroke="black" fill="cyan"/>
   </g>
   <g id="cell119">
  <circle cx="533.629" cy="604.454" r="8.3509" stroke-width="0.5" stroke="black" fill="green"/>
  <circle cx="533.629" cy="604.454" r="5.02782" stroke-width="0.5" stroke="black" fill="green"/>
   </g>
   <g id="cell120">
  <circle cx="576.498" cy="442.311" r="8.34164" stroke-width="0.5" stroke="black" fill="cyan"/>
  <circle cx="576.498" cy="442.311" r="5.02415" stroke-width="0.5" stroke="black" fill="cyan"/>
   </g>
   <g id="cell121">
  <circle cx="451.299" cy="368.847" r="8.2611" stroke-width="0.5" stroke="black" fill="green"/>
  <circle cx="451.299" cy="368.847" r="4.98939" stroke-width="0.5" stroke="black" fill="green"/>
   </g>
   <g id="cell122">
  <circle cx="506.13" cy="521.906" r="8.3433" stroke-width="0.5" stroke="black" fill="magenta"/>
  <circle cx="506.13" cy="521.906" r="5.02451" stroke-width="0.5" stroke="black" fill="magenta"/>
   </g>
   <g id="cell123">
  <circle cx="497.013" cy="509.052" r="8.32861" stroke-width="0.5" stroke="black" fill="green"/>
  <circle cx="497.013" cy="509.052" r="5.0182" stroke-width="0.5" stroke="black" fill="green"/>
   </g>
   <g id="cell124">
  <circle cx="490.351" cy="434.081" r="8.33182" stroke-width="0.5" stroke="black" fill="magenta"/>
  <circle cx="490.351" cy="434.081" r="5.01922" stroke-width="0.5" stroke="black" fill="magenta"/>
   </g>
   <g id="cell125">
  <circle cx="621.557" cy="477.473" r="8.31229" stroke-width="0.5" stroke="black" fill="green"/>
  <circle cx="621.557" cy="477.473" r="5.01059" stroke-width="0.5" stroke="black" fill="green"/>
   </g>
   <g id="cell126">
  <circle cx="628.893" cy="566.563" r="8.31095" stroke-width="0.5" stroke="black" fill="green"/>
  <circle cx="628.893" cy="566.563" r="5.00971" stroke-width="0.5" stroke="black" fill="green"/>
   </g>
   <g id="cell127">
  <circle cx="437.791" cy="361.293" r="8.2611" stroke-width="0.5" stroke="black" fill="green"/>
  <circle cx="437.791" cy="361.293" r="4.98939" stroke-width="0.5" stroke="black" fill="green"/>
   </g>
   <g id="cell128">
  <circle cx="372.185" cy="467.641" r="8.28629" stroke-width="0.5" stroke="black" fill="magenta"/>
  <circle cx="372.185" cy="467.641" r="4.99786" stroke-width="0.5" stroke="black" fill="magenta"/>
   </g>
   <g id="cell129">
  <circle cx="570.07" cy="544.03" r="8.27297" stroke-width="0.5" stroke="black" fill="cyan"/>
  <circle cx="570.07" cy="544.03" r="4.99184" stroke-width="0.5" stroke="black" fill="cyan"/>
   </g>
   <g id="cell130">
  <circle cx="540.588" cy="439.038" r="8.23805" stroke-width="0.5" stroke="black" fill="cyan"/>
  <circle cx="540.588" cy="439.038" r="4.97752" stroke-width="0.5" stroke="black" fill="cyan"/>
   </g>
   <g id="cell131">
  <circle cx="537.407" cy="519.056" r="8.22037" stroke-width="0.5" stroke="black" fill="cyan"/>
  <circle cx="537.407" cy="519.056" r="4.96617" stroke-width="0.5" stroke="black" fill="cyan"/>
   </g>
   <g id="cell132">
  <circle cx="443.927" cy="546.727" r="8.19805" stroke-width="0.5" stroke="black" fill="magenta"/>
  <circle cx="443.927" cy="546.727" r="4.95649" stroke-width="0.5" stroke="black" fill="magenta"/>
   </g>
   <g id="cell133">
  <circle cx="573.987" cy="466.167" r="8.21046" stroke-width="0.5" stroke="black" fill="cyan"/>
  <circle cx="573.987" cy="466.167" r="4.96096" stroke-width="0.5" stroke="black" fill="cyan"/>
   </g>
   <g id="cell134">
  <circle cx="534.673" cy="469.836" r="5.41092" stroke-width="0.5" stroke="black" fill="cyan"/>
  <circle cx="534.673" cy="469.836" r="3.51695" stroke-width="0.5" stroke="black" fill="black"/>
   </g>
   <g id="cell135">
  <circle cx="517.938" cy="583.751" r="8.18177" stroke-width="0.5" stroke="black" fill="magenta"/>
  <circle cx="517.938" cy="583.751" r="4.94584" stroke-width="0.5" stroke="black" fill="magenta"/>
   </g>
   <g id="cell136">
  <circle cx="472.13" cy="546.148" r="8.14306" stroke-width="0.5" stroke="black" fill="green"/>
  <circle cx="472.13" cy="546.148" r="4.92639" stroke-width="0.5" stroke="black" fill="green"/>
   </g>
   <g id="cell137">
  <circle cx="492.405" cy="612.142" r="8.06685" stroke-width="0.5" stroke="black" fill="green"/>
  <circle cx="492.405" cy="612.142" r="4.88983" stroke-width="0.5" stroke="black" fill="green"/>
   </g>
   <g id="cell138">
  <circle cx="500.217" cy="409.11" r="8.09544" stroke-width="0.5" stroke="black" fill="green"/>
  <circle cx="500.217" cy="409.11" r="4.90058" stroke-width="0.5" stroke="black" fill="green"/>
   </g>
   <g id="cell139">
  <circle cx="421.477" cy="404.639" r="8.04604" stroke-width="0.5" stroke="black" fill="magenta"/>
  <circle cx="421.477" cy="404.639" r="4.87399" stroke-width="0.5" stroke="black" fill="magenta"/>
   </g>
   <g id="cell140">
  <circle cx="523.909" cy="570.912" r="7.68263" stroke-width="0.5" stroke="black" fill="magenta"/>
  <circle cx="523.909" cy="570.912" r="4.68678" stroke-width="0.5" stroke="black" fill="magenta"/>
   </g>
   <g id="cell141">
  <circle cx="565.651" cy="453.196" r="7.92557" stroke-width="0.5" stroke="black" fill="cyan"/>
  <circle cx="565.651" cy="453.196" r="4.81869" stroke-width="0.5" stroke="black" fill="cyan"/>
   </g>
   <g id="cell142">
  <circle cx="550.849" cy="427.95" r="6.86732" stroke-width="0.5" stroke="black" fill="green"/>
  <circle cx="550.849" cy="427.95" r="4.22076" stroke-width="0.5" stroke="black" fill="green"/>
   </g>
   <g id="cell143">
  <circle cx="435.265" cy="408.437" r="7.80213" stroke-width="0.5" stroke="black" fill="magenta"/>
  <circle cx="435.265" cy="408.437" r="4.7529" stroke-width="0.5" stroke="black" fill="magenta"/>
   </g>
   <g id="cell144">
  <circle cx="546.917" cy="407.974" r="6.79967" stroke-width="0.5" stroke="black" fill="green"/>
  <circle cx="546.917" cy="407.974" r="4.17916" stroke-width="0.5" stroke="black" fill="green"/>
   </g>
   <g id="cell146">
  <circle cx="588.857" cy="548.798" r="1.64992" stroke-width="0.5" stroke="black" fill="cyan"/>
  <circle cx="588.857" cy="548.798" r="1.56882" stroke-width="0.5" stroke="black" fill="black"/>
   </g>
   <g id="cell147">
  <circle cx="517.27" cy="559.184" r="7.68263" stroke-width="0.5" stroke="black" fill="magenta"/>
  <circle cx="517.27" cy="559.184" r="4.68678" stroke-width="0.5" stroke="black" fill="magenta"/>
   </g>
   <g id="cell148">
  <circle cx="508.193" cy="466.163" r="7.86292" stroke-width="0.5" stroke="black" fill="magenta"/>
  <circle cx="508.193" cy="466.163" r="4.77528" stroke-width="0.5" stroke="black" fill="magenta"/>
   </g>
   <g id="cell149">
  <circle cx="576.454" cy="398.135" r="7.72056" stroke-width="0.5" stroke="black" fill="magenta"/>
  <circle cx="576.454" cy="398.135" r="4.69003" stroke-width="0.5" stroke="black" fill="magenta"/>
   </g>
   <g id="cell150">
  <circle cx="406.533" cy="582.042" r="6.12888" stroke-width="0.5" stroke="black" fill="green"/>
  <circle cx="406.533" cy="582.042" r="3.7311" stroke-width="0.5" stroke="black" fill="green"/>
   </g>
   <g id="cell151">
  <circle cx="420.984" cy="530.274" r="7.54436" stroke-width="0.5" stroke="black" fill="green"/>
  <circle cx="420.984" cy="530.274" r="4.58555" stroke-width="0.5" stroke="black" fill="green"/>
   </g>
   <g id="cell152">
  <circle cx="376.011" cy="575.984" r="7.02012" stroke-width="0.5" stroke="black" fill="green"/>
  <circle cx="376.011" cy="575.984" r="4.30442" stroke-width="0.5" stroke="black" fill="green"/>
   </g>
   <g id="cell153">
  <circle cx="560.335" cy="471.764" r="7.44242" stroke-width="0.5" stroke="black" fill="cyan"/>
  <circle cx="560.335" cy="471.764" r="4.52373" stroke-width="0.5" stroke="black" fill="cyan"/>
   </g>
   <g id="cell154">
  <circle cx="387.959" cy="595.542" r="6.56585" stroke-width="0.5" stroke="black" fill="green"/>
  <circle cx="387.959" cy="595.542" r="4.0514" stroke-width="0.5" stroke="black" fill="green"/>
   </g>
   <g id="cell155">
  <circle cx="484.566" cy="580.921" r="7.38797" stroke-width="0.5" stroke="black" fill="green"/>
  <circle cx="484.566" cy="580.921" r="4.49029" stroke-width="0.5" stroke="black" fill="green"/>
   </g>
   <g id="cell156">
  <circle cx="456.143" cy="526.18" r="7.38524" stroke-width="0.5" stroke="black" fill="magenta"/>
  <circle cx="456.143" cy="526.18" r="4.48944" stroke-width="0.5" stroke="black" fill="magenta"/>
   </g>
   <g id="cell157">
  <circle cx="441.769" cy="523.716" r="6.64235" stroke-width="0.5" stroke="black" fill="magenta"/>
  <circle cx="441.769" cy="523.716" r="4.07739" stroke-width="0.5" stroke="black" fill="magenta"/>
   </g>
   <g id="cell158">
  <circle cx="556.727" cy="416.274" r="6.86732" stroke-width="0.5" stroke="black" fill="green"/>
  <circle cx="556.727" cy="416.274" r="4.22076" stroke-width="0.5" stroke="black" fill="green"/>
   </g>
   <g id="cell159">
  <circle cx="535.728" cy="401.962" r="6.79967" stroke-width="0.5" stroke="black" fill="green"/>
  <circle cx="535.728" cy="401.962" r="4.17916" stroke-width="0.5" stroke="black" fill="green"/>
   </g>
   <g id="cell160">
  <circle cx="463.535" cy="376.618" r="7.09723" stroke-width="0.5" stroke="black" fill="green"/>
  <circle cx="463.535" cy="376.618" r="4.31907" stroke-width="0.5" stroke="black" fill="green"/>
   </g>
  </g>
 </g>
  <rect x="775" y="1035" width="200" height="10" stroke-width="2" stroke="rgb(255,255,255)" fill="rgb(0,0,0)"/>
  <text x="781.25" y="1028.75"
   font-family="Arial" font-size="25" fill="black" >
   200 &#956;m
  </text>
  <text x="25" y="1045"
   font-family="Arial" font-size="18.75" fill="black" >
   0 days, 0 hours, 0 minutes, and 32.4149 seconds
  </text>
  <rect x="0" y="70" width="1000" height="1000" stroke-width="2" stroke="rgb(0,0,0)" fill="none"/>
</svg>
