<?xml version="1.0" encoding="UTF-8" standalone="no"?>
<!-- Created with PhysiCell (http://PhysiCell.MathCancer.org/) -->
<svg 
 xmlns:dc="http://purl.org/dc/elements/1.1/" 
 xmlns:cc="http://creativecommons.org/ns#" 
 xmlns:rdf="http://www.w3.org/1999/02/22-rdf-syntax-ns#" 
 xmlns:svg="http://www.w3.org/2000/svg" 
 xmlns="http://www.w3.org/2000/svg" 
 version="1.1" 
 width="1000" 
 height="1070" 
 id="svg2">
  <rect x="0" y="0" width="1000" height="1070" stroke-width="2" stroke="white" fill="white"/>
  <text x="12.5" y="30"
   font-family="Arial" font-size="25" fill="black" >
   Current time: 0 days, 20 hours, and 45.00 minutes, z = 0.00 &#956;m
  </text>
  <text x="12.5" y="57.5"
   font-family="Arial" font-size="23.75" fill="black" >
   138 agents
  </text>
 <g id="tissue" 
    transform="translate(0,1070) scale(1,-1)">
  <g id="ECM">
  </g>
  <g id="cells">
   <g id="cell0">
  <circle cx="513.685" cy="535.346" r="8.39144" stroke-width="0.5" stroke="black" fill="magenta"/>
  <circle cx="513.685" cy="535.346" r="5.04437" stroke-width="0.5" stroke="black" fill="magenta"/>
   </g>
   <g id="cell1">
  <circle cx="601.674" cy="523.8" r="8.41271" stroke-width="0.5" stroke="black" fill="magenta"/>
  <circle cx="601.674" cy="523.8" r="5.05167" stroke-width="0.5" stroke="black" fill="magenta"/>
   </g>
   <g id="cell2">
  <circle cx="516.682" cy="597.183" r="8.41271" stroke-width="0.5" stroke="black" fill="magenta"/>
  <circle cx="516.682" cy="597.183" r="5.05167" stroke-width="0.5" stroke="black" fill="magenta"/>
   </g>
   <g id="cell3">
  <circle cx="522.876" cy="547.759" r="8.37789" stroke-width="0.5" stroke="black" fill="magenta"/>
  <circle cx="522.876" cy="547.759" r="5.03952" stroke-width="0.5" stroke="black" fill="magenta"/>
   </g>
   <g id="cell4">
  <circle cx="488.27" cy="446.233" r="7.90362" stroke-width="0.5" stroke="black" fill="magenta"/>
  <circle cx="488.27" cy="446.233" r="4.79632" stroke-width="0.5" stroke="black" fill="magenta"/>
   </g>
   <g id="cell5">
  <circle cx="465.032" cy="493.3" r="8.41271" stroke-width="0.5" stroke="black" fill="magenta"/>
  <circle cx="465.032" cy="493.3" r="5.05167" stroke-width="0.5" stroke="black" fill="magenta"/>
   </g>
   <g id="cell6">
  <circle cx="596.844" cy="514.98" r="2.72971" stroke-width="0.5" stroke="black" fill="magenta"/>
  <circle cx="596.844" cy="514.98" r="2.33853" stroke-width="0.5" stroke="black" fill="black"/>
   </g>
   <g id="cell7">
  <circle cx="496.141" cy="458.198" r="8.24438" stroke-width="0.5" stroke="black" fill="magenta"/>
  <circle cx="496.141" cy="458.198" r="4.97746" stroke-width="0.5" stroke="black" fill="magenta"/>
   </g>
   <g id="cell8">
  <circle cx="376.385" cy="542.748" r="8.41271" stroke-width="0.5" stroke="black" fill="magenta"/>
  <circle cx="376.385" cy="542.748" r="5.05167" stroke-width="0.5" stroke="black" fill="magenta"/>
   </g>
   <g id="cell9">
  <circle cx="460.472" cy="599.786" r="2.91074" stroke-width="0.5" stroke="black" fill="magenta"/>
  <circle cx="460.472" cy="599.786" r="2.42562" stroke-width="0.5" stroke="black" fill="black"/>
   </g>
   <g id="cell10">
  <circle cx="583.447" cy="392.105" r="8.41271" stroke-width="0.5" stroke="black" fill="magenta"/>
  <circle cx="583.447" cy="392.105" r="5.05167" stroke-width="0.5" stroke="black" fill="magenta"/>
   </g>
   <g id="cell11">
  <circle cx="591.987" cy="590.051" r="8.41271" stroke-width="0.5" stroke="black" fill="magenta"/>
  <circle cx="591.987" cy="590.051" r="5.05167" stroke-width="0.5" stroke="black" fill="magenta"/>
   </g>
   <g id="cell12">
  <circle cx="503.729" cy="592.112" r="7.02257" stroke-width="0.5" stroke="black" fill="magenta"/>
  <circle cx="503.729" cy="592.112" r="4.25644" stroke-width="0.5" stroke="black" fill="magenta"/>
   </g>
   <g id="cell13">
  <circle cx="386.194" cy="568.228" r="8.41271" stroke-width="0.5" stroke="black" fill="magenta"/>
  <circle cx="386.194" cy="568.228" r="5.05167" stroke-width="0.5" stroke="black" fill="magenta"/>
   </g>
   <g id="cell14">
  <circle cx="528.691" cy="400.897" r="8.41271" stroke-width="0.5" stroke="black" fill="magenta"/>
  <circle cx="528.691" cy="400.897" r="5.05167" stroke-width="0.5" stroke="black" fill="magenta"/>
   </g>
   <g id="cell15">
  <circle cx="384.273" cy="477.193" r="7.61469" stroke-width="0.5" stroke="black" fill="magenta"/>
  <circle cx="384.273" cy="477.193" r="4.62762" stroke-width="0.5" stroke="black" fill="magenta"/>
   </g>
   <g id="cell16">
  <circle cx="429.099" cy="412.269" r="8.41271" stroke-width="0.5" stroke="black" fill="magenta"/>
  <circle cx="429.099" cy="412.269" r="5.05167" stroke-width="0.5" stroke="black" fill="magenta"/>
   </g>
   <g id="cell17">
  <circle cx="570.807" cy="491.483" r="8.41271" stroke-width="0.5" stroke="black" fill="magenta"/>
  <circle cx="570.807" cy="491.483" r="5.05167" stroke-width="0.5" stroke="black" fill="magenta"/>
   </g>
   <g id="cell18">
  <circle cx="518.337" cy="389.771" r="8.41271" stroke-width="0.5" stroke="black" fill="magenta"/>
  <circle cx="518.337" cy="389.771" r="5.05167" stroke-width="0.5" stroke="black" fill="magenta"/>
   </g>
   <g id="cell19">
  <circle cx="460.308" cy="540.651" r="8.24071" stroke-width="0.5" stroke="black" fill="magenta"/>
  <circle cx="460.308" cy="540.651" r="4.97748" stroke-width="0.5" stroke="black" fill="magenta"/>
   </g>
   <g id="cell20">
  <circle cx="530.95" cy="416.06" r="8.41271" stroke-width="0.5" stroke="black" fill="magenta"/>
  <circle cx="530.95" cy="416.06" r="5.05167" stroke-width="0.5" stroke="black" fill="magenta"/>
   </g>
   <g id="cell21">
  <circle cx="466.263" cy="632.834" r="8.41271" stroke-width="0.5" stroke="black" fill="magenta"/>
  <circle cx="466.263" cy="632.834" r="5.05167" stroke-width="0.5" stroke="black" fill="magenta"/>
   </g>
   <g id="cell22">
  <circle cx="555.908" cy="494.602" r="8.41271" stroke-width="0.5" stroke="black" fill="magenta"/>
  <circle cx="555.908" cy="494.602" r="5.05167" stroke-width="0.5" stroke="black" fill="magenta"/>
   </g>
   <g id="cell23">
  <circle cx="545.818" cy="483.316" r="8.41271" stroke-width="0.5" stroke="black" fill="magenta"/>
  <circle cx="545.818" cy="483.316" r="5.05167" stroke-width="0.5" stroke="black" fill="magenta"/>
   </g>
   <g id="cell24">
  <circle cx="558.814" cy="381.527" r="8.41271" stroke-width="0.5" stroke="black" fill="magenta"/>
  <circle cx="558.814" cy="381.527" r="5.05167" stroke-width="0.5" stroke="black" fill="magenta"/>
   </g>
   <g id="cell25">
  <circle cx="647.905" cy="543.443" r="8.3995" stroke-width="0.5" stroke="black" fill="green"/>
  <circle cx="647.905" cy="543.443" r="5.04738" stroke-width="0.5" stroke="black" fill="green"/>
   </g>
   <g id="cell26">
  <circle cx="555.293" cy="396.545" r="8.23948" stroke-width="0.5" stroke="black" fill="green"/>
  <circle cx="555.293" cy="396.545" r="4.97503" stroke-width="0.5" stroke="black" fill="green"/>
   </g>
   <g id="cell27">
  <circle cx="465.605" cy="396.351" r="8.4045" stroke-width="0.5" stroke="black" fill="green"/>
  <circle cx="465.605" cy="396.351" r="5.04914" stroke-width="0.5" stroke="black" fill="green"/>
   </g>
   <g id="cell28">
  <circle cx="432.916" cy="530.71" r="8.41271" stroke-width="0.5" stroke="black" fill="green"/>
  <circle cx="432.916" cy="530.71" r="5.05167" stroke-width="0.5" stroke="black" fill="green"/>
   </g>
   <g id="cell29">
  <circle cx="450.459" cy="516.011" r="8.41271" stroke-width="0.5" stroke="black" fill="green"/>
  <circle cx="450.459" cy="516.011" r="5.05167" stroke-width="0.5" stroke="black" fill="green"/>
   </g>
   <g id="cell30">
  <circle cx="485.403" cy="534.466" r="6.84218" stroke-width="0.5" stroke="black" fill="green"/>
  <circle cx="485.403" cy="534.466" r="4.13984" stroke-width="0.5" stroke="black" fill="green"/>
   </g>
   <g id="cell31">
  <circle cx="412.807" cy="541.561" r="8.41271" stroke-width="0.5" stroke="black" fill="green"/>
  <circle cx="412.807" cy="541.561" r="5.05167" stroke-width="0.5" stroke="black" fill="green"/>
   </g>
   <g id="cell32">
  <circle cx="421.353" cy="481.426" r="4.62101" stroke-width="0.5" stroke="black" fill="green"/>
  <circle cx="421.353" cy="481.426" r="3.16609" stroke-width="0.5" stroke="black" fill="black"/>
   </g>
   <g id="cell33">
  <circle cx="502.688" cy="425.044" r="6.71158" stroke-width="0.5" stroke="black" fill="green"/>
  <circle cx="502.688" cy="425.044" r="4.03435" stroke-width="0.5" stroke="black" fill="green"/>
   </g>
   <g id="cell34">
  <circle cx="396.851" cy="450.606" r="5.19915" stroke-width="0.5" stroke="black" fill="green"/>
  <circle cx="396.851" cy="450.606" r="3.42443" stroke-width="0.5" stroke="black" fill="black"/>
   </g>
   <g id="cell35">
  <circle cx="552.927" cy="543.064" r="8.41271" stroke-width="0.5" stroke="black" fill="green"/>
  <circle cx="552.927" cy="543.064" r="5.05167" stroke-width="0.5" stroke="black" fill="green"/>
   </g>
   <g id="cell36">
  <circle cx="391.486" cy="582.903" r="8.41271" stroke-width="0.5" stroke="black" fill="green"/>
  <circle cx="391.486" cy="582.903" r="5.05167" stroke-width="0.5" stroke="black" fill="green"/>
   </g>
   <g id="cell37">
  <circle cx="639.947" cy="457.779" r="8.40327" stroke-width="0.5" stroke="black" fill="green"/>
  <circle cx="639.947" cy="457.779" r="5.04872" stroke-width="0.5" stroke="black" fill="green"/>
   </g>
   <g id="cell38">
  <circle cx="529.91" cy="589.466" r="8.40154" stroke-width="0.5" stroke="black" fill="green"/>
  <circle cx="529.91" cy="589.466" r="5.04811" stroke-width="0.5" stroke="black" fill="green"/>
   </g>
   <g id="cell39">
  <circle cx="613.758" cy="490.213" r="8.41271" stroke-width="0.5" stroke="black" fill="green"/>
  <circle cx="613.758" cy="490.213" r="5.05167" stroke-width="0.5" stroke="black" fill="green"/>
   </g>
   <g id="cell40">
  <circle cx="485.341" cy="571.722" r="8.41271" stroke-width="0.5" stroke="black" fill="green"/>
  <circle cx="485.341" cy="571.722" r="5.05167" stroke-width="0.5" stroke="black" fill="green"/>
   </g>
   <g id="cell41">
  <circle cx="364.082" cy="481.334" r="8.41271" stroke-width="0.5" stroke="black" fill="green"/>
  <circle cx="364.082" cy="481.334" r="5.05167" stroke-width="0.5" stroke="black" fill="green"/>
   </g>
   <g id="cell42">
  <circle cx="438.812" cy="494.115" r="8.41271" stroke-width="0.5" stroke="black" fill="green"/>
  <circle cx="438.812" cy="494.115" r="5.05167" stroke-width="0.5" stroke="black" fill="green"/>
   </g>
   <g id="cell43">
  <circle cx="561.144" cy="440.959" r="8.41271" stroke-width="0.5" stroke="black" fill="green"/>
  <circle cx="561.144" cy="440.959" r="5.05167" stroke-width="0.5" stroke="black" fill="green"/>
   </g>
   <g id="cell44">
  <circle cx="473.963" cy="625.761" r="2.91074" stroke-width="0.5" stroke="black" fill="green"/>
  <circle cx="473.963" cy="625.761" r="2.42562" stroke-width="0.5" stroke="black" fill="black"/>
   </g>
   <g id="cell45">
  <circle cx="414.902" cy="556.698" r="1.29827" stroke-width="0.5" stroke="black" fill="green"/>
  <circle cx="414.902" cy="556.698" r="1.29055" stroke-width="0.5" stroke="black" fill="black"/>
   </g>
   <g id="cell46">
  <circle cx="521.048" cy="613.187" r="8.33699" stroke-width="0.5" stroke="black" fill="green"/>
  <circle cx="521.048" cy="613.187" r="5.02141" stroke-width="0.5" stroke="black" fill="green"/>
   </g>
   <g id="cell47">
  <circle cx="504.512" cy="495.308" r="8.36592" stroke-width="0.5" stroke="black" fill="green"/>
  <circle cx="504.512" cy="495.308" r="5.03403" stroke-width="0.5" stroke="black" fill="green"/>
   </g>
   <g id="cell48">
  <circle cx="571.047" cy="604.662" r="8.23727" stroke-width="0.5" stroke="black" fill="green"/>
  <circle cx="571.047" cy="604.662" r="4.97773" stroke-width="0.5" stroke="black" fill="green"/>
   </g>
   <g id="cell49">
  <circle cx="432.79" cy="397.011" r="8.41271" stroke-width="0.5" stroke="black" fill="green"/>
  <circle cx="432.79" cy="397.011" r="5.05167" stroke-width="0.5" stroke="black" fill="green"/>
   </g>
   <g id="cell50">
  <circle cx="512.718" cy="508.675" r="8.16467" stroke-width="0.5" stroke="black" fill="cyan"/>
  <circle cx="512.718" cy="508.675" r="4.9388" stroke-width="0.5" stroke="black" fill="cyan"/>
   </g>
   <g id="cell51">
  <circle cx="398.721" cy="597.201" r="8.41271" stroke-width="0.5" stroke="black" fill="cyan"/>
  <circle cx="398.721" cy="597.201" r="5.05167" stroke-width="0.5" stroke="black" fill="cyan"/>
   </g>
   <g id="cell52">
  <circle cx="516.963" cy="422.918" r="8.41271" stroke-width="0.5" stroke="black" fill="cyan"/>
  <circle cx="516.963" cy="422.918" r="5.05167" stroke-width="0.5" stroke="black" fill="cyan"/>
   </g>
   <g id="cell53">
  <circle cx="572.459" cy="429.457" r="8.34884" stroke-width="0.5" stroke="black" fill="cyan"/>
  <circle cx="572.459" cy="429.457" r="5.02667" stroke-width="0.5" stroke="black" fill="cyan"/>
   </g>
   <g id="cell54">
  <circle cx="481.622" cy="421.351" r="8.37431" stroke-width="0.5" stroke="black" fill="cyan"/>
  <circle cx="481.622" cy="421.351" r="5.03754" stroke-width="0.5" stroke="black" fill="cyan"/>
   </g>
   <g id="cell55">
  <circle cx="521.472" cy="463.821" r="8.35192" stroke-width="0.5" stroke="black" fill="cyan"/>
  <circle cx="521.472" cy="463.821" r="5.02864" stroke-width="0.5" stroke="black" fill="cyan"/>
   </g>
   <g id="cell56">
  <circle cx="617.224" cy="522.392" r="8.41271" stroke-width="0.5" stroke="black" fill="cyan"/>
  <circle cx="617.224" cy="522.392" r="5.05167" stroke-width="0.5" stroke="black" fill="cyan"/>
   </g>
   <g id="cell105">
  <circle cx="508.655" cy="607.926" r="6.45143" stroke-width="0.5" stroke="black" fill="green"/>
  <circle cx="508.655" cy="607.926" r="3.91399" stroke-width="0.5" stroke="black" fill="green"/>
   </g>
   <g id="cell58">
  <circle cx="560.734" cy="479.669" r="8.41271" stroke-width="0.5" stroke="black" fill="cyan"/>
  <circle cx="560.734" cy="479.669" r="5.05167" stroke-width="0.5" stroke="black" fill="cyan"/>
   </g>
   <g id="cell59">
  <circle cx="385.7" cy="440.028" r="8.41271" stroke-width="0.5" stroke="black" fill="cyan"/>
  <circle cx="385.7" cy="440.028" r="5.05167" stroke-width="0.5" stroke="black" fill="cyan"/>
   </g>
   <g id="cell60">
  <circle cx="591.994" cy="473.833" r="8.41271" stroke-width="0.5" stroke="black" fill="cyan"/>
  <circle cx="591.994" cy="473.833" r="5.05167" stroke-width="0.5" stroke="black" fill="cyan"/>
   </g>
   <g id="cell61">
  <circle cx="557.504" cy="622.508" r="8.41271" stroke-width="0.5" stroke="black" fill="cyan"/>
  <circle cx="557.504" cy="622.508" r="5.05167" stroke-width="0.5" stroke="black" fill="cyan"/>
   </g>
   <g id="cell62">
  <circle cx="514.145" cy="438.225" r="8.0309" stroke-width="0.5" stroke="black" fill="cyan"/>
  <circle cx="514.145" cy="438.225" r="4.86675" stroke-width="0.5" stroke="black" fill="cyan"/>
   </g>
   <g id="cell63">
  <circle cx="581.676" cy="543.009" r="7.52999" stroke-width="0.5" stroke="black" fill="cyan"/>
  <circle cx="581.676" cy="543.009" r="4.58032" stroke-width="0.5" stroke="black" fill="cyan"/>
   </g>
   <g id="cell64">
  <circle cx="509.723" cy="639.425" r="8.41271" stroke-width="0.5" stroke="black" fill="cyan"/>
  <circle cx="509.723" cy="639.425" r="5.05167" stroke-width="0.5" stroke="black" fill="cyan"/>
   </g>
   <g id="cell65">
  <circle cx="549.559" cy="468.244" r="8.38682" stroke-width="0.5" stroke="black" fill="cyan"/>
  <circle cx="549.559" cy="468.244" r="5.04258" stroke-width="0.5" stroke="black" fill="cyan"/>
   </g>
   <g id="cell66">
  <circle cx="529.383" cy="533.732" r="8.37208" stroke-width="0.5" stroke="black" fill="cyan"/>
  <circle cx="529.383" cy="533.732" r="5.03661" stroke-width="0.5" stroke="black" fill="cyan"/>
   </g>
   <g id="cell67">
  <circle cx="353.853" cy="493.645" r="8.41271" stroke-width="0.5" stroke="black" fill="cyan"/>
  <circle cx="353.853" cy="493.645" r="5.05167" stroke-width="0.5" stroke="black" fill="cyan"/>
   </g>
   <g id="cell68">
  <circle cx="562.902" cy="555.228" r="8.41271" stroke-width="0.5" stroke="black" fill="cyan"/>
  <circle cx="562.902" cy="555.228" r="5.05167" stroke-width="0.5" stroke="black" fill="cyan"/>
   </g>
   <g id="cell69">
  <circle cx="442.157" cy="460.462" r="8.41271" stroke-width="0.5" stroke="black" fill="cyan"/>
  <circle cx="442.157" cy="460.462" r="5.05167" stroke-width="0.5" stroke="black" fill="cyan"/>
   </g>
   <g id="cell70">
  <circle cx="576.313" cy="476.81" r="8.41271" stroke-width="0.5" stroke="black" fill="cyan"/>
  <circle cx="576.313" cy="476.81" r="5.05167" stroke-width="0.5" stroke="black" fill="cyan"/>
   </g>
   <g id="cell71">
  <circle cx="380.169" cy="527.774" r="8.26262" stroke-width="0.5" stroke="black" fill="cyan"/>
  <circle cx="380.169" cy="527.774" r="4.98642" stroke-width="0.5" stroke="black" fill="cyan"/>
   </g>
   <g id="cell72">
  <circle cx="528.352" cy="508.722" r="8.37537" stroke-width="0.5" stroke="black" fill="cyan"/>
  <circle cx="528.352" cy="508.722" r="5.03798" stroke-width="0.5" stroke="black" fill="cyan"/>
   </g>
   <g id="cell73">
  <circle cx="364.582" cy="552.908" r="8.39203" stroke-width="0.5" stroke="black" fill="cyan"/>
  <circle cx="364.582" cy="552.908" r="5.0446" stroke-width="0.5" stroke="black" fill="cyan"/>
   </g>
   <g id="cell74">
  <circle cx="548.707" cy="434.083" r="2.65904" stroke-width="0.5" stroke="black" fill="cyan"/>
  <circle cx="548.707" cy="434.083" r="2.28698" stroke-width="0.5" stroke="black" fill="black"/>
   </g>
   <g id="cell75">
  <circle cx="529.24" cy="433.049" r="8.40472" stroke-width="0.5" stroke="black" fill="cyan"/>
  <circle cx="529.24" cy="433.049" r="5.04922" stroke-width="0.5" stroke="black" fill="cyan"/>
   </g>
   <g id="cell76">
  <circle cx="442.157" cy="382.276" r="8.28996" stroke-width="0.5" stroke="black" fill="green"/>
  <circle cx="442.157" cy="382.276" r="5.00228" stroke-width="0.5" stroke="black" fill="green"/>
   </g>
   <g id="cell77">
  <circle cx="477.681" cy="436.333" r="8.31848" stroke-width="0.5" stroke="black" fill="magenta"/>
  <circle cx="477.681" cy="436.333" r="5.01364" stroke-width="0.5" stroke="black" fill="magenta"/>
   </g>
   <g id="cell78">
  <circle cx="624.608" cy="462.257" r="8.38207" stroke-width="0.5" stroke="black" fill="green"/>
  <circle cx="624.608" cy="462.257" r="5.04109" stroke-width="0.5" stroke="black" fill="green"/>
   </g>
   <g id="cell79">
  <circle cx="517.334" cy="479.345" r="8.40215" stroke-width="0.5" stroke="black" fill="cyan"/>
  <circle cx="517.334" cy="479.345" r="5.04833" stroke-width="0.5" stroke="black" fill="cyan"/>
   </g>
   <g id="cell80">
  <circle cx="543.211" cy="616.226" r="8.02592" stroke-width="0.5" stroke="black" fill="green"/>
  <circle cx="543.211" cy="616.226" r="4.86506" stroke-width="0.5" stroke="black" fill="green"/>
   </g>
   <g id="cell81">
  <circle cx="545.088" cy="594.544" r="8.39563" stroke-width="0.5" stroke="black" fill="green"/>
  <circle cx="545.088" cy="594.544" r="5.04622" stroke-width="0.5" stroke="black" fill="green"/>
   </g>
   <g id="cell82">
  <circle cx="532.274" cy="559.885" r="8.3995" stroke-width="0.5" stroke="black" fill="magenta"/>
  <circle cx="532.274" cy="559.885" r="5.04738" stroke-width="0.5" stroke="black" fill="magenta"/>
   </g>
   <g id="cell83">
  <circle cx="635.542" cy="552.505" r="7.76991" stroke-width="0.5" stroke="black" fill="green"/>
  <circle cx="635.542" cy="552.505" r="4.72057" stroke-width="0.5" stroke="black" fill="green"/>
   </g>
   <g id="cell84">
  <circle cx="520.498" cy="494.997" r="8.39316" stroke-width="0.5" stroke="black" fill="cyan"/>
  <circle cx="520.498" cy="494.997" r="5.04503" stroke-width="0.5" stroke="black" fill="cyan"/>
   </g>
   <g id="cell85">
  <circle cx="352.507" cy="542.498" r="8.35413" stroke-width="0.5" stroke="black" fill="cyan"/>
  <circle cx="352.507" cy="542.498" r="5.02988" stroke-width="0.5" stroke="black" fill="cyan"/>
   </g>
   <g id="cell86">
  <circle cx="498.985" cy="534.751" r="7.97713" stroke-width="0.5" stroke="black" fill="magenta"/>
  <circle cx="498.985" cy="534.751" r="4.83857" stroke-width="0.5" stroke="black" fill="magenta"/>
   </g>
   <g id="cell87">
  <circle cx="578.571" cy="557.75" r="8.32941" stroke-width="0.5" stroke="black" fill="cyan"/>
  <circle cx="578.571" cy="557.75" r="5.01919" stroke-width="0.5" stroke="black" fill="cyan"/>
   </g>
   <g id="cell88">
  <circle cx="448.512" cy="531.4" r="8.38753" stroke-width="0.5" stroke="black" fill="magenta"/>
  <circle cx="448.512" cy="531.4" r="5.04286" stroke-width="0.5" stroke="black" fill="magenta"/>
   </g>
   <g id="cell89">
  <circle cx="552.704" cy="453.437" r="7.16321" stroke-width="0.5" stroke="black" fill="cyan"/>
  <circle cx="552.704" cy="453.437" r="4.35358" stroke-width="0.5" stroke="black" fill="cyan"/>
   </g>
   <g id="cell90">
  <circle cx="636.041" cy="472.615" r="7.77782" stroke-width="0.5" stroke="black" fill="green"/>
  <circle cx="636.041" cy="472.615" r="4.7272" stroke-width="0.5" stroke="black" fill="green"/>
   </g>
   <g id="cell91">
  <circle cx="547.409" cy="557.68" r="8.36184" stroke-width="0.5" stroke="black" fill="magenta"/>
  <circle cx="547.409" cy="557.68" r="5.03348" stroke-width="0.5" stroke="black" fill="magenta"/>
   </g>
   <g id="cell92">
  <circle cx="482.968" cy="552.059" r="8.38028" stroke-width="0.5" stroke="black" fill="green"/>
  <circle cx="482.968" cy="552.059" r="5.03997" stroke-width="0.5" stroke="black" fill="green"/>
   </g>
   <g id="cell93">
  <circle cx="537.934" cy="546.122" r="8.36184" stroke-width="0.5" stroke="black" fill="magenta"/>
  <circle cx="537.934" cy="546.122" r="5.03348" stroke-width="0.5" stroke="black" fill="magenta"/>
   </g>
   <g id="cell94">
  <circle cx="536.596" cy="495.511" r="8.37537" stroke-width="0.5" stroke="black" fill="cyan"/>
  <circle cx="536.596" cy="495.511" r="5.03798" stroke-width="0.5" stroke="black" fill="cyan"/>
   </g>
   <g id="cell95">
  <circle cx="466.315" cy="426.005" r="8.37431" stroke-width="0.5" stroke="black" fill="cyan"/>
  <circle cx="466.315" cy="426.005" r="5.03754" stroke-width="0.5" stroke="black" fill="cyan"/>
   </g>
   <g id="cell96">
  <circle cx="546.736" cy="529.877" r="7.21504" stroke-width="0.5" stroke="black" fill="cyan"/>
  <circle cx="546.736" cy="529.877" r="4.38872" stroke-width="0.5" stroke="black" fill="cyan"/>
   </g>
   <g id="cell97">
  <circle cx="421.475" cy="466.401" r="8.33492" stroke-width="0.5" stroke="black" fill="green"/>
  <circle cx="421.475" cy="466.401" r="5.02196" stroke-width="0.5" stroke="black" fill="green"/>
   </g>
   <g id="cell98">
  <circle cx="491.185" cy="522.155" r="7.88211" stroke-width="0.5" stroke="black" fill="green"/>
  <circle cx="491.185" cy="522.155" r="4.78773" stroke-width="0.5" stroke="black" fill="green"/>
   </g>
   <g id="cell99">
  <circle cx="358.313" cy="527.69" r="8.35413" stroke-width="0.5" stroke="black" fill="cyan"/>
  <circle cx="358.313" cy="527.69" r="5.02988" stroke-width="0.5" stroke="black" fill="cyan"/>
   </g>
   <g id="cell100">
  <circle cx="449.354" cy="396.352" r="8.35311" stroke-width="0.5" stroke="black" fill="green"/>
  <circle cx="449.354" cy="396.352" r="5.02905" stroke-width="0.5" stroke="black" fill="green"/>
   </g>
   <g id="cell101">
  <circle cx="531.842" cy="480.925" r="7.10768" stroke-width="0.5" stroke="black" fill="cyan"/>
  <circle cx="531.842" cy="480.925" r="4.32343" stroke-width="0.5" stroke="black" fill="cyan"/>
   </g>
   <g id="cell102">
  <circle cx="434.938" cy="474.735" r="8.33492" stroke-width="0.5" stroke="black" fill="green"/>
  <circle cx="434.938" cy="474.735" r="5.02196" stroke-width="0.5" stroke="black" fill="green"/>
   </g>
   <g id="cell103">
  <circle cx="591.143" cy="447.798" r="7.96582" stroke-width="0.5" stroke="black" fill="cyan"/>
  <circle cx="591.143" cy="447.798" r="4.8354" stroke-width="0.5" stroke="black" fill="cyan"/>
   </g>
   <g id="cell104">
  <circle cx="593.466" cy="552.4" r="8.32941" stroke-width="0.5" stroke="black" fill="cyan"/>
  <circle cx="593.466" cy="552.4" r="5.01919" stroke-width="0.5" stroke="black" fill="cyan"/>
   </g>
   <g id="cell106">
  <circle cx="463.653" cy="441.32" r="8.31848" stroke-width="0.5" stroke="black" fill="magenta"/>
  <circle cx="463.653" cy="441.32" r="5.01364" stroke-width="0.5" stroke="black" fill="magenta"/>
   </g>
   <g id="cell107">
  <circle cx="457.602" cy="383.258" r="7.93358" stroke-width="0.5" stroke="black" fill="green"/>
  <circle cx="457.602" cy="383.258" r="4.8219" stroke-width="0.5" stroke="black" fill="green"/>
   </g>
   <g id="cell108">
  <circle cx="555.442" cy="606.675" r="8.3031" stroke-width="0.5" stroke="black" fill="green"/>
  <circle cx="555.442" cy="606.675" r="5.00583" stroke-width="0.5" stroke="black" fill="green"/>
   </g>
   <g id="cell109">
  <circle cx="576.561" cy="589.997" r="8.23727" stroke-width="0.5" stroke="black" fill="green"/>
  <circle cx="576.561" cy="589.997" r="4.97773" stroke-width="0.5" stroke="black" fill="green"/>
   </g>
   <g id="cell110">
  <circle cx="373.666" cy="513.467" r="8.26262" stroke-width="0.5" stroke="black" fill="cyan"/>
  <circle cx="373.666" cy="513.467" r="4.98642" stroke-width="0.5" stroke="black" fill="cyan"/>
   </g>
   <g id="cell111">
  <circle cx="456.437" cy="553.867" r="7.06342" stroke-width="0.5" stroke="black" fill="magenta"/>
  <circle cx="456.437" cy="553.867" r="4.3082" stroke-width="0.5" stroke="black" fill="magenta"/>
   </g>
   <g id="cell112">
  <circle cx="506.922" cy="468.079" r="8.24438" stroke-width="0.5" stroke="black" fill="magenta"/>
  <circle cx="506.922" cy="468.079" r="4.97746" stroke-width="0.5" stroke="black" fill="magenta"/>
   </g>
   <g id="cell113">
  <circle cx="543.074" cy="406.378" r="8.23948" stroke-width="0.5" stroke="black" fill="green"/>
  <circle cx="543.074" cy="406.378" r="4.97503" stroke-width="0.5" stroke="black" fill="green"/>
   </g>
   <g id="cell114">
  <circle cx="525.226" cy="448.603" r="8.11675" stroke-width="0.5" stroke="black" fill="cyan"/>
  <circle cx="525.226" cy="448.603" r="4.91872" stroke-width="0.5" stroke="black" fill="cyan"/>
   </g>
   <g id="cell115">
  <circle cx="538.553" cy="454.794" r="7.28298" stroke-width="0.5" stroke="black" fill="cyan"/>
  <circle cx="538.553" cy="454.794" r="4.4548" stroke-width="0.5" stroke="black" fill="cyan"/>
   </g>
   <g id="cell116">
  <circle cx="520.359" cy="521.728" r="8.16467" stroke-width="0.5" stroke="black" fill="cyan"/>
  <circle cx="520.359" cy="521.728" r="4.9388" stroke-width="0.5" stroke="black" fill="cyan"/>
   </g>
   <g id="cell117">
  <circle cx="509.447" cy="623.68" r="8.08134" stroke-width="0.5" stroke="black" fill="green"/>
  <circle cx="509.447" cy="623.68" r="4.89826" stroke-width="0.5" stroke="black" fill="green"/>
   </g>
   <g id="cell118">
  <circle cx="510.352" cy="453.158" r="8.0309" stroke-width="0.5" stroke="black" fill="cyan"/>
  <circle cx="510.352" cy="453.158" r="4.86675" stroke-width="0.5" stroke="black" fill="cyan"/>
   </g>
   <g id="cell119">
  <circle cx="533.371" cy="604.558" r="8.02592" stroke-width="0.5" stroke="black" fill="green"/>
  <circle cx="533.371" cy="604.558" r="4.86506" stroke-width="0.5" stroke="black" fill="green"/>
   </g>
   <g id="cell120">
  <circle cx="576.398" cy="444.413" r="7.96582" stroke-width="0.5" stroke="black" fill="cyan"/>
  <circle cx="576.398" cy="444.413" r="4.8354" stroke-width="0.5" stroke="black" fill="cyan"/>
   </g>
   <g id="cell121">
  <circle cx="451.38" cy="370.33" r="7.42047" stroke-width="0.5" stroke="black" fill="green"/>
  <circle cx="451.38" cy="370.33" r="4.543" stroke-width="0.5" stroke="black" fill="green"/>
   </g>
   <g id="cell122">
  <circle cx="505.763" cy="522.197" r="7.97713" stroke-width="0.5" stroke="black" fill="magenta"/>
  <circle cx="505.763" cy="522.197" r="4.83857" stroke-width="0.5" stroke="black" fill="magenta"/>
   </g>
   <g id="cell123">
  <circle cx="497.885" cy="509.228" r="7.88211" stroke-width="0.5" stroke="black" fill="green"/>
  <circle cx="497.885" cy="509.228" r="4.78773" stroke-width="0.5" stroke="black" fill="green"/>
   </g>
   <g id="cell124">
  <circle cx="491.665" cy="432.554" r="7.90362" stroke-width="0.5" stroke="black" fill="magenta"/>
  <circle cx="491.665" cy="432.554" r="4.79632" stroke-width="0.5" stroke="black" fill="magenta"/>
   </g>
   <g id="cell125">
  <circle cx="622.124" cy="477.383" r="7.77782" stroke-width="0.5" stroke="black" fill="green"/>
  <circle cx="622.124" cy="477.383" r="4.7272" stroke-width="0.5" stroke="black" fill="green"/>
   </g>
   <g id="cell126">
  <circle cx="629.243" cy="565.803" r="7.76991" stroke-width="0.5" stroke="black" fill="green"/>
  <circle cx="629.243" cy="565.803" r="4.72057" stroke-width="0.5" stroke="black" fill="green"/>
   </g>
   <g id="cell127">
  <circle cx="439.917" cy="362.412" r="7.42047" stroke-width="0.5" stroke="black" fill="green"/>
  <circle cx="439.917" cy="362.412" r="4.543" stroke-width="0.5" stroke="black" fill="green"/>
   </g>
   <g id="cell128">
  <circle cx="372.99" cy="469.472" r="7.61469" stroke-width="0.5" stroke="black" fill="magenta"/>
  <circle cx="372.99" cy="469.472" r="4.62762" stroke-width="0.5" stroke="black" fill="magenta"/>
   </g>
   <g id="cell129">
  <circle cx="567.677" cy="540.656" r="7.52999" stroke-width="0.5" stroke="black" fill="cyan"/>
  <circle cx="567.677" cy="540.656" r="4.58032" stroke-width="0.5" stroke="black" fill="cyan"/>
   </g>
   <g id="cell130">
  <circle cx="544.557" cy="442.493" r="7.28298" stroke-width="0.5" stroke="black" fill="cyan"/>
  <circle cx="544.557" cy="442.493" r="4.4548" stroke-width="0.5" stroke="black" fill="cyan"/>
   </g>
   <g id="cell131">
  <circle cx="537.81" cy="519.83" r="7.21504" stroke-width="0.5" stroke="black" fill="cyan"/>
  <circle cx="537.81" cy="519.83" r="4.38872" stroke-width="0.5" stroke="black" fill="cyan"/>
   </g>
   <g id="cell132">
  <circle cx="447.28" cy="545.155" r="7.06342" stroke-width="0.5" stroke="black" fill="magenta"/>
  <circle cx="447.28" cy="545.155" r="4.3082" stroke-width="0.5" stroke="black" fill="magenta"/>
   </g>
   <g id="cell133">
  <circle cx="562.871" cy="462.5" r="7.16321" stroke-width="0.5" stroke="black" fill="cyan"/>
  <circle cx="562.871" cy="462.5" r="4.35358" stroke-width="0.5" stroke="black" fill="cyan"/>
   </g>
   <g id="cell134">
  <circle cx="535.205" cy="467.951" r="7.10768" stroke-width="0.5" stroke="black" fill="cyan"/>
  <circle cx="535.205" cy="467.951" r="4.32343" stroke-width="0.5" stroke="black" fill="cyan"/>
   </g>
   <g id="cell135">
  <circle cx="510.079" cy="581.316" r="7.02257" stroke-width="0.5" stroke="black" fill="magenta"/>
  <circle cx="510.079" cy="581.316" r="4.25644" stroke-width="0.5" stroke="black" fill="magenta"/>
   </g>
   <g id="cell136">
  <circle cx="474.202" cy="540.49" r="6.84218" stroke-width="0.5" stroke="black" fill="green"/>
  <circle cx="474.202" cy="540.49" r="4.13984" stroke-width="0.5" stroke="black" fill="green"/>
   </g>
   <g id="cell137">
  <circle cx="497.192" cy="610.508" r="6.45143" stroke-width="0.5" stroke="black" fill="green"/>
  <circle cx="497.192" cy="610.508" r="3.91399" stroke-width="0.5" stroke="black" fill="green"/>
   </g>
   <g id="cell138">
  <circle cx="500.531" cy="412.571" r="6.71158" stroke-width="0.5" stroke="black" fill="green"/>
  <circle cx="500.531" cy="412.571" r="4.03435" stroke-width="0.5" stroke="black" fill="green"/>
   </g>
  </g>
 </g>
  <rect x="775" y="1035" width="200" height="10" stroke-width="2" stroke="rgb(255,255,255)" fill="rgb(0,0,0)"/>
  <text x="781.25" y="1028.75"
   font-family="Arial" font-size="25" fill="black" >
   200 &#956;m
  </text>
  <text x="25" y="1045"
   font-family="Arial" font-size="18.75" fill="black" >
   0 days, 0 hours, 0 minutes, and 24.3635 seconds
  </text>
  <rect x="0" y="70" width="1000" height="1000" stroke-width="2" stroke="rgb(0,0,0)" fill="none"/>
</svg>
