<?xml version="1.0" encoding="UTF-8" standalone="no"?>
<!-- Created with PhysiCell (http://PhysiCell.MathCancer.org/) -->
<svg 
 xmlns:dc="http://purl.org/dc/elements/1.1/" 
 xmlns:cc="http://creativecommons.org/ns#" 
 xmlns:rdf="http://www.w3.org/1999/02/22-rdf-syntax-ns#" 
 xmlns:svg="http://www.w3.org/2000/svg" 
 xmlns="http://www.w3.org/2000/svg" 
 version="1.1" 
 width="1000" 
 height="1070" 
 id="svg2">
  <rect x="0" y="0" width="1000" height="1070" stroke-width="2" stroke="white" fill="white"/>
  <text x="12.5" y="30"
   font-family="Arial" font-size="25" fill="black" >
   Current time: 1 days, 7 hours, and 39.00 minutes, z = 0.00 &#956;m
  </text>
  <text x="12.5" y="57.5"
   font-family="Arial" font-size="23.75" fill="black" >
   178 agents
  </text>
 <g id="tissue" 
    transform="translate(0,1070) scale(1,-1)">
  <g id="ECM">
  </g>
  <g id="cells">
   <g id="cell0">
  <circle cx="512.606" cy="537.332" r="8.41169" stroke-width="0.5" stroke="black" fill="magenta"/>
  <circle cx="512.606" cy="537.332" r="5.05142" stroke-width="0.5" stroke="black" fill="magenta"/>
   </g>
   <g id="cell1">
  <circle cx="593.777" cy="526.875" r="7.79564" stroke-width="0.5" stroke="black" fill="magenta"/>
  <circle cx="593.777" cy="526.875" r="4.73359" stroke-width="0.5" stroke="black" fill="magenta"/>
   </g>
   <g id="cell2">
  <circle cx="517.505" cy="598.842" r="8.41271" stroke-width="0.5" stroke="black" fill="magenta"/>
  <circle cx="517.505" cy="598.842" r="5.05167" stroke-width="0.5" stroke="black" fill="magenta"/>
   </g>
   <g id="cell3">
  <circle cx="524.084" cy="547.312" r="8.41105" stroke-width="0.5" stroke="black" fill="magenta"/>
  <circle cx="524.084" cy="547.312" r="5.05125" stroke-width="0.5" stroke="black" fill="magenta"/>
   </g>
   <g id="cell4">
  <circle cx="486.034" cy="447.652" r="8.39" stroke-width="0.5" stroke="black" fill="magenta"/>
  <circle cx="486.034" cy="447.652" r="5.04385" stroke-width="0.5" stroke="black" fill="magenta"/>
   </g>
   <g id="cell5">
  <circle cx="466.669" cy="490.596" r="8.41271" stroke-width="0.5" stroke="black" fill="magenta"/>
  <circle cx="466.669" cy="490.596" r="5.05167" stroke-width="0.5" stroke="black" fill="magenta"/>
   </g>
   <g id="cell163">
  <circle cx="539.065" cy="576.698" r="7.95015" stroke-width="0.5" stroke="black" fill="green"/>
  <circle cx="539.065" cy="576.698" r="4.82132" stroke-width="0.5" stroke="black" fill="green"/>
   </g>
   <g id="cell7">
  <circle cx="496.733" cy="457.388" r="7.71595" stroke-width="0.5" stroke="black" fill="magenta"/>
  <circle cx="496.733" cy="457.388" r="4.68853" stroke-width="0.5" stroke="black" fill="magenta"/>
   </g>
   <g id="cell8">
  <circle cx="378.335" cy="551.446" r="7.95045" stroke-width="0.5" stroke="black" fill="magenta"/>
  <circle cx="378.335" cy="551.446" r="4.82139" stroke-width="0.5" stroke="black" fill="magenta"/>
   </g>
   <g id="cell161">
  <circle cx="451.093" cy="382.29" r="7.77568" stroke-width="0.5" stroke="black" fill="green"/>
  <circle cx="451.093" cy="382.29" r="4.73957" stroke-width="0.5" stroke="black" fill="green"/>
   </g>
   <g id="cell10">
  <circle cx="585.966" cy="389.495" r="8.2239" stroke-width="0.5" stroke="black" fill="magenta"/>
  <circle cx="585.966" cy="389.495" r="4.96725" stroke-width="0.5" stroke="black" fill="magenta"/>
   </g>
   <g id="cell11">
  <circle cx="592.116" cy="590.052" r="8.41271" stroke-width="0.5" stroke="black" fill="magenta"/>
  <circle cx="592.116" cy="590.052" r="5.05167" stroke-width="0.5" stroke="black" fill="magenta"/>
   </g>
   <g id="cell12">
  <circle cx="503.63" cy="592.697" r="8.34884" stroke-width="0.5" stroke="black" fill="magenta"/>
  <circle cx="503.63" cy="592.697" r="5.02667" stroke-width="0.5" stroke="black" fill="magenta"/>
   </g>
   <g id="cell13">
  <circle cx="385.146" cy="566.063" r="8.41271" stroke-width="0.5" stroke="black" fill="magenta"/>
  <circle cx="385.146" cy="566.063" r="5.05167" stroke-width="0.5" stroke="black" fill="magenta"/>
   </g>
   <g id="cell14">
  <circle cx="520.728" cy="404.573" r="8.41271" stroke-width="0.5" stroke="black" fill="magenta"/>
  <circle cx="520.728" cy="404.573" r="5.05167" stroke-width="0.5" stroke="black" fill="magenta"/>
   </g>
   <g id="cell15">
  <circle cx="381.84" cy="479.107" r="8.37742" stroke-width="0.5" stroke="black" fill="magenta"/>
  <circle cx="381.84" cy="479.107" r="5.03881" stroke-width="0.5" stroke="black" fill="magenta"/>
   </g>
   <g id="cell16">
  <circle cx="444.298" cy="418.373" r="8.20611" stroke-width="0.5" stroke="black" fill="magenta"/>
  <circle cx="444.298" cy="418.373" r="4.9645" stroke-width="0.5" stroke="black" fill="magenta"/>
   </g>
   <g id="cell17">
  <circle cx="573.006" cy="493.023" r="6.86652" stroke-width="0.5" stroke="black" fill="magenta"/>
  <circle cx="573.006" cy="493.023" r="4.14883" stroke-width="0.5" stroke="black" fill="magenta"/>
   </g>
   <g id="cell18">
  <circle cx="518.64" cy="389.609" r="8.41271" stroke-width="0.5" stroke="black" fill="magenta"/>
  <circle cx="518.64" cy="389.609" r="5.05167" stroke-width="0.5" stroke="black" fill="magenta"/>
   </g>
   <g id="cell19">
  <circle cx="458.217" cy="541.069" r="8.40476" stroke-width="0.5" stroke="black" fill="magenta"/>
  <circle cx="458.217" cy="541.069" r="5.04929" stroke-width="0.5" stroke="black" fill="magenta"/>
   </g>
   <g id="cell20">
  <circle cx="531.621" cy="415.087" r="8.41271" stroke-width="0.5" stroke="black" fill="magenta"/>
  <circle cx="531.621" cy="415.087" r="5.05167" stroke-width="0.5" stroke="black" fill="magenta"/>
   </g>
   <g id="cell21">
  <circle cx="466.883" cy="632.265" r="8.41271" stroke-width="0.5" stroke="black" fill="magenta"/>
  <circle cx="466.883" cy="632.265" r="5.05167" stroke-width="0.5" stroke="black" fill="magenta"/>
   </g>
   <g id="cell22">
  <circle cx="560.28" cy="493.071" r="7.21189" stroke-width="0.5" stroke="black" fill="magenta"/>
  <circle cx="560.28" cy="493.071" r="4.37993" stroke-width="0.5" stroke="black" fill="magenta"/>
   </g>
   <g id="cell23">
  <circle cx="551.542" cy="481.897" r="8.41271" stroke-width="0.5" stroke="black" fill="magenta"/>
  <circle cx="551.542" cy="481.897" r="5.05167" stroke-width="0.5" stroke="black" fill="magenta"/>
   </g>
   <g id="cell24">
  <circle cx="561.23" cy="384.657" r="8.41271" stroke-width="0.5" stroke="black" fill="magenta"/>
  <circle cx="561.23" cy="384.657" r="5.05167" stroke-width="0.5" stroke="black" fill="magenta"/>
   </g>
   <g id="cell25">
  <circle cx="648.234" cy="543.205" r="8.41207" stroke-width="0.5" stroke="black" fill="green"/>
  <circle cx="648.234" cy="543.205" r="5.05152" stroke-width="0.5" stroke="black" fill="green"/>
   </g>
   <g id="cell26">
  <circle cx="557.692" cy="399.931" r="8.40472" stroke-width="0.5" stroke="black" fill="green"/>
  <circle cx="557.692" cy="399.931" r="5.04922" stroke-width="0.5" stroke="black" fill="green"/>
   </g>
   <g id="cell27">
  <circle cx="463.791" cy="405.279" r="8.41231" stroke-width="0.5" stroke="black" fill="green"/>
  <circle cx="463.791" cy="405.279" r="5.05158" stroke-width="0.5" stroke="black" fill="green"/>
   </g>
   <g id="cell28">
  <circle cx="430.266" cy="538.406" r="8.17502" stroke-width="0.5" stroke="black" fill="green"/>
  <circle cx="430.266" cy="538.406" r="4.94236" stroke-width="0.5" stroke="black" fill="green"/>
   </g>
   <g id="cell29">
  <circle cx="449.363" cy="512.461" r="7.46878" stroke-width="0.5" stroke="black" fill="green"/>
  <circle cx="449.363" cy="512.461" r="4.53982" stroke-width="0.5" stroke="black" fill="green"/>
   </g>
   <g id="cell30">
  <circle cx="482.34" cy="537.153" r="8.33832" stroke-width="0.5" stroke="black" fill="green"/>
  <circle cx="482.34" cy="537.153" r="5.02215" stroke-width="0.5" stroke="black" fill="green"/>
   </g>
   <g id="cell31">
  <circle cx="411.944" cy="542.77" r="8.41271" stroke-width="0.5" stroke="black" fill="green"/>
  <circle cx="411.944" cy="542.77" r="5.05167" stroke-width="0.5" stroke="black" fill="green"/>
   </g>
   <g id="cell169">
  <circle cx="528.014" cy="493.234" r="7.61361" stroke-width="0.5" stroke="black" fill="cyan"/>
  <circle cx="528.014" cy="493.234" r="4.6273" stroke-width="0.5" stroke="black" fill="cyan"/>
   </g>
   <g id="cell33">
  <circle cx="501.215" cy="422.552" r="8.32543" stroke-width="0.5" stroke="black" fill="green"/>
  <circle cx="501.215" cy="422.552" r="5.01617" stroke-width="0.5" stroke="black" fill="green"/>
   </g>
   <g id="cell168">
  <circle cx="382.707" cy="517.281" r="7.63277" stroke-width="0.5" stroke="black" fill="cyan"/>
  <circle cx="382.707" cy="517.281" r="4.63949" stroke-width="0.5" stroke="black" fill="cyan"/>
   </g>
   <g id="cell35">
  <circle cx="554.98" cy="546.08" r="8.41271" stroke-width="0.5" stroke="black" fill="green"/>
  <circle cx="554.98" cy="546.08" r="5.05167" stroke-width="0.5" stroke="black" fill="green"/>
   </g>
   <g id="cell36">
  <circle cx="385.155" cy="581.733" r="7.94799" stroke-width="0.5" stroke="black" fill="green"/>
  <circle cx="385.155" cy="581.733" r="4.8355" stroke-width="0.5" stroke="black" fill="green"/>
   </g>
   <g id="cell37">
  <circle cx="640.226" cy="457.047" r="8.41225" stroke-width="0.5" stroke="black" fill="green"/>
  <circle cx="640.226" cy="457.047" r="5.05156" stroke-width="0.5" stroke="black" fill="green"/>
   </g>
   <g id="cell38">
  <circle cx="529.868" cy="589.257" r="7.95015" stroke-width="0.5" stroke="black" fill="green"/>
  <circle cx="529.868" cy="589.257" r="4.82132" stroke-width="0.5" stroke="black" fill="green"/>
   </g>
   <g id="cell39">
  <circle cx="609.721" cy="485.793" r="6.92764" stroke-width="0.5" stroke="black" fill="green"/>
  <circle cx="609.721" cy="485.793" r="4.1918" stroke-width="0.5" stroke="black" fill="green"/>
   </g>
   <g id="cell40">
  <circle cx="485.79" cy="567.597" r="8.13008" stroke-width="0.5" stroke="black" fill="green"/>
  <circle cx="485.79" cy="567.597" r="4.91894" stroke-width="0.5" stroke="black" fill="green"/>
   </g>
   <g id="cell41">
  <circle cx="366.566" cy="482.116" r="8.41271" stroke-width="0.5" stroke="black" fill="green"/>
  <circle cx="366.566" cy="482.116" r="5.05167" stroke-width="0.5" stroke="black" fill="green"/>
   </g>
   <g id="cell42">
  <circle cx="438.332" cy="491.685" r="8.41271" stroke-width="0.5" stroke="black" fill="green"/>
  <circle cx="438.332" cy="491.685" r="5.05167" stroke-width="0.5" stroke="black" fill="green"/>
   </g>
   <g id="cell43">
  <circle cx="562.751" cy="440.166" r="8.41271" stroke-width="0.5" stroke="black" fill="green"/>
  <circle cx="562.751" cy="440.166" r="5.05167" stroke-width="0.5" stroke="black" fill="green"/>
   </g>
   <g id="cell164">
  <circle cx="397.979" cy="574.508" r="7.75896" stroke-width="0.5" stroke="black" fill="green"/>
  <circle cx="397.979" cy="574.508" r="4.72631" stroke-width="0.5" stroke="black" fill="green"/>
   </g>
   <g id="cell145">
  <circle cx="419.994" cy="420.034" r="6.681" stroke-width="0.5" stroke="black" fill="magenta"/>
  <circle cx="419.994" cy="420.034" r="4.06113" stroke-width="0.5" stroke="black" fill="magenta"/>
   </g>
   <g id="cell46">
  <circle cx="518.324" cy="616.259" r="8.40915" stroke-width="0.5" stroke="black" fill="green"/>
  <circle cx="518.324" cy="616.259" r="5.05067" stroke-width="0.5" stroke="black" fill="green"/>
   </g>
   <g id="cell47">
  <circle cx="493.347" cy="493.404" r="8.41049" stroke-width="0.5" stroke="black" fill="green"/>
  <circle cx="493.347" cy="493.404" r="5.05108" stroke-width="0.5" stroke="black" fill="green"/>
   </g>
   <g id="cell48">
  <circle cx="571.591" cy="604.887" r="8.40459" stroke-width="0.5" stroke="black" fill="green"/>
  <circle cx="571.591" cy="604.887" r="5.04928" stroke-width="0.5" stroke="black" fill="green"/>
   </g>
   <g id="cell49">
  <circle cx="439.636" cy="390.986" r="7.63698" stroke-width="0.5" stroke="black" fill="green"/>
  <circle cx="439.636" cy="390.986" r="4.64085" stroke-width="0.5" stroke="black" fill="green"/>
   </g>
   <g id="cell50">
  <circle cx="508.617" cy="506.715" r="8.40138" stroke-width="0.5" stroke="black" fill="cyan"/>
  <circle cx="508.617" cy="506.715" r="5.04811" stroke-width="0.5" stroke="black" fill="cyan"/>
   </g>
   <g id="cell51">
  <circle cx="402.771" cy="597.28" r="8.41271" stroke-width="0.5" stroke="black" fill="cyan"/>
  <circle cx="402.771" cy="597.28" r="5.05167" stroke-width="0.5" stroke="black" fill="cyan"/>
   </g>
   <g id="cell52">
  <circle cx="516.875" cy="419.62" r="8.41271" stroke-width="0.5" stroke="black" fill="cyan"/>
  <circle cx="516.875" cy="419.62" r="5.05167" stroke-width="0.5" stroke="black" fill="cyan"/>
   </g>
   <g id="cell53">
  <circle cx="571.177" cy="426.718" r="8.4097" stroke-width="0.5" stroke="black" fill="cyan"/>
  <circle cx="571.177" cy="426.718" r="5.05084" stroke-width="0.5" stroke="black" fill="cyan"/>
   </g>
   <g id="cell54">
  <circle cx="479.563" cy="421.643" r="8.41088" stroke-width="0.5" stroke="black" fill="cyan"/>
  <circle cx="479.563" cy="421.643" r="5.05119" stroke-width="0.5" stroke="black" fill="cyan"/>
   </g>
   <g id="cell55">
  <circle cx="522.317" cy="460.057" r="8.40983" stroke-width="0.5" stroke="black" fill="cyan"/>
  <circle cx="522.317" cy="460.057" r="5.0509" stroke-width="0.5" stroke="black" fill="cyan"/>
   </g>
   <g id="cell56">
  <circle cx="621.372" cy="522.743" r="8.41271" stroke-width="0.5" stroke="black" fill="cyan"/>
  <circle cx="621.372" cy="522.743" r="5.05167" stroke-width="0.5" stroke="black" fill="cyan"/>
   </g>
   <g id="cell105">
  <circle cx="505.105" cy="607.941" r="8.31778" stroke-width="0.5" stroke="black" fill="green"/>
  <circle cx="505.105" cy="607.941" r="5.01371" stroke-width="0.5" stroke="black" fill="green"/>
   </g>
   <g id="cell58">
  <circle cx="566.887" cy="480.893" r="8.14594" stroke-width="0.5" stroke="black" fill="cyan"/>
  <circle cx="566.887" cy="480.893" r="4.92726" stroke-width="0.5" stroke="black" fill="cyan"/>
   </g>
   <g id="cell59">
  <circle cx="385.732" cy="440.058" r="8.41271" stroke-width="0.5" stroke="black" fill="cyan"/>
  <circle cx="385.732" cy="440.058" r="5.05167" stroke-width="0.5" stroke="black" fill="cyan"/>
   </g>
   <g id="cell60">
  <circle cx="589.977" cy="469.322" r="7.30216" stroke-width="0.5" stroke="black" fill="cyan"/>
  <circle cx="589.977" cy="469.322" r="4.43696" stroke-width="0.5" stroke="black" fill="cyan"/>
   </g>
   <g id="cell186">
  <circle cx="356.777" cy="563.273" r="5.79388" stroke-width="0.5" stroke="black" fill="cyan"/>
  <circle cx="356.777" cy="563.273" r="3.5314" stroke-width="0.5" stroke="black" fill="cyan"/>
   </g>
   <g id="cell62">
  <circle cx="515.756" cy="434.066" r="7.16918" stroke-width="0.5" stroke="black" fill="cyan"/>
  <circle cx="515.756" cy="434.066" r="4.35598" stroke-width="0.5" stroke="black" fill="cyan"/>
   </g>
   <g id="cell63">
  <circle cx="586.066" cy="539.689" r="8.37375" stroke-width="0.5" stroke="black" fill="cyan"/>
  <circle cx="586.066" cy="539.689" r="5.03739" stroke-width="0.5" stroke="black" fill="cyan"/>
   </g>
   <g id="cell64">
  <circle cx="509.704" cy="639.039" r="8.41271" stroke-width="0.5" stroke="black" fill="cyan"/>
  <circle cx="509.704" cy="639.039" r="5.05167" stroke-width="0.5" stroke="black" fill="cyan"/>
   </g>
   <g id="cell65">
  <circle cx="544.472" cy="468.119" r="8.41147" stroke-width="0.5" stroke="black" fill="cyan"/>
  <circle cx="544.472" cy="468.119" r="5.05136" stroke-width="0.5" stroke="black" fill="cyan"/>
   </g>
   <g id="cell66">
  <circle cx="530.888" cy="533.862" r="8.41078" stroke-width="0.5" stroke="black" fill="cyan"/>
  <circle cx="530.888" cy="533.862" r="5.05116" stroke-width="0.5" stroke="black" fill="cyan"/>
   </g>
   <g id="cell67">
  <circle cx="354.666" cy="492.846" r="8.41271" stroke-width="0.5" stroke="black" fill="cyan"/>
  <circle cx="354.666" cy="492.846" r="5.05167" stroke-width="0.5" stroke="black" fill="cyan"/>
   </g>
   <g id="cell68">
  <circle cx="560.286" cy="558.142" r="3.3642" stroke-width="0.5" stroke="black" fill="cyan"/>
  <circle cx="560.286" cy="558.142" r="2.62376" stroke-width="0.5" stroke="black" fill="black"/>
   </g>
   <g id="cell69">
  <circle cx="441.686" cy="461.313" r="8.41271" stroke-width="0.5" stroke="black" fill="cyan"/>
  <circle cx="441.686" cy="461.313" r="5.05167" stroke-width="0.5" stroke="black" fill="cyan"/>
   </g>
   <g id="cell70">
  <circle cx="582.506" cy="482.436" r="8.41271" stroke-width="0.5" stroke="black" fill="cyan"/>
  <circle cx="582.506" cy="482.436" r="5.05167" stroke-width="0.5" stroke="black" fill="cyan"/>
   </g>
   <g id="cell71">
  <circle cx="385.484" cy="531.45" r="7.63277" stroke-width="0.5" stroke="black" fill="cyan"/>
  <circle cx="385.484" cy="531.45" r="4.63949" stroke-width="0.5" stroke="black" fill="cyan"/>
   </g>
   <g id="cell72">
  <circle cx="532.592" cy="506.198" r="7.61361" stroke-width="0.5" stroke="black" fill="cyan"/>
  <circle cx="532.592" cy="506.198" r="4.6273" stroke-width="0.5" stroke="black" fill="cyan"/>
   </g>
   <g id="cell73">
  <circle cx="364.636" cy="548.884" r="7.11746" stroke-width="0.5" stroke="black" fill="cyan"/>
  <circle cx="364.636" cy="548.884" r="4.31935" stroke-width="0.5" stroke="black" fill="cyan"/>
   </g>
   <g id="cell162">
  <circle cx="372.599" cy="537.737" r="7.95045" stroke-width="0.5" stroke="black" fill="magenta"/>
  <circle cx="372.599" cy="537.737" r="4.82139" stroke-width="0.5" stroke="black" fill="magenta"/>
   </g>
   <g id="cell75">
  <circle cx="529.648" cy="430.03" r="8.41232" stroke-width="0.5" stroke="black" fill="cyan"/>
  <circle cx="529.648" cy="430.03" r="5.05158" stroke-width="0.5" stroke="black" fill="cyan"/>
   </g>
   <g id="cell76">
  <circle cx="437.178" cy="375.859" r="8.40697" stroke-width="0.5" stroke="black" fill="green"/>
  <circle cx="437.178" cy="375.859" r="5.05005" stroke-width="0.5" stroke="black" fill="green"/>
   </g>
   <g id="cell77">
  <circle cx="475.379" cy="436.839" r="8.40829" stroke-width="0.5" stroke="black" fill="magenta"/>
  <circle cx="475.379" cy="436.839" r="5.05042" stroke-width="0.5" stroke="black" fill="magenta"/>
   </g>
   <g id="cell78">
  <circle cx="624.943" cy="461.84" r="8.41124" stroke-width="0.5" stroke="black" fill="green"/>
  <circle cx="624.943" cy="461.84" r="5.0513" stroke-width="0.5" stroke="black" fill="green"/>
   </g>
   <g id="cell79">
  <circle cx="520.707" cy="474.906" r="8.4122" stroke-width="0.5" stroke="black" fill="cyan"/>
  <circle cx="520.707" cy="474.906" r="5.05155" stroke-width="0.5" stroke="black" fill="cyan"/>
   </g>
   <g id="cell80">
  <circle cx="544.915" cy="618.201" r="8.3953" stroke-width="0.5" stroke="black" fill="green"/>
  <circle cx="544.915" cy="618.201" r="5.04589" stroke-width="0.5" stroke="black" fill="green"/>
   </g>
   <g id="cell81">
  <circle cx="546.323" cy="590.234" r="8.41189" stroke-width="0.5" stroke="black" fill="green"/>
  <circle cx="546.323" cy="590.234" r="5.05148" stroke-width="0.5" stroke="black" fill="green"/>
   </g>
   <g id="cell82">
  <circle cx="532.23" cy="559.886" r="8.30885" stroke-width="0.5" stroke="black" fill="magenta"/>
  <circle cx="532.23" cy="559.886" r="5.00859" stroke-width="0.5" stroke="black" fill="magenta"/>
   </g>
   <g id="cell83">
  <circle cx="635.468" cy="552.193" r="3.54603" stroke-width="0.5" stroke="black" fill="green"/>
  <circle cx="635.468" cy="552.193" r="2.69944" stroke-width="0.5" stroke="black" fill="black"/>
   </g>
   <g id="cell84">
  <circle cx="516.843" cy="487.538" r="6.71084" stroke-width="0.5" stroke="black" fill="cyan"/>
  <circle cx="516.843" cy="487.538" r="4.03417" stroke-width="0.5" stroke="black" fill="cyan"/>
   </g>
   <g id="cell85">
  <circle cx="351.7" cy="542.078" r="8.40993" stroke-width="0.5" stroke="black" fill="cyan"/>
  <circle cx="351.7" cy="542.078" r="5.05093" stroke-width="0.5" stroke="black" fill="cyan"/>
   </g>
   <g id="cell86">
  <circle cx="497.719" cy="536.692" r="8.39318" stroke-width="0.5" stroke="black" fill="magenta"/>
  <circle cx="497.719" cy="536.692" r="5.0451" stroke-width="0.5" stroke="black" fill="magenta"/>
   </g>
   <g id="cell87">
  <circle cx="578.201" cy="557.623" r="8.40879" stroke-width="0.5" stroke="black" fill="cyan"/>
  <circle cx="578.201" cy="557.623" r="5.05059" stroke-width="0.5" stroke="black" fill="cyan"/>
   </g>
   <g id="cell88">
  <circle cx="444.652" cy="535.962" r="7.95418" stroke-width="0.5" stroke="black" fill="magenta"/>
  <circle cx="444.652" cy="535.962" r="4.83479" stroke-width="0.5" stroke="black" fill="magenta"/>
   </g>
   <g id="cell89">
  <circle cx="552.254" cy="452.023" r="8.28053" stroke-width="0.5" stroke="black" fill="cyan"/>
  <circle cx="552.254" cy="452.023" r="4.99766" stroke-width="0.5" stroke="black" fill="cyan"/>
   </g>
   <g id="cell90">
  <circle cx="636.752" cy="472.651" r="8.38458" stroke-width="0.5" stroke="black" fill="green"/>
  <circle cx="636.752" cy="472.651" r="5.0418" stroke-width="0.5" stroke="black" fill="green"/>
   </g>
   <g id="cell91">
  <circle cx="547.354" cy="559.621" r="8.41029" stroke-width="0.5" stroke="black" fill="magenta"/>
  <circle cx="547.354" cy="559.621" r="5.05105" stroke-width="0.5" stroke="black" fill="magenta"/>
   </g>
   <g id="cell92">
  <circle cx="487.939" cy="551.883" r="8.41116" stroke-width="0.5" stroke="black" fill="green"/>
  <circle cx="487.939" cy="551.883" r="5.05127" stroke-width="0.5" stroke="black" fill="green"/>
   </g>
   <g id="cell93">
  <circle cx="539.413" cy="546.641" r="8.41029" stroke-width="0.5" stroke="black" fill="magenta"/>
  <circle cx="539.413" cy="546.641" r="5.05105" stroke-width="0.5" stroke="black" fill="magenta"/>
   </g>
   <g id="cell94">
  <circle cx="542.432" cy="494.485" r="8.41093" stroke-width="0.5" stroke="black" fill="cyan"/>
  <circle cx="542.432" cy="494.485" r="5.0512" stroke-width="0.5" stroke="black" fill="cyan"/>
   </g>
   <g id="cell95">
  <circle cx="464.247" cy="425.931" r="8.41088" stroke-width="0.5" stroke="black" fill="cyan"/>
  <circle cx="464.247" cy="425.931" r="5.05119" stroke-width="0.5" stroke="black" fill="cyan"/>
   </g>
   <g id="cell96">
  <circle cx="546.615" cy="532.552" r="8.35934" stroke-width="0.5" stroke="black" fill="cyan"/>
  <circle cx="546.615" cy="532.552" r="5.03139" stroke-width="0.5" stroke="black" fill="cyan"/>
   </g>
   <g id="cell97">
  <circle cx="422.12" cy="466.776" r="8.40904" stroke-width="0.5" stroke="black" fill="green"/>
  <circle cx="422.12" cy="466.776" r="5.05068" stroke-width="0.5" stroke="black" fill="green"/>
   </g>
   <g id="cell98">
  <circle cx="489.644" cy="523.666" r="8.38909" stroke-width="0.5" stroke="black" fill="green"/>
  <circle cx="489.644" cy="523.666" r="5.0436" stroke-width="0.5" stroke="black" fill="green"/>
   </g>
   <g id="cell99">
  <circle cx="360.262" cy="528.553" r="8.40993" stroke-width="0.5" stroke="black" fill="cyan"/>
  <circle cx="360.262" cy="528.553" r="5.05093" stroke-width="0.5" stroke="black" fill="cyan"/>
   </g>
   <g id="cell100">
  <circle cx="447.787" cy="403.624" r="8.40989" stroke-width="0.5" stroke="black" fill="green"/>
  <circle cx="447.787" cy="403.624" r="5.05091" stroke-width="0.5" stroke="black" fill="green"/>
   </g>
   <g id="cell101">
  <circle cx="535.563" cy="480.516" r="8.35422" stroke-width="0.5" stroke="black" fill="cyan"/>
  <circle cx="535.563" cy="480.516" r="5.02926" stroke-width="0.5" stroke="black" fill="cyan"/>
   </g>
   <g id="cell102">
  <circle cx="435.23" cy="475.97" r="8.40904" stroke-width="0.5" stroke="black" fill="green"/>
  <circle cx="435.23" cy="475.97" r="5.05068" stroke-width="0.5" stroke="black" fill="green"/>
   </g>
   <g id="cell103">
  <circle cx="592.817" cy="448.561" r="8.39271" stroke-width="0.5" stroke="black" fill="cyan"/>
  <circle cx="592.817" cy="448.561" r="5.04501" stroke-width="0.5" stroke="black" fill="cyan"/>
   </g>
   <g id="cell104">
  <circle cx="604.195" cy="555.456" r="6.69918" stroke-width="0.5" stroke="black" fill="cyan"/>
  <circle cx="604.195" cy="555.456" r="4.05967" stroke-width="0.5" stroke="black" fill="cyan"/>
   </g>
   <g id="cell106">
  <circle cx="460.921" cy="441.164" r="8.40829" stroke-width="0.5" stroke="black" fill="magenta"/>
  <circle cx="460.921" cy="441.164" r="5.05042" stroke-width="0.5" stroke="black" fill="magenta"/>
   </g>
   <g id="cell107">
  <circle cx="463.544" cy="389.981" r="7.77568" stroke-width="0.5" stroke="black" fill="green"/>
  <circle cx="463.544" cy="389.981" r="4.73957" stroke-width="0.5" stroke="black" fill="green"/>
   </g>
   <g id="cell108">
  <circle cx="555.876" cy="606.162" r="8.4076" stroke-width="0.5" stroke="black" fill="green"/>
  <circle cx="555.876" cy="606.162" r="5.05018" stroke-width="0.5" stroke="black" fill="green"/>
   </g>
   <g id="cell109">
  <circle cx="576.532" cy="589.718" r="8.40459" stroke-width="0.5" stroke="black" fill="green"/>
  <circle cx="576.532" cy="589.718" r="5.04928" stroke-width="0.5" stroke="black" fill="green"/>
   </g>
   <g id="cell110">
  <circle cx="369.356" cy="510.004" r="8.40576" stroke-width="0.5" stroke="black" fill="cyan"/>
  <circle cx="369.356" cy="510.004" r="5.04957" stroke-width="0.5" stroke="black" fill="cyan"/>
   </g>
   <g id="cell111">
  <circle cx="459.085" cy="556.329" r="8.35324" stroke-width="0.5" stroke="black" fill="magenta"/>
  <circle cx="459.085" cy="556.329" r="5.02912" stroke-width="0.5" stroke="black" fill="magenta"/>
   </g>
   <g id="cell112">
  <circle cx="494.375" cy="471.596" r="8.26283" stroke-width="0.5" stroke="black" fill="magenta"/>
  <circle cx="494.375" cy="471.596" r="4.98724" stroke-width="0.5" stroke="black" fill="magenta"/>
   </g>
   <g id="cell113">
  <circle cx="546.35" cy="388.735" r="8.29583" stroke-width="0.5" stroke="black" fill="green"/>
  <circle cx="546.35" cy="388.735" r="5.00307" stroke-width="0.5" stroke="black" fill="green"/>
   </g>
   <g id="cell114">
  <circle cx="525.087" cy="444.936" r="8.39927" stroke-width="0.5" stroke="black" fill="cyan"/>
  <circle cx="525.087" cy="444.936" r="5.04749" stroke-width="0.5" stroke="black" fill="cyan"/>
   </g>
   <g id="cell115">
  <circle cx="536.951" cy="454.833" r="8.36413" stroke-width="0.5" stroke="black" fill="cyan"/>
  <circle cx="536.951" cy="454.833" r="5.03401" stroke-width="0.5" stroke="black" fill="cyan"/>
   </g>
   <g id="cell116">
  <circle cx="519.32" cy="525.36" r="6.98249" stroke-width="0.5" stroke="black" fill="cyan"/>
  <circle cx="519.32" cy="525.36" r="4.23225" stroke-width="0.5" stroke="black" fill="cyan"/>
   </g>
   <g id="cell117">
  <circle cx="504.308" cy="623.824" r="8.39772" stroke-width="0.5" stroke="black" fill="green"/>
  <circle cx="504.308" cy="623.824" r="5.04688" stroke-width="0.5" stroke="black" fill="green"/>
   </g>
   <g id="cell118">
  <circle cx="509.926" cy="450.488" r="8.39552" stroke-width="0.5" stroke="black" fill="cyan"/>
  <circle cx="509.926" cy="450.488" r="5.04595" stroke-width="0.5" stroke="black" fill="cyan"/>
   </g>
   <g id="cell119">
  <circle cx="541.737" cy="603.912" r="7.16903" stroke-width="0.5" stroke="black" fill="green"/>
  <circle cx="541.737" cy="603.912" r="4.35594" stroke-width="0.5" stroke="black" fill="green"/>
   </g>
   <g id="cell120">
  <circle cx="578.559" cy="441.269" r="8.39271" stroke-width="0.5" stroke="black" fill="cyan"/>
  <circle cx="578.559" cy="441.269" r="5.04501" stroke-width="0.5" stroke="black" fill="cyan"/>
   </g>
   <g id="cell121">
  <circle cx="450.639" cy="367.075" r="8.37043" stroke-width="0.5" stroke="black" fill="green"/>
  <circle cx="450.639" cy="367.075" r="5.03678" stroke-width="0.5" stroke="black" fill="green"/>
   </g>
   <g id="cell122">
  <circle cx="505.329" cy="523.331" r="8.39318" stroke-width="0.5" stroke="black" fill="magenta"/>
  <circle cx="505.329" cy="523.331" r="5.0451" stroke-width="0.5" stroke="black" fill="magenta"/>
   </g>
   <g id="cell123">
  <circle cx="493.727" cy="509.056" r="8.38909" stroke-width="0.5" stroke="black" fill="green"/>
  <circle cx="493.727" cy="509.056" r="5.0436" stroke-width="0.5" stroke="black" fill="green"/>
   </g>
   <g id="cell124">
  <circle cx="489.832" cy="433.058" r="8.39" stroke-width="0.5" stroke="black" fill="magenta"/>
  <circle cx="489.832" cy="433.058" r="5.04385" stroke-width="0.5" stroke="black" fill="magenta"/>
   </g>
   <g id="cell125">
  <circle cx="621.559" cy="477.448" r="8.38458" stroke-width="0.5" stroke="black" fill="green"/>
  <circle cx="621.559" cy="477.448" r="5.0418" stroke-width="0.5" stroke="black" fill="green"/>
   </g>
   <g id="cell126">
  <circle cx="628.988" cy="566.353" r="8.38422" stroke-width="0.5" stroke="black" fill="green"/>
  <circle cx="628.988" cy="566.353" r="5.0416" stroke-width="0.5" stroke="black" fill="green"/>
   </g>
   <g id="cell127">
  <circle cx="436.484" cy="359.891" r="8.37043" stroke-width="0.5" stroke="black" fill="green"/>
  <circle cx="436.484" cy="359.891" r="5.03678" stroke-width="0.5" stroke="black" fill="green"/>
   </g>
   <g id="cell128">
  <circle cx="372.125" cy="467.575" r="8.37742" stroke-width="0.5" stroke="black" fill="magenta"/>
  <circle cx="372.125" cy="467.575" r="5.03881" stroke-width="0.5" stroke="black" fill="magenta"/>
   </g>
   <g id="cell129">
  <circle cx="570.675" cy="543.635" r="8.37375" stroke-width="0.5" stroke="black" fill="cyan"/>
  <circle cx="570.675" cy="543.635" r="5.03739" stroke-width="0.5" stroke="black" fill="cyan"/>
   </g>
   <g id="cell130">
  <circle cx="541.776" cy="439.968" r="8.36413" stroke-width="0.5" stroke="black" fill="cyan"/>
  <circle cx="541.776" cy="439.968" r="5.03401" stroke-width="0.5" stroke="black" fill="cyan"/>
   </g>
   <g id="cell131">
  <circle cx="543.081" cy="519.257" r="5.96909" stroke-width="0.5" stroke="black" fill="cyan"/>
  <circle cx="543.081" cy="519.257" r="3.65678" stroke-width="0.5" stroke="black" fill="cyan"/>
   </g>
   <g id="cell132">
  <circle cx="445.653" cy="550.178" r="8.35324" stroke-width="0.5" stroke="black" fill="magenta"/>
  <circle cx="445.653" cy="550.178" r="5.02912" stroke-width="0.5" stroke="black" fill="magenta"/>
   </g>
   <g id="cell133">
  <circle cx="575.389" cy="468.175" r="8.35664" stroke-width="0.5" stroke="black" fill="cyan"/>
  <circle cx="575.389" cy="468.175" r="5.03018" stroke-width="0.5" stroke="black" fill="cyan"/>
   </g>
   <g id="cell134">
  <circle cx="535.055" cy="470.853" r="1.79417" stroke-width="0.5" stroke="black" fill="cyan"/>
  <circle cx="535.055" cy="470.853" r="1.73392" stroke-width="0.5" stroke="black" fill="black"/>
   </g>
   <g id="cell135">
  <circle cx="515.707" cy="584.019" r="8.34884" stroke-width="0.5" stroke="black" fill="magenta"/>
  <circle cx="515.707" cy="584.019" r="5.02667" stroke-width="0.5" stroke="black" fill="magenta"/>
   </g>
   <g id="cell136">
  <circle cx="472.062" cy="548.55" r="8.33832" stroke-width="0.5" stroke="black" fill="green"/>
  <circle cx="472.062" cy="548.55" r="5.02215" stroke-width="0.5" stroke="black" fill="green"/>
   </g>
   <g id="cell137">
  <circle cx="490.854" cy="614.189" r="8.31778" stroke-width="0.5" stroke="black" fill="green"/>
  <circle cx="490.854" cy="614.189" r="5.01371" stroke-width="0.5" stroke="black" fill="green"/>
   </g>
   <g id="cell138">
  <circle cx="502.469" cy="406.6" r="8.32543" stroke-width="0.5" stroke="black" fill="green"/>
  <circle cx="502.469" cy="406.6" r="5.01617" stroke-width="0.5" stroke="black" fill="green"/>
   </g>
   <g id="cell139">
  <circle cx="417.908" cy="406.997" r="8.31209" stroke-width="0.5" stroke="black" fill="magenta"/>
  <circle cx="417.908" cy="406.997" r="5.01002" stroke-width="0.5" stroke="black" fill="magenta"/>
   </g>
   <g id="cell140">
  <circle cx="524.955" cy="572.723" r="8.21756" stroke-width="0.5" stroke="black" fill="magenta"/>
  <circle cx="524.955" cy="572.723" r="4.96828" stroke-width="0.5" stroke="black" fill="magenta"/>
   </g>
   <g id="cell141">
  <circle cx="567.707" cy="454.774" r="8.28053" stroke-width="0.5" stroke="black" fill="cyan"/>
  <circle cx="567.707" cy="454.774" r="4.99766" stroke-width="0.5" stroke="black" fill="cyan"/>
   </g>
   <g id="cell142">
  <circle cx="542.674" cy="423.676" r="6.83861" stroke-width="0.5" stroke="black" fill="green"/>
  <circle cx="542.674" cy="423.676" r="4.18815" stroke-width="0.5" stroke="black" fill="green"/>
   </g>
   <g id="cell143">
  <circle cx="432.866" cy="408.529" r="8.24854" stroke-width="0.5" stroke="black" fill="magenta"/>
  <circle cx="432.866" cy="408.529" r="4.98304" stroke-width="0.5" stroke="black" fill="magenta"/>
   </g>
   <g id="cell144">
  <circle cx="545.805" cy="409.876" r="7.99009" stroke-width="0.5" stroke="black" fill="green"/>
  <circle cx="545.805" cy="409.876" r="4.85492" stroke-width="0.5" stroke="black" fill="green"/>
   </g>
   <g id="cell185">
  <circle cx="592.286" cy="559.62" r="6.69918" stroke-width="0.5" stroke="black" fill="cyan"/>
  <circle cx="592.286" cy="559.62" r="4.05967" stroke-width="0.5" stroke="black" fill="cyan"/>
   </g>
   <g id="cell147">
  <circle cx="517.135" cy="560.309" r="8.21756" stroke-width="0.5" stroke="black" fill="magenta"/>
  <circle cx="517.135" cy="560.309" r="4.96828" stroke-width="0.5" stroke="black" fill="magenta"/>
   </g>
   <g id="cell148">
  <circle cx="508.132" cy="465.99" r="8.26283" stroke-width="0.5" stroke="black" fill="magenta"/>
  <circle cx="508.132" cy="465.99" r="4.98724" stroke-width="0.5" stroke="black" fill="magenta"/>
   </g>
   <g id="cell149">
  <circle cx="572.189" cy="394.832" r="8.2239" stroke-width="0.5" stroke="black" fill="magenta"/>
  <circle cx="572.189" cy="394.832" r="4.96725" stroke-width="0.5" stroke="black" fill="magenta"/>
   </g>
   <g id="cell150">
  <circle cx="409.741" cy="583.583" r="7.75896" stroke-width="0.5" stroke="black" fill="green"/>
  <circle cx="409.741" cy="583.583" r="4.72631" stroke-width="0.5" stroke="black" fill="green"/>
   </g>
   <g id="cell151">
  <circle cx="418.52" cy="528.414" r="8.17502" stroke-width="0.5" stroke="black" fill="green"/>
  <circle cx="418.52" cy="528.414" r="4.94236" stroke-width="0.5" stroke="black" fill="green"/>
   </g>
   <g id="cell152">
  <circle cx="372.142" cy="574.065" r="8.04965" stroke-width="0.5" stroke="black" fill="green"/>
  <circle cx="372.142" cy="574.065" r="4.88453" stroke-width="0.5" stroke="black" fill="green"/>
   </g>
   <g id="cell153">
  <circle cx="559.569" cy="467.934" r="8.14594" stroke-width="0.5" stroke="black" fill="cyan"/>
  <circle cx="559.569" cy="467.934" r="4.92726" stroke-width="0.5" stroke="black" fill="cyan"/>
   </g>
   <g id="cell154">
  <circle cx="387.221" cy="596.844" r="7.94799" stroke-width="0.5" stroke="black" fill="green"/>
  <circle cx="387.221" cy="596.844" r="4.8355" stroke-width="0.5" stroke="black" fill="green"/>
   </g>
   <g id="cell155">
  <circle cx="484.428" cy="583.035" r="8.13008" stroke-width="0.5" stroke="black" fill="green"/>
  <circle cx="484.428" cy="583.035" r="4.91894" stroke-width="0.5" stroke="black" fill="green"/>
   </g>
   <g id="cell156">
  <circle cx="454.654" cy="525.976" r="8.12944" stroke-width="0.5" stroke="black" fill="magenta"/>
  <circle cx="454.654" cy="525.976" r="4.91877" stroke-width="0.5" stroke="black" fill="magenta"/>
   </g>
   <g id="cell157">
  <circle cx="440.022" cy="522.825" r="7.95418" stroke-width="0.5" stroke="black" fill="magenta"/>
  <circle cx="440.022" cy="522.825" r="4.83479" stroke-width="0.5" stroke="black" fill="magenta"/>
   </g>
   <g id="cell158">
  <circle cx="559.69" cy="415.867" r="8.00889" stroke-width="0.5" stroke="black" fill="green"/>
  <circle cx="559.69" cy="415.867" r="4.86493" stroke-width="0.5" stroke="black" fill="green"/>
   </g>
   <g id="cell159">
  <circle cx="534.493" cy="401.984" r="6.58389" stroke-width="0.5" stroke="black" fill="green"/>
  <circle cx="534.493" cy="401.984" r="4.0233" stroke-width="0.5" stroke="black" fill="green"/>
   </g>
   <g id="cell160">
  <circle cx="464.134" cy="374.973" r="8.04487" stroke-width="0.5" stroke="black" fill="green"/>
  <circle cx="464.134" cy="374.973" r="4.87572" stroke-width="0.5" stroke="black" fill="green"/>
   </g>
   <g id="cell165">
  <circle cx="606.479" cy="521.03" r="7.79564" stroke-width="0.5" stroke="black" fill="magenta"/>
  <circle cx="606.479" cy="521.03" r="4.73359" stroke-width="0.5" stroke="black" fill="magenta"/>
   </g>
   <g id="cell166">
  <circle cx="483.695" cy="461.976" r="7.71595" stroke-width="0.5" stroke="black" fill="magenta"/>
  <circle cx="483.695" cy="461.976" r="4.68853" stroke-width="0.5" stroke="black" fill="magenta"/>
   </g>
   <g id="cell167">
  <circle cx="426.137" cy="395.125" r="7.63698" stroke-width="0.5" stroke="black" fill="green"/>
  <circle cx="426.137" cy="395.125" r="4.64085" stroke-width="0.5" stroke="black" fill="green"/>
   </g>
   <g id="cell170">
  <circle cx="459.883" cy="503.452" r="7.46878" stroke-width="0.5" stroke="black" fill="green"/>
  <circle cx="459.883" cy="503.452" r="4.53982" stroke-width="0.5" stroke="black" fill="green"/>
   </g>
   <g id="cell171">
  <circle cx="597.302" cy="480.897" r="7.30216" stroke-width="0.5" stroke="black" fill="cyan"/>
  <circle cx="597.302" cy="480.897" r="4.43696" stroke-width="0.5" stroke="black" fill="cyan"/>
   </g>
   <g id="cell172">
  <circle cx="552.797" cy="502.15" r="6.18131" stroke-width="0.5" stroke="black" fill="magenta"/>
  <circle cx="552.797" cy="502.15" r="3.78906" stroke-width="0.5" stroke="black" fill="magenta"/>
   </g>
   <g id="cell173">
  <circle cx="531.26" cy="519.74" r="7.14439" stroke-width="0.5" stroke="black" fill="cyan"/>
  <circle cx="531.26" cy="519.74" r="4.34567" stroke-width="0.5" stroke="black" fill="cyan"/>
   </g>
   <g id="cell174">
  <circle cx="503.101" cy="437.468" r="7.16918" stroke-width="0.5" stroke="black" fill="cyan"/>
  <circle cx="503.101" cy="437.468" r="4.35598" stroke-width="0.5" stroke="black" fill="cyan"/>
   </g>
   <g id="cell175">
  <circle cx="529.08" cy="606.813" r="7.16903" stroke-width="0.5" stroke="black" fill="green"/>
  <circle cx="529.08" cy="606.813" r="4.35594" stroke-width="0.5" stroke="black" fill="green"/>
   </g>
   <g id="cell176">
  <circle cx="554.314" cy="428.857" r="6.83861" stroke-width="0.5" stroke="black" fill="green"/>
  <circle cx="554.314" cy="428.857" r="4.18815" stroke-width="0.5" stroke="black" fill="green"/>
   </g>
   <g id="cell177">
  <circle cx="367.561" cy="560.592" r="5.79388" stroke-width="0.5" stroke="black" fill="cyan"/>
  <circle cx="367.561" cy="560.592" r="3.5314" stroke-width="0.5" stroke="black" fill="cyan"/>
   </g>
   <g id="cell178">
  <circle cx="558.655" cy="511.184" r="6.18131" stroke-width="0.5" stroke="black" fill="magenta"/>
  <circle cx="558.655" cy="511.184" r="3.78906" stroke-width="0.5" stroke="black" fill="magenta"/>
   </g>
   <g id="cell179">
  <circle cx="520.716" cy="512.688" r="6.98249" stroke-width="0.5" stroke="black" fill="cyan"/>
  <circle cx="520.716" cy="512.688" r="4.23225" stroke-width="0.5" stroke="black" fill="cyan"/>
   </g>
   <g id="cell180">
  <circle cx="616.457" cy="496.993" r="6.92764" stroke-width="0.5" stroke="black" fill="green"/>
  <circle cx="616.457" cy="496.993" r="4.1918" stroke-width="0.5" stroke="black" fill="green"/>
   </g>
   <g id="cell181">
  <circle cx="553.843" cy="521.088" r="5.96909" stroke-width="0.5" stroke="black" fill="cyan"/>
  <circle cx="553.843" cy="521.088" r="3.65678" stroke-width="0.5" stroke="black" fill="cyan"/>
   </g>
   <g id="cell182">
  <circle cx="532.369" cy="390.041" r="6.58389" stroke-width="0.5" stroke="black" fill="green"/>
  <circle cx="532.369" cy="390.041" r="4.0233" stroke-width="0.5" stroke="black" fill="green"/>
   </g>
   <g id="cell183">
  <circle cx="576.752" cy="504.634" r="6.86652" stroke-width="0.5" stroke="black" fill="magenta"/>
  <circle cx="576.752" cy="504.634" r="4.14883" stroke-width="0.5" stroke="black" fill="magenta"/>
   </g>
   <g id="cell184">
  <circle cx="431.588" cy="421.908" r="6.681" stroke-width="0.5" stroke="black" fill="magenta"/>
  <circle cx="431.588" cy="421.908" r="4.06113" stroke-width="0.5" stroke="black" fill="magenta"/>
   </g>
   <g id="cell187">
  <circle cx="506.773" cy="493.239" r="6.71084" stroke-width="0.5" stroke="black" fill="cyan"/>
  <circle cx="506.773" cy="493.239" r="4.03417" stroke-width="0.5" stroke="black" fill="cyan"/>
   </g>
  </g>
 </g>
  <rect x="775" y="1035" width="200" height="10" stroke-width="2" stroke="rgb(255,255,255)" fill="rgb(0,0,0)"/>
  <text x="781.25" y="1028.75"
   font-family="Arial" font-size="25" fill="black" >
   200 &#956;m
  </text>
  <text x="25" y="1045"
   font-family="Arial" font-size="18.75" fill="black" >
   0 days, 0 hours, 0 minutes, and 37.8283 seconds
  </text>
  <rect x="0" y="70" width="1000" height="1000" stroke-width="2" stroke="rgb(0,0,0)" fill="none"/>
</svg>
