<?xml version="1.0" encoding="UTF-8" standalone="no"?>
<!-- Created with PhysiCell (http://PhysiCell.MathCancer.org/) -->
<svg 
 xmlns:dc="http://purl.org/dc/elements/1.1/" 
 xmlns:cc="http://creativecommons.org/ns#" 
 xmlns:rdf="http://www.w3.org/1999/02/22-rdf-syntax-ns#" 
 xmlns:svg="http://www.w3.org/2000/svg" 
 xmlns="http://www.w3.org/2000/svg" 
 version="1.1" 
 width="1000" 
 height="1070" 
 id="svg2">
  <rect x="0" y="0" width="1000" height="1070" stroke-width="2" stroke="white" fill="white"/>
  <text x="12.5" y="30"
   font-family="Arial" font-size="25" fill="black" >
   Current time: 0 days, 8 hours, and 15.00 minutes, z = 0.00 &#956;m
  </text>
  <text x="12.5" y="57.5"
   font-family="Arial" font-size="23.75" fill="black" >
   103 agents
  </text>
 <g id="tissue" 
    transform="translate(0,1070) scale(1,-1)">
  <g id="ECM">
  </g>
  <g id="cells">
   <g id="cell0">
  <circle cx="518.518" cy="532.9" r="7.65871" stroke-width="0.5" stroke="black" fill="magenta"/>
  <circle cx="518.518" cy="532.9" r="4.6537" stroke-width="0.5" stroke="black" fill="magenta"/>
   </g>
   <g id="cell1">
  <circle cx="602.492" cy="526.171" r="8.41271" stroke-width="0.5" stroke="black" fill="magenta"/>
  <circle cx="602.492" cy="526.171" r="5.05167" stroke-width="0.5" stroke="black" fill="magenta"/>
   </g>
   <g id="cell2">
  <circle cx="511.376" cy="600.511" r="8.41271" stroke-width="0.5" stroke="black" fill="magenta"/>
  <circle cx="511.376" cy="600.511" r="5.05167" stroke-width="0.5" stroke="black" fill="magenta"/>
   </g>
   <g id="cell3">
  <circle cx="524.822" cy="544.378" r="7.12264" stroke-width="0.5" stroke="black" fill="magenta"/>
  <circle cx="524.822" cy="544.378" r="4.36036" stroke-width="0.5" stroke="black" fill="magenta"/>
   </g>
   <g id="cell4">
  <circle cx="487.795" cy="438.313" r="8.11327" stroke-width="0.5" stroke="black" fill="magenta"/>
  <circle cx="487.795" cy="438.313" r="4.91006" stroke-width="0.5" stroke="black" fill="magenta"/>
   </g>
   <g id="cell5">
  <circle cx="465.032" cy="493.3" r="8.41271" stroke-width="0.5" stroke="black" fill="magenta"/>
  <circle cx="465.032" cy="493.3" r="5.05167" stroke-width="0.5" stroke="black" fill="magenta"/>
   </g>
   <g id="cell6">
  <circle cx="595.637" cy="512.669" r="8.41271" stroke-width="0.5" stroke="black" fill="magenta"/>
  <circle cx="595.637" cy="512.669" r="5.05167" stroke-width="0.5" stroke="black" fill="magenta"/>
   </g>
   <g id="cell7">
  <circle cx="511.621" cy="462.407" r="8.41271" stroke-width="0.5" stroke="black" fill="magenta"/>
  <circle cx="511.621" cy="462.407" r="5.05167" stroke-width="0.5" stroke="black" fill="magenta"/>
   </g>
   <g id="cell8">
  <circle cx="376.121" cy="544.261" r="8.41271" stroke-width="0.5" stroke="black" fill="magenta"/>
  <circle cx="376.121" cy="544.261" r="5.05167" stroke-width="0.5" stroke="black" fill="magenta"/>
   </g>
   <g id="cell9">
  <circle cx="460.472" cy="599.786" r="8.41271" stroke-width="0.5" stroke="black" fill="magenta"/>
  <circle cx="460.472" cy="599.786" r="5.05167" stroke-width="0.5" stroke="black" fill="magenta"/>
   </g>
   <g id="cell10">
  <circle cx="583.447" cy="392.105" r="8.41271" stroke-width="0.5" stroke="black" fill="magenta"/>
  <circle cx="583.447" cy="392.105" r="5.05167" stroke-width="0.5" stroke="black" fill="magenta"/>
   </g>
   <g id="cell11">
  <circle cx="589.748" cy="590.273" r="8.41271" stroke-width="0.5" stroke="black" fill="magenta"/>
  <circle cx="589.748" cy="590.273" r="5.05167" stroke-width="0.5" stroke="black" fill="magenta"/>
   </g>
   <g id="cell12">
  <circle cx="506.683" cy="586.132" r="8.41271" stroke-width="0.5" stroke="black" fill="magenta"/>
  <circle cx="506.683" cy="586.132" r="5.05167" stroke-width="0.5" stroke="black" fill="magenta"/>
   </g>
   <g id="cell13">
  <circle cx="386.194" cy="568.228" r="8.41271" stroke-width="0.5" stroke="black" fill="magenta"/>
  <circle cx="386.194" cy="568.228" r="5.05167" stroke-width="0.5" stroke="black" fill="magenta"/>
   </g>
   <g id="cell14">
  <circle cx="528.567" cy="399.179" r="8.41271" stroke-width="0.5" stroke="black" fill="magenta"/>
  <circle cx="528.567" cy="399.179" r="5.05167" stroke-width="0.5" stroke="black" fill="magenta"/>
   </g>
   <g id="cell15">
  <circle cx="379.65" cy="475.1" r="8.41271" stroke-width="0.5" stroke="black" fill="magenta"/>
  <circle cx="379.65" cy="475.1" r="5.05167" stroke-width="0.5" stroke="black" fill="magenta"/>
   </g>
   <g id="cell16">
  <circle cx="428.96" cy="413.217" r="8.41271" stroke-width="0.5" stroke="black" fill="magenta"/>
  <circle cx="428.96" cy="413.217" r="5.05167" stroke-width="0.5" stroke="black" fill="magenta"/>
   </g>
   <g id="cell17">
  <circle cx="569.192" cy="488.311" r="8.41271" stroke-width="0.5" stroke="black" fill="magenta"/>
  <circle cx="569.192" cy="488.311" r="5.05167" stroke-width="0.5" stroke="black" fill="magenta"/>
   </g>
   <g id="cell18">
  <circle cx="517.416" cy="388.933" r="8.41271" stroke-width="0.5" stroke="black" fill="magenta"/>
  <circle cx="517.416" cy="388.933" r="5.05167" stroke-width="0.5" stroke="black" fill="magenta"/>
   </g>
   <g id="cell19">
  <circle cx="456.08" cy="543.14" r="7.51976" stroke-width="0.5" stroke="black" fill="magenta"/>
  <circle cx="456.08" cy="543.14" r="4.57072" stroke-width="0.5" stroke="black" fill="magenta"/>
   </g>
   <g id="cell20">
  <circle cx="531.117" cy="414.104" r="8.41271" stroke-width="0.5" stroke="black" fill="magenta"/>
  <circle cx="531.117" cy="414.104" r="5.05167" stroke-width="0.5" stroke="black" fill="magenta"/>
   </g>
   <g id="cell21">
  <circle cx="464.368" cy="634.574" r="8.41271" stroke-width="0.5" stroke="black" fill="magenta"/>
  <circle cx="464.368" cy="634.574" r="5.05167" stroke-width="0.5" stroke="black" fill="magenta"/>
   </g>
   <g id="cell22">
  <circle cx="556.859" cy="497.065" r="8.41271" stroke-width="0.5" stroke="black" fill="magenta"/>
  <circle cx="556.859" cy="497.065" r="5.05167" stroke-width="0.5" stroke="black" fill="magenta"/>
   </g>
   <g id="cell23">
  <circle cx="537.532" cy="484.25" r="8.41271" stroke-width="0.5" stroke="black" fill="magenta"/>
  <circle cx="537.532" cy="484.25" r="5.05167" stroke-width="0.5" stroke="black" fill="magenta"/>
   </g>
   <g id="cell24">
  <circle cx="559.284" cy="379.797" r="8.41271" stroke-width="0.5" stroke="black" fill="magenta"/>
  <circle cx="559.284" cy="379.797" r="5.05167" stroke-width="0.5" stroke="black" fill="magenta"/>
   </g>
   <g id="cell25">
  <circle cx="645.418" cy="545.509" r="7.95045" stroke-width="0.5" stroke="black" fill="green"/>
  <circle cx="645.418" cy="545.509" r="4.82139" stroke-width="0.5" stroke="black" fill="green"/>
   </g>
   <g id="cell26">
  <circle cx="551.106" cy="401.249" r="8.41271" stroke-width="0.5" stroke="black" fill="green"/>
  <circle cx="551.106" cy="401.249" r="5.05167" stroke-width="0.5" stroke="black" fill="green"/>
   </g>
   <g id="cell27">
  <circle cx="463.033" cy="390.612" r="8.13008" stroke-width="0.5" stroke="black" fill="green"/>
  <circle cx="463.033" cy="390.612" r="4.91894" stroke-width="0.5" stroke="black" fill="green"/>
   </g>
   <g id="cell28">
  <circle cx="434.29" cy="530.762" r="8.41271" stroke-width="0.5" stroke="black" fill="green"/>
  <circle cx="434.29" cy="530.762" r="5.05167" stroke-width="0.5" stroke="black" fill="green"/>
   </g>
   <g id="cell29">
  <circle cx="450.357" cy="517.012" r="8.41271" stroke-width="0.5" stroke="black" fill="green"/>
  <circle cx="450.357" cy="517.012" r="5.05167" stroke-width="0.5" stroke="black" fill="green"/>
   </g>
   <g id="cell30">
  <circle cx="481.114" cy="535.431" r="7.27253" stroke-width="0.5" stroke="black" fill="green"/>
  <circle cx="481.114" cy="535.431" r="4.41835" stroke-width="0.5" stroke="black" fill="green"/>
   </g>
   <g id="cell31">
  <circle cx="412.757" cy="541.193" r="8.41271" stroke-width="0.5" stroke="black" fill="green"/>
  <circle cx="412.757" cy="541.193" r="5.05167" stroke-width="0.5" stroke="black" fill="green"/>
   </g>
   <g id="cell32">
  <circle cx="421.677" cy="480.517" r="6.92764" stroke-width="0.5" stroke="black" fill="green"/>
  <circle cx="421.677" cy="480.517" r="4.1918" stroke-width="0.5" stroke="black" fill="green"/>
   </g>
   <g id="cell33">
  <circle cx="495.67" cy="425.004" r="8.41271" stroke-width="0.5" stroke="black" fill="green"/>
  <circle cx="495.67" cy="425.004" r="5.05167" stroke-width="0.5" stroke="black" fill="green"/>
   </g>
   <g id="cell34">
  <circle cx="397.088" cy="450.831" r="8.41271" stroke-width="0.5" stroke="black" fill="green"/>
  <circle cx="397.088" cy="450.831" r="5.05167" stroke-width="0.5" stroke="black" fill="green"/>
   </g>
   <g id="cell35">
  <circle cx="550.848" cy="542.788" r="8.41271" stroke-width="0.5" stroke="black" fill="green"/>
  <circle cx="550.848" cy="542.788" r="5.05167" stroke-width="0.5" stroke="black" fill="green"/>
   </g>
   <g id="cell36">
  <circle cx="391.486" cy="582.903" r="8.41271" stroke-width="0.5" stroke="black" fill="green"/>
  <circle cx="391.486" cy="582.903" r="5.05167" stroke-width="0.5" stroke="black" fill="green"/>
   </g>
   <g id="cell37">
  <circle cx="639.324" cy="457.393" r="8.08613" stroke-width="0.5" stroke="black" fill="green"/>
  <circle cx="639.324" cy="457.393" r="4.8956" stroke-width="0.5" stroke="black" fill="green"/>
   </g>
   <g id="cell38">
  <circle cx="531.846" cy="598.381" r="8.02418" stroke-width="0.5" stroke="black" fill="green"/>
  <circle cx="531.846" cy="598.381" r="4.86209" stroke-width="0.5" stroke="black" fill="green"/>
   </g>
   <g id="cell39">
  <circle cx="613.458" cy="490.595" r="8.41271" stroke-width="0.5" stroke="black" fill="green"/>
  <circle cx="613.458" cy="490.595" r="5.05167" stroke-width="0.5" stroke="black" fill="green"/>
   </g>
   <g id="cell40">
  <circle cx="485.348" cy="571.779" r="8.41271" stroke-width="0.5" stroke="black" fill="green"/>
  <circle cx="485.348" cy="571.779" r="5.05167" stroke-width="0.5" stroke="black" fill="green"/>
   </g>
   <g id="cell41">
  <circle cx="364.925" cy="480.252" r="8.41271" stroke-width="0.5" stroke="black" fill="green"/>
  <circle cx="364.925" cy="480.252" r="5.05167" stroke-width="0.5" stroke="black" fill="green"/>
   </g>
   <g id="cell42">
  <circle cx="438.842" cy="494.268" r="8.41271" stroke-width="0.5" stroke="black" fill="green"/>
  <circle cx="438.842" cy="494.268" r="5.05167" stroke-width="0.5" stroke="black" fill="green"/>
   </g>
   <g id="cell43">
  <circle cx="559.258" cy="444.957" r="8.41271" stroke-width="0.5" stroke="black" fill="green"/>
  <circle cx="559.258" cy="444.957" r="5.05167" stroke-width="0.5" stroke="black" fill="green"/>
   </g>
   <g id="cell44">
  <circle cx="475.857" cy="624.021" r="8.41271" stroke-width="0.5" stroke="black" fill="green"/>
  <circle cx="475.857" cy="624.021" r="5.05167" stroke-width="0.5" stroke="black" fill="green"/>
   </g>
   <g id="cell45">
  <circle cx="414.953" cy="557.066" r="8.41271" stroke-width="0.5" stroke="black" fill="green"/>
  <circle cx="414.953" cy="557.066" r="5.05167" stroke-width="0.5" stroke="black" fill="green"/>
   </g>
   <g id="cell46">
  <circle cx="522.705" cy="611.14" r="8.41271" stroke-width="0.5" stroke="black" fill="green"/>
  <circle cx="522.705" cy="611.14" r="5.05167" stroke-width="0.5" stroke="black" fill="green"/>
   </g>
   <g id="cell47">
  <circle cx="506.104" cy="504.775" r="6.86652" stroke-width="0.5" stroke="black" fill="green"/>
  <circle cx="506.104" cy="504.775" r="4.14883" stroke-width="0.5" stroke="black" fill="green"/>
   </g>
   <g id="cell48">
  <circle cx="563.829" cy="602.597" r="8.41271" stroke-width="0.5" stroke="black" fill="green"/>
  <circle cx="563.829" cy="602.597" r="5.05167" stroke-width="0.5" stroke="black" fill="green"/>
   </g>
   <g id="cell49">
  <circle cx="429.826" cy="397.641" r="8.41271" stroke-width="0.5" stroke="black" fill="green"/>
  <circle cx="429.826" cy="397.641" r="5.05167" stroke-width="0.5" stroke="black" fill="green"/>
   </g>
   <g id="cell50">
  <circle cx="519.892" cy="518.85" r="7.72056" stroke-width="0.5" stroke="black" fill="cyan"/>
  <circle cx="519.892" cy="518.85" r="4.69003" stroke-width="0.5" stroke="black" fill="cyan"/>
   </g>
   <g id="cell51">
  <circle cx="398.721" cy="597.201" r="8.41271" stroke-width="0.5" stroke="black" fill="cyan"/>
  <circle cx="398.721" cy="597.201" r="5.05167" stroke-width="0.5" stroke="black" fill="cyan"/>
   </g>
   <g id="cell52">
  <circle cx="519.949" cy="424.989" r="8.41271" stroke-width="0.5" stroke="black" fill="cyan"/>
  <circle cx="519.949" cy="424.989" r="5.05167" stroke-width="0.5" stroke="black" fill="cyan"/>
   </g>
   <g id="cell53">
  <circle cx="571.834" cy="435.577" r="8.41271" stroke-width="0.5" stroke="black" fill="cyan"/>
  <circle cx="571.834" cy="435.577" r="5.05167" stroke-width="0.5" stroke="black" fill="cyan"/>
   </g>
   <g id="cell54">
  <circle cx="481.21" cy="425.978" r="7.08639" stroke-width="0.5" stroke="black" fill="cyan"/>
  <circle cx="481.21" cy="425.978" r="4.29876" stroke-width="0.5" stroke="black" fill="cyan"/>
   </g>
   <g id="cell55">
  <circle cx="524.519" cy="465.494" r="6.42374" stroke-width="0.5" stroke="black" fill="cyan"/>
  <circle cx="524.519" cy="465.494" r="3.89499" stroke-width="0.5" stroke="black" fill="cyan"/>
   </g>
   <g id="cell56">
  <circle cx="617.613" cy="522.333" r="8.41271" stroke-width="0.5" stroke="black" fill="cyan"/>
  <circle cx="617.613" cy="522.333" r="5.05167" stroke-width="0.5" stroke="black" fill="cyan"/>
   </g>
   <g id="cell57">
  <circle cx="416.924" cy="617.466" r="1.28243" stroke-width="0.5" stroke="black" fill="cyan"/>
  <circle cx="416.924" cy="617.466" r="1.27531" stroke-width="0.5" stroke="black" fill="black"/>
   </g>
   <g id="cell58">
  <circle cx="553.357" cy="482.367" r="8.41271" stroke-width="0.5" stroke="black" fill="cyan"/>
  <circle cx="553.357" cy="482.367" r="5.05167" stroke-width="0.5" stroke="black" fill="cyan"/>
   </g>
   <g id="cell59">
  <circle cx="385.463" cy="439.803" r="8.41271" stroke-width="0.5" stroke="black" fill="cyan"/>
  <circle cx="385.463" cy="439.803" r="5.05167" stroke-width="0.5" stroke="black" fill="cyan"/>
   </g>
   <g id="cell60">
  <circle cx="593.179" cy="473.64" r="8.41271" stroke-width="0.5" stroke="black" fill="cyan"/>
  <circle cx="593.179" cy="473.64" r="5.05167" stroke-width="0.5" stroke="black" fill="cyan"/>
   </g>
   <g id="cell61">
  <circle cx="553.132" cy="614.406" r="8.41271" stroke-width="0.5" stroke="black" fill="cyan"/>
  <circle cx="553.132" cy="614.406" r="5.05167" stroke-width="0.5" stroke="black" fill="cyan"/>
   </g>
   <g id="cell62">
  <circle cx="521.713" cy="450.813" r="8.13813" stroke-width="0.5" stroke="black" fill="cyan"/>
  <circle cx="521.713" cy="450.813" r="4.92317" stroke-width="0.5" stroke="black" fill="cyan"/>
   </g>
   <g id="cell63">
  <circle cx="575.235" cy="540.39" r="7.59183" stroke-width="0.5" stroke="black" fill="cyan"/>
  <circle cx="575.235" cy="540.39" r="4.61399" stroke-width="0.5" stroke="black" fill="cyan"/>
   </g>
   <g id="cell64">
  <circle cx="509.962" cy="636.825" r="8.41271" stroke-width="0.5" stroke="black" fill="cyan"/>
  <circle cx="509.962" cy="636.825" r="5.05167" stroke-width="0.5" stroke="black" fill="cyan"/>
   </g>
   <g id="cell65">
  <circle cx="546.71" cy="469.699" r="7.49456" stroke-width="0.5" stroke="black" fill="cyan"/>
  <circle cx="546.71" cy="469.699" r="4.55548" stroke-width="0.5" stroke="black" fill="cyan"/>
   </g>
   <g id="cell66">
  <circle cx="531.986" cy="533.571" r="7.02257" stroke-width="0.5" stroke="black" fill="cyan"/>
  <circle cx="531.986" cy="533.571" r="4.25644" stroke-width="0.5" stroke="black" fill="cyan"/>
   </g>
   <g id="cell67">
  <circle cx="354.711" cy="492.599" r="8.41271" stroke-width="0.5" stroke="black" fill="cyan"/>
  <circle cx="354.711" cy="492.599" r="5.05167" stroke-width="0.5" stroke="black" fill="cyan"/>
   </g>
   <g id="cell68">
  <circle cx="564.715" cy="551.398" r="8.41271" stroke-width="0.5" stroke="black" fill="cyan"/>
  <circle cx="564.715" cy="551.398" r="5.05167" stroke-width="0.5" stroke="black" fill="cyan"/>
   </g>
   <g id="cell69">
  <circle cx="441.296" cy="461.84" r="8.41271" stroke-width="0.5" stroke="black" fill="cyan"/>
  <circle cx="441.296" cy="461.84" r="5.05167" stroke-width="0.5" stroke="black" fill="cyan"/>
   </g>
   <g id="cell70">
  <circle cx="577.21" cy="474.917" r="8.41271" stroke-width="0.5" stroke="black" fill="cyan"/>
  <circle cx="577.21" cy="474.917" r="5.05167" stroke-width="0.5" stroke="black" fill="cyan"/>
   </g>
   <g id="cell71">
  <circle cx="377.712" cy="520.989" r="8.41271" stroke-width="0.5" stroke="black" fill="cyan"/>
  <circle cx="377.712" cy="520.989" r="5.05167" stroke-width="0.5" stroke="black" fill="cyan"/>
   </g>
   <g id="cell72">
  <circle cx="531.738" cy="511.31" r="7.11815" stroke-width="0.5" stroke="black" fill="cyan"/>
  <circle cx="531.738" cy="511.31" r="4.31954" stroke-width="0.5" stroke="black" fill="cyan"/>
   </g>
   <g id="cell73">
  <circle cx="363.165" cy="551.57" r="7.67987" stroke-width="0.5" stroke="black" fill="cyan"/>
  <circle cx="363.165" cy="551.57" r="4.66617" stroke-width="0.5" stroke="black" fill="cyan"/>
   </g>
   <g id="cell74">
  <circle cx="543.075" cy="444.998" r="8.41271" stroke-width="0.5" stroke="black" fill="cyan"/>
  <circle cx="543.075" cy="444.998" r="5.05167" stroke-width="0.5" stroke="black" fill="cyan"/>
   </g>
   <g id="cell75">
  <circle cx="529.46" cy="437.427" r="8.13813" stroke-width="0.5" stroke="black" fill="cyan"/>
  <circle cx="529.46" cy="437.427" r="4.92317" stroke-width="0.5" stroke="black" fill="cyan"/>
   </g>
   <g id="cell76">
  <circle cx="447.548" cy="381.17" r="6.48967" stroke-width="0.5" stroke="black" fill="green"/>
  <circle cx="447.548" cy="381.17" r="3.93022" stroke-width="0.5" stroke="black" fill="green"/>
   </g>
   <g id="cell77">
  <circle cx="473.129" cy="437.371" r="8.11327" stroke-width="0.5" stroke="black" fill="magenta"/>
  <circle cx="473.129" cy="437.371" r="4.91006" stroke-width="0.5" stroke="black" fill="magenta"/>
   </g>
   <g id="cell78">
  <circle cx="625.376" cy="461.664" r="7.29123" stroke-width="0.5" stroke="black" fill="green"/>
  <circle cx="625.376" cy="461.664" r="4.45728" stroke-width="0.5" stroke="black" fill="green"/>
   </g>
   <g id="cell79">
  <circle cx="516.91" cy="476.87" r="8.04604" stroke-width="0.5" stroke="black" fill="cyan"/>
  <circle cx="516.91" cy="476.87" r="4.87399" stroke-width="0.5" stroke="black" fill="cyan"/>
   </g>
   <g id="cell80">
  <circle cx="537.991" cy="612.079" r="7.80291" stroke-width="0.5" stroke="black" fill="green"/>
  <circle cx="537.991" cy="612.079" r="4.75338" stroke-width="0.5" stroke="black" fill="green"/>
   </g>
   <g id="cell81">
  <circle cx="546.933" cy="600.248" r="7.80291" stroke-width="0.5" stroke="black" fill="green"/>
  <circle cx="546.933" cy="600.248" r="4.75338" stroke-width="0.5" stroke="black" fill="green"/>
   </g>
   <g id="cell82">
  <circle cx="530.837" cy="556.289" r="7.95045" stroke-width="0.5" stroke="black" fill="magenta"/>
  <circle cx="530.837" cy="556.289" r="4.82139" stroke-width="0.5" stroke="black" fill="magenta"/>
   </g>
   <g id="cell83">
  <circle cx="634.794" cy="556.242" r="7.95045" stroke-width="0.5" stroke="black" fill="green"/>
  <circle cx="634.794" cy="556.242" r="4.82139" stroke-width="0.5" stroke="black" fill="green"/>
   </g>
   <g id="cell84">
  <circle cx="519.789" cy="504.219" r="7.72056" stroke-width="0.5" stroke="black" fill="cyan"/>
  <circle cx="519.789" cy="504.219" r="4.69003" stroke-width="0.5" stroke="black" fill="cyan"/>
   </g>
   <g id="cell85">
  <circle cx="354.646" cy="541.536" r="6.28607" stroke-width="0.5" stroke="black" fill="cyan"/>
  <circle cx="354.646" cy="541.536" r="3.83827" stroke-width="0.5" stroke="black" fill="cyan"/>
   </g>
   <g id="cell86">
  <circle cx="507.211" cy="525.343" r="7.65871" stroke-width="0.5" stroke="black" fill="magenta"/>
  <circle cx="507.211" cy="525.343" r="4.6537" stroke-width="0.5" stroke="black" fill="magenta"/>
   </g>
   <g id="cell87">
  <circle cx="579.843" cy="554.009" r="7.59183" stroke-width="0.5" stroke="black" fill="cyan"/>
  <circle cx="579.843" cy="554.009" r="4.61399" stroke-width="0.5" stroke="black" fill="cyan"/>
   </g>
   <g id="cell88">
  <circle cx="448.996" cy="531.674" r="7.51976" stroke-width="0.5" stroke="black" fill="magenta"/>
  <circle cx="448.996" cy="531.674" r="4.57072" stroke-width="0.5" stroke="black" fill="magenta"/>
   </g>
   <g id="cell89">
  <circle cx="551.484" cy="457.168" r="7.49456" stroke-width="0.5" stroke="black" fill="cyan"/>
  <circle cx="551.484" cy="457.168" r="4.55548" stroke-width="0.5" stroke="black" fill="cyan"/>
   </g>
   <g id="cell90">
  <circle cx="630.6" cy="474.44" r="7.29123" stroke-width="0.5" stroke="black" fill="green"/>
  <circle cx="630.6" cy="474.44" r="4.45728" stroke-width="0.5" stroke="black" fill="green"/>
   </g>
   <g id="cell91">
  <circle cx="543.472" cy="554.236" r="6.40581" stroke-width="0.5" stroke="black" fill="magenta"/>
  <circle cx="543.472" cy="554.236" r="3.9508" stroke-width="0.5" stroke="black" fill="magenta"/>
   </g>
   <g id="cell92">
  <circle cx="482.432" cy="549.141" r="7.27253" stroke-width="0.5" stroke="black" fill="green"/>
  <circle cx="482.432" cy="549.141" r="4.41835" stroke-width="0.5" stroke="black" fill="green"/>
   </g>
   <g id="cell93">
  <circle cx="537.008" cy="544.816" r="6.40581" stroke-width="0.5" stroke="black" fill="magenta"/>
  <circle cx="537.008" cy="544.816" r="3.9508" stroke-width="0.5" stroke="black" fill="magenta"/>
   </g>
   <g id="cell94">
  <circle cx="532.4" cy="497.799" r="7.11815" stroke-width="0.5" stroke="black" fill="cyan"/>
  <circle cx="532.4" cy="497.799" r="4.31954" stroke-width="0.5" stroke="black" fill="cyan"/>
   </g>
   <g id="cell95">
  <circle cx="468.098" cy="424.088" r="7.08639" stroke-width="0.5" stroke="black" fill="cyan"/>
  <circle cx="468.098" cy="424.088" r="4.29876" stroke-width="0.5" stroke="black" fill="cyan"/>
   </g>
   <g id="cell96">
  <circle cx="538.824" cy="522.456" r="7.02257" stroke-width="0.5" stroke="black" fill="cyan"/>
  <circle cx="538.824" cy="522.456" r="4.25644" stroke-width="0.5" stroke="black" fill="cyan"/>
   </g>
   <g id="cell97">
  <circle cx="423.629" cy="468.34" r="5.54901" stroke-width="0.5" stroke="black" fill="green"/>
  <circle cx="423.629" cy="468.34" r="3.36274" stroke-width="0.5" stroke="black" fill="green"/>
   </g>
   <g id="cell98">
  <circle cx="498.542" cy="515.263" r="6.86652" stroke-width="0.5" stroke="black" fill="green"/>
  <circle cx="498.542" cy="515.263" r="4.14883" stroke-width="0.5" stroke="black" fill="green"/>
   </g>
   <g id="cell99">
  <circle cx="357.543" cy="530.063" r="6.28607" stroke-width="0.5" stroke="black" fill="cyan"/>
  <circle cx="357.543" cy="530.063" r="3.83827" stroke-width="0.5" stroke="black" fill="cyan"/>
   </g>
   <g id="cell100">
  <circle cx="449.496" cy="393.314" r="6.48967" stroke-width="0.5" stroke="black" fill="green"/>
  <circle cx="449.496" cy="393.314" r="3.93022" stroke-width="0.5" stroke="black" fill="green"/>
   </g>
   <g id="cell101">
  <circle cx="534.423" cy="471.259" r="6.42374" stroke-width="0.5" stroke="black" fill="cyan"/>
  <circle cx="534.423" cy="471.259" r="3.89499" stroke-width="0.5" stroke="black" fill="cyan"/>
   </g>
   <g id="cell102">
  <circle cx="433.291" cy="472.174" r="5.54901" stroke-width="0.5" stroke="black" fill="green"/>
  <circle cx="433.291" cy="472.174" r="3.36274" stroke-width="0.5" stroke="black" fill="green"/>
   </g>
  </g>
 </g>
  <rect x="775" y="1035" width="200" height="10" stroke-width="2" stroke="rgb(255,255,255)" fill="rgb(0,0,0)"/>
  <text x="781.25" y="1028.75"
   font-family="Arial" font-size="25" fill="black" >
   200 &#956;m
  </text>
  <text x="25" y="1045"
   font-family="Arial" font-size="18.75" fill="black" >
   0 days, 0 hours, 0 minutes, and 9.2270 seconds
  </text>
  <rect x="0" y="70" width="1000" height="1000" stroke-width="2" stroke="rgb(0,0,0)" fill="none"/>
</svg>
