<?xml version="1.0" encoding="UTF-8" standalone="no"?>
<!-- Created with PhysiCell (http://PhysiCell.MathCancer.org/) -->
<svg 
 xmlns:dc="http://purl.org/dc/elements/1.1/" 
 xmlns:cc="http://creativecommons.org/ns#" 
 xmlns:rdf="http://www.w3.org/1999/02/22-rdf-syntax-ns#" 
 xmlns:svg="http://www.w3.org/2000/svg" 
 xmlns="http://www.w3.org/2000/svg" 
 version="1.1" 
 width="1000" 
 height="1070" 
 id="svg2">
  <rect x="0" y="0" width="1000" height="1070" stroke-width="2" stroke="white" fill="white"/>
  <text x="12.5" y="30"
   font-family="Arial" font-size="25" fill="black" >
   Current time: 1 days, 18 hours, and 0.00 minutes, z = 0.00 &#956;m
  </text>
  <text x="12.5" y="57.5"
   font-family="Arial" font-size="23.75" fill="black" >
   215 agents
  </text>
 <g id="tissue" 
    transform="translate(0,1070) scale(1,-1)">
  <g id="ECM">
  </g>
  <g id="cells">
   <g id="cell0">
  <circle cx="508.804" cy="542.884" r="8.41265" stroke-width="0.5" stroke="black" fill="magenta"/>
  <circle cx="508.804" cy="542.884" r="5.05166" stroke-width="0.5" stroke="black" fill="magenta"/>
   </g>
   <g id="cell1">
  <circle cx="591.251" cy="523.034" r="8.38028" stroke-width="0.5" stroke="black" fill="magenta"/>
  <circle cx="591.251" cy="523.034" r="5.03997" stroke-width="0.5" stroke="black" fill="magenta"/>
   </g>
   <g id="cell2">
  <circle cx="512.73" cy="597.825" r="8.41271" stroke-width="0.5" stroke="black" fill="magenta"/>
  <circle cx="512.73" cy="597.825" r="5.05167" stroke-width="0.5" stroke="black" fill="magenta"/>
   </g>
   <g id="cell3">
  <circle cx="523.785" cy="546.814" r="8.41261" stroke-width="0.5" stroke="black" fill="magenta"/>
  <circle cx="523.785" cy="546.814" r="5.05165" stroke-width="0.5" stroke="black" fill="magenta"/>
   </g>
   <g id="cell4">
  <circle cx="483.147" cy="444.698" r="8.41142" stroke-width="0.5" stroke="black" fill="magenta"/>
  <circle cx="483.147" cy="444.698" r="5.05135" stroke-width="0.5" stroke="black" fill="magenta"/>
   </g>
   <g id="cell5">
  <circle cx="468.572" cy="490.363" r="8.41271" stroke-width="0.5" stroke="black" fill="magenta"/>
  <circle cx="468.572" cy="490.363" r="5.05167" stroke-width="0.5" stroke="black" fill="magenta"/>
   </g>
   <g id="cell163">
  <circle cx="535.64" cy="573.64" r="5.89464" stroke-width="0.5" stroke="black" fill="green"/>
  <circle cx="535.64" cy="573.64" r="3.58593" stroke-width="0.5" stroke="black" fill="green"/>
   </g>
   <g id="cell7">
  <circle cx="495.246" cy="454.701" r="8.37619" stroke-width="0.5" stroke="black" fill="magenta"/>
  <circle cx="495.246" cy="454.701" r="5.03835" stroke-width="0.5" stroke="black" fill="magenta"/>
   </g>
   <g id="cell8">
  <circle cx="378.897" cy="553.072" r="8.38823" stroke-width="0.5" stroke="black" fill="magenta"/>
  <circle cx="378.897" cy="553.072" r="5.04313" stroke-width="0.5" stroke="black" fill="magenta"/>
   </g>
   <g id="cell161">
  <circle cx="452.548" cy="386.588" r="8.37971" stroke-width="0.5" stroke="black" fill="green"/>
  <circle cx="452.548" cy="386.588" r="5.04034" stroke-width="0.5" stroke="black" fill="green"/>
   </g>
   <g id="cell10">
  <circle cx="582.942" cy="389.165" r="6.00896" stroke-width="0.5" stroke="black" fill="magenta"/>
  <circle cx="582.942" cy="389.165" r="3.67899" stroke-width="0.5" stroke="black" fill="magenta"/>
   </g>
   <g id="cell11">
  <circle cx="590.256" cy="593.001" r="8.41271" stroke-width="0.5" stroke="black" fill="magenta"/>
  <circle cx="590.256" cy="593.001" r="5.05167" stroke-width="0.5" stroke="black" fill="magenta"/>
   </g>
   <g id="cell12">
  <circle cx="498.114" cy="594.812" r="8.40915" stroke-width="0.5" stroke="black" fill="magenta"/>
  <circle cx="498.114" cy="594.812" r="5.05067" stroke-width="0.5" stroke="black" fill="magenta"/>
   </g>
   <g id="cell13">
  <circle cx="383.739" cy="567.615" r="8.41271" stroke-width="0.5" stroke="black" fill="magenta"/>
  <circle cx="383.739" cy="567.615" r="5.05167" stroke-width="0.5" stroke="black" fill="magenta"/>
   </g>
   <g id="cell14">
  <circle cx="516.695" cy="404.429" r="8.41271" stroke-width="0.5" stroke="black" fill="magenta"/>
  <circle cx="516.695" cy="404.429" r="5.05167" stroke-width="0.5" stroke="black" fill="magenta"/>
   </g>
   <g id="cell15">
  <circle cx="382.192" cy="478.68" r="8.41072" stroke-width="0.5" stroke="black" fill="magenta"/>
  <circle cx="382.192" cy="478.68" r="5.05114" stroke-width="0.5" stroke="black" fill="magenta"/>
   </g>
   <g id="cell16">
  <circle cx="452.214" cy="417.958" r="8.13212" stroke-width="0.5" stroke="black" fill="magenta"/>
  <circle cx="452.214" cy="417.958" r="4.92132" stroke-width="0.5" stroke="black" fill="magenta"/>
   </g>
   <g id="cell17">
  <circle cx="582.825" cy="498.639" r="8.32543" stroke-width="0.5" stroke="black" fill="magenta"/>
  <circle cx="582.825" cy="498.639" r="5.01617" stroke-width="0.5" stroke="black" fill="magenta"/>
   </g>
   <g id="cell18">
  <circle cx="517.564" cy="389.221" r="8.41271" stroke-width="0.5" stroke="black" fill="magenta"/>
  <circle cx="517.564" cy="389.221" r="5.05167" stroke-width="0.5" stroke="black" fill="magenta"/>
   </g>
   <g id="cell19">
  <circle cx="457.235" cy="541.365" r="8.41225" stroke-width="0.5" stroke="black" fill="magenta"/>
  <circle cx="457.235" cy="541.365" r="5.05157" stroke-width="0.5" stroke="black" fill="magenta"/>
   </g>
   <g id="cell20">
  <circle cx="529.583" cy="412.076" r="8.41271" stroke-width="0.5" stroke="black" fill="magenta"/>
  <circle cx="529.583" cy="412.076" r="5.05167" stroke-width="0.5" stroke="black" fill="magenta"/>
   </g>
   <g id="cell21">
  <circle cx="467.731" cy="637.559" r="7.9229" stroke-width="0.5" stroke="black" fill="magenta"/>
  <circle cx="467.731" cy="637.559" r="4.80599" stroke-width="0.5" stroke="black" fill="magenta"/>
   </g>
   <g id="cell22">
  <circle cx="559.934" cy="488.302" r="8.04201" stroke-width="0.5" stroke="black" fill="magenta"/>
  <circle cx="559.934" cy="488.302" r="4.87678" stroke-width="0.5" stroke="black" fill="magenta"/>
   </g>
   <g id="cell23">
  <circle cx="554.537" cy="475.423" r="8.41271" stroke-width="0.5" stroke="black" fill="magenta"/>
  <circle cx="554.537" cy="475.423" r="5.05167" stroke-width="0.5" stroke="black" fill="magenta"/>
   </g>
   <g id="cell24">
  <circle cx="571.093" cy="384.836" r="8.41271" stroke-width="0.5" stroke="black" fill="magenta"/>
  <circle cx="571.093" cy="384.836" r="5.05167" stroke-width="0.5" stroke="black" fill="magenta"/>
   </g>
   <g id="cell25">
  <circle cx="643.328" cy="546.329" r="7.83017" stroke-width="0.5" stroke="black" fill="green"/>
  <circle cx="643.328" cy="546.329" r="4.75343" stroke-width="0.5" stroke="black" fill="green"/>
   </g>
   <g id="cell26">
  <circle cx="560.307" cy="396.133" r="8.41225" stroke-width="0.5" stroke="black" fill="green"/>
  <circle cx="560.307" cy="396.133" r="5.05156" stroke-width="0.5" stroke="black" fill="green"/>
   </g>
   <g id="cell27">
  <circle cx="461.718" cy="405.855" r="8.41269" stroke-width="0.5" stroke="black" fill="green"/>
  <circle cx="461.718" cy="405.855" r="5.05167" stroke-width="0.5" stroke="black" fill="green"/>
   </g>
   <g id="cell28">
  <circle cx="428.622" cy="543.122" r="8.39987" stroke-width="0.5" stroke="black" fill="green"/>
  <circle cx="428.622" cy="543.122" r="5.04751" stroke-width="0.5" stroke="black" fill="green"/>
   </g>
   <g id="cell220">
  <circle cx="588.698" cy="379.12" r="7.14259" stroke-width="0.5" stroke="black" fill="magenta"/>
  <circle cx="588.698" cy="379.12" r="4.33761" stroke-width="0.5" stroke="black" fill="magenta"/>
   </g>
   <g id="cell30">
  <circle cx="478.986" cy="536.921" r="8.40857" stroke-width="0.5" stroke="black" fill="green"/>
  <circle cx="478.986" cy="536.921" r="5.05049" stroke-width="0.5" stroke="black" fill="green"/>
   </g>
   <g id="cell31">
  <circle cx="412.686" cy="544.574" r="8.41271" stroke-width="0.5" stroke="black" fill="green"/>
  <circle cx="412.686" cy="544.574" r="5.05167" stroke-width="0.5" stroke="black" fill="green"/>
   </g>
   <g id="cell169">
  <circle cx="521.593" cy="502.996" r="8.37086" stroke-width="0.5" stroke="black" fill="cyan"/>
  <circle cx="521.593" cy="502.996" r="5.03612" stroke-width="0.5" stroke="black" fill="cyan"/>
   </g>
   <g id="cell33">
  <circle cx="495.843" cy="414.868" r="8.40788" stroke-width="0.5" stroke="black" fill="green"/>
  <circle cx="495.843" cy="414.868" r="5.05027" stroke-width="0.5" stroke="black" fill="green"/>
   </g>
   <g id="cell168">
  <circle cx="381.479" cy="517.957" r="2.55546" stroke-width="0.5" stroke="black" fill="cyan"/>
  <circle cx="381.479" cy="517.957" r="2.24602" stroke-width="0.5" stroke="black" fill="black"/>
   </g>
   <g id="cell35">
  <circle cx="556.594" cy="558.062" r="8.41271" stroke-width="0.5" stroke="black" fill="green"/>
  <circle cx="556.594" cy="558.062" r="5.05167" stroke-width="0.5" stroke="black" fill="green"/>
   </g>
   <g id="cell36">
  <circle cx="388.875" cy="582.499" r="8.38824" stroke-width="0.5" stroke="black" fill="green"/>
  <circle cx="388.875" cy="582.499" r="5.04367" stroke-width="0.5" stroke="black" fill="green"/>
   </g>
   <g id="cell37">
  <circle cx="642.406" cy="456.586" r="8.41268" stroke-width="0.5" stroke="black" fill="green"/>
  <circle cx="642.406" cy="456.586" r="5.05167" stroke-width="0.5" stroke="black" fill="green"/>
   </g>
   <g id="cell38">
  <circle cx="522.905" cy="587.537" r="8.38822" stroke-width="0.5" stroke="black" fill="green"/>
  <circle cx="522.905" cy="587.537" r="5.04313" stroke-width="0.5" stroke="black" fill="green"/>
   </g>
   <g id="cell39">
  <circle cx="612.916" cy="491.595" r="8.33026" stroke-width="0.5" stroke="black" fill="green"/>
  <circle cx="612.916" cy="491.595" r="5.01837" stroke-width="0.5" stroke="black" fill="green"/>
   </g>
   <g id="cell40">
  <circle cx="486.099" cy="567.058" r="8.39752" stroke-width="0.5" stroke="black" fill="green"/>
  <circle cx="486.099" cy="567.058" r="5.04666" stroke-width="0.5" stroke="black" fill="green"/>
   </g>
   <g id="cell41">
  <circle cx="366.795" cy="481.024" r="8.41271" stroke-width="0.5" stroke="black" fill="green"/>
  <circle cx="366.795" cy="481.024" r="5.05167" stroke-width="0.5" stroke="black" fill="green"/>
   </g>
   <g id="cell42">
  <circle cx="437.035" cy="490.498" r="8.41271" stroke-width="0.5" stroke="black" fill="green"/>
  <circle cx="437.035" cy="490.498" r="5.05167" stroke-width="0.5" stroke="black" fill="green"/>
   </g>
   <g id="cell43">
  <circle cx="565.81" cy="437.778" r="8.41271" stroke-width="0.5" stroke="black" fill="green"/>
  <circle cx="565.81" cy="437.778" r="5.05167" stroke-width="0.5" stroke="black" fill="green"/>
   </g>
   <g id="cell164">
  <circle cx="399.152" cy="570.385" r="8.37876" stroke-width="0.5" stroke="black" fill="green"/>
  <circle cx="399.152" cy="570.385" r="5.03983" stroke-width="0.5" stroke="black" fill="green"/>
   </g>
   <g id="cell145">
  <circle cx="409.101" cy="420.246" r="8.12469" stroke-width="0.5" stroke="black" fill="magenta"/>
  <circle cx="409.101" cy="420.246" r="4.92202" stroke-width="0.5" stroke="black" fill="magenta"/>
   </g>
   <g id="cell46">
  <circle cx="521.701" cy="620.166" r="6.86636" stroke-width="0.5" stroke="black" fill="green"/>
  <circle cx="521.701" cy="620.166" r="4.1488" stroke-width="0.5" stroke="black" fill="green"/>
   </g>
   <g id="cell47">
  <circle cx="484.173" cy="490.904" r="8.41258" stroke-width="0.5" stroke="black" fill="green"/>
  <circle cx="484.173" cy="490.904" r="5.05164" stroke-width="0.5" stroke="black" fill="green"/>
   </g>
   <g id="cell48">
  <circle cx="578.632" cy="603.578" r="8.41224" stroke-width="0.5" stroke="black" fill="green"/>
  <circle cx="578.632" cy="603.578" r="5.05157" stroke-width="0.5" stroke="black" fill="green"/>
   </g>
   <g id="cell49">
  <circle cx="437.114" cy="391.108" r="8.37208" stroke-width="0.5" stroke="black" fill="green"/>
  <circle cx="437.114" cy="391.108" r="5.03661" stroke-width="0.5" stroke="black" fill="green"/>
   </g>
   <g id="cell50">
  <circle cx="500.625" cy="512.9" r="8.41206" stroke-width="0.5" stroke="black" fill="cyan"/>
  <circle cx="500.625" cy="512.9" r="5.05152" stroke-width="0.5" stroke="black" fill="cyan"/>
   </g>
   <g id="cell51">
  <circle cx="401.165" cy="592.167" r="8.08613" stroke-width="0.5" stroke="black" fill="cyan"/>
  <circle cx="401.165" cy="592.167" r="4.8956" stroke-width="0.5" stroke="black" fill="cyan"/>
   </g>
   <g id="cell52">
  <circle cx="519.547" cy="414.32" r="2.62118" stroke-width="0.5" stroke="black" fill="cyan"/>
  <circle cx="519.547" cy="414.32" r="2.28296" stroke-width="0.5" stroke="black" fill="black"/>
   </g>
   <g id="cell53">
  <circle cx="573.65" cy="424.321" r="8.41254" stroke-width="0.5" stroke="black" fill="cyan"/>
  <circle cx="573.65" cy="424.321" r="5.05163" stroke-width="0.5" stroke="black" fill="cyan"/>
   </g>
   <g id="cell54">
  <circle cx="480.161" cy="414.115" r="8.4126" stroke-width="0.5" stroke="black" fill="cyan"/>
  <circle cx="480.161" cy="414.115" r="5.05165" stroke-width="0.5" stroke="black" fill="cyan"/>
   </g>
   <g id="cell55">
  <circle cx="524.644" cy="460.781" r="8.41254" stroke-width="0.5" stroke="black" fill="cyan"/>
  <circle cx="524.644" cy="460.781" r="5.05164" stroke-width="0.5" stroke="black" fill="cyan"/>
   </g>
   <g id="cell56">
  <circle cx="623.747" cy="520.893" r="8.41271" stroke-width="0.5" stroke="black" fill="cyan"/>
  <circle cx="623.747" cy="520.893" r="5.05167" stroke-width="0.5" stroke="black" fill="cyan"/>
   </g>
   <g id="cell105">
  <circle cx="503.123" cy="609.533" r="8.40745" stroke-width="0.5" stroke="black" fill="green"/>
  <circle cx="503.123" cy="609.533" r="5.05016" stroke-width="0.5" stroke="black" fill="green"/>
   </g>
   <g id="cell58">
  <circle cx="570.39" cy="473.163" r="8.39834" stroke-width="0.5" stroke="black" fill="cyan"/>
  <circle cx="570.39" cy="473.163" r="5.04696" stroke-width="0.5" stroke="black" fill="cyan"/>
   </g>
   <g id="cell59">
  <circle cx="385.732" cy="440.058" r="8.41271" stroke-width="0.5" stroke="black" fill="cyan"/>
  <circle cx="385.732" cy="440.058" r="5.05167" stroke-width="0.5" stroke="black" fill="cyan"/>
   </g>
   <g id="cell60">
  <circle cx="599.091" cy="464.519" r="8.35404" stroke-width="0.5" stroke="black" fill="cyan"/>
  <circle cx="599.091" cy="464.519" r="5.02894" stroke-width="0.5" stroke="black" fill="cyan"/>
   </g>
   <g id="cell186">
  <circle cx="354.924" cy="562.196" r="1.89941" stroke-width="0.5" stroke="black" fill="cyan"/>
  <circle cx="354.924" cy="562.196" r="1.81298" stroke-width="0.5" stroke="black" fill="black"/>
   </g>
   <g id="cell62">
  <circle cx="514.437" cy="434.399" r="8.34651" stroke-width="0.5" stroke="black" fill="cyan"/>
  <circle cx="514.437" cy="434.399" r="5.02573" stroke-width="0.5" stroke="black" fill="cyan"/>
   </g>
   <g id="cell63">
  <circle cx="583.964" cy="536.607" r="8.41052" stroke-width="0.5" stroke="black" fill="cyan"/>
  <circle cx="583.964" cy="536.607" r="5.05109" stroke-width="0.5" stroke="black" fill="cyan"/>
   </g>
   <g id="cell64">
  <circle cx="509.034" cy="637.103" r="8.41271" stroke-width="0.5" stroke="black" fill="cyan"/>
  <circle cx="509.034" cy="637.103" r="5.05167" stroke-width="0.5" stroke="black" fill="cyan"/>
   </g>
   <g id="cell65">
  <circle cx="545.007" cy="464.015" r="8.41264" stroke-width="0.5" stroke="black" fill="cyan"/>
  <circle cx="545.007" cy="464.015" r="5.05166" stroke-width="0.5" stroke="black" fill="cyan"/>
   </g>
   <g id="cell66">
  <circle cx="534.252" cy="535.947" r="8.4126" stroke-width="0.5" stroke="black" fill="cyan"/>
  <circle cx="534.252" cy="535.947" r="5.05165" stroke-width="0.5" stroke="black" fill="cyan"/>
   </g>
   <g id="cell67">
  <circle cx="348.126" cy="493.776" r="6.83713" stroke-width="0.5" stroke="black" fill="cyan"/>
  <circle cx="348.126" cy="493.776" r="4.12773" stroke-width="0.5" stroke="black" fill="cyan"/>
   </g>
   <g id="cell212">
  <circle cx="568.016" cy="499.402" r="7.71468" stroke-width="0.5" stroke="black" fill="magenta"/>
  <circle cx="568.016" cy="499.402" r="4.6976" stroke-width="0.5" stroke="black" fill="magenta"/>
   </g>
   <g id="cell69">
  <circle cx="443.127" cy="460.425" r="8.41271" stroke-width="0.5" stroke="black" fill="cyan"/>
  <circle cx="443.127" cy="460.425" r="5.05167" stroke-width="0.5" stroke="black" fill="cyan"/>
   </g>
   <g id="cell70">
  <circle cx="586.773" cy="479.147" r="8.41271" stroke-width="0.5" stroke="black" fill="cyan"/>
  <circle cx="586.773" cy="479.147" r="5.05167" stroke-width="0.5" stroke="black" fill="cyan"/>
   </g>
   <g id="cell224">
  <circle cx="361.087" cy="494.26" r="6.83713" stroke-width="0.5" stroke="black" fill="cyan"/>
  <circle cx="361.087" cy="494.26" r="4.12773" stroke-width="0.5" stroke="black" fill="cyan"/>
   </g>
   <g id="cell72">
  <circle cx="537.154" cy="501.46" r="8.37086" stroke-width="0.5" stroke="black" fill="cyan"/>
  <circle cx="537.154" cy="501.46" r="5.03612" stroke-width="0.5" stroke="black" fill="cyan"/>
   </g>
   <g id="cell73">
  <circle cx="363.893" cy="549.813" r="8.03894" stroke-width="0.5" stroke="black" fill="cyan"/>
  <circle cx="363.893" cy="549.813" r="4.87542" stroke-width="0.5" stroke="black" fill="cyan"/>
   </g>
   <g id="cell162">
  <circle cx="373.997" cy="538.654" r="8.38823" stroke-width="0.5" stroke="black" fill="magenta"/>
  <circle cx="373.997" cy="538.654" r="5.04313" stroke-width="0.5" stroke="black" fill="magenta"/>
   </g>
   <g id="cell75">
  <circle cx="532.036" cy="431.521" r="6.78179" stroke-width="0.5" stroke="black" fill="cyan"/>
  <circle cx="532.036" cy="431.521" r="4.08713" stroke-width="0.5" stroke="black" fill="cyan"/>
   </g>
   <g id="cell76">
  <circle cx="434.893" cy="375.442" r="8.41238" stroke-width="0.5" stroke="black" fill="green"/>
  <circle cx="434.893" cy="375.442" r="5.0516" stroke-width="0.5" stroke="black" fill="green"/>
   </g>
   <g id="cell77">
  <circle cx="468.592" cy="447.849" r="8.41246" stroke-width="0.5" stroke="black" fill="magenta"/>
  <circle cx="468.592" cy="447.849" r="5.05162" stroke-width="0.5" stroke="black" fill="magenta"/>
   </g>
   <g id="cell78">
  <circle cx="626.511" cy="454.867" r="8.41263" stroke-width="0.5" stroke="black" fill="green"/>
  <circle cx="626.511" cy="454.867" r="5.05165" stroke-width="0.5" stroke="black" fill="green"/>
   </g>
   <g id="cell79">
  <circle cx="516.965" cy="475.323" r="8.41268" stroke-width="0.5" stroke="black" fill="cyan"/>
  <circle cx="516.965" cy="475.323" r="5.05167" stroke-width="0.5" stroke="black" fill="cyan"/>
   </g>
   <g id="cell80">
  <circle cx="542.095" cy="632.65" r="8.20637" stroke-width="0.5" stroke="black" fill="green"/>
  <circle cx="542.095" cy="632.65" r="4.95854" stroke-width="0.5" stroke="black" fill="green"/>
   </g>
   <g id="cell81">
  <circle cx="555.457" cy="590.141" r="8.41266" stroke-width="0.5" stroke="black" fill="green"/>
  <circle cx="555.457" cy="590.141" r="5.05166" stroke-width="0.5" stroke="black" fill="green"/>
   </g>
   <g id="cell82">
  <circle cx="528.142" cy="561.333" r="8.40698" stroke-width="0.5" stroke="black" fill="magenta"/>
  <circle cx="528.142" cy="561.333" r="5.04998" stroke-width="0.5" stroke="black" fill="magenta"/>
   </g>
   <g id="cell211">
  <circle cx="449.695" cy="371.498" r="7.79425" stroke-width="0.5" stroke="black" fill="green"/>
  <circle cx="449.695" cy="371.498" r="4.7332" stroke-width="0.5" stroke="black" fill="green"/>
   </g>
   <g id="cell84">
  <circle cx="512.648" cy="490.411" r="8.30915" stroke-width="0.5" stroke="black" fill="cyan"/>
  <circle cx="512.648" cy="490.411" r="5.00866" stroke-width="0.5" stroke="black" fill="cyan"/>
   </g>
   <g id="cell85">
  <circle cx="345.289" cy="541.883" r="8.41255" stroke-width="0.5" stroke="black" fill="cyan"/>
  <circle cx="345.289" cy="541.883" r="5.05164" stroke-width="0.5" stroke="black" fill="cyan"/>
   </g>
   <g id="cell86">
  <circle cx="494.224" cy="539.043" r="8.4116" stroke-width="0.5" stroke="black" fill="magenta"/>
  <circle cx="494.224" cy="539.043" r="5.0514" stroke-width="0.5" stroke="black" fill="magenta"/>
   </g>
   <g id="cell87">
  <circle cx="572.039" cy="560.293" r="8.41248" stroke-width="0.5" stroke="black" fill="cyan"/>
  <circle cx="572.039" cy="560.293" r="5.05162" stroke-width="0.5" stroke="black" fill="cyan"/>
   </g>
   <g id="cell88">
  <circle cx="445.612" cy="533.718" r="7.47935" stroke-width="0.5" stroke="black" fill="magenta"/>
  <circle cx="445.612" cy="533.718" r="4.55013" stroke-width="0.5" stroke="black" fill="magenta"/>
   </g>
   <g id="cell89">
  <circle cx="554.48" cy="448.114" r="8.40543" stroke-width="0.5" stroke="black" fill="cyan"/>
  <circle cx="554.48" cy="448.114" r="5.04955" stroke-width="0.5" stroke="black" fill="cyan"/>
   </g>
   <g id="cell90">
  <circle cx="636.759" cy="471.732" r="8.41112" stroke-width="0.5" stroke="black" fill="green"/>
  <circle cx="636.759" cy="471.732" r="5.05126" stroke-width="0.5" stroke="black" fill="green"/>
   </g>
   <g id="cell91">
  <circle cx="543.238" cy="564.46" r="8.41257" stroke-width="0.5" stroke="black" fill="magenta"/>
  <circle cx="543.238" cy="564.46" r="5.05164" stroke-width="0.5" stroke="black" fill="magenta"/>
   </g>
   <g id="cell92">
  <circle cx="483.27" cy="550.854" r="6.7328" stroke-width="0.5" stroke="black" fill="green"/>
  <circle cx="483.27" cy="550.854" r="4.05038" stroke-width="0.5" stroke="black" fill="green"/>
   </g>
   <g id="cell93">
  <circle cx="539.03" cy="550.35" r="8.41257" stroke-width="0.5" stroke="black" fill="magenta"/>
  <circle cx="539.03" cy="550.35" r="5.05164" stroke-width="0.5" stroke="black" fill="magenta"/>
   </g>
   <g id="cell94">
  <circle cx="544.316" cy="487.252" r="8.41261" stroke-width="0.5" stroke="black" fill="cyan"/>
  <circle cx="544.316" cy="487.252" r="5.05165" stroke-width="0.5" stroke="black" fill="cyan"/>
   </g>
   <g id="cell95">
  <circle cx="466.427" cy="420.918" r="8.21267" stroke-width="0.5" stroke="black" fill="cyan"/>
  <circle cx="466.427" cy="420.918" r="4.96161" stroke-width="0.5" stroke="black" fill="cyan"/>
   </g>
   <g id="cell96">
  <circle cx="553.275" cy="542.869" r="8.40972" stroke-width="0.5" stroke="black" fill="cyan"/>
  <circle cx="553.275" cy="542.869" r="5.05085" stroke-width="0.5" stroke="black" fill="cyan"/>
   </g>
   <g id="cell97">
  <circle cx="420.551" cy="464.161" r="8.4125" stroke-width="0.5" stroke="black" fill="green"/>
  <circle cx="420.551" cy="464.161" r="5.05163" stroke-width="0.5" stroke="black" fill="green"/>
   </g>
   <g id="cell98">
  <circle cx="489.374" cy="524.199" r="8.41137" stroke-width="0.5" stroke="black" fill="green"/>
  <circle cx="489.374" cy="524.199" r="5.05133" stroke-width="0.5" stroke="black" fill="green"/>
   </g>
   <g id="cell99">
  <circle cx="367.672" cy="524.402" r="8.41255" stroke-width="0.5" stroke="black" fill="cyan"/>
  <circle cx="367.672" cy="524.402" r="5.05164" stroke-width="0.5" stroke="black" fill="cyan"/>
   </g>
   <g id="cell100">
  <circle cx="445.684" cy="404.32" r="8.41255" stroke-width="0.5" stroke="black" fill="green"/>
  <circle cx="445.684" cy="404.32" r="5.05164" stroke-width="0.5" stroke="black" fill="green"/>
   </g>
   <g id="cell101">
  <circle cx="528.121" cy="488.725" r="8.28461" stroke-width="0.5" stroke="black" fill="cyan"/>
  <circle cx="528.121" cy="488.725" r="4.99739" stroke-width="0.5" stroke="black" fill="cyan"/>
   </g>
   <g id="cell102">
  <circle cx="442.386" cy="475.895" r="8.0009" stroke-width="0.5" stroke="black" fill="green"/>
  <circle cx="442.386" cy="475.895" r="4.84936" stroke-width="0.5" stroke="black" fill="green"/>
   </g>
   <g id="cell103">
  <circle cx="592.093" cy="450.279" r="8.41157" stroke-width="0.5" stroke="black" fill="cyan"/>
  <circle cx="592.093" cy="450.279" r="5.05139" stroke-width="0.5" stroke="black" fill="cyan"/>
   </g>
   <g id="cell104">
  <circle cx="608.976" cy="554.593" r="8.3163" stroke-width="0.5" stroke="black" fill="cyan"/>
  <circle cx="608.976" cy="554.593" r="5.0126" stroke-width="0.5" stroke="black" fill="cyan"/>
   </g>
   <g id="cell106">
  <circle cx="453.523" cy="449.005" r="8.41246" stroke-width="0.5" stroke="black" fill="magenta"/>
  <circle cx="453.523" cy="449.005" r="5.05162" stroke-width="0.5" stroke="black" fill="magenta"/>
   </g>
   <g id="cell107">
  <circle cx="467.869" cy="391.127" r="8.37971" stroke-width="0.5" stroke="black" fill="green"/>
  <circle cx="467.869" cy="391.127" r="5.04034" stroke-width="0.5" stroke="black" fill="green"/>
   </g>
   <g id="cell108">
  <circle cx="563.51" cy="609.832" r="8.41242" stroke-width="0.5" stroke="black" fill="green"/>
  <circle cx="563.51" cy="609.832" r="5.05161" stroke-width="0.5" stroke="black" fill="green"/>
   </g>
   <g id="cell109">
  <circle cx="575.55" cy="587.873" r="8.41224" stroke-width="0.5" stroke="black" fill="green"/>
  <circle cx="575.55" cy="587.873" r="5.05157" stroke-width="0.5" stroke="black" fill="green"/>
   </g>
   <g id="cell110">
  <circle cx="369.388" cy="508.415" r="8.41231" stroke-width="0.5" stroke="black" fill="cyan"/>
  <circle cx="369.388" cy="508.415" r="5.05158" stroke-width="0.5" stroke="black" fill="cyan"/>
   </g>
   <g id="cell111">
  <circle cx="455.633" cy="556.588" r="8.40939" stroke-width="0.5" stroke="black" fill="magenta"/>
  <circle cx="455.633" cy="556.588" r="5.05076" stroke-width="0.5" stroke="black" fill="magenta"/>
   </g>
   <g id="cell112">
  <circle cx="489.563" cy="469.552" r="8.4045" stroke-width="0.5" stroke="black" fill="magenta"/>
  <circle cx="489.563" cy="469.552" r="5.04917" stroke-width="0.5" stroke="black" fill="magenta"/>
   </g>
   <g id="cell113">
  <circle cx="546.993" cy="365.589" r="7.56441" stroke-width="0.5" stroke="black" fill="green"/>
  <circle cx="546.993" cy="365.589" r="4.59871" stroke-width="0.5" stroke="black" fill="green"/>
   </g>
   <g id="cell114">
  <circle cx="525.948" cy="444.191" r="8.41194" stroke-width="0.5" stroke="black" fill="cyan"/>
  <circle cx="525.948" cy="444.191" r="5.05149" stroke-width="0.5" stroke="black" fill="cyan"/>
   </g>
   <g id="cell115">
  <circle cx="539.361" cy="450.135" r="8.40998" stroke-width="0.5" stroke="black" fill="cyan"/>
  <circle cx="539.361" cy="450.135" r="5.05095" stroke-width="0.5" stroke="black" fill="cyan"/>
   </g>
   <g id="cell116">
  <circle cx="519.506" cy="531.933" r="8.33448" stroke-width="0.5" stroke="black" fill="cyan"/>
  <circle cx="519.506" cy="531.933" r="5.02035" stroke-width="0.5" stroke="black" fill="cyan"/>
   </g>
   <g id="cell117">
  <circle cx="495.974" cy="627.559" r="8.41186" stroke-width="0.5" stroke="black" fill="green"/>
  <circle cx="495.974" cy="627.559" r="5.05147" stroke-width="0.5" stroke="black" fill="green"/>
   </g>
   <g id="cell118">
  <circle cx="512.386" cy="450.209" r="8.41173" stroke-width="0.5" stroke="black" fill="cyan"/>
  <circle cx="512.386" cy="450.209" r="5.05143" stroke-width="0.5" stroke="black" fill="cyan"/>
   </g>
   <g id="cell119">
  <circle cx="548.49" cy="604.361" r="8.3465" stroke-width="0.5" stroke="black" fill="green"/>
  <circle cx="548.49" cy="604.361" r="5.02573" stroke-width="0.5" stroke="black" fill="green"/>
   </g>
   <g id="cell120">
  <circle cx="581.598" cy="438.318" r="8.41157" stroke-width="0.5" stroke="black" fill="cyan"/>
  <circle cx="581.598" cy="438.318" r="5.05139" stroke-width="0.5" stroke="black" fill="cyan"/>
   </g>
   <g id="cell121">
  <circle cx="454.151" cy="357.441" r="7.79425" stroke-width="0.5" stroke="black" fill="green"/>
  <circle cx="454.151" cy="357.441" r="4.7332" stroke-width="0.5" stroke="black" fill="green"/>
   </g>
   <g id="cell122">
  <circle cx="504.6" cy="528.095" r="8.4116" stroke-width="0.5" stroke="black" fill="magenta"/>
  <circle cx="504.6" cy="528.095" r="5.0514" stroke-width="0.5" stroke="black" fill="magenta"/>
   </g>
   <g id="cell123">
  <circle cx="485.918" cy="507.009" r="8.41137" stroke-width="0.5" stroke="black" fill="green"/>
  <circle cx="485.918" cy="507.009" r="5.05133" stroke-width="0.5" stroke="black" fill="green"/>
   </g>
   <g id="cell124">
  <circle cx="486.865" cy="427.628" r="8.24371" stroke-width="0.5" stroke="black" fill="magenta"/>
  <circle cx="486.865" cy="427.628" r="4.97728" stroke-width="0.5" stroke="black" fill="magenta"/>
   </g>
   <g id="cell125">
  <circle cx="626.257" cy="483.631" r="7.90763" stroke-width="0.5" stroke="black" fill="green"/>
  <circle cx="626.257" cy="483.631" r="4.79766" stroke-width="0.5" stroke="black" fill="green"/>
   </g>
   <g id="cell126">
  <circle cx="628.988" cy="566.353" r="8.4111" stroke-width="0.5" stroke="black" fill="green"/>
  <circle cx="628.988" cy="566.353" r="5.05125" stroke-width="0.5" stroke="black" fill="green"/>
   </g>
   <g id="cell127">
  <circle cx="431.264" cy="360.539" r="7.82881" stroke-width="0.5" stroke="black" fill="green"/>
  <circle cx="431.264" cy="360.539" r="4.75305" stroke-width="0.5" stroke="black" fill="green"/>
   </g>
   <g id="cell128">
  <circle cx="372.855" cy="466.73" r="8.41072" stroke-width="0.5" stroke="black" fill="magenta"/>
  <circle cx="372.855" cy="466.73" r="5.05114" stroke-width="0.5" stroke="black" fill="magenta"/>
   </g>
   <g id="cell129">
  <circle cx="569.774" cy="544.189" r="8.41052" stroke-width="0.5" stroke="black" fill="cyan"/>
  <circle cx="569.774" cy="544.189" r="5.05109" stroke-width="0.5" stroke="black" fill="cyan"/>
   </g>
   <g id="cell130">
  <circle cx="545.616" cy="435.715" r="8.40998" stroke-width="0.5" stroke="black" fill="cyan"/>
  <circle cx="545.616" cy="435.715" r="5.05095" stroke-width="0.5" stroke="black" fill="cyan"/>
   </g>
   <g id="cell131">
  <circle cx="546.088" cy="513.814" r="8.0308" stroke-width="0.5" stroke="black" fill="cyan"/>
  <circle cx="546.088" cy="513.814" r="4.87719" stroke-width="0.5" stroke="black" fill="cyan"/>
   </g>
   <g id="cell132">
  <circle cx="443.474" cy="547.75" r="8.40939" stroke-width="0.5" stroke="black" fill="magenta"/>
  <circle cx="443.474" cy="547.75" r="5.05076" stroke-width="0.5" stroke="black" fill="magenta"/>
   </g>
   <g id="cell133">
  <circle cx="583.282" cy="463.71" r="8.40958" stroke-width="0.5" stroke="black" fill="cyan"/>
  <circle cx="583.282" cy="463.71" r="5.0508" stroke-width="0.5" stroke="black" fill="cyan"/>
   </g>
   <g id="cell201">
  <circle cx="561.676" cy="525.1" r="8.0308" stroke-width="0.5" stroke="black" fill="cyan"/>
  <circle cx="561.676" cy="525.1" r="4.87719" stroke-width="0.5" stroke="black" fill="cyan"/>
   </g>
   <g id="cell135">
  <circle cx="507.821" cy="583.379" r="8.40915" stroke-width="0.5" stroke="black" fill="magenta"/>
  <circle cx="507.821" cy="583.379" r="5.05067" stroke-width="0.5" stroke="black" fill="magenta"/>
   </g>
   <g id="cell136">
  <circle cx="469.522" cy="550.076" r="8.40857" stroke-width="0.5" stroke="black" fill="green"/>
  <circle cx="469.522" cy="550.076" r="5.05049" stroke-width="0.5" stroke="black" fill="green"/>
   </g>
   <g id="cell137">
  <circle cx="487.862" cy="613.719" r="8.40745" stroke-width="0.5" stroke="black" fill="green"/>
  <circle cx="487.862" cy="613.719" r="5.05016" stroke-width="0.5" stroke="black" fill="green"/>
   </g>
   <g id="cell138">
  <circle cx="501.829" cy="400.095" r="8.40788" stroke-width="0.5" stroke="black" fill="green"/>
  <circle cx="501.829" cy="400.095" r="5.05027" stroke-width="0.5" stroke="black" fill="green"/>
   </g>
   <g id="cell139">
  <circle cx="414.923" cy="406.447" r="8.40715" stroke-width="0.5" stroke="black" fill="magenta"/>
  <circle cx="414.923" cy="406.447" r="5.05003" stroke-width="0.5" stroke="black" fill="magenta"/>
   </g>
   <g id="cell140">
  <circle cx="515.801" cy="570.996" r="8.40207" stroke-width="0.5" stroke="black" fill="magenta"/>
  <circle cx="515.801" cy="570.996" r="5.04845" stroke-width="0.5" stroke="black" fill="magenta"/>
   </g>
   <g id="cell141">
  <circle cx="572.982" cy="451.8" r="8.40543" stroke-width="0.5" stroke="black" fill="cyan"/>
  <circle cx="572.982" cy="451.8" r="5.04955" stroke-width="0.5" stroke="black" fill="cyan"/>
   </g>
   <g id="cell142">
  <circle cx="541.714" cy="421.022" r="8.33228" stroke-width="0.5" stroke="black" fill="green"/>
  <circle cx="541.714" cy="421.022" r="5.02061" stroke-width="0.5" stroke="black" fill="green"/>
   </g>
   <g id="cell143">
  <circle cx="430.098" cy="405.086" r="8.40372" stroke-width="0.5" stroke="black" fill="magenta"/>
  <circle cx="430.098" cy="405.086" r="5.049" stroke-width="0.5" stroke="black" fill="magenta"/>
   </g>
   <g id="cell144">
  <circle cx="549.551" cy="407.731" r="8.39032" stroke-width="0.5" stroke="black" fill="green"/>
  <circle cx="549.551" cy="407.731" r="5.04434" stroke-width="0.5" stroke="black" fill="green"/>
   </g>
   <g id="cell185">
  <circle cx="599.337" cy="568.818" r="7.8238" stroke-width="0.5" stroke="black" fill="cyan"/>
  <circle cx="599.337" cy="568.818" r="4.7584" stroke-width="0.5" stroke="black" fill="cyan"/>
   </g>
   <g id="cell147">
  <circle cx="513.149" cy="557.06" r="8.40207" stroke-width="0.5" stroke="black" fill="magenta"/>
  <circle cx="513.149" cy="557.06" r="5.04845" stroke-width="0.5" stroke="black" fill="magenta"/>
   </g>
   <g id="cell148">
  <circle cx="511.321" cy="462.934" r="6.62806" stroke-width="0.5" stroke="black" fill="magenta"/>
  <circle cx="511.321" cy="462.934" r="4.00597" stroke-width="0.5" stroke="black" fill="magenta"/>
   </g>
   <g id="cell149">
  <circle cx="575.421" cy="399.535" r="8.40244" stroke-width="0.5" stroke="black" fill="magenta"/>
  <circle cx="575.421" cy="399.535" r="5.04843" stroke-width="0.5" stroke="black" fill="magenta"/>
   </g>
   <g id="cell150">
  <circle cx="411.538" cy="580.541" r="8.37876" stroke-width="0.5" stroke="black" fill="green"/>
  <circle cx="411.538" cy="580.541" r="5.03983" stroke-width="0.5" stroke="black" fill="green"/>
   </g>
   <g id="cell151">
  <circle cx="418.842" cy="529.972" r="8.39987" stroke-width="0.5" stroke="black" fill="green"/>
  <circle cx="418.842" cy="529.972" r="5.04751" stroke-width="0.5" stroke="black" fill="green"/>
   </g>
   <g id="cell152">
  <circle cx="373.376" cy="579.425" r="8.39337" stroke-width="0.5" stroke="black" fill="green"/>
  <circle cx="373.376" cy="579.425" r="5.0454" stroke-width="0.5" stroke="black" fill="green"/>
   </g>
   <g id="cell153">
  <circle cx="560.688" cy="461.65" r="8.39834" stroke-width="0.5" stroke="black" fill="cyan"/>
  <circle cx="560.688" cy="461.65" r="5.04696" stroke-width="0.5" stroke="black" fill="cyan"/>
   </g>
   <g id="cell154">
  <circle cx="386.931" cy="598.515" r="8.38824" stroke-width="0.5" stroke="black" fill="green"/>
  <circle cx="386.931" cy="598.515" r="5.04367" stroke-width="0.5" stroke="black" fill="green"/>
   </g>
   <g id="cell155">
  <circle cx="488.332" cy="582.884" r="8.39752" stroke-width="0.5" stroke="black" fill="green"/>
  <circle cx="488.332" cy="582.884" r="5.04666" stroke-width="0.5" stroke="black" fill="green"/>
   </g>
   <g id="cell156">
  <circle cx="457.653" cy="526.143" r="8.39748" stroke-width="0.5" stroke="black" fill="magenta"/>
  <circle cx="457.653" cy="526.143" r="5.04665" stroke-width="0.5" stroke="black" fill="magenta"/>
   </g>
   <g id="cell157">
  <circle cx="443.933" cy="519.647" r="8.38855" stroke-width="0.5" stroke="black" fill="magenta"/>
  <circle cx="443.933" cy="519.647" r="5.04365" stroke-width="0.5" stroke="black" fill="magenta"/>
   </g>
   <g id="cell158">
  <circle cx="565.089" cy="411.12" r="8.39127" stroke-width="0.5" stroke="black" fill="green"/>
  <circle cx="565.089" cy="411.12" r="5.04469" stroke-width="0.5" stroke="black" fill="green"/>
   </g>
   <g id="cell159">
  <circle cx="530.362" cy="397.374" r="8.16824" stroke-width="0.5" stroke="black" fill="green"/>
  <circle cx="530.362" cy="397.374" r="4.94451" stroke-width="0.5" stroke="black" fill="green"/>
   </g>
   <g id="cell160">
  <circle cx="464.423" cy="375.624" r="8.39309" stroke-width="0.5" stroke="black" fill="green"/>
  <circle cx="464.423" cy="375.624" r="5.04508" stroke-width="0.5" stroke="black" fill="green"/>
   </g>
   <g id="cell165">
  <circle cx="612.595" cy="526.943" r="6.51813" stroke-width="0.5" stroke="black" fill="magenta"/>
  <circle cx="612.595" cy="526.943" r="3.93975" stroke-width="0.5" stroke="black" fill="magenta"/>
   </g>
   <g id="cell166">
  <circle cx="479.732" cy="458.638" r="8.37619" stroke-width="0.5" stroke="black" fill="magenta"/>
  <circle cx="479.732" cy="458.638" r="5.03835" stroke-width="0.5" stroke="black" fill="magenta"/>
   </g>
   <g id="cell167">
  <circle cx="421.265" cy="392.289" r="8.37208" stroke-width="0.5" stroke="black" fill="green"/>
  <circle cx="421.265" cy="392.289" r="5.03661" stroke-width="0.5" stroke="black" fill="green"/>
   </g>
   <g id="cell170">
  <circle cx="460.151" cy="503.432" r="8.3632" stroke-width="0.5" stroke="black" fill="green"/>
  <circle cx="460.151" cy="503.432" r="5.03288" stroke-width="0.5" stroke="black" fill="green"/>
   </g>
   <g id="cell171">
  <circle cx="602.494" cy="479.897" r="8.35404" stroke-width="0.5" stroke="black" fill="cyan"/>
  <circle cx="602.494" cy="479.897" r="5.02894" stroke-width="0.5" stroke="black" fill="cyan"/>
   </g>
   <g id="cell172">
  <circle cx="552.633" cy="500.475" r="8.30459" stroke-width="0.5" stroke="black" fill="magenta"/>
  <circle cx="552.633" cy="500.475" r="5.0087" stroke-width="0.5" stroke="black" fill="magenta"/>
   </g>
   <g id="cell173">
  <circle cx="531.348" cy="520.444" r="8.34549" stroke-width="0.5" stroke="black" fill="cyan"/>
  <circle cx="531.348" cy="520.444" r="5.02544" stroke-width="0.5" stroke="black" fill="cyan"/>
   </g>
   <g id="cell174">
  <circle cx="493.557" cy="438.206" r="6.15383" stroke-width="0.5" stroke="black" fill="cyan"/>
  <circle cx="493.557" cy="438.206" r="3.7686" stroke-width="0.5" stroke="black" fill="cyan"/>
   </g>
   <g id="cell175">
  <circle cx="525.268" cy="606.573" r="8.08559" stroke-width="0.5" stroke="black" fill="green"/>
  <circle cx="525.268" cy="606.573" r="4.90418" stroke-width="0.5" stroke="black" fill="green"/>
   </g>
   <g id="cell176">
  <circle cx="557.132" cy="424.69" r="8.33228" stroke-width="0.5" stroke="black" fill="green"/>
  <circle cx="557.132" cy="424.69" r="5.02061" stroke-width="0.5" stroke="black" fill="green"/>
   </g>
   <g id="cell177">
  <circle cx="368.573" cy="564.488" r="8.28221" stroke-width="0.5" stroke="black" fill="cyan"/>
  <circle cx="368.573" cy="564.488" r="4.99856" stroke-width="0.5" stroke="black" fill="cyan"/>
   </g>
   <g id="cell178">
  <circle cx="561.763" cy="511.211" r="7.71468" stroke-width="0.5" stroke="black" fill="magenta"/>
  <circle cx="561.763" cy="511.211" r="4.6976" stroke-width="0.5" stroke="black" fill="magenta"/>
   </g>
   <g id="cell179">
  <circle cx="515.663" cy="517.158" r="8.33448" stroke-width="0.5" stroke="black" fill="cyan"/>
  <circle cx="515.663" cy="517.158" r="5.02035" stroke-width="0.5" stroke="black" fill="cyan"/>
   </g>
   <g id="cell180">
  <circle cx="619.259" cy="505.923" r="8.33026" stroke-width="0.5" stroke="black" fill="green"/>
  <circle cx="619.259" cy="505.923" r="5.01837" stroke-width="0.5" stroke="black" fill="green"/>
   </g>
   <g id="cell181">
  <circle cx="565.924" cy="533.508" r="2.2143" stroke-width="0.5" stroke="black" fill="cyan"/>
  <circle cx="565.924" cy="533.508" r="2.03756" stroke-width="0.5" stroke="black" fill="black"/>
   </g>
   <g id="cell182">
  <circle cx="531.587" cy="382.252" r="8.31647" stroke-width="0.5" stroke="black" fill="green"/>
  <circle cx="531.587" cy="382.252" r="5.01353" stroke-width="0.5" stroke="black" fill="green"/>
   </g>
   <g id="cell183">
  <circle cx="578.522" cy="522.434" r="7.15264" stroke-width="0.5" stroke="black" fill="magenta"/>
  <circle cx="578.522" cy="522.434" r="4.35505" stroke-width="0.5" stroke="black" fill="magenta"/>
   </g>
   <g id="cell184">
  <circle cx="430.774" cy="430.964" r="8.18484" stroke-width="0.5" stroke="black" fill="magenta"/>
  <circle cx="430.774" cy="430.964" r="4.95251" stroke-width="0.5" stroke="black" fill="magenta"/>
   </g>
   <g id="cell187">
  <circle cx="498.558" cy="497.162" r="8.30915" stroke-width="0.5" stroke="black" fill="cyan"/>
  <circle cx="498.558" cy="497.162" r="5.00866" stroke-width="0.5" stroke="black" fill="cyan"/>
   </g>
   <g id="cell188">
  <circle cx="535.635" cy="618.354" r="8.25588" stroke-width="0.5" stroke="black" fill="green"/>
  <circle cx="535.635" cy="618.354" r="4.98621" stroke-width="0.5" stroke="black" fill="green"/>
   </g>
   <g id="cell189">
  <circle cx="533.542" cy="474.432" r="8.28461" stroke-width="0.5" stroke="black" fill="cyan"/>
  <circle cx="533.542" cy="474.432" r="4.99739" stroke-width="0.5" stroke="black" fill="cyan"/>
   </g>
   <g id="cell190">
  <circle cx="547.213" cy="528.605" r="8.22538" stroke-width="0.5" stroke="black" fill="cyan"/>
  <circle cx="547.213" cy="528.605" r="4.97337" stroke-width="0.5" stroke="black" fill="cyan"/>
   </g>
   <g id="cell191">
  <circle cx="500.03" cy="481.878" r="8.27839" stroke-width="0.5" stroke="black" fill="magenta"/>
  <circle cx="500.03" cy="481.878" r="4.9948" stroke-width="0.5" stroke="black" fill="magenta"/>
   </g>
   <g id="cell192">
  <circle cx="473.788" cy="433.709" r="8.24371" stroke-width="0.5" stroke="black" fill="magenta"/>
  <circle cx="473.788" cy="433.709" r="4.97728" stroke-width="0.5" stroke="black" fill="magenta"/>
   </g>
   <g id="cell193">
  <circle cx="437.871" cy="417.875" r="8.18484" stroke-width="0.5" stroke="black" fill="magenta"/>
  <circle cx="437.871" cy="417.875" r="4.95251" stroke-width="0.5" stroke="black" fill="magenta"/>
   </g>
   <g id="cell194">
  <circle cx="602.854" cy="513.383" r="8.21233" stroke-width="0.5" stroke="black" fill="magenta"/>
  <circle cx="602.854" cy="513.383" r="4.96378" stroke-width="0.5" stroke="black" fill="magenta"/>
   </g>
   <g id="cell195">
  <circle cx="544.945" cy="392.883" r="8.16824" stroke-width="0.5" stroke="black" fill="green"/>
  <circle cx="544.945" cy="392.883" r="4.94451" stroke-width="0.5" stroke="black" fill="green"/>
   </g>
   <g id="cell196">
  <circle cx="459.264" cy="435.024" r="8.21267" stroke-width="0.5" stroke="black" fill="cyan"/>
  <circle cx="459.264" cy="435.024" r="4.96161" stroke-width="0.5" stroke="black" fill="cyan"/>
   </g>
   <g id="cell197">
  <circle cx="551.058" cy="619.786" r="8.20637" stroke-width="0.5" stroke="black" fill="green"/>
  <circle cx="551.058" cy="619.786" r="4.95854" stroke-width="0.5" stroke="black" fill="green"/>
   </g>
   <g id="cell198">
  <circle cx="423.46" cy="418.416" r="8.12469" stroke-width="0.5" stroke="black" fill="magenta"/>
  <circle cx="423.46" cy="418.416" r="4.92202" stroke-width="0.5" stroke="black" fill="magenta"/>
   </g>
   <g id="cell199">
  <circle cx="535.829" cy="595.548" r="8.08559" stroke-width="0.5" stroke="black" fill="green"/>
  <circle cx="535.829" cy="595.548" r="4.90418" stroke-width="0.5" stroke="black" fill="green"/>
   </g>
   <g id="cell200">
  <circle cx="445.205" cy="430.717" r="8.13212" stroke-width="0.5" stroke="black" fill="magenta"/>
  <circle cx="445.205" cy="430.717" r="4.92132" stroke-width="0.5" stroke="black" fill="magenta"/>
   </g>
   <g id="cell202">
  <circle cx="402.165" cy="607.439" r="8.08613" stroke-width="0.5" stroke="black" fill="cyan"/>
  <circle cx="402.165" cy="607.439" r="4.8956" stroke-width="0.5" stroke="black" fill="cyan"/>
   </g>
   <g id="cell203">
  <circle cx="363.57" cy="537.976" r="2.88735" stroke-width="0.5" stroke="black" fill="cyan"/>
  <circle cx="363.57" cy="537.976" r="2.37575" stroke-width="0.5" stroke="black" fill="black"/>
   </g>
   <g id="cell204">
  <circle cx="574.196" cy="487.133" r="8.04201" stroke-width="0.5" stroke="black" fill="magenta"/>
  <circle cx="574.196" cy="487.133" r="4.87678" stroke-width="0.5" stroke="black" fill="magenta"/>
   </g>
   <g id="cell205">
  <circle cx="427.352" cy="478.216" r="8.0009" stroke-width="0.5" stroke="black" fill="green"/>
  <circle cx="427.352" cy="478.216" r="4.84936" stroke-width="0.5" stroke="black" fill="green"/>
   </g>
   <g id="cell206">
  <circle cx="465.477" cy="623.487" r="7.9229" stroke-width="0.5" stroke="black" fill="magenta"/>
  <circle cx="465.477" cy="623.487" r="4.80599" stroke-width="0.5" stroke="black" fill="magenta"/>
   </g>
   <g id="cell207">
  <circle cx="621.434" cy="469.475" r="7.90763" stroke-width="0.5" stroke="black" fill="green"/>
  <circle cx="621.434" cy="469.475" r="4.79766" stroke-width="0.5" stroke="black" fill="green"/>
   </g>
   <g id="cell208">
  <circle cx="582.804" cy="550.954" r="6.88518" stroke-width="0.5" stroke="black" fill="cyan"/>
  <circle cx="582.804" cy="550.954" r="4.22387" stroke-width="0.5" stroke="black" fill="cyan"/>
   </g>
   <g id="cell209">
  <circle cx="441.469" cy="349.778" r="7.82881" stroke-width="0.5" stroke="black" fill="green"/>
  <circle cx="441.469" cy="349.778" r="4.75305" stroke-width="0.5" stroke="black" fill="green"/>
   </g>
   <g id="cell210">
  <circle cx="655.877" cy="538.338" r="7.83017" stroke-width="0.5" stroke="black" fill="green"/>
  <circle cx="655.877" cy="538.338" r="4.75343" stroke-width="0.5" stroke="black" fill="green"/>
   </g>
   <g id="cell213">
  <circle cx="557.502" cy="382.124" r="6.88585" stroke-width="0.5" stroke="black" fill="green"/>
  <circle cx="557.502" cy="382.124" r="4.22478" stroke-width="0.5" stroke="black" fill="green"/>
   </g>
   <g id="cell214">
  <circle cx="501.315" cy="428.444" r="7.45295" stroke-width="0.5" stroke="black" fill="cyan"/>
  <circle cx="501.315" cy="428.444" r="4.53861" stroke-width="0.5" stroke="black" fill="cyan"/>
   </g>
   <g id="cell215">
  <circle cx="433.285" cy="529.205" r="7.47935" stroke-width="0.5" stroke="black" fill="magenta"/>
  <circle cx="433.285" cy="529.205" r="4.55013" stroke-width="0.5" stroke="black" fill="magenta"/>
   </g>
   <g id="cell216">
  <circle cx="545.647" cy="579.523" r="7.42678" stroke-width="0.5" stroke="black" fill="green"/>
  <circle cx="545.647" cy="579.523" r="4.51799" stroke-width="0.5" stroke="black" fill="green"/>
   </g>
   <g id="cell217">
  <circle cx="545.263" cy="378.895" r="6.88585" stroke-width="0.5" stroke="black" fill="green"/>
  <circle cx="545.263" cy="378.895" r="4.22478" stroke-width="0.5" stroke="black" fill="green"/>
   </g>
   <g id="cell218">
  <circle cx="594.746" cy="555.76" r="6.88518" stroke-width="0.5" stroke="black" fill="cyan"/>
  <circle cx="594.746" cy="555.76" r="4.22387" stroke-width="0.5" stroke="black" fill="cyan"/>
   </g>
   <g id="cell219">
  <circle cx="575.326" cy="510.28" r="7.15264" stroke-width="0.5" stroke="black" fill="magenta"/>
  <circle cx="575.326" cy="510.28" r="4.35505" stroke-width="0.5" stroke="black" fill="magenta"/>
   </g>
   <g id="cell221">
  <circle cx="588.424" cy="398.248" r="6.00896" stroke-width="0.5" stroke="black" fill="magenta"/>
  <circle cx="588.424" cy="398.248" r="3.67899" stroke-width="0.5" stroke="black" fill="magenta"/>
   </g>
   <g id="cell222">
  <circle cx="503.434" cy="441.487" r="6.15383" stroke-width="0.5" stroke="black" fill="cyan"/>
  <circle cx="503.434" cy="441.487" r="3.7686" stroke-width="0.5" stroke="black" fill="cyan"/>
   </g>
   <g id="cell223">
  <circle cx="509.253" cy="622.523" r="6.86636" stroke-width="0.5" stroke="black" fill="green"/>
  <circle cx="509.253" cy="622.523" r="4.1488" stroke-width="0.5" stroke="black" fill="green"/>
   </g>
   <g id="cell225">
  <circle cx="522.287" cy="423.305" r="6.78179" stroke-width="0.5" stroke="black" fill="cyan"/>
  <circle cx="522.287" cy="423.305" r="4.08713" stroke-width="0.5" stroke="black" fill="cyan"/>
   </g>
   <g id="cell226">
  <circle cx="502.272" cy="469.154" r="6.62806" stroke-width="0.5" stroke="black" fill="magenta"/>
  <circle cx="502.272" cy="469.154" r="4.00597" stroke-width="0.5" stroke="black" fill="magenta"/>
   </g>
   <g id="cell227">
  <circle cx="495.548" cy="552.86" r="6.7328" stroke-width="0.5" stroke="black" fill="green"/>
  <circle cx="495.548" cy="552.86" r="4.05038" stroke-width="0.5" stroke="black" fill="green"/>
   </g>
   <g id="cell228">
  <circle cx="526.392" cy="575.971" r="5.89464" stroke-width="0.5" stroke="black" fill="green"/>
  <circle cx="526.392" cy="575.971" r="3.58593" stroke-width="0.5" stroke="black" fill="green"/>
   </g>
   <g id="cell229">
  <circle cx="602.192" cy="527.396" r="6.51813" stroke-width="0.5" stroke="black" fill="magenta"/>
  <circle cx="602.192" cy="527.396" r="3.93975" stroke-width="0.5" stroke="black" fill="magenta"/>
   </g>
  </g>
 </g>
  <rect x="775" y="1035" width="200" height="10" stroke-width="2" stroke="rgb(255,255,255)" fill="rgb(0,0,0)"/>
  <text x="781.25" y="1028.75"
   font-family="Arial" font-size="25" fill="black" >
   200 &#956;m
  </text>
  <text x="25" y="1045"
   font-family="Arial" font-size="18.75" fill="black" >
   0 days, 0 hours, 0 minutes, and 52.3117 seconds
  </text>
  <rect x="0" y="70" width="1000" height="1000" stroke-width="2" stroke="rgb(0,0,0)" fill="none"/>
</svg>
