<?xml version="1.0" encoding="UTF-8" standalone="no"?>
<!-- Created with PhysiCell (http://PhysiCell.MathCancer.org/) -->
<svg 
 xmlns:dc="http://purl.org/dc/elements/1.1/" 
 xmlns:cc="http://creativecommons.org/ns#" 
 xmlns:rdf="http://www.w3.org/1999/02/22-rdf-syntax-ns#" 
 xmlns:svg="http://www.w3.org/2000/svg" 
 xmlns="http://www.w3.org/2000/svg" 
 version="1.1" 
 width="1000" 
 height="1070" 
 id="svg2">
  <rect x="0" y="0" width="1000" height="1070" stroke-width="2" stroke="white" fill="white"/>
  <text x="12.5" y="30"
   font-family="Arial" font-size="25" fill="black" >
   Current time: 1 days, 11 hours, and 45.00 minutes, z = 0.00 &#956;m
  </text>
  <text x="12.5" y="57.5"
   font-family="Arial" font-size="23.75" fill="black" >
   194 agents
  </text>
 <g id="tissue" 
    transform="translate(0,1070) scale(1,-1)">
  <g id="ECM">
  </g>
  <g id="cells">
   <g id="cell0">
  <circle cx="511.353" cy="540.69" r="8.41238" stroke-width="0.5" stroke="black" fill="magenta"/>
  <circle cx="511.353" cy="540.69" r="5.0516" stroke-width="0.5" stroke="black" fill="magenta"/>
   </g>
   <g id="cell1">
  <circle cx="594.243" cy="525.737" r="8.2239" stroke-width="0.5" stroke="black" fill="magenta"/>
  <circle cx="594.243" cy="525.737" r="4.96725" stroke-width="0.5" stroke="black" fill="magenta"/>
   </g>
   <g id="cell2">
  <circle cx="515.279" cy="597.828" r="8.41271" stroke-width="0.5" stroke="black" fill="magenta"/>
  <circle cx="515.279" cy="597.828" r="5.05167" stroke-width="0.5" stroke="black" fill="magenta"/>
   </g>
   <g id="cell3">
  <circle cx="525.24" cy="547.007" r="8.41218" stroke-width="0.5" stroke="black" fill="magenta"/>
  <circle cx="525.24" cy="547.007" r="5.05155" stroke-width="0.5" stroke="black" fill="magenta"/>
   </g>
   <g id="cell4">
  <circle cx="485.907" cy="443.719" r="8.4055" stroke-width="0.5" stroke="black" fill="magenta"/>
  <circle cx="485.907" cy="443.719" r="5.04949" stroke-width="0.5" stroke="black" fill="magenta"/>
   </g>
   <g id="cell5">
  <circle cx="467.171" cy="490.076" r="8.41271" stroke-width="0.5" stroke="black" fill="magenta"/>
  <circle cx="467.171" cy="490.076" r="5.05167" stroke-width="0.5" stroke="black" fill="magenta"/>
   </g>
   <g id="cell163">
  <circle cx="538.121" cy="574.835" r="8.27088" stroke-width="0.5" stroke="black" fill="green"/>
  <circle cx="538.121" cy="574.835" r="4.99046" stroke-width="0.5" stroke="black" fill="green"/>
   </g>
   <g id="cell7">
  <circle cx="497.004" cy="453.619" r="8.19958" stroke-width="0.5" stroke="black" fill="magenta"/>
  <circle cx="497.004" cy="453.619" r="4.95525" stroke-width="0.5" stroke="black" fill="magenta"/>
   </g>
   <g id="cell8">
  <circle cx="379.631" cy="551.72" r="8.27097" stroke-width="0.5" stroke="black" fill="magenta"/>
  <circle cx="379.631" cy="551.72" r="4.99048" stroke-width="0.5" stroke="black" fill="magenta"/>
   </g>
   <g id="cell161">
  <circle cx="451.48" cy="382.189" r="8.22084" stroke-width="0.5" stroke="black" fill="green"/>
  <circle cx="451.48" cy="382.189" r="4.9702" stroke-width="0.5" stroke="black" fill="green"/>
   </g>
   <g id="cell10">
  <circle cx="586.441" cy="389.259" r="8.35404" stroke-width="0.5" stroke="black" fill="magenta"/>
  <circle cx="586.441" cy="389.259" r="5.02894" stroke-width="0.5" stroke="black" fill="magenta"/>
   </g>
   <g id="cell11">
  <circle cx="592.17" cy="590.055" r="8.41271" stroke-width="0.5" stroke="black" fill="magenta"/>
  <circle cx="592.17" cy="590.055" r="5.05167" stroke-width="0.5" stroke="black" fill="magenta"/>
   </g>
   <g id="cell12">
  <circle cx="500.718" cy="592.532" r="8.3926" stroke-width="0.5" stroke="black" fill="magenta"/>
  <circle cx="500.718" cy="592.532" r="5.04482" stroke-width="0.5" stroke="black" fill="magenta"/>
   </g>
   <g id="cell13">
  <circle cx="383.581" cy="566.429" r="8.41271" stroke-width="0.5" stroke="black" fill="magenta"/>
  <circle cx="383.581" cy="566.429" r="5.05167" stroke-width="0.5" stroke="black" fill="magenta"/>
   </g>
   <g id="cell14">
  <circle cx="518.627" cy="403.387" r="8.41271" stroke-width="0.5" stroke="black" fill="magenta"/>
  <circle cx="518.627" cy="403.387" r="5.05167" stroke-width="0.5" stroke="black" fill="magenta"/>
   </g>
   <g id="cell15">
  <circle cx="381.859" cy="479.119" r="8.40154" stroke-width="0.5" stroke="black" fill="magenta"/>
  <circle cx="381.859" cy="479.119" r="5.04811" stroke-width="0.5" stroke="black" fill="magenta"/>
   </g>
   <g id="cell16">
  <circle cx="449.866" cy="416.859" r="6.84907" stroke-width="0.5" stroke="black" fill="magenta"/>
  <circle cx="449.866" cy="416.859" r="4.15229" stroke-width="0.5" stroke="black" fill="magenta"/>
   </g>
   <g id="cell17">
  <circle cx="576.631" cy="495.801" r="7.89373" stroke-width="0.5" stroke="black" fill="magenta"/>
  <circle cx="576.631" cy="495.801" r="4.78957" stroke-width="0.5" stroke="black" fill="magenta"/>
   </g>
   <g id="cell18">
  <circle cx="517.868" cy="388.388" r="8.41271" stroke-width="0.5" stroke="black" fill="magenta"/>
  <circle cx="517.868" cy="388.388" r="5.05167" stroke-width="0.5" stroke="black" fill="magenta"/>
   </g>
   <g id="cell19">
  <circle cx="457.289" cy="541.556" r="8.41017" stroke-width="0.5" stroke="black" fill="magenta"/>
  <circle cx="457.289" cy="541.556" r="5.05099" stroke-width="0.5" stroke="black" fill="magenta"/>
   </g>
   <g id="cell20">
  <circle cx="531.136" cy="412.912" r="8.41271" stroke-width="0.5" stroke="black" fill="magenta"/>
  <circle cx="531.136" cy="412.912" r="5.05167" stroke-width="0.5" stroke="black" fill="magenta"/>
   </g>
   <g id="cell21">
  <circle cx="466.883" cy="632.265" r="8.41271" stroke-width="0.5" stroke="black" fill="magenta"/>
  <circle cx="466.883" cy="632.265" r="5.05167" stroke-width="0.5" stroke="black" fill="magenta"/>
   </g>
   <g id="cell22">
  <circle cx="554.84" cy="492.962" r="6.41529" stroke-width="0.5" stroke="black" fill="magenta"/>
  <circle cx="554.84" cy="492.962" r="3.89041" stroke-width="0.5" stroke="black" fill="magenta"/>
   </g>
   <g id="cell23">
  <circle cx="553.315" cy="479.822" r="8.41271" stroke-width="0.5" stroke="black" fill="magenta"/>
  <circle cx="553.315" cy="479.822" r="5.05167" stroke-width="0.5" stroke="black" fill="magenta"/>
   </g>
   <g id="cell24">
  <circle cx="563.302" cy="383.688" r="8.41271" stroke-width="0.5" stroke="black" fill="magenta"/>
  <circle cx="563.302" cy="383.688" r="5.05167" stroke-width="0.5" stroke="black" fill="magenta"/>
   </g>
   <g id="cell25">
  <circle cx="648.234" cy="543.205" r="8.41251" stroke-width="0.5" stroke="black" fill="green"/>
  <circle cx="648.234" cy="543.205" r="5.05163" stroke-width="0.5" stroke="black" fill="green"/>
   </g>
   <g id="cell26">
  <circle cx="557.668" cy="398.19" r="8.41016" stroke-width="0.5" stroke="black" fill="green"/>
  <circle cx="557.668" cy="398.19" r="5.05098" stroke-width="0.5" stroke="black" fill="green"/>
   </g>
   <g id="cell27">
  <circle cx="463.676" cy="405.261" r="8.41258" stroke-width="0.5" stroke="black" fill="green"/>
  <circle cx="463.676" cy="405.261" r="5.05164" stroke-width="0.5" stroke="black" fill="green"/>
   </g>
   <g id="cell28">
  <circle cx="429.058" cy="540.114" r="8.33911" stroke-width="0.5" stroke="black" fill="green"/>
  <circle cx="429.058" cy="540.114" r="5.02235" stroke-width="0.5" stroke="black" fill="green"/>
   </g>
   <g id="cell29">
  <circle cx="450.678" cy="517.975" r="2.12213" stroke-width="0.5" stroke="black" fill="green"/>
  <circle cx="450.678" cy="517.975" r="1.9541" stroke-width="0.5" stroke="black" fill="black"/>
   </g>
   <g id="cell30">
  <circle cx="481.109" cy="536.194" r="8.38932" stroke-width="0.5" stroke="black" fill="green"/>
  <circle cx="481.109" cy="536.194" r="5.04359" stroke-width="0.5" stroke="black" fill="green"/>
   </g>
   <g id="cell31">
  <circle cx="413.33" cy="542.928" r="8.41271" stroke-width="0.5" stroke="black" fill="green"/>
  <circle cx="413.33" cy="542.928" r="5.05167" stroke-width="0.5" stroke="black" fill="green"/>
   </g>
   <g id="cell169">
  <circle cx="520.684" cy="499.753" r="8.16776" stroke-width="0.5" stroke="black" fill="cyan"/>
  <circle cx="520.684" cy="499.753" r="4.9387" stroke-width="0.5" stroke="black" fill="cyan"/>
   </g>
   <g id="cell33">
  <circle cx="501.749" cy="423.368" r="8.38532" stroke-width="0.5" stroke="black" fill="green"/>
  <circle cx="501.749" cy="423.368" r="5.04199" stroke-width="0.5" stroke="black" fill="green"/>
   </g>
   <g id="cell168">
  <circle cx="382.923" cy="517.473" r="8.17384" stroke-width="0.5" stroke="black" fill="cyan"/>
  <circle cx="382.923" cy="517.473" r="4.94204" stroke-width="0.5" stroke="black" fill="cyan"/>
   </g>
   <g id="cell35">
  <circle cx="558.102" cy="551.508" r="8.41271" stroke-width="0.5" stroke="black" fill="green"/>
  <circle cx="558.102" cy="551.508" r="5.05167" stroke-width="0.5" stroke="black" fill="green"/>
   </g>
   <g id="cell36">
  <circle cx="386.073" cy="581.676" r="8.27148" stroke-width="0.5" stroke="black" fill="green"/>
  <circle cx="386.073" cy="581.676" r="4.99477" stroke-width="0.5" stroke="black" fill="green"/>
   </g>
   <g id="cell37">
  <circle cx="640.871" cy="456.205" r="8.41256" stroke-width="0.5" stroke="black" fill="green"/>
  <circle cx="640.871" cy="456.205" r="5.05164" stroke-width="0.5" stroke="black" fill="green"/>
   </g>
   <g id="cell38">
  <circle cx="526.862" cy="586.799" r="8.27088" stroke-width="0.5" stroke="black" fill="green"/>
  <circle cx="526.862" cy="586.799" r="4.99046" stroke-width="0.5" stroke="black" fill="green"/>
   </g>
   <g id="cell39">
  <circle cx="612.252" cy="488.012" r="7.9229" stroke-width="0.5" stroke="black" fill="green"/>
  <circle cx="612.252" cy="488.012" r="4.80599" stroke-width="0.5" stroke="black" fill="green"/>
   </g>
   <g id="cell40">
  <circle cx="486.04" cy="566.966" r="8.32543" stroke-width="0.5" stroke="black" fill="green"/>
  <circle cx="486.04" cy="566.966" r="5.01617" stroke-width="0.5" stroke="black" fill="green"/>
   </g>
   <g id="cell41">
  <circle cx="366.561" cy="482.12" r="8.41271" stroke-width="0.5" stroke="black" fill="green"/>
  <circle cx="366.561" cy="482.12" r="5.05167" stroke-width="0.5" stroke="black" fill="green"/>
   </g>
   <g id="cell42">
  <circle cx="438.34" cy="491.728" r="8.41271" stroke-width="0.5" stroke="black" fill="green"/>
  <circle cx="438.34" cy="491.728" r="5.05167" stroke-width="0.5" stroke="black" fill="green"/>
   </g>
   <g id="cell43">
  <circle cx="563.662" cy="439.823" r="8.41271" stroke-width="0.5" stroke="black" fill="green"/>
  <circle cx="563.662" cy="439.823" r="5.05167" stroke-width="0.5" stroke="black" fill="green"/>
   </g>
   <g id="cell164">
  <circle cx="397.928" cy="571.592" r="8.2151" stroke-width="0.5" stroke="black" fill="green"/>
  <circle cx="397.928" cy="571.592" r="4.96638" stroke-width="0.5" stroke="black" fill="green"/>
   </g>
   <g id="cell145">
  <circle cx="414.075" cy="420.471" r="6.65324" stroke-width="0.5" stroke="black" fill="magenta"/>
  <circle cx="414.075" cy="420.471" r="4.07634" stroke-width="0.5" stroke="black" fill="magenta"/>
   </g>
   <g id="cell46">
  <circle cx="516.22" cy="616.667" r="8.41157" stroke-width="0.5" stroke="black" fill="green"/>
  <circle cx="516.22" cy="616.667" r="5.05138" stroke-width="0.5" stroke="black" fill="green"/>
   </g>
   <g id="cell47">
  <circle cx="487.703" cy="491.225" r="8.412" stroke-width="0.5" stroke="black" fill="green"/>
  <circle cx="487.703" cy="491.225" r="5.0515" stroke-width="0.5" stroke="black" fill="green"/>
   </g>
   <g id="cell48">
  <circle cx="574.926" cy="605.063" r="8.41012" stroke-width="0.5" stroke="black" fill="green"/>
  <circle cx="574.926" cy="605.063" r="5.05099" stroke-width="0.5" stroke="black" fill="green"/>
   </g>
   <g id="cell49">
  <circle cx="438.479" cy="390.886" r="8.17502" stroke-width="0.5" stroke="black" fill="green"/>
  <circle cx="438.479" cy="390.886" r="4.94236" stroke-width="0.5" stroke="black" fill="green"/>
   </g>
   <g id="cell50">
  <circle cx="503.7" cy="510.701" r="8.4091" stroke-width="0.5" stroke="black" fill="cyan"/>
  <circle cx="503.7" cy="510.701" r="5.05067" stroke-width="0.5" stroke="black" fill="cyan"/>
   </g>
   <g id="cell51">
  <circle cx="401.953" cy="593.69" r="6.73287" stroke-width="0.5" stroke="black" fill="cyan"/>
  <circle cx="401.953" cy="593.69" r="4.05039" stroke-width="0.5" stroke="black" fill="cyan"/>
   </g>
   <g id="cell52">
  <circle cx="516.229" cy="418.134" r="8.41271" stroke-width="0.5" stroke="black" fill="cyan"/>
  <circle cx="516.229" cy="418.134" r="5.05167" stroke-width="0.5" stroke="black" fill="cyan"/>
   </g>
   <g id="cell53">
  <circle cx="571.76" cy="426.263" r="8.41175" stroke-width="0.5" stroke="black" fill="cyan"/>
  <circle cx="571.76" cy="426.263" r="5.05143" stroke-width="0.5" stroke="black" fill="cyan"/>
   </g>
   <g id="cell54">
  <circle cx="477.308" cy="418.826" r="8.41212" stroke-width="0.5" stroke="black" fill="cyan"/>
  <circle cx="477.308" cy="418.826" r="5.05153" stroke-width="0.5" stroke="black" fill="cyan"/>
   </g>
   <g id="cell55">
  <circle cx="523.111" cy="458.689" r="8.41179" stroke-width="0.5" stroke="black" fill="cyan"/>
  <circle cx="523.111" cy="458.689" r="5.05145" stroke-width="0.5" stroke="black" fill="cyan"/>
   </g>
   <g id="cell56">
  <circle cx="622.227" cy="522.681" r="8.41271" stroke-width="0.5" stroke="black" fill="cyan"/>
  <circle cx="622.227" cy="522.681" r="5.05167" stroke-width="0.5" stroke="black" fill="cyan"/>
   </g>
   <g id="cell105">
  <circle cx="503.093" cy="607.867" r="8.38291" stroke-width="0.5" stroke="black" fill="green"/>
  <circle cx="503.093" cy="607.867" r="5.04131" stroke-width="0.5" stroke="black" fill="green"/>
   </g>
   <g id="cell58">
  <circle cx="568.814" cy="479.734" r="8.33026" stroke-width="0.5" stroke="black" fill="cyan"/>
  <circle cx="568.814" cy="479.734" r="5.01837" stroke-width="0.5" stroke="black" fill="cyan"/>
   </g>
   <g id="cell59">
  <circle cx="385.732" cy="440.058" r="8.41271" stroke-width="0.5" stroke="black" fill="cyan"/>
  <circle cx="385.732" cy="440.058" r="5.05167" stroke-width="0.5" stroke="black" fill="cyan"/>
   </g>
   <g id="cell60">
  <circle cx="593.054" cy="467.349" r="8.06667" stroke-width="0.5" stroke="black" fill="cyan"/>
  <circle cx="593.054" cy="467.349" r="4.88515" stroke-width="0.5" stroke="black" fill="cyan"/>
   </g>
   <g id="cell186">
  <circle cx="355.306" cy="562.552" r="7.61464" stroke-width="0.5" stroke="black" fill="cyan"/>
  <circle cx="355.306" cy="562.552" r="4.64859" stroke-width="0.5" stroke="black" fill="cyan"/>
   </g>
   <g id="cell62">
  <circle cx="513.678" cy="433.423" r="8.02118" stroke-width="0.5" stroke="black" fill="cyan"/>
  <circle cx="513.678" cy="433.423" r="4.86117" stroke-width="0.5" stroke="black" fill="cyan"/>
   </g>
   <g id="cell63">
  <circle cx="587.01" cy="539.284" r="8.40039" stroke-width="0.5" stroke="black" fill="cyan"/>
  <circle cx="587.01" cy="539.284" r="5.04772" stroke-width="0.5" stroke="black" fill="cyan"/>
   </g>
   <g id="cell64">
  <circle cx="509.556" cy="638.667" r="8.41271" stroke-width="0.5" stroke="black" fill="cyan"/>
  <circle cx="509.556" cy="638.667" r="5.05167" stroke-width="0.5" stroke="black" fill="cyan"/>
   </g>
   <g id="cell65">
  <circle cx="546.72" cy="465.636" r="8.41231" stroke-width="0.5" stroke="black" fill="cyan"/>
  <circle cx="546.72" cy="465.636" r="5.05158" stroke-width="0.5" stroke="black" fill="cyan"/>
   </g>
   <g id="cell66">
  <circle cx="534.401" cy="534.697" r="8.41209" stroke-width="0.5" stroke="black" fill="cyan"/>
  <circle cx="534.401" cy="534.697" r="5.05152" stroke-width="0.5" stroke="black" fill="cyan"/>
   </g>
   <g id="cell67">
  <circle cx="354.661" cy="492.851" r="8.41271" stroke-width="0.5" stroke="black" fill="cyan"/>
  <circle cx="354.661" cy="492.851" r="5.05167" stroke-width="0.5" stroke="black" fill="cyan"/>
   </g>
   <g id="cell68">
  <circle cx="556.109" cy="560.733" r="1.6312" stroke-width="0.5" stroke="black" fill="cyan"/>
  <circle cx="556.109" cy="560.733" r="1.59812" stroke-width="0.5" stroke="black" fill="black"/>
   </g>
   <g id="cell69">
  <circle cx="441.582" cy="461.284" r="8.41271" stroke-width="0.5" stroke="black" fill="cyan"/>
  <circle cx="441.582" cy="461.284" r="5.05167" stroke-width="0.5" stroke="black" fill="cyan"/>
   </g>
   <g id="cell70">
  <circle cx="583.926" cy="482.716" r="8.41271" stroke-width="0.5" stroke="black" fill="cyan"/>
  <circle cx="583.926" cy="482.716" r="5.05167" stroke-width="0.5" stroke="black" fill="cyan"/>
   </g>
   <g id="cell71">
  <circle cx="383.787" cy="532.422" r="2.46754" stroke-width="0.5" stroke="black" fill="cyan"/>
  <circle cx="383.787" cy="532.422" r="2.17508" stroke-width="0.5" stroke="black" fill="black"/>
   </g>
   <g id="cell72">
  <circle cx="534.832" cy="504.078" r="8.16776" stroke-width="0.5" stroke="black" fill="cyan"/>
  <circle cx="534.832" cy="504.078" r="4.9387" stroke-width="0.5" stroke="black" fill="cyan"/>
   </g>
   <g id="cell73">
  <circle cx="366.247" cy="551.383" r="6.38828" stroke-width="0.5" stroke="black" fill="cyan"/>
  <circle cx="366.247" cy="551.383" r="3.87569" stroke-width="0.5" stroke="black" fill="cyan"/>
   </g>
   <g id="cell162">
  <circle cx="375.183" cy="537.238" r="8.27097" stroke-width="0.5" stroke="black" fill="magenta"/>
  <circle cx="375.183" cy="537.238" r="4.99048" stroke-width="0.5" stroke="black" fill="magenta"/>
   </g>
   <g id="cell75">
  <circle cx="527.875" cy="428.106" r="8.41259" stroke-width="0.5" stroke="black" fill="cyan"/>
  <circle cx="527.875" cy="428.106" r="5.05164" stroke-width="0.5" stroke="black" fill="cyan"/>
   </g>
   <g id="cell76">
  <circle cx="437.368" cy="375.119" r="8.41087" stroke-width="0.5" stroke="black" fill="green"/>
  <circle cx="437.368" cy="375.119" r="5.05121" stroke-width="0.5" stroke="black" fill="green"/>
   </g>
   <g id="cell77">
  <circle cx="471.051" cy="446.402" r="8.4113" stroke-width="0.5" stroke="black" fill="magenta"/>
  <circle cx="471.051" cy="446.402" r="5.05131" stroke-width="0.5" stroke="black" fill="magenta"/>
   </g>
   <g id="cell78">
  <circle cx="625.681" cy="461.158" r="8.41224" stroke-width="0.5" stroke="black" fill="green"/>
  <circle cx="625.681" cy="461.158" r="5.05156" stroke-width="0.5" stroke="black" fill="green"/>
   </g>
   <g id="cell79">
  <circle cx="520.355" cy="473.717" r="8.41255" stroke-width="0.5" stroke="black" fill="cyan"/>
  <circle cx="520.355" cy="473.717" r="5.05164" stroke-width="0.5" stroke="black" fill="cyan"/>
   </g>
   <g id="cell80">
  <circle cx="543.217" cy="629.024" r="7.20813" stroke-width="0.5" stroke="black" fill="green"/>
  <circle cx="543.217" cy="629.024" r="4.37874" stroke-width="0.5" stroke="black" fill="green"/>
   </g>
   <g id="cell81">
  <circle cx="547.557" cy="587.418" r="8.41244" stroke-width="0.5" stroke="black" fill="green"/>
  <circle cx="547.557" cy="587.418" r="5.05161" stroke-width="0.5" stroke="black" fill="green"/>
   </g>
   <g id="cell82">
  <circle cx="531.755" cy="560.706" r="8.38018" stroke-width="0.5" stroke="black" fill="magenta"/>
  <circle cx="531.755" cy="560.706" r="5.03995" stroke-width="0.5" stroke="black" fill="magenta"/>
   </g>
   <g id="cell83">
  <circle cx="635.468" cy="552.193" r="1.67216" stroke-width="0.5" stroke="black" fill="green"/>
  <circle cx="635.468" cy="552.193" r="1.63367" stroke-width="0.5" stroke="black" fill="black"/>
   </g>
   <g id="cell84">
  <circle cx="513.793" cy="487.12" r="7.79546" stroke-width="0.5" stroke="black" fill="cyan"/>
  <circle cx="513.793" cy="487.12" r="4.73355" stroke-width="0.5" stroke="black" fill="cyan"/>
   </g>
   <g id="cell85">
  <circle cx="349.08" cy="541.359" r="8.41182" stroke-width="0.5" stroke="black" fill="cyan"/>
  <circle cx="349.08" cy="541.359" r="5.05146" stroke-width="0.5" stroke="black" fill="cyan"/>
   </g>
   <g id="cell86">
  <circle cx="496.471" cy="537.914" r="8.4065" stroke-width="0.5" stroke="black" fill="magenta"/>
  <circle cx="496.471" cy="537.914" r="5.04984" stroke-width="0.5" stroke="black" fill="magenta"/>
   </g>
   <g id="cell87">
  <circle cx="576.986" cy="557.651" r="8.41145" stroke-width="0.5" stroke="black" fill="cyan"/>
  <circle cx="576.986" cy="557.651" r="5.05136" stroke-width="0.5" stroke="black" fill="cyan"/>
   </g>
   <g id="cell88">
  <circle cx="443.587" cy="535.348" r="8.27314" stroke-width="0.5" stroke="black" fill="magenta"/>
  <circle cx="443.587" cy="535.348" r="4.99449" stroke-width="0.5" stroke="black" fill="magenta"/>
   </g>
   <g id="cell89">
  <circle cx="554.259" cy="452.166" r="8.37138" stroke-width="0.5" stroke="black" fill="cyan"/>
  <circle cx="554.259" cy="452.166" r="5.037" stroke-width="0.5" stroke="black" fill="cyan"/>
   </g>
   <g id="cell90">
  <circle cx="637.742" cy="471.861" r="8.40379" stroke-width="0.5" stroke="black" fill="green"/>
  <circle cx="637.742" cy="471.861" r="5.04893" stroke-width="0.5" stroke="black" fill="green"/>
   </g>
   <g id="cell91">
  <circle cx="546.974" cy="562.256" r="8.41193" stroke-width="0.5" stroke="black" fill="magenta"/>
  <circle cx="546.974" cy="562.256" r="5.05149" stroke-width="0.5" stroke="black" fill="magenta"/>
   </g>
   <g id="cell92">
  <circle cx="487.573" cy="550.875" r="8.41221" stroke-width="0.5" stroke="black" fill="green"/>
  <circle cx="487.573" cy="550.875" r="5.05155" stroke-width="0.5" stroke="black" fill="green"/>
   </g>
   <g id="cell93">
  <circle cx="540.471" cy="548.752" r="8.41193" stroke-width="0.5" stroke="black" fill="magenta"/>
  <circle cx="540.471" cy="548.752" r="5.05149" stroke-width="0.5" stroke="black" fill="magenta"/>
   </g>
   <g id="cell94">
  <circle cx="542.116" cy="490.694" r="8.41214" stroke-width="0.5" stroke="black" fill="cyan"/>
  <circle cx="542.116" cy="490.694" r="5.05154" stroke-width="0.5" stroke="black" fill="cyan"/>
   </g>
   <g id="cell95">
  <circle cx="462.357" cy="419.778" r="7.24203" stroke-width="0.5" stroke="black" fill="cyan"/>
  <circle cx="462.357" cy="419.778" r="4.39923" stroke-width="0.5" stroke="black" fill="cyan"/>
   </g>
   <g id="cell96">
  <circle cx="551.016" cy="537.903" r="8.39587" stroke-width="0.5" stroke="black" fill="cyan"/>
  <circle cx="551.016" cy="537.903" r="5.04609" stroke-width="0.5" stroke="black" fill="cyan"/>
   </g>
   <g id="cell97">
  <circle cx="422.215" cy="466.702" r="8.41153" stroke-width="0.5" stroke="black" fill="green"/>
  <circle cx="422.215" cy="466.702" r="5.05138" stroke-width="0.5" stroke="black" fill="green"/>
   </g>
   <g id="cell98">
  <circle cx="490.521" cy="523.315" r="8.40521" stroke-width="0.5" stroke="black" fill="green"/>
  <circle cx="490.521" cy="523.315" r="5.04942" stroke-width="0.5" stroke="black" fill="green"/>
   </g>
   <g id="cell99">
  <circle cx="361.661" cy="527.845" r="8.41182" stroke-width="0.5" stroke="black" fill="cyan"/>
  <circle cx="361.661" cy="527.845" r="5.05146" stroke-width="0.5" stroke="black" fill="cyan"/>
   </g>
   <g id="cell100">
  <circle cx="447.938" cy="402.998" r="8.41181" stroke-width="0.5" stroke="black" fill="green"/>
  <circle cx="447.938" cy="402.998" r="5.05145" stroke-width="0.5" stroke="black" fill="green"/>
   </g>
   <g id="cell101">
  <circle cx="527.983" cy="486.883" r="7.64759" stroke-width="0.5" stroke="black" fill="cyan"/>
  <circle cx="527.983" cy="486.883" r="4.64979" stroke-width="0.5" stroke="black" fill="cyan"/>
   </g>
   <g id="cell102">
  <circle cx="435.249" cy="476.008" r="8.41153" stroke-width="0.5" stroke="black" fill="green"/>
  <circle cx="435.249" cy="476.008" r="5.05138" stroke-width="0.5" stroke="black" fill="green"/>
   </g>
   <g id="cell103">
  <circle cx="593.123" cy="448.939" r="8.40635" stroke-width="0.5" stroke="black" fill="cyan"/>
  <circle cx="593.123" cy="448.939" r="5.04981" stroke-width="0.5" stroke="black" fill="cyan"/>
   </g>
   <g id="cell104">
  <circle cx="605.863" cy="554.817" r="7.83723" stroke-width="0.5" stroke="black" fill="cyan"/>
  <circle cx="605.863" cy="554.817" r="4.76228" stroke-width="0.5" stroke="black" fill="cyan"/>
   </g>
   <g id="cell106">
  <circle cx="455.65" cy="444.591" r="8.4113" stroke-width="0.5" stroke="black" fill="magenta"/>
  <circle cx="455.65" cy="444.591" r="5.05131" stroke-width="0.5" stroke="black" fill="magenta"/>
   </g>
   <g id="cell107">
  <circle cx="465.173" cy="389.644" r="8.22084" stroke-width="0.5" stroke="black" fill="green"/>
  <circle cx="465.173" cy="389.644" r="4.9702" stroke-width="0.5" stroke="black" fill="green"/>
   </g>
   <g id="cell108">
  <circle cx="559.361" cy="607.089" r="8.41108" stroke-width="0.5" stroke="black" fill="green"/>
  <circle cx="559.361" cy="607.089" r="5.05125" stroke-width="0.5" stroke="black" fill="green"/>
   </g>
   <g id="cell109">
  <circle cx="576.599" cy="589.178" r="8.41012" stroke-width="0.5" stroke="black" fill="green"/>
  <circle cx="576.599" cy="589.178" r="5.05099" stroke-width="0.5" stroke="black" fill="green"/>
   </g>
   <g id="cell110">
  <circle cx="369.085" cy="509.882" r="8.41049" stroke-width="0.5" stroke="black" fill="cyan"/>
  <circle cx="369.085" cy="509.882" r="5.05108" stroke-width="0.5" stroke="black" fill="cyan"/>
   </g>
   <g id="cell111">
  <circle cx="458.218" cy="556.703" r="8.39396" stroke-width="0.5" stroke="black" fill="magenta"/>
  <circle cx="458.218" cy="556.703" r="5.04547" stroke-width="0.5" stroke="black" fill="magenta"/>
   </g>
   <g id="cell112">
  <circle cx="494.208" cy="467.899" r="8.36597" stroke-width="0.5" stroke="black" fill="magenta"/>
  <circle cx="494.208" cy="467.899" r="5.03424" stroke-width="0.5" stroke="black" fill="magenta"/>
   </g>
   <g id="cell113">
  <circle cx="547.84" cy="383.201" r="8.37614" stroke-width="0.5" stroke="black" fill="green"/>
  <circle cx="547.84" cy="383.201" r="5.03846" stroke-width="0.5" stroke="black" fill="green"/>
   </g>
   <g id="cell114">
  <circle cx="525.888" cy="443.284" r="8.40842" stroke-width="0.5" stroke="black" fill="cyan"/>
  <circle cx="525.888" cy="443.284" r="5.05049" stroke-width="0.5" stroke="black" fill="cyan"/>
   </g>
   <g id="cell115">
  <circle cx="538.07" cy="452.895" r="8.39735" stroke-width="0.5" stroke="black" fill="cyan"/>
  <circle cx="538.07" cy="452.895" r="5.04679" stroke-width="0.5" stroke="black" fill="cyan"/>
   </g>
   <g id="cell116">
  <circle cx="520.427" cy="528.863" r="7.94843" stroke-width="0.5" stroke="black" fill="cyan"/>
  <circle cx="520.427" cy="528.863" r="4.8208" stroke-width="0.5" stroke="black" fill="cyan"/>
   </g>
   <g id="cell117">
  <circle cx="502.621" cy="624.224" r="8.40793" stroke-width="0.5" stroke="black" fill="green"/>
  <circle cx="502.621" cy="624.224" r="5.05032" stroke-width="0.5" stroke="black" fill="green"/>
   </g>
   <g id="cell118">
  <circle cx="511.293" cy="448.64" r="8.40724" stroke-width="0.5" stroke="black" fill="cyan"/>
  <circle cx="511.293" cy="448.64" r="5.05007" stroke-width="0.5" stroke="black" fill="cyan"/>
   </g>
   <g id="cell119">
  <circle cx="544.983" cy="602.583" r="8.02114" stroke-width="0.5" stroke="black" fill="green"/>
  <circle cx="544.983" cy="602.583" r="4.86116" stroke-width="0.5" stroke="black" fill="green"/>
   </g>
   <g id="cell120">
  <circle cx="579.497" cy="440.519" r="8.40635" stroke-width="0.5" stroke="black" fill="cyan"/>
  <circle cx="579.497" cy="440.519" r="5.04981" stroke-width="0.5" stroke="black" fill="cyan"/>
   </g>
   <g id="cell121">
  <circle cx="450.839" cy="366.403" r="8.39932" stroke-width="0.5" stroke="black" fill="green"/>
  <circle cx="450.839" cy="366.403" r="5.04754" stroke-width="0.5" stroke="black" fill="green"/>
   </g>
   <g id="cell122">
  <circle cx="505.854" cy="526.098" r="8.4065" stroke-width="0.5" stroke="black" fill="magenta"/>
  <circle cx="505.854" cy="526.098" r="5.04984" stroke-width="0.5" stroke="black" fill="magenta"/>
   </g>
   <g id="cell123">
  <circle cx="488.489" cy="507.247" r="8.40521" stroke-width="0.5" stroke="black" fill="green"/>
  <circle cx="488.489" cy="507.247" r="5.04942" stroke-width="0.5" stroke="black" fill="green"/>
   </g>
   <g id="cell124">
  <circle cx="489.001" cy="429.649" r="7.41084" stroke-width="0.5" stroke="black" fill="magenta"/>
  <circle cx="489.001" cy="429.649" r="4.50571" stroke-width="0.5" stroke="black" fill="magenta"/>
   </g>
   <g id="cell125">
  <circle cx="622.637" cy="476.758" r="8.40379" stroke-width="0.5" stroke="black" fill="green"/>
  <circle cx="622.637" cy="476.758" r="5.04893" stroke-width="0.5" stroke="black" fill="green"/>
   </g>
   <g id="cell126">
  <circle cx="628.988" cy="566.353" r="8.40368" stroke-width="0.5" stroke="black" fill="green"/>
  <circle cx="628.988" cy="566.353" r="5.04887" stroke-width="0.5" stroke="black" fill="green"/>
   </g>
   <g id="cell127">
  <circle cx="436.532" cy="359.183" r="8.39932" stroke-width="0.5" stroke="black" fill="green"/>
  <circle cx="436.532" cy="359.183" r="5.04754" stroke-width="0.5" stroke="black" fill="green"/>
   </g>
   <g id="cell128">
  <circle cx="372.116" cy="467.554" r="8.40154" stroke-width="0.5" stroke="black" fill="magenta"/>
  <circle cx="372.116" cy="467.554" r="5.04811" stroke-width="0.5" stroke="black" fill="magenta"/>
   </g>
   <g id="cell129">
  <circle cx="571.426" cy="542.649" r="8.40039" stroke-width="0.5" stroke="black" fill="cyan"/>
  <circle cx="571.426" cy="542.649" r="5.04772" stroke-width="0.5" stroke="black" fill="cyan"/>
   </g>
   <g id="cell130">
  <circle cx="545.401" cy="438.841" r="8.39735" stroke-width="0.5" stroke="black" fill="cyan"/>
  <circle cx="545.401" cy="438.841" r="5.04679" stroke-width="0.5" stroke="black" fill="cyan"/>
   </g>
   <g id="cell131">
  <circle cx="543.296" cy="513.677" r="5.99451" stroke-width="0.5" stroke="black" fill="cyan"/>
  <circle cx="543.296" cy="513.677" r="3.6964" stroke-width="0.5" stroke="black" fill="cyan"/>
   </g>
   <g id="cell132">
  <circle cx="444.639" cy="550.141" r="8.39396" stroke-width="0.5" stroke="black" fill="magenta"/>
  <circle cx="444.639" cy="550.141" r="5.04547" stroke-width="0.5" stroke="black" fill="magenta"/>
   </g>
   <g id="cell133">
  <circle cx="577.832" cy="467.532" r="8.39503" stroke-width="0.5" stroke="black" fill="cyan"/>
  <circle cx="577.832" cy="467.532" r="5.04576" stroke-width="0.5" stroke="black" fill="cyan"/>
   </g>
   <g id="cell201">
  <circle cx="554.541" cy="514.472" r="5.99451" stroke-width="0.5" stroke="black" fill="cyan"/>
  <circle cx="554.541" cy="514.472" r="3.6964" stroke-width="0.5" stroke="black" fill="cyan"/>
   </g>
   <g id="cell135">
  <circle cx="512.197" cy="582.967" r="8.3926" stroke-width="0.5" stroke="black" fill="magenta"/>
  <circle cx="512.197" cy="582.967" r="5.04482" stroke-width="0.5" stroke="black" fill="magenta"/>
   </g>
   <g id="cell136">
  <circle cx="471.431" cy="548.673" r="8.38932" stroke-width="0.5" stroke="black" fill="green"/>
  <circle cx="471.431" cy="548.673" r="5.04359" stroke-width="0.5" stroke="black" fill="green"/>
   </g>
   <g id="cell137">
  <circle cx="489.219" cy="615.851" r="8.38291" stroke-width="0.5" stroke="black" fill="green"/>
  <circle cx="489.219" cy="615.851" r="5.04131" stroke-width="0.5" stroke="black" fill="green"/>
   </g>
   <g id="cell138">
  <circle cx="503.849" cy="407.694" r="8.38532" stroke-width="0.5" stroke="black" fill="green"/>
  <circle cx="503.849" cy="407.694" r="5.04199" stroke-width="0.5" stroke="black" fill="green"/>
   </g>
   <g id="cell139">
  <circle cx="417.627" cy="407.525" r="8.38118" stroke-width="0.5" stroke="black" fill="magenta"/>
  <circle cx="417.627" cy="407.525" r="5.04034" stroke-width="0.5" stroke="black" fill="magenta"/>
   </g>
   <g id="cell140">
  <circle cx="522.895" cy="572.481" r="8.35208" stroke-width="0.5" stroke="black" fill="magenta"/>
  <circle cx="522.895" cy="572.481" r="5.0292" stroke-width="0.5" stroke="black" fill="magenta"/>
   </g>
   <g id="cell141">
  <circle cx="570.542" cy="453.689" r="8.37138" stroke-width="0.5" stroke="black" fill="cyan"/>
  <circle cx="570.542" cy="453.689" r="5.037" stroke-width="0.5" stroke="black" fill="cyan"/>
   </g>
   <g id="cell142">
  <circle cx="541.897" cy="423.916" r="7.93318" stroke-width="0.5" stroke="black" fill="green"/>
  <circle cx="541.897" cy="423.916" r="4.82185" stroke-width="0.5" stroke="black" fill="green"/>
   </g>
   <g id="cell143">
  <circle cx="432.593" cy="405.947" r="8.36155" stroke-width="0.5" stroke="black" fill="magenta"/>
  <circle cx="432.593" cy="405.947" r="5.0331" stroke-width="0.5" stroke="black" fill="magenta"/>
   </g>
   <g id="cell144">
  <circle cx="547.086" cy="410.124" r="8.28362" stroke-width="0.5" stroke="black" fill="green"/>
  <circle cx="547.086" cy="410.124" r="4.9996" stroke-width="0.5" stroke="black" fill="green"/>
   </g>
   <g id="cell185">
  <circle cx="592.141" cy="560.507" r="7.83723" stroke-width="0.5" stroke="black" fill="cyan"/>
  <circle cx="592.141" cy="560.507" r="4.76228" stroke-width="0.5" stroke="black" fill="cyan"/>
   </g>
   <g id="cell147">
  <circle cx="516.507" cy="559.036" r="8.35208" stroke-width="0.5" stroke="black" fill="magenta"/>
  <circle cx="516.507" cy="559.036" r="5.0292" stroke-width="0.5" stroke="black" fill="magenta"/>
   </g>
   <g id="cell148">
  <circle cx="508.2" cy="462.909" r="7.60867" stroke-width="0.5" stroke="black" fill="magenta"/>
  <circle cx="508.2" cy="462.909" r="4.62991" stroke-width="0.5" stroke="black" fill="magenta"/>
   </g>
   <g id="cell149">
  <circle cx="572.784" cy="395.439" r="8.35404" stroke-width="0.5" stroke="black" fill="magenta"/>
  <circle cx="572.784" cy="395.439" r="5.02894" stroke-width="0.5" stroke="black" fill="magenta"/>
   </g>
   <g id="cell150">
  <circle cx="409.573" cy="581.844" r="8.2151" stroke-width="0.5" stroke="black" fill="green"/>
  <circle cx="409.573" cy="581.844" r="4.96638" stroke-width="0.5" stroke="black" fill="green"/>
   </g>
   <g id="cell151">
  <circle cx="418.628" cy="527.923" r="8.33911" stroke-width="0.5" stroke="black" fill="green"/>
  <circle cx="418.628" cy="527.923" r="5.02235" stroke-width="0.5" stroke="black" fill="green"/>
   </g>
   <g id="cell152">
  <circle cx="371.391" cy="577.19" r="8.30147" stroke-width="0.5" stroke="black" fill="green"/>
  <circle cx="371.391" cy="577.19" r="5.00731" stroke-width="0.5" stroke="black" fill="green"/>
   </g>
   <g id="cell153">
  <circle cx="561.819" cy="466.392" r="8.33026" stroke-width="0.5" stroke="black" fill="cyan"/>
  <circle cx="561.819" cy="466.392" r="5.01837" stroke-width="0.5" stroke="black" fill="cyan"/>
   </g>
   <g id="cell154">
  <circle cx="387.317" cy="597.244" r="8.27148" stroke-width="0.5" stroke="black" fill="green"/>
  <circle cx="387.317" cy="597.244" r="4.99477" stroke-width="0.5" stroke="black" fill="green"/>
   </g>
   <g id="cell155">
  <circle cx="486.887" cy="583.133" r="8.32543" stroke-width="0.5" stroke="black" fill="green"/>
  <circle cx="486.887" cy="583.133" r="5.01617" stroke-width="0.5" stroke="black" fill="green"/>
   </g>
   <g id="cell156">
  <circle cx="455.385" cy="526.405" r="8.32523" stroke-width="0.5" stroke="black" fill="magenta"/>
  <circle cx="455.385" cy="526.405" r="5.01613" stroke-width="0.5" stroke="black" fill="magenta"/>
   </g>
   <g id="cell157">
  <circle cx="441.521" cy="520.674" r="8.27314" stroke-width="0.5" stroke="black" fill="magenta"/>
  <circle cx="441.521" cy="520.674" r="4.99449" stroke-width="0.5" stroke="black" fill="magenta"/>
   </g>
   <g id="cell158">
  <circle cx="562.692" cy="413.129" r="8.28923" stroke-width="0.5" stroke="black" fill="green"/>
  <circle cx="562.692" cy="413.129" r="5.00219" stroke-width="0.5" stroke="black" fill="green"/>
   </g>
   <g id="cell159">
  <circle cx="531.37" cy="398.938" r="6.89302" stroke-width="0.5" stroke="black" fill="green"/>
  <circle cx="531.37" cy="398.938" r="4.22994" stroke-width="0.5" stroke="black" fill="green"/>
   </g>
   <g id="cell160">
  <circle cx="464.874" cy="373.958" r="8.29962" stroke-width="0.5" stroke="black" fill="green"/>
  <circle cx="464.874" cy="373.958" r="5.0048" stroke-width="0.5" stroke="black" fill="green"/>
   </g>
   <g id="cell165">
  <circle cx="608.086" cy="525.551" r="7.20768" stroke-width="0.5" stroke="black" fill="magenta"/>
  <circle cx="608.086" cy="525.551" r="4.39877" stroke-width="0.5" stroke="black" fill="magenta"/>
   </g>
   <g id="cell166">
  <circle cx="482.649" cy="458.028" r="8.19958" stroke-width="0.5" stroke="black" fill="magenta"/>
  <circle cx="482.649" cy="458.028" r="4.95525" stroke-width="0.5" stroke="black" fill="magenta"/>
   </g>
   <g id="cell167">
  <circle cx="423.525" cy="393.571" r="8.17502" stroke-width="0.5" stroke="black" fill="green"/>
  <circle cx="423.525" cy="393.571" r="4.94236" stroke-width="0.5" stroke="black" fill="green"/>
   </g>
   <g id="cell170">
  <circle cx="460.026" cy="503.642" r="8.1218" stroke-width="0.5" stroke="black" fill="green"/>
  <circle cx="460.026" cy="503.642" r="4.91457" stroke-width="0.5" stroke="black" fill="green"/>
   </g>
   <g id="cell171">
  <circle cx="599.082" cy="481.228" r="8.06667" stroke-width="0.5" stroke="black" fill="cyan"/>
  <circle cx="599.082" cy="481.228" r="4.88515" stroke-width="0.5" stroke="black" fill="cyan"/>
   </g>
   <g id="cell172">
  <circle cx="549.445" cy="503.484" r="7.75704" stroke-width="0.5" stroke="black" fill="magenta"/>
  <circle cx="549.445" cy="503.484" r="4.72812" stroke-width="0.5" stroke="black" fill="magenta"/>
   </g>
   <g id="cell173">
  <circle cx="531.964" cy="519.407" r="8.01494" stroke-width="0.5" stroke="black" fill="cyan"/>
  <circle cx="531.964" cy="519.407" r="4.85894" stroke-width="0.5" stroke="black" fill="cyan"/>
   </g>
   <g id="cell174">
  <circle cx="499.827" cy="438.777" r="8.02118" stroke-width="0.5" stroke="black" fill="cyan"/>
  <circle cx="499.827" cy="438.777" r="4.86117" stroke-width="0.5" stroke="black" fill="cyan"/>
   </g>
   <g id="cell175">
  <circle cx="525.364" cy="607.013" r="6.34362" stroke-width="0.5" stroke="black" fill="green"/>
  <circle cx="525.364" cy="607.013" r="3.90392" stroke-width="0.5" stroke="black" fill="green"/>
   </g>
   <g id="cell176">
  <circle cx="556.137" cy="426.889" r="7.93318" stroke-width="0.5" stroke="black" fill="green"/>
  <circle cx="556.137" cy="426.889" r="4.82185" stroke-width="0.5" stroke="black" fill="green"/>
   </g>
   <g id="cell177">
  <circle cx="369.692" cy="563.039" r="7.61464" stroke-width="0.5" stroke="black" fill="cyan"/>
  <circle cx="369.692" cy="563.039" r="4.64859" stroke-width="0.5" stroke="black" fill="cyan"/>
   </g>
   <g id="cell178">
  <circle cx="563.51" cy="504.601" r="7.75704" stroke-width="0.5" stroke="black" fill="magenta"/>
  <circle cx="563.51" cy="504.601" r="4.72812" stroke-width="0.5" stroke="black" fill="magenta"/>
   </g>
   <g id="cell179">
  <circle cx="518.189" cy="514.336" r="7.94843" stroke-width="0.5" stroke="black" fill="cyan"/>
  <circle cx="518.189" cy="514.336" r="4.8208" stroke-width="0.5" stroke="black" fill="cyan"/>
   </g>
   <g id="cell180">
  <circle cx="618.791" cy="501.328" r="7.9229" stroke-width="0.5" stroke="black" fill="green"/>
  <circle cx="618.791" cy="501.328" r="4.80599" stroke-width="0.5" stroke="black" fill="green"/>
   </g>
   <g id="cell181">
  <circle cx="559.672" cy="525.768" r="7.68785" stroke-width="0.5" stroke="black" fill="cyan"/>
  <circle cx="559.672" cy="525.768" r="4.69071" stroke-width="0.5" stroke="black" fill="cyan"/>
   </g>
   <g id="cell182">
  <circle cx="532.579" cy="385.341" r="7.83594" stroke-width="0.5" stroke="black" fill="green"/>
  <circle cx="532.579" cy="385.341" r="4.76814" stroke-width="0.5" stroke="black" fill="green"/>
   </g>
   <g id="cell183">
  <circle cx="576.993" cy="509.585" r="7.89373" stroke-width="0.5" stroke="black" fill="magenta"/>
  <circle cx="576.993" cy="509.585" r="4.78957" stroke-width="0.5" stroke="black" fill="magenta"/>
   </g>
   <g id="cell184">
  <circle cx="431.984" cy="429.264" r="6.99393" stroke-width="0.5" stroke="black" fill="magenta"/>
  <circle cx="431.984" cy="429.264" r="4.28915" stroke-width="0.5" stroke="black" fill="magenta"/>
   </g>
   <g id="cell187">
  <circle cx="502.243" cy="495.633" r="7.79546" stroke-width="0.5" stroke="black" fill="cyan"/>
  <circle cx="502.243" cy="495.633" r="4.73355" stroke-width="0.5" stroke="black" fill="cyan"/>
   </g>
   <g id="cell188">
  <circle cx="533.832" cy="616.895" r="7.44882" stroke-width="0.5" stroke="black" fill="green"/>
  <circle cx="533.832" cy="616.895" r="4.55309" stroke-width="0.5" stroke="black" fill="green"/>
   </g>
   <g id="cell189">
  <circle cx="537.81" cy="476.806" r="7.64759" stroke-width="0.5" stroke="black" fill="cyan"/>
  <circle cx="537.81" cy="476.806" r="4.64979" stroke-width="0.5" stroke="black" fill="cyan"/>
   </g>
   <g id="cell190">
  <circle cx="545.274" cy="525.152" r="7.23498" stroke-width="0.5" stroke="black" fill="cyan"/>
  <circle cx="545.274" cy="525.152" r="4.44167" stroke-width="0.5" stroke="black" fill="cyan"/>
   </g>
   <g id="cell191">
  <circle cx="505.684" cy="476.103" r="7.60867" stroke-width="0.5" stroke="black" fill="magenta"/>
  <circle cx="505.684" cy="476.103" r="4.62991" stroke-width="0.5" stroke="black" fill="magenta"/>
   </g>
   <g id="cell192">
  <circle cx="476.682" cy="433.319" r="7.41084" stroke-width="0.5" stroke="black" fill="magenta"/>
  <circle cx="476.682" cy="433.319" r="4.50571" stroke-width="0.5" stroke="black" fill="magenta"/>
   </g>
   <g id="cell193">
  <circle cx="437.858" cy="418.444" r="6.99393" stroke-width="0.5" stroke="black" fill="magenta"/>
  <circle cx="437.858" cy="418.444" r="4.28915" stroke-width="0.5" stroke="black" fill="magenta"/>
   </g>
   <g id="cell194">
  <circle cx="601.903" cy="514.18" r="7.20768" stroke-width="0.5" stroke="black" fill="magenta"/>
  <circle cx="601.903" cy="514.18" r="4.39877" stroke-width="0.5" stroke="black" fill="magenta"/>
   </g>
   <g id="cell195">
  <circle cx="543.616" cy="396.597" r="6.89302" stroke-width="0.5" stroke="black" fill="green"/>
  <circle cx="543.616" cy="396.597" r="4.22994" stroke-width="0.5" stroke="black" fill="green"/>
   </g>
   <g id="cell196">
  <circle cx="463.736" cy="433.153" r="7.24203" stroke-width="0.5" stroke="black" fill="cyan"/>
  <circle cx="463.736" cy="433.153" r="4.39923" stroke-width="0.5" stroke="black" fill="cyan"/>
   </g>
   <g id="cell197">
  <circle cx="547.758" cy="616.383" r="7.20813" stroke-width="0.5" stroke="black" fill="green"/>
  <circle cx="547.758" cy="616.383" r="4.37874" stroke-width="0.5" stroke="black" fill="green"/>
   </g>
   <g id="cell198">
  <circle cx="425.847" cy="418.23" r="6.65324" stroke-width="0.5" stroke="black" fill="magenta"/>
  <circle cx="425.847" cy="418.23" r="4.07634" stroke-width="0.5" stroke="black" fill="magenta"/>
   </g>
   <g id="cell199">
  <circle cx="532.785" cy="598.404" r="6.34362" stroke-width="0.5" stroke="black" fill="green"/>
  <circle cx="532.785" cy="598.404" r="3.90392" stroke-width="0.5" stroke="black" fill="green"/>
   </g>
   <g id="cell200">
  <circle cx="444.984" cy="428.433" r="6.84907" stroke-width="0.5" stroke="black" fill="magenta"/>
  <circle cx="444.984" cy="428.433" r="4.15229" stroke-width="0.5" stroke="black" fill="magenta"/>
   </g>
   <g id="cell202">
  <circle cx="403.169" cy="606.275" r="6.73287" stroke-width="0.5" stroke="black" fill="cyan"/>
  <circle cx="403.169" cy="606.275" r="4.05039" stroke-width="0.5" stroke="black" fill="cyan"/>
   </g>
   <g id="cell203">
  <circle cx="362.525" cy="540.969" r="6.38828" stroke-width="0.5" stroke="black" fill="cyan"/>
  <circle cx="362.525" cy="540.969" r="3.87569" stroke-width="0.5" stroke="black" fill="cyan"/>
   </g>
   <g id="cell204">
  <circle cx="565.236" cy="491.994" r="6.41529" stroke-width="0.5" stroke="black" fill="magenta"/>
  <circle cx="565.236" cy="491.994" r="3.89041" stroke-width="0.5" stroke="black" fill="magenta"/>
   </g>
  </g>
 </g>
  <rect x="775" y="1035" width="200" height="10" stroke-width="2" stroke="rgb(255,255,255)" fill="rgb(0,0,0)"/>
  <text x="781.25" y="1028.75"
   font-family="Arial" font-size="25" fill="black" >
   200 &#956;m
  </text>
  <text x="25" y="1045"
   font-family="Arial" font-size="18.75" fill="black" >
   0 days, 0 hours, 0 minutes, and 43.4600 seconds
  </text>
  <rect x="0" y="70" width="1000" height="1000" stroke-width="2" stroke="rgb(0,0,0)" fill="none"/>
</svg>
