<?xml version="1.0" encoding="UTF-8" standalone="no"?>
<!-- Created with PhysiCell (http://PhysiCell.MathCancer.org/) -->
<svg 
 xmlns:dc="http://purl.org/dc/elements/1.1/" 
 xmlns:cc="http://creativecommons.org/ns#" 
 xmlns:rdf="http://www.w3.org/1999/02/22-rdf-syntax-ns#" 
 xmlns:svg="http://www.w3.org/2000/svg" 
 xmlns="http://www.w3.org/2000/svg" 
 version="1.1" 
 width="1000" 
 height="1070" 
 id="svg2">
  <rect x="0" y="0" width="1000" height="1070" stroke-width="2" stroke="white" fill="white"/>
  <text x="12.5" y="30"
   font-family="Arial" font-size="25" fill="black" >
   Current time: 0 days, 2 hours, and 42.00 minutes, z = 0.00 &#956;m
  </text>
  <text x="12.5" y="57.5"
   font-family="Arial" font-size="23.75" fill="black" >
   82 agents
  </text>
 <g id="tissue" 
    transform="translate(0,1070) scale(1,-1)">
  <g id="ECM">
  </g>
  <g id="cells">
   <g id="cell0">
  <circle cx="514.16" cy="529.787" r="8.41271" stroke-width="0.5" stroke="black" fill="magenta"/>
  <circle cx="514.16" cy="529.787" r="5.05167" stroke-width="0.5" stroke="black" fill="magenta"/>
   </g>
   <g id="cell1">
  <circle cx="604.162" cy="529.904" r="8.41271" stroke-width="0.5" stroke="black" fill="magenta"/>
  <circle cx="604.162" cy="529.904" r="5.05167" stroke-width="0.5" stroke="black" fill="magenta"/>
   </g>
   <g id="cell2">
  <circle cx="510.885" cy="600.601" r="8.41271" stroke-width="0.5" stroke="black" fill="magenta"/>
  <circle cx="510.885" cy="600.601" r="5.05167" stroke-width="0.5" stroke="black" fill="magenta"/>
   </g>
   <g id="cell3">
  <circle cx="532.792" cy="545.484" r="8.41271" stroke-width="0.5" stroke="black" fill="magenta"/>
  <circle cx="532.792" cy="545.484" r="5.05167" stroke-width="0.5" stroke="black" fill="magenta"/>
   </g>
   <g id="cell4">
  <circle cx="486.312" cy="437.044" r="6.99069" stroke-width="0.5" stroke="black" fill="magenta"/>
  <circle cx="486.312" cy="437.044" r="4.23498" stroke-width="0.5" stroke="black" fill="magenta"/>
   </g>
   <g id="cell5">
  <circle cx="465.032" cy="493.3" r="8.41271" stroke-width="0.5" stroke="black" fill="magenta"/>
  <circle cx="465.032" cy="493.3" r="5.05167" stroke-width="0.5" stroke="black" fill="magenta"/>
   </g>
   <g id="cell6">
  <circle cx="593.805" cy="508.984" r="8.41271" stroke-width="0.5" stroke="black" fill="magenta"/>
  <circle cx="593.805" cy="508.984" r="5.05167" stroke-width="0.5" stroke="black" fill="magenta"/>
   </g>
   <g id="cell7">
  <circle cx="510.453" cy="462.43" r="8.41271" stroke-width="0.5" stroke="black" fill="magenta"/>
  <circle cx="510.453" cy="462.43" r="5.05167" stroke-width="0.5" stroke="black" fill="magenta"/>
   </g>
   <g id="cell8">
  <circle cx="375.891" cy="544.521" r="8.41271" stroke-width="0.5" stroke="black" fill="magenta"/>
  <circle cx="375.891" cy="544.521" r="5.05167" stroke-width="0.5" stroke="black" fill="magenta"/>
   </g>
   <g id="cell9">
  <circle cx="460.472" cy="599.786" r="8.41271" stroke-width="0.5" stroke="black" fill="magenta"/>
  <circle cx="460.472" cy="599.786" r="5.05167" stroke-width="0.5" stroke="black" fill="magenta"/>
   </g>
   <g id="cell10">
  <circle cx="583.447" cy="392.105" r="8.41271" stroke-width="0.5" stroke="black" fill="magenta"/>
  <circle cx="583.447" cy="392.105" r="5.05167" stroke-width="0.5" stroke="black" fill="magenta"/>
   </g>
   <g id="cell11">
  <circle cx="589.748" cy="590.273" r="8.41271" stroke-width="0.5" stroke="black" fill="magenta"/>
  <circle cx="589.748" cy="590.273" r="5.05167" stroke-width="0.5" stroke="black" fill="magenta"/>
   </g>
   <g id="cell12">
  <circle cx="506.664" cy="586.058" r="8.41271" stroke-width="0.5" stroke="black" fill="magenta"/>
  <circle cx="506.664" cy="586.058" r="5.05167" stroke-width="0.5" stroke="black" fill="magenta"/>
   </g>
   <g id="cell13">
  <circle cx="386.191" cy="568.221" r="8.41271" stroke-width="0.5" stroke="black" fill="magenta"/>
  <circle cx="386.191" cy="568.221" r="5.05167" stroke-width="0.5" stroke="black" fill="magenta"/>
   </g>
   <g id="cell14">
  <circle cx="528.544" cy="399.218" r="8.41271" stroke-width="0.5" stroke="black" fill="magenta"/>
  <circle cx="528.544" cy="399.218" r="5.05167" stroke-width="0.5" stroke="black" fill="magenta"/>
   </g>
   <g id="cell15">
  <circle cx="379.652" cy="475.099" r="8.41271" stroke-width="0.5" stroke="black" fill="magenta"/>
  <circle cx="379.652" cy="475.099" r="5.05167" stroke-width="0.5" stroke="black" fill="magenta"/>
   </g>
   <g id="cell16">
  <circle cx="428.96" cy="413.217" r="8.41271" stroke-width="0.5" stroke="black" fill="magenta"/>
  <circle cx="428.96" cy="413.217" r="5.05167" stroke-width="0.5" stroke="black" fill="magenta"/>
   </g>
   <g id="cell17">
  <circle cx="571.664" cy="489.842" r="8.41271" stroke-width="0.5" stroke="black" fill="magenta"/>
  <circle cx="571.664" cy="489.842" r="5.05167" stroke-width="0.5" stroke="black" fill="magenta"/>
   </g>
   <g id="cell18">
  <circle cx="517.38" cy="388.899" r="8.41271" stroke-width="0.5" stroke="black" fill="magenta"/>
  <circle cx="517.38" cy="388.899" r="5.05167" stroke-width="0.5" stroke="black" fill="magenta"/>
   </g>
   <g id="cell19">
  <circle cx="451.911" cy="537.415" r="8.41271" stroke-width="0.5" stroke="black" fill="magenta"/>
  <circle cx="451.911" cy="537.415" r="5.05167" stroke-width="0.5" stroke="black" fill="magenta"/>
   </g>
   <g id="cell20">
  <circle cx="530.971" cy="414.251" r="8.41271" stroke-width="0.5" stroke="black" fill="magenta"/>
  <circle cx="530.971" cy="414.251" r="5.05167" stroke-width="0.5" stroke="black" fill="magenta"/>
   </g>
   <g id="cell21">
  <circle cx="464.368" cy="634.574" r="8.41271" stroke-width="0.5" stroke="black" fill="magenta"/>
  <circle cx="464.368" cy="634.574" r="5.05167" stroke-width="0.5" stroke="black" fill="magenta"/>
   </g>
   <g id="cell22">
  <circle cx="557.2" cy="494.31" r="8.41271" stroke-width="0.5" stroke="black" fill="magenta"/>
  <circle cx="557.2" cy="494.31" r="5.05167" stroke-width="0.5" stroke="black" fill="magenta"/>
   </g>
   <g id="cell23">
  <circle cx="537.277" cy="480.578" r="8.41271" stroke-width="0.5" stroke="black" fill="magenta"/>
  <circle cx="537.277" cy="480.578" r="5.05167" stroke-width="0.5" stroke="black" fill="magenta"/>
   </g>
   <g id="cell24">
  <circle cx="559.288" cy="379.788" r="8.41271" stroke-width="0.5" stroke="black" fill="magenta"/>
  <circle cx="559.288" cy="379.788" r="5.05167" stroke-width="0.5" stroke="black" fill="magenta"/>
   </g>
   <g id="cell25">
  <circle cx="640.943" cy="550.03" r="8.41271" stroke-width="0.5" stroke="black" fill="green"/>
  <circle cx="640.943" cy="550.03" r="5.05167" stroke-width="0.5" stroke="black" fill="green"/>
   </g>
   <g id="cell26">
  <circle cx="551.164" cy="401.264" r="8.41271" stroke-width="0.5" stroke="black" fill="green"/>
  <circle cx="551.164" cy="401.264" r="5.05167" stroke-width="0.5" stroke="black" fill="green"/>
   </g>
   <g id="cell27">
  <circle cx="461.773" cy="390.313" r="7.0545" stroke-width="0.5" stroke="black" fill="green"/>
  <circle cx="461.773" cy="390.313" r="4.27772" stroke-width="0.5" stroke="black" fill="green"/>
   </g>
   <g id="cell28">
  <circle cx="437.818" cy="530.937" r="8.41271" stroke-width="0.5" stroke="black" fill="green"/>
  <circle cx="437.818" cy="530.937" r="5.05167" stroke-width="0.5" stroke="black" fill="green"/>
   </g>
   <g id="cell29">
  <circle cx="449.679" cy="520.364" r="8.41271" stroke-width="0.5" stroke="black" fill="green"/>
  <circle cx="449.679" cy="520.364" r="5.05167" stroke-width="0.5" stroke="black" fill="green"/>
   </g>
   <g id="cell30">
  <circle cx="481.58" cy="540.282" r="8.41271" stroke-width="0.5" stroke="black" fill="green"/>
  <circle cx="481.58" cy="540.282" r="5.05167" stroke-width="0.5" stroke="black" fill="green"/>
   </g>
   <g id="cell31">
  <circle cx="412.757" cy="541.193" r="8.41271" stroke-width="0.5" stroke="black" fill="green"/>
  <circle cx="412.757" cy="541.193" r="5.05167" stroke-width="0.5" stroke="black" fill="green"/>
   </g>
   <g id="cell32">
  <circle cx="425.371" cy="474.829" r="8.41271" stroke-width="0.5" stroke="black" fill="green"/>
  <circle cx="425.371" cy="474.829" r="5.05167" stroke-width="0.5" stroke="black" fill="green"/>
   </g>
   <g id="cell33">
  <circle cx="493.791" cy="424.854" r="8.41271" stroke-width="0.5" stroke="black" fill="green"/>
  <circle cx="493.791" cy="424.854" r="5.05167" stroke-width="0.5" stroke="black" fill="green"/>
   </g>
   <g id="cell34">
  <circle cx="397.088" cy="450.831" r="8.41271" stroke-width="0.5" stroke="black" fill="green"/>
  <circle cx="397.088" cy="450.831" r="5.05167" stroke-width="0.5" stroke="black" fill="green"/>
   </g>
   <g id="cell35">
  <circle cx="548.376" cy="544.704" r="8.41271" stroke-width="0.5" stroke="black" fill="green"/>
  <circle cx="548.376" cy="544.704" r="5.05167" stroke-width="0.5" stroke="black" fill="green"/>
   </g>
   <g id="cell36">
  <circle cx="391.484" cy="582.902" r="8.41271" stroke-width="0.5" stroke="black" fill="green"/>
  <circle cx="391.484" cy="582.902" r="5.05167" stroke-width="0.5" stroke="black" fill="green"/>
   </g>
   <g id="cell37">
  <circle cx="638.46" cy="457.908" r="6.89675" stroke-width="0.5" stroke="black" fill="green"/>
  <circle cx="638.46" cy="457.908" r="4.17024" stroke-width="0.5" stroke="black" fill="green"/>
   </g>
   <g id="cell38">
  <circle cx="532.87" cy="598.792" r="6.73287" stroke-width="0.5" stroke="black" fill="green"/>
  <circle cx="532.87" cy="598.792" r="4.05039" stroke-width="0.5" stroke="black" fill="green"/>
   </g>
   <g id="cell39">
  <circle cx="613.458" cy="490.595" r="8.41271" stroke-width="0.5" stroke="black" fill="green"/>
  <circle cx="613.458" cy="490.595" r="5.05167" stroke-width="0.5" stroke="black" fill="green"/>
   </g>
   <g id="cell40">
  <circle cx="485.348" cy="571.779" r="8.41271" stroke-width="0.5" stroke="black" fill="green"/>
  <circle cx="485.348" cy="571.779" r="5.05167" stroke-width="0.5" stroke="black" fill="green"/>
   </g>
   <g id="cell41">
  <circle cx="364.925" cy="480.251" r="8.41271" stroke-width="0.5" stroke="black" fill="green"/>
  <circle cx="364.925" cy="480.251" r="5.05167" stroke-width="0.5" stroke="black" fill="green"/>
   </g>
   <g id="cell42">
  <circle cx="438.842" cy="494.268" r="8.41271" stroke-width="0.5" stroke="black" fill="green"/>
  <circle cx="438.842" cy="494.268" r="5.05167" stroke-width="0.5" stroke="black" fill="green"/>
   </g>
   <g id="cell43">
  <circle cx="558.501" cy="445.706" r="8.41271" stroke-width="0.5" stroke="black" fill="green"/>
  <circle cx="558.501" cy="445.706" r="5.05167" stroke-width="0.5" stroke="black" fill="green"/>
   </g>
   <g id="cell44">
  <circle cx="475.857" cy="624.021" r="8.41271" stroke-width="0.5" stroke="black" fill="green"/>
  <circle cx="475.857" cy="624.021" r="5.05167" stroke-width="0.5" stroke="black" fill="green"/>
   </g>
   <g id="cell45">
  <circle cx="414.953" cy="557.066" r="8.41271" stroke-width="0.5" stroke="black" fill="green"/>
  <circle cx="414.953" cy="557.066" r="5.05167" stroke-width="0.5" stroke="black" fill="green"/>
   </g>
   <g id="cell46">
  <circle cx="522.908" cy="610.545" r="8.41271" stroke-width="0.5" stroke="black" fill="green"/>
  <circle cx="522.908" cy="610.545" r="5.05167" stroke-width="0.5" stroke="black" fill="green"/>
   </g>
   <g id="cell47">
  <circle cx="504.003" cy="507.633" r="8.41271" stroke-width="0.5" stroke="black" fill="green"/>
  <circle cx="504.003" cy="507.633" r="5.05167" stroke-width="0.5" stroke="black" fill="green"/>
   </g>
   <g id="cell48">
  <circle cx="564.508" cy="602.794" r="8.41271" stroke-width="0.5" stroke="black" fill="green"/>
  <circle cx="564.508" cy="602.794" r="5.05167" stroke-width="0.5" stroke="black" fill="green"/>
   </g>
   <g id="cell49">
  <circle cx="429.826" cy="397.641" r="8.41271" stroke-width="0.5" stroke="black" fill="green"/>
  <circle cx="429.826" cy="397.641" r="5.05167" stroke-width="0.5" stroke="black" fill="green"/>
   </g>
   <g id="cell50">
  <circle cx="518.404" cy="514.769" r="8.41271" stroke-width="0.5" stroke="black" fill="cyan"/>
  <circle cx="518.404" cy="514.769" r="5.05167" stroke-width="0.5" stroke="black" fill="cyan"/>
   </g>
   <g id="cell51">
  <circle cx="398.725" cy="597.209" r="8.41271" stroke-width="0.5" stroke="black" fill="cyan"/>
  <circle cx="398.725" cy="597.209" r="5.05167" stroke-width="0.5" stroke="black" fill="cyan"/>
   </g>
   <g id="cell52">
  <circle cx="521.501" cy="426.759" r="8.41271" stroke-width="0.5" stroke="black" fill="cyan"/>
  <circle cx="521.501" cy="426.759" r="5.05167" stroke-width="0.5" stroke="black" fill="cyan"/>
   </g>
   <g id="cell53">
  <circle cx="571.254" cy="436.029" r="8.41271" stroke-width="0.5" stroke="black" fill="cyan"/>
  <circle cx="571.254" cy="436.029" r="5.05167" stroke-width="0.5" stroke="black" fill="cyan"/>
   </g>
   <g id="cell54">
  <circle cx="477.814" cy="425.532" r="8.41271" stroke-width="0.5" stroke="black" fill="cyan"/>
  <circle cx="477.814" cy="425.532" r="5.05167" stroke-width="0.5" stroke="black" fill="cyan"/>
   </g>
   <g id="cell55">
  <circle cx="530.471" cy="468.349" r="6.78181" stroke-width="0.5" stroke="black" fill="cyan"/>
  <circle cx="530.471" cy="468.349" r="4.08714" stroke-width="0.5" stroke="black" fill="cyan"/>
   </g>
   <g id="cell56">
  <circle cx="617.774" cy="522.285" r="8.41271" stroke-width="0.5" stroke="black" fill="cyan"/>
  <circle cx="617.774" cy="522.285" r="5.05167" stroke-width="0.5" stroke="black" fill="cyan"/>
   </g>
   <g id="cell57">
  <circle cx="416.924" cy="617.466" r="3.04602" stroke-width="0.5" stroke="black" fill="cyan"/>
  <circle cx="416.924" cy="617.466" r="2.48703" stroke-width="0.5" stroke="black" fill="black"/>
   </g>
   <g id="cell58">
  <circle cx="552.801" cy="479.509" r="8.41271" stroke-width="0.5" stroke="black" fill="cyan"/>
  <circle cx="552.801" cy="479.509" r="5.05167" stroke-width="0.5" stroke="black" fill="cyan"/>
   </g>
   <g id="cell59">
  <circle cx="385.463" cy="439.803" r="8.41271" stroke-width="0.5" stroke="black" fill="cyan"/>
  <circle cx="385.463" cy="439.803" r="5.05167" stroke-width="0.5" stroke="black" fill="cyan"/>
   </g>
   <g id="cell60">
  <circle cx="593.092" cy="473.648" r="8.41271" stroke-width="0.5" stroke="black" fill="cyan"/>
  <circle cx="593.092" cy="473.648" r="5.05167" stroke-width="0.5" stroke="black" fill="cyan"/>
   </g>
   <g id="cell61">
  <circle cx="552.89" cy="613.91" r="8.41271" stroke-width="0.5" stroke="black" fill="cyan"/>
  <circle cx="552.89" cy="613.91" r="5.05167" stroke-width="0.5" stroke="black" fill="cyan"/>
   </g>
   <g id="cell62">
  <circle cx="522.332" cy="449.624" r="7.08639" stroke-width="0.5" stroke="black" fill="cyan"/>
  <circle cx="522.332" cy="449.624" r="4.29876" stroke-width="0.5" stroke="black" fill="cyan"/>
   </g>
   <g id="cell63">
  <circle cx="577.875" cy="546.417" r="8.41271" stroke-width="0.5" stroke="black" fill="cyan"/>
  <circle cx="577.875" cy="546.417" r="5.05167" stroke-width="0.5" stroke="black" fill="cyan"/>
   </g>
   <g id="cell64">
  <circle cx="509.962" cy="636.825" r="8.41271" stroke-width="0.5" stroke="black" fill="cyan"/>
  <circle cx="509.962" cy="636.825" r="5.05167" stroke-width="0.5" stroke="black" fill="cyan"/>
   </g>
   <g id="cell65">
  <circle cx="544.404" cy="466.243" r="8.41271" stroke-width="0.5" stroke="black" fill="cyan"/>
  <circle cx="544.404" cy="466.243" r="5.05167" stroke-width="0.5" stroke="black" fill="cyan"/>
   </g>
   <g id="cell66">
  <circle cx="535.242" cy="530.09" r="8.41271" stroke-width="0.5" stroke="black" fill="cyan"/>
  <circle cx="535.242" cy="530.09" r="5.05167" stroke-width="0.5" stroke="black" fill="cyan"/>
   </g>
   <g id="cell67">
  <circle cx="354.71" cy="492.601" r="8.41271" stroke-width="0.5" stroke="black" fill="cyan"/>
  <circle cx="354.71" cy="492.601" r="5.05167" stroke-width="0.5" stroke="black" fill="cyan"/>
   </g>
   <g id="cell68">
  <circle cx="562.771" cy="551.79" r="8.41271" stroke-width="0.5" stroke="black" fill="cyan"/>
  <circle cx="562.771" cy="551.79" r="5.05167" stroke-width="0.5" stroke="black" fill="cyan"/>
   </g>
   <g id="cell69">
  <circle cx="437.64" cy="464.521" r="8.41271" stroke-width="0.5" stroke="black" fill="cyan"/>
  <circle cx="437.64" cy="464.521" r="5.05167" stroke-width="0.5" stroke="black" fill="cyan"/>
   </g>
   <g id="cell70">
  <circle cx="577.148" cy="475.241" r="8.41271" stroke-width="0.5" stroke="black" fill="cyan"/>
  <circle cx="577.148" cy="475.241" r="5.05167" stroke-width="0.5" stroke="black" fill="cyan"/>
   </g>
   <g id="cell71">
  <circle cx="377.712" cy="520.989" r="8.41271" stroke-width="0.5" stroke="black" fill="cyan"/>
  <circle cx="377.712" cy="520.989" r="5.05167" stroke-width="0.5" stroke="black" fill="cyan"/>
   </g>
   <g id="cell72">
  <circle cx="534.46" cy="514.082" r="8.41271" stroke-width="0.5" stroke="black" fill="cyan"/>
  <circle cx="534.46" cy="514.082" r="5.05167" stroke-width="0.5" stroke="black" fill="cyan"/>
   </g>
   <g id="cell73">
  <circle cx="360.355" cy="545.935" r="8.41271" stroke-width="0.5" stroke="black" fill="cyan"/>
  <circle cx="360.355" cy="545.935" r="5.05167" stroke-width="0.5" stroke="black" fill="cyan"/>
   </g>
   <g id="cell74">
  <circle cx="542.543" cy="446.663" r="8.41271" stroke-width="0.5" stroke="black" fill="cyan"/>
  <circle cx="542.543" cy="446.663" r="5.05167" stroke-width="0.5" stroke="black" fill="cyan"/>
   </g>
   <g id="cell75">
  <circle cx="530.241" cy="438.609" r="7.08639" stroke-width="0.5" stroke="black" fill="cyan"/>
  <circle cx="530.241" cy="438.609" r="4.29876" stroke-width="0.5" stroke="black" fill="cyan"/>
   </g>
   <g id="cell76">
  <circle cx="449.256" cy="385.583" r="7.0545" stroke-width="0.5" stroke="black" fill="green"/>
  <circle cx="449.256" cy="385.583" r="4.27772" stroke-width="0.5" stroke="black" fill="green"/>
   </g>
   <g id="cell77">
  <circle cx="473.94" cy="439.285" r="6.99069" stroke-width="0.5" stroke="black" fill="magenta"/>
  <circle cx="473.94" cy="439.285" r="4.23498" stroke-width="0.5" stroke="black" fill="magenta"/>
   </g>
   <g id="cell78">
  <circle cx="628.016" cy="465.794" r="6.89675" stroke-width="0.5" stroke="black" fill="green"/>
  <circle cx="628.016" cy="465.794" r="4.17024" stroke-width="0.5" stroke="black" fill="green"/>
   </g>
   <g id="cell79">
  <circle cx="518.964" cy="473.585" r="6.78181" stroke-width="0.5" stroke="black" fill="cyan"/>
  <circle cx="518.964" cy="473.585" r="4.08714" stroke-width="0.5" stroke="black" fill="cyan"/>
   </g>
   <g id="cell80">
  <circle cx="539.723" cy="610.995" r="5.39735" stroke-width="0.5" stroke="black" fill="green"/>
  <circle cx="539.723" cy="610.995" r="3.25316" stroke-width="0.5" stroke="black" fill="green"/>
   </g>
   <g id="cell81">
  <circle cx="544.047" cy="601.796" r="5.39735" stroke-width="0.5" stroke="black" fill="green"/>
  <circle cx="544.047" cy="601.796" r="3.25316" stroke-width="0.5" stroke="black" fill="green"/>
   </g>
  </g>
 </g>
  <rect x="775" y="1035" width="200" height="10" stroke-width="2" stroke="rgb(255,255,255)" fill="rgb(0,0,0)"/>
  <text x="781.25" y="1028.75"
   font-family="Arial" font-size="25" fill="black" >
   200 &#956;m
  </text>
  <text x="25" y="1045"
   font-family="Arial" font-size="18.75" fill="black" >
   0 days, 0 hours, 0 minutes, and 3.0065 seconds
  </text>
  <rect x="0" y="70" width="1000" height="1000" stroke-width="2" stroke="rgb(0,0,0)" fill="none"/>
</svg>
