<?xml version="1.0" encoding="UTF-8" standalone="no"?>
<!-- Created with PhysiCell (http://PhysiCell.MathCancer.org/) -->
<svg 
 xmlns:dc="http://purl.org/dc/elements/1.1/" 
 xmlns:cc="http://creativecommons.org/ns#" 
 xmlns:rdf="http://www.w3.org/1999/02/22-rdf-syntax-ns#" 
 xmlns:svg="http://www.w3.org/2000/svg" 
 xmlns="http://www.w3.org/2000/svg" 
 version="1.1" 
 width="1000" 
 height="1070" 
 id="svg2">
  <rect x="0" y="0" width="1000" height="1070" stroke-width="2" stroke="white" fill="white"/>
  <text x="12.5" y="30"
   font-family="Arial" font-size="25" fill="black" >
   Current time: 0 days, 17 hours, and 12.00 minutes, z = 0.00 &#956;m
  </text>
  <text x="12.5" y="57.5"
   font-family="Arial" font-size="23.75" fill="black" >
   127 agents
  </text>
 <g id="tissue" 
    transform="translate(0,1070) scale(1,-1)">
  <g id="ECM">
  </g>
  <g id="cells">
   <g id="cell0">
  <circle cx="514.847" cy="535.622" r="8.35404" stroke-width="0.5" stroke="black" fill="magenta"/>
  <circle cx="514.847" cy="535.622" r="5.02894" stroke-width="0.5" stroke="black" fill="magenta"/>
   </g>
   <g id="cell1">
  <circle cx="602.492" cy="526.171" r="8.41271" stroke-width="0.5" stroke="black" fill="magenta"/>
  <circle cx="602.492" cy="526.171" r="5.05167" stroke-width="0.5" stroke="black" fill="magenta"/>
   </g>
   <g id="cell2">
  <circle cx="514.921" cy="598.129" r="8.41271" stroke-width="0.5" stroke="black" fill="magenta"/>
  <circle cx="514.921" cy="598.129" r="5.05167" stroke-width="0.5" stroke="black" fill="magenta"/>
   </g>
   <g id="cell3">
  <circle cx="524.082" cy="547.522" r="8.31636" stroke-width="0.5" stroke="black" fill="magenta"/>
  <circle cx="524.082" cy="547.522" r="5.01366" stroke-width="0.5" stroke="black" fill="magenta"/>
   </g>
   <g id="cell4">
  <circle cx="489.407" cy="445.178" r="7.03758" stroke-width="0.5" stroke="black" fill="magenta"/>
  <circle cx="489.407" cy="445.178" r="4.27154" stroke-width="0.5" stroke="black" fill="magenta"/>
   </g>
   <g id="cell5">
  <circle cx="465.032" cy="493.3" r="8.41271" stroke-width="0.5" stroke="black" fill="magenta"/>
  <circle cx="465.032" cy="493.3" r="5.05167" stroke-width="0.5" stroke="black" fill="magenta"/>
   </g>
   <g id="cell6">
  <circle cx="595.637" cy="512.669" r="8.41271" stroke-width="0.5" stroke="black" fill="magenta"/>
  <circle cx="595.637" cy="512.669" r="5.05167" stroke-width="0.5" stroke="black" fill="magenta"/>
   </g>
   <g id="cell7">
  <circle cx="497.799" cy="456.116" r="7.93688" stroke-width="0.5" stroke="black" fill="magenta"/>
  <circle cx="497.799" cy="456.116" r="4.81381" stroke-width="0.5" stroke="black" fill="magenta"/>
   </g>
   <g id="cell8">
  <circle cx="376.336" cy="542.499" r="8.41271" stroke-width="0.5" stroke="black" fill="magenta"/>
  <circle cx="376.336" cy="542.499" r="5.05167" stroke-width="0.5" stroke="black" fill="magenta"/>
   </g>
   <g id="cell9">
  <circle cx="460.472" cy="599.786" r="8.41271" stroke-width="0.5" stroke="black" fill="magenta"/>
  <circle cx="460.472" cy="599.786" r="5.05167" stroke-width="0.5" stroke="black" fill="magenta"/>
   </g>
   <g id="cell10">
  <circle cx="583.447" cy="392.105" r="8.41271" stroke-width="0.5" stroke="black" fill="magenta"/>
  <circle cx="583.447" cy="392.105" r="5.05167" stroke-width="0.5" stroke="black" fill="magenta"/>
   </g>
   <g id="cell11">
  <circle cx="591.731" cy="590.054" r="8.41271" stroke-width="0.5" stroke="black" fill="magenta"/>
  <circle cx="591.731" cy="590.054" r="5.05167" stroke-width="0.5" stroke="black" fill="magenta"/>
   </g>
   <g id="cell12">
  <circle cx="506.462" cy="585.569" r="8.41271" stroke-width="0.5" stroke="black" fill="magenta"/>
  <circle cx="506.462" cy="585.569" r="5.05167" stroke-width="0.5" stroke="black" fill="magenta"/>
   </g>
   <g id="cell13">
  <circle cx="386.194" cy="568.228" r="8.41271" stroke-width="0.5" stroke="black" fill="magenta"/>
  <circle cx="386.194" cy="568.228" r="5.05167" stroke-width="0.5" stroke="black" fill="magenta"/>
   </g>
   <g id="cell14">
  <circle cx="529.307" cy="399.567" r="8.41271" stroke-width="0.5" stroke="black" fill="magenta"/>
  <circle cx="529.307" cy="399.567" r="5.05167" stroke-width="0.5" stroke="black" fill="magenta"/>
   </g>
   <g id="cell15">
  <circle cx="379.65" cy="475.1" r="8.41271" stroke-width="0.5" stroke="black" fill="magenta"/>
  <circle cx="379.65" cy="475.1" r="5.05167" stroke-width="0.5" stroke="black" fill="magenta"/>
   </g>
   <g id="cell16">
  <circle cx="428.988" cy="412.896" r="8.41271" stroke-width="0.5" stroke="black" fill="magenta"/>
  <circle cx="428.988" cy="412.896" r="5.05167" stroke-width="0.5" stroke="black" fill="magenta"/>
   </g>
   <g id="cell17">
  <circle cx="571.171" cy="491.409" r="8.41271" stroke-width="0.5" stroke="black" fill="magenta"/>
  <circle cx="571.171" cy="491.409" r="5.05167" stroke-width="0.5" stroke="black" fill="magenta"/>
   </g>
   <g id="cell18">
  <circle cx="518.029" cy="389.461" r="8.41271" stroke-width="0.5" stroke="black" fill="magenta"/>
  <circle cx="518.029" cy="389.461" r="5.05167" stroke-width="0.5" stroke="black" fill="magenta"/>
   </g>
   <g id="cell19">
  <circle cx="460.493" cy="539.816" r="7.92497" stroke-width="0.5" stroke="black" fill="magenta"/>
  <circle cx="460.493" cy="539.816" r="4.81319" stroke-width="0.5" stroke="black" fill="magenta"/>
   </g>
   <g id="cell20">
  <circle cx="530.831" cy="414.687" r="8.41271" stroke-width="0.5" stroke="black" fill="magenta"/>
  <circle cx="530.831" cy="414.687" r="5.05167" stroke-width="0.5" stroke="black" fill="magenta"/>
   </g>
   <g id="cell21">
  <circle cx="464.368" cy="634.574" r="8.41271" stroke-width="0.5" stroke="black" fill="magenta"/>
  <circle cx="464.368" cy="634.574" r="5.05167" stroke-width="0.5" stroke="black" fill="magenta"/>
   </g>
   <g id="cell22">
  <circle cx="556.569" cy="495.319" r="8.41271" stroke-width="0.5" stroke="black" fill="magenta"/>
  <circle cx="556.569" cy="495.319" r="5.05167" stroke-width="0.5" stroke="black" fill="magenta"/>
   </g>
   <g id="cell23">
  <circle cx="545.76" cy="484.806" r="8.41271" stroke-width="0.5" stroke="black" fill="magenta"/>
  <circle cx="545.76" cy="484.806" r="5.05167" stroke-width="0.5" stroke="black" fill="magenta"/>
   </g>
   <g id="cell24">
  <circle cx="558.729" cy="381.872" r="8.41271" stroke-width="0.5" stroke="black" fill="magenta"/>
  <circle cx="558.729" cy="381.872" r="5.05167" stroke-width="0.5" stroke="black" fill="magenta"/>
   </g>
   <g id="cell25">
  <circle cx="646.978" cy="544.154" r="8.37641" stroke-width="0.5" stroke="black" fill="green"/>
  <circle cx="646.978" cy="544.154" r="5.0384" stroke-width="0.5" stroke="black" fill="green"/>
   </g>
   <g id="cell26">
  <circle cx="554.984" cy="396.512" r="7.9229" stroke-width="0.5" stroke="black" fill="green"/>
  <circle cx="554.984" cy="396.512" r="4.80599" stroke-width="0.5" stroke="black" fill="green"/>
   </g>
   <g id="cell27">
  <circle cx="465.696" cy="392.861" r="8.39021" stroke-width="0.5" stroke="black" fill="green"/>
  <circle cx="465.696" cy="392.861" r="5.0439" stroke-width="0.5" stroke="black" fill="green"/>
   </g>
   <g id="cell28">
  <circle cx="432.867" cy="530.694" r="8.41271" stroke-width="0.5" stroke="black" fill="green"/>
  <circle cx="432.867" cy="530.694" r="5.05167" stroke-width="0.5" stroke="black" fill="green"/>
   </g>
   <g id="cell29">
  <circle cx="450.427" cy="516.225" r="8.41271" stroke-width="0.5" stroke="black" fill="green"/>
  <circle cx="450.427" cy="516.225" r="5.05167" stroke-width="0.5" stroke="black" fill="green"/>
   </g>
   <g id="cell30">
  <circle cx="483.1" cy="533.827" r="8.32291" stroke-width="0.5" stroke="black" fill="green"/>
  <circle cx="483.1" cy="533.827" r="5.01502" stroke-width="0.5" stroke="black" fill="green"/>
   </g>
   <g id="cell31">
  <circle cx="412.807" cy="541.561" r="8.41271" stroke-width="0.5" stroke="black" fill="green"/>
  <circle cx="412.807" cy="541.561" r="5.05167" stroke-width="0.5" stroke="black" fill="green"/>
   </g>
   <g id="cell32">
  <circle cx="421.115" cy="481.874" r="8.28985" stroke-width="0.5" stroke="black" fill="green"/>
  <circle cx="421.115" cy="481.874" r="4.99956" stroke-width="0.5" stroke="black" fill="green"/>
   </g>
   <g id="cell33">
  <circle cx="501.123" cy="422.203" r="8.41271" stroke-width="0.5" stroke="black" fill="green"/>
  <circle cx="501.123" cy="422.203" r="5.05167" stroke-width="0.5" stroke="black" fill="green"/>
   </g>
   <g id="cell34">
  <circle cx="397.088" cy="450.831" r="8.41271" stroke-width="0.5" stroke="black" fill="green"/>
  <circle cx="397.088" cy="450.831" r="5.05167" stroke-width="0.5" stroke="black" fill="green"/>
   </g>
   <g id="cell35">
  <circle cx="553.73" cy="542.3" r="8.41271" stroke-width="0.5" stroke="black" fill="green"/>
  <circle cx="553.73" cy="542.3" r="5.05167" stroke-width="0.5" stroke="black" fill="green"/>
   </g>
   <g id="cell36">
  <circle cx="391.486" cy="582.903" r="8.41271" stroke-width="0.5" stroke="black" fill="green"/>
  <circle cx="391.486" cy="582.903" r="5.05167" stroke-width="0.5" stroke="black" fill="green"/>
   </g>
   <g id="cell37">
  <circle cx="639.847" cy="457.575" r="8.38682" stroke-width="0.5" stroke="black" fill="green"/>
  <circle cx="639.847" cy="457.575" r="5.04258" stroke-width="0.5" stroke="black" fill="green"/>
   </g>
   <g id="cell38">
  <circle cx="529.048" cy="591.481" r="8.38206" stroke-width="0.5" stroke="black" fill="green"/>
  <circle cx="529.048" cy="591.481" r="5.04069" stroke-width="0.5" stroke="black" fill="green"/>
   </g>
   <g id="cell39">
  <circle cx="613.655" cy="490.33" r="8.41271" stroke-width="0.5" stroke="black" fill="green"/>
  <circle cx="613.655" cy="490.33" r="5.05167" stroke-width="0.5" stroke="black" fill="green"/>
   </g>
   <g id="cell40">
  <circle cx="485.348" cy="571.779" r="8.41271" stroke-width="0.5" stroke="black" fill="green"/>
  <circle cx="485.348" cy="571.779" r="5.05167" stroke-width="0.5" stroke="black" fill="green"/>
   </g>
   <g id="cell41">
  <circle cx="364.925" cy="480.252" r="8.41271" stroke-width="0.5" stroke="black" fill="green"/>
  <circle cx="364.925" cy="480.252" r="5.05167" stroke-width="0.5" stroke="black" fill="green"/>
   </g>
   <g id="cell42">
  <circle cx="438.839" cy="494.25" r="8.41271" stroke-width="0.5" stroke="black" fill="green"/>
  <circle cx="438.839" cy="494.25" r="5.05167" stroke-width="0.5" stroke="black" fill="green"/>
   </g>
   <g id="cell43">
  <circle cx="562.347" cy="441.601" r="8.41271" stroke-width="0.5" stroke="black" fill="green"/>
  <circle cx="562.347" cy="441.601" r="5.05167" stroke-width="0.5" stroke="black" fill="green"/>
   </g>
   <g id="cell44">
  <circle cx="475.857" cy="624.021" r="8.41271" stroke-width="0.5" stroke="black" fill="green"/>
  <circle cx="475.857" cy="624.021" r="5.05167" stroke-width="0.5" stroke="black" fill="green"/>
   </g>
   <g id="cell45">
  <circle cx="414.902" cy="556.698" r="2.11603" stroke-width="0.5" stroke="black" fill="green"/>
  <circle cx="414.902" cy="556.698" r="1.97902" stroke-width="0.5" stroke="black" fill="black"/>
   </g>
   <g id="cell46">
  <circle cx="520.89" cy="612.29" r="8.20088" stroke-width="0.5" stroke="black" fill="green"/>
  <circle cx="520.89" cy="612.29" r="4.95562" stroke-width="0.5" stroke="black" fill="green"/>
   </g>
   <g id="cell47">
  <circle cx="504.838" cy="497.406" r="8.28262" stroke-width="0.5" stroke="black" fill="green"/>
  <circle cx="504.838" cy="497.406" r="4.9961" stroke-width="0.5" stroke="black" fill="green"/>
   </g>
   <g id="cell48">
  <circle cx="570.776" cy="604.268" r="7.91205" stroke-width="0.5" stroke="black" fill="green"/>
  <circle cx="570.776" cy="604.268" r="4.81231" stroke-width="0.5" stroke="black" fill="green"/>
   </g>
   <g id="cell49">
  <circle cx="430.743" cy="397.37" r="8.41271" stroke-width="0.5" stroke="black" fill="green"/>
  <circle cx="430.743" cy="397.37" r="5.05167" stroke-width="0.5" stroke="black" fill="green"/>
   </g>
   <g id="cell50">
  <circle cx="511.104" cy="511.097" r="7.70834" stroke-width="0.5" stroke="black" fill="cyan"/>
  <circle cx="511.104" cy="511.097" r="4.68889" stroke-width="0.5" stroke="black" fill="cyan"/>
   </g>
   <g id="cell51">
  <circle cx="398.721" cy="597.201" r="8.41271" stroke-width="0.5" stroke="black" fill="cyan"/>
  <circle cx="398.721" cy="597.201" r="5.05167" stroke-width="0.5" stroke="black" fill="cyan"/>
   </g>
   <g id="cell52">
  <circle cx="518.096" cy="423.965" r="8.41271" stroke-width="0.5" stroke="black" fill="cyan"/>
  <circle cx="518.096" cy="423.965" r="5.05167" stroke-width="0.5" stroke="black" fill="cyan"/>
   </g>
   <g id="cell53">
  <circle cx="573.029" cy="429.782" r="8.23444" stroke-width="0.5" stroke="black" fill="cyan"/>
  <circle cx="573.029" cy="429.782" r="4.97252" stroke-width="0.5" stroke="black" fill="cyan"/>
   </g>
   <g id="cell54">
  <circle cx="481.876" cy="421.958" r="8.30618" stroke-width="0.5" stroke="black" fill="cyan"/>
  <circle cx="481.876" cy="421.958" r="5.00727" stroke-width="0.5" stroke="black" fill="cyan"/>
   </g>
   <g id="cell55">
  <circle cx="522.72" cy="464.185" r="8.24324" stroke-width="0.5" stroke="black" fill="cyan"/>
  <circle cx="522.72" cy="464.185" r="4.97891" stroke-width="0.5" stroke="black" fill="cyan"/>
   </g>
   <g id="cell56">
  <circle cx="617.613" cy="522.333" r="8.41271" stroke-width="0.5" stroke="black" fill="cyan"/>
  <circle cx="617.613" cy="522.333" r="5.05167" stroke-width="0.5" stroke="black" fill="cyan"/>
   </g>
   <g id="cell105">
  <circle cx="506.236" cy="610.001" r="7.46284" stroke-width="0.5" stroke="black" fill="green"/>
  <circle cx="506.236" cy="610.001" r="4.55464" stroke-width="0.5" stroke="black" fill="green"/>
   </g>
   <g id="cell58">
  <circle cx="560.424" cy="480.066" r="8.41271" stroke-width="0.5" stroke="black" fill="cyan"/>
  <circle cx="560.424" cy="480.066" r="5.05167" stroke-width="0.5" stroke="black" fill="cyan"/>
   </g>
   <g id="cell59">
  <circle cx="385.463" cy="439.803" r="8.41271" stroke-width="0.5" stroke="black" fill="cyan"/>
  <circle cx="385.463" cy="439.803" r="5.05167" stroke-width="0.5" stroke="black" fill="cyan"/>
   </g>
   <g id="cell60">
  <circle cx="591.775" cy="473.872" r="8.41271" stroke-width="0.5" stroke="black" fill="cyan"/>
  <circle cx="591.775" cy="473.872" r="5.05167" stroke-width="0.5" stroke="black" fill="cyan"/>
   </g>
   <g id="cell61">
  <circle cx="556.155" cy="622.702" r="8.41271" stroke-width="0.5" stroke="black" fill="cyan"/>
  <circle cx="556.155" cy="622.702" r="5.05167" stroke-width="0.5" stroke="black" fill="cyan"/>
   </g>
   <g id="cell62">
  <circle cx="514.93" cy="439.534" r="7.34562" stroke-width="0.5" stroke="black" fill="cyan"/>
  <circle cx="514.93" cy="439.534" r="4.46774" stroke-width="0.5" stroke="black" fill="cyan"/>
   </g>
   <g id="cell63">
  <circle cx="573.079" cy="542.169" r="8.34884" stroke-width="0.5" stroke="black" fill="cyan"/>
  <circle cx="573.079" cy="542.169" r="5.02667" stroke-width="0.5" stroke="black" fill="cyan"/>
   </g>
   <g id="cell64">
  <circle cx="509.791" cy="638.138" r="8.41271" stroke-width="0.5" stroke="black" fill="cyan"/>
  <circle cx="509.791" cy="638.138" r="5.05167" stroke-width="0.5" stroke="black" fill="cyan"/>
   </g>
   <g id="cell65">
  <circle cx="547.939" cy="469.592" r="8.34117" stroke-width="0.5" stroke="black" fill="cyan"/>
  <circle cx="547.939" cy="469.592" r="5.02327" stroke-width="0.5" stroke="black" fill="cyan"/>
   </g>
   <g id="cell66">
  <circle cx="530.241" cy="533.314" r="8.29993" stroke-width="0.5" stroke="black" fill="cyan"/>
  <circle cx="530.241" cy="533.314" r="5.00433" stroke-width="0.5" stroke="black" fill="cyan"/>
   </g>
   <g id="cell67">
  <circle cx="354.711" cy="492.599" r="8.41271" stroke-width="0.5" stroke="black" fill="cyan"/>
  <circle cx="354.711" cy="492.599" r="5.05167" stroke-width="0.5" stroke="black" fill="cyan"/>
   </g>
   <g id="cell68">
  <circle cx="563.367" cy="554.838" r="8.41271" stroke-width="0.5" stroke="black" fill="cyan"/>
  <circle cx="563.367" cy="554.838" r="5.05167" stroke-width="0.5" stroke="black" fill="cyan"/>
   </g>
   <g id="cell69">
  <circle cx="442.19" cy="460.398" r="8.41271" stroke-width="0.5" stroke="black" fill="cyan"/>
  <circle cx="442.19" cy="460.398" r="5.05167" stroke-width="0.5" stroke="black" fill="cyan"/>
   </g>
   <g id="cell70">
  <circle cx="576.013" cy="476.592" r="8.41271" stroke-width="0.5" stroke="black" fill="cyan"/>
  <circle cx="576.013" cy="476.592" r="5.05167" stroke-width="0.5" stroke="black" fill="cyan"/>
   </g>
   <g id="cell71">
  <circle cx="379.904" cy="527.757" r="7.98892" stroke-width="0.5" stroke="black" fill="cyan"/>
  <circle cx="379.904" cy="527.757" r="4.84272" stroke-width="0.5" stroke="black" fill="cyan"/>
   </g>
   <g id="cell72">
  <circle cx="531.713" cy="511.355" r="8.30918" stroke-width="0.5" stroke="black" fill="cyan"/>
  <circle cx="531.713" cy="511.355" r="5.00867" stroke-width="0.5" stroke="black" fill="cyan"/>
   </g>
   <g id="cell73">
  <circle cx="364.644" cy="552.718" r="8.35568" stroke-width="0.5" stroke="black" fill="cyan"/>
  <circle cx="364.644" cy="552.718" r="5.02965" stroke-width="0.5" stroke="black" fill="cyan"/>
   </g>
   <g id="cell74">
  <circle cx="547.646" cy="437.33" r="7.9229" stroke-width="0.5" stroke="black" fill="cyan"/>
  <circle cx="547.646" cy="437.33" r="4.80599" stroke-width="0.5" stroke="black" fill="cyan"/>
   </g>
   <g id="cell75">
  <circle cx="529.454" cy="435.347" r="8.39083" stroke-width="0.5" stroke="black" fill="cyan"/>
  <circle cx="529.454" cy="435.347" r="5.04414" stroke-width="0.5" stroke="black" fill="cyan"/>
   </g>
   <g id="cell76">
  <circle cx="441.564" cy="382.057" r="8.06591" stroke-width="0.5" stroke="black" fill="green"/>
  <circle cx="441.564" cy="382.057" r="4.89339" stroke-width="0.5" stroke="black" fill="green"/>
   </g>
   <g id="cell77">
  <circle cx="478.158" cy="436.888" r="8.14827" stroke-width="0.5" stroke="black" fill="magenta"/>
  <circle cx="478.158" cy="436.888" r="4.93061" stroke-width="0.5" stroke="black" fill="magenta"/>
   </g>
   <g id="cell78">
  <circle cx="624.428" cy="461.415" r="8.32802" stroke-width="0.5" stroke="black" fill="green"/>
  <circle cx="624.428" cy="461.415" r="5.01864" stroke-width="0.5" stroke="black" fill="green"/>
   </g>
   <g id="cell79">
  <circle cx="517.389" cy="478.845" r="8.38373" stroke-width="0.5" stroke="black" fill="cyan"/>
  <circle cx="517.389" cy="478.845" r="5.04136" stroke-width="0.5" stroke="black" fill="cyan"/>
   </g>
   <g id="cell80">
  <circle cx="543.636" cy="614.818" r="7.32928" stroke-width="0.5" stroke="black" fill="green"/>
  <circle cx="543.636" cy="614.818" r="4.46138" stroke-width="0.5" stroke="black" fill="green"/>
   </g>
   <g id="cell81">
  <circle cx="544.675" cy="595.698" r="8.36576" stroke-width="0.5" stroke="black" fill="green"/>
  <circle cx="544.675" cy="595.698" r="5.03481" stroke-width="0.5" stroke="black" fill="green"/>
   </g>
   <g id="cell82">
  <circle cx="533.302" cy="559.522" r="8.37641" stroke-width="0.5" stroke="black" fill="magenta"/>
  <circle cx="533.302" cy="559.522" r="5.0384" stroke-width="0.5" stroke="black" fill="magenta"/>
   </g>
   <g id="cell83">
  <circle cx="635.811" cy="553.118" r="6.78111" stroke-width="0.5" stroke="black" fill="green"/>
  <circle cx="635.811" cy="553.118" r="4.09681" stroke-width="0.5" stroke="black" fill="green"/>
   </g>
   <g id="cell84">
  <circle cx="520.597" cy="499.645" r="8.35882" stroke-width="0.5" stroke="black" fill="cyan"/>
  <circle cx="520.597" cy="499.645" r="5.031" stroke-width="0.5" stroke="black" fill="cyan"/>
   </g>
   <g id="cell85">
  <circle cx="352.63" cy="542.454" r="8.2495" stroke-width="0.5" stroke="black" fill="cyan"/>
  <circle cx="352.63" cy="542.454" r="4.98292" stroke-width="0.5" stroke="black" fill="cyan"/>
   </g>
   <g id="cell86">
  <circle cx="497.404" cy="532.126" r="7.20291" stroke-width="0.5" stroke="black" fill="magenta"/>
  <circle cx="497.404" cy="532.126" r="4.38342" stroke-width="0.5" stroke="black" fill="magenta"/>
   </g>
   <g id="cell87">
  <circle cx="578.788" cy="556.907" r="8.17933" stroke-width="0.5" stroke="black" fill="cyan"/>
  <circle cx="578.788" cy="556.907" r="4.94847" stroke-width="0.5" stroke="black" fill="cyan"/>
   </g>
   <g id="cell88">
  <circle cx="448.367" cy="531.695" r="8.34317" stroke-width="0.5" stroke="black" fill="magenta"/>
  <circle cx="448.367" cy="531.695" r="5.02416" stroke-width="0.5" stroke="black" fill="magenta"/>
   </g>
   <g id="cell89">
  <circle cx="552.787" cy="454.392" r="8.34117" stroke-width="0.5" stroke="black" fill="cyan"/>
  <circle cx="552.787" cy="454.392" r="5.02327" stroke-width="0.5" stroke="black" fill="cyan"/>
   </g>
   <g id="cell90">
  <circle cx="635.438" cy="473.595" r="6.77306" stroke-width="0.5" stroke="black" fill="green"/>
  <circle cx="635.438" cy="473.595" r="4.10236" stroke-width="0.5" stroke="black" fill="green"/>
   </g>
   <g id="cell91">
  <circle cx="548.176" cy="557.039" r="8.27135" stroke-width="0.5" stroke="black" fill="magenta"/>
  <circle cx="548.176" cy="557.039" r="4.99448" stroke-width="0.5" stroke="black" fill="magenta"/>
   </g>
   <g id="cell92">
  <circle cx="482.527" cy="549.786" r="8.32291" stroke-width="0.5" stroke="black" fill="green"/>
  <circle cx="482.527" cy="549.786" r="5.01502" stroke-width="0.5" stroke="black" fill="green"/>
   </g>
   <g id="cell93">
  <circle cx="538.82" cy="545.691" r="8.27135" stroke-width="0.5" stroke="black" fill="magenta"/>
  <circle cx="538.82" cy="545.691" r="4.99448" stroke-width="0.5" stroke="black" fill="magenta"/>
   </g>
   <g id="cell94">
  <circle cx="535.771" cy="496.257" r="8.30918" stroke-width="0.5" stroke="black" fill="cyan"/>
  <circle cx="535.771" cy="496.257" r="5.00867" stroke-width="0.5" stroke="black" fill="cyan"/>
   </g>
   <g id="cell95">
  <circle cx="466.854" cy="426.201" r="8.30618" stroke-width="0.5" stroke="black" fill="cyan"/>
  <circle cx="466.854" cy="426.201" r="5.00727" stroke-width="0.5" stroke="black" fill="cyan"/>
   </g>
   <g id="cell96">
  <circle cx="542.408" cy="523.068" r="8.29993" stroke-width="0.5" stroke="black" fill="cyan"/>
  <circle cx="542.408" cy="523.068" r="5.00433" stroke-width="0.5" stroke="black" fill="cyan"/>
   </g>
   <g id="cell97">
  <circle cx="421.672" cy="466.188" r="8.19495" stroke-width="0.5" stroke="black" fill="green"/>
  <circle cx="421.672" cy="466.188" r="4.95739" stroke-width="0.5" stroke="black" fill="green"/>
   </g>
   <g id="cell98">
  <circle cx="490.297" cy="521.022" r="6.96222" stroke-width="0.5" stroke="black" fill="green"/>
  <circle cx="490.297" cy="521.022" r="4.2374" stroke-width="0.5" stroke="black" fill="green"/>
   </g>
   <g id="cell99">
  <circle cx="358.269" cy="527.803" r="8.2495" stroke-width="0.5" stroke="black" fill="cyan"/>
  <circle cx="358.269" cy="527.803" r="4.98292" stroke-width="0.5" stroke="black" fill="cyan"/>
   </g>
   <g id="cell100">
  <circle cx="449.702" cy="395.326" r="8.2466" stroke-width="0.5" stroke="black" fill="green"/>
  <circle cx="449.702" cy="395.326" r="4.98023" stroke-width="0.5" stroke="black" fill="green"/>
   </g>
   <g id="cell101">
  <circle cx="533.169" cy="475.96" r="8.24324" stroke-width="0.5" stroke="black" fill="cyan"/>
  <circle cx="533.169" cy="475.96" r="4.97891" stroke-width="0.5" stroke="black" fill="cyan"/>
   </g>
   <g id="cell102">
  <circle cx="434.921" cy="474.43" r="8.19495" stroke-width="0.5" stroke="black" fill="green"/>
  <circle cx="434.921" cy="474.43" r="4.95739" stroke-width="0.5" stroke="black" fill="green"/>
   </g>
   <g id="cell103">
  <circle cx="589.649" cy="447.413" r="7.15384" stroke-width="0.5" stroke="black" fill="cyan"/>
  <circle cx="589.649" cy="447.413" r="4.36453" stroke-width="0.5" stroke="black" fill="cyan"/>
   </g>
   <g id="cell104">
  <circle cx="593.762" cy="553.136" r="8.17933" stroke-width="0.5" stroke="black" fill="cyan"/>
  <circle cx="593.762" cy="553.136" r="4.94847" stroke-width="0.5" stroke="black" fill="cyan"/>
   </g>
   <g id="cell106">
  <circle cx="463.974" cy="441.035" r="8.14827" stroke-width="0.5" stroke="black" fill="magenta"/>
  <circle cx="463.974" cy="441.035" r="4.93061" stroke-width="0.5" stroke="black" fill="magenta"/>
   </g>
   <g id="cell107">
  <circle cx="455.995" cy="382.533" r="7.04274" stroke-width="0.5" stroke="black" fill="green"/>
  <circle cx="455.995" cy="382.533" r="4.31151" stroke-width="0.5" stroke="black" fill="green"/>
   </g>
   <g id="cell108">
  <circle cx="555.836" cy="606.84" r="8.10448" stroke-width="0.5" stroke="black" fill="green"/>
  <circle cx="555.836" cy="606.84" r="4.90539" stroke-width="0.5" stroke="black" fill="green"/>
   </g>
   <g id="cell109">
  <circle cx="576.632" cy="590.46" r="7.91205" stroke-width="0.5" stroke="black" fill="green"/>
  <circle cx="576.632" cy="590.46" r="4.81231" stroke-width="0.5" stroke="black" fill="green"/>
   </g>
   <g id="cell110">
  <circle cx="373.839" cy="513.856" r="7.98892" stroke-width="0.5" stroke="black" fill="cyan"/>
  <circle cx="373.839" cy="513.856" r="4.84272" stroke-width="0.5" stroke="black" fill="cyan"/>
   </g>
   <g id="cell111">
  <circle cx="453.011" cy="551.895" r="7.92497" stroke-width="0.5" stroke="black" fill="magenta"/>
  <circle cx="453.011" cy="551.895" r="4.81319" stroke-width="0.5" stroke="black" fill="magenta"/>
   </g>
   <g id="cell112">
  <circle cx="507.864" cy="466.763" r="7.93688" stroke-width="0.5" stroke="black" fill="magenta"/>
  <circle cx="507.864" cy="466.763" r="4.81381" stroke-width="0.5" stroke="black" fill="magenta"/>
   </g>
   <g id="cell113">
  <circle cx="543.089" cy="405.722" r="7.9229" stroke-width="0.5" stroke="black" fill="green"/>
  <circle cx="543.089" cy="405.722" r="4.80599" stroke-width="0.5" stroke="black" fill="green"/>
   </g>
   <g id="cell114">
  <circle cx="524.817" cy="449.568" r="7.554" stroke-width="0.5" stroke="black" fill="cyan"/>
  <circle cx="524.817" cy="449.568" r="4.61475" stroke-width="0.5" stroke="black" fill="cyan"/>
   </g>
   <g id="cell115">
  <circle cx="538.772" cy="448.702" r="7.554" stroke-width="0.5" stroke="black" fill="cyan"/>
  <circle cx="538.772" cy="448.702" r="4.61475" stroke-width="0.5" stroke="black" fill="cyan"/>
   </g>
   <g id="cell116">
  <circle cx="520.782" cy="521.85" r="7.70834" stroke-width="0.5" stroke="black" fill="cyan"/>
  <circle cx="520.782" cy="521.85" r="4.68889" stroke-width="0.5" stroke="black" fill="cyan"/>
   </g>
   <g id="cell117">
  <circle cx="511.169" cy="623.267" r="7.46284" stroke-width="0.5" stroke="black" fill="green"/>
  <circle cx="511.169" cy="623.267" r="4.55464" stroke-width="0.5" stroke="black" fill="green"/>
   </g>
   <g id="cell118">
  <circle cx="511.546" cy="453.257" r="7.34562" stroke-width="0.5" stroke="black" fill="cyan"/>
  <circle cx="511.546" cy="453.257" r="4.46774" stroke-width="0.5" stroke="black" fill="cyan"/>
   </g>
   <g id="cell119">
  <circle cx="533.629" cy="605.483" r="7.32928" stroke-width="0.5" stroke="black" fill="green"/>
  <circle cx="533.629" cy="605.483" r="4.46138" stroke-width="0.5" stroke="black" fill="green"/>
   </g>
   <g id="cell120">
  <circle cx="576.704" cy="443.905" r="7.15384" stroke-width="0.5" stroke="black" fill="cyan"/>
  <circle cx="576.704" cy="443.905" r="4.36453" stroke-width="0.5" stroke="black" fill="cyan"/>
   </g>
   <g id="cell121">
  <circle cx="451.563" cy="371.946" r="5.63875" stroke-width="0.5" stroke="black" fill="green"/>
  <circle cx="451.563" cy="371.946" r="3.45557" stroke-width="0.5" stroke="black" fill="green"/>
   </g>
   <g id="cell122">
  <circle cx="507.213" cy="524.028" r="7.20291" stroke-width="0.5" stroke="black" fill="magenta"/>
  <circle cx="507.213" cy="524.028" r="4.38342" stroke-width="0.5" stroke="black" fill="magenta"/>
   </g>
   <g id="cell123">
  <circle cx="497.394" cy="509.908" r="6.96222" stroke-width="0.5" stroke="black" fill="green"/>
  <circle cx="497.394" cy="509.908" r="4.2374" stroke-width="0.5" stroke="black" fill="green"/>
   </g>
   <g id="cell124">
  <circle cx="491.167" cy="432.626" r="7.03758" stroke-width="0.5" stroke="black" fill="magenta"/>
  <circle cx="491.167" cy="432.626" r="4.27154" stroke-width="0.5" stroke="black" fill="magenta"/>
   </g>
   <g id="cell125">
  <circle cx="623.11" cy="477.332" r="6.77306" stroke-width="0.5" stroke="black" fill="green"/>
  <circle cx="623.11" cy="477.332" r="4.10236" stroke-width="0.5" stroke="black" fill="green"/>
   </g>
   <g id="cell126">
  <circle cx="629.901" cy="564.479" r="6.78111" stroke-width="0.5" stroke="black" fill="green"/>
  <circle cx="629.901" cy="564.479" r="4.09681" stroke-width="0.5" stroke="black" fill="green"/>
   </g>
   <g id="cell127">
  <circle cx="443.654" cy="365.269" r="5.63875" stroke-width="0.5" stroke="black" fill="green"/>
  <circle cx="443.654" cy="365.269" r="3.45557" stroke-width="0.5" stroke="black" fill="green"/>
   </g>
  </g>
 </g>
  <rect x="775" y="1035" width="200" height="10" stroke-width="2" stroke="rgb(255,255,255)" fill="rgb(0,0,0)"/>
  <text x="781.25" y="1028.75"
   font-family="Arial" font-size="25" fill="black" >
   200 &#956;m
  </text>
  <text x="25" y="1045"
   font-family="Arial" font-size="18.75" fill="black" >
   0 days, 0 hours, 0 minutes, and 20.1402 seconds
  </text>
  <rect x="0" y="70" width="1000" height="1000" stroke-width="2" stroke="rgb(0,0,0)" fill="none"/>
</svg>
