<?xml version="1.0" encoding="UTF-8" standalone="no"?>
<!-- Created with PhysiCell (http://PhysiCell.MathCancer.org/) -->
<svg 
 xmlns:dc="http://purl.org/dc/elements/1.1/" 
 xmlns:cc="http://creativecommons.org/ns#" 
 xmlns:rdf="http://www.w3.org/1999/02/22-rdf-syntax-ns#" 
 xmlns:svg="http://www.w3.org/2000/svg" 
 xmlns="http://www.w3.org/2000/svg" 
 version="1.1" 
 width="1000" 
 height="1070" 
 id="svg2">
  <rect x="0" y="0" width="1000" height="1070" stroke-width="2" stroke="white" fill="white"/>
  <text x="12.5" y="30"
   font-family="Arial" font-size="25" fill="black" >
   Current time: 1 days, 3 hours, and 33.00 minutes, z = 0.00 &#956;m
  </text>
  <text x="12.5" y="57.5"
   font-family="Arial" font-size="23.75" fill="black" >
   160 agents
  </text>
 <g id="tissue" 
    transform="translate(0,1070) scale(1,-1)">
  <g id="ECM">
  </g>
  <g id="cells">
   <g id="cell0">
  <circle cx="514.839" cy="534.304" r="8.40953" stroke-width="0.5" stroke="black" fill="magenta"/>
  <circle cx="514.839" cy="534.304" r="5.05079" stroke-width="0.5" stroke="black" fill="magenta"/>
   </g>
   <g id="cell1">
  <circle cx="595.596" cy="524.305" r="6.71158" stroke-width="0.5" stroke="black" fill="magenta"/>
  <circle cx="595.596" cy="524.305" r="4.03435" stroke-width="0.5" stroke="black" fill="magenta"/>
   </g>
   <g id="cell2">
  <circle cx="519.079" cy="598.712" r="8.41271" stroke-width="0.5" stroke="black" fill="magenta"/>
  <circle cx="519.079" cy="598.712" r="5.05167" stroke-width="0.5" stroke="black" fill="magenta"/>
   </g>
   <g id="cell3">
  <circle cx="523.779" cy="546.566" r="8.40751" stroke-width="0.5" stroke="black" fill="magenta"/>
  <circle cx="523.779" cy="546.566" r="5.0502" stroke-width="0.5" stroke="black" fill="magenta"/>
   </g>
   <g id="cell4">
  <circle cx="485.31" cy="448.206" r="8.3405" stroke-width="0.5" stroke="black" fill="magenta"/>
  <circle cx="485.31" cy="448.206" r="5.0231" stroke-width="0.5" stroke="black" fill="magenta"/>
   </g>
   <g id="cell5">
  <circle cx="465.032" cy="493.3" r="8.41271" stroke-width="0.5" stroke="black" fill="magenta"/>
  <circle cx="465.032" cy="493.3" r="5.05167" stroke-width="0.5" stroke="black" fill="magenta"/>
   </g>
   <g id="cell163">
  <circle cx="535.009" cy="578.515" r="6.98948" stroke-width="0.5" stroke="black" fill="green"/>
  <circle cx="535.009" cy="578.515" r="4.23464" stroke-width="0.5" stroke="black" fill="green"/>
   </g>
   <g id="cell7">
  <circle cx="495.656" cy="458.947" r="8.38823" stroke-width="0.5" stroke="black" fill="magenta"/>
  <circle cx="495.656" cy="458.947" r="5.04313" stroke-width="0.5" stroke="black" fill="magenta"/>
   </g>
   <g id="cell8">
  <circle cx="377.258" cy="548.407" r="6.99069" stroke-width="0.5" stroke="black" fill="magenta"/>
  <circle cx="377.258" cy="548.407" r="4.23498" stroke-width="0.5" stroke="black" fill="magenta"/>
   </g>
   <g id="cell161">
  <circle cx="451.919" cy="382.107" r="6.23276" stroke-width="0.5" stroke="black" fill="green"/>
  <circle cx="451.919" cy="382.107" r="3.82817" stroke-width="0.5" stroke="black" fill="green"/>
   </g>
   <g id="cell10">
  <circle cx="586.819" cy="388.885" r="7.79564" stroke-width="0.5" stroke="black" fill="magenta"/>
  <circle cx="586.819" cy="388.885" r="4.73359" stroke-width="0.5" stroke="black" fill="magenta"/>
   </g>
   <g id="cell11">
  <circle cx="592.088" cy="590.052" r="8.41271" stroke-width="0.5" stroke="black" fill="magenta"/>
  <circle cx="592.088" cy="590.052" r="5.05167" stroke-width="0.5" stroke="black" fill="magenta"/>
   </g>
   <g id="cell12">
  <circle cx="505.697" cy="592.04" r="8.20689" stroke-width="0.5" stroke="black" fill="magenta"/>
  <circle cx="505.697" cy="592.04" r="4.95867" stroke-width="0.5" stroke="black" fill="magenta"/>
   </g>
   <g id="cell13">
  <circle cx="387.209" cy="567.732" r="8.41271" stroke-width="0.5" stroke="black" fill="magenta"/>
  <circle cx="387.209" cy="567.732" r="5.05167" stroke-width="0.5" stroke="black" fill="magenta"/>
   </g>
   <g id="cell14">
  <circle cx="521.743" cy="404.255" r="8.41271" stroke-width="0.5" stroke="black" fill="magenta"/>
  <circle cx="521.743" cy="404.255" r="5.05167" stroke-width="0.5" stroke="black" fill="magenta"/>
   </g>
   <g id="cell15">
  <circle cx="381.785" cy="479.058" r="8.29993" stroke-width="0.5" stroke="black" fill="magenta"/>
  <circle cx="381.785" cy="479.058" r="5.00433" stroke-width="0.5" stroke="black" fill="magenta"/>
   </g>
   <g id="cell16">
  <circle cx="438.589" cy="422.029" r="7.72241" stroke-width="0.5" stroke="black" fill="magenta"/>
  <circle cx="438.589" cy="422.029" r="4.71551" stroke-width="0.5" stroke="black" fill="magenta"/>
   </g>
   <g id="cell17">
  <circle cx="571.569" cy="496.713" r="8.41271" stroke-width="0.5" stroke="black" fill="magenta"/>
  <circle cx="571.569" cy="496.713" r="5.05167" stroke-width="0.5" stroke="black" fill="magenta"/>
   </g>
   <g id="cell18">
  <circle cx="518.049" cy="389.565" r="8.41271" stroke-width="0.5" stroke="black" fill="magenta"/>
  <circle cx="518.049" cy="389.565" r="5.05167" stroke-width="0.5" stroke="black" fill="magenta"/>
   </g>
   <g id="cell19">
  <circle cx="458.163" cy="540.659" r="8.38768" stroke-width="0.5" stroke="black" fill="magenta"/>
  <circle cx="458.163" cy="540.659" r="5.04312" stroke-width="0.5" stroke="black" fill="magenta"/>
   </g>
   <g id="cell20">
  <circle cx="532.151" cy="415.331" r="8.41271" stroke-width="0.5" stroke="black" fill="magenta"/>
  <circle cx="532.151" cy="415.331" r="5.05167" stroke-width="0.5" stroke="black" fill="magenta"/>
   </g>
   <g id="cell21">
  <circle cx="466.883" cy="632.265" r="8.41271" stroke-width="0.5" stroke="black" fill="magenta"/>
  <circle cx="466.883" cy="632.265" r="5.05167" stroke-width="0.5" stroke="black" fill="magenta"/>
   </g>
   <g id="cell22">
  <circle cx="556.113" cy="496.89" r="8.41271" stroke-width="0.5" stroke="black" fill="magenta"/>
  <circle cx="556.113" cy="496.89" r="5.05167" stroke-width="0.5" stroke="black" fill="magenta"/>
   </g>
   <g id="cell23">
  <circle cx="548.936" cy="482.754" r="8.41271" stroke-width="0.5" stroke="black" fill="magenta"/>
  <circle cx="548.936" cy="482.754" r="5.05167" stroke-width="0.5" stroke="black" fill="magenta"/>
   </g>
   <g id="cell24">
  <circle cx="557.072" cy="382.255" r="8.41271" stroke-width="0.5" stroke="black" fill="magenta"/>
  <circle cx="557.072" cy="382.255" r="5.05167" stroke-width="0.5" stroke="black" fill="magenta"/>
   </g>
   <g id="cell25">
  <circle cx="648.448" cy="543.055" r="8.41072" stroke-width="0.5" stroke="black" fill="green"/>
  <circle cx="648.448" cy="543.055" r="5.05114" stroke-width="0.5" stroke="black" fill="green"/>
   </g>
   <g id="cell26">
  <circle cx="557.688" cy="397.862" r="8.38753" stroke-width="0.5" stroke="black" fill="green"/>
  <circle cx="557.688" cy="397.862" r="5.04286" stroke-width="0.5" stroke="black" fill="green"/>
   </g>
   <g id="cell27">
  <circle cx="464.655" cy="401.914" r="8.41147" stroke-width="0.5" stroke="black" fill="green"/>
  <circle cx="464.655" cy="401.914" r="5.05136" stroke-width="0.5" stroke="black" fill="green"/>
   </g>
   <g id="cell28">
  <circle cx="433.981" cy="535.34" r="7.63698" stroke-width="0.5" stroke="black" fill="green"/>
  <circle cx="433.981" cy="535.34" r="4.64085" stroke-width="0.5" stroke="black" fill="green"/>
   </g>
   <g id="cell29">
  <circle cx="450.426" cy="512.428" r="8.41271" stroke-width="0.5" stroke="black" fill="green"/>
  <circle cx="450.426" cy="512.428" r="5.05167" stroke-width="0.5" stroke="black" fill="green"/>
   </g>
   <g id="cell30">
  <circle cx="484.46" cy="537.1" r="8.17246" stroke-width="0.5" stroke="black" fill="green"/>
  <circle cx="484.46" cy="537.1" r="4.9416" stroke-width="0.5" stroke="black" fill="green"/>
   </g>
   <g id="cell31">
  <circle cx="411.987" cy="542.545" r="8.41271" stroke-width="0.5" stroke="black" fill="green"/>
  <circle cx="411.987" cy="542.545" r="5.05167" stroke-width="0.5" stroke="black" fill="green"/>
   </g>
   <g id="cell32">
  <circle cx="421.367" cy="481.396" r="1.29515" stroke-width="0.5" stroke="black" fill="green"/>
  <circle cx="421.367" cy="481.396" r="1.28751" stroke-width="0.5" stroke="black" fill="black"/>
   </g>
   <g id="cell33">
  <circle cx="501.771" cy="424.123" r="8.13008" stroke-width="0.5" stroke="black" fill="green"/>
  <circle cx="501.771" cy="424.123" r="4.91894" stroke-width="0.5" stroke="black" fill="green"/>
   </g>
   <g id="cell34">
  <circle cx="396.819" cy="450.575" r="1.33065" stroke-width="0.5" stroke="black" fill="green"/>
  <circle cx="396.819" cy="450.575" r="1.32157" stroke-width="0.5" stroke="black" fill="black"/>
   </g>
   <g id="cell35">
  <circle cx="554.369" cy="545.24" r="8.41271" stroke-width="0.5" stroke="black" fill="green"/>
  <circle cx="554.369" cy="545.24" r="5.05167" stroke-width="0.5" stroke="black" fill="green"/>
   </g>
   <g id="cell36">
  <circle cx="386.029" cy="583.139" r="6.78604" stroke-width="0.5" stroke="black" fill="green"/>
  <circle cx="386.029" cy="583.139" r="4.18198" stroke-width="0.5" stroke="black" fill="green"/>
   </g>
   <g id="cell37">
  <circle cx="640.179" cy="457.144" r="8.41129" stroke-width="0.5" stroke="black" fill="green"/>
  <circle cx="640.179" cy="457.144" r="5.05131" stroke-width="0.5" stroke="black" fill="green"/>
   </g>
   <g id="cell38">
  <circle cx="530.429" cy="590.574" r="6.98948" stroke-width="0.5" stroke="black" fill="green"/>
  <circle cx="530.429" cy="590.574" r="4.23464" stroke-width="0.5" stroke="black" fill="green"/>
   </g>
   <g id="cell39">
  <circle cx="613.228" cy="491.051" r="8.41271" stroke-width="0.5" stroke="black" fill="green"/>
  <circle cx="613.228" cy="491.051" r="5.05167" stroke-width="0.5" stroke="black" fill="green"/>
   </g>
   <g id="cell40">
  <circle cx="485.814" cy="567.203" r="7.49456" stroke-width="0.5" stroke="black" fill="green"/>
  <circle cx="485.814" cy="567.203" r="4.55548" stroke-width="0.5" stroke="black" fill="green"/>
   </g>
   <g id="cell41">
  <circle cx="366.583" cy="482.102" r="8.41271" stroke-width="0.5" stroke="black" fill="green"/>
  <circle cx="366.583" cy="482.102" r="5.05167" stroke-width="0.5" stroke="black" fill="green"/>
   </g>
   <g id="cell42">
  <circle cx="438.426" cy="492.161" r="8.41271" stroke-width="0.5" stroke="black" fill="green"/>
  <circle cx="438.426" cy="492.161" r="5.05167" stroke-width="0.5" stroke="black" fill="green"/>
   </g>
   <g id="cell43">
  <circle cx="561.206" cy="438.26" r="8.41271" stroke-width="0.5" stroke="black" fill="green"/>
  <circle cx="561.206" cy="438.26" r="5.05167" stroke-width="0.5" stroke="black" fill="green"/>
   </g>
   <g id="cell164">
  <circle cx="396.615" cy="577.238" r="6.31645" stroke-width="0.5" stroke="black" fill="green"/>
  <circle cx="396.615" cy="577.238" r="3.85597" stroke-width="0.5" stroke="black" fill="green"/>
   </g>
   <g id="cell145">
  <circle cx="425.253" cy="418.226" r="7.72241" stroke-width="0.5" stroke="black" fill="magenta"/>
  <circle cx="425.253" cy="418.226" r="4.71551" stroke-width="0.5" stroke="black" fill="magenta"/>
   </g>
   <g id="cell46">
  <circle cx="520.939" cy="614.038" r="8.40154" stroke-width="0.5" stroke="black" fill="green"/>
  <circle cx="520.939" cy="614.038" r="5.04811" stroke-width="0.5" stroke="black" fill="green"/>
   </g>
   <g id="cell47">
  <circle cx="503.342" cy="494.445" r="8.40576" stroke-width="0.5" stroke="black" fill="green"/>
  <circle cx="503.342" cy="494.445" r="5.04957" stroke-width="0.5" stroke="black" fill="green"/>
   </g>
   <g id="cell48">
  <circle cx="570.885" cy="604.806" r="8.38717" stroke-width="0.5" stroke="black" fill="green"/>
  <circle cx="570.885" cy="604.806" r="5.04313" stroke-width="0.5" stroke="black" fill="green"/>
   </g>
   <g id="cell49">
  <circle cx="432.248" cy="393.651" r="8.41271" stroke-width="0.5" stroke="black" fill="green"/>
  <circle cx="432.248" cy="393.651" r="5.05167" stroke-width="0.5" stroke="black" fill="green"/>
   </g>
   <g id="cell50">
  <circle cx="512.523" cy="507.535" r="8.37692" stroke-width="0.5" stroke="black" fill="cyan"/>
  <circle cx="512.523" cy="507.535" r="5.0388" stroke-width="0.5" stroke="black" fill="cyan"/>
   </g>
   <g id="cell51">
  <circle cx="402.234" cy="596.798" r="8.41271" stroke-width="0.5" stroke="black" fill="cyan"/>
  <circle cx="402.234" cy="596.798" r="5.05167" stroke-width="0.5" stroke="black" fill="cyan"/>
   </g>
   <g id="cell52">
  <circle cx="516.667" cy="418.944" r="8.41271" stroke-width="0.5" stroke="black" fill="cyan"/>
  <circle cx="516.667" cy="418.944" r="5.05167" stroke-width="0.5" stroke="black" fill="cyan"/>
   </g>
   <g id="cell53">
  <circle cx="572.517" cy="426.867" r="8.40327" stroke-width="0.5" stroke="black" fill="cyan"/>
  <circle cx="572.517" cy="426.867" r="5.04872" stroke-width="0.5" stroke="black" fill="cyan"/>
   </g>
   <g id="cell54">
  <circle cx="480.418" cy="422.106" r="8.407" stroke-width="0.5" stroke="black" fill="cyan"/>
  <circle cx="480.418" cy="422.106" r="5.04998" stroke-width="0.5" stroke="black" fill="cyan"/>
   </g>
   <g id="cell55">
  <circle cx="522.425" cy="461.624" r="8.4037" stroke-width="0.5" stroke="black" fill="cyan"/>
  <circle cx="522.425" cy="461.624" r="5.04894" stroke-width="0.5" stroke="black" fill="cyan"/>
   </g>
   <g id="cell56">
  <circle cx="620.554" cy="522.647" r="8.41271" stroke-width="0.5" stroke="black" fill="cyan"/>
  <circle cx="620.554" cy="522.647" r="5.05167" stroke-width="0.5" stroke="black" fill="cyan"/>
   </g>
   <g id="cell105">
  <circle cx="506.638" cy="607.203" r="8.10475" stroke-width="0.5" stroke="black" fill="green"/>
  <circle cx="506.638" cy="607.203" r="4.90956" stroke-width="0.5" stroke="black" fill="green"/>
   </g>
   <g id="cell58">
  <circle cx="563.523" cy="484.729" r="7.54436" stroke-width="0.5" stroke="black" fill="cyan"/>
  <circle cx="563.523" cy="484.729" r="4.58555" stroke-width="0.5" stroke="black" fill="cyan"/>
   </g>
   <g id="cell59">
  <circle cx="385.732" cy="440.058" r="8.41271" stroke-width="0.5" stroke="black" fill="cyan"/>
  <circle cx="385.732" cy="440.058" r="5.05167" stroke-width="0.5" stroke="black" fill="cyan"/>
   </g>
   <g id="cell60">
  <circle cx="591.723" cy="473.882" r="8.41271" stroke-width="0.5" stroke="black" fill="cyan"/>
  <circle cx="591.723" cy="473.882" r="5.05167" stroke-width="0.5" stroke="black" fill="cyan"/>
   </g>
   <g id="cell61">
  <circle cx="557.056" cy="621.932" r="1.82001" stroke-width="0.5" stroke="black" fill="cyan"/>
  <circle cx="557.056" cy="621.932" r="1.7574" stroke-width="0.5" stroke="black" fill="black"/>
   </g>
   <g id="cell62">
  <circle cx="512.421" cy="435.285" r="8.35821" stroke-width="0.5" stroke="black" fill="cyan"/>
  <circle cx="512.421" cy="435.285" r="5.03085" stroke-width="0.5" stroke="black" fill="cyan"/>
   </g>
   <g id="cell63">
  <circle cx="585.274" cy="540.172" r="8.28807" stroke-width="0.5" stroke="black" fill="cyan"/>
  <circle cx="585.274" cy="540.172" r="4.99905" stroke-width="0.5" stroke="black" fill="cyan"/>
   </g>
   <g id="cell64">
  <circle cx="509.679" cy="638.631" r="8.41271" stroke-width="0.5" stroke="black" fill="cyan"/>
  <circle cx="509.679" cy="638.631" r="5.05167" stroke-width="0.5" stroke="black" fill="cyan"/>
   </g>
   <g id="cell65">
  <circle cx="546.819" cy="465.863" r="8.40884" stroke-width="0.5" stroke="black" fill="cyan"/>
  <circle cx="546.819" cy="465.863" r="5.05057" stroke-width="0.5" stroke="black" fill="cyan"/>
   </g>
   <g id="cell66">
  <circle cx="530.501" cy="532.986" r="8.40667" stroke-width="0.5" stroke="black" fill="cyan"/>
  <circle cx="530.501" cy="532.986" r="5.04987" stroke-width="0.5" stroke="black" fill="cyan"/>
   </g>
   <g id="cell67">
  <circle cx="354.666" cy="492.846" r="8.41271" stroke-width="0.5" stroke="black" fill="cyan"/>
  <circle cx="354.666" cy="492.846" r="5.05167" stroke-width="0.5" stroke="black" fill="cyan"/>
   </g>
   <g id="cell68">
  <circle cx="562.82" cy="558.545" r="8.41271" stroke-width="0.5" stroke="black" fill="cyan"/>
  <circle cx="562.82" cy="558.545" r="5.05167" stroke-width="0.5" stroke="black" fill="cyan"/>
   </g>
   <g id="cell69">
  <circle cx="441.856" cy="461.09" r="8.41271" stroke-width="0.5" stroke="black" fill="cyan"/>
  <circle cx="441.856" cy="461.09" r="5.05167" stroke-width="0.5" stroke="black" fill="cyan"/>
   </g>
   <g id="cell70">
  <circle cx="578.054" cy="482.042" r="8.41271" stroke-width="0.5" stroke="black" fill="cyan"/>
  <circle cx="578.054" cy="482.042" r="5.05167" stroke-width="0.5" stroke="black" fill="cyan"/>
   </g>
   <g id="cell71">
  <circle cx="382.878" cy="525.036" r="8.39083" stroke-width="0.5" stroke="black" fill="cyan"/>
  <circle cx="382.878" cy="525.036" r="5.04414" stroke-width="0.5" stroke="black" fill="cyan"/>
   </g>
   <g id="cell72">
  <circle cx="528.411" cy="506.137" r="8.40715" stroke-width="0.5" stroke="black" fill="cyan"/>
  <circle cx="528.411" cy="506.137" r="5.05003" stroke-width="0.5" stroke="black" fill="cyan"/>
   </g>
   <g id="cell73">
  <circle cx="363.907" cy="553.436" r="8.40961" stroke-width="0.5" stroke="black" fill="cyan"/>
  <circle cx="363.907" cy="553.436" r="5.05081" stroke-width="0.5" stroke="black" fill="cyan"/>
   </g>
   <g id="cell162">
  <circle cx="374.037" cy="536.239" r="6.99069" stroke-width="0.5" stroke="black" fill="magenta"/>
  <circle cx="374.037" cy="536.239" r="4.23498" stroke-width="0.5" stroke="black" fill="magenta"/>
   </g>
   <g id="cell75">
  <circle cx="527.629" cy="430.26" r="8.41151" stroke-width="0.5" stroke="black" fill="cyan"/>
  <circle cx="527.629" cy="430.26" r="5.05137" stroke-width="0.5" stroke="black" fill="cyan"/>
   </g>
   <g id="cell76">
  <circle cx="438.637" cy="378.831" r="8.3947" stroke-width="0.5" stroke="black" fill="green"/>
  <circle cx="438.637" cy="378.831" r="5.0459" stroke-width="0.5" stroke="black" fill="green"/>
   </g>
   <g id="cell77">
  <circle cx="475.537" cy="436.87" r="8.39884" stroke-width="0.5" stroke="black" fill="magenta"/>
  <circle cx="475.537" cy="436.87" r="5.04721" stroke-width="0.5" stroke="black" fill="magenta"/>
   </g>
   <g id="cell78">
  <circle cx="624.886" cy="461.904" r="8.40813" stroke-width="0.5" stroke="black" fill="green"/>
  <circle cx="624.886" cy="461.904" r="5.05039" stroke-width="0.5" stroke="black" fill="green"/>
   </g>
   <g id="cell79">
  <circle cx="517.847" cy="477.432" r="8.41112" stroke-width="0.5" stroke="black" fill="cyan"/>
  <circle cx="517.847" cy="477.432" r="5.05126" stroke-width="0.5" stroke="black" fill="cyan"/>
   </g>
   <g id="cell80">
  <circle cx="543.548" cy="616.882" r="8.35752" stroke-width="0.5" stroke="black" fill="green"/>
  <circle cx="543.548" cy="616.882" r="5.03066" stroke-width="0.5" stroke="black" fill="green"/>
   </g>
   <g id="cell81">
  <circle cx="544.825" cy="593.122" r="8.41014" stroke-width="0.5" stroke="black" fill="green"/>
  <circle cx="544.825" cy="593.122" r="5.051" stroke-width="0.5" stroke="black" fill="green"/>
   </g>
   <g id="cell82">
  <circle cx="531.743" cy="559.058" r="8.07546" stroke-width="0.5" stroke="black" fill="magenta"/>
  <circle cx="531.743" cy="559.058" r="4.89016" stroke-width="0.5" stroke="black" fill="magenta"/>
   </g>
   <g id="cell83">
  <circle cx="635.355" cy="552.12" r="8.3219" stroke-width="0.5" stroke="black" fill="green"/>
  <circle cx="635.355" cy="552.12" r="5.01475" stroke-width="0.5" stroke="black" fill="green"/>
   </g>
   <g id="cell84">
  <circle cx="519.368" cy="493.145" r="8.40978" stroke-width="0.5" stroke="black" fill="cyan"/>
  <circle cx="519.368" cy="493.145" r="5.05086" stroke-width="0.5" stroke="black" fill="cyan"/>
   </g>
   <g id="cell85">
  <circle cx="352.291" cy="542.443" r="8.40402" stroke-width="0.5" stroke="black" fill="cyan"/>
  <circle cx="352.291" cy="542.443" r="5.04908" stroke-width="0.5" stroke="black" fill="cyan"/>
   </g>
   <g id="cell86">
  <circle cx="499.795" cy="535.564" r="8.35074" stroke-width="0.5" stroke="black" fill="magenta"/>
  <circle cx="499.795" cy="535.564" r="5.02775" stroke-width="0.5" stroke="black" fill="magenta"/>
   </g>
   <g id="cell87">
  <circle cx="578.965" cy="557.019" r="8.40041" stroke-width="0.5" stroke="black" fill="cyan"/>
  <circle cx="578.965" cy="557.019" r="5.04784" stroke-width="0.5" stroke="black" fill="cyan"/>
   </g>
   <g id="cell88">
  <circle cx="446.734" cy="534.226" r="6.84241" stroke-width="0.5" stroke="black" fill="magenta"/>
  <circle cx="446.734" cy="534.226" r="4.19871" stroke-width="0.5" stroke="black" fill="magenta"/>
   </g>
   <g id="cell89">
  <circle cx="551.168" cy="450.236" r="7.97966" stroke-width="0.5" stroke="black" fill="cyan"/>
  <circle cx="551.168" cy="450.236" r="4.84741" stroke-width="0.5" stroke="black" fill="cyan"/>
   </g>
   <g id="cell90">
  <circle cx="636.638" cy="472.673" r="8.32309" stroke-width="0.5" stroke="black" fill="green"/>
  <circle cx="636.638" cy="472.673" r="5.01551" stroke-width="0.5" stroke="black" fill="green"/>
   </g>
   <g id="cell91">
  <circle cx="546.848" cy="558.895" r="8.40514" stroke-width="0.5" stroke="black" fill="magenta"/>
  <circle cx="546.848" cy="558.895" r="5.04949" stroke-width="0.5" stroke="black" fill="magenta"/>
   </g>
   <g id="cell92">
  <circle cx="486.727" cy="552.381" r="8.40788" stroke-width="0.5" stroke="black" fill="green"/>
  <circle cx="486.727" cy="552.381" r="5.05027" stroke-width="0.5" stroke="black" fill="green"/>
   </g>
   <g id="cell93">
  <circle cx="538.906" cy="546.014" r="8.40514" stroke-width="0.5" stroke="black" fill="magenta"/>
  <circle cx="538.906" cy="546.014" r="5.04949" stroke-width="0.5" stroke="black" fill="magenta"/>
   </g>
   <g id="cell94">
  <circle cx="540.823" cy="496.301" r="8.40715" stroke-width="0.5" stroke="black" fill="cyan"/>
  <circle cx="540.823" cy="496.301" r="5.05003" stroke-width="0.5" stroke="black" fill="cyan"/>
   </g>
   <g id="cell95">
  <circle cx="464.759" cy="425.72" r="8.407" stroke-width="0.5" stroke="black" fill="cyan"/>
  <circle cx="464.759" cy="425.72" r="5.04998" stroke-width="0.5" stroke="black" fill="cyan"/>
   </g>
   <g id="cell96">
  <circle cx="546.039" cy="532.085" r="8.24124" stroke-width="0.5" stroke="black" fill="cyan"/>
  <circle cx="546.039" cy="532.085" r="4.97651" stroke-width="0.5" stroke="black" fill="cyan"/>
   </g>
   <g id="cell97">
  <circle cx="421.894" cy="466.697" r="8.40121" stroke-width="0.5" stroke="black" fill="green"/>
  <circle cx="421.894" cy="466.697" r="5.04815" stroke-width="0.5" stroke="black" fill="green"/>
   </g>
   <g id="cell98">
  <circle cx="490.687" cy="523.103" r="8.33764" stroke-width="0.5" stroke="black" fill="green"/>
  <circle cx="490.687" cy="523.103" r="5.0222" stroke-width="0.5" stroke="black" fill="green"/>
   </g>
   <g id="cell99">
  <circle cx="358.857" cy="527.861" r="8.40402" stroke-width="0.5" stroke="black" fill="cyan"/>
  <circle cx="358.857" cy="527.861" r="5.04908" stroke-width="0.5" stroke="black" fill="cyan"/>
   </g>
   <g id="cell100">
  <circle cx="447.364" cy="399.274" r="8.40388" stroke-width="0.5" stroke="black" fill="green"/>
  <circle cx="447.364" cy="399.274" r="5.04899" stroke-width="0.5" stroke="black" fill="green"/>
   </g>
   <g id="cell101">
  <circle cx="532.495" cy="483.226" r="8.22454" stroke-width="0.5" stroke="black" fill="cyan"/>
  <circle cx="532.495" cy="483.226" r="4.96848" stroke-width="0.5" stroke="black" fill="cyan"/>
   </g>
   <g id="cell102">
  <circle cx="435.192" cy="475.794" r="8.40121" stroke-width="0.5" stroke="black" fill="green"/>
  <circle cx="435.192" cy="475.794" r="5.04815" stroke-width="0.5" stroke="black" fill="green"/>
   </g>
   <g id="cell103">
  <circle cx="591.373" cy="447.912" r="8.34926" stroke-width="0.5" stroke="black" fill="cyan"/>
  <circle cx="591.373" cy="447.912" r="5.02744" stroke-width="0.5" stroke="black" fill="cyan"/>
   </g>
   <g id="cell104">
  <circle cx="599.646" cy="556.879" r="7.94357" stroke-width="0.5" stroke="black" fill="cyan"/>
  <circle cx="599.646" cy="556.879" r="4.81917" stroke-width="0.5" stroke="black" fill="cyan"/>
   </g>
   <g id="cell106">
  <circle cx="460.996" cy="440.881" r="8.39884" stroke-width="0.5" stroke="black" fill="magenta"/>
  <circle cx="460.996" cy="440.881" r="5.04721" stroke-width="0.5" stroke="black" fill="magenta"/>
   </g>
   <g id="cell107">
  <circle cx="461.27" cy="388.793" r="6.23276" stroke-width="0.5" stroke="black" fill="green"/>
  <circle cx="461.27" cy="388.793" r="3.82817" stroke-width="0.5" stroke="black" fill="green"/>
   </g>
   <g id="cell108">
  <circle cx="554.893" cy="605.636" r="8.39664" stroke-width="0.5" stroke="black" fill="green"/>
  <circle cx="554.893" cy="605.636" r="5.04633" stroke-width="0.5" stroke="black" fill="green"/>
   </g>
   <g id="cell109">
  <circle cx="576.514" cy="589.851" r="8.38717" stroke-width="0.5" stroke="black" fill="green"/>
  <circle cx="576.514" cy="589.851" r="5.04313" stroke-width="0.5" stroke="black" fill="green"/>
   </g>
   <g id="cell110">
  <circle cx="373.016" cy="512.469" r="8.39083" stroke-width="0.5" stroke="black" fill="cyan"/>
  <circle cx="373.016" cy="512.469" r="5.04414" stroke-width="0.5" stroke="black" fill="cyan"/>
   </g>
   <g id="cell111">
  <circle cx="456.181" cy="555.391" r="8.22139" stroke-width="0.5" stroke="black" fill="magenta"/>
  <circle cx="456.181" cy="555.391" r="4.96802" stroke-width="0.5" stroke="black" fill="magenta"/>
   </g>
   <g id="cell112">
  <circle cx="496.123" cy="473.671" r="7.92314" stroke-width="0.5" stroke="black" fill="magenta"/>
  <circle cx="496.123" cy="473.671" r="4.80889" stroke-width="0.5" stroke="black" fill="magenta"/>
   </g>
   <g id="cell113">
  <circle cx="544.065" cy="390.209" r="8.0323" stroke-width="0.5" stroke="black" fill="green"/>
  <circle cx="544.065" cy="390.209" r="4.86908" stroke-width="0.5" stroke="black" fill="green"/>
   </g>
   <g id="cell114">
  <circle cx="524.052" cy="445.659" r="8.37025" stroke-width="0.5" stroke="black" fill="cyan"/>
  <circle cx="524.052" cy="445.659" r="5.03659" stroke-width="0.5" stroke="black" fill="cyan"/>
   </g>
   <g id="cell115">
  <circle cx="536.555" cy="454.394" r="8.25698" stroke-width="0.5" stroke="black" fill="cyan"/>
  <circle cx="536.555" cy="454.394" r="4.98648" stroke-width="0.5" stroke="black" fill="cyan"/>
   </g>
   <g id="cell116">
  <circle cx="521.517" cy="520.327" r="8.37692" stroke-width="0.5" stroke="black" fill="cyan"/>
  <circle cx="521.517" cy="520.327" r="5.0388" stroke-width="0.5" stroke="black" fill="cyan"/>
   </g>
   <g id="cell117">
  <circle cx="507.777" cy="622.803" r="8.36528" stroke-width="0.5" stroke="black" fill="green"/>
  <circle cx="507.777" cy="622.803" r="5.03433" stroke-width="0.5" stroke="black" fill="green"/>
   </g>
   <g id="cell118">
  <circle cx="509.321" cy="451.241" r="8.35821" stroke-width="0.5" stroke="black" fill="cyan"/>
  <circle cx="509.321" cy="451.241" r="5.03085" stroke-width="0.5" stroke="black" fill="cyan"/>
   </g>
   <g id="cell119">
  <circle cx="533.616" cy="604.555" r="8.35752" stroke-width="0.5" stroke="black" fill="green"/>
  <circle cx="533.616" cy="604.555" r="5.03066" stroke-width="0.5" stroke="black" fill="green"/>
   </g>
   <g id="cell120">
  <circle cx="576.599" cy="442.241" r="8.34926" stroke-width="0.5" stroke="black" fill="cyan"/>
  <circle cx="576.599" cy="442.241" r="5.02744" stroke-width="0.5" stroke="black" fill="cyan"/>
   </g>
   <g id="cell121">
  <circle cx="451.211" cy="368.601" r="8.2775" stroke-width="0.5" stroke="black" fill="green"/>
  <circle cx="451.211" cy="368.601" r="4.99689" stroke-width="0.5" stroke="black" fill="green"/>
   </g>
   <g id="cell122">
  <circle cx="506.098" cy="521.823" r="8.35074" stroke-width="0.5" stroke="black" fill="magenta"/>
  <circle cx="506.098" cy="521.823" r="5.02775" stroke-width="0.5" stroke="black" fill="magenta"/>
   </g>
   <g id="cell123">
  <circle cx="496.996" cy="508.98" r="8.33764" stroke-width="0.5" stroke="black" fill="green"/>
  <circle cx="496.996" cy="508.98" r="5.0222" stroke-width="0.5" stroke="black" fill="green"/>
   </g>
   <g id="cell124">
  <circle cx="490.319" cy="434.087" r="8.3405" stroke-width="0.5" stroke="black" fill="magenta"/>
  <circle cx="490.319" cy="434.087" r="5.0231" stroke-width="0.5" stroke="black" fill="magenta"/>
   </g>
   <g id="cell125">
  <circle cx="621.546" cy="477.474" r="8.32309" stroke-width="0.5" stroke="black" fill="green"/>
  <circle cx="621.546" cy="477.474" r="5.01551" stroke-width="0.5" stroke="black" fill="green"/>
   </g>
   <g id="cell126">
  <circle cx="628.887" cy="566.576" r="8.3219" stroke-width="0.5" stroke="black" fill="green"/>
  <circle cx="628.887" cy="566.576" r="5.01475" stroke-width="0.5" stroke="black" fill="green"/>
   </g>
   <g id="cell127">
  <circle cx="437.521" cy="361.324" r="8.2775" stroke-width="0.5" stroke="black" fill="green"/>
  <circle cx="437.521" cy="361.324" r="4.99689" stroke-width="0.5" stroke="black" fill="green"/>
   </g>
   <g id="cell128">
  <circle cx="372.164" cy="467.638" r="8.29993" stroke-width="0.5" stroke="black" fill="magenta"/>
  <circle cx="372.164" cy="467.638" r="5.00433" stroke-width="0.5" stroke="black" fill="magenta"/>
   </g>
   <g id="cell129">
  <circle cx="570.033" cy="544.073" r="8.28807" stroke-width="0.5" stroke="black" fill="cyan"/>
  <circle cx="570.033" cy="544.073" r="4.99905" stroke-width="0.5" stroke="black" fill="cyan"/>
   </g>
   <g id="cell130">
  <circle cx="540.636" cy="439.054" r="8.25698" stroke-width="0.5" stroke="black" fill="cyan"/>
  <circle cx="540.636" cy="439.054" r="4.98648" stroke-width="0.5" stroke="black" fill="cyan"/>
   </g>
   <g id="cell131">
  <circle cx="537.458" cy="518.968" r="8.24124" stroke-width="0.5" stroke="black" fill="cyan"/>
  <circle cx="537.458" cy="518.968" r="4.97651" stroke-width="0.5" stroke="black" fill="cyan"/>
   </g>
   <g id="cell132">
  <circle cx="444" cy="547.022" r="8.22139" stroke-width="0.5" stroke="black" fill="magenta"/>
  <circle cx="444" cy="547.022" r="4.96802" stroke-width="0.5" stroke="black" fill="magenta"/>
   </g>
   <g id="cell133">
  <circle cx="574.223" cy="466.323" r="8.23242" stroke-width="0.5" stroke="black" fill="cyan"/>
  <circle cx="574.223" cy="466.323" r="4.97194" stroke-width="0.5" stroke="black" fill="cyan"/>
   </g>
   <g id="cell134">
  <circle cx="534.891" cy="469.844" r="4.32835" stroke-width="0.5" stroke="black" fill="cyan"/>
  <circle cx="534.891" cy="469.844" r="3.0288" stroke-width="0.5" stroke="black" fill="black"/>
   </g>
   <g id="cell135">
  <circle cx="518.05" cy="583.891" r="8.20689" stroke-width="0.5" stroke="black" fill="magenta"/>
  <circle cx="518.05" cy="583.891" r="4.95867" stroke-width="0.5" stroke="black" fill="magenta"/>
   </g>
   <g id="cell136">
  <circle cx="472.103" cy="546.505" r="8.17246" stroke-width="0.5" stroke="black" fill="green"/>
  <circle cx="472.103" cy="546.505" r="4.9416" stroke-width="0.5" stroke="black" fill="green"/>
   </g>
   <g id="cell137">
  <circle cx="492.237" cy="612.253" r="8.10475" stroke-width="0.5" stroke="black" fill="green"/>
  <circle cx="492.237" cy="612.253" r="4.90956" stroke-width="0.5" stroke="black" fill="green"/>
   </g>
   <g id="cell138">
  <circle cx="500.237" cy="408.902" r="8.13008" stroke-width="0.5" stroke="black" fill="green"/>
  <circle cx="500.237" cy="408.902" r="4.91894" stroke-width="0.5" stroke="black" fill="green"/>
   </g>
   <g id="cell139">
  <circle cx="421.466" cy="404.544" r="8.08613" stroke-width="0.5" stroke="black" fill="magenta"/>
  <circle cx="421.466" cy="404.544" r="4.8956" stroke-width="0.5" stroke="black" fill="magenta"/>
   </g>
   <g id="cell140">
  <circle cx="523.957" cy="570.974" r="7.76482" stroke-width="0.5" stroke="black" fill="magenta"/>
  <circle cx="523.957" cy="570.974" r="4.73225" stroke-width="0.5" stroke="black" fill="magenta"/>
   </g>
   <g id="cell141">
  <circle cx="565.828" cy="453.293" r="7.97966" stroke-width="0.5" stroke="black" fill="cyan"/>
  <circle cx="565.828" cy="453.293" r="4.84741" stroke-width="0.5" stroke="black" fill="cyan"/>
   </g>
   <g id="cell142">
  <circle cx="550.582" cy="428.153" r="7.04131" stroke-width="0.5" stroke="black" fill="green"/>
  <circle cx="550.582" cy="428.153" r="4.32362" stroke-width="0.5" stroke="black" fill="green"/>
   </g>
   <g id="cell143">
  <circle cx="435.296" cy="408.411" r="7.87057" stroke-width="0.5" stroke="black" fill="magenta"/>
  <circle cx="435.296" cy="408.411" r="4.79003" stroke-width="0.5" stroke="black" fill="magenta"/>
   </g>
   <g id="cell144">
  <circle cx="546.807" cy="408.074" r="6.97959" stroke-width="0.5" stroke="black" fill="green"/>
  <circle cx="546.807" cy="408.074" r="4.28622" stroke-width="0.5" stroke="black" fill="green"/>
   </g>
   <g id="cell146">
  <circle cx="588.866" cy="548.819" r="1.55525" stroke-width="0.5" stroke="black" fill="cyan"/>
  <circle cx="588.866" cy="548.819" r="1.49604" stroke-width="0.5" stroke="black" fill="black"/>
   </g>
   <g id="cell147">
  <circle cx="517.136" cy="559.148" r="7.76482" stroke-width="0.5" stroke="black" fill="magenta"/>
  <circle cx="517.136" cy="559.148" r="4.73225" stroke-width="0.5" stroke="black" fill="magenta"/>
   </g>
   <g id="cell148">
  <circle cx="508.164" cy="466.182" r="7.92314" stroke-width="0.5" stroke="black" fill="magenta"/>
  <circle cx="508.164" cy="466.182" r="4.80889" stroke-width="0.5" stroke="black" fill="magenta"/>
   </g>
   <g id="cell149">
  <circle cx="576.223" cy="398.115" r="7.79564" stroke-width="0.5" stroke="black" fill="magenta"/>
  <circle cx="576.223" cy="398.115" r="4.73359" stroke-width="0.5" stroke="black" fill="magenta"/>
   </g>
   <g id="cell150">
  <circle cx="407.059" cy="582.532" r="6.31645" stroke-width="0.5" stroke="black" fill="green"/>
  <circle cx="407.059" cy="582.532" r="3.85597" stroke-width="0.5" stroke="black" fill="green"/>
   </g>
   <g id="cell151">
  <circle cx="420.704" cy="530.077" r="7.63698" stroke-width="0.5" stroke="black" fill="green"/>
  <circle cx="420.704" cy="530.077" r="4.64085" stroke-width="0.5" stroke="black" fill="green"/>
   </g>
   <g id="cell152">
  <circle cx="375.362" cy="575.755" r="7.17881" stroke-width="0.5" stroke="black" fill="green"/>
  <circle cx="375.362" cy="575.755" r="4.39821" stroke-width="0.5" stroke="black" fill="green"/>
   </g>
   <g id="cell153">
  <circle cx="560.243" cy="471.496" r="7.54436" stroke-width="0.5" stroke="black" fill="cyan"/>
  <circle cx="560.243" cy="471.496" r="4.58555" stroke-width="0.5" stroke="black" fill="cyan"/>
   </g>
   <g id="cell154">
  <circle cx="387.869" cy="595.818" r="6.78604" stroke-width="0.5" stroke="black" fill="green"/>
  <circle cx="387.869" cy="595.818" r="4.18198" stroke-width="0.5" stroke="black" fill="green"/>
   </g>
   <g id="cell155">
  <circle cx="484.54" cy="581.21" r="7.49456" stroke-width="0.5" stroke="black" fill="green"/>
  <circle cx="484.54" cy="581.21" r="4.55548" stroke-width="0.5" stroke="black" fill="green"/>
   </g>
   <g id="cell156">
  <circle cx="456.033" cy="526.002" r="7.49219" stroke-width="0.5" stroke="black" fill="magenta"/>
  <circle cx="456.033" cy="526.002" r="4.55475" stroke-width="0.5" stroke="black" fill="magenta"/>
   </g>
   <g id="cell157">
  <circle cx="441.844" cy="523.464" r="6.84241" stroke-width="0.5" stroke="black" fill="magenta"/>
  <circle cx="441.844" cy="523.464" r="4.19871" stroke-width="0.5" stroke="black" fill="magenta"/>
   </g>
   <g id="cell158">
  <circle cx="556.98" cy="416.414" r="7.04131" stroke-width="0.5" stroke="black" fill="green"/>
  <circle cx="556.98" cy="416.414" r="4.32362" stroke-width="0.5" stroke="black" fill="green"/>
   </g>
   <g id="cell159">
  <circle cx="535.573" cy="401.57" r="6.97959" stroke-width="0.5" stroke="black" fill="green"/>
  <circle cx="535.573" cy="401.57" r="4.28622" stroke-width="0.5" stroke="black" fill="green"/>
   </g>
   <g id="cell160">
  <circle cx="463.576" cy="376.419" r="7.22725" stroke-width="0.5" stroke="black" fill="green"/>
  <circle cx="463.576" cy="376.419" r="4.40047" stroke-width="0.5" stroke="black" fill="green"/>
   </g>
   <g id="cell165">
  <circle cx="607" cy="521.183" r="6.71158" stroke-width="0.5" stroke="black" fill="magenta"/>
  <circle cx="607" cy="521.183" r="4.03435" stroke-width="0.5" stroke="black" fill="magenta"/>
   </g>
  </g>
 </g>
  <rect x="775" y="1035" width="200" height="10" stroke-width="2" stroke="rgb(255,255,255)" fill="rgb(0,0,0)"/>
  <text x="781.25" y="1028.75"
   font-family="Arial" font-size="25" fill="black" >
   200 &#956;m
  </text>
  <text x="25" y="1045"
   font-family="Arial" font-size="18.75" fill="black" >
   0 days, 0 hours, 0 minutes, and 32.8331 seconds
  </text>
  <rect x="0" y="70" width="1000" height="1000" stroke-width="2" stroke="rgb(0,0,0)" fill="none"/>
</svg>
