<?xml version="1.0" encoding="UTF-8" standalone="no"?>
<!-- Created with PhysiCell (http://PhysiCell.MathCancer.org/) -->
<svg 
 xmlns:dc="http://purl.org/dc/elements/1.1/" 
 xmlns:cc="http://creativecommons.org/ns#" 
 xmlns:rdf="http://www.w3.org/1999/02/22-rdf-syntax-ns#" 
 xmlns:svg="http://www.w3.org/2000/svg" 
 xmlns="http://www.w3.org/2000/svg" 
 version="1.1" 
 width="1000" 
 height="1070" 
 id="svg2">
  <rect x="0" y="0" width="1000" height="1070" stroke-width="2" stroke="white" fill="white"/>
  <text x="12.5" y="30"
   font-family="Arial" font-size="25" fill="black" >
   Current time: 1 days, 17 hours, and 18.00 minutes, z = 0.00 &#956;m
  </text>
  <text x="12.5" y="57.5"
   font-family="Arial" font-size="23.75" fill="black" >
   211 agents
  </text>
 <g id="tissue" 
    transform="translate(0,1070) scale(1,-1)">
  <g id="ECM">
  </g>
  <g id="cells">
   <g id="cell0">
  <circle cx="509.102" cy="542.878" r="8.41264" stroke-width="0.5" stroke="black" fill="magenta"/>
  <circle cx="509.102" cy="542.878" r="5.05166" stroke-width="0.5" stroke="black" fill="magenta"/>
   </g>
   <g id="cell1">
  <circle cx="593.193" cy="524.778" r="8.37321" stroke-width="0.5" stroke="black" fill="magenta"/>
  <circle cx="593.193" cy="524.778" r="5.03708" stroke-width="0.5" stroke="black" fill="magenta"/>
   </g>
   <g id="cell2">
  <circle cx="513.277" cy="597.289" r="8.41271" stroke-width="0.5" stroke="black" fill="magenta"/>
  <circle cx="513.277" cy="597.289" r="5.05167" stroke-width="0.5" stroke="black" fill="magenta"/>
   </g>
   <g id="cell3">
  <circle cx="523.852" cy="546.752" r="8.41259" stroke-width="0.5" stroke="black" fill="magenta"/>
  <circle cx="523.852" cy="546.752" r="5.05165" stroke-width="0.5" stroke="black" fill="magenta"/>
   </g>
   <g id="cell4">
  <circle cx="483.526" cy="444.442" r="8.41115" stroke-width="0.5" stroke="black" fill="magenta"/>
  <circle cx="483.526" cy="444.442" r="5.05127" stroke-width="0.5" stroke="black" fill="magenta"/>
   </g>
   <g id="cell5">
  <circle cx="468.711" cy="490.415" r="8.41271" stroke-width="0.5" stroke="black" fill="magenta"/>
  <circle cx="468.711" cy="490.415" r="5.05167" stroke-width="0.5" stroke="black" fill="magenta"/>
   </g>
   <g id="cell163">
  <circle cx="532.127" cy="574.365" r="7.22232" stroke-width="0.5" stroke="black" fill="green"/>
  <circle cx="532.127" cy="574.365" r="4.39179" stroke-width="0.5" stroke="black" fill="green"/>
   </g>
   <g id="cell7">
  <circle cx="495.215" cy="454.092" r="8.36822" stroke-width="0.5" stroke="black" fill="magenta"/>
  <circle cx="495.215" cy="454.092" r="5.03505" stroke-width="0.5" stroke="black" fill="magenta"/>
   </g>
   <g id="cell8">
  <circle cx="379.066" cy="553.025" r="8.38291" stroke-width="0.5" stroke="black" fill="magenta"/>
  <circle cx="379.066" cy="553.025" r="5.04103" stroke-width="0.5" stroke="black" fill="magenta"/>
   </g>
   <g id="cell161">
  <circle cx="452.513" cy="386.468" r="8.37253" stroke-width="0.5" stroke="black" fill="green"/>
  <circle cx="452.513" cy="386.468" r="5.03755" stroke-width="0.5" stroke="black" fill="green"/>
   </g>
   <g id="cell10">
  <circle cx="582.058" cy="388.971" r="5.57299" stroke-width="0.5" stroke="black" fill="magenta"/>
  <circle cx="582.058" cy="388.971" r="3.38301" stroke-width="0.5" stroke="black" fill="magenta"/>
   </g>
   <g id="cell11">
  <circle cx="590.641" cy="592.416" r="8.41271" stroke-width="0.5" stroke="black" fill="magenta"/>
  <circle cx="590.641" cy="592.416" r="5.05167" stroke-width="0.5" stroke="black" fill="magenta"/>
   </g>
   <g id="cell12">
  <circle cx="498.503" cy="594.57" r="8.40839" stroke-width="0.5" stroke="black" fill="magenta"/>
  <circle cx="498.503" cy="594.57" r="5.05043" stroke-width="0.5" stroke="black" fill="magenta"/>
   </g>
   <g id="cell13">
  <circle cx="383.837" cy="567.617" r="8.41271" stroke-width="0.5" stroke="black" fill="magenta"/>
  <circle cx="383.837" cy="567.617" r="5.05167" stroke-width="0.5" stroke="black" fill="magenta"/>
   </g>
   <g id="cell14">
  <circle cx="516.796" cy="404.256" r="8.41271" stroke-width="0.5" stroke="black" fill="magenta"/>
  <circle cx="516.796" cy="404.256" r="5.05167" stroke-width="0.5" stroke="black" fill="magenta"/>
   </g>
   <g id="cell15">
  <circle cx="381.995" cy="479.076" r="8.4103" stroke-width="0.5" stroke="black" fill="magenta"/>
  <circle cx="381.995" cy="479.076" r="5.05102" stroke-width="0.5" stroke="black" fill="magenta"/>
   </g>
   <g id="cell16">
  <circle cx="452.364" cy="417.681" r="8.06912" stroke-width="0.5" stroke="black" fill="magenta"/>
  <circle cx="452.364" cy="417.681" r="4.88812" stroke-width="0.5" stroke="black" fill="magenta"/>
   </g>
   <g id="cell17">
  <circle cx="582.994" cy="498" r="8.30618" stroke-width="0.5" stroke="black" fill="magenta"/>
  <circle cx="582.994" cy="498" r="5.00727" stroke-width="0.5" stroke="black" fill="magenta"/>
   </g>
   <g id="cell18">
  <circle cx="518.251" cy="389.031" r="8.41271" stroke-width="0.5" stroke="black" fill="magenta"/>
  <circle cx="518.251" cy="389.031" r="5.05167" stroke-width="0.5" stroke="black" fill="magenta"/>
   </g>
   <g id="cell19">
  <circle cx="457.563" cy="541.353" r="8.41216" stroke-width="0.5" stroke="black" fill="magenta"/>
  <circle cx="457.563" cy="541.353" r="5.05154" stroke-width="0.5" stroke="black" fill="magenta"/>
   </g>
   <g id="cell20">
  <circle cx="529.09" cy="413.085" r="8.41271" stroke-width="0.5" stroke="black" fill="magenta"/>
  <circle cx="529.09" cy="413.085" r="5.05167" stroke-width="0.5" stroke="black" fill="magenta"/>
   </g>
   <g id="cell21">
  <circle cx="467.715" cy="637.46" r="7.81315" stroke-width="0.5" stroke="black" fill="magenta"/>
  <circle cx="467.715" cy="637.46" r="4.74367" stroke-width="0.5" stroke="black" fill="magenta"/>
   </g>
   <g id="cell22">
  <circle cx="559.581" cy="488.843" r="7.95812" stroke-width="0.5" stroke="black" fill="magenta"/>
  <circle cx="559.581" cy="488.843" r="4.83196" stroke-width="0.5" stroke="black" fill="magenta"/>
   </g>
   <g id="cell23">
  <circle cx="554.302" cy="475.834" r="8.41271" stroke-width="0.5" stroke="black" fill="magenta"/>
  <circle cx="554.302" cy="475.834" r="5.05167" stroke-width="0.5" stroke="black" fill="magenta"/>
   </g>
   <g id="cell24">
  <circle cx="570.644" cy="385.105" r="8.41271" stroke-width="0.5" stroke="black" fill="magenta"/>
  <circle cx="570.644" cy="385.105" r="5.05167" stroke-width="0.5" stroke="black" fill="magenta"/>
   </g>
   <g id="cell25">
  <circle cx="643.435" cy="546.261" r="7.70046" stroke-width="0.5" stroke="black" fill="green"/>
  <circle cx="643.435" cy="546.261" r="4.67827" stroke-width="0.5" stroke="black" fill="green"/>
   </g>
   <g id="cell26">
  <circle cx="560.078" cy="396.373" r="8.41216" stroke-width="0.5" stroke="black" fill="green"/>
  <circle cx="560.078" cy="396.373" r="5.05154" stroke-width="0.5" stroke="black" fill="green"/>
   </g>
   <g id="cell27">
  <circle cx="461.993" cy="405.837" r="8.41268" stroke-width="0.5" stroke="black" fill="green"/>
  <circle cx="461.993" cy="405.837" r="5.05167" stroke-width="0.5" stroke="black" fill="green"/>
   </g>
   <g id="cell28">
  <circle cx="428.789" cy="543.325" r="8.39708" stroke-width="0.5" stroke="black" fill="green"/>
  <circle cx="428.789" cy="543.325" r="5.0465" stroke-width="0.5" stroke="black" fill="green"/>
   </g>
   <g id="cell220">
  <circle cx="588.668" cy="380.193" r="6.91843" stroke-width="0.5" stroke="black" fill="magenta"/>
  <circle cx="588.668" cy="380.193" r="4.18869" stroke-width="0.5" stroke="black" fill="magenta"/>
   </g>
   <g id="cell30">
  <circle cx="479.345" cy="536.693" r="8.40768" stroke-width="0.5" stroke="black" fill="green"/>
  <circle cx="479.345" cy="536.693" r="5.05021" stroke-width="0.5" stroke="black" fill="green"/>
   </g>
   <g id="cell31">
  <circle cx="412.84" cy="544.245" r="8.41271" stroke-width="0.5" stroke="black" fill="green"/>
  <circle cx="412.84" cy="544.245" r="5.05167" stroke-width="0.5" stroke="black" fill="green"/>
   </g>
   <g id="cell169">
  <circle cx="520.903" cy="502.702" r="8.36172" stroke-width="0.5" stroke="black" fill="cyan"/>
  <circle cx="520.903" cy="502.702" r="5.03226" stroke-width="0.5" stroke="black" fill="cyan"/>
   </g>
   <g id="cell33">
  <circle cx="495.993" cy="415.415" r="8.40683" stroke-width="0.5" stroke="black" fill="green"/>
  <circle cx="495.993" cy="415.415" r="5.04993" stroke-width="0.5" stroke="black" fill="green"/>
   </g>
   <g id="cell168">
  <circle cx="381.479" cy="517.957" r="2.95825" stroke-width="0.5" stroke="black" fill="cyan"/>
  <circle cx="381.479" cy="517.957" r="2.4452" stroke-width="0.5" stroke="black" fill="black"/>
   </g>
   <g id="cell35">
  <circle cx="556.573" cy="557.931" r="8.41271" stroke-width="0.5" stroke="black" fill="green"/>
  <circle cx="556.573" cy="557.931" r="5.05167" stroke-width="0.5" stroke="black" fill="green"/>
   </g>
   <g id="cell36">
  <circle cx="388.862" cy="582.544" r="8.38293" stroke-width="0.5" stroke="black" fill="green"/>
  <circle cx="388.862" cy="582.544" r="5.04171" stroke-width="0.5" stroke="black" fill="green"/>
   </g>
   <g id="cell37">
  <circle cx="642.416" cy="456.344" r="8.41268" stroke-width="0.5" stroke="black" fill="green"/>
  <circle cx="642.416" cy="456.344" r="5.05166" stroke-width="0.5" stroke="black" fill="green"/>
   </g>
   <g id="cell38">
  <circle cx="523.582" cy="586.019" r="8.38289" stroke-width="0.5" stroke="black" fill="green"/>
  <circle cx="523.582" cy="586.019" r="5.04102" stroke-width="0.5" stroke="black" fill="green"/>
   </g>
   <g id="cell39">
  <circle cx="612.575" cy="491.507" r="8.31209" stroke-width="0.5" stroke="black" fill="green"/>
  <circle cx="612.575" cy="491.507" r="5.01002" stroke-width="0.5" stroke="black" fill="green"/>
   </g>
   <g id="cell40">
  <circle cx="486.117" cy="567.411" r="8.39422" stroke-width="0.5" stroke="black" fill="green"/>
  <circle cx="486.117" cy="567.411" r="5.04543" stroke-width="0.5" stroke="black" fill="green"/>
   </g>
   <g id="cell41">
  <circle cx="366.981" cy="481.337" r="8.41271" stroke-width="0.5" stroke="black" fill="green"/>
  <circle cx="366.981" cy="481.337" r="5.05167" stroke-width="0.5" stroke="black" fill="green"/>
   </g>
   <g id="cell42">
  <circle cx="437.108" cy="490.342" r="8.41271" stroke-width="0.5" stroke="black" fill="green"/>
  <circle cx="437.108" cy="490.342" r="5.05167" stroke-width="0.5" stroke="black" fill="green"/>
   </g>
   <g id="cell43">
  <circle cx="565.488" cy="438.179" r="8.41271" stroke-width="0.5" stroke="black" fill="green"/>
  <circle cx="565.488" cy="438.179" r="5.05167" stroke-width="0.5" stroke="black" fill="green"/>
   </g>
   <g id="cell164">
  <circle cx="399.208" cy="570.499" r="8.37136" stroke-width="0.5" stroke="black" fill="green"/>
  <circle cx="399.208" cy="570.499" r="5.03691" stroke-width="0.5" stroke="black" fill="green"/>
   </g>
   <g id="cell145">
  <circle cx="409.669" cy="420.492" r="8.05962" stroke-width="0.5" stroke="black" fill="magenta"/>
  <circle cx="409.669" cy="420.492" r="4.88879" stroke-width="0.5" stroke="black" fill="magenta"/>
   </g>
   <g id="cell46">
  <circle cx="521.2" cy="619.399" r="6.69269" stroke-width="0.5" stroke="black" fill="green"/>
  <circle cx="521.2" cy="619.399" r="4.02047" stroke-width="0.5" stroke="black" fill="green"/>
   </g>
   <g id="cell47">
  <circle cx="484.23" cy="491.075" r="8.41255" stroke-width="0.5" stroke="black" fill="green"/>
  <circle cx="484.23" cy="491.075" r="5.05164" stroke-width="0.5" stroke="black" fill="green"/>
   </g>
   <g id="cell48">
  <circle cx="578.637" cy="603.712" r="8.41215" stroke-width="0.5" stroke="black" fill="green"/>
  <circle cx="578.637" cy="603.712" r="5.05154" stroke-width="0.5" stroke="black" fill="green"/>
   </g>
   <g id="cell49">
  <circle cx="437.157" cy="391.09" r="8.3632" stroke-width="0.5" stroke="black" fill="green"/>
  <circle cx="437.157" cy="391.09" r="5.03288" stroke-width="0.5" stroke="black" fill="green"/>
   </g>
   <g id="cell50">
  <circle cx="500.756" cy="512.894" r="8.41193" stroke-width="0.5" stroke="black" fill="cyan"/>
  <circle cx="500.756" cy="512.894" r="5.05148" stroke-width="0.5" stroke="black" fill="cyan"/>
   </g>
   <g id="cell51">
  <circle cx="401.029" cy="592.25" r="8.01277" stroke-width="0.5" stroke="black" fill="cyan"/>
  <circle cx="401.029" cy="592.25" r="4.85584" stroke-width="0.5" stroke="black" fill="cyan"/>
   </g>
   <g id="cell52">
  <circle cx="518.702" cy="414.673" r="3.04602" stroke-width="0.5" stroke="black" fill="cyan"/>
  <circle cx="518.702" cy="414.673" r="2.48703" stroke-width="0.5" stroke="black" fill="black"/>
   </g>
   <g id="cell53">
  <circle cx="573.375" cy="424.596" r="8.4125" stroke-width="0.5" stroke="black" fill="cyan"/>
  <circle cx="573.375" cy="424.596" r="5.05162" stroke-width="0.5" stroke="black" fill="cyan"/>
   </g>
   <g id="cell54">
  <circle cx="480.456" cy="416.112" r="8.41258" stroke-width="0.5" stroke="black" fill="cyan"/>
  <circle cx="480.456" cy="416.112" r="5.05164" stroke-width="0.5" stroke="black" fill="cyan"/>
   </g>
   <g id="cell55">
  <circle cx="522.339" cy="460.562" r="8.41251" stroke-width="0.5" stroke="black" fill="cyan"/>
  <circle cx="522.339" cy="460.562" r="5.05163" stroke-width="0.5" stroke="black" fill="cyan"/>
   </g>
   <g id="cell56">
  <circle cx="622.324" cy="521.498" r="8.41271" stroke-width="0.5" stroke="black" fill="cyan"/>
  <circle cx="622.324" cy="521.498" r="5.05167" stroke-width="0.5" stroke="black" fill="cyan"/>
   </g>
   <g id="cell105">
  <circle cx="503.414" cy="609.187" r="8.40631" stroke-width="0.5" stroke="black" fill="green"/>
  <circle cx="503.414" cy="609.187" r="5.0498" stroke-width="0.5" stroke="black" fill="green"/>
   </g>
   <g id="cell58">
  <circle cx="570.206" cy="473.261" r="8.39523" stroke-width="0.5" stroke="black" fill="cyan"/>
  <circle cx="570.206" cy="473.261" r="5.04581" stroke-width="0.5" stroke="black" fill="cyan"/>
   </g>
   <g id="cell59">
  <circle cx="385.732" cy="440.058" r="8.41271" stroke-width="0.5" stroke="black" fill="cyan"/>
  <circle cx="385.732" cy="440.058" r="5.05167" stroke-width="0.5" stroke="black" fill="cyan"/>
   </g>
   <g id="cell60">
  <circle cx="598.66" cy="464.536" r="8.34117" stroke-width="0.5" stroke="black" fill="cyan"/>
  <circle cx="598.66" cy="464.536" r="5.02327" stroke-width="0.5" stroke="black" fill="cyan"/>
   </g>
   <g id="cell186">
  <circle cx="354.924" cy="562.196" r="2.11906" stroke-width="0.5" stroke="black" fill="cyan"/>
  <circle cx="354.924" cy="562.196" r="1.97016" stroke-width="0.5" stroke="black" fill="black"/>
   </g>
   <g id="cell62">
  <circle cx="514.24" cy="433.997" r="8.33196" stroke-width="0.5" stroke="black" fill="cyan"/>
  <circle cx="514.24" cy="433.997" r="5.01926" stroke-width="0.5" stroke="black" fill="cyan"/>
   </g>
   <g id="cell63">
  <circle cx="584.782" cy="537.668" r="8.41005" stroke-width="0.5" stroke="black" fill="cyan"/>
  <circle cx="584.782" cy="537.668" r="5.05095" stroke-width="0.5" stroke="black" fill="cyan"/>
   </g>
   <g id="cell64">
  <circle cx="509.345" cy="637.841" r="8.41271" stroke-width="0.5" stroke="black" fill="cyan"/>
  <circle cx="509.345" cy="637.841" r="5.05167" stroke-width="0.5" stroke="black" fill="cyan"/>
   </g>
   <g id="cell65">
  <circle cx="545.007" cy="463.979" r="8.41262" stroke-width="0.5" stroke="black" fill="cyan"/>
  <circle cx="545.007" cy="463.979" r="5.05165" stroke-width="0.5" stroke="black" fill="cyan"/>
   </g>
   <g id="cell66">
  <circle cx="534.153" cy="536.044" r="8.41257" stroke-width="0.5" stroke="black" fill="cyan"/>
  <circle cx="534.153" cy="536.044" r="5.05164" stroke-width="0.5" stroke="black" fill="cyan"/>
   </g>
   <g id="cell67">
  <circle cx="349.083" cy="493.746" r="6.67717" stroke-width="0.5" stroke="black" fill="cyan"/>
  <circle cx="349.083" cy="493.746" r="4.00951" stroke-width="0.5" stroke="black" fill="cyan"/>
   </g>
   <g id="cell212">
  <circle cx="568.454" cy="499.027" r="7.5573" stroke-width="0.5" stroke="black" fill="magenta"/>
  <circle cx="568.454" cy="499.027" r="4.60756" stroke-width="0.5" stroke="black" fill="magenta"/>
   </g>
   <g id="cell69">
  <circle cx="443.447" cy="460.381" r="8.41271" stroke-width="0.5" stroke="black" fill="cyan"/>
  <circle cx="443.447" cy="460.381" r="5.05167" stroke-width="0.5" stroke="black" fill="cyan"/>
   </g>
   <g id="cell70">
  <circle cx="586.464" cy="479.442" r="8.41271" stroke-width="0.5" stroke="black" fill="cyan"/>
  <circle cx="586.464" cy="479.442" r="5.05167" stroke-width="0.5" stroke="black" fill="cyan"/>
   </g>
   <g id="cell71">
  <circle cx="381.326" cy="533.983" r="1.13535" stroke-width="0.5" stroke="black" fill="cyan"/>
  <circle cx="381.326" cy="533.983" r="1.13162" stroke-width="0.5" stroke="black" fill="black"/>
   </g>
   <g id="cell72">
  <circle cx="536.569" cy="501.763" r="8.36172" stroke-width="0.5" stroke="black" fill="cyan"/>
  <circle cx="536.569" cy="501.763" r="5.03226" stroke-width="0.5" stroke="black" fill="cyan"/>
   </g>
   <g id="cell73">
  <circle cx="364.114" cy="549.871" r="7.9543" stroke-width="0.5" stroke="black" fill="cyan"/>
  <circle cx="364.114" cy="549.871" r="4.83022" stroke-width="0.5" stroke="black" fill="cyan"/>
   </g>
   <g id="cell162">
  <circle cx="373.955" cy="538.656" r="8.38291" stroke-width="0.5" stroke="black" fill="magenta"/>
  <circle cx="373.955" cy="538.656" r="5.04103" stroke-width="0.5" stroke="black" fill="magenta"/>
   </g>
   <g id="cell75">
  <circle cx="528.802" cy="428.763" r="8.41268" stroke-width="0.5" stroke="black" fill="cyan"/>
  <circle cx="528.802" cy="428.763" r="5.05167" stroke-width="0.5" stroke="black" fill="cyan"/>
   </g>
   <g id="cell76">
  <circle cx="435.165" cy="375.443" r="8.41231" stroke-width="0.5" stroke="black" fill="green"/>
  <circle cx="435.165" cy="375.443" r="5.05158" stroke-width="0.5" stroke="black" fill="green"/>
   </g>
   <g id="cell77">
  <circle cx="469.117" cy="447.688" r="8.4124" stroke-width="0.5" stroke="black" fill="magenta"/>
  <circle cx="469.117" cy="447.688" r="5.0516" stroke-width="0.5" stroke="black" fill="magenta"/>
   </g>
   <g id="cell78">
  <circle cx="626.484" cy="455.007" r="8.41261" stroke-width="0.5" stroke="black" fill="green"/>
  <circle cx="626.484" cy="455.007" r="5.05165" stroke-width="0.5" stroke="black" fill="green"/>
   </g>
   <g id="cell79">
  <circle cx="517.796" cy="475.297" r="8.41267" stroke-width="0.5" stroke="black" fill="cyan"/>
  <circle cx="517.796" cy="475.297" r="5.05166" stroke-width="0.5" stroke="black" fill="cyan"/>
   </g>
   <g id="cell80">
  <circle cx="542.023" cy="632.616" r="8.16027" stroke-width="0.5" stroke="black" fill="green"/>
  <circle cx="542.023" cy="632.616" r="4.93489" stroke-width="0.5" stroke="black" fill="green"/>
   </g>
   <g id="cell81">
  <circle cx="554.662" cy="589.727" r="8.41265" stroke-width="0.5" stroke="black" fill="green"/>
  <circle cx="554.662" cy="589.727" r="5.05166" stroke-width="0.5" stroke="black" fill="green"/>
   </g>
   <g id="cell82">
  <circle cx="528.388" cy="560.743" r="8.40574" stroke-width="0.5" stroke="black" fill="magenta"/>
  <circle cx="528.388" cy="560.743" r="5.04957" stroke-width="0.5" stroke="black" fill="magenta"/>
   </g>
   <g id="cell211">
  <circle cx="449.813" cy="371.507" r="7.65696" stroke-width="0.5" stroke="black" fill="green"/>
  <circle cx="449.813" cy="371.507" r="4.6532" stroke-width="0.5" stroke="black" fill="green"/>
   </g>
   <g id="cell84">
  <circle cx="512.43" cy="489.916" r="8.28626" stroke-width="0.5" stroke="black" fill="cyan"/>
  <circle cx="512.43" cy="489.916" r="4.99785" stroke-width="0.5" stroke="black" fill="cyan"/>
   </g>
   <g id="cell85">
  <circle cx="345.287" cy="541.882" r="8.41252" stroke-width="0.5" stroke="black" fill="cyan"/>
  <circle cx="345.287" cy="541.882" r="5.05163" stroke-width="0.5" stroke="black" fill="cyan"/>
   </g>
   <g id="cell86">
  <circle cx="494.612" cy="538.907" r="8.41137" stroke-width="0.5" stroke="black" fill="magenta"/>
  <circle cx="494.612" cy="538.907" r="5.05133" stroke-width="0.5" stroke="black" fill="magenta"/>
   </g>
   <g id="cell87">
  <circle cx="572.207" cy="559.844" r="8.41244" stroke-width="0.5" stroke="black" fill="cyan"/>
  <circle cx="572.207" cy="559.844" r="5.05161" stroke-width="0.5" stroke="black" fill="cyan"/>
   </g>
   <g id="cell88">
  <circle cx="445.793" cy="533.905" r="7.28266" stroke-width="0.5" stroke="black" fill="magenta"/>
  <circle cx="445.793" cy="533.905" r="4.42993" stroke-width="0.5" stroke="black" fill="magenta"/>
   </g>
   <g id="cell89">
  <circle cx="554.043" cy="448.584" r="8.40386" stroke-width="0.5" stroke="black" fill="cyan"/>
  <circle cx="554.043" cy="448.584" r="5.04903" stroke-width="0.5" stroke="black" fill="cyan"/>
   </g>
   <g id="cell90">
  <circle cx="636.989" cy="471.539" r="8.41078" stroke-width="0.5" stroke="black" fill="green"/>
  <circle cx="636.989" cy="471.539" r="5.05117" stroke-width="0.5" stroke="black" fill="green"/>
   </g>
   <g id="cell91">
  <circle cx="542.921" cy="564.935" r="8.41254" stroke-width="0.5" stroke="black" fill="magenta"/>
  <circle cx="542.921" cy="564.935" r="5.05164" stroke-width="0.5" stroke="black" fill="magenta"/>
   </g>
   <g id="cell92">
  <circle cx="486.008" cy="551.583" r="8.4126" stroke-width="0.5" stroke="black" fill="green"/>
  <circle cx="486.008" cy="551.583" r="5.05165" stroke-width="0.5" stroke="black" fill="green"/>
   </g>
   <g id="cell93">
  <circle cx="539.374" cy="550.328" r="8.41254" stroke-width="0.5" stroke="black" fill="magenta"/>
  <circle cx="539.374" cy="550.328" r="5.05164" stroke-width="0.5" stroke="black" fill="magenta"/>
   </g>
   <g id="cell94">
  <circle cx="544.053" cy="487.649" r="8.41259" stroke-width="0.5" stroke="black" fill="cyan"/>
  <circle cx="544.053" cy="487.649" r="5.05164" stroke-width="0.5" stroke="black" fill="cyan"/>
   </g>
   <g id="cell95">
  <circle cx="466.27" cy="421.029" r="8.168" stroke-width="0.5" stroke="black" fill="cyan"/>
  <circle cx="466.27" cy="421.029" r="4.93876" stroke-width="0.5" stroke="black" fill="cyan"/>
   </g>
   <g id="cell96">
  <circle cx="553.479" cy="542.658" r="8.40908" stroke-width="0.5" stroke="black" fill="cyan"/>
  <circle cx="553.479" cy="542.658" r="5.05066" stroke-width="0.5" stroke="black" fill="cyan"/>
   </g>
   <g id="cell97">
  <circle cx="420.569" cy="464.198" r="8.41245" stroke-width="0.5" stroke="black" fill="green"/>
  <circle cx="420.569" cy="464.198" r="5.05162" stroke-width="0.5" stroke="black" fill="green"/>
   </g>
   <g id="cell98">
  <circle cx="489.559" cy="524.159" r="8.41109" stroke-width="0.5" stroke="black" fill="green"/>
  <circle cx="489.559" cy="524.159" r="5.05125" stroke-width="0.5" stroke="black" fill="green"/>
   </g>
   <g id="cell99">
  <circle cx="367.692" cy="524.452" r="8.41252" stroke-width="0.5" stroke="black" fill="cyan"/>
  <circle cx="367.692" cy="524.452" r="5.05163" stroke-width="0.5" stroke="black" fill="cyan"/>
   </g>
   <g id="cell100">
  <circle cx="445.905" cy="404.152" r="8.41251" stroke-width="0.5" stroke="black" fill="green"/>
  <circle cx="445.905" cy="404.152" r="5.05163" stroke-width="0.5" stroke="black" fill="green"/>
   </g>
   <g id="cell101">
  <circle cx="527.896" cy="488.77" r="8.2562" stroke-width="0.5" stroke="black" fill="cyan"/>
  <circle cx="527.896" cy="488.77" r="4.9837" stroke-width="0.5" stroke="black" fill="cyan"/>
   </g>
   <g id="cell102">
  <circle cx="442.252" cy="475.758" r="7.90838" stroke-width="0.5" stroke="black" fill="green"/>
  <circle cx="442.252" cy="475.758" r="4.79788" stroke-width="0.5" stroke="black" fill="green"/>
   </g>
   <g id="cell103">
  <circle cx="592.381" cy="450.035" r="8.41133" stroke-width="0.5" stroke="black" fill="cyan"/>
  <circle cx="592.381" cy="450.035" r="5.05132" stroke-width="0.5" stroke="black" fill="cyan"/>
   </g>
   <g id="cell104">
  <circle cx="608.538" cy="554.364" r="8.29501" stroke-width="0.5" stroke="black" fill="cyan"/>
  <circle cx="608.538" cy="554.364" r="5.00279" stroke-width="0.5" stroke="black" fill="cyan"/>
   </g>
   <g id="cell106">
  <circle cx="454.051" cy="449.098" r="8.4124" stroke-width="0.5" stroke="black" fill="magenta"/>
  <circle cx="454.051" cy="449.098" r="5.0516" stroke-width="0.5" stroke="black" fill="magenta"/>
   </g>
   <g id="cell107">
  <circle cx="467.804" cy="391.011" r="8.37253" stroke-width="0.5" stroke="black" fill="green"/>
  <circle cx="467.804" cy="391.011" r="5.03755" stroke-width="0.5" stroke="black" fill="green"/>
   </g>
   <g id="cell108">
  <circle cx="563.174" cy="609.904" r="8.41235" stroke-width="0.5" stroke="black" fill="green"/>
  <circle cx="563.174" cy="609.904" r="5.05159" stroke-width="0.5" stroke="black" fill="green"/>
   </g>
   <g id="cell109">
  <circle cx="575.768" cy="588.077" r="8.41215" stroke-width="0.5" stroke="black" fill="green"/>
  <circle cx="575.768" cy="588.077" r="5.05154" stroke-width="0.5" stroke="black" fill="green"/>
   </g>
   <g id="cell110">
  <circle cx="369.488" cy="508.562" r="8.41223" stroke-width="0.5" stroke="black" fill="cyan"/>
  <circle cx="369.488" cy="508.562" r="5.05156" stroke-width="0.5" stroke="black" fill="cyan"/>
   </g>
   <g id="cell111">
  <circle cx="456.232" cy="556.429" r="8.40867" stroke-width="0.5" stroke="black" fill="magenta"/>
  <circle cx="456.232" cy="556.429" r="5.05054" stroke-width="0.5" stroke="black" fill="magenta"/>
   </g>
   <g id="cell112">
  <circle cx="491.559" cy="468.77" r="8.40273" stroke-width="0.5" stroke="black" fill="magenta"/>
  <circle cx="491.559" cy="468.77" r="5.04856" stroke-width="0.5" stroke="black" fill="magenta"/>
   </g>
   <g id="cell113">
  <circle cx="546.857" cy="366.94" r="7.38289" stroke-width="0.5" stroke="black" fill="green"/>
  <circle cx="546.857" cy="366.94" r="4.48864" stroke-width="0.5" stroke="black" fill="green"/>
   </g>
   <g id="cell114">
  <circle cx="525.098" cy="444.355" r="8.41178" stroke-width="0.5" stroke="black" fill="cyan"/>
  <circle cx="525.098" cy="444.355" r="5.05145" stroke-width="0.5" stroke="black" fill="cyan"/>
   </g>
   <g id="cell115">
  <circle cx="538.766" cy="450.183" r="8.40939" stroke-width="0.5" stroke="black" fill="cyan"/>
  <circle cx="538.766" cy="450.183" r="5.05078" stroke-width="0.5" stroke="black" fill="cyan"/>
   </g>
   <g id="cell116">
  <circle cx="519.582" cy="531.865" r="8.31725" stroke-width="0.5" stroke="black" fill="cyan"/>
  <circle cx="519.582" cy="531.865" r="5.0125" stroke-width="0.5" stroke="black" fill="cyan"/>
   </g>
   <g id="cell117">
  <circle cx="497.197" cy="626.62" r="8.41167" stroke-width="0.5" stroke="black" fill="green"/>
  <circle cx="497.197" cy="626.62" r="5.05142" stroke-width="0.5" stroke="black" fill="green"/>
   </g>
   <g id="cell118">
  <circle cx="511.322" cy="450.859" r="8.41152" stroke-width="0.5" stroke="black" fill="cyan"/>
  <circle cx="511.322" cy="450.859" r="5.05137" stroke-width="0.5" stroke="black" fill="cyan"/>
   </g>
   <g id="cell119">
  <circle cx="548.299" cy="604.15" r="8.33195" stroke-width="0.5" stroke="black" fill="green"/>
  <circle cx="548.299" cy="604.15" r="5.01926" stroke-width="0.5" stroke="black" fill="green"/>
   </g>
   <g id="cell120">
  <circle cx="581.281" cy="438.623" r="8.41133" stroke-width="0.5" stroke="black" fill="cyan"/>
  <circle cx="581.281" cy="438.623" r="5.05132" stroke-width="0.5" stroke="black" fill="cyan"/>
   </g>
   <g id="cell121">
  <circle cx="453.894" cy="357.631" r="7.65696" stroke-width="0.5" stroke="black" fill="green"/>
  <circle cx="453.894" cy="357.631" r="4.6532" stroke-width="0.5" stroke="black" fill="green"/>
   </g>
   <g id="cell122">
  <circle cx="504.788" cy="528.026" r="8.41137" stroke-width="0.5" stroke="black" fill="magenta"/>
  <circle cx="504.788" cy="528.026" r="5.05133" stroke-width="0.5" stroke="black" fill="magenta"/>
   </g>
   <g id="cell123">
  <circle cx="486.055" cy="507.075" r="8.41109" stroke-width="0.5" stroke="black" fill="green"/>
  <circle cx="486.055" cy="507.075" r="5.05125" stroke-width="0.5" stroke="black" fill="green"/>
   </g>
   <g id="cell124">
  <circle cx="487.613" cy="428.85" r="8.20607" stroke-width="0.5" stroke="black" fill="magenta"/>
  <circle cx="487.613" cy="428.85" r="4.95845" stroke-width="0.5" stroke="black" fill="magenta"/>
   </g>
   <g id="cell125">
  <circle cx="625.857" cy="483.735" r="7.79451" stroke-width="0.5" stroke="black" fill="green"/>
  <circle cx="625.857" cy="483.735" r="4.73327" stroke-width="0.5" stroke="black" fill="green"/>
   </g>
   <g id="cell126">
  <circle cx="628.988" cy="566.353" r="8.41076" stroke-width="0.5" stroke="black" fill="green"/>
  <circle cx="628.988" cy="566.353" r="5.05116" stroke-width="0.5" stroke="black" fill="green"/>
   </g>
   <g id="cell127">
  <circle cx="431.515" cy="360.697" r="7.69876" stroke-width="0.5" stroke="black" fill="green"/>
  <circle cx="431.515" cy="360.697" r="4.67778" stroke-width="0.5" stroke="black" fill="green"/>
   </g>
   <g id="cell128">
  <circle cx="372.215" cy="467.347" r="8.4103" stroke-width="0.5" stroke="black" fill="magenta"/>
  <circle cx="372.215" cy="467.347" r="5.05102" stroke-width="0.5" stroke="black" fill="magenta"/>
   </g>
   <g id="cell129">
  <circle cx="569.873" cy="543.833" r="8.41005" stroke-width="0.5" stroke="black" fill="cyan"/>
  <circle cx="569.873" cy="543.833" r="5.05095" stroke-width="0.5" stroke="black" fill="cyan"/>
   </g>
   <g id="cell130">
  <circle cx="545.382" cy="435.932" r="8.40939" stroke-width="0.5" stroke="black" fill="cyan"/>
  <circle cx="545.382" cy="435.932" r="5.05078" stroke-width="0.5" stroke="black" fill="cyan"/>
   </g>
   <g id="cell131">
  <circle cx="545.46" cy="514.08" r="7.94349" stroke-width="0.5" stroke="black" fill="cyan"/>
  <circle cx="545.46" cy="514.08" r="4.83202" stroke-width="0.5" stroke="black" fill="cyan"/>
   </g>
   <g id="cell132">
  <circle cx="443.78" cy="547.797" r="8.40867" stroke-width="0.5" stroke="black" fill="magenta"/>
  <circle cx="443.78" cy="547.797" r="5.05054" stroke-width="0.5" stroke="black" fill="magenta"/>
   </g>
   <g id="cell133">
  <circle cx="582.984" cy="463.884" r="8.4089" stroke-width="0.5" stroke="black" fill="cyan"/>
  <circle cx="582.984" cy="463.884" r="5.0506" stroke-width="0.5" stroke="black" fill="cyan"/>
   </g>
   <g id="cell201">
  <circle cx="560.253" cy="523.6" r="7.94349" stroke-width="0.5" stroke="black" fill="cyan"/>
  <circle cx="560.253" cy="523.6" r="4.83202" stroke-width="0.5" stroke="black" fill="cyan"/>
   </g>
   <g id="cell135">
  <circle cx="508.236" cy="583.046" r="8.40839" stroke-width="0.5" stroke="black" fill="magenta"/>
  <circle cx="508.236" cy="583.046" r="5.05043" stroke-width="0.5" stroke="black" fill="magenta"/>
   </g>
   <g id="cell136">
  <circle cx="470.36" cy="549.929" r="8.40768" stroke-width="0.5" stroke="black" fill="green"/>
  <circle cx="470.36" cy="549.929" r="5.05021" stroke-width="0.5" stroke="black" fill="green"/>
   </g>
   <g id="cell137">
  <circle cx="488.162" cy="613.862" r="8.40631" stroke-width="0.5" stroke="black" fill="green"/>
  <circle cx="488.162" cy="613.862" r="5.0498" stroke-width="0.5" stroke="black" fill="green"/>
   </g>
   <g id="cell138">
  <circle cx="501.763" cy="400.716" r="8.40683" stroke-width="0.5" stroke="black" fill="green"/>
  <circle cx="501.763" cy="400.716" r="5.04993" stroke-width="0.5" stroke="black" fill="green"/>
   </g>
   <g id="cell139">
  <circle cx="415.183" cy="406.643" r="8.40596" stroke-width="0.5" stroke="black" fill="magenta"/>
  <circle cx="415.183" cy="406.643" r="5.04964" stroke-width="0.5" stroke="black" fill="magenta"/>
   </g>
   <g id="cell140">
  <circle cx="518.019" cy="571.637" r="8.39978" stroke-width="0.5" stroke="black" fill="magenta"/>
  <circle cx="518.019" cy="571.637" r="5.04766" stroke-width="0.5" stroke="black" fill="magenta"/>
   </g>
   <g id="cell141">
  <circle cx="572.651" cy="452.081" r="8.40386" stroke-width="0.5" stroke="black" fill="cyan"/>
  <circle cx="572.651" cy="452.081" r="5.04903" stroke-width="0.5" stroke="black" fill="cyan"/>
   </g>
   <g id="cell142">
  <circle cx="542.096" cy="421.076" r="8.31459" stroke-width="0.5" stroke="black" fill="green"/>
  <circle cx="542.096" cy="421.076" r="5.01284" stroke-width="0.5" stroke="black" fill="green"/>
   </g>
   <g id="cell143">
  <circle cx="430.324" cy="405.098" r="8.40177" stroke-width="0.5" stroke="black" fill="magenta"/>
  <circle cx="430.324" cy="405.098" r="5.04835" stroke-width="0.5" stroke="black" fill="magenta"/>
   </g>
   <g id="cell144">
  <circle cx="549.203" cy="407.702" r="8.38546" stroke-width="0.5" stroke="black" fill="green"/>
  <circle cx="549.203" cy="407.702" r="5.04254" stroke-width="0.5" stroke="black" fill="green"/>
   </g>
   <g id="cell185">
  <circle cx="598.959" cy="568.581" r="7.6903" stroke-width="0.5" stroke="black" fill="cyan"/>
  <circle cx="598.959" cy="568.581" r="4.68334" stroke-width="0.5" stroke="black" fill="cyan"/>
   </g>
   <g id="cell147">
  <circle cx="513.429" cy="557.409" r="8.39978" stroke-width="0.5" stroke="black" fill="magenta"/>
  <circle cx="513.429" cy="557.409" r="5.04766" stroke-width="0.5" stroke="black" fill="magenta"/>
   </g>
   <g id="cell148">
  <circle cx="506.183" cy="464.676" r="8.24858" stroke-width="0.5" stroke="black" fill="magenta"/>
  <circle cx="506.183" cy="464.676" r="4.98045" stroke-width="0.5" stroke="black" fill="magenta"/>
   </g>
   <g id="cell149">
  <circle cx="575.474" cy="399.635" r="8.40022" stroke-width="0.5" stroke="black" fill="magenta"/>
  <circle cx="575.474" cy="399.635" r="5.04764" stroke-width="0.5" stroke="black" fill="magenta"/>
   </g>
   <g id="cell150">
  <circle cx="411.457" cy="580.778" r="8.37136" stroke-width="0.5" stroke="black" fill="green"/>
  <circle cx="411.457" cy="580.778" r="5.03691" stroke-width="0.5" stroke="black" fill="green"/>
   </g>
   <g id="cell151">
  <circle cx="419.304" cy="529.766" r="8.39708" stroke-width="0.5" stroke="black" fill="green"/>
  <circle cx="419.304" cy="529.766" r="5.0465" stroke-width="0.5" stroke="black" fill="green"/>
   </g>
   <g id="cell152">
  <circle cx="373.395" cy="579.364" r="8.38918" stroke-width="0.5" stroke="black" fill="green"/>
  <circle cx="373.395" cy="579.364" r="5.04387" stroke-width="0.5" stroke="black" fill="green"/>
   </g>
   <g id="cell153">
  <circle cx="560.506" cy="461.998" r="8.39523" stroke-width="0.5" stroke="black" fill="cyan"/>
  <circle cx="560.506" cy="461.998" r="5.04581" stroke-width="0.5" stroke="black" fill="cyan"/>
   </g>
   <g id="cell154">
  <circle cx="386.848" cy="598.54" r="8.38293" stroke-width="0.5" stroke="black" fill="green"/>
  <circle cx="386.848" cy="598.54" r="5.04171" stroke-width="0.5" stroke="black" fill="green"/>
   </g>
   <g id="cell155">
  <circle cx="488.273" cy="583.079" r="8.39422" stroke-width="0.5" stroke="black" fill="green"/>
  <circle cx="488.273" cy="583.079" r="5.04543" stroke-width="0.5" stroke="black" fill="green"/>
   </g>
   <g id="cell156">
  <circle cx="457.499" cy="526.17" r="8.39418" stroke-width="0.5" stroke="black" fill="magenta"/>
  <circle cx="457.499" cy="526.17" r="5.04542" stroke-width="0.5" stroke="black" fill="magenta"/>
   </g>
   <g id="cell157">
  <circle cx="443.708" cy="519.971" r="8.3833" stroke-width="0.5" stroke="black" fill="magenta"/>
  <circle cx="443.708" cy="519.971" r="5.04168" stroke-width="0.5" stroke="black" fill="magenta"/>
   </g>
   <g id="cell158">
  <circle cx="564.762" cy="411.305" r="8.38662" stroke-width="0.5" stroke="black" fill="green"/>
  <circle cx="564.762" cy="411.305" r="5.04299" stroke-width="0.5" stroke="black" fill="green"/>
   </g>
   <g id="cell159">
  <circle cx="530.504" cy="397.997" r="8.11321" stroke-width="0.5" stroke="black" fill="green"/>
  <circle cx="530.504" cy="397.997" r="4.91712" stroke-width="0.5" stroke="black" fill="green"/>
   </g>
   <g id="cell160">
  <circle cx="464.416" cy="375.523" r="8.38883" stroke-width="0.5" stroke="black" fill="green"/>
  <circle cx="464.416" cy="375.523" r="5.04347" stroke-width="0.5" stroke="black" fill="green"/>
   </g>
   <g id="cell165">
  <circle cx="607.845" cy="526.471" r="8.16752" stroke-width="0.5" stroke="black" fill="magenta"/>
  <circle cx="607.845" cy="526.471" r="4.94145" stroke-width="0.5" stroke="black" fill="magenta"/>
   </g>
   <g id="cell166">
  <circle cx="480.216" cy="458.777" r="8.36822" stroke-width="0.5" stroke="black" fill="magenta"/>
  <circle cx="480.216" cy="458.777" r="5.03505" stroke-width="0.5" stroke="black" fill="magenta"/>
   </g>
   <g id="cell167">
  <circle cx="421.338" cy="392.412" r="8.3632" stroke-width="0.5" stroke="black" fill="green"/>
  <circle cx="421.338" cy="392.412" r="5.03288" stroke-width="0.5" stroke="black" fill="green"/>
   </g>
   <g id="cell170">
  <circle cx="460.181" cy="503.386" r="8.35236" stroke-width="0.5" stroke="black" fill="green"/>
  <circle cx="460.181" cy="503.386" r="5.02821" stroke-width="0.5" stroke="black" fill="green"/>
   </g>
   <g id="cell171">
  <circle cx="602.135" cy="479.843" r="8.34117" stroke-width="0.5" stroke="black" fill="cyan"/>
  <circle cx="602.135" cy="479.843" r="5.02327" stroke-width="0.5" stroke="black" fill="cyan"/>
   </g>
   <g id="cell172">
  <circle cx="552.053" cy="500.887" r="8.28068" stroke-width="0.5" stroke="black" fill="magenta"/>
  <circle cx="552.053" cy="500.887" r="4.99791" stroke-width="0.5" stroke="black" fill="magenta"/>
   </g>
   <g id="cell173">
  <circle cx="531.219" cy="520.582" r="8.33072" stroke-width="0.5" stroke="black" fill="cyan"/>
  <circle cx="531.219" cy="520.582" r="5.01889" stroke-width="0.5" stroke="black" fill="cyan"/>
   </g>
   <g id="cell174">
  <circle cx="494.161" cy="438.673" r="5.77442" stroke-width="0.5" stroke="black" fill="cyan"/>
  <circle cx="494.161" cy="438.673" r="3.51837" stroke-width="0.5" stroke="black" fill="cyan"/>
   </g>
   <g id="cell175">
  <circle cx="525.003" cy="606.641" r="8.01123" stroke-width="0.5" stroke="black" fill="green"/>
  <circle cx="525.003" cy="606.641" r="4.86618" stroke-width="0.5" stroke="black" fill="green"/>
   </g>
   <g id="cell176">
  <circle cx="557.162" cy="425.08" r="8.31459" stroke-width="0.5" stroke="black" fill="green"/>
  <circle cx="557.162" cy="425.08" r="5.01284" stroke-width="0.5" stroke="black" fill="green"/>
   </g>
   <g id="cell177">
  <circle cx="368.743" cy="564.415" r="8.25325" stroke-width="0.5" stroke="black" fill="cyan"/>
  <circle cx="368.743" cy="564.415" r="4.98517" stroke-width="0.5" stroke="black" fill="cyan"/>
   </g>
   <g id="cell178">
  <circle cx="562.372" cy="510.303" r="7.5573" stroke-width="0.5" stroke="black" fill="magenta"/>
  <circle cx="562.372" cy="510.303" r="4.60756" stroke-width="0.5" stroke="black" fill="magenta"/>
   </g>
   <g id="cell179">
  <circle cx="515.752" cy="517.118" r="8.31725" stroke-width="0.5" stroke="black" fill="cyan"/>
  <circle cx="515.752" cy="517.118" r="5.0125" stroke-width="0.5" stroke="black" fill="cyan"/>
   </g>
   <g id="cell180">
  <circle cx="619.847" cy="505.549" r="8.31209" stroke-width="0.5" stroke="black" fill="green"/>
  <circle cx="619.847" cy="505.549" r="5.01002" stroke-width="0.5" stroke="black" fill="green"/>
   </g>
   <g id="cell181">
  <circle cx="565.054" cy="531.871" r="2.51349" stroke-width="0.5" stroke="black" fill="cyan"/>
  <circle cx="565.054" cy="531.871" r="2.21468" stroke-width="0.5" stroke="black" fill="black"/>
   </g>
   <g id="cell182">
  <circle cx="532.514" cy="382.723" r="8.29523" stroke-width="0.5" stroke="black" fill="green"/>
  <circle cx="532.514" cy="382.723" r="5.00397" stroke-width="0.5" stroke="black" fill="green"/>
   </g>
   <g id="cell183">
  <circle cx="580.161" cy="520.888" r="6.91369" stroke-width="0.5" stroke="black" fill="magenta"/>
  <circle cx="580.161" cy="520.888" r="4.20216" stroke-width="0.5" stroke="black" fill="magenta"/>
   </g>
   <g id="cell184">
  <circle cx="431.337" cy="430.818" r="8.13363" stroke-width="0.5" stroke="black" fill="magenta"/>
  <circle cx="431.337" cy="430.818" r="4.92721" stroke-width="0.5" stroke="black" fill="magenta"/>
   </g>
   <g id="cell187">
  <circle cx="498.697" cy="497.171" r="8.28626" stroke-width="0.5" stroke="black" fill="cyan"/>
  <circle cx="498.697" cy="497.171" r="4.99785" stroke-width="0.5" stroke="black" fill="cyan"/>
   </g>
   <g id="cell188">
  <circle cx="534.778" cy="618.907" r="8.22095" stroke-width="0.5" stroke="black" fill="green"/>
  <circle cx="534.778" cy="618.907" r="4.96964" stroke-width="0.5" stroke="black" fill="green"/>
   </g>
   <g id="cell189">
  <circle cx="534.093" cy="474.899" r="8.2562" stroke-width="0.5" stroke="black" fill="cyan"/>
  <circle cx="534.093" cy="474.899" r="4.9837" stroke-width="0.5" stroke="black" fill="cyan"/>
   </g>
   <g id="cell190">
  <circle cx="546.785" cy="528.738" r="8.18345" stroke-width="0.5" stroke="black" fill="cyan"/>
  <circle cx="546.785" cy="528.738" r="4.95346" stroke-width="0.5" stroke="black" fill="cyan"/>
   </g>
   <g id="cell191">
  <circle cx="502.55" cy="478.78" r="8.24858" stroke-width="0.5" stroke="black" fill="magenta"/>
  <circle cx="502.55" cy="478.78" r="4.98045" stroke-width="0.5" stroke="black" fill="magenta"/>
   </g>
   <g id="cell192">
  <circle cx="474.158" cy="433.423" r="8.20607" stroke-width="0.5" stroke="black" fill="magenta"/>
  <circle cx="474.158" cy="433.423" r="4.95845" stroke-width="0.5" stroke="black" fill="magenta"/>
   </g>
   <g id="cell193">
  <circle cx="438.189" cy="417.763" r="8.13363" stroke-width="0.5" stroke="black" fill="magenta"/>
  <circle cx="438.189" cy="417.763" r="4.92721" stroke-width="0.5" stroke="black" fill="magenta"/>
   </g>
   <g id="cell194">
  <circle cx="602.118" cy="512.896" r="8.16752" stroke-width="0.5" stroke="black" fill="magenta"/>
  <circle cx="602.118" cy="512.896" r="4.94145" stroke-width="0.5" stroke="black" fill="magenta"/>
   </g>
   <g id="cell195">
  <circle cx="544.711" cy="393.122" r="8.11321" stroke-width="0.5" stroke="black" fill="green"/>
  <circle cx="544.711" cy="393.122" r="4.91712" stroke-width="0.5" stroke="black" fill="green"/>
   </g>
   <g id="cell196">
  <circle cx="459.679" cy="435.11" r="8.168" stroke-width="0.5" stroke="black" fill="cyan"/>
  <circle cx="459.679" cy="435.11" r="4.93876" stroke-width="0.5" stroke="black" fill="cyan"/>
   </g>
   <g id="cell197">
  <circle cx="550.31" cy="619.498" r="8.16027" stroke-width="0.5" stroke="black" fill="green"/>
  <circle cx="550.31" cy="619.498" r="4.93489" stroke-width="0.5" stroke="black" fill="green"/>
   </g>
   <g id="cell198">
  <circle cx="423.883" cy="418.444" r="8.05962" stroke-width="0.5" stroke="black" fill="magenta"/>
  <circle cx="423.883" cy="418.444" r="4.88879" stroke-width="0.5" stroke="black" fill="magenta"/>
   </g>
   <g id="cell199">
  <circle cx="535.276" cy="596.056" r="8.01123" stroke-width="0.5" stroke="black" fill="green"/>
  <circle cx="535.276" cy="596.056" r="4.86618" stroke-width="0.5" stroke="black" fill="green"/>
   </g>
   <g id="cell200">
  <circle cx="445.707" cy="430.454" r="8.06912" stroke-width="0.5" stroke="black" fill="magenta"/>
  <circle cx="445.707" cy="430.454" r="4.88812" stroke-width="0.5" stroke="black" fill="magenta"/>
   </g>
   <g id="cell202">
  <circle cx="402.411" cy="607.354" r="8.01277" stroke-width="0.5" stroke="black" fill="cyan"/>
  <circle cx="402.411" cy="607.354" r="4.85584" stroke-width="0.5" stroke="black" fill="cyan"/>
   </g>
   <g id="cell203">
  <circle cx="362.925" cy="537.645" r="3.46122" stroke-width="0.5" stroke="black" fill="cyan"/>
  <circle cx="362.925" cy="537.645" r="2.62209" stroke-width="0.5" stroke="black" fill="black"/>
   </g>
   <g id="cell204">
  <circle cx="573.811" cy="486.975" r="7.95812" stroke-width="0.5" stroke="black" fill="magenta"/>
  <circle cx="573.811" cy="486.975" r="4.83196" stroke-width="0.5" stroke="black" fill="magenta"/>
   </g>
   <g id="cell205">
  <circle cx="427.416" cy="478.15" r="7.90838" stroke-width="0.5" stroke="black" fill="green"/>
  <circle cx="427.416" cy="478.15" r="4.79788" stroke-width="0.5" stroke="black" fill="green"/>
   </g>
   <g id="cell206">
  <circle cx="465.493" cy="623.585" r="7.81315" stroke-width="0.5" stroke="black" fill="magenta"/>
  <circle cx="465.493" cy="623.585" r="4.74367" stroke-width="0.5" stroke="black" fill="magenta"/>
   </g>
   <g id="cell207">
  <circle cx="621.734" cy="469.598" r="7.79451" stroke-width="0.5" stroke="black" fill="green"/>
  <circle cx="621.734" cy="469.598" r="4.73327" stroke-width="0.5" stroke="black" fill="green"/>
   </g>
   <g id="cell208">
  <circle cx="583.337" cy="551.553" r="6.5482" stroke-width="0.5" stroke="black" fill="cyan"/>
  <circle cx="583.337" cy="551.553" r="4.01833" stroke-width="0.5" stroke="black" fill="cyan"/>
   </g>
   <g id="cell209">
  <circle cx="441.469" cy="350.059" r="7.69876" stroke-width="0.5" stroke="black" fill="green"/>
  <circle cx="441.469" cy="350.059" r="4.67778" stroke-width="0.5" stroke="black" fill="green"/>
   </g>
   <g id="cell210">
  <circle cx="655.77" cy="538.406" r="7.70046" stroke-width="0.5" stroke="black" fill="green"/>
  <circle cx="655.77" cy="538.406" r="4.67827" stroke-width="0.5" stroke="black" fill="green"/>
   </g>
   <g id="cell213">
  <circle cx="557.559" cy="382.543" r="6.5313" stroke-width="0.5" stroke="black" fill="green"/>
  <circle cx="557.559" cy="382.543" r="4.00921" stroke-width="0.5" stroke="black" fill="green"/>
   </g>
   <g id="cell214">
  <circle cx="501.496" cy="428.613" r="7.24869" stroke-width="0.5" stroke="black" fill="cyan"/>
  <circle cx="501.496" cy="428.613" r="4.41476" stroke-width="0.5" stroke="black" fill="cyan"/>
   </g>
   <g id="cell215">
  <circle cx="433.617" cy="529.739" r="7.28266" stroke-width="0.5" stroke="black" fill="magenta"/>
  <circle cx="433.617" cy="529.739" r="4.42993" stroke-width="0.5" stroke="black" fill="magenta"/>
   </g>
   <g id="cell216">
  <circle cx="544.617" cy="579.193" r="7.22232" stroke-width="0.5" stroke="black" fill="green"/>
  <circle cx="544.617" cy="579.193" r="4.39179" stroke-width="0.5" stroke="black" fill="green"/>
   </g>
   <g id="cell217">
  <circle cx="545.967" cy="379.745" r="6.5313" stroke-width="0.5" stroke="black" fill="green"/>
  <circle cx="545.967" cy="379.745" r="4.00921" stroke-width="0.5" stroke="black" fill="green"/>
   </g>
   <g id="cell218">
  <circle cx="594.727" cy="555.901" r="6.5482" stroke-width="0.5" stroke="black" fill="cyan"/>
  <circle cx="594.727" cy="555.901" r="4.01833" stroke-width="0.5" stroke="black" fill="cyan"/>
   </g>
   <g id="cell219">
  <circle cx="575.568" cy="509.518" r="6.91369" stroke-width="0.5" stroke="black" fill="magenta"/>
  <circle cx="575.568" cy="509.518" r="4.20216" stroke-width="0.5" stroke="black" fill="magenta"/>
   </g>
   <g id="cell221">
  <circle cx="588.003" cy="396.668" r="5.57299" stroke-width="0.5" stroke="black" fill="magenta"/>
  <circle cx="588.003" cy="396.668" r="3.38301" stroke-width="0.5" stroke="black" fill="magenta"/>
   </g>
   <g id="cell222">
  <circle cx="502.795" cy="442.754" r="5.77442" stroke-width="0.5" stroke="black" fill="cyan"/>
  <circle cx="502.795" cy="442.754" r="3.51837" stroke-width="0.5" stroke="black" fill="cyan"/>
   </g>
   <g id="cell223">
  <circle cx="509.669" cy="621.732" r="6.69269" stroke-width="0.5" stroke="black" fill="green"/>
  <circle cx="509.669" cy="621.732" r="4.02047" stroke-width="0.5" stroke="black" fill="green"/>
   </g>
   <g id="cell224">
  <circle cx="360.684" cy="492.796" r="6.67717" stroke-width="0.5" stroke="black" fill="cyan"/>
  <circle cx="360.684" cy="492.796" r="4.00951" stroke-width="0.5" stroke="black" fill="cyan"/>
   </g>
  </g>
 </g>
  <rect x="775" y="1035" width="200" height="10" stroke-width="2" stroke="rgb(255,255,255)" fill="rgb(0,0,0)"/>
  <text x="781.25" y="1028.75"
   font-family="Arial" font-size="25" fill="black" >
   200 &#956;m
  </text>
  <text x="25" y="1045"
   font-family="Arial" font-size="18.75" fill="black" >
   0 days, 0 hours, 0 minutes, and 51.4136 seconds
  </text>
  <rect x="0" y="70" width="1000" height="1000" stroke-width="2" stroke="rgb(0,0,0)" fill="none"/>
</svg>
