<?xml version="1.0" encoding="UTF-8" standalone="no"?>
<!-- Created with PhysiCell (http://PhysiCell.MathCancer.org/) -->
<svg 
 xmlns:dc="http://purl.org/dc/elements/1.1/" 
 xmlns:cc="http://creativecommons.org/ns#" 
 xmlns:rdf="http://www.w3.org/1999/02/22-rdf-syntax-ns#" 
 xmlns:svg="http://www.w3.org/2000/svg" 
 xmlns="http://www.w3.org/2000/svg" 
 version="1.1" 
 width="1000" 
 height="1070" 
 id="svg2">
  <rect x="0" y="0" width="1000" height="1070" stroke-width="2" stroke="white" fill="white"/>
  <text x="12.5" y="30"
   font-family="Arial" font-size="25" fill="black" >
   Current time: 0 days, 6 hours, and 0.00 minutes, z = 0.00 &#956;m
  </text>
  <text x="12.5" y="57.5"
   font-family="Arial" font-size="23.75" fill="black" >
   91 agents
  </text>
 <g id="tissue" 
    transform="translate(0,1070) scale(1,-1)">
  <g id="ECM">
  </g>
  <g id="cells">
   <g id="cell0">
  <circle cx="511.887" cy="537.325" r="7.44242" stroke-width="0.5" stroke="black" fill="magenta"/>
  <circle cx="511.887" cy="537.325" r="4.52373" stroke-width="0.5" stroke="black" fill="magenta"/>
   </g>
   <g id="cell1">
  <circle cx="603.017" cy="527.525" r="8.41271" stroke-width="0.5" stroke="black" fill="magenta"/>
  <circle cx="603.017" cy="527.525" r="5.05167" stroke-width="0.5" stroke="black" fill="magenta"/>
   </g>
   <g id="cell2">
  <circle cx="510.885" cy="600.593" r="8.41271" stroke-width="0.5" stroke="black" fill="magenta"/>
  <circle cx="510.885" cy="600.593" r="5.05167" stroke-width="0.5" stroke="black" fill="magenta"/>
   </g>
   <g id="cell3">
  <circle cx="525.119" cy="542.473" r="8.41271" stroke-width="0.5" stroke="black" fill="magenta"/>
  <circle cx="525.119" cy="542.473" r="5.05167" stroke-width="0.5" stroke="black" fill="magenta"/>
   </g>
   <g id="cell4">
  <circle cx="483.453" cy="437.926" r="8.41271" stroke-width="0.5" stroke="black" fill="magenta"/>
  <circle cx="483.453" cy="437.926" r="5.05167" stroke-width="0.5" stroke="black" fill="magenta"/>
   </g>
   <g id="cell5">
  <circle cx="461.436" cy="496.792" r="7.86286" stroke-width="0.5" stroke="black" fill="magenta"/>
  <circle cx="461.436" cy="496.792" r="4.77207" stroke-width="0.5" stroke="black" fill="magenta"/>
   </g>
   <g id="cell6">
  <circle cx="594.978" cy="511.353" r="8.41271" stroke-width="0.5" stroke="black" fill="magenta"/>
  <circle cx="594.978" cy="511.353" r="5.05167" stroke-width="0.5" stroke="black" fill="magenta"/>
   </g>
   <g id="cell7">
  <circle cx="512.142" cy="464.765" r="8.41271" stroke-width="0.5" stroke="black" fill="magenta"/>
  <circle cx="512.142" cy="464.765" r="5.05167" stroke-width="0.5" stroke="black" fill="magenta"/>
   </g>
   <g id="cell8">
  <circle cx="383.561" cy="541.832" r="7.38797" stroke-width="0.5" stroke="black" fill="magenta"/>
  <circle cx="383.561" cy="541.832" r="4.49029" stroke-width="0.5" stroke="black" fill="magenta"/>
   </g>
   <g id="cell9">
  <circle cx="460.472" cy="599.786" r="8.41271" stroke-width="0.5" stroke="black" fill="magenta"/>
  <circle cx="460.472" cy="599.786" r="5.05167" stroke-width="0.5" stroke="black" fill="magenta"/>
   </g>
   <g id="cell10">
  <circle cx="583.447" cy="392.105" r="8.41271" stroke-width="0.5" stroke="black" fill="magenta"/>
  <circle cx="583.447" cy="392.105" r="5.05167" stroke-width="0.5" stroke="black" fill="magenta"/>
   </g>
   <g id="cell11">
  <circle cx="589.748" cy="590.273" r="8.41271" stroke-width="0.5" stroke="black" fill="magenta"/>
  <circle cx="589.748" cy="590.273" r="5.05167" stroke-width="0.5" stroke="black" fill="magenta"/>
   </g>
   <g id="cell12">
  <circle cx="506.637" cy="586.055" r="8.41271" stroke-width="0.5" stroke="black" fill="magenta"/>
  <circle cx="506.637" cy="586.055" r="5.05167" stroke-width="0.5" stroke="black" fill="magenta"/>
   </g>
   <g id="cell13">
  <circle cx="386.192" cy="568.226" r="8.41271" stroke-width="0.5" stroke="black" fill="magenta"/>
  <circle cx="386.192" cy="568.226" r="5.05167" stroke-width="0.5" stroke="black" fill="magenta"/>
   </g>
   <g id="cell14">
  <circle cx="528.12" cy="400.817" r="8.41271" stroke-width="0.5" stroke="black" fill="magenta"/>
  <circle cx="528.12" cy="400.817" r="5.05167" stroke-width="0.5" stroke="black" fill="magenta"/>
   </g>
   <g id="cell15">
  <circle cx="378.849" cy="475.354" r="8.41271" stroke-width="0.5" stroke="black" fill="magenta"/>
  <circle cx="378.849" cy="475.354" r="5.05167" stroke-width="0.5" stroke="black" fill="magenta"/>
   </g>
   <g id="cell16">
  <circle cx="428.96" cy="413.217" r="8.41271" stroke-width="0.5" stroke="black" fill="magenta"/>
  <circle cx="428.96" cy="413.217" r="5.05167" stroke-width="0.5" stroke="black" fill="magenta"/>
   </g>
   <g id="cell17">
  <circle cx="574.691" cy="489.954" r="8.41271" stroke-width="0.5" stroke="black" fill="magenta"/>
  <circle cx="574.691" cy="489.954" r="5.05167" stroke-width="0.5" stroke="black" fill="magenta"/>
   </g>
   <g id="cell18">
  <circle cx="518.002" cy="389.535" r="8.41271" stroke-width="0.5" stroke="black" fill="magenta"/>
  <circle cx="518.002" cy="389.535" r="5.05167" stroke-width="0.5" stroke="black" fill="magenta"/>
   </g>
   <g id="cell19">
  <circle cx="451.991" cy="536.582" r="8.41271" stroke-width="0.5" stroke="black" fill="magenta"/>
  <circle cx="451.991" cy="536.582" r="5.05167" stroke-width="0.5" stroke="black" fill="magenta"/>
   </g>
   <g id="cell20">
  <circle cx="528.838" cy="415.971" r="8.41271" stroke-width="0.5" stroke="black" fill="magenta"/>
  <circle cx="528.838" cy="415.971" r="5.05167" stroke-width="0.5" stroke="black" fill="magenta"/>
   </g>
   <g id="cell21">
  <circle cx="464.368" cy="634.574" r="8.41271" stroke-width="0.5" stroke="black" fill="magenta"/>
  <circle cx="464.368" cy="634.574" r="5.05167" stroke-width="0.5" stroke="black" fill="magenta"/>
   </g>
   <g id="cell22">
  <circle cx="560.32" cy="492.892" r="7.95045" stroke-width="0.5" stroke="black" fill="magenta"/>
  <circle cx="560.32" cy="492.892" r="4.82139" stroke-width="0.5" stroke="black" fill="magenta"/>
   </g>
   <g id="cell23">
  <circle cx="537.056" cy="481.989" r="8.41271" stroke-width="0.5" stroke="black" fill="magenta"/>
  <circle cx="537.056" cy="481.989" r="5.05167" stroke-width="0.5" stroke="black" fill="magenta"/>
   </g>
   <g id="cell24">
  <circle cx="559.286" cy="379.794" r="8.41271" stroke-width="0.5" stroke="black" fill="magenta"/>
  <circle cx="559.286" cy="379.794" r="5.05167" stroke-width="0.5" stroke="black" fill="magenta"/>
   </g>
   <g id="cell25">
  <circle cx="640.943" cy="550.03" r="8.41271" stroke-width="0.5" stroke="black" fill="green"/>
  <circle cx="640.943" cy="550.03" r="5.05167" stroke-width="0.5" stroke="black" fill="green"/>
   </g>
   <g id="cell26">
  <circle cx="551.155" cy="401.257" r="8.41271" stroke-width="0.5" stroke="black" fill="green"/>
  <circle cx="551.155" cy="401.257" r="5.05167" stroke-width="0.5" stroke="black" fill="green"/>
   </g>
   <g id="cell27">
  <circle cx="457.446" cy="388.678" r="8.41271" stroke-width="0.5" stroke="black" fill="green"/>
  <circle cx="457.446" cy="388.678" r="5.05167" stroke-width="0.5" stroke="black" fill="green"/>
   </g>
   <g id="cell28">
  <circle cx="437.414" cy="531.024" r="8.41271" stroke-width="0.5" stroke="black" fill="green"/>
  <circle cx="437.414" cy="531.024" r="5.05167" stroke-width="0.5" stroke="black" fill="green"/>
   </g>
   <g id="cell29">
  <circle cx="450.003" cy="521.109" r="8.41271" stroke-width="0.5" stroke="black" fill="green"/>
  <circle cx="450.003" cy="521.109" r="5.05167" stroke-width="0.5" stroke="black" fill="green"/>
   </g>
   <g id="cell30">
  <circle cx="481.58" cy="540.282" r="8.41271" stroke-width="0.5" stroke="black" fill="green"/>
  <circle cx="481.58" cy="540.282" r="5.05167" stroke-width="0.5" stroke="black" fill="green"/>
   </g>
   <g id="cell31">
  <circle cx="412.757" cy="541.193" r="8.41271" stroke-width="0.5" stroke="black" fill="green"/>
  <circle cx="412.757" cy="541.193" r="5.05167" stroke-width="0.5" stroke="black" fill="green"/>
   </g>
   <g id="cell32">
  <circle cx="425.371" cy="474.829" r="8.41271" stroke-width="0.5" stroke="black" fill="green"/>
  <circle cx="425.371" cy="474.829" r="5.05167" stroke-width="0.5" stroke="black" fill="green"/>
   </g>
   <g id="cell33">
  <circle cx="493.06" cy="425.635" r="8.41271" stroke-width="0.5" stroke="black" fill="green"/>
  <circle cx="493.06" cy="425.635" r="5.05167" stroke-width="0.5" stroke="black" fill="green"/>
   </g>
   <g id="cell34">
  <circle cx="397.088" cy="450.831" r="8.41271" stroke-width="0.5" stroke="black" fill="green"/>
  <circle cx="397.088" cy="450.831" r="5.05167" stroke-width="0.5" stroke="black" fill="green"/>
   </g>
   <g id="cell35">
  <circle cx="555.298" cy="543.665" r="7.97646" stroke-width="0.5" stroke="black" fill="green"/>
  <circle cx="555.298" cy="543.665" r="4.83584" stroke-width="0.5" stroke="black" fill="green"/>
   </g>
   <g id="cell36">
  <circle cx="391.486" cy="582.902" r="8.41271" stroke-width="0.5" stroke="black" fill="green"/>
  <circle cx="391.486" cy="582.902" r="5.05167" stroke-width="0.5" stroke="black" fill="green"/>
   </g>
   <g id="cell37">
  <circle cx="633.491" cy="456.093" r="6.86652" stroke-width="0.5" stroke="black" fill="green"/>
  <circle cx="633.491" cy="456.093" r="4.14883" stroke-width="0.5" stroke="black" fill="green"/>
   </g>
   <g id="cell38">
  <circle cx="536.158" cy="601.905" r="8.41271" stroke-width="0.5" stroke="black" fill="green"/>
  <circle cx="536.158" cy="601.905" r="5.05167" stroke-width="0.5" stroke="black" fill="green"/>
   </g>
   <g id="cell39">
  <circle cx="618.334" cy="493.646" r="7.33129" stroke-width="0.5" stroke="black" fill="green"/>
  <circle cx="618.334" cy="493.646" r="4.45516" stroke-width="0.5" stroke="black" fill="green"/>
   </g>
   <g id="cell40">
  <circle cx="487.21" cy="576.841" r="7.81315" stroke-width="0.5" stroke="black" fill="green"/>
  <circle cx="487.21" cy="576.841" r="4.74367" stroke-width="0.5" stroke="black" fill="green"/>
   </g>
   <g id="cell41">
  <circle cx="368.424" cy="484.835" r="6.89675" stroke-width="0.5" stroke="black" fill="green"/>
  <circle cx="368.424" cy="484.835" r="4.17024" stroke-width="0.5" stroke="black" fill="green"/>
   </g>
   <g id="cell42">
  <circle cx="438.842" cy="494.268" r="8.41271" stroke-width="0.5" stroke="black" fill="green"/>
  <circle cx="438.842" cy="494.268" r="5.05167" stroke-width="0.5" stroke="black" fill="green"/>
   </g>
   <g id="cell43">
  <circle cx="556.557" cy="440.674" r="7.63698" stroke-width="0.5" stroke="black" fill="green"/>
  <circle cx="556.557" cy="440.674" r="4.64085" stroke-width="0.5" stroke="black" fill="green"/>
   </g>
   <g id="cell44">
  <circle cx="475.857" cy="624.021" r="8.41271" stroke-width="0.5" stroke="black" fill="green"/>
  <circle cx="475.857" cy="624.021" r="5.05167" stroke-width="0.5" stroke="black" fill="green"/>
   </g>
   <g id="cell45">
  <circle cx="414.953" cy="557.066" r="8.41271" stroke-width="0.5" stroke="black" fill="green"/>
  <circle cx="414.953" cy="557.066" r="5.05167" stroke-width="0.5" stroke="black" fill="green"/>
   </g>
   <g id="cell46">
  <circle cx="522.765" cy="610.705" r="8.41271" stroke-width="0.5" stroke="black" fill="green"/>
  <circle cx="522.765" cy="610.705" r="5.05167" stroke-width="0.5" stroke="black" fill="green"/>
   </g>
   <g id="cell47">
  <circle cx="506.068" cy="505.355" r="7.86286" stroke-width="0.5" stroke="black" fill="green"/>
  <circle cx="506.068" cy="505.355" r="4.77207" stroke-width="0.5" stroke="black" fill="green"/>
   </g>
   <g id="cell48">
  <circle cx="564.51" cy="602.793" r="8.41271" stroke-width="0.5" stroke="black" fill="green"/>
  <circle cx="564.51" cy="602.793" r="5.05167" stroke-width="0.5" stroke="black" fill="green"/>
   </g>
   <g id="cell49">
  <circle cx="429.826" cy="397.641" r="8.41271" stroke-width="0.5" stroke="black" fill="green"/>
  <circle cx="429.826" cy="397.641" r="5.05167" stroke-width="0.5" stroke="black" fill="green"/>
   </g>
   <g id="cell50">
  <circle cx="518.481" cy="514.046" r="8.41271" stroke-width="0.5" stroke="black" fill="cyan"/>
  <circle cx="518.481" cy="514.046" r="5.05167" stroke-width="0.5" stroke="black" fill="cyan"/>
   </g>
   <g id="cell51">
  <circle cx="398.721" cy="597.2" r="8.41271" stroke-width="0.5" stroke="black" fill="cyan"/>
  <circle cx="398.721" cy="597.2" r="5.05167" stroke-width="0.5" stroke="black" fill="cyan"/>
   </g>
   <g id="cell52">
  <circle cx="524.721" cy="425.214" r="2.5701" stroke-width="0.5" stroke="black" fill="cyan"/>
  <circle cx="524.721" cy="425.214" r="2.25579" stroke-width="0.5" stroke="black" fill="black"/>
   </g>
   <g id="cell53">
  <circle cx="571.084" cy="436.157" r="8.41271" stroke-width="0.5" stroke="black" fill="cyan"/>
  <circle cx="571.084" cy="436.157" r="5.05167" stroke-width="0.5" stroke="black" fill="cyan"/>
   </g>
   <g id="cell54">
  <circle cx="477.159" cy="423.653" r="8.41271" stroke-width="0.5" stroke="black" fill="cyan"/>
  <circle cx="477.159" cy="423.653" r="5.05167" stroke-width="0.5" stroke="black" fill="cyan"/>
   </g>
   <g id="cell55">
  <circle cx="526.688" cy="470.373" r="8.41271" stroke-width="0.5" stroke="black" fill="cyan"/>
  <circle cx="526.688" cy="470.373" r="5.05167" stroke-width="0.5" stroke="black" fill="cyan"/>
   </g>
   <g id="cell56">
  <circle cx="617.747" cy="522.295" r="8.41271" stroke-width="0.5" stroke="black" fill="cyan"/>
  <circle cx="617.747" cy="522.295" r="5.05167" stroke-width="0.5" stroke="black" fill="cyan"/>
   </g>
   <g id="cell57">
  <circle cx="416.924" cy="617.466" r="8.41271" stroke-width="0.5" stroke="black" fill="cyan"/>
  <circle cx="416.924" cy="617.466" r="5.05167" stroke-width="0.5" stroke="black" fill="cyan"/>
   </g>
   <g id="cell58">
  <circle cx="552.548" cy="479.81" r="8.41271" stroke-width="0.5" stroke="black" fill="cyan"/>
  <circle cx="552.548" cy="479.81" r="5.05167" stroke-width="0.5" stroke="black" fill="cyan"/>
   </g>
   <g id="cell59">
  <circle cx="385.463" cy="439.803" r="8.41271" stroke-width="0.5" stroke="black" fill="cyan"/>
  <circle cx="385.463" cy="439.803" r="5.05167" stroke-width="0.5" stroke="black" fill="cyan"/>
   </g>
   <g id="cell60">
  <circle cx="593.238" cy="473.68" r="8.41271" stroke-width="0.5" stroke="black" fill="cyan"/>
  <circle cx="593.238" cy="473.68" r="5.05167" stroke-width="0.5" stroke="black" fill="cyan"/>
   </g>
   <g id="cell61">
  <circle cx="552.987" cy="613.93" r="8.41271" stroke-width="0.5" stroke="black" fill="cyan"/>
  <circle cx="552.987" cy="613.93" r="5.05167" stroke-width="0.5" stroke="black" fill="cyan"/>
   </g>
   <g id="cell62">
  <circle cx="526.497" cy="443.937" r="8.41271" stroke-width="0.5" stroke="black" fill="cyan"/>
  <circle cx="526.497" cy="443.937" r="5.05167" stroke-width="0.5" stroke="black" fill="cyan"/>
   </g>
   <g id="cell63">
  <circle cx="582.564" cy="548.267" r="7.63698" stroke-width="0.5" stroke="black" fill="cyan"/>
  <circle cx="582.564" cy="548.267" r="4.64085" stroke-width="0.5" stroke="black" fill="cyan"/>
   </g>
   <g id="cell64">
  <circle cx="509.962" cy="636.825" r="8.41271" stroke-width="0.5" stroke="black" fill="cyan"/>
  <circle cx="509.962" cy="636.825" r="5.05167" stroke-width="0.5" stroke="black" fill="cyan"/>
   </g>
   <g id="cell65">
  <circle cx="542.443" cy="467.368" r="8.41271" stroke-width="0.5" stroke="black" fill="cyan"/>
  <circle cx="542.443" cy="467.368" r="5.05167" stroke-width="0.5" stroke="black" fill="cyan"/>
   </g>
   <g id="cell66">
  <circle cx="546.72" cy="533.007" r="6.92764" stroke-width="0.5" stroke="black" fill="cyan"/>
  <circle cx="546.72" cy="533.007" r="4.1918" stroke-width="0.5" stroke="black" fill="cyan"/>
   </g>
   <g id="cell67">
  <circle cx="359.258" cy="495.428" r="7.9229" stroke-width="0.5" stroke="black" fill="cyan"/>
  <circle cx="359.258" cy="495.428" r="4.80599" stroke-width="0.5" stroke="black" fill="cyan"/>
   </g>
   <g id="cell68">
  <circle cx="564.462" cy="555.895" r="8.41271" stroke-width="0.5" stroke="black" fill="cyan"/>
  <circle cx="564.462" cy="555.895" r="5.05167" stroke-width="0.5" stroke="black" fill="cyan"/>
   </g>
   <g id="cell69">
  <circle cx="437.64" cy="464.521" r="8.41271" stroke-width="0.5" stroke="black" fill="cyan"/>
  <circle cx="437.64" cy="464.521" r="5.05167" stroke-width="0.5" stroke="black" fill="cyan"/>
   </g>
   <g id="cell70">
  <circle cx="577.23" cy="474.579" r="8.41271" stroke-width="0.5" stroke="black" fill="cyan"/>
  <circle cx="577.23" cy="474.579" r="5.05167" stroke-width="0.5" stroke="black" fill="cyan"/>
   </g>
   <g id="cell71">
  <circle cx="377.712" cy="520.989" r="8.41271" stroke-width="0.5" stroke="black" fill="cyan"/>
  <circle cx="377.712" cy="520.989" r="5.05167" stroke-width="0.5" stroke="black" fill="cyan"/>
   </g>
   <g id="cell72">
  <circle cx="533.184" cy="518.172" r="8.01277" stroke-width="0.5" stroke="black" fill="cyan"/>
  <circle cx="533.184" cy="518.172" r="4.85584" stroke-width="0.5" stroke="black" fill="cyan"/>
   </g>
   <g id="cell73">
  <circle cx="349.08" cy="547.78" r="7.24243" stroke-width="0.5" stroke="black" fill="cyan"/>
  <circle cx="349.08" cy="547.78" r="4.39934" stroke-width="0.5" stroke="black" fill="cyan"/>
   </g>
   <g id="cell74">
  <circle cx="542.342" cy="446.077" r="8.41271" stroke-width="0.5" stroke="black" fill="cyan"/>
  <circle cx="542.342" cy="446.077" r="5.05167" stroke-width="0.5" stroke="black" fill="cyan"/>
   </g>
   <g id="cell75">
  <circle cx="534.972" cy="503.072" r="8.01277" stroke-width="0.5" stroke="black" fill="cyan"/>
  <circle cx="534.972" cy="503.072" r="4.85584" stroke-width="0.5" stroke="black" fill="cyan"/>
   </g>
   <g id="cell76">
  <circle cx="540.112" cy="545.879" r="7.97646" stroke-width="0.5" stroke="black" fill="green"/>
  <circle cx="540.112" cy="545.879" r="4.83584" stroke-width="0.5" stroke="black" fill="green"/>
   </g>
   <g id="cell77">
  <circle cx="546.12" cy="493.517" r="7.95045" stroke-width="0.5" stroke="black" fill="magenta"/>
  <circle cx="546.12" cy="493.517" r="4.82139" stroke-width="0.5" stroke="black" fill="magenta"/>
   </g>
   <g id="cell78">
  <circle cx="346.978" cy="486.724" r="7.9229" stroke-width="0.5" stroke="black" fill="cyan"/>
  <circle cx="346.978" cy="486.724" r="4.80599" stroke-width="0.5" stroke="black" fill="cyan"/>
   </g>
   <g id="cell79">
  <circle cx="491.3" cy="504.751" r="7.86286" stroke-width="0.5" stroke="black" fill="green"/>
  <circle cx="491.3" cy="504.751" r="4.77207" stroke-width="0.5" stroke="black" fill="green"/>
   </g>
   <g id="cell80">
  <circle cx="471.582" cy="486.94" r="7.86286" stroke-width="0.5" stroke="black" fill="magenta"/>
  <circle cx="471.582" cy="486.94" r="4.77207" stroke-width="0.5" stroke="black" fill="magenta"/>
   </g>
   <g id="cell81">
  <circle cx="482.121" cy="562.891" r="7.81315" stroke-width="0.5" stroke="black" fill="green"/>
  <circle cx="482.121" cy="562.891" r="4.74367" stroke-width="0.5" stroke="black" fill="green"/>
   </g>
   <g id="cell82">
  <circle cx="569.85" cy="541.431" r="7.63698" stroke-width="0.5" stroke="black" fill="cyan"/>
  <circle cx="569.85" cy="541.431" r="4.64085" stroke-width="0.5" stroke="black" fill="cyan"/>
   </g>
   <g id="cell83">
  <circle cx="559.413" cy="454.89" r="7.63698" stroke-width="0.5" stroke="black" fill="green"/>
  <circle cx="559.413" cy="454.89" r="4.64085" stroke-width="0.5" stroke="black" fill="green"/>
   </g>
   <g id="cell84">
  <circle cx="521.749" cy="528.28" r="7.44242" stroke-width="0.5" stroke="black" fill="magenta"/>
  <circle cx="521.749" cy="528.28" r="4.52373" stroke-width="0.5" stroke="black" fill="magenta"/>
   </g>
   <g id="cell85">
  <circle cx="372.657" cy="549.395" r="7.38797" stroke-width="0.5" stroke="black" fill="magenta"/>
  <circle cx="372.657" cy="549.395" r="4.49029" stroke-width="0.5" stroke="black" fill="magenta"/>
   </g>
   <g id="cell86">
  <circle cx="606.538" cy="486.249" r="7.33129" stroke-width="0.5" stroke="black" fill="green"/>
  <circle cx="606.538" cy="486.249" r="4.45516" stroke-width="0.5" stroke="black" fill="green"/>
   </g>
   <g id="cell87">
  <circle cx="361.448" cy="541.863" r="7.24243" stroke-width="0.5" stroke="black" fill="cyan"/>
  <circle cx="361.448" cy="541.863" r="4.39934" stroke-width="0.5" stroke="black" fill="cyan"/>
   </g>
   <g id="cell88">
  <circle cx="534.171" cy="532.012" r="6.92764" stroke-width="0.5" stroke="black" fill="cyan"/>
  <circle cx="534.171" cy="532.012" r="4.1918" stroke-width="0.5" stroke="black" fill="cyan"/>
   </g>
   <g id="cell89">
  <circle cx="359.951" cy="474.909" r="6.89675" stroke-width="0.5" stroke="black" fill="green"/>
  <circle cx="359.951" cy="474.909" r="4.17024" stroke-width="0.5" stroke="black" fill="green"/>
   </g>
   <g id="cell90">
  <circle cx="637.293" cy="468.556" r="6.86652" stroke-width="0.5" stroke="black" fill="green"/>
  <circle cx="637.293" cy="468.556" r="4.14883" stroke-width="0.5" stroke="black" fill="green"/>
   </g>
  </g>
 </g>
  <rect x="775" y="1035" width="200" height="10" stroke-width="2" stroke="rgb(255,255,255)" fill="rgb(0,0,0)"/>
  <text x="781.25" y="1028.75"
   font-family="Arial" font-size="25" fill="black" >
   200 &#956;m
  </text>
  <text x="25" y="1045"
   font-family="Arial" font-size="18.75" fill="black" >
   0 days, 0 hours, 0 minutes, and 6.3440 seconds
  </text>
  <rect x="0" y="70" width="1000" height="1000" stroke-width="2" stroke="rgb(0,0,0)" fill="none"/>
</svg>
