<?xml version="1.0" encoding="UTF-8" standalone="no"?>
<!-- Created with PhysiCell (http://PhysiCell.MathCancer.org/) -->
<svg 
 xmlns:dc="http://purl.org/dc/elements/1.1/" 
 xmlns:cc="http://creativecommons.org/ns#" 
 xmlns:rdf="http://www.w3.org/1999/02/22-rdf-syntax-ns#" 
 xmlns:svg="http://www.w3.org/2000/svg" 
 xmlns="http://www.w3.org/2000/svg" 
 version="1.1" 
 width="1000" 
 height="1070" 
 id="svg2">
  <rect x="0" y="0" width="1000" height="1070" stroke-width="2" stroke="white" fill="white"/>
  <text x="12.5" y="30"
   font-family="Arial" font-size="25" fill="black" >
   Current time: 1 days, 7 hours, and 0.00 minutes, z = 0.00 &#956;m
  </text>
  <text x="12.5" y="57.5"
   font-family="Arial" font-size="23.75" fill="black" >
   177 agents
  </text>
 <g id="tissue" 
    transform="translate(0,1070) scale(1,-1)">
  <g id="ECM">
  </g>
  <g id="cells">
   <g id="cell0">
  <circle cx="512.612" cy="537.161" r="8.41147" stroke-width="0.5" stroke="black" fill="magenta"/>
  <circle cx="512.612" cy="537.161" r="5.05136" stroke-width="0.5" stroke="black" fill="magenta"/>
   </g>
   <g id="cell1">
  <circle cx="593.903" cy="526.847" r="7.65871" stroke-width="0.5" stroke="black" fill="magenta"/>
  <circle cx="593.903" cy="526.847" r="4.6537" stroke-width="0.5" stroke="black" fill="magenta"/>
   </g>
   <g id="cell2">
  <circle cx="517.655" cy="598.774" r="8.41271" stroke-width="0.5" stroke="black" fill="magenta"/>
  <circle cx="517.655" cy="598.774" r="5.05167" stroke-width="0.5" stroke="black" fill="magenta"/>
   </g>
   <g id="cell3">
  <circle cx="524.005" cy="547.024" r="8.41069" stroke-width="0.5" stroke="black" fill="magenta"/>
  <circle cx="524.005" cy="547.024" r="5.05115" stroke-width="0.5" stroke="black" fill="magenta"/>
   </g>
   <g id="cell4">
  <circle cx="486.202" cy="447.795" r="8.38506" stroke-width="0.5" stroke="black" fill="magenta"/>
  <circle cx="486.202" cy="447.795" r="5.04193" stroke-width="0.5" stroke="black" fill="magenta"/>
   </g>
   <g id="cell5">
  <circle cx="466.375" cy="491.134" r="8.41271" stroke-width="0.5" stroke="black" fill="magenta"/>
  <circle cx="466.375" cy="491.134" r="5.05167" stroke-width="0.5" stroke="black" fill="magenta"/>
   </g>
   <g id="cell163">
  <circle cx="538.662" cy="577.336" r="7.84637" stroke-width="0.5" stroke="black" fill="green"/>
  <circle cx="538.662" cy="577.336" r="4.7628" stroke-width="0.5" stroke="black" fill="green"/>
   </g>
   <g id="cell7">
  <circle cx="496.832" cy="457.473" r="7.56256" stroke-width="0.5" stroke="black" fill="magenta"/>
  <circle cx="496.832" cy="457.473" r="4.59803" stroke-width="0.5" stroke="black" fill="magenta"/>
   </g>
   <g id="cell8">
  <circle cx="378.503" cy="550.149" r="7.84675" stroke-width="0.5" stroke="black" fill="magenta"/>
  <circle cx="378.503" cy="550.149" r="4.7629" stroke-width="0.5" stroke="black" fill="magenta"/>
   </g>
   <g id="cell161">
  <circle cx="450.932" cy="382.398" r="7.62716" stroke-width="0.5" stroke="black" fill="green"/>
  <circle cx="450.932" cy="382.398" r="4.65751" stroke-width="0.5" stroke="black" fill="green"/>
   </g>
   <g id="cell10">
  <circle cx="585.978" cy="389.489" r="8.18177" stroke-width="0.5" stroke="black" fill="magenta"/>
  <circle cx="585.978" cy="389.489" r="4.94584" stroke-width="0.5" stroke="black" fill="magenta"/>
   </g>
   <g id="cell11">
  <circle cx="592.101" cy="590.052" r="8.41271" stroke-width="0.5" stroke="black" fill="magenta"/>
  <circle cx="592.101" cy="590.052" r="5.05167" stroke-width="0.5" stroke="black" fill="magenta"/>
   </g>
   <g id="cell12">
  <circle cx="503.903" cy="592.602" r="8.33481" stroke-width="0.5" stroke="black" fill="magenta"/>
  <circle cx="503.903" cy="592.602" r="5.02043" stroke-width="0.5" stroke="black" fill="magenta"/>
   </g>
   <g id="cell13">
  <circle cx="385.55" cy="566.789" r="8.41271" stroke-width="0.5" stroke="black" fill="magenta"/>
  <circle cx="385.55" cy="566.789" r="5.05167" stroke-width="0.5" stroke="black" fill="magenta"/>
   </g>
   <g id="cell14">
  <circle cx="520.614" cy="404.723" r="8.41271" stroke-width="0.5" stroke="black" fill="magenta"/>
  <circle cx="520.614" cy="404.723" r="5.05167" stroke-width="0.5" stroke="black" fill="magenta"/>
   </g>
   <g id="cell15">
  <circle cx="381.834" cy="479.103" r="8.36972" stroke-width="0.5" stroke="black" fill="magenta"/>
  <circle cx="381.834" cy="479.103" r="5.03563" stroke-width="0.5" stroke="black" fill="magenta"/>
   </g>
   <g id="cell16">
  <circle cx="443.264" cy="419.491" r="8.15973" stroke-width="0.5" stroke="black" fill="magenta"/>
  <circle cx="443.264" cy="419.491" r="4.94228" stroke-width="0.5" stroke="black" fill="magenta"/>
   </g>
   <g id="cell17">
  <circle cx="572.665" cy="492.456" r="6.69288" stroke-width="0.5" stroke="black" fill="magenta"/>
  <circle cx="572.665" cy="492.456" r="4.02051" stroke-width="0.5" stroke="black" fill="magenta"/>
   </g>
   <g id="cell18">
  <circle cx="519.195" cy="389.6" r="8.41271" stroke-width="0.5" stroke="black" fill="magenta"/>
  <circle cx="519.195" cy="389.6" r="5.05167" stroke-width="0.5" stroke="black" fill="magenta"/>
   </g>
   <g id="cell19">
  <circle cx="458.362" cy="540.764" r="8.40305" stroke-width="0.5" stroke="black" fill="magenta"/>
  <circle cx="458.362" cy="540.764" r="5.04871" stroke-width="0.5" stroke="black" fill="magenta"/>
   </g>
   <g id="cell20">
  <circle cx="531.814" cy="415.386" r="8.41271" stroke-width="0.5" stroke="black" fill="magenta"/>
  <circle cx="531.814" cy="415.386" r="5.05167" stroke-width="0.5" stroke="black" fill="magenta"/>
   </g>
   <g id="cell21">
  <circle cx="466.883" cy="632.265" r="8.41271" stroke-width="0.5" stroke="black" fill="magenta"/>
  <circle cx="466.883" cy="632.265" r="5.05167" stroke-width="0.5" stroke="black" fill="magenta"/>
   </g>
   <g id="cell22">
  <circle cx="560.314" cy="493.223" r="6.99069" stroke-width="0.5" stroke="black" fill="magenta"/>
  <circle cx="560.314" cy="493.223" r="4.23498" stroke-width="0.5" stroke="black" fill="magenta"/>
   </g>
   <g id="cell23">
  <circle cx="551.498" cy="482.338" r="8.41271" stroke-width="0.5" stroke="black" fill="magenta"/>
  <circle cx="551.498" cy="482.338" r="5.05167" stroke-width="0.5" stroke="black" fill="magenta"/>
   </g>
   <g id="cell24">
  <circle cx="560.718" cy="384.039" r="8.41271" stroke-width="0.5" stroke="black" fill="magenta"/>
  <circle cx="560.718" cy="384.039" r="5.05167" stroke-width="0.5" stroke="black" fill="magenta"/>
   </g>
   <g id="cell25">
  <circle cx="648.236" cy="543.204" r="8.41194" stroke-width="0.5" stroke="black" fill="green"/>
  <circle cx="648.236" cy="543.204" r="5.05148" stroke-width="0.5" stroke="black" fill="green"/>
   </g>
   <g id="cell26">
  <circle cx="557.769" cy="399.302" r="8.403" stroke-width="0.5" stroke="black" fill="green"/>
  <circle cx="557.769" cy="399.302" r="5.04863" stroke-width="0.5" stroke="black" fill="green"/>
   </g>
   <g id="cell27">
  <circle cx="463.905" cy="404.997" r="8.41223" stroke-width="0.5" stroke="black" fill="green"/>
  <circle cx="463.905" cy="404.997" r="5.05156" stroke-width="0.5" stroke="black" fill="green"/>
   </g>
   <g id="cell28">
  <circle cx="430.779" cy="538.147" r="8.1218" stroke-width="0.5" stroke="black" fill="green"/>
  <circle cx="430.779" cy="538.147" r="4.91457" stroke-width="0.5" stroke="black" fill="green"/>
   </g>
   <g id="cell29">
  <circle cx="449.272" cy="512.586" r="7.27253" stroke-width="0.5" stroke="black" fill="green"/>
  <circle cx="449.272" cy="512.586" r="4.41835" stroke-width="0.5" stroke="black" fill="green"/>
   </g>
   <g id="cell30">
  <circle cx="482.76" cy="537.232" r="8.32196" stroke-width="0.5" stroke="black" fill="green"/>
  <circle cx="482.76" cy="537.232" r="5.01477" stroke-width="0.5" stroke="black" fill="green"/>
   </g>
   <g id="cell31">
  <circle cx="411.861" cy="542.784" r="8.41271" stroke-width="0.5" stroke="black" fill="green"/>
  <circle cx="411.861" cy="542.784" r="5.05167" stroke-width="0.5" stroke="black" fill="green"/>
   </g>
   <g id="cell169">
  <circle cx="527.664" cy="492.786" r="7.44104" stroke-width="0.5" stroke="black" fill="cyan"/>
  <circle cx="527.664" cy="492.786" r="4.52333" stroke-width="0.5" stroke="black" fill="cyan"/>
   </g>
   <g id="cell33">
  <circle cx="501.049" cy="422.326" r="8.30618" stroke-width="0.5" stroke="black" fill="green"/>
  <circle cx="501.049" cy="422.326" r="5.00727" stroke-width="0.5" stroke="black" fill="green"/>
   </g>
   <g id="cell168">
  <circle cx="382.619" cy="517.429" r="7.46343" stroke-width="0.5" stroke="black" fill="cyan"/>
  <circle cx="382.619" cy="517.429" r="4.53804" stroke-width="0.5" stroke="black" fill="cyan"/>
   </g>
   <g id="cell35">
  <circle cx="554.893" cy="546.075" r="8.41271" stroke-width="0.5" stroke="black" fill="green"/>
  <circle cx="554.893" cy="546.075" r="5.05167" stroke-width="0.5" stroke="black" fill="green"/>
   </g>
   <g id="cell36">
  <circle cx="385.336" cy="582.118" r="7.84039" stroke-width="0.5" stroke="black" fill="green"/>
  <circle cx="385.336" cy="582.118" r="4.77888" stroke-width="0.5" stroke="black" fill="green"/>
   </g>
   <g id="cell37">
  <circle cx="640.209" cy="457.073" r="8.41216" stroke-width="0.5" stroke="black" fill="green"/>
  <circle cx="640.209" cy="457.073" r="5.05154" stroke-width="0.5" stroke="black" fill="green"/>
   </g>
   <g id="cell38">
  <circle cx="530.028" cy="589.739" r="7.84637" stroke-width="0.5" stroke="black" fill="green"/>
  <circle cx="530.028" cy="589.739" r="4.7628" stroke-width="0.5" stroke="black" fill="green"/>
   </g>
   <g id="cell39">
  <circle cx="609.925" cy="485.87" r="6.73287" stroke-width="0.5" stroke="black" fill="green"/>
  <circle cx="609.925" cy="485.87" r="4.05039" stroke-width="0.5" stroke="black" fill="green"/>
   </g>
   <g id="cell40">
  <circle cx="485.776" cy="567.719" r="8.06667" stroke-width="0.5" stroke="black" fill="green"/>
  <circle cx="485.776" cy="567.719" r="4.88515" stroke-width="0.5" stroke="black" fill="green"/>
   </g>
   <g id="cell41">
  <circle cx="366.568" cy="482.115" r="8.41271" stroke-width="0.5" stroke="black" fill="green"/>
  <circle cx="366.568" cy="482.115" r="5.05167" stroke-width="0.5" stroke="black" fill="green"/>
   </g>
   <g id="cell42">
  <circle cx="438.331" cy="491.679" r="8.41271" stroke-width="0.5" stroke="black" fill="green"/>
  <circle cx="438.331" cy="491.679" r="5.05167" stroke-width="0.5" stroke="black" fill="green"/>
   </g>
   <g id="cell43">
  <circle cx="562.936" cy="440.344" r="8.41271" stroke-width="0.5" stroke="black" fill="green"/>
  <circle cx="562.936" cy="440.344" r="5.05167" stroke-width="0.5" stroke="black" fill="green"/>
   </g>
   <g id="cell164">
  <circle cx="398.056" cy="575.098" r="7.60852" stroke-width="0.5" stroke="black" fill="green"/>
  <circle cx="398.056" cy="575.098" r="4.64188" stroke-width="0.5" stroke="black" fill="green"/>
   </g>
   <g id="cell145">
  <circle cx="420.93" cy="419.661" r="6.47638" stroke-width="0.5" stroke="black" fill="magenta"/>
  <circle cx="420.93" cy="419.661" r="3.92269" stroke-width="0.5" stroke="black" fill="magenta"/>
   </g>
   <g id="cell46">
  <circle cx="518.777" cy="616.218" r="8.40839" stroke-width="0.5" stroke="black" fill="green"/>
  <circle cx="518.777" cy="616.218" r="5.05043" stroke-width="0.5" stroke="black" fill="green"/>
   </g>
   <g id="cell47">
  <circle cx="498.299" cy="493.882" r="8.41002" stroke-width="0.5" stroke="black" fill="green"/>
  <circle cx="498.299" cy="493.882" r="5.05093" stroke-width="0.5" stroke="black" fill="green"/>
   </g>
   <g id="cell48">
  <circle cx="571.11" cy="604.832" r="8.40284" stroke-width="0.5" stroke="black" fill="green"/>
  <circle cx="571.11" cy="604.832" r="5.04871" stroke-width="0.5" stroke="black" fill="green"/>
   </g>
   <g id="cell49">
  <circle cx="439.327" cy="390.925" r="7.46878" stroke-width="0.5" stroke="black" fill="green"/>
  <circle cx="439.327" cy="390.925" r="4.53982" stroke-width="0.5" stroke="black" fill="green"/>
   </g>
   <g id="cell50">
  <circle cx="509.503" cy="505.519" r="8.39893" stroke-width="0.5" stroke="black" fill="cyan"/>
  <circle cx="509.503" cy="505.519" r="5.04724" stroke-width="0.5" stroke="black" fill="cyan"/>
   </g>
   <g id="cell51">
  <circle cx="402.744" cy="597.201" r="8.41271" stroke-width="0.5" stroke="black" fill="cyan"/>
  <circle cx="402.744" cy="597.201" r="5.05167" stroke-width="0.5" stroke="black" fill="cyan"/>
   </g>
   <g id="cell52">
  <circle cx="516.816" cy="419.763" r="8.41271" stroke-width="0.5" stroke="black" fill="cyan"/>
  <circle cx="516.816" cy="419.763" r="5.05167" stroke-width="0.5" stroke="black" fill="cyan"/>
   </g>
   <g id="cell53">
  <circle cx="571.235" cy="426.792" r="8.40905" stroke-width="0.5" stroke="black" fill="cyan"/>
  <circle cx="571.235" cy="426.792" r="5.05064" stroke-width="0.5" stroke="black" fill="cyan"/>
   </g>
   <g id="cell54">
  <circle cx="479.866" cy="421.789" r="8.41049" stroke-width="0.5" stroke="black" fill="cyan"/>
  <circle cx="479.866" cy="421.789" r="5.05108" stroke-width="0.5" stroke="black" fill="cyan"/>
   </g>
   <g id="cell55">
  <circle cx="522.286" cy="460.574" r="8.40922" stroke-width="0.5" stroke="black" fill="cyan"/>
  <circle cx="522.286" cy="460.574" r="5.05071" stroke-width="0.5" stroke="black" fill="cyan"/>
   </g>
   <g id="cell56">
  <circle cx="621.259" cy="522.73" r="8.41271" stroke-width="0.5" stroke="black" fill="cyan"/>
  <circle cx="621.259" cy="522.73" r="5.05167" stroke-width="0.5" stroke="black" fill="cyan"/>
   </g>
   <g id="cell105">
  <circle cx="505.449" cy="607.943" r="8.29684" stroke-width="0.5" stroke="black" fill="green"/>
  <circle cx="505.449" cy="607.943" r="5.0042" stroke-width="0.5" stroke="black" fill="green"/>
   </g>
   <g id="cell58">
  <circle cx="566.671" cy="481.019" r="8.08613" stroke-width="0.5" stroke="black" fill="cyan"/>
  <circle cx="566.671" cy="481.019" r="4.8956" stroke-width="0.5" stroke="black" fill="cyan"/>
   </g>
   <g id="cell59">
  <circle cx="385.732" cy="440.058" r="8.41271" stroke-width="0.5" stroke="black" fill="cyan"/>
  <circle cx="385.732" cy="440.058" r="5.05167" stroke-width="0.5" stroke="black" fill="cyan"/>
   </g>
   <g id="cell60">
  <circle cx="589.639" cy="469.346" r="7.08639" stroke-width="0.5" stroke="black" fill="cyan"/>
  <circle cx="589.639" cy="469.346" r="4.29876" stroke-width="0.5" stroke="black" fill="cyan"/>
   </g>
   <g id="cell61">
  <circle cx="557.056" cy="621.932" r="1.17761" stroke-width="0.5" stroke="black" fill="cyan"/>
  <circle cx="557.056" cy="621.932" r="1.17358" stroke-width="0.5" stroke="black" fill="black"/>
   </g>
   <g id="cell62">
  <circle cx="515.942" cy="434.154" r="6.94373" stroke-width="0.5" stroke="black" fill="cyan"/>
  <circle cx="515.942" cy="434.154" r="4.20798" stroke-width="0.5" stroke="black" fill="cyan"/>
   </g>
   <g id="cell63">
  <circle cx="586.104" cy="539.566" r="8.36524" stroke-width="0.5" stroke="black" fill="cyan"/>
  <circle cx="586.104" cy="539.566" r="5.03386" stroke-width="0.5" stroke="black" fill="cyan"/>
   </g>
   <g id="cell64">
  <circle cx="509.766" cy="639.225" r="8.41271" stroke-width="0.5" stroke="black" fill="cyan"/>
  <circle cx="509.766" cy="639.225" r="5.05167" stroke-width="0.5" stroke="black" fill="cyan"/>
   </g>
   <g id="cell65">
  <circle cx="544.527" cy="468.427" r="8.41121" stroke-width="0.5" stroke="black" fill="cyan"/>
  <circle cx="544.527" cy="468.427" r="5.05128" stroke-width="0.5" stroke="black" fill="cyan"/>
   </g>
   <g id="cell66">
  <circle cx="530.889" cy="533.499" r="8.41036" stroke-width="0.5" stroke="black" fill="cyan"/>
  <circle cx="530.889" cy="533.499" r="5.05104" stroke-width="0.5" stroke="black" fill="cyan"/>
   </g>
   <g id="cell67">
  <circle cx="354.668" cy="492.845" r="8.41271" stroke-width="0.5" stroke="black" fill="cyan"/>
  <circle cx="354.668" cy="492.845" r="5.05167" stroke-width="0.5" stroke="black" fill="cyan"/>
   </g>
   <g id="cell68">
  <circle cx="561.234" cy="558.231" r="4.23297" stroke-width="0.5" stroke="black" fill="cyan"/>
  <circle cx="561.234" cy="558.231" r="2.99316" stroke-width="0.5" stroke="black" fill="black"/>
   </g>
   <g id="cell69">
  <circle cx="441.7" cy="461.315" r="8.41271" stroke-width="0.5" stroke="black" fill="cyan"/>
  <circle cx="441.7" cy="461.315" r="5.05167" stroke-width="0.5" stroke="black" fill="cyan"/>
   </g>
   <g id="cell70">
  <circle cx="582.438" cy="482.466" r="8.41271" stroke-width="0.5" stroke="black" fill="cyan"/>
  <circle cx="582.438" cy="482.466" r="5.05167" stroke-width="0.5" stroke="black" fill="cyan"/>
   </g>
   <g id="cell71">
  <circle cx="385.149" cy="531.344" r="7.46343" stroke-width="0.5" stroke="black" fill="cyan"/>
  <circle cx="385.149" cy="531.344" r="4.53804" stroke-width="0.5" stroke="black" fill="cyan"/>
   </g>
   <g id="cell72">
  <circle cx="531.224" cy="505.945" r="7.44104" stroke-width="0.5" stroke="black" fill="cyan"/>
  <circle cx="531.224" cy="505.945" r="4.52333" stroke-width="0.5" stroke="black" fill="cyan"/>
   </g>
   <g id="cell73">
  <circle cx="364.924" cy="548.479" r="6.89586" stroke-width="0.5" stroke="black" fill="cyan"/>
  <circle cx="364.924" cy="548.479" r="4.16999" stroke-width="0.5" stroke="black" fill="cyan"/>
   </g>
   <g id="cell162">
  <circle cx="372.312" cy="537.187" r="7.84675" stroke-width="0.5" stroke="black" fill="magenta"/>
  <circle cx="372.312" cy="537.187" r="4.7629" stroke-width="0.5" stroke="black" fill="magenta"/>
   </g>
   <g id="cell75">
  <circle cx="529.493" cy="430.02" r="8.41224" stroke-width="0.5" stroke="black" fill="cyan"/>
  <circle cx="529.493" cy="430.02" r="5.05156" stroke-width="0.5" stroke="black" fill="cyan"/>
   </g>
   <g id="cell76">
  <circle cx="437.244" cy="375.883" r="8.40574" stroke-width="0.5" stroke="black" fill="green"/>
  <circle cx="437.244" cy="375.883" r="5.04966" stroke-width="0.5" stroke="black" fill="green"/>
   </g>
   <g id="cell77">
  <circle cx="475.58" cy="436.936" r="8.40734" stroke-width="0.5" stroke="black" fill="magenta"/>
  <circle cx="475.58" cy="436.936" r="5.05012" stroke-width="0.5" stroke="black" fill="magenta"/>
   </g>
   <g id="cell78">
  <circle cx="624.924" cy="461.847" r="8.41093" stroke-width="0.5" stroke="black" fill="green"/>
  <circle cx="624.924" cy="461.847" r="5.05122" stroke-width="0.5" stroke="black" fill="green"/>
   </g>
   <g id="cell79">
  <circle cx="519.995" cy="476.17" r="8.41209" stroke-width="0.5" stroke="black" fill="cyan"/>
  <circle cx="519.995" cy="476.17" r="5.05152" stroke-width="0.5" stroke="black" fill="cyan"/>
   </g>
   <g id="cell80">
  <circle cx="544.501" cy="618.091" r="8.39152" stroke-width="0.5" stroke="black" fill="green"/>
  <circle cx="544.501" cy="618.091" r="5.04448" stroke-width="0.5" stroke="black" fill="green"/>
   </g>
   <g id="cell81">
  <circle cx="546.18" cy="590.655" r="8.41171" stroke-width="0.5" stroke="black" fill="green"/>
  <circle cx="546.18" cy="590.655" r="5.05143" stroke-width="0.5" stroke="black" fill="green"/>
   </g>
   <g id="cell82">
  <circle cx="532.028" cy="559.554" r="8.28589" stroke-width="0.5" stroke="black" fill="magenta"/>
  <circle cx="532.028" cy="559.554" r="4.99776" stroke-width="0.5" stroke="black" fill="magenta"/>
   </g>
   <g id="cell83">
  <circle cx="635.467" cy="552.193" r="4.62609" stroke-width="0.5" stroke="black" fill="green"/>
  <circle cx="635.467" cy="552.193" r="3.16848" stroke-width="0.5" stroke="black" fill="black"/>
   </g>
   <g id="cell84">
  <circle cx="513.448" cy="490.432" r="8.41157" stroke-width="0.5" stroke="black" fill="cyan"/>
  <circle cx="513.448" cy="490.432" r="5.05138" stroke-width="0.5" stroke="black" fill="cyan"/>
   </g>
   <g id="cell85">
  <circle cx="351.859" cy="542.176" r="8.40934" stroke-width="0.5" stroke="black" fill="cyan"/>
  <circle cx="351.859" cy="542.176" r="5.05076" stroke-width="0.5" stroke="black" fill="cyan"/>
   </g>
   <g id="cell86">
  <circle cx="497.966" cy="536.098" r="8.38895" stroke-width="0.5" stroke="black" fill="magenta"/>
  <circle cx="497.966" cy="536.098" r="5.04349" stroke-width="0.5" stroke="black" fill="magenta"/>
   </g>
   <g id="cell87">
  <circle cx="579.017" cy="557.545" r="8.40795" stroke-width="0.5" stroke="black" fill="cyan"/>
  <circle cx="579.017" cy="557.545" r="5.05033" stroke-width="0.5" stroke="black" fill="cyan"/>
   </g>
   <g id="cell88">
  <circle cx="444.961" cy="535.663" r="7.84861" stroke-width="0.5" stroke="black" fill="magenta"/>
  <circle cx="444.961" cy="535.663" r="4.7783" stroke-width="0.5" stroke="black" fill="magenta"/>
   </g>
   <g id="cell89">
  <circle cx="551.999" cy="451.569" r="8.25119" stroke-width="0.5" stroke="black" fill="cyan"/>
  <circle cx="551.999" cy="451.569" r="4.98404" stroke-width="0.5" stroke="black" fill="cyan"/>
   </g>
   <g id="cell90">
  <circle cx="636.73" cy="472.665" r="8.37846" stroke-width="0.5" stroke="black" fill="green"/>
  <circle cx="636.73" cy="472.665" r="5.03937" stroke-width="0.5" stroke="black" fill="green"/>
   </g>
   <g id="cell91">
  <circle cx="547.078" cy="559.466" r="8.40977" stroke-width="0.5" stroke="black" fill="magenta"/>
  <circle cx="547.078" cy="559.466" r="5.0509" stroke-width="0.5" stroke="black" fill="magenta"/>
   </g>
   <g id="cell92">
  <circle cx="487.76" cy="552.171" r="8.41083" stroke-width="0.5" stroke="black" fill="green"/>
  <circle cx="487.76" cy="552.171" r="5.05118" stroke-width="0.5" stroke="black" fill="green"/>
   </g>
   <g id="cell93">
  <circle cx="539.283" cy="546.398" r="8.40977" stroke-width="0.5" stroke="black" fill="magenta"/>
  <circle cx="539.283" cy="546.398" r="5.0509" stroke-width="0.5" stroke="black" fill="magenta"/>
   </g>
   <g id="cell94">
  <circle cx="542.114" cy="494.884" r="8.41055" stroke-width="0.5" stroke="black" fill="cyan"/>
  <circle cx="542.114" cy="494.884" r="5.05109" stroke-width="0.5" stroke="black" fill="cyan"/>
   </g>
   <g id="cell95">
  <circle cx="464.523" cy="425.92" r="8.41049" stroke-width="0.5" stroke="black" fill="cyan"/>
  <circle cx="464.523" cy="425.92" r="5.05108" stroke-width="0.5" stroke="black" fill="cyan"/>
   </g>
   <g id="cell96">
  <circle cx="546.593" cy="532.368" r="8.34765" stroke-width="0.5" stroke="black" fill="cyan"/>
  <circle cx="546.593" cy="532.368" r="5.02634" stroke-width="0.5" stroke="black" fill="cyan"/>
   </g>
   <g id="cell97">
  <circle cx="422.11" cy="466.785" r="8.40825" stroke-width="0.5" stroke="black" fill="green"/>
  <circle cx="422.11" cy="466.785" r="5.05044" stroke-width="0.5" stroke="black" fill="green"/>
   </g>
   <g id="cell98">
  <circle cx="489.593" cy="523.422" r="8.38396" stroke-width="0.5" stroke="black" fill="green"/>
  <circle cx="489.593" cy="523.422" r="5.04162" stroke-width="0.5" stroke="black" fill="green"/>
   </g>
   <g id="cell99">
  <circle cx="359.979" cy="528.38" r="8.40934" stroke-width="0.5" stroke="black" fill="cyan"/>
  <circle cx="359.979" cy="528.38" r="5.05076" stroke-width="0.5" stroke="black" fill="cyan"/>
   </g>
   <g id="cell100">
  <circle cx="447.972" cy="403.314" r="8.40928" stroke-width="0.5" stroke="black" fill="green"/>
  <circle cx="447.972" cy="403.314" r="5.05073" stroke-width="0.5" stroke="black" fill="green"/>
   </g>
   <g id="cell101">
  <circle cx="535.582" cy="480.707" r="8.34139" stroke-width="0.5" stroke="black" fill="cyan"/>
  <circle cx="535.582" cy="480.707" r="5.02367" stroke-width="0.5" stroke="black" fill="cyan"/>
   </g>
   <g id="cell102">
  <circle cx="435.228" cy="475.965" r="8.40825" stroke-width="0.5" stroke="black" fill="green"/>
  <circle cx="435.228" cy="475.965" r="5.05044" stroke-width="0.5" stroke="black" fill="green"/>
   </g>
   <g id="cell103">
  <circle cx="592.78" cy="448.542" r="8.38837" stroke-width="0.5" stroke="black" fill="cyan"/>
  <circle cx="592.78" cy="448.542" r="5.04338" stroke-width="0.5" stroke="black" fill="cyan"/>
   </g>
   <g id="cell104">
  <circle cx="599.645" cy="556.879" r="8.237" stroke-width="0.5" stroke="black" fill="cyan"/>
  <circle cx="599.645" cy="556.879" r="4.97432" stroke-width="0.5" stroke="black" fill="cyan"/>
   </g>
   <g id="cell106">
  <circle cx="461.045" cy="441.094" r="8.40734" stroke-width="0.5" stroke="black" fill="magenta"/>
  <circle cx="461.045" cy="441.094" r="5.05012" stroke-width="0.5" stroke="black" fill="magenta"/>
   </g>
   <g id="cell107">
  <circle cx="463.241" cy="389.872" r="7.62716" stroke-width="0.5" stroke="black" fill="green"/>
  <circle cx="463.241" cy="389.872" r="4.65751" stroke-width="0.5" stroke="black" fill="green"/>
   </g>
   <g id="cell108">
  <circle cx="555.347" cy="605.817" r="8.4065" stroke-width="0.5" stroke="black" fill="green"/>
  <circle cx="555.347" cy="605.817" r="5.04982" stroke-width="0.5" stroke="black" fill="green"/>
   </g>
   <g id="cell109">
  <circle cx="576.516" cy="589.81" r="8.40284" stroke-width="0.5" stroke="black" fill="green"/>
  <circle cx="576.516" cy="589.81" r="5.04871" stroke-width="0.5" stroke="black" fill="green"/>
   </g>
   <g id="cell110">
  <circle cx="369.488" cy="510.071" r="8.40427" stroke-width="0.5" stroke="black" fill="cyan"/>
  <circle cx="369.488" cy="510.071" r="5.04906" stroke-width="0.5" stroke="black" fill="cyan"/>
   </g>
   <g id="cell111">
  <circle cx="459.088" cy="555.986" r="8.34021" stroke-width="0.5" stroke="black" fill="magenta"/>
  <circle cx="459.088" cy="555.986" r="5.02351" stroke-width="0.5" stroke="black" fill="magenta"/>
   </g>
   <g id="cell112">
  <circle cx="494.438" cy="471.534" r="8.22951" stroke-width="0.5" stroke="black" fill="magenta"/>
  <circle cx="494.438" cy="471.534" r="4.97096" stroke-width="0.5" stroke="black" fill="magenta"/>
   </g>
   <g id="cell113">
  <circle cx="546.001" cy="388.863" r="8.26995" stroke-width="0.5" stroke="black" fill="green"/>
  <circle cx="546.001" cy="388.863" r="4.99083" stroke-width="0.5" stroke="black" fill="green"/>
   </g>
   <g id="cell114">
  <circle cx="525.191" cy="445.053" r="8.39636" stroke-width="0.5" stroke="black" fill="cyan"/>
  <circle cx="525.191" cy="445.053" r="5.04647" stroke-width="0.5" stroke="black" fill="cyan"/>
   </g>
   <g id="cell115">
  <circle cx="536.909" cy="455.164" r="8.35351" stroke-width="0.5" stroke="black" fill="cyan"/>
  <circle cx="536.909" cy="455.164" r="5.02964" stroke-width="0.5" stroke="black" fill="cyan"/>
   </g>
   <g id="cell116">
  <circle cx="519.356" cy="525.57" r="6.7712" stroke-width="0.5" stroke="black" fill="cyan"/>
  <circle cx="519.356" cy="525.57" r="4.08367" stroke-width="0.5" stroke="black" fill="cyan"/>
   </g>
   <g id="cell117">
  <circle cx="504.901" cy="623.873" r="8.39447" stroke-width="0.5" stroke="black" fill="green"/>
  <circle cx="504.901" cy="623.873" r="5.04571" stroke-width="0.5" stroke="black" fill="green"/>
   </g>
   <g id="cell118">
  <circle cx="509.908" cy="450.451" r="8.39179" stroke-width="0.5" stroke="black" fill="cyan"/>
  <circle cx="509.908" cy="450.451" r="5.04454" stroke-width="0.5" stroke="black" fill="cyan"/>
   </g>
   <g id="cell119">
  <circle cx="541.36" cy="604.031" r="6.94353" stroke-width="0.5" stroke="black" fill="green"/>
  <circle cx="541.36" cy="604.031" r="4.20793" stroke-width="0.5" stroke="black" fill="green"/>
   </g>
   <g id="cell120">
  <circle cx="578.597" cy="441.396" r="8.38837" stroke-width="0.5" stroke="black" fill="cyan"/>
  <circle cx="578.597" cy="441.396" r="5.04338" stroke-width="0.5" stroke="black" fill="cyan"/>
   </g>
   <g id="cell121">
  <circle cx="450.716" cy="367.213" r="8.36121" stroke-width="0.5" stroke="black" fill="green"/>
  <circle cx="450.716" cy="367.213" r="5.0331" stroke-width="0.5" stroke="black" fill="green"/>
   </g>
   <g id="cell122">
  <circle cx="505.525" cy="522.727" r="8.38895" stroke-width="0.5" stroke="black" fill="magenta"/>
  <circle cx="505.525" cy="522.727" r="5.04349" stroke-width="0.5" stroke="black" fill="magenta"/>
   </g>
   <g id="cell123">
  <circle cx="494.839" cy="509.233" r="8.38396" stroke-width="0.5" stroke="black" fill="green"/>
  <circle cx="494.839" cy="509.233" r="5.04162" stroke-width="0.5" stroke="black" fill="green"/>
   </g>
   <g id="cell124">
  <circle cx="490.114" cy="433.265" r="8.38506" stroke-width="0.5" stroke="black" fill="magenta"/>
  <circle cx="490.114" cy="433.265" r="5.04193" stroke-width="0.5" stroke="black" fill="magenta"/>
   </g>
   <g id="cell125">
  <circle cx="621.551" cy="477.445" r="8.37846" stroke-width="0.5" stroke="black" fill="green"/>
  <circle cx="621.551" cy="477.445" r="5.03937" stroke-width="0.5" stroke="black" fill="green"/>
   </g>
   <g id="cell126">
  <circle cx="628.987" cy="566.355" r="8.37801" stroke-width="0.5" stroke="black" fill="green"/>
  <circle cx="628.987" cy="566.355" r="5.03912" stroke-width="0.5" stroke="black" fill="green"/>
   </g>
   <g id="cell127">
  <circle cx="436.606" cy="359.956" r="8.36121" stroke-width="0.5" stroke="black" fill="green"/>
  <circle cx="436.606" cy="359.956" r="5.0331" stroke-width="0.5" stroke="black" fill="green"/>
   </g>
   <g id="cell128">
  <circle cx="372.128" cy="467.582" r="8.36972" stroke-width="0.5" stroke="black" fill="magenta"/>
  <circle cx="372.128" cy="467.582" r="5.03563" stroke-width="0.5" stroke="black" fill="magenta"/>
   </g>
   <g id="cell129">
  <circle cx="570.717" cy="543.937" r="8.36524" stroke-width="0.5" stroke="black" fill="cyan"/>
  <circle cx="570.717" cy="543.937" r="5.03386" stroke-width="0.5" stroke="black" fill="cyan"/>
   </g>
   <g id="cell130">
  <circle cx="541.127" cy="440.161" r="8.35351" stroke-width="0.5" stroke="black" fill="cyan"/>
  <circle cx="541.127" cy="440.161" r="5.02964" stroke-width="0.5" stroke="black" fill="cyan"/>
   </g>
   <g id="cell131">
  <circle cx="542.559" cy="519.157" r="5.53644" stroke-width="0.5" stroke="black" fill="cyan"/>
  <circle cx="542.559" cy="519.157" r="3.3647" stroke-width="0.5" stroke="black" fill="cyan"/>
   </g>
   <g id="cell132">
  <circle cx="445.689" cy="549.775" r="8.34021" stroke-width="0.5" stroke="black" fill="magenta"/>
  <circle cx="445.689" cy="549.775" r="5.02351" stroke-width="0.5" stroke="black" fill="magenta"/>
   </g>
   <g id="cell133">
  <circle cx="575.214" cy="468.413" r="8.34435" stroke-width="0.5" stroke="black" fill="cyan"/>
  <circle cx="575.214" cy="468.413" r="5.02483" stroke-width="0.5" stroke="black" fill="cyan"/>
   </g>
   <g id="cell134">
  <circle cx="534.846" cy="470.947" r="1.98874" stroke-width="0.5" stroke="black" fill="cyan"/>
  <circle cx="534.846" cy="470.947" r="1.88423" stroke-width="0.5" stroke="black" fill="black"/>
   </g>
   <g id="cell135">
  <circle cx="516.088" cy="583.964" r="8.33481" stroke-width="0.5" stroke="black" fill="magenta"/>
  <circle cx="516.088" cy="583.964" r="5.02043" stroke-width="0.5" stroke="black" fill="magenta"/>
   </g>
   <g id="cell136">
  <circle cx="472.101" cy="548.261" r="8.32196" stroke-width="0.5" stroke="black" fill="green"/>
  <circle cx="472.101" cy="548.261" r="5.01477" stroke-width="0.5" stroke="black" fill="green"/>
   </g>
   <g id="cell137">
  <circle cx="491.001" cy="613.614" r="8.29684" stroke-width="0.5" stroke="black" fill="green"/>
  <circle cx="491.001" cy="613.614" r="5.0042" stroke-width="0.5" stroke="black" fill="green"/>
   </g>
   <g id="cell138">
  <circle cx="501.777" cy="406.43" r="8.30618" stroke-width="0.5" stroke="black" fill="green"/>
  <circle cx="501.777" cy="406.43" r="5.00727" stroke-width="0.5" stroke="black" fill="green"/>
   </g>
   <g id="cell139">
  <circle cx="418.356" cy="407.229" r="8.28985" stroke-width="0.5" stroke="black" fill="magenta"/>
  <circle cx="418.356" cy="407.229" r="4.99956" stroke-width="0.5" stroke="black" fill="magenta"/>
   </g>
   <g id="cell140">
  <circle cx="524.918" cy="572.355" r="8.17385" stroke-width="0.5" stroke="black" fill="magenta"/>
  <circle cx="524.918" cy="572.355" r="4.94707" stroke-width="0.5" stroke="black" fill="magenta"/>
   </g>
   <g id="cell141">
  <circle cx="567.171" cy="455.24" r="8.25119" stroke-width="0.5" stroke="black" fill="cyan"/>
  <circle cx="567.171" cy="455.24" r="4.98404" stroke-width="0.5" stroke="black" fill="cyan"/>
   </g>
   <g id="cell142">
  <circle cx="543.363" cy="423.796" r="6.52976" stroke-width="0.5" stroke="black" fill="green"/>
  <circle cx="543.363" cy="423.796" r="3.99501" stroke-width="0.5" stroke="black" fill="green"/>
   </g>
   <g id="cell143">
  <circle cx="433.245" cy="408.015" r="8.21192" stroke-width="0.5" stroke="black" fill="magenta"/>
  <circle cx="433.245" cy="408.015" r="4.96564" stroke-width="0.5" stroke="black" fill="magenta"/>
   </g>
   <g id="cell144">
  <circle cx="545.86" cy="409.428" r="7.89331" stroke-width="0.5" stroke="black" fill="green"/>
  <circle cx="545.86" cy="409.428" r="4.80393" stroke-width="0.5" stroke="black" fill="green"/>
   </g>
   <g id="cell146">
  <circle cx="588.641" cy="548.142" r="1.00287" stroke-width="0.5" stroke="black" fill="cyan"/>
  <circle cx="588.641" cy="548.142" r="0.999047" stroke-width="0.5" stroke="black" fill="black"/>
   </g>
   <g id="cell147">
  <circle cx="517.038" cy="560.031" r="8.17385" stroke-width="0.5" stroke="black" fill="magenta"/>
  <circle cx="517.038" cy="560.031" r="4.94707" stroke-width="0.5" stroke="black" fill="magenta"/>
   </g>
   <g id="cell148">
  <circle cx="508.13" cy="466.023" r="8.22951" stroke-width="0.5" stroke="black" fill="magenta"/>
  <circle cx="508.13" cy="466.023" r="4.97096" stroke-width="0.5" stroke="black" fill="magenta"/>
   </g>
   <g id="cell149">
  <circle cx="572.495" cy="395.517" r="8.18177" stroke-width="0.5" stroke="black" fill="magenta"/>
  <circle cx="572.495" cy="395.517" r="4.94584" stroke-width="0.5" stroke="black" fill="magenta"/>
   </g>
   <g id="cell150">
  <circle cx="409.723" cy="583.678" r="7.60852" stroke-width="0.5" stroke="black" fill="green"/>
  <circle cx="409.723" cy="583.678" r="4.64188" stroke-width="0.5" stroke="black" fill="green"/>
   </g>
   <g id="cell151">
  <circle cx="418.776" cy="528.634" r="8.1218" stroke-width="0.5" stroke="black" fill="green"/>
  <circle cx="418.776" cy="528.634" r="4.91457" stroke-width="0.5" stroke="black" fill="green"/>
   </g>
   <g id="cell152">
  <circle cx="372.462" cy="574.529" r="7.96678" stroke-width="0.5" stroke="black" fill="green"/>
  <circle cx="372.462" cy="574.529" r="4.84129" stroke-width="0.5" stroke="black" fill="green"/>
   </g>
   <g id="cell153">
  <circle cx="559.494" cy="468.483" r="8.08613" stroke-width="0.5" stroke="black" fill="cyan"/>
  <circle cx="559.494" cy="468.483" r="4.8956" stroke-width="0.5" stroke="black" fill="cyan"/>
   </g>
   <g id="cell154">
  <circle cx="387.301" cy="596.945" r="7.84039" stroke-width="0.5" stroke="black" fill="green"/>
  <circle cx="387.301" cy="596.945" r="4.77888" stroke-width="0.5" stroke="black" fill="green"/>
   </g>
   <g id="cell155">
  <circle cx="484.397" cy="582.973" r="8.06667" stroke-width="0.5" stroke="black" fill="green"/>
  <circle cx="484.397" cy="582.973" r="4.88515" stroke-width="0.5" stroke="black" fill="green"/>
   </g>
   <g id="cell156">
  <circle cx="454.778" cy="525.733" r="8.06587" stroke-width="0.5" stroke="black" fill="magenta"/>
  <circle cx="454.778" cy="525.733" r="4.88493" stroke-width="0.5" stroke="black" fill="magenta"/>
   </g>
   <g id="cell157">
  <circle cx="440.192" cy="522.801" r="7.84861" stroke-width="0.5" stroke="black" fill="magenta"/>
  <circle cx="440.192" cy="522.801" r="4.7783" stroke-width="0.5" stroke="black" fill="magenta"/>
   </g>
   <g id="cell158">
  <circle cx="559.223" cy="416.373" r="7.9165" stroke-width="0.5" stroke="black" fill="green"/>
  <circle cx="559.223" cy="416.373" r="4.81656" stroke-width="0.5" stroke="black" fill="green"/>
   </g>
   <g id="cell159">
  <circle cx="534.22" cy="402.701" r="6.30397" stroke-width="0.5" stroke="black" fill="green"/>
  <circle cx="534.22" cy="402.701" r="3.84008" stroke-width="0.5" stroke="black" fill="green"/>
   </g>
   <g id="cell160">
  <circle cx="463.98" cy="375.161" r="7.96202" stroke-width="0.5" stroke="black" fill="green"/>
  <circle cx="463.98" cy="375.161" r="4.83082" stroke-width="0.5" stroke="black" fill="green"/>
   </g>
   <g id="cell165">
  <circle cx="606.442" cy="521.112" r="7.65871" stroke-width="0.5" stroke="black" fill="magenta"/>
  <circle cx="606.442" cy="521.112" r="4.6537" stroke-width="0.5" stroke="black" fill="magenta"/>
   </g>
   <g id="cell166">
  <circle cx="483.992" cy="461.953" r="7.56256" stroke-width="0.5" stroke="black" fill="magenta"/>
  <circle cx="483.992" cy="461.953" r="4.59803" stroke-width="0.5" stroke="black" fill="magenta"/>
   </g>
   <g id="cell167">
  <circle cx="425.92" cy="395.095" r="7.46878" stroke-width="0.5" stroke="black" fill="green"/>
  <circle cx="425.92" cy="395.095" r="4.53982" stroke-width="0.5" stroke="black" fill="green"/>
   </g>
   <g id="cell170">
  <circle cx="459.345" cy="503.639" r="7.27253" stroke-width="0.5" stroke="black" fill="green"/>
  <circle cx="459.345" cy="503.639" r="4.41835" stroke-width="0.5" stroke="black" fill="green"/>
   </g>
   <g id="cell171">
  <circle cx="596.99" cy="480.601" r="7.08639" stroke-width="0.5" stroke="black" fill="cyan"/>
  <circle cx="596.99" cy="480.601" r="4.29876" stroke-width="0.5" stroke="black" fill="cyan"/>
   </g>
   <g id="cell172">
  <circle cx="552.803" cy="501.563" r="5.7365" stroke-width="0.5" stroke="black" fill="magenta"/>
  <circle cx="552.803" cy="501.563" r="3.49567" stroke-width="0.5" stroke="black" fill="magenta"/>
   </g>
   <g id="cell173">
  <circle cx="531.289" cy="519.402" r="6.91151" stroke-width="0.5" stroke="black" fill="cyan"/>
  <circle cx="531.289" cy="519.402" r="4.19441" stroke-width="0.5" stroke="black" fill="cyan"/>
   </g>
   <g id="cell174">
  <circle cx="503.51" cy="436.921" r="6.94373" stroke-width="0.5" stroke="black" fill="cyan"/>
  <circle cx="503.51" cy="436.921" r="4.20798" stroke-width="0.5" stroke="black" fill="cyan"/>
   </g>
   <g id="cell175">
  <circle cx="529.05" cy="606.545" r="6.94353" stroke-width="0.5" stroke="black" fill="green"/>
  <circle cx="529.05" cy="606.545" r="4.20793" stroke-width="0.5" stroke="black" fill="green"/>
   </g>
   <g id="cell176">
  <circle cx="554.682" cy="429.183" r="6.52976" stroke-width="0.5" stroke="black" fill="green"/>
  <circle cx="554.682" cy="429.183" r="3.99501" stroke-width="0.5" stroke="black" fill="green"/>
   </g>
   <g id="cell177">
  <circle cx="363.444" cy="561.413" r="6.89586" stroke-width="0.5" stroke="black" fill="cyan"/>
  <circle cx="363.444" cy="561.413" r="4.16999" stroke-width="0.5" stroke="black" fill="cyan"/>
   </g>
   <g id="cell178">
  <circle cx="557.173" cy="510.588" r="5.7365" stroke-width="0.5" stroke="black" fill="magenta"/>
  <circle cx="557.173" cy="510.588" r="3.49567" stroke-width="0.5" stroke="black" fill="magenta"/>
   </g>
   <g id="cell179">
  <circle cx="520.395" cy="513.491" r="6.7712" stroke-width="0.5" stroke="black" fill="cyan"/>
  <circle cx="520.395" cy="513.491" r="4.08367" stroke-width="0.5" stroke="black" fill="cyan"/>
   </g>
   <g id="cell180">
  <circle cx="616.406" cy="496.908" r="6.73287" stroke-width="0.5" stroke="black" fill="green"/>
  <circle cx="616.406" cy="496.908" r="4.05039" stroke-width="0.5" stroke="black" fill="green"/>
   </g>
   <g id="cell181">
  <circle cx="552.595" cy="519.715" r="5.53644" stroke-width="0.5" stroke="black" fill="cyan"/>
  <circle cx="552.595" cy="519.715" r="3.3647" stroke-width="0.5" stroke="black" fill="cyan"/>
   </g>
   <g id="cell182">
  <circle cx="532.56" cy="391.381" r="6.30397" stroke-width="0.5" stroke="black" fill="green"/>
  <circle cx="532.56" cy="391.381" r="3.84008" stroke-width="0.5" stroke="black" fill="green"/>
   </g>
   <g id="cell183">
  <circle cx="576.409" cy="503.451" r="6.69288" stroke-width="0.5" stroke="black" fill="magenta"/>
  <circle cx="576.409" cy="503.451" r="4.02051" stroke-width="0.5" stroke="black" fill="magenta"/>
   </g>
   <g id="cell184">
  <circle cx="431.392" cy="421.689" r="6.47638" stroke-width="0.5" stroke="black" fill="magenta"/>
  <circle cx="431.392" cy="421.689" r="3.92269" stroke-width="0.5" stroke="black" fill="magenta"/>
   </g>
  </g>
 </g>
  <rect x="775" y="1035" width="200" height="10" stroke-width="2" stroke="rgb(255,255,255)" fill="rgb(0,0,0)"/>
  <text x="781.25" y="1028.75"
   font-family="Arial" font-size="25" fill="black" >
   200 &#956;m
  </text>
  <text x="25" y="1045"
   font-family="Arial" font-size="18.75" fill="black" >
   0 days, 0 hours, 0 minutes, and 37.0145 seconds
  </text>
  <rect x="0" y="70" width="1000" height="1000" stroke-width="2" stroke="rgb(0,0,0)" fill="none"/>
</svg>
