<?xml version="1.0" encoding="UTF-8" standalone="no"?>
<!-- Created with PhysiCell (http://PhysiCell.MathCancer.org/) -->
<svg 
 xmlns:dc="http://purl.org/dc/elements/1.1/" 
 xmlns:cc="http://creativecommons.org/ns#" 
 xmlns:rdf="http://www.w3.org/1999/02/22-rdf-syntax-ns#" 
 xmlns:svg="http://www.w3.org/2000/svg" 
 xmlns="http://www.w3.org/2000/svg" 
 version="1.1" 
 width="1000" 
 height="1070" 
 id="svg2">
  <rect x="0" y="0" width="1000" height="1070" stroke-width="2" stroke="white" fill="white"/>
  <text x="12.5" y="30"
   font-family="Arial" font-size="25" fill="black" >
   Current time: 0 days, 20 hours, and 33.00 minutes, z = 0.00 &#956;m
  </text>
  <text x="12.5" y="57.5"
   font-family="Arial" font-size="23.75" fill="black" >
   138 agents
  </text>
 <g id="tissue" 
    transform="translate(0,1070) scale(1,-1)">
  <g id="ECM">
  </g>
  <g id="cells">
   <g id="cell0">
  <circle cx="513.647" cy="535.419" r="8.39021" stroke-width="0.5" stroke="black" fill="magenta"/>
  <circle cx="513.647" cy="535.419" r="5.0439" stroke-width="0.5" stroke="black" fill="magenta"/>
   </g>
   <g id="cell1">
  <circle cx="601.689" cy="523.851" r="8.41271" stroke-width="0.5" stroke="black" fill="magenta"/>
  <circle cx="601.689" cy="523.851" r="5.05167" stroke-width="0.5" stroke="black" fill="magenta"/>
   </g>
   <g id="cell2">
  <circle cx="516.429" cy="597.493" r="8.41271" stroke-width="0.5" stroke="black" fill="magenta"/>
  <circle cx="516.429" cy="597.493" r="5.05167" stroke-width="0.5" stroke="black" fill="magenta"/>
   </g>
   <g id="cell3">
  <circle cx="522.867" cy="547.799" r="8.37588" stroke-width="0.5" stroke="black" fill="magenta"/>
  <circle cx="522.867" cy="547.799" r="5.03873" stroke-width="0.5" stroke="black" fill="magenta"/>
   </g>
   <g id="cell4">
  <circle cx="488.392" cy="446.161" r="7.87328" stroke-width="0.5" stroke="black" fill="magenta"/>
  <circle cx="488.392" cy="446.161" r="4.77925" stroke-width="0.5" stroke="black" fill="magenta"/>
   </g>
   <g id="cell5">
  <circle cx="465.032" cy="493.3" r="8.41271" stroke-width="0.5" stroke="black" fill="magenta"/>
  <circle cx="465.032" cy="493.3" r="5.05167" stroke-width="0.5" stroke="black" fill="magenta"/>
   </g>
   <g id="cell6">
  <circle cx="596.817" cy="514.93" r="2.84772" stroke-width="0.5" stroke="black" fill="magenta"/>
  <circle cx="596.817" cy="514.93" r="2.39601" stroke-width="0.5" stroke="black" fill="black"/>
   </g>
   <g id="cell7">
  <circle cx="496.196" cy="458.135" r="8.23444" stroke-width="0.5" stroke="black" fill="magenta"/>
  <circle cx="496.196" cy="458.135" r="4.97252" stroke-width="0.5" stroke="black" fill="magenta"/>
   </g>
   <g id="cell8">
  <circle cx="376.384" cy="542.74" r="8.41271" stroke-width="0.5" stroke="black" fill="magenta"/>
  <circle cx="376.384" cy="542.74" r="5.05167" stroke-width="0.5" stroke="black" fill="magenta"/>
   </g>
   <g id="cell9">
  <circle cx="460.472" cy="599.786" r="3.04602" stroke-width="0.5" stroke="black" fill="magenta"/>
  <circle cx="460.472" cy="599.786" r="2.48703" stroke-width="0.5" stroke="black" fill="black"/>
   </g>
   <g id="cell10">
  <circle cx="583.447" cy="392.105" r="8.41271" stroke-width="0.5" stroke="black" fill="magenta"/>
  <circle cx="583.447" cy="392.105" r="5.05167" stroke-width="0.5" stroke="black" fill="magenta"/>
   </g>
   <g id="cell11">
  <circle cx="591.98" cy="590.051" r="8.41271" stroke-width="0.5" stroke="black" fill="magenta"/>
  <circle cx="591.98" cy="590.051" r="5.05167" stroke-width="0.5" stroke="black" fill="magenta"/>
   </g>
   <g id="cell12">
  <circle cx="503.768" cy="591.905" r="6.95901" stroke-width="0.5" stroke="black" fill="magenta"/>
  <circle cx="503.768" cy="591.905" r="4.21341" stroke-width="0.5" stroke="black" fill="magenta"/>
   </g>
   <g id="cell13">
  <circle cx="386.194" cy="568.228" r="8.41271" stroke-width="0.5" stroke="black" fill="magenta"/>
  <circle cx="386.194" cy="568.228" r="5.05167" stroke-width="0.5" stroke="black" fill="magenta"/>
   </g>
   <g id="cell14">
  <circle cx="528.738" cy="400.76" r="8.41271" stroke-width="0.5" stroke="black" fill="magenta"/>
  <circle cx="528.738" cy="400.76" r="5.05167" stroke-width="0.5" stroke="black" fill="magenta"/>
   </g>
   <g id="cell15">
  <circle cx="384.252" cy="477.161" r="7.56839" stroke-width="0.5" stroke="black" fill="magenta"/>
  <circle cx="384.252" cy="477.161" r="4.59998" stroke-width="0.5" stroke="black" fill="magenta"/>
   </g>
   <g id="cell16">
  <circle cx="429.082" cy="412.343" r="8.41271" stroke-width="0.5" stroke="black" fill="magenta"/>
  <circle cx="429.082" cy="412.343" r="5.05167" stroke-width="0.5" stroke="black" fill="magenta"/>
   </g>
   <g id="cell17">
  <circle cx="570.829" cy="491.468" r="8.41271" stroke-width="0.5" stroke="black" fill="magenta"/>
  <circle cx="570.829" cy="491.468" r="5.05167" stroke-width="0.5" stroke="black" fill="magenta"/>
   </g>
   <g id="cell18">
  <circle cx="518.294" cy="389.726" r="8.41271" stroke-width="0.5" stroke="black" fill="magenta"/>
  <circle cx="518.294" cy="389.726" r="5.05167" stroke-width="0.5" stroke="black" fill="magenta"/>
   </g>
   <g id="cell19">
  <circle cx="460.398" cy="540.673" r="8.23054" stroke-width="0.5" stroke="black" fill="magenta"/>
  <circle cx="460.398" cy="540.673" r="4.97254" stroke-width="0.5" stroke="black" fill="magenta"/>
   </g>
   <g id="cell20">
  <circle cx="530.963" cy="415.905" r="8.41271" stroke-width="0.5" stroke="black" fill="magenta"/>
  <circle cx="530.963" cy="415.905" r="5.05167" stroke-width="0.5" stroke="black" fill="magenta"/>
   </g>
   <g id="cell21">
  <circle cx="466.214" cy="632.879" r="8.41271" stroke-width="0.5" stroke="black" fill="magenta"/>
  <circle cx="466.214" cy="632.879" r="5.05167" stroke-width="0.5" stroke="black" fill="magenta"/>
   </g>
   <g id="cell22">
  <circle cx="555.949" cy="494.677" r="8.41271" stroke-width="0.5" stroke="black" fill="magenta"/>
  <circle cx="555.949" cy="494.677" r="5.05167" stroke-width="0.5" stroke="black" fill="magenta"/>
   </g>
   <g id="cell23">
  <circle cx="545.754" cy="483.49" r="8.41271" stroke-width="0.5" stroke="black" fill="magenta"/>
  <circle cx="545.754" cy="483.49" r="5.05167" stroke-width="0.5" stroke="black" fill="magenta"/>
   </g>
   <g id="cell24">
  <circle cx="558.811" cy="381.539" r="8.41271" stroke-width="0.5" stroke="black" fill="magenta"/>
  <circle cx="558.811" cy="381.539" r="5.05167" stroke-width="0.5" stroke="black" fill="magenta"/>
   </g>
   <g id="cell25">
  <circle cx="647.867" cy="543.47" r="8.39874" stroke-width="0.5" stroke="black" fill="green"/>
  <circle cx="647.867" cy="543.47" r="5.04711" stroke-width="0.5" stroke="black" fill="green"/>
   </g>
   <g id="cell26">
  <circle cx="555.285" cy="396.541" r="8.22925" stroke-width="0.5" stroke="black" fill="green"/>
  <circle cx="555.285" cy="396.541" r="4.96993" stroke-width="0.5" stroke="black" fill="green"/>
   </g>
   <g id="cell27">
  <circle cx="465.658" cy="396.224" r="8.40403" stroke-width="0.5" stroke="black" fill="green"/>
  <circle cx="465.658" cy="396.224" r="5.04898" stroke-width="0.5" stroke="black" fill="green"/>
   </g>
   <g id="cell28">
  <circle cx="432.867" cy="530.704" r="8.41271" stroke-width="0.5" stroke="black" fill="green"/>
  <circle cx="432.867" cy="530.704" r="5.05167" stroke-width="0.5" stroke="black" fill="green"/>
   </g>
   <g id="cell29">
  <circle cx="450.452" cy="516.068" r="8.41271" stroke-width="0.5" stroke="black" fill="green"/>
  <circle cx="450.452" cy="516.068" r="5.05167" stroke-width="0.5" stroke="black" fill="green"/>
   </g>
   <g id="cell30">
  <circle cx="485.501" cy="534.216" r="6.78263" stroke-width="0.5" stroke="black" fill="green"/>
  <circle cx="485.501" cy="534.216" r="4.09744" stroke-width="0.5" stroke="black" fill="green"/>
   </g>
   <g id="cell31">
  <circle cx="412.807" cy="541.561" r="8.41271" stroke-width="0.5" stroke="black" fill="green"/>
  <circle cx="412.807" cy="541.561" r="5.05167" stroke-width="0.5" stroke="black" fill="green"/>
   </g>
   <g id="cell32">
  <circle cx="421.323" cy="481.479" r="5.1709" stroke-width="0.5" stroke="black" fill="green"/>
  <circle cx="421.323" cy="481.479" r="3.41309" stroke-width="0.5" stroke="black" fill="black"/>
   </g>
   <g id="cell33">
  <circle cx="502.247" cy="425.129" r="6.67717" stroke-width="0.5" stroke="black" fill="green"/>
  <circle cx="502.247" cy="425.129" r="4.00951" stroke-width="0.5" stroke="black" fill="green"/>
   </g>
   <g id="cell34">
  <circle cx="396.899" cy="450.651" r="5.95973" stroke-width="0.5" stroke="black" fill="green"/>
  <circle cx="396.899" cy="450.651" r="3.76978" stroke-width="0.5" stroke="black" fill="black"/>
   </g>
   <g id="cell35">
  <circle cx="552.896" cy="542.972" r="8.41271" stroke-width="0.5" stroke="black" fill="green"/>
  <circle cx="552.896" cy="542.972" r="5.05167" stroke-width="0.5" stroke="black" fill="green"/>
   </g>
   <g id="cell36">
  <circle cx="391.486" cy="582.903" r="8.41271" stroke-width="0.5" stroke="black" fill="green"/>
  <circle cx="391.486" cy="582.903" r="5.05167" stroke-width="0.5" stroke="black" fill="green"/>
   </g>
   <g id="cell37">
  <circle cx="639.933" cy="457.822" r="8.40272" stroke-width="0.5" stroke="black" fill="green"/>
  <circle cx="639.933" cy="457.822" r="5.04853" stroke-width="0.5" stroke="black" fill="green"/>
   </g>
   <g id="cell38">
  <circle cx="529.637" cy="589.729" r="8.4009" stroke-width="0.5" stroke="black" fill="green"/>
  <circle cx="529.637" cy="589.729" r="5.04788" stroke-width="0.5" stroke="black" fill="green"/>
   </g>
   <g id="cell39">
  <circle cx="613.795" cy="490.157" r="8.41271" stroke-width="0.5" stroke="black" fill="green"/>
  <circle cx="613.795" cy="490.157" r="5.05167" stroke-width="0.5" stroke="black" fill="green"/>
   </g>
   <g id="cell40">
  <circle cx="485.343" cy="571.737" r="8.41271" stroke-width="0.5" stroke="black" fill="green"/>
  <circle cx="485.343" cy="571.737" r="5.05167" stroke-width="0.5" stroke="black" fill="green"/>
   </g>
   <g id="cell41">
  <circle cx="364.076" cy="481.318" r="8.41271" stroke-width="0.5" stroke="black" fill="green"/>
  <circle cx="364.076" cy="481.318" r="5.05167" stroke-width="0.5" stroke="black" fill="green"/>
   </g>
   <g id="cell42">
  <circle cx="438.815" cy="494.129" r="8.41271" stroke-width="0.5" stroke="black" fill="green"/>
  <circle cx="438.815" cy="494.129" r="5.05167" stroke-width="0.5" stroke="black" fill="green"/>
   </g>
   <g id="cell43">
  <circle cx="561.233" cy="440.913" r="8.41271" stroke-width="0.5" stroke="black" fill="green"/>
  <circle cx="561.233" cy="440.913" r="5.05167" stroke-width="0.5" stroke="black" fill="green"/>
   </g>
   <g id="cell44">
  <circle cx="474.012" cy="625.716" r="3.04602" stroke-width="0.5" stroke="black" fill="green"/>
  <circle cx="474.012" cy="625.716" r="2.48703" stroke-width="0.5" stroke="black" fill="black"/>
   </g>
   <g id="cell45">
  <circle cx="414.902" cy="556.698" r="1.33065" stroke-width="0.5" stroke="black" fill="green"/>
  <circle cx="414.902" cy="556.698" r="1.32157" stroke-width="0.5" stroke="black" fill="black"/>
   </g>
   <g id="cell46">
  <circle cx="520.693" cy="612.977" r="8.33257" stroke-width="0.5" stroke="black" fill="green"/>
  <circle cx="520.693" cy="612.977" r="5.01941" stroke-width="0.5" stroke="black" fill="green"/>
   </g>
   <g id="cell47">
  <circle cx="504.491" cy="495.381" r="8.3632" stroke-width="0.5" stroke="black" fill="green"/>
  <circle cx="504.491" cy="495.381" r="5.03288" stroke-width="0.5" stroke="black" fill="green"/>
   </g>
   <g id="cell48">
  <circle cx="571.042" cy="604.65" r="8.22688" stroke-width="0.5" stroke="black" fill="green"/>
  <circle cx="571.042" cy="604.65" r="4.9728" stroke-width="0.5" stroke="black" fill="green"/>
   </g>
   <g id="cell49">
  <circle cx="432.551" cy="397.047" r="8.41271" stroke-width="0.5" stroke="black" fill="green"/>
  <circle cx="432.551" cy="397.047" r="5.05167" stroke-width="0.5" stroke="black" fill="green"/>
   </g>
   <g id="cell50">
  <circle cx="512.678" cy="508.767" r="8.14993" stroke-width="0.5" stroke="black" fill="cyan"/>
  <circle cx="512.678" cy="508.767" r="4.93125" stroke-width="0.5" stroke="black" fill="cyan"/>
   </g>
   <g id="cell51">
  <circle cx="398.721" cy="597.201" r="8.41271" stroke-width="0.5" stroke="black" fill="cyan"/>
  <circle cx="398.721" cy="597.201" r="5.05167" stroke-width="0.5" stroke="black" fill="cyan"/>
   </g>
   <g id="cell52">
  <circle cx="517.139" cy="422.995" r="8.41271" stroke-width="0.5" stroke="black" fill="cyan"/>
  <circle cx="517.139" cy="422.995" r="5.05167" stroke-width="0.5" stroke="black" fill="cyan"/>
   </g>
   <g id="cell53">
  <circle cx="572.525" cy="429.443" r="8.34511" stroke-width="0.5" stroke="black" fill="cyan"/>
  <circle cx="572.525" cy="429.443" r="5.02502" stroke-width="0.5" stroke="black" fill="cyan"/>
   </g>
   <g id="cell54">
  <circle cx="481.688" cy="421.375" r="8.37208" stroke-width="0.5" stroke="black" fill="cyan"/>
  <circle cx="481.688" cy="421.375" r="5.03661" stroke-width="0.5" stroke="black" fill="cyan"/>
   </g>
   <g id="cell55">
  <circle cx="521.479" cy="463.818" r="8.34838" stroke-width="0.5" stroke="black" fill="cyan"/>
  <circle cx="521.479" cy="463.818" r="5.02713" stroke-width="0.5" stroke="black" fill="cyan"/>
   </g>
   <g id="cell56">
  <circle cx="617.236" cy="522.391" r="8.41271" stroke-width="0.5" stroke="black" fill="cyan"/>
  <circle cx="617.236" cy="522.391" r="5.05167" stroke-width="0.5" stroke="black" fill="cyan"/>
   </g>
   <g id="cell105">
  <circle cx="508.88" cy="607.948" r="6.39841" stroke-width="0.5" stroke="black" fill="green"/>
  <circle cx="508.88" cy="607.948" r="3.87956" stroke-width="0.5" stroke="black" fill="green"/>
   </g>
   <g id="cell58">
  <circle cx="560.676" cy="479.73" r="8.41271" stroke-width="0.5" stroke="black" fill="cyan"/>
  <circle cx="560.676" cy="479.73" r="5.05167" stroke-width="0.5" stroke="black" fill="cyan"/>
   </g>
   <g id="cell59">
  <circle cx="385.652" cy="439.982" r="8.41271" stroke-width="0.5" stroke="black" fill="cyan"/>
  <circle cx="385.652" cy="439.982" r="5.05167" stroke-width="0.5" stroke="black" fill="cyan"/>
   </g>
   <g id="cell60">
  <circle cx="591.96" cy="473.84" r="8.41271" stroke-width="0.5" stroke="black" fill="cyan"/>
  <circle cx="591.96" cy="473.84" r="5.05167" stroke-width="0.5" stroke="black" fill="cyan"/>
   </g>
   <g id="cell61">
  <circle cx="557.481" cy="622.525" r="8.41271" stroke-width="0.5" stroke="black" fill="cyan"/>
  <circle cx="557.481" cy="622.525" r="5.05167" stroke-width="0.5" stroke="black" fill="cyan"/>
   </g>
   <g id="cell62">
  <circle cx="514.148" cy="438.248" r="8.00811" stroke-width="0.5" stroke="black" fill="cyan"/>
  <circle cx="514.148" cy="438.248" r="4.85435" stroke-width="0.5" stroke="black" fill="cyan"/>
   </g>
   <g id="cell63">
  <circle cx="581.572" cy="543.02" r="7.47915" stroke-width="0.5" stroke="black" fill="cyan"/>
  <circle cx="581.572" cy="543.02" r="4.54983" stroke-width="0.5" stroke="black" fill="cyan"/>
   </g>
   <g id="cell64">
  <circle cx="509.723" cy="639.437" r="8.41271" stroke-width="0.5" stroke="black" fill="cyan"/>
  <circle cx="509.723" cy="639.437" r="5.05167" stroke-width="0.5" stroke="black" fill="cyan"/>
   </g>
   <g id="cell65">
  <circle cx="549.45" cy="468.408" r="8.38532" stroke-width="0.5" stroke="black" fill="cyan"/>
  <circle cx="549.45" cy="468.408" r="5.04199" stroke-width="0.5" stroke="black" fill="cyan"/>
   </g>
   <g id="cell66">
  <circle cx="529.324" cy="533.763" r="8.36972" stroke-width="0.5" stroke="black" fill="cyan"/>
  <circle cx="529.324" cy="533.763" r="5.03563" stroke-width="0.5" stroke="black" fill="cyan"/>
   </g>
   <g id="cell67">
  <circle cx="353.86" cy="493.637" r="8.41271" stroke-width="0.5" stroke="black" fill="cyan"/>
  <circle cx="353.86" cy="493.637" r="5.05167" stroke-width="0.5" stroke="black" fill="cyan"/>
   </g>
   <g id="cell68">
  <circle cx="562.901" cy="555.141" r="8.41271" stroke-width="0.5" stroke="black" fill="cyan"/>
  <circle cx="562.901" cy="555.141" r="5.05167" stroke-width="0.5" stroke="black" fill="cyan"/>
   </g>
   <g id="cell69">
  <circle cx="442.171" cy="460.434" r="8.41271" stroke-width="0.5" stroke="black" fill="cyan"/>
  <circle cx="442.171" cy="460.434" r="5.05167" stroke-width="0.5" stroke="black" fill="cyan"/>
   </g>
   <g id="cell70">
  <circle cx="576.258" cy="476.767" r="8.41271" stroke-width="0.5" stroke="black" fill="cyan"/>
  <circle cx="576.258" cy="476.767" r="5.05167" stroke-width="0.5" stroke="black" fill="cyan"/>
   </g>
   <g id="cell71">
  <circle cx="380.16" cy="527.773" r="8.25377" stroke-width="0.5" stroke="black" fill="cyan"/>
  <circle cx="380.16" cy="527.773" r="4.98209" stroke-width="0.5" stroke="black" fill="cyan"/>
   </g>
   <g id="cell72">
  <circle cx="528.295" cy="508.873" r="8.37321" stroke-width="0.5" stroke="black" fill="cyan"/>
  <circle cx="528.295" cy="508.873" r="5.03708" stroke-width="0.5" stroke="black" fill="cyan"/>
   </g>
   <g id="cell73">
  <circle cx="364.584" cy="552.902" r="8.39083" stroke-width="0.5" stroke="black" fill="cyan"/>
  <circle cx="364.584" cy="552.902" r="5.04414" stroke-width="0.5" stroke="black" fill="cyan"/>
   </g>
   <g id="cell74">
  <circle cx="548.67" cy="434.16" r="2.77291" stroke-width="0.5" stroke="black" fill="cyan"/>
  <circle cx="548.67" cy="434.16" r="2.34311" stroke-width="0.5" stroke="black" fill="black"/>
   </g>
   <g id="cell75">
  <circle cx="529.291" cy="433.208" r="8.40427" stroke-width="0.5" stroke="black" fill="cyan"/>
  <circle cx="529.291" cy="433.208" r="5.04906" stroke-width="0.5" stroke="black" fill="cyan"/>
   </g>
   <g id="cell76">
  <circle cx="442.177" cy="382.244" r="8.28275" stroke-width="0.5" stroke="black" fill="green"/>
  <circle cx="442.177" cy="382.244" r="4.99901" stroke-width="0.5" stroke="black" fill="green"/>
   </g>
   <g id="cell77">
  <circle cx="477.777" cy="436.333" r="8.31296" stroke-width="0.5" stroke="black" fill="magenta"/>
  <circle cx="477.777" cy="436.333" r="5.01113" stroke-width="0.5" stroke="black" fill="magenta"/>
   </g>
   <g id="cell78">
  <circle cx="624.589" cy="462.281" r="8.38029" stroke-width="0.5" stroke="black" fill="green"/>
  <circle cx="624.589" cy="462.281" r="5.0404" stroke-width="0.5" stroke="black" fill="green"/>
   </g>
   <g id="cell79">
  <circle cx="517.389" cy="479.36" r="8.40154" stroke-width="0.5" stroke="black" fill="cyan"/>
  <circle cx="517.389" cy="479.36" r="5.04811" stroke-width="0.5" stroke="black" fill="cyan"/>
   </g>
   <g id="cell80">
  <circle cx="543.239" cy="616.208" r="8.00282" stroke-width="0.5" stroke="black" fill="green"/>
  <circle cx="543.239" cy="616.208" r="4.85255" stroke-width="0.5" stroke="black" fill="green"/>
   </g>
   <g id="cell81">
  <circle cx="544.992" cy="594.613" r="8.39465" stroke-width="0.5" stroke="black" fill="green"/>
  <circle cx="544.992" cy="594.613" r="5.04587" stroke-width="0.5" stroke="black" fill="green"/>
   </g>
   <g id="cell82">
  <circle cx="532.305" cy="559.882" r="8.39874" stroke-width="0.5" stroke="black" fill="magenta"/>
  <circle cx="532.305" cy="559.882" r="5.04711" stroke-width="0.5" stroke="black" fill="magenta"/>
   </g>
   <g id="cell83">
  <circle cx="635.554" cy="552.531" r="7.73186" stroke-width="0.5" stroke="black" fill="green"/>
  <circle cx="635.554" cy="552.531" r="4.6986" stroke-width="0.5" stroke="black" fill="green"/>
   </g>
   <g id="cell84">
  <circle cx="520.46" cy="495.106" r="8.39203" stroke-width="0.5" stroke="black" fill="cyan"/>
  <circle cx="520.46" cy="495.106" r="5.0446" stroke-width="0.5" stroke="black" fill="cyan"/>
   </g>
   <g id="cell85">
  <circle cx="352.511" cy="542.497" r="8.35072" stroke-width="0.5" stroke="black" fill="cyan"/>
  <circle cx="352.511" cy="542.497" r="5.02846" stroke-width="0.5" stroke="black" fill="cyan"/>
   </g>
   <g id="cell86">
  <circle cx="498.984" cy="534.736" r="7.9511" stroke-width="0.5" stroke="black" fill="magenta"/>
  <circle cx="498.984" cy="534.736" r="4.82428" stroke-width="0.5" stroke="black" fill="magenta"/>
   </g>
   <g id="cell87">
  <circle cx="578.563" cy="557.699" r="8.32454" stroke-width="0.5" stroke="black" fill="cyan"/>
  <circle cx="578.563" cy="557.699" r="5.01705" stroke-width="0.5" stroke="black" fill="cyan"/>
   </g>
   <g id="cell88">
  <circle cx="448.492" cy="531.456" r="8.38608" stroke-width="0.5" stroke="black" fill="magenta"/>
  <circle cx="448.492" cy="531.456" r="5.04229" stroke-width="0.5" stroke="black" fill="magenta"/>
   </g>
   <g id="cell89">
  <circle cx="552.84" cy="453.281" r="7.09903" stroke-width="0.5" stroke="black" fill="cyan"/>
  <circle cx="552.84" cy="453.281" r="4.31244" stroke-width="0.5" stroke="black" fill="cyan"/>
   </g>
   <g id="cell90">
  <circle cx="635.999" cy="472.611" r="7.7401" stroke-width="0.5" stroke="black" fill="green"/>
  <circle cx="635.999" cy="472.611" r="4.7056" stroke-width="0.5" stroke="black" fill="green"/>
   </g>
   <g id="cell91">
  <circle cx="547.427" cy="557.615" r="8.35889" stroke-width="0.5" stroke="black" fill="magenta"/>
  <circle cx="547.427" cy="557.615" r="5.03229" stroke-width="0.5" stroke="black" fill="magenta"/>
   </g>
   <g id="cell92">
  <circle cx="482.984" cy="552.087" r="8.3784" stroke-width="0.5" stroke="black" fill="green"/>
  <circle cx="482.984" cy="552.087" r="5.03921" stroke-width="0.5" stroke="black" fill="green"/>
   </g>
   <g id="cell93">
  <circle cx="537.916" cy="546.105" r="8.35889" stroke-width="0.5" stroke="black" fill="magenta"/>
  <circle cx="537.916" cy="546.105" r="5.03229" stroke-width="0.5" stroke="black" fill="magenta"/>
   </g>
   <g id="cell94">
  <circle cx="536.58" cy="495.723" r="8.37321" stroke-width="0.5" stroke="black" fill="cyan"/>
  <circle cx="536.58" cy="495.723" r="5.03708" stroke-width="0.5" stroke="black" fill="cyan"/>
   </g>
   <g id="cell95">
  <circle cx="466.378" cy="426.039" r="8.37208" stroke-width="0.5" stroke="black" fill="cyan"/>
  <circle cx="466.378" cy="426.039" r="5.03661" stroke-width="0.5" stroke="black" fill="cyan"/>
   </g>
   <g id="cell96">
  <circle cx="546.76" cy="529.791" r="7.1515" stroke-width="0.5" stroke="black" fill="cyan"/>
  <circle cx="546.76" cy="529.791" r="4.34867" stroke-width="0.5" stroke="black" fill="cyan"/>
   </g>
   <g id="cell97">
  <circle cx="421.505" cy="466.381" r="8.33038" stroke-width="0.5" stroke="black" fill="green"/>
  <circle cx="421.505" cy="466.381" r="5.02001" stroke-width="0.5" stroke="black" fill="green"/>
   </g>
   <g id="cell98">
  <circle cx="491.282" cy="522.063" r="7.85035" stroke-width="0.5" stroke="black" fill="green"/>
  <circle cx="491.282" cy="522.063" r="4.77002" stroke-width="0.5" stroke="black" fill="green"/>
   </g>
   <g id="cell99">
  <circle cx="358.311" cy="527.694" r="8.35072" stroke-width="0.5" stroke="black" fill="cyan"/>
  <circle cx="358.311" cy="527.694" r="5.02846" stroke-width="0.5" stroke="black" fill="cyan"/>
   </g>
   <g id="cell100">
  <circle cx="449.422" cy="396.304" r="8.34964" stroke-width="0.5" stroke="black" fill="green"/>
  <circle cx="449.422" cy="396.304" r="5.02757" stroke-width="0.5" stroke="black" fill="green"/>
   </g>
   <g id="cell101">
  <circle cx="531.891" cy="480.659" r="7.04112" stroke-width="0.5" stroke="black" fill="cyan"/>
  <circle cx="531.891" cy="480.659" r="4.28083" stroke-width="0.5" stroke="black" fill="cyan"/>
   </g>
   <g id="cell102">
  <circle cx="434.922" cy="474.716" r="8.33038" stroke-width="0.5" stroke="black" fill="green"/>
  <circle cx="434.922" cy="474.716" r="5.02001" stroke-width="0.5" stroke="black" fill="green"/>
   </g>
   <g id="cell103">
  <circle cx="591.113" cy="447.791" r="7.93899" stroke-width="0.5" stroke="black" fill="cyan"/>
  <circle cx="591.113" cy="447.791" r="4.82084" stroke-width="0.5" stroke="black" fill="cyan"/>
   </g>
   <g id="cell104">
  <circle cx="593.448" cy="552.419" r="8.32454" stroke-width="0.5" stroke="black" fill="cyan"/>
  <circle cx="593.448" cy="552.419" r="5.01705" stroke-width="0.5" stroke="black" fill="cyan"/>
   </g>
   <g id="cell106">
  <circle cx="463.746" cy="441.334" r="8.31296" stroke-width="0.5" stroke="black" fill="magenta"/>
  <circle cx="463.746" cy="441.334" r="5.01113" stroke-width="0.5" stroke="black" fill="magenta"/>
   </g>
   <g id="cell107">
  <circle cx="457.584" cy="383.213" r="7.90464" stroke-width="0.5" stroke="black" fill="green"/>
  <circle cx="457.584" cy="383.213" r="4.80635" stroke-width="0.5" stroke="black" fill="green"/>
   </g>
   <g id="cell108">
  <circle cx="555.453" cy="606.683" r="8.29667" stroke-width="0.5" stroke="black" fill="green"/>
  <circle cx="555.453" cy="606.683" r="5.00279" stroke-width="0.5" stroke="black" fill="green"/>
   </g>
   <g id="cell109">
  <circle cx="576.564" cy="590.01" r="8.22688" stroke-width="0.5" stroke="black" fill="green"/>
  <circle cx="576.564" cy="590.01" r="4.9728" stroke-width="0.5" stroke="black" fill="green"/>
   </g>
   <g id="cell110">
  <circle cx="373.672" cy="513.48" r="8.25377" stroke-width="0.5" stroke="black" fill="cyan"/>
  <circle cx="373.672" cy="513.48" r="4.98209" stroke-width="0.5" stroke="black" fill="cyan"/>
   </g>
   <g id="cell111">
  <circle cx="456.334" cy="553.777" r="6.99142" stroke-width="0.5" stroke="black" fill="magenta"/>
  <circle cx="456.334" cy="553.777" r="4.26323" stroke-width="0.5" stroke="black" fill="magenta"/>
   </g>
   <g id="cell112">
  <circle cx="506.949" cy="468.06" r="8.23444" stroke-width="0.5" stroke="black" fill="magenta"/>
  <circle cx="506.949" cy="468.06" r="4.97252" stroke-width="0.5" stroke="black" fill="magenta"/>
   </g>
   <g id="cell113">
  <circle cx="543.087" cy="406.328" r="8.22925" stroke-width="0.5" stroke="black" fill="green"/>
  <circle cx="543.087" cy="406.328" r="4.96993" stroke-width="0.5" stroke="black" fill="green"/>
   </g>
   <g id="cell114">
  <circle cx="525.164" cy="448.619" r="8.099" stroke-width="0.5" stroke="black" fill="cyan"/>
  <circle cx="525.164" cy="448.619" r="4.90975" stroke-width="0.5" stroke="black" fill="cyan"/>
   </g>
   <g id="cell115">
  <circle cx="538.37" cy="454.744" r="7.2157" stroke-width="0.5" stroke="black" fill="cyan"/>
  <circle cx="538.37" cy="454.744" r="4.41517" stroke-width="0.5" stroke="black" fill="cyan"/>
   </g>
   <g id="cell116">
  <circle cx="520.28" cy="521.813" r="8.14993" stroke-width="0.5" stroke="black" fill="cyan"/>
  <circle cx="520.28" cy="521.813" r="4.93125" stroke-width="0.5" stroke="black" fill="cyan"/>
   </g>
   <g id="cell117">
  <circle cx="509.447" cy="623.752" r="8.06149" stroke-width="0.5" stroke="black" fill="green"/>
  <circle cx="509.447" cy="623.752" r="4.88793" stroke-width="0.5" stroke="black" fill="green"/>
   </g>
   <g id="cell118">
  <circle cx="510.38" cy="453.161" r="8.00811" stroke-width="0.5" stroke="black" fill="cyan"/>
  <circle cx="510.38" cy="453.161" r="4.85435" stroke-width="0.5" stroke="black" fill="cyan"/>
   </g>
   <g id="cell119">
  <circle cx="533.278" cy="604.731" r="8.00282" stroke-width="0.5" stroke="black" fill="green"/>
  <circle cx="533.278" cy="604.731" r="4.85255" stroke-width="0.5" stroke="black" fill="green"/>
   </g>
   <g id="cell120">
  <circle cx="576.435" cy="444.382" r="7.93899" stroke-width="0.5" stroke="black" fill="cyan"/>
  <circle cx="576.435" cy="444.382" r="4.82084" stroke-width="0.5" stroke="black" fill="cyan"/>
   </g>
   <g id="cell121">
  <circle cx="451.385" cy="370.381" r="7.35873" stroke-width="0.5" stroke="black" fill="green"/>
  <circle cx="451.385" cy="370.381" r="4.50777" stroke-width="0.5" stroke="black" fill="green"/>
   </g>
   <g id="cell122">
  <circle cx="505.756" cy="522.247" r="7.9511" stroke-width="0.5" stroke="black" fill="magenta"/>
  <circle cx="505.756" cy="522.247" r="4.82428" stroke-width="0.5" stroke="black" fill="magenta"/>
   </g>
   <g id="cell123">
  <circle cx="497.903" cy="509.223" r="7.85035" stroke-width="0.5" stroke="black" fill="green"/>
  <circle cx="497.903" cy="509.223" r="4.77002" stroke-width="0.5" stroke="black" fill="green"/>
   </g>
   <g id="cell124">
  <circle cx="491.674" cy="432.587" r="7.87328" stroke-width="0.5" stroke="black" fill="magenta"/>
  <circle cx="491.674" cy="432.587" r="4.77925" stroke-width="0.5" stroke="black" fill="magenta"/>
   </g>
   <g id="cell125">
  <circle cx="622.162" cy="477.376" r="7.7401" stroke-width="0.5" stroke="black" fill="green"/>
  <circle cx="622.162" cy="477.376" r="4.7056" stroke-width="0.5" stroke="black" fill="green"/>
   </g>
   <g id="cell126">
  <circle cx="629.268" cy="565.75" r="7.73186" stroke-width="0.5" stroke="black" fill="green"/>
  <circle cx="629.268" cy="565.75" r="4.6986" stroke-width="0.5" stroke="black" fill="green"/>
   </g>
   <g id="cell127">
  <circle cx="440.047" cy="362.503" r="7.35873" stroke-width="0.5" stroke="black" fill="green"/>
  <circle cx="440.047" cy="362.503" r="4.50777" stroke-width="0.5" stroke="black" fill="green"/>
   </g>
   <g id="cell128">
  <circle cx="373.01" cy="469.529" r="7.56839" stroke-width="0.5" stroke="black" fill="magenta"/>
  <circle cx="373.01" cy="469.529" r="4.59998" stroke-width="0.5" stroke="black" fill="magenta"/>
   </g>
   <g id="cell129">
  <circle cx="567.628" cy="540.625" r="7.47915" stroke-width="0.5" stroke="black" fill="cyan"/>
  <circle cx="567.628" cy="540.625" r="4.54983" stroke-width="0.5" stroke="black" fill="cyan"/>
   </g>
   <g id="cell130">
  <circle cx="544.512" cy="442.633" r="7.2157" stroke-width="0.5" stroke="black" fill="cyan"/>
  <circle cx="544.512" cy="442.633" r="4.41517" stroke-width="0.5" stroke="black" fill="cyan"/>
   </g>
   <g id="cell131">
  <circle cx="537.946" cy="519.769" r="7.1515" stroke-width="0.5" stroke="black" fill="cyan"/>
  <circle cx="537.946" cy="519.769" r="4.34867" stroke-width="0.5" stroke="black" fill="cyan"/>
   </g>
   <g id="cell132">
  <circle cx="447.346" cy="545.117" r="6.99142" stroke-width="0.5" stroke="black" fill="magenta"/>
  <circle cx="447.346" cy="545.117" r="4.26323" stroke-width="0.5" stroke="black" fill="magenta"/>
   </g>
   <g id="cell133">
  <circle cx="562.637" cy="462.519" r="7.09903" stroke-width="0.5" stroke="black" fill="cyan"/>
  <circle cx="562.637" cy="462.519" r="4.31244" stroke-width="0.5" stroke="black" fill="cyan"/>
   </g>
   <g id="cell134">
  <circle cx="535.172" cy="467.804" r="7.04112" stroke-width="0.5" stroke="black" fill="cyan"/>
  <circle cx="535.172" cy="467.804" r="4.28083" stroke-width="0.5" stroke="black" fill="cyan"/>
   </g>
   <g id="cell135">
  <circle cx="509.826" cy="581.038" r="6.95901" stroke-width="0.5" stroke="black" fill="magenta"/>
  <circle cx="509.826" cy="581.038" r="4.21341" stroke-width="0.5" stroke="black" fill="magenta"/>
   </g>
   <g id="cell136">
  <circle cx="474.433" cy="540.339" r="6.78263" stroke-width="0.5" stroke="black" fill="green"/>
  <circle cx="474.433" cy="540.339" r="4.09744" stroke-width="0.5" stroke="black" fill="green"/>
   </g>
   <g id="cell137">
  <circle cx="498.245" cy="610.273" r="6.39841" stroke-width="0.5" stroke="black" fill="green"/>
  <circle cx="498.245" cy="610.273" r="3.87956" stroke-width="0.5" stroke="black" fill="green"/>
   </g>
   <g id="cell138">
  <circle cx="500.552" cy="412.7" r="6.67717" stroke-width="0.5" stroke="black" fill="green"/>
  <circle cx="500.552" cy="412.7" r="4.00951" stroke-width="0.5" stroke="black" fill="green"/>
   </g>
  </g>
 </g>
  <rect x="775" y="1035" width="200" height="10" stroke-width="2" stroke="rgb(255,255,255)" fill="rgb(0,0,0)"/>
  <text x="781.25" y="1028.75"
   font-family="Arial" font-size="25" fill="black" >
   200 &#956;m
  </text>
  <text x="25" y="1045"
   font-family="Arial" font-size="18.75" fill="black" >
   0 days, 0 hours, 0 minutes, and 24.1260 seconds
  </text>
  <rect x="0" y="70" width="1000" height="1000" stroke-width="2" stroke="rgb(0,0,0)" fill="none"/>
</svg>
