<?xml version="1.0" encoding="UTF-8" standalone="no"?>
<!-- Created with PhysiCell (http://PhysiCell.MathCancer.org/) -->
<svg 
 xmlns:dc="http://purl.org/dc/elements/1.1/" 
 xmlns:cc="http://creativecommons.org/ns#" 
 xmlns:rdf="http://www.w3.org/1999/02/22-rdf-syntax-ns#" 
 xmlns:svg="http://www.w3.org/2000/svg" 
 xmlns="http://www.w3.org/2000/svg" 
 version="1.1" 
 width="1000" 
 height="1070" 
 id="svg2">
  <rect x="0" y="0" width="1000" height="1070" stroke-width="2" stroke="white" fill="white"/>
  <text x="12.5" y="30"
   font-family="Arial" font-size="25" fill="black" >
   Current time: 0 days, 13 hours, and 18.00 minutes, z = 0.00 &#956;m
  </text>
  <text x="12.5" y="57.5"
   font-family="Arial" font-size="23.75" fill="black" >
   116 agents
  </text>
 <g id="tissue" 
    transform="translate(0,1070) scale(1,-1)">
  <g id="ECM">
  </g>
  <g id="cells">
   <g id="cell0">
  <circle cx="515.714" cy="534.295" r="8.23444" stroke-width="0.5" stroke="black" fill="magenta"/>
  <circle cx="515.714" cy="534.295" r="4.97252" stroke-width="0.5" stroke="black" fill="magenta"/>
   </g>
   <g id="cell1">
  <circle cx="602.492" cy="526.171" r="8.41271" stroke-width="0.5" stroke="black" fill="magenta"/>
  <circle cx="602.492" cy="526.171" r="5.05167" stroke-width="0.5" stroke="black" fill="magenta"/>
   </g>
   <g id="cell2">
  <circle cx="514.277" cy="599.792" r="8.41271" stroke-width="0.5" stroke="black" fill="magenta"/>
  <circle cx="514.277" cy="599.792" r="5.05167" stroke-width="0.5" stroke="black" fill="magenta"/>
   </g>
   <g id="cell3">
  <circle cx="523.889" cy="546.584" r="8.11733" stroke-width="0.5" stroke="black" fill="magenta"/>
  <circle cx="523.889" cy="546.584" r="4.91812" stroke-width="0.5" stroke="black" fill="magenta"/>
   </g>
   <g id="cell4">
  <circle cx="490.421" cy="437.445" r="8.34117" stroke-width="0.5" stroke="black" fill="magenta"/>
  <circle cx="490.421" cy="437.445" r="5.02327" stroke-width="0.5" stroke="black" fill="magenta"/>
   </g>
   <g id="cell5">
  <circle cx="465.032" cy="493.3" r="8.41271" stroke-width="0.5" stroke="black" fill="magenta"/>
  <circle cx="465.032" cy="493.3" r="5.05167" stroke-width="0.5" stroke="black" fill="magenta"/>
   </g>
   <g id="cell6">
  <circle cx="595.637" cy="512.669" r="8.41271" stroke-width="0.5" stroke="black" fill="magenta"/>
  <circle cx="595.637" cy="512.669" r="5.05167" stroke-width="0.5" stroke="black" fill="magenta"/>
   </g>
   <g id="cell7">
  <circle cx="504.966" cy="456.064" r="7.02257" stroke-width="0.5" stroke="black" fill="magenta"/>
  <circle cx="504.966" cy="456.064" r="4.25644" stroke-width="0.5" stroke="black" fill="magenta"/>
   </g>
   <g id="cell8">
  <circle cx="376.415" cy="543.201" r="8.41271" stroke-width="0.5" stroke="black" fill="magenta"/>
  <circle cx="376.415" cy="543.201" r="5.05167" stroke-width="0.5" stroke="black" fill="magenta"/>
   </g>
   <g id="cell9">
  <circle cx="460.472" cy="599.786" r="8.41271" stroke-width="0.5" stroke="black" fill="magenta"/>
  <circle cx="460.472" cy="599.786" r="5.05167" stroke-width="0.5" stroke="black" fill="magenta"/>
   </g>
   <g id="cell10">
  <circle cx="583.447" cy="392.105" r="8.41271" stroke-width="0.5" stroke="black" fill="magenta"/>
  <circle cx="583.447" cy="392.105" r="5.05167" stroke-width="0.5" stroke="black" fill="magenta"/>
   </g>
   <g id="cell11">
  <circle cx="590.567" cy="590.16" r="8.41271" stroke-width="0.5" stroke="black" fill="magenta"/>
  <circle cx="590.567" cy="590.16" r="5.05167" stroke-width="0.5" stroke="black" fill="magenta"/>
   </g>
   <g id="cell12">
  <circle cx="507.025" cy="586.493" r="8.41271" stroke-width="0.5" stroke="black" fill="magenta"/>
  <circle cx="507.025" cy="586.493" r="5.05167" stroke-width="0.5" stroke="black" fill="magenta"/>
   </g>
   <g id="cell13">
  <circle cx="386.194" cy="568.228" r="8.41271" stroke-width="0.5" stroke="black" fill="magenta"/>
  <circle cx="386.194" cy="568.228" r="5.05167" stroke-width="0.5" stroke="black" fill="magenta"/>
   </g>
   <g id="cell14">
  <circle cx="529.727" cy="399.223" r="8.41271" stroke-width="0.5" stroke="black" fill="magenta"/>
  <circle cx="529.727" cy="399.223" r="5.05167" stroke-width="0.5" stroke="black" fill="magenta"/>
   </g>
   <g id="cell15">
  <circle cx="379.65" cy="475.1" r="8.41271" stroke-width="0.5" stroke="black" fill="magenta"/>
  <circle cx="379.65" cy="475.1" r="5.05167" stroke-width="0.5" stroke="black" fill="magenta"/>
   </g>
   <g id="cell16">
  <circle cx="428.961" cy="413.207" r="8.41271" stroke-width="0.5" stroke="black" fill="magenta"/>
  <circle cx="428.961" cy="413.207" r="5.05167" stroke-width="0.5" stroke="black" fill="magenta"/>
   </g>
   <g id="cell17">
  <circle cx="570.2" cy="490.758" r="8.41271" stroke-width="0.5" stroke="black" fill="magenta"/>
  <circle cx="570.2" cy="490.758" r="5.05167" stroke-width="0.5" stroke="black" fill="magenta"/>
   </g>
   <g id="cell18">
  <circle cx="518.039" cy="389.471" r="8.41271" stroke-width="0.5" stroke="black" fill="magenta"/>
  <circle cx="518.039" cy="389.471" r="5.05167" stroke-width="0.5" stroke="black" fill="magenta"/>
   </g>
   <g id="cell19">
  <circle cx="458.729" cy="540.382" r="6.93775" stroke-width="0.5" stroke="black" fill="magenta"/>
  <circle cx="458.729" cy="540.382" r="4.23023" stroke-width="0.5" stroke="black" fill="magenta"/>
   </g>
   <g id="cell20">
  <circle cx="531.55" cy="414.267" r="8.41271" stroke-width="0.5" stroke="black" fill="magenta"/>
  <circle cx="531.55" cy="414.267" r="5.05167" stroke-width="0.5" stroke="black" fill="magenta"/>
   </g>
   <g id="cell21">
  <circle cx="464.368" cy="634.574" r="8.41271" stroke-width="0.5" stroke="black" fill="magenta"/>
  <circle cx="464.368" cy="634.574" r="5.05167" stroke-width="0.5" stroke="black" fill="magenta"/>
   </g>
   <g id="cell22">
  <circle cx="555.696" cy="495.801" r="8.41271" stroke-width="0.5" stroke="black" fill="magenta"/>
  <circle cx="555.696" cy="495.801" r="5.05167" stroke-width="0.5" stroke="black" fill="magenta"/>
   </g>
   <g id="cell23">
  <circle cx="543.887" cy="485.855" r="8.41271" stroke-width="0.5" stroke="black" fill="magenta"/>
  <circle cx="543.887" cy="485.855" r="5.05167" stroke-width="0.5" stroke="black" fill="magenta"/>
   </g>
   <g id="cell24">
  <circle cx="559.214" cy="380.055" r="8.41271" stroke-width="0.5" stroke="black" fill="magenta"/>
  <circle cx="559.214" cy="380.055" r="5.05167" stroke-width="0.5" stroke="black" fill="magenta"/>
   </g>
   <g id="cell25">
  <circle cx="645.666" cy="545.258" r="8.3031" stroke-width="0.5" stroke="black" fill="green"/>
  <circle cx="645.666" cy="545.258" r="5.00583" stroke-width="0.5" stroke="black" fill="green"/>
   </g>
   <g id="cell26">
  <circle cx="554.074" cy="398.618" r="6.99069" stroke-width="0.5" stroke="black" fill="green"/>
  <circle cx="554.074" cy="398.618" r="4.23498" stroke-width="0.5" stroke="black" fill="green"/>
   </g>
   <g id="cell27">
  <circle cx="463.511" cy="389.599" r="8.34511" stroke-width="0.5" stroke="black" fill="green"/>
  <circle cx="463.511" cy="389.599" r="5.02502" stroke-width="0.5" stroke="black" fill="green"/>
   </g>
   <g id="cell28">
  <circle cx="433.281" cy="530.711" r="8.41271" stroke-width="0.5" stroke="black" fill="green"/>
  <circle cx="433.281" cy="530.711" r="5.05167" stroke-width="0.5" stroke="black" fill="green"/>
   </g>
   <g id="cell29">
  <circle cx="450.456" cy="516.014" r="8.41271" stroke-width="0.5" stroke="black" fill="green"/>
  <circle cx="450.456" cy="516.014" r="5.05167" stroke-width="0.5" stroke="black" fill="green"/>
   </g>
   <g id="cell30">
  <circle cx="481.032" cy="534.58" r="8.13813" stroke-width="0.5" stroke="black" fill="green"/>
  <circle cx="481.032" cy="534.58" r="4.92317" stroke-width="0.5" stroke="black" fill="green"/>
   </g>
   <g id="cell31">
  <circle cx="412.77" cy="541.291" r="8.41271" stroke-width="0.5" stroke="black" fill="green"/>
  <circle cx="412.77" cy="541.291" r="5.05167" stroke-width="0.5" stroke="black" fill="green"/>
   </g>
   <g id="cell32">
  <circle cx="421.482" cy="481.506" r="8.03527" stroke-width="0.5" stroke="black" fill="green"/>
  <circle cx="421.482" cy="481.506" r="4.86813" stroke-width="0.5" stroke="black" fill="green"/>
   </g>
   <g id="cell33">
  <circle cx="498.204" cy="424.056" r="8.41271" stroke-width="0.5" stroke="black" fill="green"/>
  <circle cx="498.204" cy="424.056" r="5.05167" stroke-width="0.5" stroke="black" fill="green"/>
   </g>
   <g id="cell34">
  <circle cx="397.088" cy="450.831" r="8.41271" stroke-width="0.5" stroke="black" fill="green"/>
  <circle cx="397.088" cy="450.831" r="5.05167" stroke-width="0.5" stroke="black" fill="green"/>
   </g>
   <g id="cell35">
  <circle cx="552.578" cy="540.777" r="8.41271" stroke-width="0.5" stroke="black" fill="green"/>
  <circle cx="552.578" cy="540.777" r="5.05167" stroke-width="0.5" stroke="black" fill="green"/>
   </g>
   <g id="cell36">
  <circle cx="391.486" cy="582.903" r="8.41271" stroke-width="0.5" stroke="black" fill="green"/>
  <circle cx="391.486" cy="582.903" r="5.05167" stroke-width="0.5" stroke="black" fill="green"/>
   </g>
   <g id="cell37">
  <circle cx="639.792" cy="457.313" r="8.33481" stroke-width="0.5" stroke="black" fill="green"/>
  <circle cx="639.792" cy="457.313" r="5.02043" stroke-width="0.5" stroke="black" fill="green"/>
   </g>
   <g id="cell38">
  <circle cx="529.531" cy="597.216" r="8.32032" stroke-width="0.5" stroke="black" fill="green"/>
  <circle cx="529.531" cy="597.216" r="5.01383" stroke-width="0.5" stroke="black" fill="green"/>
   </g>
   <g id="cell39">
  <circle cx="613.458" cy="490.595" r="8.41271" stroke-width="0.5" stroke="black" fill="green"/>
  <circle cx="613.458" cy="490.595" r="5.05167" stroke-width="0.5" stroke="black" fill="green"/>
   </g>
   <g id="cell40">
  <circle cx="485.348" cy="571.779" r="8.41271" stroke-width="0.5" stroke="black" fill="green"/>
  <circle cx="485.348" cy="571.779" r="5.05167" stroke-width="0.5" stroke="black" fill="green"/>
   </g>
   <g id="cell41">
  <circle cx="364.925" cy="480.252" r="8.41271" stroke-width="0.5" stroke="black" fill="green"/>
  <circle cx="364.925" cy="480.252" r="5.05167" stroke-width="0.5" stroke="black" fill="green"/>
   </g>
   <g id="cell42">
  <circle cx="438.842" cy="494.268" r="8.41271" stroke-width="0.5" stroke="black" fill="green"/>
  <circle cx="438.842" cy="494.268" r="5.05167" stroke-width="0.5" stroke="black" fill="green"/>
   </g>
   <g id="cell43">
  <circle cx="562.44" cy="441.093" r="8.41271" stroke-width="0.5" stroke="black" fill="green"/>
  <circle cx="562.44" cy="441.093" r="5.05167" stroke-width="0.5" stroke="black" fill="green"/>
   </g>
   <g id="cell44">
  <circle cx="475.857" cy="624.021" r="8.41271" stroke-width="0.5" stroke="black" fill="green"/>
  <circle cx="475.857" cy="624.021" r="5.05167" stroke-width="0.5" stroke="black" fill="green"/>
   </g>
   <g id="cell45">
  <circle cx="414.94" cy="556.969" r="7.65539" stroke-width="0.5" stroke="black" fill="green"/>
  <circle cx="414.94" cy="556.969" r="4.62266" stroke-width="0.5" stroke="black" fill="black"/>
   </g>
   <g id="cell46">
  <circle cx="523.938" cy="611.297" r="7.75912" stroke-width="0.5" stroke="black" fill="green"/>
  <circle cx="523.938" cy="611.297" r="4.71248" stroke-width="0.5" stroke="black" fill="green"/>
   </g>
   <g id="cell47">
  <circle cx="503.876" cy="502.723" r="8.01277" stroke-width="0.5" stroke="black" fill="green"/>
  <circle cx="503.876" cy="502.723" r="4.85584" stroke-width="0.5" stroke="black" fill="green"/>
   </g>
   <g id="cell48">
  <circle cx="569.607" cy="602.777" r="6.79592" stroke-width="0.5" stroke="black" fill="green"/>
  <circle cx="569.607" cy="602.777" r="4.17027" stroke-width="0.5" stroke="black" fill="green"/>
   </g>
   <g id="cell49">
  <circle cx="429.9" cy="397.631" r="8.41271" stroke-width="0.5" stroke="black" fill="green"/>
  <circle cx="429.9" cy="397.631" r="5.05167" stroke-width="0.5" stroke="black" fill="green"/>
   </g>
   <g id="cell50">
  <circle cx="514.724" cy="516.233" r="6.56369" stroke-width="0.5" stroke="black" fill="cyan"/>
  <circle cx="514.724" cy="516.233" r="3.96379" stroke-width="0.5" stroke="black" fill="cyan"/>
   </g>
   <g id="cell51">
  <circle cx="398.721" cy="597.201" r="8.41271" stroke-width="0.5" stroke="black" fill="cyan"/>
  <circle cx="398.721" cy="597.201" r="5.05167" stroke-width="0.5" stroke="black" fill="cyan"/>
   </g>
   <g id="cell52">
  <circle cx="518.471" cy="422.667" r="8.41271" stroke-width="0.5" stroke="black" fill="cyan"/>
  <circle cx="518.471" cy="422.667" r="5.05167" stroke-width="0.5" stroke="black" fill="cyan"/>
   </g>
   <g id="cell53">
  <circle cx="572.942" cy="430.175" r="7.86286" stroke-width="0.5" stroke="black" fill="cyan"/>
  <circle cx="572.942" cy="430.175" r="4.77207" stroke-width="0.5" stroke="black" fill="cyan"/>
   </g>
   <g id="cell54">
  <circle cx="482.492" cy="424.368" r="8.08613" stroke-width="0.5" stroke="black" fill="cyan"/>
  <circle cx="482.492" cy="424.368" r="4.8956" stroke-width="0.5" stroke="black" fill="cyan"/>
   </g>
   <g id="cell55">
  <circle cx="524.422" cy="462.493" r="7.88806" stroke-width="0.5" stroke="black" fill="cyan"/>
  <circle cx="524.422" cy="462.493" r="4.79366" stroke-width="0.5" stroke="black" fill="cyan"/>
   </g>
   <g id="cell56">
  <circle cx="617.613" cy="522.333" r="8.41271" stroke-width="0.5" stroke="black" fill="cyan"/>
  <circle cx="617.613" cy="522.333" r="5.05167" stroke-width="0.5" stroke="black" fill="cyan"/>
   </g>
   <g id="cell105">
  <circle cx="509.543" cy="614.004" r="7.75912" stroke-width="0.5" stroke="black" fill="green"/>
  <circle cx="509.543" cy="614.004" r="4.71248" stroke-width="0.5" stroke="black" fill="green"/>
   </g>
   <g id="cell58">
  <circle cx="558.577" cy="480.635" r="8.41271" stroke-width="0.5" stroke="black" fill="cyan"/>
  <circle cx="558.577" cy="480.635" r="5.05167" stroke-width="0.5" stroke="black" fill="cyan"/>
   </g>
   <g id="cell59">
  <circle cx="385.463" cy="439.803" r="8.41271" stroke-width="0.5" stroke="black" fill="cyan"/>
  <circle cx="385.463" cy="439.803" r="5.05167" stroke-width="0.5" stroke="black" fill="cyan"/>
   </g>
   <g id="cell60">
  <circle cx="592.686" cy="473.703" r="8.41271" stroke-width="0.5" stroke="black" fill="cyan"/>
  <circle cx="592.686" cy="473.703" r="5.05167" stroke-width="0.5" stroke="black" fill="cyan"/>
   </g>
   <g id="cell61">
  <circle cx="552.459" cy="619.959" r="8.41271" stroke-width="0.5" stroke="black" fill="cyan"/>
  <circle cx="552.459" cy="619.959" r="5.05167" stroke-width="0.5" stroke="black" fill="cyan"/>
   </g>
   <g id="cell62">
  <circle cx="516.148" cy="447.581" r="8.347" stroke-width="0.5" stroke="black" fill="cyan"/>
  <circle cx="516.148" cy="447.581" r="5.02586" stroke-width="0.5" stroke="black" fill="cyan"/>
   </g>
   <g id="cell63">
  <circle cx="573.277" cy="541.513" r="8.21839" stroke-width="0.5" stroke="black" fill="cyan"/>
  <circle cx="573.277" cy="541.513" r="4.96448" stroke-width="0.5" stroke="black" fill="cyan"/>
   </g>
   <g id="cell64">
  <circle cx="509.962" cy="636.825" r="8.41271" stroke-width="0.5" stroke="black" fill="cyan"/>
  <circle cx="509.962" cy="636.825" r="5.05167" stroke-width="0.5" stroke="black" fill="cyan"/>
   </g>
   <g id="cell65">
  <circle cx="546.788" cy="470.546" r="8.1947" stroke-width="0.5" stroke="black" fill="cyan"/>
  <circle cx="546.788" cy="470.546" r="4.95246" stroke-width="0.5" stroke="black" fill="cyan"/>
   </g>
   <g id="cell66">
  <circle cx="531.148" cy="533.639" r="8.06667" stroke-width="0.5" stroke="black" fill="cyan"/>
  <circle cx="531.148" cy="533.639" r="4.88515" stroke-width="0.5" stroke="black" fill="cyan"/>
   </g>
   <g id="cell67">
  <circle cx="354.711" cy="492.599" r="8.41271" stroke-width="0.5" stroke="black" fill="cyan"/>
  <circle cx="354.711" cy="492.599" r="5.05167" stroke-width="0.5" stroke="black" fill="cyan"/>
   </g>
   <g id="cell68">
  <circle cx="562.387" cy="553.11" r="8.41271" stroke-width="0.5" stroke="black" fill="cyan"/>
  <circle cx="562.387" cy="553.11" r="5.05167" stroke-width="0.5" stroke="black" fill="cyan"/>
   </g>
   <g id="cell69">
  <circle cx="442" cy="460.748" r="8.41271" stroke-width="0.5" stroke="black" fill="cyan"/>
  <circle cx="442" cy="460.748" r="5.05167" stroke-width="0.5" stroke="black" fill="cyan"/>
   </g>
   <g id="cell70">
  <circle cx="576.782" cy="476.448" r="8.41271" stroke-width="0.5" stroke="black" fill="cyan"/>
  <circle cx="576.782" cy="476.448" r="5.05167" stroke-width="0.5" stroke="black" fill="cyan"/>
   </g>
   <g id="cell71">
  <circle cx="379.959" cy="526.501" r="7.1497" stroke-width="0.5" stroke="black" fill="cyan"/>
  <circle cx="379.959" cy="526.501" r="4.34001" stroke-width="0.5" stroke="black" fill="cyan"/>
   </g>
   <g id="cell72">
  <circle cx="532.294" cy="512.018" r="8.09544" stroke-width="0.5" stroke="black" fill="cyan"/>
  <circle cx="532.294" cy="512.018" r="4.90058" stroke-width="0.5" stroke="black" fill="cyan"/>
   </g>
   <g id="cell73">
  <circle cx="364.171" cy="552.763" r="8.23948" stroke-width="0.5" stroke="black" fill="cyan"/>
  <circle cx="364.171" cy="552.763" r="4.97503" stroke-width="0.5" stroke="black" fill="cyan"/>
   </g>
   <g id="cell74">
  <circle cx="548.729" cy="442.737" r="6.99069" stroke-width="0.5" stroke="black" fill="cyan"/>
  <circle cx="548.729" cy="442.737" r="4.23498" stroke-width="0.5" stroke="black" fill="cyan"/>
   </g>
   <g id="cell75">
  <circle cx="527.368" cy="436.192" r="8.347" stroke-width="0.5" stroke="black" fill="cyan"/>
  <circle cx="527.368" cy="436.192" r="5.02586" stroke-width="0.5" stroke="black" fill="cyan"/>
   </g>
   <g id="cell76">
  <circle cx="441.536" cy="382.72" r="7.30774" stroke-width="0.5" stroke="black" fill="green"/>
  <circle cx="441.536" cy="382.72" r="4.47551" stroke-width="0.5" stroke="black" fill="green"/>
   </g>
   <g id="cell77">
  <circle cx="476.151" cy="437.407" r="7.5937" stroke-width="0.5" stroke="black" fill="magenta"/>
  <circle cx="476.151" cy="437.407" r="4.62317" stroke-width="0.5" stroke="black" fill="magenta"/>
   </g>
   <g id="cell78">
  <circle cx="624.548" cy="461.03" r="8.15382" stroke-width="0.5" stroke="black" fill="green"/>
  <circle cx="624.548" cy="461.03" r="4.93598" stroke-width="0.5" stroke="black" fill="green"/>
   </g>
   <g id="cell79">
  <circle cx="517.806" cy="479.472" r="8.32543" stroke-width="0.5" stroke="black" fill="cyan"/>
  <circle cx="517.806" cy="479.472" r="5.01617" stroke-width="0.5" stroke="black" fill="cyan"/>
   </g>
   <g id="cell80">
  <circle cx="539.128" cy="611.108" r="8.27065" stroke-width="0.5" stroke="black" fill="green"/>
  <circle cx="539.128" cy="611.108" r="4.99333" stroke-width="0.5" stroke="black" fill="green"/>
   </g>
   <g id="cell81">
  <circle cx="545.056" cy="596.5" r="8.27065" stroke-width="0.5" stroke="black" fill="green"/>
  <circle cx="545.056" cy="596.5" r="4.99333" stroke-width="0.5" stroke="black" fill="green"/>
   </g>
   <g id="cell82">
  <circle cx="532.855" cy="558.466" r="8.3031" stroke-width="0.5" stroke="black" fill="magenta"/>
  <circle cx="532.855" cy="558.466" r="5.00583" stroke-width="0.5" stroke="black" fill="magenta"/>
   </g>
   <g id="cell83">
  <circle cx="634.546" cy="556.492" r="8.3031" stroke-width="0.5" stroke="black" fill="green"/>
  <circle cx="634.546" cy="556.492" r="5.00583" stroke-width="0.5" stroke="black" fill="green"/>
   </g>
   <g id="cell84">
  <circle cx="519.287" cy="503.399" r="8.24914" stroke-width="0.5" stroke="black" fill="cyan"/>
  <circle cx="519.287" cy="503.399" r="4.97981" stroke-width="0.5" stroke="black" fill="cyan"/>
   </g>
   <g id="cell85">
  <circle cx="352.969" cy="542.267" r="7.90609" stroke-width="0.5" stroke="black" fill="cyan"/>
  <circle cx="352.969" cy="542.267" r="4.80711" stroke-width="0.5" stroke="black" fill="cyan"/>
   </g>
   <g id="cell86">
  <circle cx="504.375" cy="524.707" r="8.23444" stroke-width="0.5" stroke="black" fill="magenta"/>
  <circle cx="504.375" cy="524.707" r="4.97252" stroke-width="0.5" stroke="black" fill="magenta"/>
   </g>
   <g id="cell87">
  <circle cx="577.151" cy="556.147" r="7.68348" stroke-width="0.5" stroke="black" fill="cyan"/>
  <circle cx="577.151" cy="556.147" r="4.68271" stroke-width="0.5" stroke="black" fill="cyan"/>
   </g>
   <g id="cell88">
  <circle cx="448.641" cy="531.295" r="8.20088" stroke-width="0.5" stroke="black" fill="magenta"/>
  <circle cx="448.641" cy="531.295" r="4.95562" stroke-width="0.5" stroke="black" fill="magenta"/>
   </g>
   <g id="cell89">
  <circle cx="553.596" cy="456.442" r="8.1947" stroke-width="0.5" stroke="black" fill="cyan"/>
  <circle cx="553.596" cy="456.442" r="4.95246" stroke-width="0.5" stroke="black" fill="cyan"/>
   </g>
   <g id="cell90">
  <circle cx="630.96" cy="475.154" r="8.15382" stroke-width="0.5" stroke="black" fill="green"/>
  <circle cx="630.96" cy="475.154" r="4.93598" stroke-width="0.5" stroke="black" fill="green"/>
   </g>
   <g id="cell91">
  <circle cx="547.553" cy="555.669" r="7.97447" stroke-width="0.5" stroke="black" fill="magenta"/>
  <circle cx="547.553" cy="555.669" r="4.84842" stroke-width="0.5" stroke="black" fill="magenta"/>
   </g>
   <g id="cell92">
  <circle cx="482.514" cy="549.991" r="8.13813" stroke-width="0.5" stroke="black" fill="green"/>
  <circle cx="482.514" cy="549.991" r="4.92317" stroke-width="0.5" stroke="black" fill="green"/>
   </g>
   <g id="cell93">
  <circle cx="538.404" cy="545.331" r="7.97447" stroke-width="0.5" stroke="black" fill="magenta"/>
  <circle cx="538.404" cy="545.331" r="4.84842" stroke-width="0.5" stroke="black" fill="magenta"/>
   </g>
   <g id="cell94">
  <circle cx="533.004" cy="496.594" r="8.09544" stroke-width="0.5" stroke="black" fill="cyan"/>
  <circle cx="533.004" cy="496.594" r="4.90058" stroke-width="0.5" stroke="black" fill="cyan"/>
   </g>
   <g id="cell95">
  <circle cx="467.117" cy="426.051" r="8.08613" stroke-width="0.5" stroke="black" fill="cyan"/>
  <circle cx="467.117" cy="426.051" r="4.8956" stroke-width="0.5" stroke="black" fill="cyan"/>
   </g>
   <g id="cell96">
  <circle cx="542.603" cy="523.383" r="8.06667" stroke-width="0.5" stroke="black" fill="cyan"/>
  <circle cx="542.603" cy="523.383" r="4.88515" stroke-width="0.5" stroke="black" fill="cyan"/>
   </g>
   <g id="cell97">
  <circle cx="421.916" cy="466.509" r="7.72881" stroke-width="0.5" stroke="black" fill="green"/>
  <circle cx="421.916" cy="466.509" r="4.71245" stroke-width="0.5" stroke="black" fill="green"/>
   </g>
   <g id="cell98">
  <circle cx="493.776" cy="514.084" r="8.01277" stroke-width="0.5" stroke="black" fill="green"/>
  <circle cx="493.776" cy="514.084" r="4.85584" stroke-width="0.5" stroke="black" fill="green"/>
   </g>
   <g id="cell99">
  <circle cx="358.133" cy="528.164" r="7.90609" stroke-width="0.5" stroke="black" fill="cyan"/>
  <circle cx="358.133" cy="528.164" r="4.80711" stroke-width="0.5" stroke="black" fill="cyan"/>
   </g>
   <g id="cell100">
  <circle cx="449.046" cy="395.04" r="7.89903" stroke-width="0.5" stroke="black" fill="green"/>
  <circle cx="449.046" cy="395.04" r="4.79864" stroke-width="0.5" stroke="black" fill="green"/>
   </g>
   <g id="cell101">
  <circle cx="532.552" cy="475.397" r="7.88806" stroke-width="0.5" stroke="black" fill="cyan"/>
  <circle cx="532.552" cy="475.397" r="4.79366" stroke-width="0.5" stroke="black" fill="cyan"/>
   </g>
   <g id="cell102">
  <circle cx="434.495" cy="474.109" r="7.72881" stroke-width="0.5" stroke="black" fill="green"/>
  <circle cx="434.495" cy="474.109" r="4.71245" stroke-width="0.5" stroke="black" fill="green"/>
   </g>
   <g id="cell103">
  <circle cx="576.918" cy="444.948" r="7.86286" stroke-width="0.5" stroke="black" fill="cyan"/>
  <circle cx="576.918" cy="444.948" r="4.77207" stroke-width="0.5" stroke="black" fill="cyan"/>
   </g>
   <g id="cell104">
  <circle cx="591.417" cy="553.644" r="7.68348" stroke-width="0.5" stroke="black" fill="cyan"/>
  <circle cx="591.417" cy="553.644" r="4.68271" stroke-width="0.5" stroke="black" fill="cyan"/>
   </g>
   <g id="cell106">
  <circle cx="462.788" cy="439.97" r="7.5937" stroke-width="0.5" stroke="black" fill="magenta"/>
  <circle cx="462.788" cy="439.97" r="4.62317" stroke-width="0.5" stroke="black" fill="magenta"/>
   </g>
   <g id="cell107">
  <circle cx="454.486" cy="377.798" r="7.30774" stroke-width="0.5" stroke="black" fill="green"/>
  <circle cx="454.486" cy="377.798" r="4.47551" stroke-width="0.5" stroke="black" fill="green"/>
   </g>
   <g id="cell108">
  <circle cx="556.601" cy="605.616" r="7.46878" stroke-width="0.5" stroke="black" fill="green"/>
  <circle cx="556.601" cy="605.616" r="4.53982" stroke-width="0.5" stroke="black" fill="green"/>
   </g>
   <g id="cell109">
  <circle cx="576.756" cy="592.264" r="6.79592" stroke-width="0.5" stroke="black" fill="green"/>
  <circle cx="576.756" cy="592.264" r="4.17027" stroke-width="0.5" stroke="black" fill="green"/>
   </g>
   <g id="cell110">
  <circle cx="373.975" cy="514.19" r="7.1497" stroke-width="0.5" stroke="black" fill="cyan"/>
  <circle cx="373.975" cy="514.19" r="4.34001" stroke-width="0.5" stroke="black" fill="cyan"/>
   </g>
   <g id="cell111">
  <circle cx="454.057" cy="551.923" r="6.93775" stroke-width="0.5" stroke="black" fill="magenta"/>
  <circle cx="454.057" cy="551.923" r="4.23023" stroke-width="0.5" stroke="black" fill="magenta"/>
   </g>
   <g id="cell112">
  <circle cx="511.411" cy="466.848" r="7.02257" stroke-width="0.5" stroke="black" fill="magenta"/>
  <circle cx="511.411" cy="466.848" r="4.25644" stroke-width="0.5" stroke="black" fill="magenta"/>
   </g>
   <g id="cell113">
  <circle cx="542.678" cy="405.484" r="6.99069" stroke-width="0.5" stroke="black" fill="green"/>
  <circle cx="542.678" cy="405.484" r="4.23498" stroke-width="0.5" stroke="black" fill="green"/>
   </g>
   <g id="cell114">
  <circle cx="528.606" cy="450.545" r="5.7365" stroke-width="0.5" stroke="black" fill="cyan"/>
  <circle cx="528.606" cy="450.545" r="3.49567" stroke-width="0.5" stroke="black" fill="cyan"/>
   </g>
   <g id="cell115">
  <circle cx="538.038" cy="446.557" r="5.7365" stroke-width="0.5" stroke="black" fill="cyan"/>
  <circle cx="538.038" cy="446.557" r="3.49567" stroke-width="0.5" stroke="black" fill="cyan"/>
   </g>
   <g id="cell116">
  <circle cx="524.013" cy="523.198" r="6.56369" stroke-width="0.5" stroke="black" fill="cyan"/>
  <circle cx="524.013" cy="523.198" r="3.96379" stroke-width="0.5" stroke="black" fill="cyan"/>
   </g>
  </g>
 </g>
  <rect x="775" y="1035" width="200" height="10" stroke-width="2" stroke="rgb(255,255,255)" fill="rgb(0,0,0)"/>
  <text x="781.25" y="1028.75"
   font-family="Arial" font-size="25" fill="black" >
   200 &#956;m
  </text>
  <text x="25" y="1045"
   font-family="Arial" font-size="18.75" fill="black" >
   0 days, 0 hours, 0 minutes, and 15.2808 seconds
  </text>
  <rect x="0" y="70" width="1000" height="1000" stroke-width="2" stroke="rgb(0,0,0)" fill="none"/>
</svg>
