<?xml version="1.0" encoding="UTF-8" standalone="no"?>
<!-- Created with PhysiCell (http://PhysiCell.MathCancer.org/) -->
<svg 
 xmlns:dc="http://purl.org/dc/elements/1.1/" 
 xmlns:cc="http://creativecommons.org/ns#" 
 xmlns:rdf="http://www.w3.org/1999/02/22-rdf-syntax-ns#" 
 xmlns:svg="http://www.w3.org/2000/svg" 
 xmlns="http://www.w3.org/2000/svg" 
 version="1.1" 
 width="1000" 
 height="1070" 
 id="svg2">
  <rect x="0" y="0" width="1000" height="1070" stroke-width="2" stroke="white" fill="white"/>
  <text x="12.5" y="30"
   font-family="Arial" font-size="25" fill="black" >
   Current time: 1 days, 3 hours, and 0.00 minutes, z = 0.00 &#956;m
  </text>
  <text x="12.5" y="57.5"
   font-family="Arial" font-size="23.75" fill="black" >
   167 agents
  </text>
 <g id="tissue" 
    transform="translate(0,1070) scale(1,-1)">
  <g id="ECM">
  </g>
  <g id="cells">
   <g id="cell0">
  <circle cx="508.074" cy="547.582" r="8.41016" stroke-width="0.5" stroke="black" fill="magenta"/>
  <circle cx="508.074" cy="547.582" r="5.05098" stroke-width="0.5" stroke="black" fill="magenta"/>
   </g>
   <g id="cell1">
  <circle cx="604.054" cy="535.59" r="8.23948" stroke-width="0.5" stroke="black" fill="magenta"/>
  <circle cx="604.054" cy="535.59" r="4.97503" stroke-width="0.5" stroke="black" fill="magenta"/>
   </g>
   <g id="cell2">
  <circle cx="510.946" cy="599.442" r="8.35438" stroke-width="0.5" stroke="black" fill="magenta"/>
  <circle cx="510.946" cy="599.442" r="5.02948" stroke-width="0.5" stroke="black" fill="magenta"/>
   </g>
   <g id="cell3">
  <circle cx="523.205" cy="546.792" r="8.41271" stroke-width="0.5" stroke="black" fill="magenta"/>
  <circle cx="523.205" cy="546.792" r="5.05167" stroke-width="0.5" stroke="black" fill="magenta"/>
   </g>
   <g id="cell4">
  <circle cx="478.949" cy="440.392" r="8.41271" stroke-width="0.5" stroke="black" fill="magenta"/>
  <circle cx="478.949" cy="440.392" r="5.05167" stroke-width="0.5" stroke="black" fill="magenta"/>
   </g>
   <g id="cell5">
  <circle cx="456.419" cy="493.758" r="8.33182" stroke-width="0.5" stroke="black" fill="magenta"/>
  <circle cx="456.419" cy="493.758" r="5.01922" stroke-width="0.5" stroke="black" fill="magenta"/>
   </g>
   <g id="cell6">
  <circle cx="584.677" cy="516.704" r="8.33911" stroke-width="0.5" stroke="black" fill="magenta"/>
  <circle cx="584.677" cy="516.704" r="5.02235" stroke-width="0.5" stroke="black" fill="magenta"/>
   </g>
   <g id="cell7">
  <circle cx="500.122" cy="458.346" r="8.00621" stroke-width="0.5" stroke="black" fill="magenta"/>
  <circle cx="500.122" cy="458.346" r="4.86185" stroke-width="0.5" stroke="black" fill="magenta"/>
   </g>
   <g id="cell8">
  <circle cx="385.466" cy="538.325" r="8.36184" stroke-width="0.5" stroke="black" fill="magenta"/>
  <circle cx="385.466" cy="538.325" r="5.0325" stroke-width="0.5" stroke="black" fill="magenta"/>
   </g>
   <g id="cell9">
  <circle cx="461.525" cy="594.443" r="7.67987" stroke-width="0.5" stroke="black" fill="magenta"/>
  <circle cx="461.525" cy="594.443" r="4.66617" stroke-width="0.5" stroke="black" fill="magenta"/>
   </g>
   <g id="cell10">
  <circle cx="578.144" cy="391.183" r="7.41548" stroke-width="0.5" stroke="black" fill="magenta"/>
  <circle cx="578.144" cy="391.183" r="4.50723" stroke-width="0.5" stroke="black" fill="magenta"/>
   </g>
   <g id="cell11">
  <circle cx="589.748" cy="590.273" r="8.41271" stroke-width="0.5" stroke="black" fill="magenta"/>
  <circle cx="589.748" cy="590.273" r="5.05167" stroke-width="0.5" stroke="black" fill="magenta"/>
   </g>
   <g id="cell12">
  <circle cx="497.581" cy="593.147" r="8.32383" stroke-width="0.5" stroke="black" fill="magenta"/>
  <circle cx="497.581" cy="593.147" r="5.01677" stroke-width="0.5" stroke="black" fill="magenta"/>
   </g>
   <g id="cell13">
  <circle cx="380.789" cy="563.952" r="8.41271" stroke-width="0.5" stroke="black" fill="magenta"/>
  <circle cx="380.789" cy="563.952" r="5.05167" stroke-width="0.5" stroke="black" fill="magenta"/>
   </g>
   <g id="cell14">
  <circle cx="531.332" cy="399.568" r="8.41271" stroke-width="0.5" stroke="black" fill="magenta"/>
  <circle cx="531.332" cy="399.568" r="5.05167" stroke-width="0.5" stroke="black" fill="magenta"/>
   </g>
   <g id="cell15">
  <circle cx="384.767" cy="470.999" r="7.59183" stroke-width="0.5" stroke="black" fill="magenta"/>
  <circle cx="384.767" cy="470.999" r="4.61399" stroke-width="0.5" stroke="black" fill="magenta"/>
   </g>
   <g id="cell16">
  <circle cx="428.957" cy="413.38" r="8.41271" stroke-width="0.5" stroke="black" fill="magenta"/>
  <circle cx="428.957" cy="413.38" r="5.05167" stroke-width="0.5" stroke="black" fill="magenta"/>
   </g>
   <g id="cell17">
  <circle cx="597.932" cy="495.542" r="8.17396" stroke-width="0.5" stroke="black" fill="magenta"/>
  <circle cx="597.932" cy="495.542" r="4.94323" stroke-width="0.5" stroke="black" fill="magenta"/>
   </g>
   <g id="cell18">
  <circle cx="522.611" cy="387.826" r="7.87851" stroke-width="0.5" stroke="black" fill="magenta"/>
  <circle cx="522.611" cy="387.826" r="4.78096" stroke-width="0.5" stroke="black" fill="magenta"/>
   </g>
   <g id="cell19">
  <circle cx="451.991" cy="536.582" r="8.41271" stroke-width="0.5" stroke="black" fill="magenta"/>
  <circle cx="451.991" cy="536.582" r="5.05167" stroke-width="0.5" stroke="black" fill="magenta"/>
   </g>
   <g id="cell20">
  <circle cx="525.465" cy="413.462" r="8.41271" stroke-width="0.5" stroke="black" fill="magenta"/>
  <circle cx="525.465" cy="413.462" r="5.05167" stroke-width="0.5" stroke="black" fill="magenta"/>
   </g>
   <g id="cell21">
  <circle cx="464.368" cy="634.574" r="8.41271" stroke-width="0.5" stroke="black" fill="magenta"/>
  <circle cx="464.368" cy="634.574" r="5.05167" stroke-width="0.5" stroke="black" fill="magenta"/>
   </g>
   <g id="cell22">
  <circle cx="560.153" cy="499.281" r="8.41147" stroke-width="0.5" stroke="black" fill="magenta"/>
  <circle cx="560.153" cy="499.281" r="5.05136" stroke-width="0.5" stroke="black" fill="magenta"/>
   </g>
   <g id="cell23">
  <circle cx="523.363" cy="486.658" r="8.41271" stroke-width="0.5" stroke="black" fill="magenta"/>
  <circle cx="523.363" cy="486.658" r="5.05167" stroke-width="0.5" stroke="black" fill="magenta"/>
   </g>
   <g id="cell24">
  <circle cx="556.51" cy="383.236" r="8.41271" stroke-width="0.5" stroke="black" fill="magenta"/>
  <circle cx="556.51" cy="383.236" r="5.05167" stroke-width="0.5" stroke="black" fill="magenta"/>
   </g>
   <g id="cell25">
  <circle cx="640.943" cy="550.03" r="8.41271" stroke-width="0.5" stroke="black" fill="green"/>
  <circle cx="640.943" cy="550.03" r="5.05167" stroke-width="0.5" stroke="black" fill="green"/>
   </g>
   <g id="cell26">
  <circle cx="545.753" cy="394.342" r="8.40576" stroke-width="0.5" stroke="black" fill="green"/>
  <circle cx="545.753" cy="394.342" r="5.04957" stroke-width="0.5" stroke="black" fill="green"/>
   </g>
   <g id="cell27">
  <circle cx="454.608" cy="381.069" r="8.29888" stroke-width="0.5" stroke="black" fill="green"/>
  <circle cx="454.608" cy="381.069" r="5.00514" stroke-width="0.5" stroke="black" fill="green"/>
   </g>
   <g id="cell28">
  <circle cx="437.414" cy="531.024" r="8.41271" stroke-width="0.5" stroke="black" fill="green"/>
  <circle cx="437.414" cy="531.024" r="5.05167" stroke-width="0.5" stroke="black" fill="green"/>
   </g>
   <g id="cell29">
  <circle cx="450.003" cy="521.109" r="8.41271" stroke-width="0.5" stroke="black" fill="green"/>
  <circle cx="450.003" cy="521.109" r="5.05167" stroke-width="0.5" stroke="black" fill="green"/>
   </g>
   <g id="cell127">
  <circle cx="394.552" cy="565.329" r="6.95829" stroke-width="0.5" stroke="black" fill="magenta"/>
  <circle cx="394.552" cy="565.329" r="4.23712" stroke-width="0.5" stroke="black" fill="magenta"/>
   </g>
   <g id="cell31">
  <circle cx="412.776" cy="541.403" r="8.41271" stroke-width="0.5" stroke="black" fill="green"/>
  <circle cx="412.776" cy="541.403" r="5.05167" stroke-width="0.5" stroke="black" fill="green"/>
   </g>
   <g id="cell122">
  <circle cx="573.293" cy="493.019" r="8.08858" stroke-width="0.5" stroke="black" fill="magenta"/>
  <circle cx="573.293" cy="493.019" r="4.90498" stroke-width="0.5" stroke="black" fill="magenta"/>
   </g>
   <g id="cell33">
  <circle cx="491.532" cy="416.399" r="8.34884" stroke-width="0.5" stroke="black" fill="green"/>
  <circle cx="491.532" cy="416.399" r="5.02667" stroke-width="0.5" stroke="black" fill="green"/>
   </g>
   <g id="cell34">
  <circle cx="402.12" cy="449.676" r="8.36722" stroke-width="0.5" stroke="black" fill="green"/>
  <circle cx="402.12" cy="449.676" r="5.03458" stroke-width="0.5" stroke="black" fill="green"/>
   </g>
   <g id="cell35">
  <circle cx="553.757" cy="555.729" r="8.41154" stroke-width="0.5" stroke="black" fill="green"/>
  <circle cx="553.757" cy="555.729" r="5.05138" stroke-width="0.5" stroke="black" fill="green"/>
   </g>
   <g id="cell36">
  <circle cx="387.807" cy="577.852" r="8.41271" stroke-width="0.5" stroke="black" fill="green"/>
  <circle cx="387.807" cy="577.852" r="5.05167" stroke-width="0.5" stroke="black" fill="green"/>
   </g>
   <g id="cell37">
  <circle cx="632.917" cy="453.988" r="8.40839" stroke-width="0.5" stroke="black" fill="green"/>
  <circle cx="632.917" cy="453.988" r="5.05043" stroke-width="0.5" stroke="black" fill="green"/>
   </g>
   <g id="cell38">
  <circle cx="538.306" cy="595.646" r="7.98892" stroke-width="0.5" stroke="black" fill="green"/>
  <circle cx="538.306" cy="595.646" r="4.84272" stroke-width="0.5" stroke="black" fill="green"/>
   </g>
   <g id="cell39">
  <circle cx="612.419" cy="498.563" r="8.3827" stroke-width="0.5" stroke="black" fill="green"/>
  <circle cx="612.419" cy="498.563" r="5.0415" stroke-width="0.5" stroke="black" fill="green"/>
   </g>
   <g id="cell40">
  <circle cx="474.597" cy="576.086" r="6.71033" stroke-width="0.5" stroke="black" fill="green"/>
  <circle cx="474.597" cy="576.086" r="4.03402" stroke-width="0.5" stroke="black" fill="green"/>
   </g>
   <g id="cell41">
  <circle cx="373.69" cy="490.26" r="8.4085" stroke-width="0.5" stroke="black" fill="green"/>
  <circle cx="373.69" cy="490.26" r="5.05047" stroke-width="0.5" stroke="black" fill="green"/>
   </g>
   <g id="cell42">
  <circle cx="440.856" cy="493.09" r="8.41271" stroke-width="0.5" stroke="black" fill="green"/>
  <circle cx="440.856" cy="493.09" r="5.05167" stroke-width="0.5" stroke="black" fill="green"/>
   </g>
   <g id="cell43">
  <circle cx="558.417" cy="430.517" r="8.41067" stroke-width="0.5" stroke="black" fill="green"/>
  <circle cx="558.417" cy="430.517" r="5.05113" stroke-width="0.5" stroke="black" fill="green"/>
   </g>
   <g id="cell44">
  <circle cx="475.857" cy="624.02" r="8.41271" stroke-width="0.5" stroke="black" fill="green"/>
  <circle cx="475.857" cy="624.02" r="5.05167" stroke-width="0.5" stroke="black" fill="green"/>
   </g>
   <g id="cell45">
  <circle cx="413.78" cy="557.396" r="8.41271" stroke-width="0.5" stroke="black" fill="green"/>
  <circle cx="413.78" cy="557.396" r="5.05167" stroke-width="0.5" stroke="black" fill="green"/>
   </g>
   <g id="cell46">
  <circle cx="523.207" cy="608.499" r="8.41271" stroke-width="0.5" stroke="black" fill="green"/>
  <circle cx="523.207" cy="608.499" r="5.05167" stroke-width="0.5" stroke="black" fill="green"/>
   </g>
   <g id="cell47">
  <circle cx="502.269" cy="494.67" r="8.41125" stroke-width="0.5" stroke="black" fill="green"/>
  <circle cx="502.269" cy="494.67" r="5.05129" stroke-width="0.5" stroke="black" fill="green"/>
   </g>
   <g id="cell48">
  <circle cx="563.136" cy="603.503" r="8.41271" stroke-width="0.5" stroke="black" fill="green"/>
  <circle cx="563.136" cy="603.503" r="5.05167" stroke-width="0.5" stroke="black" fill="green"/>
   </g>
   <g id="cell49">
  <circle cx="428.973" cy="397.788" r="8.41271" stroke-width="0.5" stroke="black" fill="green"/>
  <circle cx="428.973" cy="397.788" r="5.05167" stroke-width="0.5" stroke="black" fill="green"/>
   </g>
   <g id="cell50">
  <circle cx="517.211" cy="500.736" r="8.41271" stroke-width="0.5" stroke="black" fill="cyan"/>
  <circle cx="517.211" cy="500.736" r="5.05167" stroke-width="0.5" stroke="black" fill="cyan"/>
   </g>
   <g id="cell51">
  <circle cx="396.447" cy="591.2" r="8.41271" stroke-width="0.5" stroke="black" fill="cyan"/>
  <circle cx="396.447" cy="591.2" r="5.05167" stroke-width="0.5" stroke="black" fill="cyan"/>
   </g>
   <g id="cell108">
  <circle cx="335.87" cy="544.795" r="8.38452" stroke-width="0.5" stroke="black" fill="cyan"/>
  <circle cx="335.87" cy="544.795" r="5.04185" stroke-width="0.5" stroke="black" fill="cyan"/>
   </g>
   <g id="cell53">
  <circle cx="572.559" cy="438.055" r="8.41271" stroke-width="0.5" stroke="black" fill="cyan"/>
  <circle cx="572.559" cy="438.055" r="5.05167" stroke-width="0.5" stroke="black" fill="cyan"/>
   </g>
   <g id="cell54">
  <circle cx="477.765" cy="424.783" r="8.41271" stroke-width="0.5" stroke="black" fill="cyan"/>
  <circle cx="477.765" cy="424.783" r="5.05167" stroke-width="0.5" stroke="black" fill="cyan"/>
   </g>
   <g id="cell55">
  <circle cx="523.263" cy="471.505" r="8.38291" stroke-width="0.5" stroke="black" fill="cyan"/>
  <circle cx="523.263" cy="471.505" r="5.04103" stroke-width="0.5" stroke="black" fill="cyan"/>
   </g>
   <g id="cell56">
  <circle cx="614.602" cy="524.259" r="8.41271" stroke-width="0.5" stroke="black" fill="cyan"/>
  <circle cx="614.602" cy="524.259" r="5.05167" stroke-width="0.5" stroke="black" fill="cyan"/>
   </g>
   <g id="cell57">
  <circle cx="416.924" cy="617.466" r="8.41271" stroke-width="0.5" stroke="black" fill="cyan"/>
  <circle cx="416.924" cy="617.466" r="5.05167" stroke-width="0.5" stroke="black" fill="cyan"/>
   </g>
   <g id="cell58">
  <circle cx="548.922" cy="475.537" r="8.41271" stroke-width="0.5" stroke="black" fill="cyan"/>
  <circle cx="548.922" cy="475.537" r="5.05167" stroke-width="0.5" stroke="black" fill="cyan"/>
   </g>
   <g id="cell59">
  <circle cx="394.491" cy="431.401" r="8.24438" stroke-width="0.5" stroke="black" fill="cyan"/>
  <circle cx="394.491" cy="431.401" r="4.97746" stroke-width="0.5" stroke="black" fill="cyan"/>
   </g>
   <g id="cell60">
  <circle cx="608.465" cy="470.264" r="6.19881" stroke-width="0.5" stroke="black" fill="cyan"/>
  <circle cx="608.465" cy="470.264" r="3.76858" stroke-width="0.5" stroke="black" fill="cyan"/>
   </g>
   <g id="cell61">
  <circle cx="558.489" cy="618.862" r="8.41271" stroke-width="0.5" stroke="black" fill="cyan"/>
  <circle cx="558.489" cy="618.862" r="5.05167" stroke-width="0.5" stroke="black" fill="cyan"/>
   </g>
   <g id="cell62">
  <circle cx="519.709" cy="437.161" r="6.81452" stroke-width="0.5" stroke="black" fill="cyan"/>
  <circle cx="519.709" cy="437.161" r="4.17078" stroke-width="0.5" stroke="black" fill="cyan"/>
   </g>
   <g id="cell63">
  <circle cx="593.497" cy="552.859" r="8.39884" stroke-width="0.5" stroke="black" fill="cyan"/>
  <circle cx="593.497" cy="552.859" r="5.04724" stroke-width="0.5" stroke="black" fill="cyan"/>
   </g>
   <g id="cell64">
  <circle cx="509.959" cy="636.755" r="8.41271" stroke-width="0.5" stroke="black" fill="cyan"/>
  <circle cx="509.959" cy="636.755" r="5.05167" stroke-width="0.5" stroke="black" fill="cyan"/>
   </g>
   <g id="cell65">
  <circle cx="535.306" cy="461.477" r="8.41271" stroke-width="0.5" stroke="black" fill="cyan"/>
  <circle cx="535.306" cy="461.477" r="5.05167" stroke-width="0.5" stroke="black" fill="cyan"/>
   </g>
   <g id="cell66">
  <circle cx="549.857" cy="535.502" r="8.40862" stroke-width="0.5" stroke="black" fill="cyan"/>
  <circle cx="549.857" cy="535.502" r="5.0505" stroke-width="0.5" stroke="black" fill="cyan"/>
   </g>
   <g id="cell67">
  <circle cx="360.317" cy="496.341" r="7.24154" stroke-width="0.5" stroke="black" fill="cyan"/>
  <circle cx="360.317" cy="496.341" r="4.39909" stroke-width="0.5" stroke="black" fill="cyan"/>
   </g>
   <g id="cell68">
  <circle cx="569.949" cy="557.761" r="8.41271" stroke-width="0.5" stroke="black" fill="cyan"/>
  <circle cx="569.949" cy="557.761" r="5.05167" stroke-width="0.5" stroke="black" fill="cyan"/>
   </g>
   <g id="cell69">
  <circle cx="434.462" cy="462.786" r="8.24989" stroke-width="0.5" stroke="black" fill="cyan"/>
  <circle cx="434.462" cy="462.786" r="4.98486" stroke-width="0.5" stroke="black" fill="cyan"/>
   </g>
   <g id="cell70">
  <circle cx="590.992" cy="472.618" r="8.40244" stroke-width="0.5" stroke="black" fill="cyan"/>
  <circle cx="590.992" cy="472.618" r="5.04843" stroke-width="0.5" stroke="black" fill="cyan"/>
   </g>
   <g id="cell71">
  <circle cx="372.466" cy="510.197" r="8.40066" stroke-width="0.5" stroke="black" fill="cyan"/>
  <circle cx="372.466" cy="510.197" r="5.04796" stroke-width="0.5" stroke="black" fill="cyan"/>
   </g>
   <g id="cell72">
  <circle cx="540.975" cy="519.528" r="8.41163" stroke-width="0.5" stroke="black" fill="cyan"/>
  <circle cx="540.975" cy="519.528" r="5.0514" stroke-width="0.5" stroke="black" fill="cyan"/>
   </g>
   <g id="cell73">
  <circle cx="346.838" cy="556.4" r="8.38452" stroke-width="0.5" stroke="black" fill="cyan"/>
  <circle cx="346.838" cy="556.4" r="5.04185" stroke-width="0.5" stroke="black" fill="cyan"/>
   </g>
   <g id="cell74">
  <circle cx="539.158" cy="436.52" r="7.81315" stroke-width="0.5" stroke="black" fill="cyan"/>
  <circle cx="539.158" cy="436.52" r="4.74367" stroke-width="0.5" stroke="black" fill="cyan"/>
   </g>
   <g id="cell75">
  <circle cx="533.145" cy="498.469" r="8.41163" stroke-width="0.5" stroke="black" fill="cyan"/>
  <circle cx="533.145" cy="498.469" r="5.0514" stroke-width="0.5" stroke="black" fill="cyan"/>
   </g>
   <g id="cell76">
  <circle cx="526.834" cy="556.722" r="3.0667" stroke-width="0.5" stroke="black" fill="green"/>
  <circle cx="526.834" cy="556.722" r="2.41345" stroke-width="0.5" stroke="black" fill="black"/>
   </g>
   <g id="cell77">
  <circle cx="546.643" cy="505.212" r="8.28199" stroke-width="0.5" stroke="black" fill="magenta"/>
  <circle cx="546.643" cy="505.212" r="4.99594" stroke-width="0.5" stroke="black" fill="magenta"/>
   </g>
   <g id="cell78">
  <circle cx="343.41" cy="486.532" r="8.4114" stroke-width="0.5" stroke="black" fill="cyan"/>
  <circle cx="343.41" cy="486.532" r="5.05134" stroke-width="0.5" stroke="black" fill="cyan"/>
   </g>
   <g id="cell79">
  <circle cx="487.966" cy="501.064" r="7.63609" stroke-width="0.5" stroke="black" fill="green"/>
  <circle cx="487.966" cy="501.064" r="4.6406" stroke-width="0.5" stroke="black" fill="green"/>
   </g>
   <g id="cell80">
  <circle cx="468.312" cy="484.511" r="8.41125" stroke-width="0.5" stroke="black" fill="magenta"/>
  <circle cx="468.312" cy="484.511" r="5.05129" stroke-width="0.5" stroke="black" fill="magenta"/>
   </g>
   <g id="cell81">
  <circle cx="482.186" cy="558.129" r="8.41112" stroke-width="0.5" stroke="black" fill="green"/>
  <circle cx="482.186" cy="558.129" r="5.05126" stroke-width="0.5" stroke="black" fill="green"/>
   </g>
   <g id="cell82">
  <circle cx="573.085" cy="530.574" r="7.91001" stroke-width="0.5" stroke="black" fill="cyan"/>
  <circle cx="573.085" cy="530.574" r="4.80146" stroke-width="0.5" stroke="black" fill="cyan"/>
   </g>
   <g id="cell83">
  <circle cx="565.227" cy="452.487" r="8.39884" stroke-width="0.5" stroke="black" fill="green"/>
  <circle cx="565.227" cy="452.487" r="5.04724" stroke-width="0.5" stroke="black" fill="green"/>
   </g>
   <g id="cell84">
  <circle cx="515.166" cy="535.016" r="7.42282" stroke-width="0.5" stroke="black" fill="magenta"/>
  <circle cx="515.166" cy="535.016" r="4.52768" stroke-width="0.5" stroke="black" fill="magenta"/>
   </g>
   <g id="cell85">
  <circle cx="375.605" cy="549.751" r="8.41002" stroke-width="0.5" stroke="black" fill="magenta"/>
  <circle cx="375.605" cy="549.751" r="5.05093" stroke-width="0.5" stroke="black" fill="magenta"/>
   </g>
   <g id="cell86">
  <circle cx="606.217" cy="483.28" r="8.40986" stroke-width="0.5" stroke="black" fill="green"/>
  <circle cx="606.217" cy="483.28" r="5.05089" stroke-width="0.5" stroke="black" fill="green"/>
   </g>
   <g id="cell87">
  <circle cx="360.184" cy="547.591" r="8.40961" stroke-width="0.5" stroke="black" fill="cyan"/>
  <circle cx="360.184" cy="547.591" r="5.05081" stroke-width="0.5" stroke="black" fill="cyan"/>
   </g>
   <g id="cell88">
  <circle cx="535.406" cy="538.85" r="7.38532" stroke-width="0.5" stroke="black" fill="cyan"/>
  <circle cx="535.406" cy="538.85" r="4.48947" stroke-width="0.5" stroke="black" fill="cyan"/>
   </g>
   <g id="cell89">
  <circle cx="361.315" cy="465.56" r="8.39811" stroke-width="0.5" stroke="black" fill="green"/>
  <circle cx="361.315" cy="465.56" r="5.04704" stroke-width="0.5" stroke="black" fill="green"/>
   </g>
   <g id="cell90">
  <circle cx="636.476" cy="469.437" r="8.40839" stroke-width="0.5" stroke="black" fill="green"/>
  <circle cx="636.476" cy="469.437" r="5.05043" stroke-width="0.5" stroke="black" fill="green"/>
   </g>
   <g id="cell91">
  <circle cx="381.277" cy="523.473" r="8.39958" stroke-width="0.5" stroke="black" fill="cyan"/>
  <circle cx="381.277" cy="523.473" r="5.04758" stroke-width="0.5" stroke="black" fill="cyan"/>
   </g>
   <g id="cell92">
  <circle cx="508.332" cy="614.098" r="8.407" stroke-width="0.5" stroke="black" fill="magenta"/>
  <circle cx="508.332" cy="614.098" r="5.04998" stroke-width="0.5" stroke="black" fill="magenta"/>
   </g>
   <g id="cell93">
  <circle cx="550.433" cy="408.79" r="7.61045" stroke-width="0.5" stroke="black" fill="green"/>
  <circle cx="550.433" cy="408.79" r="4.62625" stroke-width="0.5" stroke="black" fill="green"/>
   </g>
   <g id="cell94">
  <circle cx="388.478" cy="509.234" r="8.40066" stroke-width="0.5" stroke="black" fill="cyan"/>
  <circle cx="388.478" cy="509.234" r="5.04796" stroke-width="0.5" stroke="black" fill="cyan"/>
   </g>
   <g id="cell95">
  <circle cx="370.266" cy="535.123" r="8.39958" stroke-width="0.5" stroke="black" fill="cyan"/>
  <circle cx="370.266" cy="535.123" r="5.04758" stroke-width="0.5" stroke="black" fill="cyan"/>
   </g>
   <g id="cell96">
  <circle cx="577.954" cy="463.188" r="8.37774" stroke-width="0.5" stroke="black" fill="cyan"/>
  <circle cx="577.954" cy="463.188" r="5.03939" stroke-width="0.5" stroke="black" fill="cyan"/>
   </g>
   <g id="cell97">
  <circle cx="358.62" cy="481.565" r="8.39811" stroke-width="0.5" stroke="black" fill="green"/>
  <circle cx="358.62" cy="481.565" r="5.04704" stroke-width="0.5" stroke="black" fill="green"/>
   </g>
   <g id="cell98">
  <circle cx="579.659" cy="544.76" r="8.39884" stroke-width="0.5" stroke="black" fill="cyan"/>
  <circle cx="579.659" cy="544.76" r="5.04724" stroke-width="0.5" stroke="black" fill="cyan"/>
   </g>
   <g id="cell99">
  <circle cx="550.832" cy="459.513" r="8.39884" stroke-width="0.5" stroke="black" fill="green"/>
  <circle cx="550.832" cy="459.513" r="5.04724" stroke-width="0.5" stroke="black" fill="green"/>
   </g>
   <g id="cell100">
  <circle cx="632.756" cy="483.48" r="7.09169" stroke-width="0.5" stroke="black" fill="green"/>
  <circle cx="632.756" cy="483.48" r="4.31641" stroke-width="0.5" stroke="black" fill="green"/>
   </g>
   <g id="cell101">
  <circle cx="571.958" cy="508.329" r="8.38341" stroke-width="0.5" stroke="black" fill="magenta"/>
  <circle cx="571.958" cy="508.329" r="5.0417" stroke-width="0.5" stroke="black" fill="magenta"/>
   </g>
   <g id="cell102">
  <circle cx="463.486" cy="397.026" r="8.05574" stroke-width="0.5" stroke="black" fill="green"/>
  <circle cx="463.486" cy="397.026" r="4.88134" stroke-width="0.5" stroke="black" fill="green"/>
   </g>
   <g id="cell103">
  <circle cx="563.79" cy="543.139" r="8.38981" stroke-width="0.5" stroke="black" fill="cyan"/>
  <circle cx="563.79" cy="543.139" r="5.04387" stroke-width="0.5" stroke="black" fill="cyan"/>
   </g>
   <g id="cell104">
  <circle cx="627.739" cy="502.16" r="8.3827" stroke-width="0.5" stroke="black" fill="green"/>
  <circle cx="627.739" cy="502.16" r="5.0415" stroke-width="0.5" stroke="black" fill="green"/>
   </g>
   <g id="cell105">
  <circle cx="575.272" cy="478.216" r="8.28987" stroke-width="0.5" stroke="black" fill="magenta"/>
  <circle cx="575.272" cy="478.216" r="5.00238" stroke-width="0.5" stroke="black" fill="magenta"/>
   </g>
   <g id="cell106">
  <circle cx="537.417" cy="553.461" r="8.38694" stroke-width="0.5" stroke="black" fill="green"/>
  <circle cx="537.417" cy="553.461" r="5.04271" stroke-width="0.5" stroke="black" fill="green"/>
   </g>
   <g id="cell107">
  <circle cx="510.293" cy="584.556" r="8.38682" stroke-width="0.5" stroke="black" fill="magenta"/>
  <circle cx="510.293" cy="584.556" r="5.04258" stroke-width="0.5" stroke="black" fill="magenta"/>
   </g>
   <g id="cell109">
  <circle cx="515.246" cy="454.333" r="8.38291" stroke-width="0.5" stroke="black" fill="cyan"/>
  <circle cx="515.246" cy="454.333" r="5.04103" stroke-width="0.5" stroke="black" fill="cyan"/>
   </g>
   <g id="cell110">
  <circle cx="563.363" cy="468.695" r="8.37774" stroke-width="0.5" stroke="black" fill="cyan"/>
  <circle cx="563.363" cy="468.695" r="5.03939" stroke-width="0.5" stroke="black" fill="cyan"/>
   </g>
   <g id="cell111">
  <circle cx="561.527" cy="484.223" r="8.36366" stroke-width="0.5" stroke="black" fill="magenta"/>
  <circle cx="561.527" cy="484.223" r="5.03419" stroke-width="0.5" stroke="black" fill="magenta"/>
   </g>
   <g id="cell112">
  <circle cx="387.924" cy="456.668" r="8.36722" stroke-width="0.5" stroke="black" fill="green"/>
  <circle cx="387.924" cy="456.668" r="5.03458" stroke-width="0.5" stroke="black" fill="green"/>
   </g>
   <g id="cell113">
  <circle cx="390.38" cy="552.368" r="8.27707" stroke-width="0.5" stroke="black" fill="magenta"/>
  <circle cx="390.38" cy="552.368" r="4.99599" stroke-width="0.5" stroke="black" fill="magenta"/>
   </g>
   <g id="cell114">
  <circle cx="523.784" cy="592.795" r="7.89011" stroke-width="0.5" stroke="black" fill="magenta"/>
  <circle cx="523.784" cy="592.795" r="4.79325" stroke-width="0.5" stroke="black" fill="magenta"/>
   </g>
   <g id="cell115">
  <circle cx="505.01" cy="424.56" r="8.0891" stroke-width="0.5" stroke="black" fill="green"/>
  <circle cx="505.01" cy="424.56" r="4.90546" stroke-width="0.5" stroke="black" fill="green"/>
   </g>
   <g id="cell116">
  <circle cx="440.844" cy="477.178" r="8.34117" stroke-width="0.5" stroke="black" fill="cyan"/>
  <circle cx="440.844" cy="477.178" r="5.02327" stroke-width="0.5" stroke="black" fill="cyan"/>
   </g>
   <g id="cell117">
  <circle cx="608.175" cy="511.728" r="7.13055" stroke-width="0.5" stroke="black" fill="magenta"/>
  <circle cx="608.175" cy="511.728" r="4.33937" stroke-width="0.5" stroke="black" fill="magenta"/>
   </g>
   <g id="cell118">
  <circle cx="621.415" cy="472.946" r="8.32875" stroke-width="0.5" stroke="black" fill="green"/>
  <circle cx="621.415" cy="472.946" r="5.01872" stroke-width="0.5" stroke="black" fill="green"/>
   </g>
   <g id="cell119">
  <circle cx="497.05" cy="578.978" r="7.50096" stroke-width="0.5" stroke="black" fill="magenta"/>
  <circle cx="497.05" cy="578.978" r="4.57585" stroke-width="0.5" stroke="black" fill="magenta"/>
   </g>
   <g id="cell120">
  <circle cx="470.413" cy="499.41" r="8.33182" stroke-width="0.5" stroke="black" fill="magenta"/>
  <circle cx="470.413" cy="499.41" r="5.01922" stroke-width="0.5" stroke="black" fill="magenta"/>
   </g>
   <g id="cell121">
  <circle cx="446.723" cy="453.467" r="7.98277" stroke-width="0.5" stroke="black" fill="cyan"/>
  <circle cx="446.723" cy="453.467" r="4.84833" stroke-width="0.5" stroke="black" fill="cyan"/>
   </g>
   <g id="cell123">
  <circle cx="419.372" cy="461.44" r="7.71946" stroke-width="0.5" stroke="black" fill="cyan"/>
  <circle cx="419.372" cy="461.44" r="4.7045" stroke-width="0.5" stroke="black" fill="cyan"/>
   </g>
   <g id="cell124">
  <circle cx="443.94" cy="392.573" r="8.29888" stroke-width="0.5" stroke="black" fill="green"/>
  <circle cx="443.94" cy="392.573" r="5.00514" stroke-width="0.5" stroke="black" fill="green"/>
   </g>
   <g id="cell125">
  <circle cx="488.069" cy="451.425" r="7.08784" stroke-width="0.5" stroke="black" fill="green"/>
  <circle cx="488.069" cy="451.425" r="4.32078" stroke-width="0.5" stroke="black" fill="green"/>
   </g>
   <g id="cell126">
  <circle cx="485.201" cy="586.011" r="7.45233" stroke-width="0.5" stroke="black" fill="magenta"/>
  <circle cx="485.201" cy="586.011" r="4.54687" stroke-width="0.5" stroke="black" fill="magenta"/>
   </g>
   <g id="cell128">
  <circle cx="537.255" cy="484.258" r="7.51197" stroke-width="0.5" stroke="black" fill="magenta"/>
  <circle cx="537.255" cy="484.258" r="4.57921" stroke-width="0.5" stroke="black" fill="magenta"/>
   </g>
   <g id="cell129">
  <circle cx="527.027" cy="512.742" r="8.25693" stroke-width="0.5" stroke="black" fill="magenta"/>
  <circle cx="527.027" cy="512.742" r="4.98392" stroke-width="0.5" stroke="black" fill="magenta"/>
   </g>
   <g id="cell130">
  <circle cx="368.461" cy="445.928" r="8.04901" stroke-width="0.5" stroke="black" fill="cyan"/>
  <circle cx="368.461" cy="445.928" r="4.88375" stroke-width="0.5" stroke="black" fill="cyan"/>
   </g>
   <g id="cell131">
  <circle cx="599.01" cy="521.891" r="8.23948" stroke-width="0.5" stroke="black" fill="magenta"/>
  <circle cx="599.01" cy="521.891" r="4.97503" stroke-width="0.5" stroke="black" fill="magenta"/>
   </g>
   <g id="cell132">
  <circle cx="509.678" cy="481.009" r="8.1947" stroke-width="0.5" stroke="black" fill="magenta"/>
  <circle cx="509.678" cy="481.009" r="4.95246" stroke-width="0.5" stroke="black" fill="magenta"/>
   </g>
   <g id="cell133">
  <circle cx="584.779" cy="501.581" r="8.17396" stroke-width="0.5" stroke="black" fill="magenta"/>
  <circle cx="584.779" cy="501.581" r="4.94323" stroke-width="0.5" stroke="black" fill="magenta"/>
   </g>
   <g id="cell134">
  <circle cx="491.649" cy="431.998" r="8.0891" stroke-width="0.5" stroke="black" fill="green"/>
  <circle cx="491.649" cy="431.998" r="4.90546" stroke-width="0.5" stroke="black" fill="green"/>
   </g>
   <g id="cell135">
  <circle cx="586.511" cy="487.092" r="8.08858" stroke-width="0.5" stroke="black" fill="magenta"/>
  <circle cx="586.511" cy="487.092" r="4.90498" stroke-width="0.5" stroke="black" fill="magenta"/>
   </g>
   <g id="cell136">
  <circle cx="383.183" cy="441.902" r="8.04901" stroke-width="0.5" stroke="black" fill="cyan"/>
  <circle cx="383.183" cy="441.902" r="4.88375" stroke-width="0.5" stroke="black" fill="cyan"/>
   </g>
   <g id="cell137">
  <circle cx="498.312" cy="472.472" r="7.21462" stroke-width="0.5" stroke="black" fill="magenta"/>
  <circle cx="498.312" cy="472.472" r="4.41944" stroke-width="0.5" stroke="black" fill="magenta"/>
   </g>
   <g id="cell138">
  <circle cx="473.152" cy="387.066" r="6.59957" stroke-width="0.5" stroke="black" fill="green"/>
  <circle cx="473.152" cy="387.066" r="4.02081" stroke-width="0.5" stroke="black" fill="green"/>
   </g>
   <g id="cell139">
  <circle cx="452.837" cy="467.348" r="7.98277" stroke-width="0.5" stroke="black" fill="cyan"/>
  <circle cx="452.837" cy="467.348" r="4.84833" stroke-width="0.5" stroke="black" fill="cyan"/>
   </g>
   <g id="cell140">
  <circle cx="548.012" cy="607.331" r="7.98892" stroke-width="0.5" stroke="black" fill="green"/>
  <circle cx="548.012" cy="607.331" r="4.84272" stroke-width="0.5" stroke="black" fill="green"/>
   </g>
   <g id="cell141">
  <circle cx="588.05" cy="531.619" r="7.91001" stroke-width="0.5" stroke="black" fill="cyan"/>
  <circle cx="588.05" cy="531.619" r="4.80146" stroke-width="0.5" stroke="black" fill="cyan"/>
   </g>
   <g id="cell142">
  <circle cx="515.452" cy="591.724" r="1.62425" stroke-width="0.5" stroke="black" fill="magenta"/>
  <circle cx="515.452" cy="591.724" r="1.5505" stroke-width="0.5" stroke="black" fill="black"/>
   </g>
   <g id="cell143">
  <circle cx="529.069" cy="447.443" r="7.9229" stroke-width="0.5" stroke="black" fill="cyan"/>
  <circle cx="529.069" cy="447.443" r="4.80599" stroke-width="0.5" stroke="black" fill="cyan"/>
   </g>
   <g id="cell144">
  <circle cx="516.957" cy="401.037" r="7.87851" stroke-width="0.5" stroke="black" fill="magenta"/>
  <circle cx="516.957" cy="401.037" r="4.78096" stroke-width="0.5" stroke="black" fill="magenta"/>
   </g>
   <g id="cell145">
  <circle cx="551.819" cy="444.342" r="7.81315" stroke-width="0.5" stroke="black" fill="cyan"/>
  <circle cx="551.819" cy="444.342" r="4.74367" stroke-width="0.5" stroke="black" fill="cyan"/>
   </g>
   <g id="cell146">
  <circle cx="417.119" cy="446.961" r="7.71946" stroke-width="0.5" stroke="black" fill="cyan"/>
  <circle cx="417.119" cy="446.961" r="4.7045" stroke-width="0.5" stroke="black" fill="cyan"/>
   </g>
   <g id="cell147">
  <circle cx="535.61" cy="568.551" r="7.76258" stroke-width="0.5" stroke="black" fill="green"/>
  <circle cx="535.61" cy="568.551" r="4.71776" stroke-width="0.5" stroke="black" fill="green"/>
   </g>
   <g id="cell148">
  <circle cx="591" cy="456.332" r="7.75912" stroke-width="0.5" stroke="black" fill="cyan"/>
  <circle cx="591" cy="456.332" r="4.71248" stroke-width="0.5" stroke="black" fill="cyan"/>
   </g>
   <g id="cell149">
  <circle cx="467.879" cy="605.586" r="6.57807" stroke-width="0.5" stroke="black" fill="magenta"/>
  <circle cx="467.879" cy="605.586" r="4.03109" stroke-width="0.5" stroke="black" fill="magenta"/>
   </g>
   <g id="cell150">
  <circle cx="478.271" cy="511.879" r="7.63609" stroke-width="0.5" stroke="black" fill="green"/>
  <circle cx="478.271" cy="511.879" r="4.6406" stroke-width="0.5" stroke="black" fill="green"/>
   </g>
   <g id="cell151">
  <circle cx="564.284" cy="404.619" r="7.61045" stroke-width="0.5" stroke="black" fill="green"/>
  <circle cx="564.284" cy="404.619" r="4.62625" stroke-width="0.5" stroke="black" fill="green"/>
   </g>
   <g id="cell152">
  <circle cx="496.153" cy="564.637" r="7.50096" stroke-width="0.5" stroke="black" fill="magenta"/>
  <circle cx="496.153" cy="564.637" r="4.57585" stroke-width="0.5" stroke="black" fill="magenta"/>
   </g>
   <g id="cell153">
  <circle cx="548.786" cy="490.902" r="7.51197" stroke-width="0.5" stroke="black" fill="magenta"/>
  <circle cx="548.786" cy="490.902" r="4.57921" stroke-width="0.5" stroke="black" fill="magenta"/>
   </g>
   <g id="cell154">
  <circle cx="372.051" cy="475.632" r="7.59183" stroke-width="0.5" stroke="black" fill="magenta"/>
  <circle cx="372.051" cy="475.632" r="4.61399" stroke-width="0.5" stroke="black" fill="magenta"/>
   </g>
   <g id="cell155">
  <circle cx="475.168" cy="595.242" r="7.45233" stroke-width="0.5" stroke="black" fill="magenta"/>
  <circle cx="475.168" cy="595.242" r="4.54687" stroke-width="0.5" stroke="black" fill="magenta"/>
   </g>
   <g id="cell156">
  <circle cx="515.864" cy="521.62" r="7.42282" stroke-width="0.5" stroke="black" fill="magenta"/>
  <circle cx="515.864" cy="521.62" r="4.52768" stroke-width="0.5" stroke="black" fill="magenta"/>
   </g>
   <g id="cell157">
  <circle cx="509.929" cy="467.413" r="7.21462" stroke-width="0.5" stroke="black" fill="magenta"/>
  <circle cx="509.929" cy="467.413" r="4.41944" stroke-width="0.5" stroke="black" fill="magenta"/>
   </g>
   <g id="cell158">
  <circle cx="591.275" cy="393.526" r="7.41548" stroke-width="0.5" stroke="black" fill="magenta"/>
  <circle cx="591.275" cy="393.526" r="4.50723" stroke-width="0.5" stroke="black" fill="magenta"/>
   </g>
   <g id="cell159">
  <circle cx="528.078" cy="527.244" r="7.38532" stroke-width="0.5" stroke="black" fill="cyan"/>
  <circle cx="528.078" cy="527.244" r="4.48947" stroke-width="0.5" stroke="black" fill="cyan"/>
   </g>
   <g id="cell160">
  <circle cx="347.449" cy="500.854" r="7.24154" stroke-width="0.5" stroke="black" fill="cyan"/>
  <circle cx="347.449" cy="500.854" r="4.39909" stroke-width="0.5" stroke="black" fill="cyan"/>
   </g>
   <g id="cell161">
  <circle cx="499.379" cy="444.236" r="7.08784" stroke-width="0.5" stroke="black" fill="green"/>
  <circle cx="499.379" cy="444.236" r="4.32078" stroke-width="0.5" stroke="black" fill="green"/>
   </g>
   <g id="cell162">
  <circle cx="596.007" cy="508.777" r="7.13055" stroke-width="0.5" stroke="black" fill="magenta"/>
  <circle cx="596.007" cy="508.777" r="4.33937" stroke-width="0.5" stroke="black" fill="magenta"/>
   </g>
   <g id="cell163">
  <circle cx="528.43" cy="427.508" r="6.81452" stroke-width="0.5" stroke="black" fill="cyan"/>
  <circle cx="528.43" cy="427.508" r="4.17078" stroke-width="0.5" stroke="black" fill="cyan"/>
   </g>
   <g id="cell164">
  <circle cx="620.241" cy="487.07" r="7.09169" stroke-width="0.5" stroke="black" fill="green"/>
  <circle cx="620.241" cy="487.07" r="4.31641" stroke-width="0.5" stroke="black" fill="green"/>
   </g>
   <g id="cell165">
  <circle cx="456.072" cy="606.06" r="6.57807" stroke-width="0.5" stroke="black" fill="magenta"/>
  <circle cx="456.072" cy="606.06" r="4.03109" stroke-width="0.5" stroke="black" fill="magenta"/>
   </g>
   <g id="cell166">
  <circle cx="401.847" cy="575.495" r="6.95829" stroke-width="0.5" stroke="black" fill="magenta"/>
  <circle cx="401.847" cy="575.495" r="4.23712" stroke-width="0.5" stroke="black" fill="magenta"/>
   </g>
   <g id="cell167">
  <circle cx="467.687" cy="375.834" r="6.59957" stroke-width="0.5" stroke="black" fill="green"/>
  <circle cx="467.687" cy="375.834" r="4.02081" stroke-width="0.5" stroke="black" fill="green"/>
   </g>
   <g id="cell168">
  <circle cx="602.778" cy="460.764" r="6.19881" stroke-width="0.5" stroke="black" fill="cyan"/>
  <circle cx="602.778" cy="460.764" r="3.76858" stroke-width="0.5" stroke="black" fill="cyan"/>
   </g>
   <g id="cell169">
  <circle cx="486.129" cy="572.46" r="6.71033" stroke-width="0.5" stroke="black" fill="green"/>
  <circle cx="486.129" cy="572.46" r="4.03402" stroke-width="0.5" stroke="black" fill="green"/>
   </g>
  </g>
 </g>
  <rect x="775" y="1035" width="200" height="10" stroke-width="2" stroke="rgb(255,255,255)" fill="rgb(0,0,0)"/>
  <text x="781.25" y="1028.75"
   font-family="Arial" font-size="25" fill="black" >
   200 &#956;m
  </text>
  <text x="25" y="1045"
   font-family="Arial" font-size="18.75" fill="black" >
   0 days, 0 hours, 0 minutes, and 28.8837 seconds
  </text>
  <rect x="0" y="70" width="1000" height="1000" stroke-width="2" stroke="rgb(0,0,0)" fill="none"/>
</svg>
