<?xml version="1.0" encoding="UTF-8" standalone="no"?>
<!-- Created with PhysiCell (http://PhysiCell.MathCancer.org/) -->
<svg 
 xmlns:dc="http://purl.org/dc/elements/1.1/" 
 xmlns:cc="http://creativecommons.org/ns#" 
 xmlns:rdf="http://www.w3.org/1999/02/22-rdf-syntax-ns#" 
 xmlns:svg="http://www.w3.org/2000/svg" 
 xmlns="http://www.w3.org/2000/svg" 
 version="1.1" 
 width="1000" 
 height="1070" 
 id="svg2">
  <rect x="0" y="0" width="1000" height="1070" stroke-width="2" stroke="white" fill="white"/>
  <text x="12.5" y="30"
   font-family="Arial" font-size="25" fill="black" >
   Current time: 0 days, 8 hours, and 48.00 minutes, z = 0.00 &#956;m
  </text>
  <text x="12.5" y="57.5"
   font-family="Arial" font-size="23.75" fill="black" >
   104 agents
  </text>
 <g id="tissue" 
    transform="translate(0,1070) scale(1,-1)">
  <g id="ECM">
  </g>
  <g id="cells">
   <g id="cell0">
  <circle cx="518.3" cy="532.948" r="7.75912" stroke-width="0.5" stroke="black" fill="magenta"/>
  <circle cx="518.3" cy="532.948" r="4.71248" stroke-width="0.5" stroke="black" fill="magenta"/>
   </g>
   <g id="cell1">
  <circle cx="602.492" cy="526.171" r="8.41271" stroke-width="0.5" stroke="black" fill="magenta"/>
  <circle cx="602.492" cy="526.171" r="5.05167" stroke-width="0.5" stroke="black" fill="magenta"/>
   </g>
   <g id="cell2">
  <circle cx="511.421" cy="600.437" r="8.41271" stroke-width="0.5" stroke="black" fill="magenta"/>
  <circle cx="511.421" cy="600.437" r="5.05167" stroke-width="0.5" stroke="black" fill="magenta"/>
   </g>
   <g id="cell3">
  <circle cx="524.621" cy="544.7" r="7.29948" stroke-width="0.5" stroke="black" fill="magenta"/>
  <circle cx="524.621" cy="544.7" r="4.46478" stroke-width="0.5" stroke="black" fill="magenta"/>
   </g>
   <g id="cell4">
  <circle cx="487.832" cy="438.295" r="8.15353" stroke-width="0.5" stroke="black" fill="magenta"/>
  <circle cx="487.832" cy="438.295" r="4.93122" stroke-width="0.5" stroke="black" fill="magenta"/>
   </g>
   <g id="cell5">
  <circle cx="465.032" cy="493.3" r="8.41271" stroke-width="0.5" stroke="black" fill="magenta"/>
  <circle cx="465.032" cy="493.3" r="5.05167" stroke-width="0.5" stroke="black" fill="magenta"/>
   </g>
   <g id="cell6">
  <circle cx="595.637" cy="512.669" r="8.41271" stroke-width="0.5" stroke="black" fill="magenta"/>
  <circle cx="595.637" cy="512.669" r="5.05167" stroke-width="0.5" stroke="black" fill="magenta"/>
   </g>
   <g id="cell7">
  <circle cx="510.736" cy="462.279" r="8.41271" stroke-width="0.5" stroke="black" fill="magenta"/>
  <circle cx="510.736" cy="462.279" r="5.05167" stroke-width="0.5" stroke="black" fill="magenta"/>
   </g>
   <g id="cell8">
  <circle cx="376.189" cy="544.222" r="8.41271" stroke-width="0.5" stroke="black" fill="magenta"/>
  <circle cx="376.189" cy="544.222" r="5.05167" stroke-width="0.5" stroke="black" fill="magenta"/>
   </g>
   <g id="cell9">
  <circle cx="460.472" cy="599.786" r="8.41271" stroke-width="0.5" stroke="black" fill="magenta"/>
  <circle cx="460.472" cy="599.786" r="5.05167" stroke-width="0.5" stroke="black" fill="magenta"/>
   </g>
   <g id="cell10">
  <circle cx="583.447" cy="392.105" r="8.41271" stroke-width="0.5" stroke="black" fill="magenta"/>
  <circle cx="583.447" cy="392.105" r="5.05167" stroke-width="0.5" stroke="black" fill="magenta"/>
   </g>
   <g id="cell11">
  <circle cx="589.748" cy="590.273" r="8.41271" stroke-width="0.5" stroke="black" fill="magenta"/>
  <circle cx="589.748" cy="590.273" r="5.05167" stroke-width="0.5" stroke="black" fill="magenta"/>
   </g>
   <g id="cell12">
  <circle cx="506.666" cy="586.078" r="8.41271" stroke-width="0.5" stroke="black" fill="magenta"/>
  <circle cx="506.666" cy="586.078" r="5.05167" stroke-width="0.5" stroke="black" fill="magenta"/>
   </g>
   <g id="cell13">
  <circle cx="386.194" cy="568.228" r="8.41271" stroke-width="0.5" stroke="black" fill="magenta"/>
  <circle cx="386.194" cy="568.228" r="5.05167" stroke-width="0.5" stroke="black" fill="magenta"/>
   </g>
   <g id="cell14">
  <circle cx="528.573" cy="399.175" r="8.41271" stroke-width="0.5" stroke="black" fill="magenta"/>
  <circle cx="528.573" cy="399.175" r="5.05167" stroke-width="0.5" stroke="black" fill="magenta"/>
   </g>
   <g id="cell15">
  <circle cx="379.65" cy="475.1" r="8.41271" stroke-width="0.5" stroke="black" fill="magenta"/>
  <circle cx="379.65" cy="475.1" r="5.05167" stroke-width="0.5" stroke="black" fill="magenta"/>
   </g>
   <g id="cell16">
  <circle cx="428.96" cy="413.217" r="8.41271" stroke-width="0.5" stroke="black" fill="magenta"/>
  <circle cx="428.96" cy="413.217" r="5.05167" stroke-width="0.5" stroke="black" fill="magenta"/>
   </g>
   <g id="cell17">
  <circle cx="568.699" cy="488.149" r="8.41271" stroke-width="0.5" stroke="black" fill="magenta"/>
  <circle cx="568.699" cy="488.149" r="5.05167" stroke-width="0.5" stroke="black" fill="magenta"/>
   </g>
   <g id="cell18">
  <circle cx="517.417" cy="388.934" r="8.41271" stroke-width="0.5" stroke="black" fill="magenta"/>
  <circle cx="517.417" cy="388.934" r="5.05167" stroke-width="0.5" stroke="black" fill="magenta"/>
   </g>
   <g id="cell19">
  <circle cx="456.19" cy="543.319" r="7.63698" stroke-width="0.5" stroke="black" fill="magenta"/>
  <circle cx="456.19" cy="543.319" r="4.64085" stroke-width="0.5" stroke="black" fill="magenta"/>
   </g>
   <g id="cell20">
  <circle cx="531.126" cy="414.1" r="8.41271" stroke-width="0.5" stroke="black" fill="magenta"/>
  <circle cx="531.126" cy="414.1" r="5.05167" stroke-width="0.5" stroke="black" fill="magenta"/>
   </g>
   <g id="cell21">
  <circle cx="464.368" cy="634.574" r="8.41271" stroke-width="0.5" stroke="black" fill="magenta"/>
  <circle cx="464.368" cy="634.574" r="5.05167" stroke-width="0.5" stroke="black" fill="magenta"/>
   </g>
   <g id="cell22">
  <circle cx="557.054" cy="497.998" r="8.41271" stroke-width="0.5" stroke="black" fill="magenta"/>
  <circle cx="557.054" cy="497.998" r="5.05167" stroke-width="0.5" stroke="black" fill="magenta"/>
   </g>
   <g id="cell23">
  <circle cx="538.715" cy="484.365" r="8.41271" stroke-width="0.5" stroke="black" fill="magenta"/>
  <circle cx="538.715" cy="484.365" r="5.05167" stroke-width="0.5" stroke="black" fill="magenta"/>
   </g>
   <g id="cell24">
  <circle cx="559.284" cy="379.798" r="8.41271" stroke-width="0.5" stroke="black" fill="magenta"/>
  <circle cx="559.284" cy="379.798" r="5.05167" stroke-width="0.5" stroke="black" fill="magenta"/>
   </g>
   <g id="cell25">
  <circle cx="645.465" cy="545.461" r="8.01277" stroke-width="0.5" stroke="black" fill="green"/>
  <circle cx="645.465" cy="545.461" r="4.85584" stroke-width="0.5" stroke="black" fill="green"/>
   </g>
   <g id="cell26">
  <circle cx="551.099" cy="401.247" r="8.41271" stroke-width="0.5" stroke="black" fill="green"/>
  <circle cx="551.099" cy="401.247" r="5.05167" stroke-width="0.5" stroke="black" fill="green"/>
   </g>
   <g id="cell27">
  <circle cx="463.161" cy="390.585" r="8.16806" stroke-width="0.5" stroke="black" fill="green"/>
  <circle cx="463.161" cy="390.585" r="4.93877" stroke-width="0.5" stroke="black" fill="green"/>
   </g>
   <g id="cell28">
  <circle cx="434.166" cy="530.754" r="8.41271" stroke-width="0.5" stroke="black" fill="green"/>
  <circle cx="434.166" cy="530.754" r="5.05167" stroke-width="0.5" stroke="black" fill="green"/>
   </g>
   <g id="cell29">
  <circle cx="450.371" cy="516.865" r="8.41271" stroke-width="0.5" stroke="black" fill="green"/>
  <circle cx="450.371" cy="516.865" r="5.05167" stroke-width="0.5" stroke="black" fill="green"/>
   </g>
   <g id="cell30">
  <circle cx="481.1" cy="535.282" r="7.41548" stroke-width="0.5" stroke="black" fill="green"/>
  <circle cx="481.1" cy="535.282" r="4.50723" stroke-width="0.5" stroke="black" fill="green"/>
   </g>
   <g id="cell31">
  <circle cx="412.757" cy="541.193" r="8.41271" stroke-width="0.5" stroke="black" fill="green"/>
  <circle cx="412.757" cy="541.193" r="5.05167" stroke-width="0.5" stroke="black" fill="green"/>
   </g>
   <g id="cell32">
  <circle cx="421.83" cy="480.384" r="7.08639" stroke-width="0.5" stroke="black" fill="green"/>
  <circle cx="421.83" cy="480.384" r="4.29876" stroke-width="0.5" stroke="black" fill="green"/>
   </g>
   <g id="cell33">
  <circle cx="495.982" cy="425.181" r="8.41271" stroke-width="0.5" stroke="black" fill="green"/>
  <circle cx="495.982" cy="425.181" r="5.05167" stroke-width="0.5" stroke="black" fill="green"/>
   </g>
   <g id="cell34">
  <circle cx="397.088" cy="450.831" r="8.41271" stroke-width="0.5" stroke="black" fill="green"/>
  <circle cx="397.088" cy="450.831" r="5.05167" stroke-width="0.5" stroke="black" fill="green"/>
   </g>
   <g id="cell35">
  <circle cx="551" cy="542.721" r="8.41271" stroke-width="0.5" stroke="black" fill="green"/>
  <circle cx="551" cy="542.721" r="5.05167" stroke-width="0.5" stroke="black" fill="green"/>
   </g>
   <g id="cell36">
  <circle cx="391.486" cy="582.903" r="8.41271" stroke-width="0.5" stroke="black" fill="green"/>
  <circle cx="391.486" cy="582.903" r="5.05167" stroke-width="0.5" stroke="black" fill="green"/>
   </g>
   <g id="cell37">
  <circle cx="639.417" cy="457.366" r="8.13008" stroke-width="0.5" stroke="black" fill="green"/>
  <circle cx="639.417" cy="457.366" r="4.91894" stroke-width="0.5" stroke="black" fill="green"/>
   </g>
   <g id="cell38">
  <circle cx="531.838" cy="598.377" r="8.07654" stroke-width="0.5" stroke="black" fill="green"/>
  <circle cx="531.838" cy="598.377" r="4.89046" stroke-width="0.5" stroke="black" fill="green"/>
   </g>
   <g id="cell39">
  <circle cx="613.458" cy="490.595" r="8.41271" stroke-width="0.5" stroke="black" fill="green"/>
  <circle cx="613.458" cy="490.595" r="5.05167" stroke-width="0.5" stroke="black" fill="green"/>
   </g>
   <g id="cell40">
  <circle cx="485.348" cy="571.779" r="8.41271" stroke-width="0.5" stroke="black" fill="green"/>
  <circle cx="485.348" cy="571.779" r="5.05167" stroke-width="0.5" stroke="black" fill="green"/>
   </g>
   <g id="cell41">
  <circle cx="364.925" cy="480.252" r="8.41271" stroke-width="0.5" stroke="black" fill="green"/>
  <circle cx="364.925" cy="480.252" r="5.05167" stroke-width="0.5" stroke="black" fill="green"/>
   </g>
   <g id="cell42">
  <circle cx="438.842" cy="494.268" r="8.41271" stroke-width="0.5" stroke="black" fill="green"/>
  <circle cx="438.842" cy="494.268" r="5.05167" stroke-width="0.5" stroke="black" fill="green"/>
   </g>
   <g id="cell43">
  <circle cx="558.379" cy="443.997" r="8.41271" stroke-width="0.5" stroke="black" fill="green"/>
  <circle cx="558.379" cy="443.997" r="5.05167" stroke-width="0.5" stroke="black" fill="green"/>
   </g>
   <g id="cell44">
  <circle cx="475.857" cy="624.021" r="8.41271" stroke-width="0.5" stroke="black" fill="green"/>
  <circle cx="475.857" cy="624.021" r="5.05167" stroke-width="0.5" stroke="black" fill="green"/>
   </g>
   <g id="cell45">
  <circle cx="414.953" cy="557.066" r="8.41271" stroke-width="0.5" stroke="black" fill="green"/>
  <circle cx="414.953" cy="557.066" r="5.05167" stroke-width="0.5" stroke="black" fill="green"/>
   </g>
   <g id="cell46">
  <circle cx="522.642" cy="611.178" r="8.41271" stroke-width="0.5" stroke="black" fill="green"/>
  <circle cx="522.642" cy="611.178" r="5.05167" stroke-width="0.5" stroke="black" fill="green"/>
   </g>
   <g id="cell47">
  <circle cx="505.853" cy="504.509" r="7.02257" stroke-width="0.5" stroke="black" fill="green"/>
  <circle cx="505.853" cy="504.509" r="4.25644" stroke-width="0.5" stroke="black" fill="green"/>
   </g>
   <g id="cell48">
  <circle cx="563.548" cy="602.42" r="8.41271" stroke-width="0.5" stroke="black" fill="green"/>
  <circle cx="563.548" cy="602.42" r="5.05167" stroke-width="0.5" stroke="black" fill="green"/>
   </g>
   <g id="cell49">
  <circle cx="429.826" cy="397.641" r="8.41271" stroke-width="0.5" stroke="black" fill="green"/>
  <circle cx="429.826" cy="397.641" r="5.05167" stroke-width="0.5" stroke="black" fill="green"/>
   </g>
   <g id="cell50">
  <circle cx="519.772" cy="518.705" r="7.81315" stroke-width="0.5" stroke="black" fill="cyan"/>
  <circle cx="519.772" cy="518.705" r="4.74367" stroke-width="0.5" stroke="black" fill="cyan"/>
   </g>
   <g id="cell51">
  <circle cx="398.721" cy="597.201" r="8.41271" stroke-width="0.5" stroke="black" fill="cyan"/>
  <circle cx="398.721" cy="597.201" r="5.05167" stroke-width="0.5" stroke="black" fill="cyan"/>
   </g>
   <g id="cell52">
  <circle cx="519.831" cy="424.851" r="8.41271" stroke-width="0.5" stroke="black" fill="cyan"/>
  <circle cx="519.831" cy="424.851" r="5.05167" stroke-width="0.5" stroke="black" fill="cyan"/>
   </g>
   <g id="cell53">
  <circle cx="572.899" cy="430.85" r="6.71158" stroke-width="0.5" stroke="black" fill="cyan"/>
  <circle cx="572.899" cy="430.85" r="4.03435" stroke-width="0.5" stroke="black" fill="cyan"/>
   </g>
   <g id="cell54">
  <circle cx="481.246" cy="425.705" r="7.24243" stroke-width="0.5" stroke="black" fill="cyan"/>
  <circle cx="481.246" cy="425.705" r="4.39934" stroke-width="0.5" stroke="black" fill="cyan"/>
   </g>
   <g id="cell55">
  <circle cx="524.111" cy="464.615" r="6.5976" stroke-width="0.5" stroke="black" fill="cyan"/>
  <circle cx="524.111" cy="464.615" r="4.01323" stroke-width="0.5" stroke="black" fill="cyan"/>
   </g>
   <g id="cell56">
  <circle cx="617.613" cy="522.333" r="8.41271" stroke-width="0.5" stroke="black" fill="cyan"/>
  <circle cx="617.613" cy="522.333" r="5.05167" stroke-width="0.5" stroke="black" fill="cyan"/>
   </g>
   <g id="cell57">
  <circle cx="416.924" cy="617.466" r="1.20653" stroke-width="0.5" stroke="black" fill="cyan"/>
  <circle cx="416.924" cy="617.466" r="1.20179" stroke-width="0.5" stroke="black" fill="black"/>
   </g>
   <g id="cell58">
  <circle cx="554.145" cy="482.989" r="8.41271" stroke-width="0.5" stroke="black" fill="cyan"/>
  <circle cx="554.145" cy="482.989" r="5.05167" stroke-width="0.5" stroke="black" fill="cyan"/>
   </g>
   <g id="cell59">
  <circle cx="385.463" cy="439.803" r="8.41271" stroke-width="0.5" stroke="black" fill="cyan"/>
  <circle cx="385.463" cy="439.803" r="5.05167" stroke-width="0.5" stroke="black" fill="cyan"/>
   </g>
   <g id="cell60">
  <circle cx="593.163" cy="473.641" r="8.41271" stroke-width="0.5" stroke="black" fill="cyan"/>
  <circle cx="593.163" cy="473.641" r="5.05167" stroke-width="0.5" stroke="black" fill="cyan"/>
   </g>
   <g id="cell61">
  <circle cx="553.237" cy="614.547" r="8.41271" stroke-width="0.5" stroke="black" fill="cyan"/>
  <circle cx="553.237" cy="614.547" r="5.05167" stroke-width="0.5" stroke="black" fill="cyan"/>
   </g>
   <g id="cell62">
  <circle cx="521.548" cy="451.039" r="8.17502" stroke-width="0.5" stroke="black" fill="cyan"/>
  <circle cx="521.548" cy="451.039" r="4.94236" stroke-width="0.5" stroke="black" fill="cyan"/>
   </g>
   <g id="cell63">
  <circle cx="575.212" cy="540.232" r="7.70049" stroke-width="0.5" stroke="black" fill="cyan"/>
  <circle cx="575.212" cy="540.232" r="4.67828" stroke-width="0.5" stroke="black" fill="cyan"/>
   </g>
   <g id="cell64">
  <circle cx="509.962" cy="636.825" r="8.41271" stroke-width="0.5" stroke="black" fill="cyan"/>
  <circle cx="509.962" cy="636.825" r="5.05167" stroke-width="0.5" stroke="black" fill="cyan"/>
   </g>
   <g id="cell65">
  <circle cx="546.71" cy="470.396" r="7.61469" stroke-width="0.5" stroke="black" fill="cyan"/>
  <circle cx="546.71" cy="470.396" r="4.62762" stroke-width="0.5" stroke="black" fill="cyan"/>
   </g>
   <g id="cell66">
  <circle cx="531.968" cy="533.464" r="7.18097" stroke-width="0.5" stroke="black" fill="cyan"/>
  <circle cx="531.968" cy="533.464" r="4.36015" stroke-width="0.5" stroke="black" fill="cyan"/>
   </g>
   <g id="cell67">
  <circle cx="354.711" cy="492.599" r="8.41271" stroke-width="0.5" stroke="black" fill="cyan"/>
  <circle cx="354.711" cy="492.599" r="5.05167" stroke-width="0.5" stroke="black" fill="cyan"/>
   </g>
   <g id="cell68">
  <circle cx="564.614" cy="551.314" r="8.41271" stroke-width="0.5" stroke="black" fill="cyan"/>
  <circle cx="564.614" cy="551.314" r="5.05167" stroke-width="0.5" stroke="black" fill="cyan"/>
   </g>
   <g id="cell69">
  <circle cx="441.422" cy="461.674" r="8.41271" stroke-width="0.5" stroke="black" fill="cyan"/>
  <circle cx="441.422" cy="461.674" r="5.05167" stroke-width="0.5" stroke="black" fill="cyan"/>
   </g>
   <g id="cell70">
  <circle cx="577.176" cy="474.993" r="8.41271" stroke-width="0.5" stroke="black" fill="cyan"/>
  <circle cx="577.176" cy="474.993" r="5.05167" stroke-width="0.5" stroke="black" fill="cyan"/>
   </g>
   <g id="cell71">
  <circle cx="377.712" cy="520.989" r="8.41271" stroke-width="0.5" stroke="black" fill="cyan"/>
  <circle cx="377.712" cy="520.989" r="5.05167" stroke-width="0.5" stroke="black" fill="cyan"/>
   </g>
   <g id="cell72">
  <circle cx="531.925" cy="511.19" r="7.27253" stroke-width="0.5" stroke="black" fill="cyan"/>
  <circle cx="531.925" cy="511.19" r="4.41835" stroke-width="0.5" stroke="black" fill="cyan"/>
   </g>
   <g id="cell73">
  <circle cx="363.283" cy="551.825" r="7.77763" stroke-width="0.5" stroke="black" fill="cyan"/>
  <circle cx="363.283" cy="551.825" r="4.7232" stroke-width="0.5" stroke="black" fill="cyan"/>
   </g>
   <g id="cell74">
  <circle cx="542.752" cy="444.871" r="8.41271" stroke-width="0.5" stroke="black" fill="cyan"/>
  <circle cx="542.752" cy="444.871" r="5.05167" stroke-width="0.5" stroke="black" fill="cyan"/>
   </g>
   <g id="cell75">
  <circle cx="529.153" cy="437.433" r="8.17502" stroke-width="0.5" stroke="black" fill="cyan"/>
  <circle cx="529.153" cy="437.433" r="4.94236" stroke-width="0.5" stroke="black" fill="cyan"/>
   </g>
   <g id="cell76">
  <circle cx="447.525" cy="381.016" r="6.65231" stroke-width="0.5" stroke="black" fill="green"/>
  <circle cx="447.525" cy="381.016" r="4.04198" stroke-width="0.5" stroke="black" fill="green"/>
   </g>
   <g id="cell77">
  <circle cx="473.144" cy="437.398" r="8.15353" stroke-width="0.5" stroke="black" fill="magenta"/>
  <circle cx="473.144" cy="437.398" r="4.93122" stroke-width="0.5" stroke="black" fill="magenta"/>
   </g>
   <g id="cell78">
  <circle cx="625.223" cy="461.547" r="7.44414" stroke-width="0.5" stroke="black" fill="green"/>
  <circle cx="625.223" cy="461.547" r="4.54668" stroke-width="0.5" stroke="black" fill="green"/>
   </g>
   <g id="cell79">
  <circle cx="516.788" cy="476.509" r="8.09544" stroke-width="0.5" stroke="black" fill="cyan"/>
  <circle cx="516.788" cy="476.509" r="4.90058" stroke-width="0.5" stroke="black" fill="cyan"/>
   </g>
   <g id="cell80">
  <circle cx="538.015" cy="612.199" r="7.88709" stroke-width="0.5" stroke="black" fill="green"/>
  <circle cx="538.015" cy="612.199" r="4.79896" stroke-width="0.5" stroke="black" fill="green"/>
   </g>
   <g id="cell81">
  <circle cx="547.127" cy="600.257" r="7.88709" stroke-width="0.5" stroke="black" fill="green"/>
  <circle cx="547.127" cy="600.257" r="4.79896" stroke-width="0.5" stroke="black" fill="green"/>
   </g>
   <g id="cell82">
  <circle cx="530.936" cy="556.792" r="8.01277" stroke-width="0.5" stroke="black" fill="magenta"/>
  <circle cx="530.936" cy="556.792" r="4.85584" stroke-width="0.5" stroke="black" fill="magenta"/>
   </g>
   <g id="cell83">
  <circle cx="634.747" cy="556.289" r="8.01277" stroke-width="0.5" stroke="black" fill="green"/>
  <circle cx="634.747" cy="556.289" r="4.85584" stroke-width="0.5" stroke="black" fill="green"/>
   </g>
   <g id="cell84">
  <circle cx="519.758" cy="503.889" r="7.81315" stroke-width="0.5" stroke="black" fill="cyan"/>
  <circle cx="519.758" cy="503.889" r="4.74367" stroke-width="0.5" stroke="black" fill="cyan"/>
   </g>
   <g id="cell85">
  <circle cx="354.375" cy="541.646" r="6.5357" stroke-width="0.5" stroke="black" fill="cyan"/>
  <circle cx="354.375" cy="541.646" r="3.9992" stroke-width="0.5" stroke="black" fill="cyan"/>
   </g>
   <g id="cell86">
  <circle cx="506.889" cy="525.287" r="7.75912" stroke-width="0.5" stroke="black" fill="magenta"/>
  <circle cx="506.889" cy="525.287" r="4.71248" stroke-width="0.5" stroke="black" fill="magenta"/>
   </g>
   <g id="cell87">
  <circle cx="579.76" cy="554.121" r="7.70049" stroke-width="0.5" stroke="black" fill="cyan"/>
  <circle cx="579.76" cy="554.121" r="4.67828" stroke-width="0.5" stroke="black" fill="cyan"/>
   </g>
   <g id="cell88">
  <circle cx="448.996" cy="531.65" r="7.63698" stroke-width="0.5" stroke="black" fill="magenta"/>
  <circle cx="448.996" cy="531.65" r="4.64085" stroke-width="0.5" stroke="black" fill="magenta"/>
   </g>
   <g id="cell89">
  <circle cx="551.586" cy="457.209" r="7.61469" stroke-width="0.5" stroke="black" fill="cyan"/>
  <circle cx="551.586" cy="457.209" r="4.62762" stroke-width="0.5" stroke="black" fill="cyan"/>
   </g>
   <g id="cell90">
  <circle cx="630.66" cy="474.584" r="7.44414" stroke-width="0.5" stroke="black" fill="green"/>
  <circle cx="630.66" cy="474.584" r="4.54668" stroke-width="0.5" stroke="black" fill="green"/>
   </g>
   <g id="cell91">
  <circle cx="543.994" cy="554.859" r="6.69447" stroke-width="0.5" stroke="black" fill="magenta"/>
  <circle cx="543.994" cy="554.859" r="4.12405" stroke-width="0.5" stroke="black" fill="magenta"/>
   </g>
   <g id="cell92">
  <circle cx="482.446" cy="549.289" r="7.41548" stroke-width="0.5" stroke="black" fill="green"/>
  <circle cx="482.446" cy="549.289" r="4.50723" stroke-width="0.5" stroke="black" fill="green"/>
   </g>
   <g id="cell93">
  <circle cx="537.16" cy="545.059" r="6.69447" stroke-width="0.5" stroke="black" fill="magenta"/>
  <circle cx="537.16" cy="545.059" r="4.12405" stroke-width="0.5" stroke="black" fill="magenta"/>
   </g>
   <g id="cell94">
  <circle cx="532.522" cy="497.484" r="7.27253" stroke-width="0.5" stroke="black" fill="cyan"/>
  <circle cx="532.522" cy="497.484" r="4.41835" stroke-width="0.5" stroke="black" fill="cyan"/>
   </g>
   <g id="cell95">
  <circle cx="467.696" cy="424.175" r="7.24243" stroke-width="0.5" stroke="black" fill="cyan"/>
  <circle cx="467.696" cy="424.175" r="4.39934" stroke-width="0.5" stroke="black" fill="cyan"/>
   </g>
   <g id="cell96">
  <circle cx="539.536" cy="522.371" r="7.18097" stroke-width="0.5" stroke="black" fill="cyan"/>
  <circle cx="539.536" cy="522.371" r="4.36015" stroke-width="0.5" stroke="black" fill="cyan"/>
   </g>
   <g id="cell97">
  <circle cx="423.25" cy="468.223" r="5.84647" stroke-width="0.5" stroke="black" fill="green"/>
  <circle cx="423.25" cy="468.223" r="3.56926" stroke-width="0.5" stroke="black" fill="green"/>
   </g>
   <g id="cell98">
  <circle cx="497.97" cy="515.131" r="7.02257" stroke-width="0.5" stroke="black" fill="green"/>
  <circle cx="497.97" cy="515.131" r="4.25644" stroke-width="0.5" stroke="black" fill="green"/>
   </g>
   <g id="cell99">
  <circle cx="357.628" cy="529.738" r="6.5357" stroke-width="0.5" stroke="black" fill="cyan"/>
  <circle cx="357.628" cy="529.738" r="3.9992" stroke-width="0.5" stroke="black" fill="cyan"/>
   </g>
   <g id="cell100">
  <circle cx="449.39" cy="393.495" r="6.65231" stroke-width="0.5" stroke="black" fill="green"/>
  <circle cx="449.39" cy="393.495" r="4.04198" stroke-width="0.5" stroke="black" fill="green"/>
   </g>
   <g id="cell101">
  <circle cx="533.809" cy="471.68" r="6.5976" stroke-width="0.5" stroke="black" fill="cyan"/>
  <circle cx="533.809" cy="471.68" r="4.01323" stroke-width="0.5" stroke="black" fill="cyan"/>
   </g>
   <g id="cell102">
  <circle cx="433.392" cy="472.591" r="5.84647" stroke-width="0.5" stroke="black" fill="green"/>
  <circle cx="433.392" cy="472.591" r="3.56926" stroke-width="0.5" stroke="black" fill="green"/>
   </g>
   <g id="cell103">
  <circle cx="572.351" cy="443.488" r="6.71158" stroke-width="0.5" stroke="black" fill="cyan"/>
  <circle cx="572.351" cy="443.488" r="4.03435" stroke-width="0.5" stroke="black" fill="cyan"/>
   </g>
  </g>
 </g>
  <rect x="775" y="1035" width="200" height="10" stroke-width="2" stroke="rgb(255,255,255)" fill="rgb(0,0,0)"/>
  <text x="781.25" y="1028.75"
   font-family="Arial" font-size="25" fill="black" >
   200 &#956;m
  </text>
  <text x="25" y="1045"
   font-family="Arial" font-size="18.75" fill="black" >
   0 days, 0 hours, 0 minutes, and 9.8576 seconds
  </text>
  <rect x="0" y="70" width="1000" height="1000" stroke-width="2" stroke="rgb(0,0,0)" fill="none"/>
</svg>
