<?xml version="1.0" encoding="UTF-8" standalone="no"?>
<!-- Created with PhysiCell (http://PhysiCell.MathCancer.org/) -->
<svg 
 xmlns:dc="http://purl.org/dc/elements/1.1/" 
 xmlns:cc="http://creativecommons.org/ns#" 
 xmlns:rdf="http://www.w3.org/1999/02/22-rdf-syntax-ns#" 
 xmlns:svg="http://www.w3.org/2000/svg" 
 xmlns="http://www.w3.org/2000/svg" 
 version="1.1" 
 width="1000" 
 height="1070" 
 id="svg2">
  <rect x="0" y="0" width="1000" height="1070" stroke-width="2" stroke="white" fill="white"/>
  <text x="12.5" y="30"
   font-family="Arial" font-size="25" fill="black" >
   Current time: 0 days, 21 hours, and 45.00 minutes, z = 0.00 &#956;m
  </text>
  <text x="12.5" y="57.5"
   font-family="Arial" font-size="23.75" fill="black" >
   144 agents
  </text>
 <g id="tissue" 
    transform="translate(0,1070) scale(1,-1)">
  <g id="ECM">
  </g>
  <g id="cells">
   <g id="cell0">
  <circle cx="514.146" cy="535.388" r="8.39664" stroke-width="0.5" stroke="black" fill="magenta"/>
  <circle cx="514.146" cy="535.388" r="5.04633" stroke-width="0.5" stroke="black" fill="magenta"/>
   </g>
   <g id="cell1">
  <circle cx="601.613" cy="523.599" r="8.41271" stroke-width="0.5" stroke="black" fill="magenta"/>
  <circle cx="601.613" cy="523.599" r="5.05167" stroke-width="0.5" stroke="black" fill="magenta"/>
   </g>
   <g id="cell2">
  <circle cx="517.335" cy="596.827" r="8.41271" stroke-width="0.5" stroke="black" fill="magenta"/>
  <circle cx="517.335" cy="596.827" r="5.05167" stroke-width="0.5" stroke="black" fill="magenta"/>
   </g>
   <g id="cell3">
  <circle cx="523.814" cy="548.136" r="8.38642" stroke-width="0.5" stroke="black" fill="magenta"/>
  <circle cx="523.814" cy="548.136" r="5.04279" stroke-width="0.5" stroke="black" fill="magenta"/>
   </g>
   <g id="cell4">
  <circle cx="487.829" cy="446.332" r="8.03167" stroke-width="0.5" stroke="black" fill="magenta"/>
  <circle cx="487.829" cy="446.332" r="4.86702" stroke-width="0.5" stroke="black" fill="magenta"/>
   </g>
   <g id="cell5">
  <circle cx="465.032" cy="493.3" r="8.41271" stroke-width="0.5" stroke="black" fill="magenta"/>
  <circle cx="465.032" cy="493.3" r="5.05167" stroke-width="0.5" stroke="black" fill="magenta"/>
   </g>
   <g id="cell6">
  <circle cx="596.953" cy="515.178" r="2.2615" stroke-width="0.5" stroke="black" fill="magenta"/>
  <circle cx="596.953" cy="515.178" r="2.07535" stroke-width="0.5" stroke="black" fill="black"/>
   </g>
   <g id="cell7">
  <circle cx="495.808" cy="458.347" r="8.28629" stroke-width="0.5" stroke="black" fill="magenta"/>
  <circle cx="495.808" cy="458.347" r="4.99786" stroke-width="0.5" stroke="black" fill="magenta"/>
   </g>
   <g id="cell8">
  <circle cx="376.392" cy="542.783" r="8.41271" stroke-width="0.5" stroke="black" fill="magenta"/>
  <circle cx="376.392" cy="542.783" r="5.05167" stroke-width="0.5" stroke="black" fill="magenta"/>
   </g>
   <g id="cell9">
  <circle cx="460.472" cy="599.786" r="2.38423" stroke-width="0.5" stroke="black" fill="magenta"/>
  <circle cx="460.472" cy="599.786" r="2.15073" stroke-width="0.5" stroke="black" fill="black"/>
   </g>
   <g id="cell10">
  <circle cx="583.447" cy="392.105" r="8.41271" stroke-width="0.5" stroke="black" fill="magenta"/>
  <circle cx="583.447" cy="392.105" r="5.05167" stroke-width="0.5" stroke="black" fill="magenta"/>
   </g>
   <g id="cell11">
  <circle cx="592.02" cy="590.051" r="8.41271" stroke-width="0.5" stroke="black" fill="magenta"/>
  <circle cx="592.02" cy="590.051" r="5.05167" stroke-width="0.5" stroke="black" fill="magenta"/>
   </g>
   <g id="cell12">
  <circle cx="503.48" cy="593.81" r="7.33129" stroke-width="0.5" stroke="black" fill="magenta"/>
  <circle cx="503.48" cy="593.81" r="4.45516" stroke-width="0.5" stroke="black" fill="magenta"/>
   </g>
   <g id="cell13">
  <circle cx="386.194" cy="568.228" r="8.41271" stroke-width="0.5" stroke="black" fill="magenta"/>
  <circle cx="386.194" cy="568.228" r="5.05167" stroke-width="0.5" stroke="black" fill="magenta"/>
   </g>
   <g id="cell14">
  <circle cx="528.833" cy="401.875" r="8.41271" stroke-width="0.5" stroke="black" fill="magenta"/>
  <circle cx="528.833" cy="401.875" r="5.05167" stroke-width="0.5" stroke="black" fill="magenta"/>
   </g>
   <g id="cell15">
  <circle cx="384.328" cy="477.351" r="7.81315" stroke-width="0.5" stroke="black" fill="magenta"/>
  <circle cx="384.328" cy="477.351" r="4.74367" stroke-width="0.5" stroke="black" fill="magenta"/>
   </g>
   <g id="cell16">
  <circle cx="434.101" cy="417.488" r="4.37358" stroke-width="0.5" stroke="black" fill="magenta"/>
  <circle cx="434.101" cy="417.488" r="2.64819" stroke-width="0.5" stroke="black" fill="magenta"/>
   </g>
   <g id="cell17">
  <circle cx="570.616" cy="491.516" r="8.41271" stroke-width="0.5" stroke="black" fill="magenta"/>
  <circle cx="570.616" cy="491.516" r="5.05167" stroke-width="0.5" stroke="black" fill="magenta"/>
   </g>
   <g id="cell18">
  <circle cx="518.71" cy="390.192" r="8.41271" stroke-width="0.5" stroke="black" fill="magenta"/>
  <circle cx="518.71" cy="390.192" r="5.05167" stroke-width="0.5" stroke="black" fill="magenta"/>
   </g>
   <g id="cell19">
  <circle cx="459.766" cy="540.554" r="8.28354" stroke-width="0.5" stroke="black" fill="magenta"/>
  <circle cx="459.766" cy="540.554" r="4.99787" stroke-width="0.5" stroke="black" fill="magenta"/>
   </g>
   <g id="cell20">
  <circle cx="529.508" cy="417.305" r="8.41271" stroke-width="0.5" stroke="black" fill="magenta"/>
  <circle cx="529.508" cy="417.305" r="5.05167" stroke-width="0.5" stroke="black" fill="magenta"/>
   </g>
   <g id="cell21">
  <circle cx="466.452" cy="632.661" r="8.41271" stroke-width="0.5" stroke="black" fill="magenta"/>
  <circle cx="466.452" cy="632.661" r="5.05167" stroke-width="0.5" stroke="black" fill="magenta"/>
   </g>
   <g id="cell22">
  <circle cx="555.491" cy="494.147" r="8.41271" stroke-width="0.5" stroke="black" fill="magenta"/>
  <circle cx="555.491" cy="494.147" r="5.05167" stroke-width="0.5" stroke="black" fill="magenta"/>
   </g>
   <g id="cell23">
  <circle cx="545.741" cy="482.381" r="8.41271" stroke-width="0.5" stroke="black" fill="magenta"/>
  <circle cx="545.741" cy="482.381" r="5.05167" stroke-width="0.5" stroke="black" fill="magenta"/>
   </g>
   <g id="cell24">
  <circle cx="558.833" cy="381.439" r="8.41271" stroke-width="0.5" stroke="black" fill="magenta"/>
  <circle cx="558.833" cy="381.439" r="5.05167" stroke-width="0.5" stroke="black" fill="magenta"/>
   </g>
   <g id="cell25">
  <circle cx="648.063" cy="543.328" r="8.40272" stroke-width="0.5" stroke="black" fill="green"/>
  <circle cx="648.063" cy="543.328" r="5.04853" stroke-width="0.5" stroke="black" fill="green"/>
   </g>
   <g id="cell26">
  <circle cx="555.652" cy="396.484" r="8.28262" stroke-width="0.5" stroke="black" fill="green"/>
  <circle cx="555.652" cy="396.484" r="4.9961" stroke-width="0.5" stroke="black" fill="green"/>
   </g>
   <g id="cell27">
  <circle cx="465.359" cy="396.91" r="8.4065" stroke-width="0.5" stroke="black" fill="green"/>
  <circle cx="465.359" cy="396.91" r="5.04982" stroke-width="0.5" stroke="black" fill="green"/>
   </g>
   <g id="cell28">
  <circle cx="432.785" cy="530.769" r="8.41271" stroke-width="0.5" stroke="black" fill="green"/>
  <circle cx="432.785" cy="530.769" r="5.05167" stroke-width="0.5" stroke="black" fill="green"/>
   </g>
   <g id="cell29">
  <circle cx="450.49" cy="515.776" r="8.41271" stroke-width="0.5" stroke="black" fill="green"/>
  <circle cx="450.49" cy="515.776" r="5.05167" stroke-width="0.5" stroke="black" fill="green"/>
   </g>
   <g id="cell30">
  <circle cx="485.464" cy="535.332" r="7.16418" stroke-width="0.5" stroke="black" fill="green"/>
  <circle cx="485.464" cy="535.332" r="4.35397" stroke-width="0.5" stroke="black" fill="green"/>
   </g>
   <g id="cell31">
  <circle cx="412.807" cy="541.561" r="8.41271" stroke-width="0.5" stroke="black" fill="green"/>
  <circle cx="412.807" cy="541.561" r="5.05167" stroke-width="0.5" stroke="black" fill="green"/>
   </g>
   <g id="cell32">
  <circle cx="421.367" cy="481.396" r="3.26474" stroke-width="0.5" stroke="black" fill="green"/>
  <circle cx="421.367" cy="481.396" r="2.5809" stroke-width="0.5" stroke="black" fill="black"/>
   </g>
   <g id="cell33">
  <circle cx="502.637" cy="425.095" r="6.99069" stroke-width="0.5" stroke="black" fill="green"/>
  <circle cx="502.637" cy="425.095" r="4.23498" stroke-width="0.5" stroke="black" fill="green"/>
   </g>
   <g id="cell34">
  <circle cx="396.819" cy="450.575" r="3.45715" stroke-width="0.5" stroke="black" fill="green"/>
  <circle cx="396.819" cy="450.575" r="2.66266" stroke-width="0.5" stroke="black" fill="black"/>
   </g>
   <g id="cell35">
  <circle cx="553.702" cy="543.233" r="8.41271" stroke-width="0.5" stroke="black" fill="green"/>
  <circle cx="553.702" cy="543.233" r="5.05167" stroke-width="0.5" stroke="black" fill="green"/>
   </g>
   <g id="cell36">
  <circle cx="391.486" cy="582.903" r="8.41271" stroke-width="0.5" stroke="black" fill="green"/>
  <circle cx="391.486" cy="582.903" r="5.05167" stroke-width="0.5" stroke="black" fill="green"/>
   </g>
   <g id="cell37">
  <circle cx="640.013" cy="457.593" r="8.40557" stroke-width="0.5" stroke="black" fill="green"/>
  <circle cx="640.013" cy="457.593" r="5.04951" stroke-width="0.5" stroke="black" fill="green"/>
   </g>
   <g id="cell38">
  <circle cx="530.418" cy="588.638" r="8.40427" stroke-width="0.5" stroke="black" fill="green"/>
  <circle cx="530.418" cy="588.638" r="5.04906" stroke-width="0.5" stroke="black" fill="green"/>
   </g>
   <g id="cell39">
  <circle cx="613.602" cy="490.455" r="8.41271" stroke-width="0.5" stroke="black" fill="green"/>
  <circle cx="613.602" cy="490.455" r="5.05167" stroke-width="0.5" stroke="black" fill="green"/>
   </g>
   <g id="cell40">
  <circle cx="485.33" cy="571.631" r="8.41271" stroke-width="0.5" stroke="black" fill="green"/>
  <circle cx="485.33" cy="571.631" r="5.05167" stroke-width="0.5" stroke="black" fill="green"/>
   </g>
   <g id="cell41">
  <circle cx="364.14" cy="481.412" r="8.41271" stroke-width="0.5" stroke="black" fill="green"/>
  <circle cx="364.14" cy="481.412" r="5.05167" stroke-width="0.5" stroke="black" fill="green"/>
   </g>
   <g id="cell42">
  <circle cx="438.795" cy="494.029" r="8.41271" stroke-width="0.5" stroke="black" fill="green"/>
  <circle cx="438.795" cy="494.029" r="5.05167" stroke-width="0.5" stroke="black" fill="green"/>
   </g>
   <g id="cell43">
  <circle cx="560.83" cy="440.309" r="8.41271" stroke-width="0.5" stroke="black" fill="green"/>
  <circle cx="560.83" cy="440.309" r="5.05167" stroke-width="0.5" stroke="black" fill="green"/>
   </g>
   <g id="cell44">
  <circle cx="473.774" cy="625.934" r="2.38423" stroke-width="0.5" stroke="black" fill="green"/>
  <circle cx="473.774" cy="625.934" r="2.15073" stroke-width="0.5" stroke="black" fill="black"/>
   </g>
   <g id="cell145">
  <circle cx="426.244" cy="417.112" r="4.37358" stroke-width="0.5" stroke="black" fill="magenta"/>
  <circle cx="426.244" cy="417.112" r="2.64819" stroke-width="0.5" stroke="black" fill="magenta"/>
   </g>
   <g id="cell46">
  <circle cx="520.7" cy="612.607" r="8.35568" stroke-width="0.5" stroke="black" fill="green"/>
  <circle cx="520.7" cy="612.607" r="5.02965" stroke-width="0.5" stroke="black" fill="green"/>
   </g>
   <g id="cell47">
  <circle cx="504.594" cy="495.002" r="8.37742" stroke-width="0.5" stroke="black" fill="green"/>
  <circle cx="504.594" cy="495.002" r="5.03881" stroke-width="0.5" stroke="black" fill="green"/>
   </g>
   <g id="cell48">
  <circle cx="571.1" cy="604.714" r="8.28099" stroke-width="0.5" stroke="black" fill="green"/>
  <circle cx="571.1" cy="604.714" r="4.99807" stroke-width="0.5" stroke="black" fill="green"/>
   </g>
   <g id="cell49">
  <circle cx="432.702" cy="395.755" r="8.41271" stroke-width="0.5" stroke="black" fill="green"/>
  <circle cx="432.702" cy="395.755" r="5.05167" stroke-width="0.5" stroke="black" fill="green"/>
   </g>
   <g id="cell50">
  <circle cx="512.82" cy="508.331" r="8.22674" stroke-width="0.5" stroke="black" fill="cyan"/>
  <circle cx="512.82" cy="508.331" r="4.96996" stroke-width="0.5" stroke="black" fill="cyan"/>
   </g>
   <g id="cell51">
  <circle cx="398.721" cy="597.201" r="8.41271" stroke-width="0.5" stroke="black" fill="cyan"/>
  <circle cx="398.721" cy="597.201" r="5.05167" stroke-width="0.5" stroke="black" fill="cyan"/>
   </g>
   <g id="cell52">
  <circle cx="516.209" cy="422.806" r="8.41271" stroke-width="0.5" stroke="black" fill="cyan"/>
  <circle cx="516.209" cy="422.806" r="5.05167" stroke-width="0.5" stroke="black" fill="cyan"/>
   </g>
   <g id="cell53">
  <circle cx="572.332" cy="429.358" r="8.36458" stroke-width="0.5" stroke="black" fill="cyan"/>
  <circle cx="572.332" cy="429.358" r="5.03347" stroke-width="0.5" stroke="black" fill="cyan"/>
   </g>
   <g id="cell54">
  <circle cx="481.335" cy="421.202" r="8.38373" stroke-width="0.5" stroke="black" fill="cyan"/>
  <circle cx="481.335" cy="421.202" r="5.04136" stroke-width="0.5" stroke="black" fill="cyan"/>
   </g>
   <g id="cell55">
  <circle cx="521.598" cy="463.723" r="8.36688" stroke-width="0.5" stroke="black" fill="cyan"/>
  <circle cx="521.598" cy="463.723" r="5.03489" stroke-width="0.5" stroke="black" fill="cyan"/>
   </g>
   <g id="cell56">
  <circle cx="617.176" cy="522.396" r="8.41271" stroke-width="0.5" stroke="black" fill="cyan"/>
  <circle cx="617.176" cy="522.396" r="5.05167" stroke-width="0.5" stroke="black" fill="cyan"/>
   </g>
   <g id="cell105">
  <circle cx="507.718" cy="606.815" r="6.81184" stroke-width="0.5" stroke="black" fill="green"/>
  <circle cx="507.718" cy="606.815" r="4.15375" stroke-width="0.5" stroke="black" fill="green"/>
   </g>
   <g id="cell58">
  <circle cx="560.822" cy="479.573" r="8.41271" stroke-width="0.5" stroke="black" fill="cyan"/>
  <circle cx="560.822" cy="479.573" r="5.05167" stroke-width="0.5" stroke="black" fill="cyan"/>
   </g>
   <g id="cell59">
  <circle cx="385.732" cy="440.058" r="8.41271" stroke-width="0.5" stroke="black" fill="cyan"/>
  <circle cx="385.732" cy="440.058" r="5.05167" stroke-width="0.5" stroke="black" fill="cyan"/>
   </g>
   <g id="cell60">
  <circle cx="592.161" cy="473.801" r="8.41271" stroke-width="0.5" stroke="black" fill="cyan"/>
  <circle cx="592.161" cy="473.801" r="5.05167" stroke-width="0.5" stroke="black" fill="cyan"/>
   </g>
   <g id="cell61">
  <circle cx="557.511" cy="622.46" r="8.41271" stroke-width="0.5" stroke="black" fill="cyan"/>
  <circle cx="557.511" cy="622.46" r="5.05167" stroke-width="0.5" stroke="black" fill="cyan"/>
   </g>
   <g id="cell62">
  <circle cx="513.686" cy="437.856" r="8.12685" stroke-width="0.5" stroke="black" fill="cyan"/>
  <circle cx="513.686" cy="437.856" r="4.91795" stroke-width="0.5" stroke="black" fill="cyan"/>
   </g>
   <g id="cell63">
  <circle cx="582.405" cy="542.877" r="7.74886" stroke-width="0.5" stroke="black" fill="cyan"/>
  <circle cx="582.405" cy="542.877" r="4.70888" stroke-width="0.5" stroke="black" fill="cyan"/>
   </g>
   <g id="cell64">
  <circle cx="509.72" cy="639.292" r="8.41271" stroke-width="0.5" stroke="black" fill="cyan"/>
  <circle cx="509.72" cy="639.292" r="5.05167" stroke-width="0.5" stroke="black" fill="cyan"/>
   </g>
   <g id="cell65">
  <circle cx="550.294" cy="467.417" r="8.39316" stroke-width="0.5" stroke="black" fill="cyan"/>
  <circle cx="550.294" cy="467.417" r="5.04503" stroke-width="0.5" stroke="black" fill="cyan"/>
   </g>
   <g id="cell66">
  <circle cx="529.535" cy="533.555" r="8.38206" stroke-width="0.5" stroke="black" fill="cyan"/>
  <circle cx="529.535" cy="533.555" r="5.04069" stroke-width="0.5" stroke="black" fill="cyan"/>
   </g>
   <g id="cell67">
  <circle cx="353.831" cy="493.672" r="8.41271" stroke-width="0.5" stroke="black" fill="cyan"/>
  <circle cx="353.831" cy="493.672" r="5.05167" stroke-width="0.5" stroke="black" fill="cyan"/>
   </g>
   <g id="cell68">
  <circle cx="563.224" cy="555.622" r="8.41271" stroke-width="0.5" stroke="black" fill="cyan"/>
  <circle cx="563.224" cy="555.622" r="5.05167" stroke-width="0.5" stroke="black" fill="cyan"/>
   </g>
   <g id="cell69">
  <circle cx="442.135" cy="460.506" r="8.41271" stroke-width="0.5" stroke="black" fill="cyan"/>
  <circle cx="442.135" cy="460.506" r="5.05167" stroke-width="0.5" stroke="black" fill="cyan"/>
   </g>
   <g id="cell70">
  <circle cx="576.417" cy="476.844" r="8.41271" stroke-width="0.5" stroke="black" fill="cyan"/>
  <circle cx="576.417" cy="476.844" r="5.05167" stroke-width="0.5" stroke="black" fill="cyan"/>
   </g>
   <g id="cell71">
  <circle cx="380.206" cy="527.776" r="8.29993" stroke-width="0.5" stroke="black" fill="cyan"/>
  <circle cx="380.206" cy="527.776" r="5.00433" stroke-width="0.5" stroke="black" fill="cyan"/>
   </g>
   <g id="cell72">
  <circle cx="528.494" cy="508.158" r="8.38454" stroke-width="0.5" stroke="black" fill="cyan"/>
  <circle cx="528.494" cy="508.158" r="5.04168" stroke-width="0.5" stroke="black" fill="cyan"/>
   </g>
   <g id="cell73">
  <circle cx="364.574" cy="552.935" r="8.39708" stroke-width="0.5" stroke="black" fill="cyan"/>
  <circle cx="364.574" cy="552.935" r="5.0465" stroke-width="0.5" stroke="black" fill="cyan"/>
   </g>
   <g id="cell74">
  <circle cx="548.902" cy="433.717" r="2.20643" stroke-width="0.5" stroke="black" fill="cyan"/>
  <circle cx="548.902" cy="433.717" r="2.02968" stroke-width="0.5" stroke="black" fill="black"/>
   </g>
   <g id="cell75">
  <circle cx="529.054" cy="432.8" r="8.40667" stroke-width="0.5" stroke="black" fill="cyan"/>
  <circle cx="529.054" cy="432.8" r="5.04987" stroke-width="0.5" stroke="black" fill="cyan"/>
   </g>
   <g id="cell76">
  <circle cx="442.031" cy="382.448" r="8.32039" stroke-width="0.5" stroke="black" fill="green"/>
  <circle cx="442.031" cy="382.448" r="5.01579" stroke-width="0.5" stroke="black" fill="green"/>
   </g>
   <g id="cell77">
  <circle cx="477.335" cy="436.183" r="8.34178" stroke-width="0.5" stroke="black" fill="magenta"/>
  <circle cx="477.335" cy="436.183" r="5.02402" stroke-width="0.5" stroke="black" fill="magenta"/>
   </g>
   <g id="cell78">
  <circle cx="624.688" cy="462.154" r="8.38957" stroke-width="0.5" stroke="black" fill="green"/>
  <circle cx="624.688" cy="462.154" r="5.04394" stroke-width="0.5" stroke="black" fill="green"/>
   </g>
   <g id="cell79">
  <circle cx="516.91" cy="479.223" r="8.40472" stroke-width="0.5" stroke="black" fill="cyan"/>
  <circle cx="516.91" cy="479.223" r="5.04922" stroke-width="0.5" stroke="black" fill="cyan"/>
   </g>
   <g id="cell80">
  <circle cx="543.036" cy="616.182" r="8.12317" stroke-width="0.5" stroke="black" fill="green"/>
  <circle cx="543.036" cy="616.182" r="4.91675" stroke-width="0.5" stroke="black" fill="green"/>
   </g>
   <g id="cell81">
  <circle cx="545.492" cy="594.174" r="8.3998" stroke-width="0.5" stroke="black" fill="green"/>
  <circle cx="545.492" cy="594.174" r="5.04767" stroke-width="0.5" stroke="black" fill="green"/>
   </g>
   <g id="cell82">
  <circle cx="534.014" cy="557.552" r="6.80119" stroke-width="0.5" stroke="black" fill="magenta"/>
  <circle cx="534.014" cy="557.552" r="4.10464" stroke-width="0.5" stroke="black" fill="magenta"/>
   </g>
   <g id="cell83">
  <circle cx="635.49" cy="552.395" r="7.93127" stroke-width="0.5" stroke="black" fill="green"/>
  <circle cx="635.49" cy="552.395" r="4.81198" stroke-width="0.5" stroke="black" fill="green"/>
   </g>
   <g id="cell84">
  <circle cx="520.774" cy="494.524" r="8.39794" stroke-width="0.5" stroke="black" fill="cyan"/>
  <circle cx="520.774" cy="494.524" r="5.04681" stroke-width="0.5" stroke="black" fill="cyan"/>
   </g>
   <g id="cell85">
  <circle cx="352.49" cy="542.505" r="8.36854" stroke-width="0.5" stroke="black" fill="cyan"/>
  <circle cx="352.49" cy="542.505" r="5.03579" stroke-width="0.5" stroke="black" fill="cyan"/>
   </g>
   <g id="cell86">
  <circle cx="499.348" cy="534.969" r="8.08677" stroke-width="0.5" stroke="black" fill="magenta"/>
  <circle cx="499.348" cy="534.969" r="4.89764" stroke-width="0.5" stroke="black" fill="magenta"/>
   </g>
   <g id="cell87">
  <circle cx="578.89" cy="557.842" r="8.34997" stroke-width="0.5" stroke="black" fill="cyan"/>
  <circle cx="578.89" cy="557.842" r="5.02803" stroke-width="0.5" stroke="black" fill="cyan"/>
   </g>
   <g id="cell88">
  <circle cx="448.267" cy="531.154" r="8.3937" stroke-width="0.5" stroke="black" fill="magenta"/>
  <circle cx="448.267" cy="531.154" r="5.04523" stroke-width="0.5" stroke="black" fill="magenta"/>
   </g>
   <g id="cell89">
  <circle cx="549.617" cy="453.076" r="6.08432" stroke-width="0.5" stroke="black" fill="cyan"/>
  <circle cx="549.617" cy="453.076" r="3.7171" stroke-width="0.5" stroke="black" fill="cyan"/>
   </g>
   <g id="cell90">
  <circle cx="636.216" cy="472.634" r="7.93751" stroke-width="0.5" stroke="black" fill="green"/>
  <circle cx="636.216" cy="472.634" r="4.81693" stroke-width="0.5" stroke="black" fill="green"/>
   </g>
   <g id="cell91">
  <circle cx="547.656" cy="557.463" r="8.37433" stroke-width="0.5" stroke="black" fill="magenta"/>
  <circle cx="547.656" cy="557.463" r="5.0384" stroke-width="0.5" stroke="black" fill="magenta"/>
   </g>
   <g id="cell92">
  <circle cx="483.25" cy="552.206" r="8.38823" stroke-width="0.5" stroke="black" fill="green"/>
  <circle cx="483.25" cy="552.206" r="5.04313" stroke-width="0.5" stroke="black" fill="green"/>
   </g>
   <g id="cell93">
  <circle cx="538.819" cy="545.141" r="8.37433" stroke-width="0.5" stroke="black" fill="magenta"/>
  <circle cx="538.819" cy="545.141" r="5.0384" stroke-width="0.5" stroke="black" fill="magenta"/>
   </g>
   <g id="cell94">
  <circle cx="537.372" cy="495.378" r="8.38454" stroke-width="0.5" stroke="black" fill="cyan"/>
  <circle cx="537.372" cy="495.378" r="5.04168" stroke-width="0.5" stroke="black" fill="cyan"/>
   </g>
   <g id="cell95">
  <circle cx="465.981" cy="425.839" r="8.38373" stroke-width="0.5" stroke="black" fill="cyan"/>
  <circle cx="465.981" cy="425.839" r="5.04136" stroke-width="0.5" stroke="black" fill="cyan"/>
   </g>
   <g id="cell96">
  <circle cx="546.085" cy="530.693" r="7.50059" stroke-width="0.5" stroke="black" fill="cyan"/>
  <circle cx="546.085" cy="530.693" r="4.56354" stroke-width="0.5" stroke="black" fill="cyan"/>
   </g>
   <g id="cell97">
  <circle cx="421.454" cy="466.411" r="8.3541" stroke-width="0.5" stroke="black" fill="green"/>
  <circle cx="421.454" cy="466.411" r="5.03004" stroke-width="0.5" stroke="black" fill="green"/>
   </g>
   <g id="cell98">
  <circle cx="491.04" cy="522.413" r="8.01596" stroke-width="0.5" stroke="black" fill="green"/>
  <circle cx="491.04" cy="522.413" r="4.86097" stroke-width="0.5" stroke="black" fill="green"/>
   </g>
   <g id="cell99">
  <circle cx="358.319" cy="527.674" r="8.36854" stroke-width="0.5" stroke="black" fill="cyan"/>
  <circle cx="358.319" cy="527.674" r="5.03579" stroke-width="0.5" stroke="black" fill="cyan"/>
   </g>
   <g id="cell100">
  <circle cx="449.149" cy="396.583" r="8.36778" stroke-width="0.5" stroke="black" fill="green"/>
  <circle cx="449.149" cy="396.583" r="5.03519" stroke-width="0.5" stroke="black" fill="green"/>
   </g>
   <g id="cell101">
  <circle cx="531.268" cy="482.019" r="7.41319" stroke-width="0.5" stroke="black" fill="cyan"/>
  <circle cx="531.268" cy="482.019" r="4.51254" stroke-width="0.5" stroke="black" fill="cyan"/>
   </g>
   <g id="cell102">
  <circle cx="434.984" cy="474.796" r="8.3541" stroke-width="0.5" stroke="black" fill="green"/>
  <circle cx="434.984" cy="474.796" r="5.03004" stroke-width="0.5" stroke="black" fill="green"/>
   </g>
   <g id="cell103">
  <circle cx="591.197" cy="447.81" r="8.07862" stroke-width="0.5" stroke="black" fill="cyan"/>
  <circle cx="591.197" cy="447.81" r="4.89549" stroke-width="0.5" stroke="black" fill="cyan"/>
   </g>
   <g id="cell104">
  <circle cx="593.903" cy="552.672" r="8.34997" stroke-width="0.5" stroke="black" fill="cyan"/>
  <circle cx="593.903" cy="552.672" r="5.02803" stroke-width="0.5" stroke="black" fill="cyan"/>
   </g>
   <g id="cell106">
  <circle cx="463.279" cy="441.19" r="8.34178" stroke-width="0.5" stroke="black" fill="magenta"/>
  <circle cx="463.279" cy="441.19" r="5.02402" stroke-width="0.5" stroke="black" fill="magenta"/>
   </g>
   <g id="cell107">
  <circle cx="457.64" cy="383.47" r="8.05499" stroke-width="0.5" stroke="black" fill="green"/>
  <circle cx="457.64" cy="383.47" r="4.88595" stroke-width="0.5" stroke="black" fill="green"/>
   </g>
   <g id="cell108">
  <circle cx="555.426" cy="606.646" r="8.33026" stroke-width="0.5" stroke="black" fill="green"/>
  <circle cx="555.426" cy="606.646" r="5.01837" stroke-width="0.5" stroke="black" fill="green"/>
   </g>
   <g id="cell109">
  <circle cx="576.551" cy="589.935" r="8.28099" stroke-width="0.5" stroke="black" fill="green"/>
  <circle cx="576.551" cy="589.935" r="4.99807" stroke-width="0.5" stroke="black" fill="green"/>
   </g>
   <g id="cell110">
  <circle cx="373.641" cy="513.413" r="8.29993" stroke-width="0.5" stroke="black" fill="cyan"/>
  <circle cx="373.641" cy="513.413" r="5.00433" stroke-width="0.5" stroke="black" fill="cyan"/>
   </g>
   <g id="cell111">
  <circle cx="456.496" cy="554.217" r="7.3872" stroke-width="0.5" stroke="black" fill="magenta"/>
  <circle cx="456.496" cy="554.217" r="4.50491" stroke-width="0.5" stroke="black" fill="magenta"/>
   </g>
   <g id="cell112">
  <circle cx="506.826" cy="467.964" r="8.28629" stroke-width="0.5" stroke="black" fill="magenta"/>
  <circle cx="506.826" cy="467.964" r="4.99786" stroke-width="0.5" stroke="black" fill="magenta"/>
   </g>
   <g id="cell113">
  <circle cx="542.736" cy="401.053" r="6.63137" stroke-width="0.5" stroke="black" fill="green"/>
  <circle cx="542.736" cy="401.053" r="4.00699" stroke-width="0.5" stroke="black" fill="green"/>
   </g>
   <g id="cell114">
  <circle cx="524.706" cy="448.135" r="8.19125" stroke-width="0.5" stroke="black" fill="cyan"/>
  <circle cx="524.706" cy="448.135" r="4.95562" stroke-width="0.5" stroke="black" fill="cyan"/>
   </g>
   <g id="cell115">
  <circle cx="537.353" cy="455.083" r="7.56956" stroke-width="0.5" stroke="black" fill="cyan"/>
  <circle cx="537.353" cy="455.083" r="4.62052" stroke-width="0.5" stroke="black" fill="cyan"/>
   </g>
   <g id="cell116">
  <circle cx="520.675" cy="521.408" r="8.22674" stroke-width="0.5" stroke="black" fill="cyan"/>
  <circle cx="520.675" cy="521.408" r="4.96996" stroke-width="0.5" stroke="black" fill="cyan"/>
   </g>
   <g id="cell117">
  <circle cx="509.363" cy="623.472" r="8.16474" stroke-width="0.5" stroke="black" fill="green"/>
  <circle cx="509.363" cy="623.472" r="4.94081" stroke-width="0.5" stroke="black" fill="green"/>
   </g>
   <g id="cell118">
  <circle cx="510.087" cy="453.053" r="8.12685" stroke-width="0.5" stroke="black" fill="cyan"/>
  <circle cx="510.087" cy="453.053" r="4.91795" stroke-width="0.5" stroke="black" fill="cyan"/>
   </g>
   <g id="cell119">
  <circle cx="533.343" cy="603.973" r="8.12317" stroke-width="0.5" stroke="black" fill="green"/>
  <circle cx="533.343" cy="603.973" r="4.91675" stroke-width="0.5" stroke="black" fill="green"/>
   </g>
   <g id="cell120">
  <circle cx="576.141" cy="444.52" r="8.07862" stroke-width="0.5" stroke="black" fill="cyan"/>
  <circle cx="576.141" cy="444.52" r="4.89549" stroke-width="0.5" stroke="black" fill="cyan"/>
   </g>
   <g id="cell121">
  <circle cx="451.299" cy="370.16" r="7.67807" stroke-width="0.5" stroke="black" fill="green"/>
  <circle cx="451.299" cy="370.16" r="4.68748" stroke-width="0.5" stroke="black" fill="green"/>
   </g>
   <g id="cell122">
  <circle cx="505.918" cy="522.124" r="8.08677" stroke-width="0.5" stroke="black" fill="magenta"/>
  <circle cx="505.918" cy="522.124" r="4.89764" stroke-width="0.5" stroke="black" fill="magenta"/>
   </g>
   <g id="cell123">
  <circle cx="497.774" cy="509.125" r="8.01596" stroke-width="0.5" stroke="black" fill="green"/>
  <circle cx="497.774" cy="509.125" r="4.86097" stroke-width="0.5" stroke="black" fill="green"/>
   </g>
   <g id="cell124">
  <circle cx="491.437" cy="432.518" r="8.03167" stroke-width="0.5" stroke="black" fill="magenta"/>
  <circle cx="491.437" cy="432.518" r="4.86702" stroke-width="0.5" stroke="black" fill="magenta"/>
   </g>
   <g id="cell125">
  <circle cx="621.959" cy="477.412" r="7.93751" stroke-width="0.5" stroke="black" fill="green"/>
  <circle cx="621.959" cy="477.412" r="4.81693" stroke-width="0.5" stroke="black" fill="green"/>
   </g>
   <g id="cell126">
  <circle cx="629.137" cy="566.028" r="7.93127" stroke-width="0.5" stroke="black" fill="green"/>
  <circle cx="629.137" cy="566.028" r="4.81198" stroke-width="0.5" stroke="black" fill="green"/>
   </g>
   <g id="cell127">
  <circle cx="439.351" cy="362.025" r="7.67807" stroke-width="0.5" stroke="black" fill="green"/>
  <circle cx="439.351" cy="362.025" r="4.68748" stroke-width="0.5" stroke="black" fill="green"/>
   </g>
   <g id="cell128">
  <circle cx="372.899" cy="469.209" r="7.81315" stroke-width="0.5" stroke="black" fill="magenta"/>
  <circle cx="372.899" cy="469.209" r="4.74367" stroke-width="0.5" stroke="black" fill="magenta"/>
   </g>
   <g id="cell129">
  <circle cx="568.237" cy="540.677" r="7.74886" stroke-width="0.5" stroke="black" fill="cyan"/>
  <circle cx="568.237" cy="540.677" r="4.70888" stroke-width="0.5" stroke="black" fill="cyan"/>
   </g>
   <g id="cell130">
  <circle cx="543.807" cy="441.567" r="7.56956" stroke-width="0.5" stroke="black" fill="cyan"/>
  <circle cx="543.807" cy="441.567" r="4.62052" stroke-width="0.5" stroke="black" fill="cyan"/>
   </g>
   <g id="cell131">
  <circle cx="536.792" cy="520.326" r="7.50059" stroke-width="0.5" stroke="black" fill="cyan"/>
  <circle cx="536.792" cy="520.326" r="4.56354" stroke-width="0.5" stroke="black" fill="cyan"/>
   </g>
   <g id="cell132">
  <circle cx="446.61" cy="545.292" r="7.3872" stroke-width="0.5" stroke="black" fill="magenta"/>
  <circle cx="446.61" cy="545.292" r="4.50491" stroke-width="0.5" stroke="black" fill="magenta"/>
   </g>
   <g id="cell133">
  <circle cx="565.275" cy="465.514" r="7.45639" stroke-width="0.5" stroke="black" fill="cyan"/>
  <circle cx="565.275" cy="465.514" r="4.53537" stroke-width="0.5" stroke="black" fill="cyan"/>
   </g>
   <g id="cell134">
  <circle cx="535.591" cy="468.978" r="7.41319" stroke-width="0.5" stroke="black" fill="cyan"/>
  <circle cx="535.591" cy="468.978" r="4.51254" stroke-width="0.5" stroke="black" fill="cyan"/>
   </g>
   <g id="cell135">
  <circle cx="511.766" cy="583.535" r="7.33129" stroke-width="0.5" stroke="black" fill="magenta"/>
  <circle cx="511.766" cy="583.535" r="4.45516" stroke-width="0.5" stroke="black" fill="magenta"/>
   </g>
   <g id="cell136">
  <circle cx="473.676" cy="541.141" r="7.16418" stroke-width="0.5" stroke="black" fill="green"/>
  <circle cx="473.676" cy="541.141" r="4.35397" stroke-width="0.5" stroke="black" fill="green"/>
   </g>
   <g id="cell137">
  <circle cx="495.696" cy="610.894" r="6.81184" stroke-width="0.5" stroke="black" fill="green"/>
  <circle cx="495.696" cy="610.894" r="4.15375" stroke-width="0.5" stroke="black" fill="green"/>
   </g>
   <g id="cell138">
  <circle cx="500.448" cy="412.119" r="6.99069" stroke-width="0.5" stroke="black" fill="green"/>
  <circle cx="500.448" cy="412.119" r="4.23498" stroke-width="0.5" stroke="black" fill="green"/>
   </g>
   <g id="cell139">
  <circle cx="423.469" cy="407.69" r="6.83713" stroke-width="0.5" stroke="black" fill="magenta"/>
  <circle cx="423.469" cy="407.69" r="4.12773" stroke-width="0.5" stroke="black" fill="magenta"/>
   </g>
   <g id="cell140">
  <circle cx="524.461" cy="564.749" r="6.80119" stroke-width="0.5" stroke="black" fill="magenta"/>
  <circle cx="524.461" cy="564.749" r="4.10464" stroke-width="0.5" stroke="black" fill="magenta"/>
   </g>
   <g id="cell141">
  <circle cx="560.728" cy="453.827" r="6.08432" stroke-width="0.5" stroke="black" fill="cyan"/>
  <circle cx="560.728" cy="453.827" r="3.7171" stroke-width="0.5" stroke="black" fill="cyan"/>
   </g>
   <g id="cell142">
  <circle cx="547.537" cy="415.707" r="5.28854" stroke-width="0.5" stroke="black" fill="green"/>
  <circle cx="547.537" cy="415.707" r="3.19778" stroke-width="0.5" stroke="black" fill="green"/>
   </g>
   <g id="cell143">
  <circle cx="434.432" cy="408.47" r="5.51037" stroke-width="0.5" stroke="black" fill="magenta"/>
  <circle cx="434.432" cy="408.47" r="3.33651" stroke-width="0.5" stroke="black" fill="magenta"/>
   </g>
   <g id="cell144">
  <circle cx="539.149" cy="410.909" r="5.28854" stroke-width="0.5" stroke="black" fill="green"/>
  <circle cx="539.149" cy="410.909" r="3.19778" stroke-width="0.5" stroke="black" fill="green"/>
   </g>
  </g>
 </g>
  <rect x="775" y="1035" width="200" height="10" stroke-width="2" stroke="rgb(255,255,255)" fill="rgb(0,0,0)"/>
  <text x="781.25" y="1028.75"
   font-family="Arial" font-size="25" fill="black" >
   200 &#956;m
  </text>
  <text x="25" y="1045"
   font-family="Arial" font-size="18.75" fill="black" >
   0 days, 0 hours, 0 minutes, and 25.5620 seconds
  </text>
  <rect x="0" y="70" width="1000" height="1000" stroke-width="2" stroke="rgb(0,0,0)" fill="none"/>
</svg>
