<?xml version="1.0" encoding="UTF-8" standalone="no"?>
<!-- Created with PhysiCell (http://PhysiCell.MathCancer.org/) -->
<svg 
 xmlns:dc="http://purl.org/dc/elements/1.1/" 
 xmlns:cc="http://creativecommons.org/ns#" 
 xmlns:rdf="http://www.w3.org/1999/02/22-rdf-syntax-ns#" 
 xmlns:svg="http://www.w3.org/2000/svg" 
 xmlns="http://www.w3.org/2000/svg" 
 version="1.1" 
 width="1000" 
 height="1070" 
 id="svg2">
  <rect x="0" y="0" width="1000" height="1070" stroke-width="2" stroke="white" fill="white"/>
  <text x="12.5" y="30"
   font-family="Arial" font-size="25" fill="black" >
   Current time: 0 days, 21 hours, and 0.00 minutes, z = 0.00 &#956;m
  </text>
  <text x="12.5" y="57.5"
   font-family="Arial" font-size="23.75" fill="black" >
   137 agents
  </text>
 <g id="tissue" 
    transform="translate(0,1070) scale(1,-1)">
  <g id="ECM">
  </g>
  <g id="cells">
   <g id="cell0">
  <circle cx="509.694" cy="541.142" r="8.39913" stroke-width="0.5" stroke="black" fill="magenta"/>
  <circle cx="509.694" cy="541.142" r="5.04725" stroke-width="0.5" stroke="black" fill="magenta"/>
   </g>
   <g id="cell1">
  <circle cx="604.494" cy="530.507" r="7.44242" stroke-width="0.5" stroke="black" fill="magenta"/>
  <circle cx="604.494" cy="530.507" r="4.52373" stroke-width="0.5" stroke="black" fill="magenta"/>
   </g>
   <g id="cell2">
  <circle cx="511.393" cy="599.964" r="8.08799" stroke-width="0.5" stroke="black" fill="magenta"/>
  <circle cx="511.393" cy="599.964" r="4.89939" stroke-width="0.5" stroke="black" fill="magenta"/>
   </g>
   <g id="cell3">
  <circle cx="524.565" cy="544.251" r="8.41271" stroke-width="0.5" stroke="black" fill="magenta"/>
  <circle cx="524.565" cy="544.251" r="5.05167" stroke-width="0.5" stroke="black" fill="magenta"/>
   </g>
   <g id="cell4">
  <circle cx="480.009" cy="438.993" r="8.41271" stroke-width="0.5" stroke="black" fill="magenta"/>
  <circle cx="480.009" cy="438.993" r="5.05167" stroke-width="0.5" stroke="black" fill="magenta"/>
   </g>
   <g id="cell5">
  <circle cx="454.4" cy="497.514" r="7.95931" stroke-width="0.5" stroke="black" fill="magenta"/>
  <circle cx="454.4" cy="497.514" r="4.82736" stroke-width="0.5" stroke="black" fill="magenta"/>
   </g>
   <g id="cell6">
  <circle cx="586.04" cy="513.461" r="8.00101" stroke-width="0.5" stroke="black" fill="magenta"/>
  <circle cx="586.04" cy="513.461" r="4.84939" stroke-width="0.5" stroke="black" fill="magenta"/>
   </g>
   <g id="cell7">
  <circle cx="501.54" cy="459.662" r="6.01751" stroke-width="0.5" stroke="black" fill="magenta"/>
  <circle cx="501.54" cy="459.662" r="3.68146" stroke-width="0.5" stroke="black" fill="magenta"/>
   </g>
   <g id="cell8">
  <circle cx="385.153" cy="539.479" r="8.13046" stroke-width="0.5" stroke="black" fill="magenta"/>
  <circle cx="385.153" cy="539.479" r="4.92061" stroke-width="0.5" stroke="black" fill="magenta"/>
   </g>
   <g id="cell9">
  <circle cx="460.472" cy="599.786" r="8.41271" stroke-width="0.5" stroke="black" fill="magenta"/>
  <circle cx="460.472" cy="599.786" r="5.05167" stroke-width="0.5" stroke="black" fill="magenta"/>
   </g>
   <g id="cell10">
  <circle cx="583.447" cy="392.105" r="8.41271" stroke-width="0.5" stroke="black" fill="magenta"/>
  <circle cx="583.447" cy="392.105" r="5.05167" stroke-width="0.5" stroke="black" fill="magenta"/>
   </g>
   <g id="cell11">
  <circle cx="589.748" cy="590.273" r="8.41271" stroke-width="0.5" stroke="black" fill="magenta"/>
  <circle cx="589.748" cy="590.273" r="5.05167" stroke-width="0.5" stroke="black" fill="magenta"/>
   </g>
   <g id="cell12">
  <circle cx="499.027" cy="593.273" r="7.91088" stroke-width="0.5" stroke="black" fill="magenta"/>
  <circle cx="499.027" cy="593.273" r="4.80875" stroke-width="0.5" stroke="black" fill="magenta"/>
   </g>
   <g id="cell13">
  <circle cx="380.884" cy="564.504" r="8.41271" stroke-width="0.5" stroke="black" fill="magenta"/>
  <circle cx="380.884" cy="564.504" r="5.05167" stroke-width="0.5" stroke="black" fill="magenta"/>
   </g>
   <g id="cell14">
  <circle cx="531.298" cy="400.063" r="8.41271" stroke-width="0.5" stroke="black" fill="magenta"/>
  <circle cx="531.298" cy="400.063" r="5.05167" stroke-width="0.5" stroke="black" fill="magenta"/>
   </g>
   <g id="cell15">
  <circle cx="378.792" cy="473.861" r="8.41271" stroke-width="0.5" stroke="black" fill="magenta"/>
  <circle cx="378.792" cy="473.861" r="5.05167" stroke-width="0.5" stroke="black" fill="magenta"/>
   </g>
   <g id="cell16">
  <circle cx="428.965" cy="413.156" r="8.41271" stroke-width="0.5" stroke="black" fill="magenta"/>
  <circle cx="428.965" cy="413.156" r="5.05167" stroke-width="0.5" stroke="black" fill="magenta"/>
   </g>
   <g id="cell17">
  <circle cx="592.93" cy="492.174" r="7.09432" stroke-width="0.5" stroke="black" fill="magenta"/>
  <circle cx="592.93" cy="492.174" r="4.31699" stroke-width="0.5" stroke="black" fill="magenta"/>
   </g>
   <g id="cell18">
  <circle cx="519.328" cy="390.789" r="8.41271" stroke-width="0.5" stroke="black" fill="magenta"/>
  <circle cx="519.328" cy="390.789" r="5.05167" stroke-width="0.5" stroke="black" fill="magenta"/>
   </g>
   <g id="cell19">
  <circle cx="451.991" cy="536.582" r="8.41271" stroke-width="0.5" stroke="black" fill="magenta"/>
  <circle cx="451.991" cy="536.582" r="5.05167" stroke-width="0.5" stroke="black" fill="magenta"/>
   </g>
   <g id="cell20">
  <circle cx="528.541" cy="414.952" r="8.41271" stroke-width="0.5" stroke="black" fill="magenta"/>
  <circle cx="528.541" cy="414.952" r="5.05167" stroke-width="0.5" stroke="black" fill="magenta"/>
   </g>
   <g id="cell21">
  <circle cx="464.368" cy="634.574" r="8.41271" stroke-width="0.5" stroke="black" fill="magenta"/>
  <circle cx="464.368" cy="634.574" r="5.05167" stroke-width="0.5" stroke="black" fill="magenta"/>
   </g>
   <g id="cell22">
  <circle cx="558.835" cy="498.559" r="8.40614" stroke-width="0.5" stroke="black" fill="magenta"/>
  <circle cx="558.835" cy="498.559" r="5.0497" stroke-width="0.5" stroke="black" fill="magenta"/>
   </g>
   <g id="cell23">
  <circle cx="534.343" cy="484.224" r="8.41271" stroke-width="0.5" stroke="black" fill="magenta"/>
  <circle cx="534.343" cy="484.224" r="5.05167" stroke-width="0.5" stroke="black" fill="magenta"/>
   </g>
   <g id="cell24">
  <circle cx="556.519" cy="383.215" r="8.41271" stroke-width="0.5" stroke="black" fill="magenta"/>
  <circle cx="556.519" cy="383.215" r="5.05167" stroke-width="0.5" stroke="black" fill="magenta"/>
   </g>
   <g id="cell25">
  <circle cx="640.943" cy="550.03" r="8.41271" stroke-width="0.5" stroke="black" fill="green"/>
  <circle cx="640.943" cy="550.03" r="5.05167" stroke-width="0.5" stroke="black" fill="green"/>
   </g>
   <g id="cell26">
  <circle cx="545.847" cy="394.542" r="8.37537" stroke-width="0.5" stroke="black" fill="green"/>
  <circle cx="545.847" cy="394.542" r="5.03798" stroke-width="0.5" stroke="black" fill="green"/>
   </g>
   <g id="cell27">
  <circle cx="454.924" cy="381.624" r="7.76724" stroke-width="0.5" stroke="black" fill="green"/>
  <circle cx="454.924" cy="381.624" r="4.72668" stroke-width="0.5" stroke="black" fill="green"/>
   </g>
   <g id="cell28">
  <circle cx="437.414" cy="531.024" r="8.41271" stroke-width="0.5" stroke="black" fill="green"/>
  <circle cx="437.414" cy="531.024" r="5.05167" stroke-width="0.5" stroke="black" fill="green"/>
   </g>
   <g id="cell29">
  <circle cx="450.003" cy="521.109" r="8.41271" stroke-width="0.5" stroke="black" fill="green"/>
  <circle cx="450.003" cy="521.109" r="5.05167" stroke-width="0.5" stroke="black" fill="green"/>
   </g>
   <g id="cell127">
  <circle cx="395.471" cy="564.776" r="7.63338" stroke-width="0.5" stroke="black" fill="magenta"/>
  <circle cx="395.471" cy="564.776" r="4.65764" stroke-width="0.5" stroke="black" fill="magenta"/>
   </g>
   <g id="cell31">
  <circle cx="412.757" cy="541.197" r="8.41271" stroke-width="0.5" stroke="black" fill="green"/>
  <circle cx="412.757" cy="541.197" r="5.05167" stroke-width="0.5" stroke="black" fill="green"/>
   </g>
   <g id="cell122">
  <circle cx="570.078" cy="492.044" r="6.52425" stroke-width="0.5" stroke="black" fill="magenta"/>
  <circle cx="570.078" cy="492.044" r="4.0081" stroke-width="0.5" stroke="black" fill="magenta"/>
   </g>
   <g id="cell33">
  <circle cx="491.878" cy="418.501" r="8.05651" stroke-width="0.5" stroke="black" fill="green"/>
  <circle cx="491.878" cy="418.501" r="4.87966" stroke-width="0.5" stroke="black" fill="green"/>
   </g>
   <g id="cell34">
  <circle cx="402.731" cy="449.758" r="8.1609" stroke-width="0.5" stroke="black" fill="green"/>
  <circle cx="402.731" cy="449.758" r="4.93506" stroke-width="0.5" stroke="black" fill="green"/>
   </g>
   <g id="cell35">
  <circle cx="553.93" cy="553.205" r="8.4065" stroke-width="0.5" stroke="black" fill="green"/>
  <circle cx="553.93" cy="553.205" r="5.04982" stroke-width="0.5" stroke="black" fill="green"/>
   </g>
   <g id="cell36">
  <circle cx="388.933" cy="577.976" r="8.41271" stroke-width="0.5" stroke="black" fill="green"/>
  <circle cx="388.933" cy="577.976" r="5.05167" stroke-width="0.5" stroke="black" fill="green"/>
   </g>
   <g id="cell37">
  <circle cx="633.061" cy="454.683" r="8.38957" stroke-width="0.5" stroke="black" fill="green"/>
  <circle cx="633.061" cy="454.683" r="5.04365" stroke-width="0.5" stroke="black" fill="green"/>
   </g>
   <g id="cell38">
  <circle cx="537.312" cy="601.358" r="8.41271" stroke-width="0.5" stroke="black" fill="green"/>
  <circle cx="537.312" cy="601.358" r="5.05167" stroke-width="0.5" stroke="black" fill="green"/>
   </g>
   <g id="cell39">
  <circle cx="613.241" cy="500.019" r="8.24832" stroke-width="0.5" stroke="black" fill="green"/>
  <circle cx="613.241" cy="500.019" r="4.98333" stroke-width="0.5" stroke="black" fill="green"/>
   </g>
   <g id="cell40">
  <circle cx="484.754" cy="572.795" r="8.40427" stroke-width="0.5" stroke="black" fill="green"/>
  <circle cx="484.754" cy="572.795" r="5.04906" stroke-width="0.5" stroke="black" fill="green"/>
   </g>
   <g id="cell41">
  <circle cx="371.001" cy="487.376" r="8.39021" stroke-width="0.5" stroke="black" fill="green"/>
  <circle cx="371.001" cy="487.376" r="5.0439" stroke-width="0.5" stroke="black" fill="green"/>
   </g>
   <g id="cell42">
  <circle cx="439.521" cy="494.403" r="8.41271" stroke-width="0.5" stroke="black" fill="green"/>
  <circle cx="439.521" cy="494.403" r="5.05167" stroke-width="0.5" stroke="black" fill="green"/>
   </g>
   <g id="cell43">
  <circle cx="555.36" cy="437.749" r="8.40185" stroke-width="0.5" stroke="black" fill="green"/>
  <circle cx="555.36" cy="437.749" r="5.04822" stroke-width="0.5" stroke="black" fill="green"/>
   </g>
   <g id="cell44">
  <circle cx="475.857" cy="624.021" r="8.41271" stroke-width="0.5" stroke="black" fill="green"/>
  <circle cx="475.857" cy="624.021" r="5.05167" stroke-width="0.5" stroke="black" fill="green"/>
   </g>
   <g id="cell45">
  <circle cx="414.91" cy="557.079" r="8.41271" stroke-width="0.5" stroke="black" fill="green"/>
  <circle cx="414.91" cy="557.079" r="5.05167" stroke-width="0.5" stroke="black" fill="green"/>
   </g>
   <g id="cell46">
  <circle cx="523.383" cy="608.972" r="8.41271" stroke-width="0.5" stroke="black" fill="green"/>
  <circle cx="523.383" cy="608.972" r="5.05167" stroke-width="0.5" stroke="black" fill="green"/>
   </g>
   <g id="cell47">
  <circle cx="501.798" cy="499.317" r="8.40494" stroke-width="0.5" stroke="black" fill="green"/>
  <circle cx="501.798" cy="499.317" r="5.04929" stroke-width="0.5" stroke="black" fill="green"/>
   </g>
   <g id="cell48">
  <circle cx="564.437" cy="602.859" r="8.41271" stroke-width="0.5" stroke="black" fill="green"/>
  <circle cx="564.437" cy="602.859" r="5.05167" stroke-width="0.5" stroke="black" fill="green"/>
   </g>
   <g id="cell49">
  <circle cx="430.021" cy="397.604" r="8.41271" stroke-width="0.5" stroke="black" fill="green"/>
  <circle cx="430.021" cy="397.604" r="5.05167" stroke-width="0.5" stroke="black" fill="green"/>
   </g>
   <g id="cell50">
  <circle cx="516.713" cy="504.839" r="8.41271" stroke-width="0.5" stroke="black" fill="cyan"/>
  <circle cx="516.713" cy="504.839" r="5.05167" stroke-width="0.5" stroke="black" fill="cyan"/>
   </g>
   <g id="cell51">
  <circle cx="396.322" cy="592.175" r="8.41271" stroke-width="0.5" stroke="black" fill="cyan"/>
  <circle cx="396.322" cy="592.175" r="5.05167" stroke-width="0.5" stroke="black" fill="cyan"/>
   </g>
   <g id="cell108">
  <circle cx="335.975" cy="544.904" r="8.25831" stroke-width="0.5" stroke="black" fill="cyan"/>
  <circle cx="335.975" cy="544.904" r="4.98561" stroke-width="0.5" stroke="black" fill="cyan"/>
   </g>
   <g id="cell53">
  <circle cx="571.222" cy="435.98" r="8.41271" stroke-width="0.5" stroke="black" fill="cyan"/>
  <circle cx="571.222" cy="435.98" r="5.05167" stroke-width="0.5" stroke="black" fill="cyan"/>
   </g>
   <g id="cell54">
  <circle cx="477.029" cy="423.617" r="8.41271" stroke-width="0.5" stroke="black" fill="cyan"/>
  <circle cx="477.029" cy="423.617" r="5.05167" stroke-width="0.5" stroke="black" fill="cyan"/>
   </g>
   <g id="cell55">
  <circle cx="525.209" cy="471.998" r="8.24914" stroke-width="0.5" stroke="black" fill="cyan"/>
  <circle cx="525.209" cy="471.998" r="4.97981" stroke-width="0.5" stroke="black" fill="cyan"/>
   </g>
   <g id="cell56">
  <circle cx="615.912" cy="521.352" r="8.41271" stroke-width="0.5" stroke="black" fill="cyan"/>
  <circle cx="615.912" cy="521.352" r="5.05167" stroke-width="0.5" stroke="black" fill="cyan"/>
   </g>
   <g id="cell57">
  <circle cx="416.924" cy="617.466" r="8.41271" stroke-width="0.5" stroke="black" fill="cyan"/>
  <circle cx="416.924" cy="617.466" r="5.05167" stroke-width="0.5" stroke="black" fill="cyan"/>
   </g>
   <g id="cell58">
  <circle cx="547.155" cy="474.855" r="8.41271" stroke-width="0.5" stroke="black" fill="cyan"/>
  <circle cx="547.155" cy="474.855" r="5.05167" stroke-width="0.5" stroke="black" fill="cyan"/>
   </g>
   <g id="cell59">
  <circle cx="392.298" cy="433.361" r="7.46878" stroke-width="0.5" stroke="black" fill="cyan"/>
  <circle cx="392.298" cy="433.361" r="4.53982" stroke-width="0.5" stroke="black" fill="cyan"/>
   </g>
   <g id="cell60">
  <circle cx="600.295" cy="468.534" r="8.41271" stroke-width="0.5" stroke="black" fill="cyan"/>
  <circle cx="600.295" cy="468.534" r="5.05167" stroke-width="0.5" stroke="black" fill="cyan"/>
   </g>
   <g id="cell61">
  <circle cx="552.186" cy="613.2" r="8.41271" stroke-width="0.5" stroke="black" fill="cyan"/>
  <circle cx="552.186" cy="613.2" r="5.05167" stroke-width="0.5" stroke="black" fill="cyan"/>
   </g>
   <g id="cell62">
  <circle cx="525.644" cy="442.615" r="8.41271" stroke-width="0.5" stroke="black" fill="cyan"/>
  <circle cx="525.644" cy="442.615" r="5.05167" stroke-width="0.5" stroke="black" fill="cyan"/>
   </g>
   <g id="cell63">
  <circle cx="594.232" cy="553.47" r="8.33765" stroke-width="0.5" stroke="black" fill="cyan"/>
  <circle cx="594.232" cy="553.47" r="5.0224" stroke-width="0.5" stroke="black" fill="cyan"/>
   </g>
   <g id="cell64">
  <circle cx="509.961" cy="636.819" r="8.41271" stroke-width="0.5" stroke="black" fill="cyan"/>
  <circle cx="509.961" cy="636.819" r="5.05167" stroke-width="0.5" stroke="black" fill="cyan"/>
   </g>
   <g id="cell65">
  <circle cx="535.591" cy="460.296" r="8.41271" stroke-width="0.5" stroke="black" fill="cyan"/>
  <circle cx="535.591" cy="460.296" r="5.05167" stroke-width="0.5" stroke="black" fill="cyan"/>
   </g>
   <g id="cell66">
  <circle cx="550.408" cy="535.493" r="8.39083" stroke-width="0.5" stroke="black" fill="cyan"/>
  <circle cx="550.408" cy="535.493" r="5.04414" stroke-width="0.5" stroke="black" fill="cyan"/>
   </g>
   <g id="cell67">
  <circle cx="357.759" cy="496.385" r="8.40576" stroke-width="0.5" stroke="black" fill="cyan"/>
  <circle cx="357.759" cy="496.385" r="5.04957" stroke-width="0.5" stroke="black" fill="cyan"/>
   </g>
   <g id="cell68">
  <circle cx="569.33" cy="557.356" r="8.41271" stroke-width="0.5" stroke="black" fill="cyan"/>
  <circle cx="569.33" cy="557.356" r="5.05167" stroke-width="0.5" stroke="black" fill="cyan"/>
   </g>
   <g id="cell69">
  <circle cx="433.365" cy="461.567" r="7.45708" stroke-width="0.5" stroke="black" fill="cyan"/>
  <circle cx="433.365" cy="461.567" r="4.56846" stroke-width="0.5" stroke="black" fill="cyan"/>
   </g>
   <g id="cell70">
  <circle cx="588.905" cy="478.803" r="8.35727" stroke-width="0.5" stroke="black" fill="cyan"/>
  <circle cx="588.905" cy="478.803" r="5.03034" stroke-width="0.5" stroke="black" fill="cyan"/>
   </g>
   <g id="cell71">
  <circle cx="373.022" cy="512.22" r="8.34772" stroke-width="0.5" stroke="black" fill="cyan"/>
  <circle cx="373.022" cy="512.22" r="5.02732" stroke-width="0.5" stroke="black" fill="cyan"/>
   </g>
   <g id="cell72">
  <circle cx="537.282" cy="515.685" r="8.407" stroke-width="0.5" stroke="black" fill="cyan"/>
  <circle cx="537.282" cy="515.685" r="5.04998" stroke-width="0.5" stroke="black" fill="cyan"/>
   </g>
   <g id="cell73">
  <circle cx="346.989" cy="556.116" r="8.25831" stroke-width="0.5" stroke="black" fill="cyan"/>
  <circle cx="346.989" cy="556.116" r="4.98561" stroke-width="0.5" stroke="black" fill="cyan"/>
   </g>
   <g id="cell74">
  <circle cx="541.409" cy="445.461" r="8.41271" stroke-width="0.5" stroke="black" fill="cyan"/>
  <circle cx="541.409" cy="445.461" r="5.05167" stroke-width="0.5" stroke="black" fill="cyan"/>
   </g>
   <g id="cell75">
  <circle cx="531.741" cy="499.646" r="8.407" stroke-width="0.5" stroke="black" fill="cyan"/>
  <circle cx="531.741" cy="499.646" r="5.04998" stroke-width="0.5" stroke="black" fill="cyan"/>
   </g>
   <g id="cell76">
  <circle cx="529.53" cy="558.905" r="8.27176" stroke-width="0.5" stroke="black" fill="green"/>
  <circle cx="529.53" cy="558.905" r="4.99145" stroke-width="0.5" stroke="black" fill="green"/>
   </g>
   <g id="cell77">
  <circle cx="545.755" cy="503.751" r="7.67593" stroke-width="0.5" stroke="black" fill="magenta"/>
  <circle cx="545.755" cy="503.751" r="4.66491" stroke-width="0.5" stroke="black" fill="magenta"/>
   </g>
   <g id="cell78">
  <circle cx="343.38" cy="489.316" r="8.40576" stroke-width="0.5" stroke="black" fill="cyan"/>
  <circle cx="343.38" cy="489.316" r="5.04957" stroke-width="0.5" stroke="black" fill="cyan"/>
   </g>
   <g id="cell79">
  <circle cx="486.837" cy="505.104" r="8.40494" stroke-width="0.5" stroke="black" fill="green"/>
  <circle cx="486.837" cy="505.104" r="5.04929" stroke-width="0.5" stroke="black" fill="green"/>
   </g>
   <g id="cell80">
  <circle cx="472.608" cy="484.391" r="8.40494" stroke-width="0.5" stroke="black" fill="magenta"/>
  <circle cx="472.608" cy="484.391" r="5.04929" stroke-width="0.5" stroke="black" fill="magenta"/>
   </g>
   <g id="cell81">
  <circle cx="479.954" cy="557.629" r="8.40427" stroke-width="0.5" stroke="black" fill="green"/>
  <circle cx="479.954" cy="557.629" r="5.04906" stroke-width="0.5" stroke="black" fill="green"/>
   </g>
   <g id="cell82">
  <circle cx="575.98" cy="530.604" r="8.28772" stroke-width="0.5" stroke="black" fill="cyan"/>
  <circle cx="575.98" cy="530.604" r="4.99941" stroke-width="0.5" stroke="black" fill="cyan"/>
   </g>
   <g id="cell83">
  <circle cx="564.867" cy="450.62" r="8.33765" stroke-width="0.5" stroke="black" fill="green"/>
  <circle cx="564.867" cy="450.62" r="5.0224" stroke-width="0.5" stroke="black" fill="green"/>
   </g>
   <g id="cell84">
  <circle cx="519.653" cy="530.98" r="7.53592" stroke-width="0.5" stroke="black" fill="magenta"/>
  <circle cx="519.653" cy="530.98" r="4.58264" stroke-width="0.5" stroke="black" fill="magenta"/>
   </g>
   <g id="cell85">
  <circle cx="374.916" cy="550.374" r="8.39834" stroke-width="0.5" stroke="black" fill="magenta"/>
  <circle cx="374.916" cy="550.374" r="5.04696" stroke-width="0.5" stroke="black" fill="magenta"/>
   </g>
   <g id="cell86">
  <circle cx="605.627" cy="486.228" r="8.39752" stroke-width="0.5" stroke="black" fill="green"/>
  <circle cx="605.627" cy="486.228" r="5.04666" stroke-width="0.5" stroke="black" fill="green"/>
   </g>
   <g id="cell87">
  <circle cx="359.715" cy="546.709" r="8.39618" stroke-width="0.5" stroke="black" fill="cyan"/>
  <circle cx="359.715" cy="546.709" r="5.04616" stroke-width="0.5" stroke="black" fill="cyan"/>
   </g>
   <g id="cell88">
  <circle cx="534.401" cy="531.707" r="8.39083" stroke-width="0.5" stroke="black" fill="cyan"/>
  <circle cx="534.401" cy="531.707" r="5.04414" stroke-width="0.5" stroke="black" fill="cyan"/>
   </g>
   <g id="cell89">
  <circle cx="364.891" cy="466.952" r="8.33369" stroke-width="0.5" stroke="black" fill="green"/>
  <circle cx="364.891" cy="466.952" r="5.02107" stroke-width="0.5" stroke="black" fill="green"/>
   </g>
   <g id="cell90">
  <circle cx="637.723" cy="469.966" r="8.38957" stroke-width="0.5" stroke="black" fill="green"/>
  <circle cx="637.723" cy="469.966" r="5.04365" stroke-width="0.5" stroke="black" fill="green"/>
   </g>
   <g id="cell91">
  <circle cx="382.671" cy="524.649" r="8.34177" stroke-width="0.5" stroke="black" fill="cyan"/>
  <circle cx="382.671" cy="524.649" r="5.02477" stroke-width="0.5" stroke="black" fill="cyan"/>
   </g>
   <g id="cell92">
  <circle cx="508.597" cy="614.378" r="8.38206" stroke-width="0.5" stroke="black" fill="magenta"/>
  <circle cx="508.597" cy="614.378" r="5.04069" stroke-width="0.5" stroke="black" fill="magenta"/>
   </g>
   <g id="cell93">
  <circle cx="555.451" cy="407.276" r="8.37537" stroke-width="0.5" stroke="black" fill="green"/>
  <circle cx="555.451" cy="407.276" r="5.03798" stroke-width="0.5" stroke="black" fill="green"/>
   </g>
   <g id="cell94">
  <circle cx="388.852" cy="510.107" r="8.34772" stroke-width="0.5" stroke="black" fill="cyan"/>
  <circle cx="388.852" cy="510.107" r="5.02732" stroke-width="0.5" stroke="black" fill="cyan"/>
   </g>
   <g id="cell95">
  <circle cx="370.647" cy="535.254" r="8.34177" stroke-width="0.5" stroke="black" fill="cyan"/>
  <circle cx="370.647" cy="535.254" r="5.02477" stroke-width="0.5" stroke="black" fill="cyan"/>
   </g>
   <g id="cell96">
  <circle cx="580.718" cy="465.973" r="8.2204" stroke-width="0.5" stroke="black" fill="cyan"/>
  <circle cx="580.718" cy="465.973" r="4.9687" stroke-width="0.5" stroke="black" fill="cyan"/>
   </g>
   <g id="cell97">
  <circle cx="356.644" cy="480.494" r="8.33369" stroke-width="0.5" stroke="black" fill="green"/>
  <circle cx="356.644" cy="480.494" r="5.02107" stroke-width="0.5" stroke="black" fill="green"/>
   </g>
   <g id="cell98">
  <circle cx="580.328" cy="545.846" r="8.33765" stroke-width="0.5" stroke="black" fill="cyan"/>
  <circle cx="580.328" cy="545.846" r="5.0224" stroke-width="0.5" stroke="black" fill="cyan"/>
   </g>
   <g id="cell99">
  <circle cx="551.092" cy="458.323" r="8.33765" stroke-width="0.5" stroke="black" fill="green"/>
  <circle cx="551.092" cy="458.323" r="5.0224" stroke-width="0.5" stroke="black" fill="green"/>
   </g>
   <g id="cell100">
  <circle cx="621.599" cy="486.959" r="7.9404" stroke-width="0.5" stroke="black" fill="green"/>
  <circle cx="621.599" cy="486.959" r="4.82322" stroke-width="0.5" stroke="black" fill="green"/>
   </g>
   <g id="cell101">
  <circle cx="571.787" cy="505.994" r="8.25226" stroke-width="0.5" stroke="black" fill="magenta"/>
  <circle cx="571.787" cy="505.994" r="4.98465" stroke-width="0.5" stroke="black" fill="magenta"/>
   </g>
   <g id="cell102">
  <circle cx="464.902" cy="395.863" r="6.64734" stroke-width="0.5" stroke="black" fill="green"/>
  <circle cx="464.902" cy="395.863" r="4.01457" stroke-width="0.5" stroke="black" fill="green"/>
   </g>
   <g id="cell103">
  <circle cx="565.009" cy="541.96" r="8.28772" stroke-width="0.5" stroke="black" fill="cyan"/>
  <circle cx="565.009" cy="541.96" r="4.99941" stroke-width="0.5" stroke="black" fill="cyan"/>
   </g>
   <g id="cell104">
  <circle cx="629.339" cy="500.13" r="8.24832" stroke-width="0.5" stroke="black" fill="green"/>
  <circle cx="629.339" cy="500.13" r="4.98333" stroke-width="0.5" stroke="black" fill="green"/>
   </g>
   <g id="cell105">
  <circle cx="573.436" cy="479.133" r="7.70916" stroke-width="0.5" stroke="black" fill="magenta"/>
  <circle cx="573.436" cy="479.133" r="4.7039" stroke-width="0.5" stroke="black" fill="magenta"/>
   </g>
   <g id="cell106">
  <circle cx="539.594" cy="546.83" r="8.27176" stroke-width="0.5" stroke="black" fill="green"/>
  <circle cx="539.594" cy="546.83" r="4.99145" stroke-width="0.5" stroke="black" fill="green"/>
   </g>
   <g id="cell107">
  <circle cx="511.33" cy="585.312" r="8.27097" stroke-width="0.5" stroke="black" fill="magenta"/>
  <circle cx="511.33" cy="585.312" r="4.99048" stroke-width="0.5" stroke="black" fill="magenta"/>
   </g>
   <g id="cell109">
  <circle cx="520.17" cy="457.281" r="8.24914" stroke-width="0.5" stroke="black" fill="cyan"/>
  <circle cx="520.17" cy="457.281" r="4.97981" stroke-width="0.5" stroke="black" fill="cyan"/>
   </g>
   <g id="cell110">
  <circle cx="562.754" cy="468.736" r="8.2204" stroke-width="0.5" stroke="black" fill="cyan"/>
  <circle cx="562.754" cy="468.736" r="4.9687" stroke-width="0.5" stroke="black" fill="cyan"/>
   </g>
   <g id="cell111">
  <circle cx="559.885" cy="483.586" r="8.1407" stroke-width="0.5" stroke="black" fill="magenta"/>
  <circle cx="559.885" cy="483.586" r="4.93239" stroke-width="0.5" stroke="black" fill="magenta"/>
   </g>
   <g id="cell112">
  <circle cx="388.043" cy="454.831" r="8.1609" stroke-width="0.5" stroke="black" fill="green"/>
  <circle cx="388.043" cy="454.831" r="4.93506" stroke-width="0.5" stroke="black" fill="green"/>
   </g>
   <g id="cell113">
  <circle cx="389.136" cy="552.803" r="7.63338" stroke-width="0.5" stroke="black" fill="magenta"/>
  <circle cx="389.136" cy="552.803" r="4.65764" stroke-width="0.5" stroke="black" fill="magenta"/>
   </g>
   <g id="cell114">
  <circle cx="524.126" cy="593.309" r="8.08799" stroke-width="0.5" stroke="black" fill="magenta"/>
  <circle cx="524.126" cy="593.309" r="4.89939" stroke-width="0.5" stroke="black" fill="magenta"/>
   </g>
   <g id="cell115">
  <circle cx="502.911" cy="427.002" r="6.50531" stroke-width="0.5" stroke="black" fill="green"/>
  <circle cx="502.911" cy="427.002" r="3.99858" stroke-width="0.5" stroke="black" fill="green"/>
   </g>
   <g id="cell116">
  <circle cx="440.796" cy="474.177" r="8.01277" stroke-width="0.5" stroke="black" fill="cyan"/>
  <circle cx="440.796" cy="474.177" r="4.85584" stroke-width="0.5" stroke="black" fill="cyan"/>
   </g>
   <g id="cell117">
  <circle cx="597.904" cy="504.577" r="8.00101" stroke-width="0.5" stroke="black" fill="magenta"/>
  <circle cx="597.904" cy="504.577" r="4.84939" stroke-width="0.5" stroke="black" fill="magenta"/>
   </g>
   <g id="cell118">
  <circle cx="614.643" cy="473.786" r="7.9404" stroke-width="0.5" stroke="black" fill="green"/>
  <circle cx="614.643" cy="473.786" r="4.82322" stroke-width="0.5" stroke="black" fill="green"/>
   </g>
   <g id="cell119">
  <circle cx="498.05" cy="579.527" r="7.54739" stroke-width="0.5" stroke="black" fill="magenta"/>
  <circle cx="498.05" cy="579.527" r="4.61596" stroke-width="0.5" stroke="black" fill="magenta"/>
   </g>
   <g id="cell120">
  <circle cx="468.705" cy="498.574" r="7.95931" stroke-width="0.5" stroke="black" fill="magenta"/>
  <circle cx="468.705" cy="498.574" r="4.82736" stroke-width="0.5" stroke="black" fill="magenta"/>
   </g>
   <g id="cell121">
  <circle cx="445.137" cy="456.567" r="6.16571" stroke-width="0.5" stroke="black" fill="cyan"/>
  <circle cx="445.137" cy="456.567" r="3.76008" stroke-width="0.5" stroke="black" fill="cyan"/>
   </g>
   <g id="cell123">
  <circle cx="420.632" cy="455.669" r="7.45708" stroke-width="0.5" stroke="black" fill="cyan"/>
  <circle cx="420.632" cy="455.669" r="4.56846" stroke-width="0.5" stroke="black" fill="cyan"/>
   </g>
   <g id="cell124">
  <circle cx="444.168" cy="391.67" r="7.76724" stroke-width="0.5" stroke="black" fill="green"/>
  <circle cx="444.168" cy="391.67" r="4.72668" stroke-width="0.5" stroke="black" fill="green"/>
   </g>
   <g id="cell125">
  <circle cx="493.545" cy="445.441" r="7.62801" stroke-width="0.5" stroke="black" fill="green"/>
  <circle cx="493.545" cy="445.441" r="4.6554" stroke-width="0.5" stroke="black" fill="green"/>
   </g>
   <g id="cell126">
  <circle cx="486.697" cy="587.276" r="7.54739" stroke-width="0.5" stroke="black" fill="magenta"/>
  <circle cx="486.697" cy="587.276" r="4.61596" stroke-width="0.5" stroke="black" fill="magenta"/>
   </g>
   <g id="cell128">
  <circle cx="547.301" cy="490.023" r="7.67593" stroke-width="0.5" stroke="black" fill="magenta"/>
  <circle cx="547.301" cy="490.023" r="4.66491" stroke-width="0.5" stroke="black" fill="magenta"/>
   </g>
   <g id="cell129">
  <circle cx="522.986" cy="518.092" r="7.53592" stroke-width="0.5" stroke="black" fill="magenta"/>
  <circle cx="522.986" cy="518.092" r="4.58264" stroke-width="0.5" stroke="black" fill="magenta"/>
   </g>
   <g id="cell130">
  <circle cx="371.465" cy="445.166" r="6.27959" stroke-width="0.5" stroke="black" fill="cyan"/>
  <circle cx="371.465" cy="445.166" r="3.84608" stroke-width="0.5" stroke="black" fill="cyan"/>
   </g>
   <g id="cell131">
  <circle cx="599.134" cy="518.333" r="7.44242" stroke-width="0.5" stroke="black" fill="magenta"/>
  <circle cx="599.134" cy="518.333" r="4.52373" stroke-width="0.5" stroke="black" fill="magenta"/>
   </g>
   <g id="cell132">
  <circle cx="512.16" cy="477.598" r="7.21189" stroke-width="0.5" stroke="black" fill="magenta"/>
  <circle cx="512.16" cy="477.598" r="4.37993" stroke-width="0.5" stroke="black" fill="magenta"/>
   </g>
   <g id="cell133">
  <circle cx="584.068" cy="500.652" r="7.09432" stroke-width="0.5" stroke="black" fill="magenta"/>
  <circle cx="584.068" cy="500.652" r="4.31699" stroke-width="0.5" stroke="black" fill="magenta"/>
   </g>
   <g id="cell134">
  <circle cx="491.849" cy="432.209" r="6.50531" stroke-width="0.5" stroke="black" fill="green"/>
  <circle cx="491.849" cy="432.209" r="3.99858" stroke-width="0.5" stroke="black" fill="green"/>
   </g>
   <g id="cell135">
  <circle cx="580.988" cy="489.272" r="6.52425" stroke-width="0.5" stroke="black" fill="magenta"/>
  <circle cx="580.988" cy="489.272" r="4.0081" stroke-width="0.5" stroke="black" fill="magenta"/>
   </g>
   <g id="cell136">
  <circle cx="382.882" cy="442.197" r="6.27959" stroke-width="0.5" stroke="black" fill="cyan"/>
  <circle cx="382.882" cy="442.197" r="3.84608" stroke-width="0.5" stroke="black" fill="cyan"/>
   </g>
   <g id="cell137">
  <circle cx="510.363" cy="465.923" r="6.01751" stroke-width="0.5" stroke="black" fill="magenta"/>
  <circle cx="510.363" cy="465.923" r="3.68146" stroke-width="0.5" stroke="black" fill="magenta"/>
   </g>
   <g id="cell138">
  <circle cx="468.449" cy="383.76" r="6.64734" stroke-width="0.5" stroke="black" fill="green"/>
  <circle cx="468.449" cy="383.76" r="4.01457" stroke-width="0.5" stroke="black" fill="green"/>
   </g>
   <g id="cell139">
  <circle cx="451.503" cy="466.136" r="6.16571" stroke-width="0.5" stroke="black" fill="cyan"/>
  <circle cx="451.503" cy="466.136" r="3.76008" stroke-width="0.5" stroke="black" fill="cyan"/>
   </g>
  </g>
 </g>
  <rect x="775" y="1035" width="200" height="10" stroke-width="2" stroke="rgb(255,255,255)" fill="rgb(0,0,0)"/>
  <text x="781.25" y="1028.75"
   font-family="Arial" font-size="25" fill="black" >
   200 &#956;m
  </text>
  <text x="25" y="1045"
   font-family="Arial" font-size="18.75" fill="black" >
   0 days, 0 hours, 0 minutes, and 22.3428 seconds
  </text>
  <rect x="0" y="70" width="1000" height="1000" stroke-width="2" stroke="rgb(0,0,0)" fill="none"/>
</svg>
