<?xml version="1.0" encoding="UTF-8" standalone="no"?>
<!-- Created with PhysiCell (http://PhysiCell.MathCancer.org/) -->
<svg 
 xmlns:dc="http://purl.org/dc/elements/1.1/" 
 xmlns:cc="http://creativecommons.org/ns#" 
 xmlns:rdf="http://www.w3.org/1999/02/22-rdf-syntax-ns#" 
 xmlns:svg="http://www.w3.org/2000/svg" 
 xmlns="http://www.w3.org/2000/svg" 
 version="1.1" 
 width="1000" 
 height="1070" 
 id="svg2">
  <rect x="0" y="0" width="1000" height="1070" stroke-width="2" stroke="white" fill="white"/>
  <text x="12.5" y="30"
   font-family="Arial" font-size="25" fill="black" >
   Current time: 0 days, 15 hours, and 0.00 minutes, z = 0.00 &#956;m
  </text>
  <text x="12.5" y="57.5"
   font-family="Arial" font-size="23.75" fill="black" >
   119 agents
  </text>
 <g id="tissue" 
    transform="translate(0,1070) scale(1,-1)">
  <g id="ECM">
  </g>
  <g id="cells">
   <g id="cell0">
  <circle cx="515.823" cy="534.461" r="8.3031" stroke-width="0.5" stroke="black" fill="magenta"/>
  <circle cx="515.823" cy="534.461" r="5.00583" stroke-width="0.5" stroke="black" fill="magenta"/>
   </g>
   <g id="cell1">
  <circle cx="602.492" cy="526.171" r="8.41271" stroke-width="0.5" stroke="black" fill="magenta"/>
  <circle cx="602.492" cy="526.171" r="5.05167" stroke-width="0.5" stroke="black" fill="magenta"/>
   </g>
   <g id="cell2">
  <circle cx="514.384" cy="598.945" r="8.41271" stroke-width="0.5" stroke="black" fill="magenta"/>
  <circle cx="514.384" cy="598.945" r="5.05167" stroke-width="0.5" stroke="black" fill="magenta"/>
   </g>
   <g id="cell3">
  <circle cx="524" cy="546.97" r="8.23199" stroke-width="0.5" stroke="black" fill="magenta"/>
  <circle cx="524" cy="546.97" r="4.97469" stroke-width="0.5" stroke="black" fill="magenta"/>
   </g>
   <g id="cell4">
  <circle cx="490.792" cy="437.408" r="8.36849" stroke-width="0.5" stroke="black" fill="magenta"/>
  <circle cx="490.792" cy="437.408" r="5.03512" stroke-width="0.5" stroke="black" fill="magenta"/>
   </g>
   <g id="cell5">
  <circle cx="465.032" cy="493.3" r="8.41271" stroke-width="0.5" stroke="black" fill="magenta"/>
  <circle cx="465.032" cy="493.3" r="5.05167" stroke-width="0.5" stroke="black" fill="magenta"/>
   </g>
   <g id="cell6">
  <circle cx="595.637" cy="512.669" r="8.41271" stroke-width="0.5" stroke="black" fill="magenta"/>
  <circle cx="595.637" cy="512.669" r="5.05167" stroke-width="0.5" stroke="black" fill="magenta"/>
   </g>
   <g id="cell7">
  <circle cx="500.265" cy="457.719" r="7.51976" stroke-width="0.5" stroke="black" fill="magenta"/>
  <circle cx="500.265" cy="457.719" r="4.57072" stroke-width="0.5" stroke="black" fill="magenta"/>
   </g>
   <g id="cell8">
  <circle cx="376.269" cy="542.16" r="8.41271" stroke-width="0.5" stroke="black" fill="magenta"/>
  <circle cx="376.269" cy="542.16" r="5.05167" stroke-width="0.5" stroke="black" fill="magenta"/>
   </g>
   <g id="cell9">
  <circle cx="460.472" cy="599.786" r="8.41271" stroke-width="0.5" stroke="black" fill="magenta"/>
  <circle cx="460.472" cy="599.786" r="5.05167" stroke-width="0.5" stroke="black" fill="magenta"/>
   </g>
   <g id="cell10">
  <circle cx="583.447" cy="392.105" r="8.41271" stroke-width="0.5" stroke="black" fill="magenta"/>
  <circle cx="583.447" cy="392.105" r="5.05167" stroke-width="0.5" stroke="black" fill="magenta"/>
   </g>
   <g id="cell11">
  <circle cx="591.322" cy="590.075" r="8.41271" stroke-width="0.5" stroke="black" fill="magenta"/>
  <circle cx="591.322" cy="590.075" r="5.05167" stroke-width="0.5" stroke="black" fill="magenta"/>
   </g>
   <g id="cell12">
  <circle cx="506.72" cy="585.986" r="8.41271" stroke-width="0.5" stroke="black" fill="magenta"/>
  <circle cx="506.72" cy="585.986" r="5.05167" stroke-width="0.5" stroke="black" fill="magenta"/>
   </g>
   <g id="cell13">
  <circle cx="386.194" cy="568.228" r="8.41271" stroke-width="0.5" stroke="black" fill="magenta"/>
  <circle cx="386.194" cy="568.228" r="5.05167" stroke-width="0.5" stroke="black" fill="magenta"/>
   </g>
   <g id="cell14">
  <circle cx="529.584" cy="399.296" r="8.41271" stroke-width="0.5" stroke="black" fill="magenta"/>
  <circle cx="529.584" cy="399.296" r="5.05167" stroke-width="0.5" stroke="black" fill="magenta"/>
   </g>
   <g id="cell15">
  <circle cx="379.65" cy="475.1" r="8.41271" stroke-width="0.5" stroke="black" fill="magenta"/>
  <circle cx="379.65" cy="475.1" r="5.05167" stroke-width="0.5" stroke="black" fill="magenta"/>
   </g>
   <g id="cell16">
  <circle cx="428.967" cy="413.117" r="8.41271" stroke-width="0.5" stroke="black" fill="magenta"/>
  <circle cx="428.967" cy="413.117" r="5.05167" stroke-width="0.5" stroke="black" fill="magenta"/>
   </g>
   <g id="cell17">
  <circle cx="570.492" cy="491.245" r="8.41271" stroke-width="0.5" stroke="black" fill="magenta"/>
  <circle cx="570.492" cy="491.245" r="5.05167" stroke-width="0.5" stroke="black" fill="magenta"/>
   </g>
   <g id="cell18">
  <circle cx="518.054" cy="389.483" r="8.41271" stroke-width="0.5" stroke="black" fill="magenta"/>
  <circle cx="518.054" cy="389.483" r="5.05167" stroke-width="0.5" stroke="black" fill="magenta"/>
   </g>
   <g id="cell19">
  <circle cx="459.524" cy="540.142" r="7.48842" stroke-width="0.5" stroke="black" fill="magenta"/>
  <circle cx="459.524" cy="540.142" r="4.56507" stroke-width="0.5" stroke="black" fill="magenta"/>
   </g>
   <g id="cell20">
  <circle cx="531.305" cy="414.353" r="8.41271" stroke-width="0.5" stroke="black" fill="magenta"/>
  <circle cx="531.305" cy="414.353" r="5.05167" stroke-width="0.5" stroke="black" fill="magenta"/>
   </g>
   <g id="cell21">
  <circle cx="464.368" cy="634.574" r="8.41271" stroke-width="0.5" stroke="black" fill="magenta"/>
  <circle cx="464.368" cy="634.574" r="5.05167" stroke-width="0.5" stroke="black" fill="magenta"/>
   </g>
   <g id="cell22">
  <circle cx="556.023" cy="495.534" r="8.41271" stroke-width="0.5" stroke="black" fill="magenta"/>
  <circle cx="556.023" cy="495.534" r="5.05167" stroke-width="0.5" stroke="black" fill="magenta"/>
   </g>
   <g id="cell23">
  <circle cx="544.95" cy="485.396" r="8.41271" stroke-width="0.5" stroke="black" fill="magenta"/>
  <circle cx="544.95" cy="485.396" r="5.05167" stroke-width="0.5" stroke="black" fill="magenta"/>
   </g>
   <g id="cell24">
  <circle cx="558.805" cy="381.591" r="8.41271" stroke-width="0.5" stroke="black" fill="magenta"/>
  <circle cx="558.805" cy="381.591" r="5.05167" stroke-width="0.5" stroke="black" fill="magenta"/>
   </g>
   <g id="cell25">
  <circle cx="645.696" cy="545.228" r="8.34511" stroke-width="0.5" stroke="black" fill="green"/>
  <circle cx="645.696" cy="545.228" r="5.02502" stroke-width="0.5" stroke="black" fill="green"/>
   </g>
   <g id="cell26">
  <circle cx="554.725" cy="396.936" r="7.49456" stroke-width="0.5" stroke="black" fill="green"/>
  <circle cx="554.725" cy="396.936" r="4.55548" stroke-width="0.5" stroke="black" fill="green"/>
   </g>
   <g id="cell27">
  <circle cx="463.759" cy="389.827" r="8.37092" stroke-width="0.5" stroke="black" fill="green"/>
  <circle cx="463.759" cy="389.827" r="5.03613" stroke-width="0.5" stroke="black" fill="green"/>
   </g>
   <g id="cell28">
  <circle cx="433.027" cy="530.701" r="8.41271" stroke-width="0.5" stroke="black" fill="green"/>
  <circle cx="433.027" cy="530.701" r="5.05167" stroke-width="0.5" stroke="black" fill="green"/>
   </g>
   <g id="cell29">
  <circle cx="450.465" cy="515.94" r="8.41271" stroke-width="0.5" stroke="black" fill="green"/>
  <circle cx="450.465" cy="515.94" r="5.05167" stroke-width="0.5" stroke="black" fill="green"/>
   </g>
   <g id="cell30">
  <circle cx="481.022" cy="534.476" r="8.24438" stroke-width="0.5" stroke="black" fill="green"/>
  <circle cx="481.022" cy="534.476" r="4.97746" stroke-width="0.5" stroke="black" fill="green"/>
   </g>
   <g id="cell31">
  <circle cx="412.807" cy="541.561" r="8.41271" stroke-width="0.5" stroke="black" fill="green"/>
  <circle cx="412.807" cy="541.561" r="5.05167" stroke-width="0.5" stroke="black" fill="green"/>
   </g>
   <g id="cell32">
  <circle cx="421.269" cy="481.718" r="8.18177" stroke-width="0.5" stroke="black" fill="green"/>
  <circle cx="421.269" cy="481.718" r="4.94584" stroke-width="0.5" stroke="black" fill="green"/>
   </g>
   <g id="cell33">
  <circle cx="498.449" cy="423.873" r="8.41271" stroke-width="0.5" stroke="black" fill="green"/>
  <circle cx="498.449" cy="423.873" r="5.05167" stroke-width="0.5" stroke="black" fill="green"/>
   </g>
   <g id="cell34">
  <circle cx="397.088" cy="450.831" r="8.41271" stroke-width="0.5" stroke="black" fill="green"/>
  <circle cx="397.088" cy="450.831" r="5.05167" stroke-width="0.5" stroke="black" fill="green"/>
   </g>
   <g id="cell35">
  <circle cx="553.026" cy="541.615" r="8.41271" stroke-width="0.5" stroke="black" fill="green"/>
  <circle cx="553.026" cy="541.615" r="5.05167" stroke-width="0.5" stroke="black" fill="green"/>
   </g>
   <g id="cell36">
  <circle cx="391.486" cy="582.903" r="8.41271" stroke-width="0.5" stroke="black" fill="green"/>
  <circle cx="391.486" cy="582.903" r="5.05167" stroke-width="0.5" stroke="black" fill="green"/>
   </g>
   <g id="cell37">
  <circle cx="639.835" cy="457.35" r="8.36458" stroke-width="0.5" stroke="black" fill="green"/>
  <circle cx="639.835" cy="457.35" r="5.03347" stroke-width="0.5" stroke="black" fill="green"/>
   </g>
   <g id="cell38">
  <circle cx="528.911" cy="593.91" r="8.35568" stroke-width="0.5" stroke="black" fill="green"/>
  <circle cx="528.911" cy="593.91" r="5.02965" stroke-width="0.5" stroke="black" fill="green"/>
   </g>
   <g id="cell39">
  <circle cx="613.458" cy="490.595" r="8.41271" stroke-width="0.5" stroke="black" fill="green"/>
  <circle cx="613.458" cy="490.595" r="5.05167" stroke-width="0.5" stroke="black" fill="green"/>
   </g>
   <g id="cell40">
  <circle cx="485.348" cy="571.779" r="8.41271" stroke-width="0.5" stroke="black" fill="green"/>
  <circle cx="485.348" cy="571.779" r="5.05167" stroke-width="0.5" stroke="black" fill="green"/>
   </g>
   <g id="cell41">
  <circle cx="364.925" cy="480.252" r="8.41271" stroke-width="0.5" stroke="black" fill="green"/>
  <circle cx="364.925" cy="480.252" r="5.05167" stroke-width="0.5" stroke="black" fill="green"/>
   </g>
   <g id="cell42">
  <circle cx="438.842" cy="494.268" r="8.41271" stroke-width="0.5" stroke="black" fill="green"/>
  <circle cx="438.842" cy="494.268" r="5.05167" stroke-width="0.5" stroke="black" fill="green"/>
   </g>
   <g id="cell43">
  <circle cx="564.192" cy="442.234" r="8.41271" stroke-width="0.5" stroke="black" fill="green"/>
  <circle cx="564.192" cy="442.234" r="5.05167" stroke-width="0.5" stroke="black" fill="green"/>
   </g>
   <g id="cell44">
  <circle cx="475.857" cy="624.021" r="8.41271" stroke-width="0.5" stroke="black" fill="green"/>
  <circle cx="475.857" cy="624.021" r="5.05167" stroke-width="0.5" stroke="black" fill="green"/>
   </g>
   <g id="cell45">
  <circle cx="414.902" cy="556.698" r="3.27739" stroke-width="0.5" stroke="black" fill="green"/>
  <circle cx="414.902" cy="556.698" r="2.58717" stroke-width="0.5" stroke="black" fill="black"/>
   </g>
   <g id="cell46">
  <circle cx="521.862" cy="612.162" r="8.01277" stroke-width="0.5" stroke="black" fill="green"/>
  <circle cx="521.862" cy="612.162" r="4.85584" stroke-width="0.5" stroke="black" fill="green"/>
   </g>
   <g id="cell47">
  <circle cx="503.857" cy="502.623" r="8.16806" stroke-width="0.5" stroke="black" fill="green"/>
  <circle cx="503.857" cy="502.623" r="4.93877" stroke-width="0.5" stroke="black" fill="green"/>
   </g>
   <g id="cell48">
  <circle cx="570.398" cy="603.709" r="7.44597" stroke-width="0.5" stroke="black" fill="green"/>
  <circle cx="570.398" cy="603.709" r="4.55339" stroke-width="0.5" stroke="black" fill="green"/>
   </g>
   <g id="cell49">
  <circle cx="430.185" cy="397.541" r="8.41271" stroke-width="0.5" stroke="black" fill="green"/>
  <circle cx="430.185" cy="397.541" r="5.05167" stroke-width="0.5" stroke="black" fill="green"/>
   </g>
   <g id="cell50">
  <circle cx="511.676" cy="514.582" r="7.11208" stroke-width="0.5" stroke="black" fill="cyan"/>
  <circle cx="511.676" cy="514.582" r="4.33079" stroke-width="0.5" stroke="black" fill="cyan"/>
   </g>
   <g id="cell51">
  <circle cx="398.721" cy="597.201" r="8.41271" stroke-width="0.5" stroke="black" fill="cyan"/>
  <circle cx="398.721" cy="597.201" r="5.05167" stroke-width="0.5" stroke="black" fill="cyan"/>
   </g>
   <g id="cell52">
  <circle cx="518.506" cy="423.27" r="8.41271" stroke-width="0.5" stroke="black" fill="cyan"/>
  <circle cx="518.506" cy="423.27" r="5.05167" stroke-width="0.5" stroke="black" fill="cyan"/>
   </g>
   <g id="cell53">
  <circle cx="574.076" cy="430.1" r="8.07654" stroke-width="0.5" stroke="black" fill="cyan"/>
  <circle cx="574.076" cy="430.1" r="4.89046" stroke-width="0.5" stroke="black" fill="cyan"/>
   </g>
   <g id="cell54">
  <circle cx="482.641" cy="424.329" r="8.21273" stroke-width="0.5" stroke="black" fill="cyan"/>
  <circle cx="482.641" cy="424.329" r="4.96162" stroke-width="0.5" stroke="black" fill="cyan"/>
   </g>
   <g id="cell55">
  <circle cx="523.947" cy="464.31" r="8.09297" stroke-width="0.5" stroke="black" fill="cyan"/>
  <circle cx="523.947" cy="464.31" r="4.9034" stroke-width="0.5" stroke="black" fill="cyan"/>
   </g>
   <g id="cell56">
  <circle cx="617.613" cy="522.333" r="8.41271" stroke-width="0.5" stroke="black" fill="cyan"/>
  <circle cx="617.613" cy="522.333" r="5.05167" stroke-width="0.5" stroke="black" fill="cyan"/>
   </g>
   <g id="cell105">
  <circle cx="507.047" cy="610.568" r="6.66848" stroke-width="0.5" stroke="black" fill="green"/>
  <circle cx="507.047" cy="610.568" r="4.07028" stroke-width="0.5" stroke="black" fill="green"/>
   </g>
   <g id="cell58">
  <circle cx="559.575" cy="480.183" r="8.41271" stroke-width="0.5" stroke="black" fill="cyan"/>
  <circle cx="559.575" cy="480.183" r="5.05167" stroke-width="0.5" stroke="black" fill="cyan"/>
   </g>
   <g id="cell59">
  <circle cx="385.463" cy="439.803" r="8.41271" stroke-width="0.5" stroke="black" fill="cyan"/>
  <circle cx="385.463" cy="439.803" r="5.05167" stroke-width="0.5" stroke="black" fill="cyan"/>
   </g>
   <g id="cell60">
  <circle cx="592.155" cy="473.802" r="8.41271" stroke-width="0.5" stroke="black" fill="cyan"/>
  <circle cx="592.155" cy="473.802" r="5.05167" stroke-width="0.5" stroke="black" fill="cyan"/>
   </g>
   <g id="cell61">
  <circle cx="553.932" cy="622.133" r="8.41271" stroke-width="0.5" stroke="black" fill="cyan"/>
  <circle cx="553.932" cy="622.133" r="5.05167" stroke-width="0.5" stroke="black" fill="cyan"/>
   </g>
   <g id="cell62">
  <circle cx="516" cy="440.792" r="6.67966" stroke-width="0.5" stroke="black" fill="cyan"/>
  <circle cx="516" cy="440.792" r="4.02251" stroke-width="0.5" stroke="black" fill="cyan"/>
   </g>
   <g id="cell63">
  <circle cx="573.204" cy="541.779" r="8.29331" stroke-width="0.5" stroke="black" fill="cyan"/>
  <circle cx="573.204" cy="541.779" r="5.0012" stroke-width="0.5" stroke="black" fill="cyan"/>
   </g>
   <g id="cell64">
  <circle cx="509.994" cy="636.386" r="8.41271" stroke-width="0.5" stroke="black" fill="cyan"/>
  <circle cx="509.994" cy="636.386" r="5.05167" stroke-width="0.5" stroke="black" fill="cyan"/>
   </g>
   <g id="cell65">
  <circle cx="547.209" cy="470.031" r="8.27885" stroke-width="0.5" stroke="black" fill="cyan"/>
  <circle cx="547.209" cy="470.031" r="4.99429" stroke-width="0.5" stroke="black" fill="cyan"/>
   </g>
   <g id="cell66">
  <circle cx="530.954" cy="533.198" r="8.20088" stroke-width="0.5" stroke="black" fill="cyan"/>
  <circle cx="530.954" cy="533.198" r="4.95562" stroke-width="0.5" stroke="black" fill="cyan"/>
   </g>
   <g id="cell67">
  <circle cx="354.711" cy="492.599" r="8.41271" stroke-width="0.5" stroke="black" fill="cyan"/>
  <circle cx="354.711" cy="492.599" r="5.05167" stroke-width="0.5" stroke="black" fill="cyan"/>
   </g>
   <g id="cell68">
  <circle cx="562.82" cy="553.894" r="8.41271" stroke-width="0.5" stroke="black" fill="cyan"/>
  <circle cx="562.82" cy="553.894" r="5.05167" stroke-width="0.5" stroke="black" fill="cyan"/>
   </g>
   <g id="cell69">
  <circle cx="442.114" cy="460.541" r="8.41271" stroke-width="0.5" stroke="black" fill="cyan"/>
  <circle cx="442.114" cy="460.541" r="5.05167" stroke-width="0.5" stroke="black" fill="cyan"/>
   </g>
   <g id="cell70">
  <circle cx="576.268" cy="476.792" r="8.41271" stroke-width="0.5" stroke="black" fill="cyan"/>
  <circle cx="576.268" cy="476.792" r="5.05167" stroke-width="0.5" stroke="black" fill="cyan"/>
   </g>
   <g id="cell71">
  <circle cx="379.561" cy="527.73" r="7.61469" stroke-width="0.5" stroke="black" fill="cyan"/>
  <circle cx="379.561" cy="527.73" r="4.62762" stroke-width="0.5" stroke="black" fill="cyan"/>
   </g>
   <g id="cell72">
  <circle cx="532.641" cy="511.431" r="8.21839" stroke-width="0.5" stroke="black" fill="cyan"/>
  <circle cx="532.641" cy="511.431" r="4.96448" stroke-width="0.5" stroke="black" fill="cyan"/>
   </g>
   <g id="cell73">
  <circle cx="364.721" cy="552.461" r="8.30618" stroke-width="0.5" stroke="black" fill="cyan"/>
  <circle cx="364.721" cy="552.461" r="5.00727" stroke-width="0.5" stroke="black" fill="cyan"/>
   </g>
   <g id="cell74">
  <circle cx="549.67" cy="440.849" r="7.49456" stroke-width="0.5" stroke="black" fill="cyan"/>
  <circle cx="549.67" cy="440.849" r="4.55548" stroke-width="0.5" stroke="black" fill="cyan"/>
   </g>
   <g id="cell75">
  <circle cx="528.755" cy="435.581" r="8.37208" stroke-width="0.5" stroke="black" fill="cyan"/>
  <circle cx="528.755" cy="435.581" r="5.03661" stroke-width="0.5" stroke="black" fill="cyan"/>
   </g>
   <g id="cell76">
  <circle cx="440.838" cy="382.695" r="7.749" stroke-width="0.5" stroke="black" fill="green"/>
  <circle cx="440.838" cy="382.695" r="4.72478" stroke-width="0.5" stroke="black" fill="green"/>
   </g>
   <g id="cell77">
  <circle cx="476.172" cy="437.78" r="7.91209" stroke-width="0.5" stroke="black" fill="magenta"/>
  <circle cx="476.172" cy="437.78" r="4.80433" stroke-width="0.5" stroke="black" fill="magenta"/>
   </g>
   <g id="cell78">
  <circle cx="624.432" cy="460.947" r="8.25407" stroke-width="0.5" stroke="black" fill="green"/>
  <circle cx="624.432" cy="460.947" r="4.98488" stroke-width="0.5" stroke="black" fill="green"/>
   </g>
   <g id="cell79">
  <circle cx="517.774" cy="479.635" r="8.35882" stroke-width="0.5" stroke="black" fill="cyan"/>
  <circle cx="517.774" cy="479.635" r="5.031" stroke-width="0.5" stroke="black" fill="cyan"/>
   </g>
   <g id="cell80">
  <circle cx="543.451" cy="613.618" r="6.64286" stroke-width="0.5" stroke="black" fill="green"/>
  <circle cx="543.451" cy="613.618" r="4.00774" stroke-width="0.5" stroke="black" fill="green"/>
   </g>
   <g id="cell81">
  <circle cx="544.993" cy="595.699" r="8.32522" stroke-width="0.5" stroke="black" fill="green"/>
  <circle cx="544.993" cy="595.699" r="5.0178" stroke-width="0.5" stroke="black" fill="green"/>
   </g>
   <g id="cell82">
  <circle cx="532.947" cy="559.195" r="8.34511" stroke-width="0.5" stroke="black" fill="magenta"/>
  <circle cx="532.947" cy="559.195" r="5.02502" stroke-width="0.5" stroke="black" fill="magenta"/>
   </g>
   <g id="cell83">
  <circle cx="634.517" cy="556.522" r="8.34511" stroke-width="0.5" stroke="black" fill="green"/>
  <circle cx="634.517" cy="556.522" r="5.02502" stroke-width="0.5" stroke="black" fill="green"/>
   </g>
   <g id="cell84">
  <circle cx="519.62" cy="502.418" r="8.31209" stroke-width="0.5" stroke="black" fill="cyan"/>
  <circle cx="519.62" cy="502.418" r="5.01002" stroke-width="0.5" stroke="black" fill="cyan"/>
   </g>
   <g id="cell85">
  <circle cx="352.798" cy="542.39" r="8.10463" stroke-width="0.5" stroke="black" fill="cyan"/>
  <circle cx="352.798" cy="542.39" r="4.91148" stroke-width="0.5" stroke="black" fill="cyan"/>
   </g>
   <g id="cell86">
  <circle cx="503.473" cy="526.087" r="8.3031" stroke-width="0.5" stroke="black" fill="magenta"/>
  <circle cx="503.473" cy="526.087" r="5.00583" stroke-width="0.5" stroke="black" fill="magenta"/>
   </g>
   <g id="cell87">
  <circle cx="577.885" cy="556.594" r="7.97023" stroke-width="0.5" stroke="black" fill="cyan"/>
  <circle cx="577.885" cy="556.594" r="4.84041" stroke-width="0.5" stroke="black" fill="cyan"/>
   </g>
   <g id="cell88">
  <circle cx="448.474" cy="531.299" r="8.28262" stroke-width="0.5" stroke="black" fill="magenta"/>
  <circle cx="448.474" cy="531.299" r="4.9961" stroke-width="0.5" stroke="black" fill="magenta"/>
   </g>
   <g id="cell89">
  <circle cx="553.901" cy="455.46" r="8.27885" stroke-width="0.5" stroke="black" fill="cyan"/>
  <circle cx="553.901" cy="455.46" r="4.99429" stroke-width="0.5" stroke="black" fill="cyan"/>
   </g>
   <g id="cell90">
  <circle cx="631.032" cy="475.201" r="8.25407" stroke-width="0.5" stroke="black" fill="green"/>
  <circle cx="631.032" cy="475.201" r="4.98488" stroke-width="0.5" stroke="black" fill="green"/>
   </g>
   <g id="cell91">
  <circle cx="547.823" cy="556.655" r="8.14624" stroke-width="0.5" stroke="black" fill="magenta"/>
  <circle cx="547.823" cy="556.655" r="4.93523" stroke-width="0.5" stroke="black" fill="magenta"/>
   </g>
   <g id="cell92">
  <circle cx="482.524" cy="550.096" r="8.24438" stroke-width="0.5" stroke="black" fill="green"/>
  <circle cx="482.524" cy="550.096" r="4.97746" stroke-width="0.5" stroke="black" fill="green"/>
   </g>
   <g id="cell93">
  <circle cx="538.55" cy="545.691" r="8.14624" stroke-width="0.5" stroke="black" fill="magenta"/>
  <circle cx="538.55" cy="545.691" r="4.93523" stroke-width="0.5" stroke="black" fill="magenta"/>
   </g>
   <g id="cell94">
  <circle cx="533.81" cy="495.928" r="8.21839" stroke-width="0.5" stroke="black" fill="cyan"/>
  <circle cx="533.81" cy="495.928" r="4.96448" stroke-width="0.5" stroke="black" fill="cyan"/>
   </g>
   <g id="cell95">
  <circle cx="467.071" cy="425.92" r="8.21273" stroke-width="0.5" stroke="black" fill="cyan"/>
  <circle cx="467.071" cy="425.92" r="4.96162" stroke-width="0.5" stroke="black" fill="cyan"/>
   </g>
   <g id="cell96">
  <circle cx="542.915" cy="523.204" r="8.20088" stroke-width="0.5" stroke="black" fill="cyan"/>
  <circle cx="542.915" cy="523.204" r="4.95562" stroke-width="0.5" stroke="black" fill="cyan"/>
   </g>
   <g id="cell97">
  <circle cx="421.77" cy="466.323" r="7.99944" stroke-width="0.5" stroke="black" fill="green"/>
  <circle cx="421.77" cy="466.323" r="4.85839" stroke-width="0.5" stroke="black" fill="green"/>
   </g>
   <g id="cell98">
  <circle cx="493.648" cy="514.391" r="8.16806" stroke-width="0.5" stroke="black" fill="green"/>
  <circle cx="493.648" cy="514.391" r="4.93877" stroke-width="0.5" stroke="black" fill="green"/>
   </g>
   <g id="cell99">
  <circle cx="358.209" cy="527.959" r="8.10463" stroke-width="0.5" stroke="black" fill="cyan"/>
  <circle cx="358.209" cy="527.959" r="4.91148" stroke-width="0.5" stroke="black" fill="cyan"/>
   </g>
   <g id="cell100">
  <circle cx="449.054" cy="395.289" r="8.09943" stroke-width="0.5" stroke="black" fill="green"/>
  <circle cx="449.054" cy="395.289" r="4.90615" stroke-width="0.5" stroke="black" fill="green"/>
   </g>
   <g id="cell101">
  <circle cx="532.947" cy="476.371" r="8.09297" stroke-width="0.5" stroke="black" fill="cyan"/>
  <circle cx="532.947" cy="476.371" r="4.9034" stroke-width="0.5" stroke="black" fill="cyan"/>
   </g>
   <g id="cell102">
  <circle cx="434.74" cy="474.29" r="7.99944" stroke-width="0.5" stroke="black" fill="green"/>
  <circle cx="434.74" cy="474.29" r="4.85839" stroke-width="0.5" stroke="black" fill="green"/>
   </g>
   <g id="cell103">
  <circle cx="579.373" cy="444.676" r="8.07654" stroke-width="0.5" stroke="black" fill="cyan"/>
  <circle cx="579.373" cy="444.676" r="4.89046" stroke-width="0.5" stroke="black" fill="cyan"/>
   </g>
   <g id="cell104">
  <circle cx="592.555" cy="553.42" r="7.97023" stroke-width="0.5" stroke="black" fill="cyan"/>
  <circle cx="592.555" cy="553.42" r="4.84041" stroke-width="0.5" stroke="black" fill="cyan"/>
   </g>
   <g id="cell106">
  <circle cx="462.145" cy="440.047" r="7.91209" stroke-width="0.5" stroke="black" fill="magenta"/>
  <circle cx="462.145" cy="440.047" r="4.80433" stroke-width="0.5" stroke="black" fill="magenta"/>
   </g>
   <g id="cell107">
  <circle cx="454.637" cy="377.526" r="7.749" stroke-width="0.5" stroke="black" fill="green"/>
  <circle cx="454.637" cy="377.526" r="4.72478" stroke-width="0.5" stroke="black" fill="green"/>
   </g>
   <g id="cell108">
  <circle cx="556.097" cy="606.367" r="7.83019" stroke-width="0.5" stroke="black" fill="green"/>
  <circle cx="556.097" cy="606.367" r="4.75343" stroke-width="0.5" stroke="black" fill="green"/>
   </g>
   <g id="cell109">
  <circle cx="576.718" cy="591.128" r="7.44597" stroke-width="0.5" stroke="black" fill="green"/>
  <circle cx="576.718" cy="591.128" r="4.55339" stroke-width="0.5" stroke="black" fill="green"/>
   </g>
   <g id="cell110">
  <circle cx="374.064" cy="514.386" r="7.61469" stroke-width="0.5" stroke="black" fill="cyan"/>
  <circle cx="374.064" cy="514.386" r="4.62762" stroke-width="0.5" stroke="black" fill="cyan"/>
   </g>
   <g id="cell111">
  <circle cx="453.674" cy="552.243" r="7.48842" stroke-width="0.5" stroke="black" fill="magenta"/>
  <circle cx="453.674" cy="552.243" r="4.56507" stroke-width="0.5" stroke="black" fill="magenta"/>
   </g>
   <g id="cell112">
  <circle cx="509.957" cy="467.106" r="7.51976" stroke-width="0.5" stroke="black" fill="magenta"/>
  <circle cx="509.957" cy="467.106" r="4.57072" stroke-width="0.5" stroke="black" fill="magenta"/>
   </g>
   <g id="cell113">
  <circle cx="543.004" cy="405.364" r="7.49456" stroke-width="0.5" stroke="black" fill="green"/>
  <circle cx="543.004" cy="405.364" r="4.55548" stroke-width="0.5" stroke="black" fill="green"/>
   </g>
   <g id="cell114">
  <circle cx="526.062" cy="450.493" r="6.74469" stroke-width="0.5" stroke="black" fill="cyan"/>
  <circle cx="526.062" cy="450.493" r="4.13892" stroke-width="0.5" stroke="black" fill="cyan"/>
   </g>
   <g id="cell115">
  <circle cx="537.856" cy="446.346" r="6.74469" stroke-width="0.5" stroke="black" fill="cyan"/>
  <circle cx="537.856" cy="446.346" r="4.13892" stroke-width="0.5" stroke="black" fill="cyan"/>
   </g>
   <g id="cell116">
  <circle cx="522.62" cy="521.859" r="7.11208" stroke-width="0.5" stroke="black" fill="cyan"/>
  <circle cx="522.62" cy="521.859" r="4.33079" stroke-width="0.5" stroke="black" fill="cyan"/>
   </g>
   <g id="cell117">
  <circle cx="511.563" cy="622.185" r="6.66848" stroke-width="0.5" stroke="black" fill="green"/>
  <circle cx="511.563" cy="622.185" r="4.07028" stroke-width="0.5" stroke="black" fill="green"/>
   </g>
   <g id="cell118">
  <circle cx="511.902" cy="452.34" r="6.67966" stroke-width="0.5" stroke="black" fill="cyan"/>
  <circle cx="511.902" cy="452.34" r="4.02251" stroke-width="0.5" stroke="black" fill="cyan"/>
   </g>
   <g id="cell119">
  <circle cx="534.197" cy="606.325" r="6.64286" stroke-width="0.5" stroke="black" fill="green"/>
  <circle cx="534.197" cy="606.325" r="4.00774" stroke-width="0.5" stroke="black" fill="green"/>
   </g>
  </g>
 </g>
  <rect x="775" y="1035" width="200" height="10" stroke-width="2" stroke="rgb(255,255,255)" fill="rgb(0,0,0)"/>
  <text x="781.25" y="1028.75"
   font-family="Arial" font-size="25" fill="black" >
   200 &#956;m
  </text>
  <text x="25" y="1045"
   font-family="Arial" font-size="18.75" fill="black" >
   0 days, 0 hours, 0 minutes, and 17.2555 seconds
  </text>
  <rect x="0" y="70" width="1000" height="1000" stroke-width="2" stroke="rgb(0,0,0)" fill="none"/>
</svg>
