<?xml version="1.0" encoding="UTF-8" standalone="no"?>
<!-- Created with PhysiCell (http://PhysiCell.MathCancer.org/) -->
<svg 
 xmlns:dc="http://purl.org/dc/elements/1.1/" 
 xmlns:cc="http://creativecommons.org/ns#" 
 xmlns:rdf="http://www.w3.org/1999/02/22-rdf-syntax-ns#" 
 xmlns:svg="http://www.w3.org/2000/svg" 
 xmlns="http://www.w3.org/2000/svg" 
 version="1.1" 
 width="1000" 
 height="1070" 
 id="svg2">
  <rect x="0" y="0" width="1000" height="1070" stroke-width="2" stroke="white" fill="white"/>
  <text x="12.5" y="30"
   font-family="Arial" font-size="25" fill="black" >
   Current time: 1 days, 12 hours, and 0.00 minutes, z = 0.00 &#956;m
  </text>
  <text x="12.5" y="57.5"
   font-family="Arial" font-size="23.75" fill="black" >
   202 agents
  </text>
 <g id="tissue" 
    transform="translate(0,1070) scale(1,-1)">
  <g id="ECM">
  </g>
  <g id="cells">
   <g id="cell0">
  <circle cx="476.668" cy="405.971" r="8.3031" stroke-width="0.5" stroke="black" fill="magenta"/>
  <circle cx="476.668" cy="405.971" r="5.00583" stroke-width="0.5" stroke="black" fill="magenta"/>
   </g>
   <g id="cell1">
  <circle cx="635.153" cy="510.759" r="8.41256" stroke-width="0.5" stroke="black" fill="magenta"/>
  <circle cx="635.153" cy="510.759" r="5.05164" stroke-width="0.5" stroke="black" fill="magenta"/>
   </g>
   <g id="cell2">
  <circle cx="480.745" cy="495.924" r="8.41271" stroke-width="0.5" stroke="black" fill="magenta"/>
  <circle cx="480.745" cy="495.924" r="5.05167" stroke-width="0.5" stroke="black" fill="magenta"/>
   </g>
   <g id="cell3">
  <circle cx="456.045" cy="455.676" r="8.14581" stroke-width="0.5" stroke="black" fill="magenta"/>
  <circle cx="456.045" cy="455.676" r="4.92723" stroke-width="0.5" stroke="black" fill="magenta"/>
   </g>
   <g id="cell4">
  <circle cx="418.619" cy="569.331" r="8.13537" stroke-width="0.5" stroke="black" fill="magenta"/>
  <circle cx="418.619" cy="569.331" r="4.92461" stroke-width="0.5" stroke="black" fill="magenta"/>
   </g>
   <g id="cell5">
  <circle cx="396.124" cy="448.01" r="6.37861" stroke-width="0.5" stroke="black" fill="magenta"/>
  <circle cx="396.124" cy="448.01" r="3.88767" stroke-width="0.5" stroke="black" fill="magenta"/>
   </g>
   <g id="cell6">
  <circle cx="436.803" cy="546.828" r="8.41198" stroke-width="0.5" stroke="black" fill="magenta"/>
  <circle cx="436.803" cy="546.828" r="5.05149" stroke-width="0.5" stroke="black" fill="magenta"/>
   </g>
   <g id="cell7">
  <circle cx="607.874" cy="498.893" r="6.95901" stroke-width="0.5" stroke="black" fill="magenta"/>
  <circle cx="607.874" cy="498.893" r="4.21341" stroke-width="0.5" stroke="black" fill="magenta"/>
   </g>
   <g id="cell8">
  <circle cx="384.751" cy="501.386" r="8.41271" stroke-width="0.5" stroke="black" fill="magenta"/>
  <circle cx="384.751" cy="501.386" r="5.05167" stroke-width="0.5" stroke="black" fill="magenta"/>
   </g>
   <g id="cell9">
  <circle cx="527.042" cy="402.386" r="8.40791" stroke-width="0.5" stroke="black" fill="magenta"/>
  <circle cx="527.042" cy="402.386" r="5.05033" stroke-width="0.5" stroke="black" fill="magenta"/>
   </g>
   <g id="cell10">
  <circle cx="594.354" cy="431.932" r="8.40667" stroke-width="0.5" stroke="black" fill="magenta"/>
  <circle cx="594.354" cy="431.932" r="5.04987" stroke-width="0.5" stroke="black" fill="magenta"/>
   </g>
   <g id="cell11">
  <circle cx="517.07" cy="500.793" r="8.41271" stroke-width="0.5" stroke="black" fill="magenta"/>
  <circle cx="517.07" cy="500.793" r="5.05167" stroke-width="0.5" stroke="black" fill="magenta"/>
   </g>
   <g id="cell12">
  <circle cx="595.07" cy="401.468" r="8.13551" stroke-width="0.5" stroke="black" fill="magenta"/>
  <circle cx="595.07" cy="401.468" r="4.92725" stroke-width="0.5" stroke="black" fill="magenta"/>
   </g>
   <g id="cell13">
  <circle cx="636.249" cy="495.839" r="8.4113" stroke-width="0.5" stroke="black" fill="magenta"/>
  <circle cx="636.249" cy="495.839" r="5.05132" stroke-width="0.5" stroke="black" fill="magenta"/>
   </g>
   <g id="cell14">
  <circle cx="365.965" cy="435.733" r="8.41271" stroke-width="0.5" stroke="black" fill="magenta"/>
  <circle cx="365.965" cy="435.733" r="5.05167" stroke-width="0.5" stroke="black" fill="magenta"/>
   </g>
   <g id="cell15">
  <circle cx="380.506" cy="486.902" r="8.41271" stroke-width="0.5" stroke="black" fill="magenta"/>
  <circle cx="380.506" cy="486.902" r="5.05167" stroke-width="0.5" stroke="black" fill="magenta"/>
   </g>
   <g id="cell16">
  <circle cx="514.449" cy="410.917" r="8.40353" stroke-width="0.5" stroke="black" fill="magenta"/>
  <circle cx="514.449" cy="410.917" r="5.04881" stroke-width="0.5" stroke="black" fill="magenta"/>
   </g>
   <g id="cell17">
  <circle cx="376.46" cy="576.905" r="8.41147" stroke-width="0.5" stroke="black" fill="magenta"/>
  <circle cx="376.46" cy="576.905" r="5.05136" stroke-width="0.5" stroke="black" fill="magenta"/>
   </g>
   <g id="cell18">
  <circle cx="531.57" cy="463.475" r="8.41271" stroke-width="0.5" stroke="black" fill="magenta"/>
  <circle cx="531.57" cy="463.475" r="5.05167" stroke-width="0.5" stroke="black" fill="magenta"/>
   </g>
   <g id="cell19">
  <circle cx="486.8" cy="466.854" r="8.41271" stroke-width="0.5" stroke="black" fill="magenta"/>
  <circle cx="486.8" cy="466.854" r="5.05167" stroke-width="0.5" stroke="black" fill="magenta"/>
   </g>
   <g id="cell20">
  <circle cx="494.925" cy="535.258" r="8.40215" stroke-width="0.5" stroke="black" fill="magenta"/>
  <circle cx="494.925" cy="535.258" r="5.04833" stroke-width="0.5" stroke="black" fill="magenta"/>
   </g>
   <g id="cell21">
  <circle cx="506.664" cy="595.343" r="8.40993" stroke-width="0.5" stroke="black" fill="magenta"/>
  <circle cx="506.664" cy="595.343" r="5.05092" stroke-width="0.5" stroke="black" fill="magenta"/>
   </g>
   <g id="cell22">
  <circle cx="542.543" cy="473.25" r="8.0124" stroke-width="0.5" stroke="black" fill="magenta"/>
  <circle cx="542.543" cy="473.25" r="4.85575" stroke-width="0.5" stroke="black" fill="magenta"/>
   </g>
   <g id="cell23">
  <circle cx="578.992" cy="605.703" r="8.32032" stroke-width="0.5" stroke="black" fill="magenta"/>
  <circle cx="578.992" cy="605.703" r="5.01383" stroke-width="0.5" stroke="black" fill="magenta"/>
   </g>
   <g id="cell24">
  <circle cx="506.446" cy="511.055" r="8.11327" stroke-width="0.5" stroke="black" fill="magenta"/>
  <circle cx="506.446" cy="511.055" r="4.91006" stroke-width="0.5" stroke="black" fill="magenta"/>
   </g>
   <g id="cell25">
  <circle cx="445.543" cy="526.36" r="8.38532" stroke-width="0.5" stroke="black" fill="green"/>
  <circle cx="445.543" cy="526.36" r="5.04199" stroke-width="0.5" stroke="black" fill="green"/>
   </g>
   <g id="cell26">
  <circle cx="480.155" cy="603.925" r="7.33129" stroke-width="0.5" stroke="black" fill="green"/>
  <circle cx="480.155" cy="603.925" r="4.45516" stroke-width="0.5" stroke="black" fill="green"/>
   </g>
   <g id="cell27">
  <circle cx="427.817" cy="581.077" r="8.4126" stroke-width="0.5" stroke="black" fill="green"/>
  <circle cx="427.817" cy="581.077" r="5.05165" stroke-width="0.5" stroke="black" fill="green"/>
   </g>
   <g id="cell28">
  <circle cx="498.494" cy="433.56" r="8.41271" stroke-width="0.5" stroke="black" fill="green"/>
  <circle cx="498.494" cy="433.56" r="5.05167" stroke-width="0.5" stroke="black" fill="green"/>
   </g>
   <g id="cell29">
  <circle cx="596.775" cy="508.565" r="8.41271" stroke-width="0.5" stroke="black" fill="green"/>
  <circle cx="596.775" cy="508.565" r="5.05167" stroke-width="0.5" stroke="black" fill="green"/>
   </g>
   <g id="cell30">
  <circle cx="582.793" cy="620.753" r="8.4055" stroke-width="0.5" stroke="black" fill="green"/>
  <circle cx="582.793" cy="620.753" r="5.04954" stroke-width="0.5" stroke="black" fill="green"/>
   </g>
   <g id="cell31">
  <circle cx="469.631" cy="419.76" r="8.41271" stroke-width="0.5" stroke="black" fill="green"/>
  <circle cx="469.631" cy="419.76" r="5.05167" stroke-width="0.5" stroke="black" fill="green"/>
   </g>
   <g id="cell32">
  <circle cx="554.368" cy="422.938" r="8.28622" stroke-width="0.5" stroke="black" fill="green"/>
  <circle cx="554.368" cy="422.938" r="4.99784" stroke-width="0.5" stroke="black" fill="green"/>
   </g>
   <g id="cell33">
  <circle cx="590.166" cy="572.219" r="8.41157" stroke-width="0.5" stroke="black" fill="green"/>
  <circle cx="590.166" cy="572.219" r="5.05138" stroke-width="0.5" stroke="black" fill="green"/>
   </g>
   <g id="cell34">
  <circle cx="562.205" cy="582.389" r="8.36849" stroke-width="0.5" stroke="black" fill="green"/>
  <circle cx="562.205" cy="582.389" r="5.03512" stroke-width="0.5" stroke="black" fill="green"/>
   </g>
   <g id="cell35">
  <circle cx="478.224" cy="511.399" r="8.28262" stroke-width="0.5" stroke="black" fill="green"/>
  <circle cx="478.224" cy="511.399" r="4.9961" stroke-width="0.5" stroke="black" fill="green"/>
   </g>
   <g id="cell36">
  <circle cx="444.935" cy="560.89" r="8.31699" stroke-width="0.5" stroke="black" fill="green"/>
  <circle cx="444.935" cy="560.89" r="5.01243" stroke-width="0.5" stroke="black" fill="green"/>
   </g>
   <g id="cell37">
  <circle cx="492.178" cy="506.585" r="8.41271" stroke-width="0.5" stroke="black" fill="green"/>
  <circle cx="492.178" cy="506.585" r="5.05167" stroke-width="0.5" stroke="black" fill="green"/>
   </g>
   <g id="cell38">
  <circle cx="621.055" cy="448.681" r="8.41271" stroke-width="0.5" stroke="black" fill="green"/>
  <circle cx="621.055" cy="448.681" r="5.05167" stroke-width="0.5" stroke="black" fill="green"/>
   </g>
   <g id="cell39">
  <circle cx="431.482" cy="532.413" r="8.41271" stroke-width="0.5" stroke="black" fill="green"/>
  <circle cx="431.482" cy="532.413" r="5.05167" stroke-width="0.5" stroke="black" fill="green"/>
   </g>
   <g id="cell40">
  <circle cx="480.606" cy="619.097" r="8.37321" stroke-width="0.5" stroke="black" fill="green"/>
  <circle cx="480.606" cy="619.097" r="5.03708" stroke-width="0.5" stroke="black" fill="green"/>
   </g>
   <g id="cell41">
  <circle cx="594.749" cy="416.656" r="8.11327" stroke-width="0.5" stroke="black" fill="green"/>
  <circle cx="594.749" cy="416.656" r="4.91006" stroke-width="0.5" stroke="black" fill="green"/>
   </g>
   <g id="cell42">
  <circle cx="453.074" cy="514.8" r="6.92755" stroke-width="0.5" stroke="black" fill="green"/>
  <circle cx="453.074" cy="514.8" r="4.19178" stroke-width="0.5" stroke="black" fill="green"/>
   </g>
   <g id="cell43">
  <circle cx="353.221" cy="464.216" r="8.36849" stroke-width="0.5" stroke="black" fill="green"/>
  <circle cx="353.221" cy="464.216" r="5.03512" stroke-width="0.5" stroke="black" fill="green"/>
   </g>
   <g id="cell44">
  <circle cx="502.345" cy="467.531" r="8.41271" stroke-width="0.5" stroke="black" fill="green"/>
  <circle cx="502.345" cy="467.531" r="5.05167" stroke-width="0.5" stroke="black" fill="green"/>
   </g>
   <g id="cell45">
  <circle cx="490.421" cy="631.826" r="8.40237" stroke-width="0.5" stroke="black" fill="green"/>
  <circle cx="490.421" cy="631.826" r="5.04854" stroke-width="0.5" stroke="black" fill="green"/>
   </g>
   <g id="cell46">
  <circle cx="606.714" cy="456.313" r="8.41271" stroke-width="0.5" stroke="black" fill="green"/>
  <circle cx="606.714" cy="456.313" r="5.05167" stroke-width="0.5" stroke="black" fill="green"/>
   </g>
   <g id="cell47">
  <circle cx="509.971" cy="538.728" r="8.40056" stroke-width="0.5" stroke="black" fill="green"/>
  <circle cx="509.971" cy="538.728" r="5.04776" stroke-width="0.5" stroke="black" fill="green"/>
   </g>
   <g id="cell48">
  <circle cx="448.293" cy="383.758" r="8.37641" stroke-width="0.5" stroke="black" fill="green"/>
  <circle cx="448.293" cy="383.758" r="5.0384" stroke-width="0.5" stroke="black" fill="green"/>
   </g>
   <g id="cell49">
  <circle cx="441.999" cy="635.329" r="6.71348" stroke-width="0.5" stroke="black" fill="green"/>
  <circle cx="441.999" cy="635.329" r="4.07296" stroke-width="0.5" stroke="black" fill="green"/>
   </g>
   <g id="cell50">
  <circle cx="541.98" cy="563.311" r="8.41239" stroke-width="0.5" stroke="black" fill="cyan"/>
  <circle cx="541.98" cy="563.311" r="5.0516" stroke-width="0.5" stroke="black" fill="cyan"/>
   </g>
   <g id="cell51">
  <circle cx="550.808" cy="593.413" r="8.39422" stroke-width="0.5" stroke="black" fill="cyan"/>
  <circle cx="550.808" cy="593.413" r="5.04543" stroke-width="0.5" stroke="black" fill="cyan"/>
   </g>
   <g id="cell52">
  <circle cx="431.799" cy="457.908" r="8.39362" stroke-width="0.5" stroke="black" fill="cyan"/>
  <circle cx="431.799" cy="457.908" r="5.04522" stroke-width="0.5" stroke="black" fill="cyan"/>
   </g>
   <g id="cell53">
  <circle cx="539.74" cy="529.156" r="8.41271" stroke-width="0.5" stroke="black" fill="cyan"/>
  <circle cx="539.74" cy="529.156" r="5.05167" stroke-width="0.5" stroke="black" fill="cyan"/>
   </g>
   <g id="cell54">
  <circle cx="582.407" cy="392.681" r="8.36032" stroke-width="0.5" stroke="black" fill="cyan"/>
  <circle cx="582.407" cy="392.681" r="5.03165" stroke-width="0.5" stroke="black" fill="cyan"/>
   </g>
   <g id="cell55">
  <circle cx="527.833" cy="387.019" r="8.38532" stroke-width="0.5" stroke="black" fill="cyan"/>
  <circle cx="527.833" cy="387.019" r="5.04199" stroke-width="0.5" stroke="black" fill="cyan"/>
   </g>
   <g id="cell56">
  <circle cx="615.909" cy="477.288" r="7.77864" stroke-width="0.5" stroke="black" fill="cyan"/>
  <circle cx="615.909" cy="477.288" r="4.7386" stroke-width="0.5" stroke="black" fill="cyan"/>
   </g>
   <g id="cell57">
  <circle cx="535.278" cy="589.892" r="8.41223" stroke-width="0.5" stroke="black" fill="cyan"/>
  <circle cx="535.278" cy="589.892" r="5.05156" stroke-width="0.5" stroke="black" fill="cyan"/>
   </g>
   <g id="cell58">
  <circle cx="518.88" cy="454.692" r="8.40667" stroke-width="0.5" stroke="black" fill="cyan"/>
  <circle cx="518.88" cy="454.692" r="5.04987" stroke-width="0.5" stroke="black" fill="cyan"/>
   </g>
   <g id="cell59">
  <circle cx="519.527" cy="586.769" r="8.4123" stroke-width="0.5" stroke="black" fill="cyan"/>
  <circle cx="519.527" cy="586.769" r="5.05158" stroke-width="0.5" stroke="black" fill="cyan"/>
   </g>
   <g id="cell60">
  <circle cx="515.312" cy="426.637" r="8.4114" stroke-width="0.5" stroke="black" fill="cyan"/>
  <circle cx="515.312" cy="426.637" r="5.05134" stroke-width="0.5" stroke="black" fill="cyan"/>
   </g>
   <g id="cell61">
  <circle cx="647.606" cy="520.031" r="8.41271" stroke-width="0.5" stroke="black" fill="cyan"/>
  <circle cx="647.606" cy="520.031" r="5.05167" stroke-width="0.5" stroke="black" fill="cyan"/>
   </g>
   <g id="cell62">
  <circle cx="527.097" cy="365.325" r="7.96365" stroke-width="0.5" stroke="black" fill="cyan"/>
  <circle cx="527.097" cy="365.325" r="4.82873" stroke-width="0.5" stroke="black" fill="cyan"/>
   </g>
   <g id="cell63">
  <circle cx="574.977" cy="546.548" r="8.41177" stroke-width="0.5" stroke="black" fill="cyan"/>
  <circle cx="574.977" cy="546.548" r="5.05144" stroke-width="0.5" stroke="black" fill="cyan"/>
   </g>
   <g id="cell64">
  <circle cx="407.451" cy="607.002" r="7.51976" stroke-width="0.5" stroke="black" fill="cyan"/>
  <circle cx="407.451" cy="607.002" r="4.57072" stroke-width="0.5" stroke="black" fill="cyan"/>
   </g>
   <g id="cell65">
  <circle cx="513.084" cy="485.675" r="8.41271" stroke-width="0.5" stroke="black" fill="cyan"/>
  <circle cx="513.084" cy="485.675" r="5.05167" stroke-width="0.5" stroke="black" fill="cyan"/>
   </g>
   <g id="cell66">
  <circle cx="517.958" cy="470.727" r="8.41271" stroke-width="0.5" stroke="black" fill="cyan"/>
  <circle cx="517.958" cy="470.727" r="5.05167" stroke-width="0.5" stroke="black" fill="cyan"/>
   </g>
   <g id="cell67">
  <circle cx="438.097" cy="430.862" r="7.02016" stroke-width="0.5" stroke="black" fill="cyan"/>
  <circle cx="438.097" cy="430.862" r="4.30226" stroke-width="0.5" stroke="black" fill="cyan"/>
   </g>
   <g id="cell68">
  <circle cx="395.745" cy="490.122" r="8.41271" stroke-width="0.5" stroke="black" fill="cyan"/>
  <circle cx="395.745" cy="490.122" r="5.05167" stroke-width="0.5" stroke="black" fill="cyan"/>
   </g>
   <g id="cell69">
  <circle cx="607.649" cy="440.312" r="8.41259" stroke-width="0.5" stroke="black" fill="cyan"/>
  <circle cx="607.649" cy="440.312" r="5.05165" stroke-width="0.5" stroke="black" fill="cyan"/>
   </g>
   <g id="cell70">
  <circle cx="376.79" cy="446.908" r="8.37092" stroke-width="0.5" stroke="black" fill="cyan"/>
  <circle cx="376.79" cy="446.908" r="5.03613" stroke-width="0.5" stroke="black" fill="cyan"/>
   </g>
   <g id="cell71">
  <circle cx="399.653" cy="505.486" r="8.41271" stroke-width="0.5" stroke="black" fill="cyan"/>
  <circle cx="399.653" cy="505.486" r="5.05167" stroke-width="0.5" stroke="black" fill="cyan"/>
   </g>
   <g id="cell72">
  <circle cx="621.988" cy="432.955" r="8.41271" stroke-width="0.5" stroke="black" fill="cyan"/>
  <circle cx="621.988" cy="432.955" r="5.05167" stroke-width="0.5" stroke="black" fill="cyan"/>
   </g>
   <g id="cell73">
  <circle cx="416.373" cy="529.202" r="8.41163" stroke-width="0.5" stroke="black" fill="cyan"/>
  <circle cx="416.373" cy="529.202" r="5.0514" stroke-width="0.5" stroke="black" fill="cyan"/>
   </g>
   <g id="cell74">
  <circle cx="445.162" cy="484.375" r="8.41271" stroke-width="0.5" stroke="black" fill="cyan"/>
  <circle cx="445.162" cy="484.375" r="5.05167" stroke-width="0.5" stroke="black" fill="cyan"/>
   </g>
   <g id="cell75">
  <circle cx="465.577" cy="606.083" r="8.40433" stroke-width="0.5" stroke="black" fill="green"/>
  <circle cx="465.577" cy="606.083" r="5.04914" stroke-width="0.5" stroke="black" fill="green"/>
   </g>
   <g id="cell76">
  <circle cx="608.28" cy="424.612" r="8.41259" stroke-width="0.5" stroke="black" fill="cyan"/>
  <circle cx="608.28" cy="424.612" r="5.05165" stroke-width="0.5" stroke="black" fill="cyan"/>
   </g>
   <g id="cell77">
  <circle cx="461.317" cy="529.063" r="8.41193" stroke-width="0.5" stroke="black" fill="green"/>
  <circle cx="461.317" cy="529.063" r="5.05149" stroke-width="0.5" stroke="black" fill="green"/>
   </g>
   <g id="cell78">
  <circle cx="581.636" cy="408.373" r="8.4075" stroke-width="0.5" stroke="black" fill="green"/>
  <circle cx="581.636" cy="408.373" r="5.05017" stroke-width="0.5" stroke="black" fill="green"/>
   </g>
   <g id="cell79">
  <circle cx="407.432" cy="478.978" r="8.41257" stroke-width="0.5" stroke="black" fill="cyan"/>
  <circle cx="407.432" cy="478.978" r="5.05164" stroke-width="0.5" stroke="black" fill="cyan"/>
   </g>
   <g id="cell80">
  <circle cx="607.597" cy="523.978" r="8.38198" stroke-width="0.5" stroke="black" fill="magenta"/>
  <circle cx="607.597" cy="523.978" r="5.04067" stroke-width="0.5" stroke="black" fill="magenta"/>
   </g>
   <g id="cell81">
  <circle cx="429.754" cy="442.44" r="8.41245" stroke-width="0.5" stroke="black" fill="magenta"/>
  <circle cx="429.754" cy="442.44" r="5.05161" stroke-width="0.5" stroke="black" fill="magenta"/>
   </g>
   <g id="cell82">
  <circle cx="538.999" cy="605.318" r="8.41243" stroke-width="0.5" stroke="black" fill="cyan"/>
  <circle cx="538.999" cy="605.318" r="5.05161" stroke-width="0.5" stroke="black" fill="cyan"/>
   </g>
   <g id="cell83">
  <circle cx="479.183" cy="586.445" r="8.27869" stroke-width="0.5" stroke="black" fill="magenta"/>
  <circle cx="479.183" cy="586.445" r="4.99425" stroke-width="0.5" stroke="black" fill="magenta"/>
   </g>
   <g id="cell84">
  <circle cx="546.437" cy="578.362" r="8.41147" stroke-width="0.5" stroke="black" fill="cyan"/>
  <circle cx="546.437" cy="578.362" r="5.05137" stroke-width="0.5" stroke="black" fill="cyan"/>
   </g>
   <g id="cell85">
  <circle cx="530.582" cy="574.745" r="8.41223" stroke-width="0.5" stroke="black" fill="cyan"/>
  <circle cx="530.582" cy="574.745" r="5.05156" stroke-width="0.5" stroke="black" fill="cyan"/>
   </g>
   <g id="cell86">
  <circle cx="648.953" cy="504.429" r="8.4123" stroke-width="0.5" stroke="black" fill="magenta"/>
  <circle cx="648.953" cy="504.429" r="5.05158" stroke-width="0.5" stroke="black" fill="magenta"/>
   </g>
   <g id="cell87">
  <circle cx="567.434" cy="431.368" r="8.40643" stroke-width="0.5" stroke="black" fill="green"/>
  <circle cx="567.434" cy="431.368" r="5.04982" stroke-width="0.5" stroke="black" fill="green"/>
   </g>
   <g id="cell88">
  <circle cx="520.277" cy="602.939" r="8.4123" stroke-width="0.5" stroke="black" fill="cyan"/>
  <circle cx="520.277" cy="602.939" r="5.05158" stroke-width="0.5" stroke="black" fill="cyan"/>
   </g>
   <g id="cell89">
  <circle cx="556.59" cy="468.838" r="8.3905" stroke-width="0.5" stroke="black" fill="magenta"/>
  <circle cx="556.59" cy="468.838" r="5.04406" stroke-width="0.5" stroke="black" fill="magenta"/>
   </g>
   <g id="cell90">
  <circle cx="472.592" cy="540.893" r="8.41193" stroke-width="0.5" stroke="black" fill="green"/>
  <circle cx="472.592" cy="540.893" r="5.05149" stroke-width="0.5" stroke="black" fill="green"/>
   </g>
   <g id="cell91">
  <circle cx="421.231" cy="544.06" r="8.41198" stroke-width="0.5" stroke="black" fill="magenta"/>
  <circle cx="421.231" cy="544.06" r="5.05149" stroke-width="0.5" stroke="black" fill="magenta"/>
   </g>
   <g id="cell92">
  <circle cx="561.69" cy="537.605" r="8.40931" stroke-width="0.5" stroke="black" fill="cyan"/>
  <circle cx="561.69" cy="537.605" r="5.05075" stroke-width="0.5" stroke="black" fill="cyan"/>
   </g>
   <g id="cell93">
  <circle cx="418.34" cy="489.954" r="8.3819" stroke-width="0.5" stroke="black" fill="cyan"/>
  <circle cx="418.34" cy="489.954" r="5.04092" stroke-width="0.5" stroke="black" fill="cyan"/>
   </g>
   <g id="cell94">
  <circle cx="557.661" cy="566.968" r="8.41147" stroke-width="0.5" stroke="black" fill="cyan"/>
  <circle cx="557.661" cy="566.968" r="5.05137" stroke-width="0.5" stroke="black" fill="cyan"/>
   </g>
   <g id="cell95">
  <circle cx="593.495" cy="556.644" r="8.28204" stroke-width="0.5" stroke="black" fill="green"/>
  <circle cx="593.495" cy="556.644" r="4.99595" stroke-width="0.5" stroke="black" fill="green"/>
   </g>
   <g id="cell96">
  <circle cx="459.771" cy="568.686" r="8.37154" stroke-width="0.5" stroke="black" fill="green"/>
  <circle cx="459.771" cy="568.686" r="5.03663" stroke-width="0.5" stroke="black" fill="green"/>
   </g>
   <g id="cell97">
  <circle cx="622.161" cy="502.988" r="8.4113" stroke-width="0.5" stroke="black" fill="magenta"/>
  <circle cx="622.161" cy="502.988" r="5.05132" stroke-width="0.5" stroke="black" fill="magenta"/>
   </g>
   <g id="cell98">
  <circle cx="388.027" cy="586.496" r="8.32962" stroke-width="0.5" stroke="black" fill="magenta"/>
  <circle cx="388.027" cy="586.496" r="5.01821" stroke-width="0.5" stroke="black" fill="magenta"/>
   </g>
   <g id="cell99">
  <circle cx="524.486" cy="439.833" r="8.4114" stroke-width="0.5" stroke="black" fill="cyan"/>
  <circle cx="524.486" cy="439.833" r="5.05134" stroke-width="0.5" stroke="black" fill="cyan"/>
   </g>
   <g id="cell100">
  <circle cx="474.04" cy="556.948" r="8.4114" stroke-width="0.5" stroke="black" fill="green"/>
  <circle cx="474.04" cy="556.948" r="5.05134" stroke-width="0.5" stroke="black" fill="green"/>
   </g>
   <g id="cell101">
  <circle cx="605.686" cy="598.426" r="8.35533" stroke-width="0.5" stroke="black" fill="green"/>
  <circle cx="605.686" cy="598.426" r="5.02981" stroke-width="0.5" stroke="black" fill="green"/>
   </g>
   <g id="cell102">
  <circle cx="396.576" cy="557.516" r="8.33398" stroke-width="0.5" stroke="black" fill="magenta"/>
  <circle cx="396.576" cy="557.516" r="5.02021" stroke-width="0.5" stroke="black" fill="magenta"/>
   </g>
   <g id="cell103">
  <circle cx="540.801" cy="396.034" r="8.41023" stroke-width="0.5" stroke="black" fill="magenta"/>
  <circle cx="540.801" cy="396.034" r="5.051" stroke-width="0.5" stroke="black" fill="magenta"/>
   </g>
   <g id="cell104">
  <circle cx="489.843" cy="575.392" r="8.32149" stroke-width="0.5" stroke="black" fill="magenta"/>
  <circle cx="489.843" cy="575.392" r="5.01463" stroke-width="0.5" stroke="black" fill="magenta"/>
   </g>
   <g id="cell105">
  <circle cx="448.829" cy="580.546" r="8.4094" stroke-width="0.5" stroke="black" fill="green"/>
  <circle cx="448.829" cy="580.546" r="5.05078" stroke-width="0.5" stroke="black" fill="green"/>
   </g>
   <g id="cell106">
  <circle cx="554.292" cy="523.411" r="8.40182" stroke-width="0.5" stroke="black" fill="cyan"/>
  <circle cx="554.292" cy="523.411" r="5.04835" stroke-width="0.5" stroke="black" fill="cyan"/>
   </g>
   <g id="cell107">
  <circle cx="590.149" cy="595.017" r="8.40888" stroke-width="0.5" stroke="black" fill="green"/>
  <circle cx="590.149" cy="595.017" r="5.05062" stroke-width="0.5" stroke="black" fill="green"/>
   </g>
   <g id="cell108">
  <circle cx="527.946" cy="417.277" r="8.40791" stroke-width="0.5" stroke="black" fill="magenta"/>
  <circle cx="527.946" cy="417.277" r="5.05033" stroke-width="0.5" stroke="black" fill="magenta"/>
   </g>
   <g id="cell109">
  <circle cx="414.584" cy="504.074" r="7.32784" stroke-width="0.5" stroke="black" fill="cyan"/>
  <circle cx="414.584" cy="504.074" r="4.45408" stroke-width="0.5" stroke="black" fill="cyan"/>
   </g>
   <g id="cell110">
  <circle cx="506.509" cy="610.914" r="8.40801" stroke-width="0.5" stroke="black" fill="green"/>
  <circle cx="506.509" cy="610.914" r="5.05031" stroke-width="0.5" stroke="black" fill="green"/>
   </g>
   <g id="cell111">
  <circle cx="567.882" cy="415.468" r="8.39532" stroke-width="0.5" stroke="black" fill="green"/>
  <circle cx="567.882" cy="415.468" r="5.04606" stroke-width="0.5" stroke="black" fill="green"/>
   </g>
   <g id="cell112">
  <circle cx="491.744" cy="453.159" r="7.38405" stroke-width="0.5" stroke="black" fill="cyan"/>
  <circle cx="491.744" cy="453.159" r="4.48903" stroke-width="0.5" stroke="black" fill="cyan"/>
   </g>
   <g id="cell113">
  <circle cx="580.697" cy="439.409" r="8.37889" stroke-width="0.5" stroke="black" fill="green"/>
  <circle cx="580.697" cy="439.409" r="5.03975" stroke-width="0.5" stroke="black" fill="green"/>
   </g>
   <g id="cell114">
  <circle cx="581.252" cy="423.935" r="8.40667" stroke-width="0.5" stroke="black" fill="magenta"/>
  <circle cx="581.252" cy="423.935" r="5.04987" stroke-width="0.5" stroke="black" fill="magenta"/>
   </g>
   <g id="cell115">
  <circle cx="594.701" cy="610.205" r="8.39008" stroke-width="0.5" stroke="black" fill="green"/>
  <circle cx="594.701" cy="610.205" r="5.04416" stroke-width="0.5" stroke="black" fill="green"/>
   </g>
   <g id="cell116">
  <circle cx="451.35" cy="612.964" r="8.36785" stroke-width="0.5" stroke="black" fill="green"/>
  <circle cx="451.35" cy="612.964" r="5.03533" stroke-width="0.5" stroke="black" fill="green"/>
   </g>
   <g id="cell117">
  <circle cx="505.557" cy="626.71" r="8.40237" stroke-width="0.5" stroke="black" fill="green"/>
  <circle cx="505.557" cy="626.71" r="5.04854" stroke-width="0.5" stroke="black" fill="green"/>
   </g>
   <g id="cell118">
  <circle cx="502.266" cy="418.995" r="7.88852" stroke-width="0.5" stroke="black" fill="magenta"/>
  <circle cx="502.266" cy="418.995" r="4.78787" stroke-width="0.5" stroke="black" fill="magenta"/>
   </g>
   <g id="cell119">
  <circle cx="582.621" cy="514.661" r="7.78052" stroke-width="0.5" stroke="black" fill="cyan"/>
  <circle cx="582.621" cy="514.661" r="4.73113" stroke-width="0.5" stroke="black" fill="cyan"/>
   </g>
   <g id="cell120">
  <circle cx="486.639" cy="547.866" r="8.40215" stroke-width="0.5" stroke="black" fill="magenta"/>
  <circle cx="486.639" cy="547.866" r="5.04833" stroke-width="0.5" stroke="black" fill="magenta"/>
   </g>
   <g id="cell121">
  <circle cx="525.046" cy="534.366" r="8.28706" stroke-width="0.5" stroke="black" fill="green"/>
  <circle cx="525.046" cy="534.366" r="4.99918" stroke-width="0.5" stroke="black" fill="green"/>
   </g>
   <g id="cell122">
  <circle cx="557.707" cy="403.003" r="8.16582" stroke-width="0.5" stroke="black" fill="green"/>
  <circle cx="557.707" cy="403.003" r="4.93934" stroke-width="0.5" stroke="black" fill="green"/>
   </g>
   <g id="cell123">
  <circle cx="554.596" cy="608.273" r="8.26932" stroke-width="0.5" stroke="black" fill="cyan"/>
  <circle cx="554.596" cy="608.273" r="4.99105" stroke-width="0.5" stroke="black" fill="cyan"/>
   </g>
   <g id="cell124">
  <circle cx="404.327" cy="457.211" r="6.93413" stroke-width="0.5" stroke="black" fill="cyan"/>
  <circle cx="404.327" cy="457.211" r="4.20445" stroke-width="0.5" stroke="black" fill="cyan"/>
   </g>
   <g id="cell125">
  <circle cx="610.789" cy="613.441" r="8.39008" stroke-width="0.5" stroke="black" fill="green"/>
  <circle cx="610.789" cy="613.441" r="5.04416" stroke-width="0.5" stroke="black" fill="green"/>
   </g>
   <g id="cell126">
  <circle cx="559.386" cy="453.989" r="8.3905" stroke-width="0.5" stroke="black" fill="magenta"/>
  <circle cx="559.386" cy="453.989" r="5.04406" stroke-width="0.5" stroke="black" fill="magenta"/>
   </g>
   <g id="cell127">
  <circle cx="418.952" cy="467.667" r="8.36222" stroke-width="0.5" stroke="black" fill="cyan"/>
  <circle cx="418.952" cy="467.667" r="5.03367" stroke-width="0.5" stroke="black" fill="cyan"/>
   </g>
   <g id="cell128">
  <circle cx="513.138" cy="395.397" r="8.38532" stroke-width="0.5" stroke="black" fill="cyan"/>
  <circle cx="513.138" cy="395.397" r="5.04199" stroke-width="0.5" stroke="black" fill="cyan"/>
   </g>
   <g id="cell129">
  <circle cx="429.705" cy="516.673" r="8.27924" stroke-width="0.5" stroke="black" fill="green"/>
  <circle cx="429.705" cy="516.673" r="4.9962" stroke-width="0.5" stroke="black" fill="green"/>
   </g>
   <g id="cell196">
  <circle cx="520.91" cy="548.415" r="7.12668" stroke-width="0.5" stroke="black" fill="green"/>
  <circle cx="520.91" cy="548.415" r="4.3433" stroke-width="0.5" stroke="black" fill="green"/>
   </g>
   <g id="cell131">
  <circle cx="621.937" cy="518.182" r="8.38198" stroke-width="0.5" stroke="black" fill="magenta"/>
  <circle cx="621.937" cy="518.182" r="5.04067" stroke-width="0.5" stroke="black" fill="magenta"/>
   </g>
   <g id="cell132">
  <circle cx="593.748" cy="447.572" r="8.31762" stroke-width="0.5" stroke="black" fill="green"/>
  <circle cx="593.748" cy="447.572" r="5.01435" stroke-width="0.5" stroke="black" fill="green"/>
   </g>
   <g id="cell133">
  <circle cx="426.93" cy="557.711" r="8.37853" stroke-width="0.5" stroke="black" fill="magenta"/>
  <circle cx="426.93" cy="557.711" r="5.03938" stroke-width="0.5" stroke="black" fill="magenta"/>
   </g>
   <g id="cell134">
  <circle cx="430.002" cy="479.075" r="8.36222" stroke-width="0.5" stroke="black" fill="cyan"/>
  <circle cx="430.002" cy="479.075" r="5.03367" stroke-width="0.5" stroke="black" fill="cyan"/>
   </g>
   <g id="cell135">
  <circle cx="433.057" cy="494.49" r="8.36191" stroke-width="0.5" stroke="black" fill="cyan"/>
  <circle cx="433.057" cy="494.49" r="5.0334" stroke-width="0.5" stroke="black" fill="cyan"/>
   </g>
   <g id="cell186">
  <circle cx="568.575" cy="518.619" r="7.78052" stroke-width="0.5" stroke="black" fill="cyan"/>
  <circle cx="568.575" cy="518.619" r="4.73113" stroke-width="0.5" stroke="black" fill="cyan"/>
   </g>
   <g id="cell137">
  <circle cx="464.79" cy="621.923" r="8.37321" stroke-width="0.5" stroke="black" fill="green"/>
  <circle cx="464.79" cy="621.923" r="5.03708" stroke-width="0.5" stroke="black" fill="green"/>
   </g>
   <g id="cell138">
  <circle cx="464.294" cy="583.785" r="8.30692" stroke-width="0.5" stroke="black" fill="green"/>
  <circle cx="464.294" cy="583.785" r="5.00961" stroke-width="0.5" stroke="black" fill="green"/>
   </g>
   <g id="cell139">
  <circle cx="438.381" cy="592.783" r="8.36785" stroke-width="0.5" stroke="black" fill="green"/>
  <circle cx="438.381" cy="592.783" r="5.03533" stroke-width="0.5" stroke="black" fill="green"/>
   </g>
   <g id="cell140">
  <circle cx="378.427" cy="426.43" r="8.37092" stroke-width="0.5" stroke="black" fill="cyan"/>
  <circle cx="378.427" cy="426.43" r="5.03613" stroke-width="0.5" stroke="black" fill="cyan"/>
   </g>
   <g id="cell141">
  <circle cx="361.495" cy="450.658" r="8.36849" stroke-width="0.5" stroke="black" fill="green"/>
  <circle cx="361.495" cy="450.658" r="5.03512" stroke-width="0.5" stroke="black" fill="green"/>
   </g>
   <g id="cell142">
  <circle cx="573.303" cy="570.765" r="8.36849" stroke-width="0.5" stroke="black" fill="green"/>
  <circle cx="573.303" cy="570.765" r="5.03512" stroke-width="0.5" stroke="black" fill="green"/>
   </g>
   <g id="cell143">
  <circle cx="557.774" cy="508.437" r="7.78052" stroke-width="0.5" stroke="black" fill="cyan"/>
  <circle cx="557.774" cy="508.437" r="4.73113" stroke-width="0.5" stroke="black" fill="cyan"/>
   </g>
   <g id="cell144">
  <circle cx="604.345" cy="380.551" r="7.0816" stroke-width="0.5" stroke="black" fill="cyan"/>
  <circle cx="604.345" cy="380.551" r="4.30503" stroke-width="0.5" stroke="black" fill="cyan"/>
   </g>
   <g id="cell145">
  <circle cx="604.378" cy="579.509" r="8.17808" stroke-width="0.5" stroke="black" fill="green"/>
  <circle cx="604.378" cy="579.509" r="4.95074" stroke-width="0.5" stroke="black" fill="green"/>
   </g>
   <g id="cell146">
  <circle cx="579.853" cy="455.24" r="8.31762" stroke-width="0.5" stroke="black" fill="green"/>
  <circle cx="579.853" cy="455.24" r="5.01435" stroke-width="0.5" stroke="black" fill="green"/>
   </g>
   <g id="cell147">
  <circle cx="411.66" cy="581.75" r="7.84919" stroke-width="0.5" stroke="black" fill="magenta"/>
  <circle cx="411.66" cy="581.75" r="4.77145" stroke-width="0.5" stroke="black" fill="magenta"/>
   </g>
   <g id="cell148">
  <circle cx="390.544" cy="571.596" r="8.32962" stroke-width="0.5" stroke="black" fill="magenta"/>
  <circle cx="390.544" cy="571.596" r="5.01821" stroke-width="0.5" stroke="black" fill="magenta"/>
   </g>
   <g id="cell149">
  <circle cx="453.786" cy="595.726" r="8.30692" stroke-width="0.5" stroke="black" fill="green"/>
  <circle cx="453.786" cy="595.726" r="5.00961" stroke-width="0.5" stroke="black" fill="green"/>
   </g>
   <g id="cell150">
  <circle cx="493.238" cy="589.586" r="8.26267" stroke-width="0.5" stroke="black" fill="magenta"/>
  <circle cx="493.238" cy="589.586" r="4.98976" stroke-width="0.5" stroke="black" fill="magenta"/>
   </g>
   <g id="cell151">
  <circle cx="565.922" cy="597.695" r="8.32032" stroke-width="0.5" stroke="black" fill="magenta"/>
  <circle cx="565.922" cy="597.695" r="5.01383" stroke-width="0.5" stroke="black" fill="magenta"/>
   </g>
   <g id="cell152">
  <circle cx="458.722" cy="552.908" r="8.31699" stroke-width="0.5" stroke="black" fill="green"/>
  <circle cx="458.722" cy="552.908" r="5.01243" stroke-width="0.5" stroke="black" fill="green"/>
   </g>
   <g id="cell153">
  <circle cx="620.813" cy="400.908" r="8.31209" stroke-width="0.5" stroke="black" fill="magenta"/>
  <circle cx="620.813" cy="400.908" r="5.01002" stroke-width="0.5" stroke="black" fill="magenta"/>
   </g>
   <g id="cell154">
  <circle cx="504.256" cy="580.589" r="7.79358" stroke-width="0.5" stroke="black" fill="magenta"/>
  <circle cx="504.256" cy="580.589" r="4.74535" stroke-width="0.5" stroke="black" fill="magenta"/>
   </g>
   <g id="cell155">
  <circle cx="488.821" cy="397.315" r="8.3031" stroke-width="0.5" stroke="black" fill="magenta"/>
  <circle cx="488.821" cy="397.315" r="5.00583" stroke-width="0.5" stroke="black" fill="magenta"/>
   </g>
   <g id="cell156">
  <circle cx="533.987" cy="551.153" r="7.12668" stroke-width="0.5" stroke="black" fill="green"/>
  <circle cx="533.987" cy="551.153" r="4.3433" stroke-width="0.5" stroke="black" fill="green"/>
   </g>
   <g id="cell157">
  <circle cx="441.824" cy="506.856" r="8.27924" stroke-width="0.5" stroke="black" fill="green"/>
  <circle cx="441.824" cy="506.856" r="4.9962" stroke-width="0.5" stroke="black" fill="green"/>
   </g>
   <g id="cell158">
  <circle cx="620.017" cy="591.715" r="8.25681" stroke-width="0.5" stroke="black" fill="green"/>
  <circle cx="620.017" cy="591.715" r="4.98658" stroke-width="0.5" stroke="black" fill="green"/>
   </g>
   <g id="cell159">
  <circle cx="540.086" cy="440.394" r="7.85203" stroke-width="0.5" stroke="black" fill="green"/>
  <circle cx="540.086" cy="440.394" r="4.77548" stroke-width="0.5" stroke="black" fill="green"/>
   </g>
   <g id="cell160">
  <circle cx="589.968" cy="541.268" r="8.28204" stroke-width="0.5" stroke="black" fill="green"/>
  <circle cx="589.968" cy="541.268" r="4.99595" stroke-width="0.5" stroke="black" fill="green"/>
   </g>
   <g id="cell161">
  <circle cx="465.283" cy="497.041" r="8.28262" stroke-width="0.5" stroke="black" fill="green"/>
  <circle cx="465.283" cy="497.041" r="4.9961" stroke-width="0.5" stroke="black" fill="green"/>
   </g>
   <g id="cell162">
  <circle cx="474.938" cy="572.348" r="8.27869" stroke-width="0.5" stroke="black" fill="magenta"/>
  <circle cx="474.938" cy="572.348" r="4.99425" stroke-width="0.5" stroke="black" fill="magenta"/>
   </g>
   <g id="cell163">
  <circle cx="539.235" cy="627.332" r="7.50427" stroke-width="0.5" stroke="black" fill="cyan"/>
  <circle cx="539.235" cy="627.332" r="4.57614" stroke-width="0.5" stroke="black" fill="cyan"/>
   </g>
   <g id="cell164">
  <circle cx="619.614" cy="576.088" r="8.17808" stroke-width="0.5" stroke="black" fill="green"/>
  <circle cx="619.614" cy="576.088" r="4.95074" stroke-width="0.5" stroke="black" fill="green"/>
   </g>
   <g id="cell165">
  <circle cx="455.373" cy="638.694" r="7.89897" stroke-width="0.5" stroke="black" fill="green"/>
  <circle cx="455.373" cy="638.694" r="4.80291" stroke-width="0.5" stroke="black" fill="green"/>
   </g>
   <g id="cell166">
  <circle cx="432.818" cy="415.559" r="8.20088" stroke-width="0.5" stroke="black" fill="cyan"/>
  <circle cx="432.818" cy="415.559" r="4.95562" stroke-width="0.5" stroke="black" fill="cyan"/>
   </g>
   <g id="cell167">
  <circle cx="607.676" cy="394.131" r="8.13551" stroke-width="0.5" stroke="black" fill="magenta"/>
  <circle cx="607.676" cy="394.131" r="4.92725" stroke-width="0.5" stroke="black" fill="magenta"/>
   </g>
   <g id="cell168">
  <circle cx="544.076" cy="411.013" r="8.16582" stroke-width="0.5" stroke="black" fill="green"/>
  <circle cx="544.076" cy="411.013" r="4.93934" stroke-width="0.5" stroke="black" fill="green"/>
   </g>
   <g id="cell169">
  <circle cx="411.795" cy="556.279" r="8.13537" stroke-width="0.5" stroke="black" fill="magenta"/>
  <circle cx="411.795" cy="556.279" r="4.92461" stroke-width="0.5" stroke="black" fill="magenta"/>
   </g>
   <g id="cell170">
  <circle cx="602.503" cy="471.41" r="7.96678" stroke-width="0.5" stroke="black" fill="cyan"/>
  <circle cx="602.503" cy="471.41" r="4.84129" stroke-width="0.5" stroke="black" fill="cyan"/>
   </g>
   <g id="cell171">
  <circle cx="443.555" cy="447.962" r="8.14581" stroke-width="0.5" stroke="black" fill="magenta"/>
  <circle cx="443.555" cy="447.962" r="4.92723" stroke-width="0.5" stroke="black" fill="magenta"/>
   </g>
   <g id="cell172">
  <circle cx="502.906" cy="496.628" r="8.11327" stroke-width="0.5" stroke="black" fill="magenta"/>
  <circle cx="502.906" cy="496.628" r="4.91006" stroke-width="0.5" stroke="black" fill="magenta"/>
   </g>
   <g id="cell173">
  <circle cx="608.045" cy="409.075" r="8.11327" stroke-width="0.5" stroke="black" fill="green"/>
  <circle cx="608.045" cy="409.075" r="4.91006" stroke-width="0.5" stroke="black" fill="green"/>
   </g>
   <g id="cell174">
  <circle cx="620.22" cy="463.685" r="7.96678" stroke-width="0.5" stroke="black" fill="cyan"/>
  <circle cx="620.22" cy="463.685" r="4.84129" stroke-width="0.5" stroke="black" fill="cyan"/>
   </g>
   <g id="cell175">
  <circle cx="424.174" cy="428.287" r="7.98234" stroke-width="0.5" stroke="black" fill="cyan"/>
  <circle cx="424.174" cy="428.287" r="4.84914" stroke-width="0.5" stroke="black" fill="cyan"/>
   </g>
   <g id="cell176">
  <circle cx="545.551" cy="459.064" r="8.0124" stroke-width="0.5" stroke="black" fill="magenta"/>
  <circle cx="545.551" cy="459.064" r="4.85575" stroke-width="0.5" stroke="black" fill="magenta"/>
   </g>
   <g id="cell177">
  <circle cx="450.993" cy="653.065" r="7.89897" stroke-width="0.5" stroke="black" fill="green"/>
  <circle cx="450.993" cy="653.065" r="4.80291" stroke-width="0.5" stroke="black" fill="green"/>
   </g>
   <g id="cell178">
  <circle cx="540.008" cy="357.435" r="7.96365" stroke-width="0.5" stroke="black" fill="cyan"/>
  <circle cx="540.008" cy="357.435" r="4.82873" stroke-width="0.5" stroke="black" fill="cyan"/>
   </g>
   <g id="cell179">
  <circle cx="604.681" cy="485.843" r="6.88939" stroke-width="0.5" stroke="black" fill="cyan"/>
  <circle cx="604.681" cy="485.843" r="4.23119" stroke-width="0.5" stroke="black" fill="cyan"/>
   </g>
   <g id="cell180">
  <circle cx="539.841" cy="425.702" r="7.85203" stroke-width="0.5" stroke="black" fill="green"/>
  <circle cx="539.841" cy="425.702" r="4.77548" stroke-width="0.5" stroke="black" fill="green"/>
   </g>
   <g id="cell181">
  <circle cx="404.735" cy="569.239" r="7.84919" stroke-width="0.5" stroke="black" fill="magenta"/>
  <circle cx="404.735" cy="569.239" r="4.77145" stroke-width="0.5" stroke="black" fill="magenta"/>
   </g>
   <g id="cell182">
  <circle cx="501.227" cy="404.838" r="7.88852" stroke-width="0.5" stroke="black" fill="magenta"/>
  <circle cx="501.227" cy="404.838" r="4.78787" stroke-width="0.5" stroke="black" fill="magenta"/>
   </g>
   <g id="cell183">
  <circle cx="515.684" cy="572.394" r="7.79358" stroke-width="0.5" stroke="black" fill="magenta"/>
  <circle cx="515.684" cy="572.394" r="4.74535" stroke-width="0.5" stroke="black" fill="magenta"/>
   </g>
   <g id="cell184">
  <circle cx="388.401" cy="437.68" r="7.84675" stroke-width="0.5" stroke="black" fill="magenta"/>
  <circle cx="388.401" cy="437.68" r="4.7629" stroke-width="0.5" stroke="black" fill="magenta"/>
   </g>
   <g id="cell185">
  <circle cx="571.977" cy="504.276" r="7.78052" stroke-width="0.5" stroke="black" fill="cyan"/>
  <circle cx="571.977" cy="504.276" r="4.73113" stroke-width="0.5" stroke="black" fill="cyan"/>
   </g>
   <g id="cell187">
  <circle cx="551.937" cy="631.497" r="6.64551" stroke-width="0.5" stroke="black" fill="cyan"/>
  <circle cx="551.937" cy="631.497" r="4.08607" stroke-width="0.5" stroke="black" fill="cyan"/>
   </g>
   <g id="cell188">
  <circle cx="400.161" cy="594.718" r="7.51976" stroke-width="0.5" stroke="black" fill="cyan"/>
  <circle cx="400.161" cy="594.718" r="4.57072" stroke-width="0.5" stroke="black" fill="cyan"/>
   </g>
   <g id="cell189">
  <circle cx="510.175" cy="442.009" r="6.71123" stroke-width="0.5" stroke="black" fill="cyan"/>
  <circle cx="510.175" cy="442.009" r="4.11965" stroke-width="0.5" stroke="black" fill="cyan"/>
   </g>
   <g id="cell190">
  <circle cx="504.881" cy="453.51" r="6.71123" stroke-width="0.5" stroke="black" fill="cyan"/>
  <circle cx="504.881" cy="453.51" r="4.11965" stroke-width="0.5" stroke="black" fill="cyan"/>
   </g>
   <g id="cell191">
  <circle cx="409.174" cy="516.607" r="7.32784" stroke-width="0.5" stroke="black" fill="cyan"/>
  <circle cx="409.174" cy="516.607" r="4.45408" stroke-width="0.5" stroke="black" fill="cyan"/>
   </g>
   <g id="cell192">
  <circle cx="493.946" cy="603.563" r="7.33129" stroke-width="0.5" stroke="black" fill="green"/>
  <circle cx="493.946" cy="603.563" r="4.45516" stroke-width="0.5" stroke="black" fill="green"/>
   </g>
   <g id="cell193">
  <circle cx="450.394" cy="435.74" r="7.02016" stroke-width="0.5" stroke="black" fill="cyan"/>
  <circle cx="450.394" cy="435.74" r="4.30226" stroke-width="0.5" stroke="black" fill="cyan"/>
   </g>
   <g id="cell194">
  <circle cx="616.934" cy="490.377" r="6.88939" stroke-width="0.5" stroke="black" fill="cyan"/>
  <circle cx="616.934" cy="490.377" r="4.23119" stroke-width="0.5" stroke="black" fill="cyan"/>
   </g>
   <g id="cell195">
  <circle cx="559.164" cy="621.347" r="6.64551" stroke-width="0.5" stroke="black" fill="cyan"/>
  <circle cx="559.164" cy="621.347" r="4.08607" stroke-width="0.5" stroke="black" fill="cyan"/>
   </g>
   <g id="cell197">
  <circle cx="590.992" cy="380.968" r="7.0816" stroke-width="0.5" stroke="black" fill="cyan"/>
  <circle cx="590.992" cy="380.968" r="4.30503" stroke-width="0.5" stroke="black" fill="cyan"/>
   </g>
   <g id="cell198">
  <circle cx="610.661" cy="510.759" r="6.95901" stroke-width="0.5" stroke="black" fill="magenta"/>
  <circle cx="610.661" cy="510.759" r="4.21341" stroke-width="0.5" stroke="black" fill="magenta"/>
   </g>
   <g id="cell199">
  <circle cx="397.503" cy="468.665" r="6.93413" stroke-width="0.5" stroke="black" fill="cyan"/>
  <circle cx="397.503" cy="468.665" r="4.20445" stroke-width="0.5" stroke="black" fill="cyan"/>
   </g>
   <g id="cell200">
  <circle cx="464.786" cy="511.255" r="6.92755" stroke-width="0.5" stroke="black" fill="green"/>
  <circle cx="464.786" cy="511.255" r="4.19178" stroke-width="0.5" stroke="black" fill="green"/>
   </g>
   <g id="cell201">
  <circle cx="429.332" cy="635.519" r="6.71348" stroke-width="0.5" stroke="black" fill="green"/>
  <circle cx="429.332" cy="635.519" r="4.07296" stroke-width="0.5" stroke="black" fill="green"/>
   </g>
   <g id="cell202">
  <circle cx="400.004" cy="438.349" r="5.19848" stroke-width="0.5" stroke="black" fill="magenta"/>
  <circle cx="400.004" cy="438.349" r="3.18094" stroke-width="0.5" stroke="black" fill="magenta"/>
   </g>
   <g id="cell203">
  <circle cx="406.184" cy="445.379" r="5.19848" stroke-width="0.5" stroke="black" fill="magenta"/>
  <circle cx="406.184" cy="445.379" r="3.18094" stroke-width="0.5" stroke="black" fill="magenta"/>
   </g>
  </g>
 </g>
  <rect x="775" y="1035" width="200" height="10" stroke-width="2" stroke="rgb(255,255,255)" fill="rgb(0,0,0)"/>
  <text x="781.25" y="1028.75"
   font-family="Arial" font-size="25" fill="black" >
   200 &#956;m
  </text>
  <text x="25" y="1045"
   font-family="Arial" font-size="18.75" fill="black" >
   0 days, 0 hours, 0 minutes, and 40.8064 seconds
  </text>
  <rect x="0" y="70" width="1000" height="1000" stroke-width="2" stroke="rgb(0,0,0)" fill="none"/>
</svg>
