<?xml version="1.0" encoding="UTF-8" standalone="no"?>
<!-- Created with PhysiCell (http://PhysiCell.MathCancer.org/) -->
<svg 
 xmlns:dc="http://purl.org/dc/elements/1.1/" 
 xmlns:cc="http://creativecommons.org/ns#" 
 xmlns:rdf="http://www.w3.org/1999/02/22-rdf-syntax-ns#" 
 xmlns:svg="http://www.w3.org/2000/svg" 
 xmlns="http://www.w3.org/2000/svg" 
 version="1.1" 
 width="1000" 
 height="1070" 
 id="svg2">
  <rect x="0" y="0" width="1000" height="1070" stroke-width="2" stroke="white" fill="white"/>
  <text x="12.5" y="30"
   font-family="Arial" font-size="25" fill="black" >
   Current time: 0 days, 3 hours, and 39.00 minutes, z = 0.00 &#956;m
  </text>
  <text x="12.5" y="57.5"
   font-family="Arial" font-size="23.75" fill="black" >
   84 agents
  </text>
 <g id="tissue" 
    transform="translate(0,1070) scale(1,-1)">
  <g id="ECM">
  </g>
  <g id="cells">
   <g id="cell0">
  <circle cx="514.423" cy="529.795" r="8.41271" stroke-width="0.5" stroke="black" fill="magenta"/>
  <circle cx="514.423" cy="529.795" r="5.05167" stroke-width="0.5" stroke="black" fill="magenta"/>
   </g>
   <g id="cell1">
  <circle cx="604.045" cy="529.678" r="8.41271" stroke-width="0.5" stroke="black" fill="magenta"/>
  <circle cx="604.045" cy="529.678" r="5.05167" stroke-width="0.5" stroke="black" fill="magenta"/>
   </g>
   <g id="cell2">
  <circle cx="510.92" cy="600.616" r="8.41271" stroke-width="0.5" stroke="black" fill="magenta"/>
  <circle cx="510.92" cy="600.616" r="5.05167" stroke-width="0.5" stroke="black" fill="magenta"/>
   </g>
   <g id="cell3">
  <circle cx="535.252" cy="542.084" r="6.83713" stroke-width="0.5" stroke="black" fill="magenta"/>
  <circle cx="535.252" cy="542.084" r="4.12773" stroke-width="0.5" stroke="black" fill="magenta"/>
   </g>
   <g id="cell4">
  <circle cx="486.517" cy="437.192" r="7.30216" stroke-width="0.5" stroke="black" fill="magenta"/>
  <circle cx="486.517" cy="437.192" r="4.43696" stroke-width="0.5" stroke="black" fill="magenta"/>
   </g>
   <g id="cell5">
  <circle cx="465.032" cy="493.3" r="8.41271" stroke-width="0.5" stroke="black" fill="magenta"/>
  <circle cx="465.032" cy="493.3" r="5.05167" stroke-width="0.5" stroke="black" fill="magenta"/>
   </g>
   <g id="cell6">
  <circle cx="593.919" cy="509.213" r="8.41271" stroke-width="0.5" stroke="black" fill="magenta"/>
  <circle cx="593.919" cy="509.213" r="5.05167" stroke-width="0.5" stroke="black" fill="magenta"/>
   </g>
   <g id="cell7">
  <circle cx="511.556" cy="461.335" r="8.41271" stroke-width="0.5" stroke="black" fill="magenta"/>
  <circle cx="511.556" cy="461.335" r="5.05167" stroke-width="0.5" stroke="black" fill="magenta"/>
   </g>
   <g id="cell8">
  <circle cx="375.891" cy="544.521" r="8.41271" stroke-width="0.5" stroke="black" fill="magenta"/>
  <circle cx="375.891" cy="544.521" r="5.05167" stroke-width="0.5" stroke="black" fill="magenta"/>
   </g>
   <g id="cell9">
  <circle cx="460.472" cy="599.786" r="8.41271" stroke-width="0.5" stroke="black" fill="magenta"/>
  <circle cx="460.472" cy="599.786" r="5.05167" stroke-width="0.5" stroke="black" fill="magenta"/>
   </g>
   <g id="cell10">
  <circle cx="583.447" cy="392.105" r="8.41271" stroke-width="0.5" stroke="black" fill="magenta"/>
  <circle cx="583.447" cy="392.105" r="5.05167" stroke-width="0.5" stroke="black" fill="magenta"/>
   </g>
   <g id="cell11">
  <circle cx="589.748" cy="590.273" r="8.41271" stroke-width="0.5" stroke="black" fill="magenta"/>
  <circle cx="589.748" cy="590.273" r="5.05167" stroke-width="0.5" stroke="black" fill="magenta"/>
   </g>
   <g id="cell12">
  <circle cx="506.669" cy="586.075" r="8.41271" stroke-width="0.5" stroke="black" fill="magenta"/>
  <circle cx="506.669" cy="586.075" r="5.05167" stroke-width="0.5" stroke="black" fill="magenta"/>
   </g>
   <g id="cell13">
  <circle cx="386.193" cy="568.227" r="8.41271" stroke-width="0.5" stroke="black" fill="magenta"/>
  <circle cx="386.193" cy="568.227" r="5.05167" stroke-width="0.5" stroke="black" fill="magenta"/>
   </g>
   <g id="cell14">
  <circle cx="528.517" cy="399.258" r="8.41271" stroke-width="0.5" stroke="black" fill="magenta"/>
  <circle cx="528.517" cy="399.258" r="5.05167" stroke-width="0.5" stroke="black" fill="magenta"/>
   </g>
   <g id="cell15">
  <circle cx="379.65" cy="475.1" r="8.41271" stroke-width="0.5" stroke="black" fill="magenta"/>
  <circle cx="379.65" cy="475.1" r="5.05167" stroke-width="0.5" stroke="black" fill="magenta"/>
   </g>
   <g id="cell16">
  <circle cx="428.96" cy="413.217" r="8.41271" stroke-width="0.5" stroke="black" fill="magenta"/>
  <circle cx="428.96" cy="413.217" r="5.05167" stroke-width="0.5" stroke="black" fill="magenta"/>
   </g>
   <g id="cell17">
  <circle cx="571.526" cy="489.754" r="8.41271" stroke-width="0.5" stroke="black" fill="magenta"/>
  <circle cx="571.526" cy="489.754" r="5.05167" stroke-width="0.5" stroke="black" fill="magenta"/>
   </g>
   <g id="cell18">
  <circle cx="517.429" cy="388.945" r="8.41271" stroke-width="0.5" stroke="black" fill="magenta"/>
  <circle cx="517.429" cy="388.945" r="5.05167" stroke-width="0.5" stroke="black" fill="magenta"/>
   </g>
   <g id="cell19">
  <circle cx="451.991" cy="536.588" r="8.41271" stroke-width="0.5" stroke="black" fill="magenta"/>
  <circle cx="451.991" cy="536.588" r="5.05167" stroke-width="0.5" stroke="black" fill="magenta"/>
   </g>
   <g id="cell20">
  <circle cx="530.926" cy="414.207" r="8.41271" stroke-width="0.5" stroke="black" fill="magenta"/>
  <circle cx="530.926" cy="414.207" r="5.05167" stroke-width="0.5" stroke="black" fill="magenta"/>
   </g>
   <g id="cell21">
  <circle cx="464.368" cy="634.574" r="8.41271" stroke-width="0.5" stroke="black" fill="magenta"/>
  <circle cx="464.368" cy="634.574" r="5.05167" stroke-width="0.5" stroke="black" fill="magenta"/>
   </g>
   <g id="cell22">
  <circle cx="557.222" cy="494.683" r="8.41271" stroke-width="0.5" stroke="black" fill="magenta"/>
  <circle cx="557.222" cy="494.683" r="5.05167" stroke-width="0.5" stroke="black" fill="magenta"/>
   </g>
   <g id="cell23">
  <circle cx="537.581" cy="480.155" r="8.41271" stroke-width="0.5" stroke="black" fill="magenta"/>
  <circle cx="537.581" cy="480.155" r="5.05167" stroke-width="0.5" stroke="black" fill="magenta"/>
   </g>
   <g id="cell24">
  <circle cx="559.287" cy="379.79" r="8.41271" stroke-width="0.5" stroke="black" fill="magenta"/>
  <circle cx="559.287" cy="379.79" r="5.05167" stroke-width="0.5" stroke="black" fill="magenta"/>
   </g>
   <g id="cell25">
  <circle cx="644.663" cy="546.272" r="6.83713" stroke-width="0.5" stroke="black" fill="green"/>
  <circle cx="644.663" cy="546.272" r="4.12773" stroke-width="0.5" stroke="black" fill="green"/>
   </g>
   <g id="cell26">
  <circle cx="551.156" cy="401.261" r="8.41271" stroke-width="0.5" stroke="black" fill="green"/>
  <circle cx="551.156" cy="401.261" r="5.05167" stroke-width="0.5" stroke="black" fill="green"/>
   </g>
   <g id="cell27">
  <circle cx="462.036" cy="390.412" r="7.3599" stroke-width="0.5" stroke="black" fill="green"/>
  <circle cx="462.036" cy="390.412" r="4.47294" stroke-width="0.5" stroke="black" fill="green"/>
   </g>
   <g id="cell28">
  <circle cx="437.42" cy="531.019" r="8.41271" stroke-width="0.5" stroke="black" fill="green"/>
  <circle cx="437.42" cy="531.019" r="5.05167" stroke-width="0.5" stroke="black" fill="green"/>
   </g>
   <g id="cell29">
  <circle cx="449.997" cy="521.108" r="8.41271" stroke-width="0.5" stroke="black" fill="green"/>
  <circle cx="449.997" cy="521.108" r="5.05167" stroke-width="0.5" stroke="black" fill="green"/>
   </g>
   <g id="cell30">
  <circle cx="481.58" cy="540.282" r="8.41271" stroke-width="0.5" stroke="black" fill="green"/>
  <circle cx="481.58" cy="540.282" r="5.05167" stroke-width="0.5" stroke="black" fill="green"/>
   </g>
   <g id="cell31">
  <circle cx="412.757" cy="541.193" r="8.41271" stroke-width="0.5" stroke="black" fill="green"/>
  <circle cx="412.757" cy="541.193" r="5.05167" stroke-width="0.5" stroke="black" fill="green"/>
   </g>
   <g id="cell32">
  <circle cx="425.371" cy="474.829" r="8.41271" stroke-width="0.5" stroke="black" fill="green"/>
  <circle cx="425.371" cy="474.829" r="5.05167" stroke-width="0.5" stroke="black" fill="green"/>
   </g>
   <g id="cell33">
  <circle cx="493.88" cy="424.662" r="8.41271" stroke-width="0.5" stroke="black" fill="green"/>
  <circle cx="493.88" cy="424.662" r="5.05167" stroke-width="0.5" stroke="black" fill="green"/>
   </g>
   <g id="cell34">
  <circle cx="397.088" cy="450.831" r="8.41271" stroke-width="0.5" stroke="black" fill="green"/>
  <circle cx="397.088" cy="450.831" r="5.05167" stroke-width="0.5" stroke="black" fill="green"/>
   </g>
   <g id="cell35">
  <circle cx="549.017" cy="544.728" r="8.41271" stroke-width="0.5" stroke="black" fill="green"/>
  <circle cx="549.017" cy="544.728" r="5.05167" stroke-width="0.5" stroke="black" fill="green"/>
   </g>
   <g id="cell36">
  <circle cx="391.486" cy="582.903" r="8.41271" stroke-width="0.5" stroke="black" fill="green"/>
  <circle cx="391.486" cy="582.903" r="5.05167" stroke-width="0.5" stroke="black" fill="green"/>
   </g>
   <g id="cell37">
  <circle cx="638.687" cy="457.736" r="7.21189" stroke-width="0.5" stroke="black" fill="green"/>
  <circle cx="638.687" cy="457.736" r="4.37993" stroke-width="0.5" stroke="black" fill="green"/>
   </g>
   <g id="cell38">
  <circle cx="532.756" cy="599.283" r="7.02257" stroke-width="0.5" stroke="black" fill="green"/>
  <circle cx="532.756" cy="599.283" r="4.25644" stroke-width="0.5" stroke="black" fill="green"/>
   </g>
   <g id="cell39">
  <circle cx="613.458" cy="490.595" r="8.41271" stroke-width="0.5" stroke="black" fill="green"/>
  <circle cx="613.458" cy="490.595" r="5.05167" stroke-width="0.5" stroke="black" fill="green"/>
   </g>
   <g id="cell40">
  <circle cx="485.348" cy="571.779" r="8.41271" stroke-width="0.5" stroke="black" fill="green"/>
  <circle cx="485.348" cy="571.779" r="5.05167" stroke-width="0.5" stroke="black" fill="green"/>
   </g>
   <g id="cell41">
  <circle cx="364.925" cy="480.252" r="8.41271" stroke-width="0.5" stroke="black" fill="green"/>
  <circle cx="364.925" cy="480.252" r="5.05167" stroke-width="0.5" stroke="black" fill="green"/>
   </g>
   <g id="cell42">
  <circle cx="438.842" cy="494.268" r="8.41271" stroke-width="0.5" stroke="black" fill="green"/>
  <circle cx="438.842" cy="494.268" r="5.05167" stroke-width="0.5" stroke="black" fill="green"/>
   </g>
   <g id="cell43">
  <circle cx="558.574" cy="445.726" r="8.41271" stroke-width="0.5" stroke="black" fill="green"/>
  <circle cx="558.574" cy="445.726" r="5.05167" stroke-width="0.5" stroke="black" fill="green"/>
   </g>
   <g id="cell44">
  <circle cx="475.857" cy="624.021" r="8.41271" stroke-width="0.5" stroke="black" fill="green"/>
  <circle cx="475.857" cy="624.021" r="5.05167" stroke-width="0.5" stroke="black" fill="green"/>
   </g>
   <g id="cell45">
  <circle cx="414.953" cy="557.066" r="8.41271" stroke-width="0.5" stroke="black" fill="green"/>
  <circle cx="414.953" cy="557.066" r="5.05167" stroke-width="0.5" stroke="black" fill="green"/>
   </g>
   <g id="cell46">
  <circle cx="523.185" cy="610.302" r="8.41271" stroke-width="0.5" stroke="black" fill="green"/>
  <circle cx="523.185" cy="610.302" r="5.05167" stroke-width="0.5" stroke="black" fill="green"/>
   </g>
   <g id="cell47">
  <circle cx="504.045" cy="507.654" r="8.41271" stroke-width="0.5" stroke="black" fill="green"/>
  <circle cx="504.045" cy="507.654" r="5.05167" stroke-width="0.5" stroke="black" fill="green"/>
   </g>
   <g id="cell48">
  <circle cx="564.523" cy="602.782" r="8.41271" stroke-width="0.5" stroke="black" fill="green"/>
  <circle cx="564.523" cy="602.782" r="5.05167" stroke-width="0.5" stroke="black" fill="green"/>
   </g>
   <g id="cell49">
  <circle cx="429.826" cy="397.641" r="8.41271" stroke-width="0.5" stroke="black" fill="green"/>
  <circle cx="429.826" cy="397.641" r="5.05167" stroke-width="0.5" stroke="black" fill="green"/>
   </g>
   <g id="cell50">
  <circle cx="518.432" cy="514.728" r="8.41271" stroke-width="0.5" stroke="black" fill="cyan"/>
  <circle cx="518.432" cy="514.728" r="5.05167" stroke-width="0.5" stroke="black" fill="cyan"/>
   </g>
   <g id="cell51">
  <circle cx="398.721" cy="597.201" r="8.41271" stroke-width="0.5" stroke="black" fill="cyan"/>
  <circle cx="398.721" cy="597.201" r="5.05167" stroke-width="0.5" stroke="black" fill="cyan"/>
   </g>
   <g id="cell52">
  <circle cx="521.433" cy="426.579" r="8.41271" stroke-width="0.5" stroke="black" fill="cyan"/>
  <circle cx="521.433" cy="426.579" r="5.05167" stroke-width="0.5" stroke="black" fill="cyan"/>
   </g>
   <g id="cell53">
  <circle cx="571.29" cy="436.002" r="8.41271" stroke-width="0.5" stroke="black" fill="cyan"/>
  <circle cx="571.29" cy="436.002" r="5.05167" stroke-width="0.5" stroke="black" fill="cyan"/>
   </g>
   <g id="cell54">
  <circle cx="477.852" cy="425.456" r="8.41271" stroke-width="0.5" stroke="black" fill="cyan"/>
  <circle cx="477.852" cy="425.456" r="5.05167" stroke-width="0.5" stroke="black" fill="cyan"/>
   </g>
   <g id="cell55">
  <circle cx="530.174" cy="467.887" r="7.08639" stroke-width="0.5" stroke="black" fill="cyan"/>
  <circle cx="530.174" cy="467.887" r="4.29876" stroke-width="0.5" stroke="black" fill="cyan"/>
   </g>
   <g id="cell56">
  <circle cx="617.779" cy="522.282" r="8.41271" stroke-width="0.5" stroke="black" fill="cyan"/>
  <circle cx="617.779" cy="522.282" r="5.05167" stroke-width="0.5" stroke="black" fill="cyan"/>
   </g>
   <g id="cell57">
  <circle cx="416.924" cy="617.466" r="2.47369" stroke-width="0.5" stroke="black" fill="cyan"/>
  <circle cx="416.924" cy="617.466" r="2.20257" stroke-width="0.5" stroke="black" fill="black"/>
   </g>
   <g id="cell58">
  <circle cx="553.187" cy="479.666" r="8.41271" stroke-width="0.5" stroke="black" fill="cyan"/>
  <circle cx="553.187" cy="479.666" r="5.05167" stroke-width="0.5" stroke="black" fill="cyan"/>
   </g>
   <g id="cell59">
  <circle cx="385.463" cy="439.803" r="8.41271" stroke-width="0.5" stroke="black" fill="cyan"/>
  <circle cx="385.463" cy="439.803" r="5.05167" stroke-width="0.5" stroke="black" fill="cyan"/>
   </g>
   <g id="cell60">
  <circle cx="593.097" cy="473.647" r="8.41271" stroke-width="0.5" stroke="black" fill="cyan"/>
  <circle cx="593.097" cy="473.647" r="5.05167" stroke-width="0.5" stroke="black" fill="cyan"/>
   </g>
   <g id="cell61">
  <circle cx="552.559" cy="613.374" r="8.41271" stroke-width="0.5" stroke="black" fill="cyan"/>
  <circle cx="552.559" cy="613.374" r="5.05167" stroke-width="0.5" stroke="black" fill="cyan"/>
   </g>
   <g id="cell62">
  <circle cx="521.525" cy="450.427" r="7.38797" stroke-width="0.5" stroke="black" fill="cyan"/>
  <circle cx="521.525" cy="450.427" r="4.49029" stroke-width="0.5" stroke="black" fill="cyan"/>
   </g>
   <g id="cell63">
  <circle cx="577.99" cy="546.374" r="8.41271" stroke-width="0.5" stroke="black" fill="cyan"/>
  <circle cx="577.99" cy="546.374" r="5.05167" stroke-width="0.5" stroke="black" fill="cyan"/>
   </g>
   <g id="cell64">
  <circle cx="509.962" cy="636.825" r="8.41271" stroke-width="0.5" stroke="black" fill="cyan"/>
  <circle cx="509.962" cy="636.825" r="5.05167" stroke-width="0.5" stroke="black" fill="cyan"/>
   </g>
   <g id="cell65">
  <circle cx="544.676" cy="466.17" r="8.41271" stroke-width="0.5" stroke="black" fill="cyan"/>
  <circle cx="544.676" cy="466.17" r="5.05167" stroke-width="0.5" stroke="black" fill="cyan"/>
   </g>
   <g id="cell66">
  <circle cx="535.086" cy="528.145" r="8.41271" stroke-width="0.5" stroke="black" fill="cyan"/>
  <circle cx="535.086" cy="528.145" r="5.05167" stroke-width="0.5" stroke="black" fill="cyan"/>
   </g>
   <g id="cell67">
  <circle cx="354.711" cy="492.599" r="8.41271" stroke-width="0.5" stroke="black" fill="cyan"/>
  <circle cx="354.711" cy="492.599" r="5.05167" stroke-width="0.5" stroke="black" fill="cyan"/>
   </g>
   <g id="cell68">
  <circle cx="563.082" cy="552.049" r="8.41271" stroke-width="0.5" stroke="black" fill="cyan"/>
  <circle cx="563.082" cy="552.049" r="5.05167" stroke-width="0.5" stroke="black" fill="cyan"/>
   </g>
   <g id="cell69">
  <circle cx="437.64" cy="464.521" r="8.41271" stroke-width="0.5" stroke="black" fill="cyan"/>
  <circle cx="437.64" cy="464.521" r="5.05167" stroke-width="0.5" stroke="black" fill="cyan"/>
   </g>
   <g id="cell70">
  <circle cx="577.153" cy="475.215" r="8.41271" stroke-width="0.5" stroke="black" fill="cyan"/>
  <circle cx="577.153" cy="475.215" r="5.05167" stroke-width="0.5" stroke="black" fill="cyan"/>
   </g>
   <g id="cell71">
  <circle cx="377.712" cy="520.989" r="8.41271" stroke-width="0.5" stroke="black" fill="cyan"/>
  <circle cx="377.712" cy="520.989" r="5.05167" stroke-width="0.5" stroke="black" fill="cyan"/>
   </g>
   <g id="cell72">
  <circle cx="534.303" cy="512.378" r="8.41271" stroke-width="0.5" stroke="black" fill="cyan"/>
  <circle cx="534.303" cy="512.378" r="5.05167" stroke-width="0.5" stroke="black" fill="cyan"/>
   </g>
   <g id="cell73">
  <circle cx="360.355" cy="545.935" r="8.41271" stroke-width="0.5" stroke="black" fill="cyan"/>
  <circle cx="360.355" cy="545.935" r="5.05167" stroke-width="0.5" stroke="black" fill="cyan"/>
   </g>
   <g id="cell74">
  <circle cx="542.629" cy="446.905" r="8.41271" stroke-width="0.5" stroke="black" fill="cyan"/>
  <circle cx="542.629" cy="446.905" r="5.05167" stroke-width="0.5" stroke="black" fill="cyan"/>
   </g>
   <g id="cell75">
  <circle cx="529.927" cy="438.947" r="7.38797" stroke-width="0.5" stroke="black" fill="cyan"/>
  <circle cx="529.927" cy="438.947" r="4.49029" stroke-width="0.5" stroke="black" fill="cyan"/>
   </g>
   <g id="cell76">
  <circle cx="448.994" cy="385.484" r="7.3599" stroke-width="0.5" stroke="black" fill="green"/>
  <circle cx="448.994" cy="385.484" r="4.47294" stroke-width="0.5" stroke="black" fill="green"/>
   </g>
   <g id="cell77">
  <circle cx="473.607" cy="439.406" r="7.30216" stroke-width="0.5" stroke="black" fill="magenta"/>
  <circle cx="473.607" cy="439.406" r="4.43696" stroke-width="0.5" stroke="black" fill="magenta"/>
   </g>
   <g id="cell78">
  <circle cx="627.789" cy="465.966" r="7.21189" stroke-width="0.5" stroke="black" fill="green"/>
  <circle cx="627.789" cy="465.966" r="4.37993" stroke-width="0.5" stroke="black" fill="green"/>
   </g>
   <g id="cell79">
  <circle cx="518.328" cy="473.987" r="7.08639" stroke-width="0.5" stroke="black" fill="cyan"/>
  <circle cx="518.328" cy="473.987" r="4.29876" stroke-width="0.5" stroke="black" fill="cyan"/>
   </g>
   <g id="cell80">
  <circle cx="539.021" cy="611.359" r="6.01015" stroke-width="0.5" stroke="black" fill="green"/>
  <circle cx="539.021" cy="611.359" r="3.67988" stroke-width="0.5" stroke="black" fill="green"/>
   </g>
   <g id="cell81">
  <circle cx="544.863" cy="601.703" r="6.01015" stroke-width="0.5" stroke="black" fill="green"/>
  <circle cx="544.863" cy="601.703" r="3.67988" stroke-width="0.5" stroke="black" fill="green"/>
   </g>
   <g id="cell82">
  <circle cx="529.097" cy="552.601" r="6.83713" stroke-width="0.5" stroke="black" fill="magenta"/>
  <circle cx="529.097" cy="552.601" r="4.12773" stroke-width="0.5" stroke="black" fill="magenta"/>
   </g>
   <g id="cell83">
  <circle cx="635.55" cy="555.478" r="6.83713" stroke-width="0.5" stroke="black" fill="green"/>
  <circle cx="635.55" cy="555.478" r="4.12773" stroke-width="0.5" stroke="black" fill="green"/>
   </g>
  </g>
 </g>
  <rect x="775" y="1035" width="200" height="10" stroke-width="2" stroke="rgb(255,255,255)" fill="rgb(0,0,0)"/>
  <text x="781.25" y="1028.75"
   font-family="Arial" font-size="25" fill="black" >
   200 &#956;m
  </text>
  <text x="25" y="1045"
   font-family="Arial" font-size="18.75" fill="black" >
   0 days, 0 hours, 0 minutes, and 4.0865 seconds
  </text>
  <rect x="0" y="70" width="1000" height="1000" stroke-width="2" stroke="rgb(0,0,0)" fill="none"/>
</svg>
