<?xml version="1.0" encoding="UTF-8" standalone="no"?>
<!-- Created with PhysiCell (http://PhysiCell.MathCancer.org/) -->
<svg 
 xmlns:dc="http://purl.org/dc/elements/1.1/" 
 xmlns:cc="http://creativecommons.org/ns#" 
 xmlns:rdf="http://www.w3.org/1999/02/22-rdf-syntax-ns#" 
 xmlns:svg="http://www.w3.org/2000/svg" 
 xmlns="http://www.w3.org/2000/svg" 
 version="1.1" 
 width="1000" 
 height="1070" 
 id="svg2">
  <rect x="0" y="0" width="1000" height="1070" stroke-width="2" stroke="white" fill="white"/>
  <text x="12.5" y="30"
   font-family="Arial" font-size="25" fill="black" >
   Current time: 1 days, 18 hours, and 15.00 minutes, z = 0.00 &#956;m
  </text>
  <text x="12.5" y="57.5"
   font-family="Arial" font-size="23.75" fill="black" >
   218 agents
  </text>
 <g id="tissue" 
    transform="translate(0,1070) scale(1,-1)">
  <g id="ECM">
  </g>
  <g id="cells">
   <g id="cell0">
  <circle cx="508.688" cy="542.701" r="8.41266" stroke-width="0.5" stroke="black" fill="magenta"/>
  <circle cx="508.688" cy="542.701" r="5.05166" stroke-width="0.5" stroke="black" fill="magenta"/>
   </g>
   <g id="cell1">
  <circle cx="590.455" cy="521.943" r="8.38291" stroke-width="0.5" stroke="black" fill="magenta"/>
  <circle cx="590.455" cy="521.943" r="5.04103" stroke-width="0.5" stroke="black" fill="magenta"/>
   </g>
   <g id="cell2">
  <circle cx="512.384" cy="598.281" r="8.41271" stroke-width="0.5" stroke="black" fill="magenta"/>
  <circle cx="512.384" cy="598.281" r="5.05167" stroke-width="0.5" stroke="black" fill="magenta"/>
   </g>
   <g id="cell3">
  <circle cx="523.844" cy="546.928" r="8.41262" stroke-width="0.5" stroke="black" fill="magenta"/>
  <circle cx="523.844" cy="546.928" r="5.05165" stroke-width="0.5" stroke="black" fill="magenta"/>
   </g>
   <g id="cell4">
  <circle cx="482.859" cy="445.014" r="8.41153" stroke-width="0.5" stroke="black" fill="magenta"/>
  <circle cx="482.859" cy="445.014" r="5.05137" stroke-width="0.5" stroke="black" fill="magenta"/>
   </g>
   <g id="cell5">
  <circle cx="468.618" cy="490.366" r="8.41271" stroke-width="0.5" stroke="black" fill="magenta"/>
  <circle cx="468.618" cy="490.366" r="5.05167" stroke-width="0.5" stroke="black" fill="magenta"/>
   </g>
   <g id="cell163">
  <circle cx="535.887" cy="573.595" r="6.027" stroke-width="0.5" stroke="black" fill="green"/>
  <circle cx="535.887" cy="573.595" r="3.67288" stroke-width="0.5" stroke="black" fill="green"/>
   </g>
   <g id="cell7">
  <circle cx="499.454" cy="454.576" r="6.65053" stroke-width="0.5" stroke="black" fill="magenta"/>
  <circle cx="499.454" cy="454.576" r="3.99989" stroke-width="0.5" stroke="black" fill="magenta"/>
   </g>
   <g id="cell8">
  <circle cx="378.85" cy="553.077" r="8.39021" stroke-width="0.5" stroke="black" fill="magenta"/>
  <circle cx="378.85" cy="553.077" r="5.0439" stroke-width="0.5" stroke="black" fill="magenta"/>
   </g>
   <g id="cell161">
  <circle cx="452.553" cy="386.626" r="8.38238" stroke-width="0.5" stroke="black" fill="green"/>
  <circle cx="452.553" cy="386.626" r="5.04136" stroke-width="0.5" stroke="black" fill="green"/>
   </g>
   <g id="cell10">
  <circle cx="583.262" cy="389.211" r="6.19777" stroke-width="0.5" stroke="black" fill="magenta"/>
  <circle cx="583.262" cy="389.211" r="3.80042" stroke-width="0.5" stroke="black" fill="magenta"/>
   </g>
   <g id="cell11">
  <circle cx="590.202" cy="593.074" r="8.41271" stroke-width="0.5" stroke="black" fill="magenta"/>
  <circle cx="590.202" cy="593.074" r="5.05167" stroke-width="0.5" stroke="black" fill="magenta"/>
   </g>
   <g id="cell12">
  <circle cx="497.722" cy="595.111" r="8.40944" stroke-width="0.5" stroke="black" fill="magenta"/>
  <circle cx="497.722" cy="595.111" r="5.05076" stroke-width="0.5" stroke="black" fill="magenta"/>
   </g>
   <g id="cell13">
  <circle cx="383.688" cy="567.596" r="8.41271" stroke-width="0.5" stroke="black" fill="magenta"/>
  <circle cx="383.688" cy="567.596" r="5.05167" stroke-width="0.5" stroke="black" fill="magenta"/>
   </g>
   <g id="cell14">
  <circle cx="516.718" cy="404.515" r="8.41271" stroke-width="0.5" stroke="black" fill="magenta"/>
  <circle cx="516.718" cy="404.515" r="5.05167" stroke-width="0.5" stroke="black" fill="magenta"/>
   </g>
   <g id="cell15">
  <circle cx="382.194" cy="478.657" r="8.41088" stroke-width="0.5" stroke="black" fill="magenta"/>
  <circle cx="382.194" cy="478.657" r="5.05119" stroke-width="0.5" stroke="black" fill="magenta"/>
   </g>
   <g id="cell16">
  <circle cx="452.203" cy="418.094" r="8.15541" stroke-width="0.5" stroke="black" fill="magenta"/>
  <circle cx="452.203" cy="418.094" r="4.93339" stroke-width="0.5" stroke="black" fill="magenta"/>
   </g>
   <g id="cell17">
  <circle cx="582.809" cy="498.885" r="8.33257" stroke-width="0.5" stroke="black" fill="magenta"/>
  <circle cx="582.809" cy="498.885" r="5.01941" stroke-width="0.5" stroke="black" fill="magenta"/>
   </g>
   <g id="cell18">
  <circle cx="517.299" cy="389.296" r="8.41271" stroke-width="0.5" stroke="black" fill="magenta"/>
  <circle cx="517.299" cy="389.296" r="5.05167" stroke-width="0.5" stroke="black" fill="magenta"/>
   </g>
   <g id="cell19">
  <circle cx="457.22" cy="541.866" r="8.41229" stroke-width="0.5" stroke="black" fill="magenta"/>
  <circle cx="457.22" cy="541.866" r="5.05158" stroke-width="0.5" stroke="black" fill="magenta"/>
   </g>
   <g id="cell20">
  <circle cx="529.732" cy="411.917" r="8.41271" stroke-width="0.5" stroke="black" fill="magenta"/>
  <circle cx="529.732" cy="411.917" r="5.05167" stroke-width="0.5" stroke="black" fill="magenta"/>
   </g>
   <g id="cell21">
  <circle cx="467.736" cy="637.591" r="7.96365" stroke-width="0.5" stroke="black" fill="magenta"/>
  <circle cx="467.736" cy="637.591" r="4.82873" stroke-width="0.5" stroke="black" fill="magenta"/>
   </g>
   <g id="cell22">
  <circle cx="560.083" cy="488.162" r="8.07297" stroke-width="0.5" stroke="black" fill="magenta"/>
  <circle cx="560.083" cy="488.162" r="4.89305" stroke-width="0.5" stroke="black" fill="magenta"/>
   </g>
   <g id="cell23">
  <circle cx="554.625" cy="475.324" r="8.41271" stroke-width="0.5" stroke="black" fill="magenta"/>
  <circle cx="554.625" cy="475.324" r="5.05167" stroke-width="0.5" stroke="black" fill="magenta"/>
   </g>
   <g id="cell24">
  <circle cx="571.249" cy="384.802" r="8.41271" stroke-width="0.5" stroke="black" fill="magenta"/>
  <circle cx="571.249" cy="384.802" r="5.05167" stroke-width="0.5" stroke="black" fill="magenta"/>
   </g>
   <g id="cell25">
  <circle cx="643.293" cy="546.351" r="7.87849" stroke-width="0.5" stroke="black" fill="green"/>
  <circle cx="643.293" cy="546.351" r="4.78095" stroke-width="0.5" stroke="black" fill="green"/>
   </g>
   <g id="cell26">
  <circle cx="560.37" cy="396.057" r="8.41229" stroke-width="0.5" stroke="black" fill="green"/>
  <circle cx="560.37" cy="396.057" r="5.05157" stroke-width="0.5" stroke="black" fill="green"/>
   </g>
   <g id="cell27">
  <circle cx="461.628" cy="405.877" r="8.41269" stroke-width="0.5" stroke="black" fill="green"/>
  <circle cx="461.628" cy="405.877" r="5.05167" stroke-width="0.5" stroke="black" fill="green"/>
   </g>
   <g id="cell28">
  <circle cx="428.77" cy="542.682" r="8.4009" stroke-width="0.5" stroke="black" fill="green"/>
  <circle cx="428.77" cy="542.682" r="5.04788" stroke-width="0.5" stroke="black" fill="green"/>
   </g>
   <g id="cell220">
  <circle cx="588.605" cy="378.695" r="7.23606" stroke-width="0.5" stroke="black" fill="magenta"/>
  <circle cx="588.605" cy="378.695" r="4.3972" stroke-width="0.5" stroke="black" fill="magenta"/>
   </g>
   <g id="cell30">
  <circle cx="478.787" cy="536.866" r="8.40891" stroke-width="0.5" stroke="black" fill="green"/>
  <circle cx="478.787" cy="536.866" r="5.0506" stroke-width="0.5" stroke="black" fill="green"/>
   </g>
   <g id="cell31">
  <circle cx="412.695" cy="544.654" r="8.41271" stroke-width="0.5" stroke="black" fill="green"/>
  <circle cx="412.695" cy="544.654" r="5.05167" stroke-width="0.5" stroke="black" fill="green"/>
   </g>
   <g id="cell169">
  <circle cx="521.674" cy="502.961" r="8.37426" stroke-width="0.5" stroke="black" fill="cyan"/>
  <circle cx="521.674" cy="502.961" r="5.03753" stroke-width="0.5" stroke="black" fill="cyan"/>
   </g>
   <g id="cell33">
  <circle cx="495.828" cy="414.571" r="8.40826" stroke-width="0.5" stroke="black" fill="green"/>
  <circle cx="495.828" cy="414.571" r="5.05039" stroke-width="0.5" stroke="black" fill="green"/>
   </g>
   <g id="cell168">
  <circle cx="381.479" cy="517.957" r="2.41477" stroke-width="0.5" stroke="black" fill="cyan"/>
  <circle cx="381.479" cy="517.957" r="2.16706" stroke-width="0.5" stroke="black" fill="black"/>
   </g>
   <g id="cell35">
  <circle cx="557.114" cy="557.848" r="8.41271" stroke-width="0.5" stroke="black" fill="green"/>
  <circle cx="557.114" cy="557.848" r="5.05167" stroke-width="0.5" stroke="black" fill="green"/>
   </g>
   <g id="cell36">
  <circle cx="388.835" cy="582.401" r="8.39022" stroke-width="0.5" stroke="black" fill="green"/>
  <circle cx="388.835" cy="582.401" r="5.04438" stroke-width="0.5" stroke="black" fill="green"/>
   </g>
   <g id="cell37">
  <circle cx="642.403" cy="456.664" r="8.41269" stroke-width="0.5" stroke="black" fill="green"/>
  <circle cx="642.403" cy="456.664" r="5.05167" stroke-width="0.5" stroke="black" fill="green"/>
   </g>
   <g id="cell38">
  <circle cx="522.842" cy="587.87" r="8.39019" stroke-width="0.5" stroke="black" fill="green"/>
  <circle cx="522.842" cy="587.87" r="5.0439" stroke-width="0.5" stroke="black" fill="green"/>
   </g>
   <g id="cell39">
  <circle cx="613" cy="491.549" r="8.33699" stroke-width="0.5" stroke="black" fill="green"/>
  <circle cx="613" cy="491.549" r="5.02141" stroke-width="0.5" stroke="black" fill="green"/>
   </g>
   <g id="cell40">
  <circle cx="486.114" cy="566.915" r="8.39874" stroke-width="0.5" stroke="black" fill="green"/>
  <circle cx="486.114" cy="566.915" r="5.04711" stroke-width="0.5" stroke="black" fill="green"/>
   </g>
   <g id="cell41">
  <circle cx="366.784" cy="481.012" r="8.41271" stroke-width="0.5" stroke="black" fill="green"/>
  <circle cx="366.784" cy="481.012" r="5.05167" stroke-width="0.5" stroke="black" fill="green"/>
   </g>
   <g id="cell42">
  <circle cx="437.012" cy="490.558" r="8.41271" stroke-width="0.5" stroke="black" fill="green"/>
  <circle cx="437.012" cy="490.558" r="5.05167" stroke-width="0.5" stroke="black" fill="green"/>
   </g>
   <g id="cell43">
  <circle cx="565.954" cy="437.624" r="8.41271" stroke-width="0.5" stroke="black" fill="green"/>
  <circle cx="565.954" cy="437.624" r="5.05167" stroke-width="0.5" stroke="black" fill="green"/>
   </g>
   <g id="cell164">
  <circle cx="399.1" cy="570.309" r="8.38151" stroke-width="0.5" stroke="black" fill="green"/>
  <circle cx="399.1" cy="570.309" r="5.04089" stroke-width="0.5" stroke="black" fill="green"/>
   </g>
   <g id="cell145">
  <circle cx="408.909" cy="420.148" r="8.14869" stroke-width="0.5" stroke="black" fill="magenta"/>
  <circle cx="408.909" cy="420.148" r="4.93406" stroke-width="0.5" stroke="black" fill="magenta"/>
   </g>
   <g id="cell46">
  <circle cx="521.805" cy="620.277" r="6.95887" stroke-width="0.5" stroke="black" fill="green"/>
  <circle cx="521.805" cy="620.277" r="4.21338" stroke-width="0.5" stroke="black" fill="green"/>
   </g>
   <g id="cell47">
  <circle cx="484.289" cy="490.731" r="8.41259" stroke-width="0.5" stroke="black" fill="green"/>
  <circle cx="484.289" cy="490.731" r="5.05165" stroke-width="0.5" stroke="black" fill="green"/>
   </g>
   <g id="cell48">
  <circle cx="578.568" cy="603.578" r="8.41228" stroke-width="0.5" stroke="black" fill="green"/>
  <circle cx="578.568" cy="603.578" r="5.05158" stroke-width="0.5" stroke="black" fill="green"/>
   </g>
   <g id="cell49">
  <circle cx="437.107" cy="391.128" r="8.37537" stroke-width="0.5" stroke="black" fill="green"/>
  <circle cx="437.107" cy="391.128" r="5.03798" stroke-width="0.5" stroke="black" fill="green"/>
   </g>
   <g id="cell50">
  <circle cx="500.542" cy="512.983" r="8.41212" stroke-width="0.5" stroke="black" fill="cyan"/>
  <circle cx="500.542" cy="512.983" r="5.05153" stroke-width="0.5" stroke="black" fill="cyan"/>
   </g>
   <g id="cell51">
  <circle cx="406.582" cy="591.221" r="6.47648" stroke-width="0.5" stroke="black" fill="cyan"/>
  <circle cx="406.582" cy="591.221" r="3.92325" stroke-width="0.5" stroke="black" fill="cyan"/>
   </g>
   <g id="cell52">
  <circle cx="519.809" cy="414.193" r="2.47369" stroke-width="0.5" stroke="black" fill="cyan"/>
  <circle cx="519.809" cy="414.193" r="2.20257" stroke-width="0.5" stroke="black" fill="black"/>
   </g>
   <g id="cell53">
  <circle cx="573.786" cy="424.19" r="8.41255" stroke-width="0.5" stroke="black" fill="cyan"/>
  <circle cx="573.786" cy="424.19" r="5.05164" stroke-width="0.5" stroke="black" fill="cyan"/>
   </g>
   <g id="cell54">
  <circle cx="480.092" cy="413.523" r="8.41261" stroke-width="0.5" stroke="black" fill="cyan"/>
  <circle cx="480.092" cy="413.523" r="5.05165" stroke-width="0.5" stroke="black" fill="cyan"/>
   </g>
   <g id="cell55">
  <circle cx="525.241" cy="460.574" r="8.41256" stroke-width="0.5" stroke="black" fill="cyan"/>
  <circle cx="525.241" cy="460.574" r="5.05164" stroke-width="0.5" stroke="black" fill="cyan"/>
   </g>
   <g id="cell56">
  <circle cx="625.044" cy="520.468" r="8.41271" stroke-width="0.5" stroke="black" fill="cyan"/>
  <circle cx="625.044" cy="520.468" r="5.05167" stroke-width="0.5" stroke="black" fill="cyan"/>
   </g>
   <g id="cell105">
  <circle cx="502.779" cy="609.856" r="8.40787" stroke-width="0.5" stroke="black" fill="green"/>
  <circle cx="502.779" cy="609.856" r="5.0503" stroke-width="0.5" stroke="black" fill="green"/>
   </g>
   <g id="cell58">
  <circle cx="570.437" cy="473.228" r="8.3995" stroke-width="0.5" stroke="black" fill="cyan"/>
  <circle cx="570.437" cy="473.228" r="5.04738" stroke-width="0.5" stroke="black" fill="cyan"/>
   </g>
   <g id="cell59">
  <circle cx="385.732" cy="440.058" r="8.41271" stroke-width="0.5" stroke="black" fill="cyan"/>
  <circle cx="385.732" cy="440.058" r="5.05167" stroke-width="0.5" stroke="black" fill="cyan"/>
   </g>
   <g id="cell60">
  <circle cx="599.155" cy="464.498" r="8.35882" stroke-width="0.5" stroke="black" fill="cyan"/>
  <circle cx="599.155" cy="464.498" r="5.031" stroke-width="0.5" stroke="black" fill="cyan"/>
   </g>
   <g id="cell186">
  <circle cx="354.924" cy="562.196" r="1.81776" stroke-width="0.5" stroke="black" fill="cyan"/>
  <circle cx="354.924" cy="562.196" r="1.74952" stroke-width="0.5" stroke="black" fill="black"/>
   </g>
   <g id="cell62">
  <circle cx="514.561" cy="434.405" r="8.3519" stroke-width="0.5" stroke="black" fill="cyan"/>
  <circle cx="514.561" cy="434.405" r="5.02809" stroke-width="0.5" stroke="black" fill="cyan"/>
   </g>
   <g id="cell63">
  <circle cx="583.76" cy="536.173" r="8.4107" stroke-width="0.5" stroke="black" fill="cyan"/>
  <circle cx="583.76" cy="536.173" r="5.05114" stroke-width="0.5" stroke="black" fill="cyan"/>
   </g>
   <g id="cell64">
  <circle cx="508.945" cy="637.119" r="8.41271" stroke-width="0.5" stroke="black" fill="cyan"/>
  <circle cx="508.945" cy="637.119" r="5.05167" stroke-width="0.5" stroke="black" fill="cyan"/>
   </g>
   <g id="cell65">
  <circle cx="544.999" cy="464.065" r="8.41264" stroke-width="0.5" stroke="black" fill="cyan"/>
  <circle cx="544.999" cy="464.065" r="5.05166" stroke-width="0.5" stroke="black" fill="cyan"/>
   </g>
   <g id="cell66">
  <circle cx="534.294" cy="535.836" r="8.41261" stroke-width="0.5" stroke="black" fill="cyan"/>
  <circle cx="534.294" cy="535.836" r="5.05165" stroke-width="0.5" stroke="black" fill="cyan"/>
   </g>
   <g id="cell67">
  <circle cx="348.063" cy="493.774" r="6.92764" stroke-width="0.5" stroke="black" fill="cyan"/>
  <circle cx="348.063" cy="493.774" r="4.1918" stroke-width="0.5" stroke="black" fill="cyan"/>
   </g>
   <g id="cell212">
  <circle cx="567.924" cy="499.543" r="7.77315" stroke-width="0.5" stroke="black" fill="magenta"/>
  <circle cx="567.924" cy="499.543" r="4.7305" stroke-width="0.5" stroke="black" fill="magenta"/>
   </g>
   <g id="cell69">
  <circle cx="443.02" cy="460.432" r="8.41271" stroke-width="0.5" stroke="black" fill="cyan"/>
  <circle cx="443.02" cy="460.432" r="5.05167" stroke-width="0.5" stroke="black" fill="cyan"/>
   </g>
   <g id="cell70">
  <circle cx="586.861" cy="479.077" r="8.41271" stroke-width="0.5" stroke="black" fill="cyan"/>
  <circle cx="586.861" cy="479.077" r="5.05167" stroke-width="0.5" stroke="black" fill="cyan"/>
   </g>
   <g id="cell224">
  <circle cx="361.19" cy="494.448" r="6.92764" stroke-width="0.5" stroke="black" fill="cyan"/>
  <circle cx="361.19" cy="494.448" r="4.1918" stroke-width="0.5" stroke="black" fill="cyan"/>
   </g>
   <g id="cell72">
  <circle cx="537.31" cy="501.389" r="8.37426" stroke-width="0.5" stroke="black" fill="cyan"/>
  <circle cx="537.31" cy="501.389" r="5.03753" stroke-width="0.5" stroke="black" fill="cyan"/>
   </g>
   <g id="cell73">
  <circle cx="363.836" cy="549.78" r="8.07017" stroke-width="0.5" stroke="black" fill="cyan"/>
  <circle cx="363.836" cy="549.78" r="4.89183" stroke-width="0.5" stroke="black" fill="cyan"/>
   </g>
   <g id="cell162">
  <circle cx="374.015" cy="538.64" r="8.39021" stroke-width="0.5" stroke="black" fill="magenta"/>
  <circle cx="374.015" cy="538.64" r="5.0439" stroke-width="0.5" stroke="black" fill="magenta"/>
   </g>
   <g id="cell75">
  <circle cx="532" cy="431.242" r="6.8665" stroke-width="0.5" stroke="black" fill="cyan"/>
  <circle cx="532" cy="431.242" r="4.14883" stroke-width="0.5" stroke="black" fill="cyan"/>
   </g>
   <g id="cell76">
  <circle cx="434.806" cy="375.45" r="8.41241" stroke-width="0.5" stroke="black" fill="green"/>
  <circle cx="434.806" cy="375.45" r="5.05161" stroke-width="0.5" stroke="black" fill="green"/>
   </g>
   <g id="cell77">
  <circle cx="468.316" cy="447.79" r="8.41248" stroke-width="0.5" stroke="black" fill="magenta"/>
  <circle cx="468.316" cy="447.79" r="5.05162" stroke-width="0.5" stroke="black" fill="magenta"/>
   </g>
   <g id="cell78">
  <circle cx="626.518" cy="454.823" r="8.41263" stroke-width="0.5" stroke="black" fill="green"/>
  <circle cx="626.518" cy="454.823" r="5.05166" stroke-width="0.5" stroke="black" fill="green"/>
   </g>
   <g id="cell79">
  <circle cx="517.244" cy="475.605" r="8.41268" stroke-width="0.5" stroke="black" fill="cyan"/>
  <circle cx="517.244" cy="475.605" r="5.05167" stroke-width="0.5" stroke="black" fill="cyan"/>
   </g>
   <g id="cell80">
  <circle cx="542.103" cy="632.623" r="8.22342" stroke-width="0.5" stroke="black" fill="green"/>
  <circle cx="542.103" cy="632.623" r="4.96713" stroke-width="0.5" stroke="black" fill="green"/>
   </g>
   <g id="cell81">
  <circle cx="555.954" cy="590.522" r="8.41267" stroke-width="0.5" stroke="black" fill="green"/>
  <circle cx="555.954" cy="590.522" r="5.05166" stroke-width="0.5" stroke="black" fill="green"/>
   </g>
   <g id="cell82">
  <circle cx="527.975" cy="561.919" r="8.40744" stroke-width="0.5" stroke="black" fill="magenta"/>
  <circle cx="527.975" cy="561.919" r="5.05013" stroke-width="0.5" stroke="black" fill="magenta"/>
   </g>
   <g id="cell211">
  <circle cx="449.655" cy="371.495" r="7.84549" stroke-width="0.5" stroke="black" fill="green"/>
  <circle cx="449.655" cy="371.495" r="4.76255" stroke-width="0.5" stroke="black" fill="green"/>
   </g>
   <g id="cell84">
  <circle cx="512.424" cy="490.351" r="8.31763" stroke-width="0.5" stroke="black" fill="cyan"/>
  <circle cx="512.424" cy="490.351" r="5.0126" stroke-width="0.5" stroke="black" fill="cyan"/>
   </g>
   <g id="cell85">
  <circle cx="345.291" cy="541.884" r="8.41256" stroke-width="0.5" stroke="black" fill="cyan"/>
  <circle cx="345.291" cy="541.884" r="5.05164" stroke-width="0.5" stroke="black" fill="cyan"/>
   </g>
   <g id="cell86">
  <circle cx="494.016" cy="539.193" r="8.41169" stroke-width="0.5" stroke="black" fill="magenta"/>
  <circle cx="494.016" cy="539.193" r="5.05142" stroke-width="0.5" stroke="black" fill="magenta"/>
   </g>
   <g id="cell87">
  <circle cx="572.291" cy="560.453" r="8.4125" stroke-width="0.5" stroke="black" fill="cyan"/>
  <circle cx="572.291" cy="560.453" r="5.05163" stroke-width="0.5" stroke="black" fill="cyan"/>
   </g>
   <g id="cell88">
  <circle cx="445.31" cy="534.86" r="7.55467" stroke-width="0.5" stroke="black" fill="magenta"/>
  <circle cx="445.31" cy="534.86" r="4.5952" stroke-width="0.5" stroke="black" fill="magenta"/>
   </g>
   <g id="cell89">
  <circle cx="554.678" cy="447.974" r="8.40601" stroke-width="0.5" stroke="black" fill="cyan"/>
  <circle cx="554.678" cy="447.974" r="5.04973" stroke-width="0.5" stroke="black" fill="cyan"/>
   </g>
   <g id="cell90">
  <circle cx="636.717" cy="471.752" r="8.41125" stroke-width="0.5" stroke="black" fill="green"/>
  <circle cx="636.717" cy="471.752" r="5.0513" stroke-width="0.5" stroke="black" fill="green"/>
   </g>
   <g id="cell91">
  <circle cx="543.627" cy="564.128" r="8.41258" stroke-width="0.5" stroke="black" fill="magenta"/>
  <circle cx="543.627" cy="564.128" r="5.05164" stroke-width="0.5" stroke="black" fill="magenta"/>
   </g>
   <g id="cell92">
  <circle cx="483.862" cy="550.488" r="6.80875" stroke-width="0.5" stroke="black" fill="green"/>
  <circle cx="483.862" cy="550.488" r="4.10708" stroke-width="0.5" stroke="black" fill="green"/>
   </g>
   <g id="cell93">
  <circle cx="538.708" cy="550.349" r="8.41258" stroke-width="0.5" stroke="black" fill="magenta"/>
  <circle cx="538.708" cy="550.349" r="5.05164" stroke-width="0.5" stroke="black" fill="magenta"/>
   </g>
   <g id="cell94">
  <circle cx="544.422" cy="487.153" r="8.41262" stroke-width="0.5" stroke="black" fill="cyan"/>
  <circle cx="544.422" cy="487.153" r="5.05165" stroke-width="0.5" stroke="black" fill="cyan"/>
   </g>
   <g id="cell95">
  <circle cx="466.552" cy="420.884" r="8.2292" stroke-width="0.5" stroke="black" fill="cyan"/>
  <circle cx="466.552" cy="420.884" r="4.96992" stroke-width="0.5" stroke="black" fill="cyan"/>
   </g>
   <g id="cell96">
  <circle cx="553.114" cy="542.912" r="8.40996" stroke-width="0.5" stroke="black" fill="cyan"/>
  <circle cx="553.114" cy="542.912" r="5.05092" stroke-width="0.5" stroke="black" fill="cyan"/>
   </g>
   <g id="cell97">
  <circle cx="420.544" cy="464.146" r="8.41252" stroke-width="0.5" stroke="black" fill="green"/>
  <circle cx="420.544" cy="464.146" r="5.05163" stroke-width="0.5" stroke="black" fill="green"/>
   </g>
   <g id="cell98">
  <circle cx="489.281" cy="524.288" r="8.41148" stroke-width="0.5" stroke="black" fill="green"/>
  <circle cx="489.281" cy="524.288" r="5.05136" stroke-width="0.5" stroke="black" fill="green"/>
   </g>
   <g id="cell99">
  <circle cx="367.686" cy="524.374" r="8.41256" stroke-width="0.5" stroke="black" fill="cyan"/>
  <circle cx="367.686" cy="524.374" r="5.05164" stroke-width="0.5" stroke="black" fill="cyan"/>
   </g>
   <g id="cell100">
  <circle cx="445.617" cy="404.409" r="8.41256" stroke-width="0.5" stroke="black" fill="green"/>
  <circle cx="445.617" cy="404.409" r="5.05164" stroke-width="0.5" stroke="black" fill="green"/>
   </g>
   <g id="cell101">
  <circle cx="528.109" cy="488.701" r="8.29512" stroke-width="0.5" stroke="black" fill="cyan"/>
  <circle cx="528.109" cy="488.701" r="5.00236" stroke-width="0.5" stroke="black" fill="cyan"/>
   </g>
   <g id="cell102">
  <circle cx="442.432" cy="475.947" r="8.03516" stroke-width="0.5" stroke="black" fill="green"/>
  <circle cx="442.432" cy="475.947" r="4.86811" stroke-width="0.5" stroke="black" fill="green"/>
   </g>
   <g id="cell103">
  <circle cx="592.063" cy="450.29" r="8.41167" stroke-width="0.5" stroke="black" fill="cyan"/>
  <circle cx="592.063" cy="450.29" r="5.05141" stroke-width="0.5" stroke="black" fill="cyan"/>
   </g>
   <g id="cell104">
  <circle cx="609.113" cy="554.69" r="8.32418" stroke-width="0.5" stroke="black" fill="cyan"/>
  <circle cx="609.113" cy="554.69" r="5.01616" stroke-width="0.5" stroke="black" fill="cyan"/>
   </g>
   <g id="cell106">
  <circle cx="453.31" cy="448.888" r="8.41248" stroke-width="0.5" stroke="black" fill="magenta"/>
  <circle cx="453.31" cy="448.888" r="5.05162" stroke-width="0.5" stroke="black" fill="magenta"/>
   </g>
   <g id="cell107">
  <circle cx="467.878" cy="391.173" r="8.38238" stroke-width="0.5" stroke="black" fill="green"/>
  <circle cx="467.878" cy="391.173" r="5.04136" stroke-width="0.5" stroke="black" fill="green"/>
   </g>
   <g id="cell108">
  <circle cx="563.603" cy="609.818" r="8.41244" stroke-width="0.5" stroke="black" fill="green"/>
  <circle cx="563.603" cy="609.818" r="5.05161" stroke-width="0.5" stroke="black" fill="green"/>
   </g>
   <g id="cell109">
  <circle cx="575.513" cy="587.858" r="8.41228" stroke-width="0.5" stroke="black" fill="green"/>
  <circle cx="575.513" cy="587.858" r="5.05158" stroke-width="0.5" stroke="black" fill="green"/>
   </g>
   <g id="cell110">
  <circle cx="369.315" cy="508.346" r="8.41234" stroke-width="0.5" stroke="black" fill="cyan"/>
  <circle cx="369.315" cy="508.346" r="5.05159" stroke-width="0.5" stroke="black" fill="cyan"/>
   </g>
   <g id="cell111">
  <circle cx="455.722" cy="556.84" r="8.40965" stroke-width="0.5" stroke="black" fill="magenta"/>
  <circle cx="455.722" cy="556.84" r="5.05084" stroke-width="0.5" stroke="black" fill="magenta"/>
   </g>
   <g id="cell112">
  <circle cx="489.06" cy="470.063" r="8.40516" stroke-width="0.5" stroke="black" fill="magenta"/>
  <circle cx="489.06" cy="470.063" r="5.04939" stroke-width="0.5" stroke="black" fill="magenta"/>
   </g>
   <g id="cell113">
  <circle cx="547.047" cy="365.204" r="7.63339" stroke-width="0.5" stroke="black" fill="green"/>
  <circle cx="547.047" cy="365.204" r="4.63972" stroke-width="0.5" stroke="black" fill="green"/>
   </g>
   <g id="cell114">
  <circle cx="526.157" cy="444.093" r="8.412" stroke-width="0.5" stroke="black" fill="cyan"/>
  <circle cx="526.157" cy="444.093" r="5.05151" stroke-width="0.5" stroke="black" fill="cyan"/>
   </g>
   <g id="cell115">
  <circle cx="539.558" cy="450.119" r="8.4102" stroke-width="0.5" stroke="black" fill="cyan"/>
  <circle cx="539.558" cy="450.119" r="5.05101" stroke-width="0.5" stroke="black" fill="cyan"/>
   </g>
   <g id="cell116">
  <circle cx="519.488" cy="531.972" r="8.34087" stroke-width="0.5" stroke="black" fill="cyan"/>
  <circle cx="519.488" cy="531.972" r="5.0232" stroke-width="0.5" stroke="black" fill="cyan"/>
   </g>
   <g id="cell117">
  <circle cx="495.753" cy="627.672" r="8.41192" stroke-width="0.5" stroke="black" fill="green"/>
  <circle cx="495.753" cy="627.672" r="5.05148" stroke-width="0.5" stroke="black" fill="green"/>
   </g>
   <g id="cell118">
  <circle cx="512.659" cy="450.333" r="8.41181" stroke-width="0.5" stroke="black" fill="cyan"/>
  <circle cx="512.659" cy="450.333" r="5.05145" stroke-width="0.5" stroke="black" fill="cyan"/>
   </g>
   <g id="cell119">
  <circle cx="548.579" cy="604.52" r="8.35189" stroke-width="0.5" stroke="black" fill="green"/>
  <circle cx="548.579" cy="604.52" r="5.02809" stroke-width="0.5" stroke="black" fill="green"/>
   </g>
   <g id="cell120">
  <circle cx="581.717" cy="438.208" r="8.41167" stroke-width="0.5" stroke="black" fill="cyan"/>
  <circle cx="581.717" cy="438.208" r="5.05141" stroke-width="0.5" stroke="black" fill="cyan"/>
   </g>
   <g id="cell121">
  <circle cx="454.233" cy="357.383" r="7.84549" stroke-width="0.5" stroke="black" fill="green"/>
  <circle cx="454.233" cy="357.383" r="4.76255" stroke-width="0.5" stroke="black" fill="green"/>
   </g>
   <g id="cell122">
  <circle cx="504.474" cy="528.114" r="8.41169" stroke-width="0.5" stroke="black" fill="magenta"/>
  <circle cx="504.474" cy="528.114" r="5.05142" stroke-width="0.5" stroke="black" fill="magenta"/>
   </g>
   <g id="cell123">
  <circle cx="485.843" cy="506.965" r="8.41148" stroke-width="0.5" stroke="black" fill="green"/>
  <circle cx="485.843" cy="506.965" r="5.05136" stroke-width="0.5" stroke="black" fill="green"/>
   </g>
   <g id="cell124">
  <circle cx="486.714" cy="427.094" r="8.25764" stroke-width="0.5" stroke="black" fill="magenta"/>
  <circle cx="486.714" cy="427.094" r="4.98413" stroke-width="0.5" stroke="black" fill="magenta"/>
   </g>
   <g id="cell125">
  <circle cx="626.357" cy="483.625" r="7.94963" stroke-width="0.5" stroke="black" fill="green"/>
  <circle cx="626.357" cy="483.625" r="4.82117" stroke-width="0.5" stroke="black" fill="green"/>
   </g>
   <g id="cell126">
  <circle cx="628.988" cy="566.353" r="8.41123" stroke-width="0.5" stroke="black" fill="green"/>
  <circle cx="628.988" cy="566.353" r="5.05129" stroke-width="0.5" stroke="black" fill="green"/>
   </g>
   <g id="cell127">
  <circle cx="431.185" cy="360.492" r="7.87726" stroke-width="0.5" stroke="black" fill="green"/>
  <circle cx="431.185" cy="360.492" r="4.78062" stroke-width="0.5" stroke="black" fill="green"/>
   </g>
   <g id="cell128">
  <circle cx="372.894" cy="466.697" r="8.41088" stroke-width="0.5" stroke="black" fill="magenta"/>
  <circle cx="372.894" cy="466.697" r="5.05119" stroke-width="0.5" stroke="black" fill="magenta"/>
   </g>
   <g id="cell129">
  <circle cx="569.582" cy="544.198" r="8.4107" stroke-width="0.5" stroke="black" fill="cyan"/>
  <circle cx="569.582" cy="544.198" r="5.05114" stroke-width="0.5" stroke="black" fill="cyan"/>
   </g>
   <g id="cell130">
  <circle cx="545.655" cy="435.644" r="8.4102" stroke-width="0.5" stroke="black" fill="cyan"/>
  <circle cx="545.655" cy="435.644" r="5.05101" stroke-width="0.5" stroke="black" fill="cyan"/>
   </g>
   <g id="cell131">
  <circle cx="546.373" cy="513.739" r="8.06291" stroke-width="0.5" stroke="black" fill="cyan"/>
  <circle cx="546.373" cy="513.739" r="4.89353" stroke-width="0.5" stroke="black" fill="cyan"/>
   </g>
   <g id="cell132">
  <circle cx="443.265" cy="548.599" r="8.40965" stroke-width="0.5" stroke="black" fill="magenta"/>
  <circle cx="443.265" cy="548.599" r="5.05084" stroke-width="0.5" stroke="black" fill="magenta"/>
   </g>
   <g id="cell133">
  <circle cx="583.304" cy="463.69" r="8.40983" stroke-width="0.5" stroke="black" fill="cyan"/>
  <circle cx="583.304" cy="463.69" r="5.05088" stroke-width="0.5" stroke="black" fill="cyan"/>
   </g>
   <g id="cell201">
  <circle cx="562.37" cy="525.541" r="8.06291" stroke-width="0.5" stroke="black" fill="cyan"/>
  <circle cx="562.37" cy="525.541" r="4.89353" stroke-width="0.5" stroke="black" fill="cyan"/>
   </g>
   <g id="cell135">
  <circle cx="507.628" cy="583.881" r="8.40944" stroke-width="0.5" stroke="black" fill="magenta"/>
  <circle cx="507.628" cy="583.881" r="5.05076" stroke-width="0.5" stroke="black" fill="magenta"/>
   </g>
   <g id="cell136">
  <circle cx="469.771" cy="550.295" r="8.40891" stroke-width="0.5" stroke="black" fill="green"/>
  <circle cx="469.771" cy="550.295" r="5.0506" stroke-width="0.5" stroke="black" fill="green"/>
   </g>
   <g id="cell137">
  <circle cx="487.642" cy="613.775" r="8.40787" stroke-width="0.5" stroke="black" fill="green"/>
  <circle cx="487.642" cy="613.775" r="5.0503" stroke-width="0.5" stroke="black" fill="green"/>
   </g>
   <g id="cell138">
  <circle cx="501.944" cy="399.86" r="8.40826" stroke-width="0.5" stroke="black" fill="green"/>
  <circle cx="501.944" cy="399.86" r="5.05039" stroke-width="0.5" stroke="black" fill="green"/>
   </g>
   <g id="cell139">
  <circle cx="414.835" cy="406.37" r="8.4076" stroke-width="0.5" stroke="black" fill="magenta"/>
  <circle cx="414.835" cy="406.37" r="5.05018" stroke-width="0.5" stroke="black" fill="magenta"/>
   </g>
   <g id="cell140">
  <circle cx="514.6" cy="570.859" r="8.40293" stroke-width="0.5" stroke="black" fill="magenta"/>
  <circle cx="514.6" cy="570.859" r="5.04873" stroke-width="0.5" stroke="black" fill="magenta"/>
   </g>
   <g id="cell141">
  <circle cx="573.076" cy="451.692" r="8.40601" stroke-width="0.5" stroke="black" fill="cyan"/>
  <circle cx="573.076" cy="451.692" r="5.04973" stroke-width="0.5" stroke="black" fill="cyan"/>
   </g>
   <g id="cell142">
  <circle cx="541.815" cy="420.915" r="8.33884" stroke-width="0.5" stroke="black" fill="green"/>
  <circle cx="541.815" cy="420.915" r="5.02343" stroke-width="0.5" stroke="black" fill="green"/>
   </g>
   <g id="cell143">
  <circle cx="430.026" cy="405.085" r="8.40444" stroke-width="0.5" stroke="black" fill="magenta"/>
  <circle cx="430.026" cy="405.085" r="5.04923" stroke-width="0.5" stroke="black" fill="magenta"/>
   </g>
   <g id="cell144">
  <circle cx="549.627" cy="407.658" r="8.39212" stroke-width="0.5" stroke="black" fill="green"/>
  <circle cx="549.627" cy="407.658" r="5.04499" stroke-width="0.5" stroke="black" fill="green"/>
   </g>
   <g id="cell185">
  <circle cx="599.477" cy="568.885" r="7.87321" stroke-width="0.5" stroke="black" fill="cyan"/>
  <circle cx="599.477" cy="568.885" r="4.78573" stroke-width="0.5" stroke="black" fill="cyan"/>
   </g>
   <g id="cell147">
  <circle cx="512.992" cy="556.716" r="8.40293" stroke-width="0.5" stroke="black" fill="magenta"/>
  <circle cx="512.992" cy="556.716" r="5.04873" stroke-width="0.5" stroke="black" fill="magenta"/>
   </g>
   <g id="cell148">
  <circle cx="511.803" cy="463.231" r="6.71478" stroke-width="0.5" stroke="black" fill="magenta"/>
  <circle cx="511.803" cy="463.231" r="4.06737" stroke-width="0.5" stroke="black" fill="magenta"/>
   </g>
   <g id="cell149">
  <circle cx="575.434" cy="399.529" r="8.40327" stroke-width="0.5" stroke="black" fill="magenta"/>
  <circle cx="575.434" cy="399.529" r="5.04872" stroke-width="0.5" stroke="black" fill="magenta"/>
   </g>
   <g id="cell150">
  <circle cx="412.433" cy="579.018" r="8.38151" stroke-width="0.5" stroke="black" fill="green"/>
  <circle cx="412.433" cy="579.018" r="5.04089" stroke-width="0.5" stroke="black" fill="green"/>
   </g>
   <g id="cell151">
  <circle cx="418.971" cy="529.986" r="8.4009" stroke-width="0.5" stroke="black" fill="green"/>
  <circle cx="418.971" cy="529.986" r="5.04788" stroke-width="0.5" stroke="black" fill="green"/>
   </g>
   <g id="cell152">
  <circle cx="373.343" cy="579.439" r="8.39493" stroke-width="0.5" stroke="black" fill="green"/>
  <circle cx="373.343" cy="579.439" r="5.04596" stroke-width="0.5" stroke="black" fill="green"/>
   </g>
   <g id="cell153">
  <circle cx="560.784" cy="461.585" r="8.3995" stroke-width="0.5" stroke="black" fill="cyan"/>
  <circle cx="560.784" cy="461.585" r="5.04738" stroke-width="0.5" stroke="black" fill="cyan"/>
   </g>
   <g id="cell154">
  <circle cx="383.292" cy="600.076" r="8.39022" stroke-width="0.5" stroke="black" fill="green"/>
  <circle cx="383.292" cy="600.076" r="5.04438" stroke-width="0.5" stroke="black" fill="green"/>
   </g>
   <g id="cell155">
  <circle cx="488.424" cy="582.758" r="8.39874" stroke-width="0.5" stroke="black" fill="green"/>
  <circle cx="488.424" cy="582.758" r="5.04711" stroke-width="0.5" stroke="black" fill="green"/>
   </g>
   <g id="cell156">
  <circle cx="460.112" cy="527.18" r="8.39871" stroke-width="0.5" stroke="black" fill="magenta"/>
  <circle cx="460.112" cy="527.18" r="5.0471" stroke-width="0.5" stroke="black" fill="magenta"/>
   </g>
   <g id="cell157">
  <circle cx="438.648" cy="515.767" r="6.69413" stroke-width="0.5" stroke="black" fill="magenta"/>
  <circle cx="438.648" cy="515.767" r="4.0286" stroke-width="0.5" stroke="black" fill="magenta"/>
   </g>
   <g id="cell158">
  <circle cx="565.13" cy="411.065" r="8.393" stroke-width="0.5" stroke="black" fill="green"/>
  <circle cx="565.13" cy="411.065" r="5.04532" stroke-width="0.5" stroke="black" fill="green"/>
   </g>
   <g id="cell159">
  <circle cx="530.298" cy="397.177" r="8.18855" stroke-width="0.5" stroke="black" fill="green"/>
  <circle cx="530.298" cy="397.177" r="4.95443" stroke-width="0.5" stroke="black" fill="green"/>
   </g>
   <g id="cell160">
  <circle cx="464.423" cy="375.662" r="8.39467" stroke-width="0.5" stroke="black" fill="green"/>
  <circle cx="464.423" cy="375.662" r="5.04567" stroke-width="0.5" stroke="black" fill="green"/>
   </g>
   <g id="cell165">
  <circle cx="613.299" cy="526.991" r="6.58946" stroke-width="0.5" stroke="black" fill="magenta"/>
  <circle cx="613.299" cy="526.991" r="3.9881" stroke-width="0.5" stroke="black" fill="magenta"/>
   </g>
   <g id="cell166">
  <circle cx="477.272" cy="459.586" r="8.37915" stroke-width="0.5" stroke="black" fill="magenta"/>
  <circle cx="477.272" cy="459.586" r="5.03955" stroke-width="0.5" stroke="black" fill="magenta"/>
   </g>
   <g id="cell167">
  <circle cx="421.245" cy="392.243" r="8.37537" stroke-width="0.5" stroke="black" fill="green"/>
  <circle cx="421.245" cy="392.243" r="5.03798" stroke-width="0.5" stroke="black" fill="green"/>
   </g>
   <g id="cell170">
  <circle cx="460.152" cy="503.43" r="8.36722" stroke-width="0.5" stroke="black" fill="green"/>
  <circle cx="460.152" cy="503.43" r="5.03458" stroke-width="0.5" stroke="black" fill="green"/>
   </g>
   <g id="cell171">
  <circle cx="602.579" cy="479.881" r="8.35882" stroke-width="0.5" stroke="black" fill="cyan"/>
  <circle cx="602.579" cy="479.881" r="5.031" stroke-width="0.5" stroke="black" fill="cyan"/>
   </g>
   <g id="cell172">
  <circle cx="552.773" cy="500.355" r="8.31344" stroke-width="0.5" stroke="black" fill="magenta"/>
  <circle cx="552.773" cy="500.355" r="5.01263" stroke-width="0.5" stroke="black" fill="magenta"/>
   </g>
   <g id="cell173">
  <circle cx="531.364" cy="520.355" r="8.35096" stroke-width="0.5" stroke="black" fill="cyan"/>
  <circle cx="531.364" cy="520.355" r="5.02782" stroke-width="0.5" stroke="black" fill="cyan"/>
   </g>
   <g id="cell174">
  <circle cx="493.271" cy="437.927" r="6.32359" stroke-width="0.5" stroke="black" fill="cyan"/>
  <circle cx="493.271" cy="437.927" r="3.87719" stroke-width="0.5" stroke="black" fill="cyan"/>
   </g>
   <g id="cell175">
  <circle cx="525.297" cy="606.508" r="8.11297" stroke-width="0.5" stroke="black" fill="green"/>
  <circle cx="525.297" cy="606.508" r="4.91794" stroke-width="0.5" stroke="black" fill="green"/>
   </g>
   <g id="cell176">
  <circle cx="557.178" cy="424.605" r="8.33884" stroke-width="0.5" stroke="black" fill="green"/>
  <circle cx="557.178" cy="424.605" r="5.02343" stroke-width="0.5" stroke="black" fill="green"/>
   </g>
   <g id="cell177">
  <circle cx="368.514" cy="564.501" r="8.29293" stroke-width="0.5" stroke="black" fill="cyan"/>
  <circle cx="368.514" cy="564.501" r="5.00343" stroke-width="0.5" stroke="black" fill="cyan"/>
   </g>
   <g id="cell178">
  <circle cx="561.557" cy="511.515" r="7.77315" stroke-width="0.5" stroke="black" fill="magenta"/>
  <circle cx="561.557" cy="511.515" r="4.7305" stroke-width="0.5" stroke="black" fill="magenta"/>
   </g>
   <g id="cell179">
  <circle cx="515.624" cy="517.168" r="8.34087" stroke-width="0.5" stroke="black" fill="cyan"/>
  <circle cx="515.624" cy="517.168" r="5.0232" stroke-width="0.5" stroke="black" fill="cyan"/>
   </g>
   <g id="cell180">
  <circle cx="618.933" cy="506.013" r="8.33699" stroke-width="0.5" stroke="black" fill="green"/>
  <circle cx="618.933" cy="506.013" r="5.02141" stroke-width="0.5" stroke="black" fill="green"/>
   </g>
   <g id="cell181">
  <circle cx="566.197" cy="534.124" r="2.10664" stroke-width="0.5" stroke="black" fill="cyan"/>
  <circle cx="566.197" cy="534.124" r="1.96621" stroke-width="0.5" stroke="black" fill="black"/>
   </g>
   <g id="cell182">
  <circle cx="531.197" cy="381.993" r="8.32433" stroke-width="0.5" stroke="black" fill="green"/>
  <circle cx="531.197" cy="381.993" r="5.01701" stroke-width="0.5" stroke="black" fill="green"/>
   </g>
   <g id="cell183">
  <circle cx="576.765" cy="523.283" r="7.24909" stroke-width="0.5" stroke="black" fill="magenta"/>
  <circle cx="576.765" cy="523.283" r="4.41487" stroke-width="0.5" stroke="black" fill="magenta"/>
   </g>
   <g id="cell184">
  <circle cx="430.586" cy="431.003" r="8.20375" stroke-width="0.5" stroke="black" fill="magenta"/>
  <circle cx="430.586" cy="431.003" r="4.96169" stroke-width="0.5" stroke="black" fill="magenta"/>
   </g>
   <g id="cell187">
  <circle cx="498.52" cy="497.316" r="8.31763" stroke-width="0.5" stroke="black" fill="cyan"/>
  <circle cx="498.52" cy="497.316" r="5.0126" stroke-width="0.5" stroke="black" fill="cyan"/>
   </g>
   <g id="cell188">
  <circle cx="535.821" cy="618.199" r="8.2688" stroke-width="0.5" stroke="black" fill="green"/>
  <circle cx="535.821" cy="618.199" r="4.99223" stroke-width="0.5" stroke="black" fill="green"/>
   </g>
   <g id="cell189">
  <circle cx="533.354" cy="474.319" r="8.29512" stroke-width="0.5" stroke="black" fill="cyan"/>
  <circle cx="533.354" cy="474.319" r="5.00236" stroke-width="0.5" stroke="black" fill="cyan"/>
   </g>
   <g id="cell190">
  <circle cx="547.483" cy="528.55" r="8.24086" stroke-width="0.5" stroke="black" fill="cyan"/>
  <circle cx="547.483" cy="528.55" r="4.98059" stroke-width="0.5" stroke="black" fill="cyan"/>
   </g>
   <g id="cell191">
  <circle cx="499.287" cy="481.962" r="8.28943" stroke-width="0.5" stroke="black" fill="magenta"/>
  <circle cx="499.287" cy="481.962" r="5.00002" stroke-width="0.5" stroke="black" fill="magenta"/>
   </g>
   <g id="cell192">
  <circle cx="473.831" cy="433.79" r="8.25764" stroke-width="0.5" stroke="black" fill="magenta"/>
  <circle cx="473.831" cy="433.79" r="4.98413" stroke-width="0.5" stroke="black" fill="magenta"/>
   </g>
   <g id="cell193">
  <circle cx="437.784" cy="417.927" r="8.20375" stroke-width="0.5" stroke="black" fill="magenta"/>
  <circle cx="437.784" cy="417.927" r="4.96169" stroke-width="0.5" stroke="black" fill="magenta"/>
   </g>
   <g id="cell194">
  <circle cx="603.471" cy="514.38" r="8.22889" stroke-width="0.5" stroke="black" fill="magenta"/>
  <circle cx="603.471" cy="514.38" r="4.97188" stroke-width="0.5" stroke="black" fill="magenta"/>
   </g>
   <g id="cell195">
  <circle cx="544.999" cy="392.81" r="8.18855" stroke-width="0.5" stroke="black" fill="green"/>
  <circle cx="544.999" cy="392.81" r="4.95443" stroke-width="0.5" stroke="black" fill="green"/>
   </g>
   <g id="cell196">
  <circle cx="459.222" cy="434.929" r="8.2292" stroke-width="0.5" stroke="black" fill="cyan"/>
  <circle cx="459.222" cy="434.929" r="4.96992" stroke-width="0.5" stroke="black" fill="cyan"/>
   </g>
   <g id="cell197">
  <circle cx="551.267" cy="619.9" r="8.22342" stroke-width="0.5" stroke="black" fill="green"/>
  <circle cx="551.267" cy="619.9" r="4.96713" stroke-width="0.5" stroke="black" fill="green"/>
   </g>
   <g id="cell198">
  <circle cx="423.321" cy="418.396" r="8.14869" stroke-width="0.5" stroke="black" fill="magenta"/>
  <circle cx="423.321" cy="418.396" r="4.93406" stroke-width="0.5" stroke="black" fill="magenta"/>
   </g>
   <g id="cell199">
  <circle cx="536.076" cy="595.566" r="8.11297" stroke-width="0.5" stroke="black" fill="green"/>
  <circle cx="536.076" cy="595.566" r="4.91794" stroke-width="0.5" stroke="black" fill="green"/>
   </g>
   <g id="cell200">
  <circle cx="445.058" cy="430.843" r="8.15541" stroke-width="0.5" stroke="black" fill="magenta"/>
  <circle cx="445.058" cy="430.843" r="4.93339" stroke-width="0.5" stroke="black" fill="magenta"/>
   </g>
   <g id="cell202">
  <circle cx="402.057" cy="607.206" r="8.11327" stroke-width="0.5" stroke="black" fill="cyan"/>
  <circle cx="402.057" cy="607.206" r="4.91006" stroke-width="0.5" stroke="black" fill="cyan"/>
   </g>
   <g id="cell203">
  <circle cx="363.744" cy="538.089" r="2.70228" stroke-width="0.5" stroke="black" fill="cyan"/>
  <circle cx="363.744" cy="538.089" r="2.28924" stroke-width="0.5" stroke="black" fill="black"/>
   </g>
   <g id="cell204">
  <circle cx="574.36" cy="487.241" r="8.07297" stroke-width="0.5" stroke="black" fill="magenta"/>
  <circle cx="574.36" cy="487.241" r="4.89305" stroke-width="0.5" stroke="black" fill="magenta"/>
   </g>
   <g id="cell205">
  <circle cx="427.333" cy="478.238" r="8.03516" stroke-width="0.5" stroke="black" fill="green"/>
  <circle cx="427.333" cy="478.238" r="4.86811" stroke-width="0.5" stroke="black" fill="green"/>
   </g>
   <g id="cell206">
  <circle cx="465.472" cy="623.454" r="7.96365" stroke-width="0.5" stroke="black" fill="magenta"/>
  <circle cx="465.472" cy="623.454" r="4.82873" stroke-width="0.5" stroke="black" fill="magenta"/>
   </g>
   <g id="cell207">
  <circle cx="621.346" cy="469.442" r="7.94963" stroke-width="0.5" stroke="black" fill="green"/>
  <circle cx="621.346" cy="469.442" r="4.82117" stroke-width="0.5" stroke="black" fill="green"/>
   </g>
   <g id="cell208">
  <circle cx="582.743" cy="550.692" r="7.01353" stroke-width="0.5" stroke="black" fill="cyan"/>
  <circle cx="582.743" cy="550.692" r="4.30067" stroke-width="0.5" stroke="black" fill="cyan"/>
   </g>
   <g id="cell209">
  <circle cx="441.47" cy="349.69" r="7.87726" stroke-width="0.5" stroke="black" fill="green"/>
  <circle cx="441.47" cy="349.69" r="4.78062" stroke-width="0.5" stroke="black" fill="green"/>
   </g>
   <g id="cell210">
  <circle cx="655.912" cy="538.316" r="7.87849" stroke-width="0.5" stroke="black" fill="green"/>
  <circle cx="655.912" cy="538.316" r="4.78095" stroke-width="0.5" stroke="black" fill="green"/>
   </g>
   <g id="cell213">
  <circle cx="557.529" cy="381.957" r="7.01799" stroke-width="0.5" stroke="black" fill="green"/>
  <circle cx="557.529" cy="381.957" r="4.3037" stroke-width="0.5" stroke="black" fill="green"/>
   </g>
   <g id="cell214">
  <circle cx="501.371" cy="428.218" r="7.53091" stroke-width="0.5" stroke="black" fill="cyan"/>
  <circle cx="501.371" cy="428.218" r="4.58495" stroke-width="0.5" stroke="black" fill="cyan"/>
   </g>
   <g id="cell215">
  <circle cx="433.837" cy="528.14" r="7.55467" stroke-width="0.5" stroke="black" fill="magenta"/>
  <circle cx="433.837" cy="528.14" r="4.5952" stroke-width="0.5" stroke="black" fill="magenta"/>
   </g>
   <g id="cell216">
  <circle cx="546.507" cy="579.303" r="7.50568" stroke-width="0.5" stroke="black" fill="green"/>
  <circle cx="546.507" cy="579.303" r="4.56561" stroke-width="0.5" stroke="black" fill="green"/>
   </g>
   <g id="cell217">
  <circle cx="545.043" cy="378.668" r="7.01799" stroke-width="0.5" stroke="black" fill="green"/>
  <circle cx="545.043" cy="378.668" r="4.3037" stroke-width="0.5" stroke="black" fill="green"/>
   </g>
   <g id="cell218">
  <circle cx="594.777" cy="555.723" r="7.01353" stroke-width="0.5" stroke="black" fill="cyan"/>
  <circle cx="594.777" cy="555.723" r="4.30067" stroke-width="0.5" stroke="black" fill="cyan"/>
   </g>
   <g id="cell219">
  <circle cx="575.283" cy="510.569" r="7.24909" stroke-width="0.5" stroke="black" fill="magenta"/>
  <circle cx="575.283" cy="510.569" r="4.41487" stroke-width="0.5" stroke="black" fill="magenta"/>
   </g>
   <g id="cell221">
  <circle cx="588.607" cy="398.742" r="6.19777" stroke-width="0.5" stroke="black" fill="magenta"/>
  <circle cx="588.607" cy="398.742" r="3.80042" stroke-width="0.5" stroke="black" fill="magenta"/>
   </g>
   <g id="cell222">
  <circle cx="503.438" cy="441.532" r="6.32359" stroke-width="0.5" stroke="black" fill="cyan"/>
  <circle cx="503.438" cy="441.532" r="3.87719" stroke-width="0.5" stroke="black" fill="cyan"/>
   </g>
   <g id="cell223">
  <circle cx="509.18" cy="622.653" r="6.95887" stroke-width="0.5" stroke="black" fill="green"/>
  <circle cx="509.18" cy="622.653" r="4.21338" stroke-width="0.5" stroke="black" fill="green"/>
   </g>
   <g id="cell225">
  <circle cx="522.059" cy="422.975" r="6.8665" stroke-width="0.5" stroke="black" fill="cyan"/>
  <circle cx="522.059" cy="422.975" r="4.14883" stroke-width="0.5" stroke="black" fill="cyan"/>
   </g>
   <g id="cell226">
  <circle cx="502.06" cy="468.981" r="6.71478" stroke-width="0.5" stroke="black" fill="magenta"/>
  <circle cx="502.06" cy="468.981" r="4.06737" stroke-width="0.5" stroke="black" fill="magenta"/>
   </g>
   <g id="cell227">
  <circle cx="496.386" cy="552.947" r="6.80875" stroke-width="0.5" stroke="black" fill="green"/>
  <circle cx="496.386" cy="552.947" r="4.10708" stroke-width="0.5" stroke="black" fill="green"/>
   </g>
   <g id="cell228">
  <circle cx="525.906" cy="575.472" r="6.027" stroke-width="0.5" stroke="black" fill="green"/>
  <circle cx="525.906" cy="575.472" r="3.67288" stroke-width="0.5" stroke="black" fill="green"/>
   </g>
   <g id="cell229">
  <circle cx="602.007" cy="527.828" r="6.58946" stroke-width="0.5" stroke="black" fill="magenta"/>
  <circle cx="602.007" cy="527.828" r="3.9881" stroke-width="0.5" stroke="black" fill="magenta"/>
   </g>
   <g id="cell230">
  <circle cx="447.635" cy="522.924" r="6.69413" stroke-width="0.5" stroke="black" fill="magenta"/>
  <circle cx="447.635" cy="522.924" r="4.0286" stroke-width="0.5" stroke="black" fill="magenta"/>
   </g>
   <g id="cell231">
  <circle cx="395.551" cy="594.718" r="6.47648" stroke-width="0.5" stroke="black" fill="cyan"/>
  <circle cx="395.551" cy="594.718" r="3.92325" stroke-width="0.5" stroke="black" fill="cyan"/>
   </g>
   <g id="cell232">
  <circle cx="488.721" cy="456.638" r="6.65053" stroke-width="0.5" stroke="black" fill="magenta"/>
  <circle cx="488.721" cy="456.638" r="3.99989" stroke-width="0.5" stroke="black" fill="magenta"/>
   </g>
  </g>
 </g>
  <rect x="775" y="1035" width="200" height="10" stroke-width="2" stroke="rgb(255,255,255)" fill="rgb(0,0,0)"/>
  <text x="781.25" y="1028.75"
   font-family="Arial" font-size="25" fill="black" >
   200 &#956;m
  </text>
  <text x="25" y="1045"
   font-family="Arial" font-size="18.75" fill="black" >
   0 days, 0 hours, 0 minutes, and 52.6266 seconds
  </text>
  <rect x="0" y="70" width="1000" height="1000" stroke-width="2" stroke="rgb(0,0,0)" fill="none"/>
</svg>
