<?xml version="1.0" encoding="UTF-8" standalone="no"?>
<!-- Created with PhysiCell (http://PhysiCell.MathCancer.org/) -->
<svg 
 xmlns:dc="http://purl.org/dc/elements/1.1/" 
 xmlns:cc="http://creativecommons.org/ns#" 
 xmlns:rdf="http://www.w3.org/1999/02/22-rdf-syntax-ns#" 
 xmlns:svg="http://www.w3.org/2000/svg" 
 xmlns="http://www.w3.org/2000/svg" 
 version="1.1" 
 width="1000" 
 height="1070" 
 id="svg2">
  <rect x="0" y="0" width="1000" height="1070" stroke-width="2" stroke="white" fill="white"/>
  <text x="12.5" y="30"
   font-family="Arial" font-size="25" fill="black" >
   Current time: 0 days, 0 hours, and 39.00 minutes, z = 0.00 &#956;m
  </text>
  <text x="12.5" y="57.5"
   font-family="Arial" font-size="23.75" fill="black" >
   75 agents
  </text>
 <g id="tissue" 
    transform="translate(0,1070) scale(1,-1)">
  <g id="ECM">
  </g>
  <g id="cells">
   <g id="cell0">
  <circle cx="513.736" cy="529.884" r="8.41271" stroke-width="0.5" stroke="black" fill="magenta"/>
  <circle cx="513.736" cy="529.884" r="5.05167" stroke-width="0.5" stroke="black" fill="magenta"/>
   </g>
   <g id="cell1">
  <circle cx="604.229" cy="530.209" r="8.41271" stroke-width="0.5" stroke="black" fill="magenta"/>
  <circle cx="604.229" cy="530.209" r="5.05167" stroke-width="0.5" stroke="black" fill="magenta"/>
   </g>
   <g id="cell2">
  <circle cx="510.759" cy="600.611" r="8.41271" stroke-width="0.5" stroke="black" fill="magenta"/>
  <circle cx="510.759" cy="600.611" r="5.05167" stroke-width="0.5" stroke="black" fill="magenta"/>
   </g>
   <g id="cell3">
  <circle cx="533.109" cy="545.455" r="8.41271" stroke-width="0.5" stroke="black" fill="magenta"/>
  <circle cx="533.109" cy="545.455" r="5.05167" stroke-width="0.5" stroke="black" fill="magenta"/>
   </g>
   <g id="cell4">
  <circle cx="481.509" cy="439.518" r="8.41271" stroke-width="0.5" stroke="black" fill="magenta"/>
  <circle cx="481.509" cy="439.518" r="5.05167" stroke-width="0.5" stroke="black" fill="magenta"/>
   </g>
   <g id="cell5">
  <circle cx="465.032" cy="493.3" r="8.41271" stroke-width="0.5" stroke="black" fill="magenta"/>
  <circle cx="465.032" cy="493.3" r="5.05167" stroke-width="0.5" stroke="black" fill="magenta"/>
   </g>
   <g id="cell6">
  <circle cx="593.674" cy="508.718" r="8.41271" stroke-width="0.5" stroke="black" fill="magenta"/>
  <circle cx="593.674" cy="508.718" r="5.05167" stroke-width="0.5" stroke="black" fill="magenta"/>
   </g>
   <g id="cell7">
  <circle cx="512.68" cy="464.962" r="8.41271" stroke-width="0.5" stroke="black" fill="magenta"/>
  <circle cx="512.68" cy="464.962" r="5.05167" stroke-width="0.5" stroke="black" fill="magenta"/>
   </g>
   <g id="cell8">
  <circle cx="375.892" cy="544.52" r="8.41271" stroke-width="0.5" stroke="black" fill="magenta"/>
  <circle cx="375.892" cy="544.52" r="5.05167" stroke-width="0.5" stroke="black" fill="magenta"/>
   </g>
   <g id="cell9">
  <circle cx="460.472" cy="599.786" r="8.41271" stroke-width="0.5" stroke="black" fill="magenta"/>
  <circle cx="460.472" cy="599.786" r="5.05167" stroke-width="0.5" stroke="black" fill="magenta"/>
   </g>
   <g id="cell10">
  <circle cx="583.447" cy="392.105" r="8.41271" stroke-width="0.5" stroke="black" fill="magenta"/>
  <circle cx="583.447" cy="392.105" r="5.05167" stroke-width="0.5" stroke="black" fill="magenta"/>
   </g>
   <g id="cell11">
  <circle cx="589.748" cy="590.273" r="8.41271" stroke-width="0.5" stroke="black" fill="magenta"/>
  <circle cx="589.748" cy="590.273" r="5.05167" stroke-width="0.5" stroke="black" fill="magenta"/>
   </g>
   <g id="cell12">
  <circle cx="506.619" cy="585.901" r="8.41271" stroke-width="0.5" stroke="black" fill="magenta"/>
  <circle cx="506.619" cy="585.901" r="5.05167" stroke-width="0.5" stroke="black" fill="magenta"/>
   </g>
   <g id="cell13">
  <circle cx="385.833" cy="567.21" r="8.41271" stroke-width="0.5" stroke="black" fill="magenta"/>
  <circle cx="385.833" cy="567.21" r="5.05167" stroke-width="0.5" stroke="black" fill="magenta"/>
   </g>
   <g id="cell14">
  <circle cx="529.038" cy="396.126" r="8.41271" stroke-width="0.5" stroke="black" fill="magenta"/>
  <circle cx="529.038" cy="396.126" r="5.05167" stroke-width="0.5" stroke="black" fill="magenta"/>
   </g>
   <g id="cell15">
  <circle cx="381.187" cy="474.589" r="8.41271" stroke-width="0.5" stroke="black" fill="magenta"/>
  <circle cx="381.187" cy="474.589" r="5.05167" stroke-width="0.5" stroke="black" fill="magenta"/>
   </g>
   <g id="cell16">
  <circle cx="428.96" cy="413.213" r="8.41271" stroke-width="0.5" stroke="black" fill="magenta"/>
  <circle cx="428.96" cy="413.213" r="5.05167" stroke-width="0.5" stroke="black" fill="magenta"/>
   </g>
   <g id="cell17">
  <circle cx="571.742" cy="490.02" r="8.41271" stroke-width="0.5" stroke="black" fill="magenta"/>
  <circle cx="571.742" cy="490.02" r="5.05167" stroke-width="0.5" stroke="black" fill="magenta"/>
   </g>
   <g id="cell18">
  <circle cx="516.209" cy="387.976" r="8.41271" stroke-width="0.5" stroke="black" fill="magenta"/>
  <circle cx="516.209" cy="387.976" r="5.05167" stroke-width="0.5" stroke="black" fill="magenta"/>
   </g>
   <g id="cell19">
  <circle cx="451.759" cy="539.048" r="8.41271" stroke-width="0.5" stroke="black" fill="magenta"/>
  <circle cx="451.759" cy="539.048" r="5.05167" stroke-width="0.5" stroke="black" fill="magenta"/>
   </g>
   <g id="cell20">
  <circle cx="532.808" cy="416.913" r="8.41271" stroke-width="0.5" stroke="black" fill="magenta"/>
  <circle cx="532.808" cy="416.913" r="5.05167" stroke-width="0.5" stroke="black" fill="magenta"/>
   </g>
   <g id="cell21">
  <circle cx="464.37" cy="634.573" r="8.41271" stroke-width="0.5" stroke="black" fill="magenta"/>
  <circle cx="464.37" cy="634.573" r="5.05167" stroke-width="0.5" stroke="black" fill="magenta"/>
   </g>
   <g id="cell22">
  <circle cx="556.978" cy="493.319" r="8.41271" stroke-width="0.5" stroke="black" fill="magenta"/>
  <circle cx="556.978" cy="493.319" r="5.05167" stroke-width="0.5" stroke="black" fill="magenta"/>
   </g>
   <g id="cell23">
  <circle cx="536.154" cy="482.387" r="8.41271" stroke-width="0.5" stroke="black" fill="magenta"/>
  <circle cx="536.154" cy="482.387" r="5.05167" stroke-width="0.5" stroke="black" fill="magenta"/>
   </g>
   <g id="cell24">
  <circle cx="559.289" cy="379.785" r="8.41271" stroke-width="0.5" stroke="black" fill="magenta"/>
  <circle cx="559.289" cy="379.785" r="5.05167" stroke-width="0.5" stroke="black" fill="magenta"/>
   </g>
   <g id="cell25">
  <circle cx="640.943" cy="550.03" r="8.41271" stroke-width="0.5" stroke="black" fill="green"/>
  <circle cx="640.943" cy="550.03" r="5.05167" stroke-width="0.5" stroke="black" fill="green"/>
   </g>
   <g id="cell26">
  <circle cx="551.189" cy="401.271" r="8.41271" stroke-width="0.5" stroke="black" fill="green"/>
  <circle cx="551.189" cy="401.271" r="5.05167" stroke-width="0.5" stroke="black" fill="green"/>
   </g>
   <g id="cell27">
  <circle cx="457.446" cy="388.678" r="8.41271" stroke-width="0.5" stroke="black" fill="green"/>
  <circle cx="457.446" cy="388.678" r="5.05167" stroke-width="0.5" stroke="black" fill="green"/>
   </g>
   <g id="cell28">
  <circle cx="438.543" cy="530.816" r="8.41271" stroke-width="0.5" stroke="black" fill="green"/>
  <circle cx="438.543" cy="530.816" r="5.05167" stroke-width="0.5" stroke="black" fill="green"/>
   </g>
   <g id="cell29">
  <circle cx="449.106" cy="518.851" r="8.41271" stroke-width="0.5" stroke="black" fill="green"/>
  <circle cx="449.106" cy="518.851" r="5.05167" stroke-width="0.5" stroke="black" fill="green"/>
   </g>
   <g id="cell30">
  <circle cx="481.58" cy="540.282" r="8.41271" stroke-width="0.5" stroke="black" fill="green"/>
  <circle cx="481.58" cy="540.282" r="5.05167" stroke-width="0.5" stroke="black" fill="green"/>
   </g>
   <g id="cell31">
  <circle cx="412.739" cy="541.064" r="8.41271" stroke-width="0.5" stroke="black" fill="green"/>
  <circle cx="412.739" cy="541.064" r="5.05167" stroke-width="0.5" stroke="black" fill="green"/>
   </g>
   <g id="cell32">
  <circle cx="425.378" cy="474.823" r="8.41271" stroke-width="0.5" stroke="black" fill="green"/>
  <circle cx="425.378" cy="474.823" r="5.05167" stroke-width="0.5" stroke="black" fill="green"/>
   </g>
   <g id="cell33">
  <circle cx="494.049" cy="423.378" r="8.41271" stroke-width="0.5" stroke="black" fill="green"/>
  <circle cx="494.049" cy="423.378" r="5.05167" stroke-width="0.5" stroke="black" fill="green"/>
   </g>
   <g id="cell34">
  <circle cx="397.316" cy="451.047" r="8.41271" stroke-width="0.5" stroke="black" fill="green"/>
  <circle cx="397.316" cy="451.047" r="5.05167" stroke-width="0.5" stroke="black" fill="green"/>
   </g>
   <g id="cell35">
  <circle cx="548.51" cy="544.99" r="8.41271" stroke-width="0.5" stroke="black" fill="green"/>
  <circle cx="548.51" cy="544.99" r="5.05167" stroke-width="0.5" stroke="black" fill="green"/>
   </g>
   <g id="cell36">
  <circle cx="391.333" cy="582.915" r="8.41271" stroke-width="0.5" stroke="black" fill="green"/>
  <circle cx="391.333" cy="582.915" r="5.05167" stroke-width="0.5" stroke="black" fill="green"/>
   </g>
   <g id="cell37">
  <circle cx="634.871" cy="460.618" r="8.41271" stroke-width="0.5" stroke="black" fill="green"/>
  <circle cx="634.871" cy="460.618" r="5.05167" stroke-width="0.5" stroke="black" fill="green"/>
   </g>
   <g id="cell38">
  <circle cx="536.441" cy="601.681" r="8.41271" stroke-width="0.5" stroke="black" fill="green"/>
  <circle cx="536.441" cy="601.681" r="5.05167" stroke-width="0.5" stroke="black" fill="green"/>
   </g>
   <g id="cell39">
  <circle cx="613.458" cy="490.595" r="8.41271" stroke-width="0.5" stroke="black" fill="green"/>
  <circle cx="613.458" cy="490.595" r="5.05167" stroke-width="0.5" stroke="black" fill="green"/>
   </g>
   <g id="cell40">
  <circle cx="485.348" cy="571.779" r="8.41271" stroke-width="0.5" stroke="black" fill="green"/>
  <circle cx="485.348" cy="571.779" r="5.05167" stroke-width="0.5" stroke="black" fill="green"/>
   </g>
   <g id="cell41">
  <circle cx="363.849" cy="480.184" r="8.41271" stroke-width="0.5" stroke="black" fill="green"/>
  <circle cx="363.849" cy="480.184" r="5.05167" stroke-width="0.5" stroke="black" fill="green"/>
   </g>
   <g id="cell42">
  <circle cx="438.842" cy="494.268" r="8.41271" stroke-width="0.5" stroke="black" fill="green"/>
  <circle cx="438.842" cy="494.268" r="5.05167" stroke-width="0.5" stroke="black" fill="green"/>
   </g>
   <g id="cell43">
  <circle cx="558.623" cy="445.719" r="8.41271" stroke-width="0.5" stroke="black" fill="green"/>
  <circle cx="558.623" cy="445.719" r="5.05167" stroke-width="0.5" stroke="black" fill="green"/>
   </g>
   <g id="cell44">
  <circle cx="475.855" cy="624.023" r="8.41271" stroke-width="0.5" stroke="black" fill="green"/>
  <circle cx="475.855" cy="624.023" r="5.05167" stroke-width="0.5" stroke="black" fill="green"/>
   </g>
   <g id="cell45">
  <circle cx="414.971" cy="557.195" r="8.41271" stroke-width="0.5" stroke="black" fill="green"/>
  <circle cx="414.971" cy="557.195" r="5.05167" stroke-width="0.5" stroke="black" fill="green"/>
   </g>
   <g id="cell46">
  <circle cx="522.632" cy="611.062" r="8.41271" stroke-width="0.5" stroke="black" fill="green"/>
  <circle cx="522.632" cy="611.062" r="5.05167" stroke-width="0.5" stroke="black" fill="green"/>
   </g>
   <g id="cell47">
  <circle cx="502.868" cy="507.065" r="8.41271" stroke-width="0.5" stroke="black" fill="green"/>
  <circle cx="502.868" cy="507.065" r="5.05167" stroke-width="0.5" stroke="black" fill="green"/>
   </g>
   <g id="cell48">
  <circle cx="564.549" cy="602.755" r="8.41271" stroke-width="0.5" stroke="black" fill="green"/>
  <circle cx="564.549" cy="602.755" r="5.05167" stroke-width="0.5" stroke="black" fill="green"/>
   </g>
   <g id="cell49">
  <circle cx="429.825" cy="397.644" r="8.41271" stroke-width="0.5" stroke="black" fill="green"/>
  <circle cx="429.825" cy="397.644" r="5.05167" stroke-width="0.5" stroke="black" fill="green"/>
   </g>
   <g id="cell50">
  <circle cx="519.033" cy="515.229" r="8.41271" stroke-width="0.5" stroke="black" fill="cyan"/>
  <circle cx="519.033" cy="515.229" r="5.05167" stroke-width="0.5" stroke="black" fill="cyan"/>
   </g>
   <g id="cell51">
  <circle cx="399.234" cy="598.207" r="8.41271" stroke-width="0.5" stroke="black" fill="cyan"/>
  <circle cx="399.234" cy="598.207" r="5.05167" stroke-width="0.5" stroke="black" fill="cyan"/>
   </g>
   <g id="cell52">
  <circle cx="521.32" cy="429.217" r="8.41271" stroke-width="0.5" stroke="black" fill="cyan"/>
  <circle cx="521.32" cy="429.217" r="5.05167" stroke-width="0.5" stroke="black" fill="cyan"/>
   </g>
   <g id="cell53">
  <circle cx="571.28" cy="436.01" r="8.41271" stroke-width="0.5" stroke="black" fill="cyan"/>
  <circle cx="571.28" cy="436.01" r="5.05167" stroke-width="0.5" stroke="black" fill="cyan"/>
   </g>
   <g id="cell54">
  <circle cx="478.113" cy="424.318" r="8.41271" stroke-width="0.5" stroke="black" fill="cyan"/>
  <circle cx="478.113" cy="424.318" r="5.05167" stroke-width="0.5" stroke="black" fill="cyan"/>
   </g>
   <g id="cell55">
  <circle cx="527.28" cy="469.762" r="8.41271" stroke-width="0.5" stroke="black" fill="cyan"/>
  <circle cx="527.28" cy="469.762" r="5.05167" stroke-width="0.5" stroke="black" fill="cyan"/>
   </g>
   <g id="cell56">
  <circle cx="617.839" cy="522.247" r="8.41271" stroke-width="0.5" stroke="black" fill="cyan"/>
  <circle cx="617.839" cy="522.247" r="5.05167" stroke-width="0.5" stroke="black" fill="cyan"/>
   </g>
   <g id="cell57">
  <circle cx="416.924" cy="617.466" r="7.65539" stroke-width="0.5" stroke="black" fill="cyan"/>
  <circle cx="416.924" cy="617.466" r="4.62266" stroke-width="0.5" stroke="black" fill="black"/>
   </g>
   <g id="cell58">
  <circle cx="551.28" cy="479.038" r="8.41271" stroke-width="0.5" stroke="black" fill="cyan"/>
  <circle cx="551.28" cy="479.038" r="5.05167" stroke-width="0.5" stroke="black" fill="cyan"/>
   </g>
   <g id="cell59">
  <circle cx="385.235" cy="439.586" r="8.41271" stroke-width="0.5" stroke="black" fill="cyan"/>
  <circle cx="385.235" cy="439.586" r="5.05167" stroke-width="0.5" stroke="black" fill="cyan"/>
   </g>
   <g id="cell60">
  <circle cx="593.794" cy="473.581" r="8.41271" stroke-width="0.5" stroke="black" fill="cyan"/>
  <circle cx="593.794" cy="473.581" r="5.05167" stroke-width="0.5" stroke="black" fill="cyan"/>
   </g>
   <g id="cell61">
  <circle cx="552.973" cy="613.986" r="8.41271" stroke-width="0.5" stroke="black" fill="cyan"/>
  <circle cx="552.973" cy="613.986" r="5.05167" stroke-width="0.5" stroke="black" fill="cyan"/>
   </g>
   <g id="cell62">
  <circle cx="524.909" cy="445.025" r="8.41271" stroke-width="0.5" stroke="black" fill="cyan"/>
  <circle cx="524.909" cy="445.025" r="5.05167" stroke-width="0.5" stroke="black" fill="cyan"/>
   </g>
   <g id="cell63">
  <circle cx="577.654" cy="546.494" r="8.41271" stroke-width="0.5" stroke="black" fill="cyan"/>
  <circle cx="577.654" cy="546.494" r="5.05167" stroke-width="0.5" stroke="black" fill="cyan"/>
   </g>
   <g id="cell64">
  <circle cx="509.962" cy="636.825" r="8.41271" stroke-width="0.5" stroke="black" fill="cyan"/>
  <circle cx="509.962" cy="636.825" r="5.05167" stroke-width="0.5" stroke="black" fill="cyan"/>
   </g>
   <g id="cell65">
  <circle cx="542.499" cy="466.115" r="8.41271" stroke-width="0.5" stroke="black" fill="cyan"/>
  <circle cx="542.499" cy="466.115" r="5.05167" stroke-width="0.5" stroke="black" fill="cyan"/>
   </g>
   <g id="cell66">
  <circle cx="535.434" cy="530.027" r="8.41271" stroke-width="0.5" stroke="black" fill="cyan"/>
  <circle cx="535.434" cy="530.027" r="5.05167" stroke-width="0.5" stroke="black" fill="cyan"/>
   </g>
   <g id="cell67">
  <circle cx="354.251" cy="493.179" r="8.41271" stroke-width="0.5" stroke="black" fill="cyan"/>
  <circle cx="354.251" cy="493.179" r="5.05167" stroke-width="0.5" stroke="black" fill="cyan"/>
   </g>
   <g id="cell68">
  <circle cx="562.731" cy="551.59" r="8.41271" stroke-width="0.5" stroke="black" fill="cyan"/>
  <circle cx="562.731" cy="551.59" r="5.05167" stroke-width="0.5" stroke="black" fill="cyan"/>
   </g>
   <g id="cell69">
  <circle cx="437.633" cy="464.527" r="8.41271" stroke-width="0.5" stroke="black" fill="cyan"/>
  <circle cx="437.633" cy="464.527" r="5.05167" stroke-width="0.5" stroke="black" fill="cyan"/>
   </g>
   <g id="cell70">
  <circle cx="576.498" cy="475.157" r="8.41271" stroke-width="0.5" stroke="black" fill="cyan"/>
  <circle cx="576.498" cy="475.157" r="5.05167" stroke-width="0.5" stroke="black" fill="cyan"/>
   </g>
   <g id="cell71">
  <circle cx="377.712" cy="520.989" r="8.41271" stroke-width="0.5" stroke="black" fill="cyan"/>
  <circle cx="377.712" cy="520.989" r="5.05167" stroke-width="0.5" stroke="black" fill="cyan"/>
   </g>
   <g id="cell72">
  <circle cx="535.008" cy="514.023" r="8.41271" stroke-width="0.5" stroke="black" fill="cyan"/>
  <circle cx="535.008" cy="514.023" r="5.05167" stroke-width="0.5" stroke="black" fill="cyan"/>
   </g>
   <g id="cell73">
  <circle cx="360.353" cy="545.936" r="8.41271" stroke-width="0.5" stroke="black" fill="cyan"/>
  <circle cx="360.353" cy="545.936" r="5.05167" stroke-width="0.5" stroke="black" fill="cyan"/>
   </g>
   <g id="cell74">
  <circle cx="542.635" cy="446.527" r="8.41271" stroke-width="0.5" stroke="black" fill="cyan"/>
  <circle cx="542.635" cy="446.527" r="5.05167" stroke-width="0.5" stroke="black" fill="cyan"/>
   </g>
  </g>
 </g>
  <rect x="775" y="1035" width="200" height="10" stroke-width="2" stroke="rgb(255,255,255)" fill="rgb(0,0,0)"/>
  <text x="781.25" y="1028.75"
   font-family="Arial" font-size="25" fill="black" >
   200 &#956;m
  </text>
  <text x="25" y="1045"
   font-family="Arial" font-size="18.75" fill="black" >
   0 days, 0 hours, 0 minutes, and 0.7077 seconds
  </text>
  <rect x="0" y="70" width="1000" height="1000" stroke-width="2" stroke="rgb(0,0,0)" fill="none"/>
</svg>
