<?xml version="1.0" encoding="UTF-8" standalone="no"?>
<!-- Created with PhysiCell (http://PhysiCell.MathCancer.org/) -->
<svg 
 xmlns:dc="http://purl.org/dc/elements/1.1/" 
 xmlns:cc="http://creativecommons.org/ns#" 
 xmlns:rdf="http://www.w3.org/1999/02/22-rdf-syntax-ns#" 
 xmlns:svg="http://www.w3.org/2000/svg" 
 xmlns="http://www.w3.org/2000/svg" 
 version="1.1" 
 width="1000" 
 height="1070" 
 id="svg2">
  <rect x="0" y="0" width="1000" height="1070" stroke-width="2" stroke="white" fill="white"/>
  <text x="12.5" y="30"
   font-family="Arial" font-size="25" fill="black" >
   Current time: 1 days, 2 hours, and 33.00 minutes, z = 0.00 &#956;m
  </text>
  <text x="12.5" y="57.5"
   font-family="Arial" font-size="23.75" fill="black" >
   162 agents
  </text>
 <g id="tissue" 
    transform="translate(0,1070) scale(1,-1)">
  <g id="ECM">
  </g>
  <g id="cells">
   <g id="cell0">
  <circle cx="514.912" cy="534.638" r="8.4085" stroke-width="0.5" stroke="black" fill="magenta"/>
  <circle cx="514.912" cy="534.638" r="5.05047" stroke-width="0.5" stroke="black" fill="magenta"/>
   </g>
   <g id="cell1">
  <circle cx="601.474" cy="523.139" r="8.41271" stroke-width="0.5" stroke="black" fill="magenta"/>
  <circle cx="601.474" cy="523.139" r="5.05167" stroke-width="0.5" stroke="black" fill="magenta"/>
   </g>
   <g id="cell2">
  <circle cx="518.866" cy="597.768" r="8.41271" stroke-width="0.5" stroke="black" fill="magenta"/>
  <circle cx="518.866" cy="597.768" r="5.05167" stroke-width="0.5" stroke="black" fill="magenta"/>
   </g>
   <g id="cell3">
  <circle cx="523.824" cy="547.089" r="8.40584" stroke-width="0.5" stroke="black" fill="magenta"/>
  <circle cx="523.824" cy="547.089" r="5.04967" stroke-width="0.5" stroke="black" fill="magenta"/>
   </g>
   <g id="cell4">
  <circle cx="485.649" cy="448.189" r="8.31677" stroke-width="0.5" stroke="black" fill="magenta"/>
  <circle cx="485.649" cy="448.189" r="5.01237" stroke-width="0.5" stroke="black" fill="magenta"/>
   </g>
   <g id="cell5">
  <circle cx="465.032" cy="493.3" r="8.41271" stroke-width="0.5" stroke="black" fill="magenta"/>
  <circle cx="465.032" cy="493.3" r="5.05167" stroke-width="0.5" stroke="black" fill="magenta"/>
   </g>
   <g id="cell6">
  <circle cx="597.207" cy="515.63" r="1.17761" stroke-width="0.5" stroke="black" fill="magenta"/>
  <circle cx="597.207" cy="515.63" r="1.17358" stroke-width="0.5" stroke="black" fill="black"/>
   </g>
   <g id="cell7">
  <circle cx="495.802" cy="459.113" r="8.38028" stroke-width="0.5" stroke="black" fill="magenta"/>
  <circle cx="495.802" cy="459.113" r="5.03997" stroke-width="0.5" stroke="black" fill="magenta"/>
   </g>
   <g id="cell8">
  <circle cx="376.925" cy="548.134" r="6.71158" stroke-width="0.5" stroke="black" fill="magenta"/>
  <circle cx="376.925" cy="548.134" r="4.03435" stroke-width="0.5" stroke="black" fill="magenta"/>
   </g>
   <g id="cell9">
  <circle cx="460.472" cy="599.786" r="1.22129" stroke-width="0.5" stroke="black" fill="magenta"/>
  <circle cx="460.472" cy="599.786" r="1.21615" stroke-width="0.5" stroke="black" fill="black"/>
   </g>
   <g id="cell10">
  <circle cx="586.821" cy="388.884" r="7.59183" stroke-width="0.5" stroke="black" fill="magenta"/>
  <circle cx="586.821" cy="388.884" r="4.61399" stroke-width="0.5" stroke="black" fill="magenta"/>
   </g>
   <g id="cell11">
  <circle cx="592.085" cy="590.052" r="8.41271" stroke-width="0.5" stroke="black" fill="magenta"/>
  <circle cx="592.085" cy="590.052" r="5.05167" stroke-width="0.5" stroke="black" fill="magenta"/>
   </g>
   <g id="cell12">
  <circle cx="505.179" cy="592.107" r="8.13813" stroke-width="0.5" stroke="black" fill="magenta"/>
  <circle cx="505.179" cy="592.107" r="4.92317" stroke-width="0.5" stroke="black" fill="magenta"/>
   </g>
   <g id="cell13">
  <circle cx="389.343" cy="569.523" r="8.41271" stroke-width="0.5" stroke="black" fill="magenta"/>
  <circle cx="389.343" cy="569.523" r="5.05167" stroke-width="0.5" stroke="black" fill="magenta"/>
   </g>
   <g id="cell14">
  <circle cx="522.402" cy="403.82" r="8.41271" stroke-width="0.5" stroke="black" fill="magenta"/>
  <circle cx="522.402" cy="403.82" r="5.05167" stroke-width="0.5" stroke="black" fill="magenta"/>
   </g>
   <g id="cell15">
  <circle cx="382.002" cy="478.874" r="8.26262" stroke-width="0.5" stroke="black" fill="magenta"/>
  <circle cx="382.002" cy="478.874" r="4.98642" stroke-width="0.5" stroke="black" fill="magenta"/>
   </g>
   <g id="cell16">
  <circle cx="438.14" cy="421.808" r="7.47709" stroke-width="0.5" stroke="black" fill="magenta"/>
  <circle cx="438.14" cy="421.808" r="4.58019" stroke-width="0.5" stroke="black" fill="magenta"/>
   </g>
   <g id="cell17">
  <circle cx="571.331" cy="496.308" r="8.41271" stroke-width="0.5" stroke="black" fill="magenta"/>
  <circle cx="571.331" cy="496.308" r="5.05167" stroke-width="0.5" stroke="black" fill="magenta"/>
   </g>
   <g id="cell18">
  <circle cx="517.938" cy="389.173" r="8.41271" stroke-width="0.5" stroke="black" fill="magenta"/>
  <circle cx="517.938" cy="389.173" r="5.05167" stroke-width="0.5" stroke="black" fill="magenta"/>
   </g>
   <g id="cell19">
  <circle cx="457.973" cy="540.613" r="8.37955" stroke-width="0.5" stroke="black" fill="magenta"/>
  <circle cx="457.973" cy="540.613" r="5.03996" stroke-width="0.5" stroke="black" fill="magenta"/>
   </g>
   <g id="cell20">
  <circle cx="531.839" cy="415.727" r="8.41271" stroke-width="0.5" stroke="black" fill="magenta"/>
  <circle cx="531.839" cy="415.727" r="5.05167" stroke-width="0.5" stroke="black" fill="magenta"/>
   </g>
   <g id="cell21">
  <circle cx="466.861" cy="632.284" r="8.41271" stroke-width="0.5" stroke="black" fill="magenta"/>
  <circle cx="466.861" cy="632.284" r="5.05167" stroke-width="0.5" stroke="black" fill="magenta"/>
   </g>
   <g id="cell22">
  <circle cx="555.905" cy="496.552" r="8.41271" stroke-width="0.5" stroke="black" fill="magenta"/>
  <circle cx="555.905" cy="496.552" r="5.05167" stroke-width="0.5" stroke="black" fill="magenta"/>
   </g>
   <g id="cell23">
  <circle cx="548.832" cy="482.392" r="8.41271" stroke-width="0.5" stroke="black" fill="magenta"/>
  <circle cx="548.832" cy="482.392" r="5.05167" stroke-width="0.5" stroke="black" fill="magenta"/>
   </g>
   <g id="cell24">
  <circle cx="558.279" cy="381.509" r="8.41271" stroke-width="0.5" stroke="black" fill="magenta"/>
  <circle cx="558.279" cy="381.509" r="5.05167" stroke-width="0.5" stroke="black" fill="magenta"/>
   </g>
   <g id="cell25">
  <circle cx="648.419" cy="543.076" r="8.41009" stroke-width="0.5" stroke="black" fill="green"/>
  <circle cx="648.419" cy="543.076" r="5.05096" stroke-width="0.5" stroke="black" fill="green"/>
   </g>
   <g id="cell26">
  <circle cx="557.351" cy="397.06" r="8.37935" stroke-width="0.5" stroke="black" fill="green"/>
  <circle cx="557.351" cy="397.06" r="5.0396" stroke-width="0.5" stroke="black" fill="green"/>
   </g>
   <g id="cell27">
  <circle cx="464.711" cy="400.121" r="8.41108" stroke-width="0.5" stroke="black" fill="green"/>
  <circle cx="464.711" cy="400.121" r="5.05125" stroke-width="0.5" stroke="black" fill="green"/>
   </g>
   <g id="cell28">
  <circle cx="434.64" cy="534.92" r="7.38797" stroke-width="0.5" stroke="black" fill="green"/>
  <circle cx="434.64" cy="534.92" r="4.49029" stroke-width="0.5" stroke="black" fill="green"/>
   </g>
   <g id="cell29">
  <circle cx="449.933" cy="513.575" r="8.41271" stroke-width="0.5" stroke="black" fill="green"/>
  <circle cx="449.933" cy="513.575" r="5.05167" stroke-width="0.5" stroke="black" fill="green"/>
   </g>
   <g id="cell30">
  <circle cx="484.843" cy="537.042" r="8.09199" stroke-width="0.5" stroke="black" fill="green"/>
  <circle cx="484.843" cy="537.042" r="4.89951" stroke-width="0.5" stroke="black" fill="green"/>
   </g>
   <g id="cell31">
  <circle cx="412.127" cy="542.357" r="8.41271" stroke-width="0.5" stroke="black" fill="green"/>
  <circle cx="412.127" cy="542.357" r="5.05167" stroke-width="0.5" stroke="black" fill="green"/>
   </g>
   <g id="cell32">
  <circle cx="421.367" cy="481.396" r="1.46704" stroke-width="0.5" stroke="black" fill="green"/>
  <circle cx="421.367" cy="481.396" r="1.44986" stroke-width="0.5" stroke="black" fill="black"/>
   </g>
   <g id="cell33">
  <circle cx="501.962" cy="424.525" r="8.03527" stroke-width="0.5" stroke="black" fill="green"/>
  <circle cx="501.962" cy="424.525" r="4.86813" stroke-width="0.5" stroke="black" fill="green"/>
   </g>
   <g id="cell34">
  <circle cx="396.819" cy="450.575" r="1.50862" stroke-width="0.5" stroke="black" fill="green"/>
  <circle cx="396.819" cy="450.575" r="1.48821" stroke-width="0.5" stroke="black" fill="black"/>
   </g>
   <g id="cell35">
  <circle cx="554.41" cy="544.981" r="8.41271" stroke-width="0.5" stroke="black" fill="green"/>
  <circle cx="554.41" cy="544.981" r="5.05167" stroke-width="0.5" stroke="black" fill="green"/>
   </g>
   <g id="cell36">
  <circle cx="387.775" cy="582.747" r="6.17622" stroke-width="0.5" stroke="black" fill="green"/>
  <circle cx="387.775" cy="582.747" r="3.8169" stroke-width="0.5" stroke="black" fill="green"/>
   </g>
   <g id="cell37">
  <circle cx="640.166" cy="457.178" r="8.41083" stroke-width="0.5" stroke="black" fill="green"/>
  <circle cx="640.166" cy="457.178" r="5.05118" stroke-width="0.5" stroke="black" fill="green"/>
   </g>
   <g id="cell38">
  <circle cx="530.696" cy="591.268" r="6.70984" stroke-width="0.5" stroke="black" fill="green"/>
  <circle cx="530.696" cy="591.268" r="4.03388" stroke-width="0.5" stroke="black" fill="green"/>
   </g>
   <g id="cell39">
  <circle cx="613.256" cy="491.006" r="8.41271" stroke-width="0.5" stroke="black" fill="green"/>
  <circle cx="613.256" cy="491.006" r="5.05167" stroke-width="0.5" stroke="black" fill="green"/>
   </g>
   <g id="cell40">
  <circle cx="485.794" cy="566.902" r="7.21189" stroke-width="0.5" stroke="black" fill="green"/>
  <circle cx="485.794" cy="566.902" r="4.37993" stroke-width="0.5" stroke="black" fill="green"/>
   </g>
   <g id="cell41">
  <circle cx="366.473" cy="482.011" r="8.41271" stroke-width="0.5" stroke="black" fill="green"/>
  <circle cx="366.473" cy="482.011" r="5.05167" stroke-width="0.5" stroke="black" fill="green"/>
   </g>
   <g id="cell42">
  <circle cx="438.571" cy="492.897" r="8.41271" stroke-width="0.5" stroke="black" fill="green"/>
  <circle cx="438.571" cy="492.897" r="5.05167" stroke-width="0.5" stroke="black" fill="green"/>
   </g>
   <g id="cell43">
  <circle cx="560.913" cy="438.054" r="8.41271" stroke-width="0.5" stroke="black" fill="green"/>
  <circle cx="560.913" cy="438.054" r="5.05167" stroke-width="0.5" stroke="black" fill="green"/>
   </g>
   <g id="cell44">
  <circle cx="473.364" cy="626.311" r="1.22129" stroke-width="0.5" stroke="black" fill="green"/>
  <circle cx="473.364" cy="626.311" r="1.21615" stroke-width="0.5" stroke="black" fill="black"/>
   </g>
   <g id="cell145">
  <circle cx="425.356" cy="417.937" r="7.47709" stroke-width="0.5" stroke="black" fill="magenta"/>
  <circle cx="425.356" cy="417.937" r="4.58019" stroke-width="0.5" stroke="black" fill="magenta"/>
   </g>
   <g id="cell46">
  <circle cx="521.161" cy="613.229" r="8.39794" stroke-width="0.5" stroke="black" fill="green"/>
  <circle cx="521.161" cy="613.229" r="5.04681" stroke-width="0.5" stroke="black" fill="green"/>
   </g>
   <g id="cell47">
  <circle cx="503.209" cy="494.573" r="8.40353" stroke-width="0.5" stroke="black" fill="green"/>
  <circle cx="503.209" cy="494.573" r="5.04881" stroke-width="0.5" stroke="black" fill="green"/>
   </g>
   <g id="cell48">
  <circle cx="570.97" cy="604.808" r="8.37889" stroke-width="0.5" stroke="black" fill="green"/>
  <circle cx="570.97" cy="604.808" r="5.03998" stroke-width="0.5" stroke="black" fill="green"/>
   </g>
   <g id="cell49">
  <circle cx="432.026" cy="394.075" r="8.41271" stroke-width="0.5" stroke="black" fill="green"/>
  <circle cx="432.026" cy="394.075" r="5.05167" stroke-width="0.5" stroke="black" fill="green"/>
   </g>
   <g id="cell50">
  <circle cx="512.538" cy="507.828" r="8.36527" stroke-width="0.5" stroke="black" fill="cyan"/>
  <circle cx="512.538" cy="507.828" r="5.03403" stroke-width="0.5" stroke="black" fill="cyan"/>
   </g>
   <g id="cell51">
  <circle cx="401.612" cy="597.156" r="8.41271" stroke-width="0.5" stroke="black" fill="cyan"/>
  <circle cx="401.612" cy="597.156" r="5.05167" stroke-width="0.5" stroke="black" fill="cyan"/>
   </g>
   <g id="cell52">
  <circle cx="516.67" cy="419.223" r="8.41271" stroke-width="0.5" stroke="black" fill="cyan"/>
  <circle cx="516.67" cy="419.223" r="5.05167" stroke-width="0.5" stroke="black" fill="cyan"/>
   </g>
   <g id="cell53">
  <circle cx="572.449" cy="427.111" r="8.40022" stroke-width="0.5" stroke="black" fill="cyan"/>
  <circle cx="572.449" cy="427.111" r="5.04764" stroke-width="0.5" stroke="black" fill="cyan"/>
   </g>
   <g id="cell54">
  <circle cx="480.484" cy="422.135" r="8.40516" stroke-width="0.5" stroke="black" fill="cyan"/>
  <circle cx="480.484" cy="422.135" r="5.04937" stroke-width="0.5" stroke="black" fill="cyan"/>
   </g>
   <g id="cell55">
  <circle cx="522.142" cy="461.408" r="8.4008" stroke-width="0.5" stroke="black" fill="cyan"/>
  <circle cx="522.142" cy="461.408" r="5.04794" stroke-width="0.5" stroke="black" fill="cyan"/>
   </g>
   <g id="cell56">
  <circle cx="617.061" cy="522.404" r="8.41271" stroke-width="0.5" stroke="black" fill="cyan"/>
  <circle cx="617.061" cy="522.404" r="5.05167" stroke-width="0.5" stroke="black" fill="cyan"/>
   </g>
   <g id="cell105">
  <circle cx="507.024" cy="607.041" r="8.0009" stroke-width="0.5" stroke="black" fill="green"/>
  <circle cx="507.024" cy="607.041" r="4.85493" stroke-width="0.5" stroke="black" fill="green"/>
   </g>
   <g id="cell58">
  <circle cx="563.228" cy="484.757" r="7.27253" stroke-width="0.5" stroke="black" fill="cyan"/>
  <circle cx="563.228" cy="484.757" r="4.41835" stroke-width="0.5" stroke="black" fill="cyan"/>
   </g>
   <g id="cell59">
  <circle cx="385.732" cy="440.058" r="8.41271" stroke-width="0.5" stroke="black" fill="cyan"/>
  <circle cx="385.732" cy="440.058" r="5.05167" stroke-width="0.5" stroke="black" fill="cyan"/>
   </g>
   <g id="cell60">
  <circle cx="591.597" cy="474.044" r="8.41271" stroke-width="0.5" stroke="black" fill="cyan"/>
  <circle cx="591.597" cy="474.044" r="5.05167" stroke-width="0.5" stroke="black" fill="cyan"/>
   </g>
   <g id="cell61">
  <circle cx="557.056" cy="621.932" r="2.11603" stroke-width="0.5" stroke="black" fill="cyan"/>
  <circle cx="557.056" cy="621.932" r="1.97902" stroke-width="0.5" stroke="black" fill="black"/>
   </g>
   <g id="cell62">
  <circle cx="512.631" cy="435.519" r="8.34036" stroke-width="0.5" stroke="black" fill="cyan"/>
  <circle cx="512.631" cy="435.519" r="5.02306" stroke-width="0.5" stroke="black" fill="cyan"/>
   </g>
   <g id="cell63">
  <circle cx="585.236" cy="539.9" r="8.24677" stroke-width="0.5" stroke="black" fill="cyan"/>
  <circle cx="585.236" cy="539.9" r="4.97911" stroke-width="0.5" stroke="black" fill="cyan"/>
   </g>
   <g id="cell64">
  <circle cx="509.676" cy="638.603" r="8.41271" stroke-width="0.5" stroke="black" fill="cyan"/>
  <circle cx="509.676" cy="638.603" r="5.05167" stroke-width="0.5" stroke="black" fill="cyan"/>
   </g>
   <g id="cell65">
  <circle cx="548.667" cy="464.496" r="8.4076" stroke-width="0.5" stroke="black" fill="cyan"/>
  <circle cx="548.667" cy="464.496" r="5.05018" stroke-width="0.5" stroke="black" fill="cyan"/>
   </g>
   <g id="cell66">
  <circle cx="530.38" cy="533.364" r="8.40472" stroke-width="0.5" stroke="black" fill="cyan"/>
  <circle cx="530.38" cy="533.364" r="5.04922" stroke-width="0.5" stroke="black" fill="cyan"/>
   </g>
   <g id="cell67">
  <circle cx="354.438" cy="493.053" r="8.41271" stroke-width="0.5" stroke="black" fill="cyan"/>
  <circle cx="354.438" cy="493.053" r="5.05167" stroke-width="0.5" stroke="black" fill="cyan"/>
   </g>
   <g id="cell68">
  <circle cx="562.96" cy="558.208" r="8.41271" stroke-width="0.5" stroke="black" fill="cyan"/>
  <circle cx="562.96" cy="558.208" r="5.05167" stroke-width="0.5" stroke="black" fill="cyan"/>
   </g>
   <g id="cell69">
  <circle cx="441.964" cy="460.859" r="8.41271" stroke-width="0.5" stroke="black" fill="cyan"/>
  <circle cx="441.964" cy="460.859" r="5.05167" stroke-width="0.5" stroke="black" fill="cyan"/>
   </g>
   <g id="cell70">
  <circle cx="577.437" cy="481.478" r="8.41271" stroke-width="0.5" stroke="black" fill="cyan"/>
  <circle cx="577.437" cy="481.478" r="5.05167" stroke-width="0.5" stroke="black" fill="cyan"/>
   </g>
   <g id="cell71">
  <circle cx="382.497" cy="525.163" r="8.38373" stroke-width="0.5" stroke="black" fill="cyan"/>
  <circle cx="382.497" cy="525.163" r="5.04136" stroke-width="0.5" stroke="black" fill="cyan"/>
   </g>
   <g id="cell72">
  <circle cx="528.458" cy="506.33" r="8.40537" stroke-width="0.5" stroke="black" fill="cyan"/>
  <circle cx="528.458" cy="506.33" r="5.04944" stroke-width="0.5" stroke="black" fill="cyan"/>
   </g>
   <g id="cell73">
  <circle cx="364.042" cy="553.303" r="8.40862" stroke-width="0.5" stroke="black" fill="cyan"/>
  <circle cx="364.042" cy="553.303" r="5.0505" stroke-width="0.5" stroke="black" fill="cyan"/>
   </g>
   <g id="cell74">
  <circle cx="548.254" cy="434.121" r="1.15158" stroke-width="0.5" stroke="black" fill="cyan"/>
  <circle cx="548.254" cy="434.121" r="1.14776" stroke-width="0.5" stroke="black" fill="black"/>
   </g>
   <g id="cell75">
  <circle cx="527.773" cy="430.61" r="8.41112" stroke-width="0.5" stroke="black" fill="cyan"/>
  <circle cx="527.773" cy="430.61" r="5.05126" stroke-width="0.5" stroke="black" fill="cyan"/>
   </g>
   <g id="cell76">
  <circle cx="439.204" cy="380.142" r="8.38887" stroke-width="0.5" stroke="black" fill="green"/>
  <circle cx="439.204" cy="380.142" r="5.04378" stroke-width="0.5" stroke="black" fill="green"/>
   </g>
   <g id="cell77">
  <circle cx="475.695" cy="436.971" r="8.39436" stroke-width="0.5" stroke="black" fill="magenta"/>
  <circle cx="475.695" cy="436.971" r="5.04558" stroke-width="0.5" stroke="black" fill="magenta"/>
   </g>
   <g id="cell78">
  <circle cx="624.871" cy="461.923" r="8.40666" stroke-width="0.5" stroke="black" fill="green"/>
  <circle cx="624.871" cy="461.923" r="5.04993" stroke-width="0.5" stroke="black" fill="green"/>
   </g>
   <g id="cell79">
  <circle cx="517.051" cy="477.943" r="8.41061" stroke-width="0.5" stroke="black" fill="cyan"/>
  <circle cx="517.051" cy="477.943" r="5.05111" stroke-width="0.5" stroke="black" fill="cyan"/>
   </g>
   <g id="cell80">
  <circle cx="542.981" cy="616.272" r="8.33944" stroke-width="0.5" stroke="black" fill="green"/>
  <circle cx="542.981" cy="616.272" r="5.02281" stroke-width="0.5" stroke="black" fill="green"/>
   </g>
   <g id="cell81">
  <circle cx="545.365" cy="592.901" r="8.40932" stroke-width="0.5" stroke="black" fill="green"/>
  <circle cx="545.365" cy="592.901" r="5.05076" stroke-width="0.5" stroke="black" fill="green"/>
   </g>
   <g id="cell82">
  <circle cx="532.213" cy="559.336" r="7.96218" stroke-width="0.5" stroke="black" fill="magenta"/>
  <circle cx="532.213" cy="559.336" r="4.82831" stroke-width="0.5" stroke="black" fill="magenta"/>
   </g>
   <g id="cell83">
  <circle cx="635.365" cy="552.141" r="8.29196" stroke-width="0.5" stroke="black" fill="green"/>
  <circle cx="635.365" cy="552.141" r="5.00083" stroke-width="0.5" stroke="black" fill="green"/>
   </g>
   <g id="cell84">
  <circle cx="518.98" cy="493.631" r="8.40884" stroke-width="0.5" stroke="black" fill="cyan"/>
  <circle cx="518.98" cy="493.631" r="5.05057" stroke-width="0.5" stroke="black" fill="cyan"/>
   </g>
   <g id="cell85">
  <circle cx="352.393" cy="542.475" r="8.40122" stroke-width="0.5" stroke="black" fill="cyan"/>
  <circle cx="352.393" cy="542.475" r="5.04813" stroke-width="0.5" stroke="black" fill="cyan"/>
   </g>
   <g id="cell86">
  <circle cx="499.943" cy="535.609" r="8.33042" stroke-width="0.5" stroke="black" fill="magenta"/>
  <circle cx="499.943" cy="535.609" r="5.01879" stroke-width="0.5" stroke="black" fill="magenta"/>
   </g>
   <g id="cell87">
  <circle cx="578.926" cy="557.073" r="8.39645" stroke-width="0.5" stroke="black" fill="cyan"/>
  <circle cx="578.926" cy="557.073" r="5.04644" stroke-width="0.5" stroke="black" fill="cyan"/>
   </g>
   <g id="cell88">
  <circle cx="447.031" cy="533.837" r="6.30171" stroke-width="0.5" stroke="black" fill="magenta"/>
  <circle cx="447.031" cy="533.837" r="3.86653" stroke-width="0.5" stroke="black" fill="magenta"/>
   </g>
   <g id="cell89">
  <circle cx="551.145" cy="449.711" r="7.83111" stroke-width="0.5" stroke="black" fill="cyan"/>
  <circle cx="551.145" cy="449.711" r="4.7677" stroke-width="0.5" stroke="black" fill="cyan"/>
   </g>
   <g id="cell90">
  <circle cx="636.606" cy="472.67" r="8.29356" stroke-width="0.5" stroke="black" fill="green"/>
  <circle cx="636.606" cy="472.67" r="5.00189" stroke-width="0.5" stroke="black" fill="green"/>
   </g>
   <g id="cell91">
  <circle cx="547.195" cy="558.817" r="8.4027" stroke-width="0.5" stroke="black" fill="magenta"/>
  <circle cx="547.195" cy="558.817" r="5.0487" stroke-width="0.5" stroke="black" fill="magenta"/>
   </g>
   <g id="cell92">
  <circle cx="486.325" cy="552.344" r="8.40632" stroke-width="0.5" stroke="black" fill="green"/>
  <circle cx="486.325" cy="552.344" r="5.04976" stroke-width="0.5" stroke="black" fill="green"/>
   </g>
   <g id="cell93">
  <circle cx="538.937" cy="546.194" r="8.4027" stroke-width="0.5" stroke="black" fill="magenta"/>
  <circle cx="538.937" cy="546.194" r="5.0487" stroke-width="0.5" stroke="black" fill="magenta"/>
   </g>
   <g id="cell94">
  <circle cx="540.769" cy="496.281" r="8.40537" stroke-width="0.5" stroke="black" fill="cyan"/>
  <circle cx="540.769" cy="496.281" r="5.04944" stroke-width="0.5" stroke="black" fill="cyan"/>
   </g>
   <g id="cell95">
  <circle cx="464.895" cy="425.813" r="8.40516" stroke-width="0.5" stroke="black" fill="cyan"/>
  <circle cx="464.895" cy="425.813" r="5.04937" stroke-width="0.5" stroke="black" fill="cyan"/>
   </g>
   <g id="cell96">
  <circle cx="545.787" cy="532.164" r="8.18411" stroke-width="0.5" stroke="black" fill="cyan"/>
  <circle cx="545.787" cy="532.164" r="4.94789" stroke-width="0.5" stroke="black" fill="cyan"/>
   </g>
   <g id="cell97">
  <circle cx="421.714" cy="466.577" r="8.3975" stroke-width="0.5" stroke="black" fill="green"/>
  <circle cx="421.714" cy="466.577" r="5.04687" stroke-width="0.5" stroke="black" fill="green"/>
   </g>
   <g id="cell98">
  <circle cx="490.87" cy="523.127" r="8.31296" stroke-width="0.5" stroke="black" fill="green"/>
  <circle cx="490.87" cy="523.127" r="5.01113" stroke-width="0.5" stroke="black" fill="green"/>
   </g>
   <g id="cell99">
  <circle cx="358.371" cy="527.651" r="8.40122" stroke-width="0.5" stroke="black" fill="cyan"/>
  <circle cx="358.371" cy="527.651" r="5.04813" stroke-width="0.5" stroke="black" fill="cyan"/>
   </g>
   <g id="cell100">
  <circle cx="447.273" cy="398.904" r="8.40103" stroke-width="0.5" stroke="black" fill="green"/>
  <circle cx="447.273" cy="398.904" r="5.04801" stroke-width="0.5" stroke="black" fill="green"/>
   </g>
   <g id="cell101">
  <circle cx="531.329" cy="484.447" r="8.16175" stroke-width="0.5" stroke="black" fill="cyan"/>
  <circle cx="531.329" cy="484.447" r="4.93676" stroke-width="0.5" stroke="black" fill="cyan"/>
   </g>
   <g id="cell102">
  <circle cx="435.119" cy="475.409" r="8.3975" stroke-width="0.5" stroke="black" fill="green"/>
  <circle cx="435.119" cy="475.409" r="5.04687" stroke-width="0.5" stroke="black" fill="green"/>
   </g>
   <g id="cell103">
  <circle cx="591.165" cy="447.834" r="8.32845" stroke-width="0.5" stroke="black" fill="cyan"/>
  <circle cx="591.165" cy="447.834" r="5.01836" stroke-width="0.5" stroke="black" fill="cyan"/>
   </g>
   <g id="cell104">
  <circle cx="599.646" cy="556.879" r="7.78617" stroke-width="0.5" stroke="black" fill="cyan"/>
  <circle cx="599.646" cy="556.879" r="4.73041" stroke-width="0.5" stroke="black" fill="cyan"/>
   </g>
   <g id="cell106">
  <circle cx="461.16" cy="440.959" r="8.39436" stroke-width="0.5" stroke="black" fill="magenta"/>
  <circle cx="461.16" cy="440.959" r="5.04558" stroke-width="0.5" stroke="black" fill="magenta"/>
   </g>
   <g id="cell107">
  <circle cx="460.156" cy="388.101" r="5.58811" stroke-width="0.5" stroke="black" fill="green"/>
  <circle cx="460.156" cy="388.101" r="3.40623" stroke-width="0.5" stroke="black" fill="green"/>
   </g>
   <g id="cell108">
  <circle cx="555.008" cy="605.786" r="8.39144" stroke-width="0.5" stroke="black" fill="green"/>
  <circle cx="555.008" cy="605.786" r="5.04437" stroke-width="0.5" stroke="black" fill="green"/>
   </g>
   <g id="cell109">
  <circle cx="576.519" cy="589.845" r="8.37889" stroke-width="0.5" stroke="black" fill="green"/>
  <circle cx="576.519" cy="589.845" r="5.03998" stroke-width="0.5" stroke="black" fill="green"/>
   </g>
   <g id="cell110">
  <circle cx="373.166" cy="512.665" r="8.38373" stroke-width="0.5" stroke="black" fill="cyan"/>
  <circle cx="373.166" cy="512.665" r="5.04136" stroke-width="0.5" stroke="black" fill="cyan"/>
   </g>
   <g id="cell111">
  <circle cx="455.369" cy="555.21" r="8.15749" stroke-width="0.5" stroke="black" fill="magenta"/>
  <circle cx="455.369" cy="555.21" r="4.9361" stroke-width="0.5" stroke="black" fill="magenta"/>
   </g>
   <g id="cell112">
  <circle cx="496.62" cy="473.695" r="7.75869" stroke-width="0.5" stroke="black" fill="magenta"/>
  <circle cx="496.62" cy="473.695" r="4.71613" stroke-width="0.5" stroke="black" fill="magenta"/>
   </g>
   <g id="cell113">
  <circle cx="543.106" cy="391.279" r="7.90413" stroke-width="0.5" stroke="black" fill="green"/>
  <circle cx="543.106" cy="391.279" r="4.79902" stroke-width="0.5" stroke="black" fill="green"/>
   </g>
   <g id="cell114">
  <circle cx="524.263" cy="445.87" r="8.35641" stroke-width="0.5" stroke="black" fill="cyan"/>
  <circle cx="524.263" cy="445.87" r="5.03099" stroke-width="0.5" stroke="black" fill="cyan"/>
   </g>
   <g id="cell115">
  <circle cx="536.782" cy="454.631" r="8.20515" stroke-width="0.5" stroke="black" fill="cyan"/>
  <circle cx="536.782" cy="454.631" r="4.96169" stroke-width="0.5" stroke="black" fill="cyan"/>
   </g>
   <g id="cell116">
  <circle cx="521.561" cy="520.584" r="8.36527" stroke-width="0.5" stroke="black" fill="cyan"/>
  <circle cx="521.561" cy="520.584" r="5.03403" stroke-width="0.5" stroke="black" fill="cyan"/>
   </g>
   <g id="cell117">
  <circle cx="508.452" cy="622.634" r="8.34979" stroke-width="0.5" stroke="black" fill="green"/>
  <circle cx="508.452" cy="622.634" r="5.02787" stroke-width="0.5" stroke="black" fill="green"/>
   </g>
   <g id="cell118">
  <circle cx="509.439" cy="451.373" r="8.34036" stroke-width="0.5" stroke="black" fill="cyan"/>
  <circle cx="509.439" cy="451.373" r="5.02306" stroke-width="0.5" stroke="black" fill="cyan"/>
   </g>
   <g id="cell119">
  <circle cx="533.675" cy="604.192" r="8.33944" stroke-width="0.5" stroke="black" fill="green"/>
  <circle cx="533.675" cy="604.192" r="5.02281" stroke-width="0.5" stroke="black" fill="green"/>
   </g>
   <g id="cell120">
  <circle cx="576.273" cy="442.498" r="8.32845" stroke-width="0.5" stroke="black" fill="cyan"/>
  <circle cx="576.273" cy="442.498" r="5.01836" stroke-width="0.5" stroke="black" fill="cyan"/>
   </g>
   <g id="cell121">
  <circle cx="451.481" cy="369.369" r="8.23261" stroke-width="0.5" stroke="black" fill="green"/>
  <circle cx="451.481" cy="369.369" r="4.97611" stroke-width="0.5" stroke="black" fill="green"/>
   </g>
   <g id="cell122">
  <circle cx="506.231" cy="521.999" r="8.33042" stroke-width="0.5" stroke="black" fill="magenta"/>
  <circle cx="506.231" cy="521.999" r="5.01879" stroke-width="0.5" stroke="black" fill="magenta"/>
   </g>
   <g id="cell123">
  <circle cx="497.099" cy="509.091" r="8.31296" stroke-width="0.5" stroke="black" fill="green"/>
  <circle cx="497.099" cy="509.091" r="5.01113" stroke-width="0.5" stroke="black" fill="green"/>
   </g>
   <g id="cell124">
  <circle cx="490.384" cy="434.056" r="8.31677" stroke-width="0.5" stroke="black" fill="magenta"/>
  <circle cx="490.384" cy="434.056" r="5.01237" stroke-width="0.5" stroke="black" fill="magenta"/>
   </g>
   <g id="cell125">
  <circle cx="621.579" cy="477.47" r="8.29356" stroke-width="0.5" stroke="black" fill="green"/>
  <circle cx="621.579" cy="477.47" r="5.00189" stroke-width="0.5" stroke="black" fill="green"/>
   </g>
   <g id="cell126">
  <circle cx="628.906" cy="566.534" r="8.29196" stroke-width="0.5" stroke="black" fill="green"/>
  <circle cx="628.906" cy="566.534" r="5.00083" stroke-width="0.5" stroke="black" fill="green"/>
   </g>
   <g id="cell127">
  <circle cx="438.239" cy="361.338" r="8.23261" stroke-width="0.5" stroke="black" fill="green"/>
  <circle cx="438.239" cy="361.338" r="4.97611" stroke-width="0.5" stroke="black" fill="green"/>
   </g>
   <g id="cell128">
  <circle cx="372.285" cy="467.707" r="8.26262" stroke-width="0.5" stroke="black" fill="magenta"/>
  <circle cx="372.285" cy="467.707" r="4.98642" stroke-width="0.5" stroke="black" fill="magenta"/>
   </g>
   <g id="cell129">
  <circle cx="570.121" cy="543.908" r="8.24677" stroke-width="0.5" stroke="black" fill="cyan"/>
  <circle cx="570.121" cy="543.908" r="4.97911" stroke-width="0.5" stroke="black" fill="cyan"/>
   </g>
   <g id="cell130">
  <circle cx="540.796" cy="439.093" r="8.20515" stroke-width="0.5" stroke="black" fill="cyan"/>
  <circle cx="540.796" cy="439.093" r="4.96169" stroke-width="0.5" stroke="black" fill="cyan"/>
   </g>
   <g id="cell131">
  <circle cx="537.28" cy="519.254" r="8.18411" stroke-width="0.5" stroke="black" fill="cyan"/>
  <circle cx="537.28" cy="519.254" r="4.94789" stroke-width="0.5" stroke="black" fill="cyan"/>
   </g>
   <g id="cell132">
  <circle cx="443.894" cy="546.156" r="8.15749" stroke-width="0.5" stroke="black" fill="magenta"/>
  <circle cx="443.894" cy="546.156" r="4.9361" stroke-width="0.5" stroke="black" fill="magenta"/>
   </g>
   <g id="cell133">
  <circle cx="573.33" cy="465.984" r="8.17231" stroke-width="0.5" stroke="black" fill="cyan"/>
  <circle cx="573.33" cy="465.984" r="4.94155" stroke-width="0.5" stroke="black" fill="cyan"/>
   </g>
   <g id="cell134">
  <circle cx="534.765" cy="470.058" r="8.16175" stroke-width="0.5" stroke="black" fill="cyan"/>
  <circle cx="534.765" cy="470.058" r="4.93676" stroke-width="0.5" stroke="black" fill="cyan"/>
   </g>
   <g id="cell135">
  <circle cx="516.82" cy="582.88" r="8.13813" stroke-width="0.5" stroke="black" fill="magenta"/>
  <circle cx="516.82" cy="582.88" r="4.92317" stroke-width="0.5" stroke="black" fill="magenta"/>
   </g>
   <g id="cell136">
  <circle cx="472.22" cy="545.508" r="8.09199" stroke-width="0.5" stroke="black" fill="green"/>
  <circle cx="472.22" cy="545.508" r="4.89951" stroke-width="0.5" stroke="black" fill="green"/>
   </g>
   <g id="cell137">
  <circle cx="492.772" cy="611.936" r="8.0009" stroke-width="0.5" stroke="black" fill="green"/>
  <circle cx="492.772" cy="611.936" r="4.85493" stroke-width="0.5" stroke="black" fill="green"/>
   </g>
   <g id="cell138">
  <circle cx="500.195" cy="409.527" r="8.03527" stroke-width="0.5" stroke="black" fill="green"/>
  <circle cx="500.195" cy="409.527" r="4.86813" stroke-width="0.5" stroke="black" fill="green"/>
   </g>
   <g id="cell139">
  <circle cx="421.524" cy="404.739" r="7.97646" stroke-width="0.5" stroke="black" fill="magenta"/>
  <circle cx="421.524" cy="404.739" r="4.83584" stroke-width="0.5" stroke="black" fill="magenta"/>
   </g>
   <g id="cell140">
  <circle cx="524.211" cy="570.817" r="7.53872" stroke-width="0.5" stroke="black" fill="magenta"/>
  <circle cx="524.211" cy="570.817" r="4.6059" stroke-width="0.5" stroke="black" fill="magenta"/>
   </g>
   <g id="cell141">
  <circle cx="565.36" cy="453.045" r="7.83111" stroke-width="0.5" stroke="black" fill="cyan"/>
  <circle cx="565.36" cy="453.045" r="4.7677" stroke-width="0.5" stroke="black" fill="cyan"/>
   </g>
   <g id="cell142">
  <circle cx="551.329" cy="427.516" r="6.56929" stroke-width="0.5" stroke="black" fill="green"/>
  <circle cx="551.329" cy="427.516" r="4.04165" stroke-width="0.5" stroke="black" fill="green"/>
   </g>
   <g id="cell143">
  <circle cx="435.301" cy="408.469" r="7.68228" stroke-width="0.5" stroke="black" fill="magenta"/>
  <circle cx="435.301" cy="408.469" r="4.68683" stroke-width="0.5" stroke="black" fill="magenta"/>
   </g>
   <g id="cell144">
  <circle cx="546.945" cy="408.1" r="6.49437" stroke-width="0.5" stroke="black" fill="green"/>
  <circle cx="546.945" cy="408.1" r="3.99431" stroke-width="0.5" stroke="black" fill="green"/>
   </g>
   <g id="cell146">
  <circle cx="588.847" cy="548.772" r="1.81385" stroke-width="0.5" stroke="black" fill="cyan"/>
  <circle cx="588.847" cy="548.772" r="1.68471" stroke-width="0.5" stroke="black" fill="black"/>
   </g>
   <g id="cell147">
  <circle cx="517.826" cy="559.641" r="7.53872" stroke-width="0.5" stroke="black" fill="magenta"/>
  <circle cx="517.826" cy="559.641" r="4.6059" stroke-width="0.5" stroke="black" fill="magenta"/>
   </g>
   <g id="cell148">
  <circle cx="508.23" cy="466.166" r="7.75869" stroke-width="0.5" stroke="black" fill="magenta"/>
  <circle cx="508.23" cy="466.166" r="4.71613" stroke-width="0.5" stroke="black" fill="magenta"/>
   </g>
   <g id="cell149">
  <circle cx="576.778" cy="398.133" r="7.59183" stroke-width="0.5" stroke="black" fill="magenta"/>
  <circle cx="576.778" cy="398.133" r="4.61399" stroke-width="0.5" stroke="black" fill="magenta"/>
   </g>
   <g id="cell150">
  <circle cx="400.171" cy="579.733" r="7.49456" stroke-width="0.5" stroke="black" fill="green"/>
  <circle cx="400.171" cy="579.733" r="4.55548" stroke-width="0.5" stroke="black" fill="green"/>
   </g>
   <g id="cell151">
  <circle cx="421.397" cy="530.567" r="7.38797" stroke-width="0.5" stroke="black" fill="green"/>
  <circle cx="421.397" cy="530.567" r="4.49029" stroke-width="0.5" stroke="black" fill="green"/>
   </g>
   <g id="cell152">
  <circle cx="377.284" cy="576.878" r="6.74469" stroke-width="0.5" stroke="black" fill="green"/>
  <circle cx="377.284" cy="576.878" r="4.13892" stroke-width="0.5" stroke="black" fill="green"/>
   </g>
   <g id="cell153">
  <circle cx="560.309" cy="472.173" r="7.27253" stroke-width="0.5" stroke="black" fill="cyan"/>
  <circle cx="560.309" cy="472.173" r="4.41835" stroke-width="0.5" stroke="black" fill="cyan"/>
   </g>
   <g id="cell154">
  <circle cx="388.21" cy="594.178" r="6.17622" stroke-width="0.5" stroke="black" fill="green"/>
  <circle cx="388.21" cy="594.178" r="3.8169" stroke-width="0.5" stroke="black" fill="green"/>
   </g>
   <g id="cell155">
  <circle cx="484.615" cy="580.368" r="7.21189" stroke-width="0.5" stroke="black" fill="green"/>
  <circle cx="484.615" cy="580.368" r="4.37993" stroke-width="0.5" stroke="black" fill="green"/>
   </g>
   <g id="cell156">
  <circle cx="456.355" cy="526.488" r="7.20851" stroke-width="0.5" stroke="black" fill="magenta"/>
  <circle cx="456.355" cy="526.488" r="4.37886" stroke-width="0.5" stroke="black" fill="magenta"/>
   </g>
   <g id="cell157">
  <circle cx="441.697" cy="524.208" r="6.30171" stroke-width="0.5" stroke="black" fill="magenta"/>
  <circle cx="441.697" cy="524.208" r="3.86653" stroke-width="0.5" stroke="black" fill="magenta"/>
   </g>
   <g id="cell158">
  <circle cx="556.143" cy="416.107" r="6.56929" stroke-width="0.5" stroke="black" fill="green"/>
  <circle cx="556.143" cy="416.107" r="4.04165" stroke-width="0.5" stroke="black" fill="green"/>
   </g>
   <g id="cell159">
  <circle cx="536.075" cy="402.845" r="6.49437" stroke-width="0.5" stroke="black" fill="green"/>
  <circle cx="536.075" cy="402.845" r="3.99431" stroke-width="0.5" stroke="black" fill="green"/>
   </g>
   <g id="cell160">
  <circle cx="463.674" cy="376.959" r="6.89331" stroke-width="0.5" stroke="black" fill="green"/>
  <circle cx="463.674" cy="376.959" r="4.18696" stroke-width="0.5" stroke="black" fill="green"/>
   </g>
   <g id="cell161">
  <circle cx="451.917" cy="382.16" r="5.58811" stroke-width="0.5" stroke="black" fill="green"/>
  <circle cx="451.917" cy="382.16" r="3.40623" stroke-width="0.5" stroke="black" fill="green"/>
   </g>
   <g id="cell162">
  <circle cx="374.825" cy="536.451" r="6.71158" stroke-width="0.5" stroke="black" fill="magenta"/>
  <circle cx="374.825" cy="536.451" r="4.03435" stroke-width="0.5" stroke="black" fill="magenta"/>
   </g>
   <g id="cell163">
  <circle cx="532.655" cy="579.752" r="6.70984" stroke-width="0.5" stroke="black" fill="green"/>
  <circle cx="532.655" cy="579.752" r="4.03388" stroke-width="0.5" stroke="black" fill="green"/>
   </g>
  </g>
 </g>
  <rect x="775" y="1035" width="200" height="10" stroke-width="2" stroke="rgb(255,255,255)" fill="rgb(0,0,0)"/>
  <text x="781.25" y="1028.75"
   font-family="Arial" font-size="25" fill="black" >
   200 &#956;m
  </text>
  <text x="25" y="1045"
   font-family="Arial" font-size="18.75" fill="black" >
   0 days, 0 hours, 0 minutes, and 31.6342 seconds
  </text>
  <rect x="0" y="70" width="1000" height="1000" stroke-width="2" stroke="rgb(0,0,0)" fill="none"/>
</svg>
