<?xml version="1.0" encoding="UTF-8" standalone="no"?>
<!-- Created with PhysiCell (http://PhysiCell.MathCancer.org/) -->
<svg 
 xmlns:dc="http://purl.org/dc/elements/1.1/" 
 xmlns:cc="http://creativecommons.org/ns#" 
 xmlns:rdf="http://www.w3.org/1999/02/22-rdf-syntax-ns#" 
 xmlns:svg="http://www.w3.org/2000/svg" 
 xmlns="http://www.w3.org/2000/svg" 
 version="1.1" 
 width="1000" 
 height="1070" 
 id="svg2">
  <rect x="0" y="0" width="1000" height="1070" stroke-width="2" stroke="white" fill="white"/>
  <text x="12.5" y="30"
   font-family="Arial" font-size="25" fill="black" >
   Current time: 1 days, 9 hours, and 3.00 minutes, z = 0.00 &#956;m
  </text>
  <text x="12.5" y="57.5"
   font-family="Arial" font-size="23.75" fill="black" >
   182 agents
  </text>
 <g id="tissue" 
    transform="translate(0,1070) scale(1,-1)">
  <g id="ECM">
  </g>
  <g id="cells">
   <g id="cell0">
  <circle cx="512.788" cy="537.847" r="8.41202" stroke-width="0.5" stroke="black" fill="magenta"/>
  <circle cx="512.788" cy="537.847" r="5.0515" stroke-width="0.5" stroke="black" fill="magenta"/>
   </g>
   <g id="cell1">
  <circle cx="593.54" cy="526.748" r="8.00101" stroke-width="0.5" stroke="black" fill="magenta"/>
  <circle cx="593.54" cy="526.748" r="4.84939" stroke-width="0.5" stroke="black" fill="magenta"/>
   </g>
   <g id="cell2">
  <circle cx="516.617" cy="598.933" r="8.41271" stroke-width="0.5" stroke="black" fill="magenta"/>
  <circle cx="516.617" cy="598.933" r="5.05167" stroke-width="0.5" stroke="black" fill="magenta"/>
   </g>
   <g id="cell3">
  <circle cx="524.154" cy="548.276" r="8.41158" stroke-width="0.5" stroke="black" fill="magenta"/>
  <circle cx="524.154" cy="548.276" r="5.0514" stroke-width="0.5" stroke="black" fill="magenta"/>
   </g>
   <g id="cell4">
  <circle cx="484.989" cy="447.004" r="8.39737" stroke-width="0.5" stroke="black" fill="magenta"/>
  <circle cx="484.989" cy="447.004" r="5.04663" stroke-width="0.5" stroke="black" fill="magenta"/>
   </g>
   <g id="cell5">
  <circle cx="466.885" cy="490.176" r="8.41271" stroke-width="0.5" stroke="black" fill="magenta"/>
  <circle cx="466.885" cy="490.176" r="5.05167" stroke-width="0.5" stroke="black" fill="magenta"/>
   </g>
   <g id="cell163">
  <circle cx="540.34" cy="574.363" r="8.10429" stroke-width="0.5" stroke="black" fill="green"/>
  <circle cx="540.34" cy="574.363" r="4.90535" stroke-width="0.5" stroke="black" fill="green"/>
   </g>
   <g id="cell7">
  <circle cx="496.598" cy="455.798" r="7.94751" stroke-width="0.5" stroke="black" fill="magenta"/>
  <circle cx="496.598" cy="455.798" r="4.82049" stroke-width="0.5" stroke="black" fill="magenta"/>
   </g>
   <g id="cell8">
  <circle cx="378.502" cy="551.857" r="8.10448" stroke-width="0.5" stroke="black" fill="magenta"/>
  <circle cx="378.502" cy="551.857" r="4.90539" stroke-width="0.5" stroke="black" fill="magenta"/>
   </g>
   <g id="cell161">
  <circle cx="451.461" cy="382.04" r="7.99192" stroke-width="0.5" stroke="black" fill="green"/>
  <circle cx="451.461" cy="382.04" r="4.85527" stroke-width="0.5" stroke="black" fill="green"/>
   </g>
   <g id="cell10">
  <circle cx="586.279" cy="389.371" r="8.28629" stroke-width="0.5" stroke="black" fill="magenta"/>
  <circle cx="586.279" cy="389.371" r="4.99786" stroke-width="0.5" stroke="black" fill="magenta"/>
   </g>
   <g id="cell11">
  <circle cx="592.141" cy="590.053" r="8.41271" stroke-width="0.5" stroke="black" fill="magenta"/>
  <circle cx="592.141" cy="590.053" r="5.05167" stroke-width="0.5" stroke="black" fill="magenta"/>
   </g>
   <g id="cell12">
  <circle cx="502.668" cy="592.783" r="8.36972" stroke-width="0.5" stroke="black" fill="magenta"/>
  <circle cx="502.668" cy="592.783" r="5.03563" stroke-width="0.5" stroke="black" fill="magenta"/>
   </g>
   <g id="cell13">
  <circle cx="384.084" cy="565.843" r="8.41271" stroke-width="0.5" stroke="black" fill="magenta"/>
  <circle cx="384.084" cy="565.843" r="5.05167" stroke-width="0.5" stroke="black" fill="magenta"/>
   </g>
   <g id="cell14">
  <circle cx="520.347" cy="403.965" r="8.41271" stroke-width="0.5" stroke="black" fill="magenta"/>
  <circle cx="520.347" cy="403.965" r="5.05167" stroke-width="0.5" stroke="black" fill="magenta"/>
   </g>
   <g id="cell15">
  <circle cx="381.849" cy="479.113" r="8.38891" stroke-width="0.5" stroke="black" fill="magenta"/>
  <circle cx="381.849" cy="479.113" r="5.0434" stroke-width="0.5" stroke="black" fill="magenta"/>
   </g>
   <g id="cell16">
  <circle cx="444.706" cy="418.363" r="8.27452" stroke-width="0.5" stroke="black" fill="magenta"/>
  <circle cx="444.706" cy="418.363" r="4.99615" stroke-width="0.5" stroke="black" fill="magenta"/>
   </g>
   <g id="cell17">
  <circle cx="573.662" cy="493.874" r="7.30216" stroke-width="0.5" stroke="black" fill="magenta"/>
  <circle cx="573.662" cy="493.874" r="4.43696" stroke-width="0.5" stroke="black" fill="magenta"/>
   </g>
   <g id="cell18">
  <circle cx="517.659" cy="389.163" r="8.41271" stroke-width="0.5" stroke="black" fill="magenta"/>
  <circle cx="517.659" cy="389.163" r="5.05167" stroke-width="0.5" stroke="black" fill="magenta"/>
   </g>
   <g id="cell19">
  <circle cx="457.853" cy="541.376" r="8.40733" stroke-width="0.5" stroke="black" fill="magenta"/>
  <circle cx="457.853" cy="541.376" r="5.05012" stroke-width="0.5" stroke="black" fill="magenta"/>
   </g>
   <g id="cell20">
  <circle cx="531.253" cy="414.386" r="8.41271" stroke-width="0.5" stroke="black" fill="magenta"/>
  <circle cx="531.253" cy="414.386" r="5.05167" stroke-width="0.5" stroke="black" fill="magenta"/>
   </g>
   <g id="cell21">
  <circle cx="466.883" cy="632.265" r="8.41271" stroke-width="0.5" stroke="black" fill="magenta"/>
  <circle cx="466.883" cy="632.265" r="5.05167" stroke-width="0.5" stroke="black" fill="magenta"/>
   </g>
   <g id="cell22">
  <circle cx="560.13" cy="493.693" r="7.59183" stroke-width="0.5" stroke="black" fill="magenta"/>
  <circle cx="560.13" cy="493.693" r="4.61399" stroke-width="0.5" stroke="black" fill="magenta"/>
   </g>
   <g id="cell23">
  <circle cx="553.069" cy="480.863" r="8.41271" stroke-width="0.5" stroke="black" fill="magenta"/>
  <circle cx="553.069" cy="480.863" r="5.05167" stroke-width="0.5" stroke="black" fill="magenta"/>
   </g>
   <g id="cell24">
  <circle cx="561.416" cy="384.637" r="8.41271" stroke-width="0.5" stroke="black" fill="magenta"/>
  <circle cx="561.416" cy="384.637" r="5.05167" stroke-width="0.5" stroke="black" fill="magenta"/>
   </g>
   <g id="cell25">
  <circle cx="648.234" cy="543.205" r="8.41228" stroke-width="0.5" stroke="black" fill="green"/>
  <circle cx="648.234" cy="543.205" r="5.05157" stroke-width="0.5" stroke="black" fill="green"/>
   </g>
   <g id="cell26">
  <circle cx="557.897" cy="399.765" r="8.40731" stroke-width="0.5" stroke="black" fill="green"/>
  <circle cx="557.897" cy="399.765" r="5.05008" stroke-width="0.5" stroke="black" fill="green"/>
   </g>
   <g id="cell27">
  <circle cx="463.619" cy="405.575" r="8.41244" stroke-width="0.5" stroke="black" fill="green"/>
  <circle cx="463.619" cy="405.575" r="5.05161" stroke-width="0.5" stroke="black" fill="green"/>
   </g>
   <g id="cell28">
  <circle cx="429.296" cy="538.991" r="8.25377" stroke-width="0.5" stroke="black" fill="green"/>
  <circle cx="429.296" cy="538.991" r="4.98209" stroke-width="0.5" stroke="black" fill="green"/>
   </g>
   <g id="cell29">
  <circle cx="449.677" cy="514.809" r="4.08903" stroke-width="0.5" stroke="black" fill="green"/>
  <circle cx="449.677" cy="514.809" r="2.87491" stroke-width="0.5" stroke="black" fill="black"/>
   </g>
   <g id="cell30">
  <circle cx="481.875" cy="536.859" r="8.36267" stroke-width="0.5" stroke="black" fill="green"/>
  <circle cx="481.875" cy="536.859" r="5.03275" stroke-width="0.5" stroke="black" fill="green"/>
   </g>
   <g id="cell31">
  <circle cx="412.489" cy="542.729" r="8.41271" stroke-width="0.5" stroke="black" fill="green"/>
  <circle cx="412.489" cy="542.729" r="5.05167" stroke-width="0.5" stroke="black" fill="green"/>
   </g>
   <g id="cell169">
  <circle cx="523.95" cy="497.224" r="7.87783" stroke-width="0.5" stroke="black" fill="cyan"/>
  <circle cx="523.95" cy="497.224" r="4.78077" stroke-width="0.5" stroke="black" fill="cyan"/>
   </g>
   <g id="cell33">
  <circle cx="500.923" cy="422.562" r="8.35404" stroke-width="0.5" stroke="black" fill="green"/>
  <circle cx="500.923" cy="422.562" r="5.02894" stroke-width="0.5" stroke="black" fill="green"/>
   </g>
   <g id="cell168">
  <circle cx="382.877" cy="517.146" r="7.89106" stroke-width="0.5" stroke="black" fill="cyan"/>
  <circle cx="382.877" cy="517.146" r="4.78875" stroke-width="0.5" stroke="black" fill="cyan"/>
   </g>
   <g id="cell35">
  <circle cx="555.619" cy="548.089" r="8.41271" stroke-width="0.5" stroke="black" fill="green"/>
  <circle cx="555.619" cy="548.089" r="5.05167" stroke-width="0.5" stroke="black" fill="green"/>
   </g>
   <g id="cell36">
  <circle cx="385.143" cy="581.328" r="8.10475" stroke-width="0.5" stroke="black" fill="green"/>
  <circle cx="385.143" cy="581.328" r="4.91528" stroke-width="0.5" stroke="black" fill="green"/>
   </g>
   <g id="cell37">
  <circle cx="640.347" cy="456.876" r="8.4124" stroke-width="0.5" stroke="black" fill="green"/>
  <circle cx="640.347" cy="456.876" r="5.0516" stroke-width="0.5" stroke="black" fill="green"/>
   </g>
   <g id="cell38">
  <circle cx="529.111" cy="588.847" r="8.10429" stroke-width="0.5" stroke="black" fill="green"/>
  <circle cx="529.111" cy="588.847" r="4.90535" stroke-width="0.5" stroke="black" fill="green"/>
   </g>
   <g id="cell39">
  <circle cx="610.501" cy="486.291" r="7.3599" stroke-width="0.5" stroke="black" fill="green"/>
  <circle cx="610.501" cy="486.291" r="4.47294" stroke-width="0.5" stroke="black" fill="green"/>
   </g>
   <g id="cell40">
  <circle cx="485.886" cy="567.108" r="8.2239" stroke-width="0.5" stroke="black" fill="green"/>
  <circle cx="485.886" cy="567.108" r="4.96725" stroke-width="0.5" stroke="black" fill="green"/>
   </g>
   <g id="cell41">
  <circle cx="366.564" cy="482.118" r="8.41271" stroke-width="0.5" stroke="black" fill="green"/>
  <circle cx="366.564" cy="482.118" r="5.05167" stroke-width="0.5" stroke="black" fill="green"/>
   </g>
   <g id="cell42">
  <circle cx="438.334" cy="491.698" r="8.41271" stroke-width="0.5" stroke="black" fill="green"/>
  <circle cx="438.334" cy="491.698" r="5.05167" stroke-width="0.5" stroke="black" fill="green"/>
   </g>
   <g id="cell43">
  <circle cx="562.95" cy="440.121" r="8.41271" stroke-width="0.5" stroke="black" fill="green"/>
  <circle cx="562.95" cy="440.121" r="5.05167" stroke-width="0.5" stroke="black" fill="green"/>
   </g>
   <g id="cell164">
  <circle cx="397.818" cy="573.213" r="7.9798" stroke-width="0.5" stroke="black" fill="green"/>
  <circle cx="397.818" cy="573.213" r="4.84633" stroke-width="0.5" stroke="black" fill="green"/>
   </g>
   <g id="cell145">
  <circle cx="419.375" cy="420.645" r="7.18042" stroke-width="0.5" stroke="black" fill="magenta"/>
  <circle cx="419.375" cy="420.645" r="4.38005" stroke-width="0.5" stroke="black" fill="magenta"/>
   </g>
   <g id="cell46">
  <circle cx="517.509" cy="615.996" r="8.4103" stroke-width="0.5" stroke="black" fill="green"/>
  <circle cx="517.509" cy="615.996" r="5.05102" stroke-width="0.5" stroke="black" fill="green"/>
   </g>
   <g id="cell47">
  <circle cx="490.465" cy="492.182" r="8.41121" stroke-width="0.5" stroke="black" fill="green"/>
  <circle cx="490.465" cy="492.182" r="5.05128" stroke-width="0.5" stroke="black" fill="green"/>
   </g>
   <g id="cell48">
  <circle cx="572.365" cy="604.973" r="8.40722" stroke-width="0.5" stroke="black" fill="green"/>
  <circle cx="572.365" cy="604.973" r="5.05012" stroke-width="0.5" stroke="black" fill="green"/>
   </g>
   <g id="cell49">
  <circle cx="439.612" cy="390.762" r="7.89373" stroke-width="0.5" stroke="black" fill="green"/>
  <circle cx="439.612" cy="390.762" r="4.78957" stroke-width="0.5" stroke="black" fill="green"/>
   </g>
   <g id="cell50">
  <circle cx="507.272" cy="508.861" r="8.40505" stroke-width="0.5" stroke="black" fill="cyan"/>
  <circle cx="507.272" cy="508.861" r="5.04936" stroke-width="0.5" stroke="black" fill="cyan"/>
   </g>
   <g id="cell51">
  <circle cx="402.805" cy="597.355" r="8.41271" stroke-width="0.5" stroke="black" fill="cyan"/>
  <circle cx="402.805" cy="597.355" r="5.05167" stroke-width="0.5" stroke="black" fill="cyan"/>
   </g>
   <g id="cell52">
  <circle cx="516.421" cy="418.878" r="8.41271" stroke-width="0.5" stroke="black" fill="cyan"/>
  <circle cx="516.421" cy="418.878" r="5.05167" stroke-width="0.5" stroke="black" fill="cyan"/>
   </g>
   <g id="cell53">
  <circle cx="571.225" cy="426.707" r="8.41067" stroke-width="0.5" stroke="black" fill="cyan"/>
  <circle cx="571.225" cy="426.707" r="5.05113" stroke-width="0.5" stroke="black" fill="cyan"/>
   </g>
   <g id="cell54">
  <circle cx="478.279" cy="420.982" r="8.41147" stroke-width="0.5" stroke="black" fill="cyan"/>
  <circle cx="478.279" cy="420.982" r="5.05136" stroke-width="0.5" stroke="black" fill="cyan"/>
   </g>
   <g id="cell55">
  <circle cx="521.766" cy="459.07" r="8.41076" stroke-width="0.5" stroke="black" fill="cyan"/>
  <circle cx="521.766" cy="459.07" r="5.05117" stroke-width="0.5" stroke="black" fill="cyan"/>
   </g>
   <g id="cell56">
  <circle cx="621.663" cy="522.779" r="8.41271" stroke-width="0.5" stroke="black" fill="cyan"/>
  <circle cx="621.663" cy="522.779" r="5.05167" stroke-width="0.5" stroke="black" fill="cyan"/>
   </g>
   <g id="cell105">
  <circle cx="504.087" cy="608.018" r="8.3489" stroke-width="0.5" stroke="black" fill="green"/>
  <circle cx="504.087" cy="608.018" r="5.02736" stroke-width="0.5" stroke="black" fill="green"/>
   </g>
   <g id="cell58">
  <circle cx="567.863" cy="481.124" r="8.23444" stroke-width="0.5" stroke="black" fill="cyan"/>
  <circle cx="567.863" cy="481.124" r="4.97252" stroke-width="0.5" stroke="black" fill="cyan"/>
   </g>
   <g id="cell59">
  <circle cx="385.732" cy="440.058" r="8.41271" stroke-width="0.5" stroke="black" fill="cyan"/>
  <circle cx="385.732" cy="440.058" r="5.05167" stroke-width="0.5" stroke="black" fill="cyan"/>
   </g>
   <g id="cell60">
  <circle cx="591.028" cy="468.746" r="7.65871" stroke-width="0.5" stroke="black" fill="cyan"/>
  <circle cx="591.028" cy="468.746" r="4.6537" stroke-width="0.5" stroke="black" fill="cyan"/>
   </g>
   <g id="cell186">
  <circle cx="356.752" cy="563.124" r="6.61891" stroke-width="0.5" stroke="black" fill="cyan"/>
  <circle cx="356.752" cy="563.124" r="4.06115" stroke-width="0.5" stroke="black" fill="cyan"/>
   </g>
   <g id="cell62">
  <circle cx="514.775" cy="433.612" r="7.56121" stroke-width="0.5" stroke="black" fill="cyan"/>
  <circle cx="514.775" cy="433.612" r="4.59755" stroke-width="0.5" stroke="black" fill="cyan"/>
   </g>
   <g id="cell63">
  <circle cx="586.275" cy="540.041" r="8.38644" stroke-width="0.5" stroke="black" fill="cyan"/>
  <circle cx="586.275" cy="540.041" r="5.04249" stroke-width="0.5" stroke="black" fill="cyan"/>
   </g>
   <g id="cell64">
  <circle cx="509.582" cy="638.735" r="8.41271" stroke-width="0.5" stroke="black" fill="cyan"/>
  <circle cx="509.582" cy="638.735" r="5.05167" stroke-width="0.5" stroke="black" fill="cyan"/>
   </g>
   <g id="cell65">
  <circle cx="546.023" cy="465.979" r="8.41187" stroke-width="0.5" stroke="black" fill="cyan"/>
  <circle cx="546.023" cy="465.979" r="5.05147" stroke-width="0.5" stroke="black" fill="cyan"/>
   </g>
   <g id="cell66">
  <circle cx="531.218" cy="534.726" r="8.4114" stroke-width="0.5" stroke="black" fill="cyan"/>
  <circle cx="531.218" cy="534.726" r="5.05134" stroke-width="0.5" stroke="black" fill="cyan"/>
   </g>
   <g id="cell67">
  <circle cx="354.664" cy="492.849" r="8.41271" stroke-width="0.5" stroke="black" fill="cyan"/>
  <circle cx="354.664" cy="492.849" r="5.05167" stroke-width="0.5" stroke="black" fill="cyan"/>
   </g>
   <g id="cell68">
  <circle cx="557.282" cy="558.285" r="2.47369" stroke-width="0.5" stroke="black" fill="cyan"/>
  <circle cx="557.282" cy="558.285" r="2.20257" stroke-width="0.5" stroke="black" fill="black"/>
   </g>
   <g id="cell69">
  <circle cx="441.653" cy="461.308" r="8.41271" stroke-width="0.5" stroke="black" fill="cyan"/>
  <circle cx="441.653" cy="461.308" r="5.05167" stroke-width="0.5" stroke="black" fill="cyan"/>
   </g>
   <g id="cell70">
  <circle cx="583.036" cy="482.476" r="8.41271" stroke-width="0.5" stroke="black" fill="cyan"/>
  <circle cx="583.036" cy="482.476" r="5.05167" stroke-width="0.5" stroke="black" fill="cyan"/>
   </g>
   <g id="cell71">
  <circle cx="385.886" cy="531.524" r="6.56406" stroke-width="0.5" stroke="black" fill="cyan"/>
  <circle cx="385.886" cy="531.524" r="4.05411" stroke-width="0.5" stroke="black" fill="black"/>
   </g>
   <g id="cell72">
  <circle cx="535.448" cy="505.897" r="7.87783" stroke-width="0.5" stroke="black" fill="cyan"/>
  <circle cx="535.448" cy="505.897" r="4.78077" stroke-width="0.5" stroke="black" fill="cyan"/>
   </g>
   <g id="cell73">
  <circle cx="364.059" cy="549.218" r="7.51934" stroke-width="0.5" stroke="black" fill="cyan"/>
  <circle cx="364.059" cy="549.218" r="4.57061" stroke-width="0.5" stroke="black" fill="cyan"/>
   </g>
   <g id="cell162">
  <circle cx="373.38" cy="538.154" r="8.10448" stroke-width="0.5" stroke="black" fill="magenta"/>
  <circle cx="373.38" cy="538.154" r="4.90539" stroke-width="0.5" stroke="black" fill="magenta"/>
   </g>
   <g id="cell75">
  <circle cx="529.075" cy="429.426" r="8.41245" stroke-width="0.5" stroke="black" fill="cyan"/>
  <circle cx="529.075" cy="429.426" r="5.05161" stroke-width="0.5" stroke="black" fill="cyan"/>
   </g>
   <g id="cell76">
  <circle cx="437.286" cy="375.529" r="8.40882" stroke-width="0.5" stroke="black" fill="green"/>
  <circle cx="437.286" cy="375.529" r="5.05061" stroke-width="0.5" stroke="black" fill="green"/>
   </g>
   <g id="cell77">
  <circle cx="474.357" cy="436.297" r="8.40972" stroke-width="0.5" stroke="black" fill="magenta"/>
  <circle cx="474.357" cy="436.297" r="5.05086" stroke-width="0.5" stroke="black" fill="magenta"/>
   </g>
   <g id="cell78">
  <circle cx="625.101" cy="461.659" r="8.41171" stroke-width="0.5" stroke="black" fill="green"/>
  <circle cx="625.101" cy="461.659" r="5.05143" stroke-width="0.5" stroke="black" fill="green"/>
   </g>
   <g id="cell79">
  <circle cx="521.939" cy="473.987" r="8.41236" stroke-width="0.5" stroke="black" fill="cyan"/>
  <circle cx="521.939" cy="473.987" r="5.05159" stroke-width="0.5" stroke="black" fill="cyan"/>
   </g>
   <g id="cell80">
  <circle cx="545.108" cy="618.497" r="8.40094" stroke-width="0.5" stroke="black" fill="green"/>
  <circle cx="545.108" cy="618.497" r="5.04794" stroke-width="0.5" stroke="black" fill="green"/>
   </g>
   <g id="cell81">
  <circle cx="545.636" cy="589.189" r="8.41215" stroke-width="0.5" stroke="black" fill="green"/>
  <circle cx="545.636" cy="589.189" r="5.05154" stroke-width="0.5" stroke="black" fill="green"/>
   </g>
   <g id="cell82">
  <circle cx="532.378" cy="561.042" r="8.34295" stroke-width="0.5" stroke="black" fill="magenta"/>
  <circle cx="532.378" cy="561.042" r="5.02411" stroke-width="0.5" stroke="black" fill="magenta"/>
   </g>
   <g id="cell83">
  <circle cx="635.468" cy="552.193" r="2.56365" stroke-width="0.5" stroke="black" fill="green"/>
  <circle cx="635.468" cy="552.193" r="2.25184" stroke-width="0.5" stroke="black" fill="black"/>
   </g>
   <g id="cell84">
  <circle cx="515.218" cy="486.393" r="7.11771" stroke-width="0.5" stroke="black" fill="cyan"/>
  <circle cx="515.218" cy="486.393" r="4.31942" stroke-width="0.5" stroke="black" fill="cyan"/>
   </g>
   <g id="cell85">
  <circle cx="351.009" cy="541.655" r="8.41083" stroke-width="0.5" stroke="black" fill="cyan"/>
  <circle cx="351.009" cy="541.655" r="5.05119" stroke-width="0.5" stroke="black" fill="cyan"/>
   </g>
   <g id="cell86">
  <circle cx="497.439" cy="537.557" r="8.39952" stroke-width="0.5" stroke="black" fill="magenta"/>
  <circle cx="497.439" cy="537.557" r="5.04743" stroke-width="0.5" stroke="black" fill="magenta"/>
   </g>
   <g id="cell87">
  <circle cx="577.722" cy="557.651" r="8.41005" stroke-width="0.5" stroke="black" fill="cyan"/>
  <circle cx="577.722" cy="557.651" r="5.05097" stroke-width="0.5" stroke="black" fill="cyan"/>
   </g>
   <g id="cell88">
  <circle cx="444.047" cy="535.892" r="8.10851" stroke-width="0.5" stroke="black" fill="magenta"/>
  <circle cx="444.047" cy="535.892" r="4.91466" stroke-width="0.5" stroke="black" fill="magenta"/>
   </g>
   <g id="cell89">
  <circle cx="552.691" cy="451.795" r="8.32401" stroke-width="0.5" stroke="black" fill="cyan"/>
  <circle cx="552.691" cy="451.795" r="5.01715" stroke-width="0.5" stroke="black" fill="cyan"/>
   </g>
   <g id="cell90">
  <circle cx="637.061" cy="472.476" r="8.39372" stroke-width="0.5" stroke="black" fill="green"/>
  <circle cx="637.061" cy="472.476" r="5.04531" stroke-width="0.5" stroke="black" fill="green"/>
   </g>
   <g id="cell91">
  <circle cx="547.501" cy="560.991" r="8.41107" stroke-width="0.5" stroke="black" fill="magenta"/>
  <circle cx="547.501" cy="560.991" r="5.05126" stroke-width="0.5" stroke="black" fill="magenta"/>
   </g>
   <g id="cell92">
  <circle cx="488.542" cy="551.13" r="8.41166" stroke-width="0.5" stroke="black" fill="green"/>
  <circle cx="488.542" cy="551.13" r="5.05141" stroke-width="0.5" stroke="black" fill="green"/>
   </g>
   <g id="cell93">
  <circle cx="539.55" cy="548.004" r="8.41107" stroke-width="0.5" stroke="black" fill="magenta"/>
  <circle cx="539.55" cy="548.004" r="5.05126" stroke-width="0.5" stroke="black" fill="magenta"/>
   </g>
   <g id="cell94">
  <circle cx="542.847" cy="492.47" r="8.41151" stroke-width="0.5" stroke="black" fill="cyan"/>
  <circle cx="542.847" cy="492.47" r="5.05137" stroke-width="0.5" stroke="black" fill="cyan"/>
   </g>
   <g id="cell95">
  <circle cx="463.032" cy="425.747" r="8.41147" stroke-width="0.5" stroke="black" fill="cyan"/>
  <circle cx="463.032" cy="425.747" r="5.05136" stroke-width="0.5" stroke="black" fill="cyan"/>
   </g>
   <g id="cell96">
  <circle cx="547.58" cy="535.012" r="8.37676" stroke-width="0.5" stroke="black" fill="cyan"/>
  <circle cx="547.58" cy="535.012" r="5.03864" stroke-width="0.5" stroke="black" fill="cyan"/>
   </g>
   <g id="cell97">
  <circle cx="422.146" cy="466.754" r="8.41022" stroke-width="0.5" stroke="black" fill="green"/>
  <circle cx="422.146" cy="466.754" r="5.05102" stroke-width="0.5" stroke="black" fill="green"/>
   </g>
   <g id="cell98">
  <circle cx="489.931" cy="523.665" r="8.39676" stroke-width="0.5" stroke="black" fill="green"/>
  <circle cx="489.931" cy="523.665" r="5.04646" stroke-width="0.5" stroke="black" fill="green"/>
   </g>
   <g id="cell99">
  <circle cx="360.94" cy="529.072" r="8.41083" stroke-width="0.5" stroke="black" fill="cyan"/>
  <circle cx="360.94" cy="529.072" r="5.05119" stroke-width="0.5" stroke="black" fill="cyan"/>
   </g>
   <g id="cell100">
  <circle cx="447.675" cy="403.555" r="8.4108" stroke-width="0.5" stroke="black" fill="green"/>
  <circle cx="447.675" cy="403.555" r="5.05117" stroke-width="0.5" stroke="black" fill="green"/>
   </g>
   <g id="cell101">
  <circle cx="529.952" cy="485.41" r="6.86746" stroke-width="0.5" stroke="black" fill="cyan"/>
  <circle cx="529.952" cy="485.41" r="4.15923" stroke-width="0.5" stroke="black" fill="cyan"/>
   </g>
   <g id="cell102">
  <circle cx="435.235" cy="475.983" r="8.41022" stroke-width="0.5" stroke="black" fill="green"/>
  <circle cx="435.235" cy="475.983" r="5.05102" stroke-width="0.5" stroke="black" fill="green"/>
   </g>
   <g id="cell103">
  <circle cx="592.8" cy="448.552" r="8.3992" stroke-width="0.5" stroke="black" fill="cyan"/>
  <circle cx="592.8" cy="448.552" r="5.04737" stroke-width="0.5" stroke="black" fill="cyan"/>
   </g>
   <g id="cell104">
  <circle cx="604.911" cy="555.195" r="7.17755" stroke-width="0.5" stroke="black" fill="cyan"/>
  <circle cx="604.911" cy="555.195" r="4.37195" stroke-width="0.5" stroke="black" fill="cyan"/>
   </g>
   <g id="cell106">
  <circle cx="460.173" cy="441.18" r="8.40972" stroke-width="0.5" stroke="black" fill="magenta"/>
  <circle cx="460.173" cy="441.18" r="5.05086" stroke-width="0.5" stroke="black" fill="magenta"/>
   </g>
   <g id="cell107">
  <circle cx="464.256" cy="389.985" r="7.99192" stroke-width="0.5" stroke="black" fill="green"/>
  <circle cx="464.256" cy="389.985" r="4.85527" stroke-width="0.5" stroke="black" fill="green"/>
   </g>
   <g id="cell108">
  <circle cx="556.612" cy="607.011" r="8.40925" stroke-width="0.5" stroke="black" fill="green"/>
  <circle cx="556.612" cy="607.011" r="5.0507" stroke-width="0.5" stroke="black" fill="green"/>
   </g>
   <g id="cell109">
  <circle cx="576.557" cy="589.548" r="8.40722" stroke-width="0.5" stroke="black" fill="green"/>
  <circle cx="576.557" cy="589.548" r="5.05012" stroke-width="0.5" stroke="black" fill="green"/>
   </g>
   <g id="cell110">
  <circle cx="369.132" cy="509.891" r="8.40801" stroke-width="0.5" stroke="black" fill="cyan"/>
  <circle cx="369.132" cy="509.891" r="5.05031" stroke-width="0.5" stroke="black" fill="cyan"/>
   </g>
   <g id="cell111">
  <circle cx="458.967" cy="556.683" r="8.37266" stroke-width="0.5" stroke="black" fill="magenta"/>
  <circle cx="458.967" cy="556.683" r="5.03719" stroke-width="0.5" stroke="black" fill="magenta"/>
   </g>
   <g id="cell112">
  <circle cx="495.683" cy="470.222" r="8.31222" stroke-width="0.5" stroke="black" fill="magenta"/>
  <circle cx="495.683" cy="470.222" r="5.01054" stroke-width="0.5" stroke="black" fill="magenta"/>
   </g>
   <g id="cell113">
  <circle cx="546.456" cy="388.859" r="8.33424" stroke-width="0.5" stroke="black" fill="green"/>
  <circle cx="546.456" cy="388.859" r="5.02059" stroke-width="0.5" stroke="black" fill="green"/>
   </g>
   <g id="cell114">
  <circle cx="524.952" cy="444.12" r="8.40362" stroke-width="0.5" stroke="black" fill="cyan"/>
  <circle cx="524.952" cy="444.12" r="5.04896" stroke-width="0.5" stroke="black" fill="cyan"/>
   </g>
   <g id="cell115">
  <circle cx="536.962" cy="453.567" r="8.37996" stroke-width="0.5" stroke="black" fill="cyan"/>
  <circle cx="536.962" cy="453.567" r="5.04031" stroke-width="0.5" stroke="black" fill="cyan"/>
   </g>
   <g id="cell116">
  <circle cx="519.589" cy="525.062" r="7.41055" stroke-width="0.5" stroke="black" fill="cyan"/>
  <circle cx="519.589" cy="525.062" r="4.50562" stroke-width="0.5" stroke="black" fill="cyan"/>
   </g>
   <g id="cell117">
  <circle cx="503.347" cy="623.926" r="8.40257" stroke-width="0.5" stroke="black" fill="green"/>
  <circle cx="503.347" cy="623.926" r="5.04857" stroke-width="0.5" stroke="black" fill="green"/>
   </g>
   <g id="cell118">
  <circle cx="510.029" cy="449.297" r="8.40109" stroke-width="0.5" stroke="black" fill="cyan"/>
  <circle cx="510.029" cy="449.297" r="5.04797" stroke-width="0.5" stroke="black" fill="cyan"/>
   </g>
   <g id="cell119">
  <circle cx="542.081" cy="603.851" r="7.56112" stroke-width="0.5" stroke="black" fill="green"/>
  <circle cx="542.081" cy="603.851" r="4.59752" stroke-width="0.5" stroke="black" fill="green"/>
   </g>
   <g id="cell120">
  <circle cx="578.578" cy="441.344" r="8.3992" stroke-width="0.5" stroke="black" fill="cyan"/>
  <circle cx="578.578" cy="441.344" r="5.04737" stroke-width="0.5" stroke="black" fill="cyan"/>
   </g>
   <g id="cell121">
  <circle cx="450.716" cy="366.658" r="8.38419" stroke-width="0.5" stroke="black" fill="green"/>
  <circle cx="450.716" cy="366.658" r="5.04208" stroke-width="0.5" stroke="black" fill="green"/>
   </g>
   <g id="cell122">
  <circle cx="505.24" cy="524.482" r="8.39952" stroke-width="0.5" stroke="black" fill="magenta"/>
  <circle cx="505.24" cy="524.482" r="5.04743" stroke-width="0.5" stroke="black" fill="magenta"/>
   </g>
   <g id="cell123">
  <circle cx="491.565" cy="508.023" r="8.39676" stroke-width="0.5" stroke="black" fill="green"/>
  <circle cx="491.565" cy="508.023" r="5.04646" stroke-width="0.5" stroke="black" fill="green"/>
   </g>
   <g id="cell124">
  <circle cx="488.592" cy="432.209" r="8.39737" stroke-width="0.5" stroke="black" fill="magenta"/>
  <circle cx="488.592" cy="432.209" r="5.04663" stroke-width="0.5" stroke="black" fill="magenta"/>
   </g>
   <g id="cell125">
  <circle cx="621.996" cy="477.212" r="8.39372" stroke-width="0.5" stroke="black" fill="green"/>
  <circle cx="621.996" cy="477.212" r="5.04531" stroke-width="0.5" stroke="black" fill="green"/>
   </g>
   <g id="cell126">
  <circle cx="628.988" cy="566.353" r="8.39348" stroke-width="0.5" stroke="black" fill="green"/>
  <circle cx="628.988" cy="566.353" r="5.04518" stroke-width="0.5" stroke="black" fill="green"/>
   </g>
   <g id="cell127">
  <circle cx="436.356" cy="359.649" r="8.38419" stroke-width="0.5" stroke="black" fill="green"/>
  <circle cx="436.356" cy="359.649" r="5.04208" stroke-width="0.5" stroke="black" fill="green"/>
   </g>
   <g id="cell128">
  <circle cx="372.121" cy="467.565" r="8.38891" stroke-width="0.5" stroke="black" fill="magenta"/>
  <circle cx="372.121" cy="467.565" r="5.0434" stroke-width="0.5" stroke="black" fill="magenta"/>
   </g>
   <g id="cell129">
  <circle cx="570.747" cy="543.317" r="8.38644" stroke-width="0.5" stroke="black" fill="cyan"/>
  <circle cx="570.747" cy="543.317" r="5.04249" stroke-width="0.5" stroke="black" fill="cyan"/>
   </g>
   <g id="cell130">
  <circle cx="542.753" cy="438.655" r="8.37996" stroke-width="0.5" stroke="black" fill="cyan"/>
  <circle cx="542.753" cy="438.655" r="5.04031" stroke-width="0.5" stroke="black" fill="cyan"/>
   </g>
   <g id="cell131">
  <circle cx="545.62" cy="512.995" r="5.70773" stroke-width="0.5" stroke="black" fill="cyan"/>
  <circle cx="545.62" cy="512.995" r="3.52384" stroke-width="0.5" stroke="black" fill="cyan"/>
   </g>
   <g id="cell132">
  <circle cx="445.455" cy="550.443" r="8.37266" stroke-width="0.5" stroke="black" fill="magenta"/>
  <circle cx="445.455" cy="550.443" r="5.03719" stroke-width="0.5" stroke="black" fill="magenta"/>
   </g>
   <g id="cell133">
  <circle cx="576.283" cy="467.997" r="8.37495" stroke-width="0.5" stroke="black" fill="cyan"/>
  <circle cx="576.283" cy="467.997" r="5.03787" stroke-width="0.5" stroke="black" fill="cyan"/>
   </g>
   <g id="cell134">
  <circle cx="535.744" cy="471.254" r="1.48796" stroke-width="0.5" stroke="black" fill="cyan"/>
  <circle cx="535.744" cy="471.254" r="1.46833" stroke-width="0.5" stroke="black" fill="black"/>
   </g>
   <g id="cell135">
  <circle cx="514.658" cy="584.018" r="8.36972" stroke-width="0.5" stroke="black" fill="magenta"/>
  <circle cx="514.658" cy="584.018" r="5.03563" stroke-width="0.5" stroke="black" fill="magenta"/>
   </g>
   <g id="cell136">
  <circle cx="472" cy="548.81" r="8.36267" stroke-width="0.5" stroke="black" fill="green"/>
  <circle cx="472" cy="548.81" r="5.03275" stroke-width="0.5" stroke="black" fill="green"/>
   </g>
   <g id="cell137">
  <circle cx="490.023" cy="614.964" r="8.3489" stroke-width="0.5" stroke="black" fill="green"/>
  <circle cx="490.023" cy="614.964" r="5.02736" stroke-width="0.5" stroke="black" fill="green"/>
   </g>
   <g id="cell138">
  <circle cx="505.053" cy="407.176" r="8.35404" stroke-width="0.5" stroke="black" fill="green"/>
  <circle cx="505.053" cy="407.176" r="5.02894" stroke-width="0.5" stroke="black" fill="green"/>
   </g>
   <g id="cell139">
  <circle cx="417.521" cy="407.112" r="8.34511" stroke-width="0.5" stroke="black" fill="magenta"/>
  <circle cx="417.521" cy="407.112" r="5.02502" stroke-width="0.5" stroke="black" fill="magenta"/>
   </g>
   <g id="cell140">
  <circle cx="525.383" cy="574.022" r="8.28212" stroke-width="0.5" stroke="black" fill="magenta"/>
  <circle cx="525.383" cy="574.022" r="4.99854" stroke-width="0.5" stroke="black" fill="magenta"/>
   </g>
   <g id="cell141">
  <circle cx="568.832" cy="454.258" r="8.32401" stroke-width="0.5" stroke="black" fill="cyan"/>
  <circle cx="568.832" cy="454.258" r="5.01715" stroke-width="0.5" stroke="black" fill="cyan"/>
   </g>
   <g id="cell142">
  <circle cx="542.301" cy="423.635" r="7.35343" stroke-width="0.5" stroke="black" fill="green"/>
  <circle cx="542.301" cy="423.635" r="4.49601" stroke-width="0.5" stroke="black" fill="green"/>
   </g>
   <g id="cell143">
  <circle cx="432.633" cy="408.889" r="8.30271" stroke-width="0.5" stroke="black" fill="magenta"/>
  <circle cx="432.633" cy="408.889" r="5.00788" stroke-width="0.5" stroke="black" fill="magenta"/>
   </g>
   <g id="cell144">
  <circle cx="545.874" cy="409.637" r="8.1319" stroke-width="0.5" stroke="black" fill="green"/>
  <circle cx="545.874" cy="409.637" r="4.92717" stroke-width="0.5" stroke="black" fill="green"/>
   </g>
   <g id="cell185">
  <circle cx="592.249" cy="559.983" r="7.17755" stroke-width="0.5" stroke="black" fill="cyan"/>
  <circle cx="592.249" cy="559.983" r="4.37195" stroke-width="0.5" stroke="black" fill="cyan"/>
   </g>
   <g id="cell147">
  <circle cx="517.327" cy="561.55" r="8.28212" stroke-width="0.5" stroke="black" fill="magenta"/>
  <circle cx="517.327" cy="561.55" r="4.99854" stroke-width="0.5" stroke="black" fill="magenta"/>
   </g>
   <g id="cell148">
  <circle cx="507.652" cy="463.23" r="6.79117" stroke-width="0.5" stroke="black" fill="magenta"/>
  <circle cx="507.652" cy="463.23" r="4.11752" stroke-width="0.5" stroke="black" fill="magenta"/>
   </g>
   <g id="cell149">
  <circle cx="572.458" cy="394.861" r="8.28629" stroke-width="0.5" stroke="black" fill="magenta"/>
  <circle cx="572.458" cy="394.861" r="4.99786" stroke-width="0.5" stroke="black" fill="magenta"/>
   </g>
   <g id="cell150">
  <circle cx="409.433" cy="583.231" r="7.9798" stroke-width="0.5" stroke="black" fill="green"/>
  <circle cx="409.433" cy="583.231" r="4.84633" stroke-width="0.5" stroke="black" fill="green"/>
   </g>
   <g id="cell151">
  <circle cx="418.161" cy="527.962" r="8.25377" stroke-width="0.5" stroke="black" fill="green"/>
  <circle cx="418.161" cy="527.962" r="4.98209" stroke-width="0.5" stroke="black" fill="green"/>
   </g>
   <g id="cell152">
  <circle cx="371.477" cy="574.794" r="8.17118" stroke-width="0.5" stroke="black" fill="green"/>
  <circle cx="371.477" cy="574.794" r="4.94581" stroke-width="0.5" stroke="black" fill="green"/>
   </g>
   <g id="cell153">
  <circle cx="560.94" cy="467.523" r="8.23444" stroke-width="0.5" stroke="black" fill="cyan"/>
  <circle cx="560.94" cy="467.523" r="4.97252" stroke-width="0.5" stroke="black" fill="cyan"/>
   </g>
   <g id="cell154">
  <circle cx="387.114" cy="596.579" r="8.10475" stroke-width="0.5" stroke="black" fill="green"/>
  <circle cx="387.114" cy="596.579" r="4.91528" stroke-width="0.5" stroke="black" fill="green"/>
   </g>
   <g id="cell155">
  <circle cx="484.661" cy="582.863" r="8.2239" stroke-width="0.5" stroke="black" fill="green"/>
  <circle cx="484.661" cy="582.863" r="4.96725" stroke-width="0.5" stroke="black" fill="green"/>
   </g>
   <g id="cell156">
  <circle cx="454.775" cy="526.071" r="8.22347" stroke-width="0.5" stroke="black" fill="magenta"/>
  <circle cx="454.775" cy="526.071" r="4.96714" stroke-width="0.5" stroke="black" fill="magenta"/>
   </g>
   <g id="cell157">
  <circle cx="440.714" cy="521.76" r="8.10851" stroke-width="0.5" stroke="black" fill="magenta"/>
  <circle cx="440.714" cy="521.76" r="4.91466" stroke-width="0.5" stroke="black" fill="magenta"/>
   </g>
   <g id="cell158">
  <circle cx="560.46" cy="415.125" r="8.14428" stroke-width="0.5" stroke="black" fill="green"/>
  <circle cx="560.46" cy="415.125" r="4.93346" stroke-width="0.5" stroke="black" fill="green"/>
   </g>
   <g id="cell159">
  <circle cx="534.491" cy="400.738" r="7.14797" stroke-width="0.5" stroke="black" fill="green"/>
  <circle cx="534.491" cy="400.738" r="4.3721" stroke-width="0.5" stroke="black" fill="green"/>
   </g>
   <g id="cell160">
  <circle cx="464.6" cy="374.49" r="8.16738" stroke-width="0.5" stroke="black" fill="green"/>
  <circle cx="464.6" cy="374.49" r="4.93991" stroke-width="0.5" stroke="black" fill="green"/>
   </g>
   <g id="cell165">
  <circle cx="606.608" cy="520.802" r="8.00101" stroke-width="0.5" stroke="black" fill="magenta"/>
  <circle cx="606.608" cy="520.802" r="4.84939" stroke-width="0.5" stroke="black" fill="magenta"/>
   </g>
   <g id="cell166">
  <circle cx="483.639" cy="461.778" r="7.94751" stroke-width="0.5" stroke="black" fill="magenta"/>
  <circle cx="483.639" cy="461.778" r="4.82049" stroke-width="0.5" stroke="black" fill="magenta"/>
   </g>
   <g id="cell167">
  <circle cx="425.779" cy="395.067" r="7.89373" stroke-width="0.5" stroke="black" fill="green"/>
  <circle cx="425.779" cy="395.067" r="4.78957" stroke-width="0.5" stroke="black" fill="green"/>
   </g>
   <g id="cell170">
  <circle cx="460.084" cy="503.528" r="7.77763" stroke-width="0.5" stroke="black" fill="green"/>
  <circle cx="460.084" cy="503.528" r="4.7232" stroke-width="0.5" stroke="black" fill="green"/>
   </g>
   <g id="cell171">
  <circle cx="597.739" cy="481.264" r="7.65871" stroke-width="0.5" stroke="black" fill="cyan"/>
  <circle cx="597.739" cy="481.264" r="4.6537" stroke-width="0.5" stroke="black" fill="cyan"/>
   </g>
   <g id="cell172">
  <circle cx="551.746" cy="503.508" r="6.93348" stroke-width="0.5" stroke="black" fill="magenta"/>
  <circle cx="551.746" cy="503.508" r="4.25272" stroke-width="0.5" stroke="black" fill="magenta"/>
   </g>
   <g id="cell173">
  <circle cx="532.328" cy="519.893" r="7.54621" stroke-width="0.5" stroke="black" fill="cyan"/>
  <circle cx="532.328" cy="519.893" r="4.59159" stroke-width="0.5" stroke="black" fill="cyan"/>
   </g>
   <g id="cell174">
  <circle cx="501.564" cy="437.604" r="7.56121" stroke-width="0.5" stroke="black" fill="cyan"/>
  <circle cx="501.564" cy="437.604" r="4.59755" stroke-width="0.5" stroke="black" fill="cyan"/>
   </g>
   <g id="cell175">
  <circle cx="529.423" cy="602.394" r="6.30724" stroke-width="0.5" stroke="black" fill="green"/>
  <circle cx="529.423" cy="602.394" r="3.86144" stroke-width="0.5" stroke="black" fill="green"/>
   </g>
   <g id="cell176">
  <circle cx="554.788" cy="428.419" r="7.35343" stroke-width="0.5" stroke="black" fill="green"/>
  <circle cx="554.788" cy="428.419" r="4.49601" stroke-width="0.5" stroke="black" fill="green"/>
   </g>
   <g id="cell177">
  <circle cx="369.162" cy="561.392" r="6.61891" stroke-width="0.5" stroke="black" fill="cyan"/>
  <circle cx="369.162" cy="561.392" r="4.06115" stroke-width="0.5" stroke="black" fill="cyan"/>
   </g>
   <g id="cell178">
  <circle cx="561.947" cy="510.854" r="6.93348" stroke-width="0.5" stroke="black" fill="magenta"/>
  <circle cx="561.947" cy="510.854" r="4.25272" stroke-width="0.5" stroke="black" fill="magenta"/>
   </g>
   <g id="cell179">
  <circle cx="521.755" cy="511.154" r="7.41055" stroke-width="0.5" stroke="black" fill="cyan"/>
  <circle cx="521.755" cy="511.154" r="4.50562" stroke-width="0.5" stroke="black" fill="cyan"/>
   </g>
   <g id="cell180">
  <circle cx="617.176" cy="498.231" r="7.3599" stroke-width="0.5" stroke="black" fill="green"/>
  <circle cx="617.176" cy="498.231" r="4.47294" stroke-width="0.5" stroke="black" fill="green"/>
   </g>
   <g id="cell181">
  <circle cx="555.402" cy="522.148" r="6.77664" stroke-width="0.5" stroke="black" fill="cyan"/>
  <circle cx="555.402" cy="522.148" r="4.16065" stroke-width="0.5" stroke="black" fill="cyan"/>
   </g>
   <g id="cell182">
  <circle cx="531.889" cy="387.749" r="7.14797" stroke-width="0.5" stroke="black" fill="green"/>
  <circle cx="531.889" cy="387.749" r="4.3721" stroke-width="0.5" stroke="black" fill="green"/>
   </g>
   <g id="cell183">
  <circle cx="575.264" cy="506.787" r="7.30216" stroke-width="0.5" stroke="black" fill="magenta"/>
  <circle cx="575.264" cy="506.787" r="4.43696" stroke-width="0.5" stroke="black" fill="magenta"/>
   </g>
   <g id="cell184">
  <circle cx="431.822" cy="422.819" r="7.18042" stroke-width="0.5" stroke="black" fill="magenta"/>
  <circle cx="431.822" cy="422.819" r="4.38005" stroke-width="0.5" stroke="black" fill="magenta"/>
   </g>
   <g id="cell187">
  <circle cx="504.837" cy="494.433" r="7.11771" stroke-width="0.5" stroke="black" fill="cyan"/>
  <circle cx="504.837" cy="494.433" r="4.31942" stroke-width="0.5" stroke="black" fill="cyan"/>
   </g>
   <g id="cell188">
  <circle cx="531.357" cy="614.081" r="6.30724" stroke-width="0.5" stroke="black" fill="green"/>
  <circle cx="531.357" cy="614.081" r="3.86144" stroke-width="0.5" stroke="black" fill="green"/>
   </g>
   <g id="cell189">
  <circle cx="539.748" cy="478.134" r="6.86746" stroke-width="0.5" stroke="black" fill="cyan"/>
  <circle cx="539.748" cy="478.134" r="4.15923" stroke-width="0.5" stroke="black" fill="cyan"/>
   </g>
   <g id="cell190">
  <circle cx="543.827" cy="523.064" r="5.70773" stroke-width="0.5" stroke="black" fill="cyan"/>
  <circle cx="543.827" cy="523.064" r="3.52384" stroke-width="0.5" stroke="black" fill="cyan"/>
   </g>
   <g id="cell191">
  <circle cx="508.103" cy="475.467" r="6.79117" stroke-width="0.5" stroke="black" fill="magenta"/>
  <circle cx="508.103" cy="475.467" r="4.11752" stroke-width="0.5" stroke="black" fill="magenta"/>
   </g>
  </g>
 </g>
  <rect x="775" y="1035" width="200" height="10" stroke-width="2" stroke="rgb(255,255,255)" fill="rgb(0,0,0)"/>
  <text x="781.25" y="1028.75"
   font-family="Arial" font-size="25" fill="black" >
   200 &#956;m
  </text>
  <text x="25" y="1045"
   font-family="Arial" font-size="18.75" fill="black" >
   0 days, 0 hours, 0 minutes, and 39.5929 seconds
  </text>
  <rect x="0" y="70" width="1000" height="1000" stroke-width="2" stroke="rgb(0,0,0)" fill="none"/>
</svg>
