<?xml version="1.0" encoding="UTF-8" standalone="no"?>
<!-- Created with PhysiCell (http://PhysiCell.MathCancer.org/) -->
<svg 
 xmlns:dc="http://purl.org/dc/elements/1.1/" 
 xmlns:cc="http://creativecommons.org/ns#" 
 xmlns:rdf="http://www.w3.org/1999/02/22-rdf-syntax-ns#" 
 xmlns:svg="http://www.w3.org/2000/svg" 
 xmlns="http://www.w3.org/2000/svg" 
 version="1.1" 
 width="1000" 
 height="1070" 
 id="svg2">
  <rect x="0" y="0" width="1000" height="1070" stroke-width="2" stroke="white" fill="white"/>
  <text x="12.5" y="30"
   font-family="Arial" font-size="25" fill="black" >
   Current time: 1 days, 13 hours, and 54.00 minutes, z = 0.00 &#956;m
  </text>
  <text x="12.5" y="57.5"
   font-family="Arial" font-size="23.75" fill="black" >
   202 agents
  </text>
 <g id="tissue" 
    transform="translate(0,1070) scale(1,-1)">
  <g id="ECM">
  </g>
  <g id="cells">
   <g id="cell0">
  <circle cx="510.766" cy="542.753" r="8.41253" stroke-width="0.5" stroke="black" fill="magenta"/>
  <circle cx="510.766" cy="542.753" r="5.05163" stroke-width="0.5" stroke="black" fill="magenta"/>
   </g>
   <g id="cell1">
  <circle cx="593.65" cy="525.662" r="8.30918" stroke-width="0.5" stroke="black" fill="magenta"/>
  <circle cx="593.65" cy="525.662" r="5.00867" stroke-width="0.5" stroke="black" fill="magenta"/>
   </g>
   <g id="cell2">
  <circle cx="514.344" cy="597.05" r="8.41271" stroke-width="0.5" stroke="black" fill="magenta"/>
  <circle cx="514.344" cy="597.05" r="5.05167" stroke-width="0.5" stroke="black" fill="magenta"/>
   </g>
   <g id="cell3">
  <circle cx="525.815" cy="546.184" r="8.41241" stroke-width="0.5" stroke="black" fill="magenta"/>
  <circle cx="525.815" cy="546.184" r="5.05161" stroke-width="0.5" stroke="black" fill="magenta"/>
   </g>
   <g id="cell4">
  <circle cx="484.848" cy="443.131" r="8.40869" stroke-width="0.5" stroke="black" fill="magenta"/>
  <circle cx="484.848" cy="443.131" r="5.05053" stroke-width="0.5" stroke="black" fill="magenta"/>
   </g>
   <g id="cell5">
  <circle cx="469.248" cy="490.6" r="8.41271" stroke-width="0.5" stroke="black" fill="magenta"/>
  <circle cx="469.248" cy="490.6" r="5.05167" stroke-width="0.5" stroke="black" fill="magenta"/>
   </g>
   <g id="cell163">
  <circle cx="536.17" cy="574.978" r="8.33476" stroke-width="0.5" stroke="black" fill="green"/>
  <circle cx="536.17" cy="574.978" r="5.02041" stroke-width="0.5" stroke="black" fill="green"/>
   </g>
   <g id="cell7">
  <circle cx="496.123" cy="453.237" r="8.29596" stroke-width="0.5" stroke="black" fill="magenta"/>
  <circle cx="496.123" cy="453.237" r="5.00261" stroke-width="0.5" stroke="black" fill="magenta"/>
   </g>
   <g id="cell8">
  <circle cx="380.167" cy="552.568" r="8.33481" stroke-width="0.5" stroke="black" fill="magenta"/>
  <circle cx="380.167" cy="552.568" r="5.02043" stroke-width="0.5" stroke="black" fill="magenta"/>
   </g>
   <g id="cell161">
  <circle cx="451.714" cy="385.469" r="8.30753" stroke-width="0.5" stroke="black" fill="green"/>
  <circle cx="451.714" cy="385.469" r="5.01017" stroke-width="0.5" stroke="black" fill="green"/>
   </g>
   <g id="cell10">
  <circle cx="586.561" cy="388.807" r="8.38028" stroke-width="0.5" stroke="black" fill="magenta"/>
  <circle cx="586.561" cy="388.807" r="5.03997" stroke-width="0.5" stroke="black" fill="magenta"/>
   </g>
   <g id="cell11">
  <circle cx="592.085" cy="590.19" r="8.41271" stroke-width="0.5" stroke="black" fill="magenta"/>
  <circle cx="592.085" cy="590.19" r="5.05167" stroke-width="0.5" stroke="black" fill="magenta"/>
   </g>
   <g id="cell12">
  <circle cx="499.798" cy="593.211" r="8.40154" stroke-width="0.5" stroke="black" fill="magenta"/>
  <circle cx="499.798" cy="593.211" r="5.04811" stroke-width="0.5" stroke="black" fill="magenta"/>
   </g>
   <g id="cell13">
  <circle cx="383.776" cy="567.335" r="8.41271" stroke-width="0.5" stroke="black" fill="magenta"/>
  <circle cx="383.776" cy="567.335" r="5.05167" stroke-width="0.5" stroke="black" fill="magenta"/>
   </g>
   <g id="cell14">
  <circle cx="517.789" cy="403.041" r="8.41271" stroke-width="0.5" stroke="black" fill="magenta"/>
  <circle cx="517.789" cy="403.041" r="5.05167" stroke-width="0.5" stroke="black" fill="magenta"/>
   </g>
   <g id="cell15">
  <circle cx="381.863" cy="479.122" r="8.4065" stroke-width="0.5" stroke="black" fill="magenta"/>
  <circle cx="381.863" cy="479.122" r="5.04982" stroke-width="0.5" stroke="black" fill="magenta"/>
   </g>
   <g id="cell16">
  <circle cx="452.466" cy="417.243" r="7.49758" stroke-width="0.5" stroke="black" fill="magenta"/>
  <circle cx="452.466" cy="417.243" r="4.56274" stroke-width="0.5" stroke="black" fill="magenta"/>
   </g>
   <g id="cell17">
  <circle cx="581.279" cy="498.284" r="8.13008" stroke-width="0.5" stroke="black" fill="magenta"/>
  <circle cx="581.279" cy="498.284" r="4.91894" stroke-width="0.5" stroke="black" fill="magenta"/>
   </g>
   <g id="cell18">
  <circle cx="519.387" cy="388.025" r="8.41271" stroke-width="0.5" stroke="black" fill="magenta"/>
  <circle cx="519.387" cy="388.025" r="5.05167" stroke-width="0.5" stroke="black" fill="magenta"/>
   </g>
   <g id="cell19">
  <circle cx="456.838" cy="541.464" r="8.41129" stroke-width="0.5" stroke="black" fill="magenta"/>
  <circle cx="456.838" cy="541.464" r="5.05131" stroke-width="0.5" stroke="black" fill="magenta"/>
   </g>
   <g id="cell20">
  <circle cx="530.68" cy="412.208" r="8.41271" stroke-width="0.5" stroke="black" fill="magenta"/>
  <circle cx="530.68" cy="412.208" r="5.05167" stroke-width="0.5" stroke="black" fill="magenta"/>
   </g>
   <g id="cell21">
  <circle cx="467.588" cy="636.671" r="6.92764" stroke-width="0.5" stroke="black" fill="magenta"/>
  <circle cx="467.588" cy="636.671" r="4.1918" stroke-width="0.5" stroke="black" fill="magenta"/>
   </g>
   <g id="cell22">
  <circle cx="557.886" cy="491.699" r="7.19661" stroke-width="0.5" stroke="black" fill="magenta"/>
  <circle cx="557.886" cy="491.699" r="4.39315" stroke-width="0.5" stroke="black" fill="magenta"/>
   </g>
   <g id="cell23">
  <circle cx="552.939" cy="478.314" r="8.41271" stroke-width="0.5" stroke="black" fill="magenta"/>
  <circle cx="552.939" cy="478.314" r="5.05167" stroke-width="0.5" stroke="black" fill="magenta"/>
   </g>
   <g id="cell24">
  <circle cx="564.885" cy="383.532" r="8.41271" stroke-width="0.5" stroke="black" fill="magenta"/>
  <circle cx="564.885" cy="383.532" r="5.05167" stroke-width="0.5" stroke="black" fill="magenta"/>
   </g>
   <g id="cell25">
  <circle cx="644.198" cy="545.775" r="6.7563" stroke-width="0.5" stroke="black" fill="green"/>
  <circle cx="644.198" cy="545.775" r="4.06811" stroke-width="0.5" stroke="black" fill="green"/>
   </g>
   <g id="cell26">
  <circle cx="558.244" cy="397.511" r="8.41129" stroke-width="0.5" stroke="black" fill="green"/>
  <circle cx="558.244" cy="397.511" r="5.05131" stroke-width="0.5" stroke="black" fill="green"/>
   </g>
   <g id="cell27">
  <circle cx="462.49" cy="406.093" r="8.41264" stroke-width="0.5" stroke="black" fill="green"/>
  <circle cx="462.49" cy="406.093" r="5.05166" stroke-width="0.5" stroke="black" fill="green"/>
   </g>
   <g id="cell28">
  <circle cx="429.657" cy="541.512" r="8.37208" stroke-width="0.5" stroke="black" fill="green"/>
  <circle cx="429.657" cy="541.512" r="5.03661" stroke-width="0.5" stroke="black" fill="green"/>
   </g>
   <g id="cell29">
  <circle cx="451.044" cy="518.526" r="1.555" stroke-width="0.5" stroke="black" fill="green"/>
  <circle cx="451.044" cy="518.526" r="1.52274" stroke-width="0.5" stroke="black" fill="black"/>
   </g>
   <g id="cell30">
  <circle cx="480.847" cy="535.956" r="8.39973" stroke-width="0.5" stroke="black" fill="green"/>
  <circle cx="480.847" cy="535.956" r="5.04748" stroke-width="0.5" stroke="black" fill="green"/>
   </g>
   <g id="cell31">
  <circle cx="413.608" cy="543.264" r="8.41271" stroke-width="0.5" stroke="black" fill="green"/>
  <circle cx="413.608" cy="543.264" r="5.05167" stroke-width="0.5" stroke="black" fill="green"/>
   </g>
   <g id="cell169">
  <circle cx="519.071" cy="501.613" r="8.27869" stroke-width="0.5" stroke="black" fill="cyan"/>
  <circle cx="519.071" cy="501.613" r="4.99425" stroke-width="0.5" stroke="black" fill="cyan"/>
   </g>
   <g id="cell33">
  <circle cx="501.48" cy="423.085" r="8.39752" stroke-width="0.5" stroke="black" fill="green"/>
  <circle cx="501.48" cy="423.085" r="5.04666" stroke-width="0.5" stroke="black" fill="green"/>
   </g>
   <g id="cell168">
  <circle cx="382.826" cy="517.647" r="8.28199" stroke-width="0.5" stroke="black" fill="cyan"/>
  <circle cx="382.826" cy="517.647" r="4.99594" stroke-width="0.5" stroke="black" fill="cyan"/>
   </g>
   <g id="cell35">
  <circle cx="558.627" cy="554.076" r="8.41271" stroke-width="0.5" stroke="black" fill="green"/>
  <circle cx="558.627" cy="554.076" r="5.05167" stroke-width="0.5" stroke="black" fill="green"/>
   </g>
   <g id="cell36">
  <circle cx="387.851" cy="582.365" r="8.33504" stroke-width="0.5" stroke="black" fill="green"/>
  <circle cx="387.851" cy="582.365" r="5.02257" stroke-width="0.5" stroke="black" fill="green"/>
   </g>
   <g id="cell37">
  <circle cx="642.129" cy="456.029" r="8.41263" stroke-width="0.5" stroke="black" fill="green"/>
  <circle cx="642.129" cy="456.029" r="5.05165" stroke-width="0.5" stroke="black" fill="green"/>
   </g>
   <g id="cell38">
  <circle cx="525.196" cy="586.05" r="8.33476" stroke-width="0.5" stroke="black" fill="green"/>
  <circle cx="525.196" cy="586.05" r="5.02041" stroke-width="0.5" stroke="black" fill="green"/>
   </g>
   <g id="cell39">
  <circle cx="611.351" cy="489.758" r="8.14594" stroke-width="0.5" stroke="black" fill="green"/>
  <circle cx="611.351" cy="489.758" r="4.92726" stroke-width="0.5" stroke="black" fill="green"/>
   </g>
   <g id="cell40">
  <circle cx="486.247" cy="567.014" r="8.36458" stroke-width="0.5" stroke="black" fill="green"/>
  <circle cx="486.247" cy="567.014" r="5.03347" stroke-width="0.5" stroke="black" fill="green"/>
   </g>
   <g id="cell41">
  <circle cx="366.56" cy="482.121" r="8.41271" stroke-width="0.5" stroke="black" fill="green"/>
  <circle cx="366.56" cy="482.121" r="5.05167" stroke-width="0.5" stroke="black" fill="green"/>
   </g>
   <g id="cell42">
  <circle cx="438.345" cy="491.002" r="8.41271" stroke-width="0.5" stroke="black" fill="green"/>
  <circle cx="438.345" cy="491.002" r="5.05167" stroke-width="0.5" stroke="black" fill="green"/>
   </g>
   <g id="cell43">
  <circle cx="564.234" cy="439.049" r="8.41271" stroke-width="0.5" stroke="black" fill="green"/>
  <circle cx="564.234" cy="439.049" r="5.05167" stroke-width="0.5" stroke="black" fill="green"/>
   </g>
   <g id="cell164">
  <circle cx="398.805" cy="571" r="8.30441" stroke-width="0.5" stroke="black" fill="green"/>
  <circle cx="398.805" cy="571" r="5.00824" stroke-width="0.5" stroke="black" fill="green"/>
   </g>
   <g id="cell145">
  <circle cx="412.546" cy="420.715" r="7.45131" stroke-width="0.5" stroke="black" fill="magenta"/>
  <circle cx="412.546" cy="420.715" r="4.55375" stroke-width="0.5" stroke="black" fill="magenta"/>
   </g>
   <g id="cell46">
  <circle cx="515.806" cy="618.92" r="8.41207" stroke-width="0.5" stroke="black" fill="green"/>
  <circle cx="515.806" cy="618.92" r="5.05152" stroke-width="0.5" stroke="black" fill="green"/>
   </g>
   <g id="cell47">
  <circle cx="484.893" cy="491.2" r="8.41231" stroke-width="0.5" stroke="black" fill="green"/>
  <circle cx="484.893" cy="491.2" r="5.05158" stroke-width="0.5" stroke="black" fill="green"/>
   </g>
   <g id="cell48">
  <circle cx="576.892" cy="604.878" r="8.41126" stroke-width="0.5" stroke="black" fill="green"/>
  <circle cx="576.892" cy="604.878" r="5.05131" stroke-width="0.5" stroke="black" fill="green"/>
   </g>
   <g id="cell49">
  <circle cx="437.613" cy="391.214" r="8.28262" stroke-width="0.5" stroke="black" fill="green"/>
  <circle cx="437.613" cy="391.214" r="4.9961" stroke-width="0.5" stroke="black" fill="green"/>
   </g>
   <g id="cell50">
  <circle cx="502.041" cy="512.373" r="8.41069" stroke-width="0.5" stroke="black" fill="cyan"/>
  <circle cx="502.041" cy="512.373" r="5.05114" stroke-width="0.5" stroke="black" fill="cyan"/>
   </g>
   <g id="cell51">
  <circle cx="401.363" cy="593.242" r="7.3599" stroke-width="0.5" stroke="black" fill="cyan"/>
  <circle cx="401.363" cy="593.242" r="4.47294" stroke-width="0.5" stroke="black" fill="cyan"/>
   </g>
   <g id="cell52">
  <circle cx="515.992" cy="417.864" r="8.41271" stroke-width="0.5" stroke="black" fill="cyan"/>
  <circle cx="515.992" cy="417.864" r="5.05167" stroke-width="0.5" stroke="black" fill="cyan"/>
   </g>
   <g id="cell53">
  <circle cx="572.552" cy="425.507" r="8.41217" stroke-width="0.5" stroke="black" fill="cyan"/>
  <circle cx="572.552" cy="425.507" r="5.05154" stroke-width="0.5" stroke="black" fill="cyan"/>
   </g>
   <g id="cell54">
  <circle cx="479.715" cy="417.262" r="8.41238" stroke-width="0.5" stroke="black" fill="cyan"/>
  <circle cx="479.715" cy="417.262" r="5.0516" stroke-width="0.5" stroke="black" fill="cyan"/>
   </g>
   <g id="cell55">
  <circle cx="522.842" cy="458.877" r="8.41219" stroke-width="0.5" stroke="black" fill="cyan"/>
  <circle cx="522.842" cy="458.877" r="5.05155" stroke-width="0.5" stroke="black" fill="cyan"/>
   </g>
   <g id="cell56">
  <circle cx="622.686" cy="522.57" r="8.41271" stroke-width="0.5" stroke="black" fill="cyan"/>
  <circle cx="622.686" cy="522.57" r="5.05167" stroke-width="0.5" stroke="black" fill="cyan"/>
   </g>
   <g id="cell105">
  <circle cx="503.516" cy="608.452" r="8.39618" stroke-width="0.5" stroke="black" fill="green"/>
  <circle cx="503.516" cy="608.452" r="5.0463" stroke-width="0.5" stroke="black" fill="green"/>
   </g>
   <g id="cell58">
  <circle cx="568.196" cy="477.054" r="8.36722" stroke-width="0.5" stroke="black" fill="cyan"/>
  <circle cx="568.196" cy="477.054" r="5.03458" stroke-width="0.5" stroke="black" fill="cyan"/>
   </g>
   <g id="cell59">
  <circle cx="385.732" cy="440.058" r="8.41271" stroke-width="0.5" stroke="black" fill="cyan"/>
  <circle cx="385.732" cy="440.058" r="5.05167" stroke-width="0.5" stroke="black" fill="cyan"/>
   </g>
   <g id="cell60">
  <circle cx="594.54" cy="465.603" r="8.2239" stroke-width="0.5" stroke="black" fill="cyan"/>
  <circle cx="594.54" cy="465.603" r="4.96725" stroke-width="0.5" stroke="black" fill="cyan"/>
   </g>
   <g id="cell186">
  <circle cx="354.803" cy="562.184" r="5.6562" stroke-width="0.5" stroke="black" fill="cyan"/>
  <circle cx="354.803" cy="562.184" r="3.62291" stroke-width="0.5" stroke="black" fill="black"/>
   </g>
   <g id="cell62">
  <circle cx="513.472" cy="433.217" r="8.19928" stroke-width="0.5" stroke="black" fill="cyan"/>
  <circle cx="513.472" cy="433.217" r="4.95516" stroke-width="0.5" stroke="black" fill="cyan"/>
   </g>
   <g id="cell63">
  <circle cx="586.482" cy="539.532" r="8.40586" stroke-width="0.5" stroke="black" fill="cyan"/>
  <circle cx="586.482" cy="539.532" r="5.04961" stroke-width="0.5" stroke="black" fill="cyan"/>
   </g>
   <g id="cell64">
  <circle cx="509.436" cy="638.451" r="8.41271" stroke-width="0.5" stroke="black" fill="cyan"/>
  <circle cx="509.436" cy="638.451" r="5.05167" stroke-width="0.5" stroke="black" fill="cyan"/>
   </g>
   <g id="cell65">
  <circle cx="546.051" cy="464.677" r="8.41249" stroke-width="0.5" stroke="black" fill="cyan"/>
  <circle cx="546.051" cy="464.677" r="5.05162" stroke-width="0.5" stroke="black" fill="cyan"/>
   </g>
   <g id="cell66">
  <circle cx="536.014" cy="534.997" r="8.41236" stroke-width="0.5" stroke="black" fill="cyan"/>
  <circle cx="536.014" cy="534.997" r="5.05159" stroke-width="0.5" stroke="black" fill="cyan"/>
   </g>
   <g id="cell67">
  <circle cx="354.66" cy="492.852" r="8.41271" stroke-width="0.5" stroke="black" fill="cyan"/>
  <circle cx="354.66" cy="492.852" r="5.05167" stroke-width="0.5" stroke="black" fill="cyan"/>
   </g>
   <g id="cell68">
  <circle cx="554.919" cy="562.339" r="1.25143" stroke-width="0.5" stroke="black" fill="cyan"/>
  <circle cx="554.919" cy="562.339" r="1.24538" stroke-width="0.5" stroke="black" fill="black"/>
   </g>
   <g id="cell69">
  <circle cx="442.364" cy="461.532" r="8.41271" stroke-width="0.5" stroke="black" fill="cyan"/>
  <circle cx="442.364" cy="461.532" r="5.05167" stroke-width="0.5" stroke="black" fill="cyan"/>
   </g>
   <g id="cell70">
  <circle cx="583.325" cy="482.942" r="8.41271" stroke-width="0.5" stroke="black" fill="cyan"/>
  <circle cx="583.325" cy="482.942" r="5.05167" stroke-width="0.5" stroke="black" fill="cyan"/>
   </g>
   <g id="cell71">
  <circle cx="382.375" cy="533.29" r="1.75263" stroke-width="0.5" stroke="black" fill="cyan"/>
  <circle cx="382.375" cy="533.29" r="1.69456" stroke-width="0.5" stroke="black" fill="black"/>
   </g>
   <g id="cell72">
  <circle cx="534.366" cy="502.629" r="8.27869" stroke-width="0.5" stroke="black" fill="cyan"/>
  <circle cx="534.366" cy="502.629" r="4.99425" stroke-width="0.5" stroke="black" fill="cyan"/>
   </g>
   <g id="cell73">
  <circle cx="366.249" cy="549.96" r="7.18449" stroke-width="0.5" stroke="black" fill="cyan"/>
  <circle cx="366.249" cy="549.96" r="4.38696" stroke-width="0.5" stroke="black" fill="cyan"/>
   </g>
   <g id="cell162">
  <circle cx="374.547" cy="538.304" r="8.33481" stroke-width="0.5" stroke="black" fill="magenta"/>
  <circle cx="374.547" cy="538.304" r="5.02043" stroke-width="0.5" stroke="black" fill="magenta"/>
   </g>
   <g id="cell75">
  <circle cx="527.871" cy="427.731" r="8.41264" stroke-width="0.5" stroke="black" fill="cyan"/>
  <circle cx="527.871" cy="427.731" r="5.05166" stroke-width="0.5" stroke="black" fill="cyan"/>
   </g>
   <g id="cell76">
  <circle cx="436.631" cy="375.646" r="8.41168" stroke-width="0.5" stroke="black" fill="green"/>
  <circle cx="436.631" cy="375.646" r="5.05143" stroke-width="0.5" stroke="black" fill="green"/>
   </g>
   <g id="cell77">
  <circle cx="470.252" cy="446.631" r="8.41192" stroke-width="0.5" stroke="black" fill="magenta"/>
  <circle cx="470.252" cy="446.631" r="5.05148" stroke-width="0.5" stroke="black" fill="magenta"/>
   </g>
   <g id="cell78">
  <circle cx="626.163" cy="456.062" r="8.41245" stroke-width="0.5" stroke="black" fill="green"/>
  <circle cx="626.163" cy="456.062" r="5.05161" stroke-width="0.5" stroke="black" fill="green"/>
   </g>
   <g id="cell79">
  <circle cx="518.745" cy="474.104" r="8.41262" stroke-width="0.5" stroke="black" fill="cyan"/>
  <circle cx="518.745" cy="474.104" r="5.05165" stroke-width="0.5" stroke="black" fill="cyan"/>
   </g>
   <g id="cell80">
  <circle cx="542.193" cy="630.27" r="7.73828" stroke-width="0.5" stroke="black" fill="green"/>
  <circle cx="542.193" cy="630.27" r="4.70088" stroke-width="0.5" stroke="black" fill="green"/>
   </g>
   <g id="cell81">
  <circle cx="547.327" cy="586.471" r="8.41256" stroke-width="0.5" stroke="black" fill="green"/>
  <circle cx="547.327" cy="586.471" r="5.05164" stroke-width="0.5" stroke="black" fill="green"/>
   </g>
   <g id="cell82">
  <circle cx="530.951" cy="560.415" r="8.39468" stroke-width="0.5" stroke="black" fill="magenta"/>
  <circle cx="530.951" cy="560.415" r="5.04561" stroke-width="0.5" stroke="black" fill="magenta"/>
   </g>
   <g id="cell83">
  <circle cx="635.468" cy="552.193" r="1.28014" stroke-width="0.5" stroke="black" fill="green"/>
  <circle cx="635.468" cy="552.193" r="1.27308" stroke-width="0.5" stroke="black" fill="black"/>
   </g>
   <g id="cell84">
  <circle cx="512.23" cy="488.322" r="8.07645" stroke-width="0.5" stroke="black" fill="cyan"/>
  <circle cx="512.23" cy="488.322" r="4.89044" stroke-width="0.5" stroke="black" fill="cyan"/>
   </g>
   <g id="cell85">
  <circle cx="345.789" cy="541.756" r="8.41221" stroke-width="0.5" stroke="black" fill="cyan"/>
  <circle cx="345.789" cy="541.756" r="5.05156" stroke-width="0.5" stroke="black" fill="cyan"/>
   </g>
   <g id="cell86">
  <circle cx="496.108" cy="538.659" r="8.40925" stroke-width="0.5" stroke="black" fill="magenta"/>
  <circle cx="496.108" cy="538.659" r="5.05071" stroke-width="0.5" stroke="black" fill="magenta"/>
   </g>
   <g id="cell87">
  <circle cx="573.78" cy="558.148" r="8.41201" stroke-width="0.5" stroke="black" fill="cyan"/>
  <circle cx="573.78" cy="558.148" r="5.05151" stroke-width="0.5" stroke="black" fill="cyan"/>
   </g>
   <g id="cell88">
  <circle cx="443.415" cy="534.721" r="8.33596" stroke-width="0.5" stroke="black" fill="magenta"/>
  <circle cx="443.415" cy="534.721" r="5.02244" stroke-width="0.5" stroke="black" fill="magenta"/>
   </g>
   <g id="cell89">
  <circle cx="554.436" cy="451.204" r="8.3898" stroke-width="0.5" stroke="black" fill="cyan"/>
  <circle cx="554.436" cy="451.204" r="5.04408" stroke-width="0.5" stroke="black" fill="cyan"/>
   </g>
   <g id="cell90">
  <circle cx="637.502" cy="471.367" r="8.40774" stroke-width="0.5" stroke="black" fill="green"/>
  <circle cx="637.502" cy="471.367" r="5.05024" stroke-width="0.5" stroke="black" fill="green"/>
   </g>
   <g id="cell91">
  <circle cx="546.107" cy="563.324" r="8.41228" stroke-width="0.5" stroke="black" fill="magenta"/>
  <circle cx="546.107" cy="563.324" r="5.05157" stroke-width="0.5" stroke="black" fill="magenta"/>
   </g>
   <g id="cell92">
  <circle cx="486.71" cy="550.986" r="8.41243" stroke-width="0.5" stroke="black" fill="green"/>
  <circle cx="486.71" cy="550.986" r="5.05161" stroke-width="0.5" stroke="black" fill="green"/>
   </g>
   <g id="cell93">
  <circle cx="540.934" cy="549.344" r="8.41228" stroke-width="0.5" stroke="black" fill="magenta"/>
  <circle cx="540.934" cy="549.344" r="5.05157" stroke-width="0.5" stroke="black" fill="magenta"/>
   </g>
   <g id="cell94">
  <circle cx="542.812" cy="489.704" r="8.41239" stroke-width="0.5" stroke="black" fill="cyan"/>
  <circle cx="542.812" cy="489.704" r="5.0516" stroke-width="0.5" stroke="black" fill="cyan"/>
   </g>
   <g id="cell95">
  <circle cx="465.502" cy="421.294" r="7.75893" stroke-width="0.5" stroke="black" fill="cyan"/>
  <circle cx="465.502" cy="421.294" r="4.71243" stroke-width="0.5" stroke="black" fill="cyan"/>
   </g>
   <g id="cell96">
  <circle cx="553.114" cy="539.922" r="8.40335" stroke-width="0.5" stroke="black" fill="cyan"/>
  <circle cx="553.114" cy="539.922" r="5.04877" stroke-width="0.5" stroke="black" fill="cyan"/>
   </g>
   <g id="cell97">
  <circle cx="420.469" cy="463.993" r="8.41205" stroke-width="0.5" stroke="black" fill="green"/>
  <circle cx="420.469" cy="463.993" r="5.05152" stroke-width="0.5" stroke="black" fill="green"/>
   </g>
   <g id="cell98">
  <circle cx="491.106" cy="523.717" r="8.40853" stroke-width="0.5" stroke="black" fill="green"/>
  <circle cx="491.106" cy="523.717" r="5.05049" stroke-width="0.5" stroke="black" fill="green"/>
   </g>
   <g id="cell99">
  <circle cx="365.7" cy="525.196" r="8.41221" stroke-width="0.5" stroke="black" fill="cyan"/>
  <circle cx="365.7" cy="525.196" r="5.05156" stroke-width="0.5" stroke="black" fill="cyan"/>
   </g>
   <g id="cell100">
  <circle cx="446.686" cy="404.02" r="8.4122" stroke-width="0.5" stroke="black" fill="green"/>
  <circle cx="446.686" cy="404.02" r="5.05155" stroke-width="0.5" stroke="black" fill="green"/>
   </g>
   <g id="cell101">
  <circle cx="527.249" cy="488.185" r="7.99535" stroke-width="0.5" stroke="black" fill="cyan"/>
  <circle cx="527.249" cy="488.185" r="4.84756" stroke-width="0.5" stroke="black" fill="cyan"/>
   </g>
   <g id="cell102">
  <circle cx="441.001" cy="476.42" r="7.1177" stroke-width="0.5" stroke="black" fill="green"/>
  <circle cx="441.001" cy="476.42" r="4.31942" stroke-width="0.5" stroke="black" fill="green"/>
   </g>
   <g id="cell103">
  <circle cx="592.776" cy="449.817" r="8.40917" stroke-width="0.5" stroke="black" fill="cyan"/>
  <circle cx="592.776" cy="449.817" r="5.05069" stroke-width="0.5" stroke="black" fill="cyan"/>
   </g>
   <g id="cell104">
  <circle cx="606.592" cy="554.275" r="8.09993" stroke-width="0.5" stroke="black" fill="cyan"/>
  <circle cx="606.592" cy="554.275" r="4.90535" stroke-width="0.5" stroke="black" fill="cyan"/>
   </g>
   <g id="cell106">
  <circle cx="455.035" cy="448.704" r="8.41192" stroke-width="0.5" stroke="black" fill="magenta"/>
  <circle cx="455.035" cy="448.704" r="5.05148" stroke-width="0.5" stroke="black" fill="magenta"/>
   </g>
   <g id="cell107">
  <circle cx="466.197" cy="390.222" r="8.30753" stroke-width="0.5" stroke="black" fill="green"/>
  <circle cx="466.197" cy="390.222" r="5.01017" stroke-width="0.5" stroke="black" fill="green"/>
   </g>
   <g id="cell108">
  <circle cx="561.452" cy="608.501" r="8.4118" stroke-width="0.5" stroke="black" fill="green"/>
  <circle cx="561.452" cy="608.501" r="5.05145" stroke-width="0.5" stroke="black" fill="green"/>
   </g>
   <g id="cell109">
  <circle cx="576.554" cy="588.903" r="8.41126" stroke-width="0.5" stroke="black" fill="green"/>
  <circle cx="576.554" cy="588.903" r="5.05131" stroke-width="0.5" stroke="black" fill="green"/>
   </g>
   <g id="cell110">
  <circle cx="369.016" cy="509.747" r="8.41147" stroke-width="0.5" stroke="black" fill="cyan"/>
  <circle cx="369.016" cy="509.747" r="5.05136" stroke-width="0.5" stroke="black" fill="cyan"/>
   </g>
   <g id="cell111">
  <circle cx="457.521" cy="556.524" r="8.40229" stroke-width="0.5" stroke="black" fill="magenta"/>
  <circle cx="457.521" cy="556.524" r="5.04845" stroke-width="0.5" stroke="black" fill="magenta"/>
   </g>
   <g id="cell112">
  <circle cx="492.822" cy="467.476" r="8.38684" stroke-width="0.5" stroke="black" fill="magenta"/>
  <circle cx="492.822" cy="467.476" r="5.04268" stroke-width="0.5" stroke="black" fill="magenta"/>
   </g>
   <g id="cell113">
  <circle cx="549.551" cy="380.18" r="8.39244" stroke-width="0.5" stroke="black" fill="green"/>
  <circle cx="549.551" cy="380.18" r="5.04484" stroke-width="0.5" stroke="black" fill="green"/>
   </g>
   <g id="cell114">
  <circle cx="525.466" cy="443.133" r="8.41032" stroke-width="0.5" stroke="black" fill="cyan"/>
  <circle cx="525.466" cy="443.133" r="5.05105" stroke-width="0.5" stroke="black" fill="cyan"/>
   </g>
   <g id="cell115">
  <circle cx="538.427" cy="451.406" r="8.40417" stroke-width="0.5" stroke="black" fill="cyan"/>
  <circle cx="538.427" cy="451.406" r="5.04913" stroke-width="0.5" stroke="black" fill="cyan"/>
   </g>
   <g id="cell116">
  <circle cx="520.905" cy="531.64" r="8.15983" stroke-width="0.5" stroke="black" fill="cyan"/>
  <circle cx="520.905" cy="531.64" r="4.93477" stroke-width="0.5" stroke="black" fill="cyan"/>
   </g>
   <g id="cell117">
  <circle cx="501.164" cy="624.66" r="8.41005" stroke-width="0.5" stroke="black" fill="green"/>
  <circle cx="501.164" cy="624.66" r="5.05096" stroke-width="0.5" stroke="black" fill="green"/>
   </g>
   <g id="cell118">
  <circle cx="510.866" cy="448.649" r="8.40966" stroke-width="0.5" stroke="black" fill="cyan"/>
  <circle cx="510.866" cy="448.649" r="5.05083" stroke-width="0.5" stroke="black" fill="cyan"/>
   </g>
   <g id="cell119">
  <circle cx="547.313" cy="602.229" r="8.19926" stroke-width="0.5" stroke="black" fill="green"/>
  <circle cx="547.313" cy="602.229" r="4.95516" stroke-width="0.5" stroke="black" fill="green"/>
   </g>
   <g id="cell120">
  <circle cx="580.239" cy="439.681" r="8.40917" stroke-width="0.5" stroke="black" fill="cyan"/>
  <circle cx="580.239" cy="439.681" r="5.05069" stroke-width="0.5" stroke="black" fill="cyan"/>
   </g>
   <g id="cell121">
  <circle cx="451.72" cy="359.955" r="6.70573" stroke-width="0.5" stroke="black" fill="green"/>
  <circle cx="451.72" cy="359.955" r="4.03265" stroke-width="0.5" stroke="black" fill="green"/>
   </g>
   <g id="cell122">
  <circle cx="506.239" cy="527.764" r="8.40925" stroke-width="0.5" stroke="black" fill="magenta"/>
  <circle cx="506.239" cy="527.764" r="5.05071" stroke-width="0.5" stroke="black" fill="magenta"/>
   </g>
   <g id="cell123">
  <circle cx="487.259" cy="507.053" r="8.40853" stroke-width="0.5" stroke="black" fill="green"/>
  <circle cx="487.259" cy="507.053" r="5.05049" stroke-width="0.5" stroke="black" fill="green"/>
   </g>
   <g id="cell124">
  <circle cx="488.192" cy="429.161" r="7.86056" stroke-width="0.5" stroke="black" fill="magenta"/>
  <circle cx="488.192" cy="429.161" r="4.77138" stroke-width="0.5" stroke="black" fill="magenta"/>
   </g>
   <g id="cell125">
  <circle cx="623.89" cy="483.059" r="6.89306" stroke-width="0.5" stroke="black" fill="green"/>
  <circle cx="623.89" cy="483.059" r="4.16911" stroke-width="0.5" stroke="black" fill="green"/>
   </g>
   <g id="cell126">
  <circle cx="628.988" cy="566.353" r="8.40768" stroke-width="0.5" stroke="black" fill="green"/>
  <circle cx="628.988" cy="566.353" r="5.05021" stroke-width="0.5" stroke="black" fill="green"/>
   </g>
   <g id="cell127">
  <circle cx="433.259" cy="361.778" r="6.75062" stroke-width="0.5" stroke="black" fill="green"/>
  <circle cx="433.259" cy="361.778" r="4.06643" stroke-width="0.5" stroke="black" fill="green"/>
   </g>
   <g id="cell128">
  <circle cx="372.114" cy="467.549" r="8.4065" stroke-width="0.5" stroke="black" fill="magenta"/>
  <circle cx="372.114" cy="467.549" r="5.04982" stroke-width="0.5" stroke="black" fill="magenta"/>
   </g>
   <g id="cell129">
  <circle cx="570.328" cy="542.33" r="8.40586" stroke-width="0.5" stroke="black" fill="cyan"/>
  <circle cx="570.328" cy="542.33" r="5.04961" stroke-width="0.5" stroke="black" fill="cyan"/>
   </g>
   <g id="cell130">
  <circle cx="546.715" cy="437.765" r="8.40417" stroke-width="0.5" stroke="black" fill="cyan"/>
  <circle cx="546.715" cy="437.765" r="5.04913" stroke-width="0.5" stroke="black" fill="cyan"/>
   </g>
   <g id="cell131">
  <circle cx="542.767" cy="513.888" r="7.11145" stroke-width="0.5" stroke="black" fill="cyan"/>
  <circle cx="542.767" cy="513.888" r="4.36868" stroke-width="0.5" stroke="black" fill="cyan"/>
   </g>
   <g id="cell132">
  <circle cx="443.903" cy="549.632" r="8.40229" stroke-width="0.5" stroke="black" fill="magenta"/>
  <circle cx="443.903" cy="549.632" r="5.04845" stroke-width="0.5" stroke="black" fill="magenta"/>
   </g>
   <g id="cell133">
  <circle cx="579.112" cy="466.672" r="8.40289" stroke-width="0.5" stroke="black" fill="cyan"/>
  <circle cx="579.112" cy="466.672" r="5.0486" stroke-width="0.5" stroke="black" fill="cyan"/>
   </g>
   <g id="cell201">
  <circle cx="555.31" cy="516.363" r="7.11145" stroke-width="0.5" stroke="black" fill="cyan"/>
  <circle cx="555.31" cy="516.363" r="4.36868" stroke-width="0.5" stroke="black" fill="cyan"/>
   </g>
   <g id="cell135">
  <circle cx="510.344" cy="582.371" r="8.40154" stroke-width="0.5" stroke="black" fill="magenta"/>
  <circle cx="510.344" cy="582.371" r="5.04811" stroke-width="0.5" stroke="black" fill="magenta"/>
   </g>
   <g id="cell136">
  <circle cx="470.872" cy="548.413" r="8.39973" stroke-width="0.5" stroke="black" fill="green"/>
  <circle cx="470.872" cy="548.413" r="5.04748" stroke-width="0.5" stroke="black" fill="green"/>
   </g>
   <g id="cell137">
  <circle cx="488.721" cy="614.832" r="8.39618" stroke-width="0.5" stroke="black" fill="green"/>
  <circle cx="488.721" cy="614.832" r="5.0463" stroke-width="0.5" stroke="black" fill="green"/>
   </g>
   <g id="cell138">
  <circle cx="503.061" cy="407.47" r="8.39752" stroke-width="0.5" stroke="black" fill="green"/>
  <circle cx="503.061" cy="407.47" r="5.04666" stroke-width="0.5" stroke="black" fill="green"/>
   </g>
   <g id="cell139">
  <circle cx="416.403" cy="406.95" r="8.39523" stroke-width="0.5" stroke="black" fill="magenta"/>
  <circle cx="416.403" cy="406.95" r="5.04581" stroke-width="0.5" stroke="black" fill="magenta"/>
   </g>
   <g id="cell140">
  <circle cx="520.873" cy="571.451" r="8.37917" stroke-width="0.5" stroke="black" fill="magenta"/>
  <circle cx="520.873" cy="571.451" r="5.04008" stroke-width="0.5" stroke="black" fill="magenta"/>
   </g>
   <g id="cell141">
  <circle cx="571.426" cy="452.884" r="8.3898" stroke-width="0.5" stroke="black" fill="cyan"/>
  <circle cx="571.426" cy="452.884" r="5.04408" stroke-width="0.5" stroke="black" fill="cyan"/>
   </g>
   <g id="cell142">
  <circle cx="542.029" cy="422.941" r="8.15258" stroke-width="0.5" stroke="black" fill="green"/>
  <circle cx="542.029" cy="422.941" r="4.93576" stroke-width="0.5" stroke="black" fill="green"/>
   </g>
   <g id="cell143">
  <circle cx="431.329" cy="405.045" r="8.38438" stroke-width="0.5" stroke="black" fill="magenta"/>
  <circle cx="431.329" cy="405.045" r="5.04208" stroke-width="0.5" stroke="black" fill="magenta"/>
   </g>
   <g id="cell144">
  <circle cx="546.725" cy="408.593" r="8.34166" stroke-width="0.5" stroke="black" fill="green"/>
  <circle cx="546.725" cy="408.593" r="5.02501" stroke-width="0.5" stroke="black" fill="green"/>
   </g>
   <g id="cell185">
  <circle cx="596.833" cy="564.244" r="6.60099" stroke-width="0.5" stroke="black" fill="cyan"/>
  <circle cx="596.833" cy="564.244" r="4.01672" stroke-width="0.5" stroke="black" fill="cyan"/>
   </g>
   <g id="cell147">
  <circle cx="515.915" cy="557.236" r="8.37917" stroke-width="0.5" stroke="black" fill="magenta"/>
  <circle cx="515.915" cy="557.236" r="5.04008" stroke-width="0.5" stroke="black" fill="magenta"/>
   </g>
   <g id="cell148">
  <circle cx="507.411" cy="463.136" r="7.97459" stroke-width="0.5" stroke="black" fill="magenta"/>
  <circle cx="507.411" cy="463.136" r="4.83762" stroke-width="0.5" stroke="black" fill="magenta"/>
   </g>
   <g id="cell149">
  <circle cx="573.443" cy="396.135" r="8.38028" stroke-width="0.5" stroke="black" fill="magenta"/>
  <circle cx="573.443" cy="396.135" r="5.03997" stroke-width="0.5" stroke="black" fill="magenta"/>
   </g>
   <g id="cell150">
  <circle cx="410.496" cy="581.595" r="8.30441" stroke-width="0.5" stroke="black" fill="green"/>
  <circle cx="410.496" cy="581.595" r="5.00824" stroke-width="0.5" stroke="black" fill="green"/>
   </g>
   <g id="cell151">
  <circle cx="419.612" cy="528.555" r="8.37208" stroke-width="0.5" stroke="black" fill="green"/>
  <circle cx="419.612" cy="528.555" r="5.03661" stroke-width="0.5" stroke="black" fill="green"/>
   </g>
   <g id="cell152">
  <circle cx="372.602" cy="578.416" r="8.35142" stroke-width="0.5" stroke="black" fill="green"/>
  <circle cx="372.602" cy="578.416" r="5.02893" stroke-width="0.5" stroke="black" fill="green"/>
   </g>
   <g id="cell153">
  <circle cx="561.305" cy="464.562" r="8.36722" stroke-width="0.5" stroke="black" fill="cyan"/>
  <circle cx="561.305" cy="464.562" r="5.03458" stroke-width="0.5" stroke="black" fill="cyan"/>
   </g>
   <g id="cell154">
  <circle cx="387.379" cy="598.21" r="8.33504" stroke-width="0.5" stroke="black" fill="green"/>
  <circle cx="387.379" cy="598.21" r="5.02257" stroke-width="0.5" stroke="black" fill="green"/>
   </g>
   <g id="cell155">
  <circle cx="488.163" cy="582.892" r="8.36458" stroke-width="0.5" stroke="black" fill="green"/>
  <circle cx="488.163" cy="582.892" r="5.03347" stroke-width="0.5" stroke="black" fill="green"/>
   </g>
   <g id="cell156">
  <circle cx="455.755" cy="526.314" r="8.36447" stroke-width="0.5" stroke="black" fill="magenta"/>
  <circle cx="455.755" cy="526.314" r="5.03344" stroke-width="0.5" stroke="black" fill="magenta"/>
   </g>
   <g id="cell157">
  <circle cx="442.093" cy="519.877" r="8.33596" stroke-width="0.5" stroke="black" fill="magenta"/>
  <circle cx="442.093" cy="519.877" r="5.02244" stroke-width="0.5" stroke="black" fill="magenta"/>
   </g>
   <g id="cell158">
  <circle cx="563.946" cy="411.993" r="8.34472" stroke-width="0.5" stroke="black" fill="green"/>
  <circle cx="563.946" cy="411.993" r="5.02633" stroke-width="0.5" stroke="black" fill="green"/>
   </g>
   <g id="cell159">
  <circle cx="530.789" cy="397.469" r="7.59744" stroke-width="0.5" stroke="black" fill="green"/>
  <circle cx="530.789" cy="397.469" r="4.63998" stroke-width="0.5" stroke="black" fill="green"/>
   </g>
   <g id="cell160">
  <circle cx="464.467" cy="374.158" r="8.35044" stroke-width="0.5" stroke="black" fill="green"/>
  <circle cx="464.467" cy="374.158" r="5.02768" stroke-width="0.5" stroke="black" fill="green"/>
   </g>
   <g id="cell165">
  <circle cx="608.112" cy="526.069" r="7.75342" stroke-width="0.5" stroke="black" fill="magenta"/>
  <circle cx="608.112" cy="526.069" r="4.71842" stroke-width="0.5" stroke="black" fill="magenta"/>
   </g>
   <g id="cell166">
  <circle cx="481.491" cy="457.478" r="8.29596" stroke-width="0.5" stroke="black" fill="magenta"/>
  <circle cx="481.491" cy="457.478" r="5.00261" stroke-width="0.5" stroke="black" fill="magenta"/>
   </g>
   <g id="cell167">
  <circle cx="422.176" cy="392.609" r="8.28262" stroke-width="0.5" stroke="black" fill="green"/>
  <circle cx="422.176" cy="392.609" r="4.9961" stroke-width="0.5" stroke="black" fill="green"/>
   </g>
   <g id="cell170">
  <circle cx="460.289" cy="503.226" r="8.25377" stroke-width="0.5" stroke="black" fill="green"/>
  <circle cx="460.289" cy="503.226" r="4.98209" stroke-width="0.5" stroke="black" fill="green"/>
   </g>
   <g id="cell171">
  <circle cx="598.934" cy="480.558" r="8.2239" stroke-width="0.5" stroke="black" fill="cyan"/>
  <circle cx="598.934" cy="480.558" r="4.96725" stroke-width="0.5" stroke="black" fill="cyan"/>
   </g>
   <g id="cell172">
  <circle cx="550.091" cy="502.735" r="8.06013" stroke-width="0.5" stroke="black" fill="magenta"/>
  <circle cx="550.091" cy="502.735" r="4.88992" stroke-width="0.5" stroke="black" fill="magenta"/>
   </g>
   <g id="cell173">
  <circle cx="530.918" cy="520.416" r="8.19596" stroke-width="0.5" stroke="black" fill="cyan"/>
  <circle cx="530.918" cy="520.416" r="4.95406" stroke-width="0.5" stroke="black" fill="cyan"/>
   </g>
   <g id="cell174">
  <circle cx="499.295" cy="438.533" r="8.19928" stroke-width="0.5" stroke="black" fill="cyan"/>
  <circle cx="499.295" cy="438.533" r="4.95516" stroke-width="0.5" stroke="black" fill="cyan"/>
   </g>
   <g id="cell175">
  <circle cx="524.526" cy="607.248" r="7.3062" stroke-width="0.5" stroke="black" fill="green"/>
  <circle cx="524.526" cy="607.248" r="4.47774" stroke-width="0.5" stroke="black" fill="green"/>
   </g>
   <g id="cell176">
  <circle cx="556.829" cy="425.692" r="8.15258" stroke-width="0.5" stroke="black" fill="green"/>
  <circle cx="556.829" cy="425.692" r="4.93576" stroke-width="0.5" stroke="black" fill="green"/>
   </g>
   <g id="cell177">
  <circle cx="369.244" cy="563.526" r="7.98499" stroke-width="0.5" stroke="black" fill="cyan"/>
  <circle cx="369.244" cy="563.526" r="4.8507" stroke-width="0.5" stroke="black" fill="cyan"/>
   </g>
   <g id="cell178">
  <circle cx="562.012" cy="507.635" r="6.41443" stroke-width="0.5" stroke="black" fill="magenta"/>
  <circle cx="562.012" cy="507.635" r="3.89286" stroke-width="0.5" stroke="black" fill="magenta"/>
   </g>
   <g id="cell179">
  <circle cx="516.582" cy="516.705" r="8.15983" stroke-width="0.5" stroke="black" fill="cyan"/>
  <circle cx="516.582" cy="516.705" r="4.93477" stroke-width="0.5" stroke="black" fill="cyan"/>
   </g>
   <g id="cell180">
  <circle cx="619.53" cy="502.831" r="8.14594" stroke-width="0.5" stroke="black" fill="green"/>
  <circle cx="619.53" cy="502.831" r="4.92726" stroke-width="0.5" stroke="black" fill="green"/>
   </g>
   <g id="cell181">
  <circle cx="563.089" cy="528.03" r="8.02367" stroke-width="0.5" stroke="black" fill="cyan"/>
  <circle cx="563.089" cy="528.03" r="4.8715" stroke-width="0.5" stroke="black" fill="cyan"/>
   </g>
   <g id="cell182">
  <circle cx="533.925" cy="383.048" r="8.10031" stroke-width="0.5" stroke="black" fill="green"/>
  <circle cx="533.925" cy="383.048" r="4.90882" stroke-width="0.5" stroke="black" fill="green"/>
   </g>
   <g id="cell183">
  <circle cx="574.967" cy="511.545" r="8.13008" stroke-width="0.5" stroke="black" fill="magenta"/>
  <circle cx="574.967" cy="511.545" r="4.91894" stroke-width="0.5" stroke="black" fill="magenta"/>
   </g>
   <g id="cell184">
  <circle cx="432.543" cy="429.431" r="7.65388" stroke-width="0.5" stroke="black" fill="magenta"/>
  <circle cx="432.543" cy="429.431" r="4.67107" stroke-width="0.5" stroke="black" fill="magenta"/>
   </g>
   <g id="cell187">
  <circle cx="499.534" cy="496.903" r="8.07645" stroke-width="0.5" stroke="black" fill="cyan"/>
  <circle cx="499.534" cy="496.903" r="4.89044" stroke-width="0.5" stroke="black" fill="cyan"/>
   </g>
   <g id="cell188">
  <circle cx="533.94" cy="617.987" r="7.8964" stroke-width="0.5" stroke="black" fill="green"/>
  <circle cx="533.94" cy="617.987" r="4.80296" stroke-width="0.5" stroke="black" fill="green"/>
   </g>
   <g id="cell189">
  <circle cx="536.138" cy="476.007" r="7.99535" stroke-width="0.5" stroke="black" fill="cyan"/>
  <circle cx="536.138" cy="476.007" r="4.84756" stroke-width="0.5" stroke="black" fill="cyan"/>
   </g>
   <g id="cell190">
  <circle cx="547.69" cy="526.601" r="7.79025" stroke-width="0.5" stroke="black" fill="cyan"/>
  <circle cx="547.69" cy="526.601" r="4.75139" stroke-width="0.5" stroke="black" fill="cyan"/>
   </g>
   <g id="cell191">
  <circle cx="503.77" cy="476.794" r="7.97459" stroke-width="0.5" stroke="black" fill="magenta"/>
  <circle cx="503.77" cy="476.794" r="4.83762" stroke-width="0.5" stroke="black" fill="magenta"/>
   </g>
   <g id="cell192">
  <circle cx="474.656" cy="432.436" r="7.86056" stroke-width="0.5" stroke="black" fill="magenta"/>
  <circle cx="474.656" cy="432.436" r="4.77138" stroke-width="0.5" stroke="black" fill="magenta"/>
   </g>
   <g id="cell193">
  <circle cx="439.051" cy="417.256" r="7.65388" stroke-width="0.5" stroke="black" fill="magenta"/>
  <circle cx="439.051" cy="417.256" r="4.67107" stroke-width="0.5" stroke="black" fill="magenta"/>
   </g>
   <g id="cell194">
  <circle cx="601.772" cy="513.661" r="7.75342" stroke-width="0.5" stroke="black" fill="magenta"/>
  <circle cx="601.772" cy="513.661" r="4.71842" stroke-width="0.5" stroke="black" fill="magenta"/>
   </g>
   <g id="cell195">
  <circle cx="544.055" cy="393.951" r="7.59744" stroke-width="0.5" stroke="black" fill="green"/>
  <circle cx="544.055" cy="393.951" r="4.63998" stroke-width="0.5" stroke="black" fill="green"/>
   </g>
   <g id="cell196">
  <circle cx="460.368" cy="434.871" r="7.75893" stroke-width="0.5" stroke="black" fill="cyan"/>
  <circle cx="460.368" cy="434.871" r="4.71243" stroke-width="0.5" stroke="black" fill="cyan"/>
   </g>
   <g id="cell197">
  <circle cx="548.786" cy="617.189" r="7.73828" stroke-width="0.5" stroke="black" fill="green"/>
  <circle cx="548.786" cy="617.189" r="4.70088" stroke-width="0.5" stroke="black" fill="green"/>
   </g>
   <g id="cell198">
  <circle cx="425.533" cy="417.882" r="7.45131" stroke-width="0.5" stroke="black" fill="magenta"/>
  <circle cx="425.533" cy="417.882" r="4.55375" stroke-width="0.5" stroke="black" fill="magenta"/>
   </g>
   <g id="cell199">
  <circle cx="533.872" cy="597.474" r="7.3062" stroke-width="0.5" stroke="black" fill="green"/>
  <circle cx="533.872" cy="597.474" r="4.47774" stroke-width="0.5" stroke="black" fill="green"/>
   </g>
   <g id="cell200">
  <circle cx="446.225" cy="429.144" r="7.49758" stroke-width="0.5" stroke="black" fill="magenta"/>
  <circle cx="446.225" cy="429.144" r="4.56274" stroke-width="0.5" stroke="black" fill="magenta"/>
   </g>
   <g id="cell202">
  <circle cx="403.101" cy="607.082" r="7.3599" stroke-width="0.5" stroke="black" fill="cyan"/>
  <circle cx="403.101" cy="607.082" r="4.47294" stroke-width="0.5" stroke="black" fill="cyan"/>
   </g>
   <g id="cell203">
  <circle cx="360.016" cy="538.399" r="7.18449" stroke-width="0.5" stroke="black" fill="cyan"/>
  <circle cx="360.016" cy="538.399" r="4.38696" stroke-width="0.5" stroke="black" fill="cyan"/>
   </g>
   <g id="cell204">
  <circle cx="570.811" cy="489.464" r="7.19661" stroke-width="0.5" stroke="black" fill="magenta"/>
  <circle cx="570.811" cy="489.464" r="4.39315" stroke-width="0.5" stroke="black" fill="magenta"/>
   </g>
   <g id="cell205">
  <circle cx="427.528" cy="476.951" r="7.1177" stroke-width="0.5" stroke="black" fill="green"/>
  <circle cx="427.528" cy="476.951" r="4.31942" stroke-width="0.5" stroke="black" fill="green"/>
   </g>
   <g id="cell206">
  <circle cx="465.619" cy="624.374" r="6.92764" stroke-width="0.5" stroke="black" fill="magenta"/>
  <circle cx="465.619" cy="624.374" r="4.1918" stroke-width="0.5" stroke="black" fill="magenta"/>
   </g>
   <g id="cell207">
  <circle cx="623.007" cy="470.122" r="6.89306" stroke-width="0.5" stroke="black" fill="green"/>
  <circle cx="623.007" cy="470.122" r="4.16911" stroke-width="0.5" stroke="black" fill="green"/>
   </g>
   <g id="cell208">
  <circle cx="587.67" cy="555.771" r="6.60099" stroke-width="0.5" stroke="black" fill="cyan"/>
  <circle cx="587.67" cy="555.771" r="4.01672" stroke-width="0.5" stroke="black" fill="cyan"/>
   </g>
   <g id="cell209">
  <circle cx="441.839" cy="352.349" r="6.75062" stroke-width="0.5" stroke="black" fill="green"/>
  <circle cx="441.839" cy="352.349" r="4.06643" stroke-width="0.5" stroke="black" fill="green"/>
   </g>
   <g id="cell210">
  <circle cx="655.007" cy="538.892" r="6.7563" stroke-width="0.5" stroke="black" fill="green"/>
  <circle cx="655.007" cy="538.892" r="4.06811" stroke-width="0.5" stroke="black" fill="green"/>
   </g>
   <g id="cell211">
  <circle cx="450.283" cy="371.954" r="6.70573" stroke-width="0.5" stroke="black" fill="green"/>
  <circle cx="450.283" cy="371.954" r="4.03265" stroke-width="0.5" stroke="black" fill="green"/>
   </g>
   <g id="cell212">
  <circle cx="568.667" cy="500.061" r="6.41443" stroke-width="0.5" stroke="black" fill="magenta"/>
  <circle cx="568.667" cy="500.061" r="3.89286" stroke-width="0.5" stroke="black" fill="magenta"/>
   </g>
  </g>
 </g>
  <rect x="775" y="1035" width="200" height="10" stroke-width="2" stroke="rgb(255,255,255)" fill="rgb(0,0,0)"/>
  <text x="781.25" y="1028.75"
   font-family="Arial" font-size="25" fill="black" >
   200 &#956;m
  </text>
  <text x="25" y="1045"
   font-family="Arial" font-size="18.75" fill="black" >
   0 days, 0 hours, 0 minutes, and 46.4234 seconds
  </text>
  <rect x="0" y="70" width="1000" height="1000" stroke-width="2" stroke="rgb(0,0,0)" fill="none"/>
</svg>
