<?xml version="1.0" encoding="UTF-8" standalone="no"?>
<!-- Created with PhysiCell (http://PhysiCell.MathCancer.org/) -->
<svg 
 xmlns:dc="http://purl.org/dc/elements/1.1/" 
 xmlns:cc="http://creativecommons.org/ns#" 
 xmlns:rdf="http://www.w3.org/1999/02/22-rdf-syntax-ns#" 
 xmlns:svg="http://www.w3.org/2000/svg" 
 xmlns="http://www.w3.org/2000/svg" 
 version="1.1" 
 width="1000" 
 height="1070" 
 id="svg2">
  <rect x="0" y="0" width="1000" height="1070" stroke-width="2" stroke="white" fill="white"/>
  <text x="12.5" y="30"
   font-family="Arial" font-size="25" fill="black" >
   Current time: 0 days, 9 hours, and 54.00 minutes, z = 0.00 &#956;m
  </text>
  <text x="12.5" y="57.5"
   font-family="Arial" font-size="23.75" fill="black" >
   107 agents
  </text>
 <g id="tissue" 
    transform="translate(0,1070) scale(1,-1)">
  <g id="ECM">
  </g>
  <g id="cells">
   <g id="cell0">
  <circle cx="517.639" cy="533.142" r="7.93688" stroke-width="0.5" stroke="black" fill="magenta"/>
  <circle cx="517.639" cy="533.142" r="4.81381" stroke-width="0.5" stroke="black" fill="magenta"/>
   </g>
   <g id="cell1">
  <circle cx="602.492" cy="526.171" r="8.41271" stroke-width="0.5" stroke="black" fill="magenta"/>
  <circle cx="602.492" cy="526.171" r="5.05167" stroke-width="0.5" stroke="black" fill="magenta"/>
   </g>
   <g id="cell2">
  <circle cx="511.718" cy="599.27" r="8.41271" stroke-width="0.5" stroke="black" fill="magenta"/>
  <circle cx="511.718" cy="599.27" r="5.05167" stroke-width="0.5" stroke="black" fill="magenta"/>
   </g>
   <g id="cell3">
  <circle cx="524.091" cy="545.337" r="7.60967" stroke-width="0.5" stroke="black" fill="magenta"/>
  <circle cx="524.091" cy="545.337" r="4.64348" stroke-width="0.5" stroke="black" fill="magenta"/>
   </g>
   <g id="cell4">
  <circle cx="488.787" cy="438.349" r="8.2239" stroke-width="0.5" stroke="black" fill="magenta"/>
  <circle cx="488.787" cy="438.349" r="4.96725" stroke-width="0.5" stroke="black" fill="magenta"/>
   </g>
   <g id="cell5">
  <circle cx="465.032" cy="493.3" r="8.41271" stroke-width="0.5" stroke="black" fill="magenta"/>
  <circle cx="465.032" cy="493.3" r="5.05167" stroke-width="0.5" stroke="black" fill="magenta"/>
   </g>
   <g id="cell6">
  <circle cx="595.637" cy="512.669" r="8.41271" stroke-width="0.5" stroke="black" fill="magenta"/>
  <circle cx="595.637" cy="512.669" r="5.05167" stroke-width="0.5" stroke="black" fill="magenta"/>
   </g>
   <g id="cell7">
  <circle cx="509.788" cy="461.921" r="8.41271" stroke-width="0.5" stroke="black" fill="magenta"/>
  <circle cx="509.788" cy="461.921" r="5.05167" stroke-width="0.5" stroke="black" fill="magenta"/>
   </g>
   <g id="cell8">
  <circle cx="376.3" cy="544.154" r="8.41271" stroke-width="0.5" stroke="black" fill="magenta"/>
  <circle cx="376.3" cy="544.154" r="5.05167" stroke-width="0.5" stroke="black" fill="magenta"/>
   </g>
   <g id="cell9">
  <circle cx="460.472" cy="599.786" r="8.41271" stroke-width="0.5" stroke="black" fill="magenta"/>
  <circle cx="460.472" cy="599.786" r="5.05167" stroke-width="0.5" stroke="black" fill="magenta"/>
   </g>
   <g id="cell10">
  <circle cx="583.447" cy="392.105" r="8.41271" stroke-width="0.5" stroke="black" fill="magenta"/>
  <circle cx="583.447" cy="392.105" r="5.05167" stroke-width="0.5" stroke="black" fill="magenta"/>
   </g>
   <g id="cell11">
  <circle cx="589.748" cy="590.273" r="8.41271" stroke-width="0.5" stroke="black" fill="magenta"/>
  <circle cx="589.748" cy="590.273" r="5.05167" stroke-width="0.5" stroke="black" fill="magenta"/>
   </g>
   <g id="cell12">
  <circle cx="506.324" cy="585.089" r="8.41271" stroke-width="0.5" stroke="black" fill="magenta"/>
  <circle cx="506.324" cy="585.089" r="5.05167" stroke-width="0.5" stroke="black" fill="magenta"/>
   </g>
   <g id="cell13">
  <circle cx="386.194" cy="568.228" r="8.41271" stroke-width="0.5" stroke="black" fill="magenta"/>
  <circle cx="386.194" cy="568.228" r="5.05167" stroke-width="0.5" stroke="black" fill="magenta"/>
   </g>
   <g id="cell14">
  <circle cx="528.586" cy="399.165" r="8.41271" stroke-width="0.5" stroke="black" fill="magenta"/>
  <circle cx="528.586" cy="399.165" r="5.05167" stroke-width="0.5" stroke="black" fill="magenta"/>
   </g>
   <g id="cell15">
  <circle cx="379.65" cy="475.1" r="8.41271" stroke-width="0.5" stroke="black" fill="magenta"/>
  <circle cx="379.65" cy="475.1" r="5.05167" stroke-width="0.5" stroke="black" fill="magenta"/>
   </g>
   <g id="cell16">
  <circle cx="428.96" cy="413.217" r="8.41271" stroke-width="0.5" stroke="black" fill="magenta"/>
  <circle cx="428.96" cy="413.217" r="5.05167" stroke-width="0.5" stroke="black" fill="magenta"/>
   </g>
   <g id="cell17">
  <circle cx="569.517" cy="488.933" r="8.41271" stroke-width="0.5" stroke="black" fill="magenta"/>
  <circle cx="569.517" cy="488.933" r="5.05167" stroke-width="0.5" stroke="black" fill="magenta"/>
   </g>
   <g id="cell18">
  <circle cx="517.42" cy="388.936" r="8.41271" stroke-width="0.5" stroke="black" fill="magenta"/>
  <circle cx="517.42" cy="388.936" r="5.05167" stroke-width="0.5" stroke="black" fill="magenta"/>
   </g>
   <g id="cell19">
  <circle cx="456.373" cy="543.616" r="7.84675" stroke-width="0.5" stroke="black" fill="magenta"/>
  <circle cx="456.373" cy="543.616" r="4.7629" stroke-width="0.5" stroke="black" fill="magenta"/>
   </g>
   <g id="cell20">
  <circle cx="531.148" cy="414.089" r="8.41271" stroke-width="0.5" stroke="black" fill="magenta"/>
  <circle cx="531.148" cy="414.089" r="5.05167" stroke-width="0.5" stroke="black" fill="magenta"/>
   </g>
   <g id="cell21">
  <circle cx="464.368" cy="634.574" r="8.41271" stroke-width="0.5" stroke="black" fill="magenta"/>
  <circle cx="464.368" cy="634.574" r="5.05167" stroke-width="0.5" stroke="black" fill="magenta"/>
   </g>
   <g id="cell22">
  <circle cx="557.593" cy="498.471" r="8.41271" stroke-width="0.5" stroke="black" fill="magenta"/>
  <circle cx="557.593" cy="498.471" r="5.05167" stroke-width="0.5" stroke="black" fill="magenta"/>
   </g>
   <g id="cell23">
  <circle cx="540.018" cy="484.494" r="8.41271" stroke-width="0.5" stroke="black" fill="magenta"/>
  <circle cx="540.018" cy="484.494" r="5.05167" stroke-width="0.5" stroke="black" fill="magenta"/>
   </g>
   <g id="cell24">
  <circle cx="559.283" cy="379.8" r="8.41271" stroke-width="0.5" stroke="black" fill="magenta"/>
  <circle cx="559.283" cy="379.8" r="5.05167" stroke-width="0.5" stroke="black" fill="magenta"/>
   </g>
   <g id="cell25">
  <circle cx="645.541" cy="545.385" r="8.1218" stroke-width="0.5" stroke="black" fill="green"/>
  <circle cx="645.541" cy="545.385" r="4.91457" stroke-width="0.5" stroke="black" fill="green"/>
   </g>
   <g id="cell26">
  <circle cx="551.082" cy="401.244" r="8.41271" stroke-width="0.5" stroke="black" fill="green"/>
  <circle cx="551.082" cy="401.244" r="5.05167" stroke-width="0.5" stroke="black" fill="green"/>
   </g>
   <g id="cell27">
  <circle cx="463.362" cy="390.534" r="8.23444" stroke-width="0.5" stroke="black" fill="green"/>
  <circle cx="463.362" cy="390.534" r="4.97252" stroke-width="0.5" stroke="black" fill="green"/>
   </g>
   <g id="cell28">
  <circle cx="433.962" cy="530.742" r="8.41271" stroke-width="0.5" stroke="black" fill="green"/>
  <circle cx="433.962" cy="530.742" r="5.05167" stroke-width="0.5" stroke="black" fill="green"/>
   </g>
   <g id="cell29">
  <circle cx="450.394" cy="516.622" r="8.41271" stroke-width="0.5" stroke="black" fill="green"/>
  <circle cx="450.394" cy="516.622" r="5.05167" stroke-width="0.5" stroke="black" fill="green"/>
   </g>
   <g id="cell30">
  <circle cx="481.075" cy="535.027" r="7.67987" stroke-width="0.5" stroke="black" fill="green"/>
  <circle cx="481.075" cy="535.027" r="4.66617" stroke-width="0.5" stroke="black" fill="green"/>
   </g>
   <g id="cell31">
  <circle cx="412.757" cy="541.193" r="8.41271" stroke-width="0.5" stroke="black" fill="green"/>
  <circle cx="412.757" cy="541.193" r="5.05167" stroke-width="0.5" stroke="black" fill="green"/>
   </g>
   <g id="cell32">
  <circle cx="422.335" cy="480.57" r="7.41548" stroke-width="0.5" stroke="black" fill="green"/>
  <circle cx="422.335" cy="480.57" r="4.50723" stroke-width="0.5" stroke="black" fill="green"/>
   </g>
   <g id="cell33">
  <circle cx="496.655" cy="425.261" r="8.41271" stroke-width="0.5" stroke="black" fill="green"/>
  <circle cx="496.655" cy="425.261" r="5.05167" stroke-width="0.5" stroke="black" fill="green"/>
   </g>
   <g id="cell34">
  <circle cx="397.088" cy="450.831" r="8.41271" stroke-width="0.5" stroke="black" fill="green"/>
  <circle cx="397.088" cy="450.831" r="5.05167" stroke-width="0.5" stroke="black" fill="green"/>
   </g>
   <g id="cell35">
  <circle cx="550.924" cy="541.964" r="8.41271" stroke-width="0.5" stroke="black" fill="green"/>
  <circle cx="550.924" cy="541.964" r="5.05167" stroke-width="0.5" stroke="black" fill="green"/>
   </g>
   <g id="cell36">
  <circle cx="391.486" cy="582.903" r="8.41271" stroke-width="0.5" stroke="black" fill="green"/>
  <circle cx="391.486" cy="582.903" r="5.05167" stroke-width="0.5" stroke="black" fill="green"/>
   </g>
   <g id="cell37">
  <circle cx="639.563" cy="457.327" r="8.20689" stroke-width="0.5" stroke="black" fill="green"/>
  <circle cx="639.563" cy="457.327" r="4.95867" stroke-width="0.5" stroke="black" fill="green"/>
   </g>
   <g id="cell38">
  <circle cx="532.336" cy="598.548" r="8.16806" stroke-width="0.5" stroke="black" fill="green"/>
  <circle cx="532.336" cy="598.548" r="4.93877" stroke-width="0.5" stroke="black" fill="green"/>
   </g>
   <g id="cell39">
  <circle cx="613.458" cy="490.595" r="8.41271" stroke-width="0.5" stroke="black" fill="green"/>
  <circle cx="613.458" cy="490.595" r="5.05167" stroke-width="0.5" stroke="black" fill="green"/>
   </g>
   <g id="cell40">
  <circle cx="485.348" cy="571.779" r="8.41271" stroke-width="0.5" stroke="black" fill="green"/>
  <circle cx="485.348" cy="571.779" r="5.05167" stroke-width="0.5" stroke="black" fill="green"/>
   </g>
   <g id="cell41">
  <circle cx="364.925" cy="480.252" r="8.41271" stroke-width="0.5" stroke="black" fill="green"/>
  <circle cx="364.925" cy="480.252" r="5.05167" stroke-width="0.5" stroke="black" fill="green"/>
   </g>
   <g id="cell42">
  <circle cx="438.842" cy="494.268" r="8.41271" stroke-width="0.5" stroke="black" fill="green"/>
  <circle cx="438.842" cy="494.268" r="5.05167" stroke-width="0.5" stroke="black" fill="green"/>
   </g>
   <g id="cell43">
  <circle cx="558.499" cy="443.247" r="8.41271" stroke-width="0.5" stroke="black" fill="green"/>
  <circle cx="558.499" cy="443.247" r="5.05167" stroke-width="0.5" stroke="black" fill="green"/>
   </g>
   <g id="cell44">
  <circle cx="475.857" cy="624.021" r="8.41271" stroke-width="0.5" stroke="black" fill="green"/>
  <circle cx="475.857" cy="624.021" r="5.05167" stroke-width="0.5" stroke="black" fill="green"/>
   </g>
   <g id="cell45">
  <circle cx="414.953" cy="557.066" r="8.41271" stroke-width="0.5" stroke="black" fill="green"/>
  <circle cx="414.953" cy="557.066" r="5.05167" stroke-width="0.5" stroke="black" fill="green"/>
   </g>
   <g id="cell46">
  <circle cx="525.329" cy="610.864" r="6.83713" stroke-width="0.5" stroke="black" fill="green"/>
  <circle cx="525.329" cy="610.864" r="4.12773" stroke-width="0.5" stroke="black" fill="green"/>
   </g>
   <g id="cell47">
  <circle cx="505.289" cy="503.946" r="7.3599" stroke-width="0.5" stroke="black" fill="green"/>
  <circle cx="505.289" cy="503.946" r="4.47294" stroke-width="0.5" stroke="black" fill="green"/>
   </g>
   <g id="cell48">
  <circle cx="563.364" cy="601.804" r="8.41271" stroke-width="0.5" stroke="black" fill="green"/>
  <circle cx="563.364" cy="601.804" r="5.05167" stroke-width="0.5" stroke="black" fill="green"/>
   </g>
   <g id="cell49">
  <circle cx="429.826" cy="397.641" r="8.41271" stroke-width="0.5" stroke="black" fill="green"/>
  <circle cx="429.826" cy="397.641" r="5.05167" stroke-width="0.5" stroke="black" fill="green"/>
   </g>
   <g id="cell50">
  <circle cx="519.422" cy="518.595" r="7.97646" stroke-width="0.5" stroke="black" fill="cyan"/>
  <circle cx="519.422" cy="518.595" r="4.83584" stroke-width="0.5" stroke="black" fill="cyan"/>
   </g>
   <g id="cell51">
  <circle cx="398.721" cy="597.201" r="8.41271" stroke-width="0.5" stroke="black" fill="cyan"/>
  <circle cx="398.721" cy="597.201" r="5.05167" stroke-width="0.5" stroke="black" fill="cyan"/>
   </g>
   <g id="cell52">
  <circle cx="519.547" cy="424.512" r="8.41271" stroke-width="0.5" stroke="black" fill="cyan"/>
  <circle cx="519.547" cy="424.512" r="5.05167" stroke-width="0.5" stroke="black" fill="cyan"/>
   </g>
   <g id="cell53">
  <circle cx="572.902" cy="430.507" r="7.02257" stroke-width="0.5" stroke="black" fill="cyan"/>
  <circle cx="572.902" cy="430.507" r="4.25644" stroke-width="0.5" stroke="black" fill="cyan"/>
   </g>
   <g id="cell54">
  <circle cx="481.862" cy="424.39" r="7.54436" stroke-width="0.5" stroke="black" fill="cyan"/>
  <circle cx="481.862" cy="424.39" r="4.58555" stroke-width="0.5" stroke="black" fill="cyan"/>
   </g>
   <g id="cell55">
  <circle cx="523.646" cy="463.83" r="7.02336" stroke-width="0.5" stroke="black" fill="cyan"/>
  <circle cx="523.646" cy="463.83" r="4.2867" stroke-width="0.5" stroke="black" fill="cyan"/>
   </g>
   <g id="cell56">
  <circle cx="617.613" cy="522.333" r="8.41271" stroke-width="0.5" stroke="black" fill="cyan"/>
  <circle cx="617.613" cy="522.333" r="5.05167" stroke-width="0.5" stroke="black" fill="cyan"/>
   </g>
   <g id="cell105">
  <circle cx="512.818" cy="613.297" r="6.83713" stroke-width="0.5" stroke="black" fill="green"/>
  <circle cx="512.818" cy="613.297" r="4.12773" stroke-width="0.5" stroke="black" fill="green"/>
   </g>
   <g id="cell58">
  <circle cx="555.28" cy="483.224" r="8.41271" stroke-width="0.5" stroke="black" fill="cyan"/>
  <circle cx="555.28" cy="483.224" r="5.05167" stroke-width="0.5" stroke="black" fill="cyan"/>
   </g>
   <g id="cell59">
  <circle cx="385.463" cy="439.803" r="8.41271" stroke-width="0.5" stroke="black" fill="cyan"/>
  <circle cx="385.463" cy="439.803" r="5.05167" stroke-width="0.5" stroke="black" fill="cyan"/>
   </g>
   <g id="cell60">
  <circle cx="593.084" cy="473.648" r="8.41271" stroke-width="0.5" stroke="black" fill="cyan"/>
  <circle cx="593.084" cy="473.648" r="5.05167" stroke-width="0.5" stroke="black" fill="cyan"/>
   </g>
   <g id="cell61">
  <circle cx="554.304" cy="614.833" r="8.41271" stroke-width="0.5" stroke="black" fill="cyan"/>
  <circle cx="554.304" cy="614.833" r="5.05167" stroke-width="0.5" stroke="black" fill="cyan"/>
   </g>
   <g id="cell62">
  <circle cx="520.238" cy="450.15" r="8.23948" stroke-width="0.5" stroke="black" fill="cyan"/>
  <circle cx="520.238" cy="450.15" r="4.97503" stroke-width="0.5" stroke="black" fill="cyan"/>
   </g>
   <g id="cell63">
  <circle cx="574.999" cy="540.923" r="7.89373" stroke-width="0.5" stroke="black" fill="cyan"/>
  <circle cx="574.999" cy="540.923" r="4.78957" stroke-width="0.5" stroke="black" fill="cyan"/>
   </g>
   <g id="cell64">
  <circle cx="509.962" cy="636.825" r="8.41271" stroke-width="0.5" stroke="black" fill="cyan"/>
  <circle cx="509.962" cy="636.825" r="5.05167" stroke-width="0.5" stroke="black" fill="cyan"/>
   </g>
   <g id="cell65">
  <circle cx="546.75" cy="470.814" r="7.83019" stroke-width="0.5" stroke="black" fill="cyan"/>
  <circle cx="546.75" cy="470.814" r="4.75343" stroke-width="0.5" stroke="black" fill="cyan"/>
   </g>
   <g id="cell66">
  <circle cx="531.689" cy="533.232" r="7.49456" stroke-width="0.5" stroke="black" fill="cyan"/>
  <circle cx="531.689" cy="533.232" r="4.55548" stroke-width="0.5" stroke="black" fill="cyan"/>
   </g>
   <g id="cell67">
  <circle cx="354.711" cy="492.599" r="8.41271" stroke-width="0.5" stroke="black" fill="cyan"/>
  <circle cx="354.711" cy="492.599" r="5.05167" stroke-width="0.5" stroke="black" fill="cyan"/>
   </g>
   <g id="cell68">
  <circle cx="563.369" cy="551.417" r="8.41271" stroke-width="0.5" stroke="black" fill="cyan"/>
  <circle cx="563.369" cy="551.417" r="5.05167" stroke-width="0.5" stroke="black" fill="cyan"/>
   </g>
   <g id="cell69">
  <circle cx="441.461" cy="461.621" r="8.41271" stroke-width="0.5" stroke="black" fill="cyan"/>
  <circle cx="441.461" cy="461.621" r="5.05167" stroke-width="0.5" stroke="black" fill="cyan"/>
   </g>
   <g id="cell70">
  <circle cx="577.109" cy="475.23" r="8.41271" stroke-width="0.5" stroke="black" fill="cyan"/>
  <circle cx="577.109" cy="475.23" r="5.05167" stroke-width="0.5" stroke="black" fill="cyan"/>
   </g>
   <g id="cell71">
  <circle cx="377.712" cy="520.989" r="8.41271" stroke-width="0.5" stroke="black" fill="cyan"/>
  <circle cx="377.712" cy="520.989" r="5.05167" stroke-width="0.5" stroke="black" fill="cyan"/>
   </g>
   <g id="cell72">
  <circle cx="532.148" cy="511.261" r="7.56839" stroke-width="0.5" stroke="black" fill="cyan"/>
  <circle cx="532.148" cy="511.261" r="4.59998" stroke-width="0.5" stroke="black" fill="cyan"/>
   </g>
   <g id="cell73">
  <circle cx="363.506" cy="552.263" r="7.95045" stroke-width="0.5" stroke="black" fill="cyan"/>
  <circle cx="363.506" cy="552.263" r="4.82139" stroke-width="0.5" stroke="black" fill="cyan"/>
   </g>
   <g id="cell74">
  <circle cx="542.612" cy="444.908" r="8.41271" stroke-width="0.5" stroke="black" fill="cyan"/>
  <circle cx="542.612" cy="444.908" r="5.05167" stroke-width="0.5" stroke="black" fill="cyan"/>
   </g>
   <g id="cell75">
  <circle cx="528.924" cy="437.18" r="8.23948" stroke-width="0.5" stroke="black" fill="cyan"/>
  <circle cx="528.924" cy="437.18" r="4.97503" stroke-width="0.5" stroke="black" fill="cyan"/>
   </g>
   <g id="cell76">
  <circle cx="443.687" cy="382.974" r="5.60285" stroke-width="0.5" stroke="black" fill="green"/>
  <circle cx="443.687" cy="382.974" r="3.41683" stroke-width="0.5" stroke="black" fill="green"/>
   </g>
   <g id="cell77">
  <circle cx="476.089" cy="435.466" r="6.54375" stroke-width="0.5" stroke="black" fill="magenta"/>
  <circle cx="476.089" cy="435.466" r="3.95388" stroke-width="0.5" stroke="black" fill="magenta"/>
   </g>
   <g id="cell78">
  <circle cx="624.975" cy="461.357" r="7.71252" stroke-width="0.5" stroke="black" fill="green"/>
  <circle cx="624.975" cy="461.357" r="4.69976" stroke-width="0.5" stroke="black" fill="green"/>
   </g>
   <g id="cell79">
  <circle cx="516.273" cy="476.126" r="8.18177" stroke-width="0.5" stroke="black" fill="cyan"/>
  <circle cx="516.273" cy="476.126" r="4.94584" stroke-width="0.5" stroke="black" fill="cyan"/>
   </g>
   <g id="cell80">
  <circle cx="539.08" cy="612.559" r="8.03265" stroke-width="0.5" stroke="black" fill="green"/>
  <circle cx="539.08" cy="612.559" r="4.87581" stroke-width="0.5" stroke="black" fill="green"/>
   </g>
   <g id="cell81">
  <circle cx="547.796" cy="600.195" r="8.03265" stroke-width="0.5" stroke="black" fill="green"/>
  <circle cx="547.796" cy="600.195" r="4.87581" stroke-width="0.5" stroke="black" fill="green"/>
   </g>
   <g id="cell82">
  <circle cx="531.206" cy="557.631" r="8.1218" stroke-width="0.5" stroke="black" fill="magenta"/>
  <circle cx="531.206" cy="557.631" r="4.91457" stroke-width="0.5" stroke="black" fill="magenta"/>
   </g>
   <g id="cell83">
  <circle cx="634.672" cy="556.365" r="8.1218" stroke-width="0.5" stroke="black" fill="green"/>
  <circle cx="634.672" cy="556.365" r="4.91457" stroke-width="0.5" stroke="black" fill="green"/>
   </g>
   <g id="cell84">
  <circle cx="519.653" cy="503.496" r="7.97646" stroke-width="0.5" stroke="black" fill="cyan"/>
  <circle cx="519.653" cy="503.496" r="4.83584" stroke-width="0.5" stroke="black" fill="cyan"/>
   </g>
   <g id="cell85">
  <circle cx="353.871" cy="541.859" r="7.03125" stroke-width="0.5" stroke="black" fill="cyan"/>
  <circle cx="353.871" cy="541.859" r="4.30459" stroke-width="0.5" stroke="black" fill="cyan"/>
   </g>
   <g id="cell86">
  <circle cx="506.151" cy="525.075" r="7.93688" stroke-width="0.5" stroke="black" fill="magenta"/>
  <circle cx="506.151" cy="525.075" r="4.81381" stroke-width="0.5" stroke="black" fill="magenta"/>
   </g>
   <g id="cell87">
  <circle cx="576.928" cy="554.492" r="6.51303" stroke-width="0.5" stroke="black" fill="cyan"/>
  <circle cx="576.928" cy="554.492" r="3.97602" stroke-width="0.5" stroke="black" fill="cyan"/>
   </g>
   <g id="cell88">
  <circle cx="448.994" cy="531.608" r="7.84675" stroke-width="0.5" stroke="black" fill="magenta"/>
  <circle cx="448.994" cy="531.608" r="4.7629" stroke-width="0.5" stroke="black" fill="magenta"/>
   </g>
   <g id="cell89">
  <circle cx="551.944" cy="457.1" r="7.83019" stroke-width="0.5" stroke="black" fill="cyan"/>
  <circle cx="551.944" cy="457.1" r="4.75343" stroke-width="0.5" stroke="black" fill="cyan"/>
   </g>
   <g id="cell90">
  <circle cx="630.761" cy="474.814" r="7.71252" stroke-width="0.5" stroke="black" fill="green"/>
  <circle cx="630.761" cy="474.814" r="4.69976" stroke-width="0.5" stroke="black" fill="green"/>
   </g>
   <g id="cell91">
  <circle cx="544.982" cy="555.478" r="7.19103" stroke-width="0.5" stroke="black" fill="magenta"/>
  <circle cx="544.982" cy="555.478" r="4.41531" stroke-width="0.5" stroke="black" fill="magenta"/>
   </g>
   <g id="cell92">
  <circle cx="482.471" cy="549.544" r="7.67987" stroke-width="0.5" stroke="black" fill="green"/>
  <circle cx="482.471" cy="549.544" r="4.66617" stroke-width="0.5" stroke="black" fill="green"/>
   </g>
   <g id="cell93">
  <circle cx="537.195" cy="545.364" r="7.19103" stroke-width="0.5" stroke="black" fill="magenta"/>
  <circle cx="537.195" cy="545.364" r="4.41531" stroke-width="0.5" stroke="black" fill="magenta"/>
   </g>
   <g id="cell94">
  <circle cx="532.751" cy="497.094" r="7.56839" stroke-width="0.5" stroke="black" fill="cyan"/>
  <circle cx="532.751" cy="497.094" r="4.59998" stroke-width="0.5" stroke="black" fill="cyan"/>
   </g>
   <g id="cell95">
  <circle cx="467.44" cy="424.608" r="7.54436" stroke-width="0.5" stroke="black" fill="cyan"/>
  <circle cx="467.44" cy="424.608" r="4.58555" stroke-width="0.5" stroke="black" fill="cyan"/>
   </g>
   <g id="cell96">
  <circle cx="540.788" cy="522.444" r="7.49456" stroke-width="0.5" stroke="black" fill="cyan"/>
  <circle cx="540.788" cy="522.444" r="4.55548" stroke-width="0.5" stroke="black" fill="cyan"/>
   </g>
   <g id="cell97">
  <circle cx="422.648" cy="467.361" r="6.51462" stroke-width="0.5" stroke="black" fill="green"/>
  <circle cx="422.648" cy="467.361" r="3.99762" stroke-width="0.5" stroke="black" fill="green"/>
   </g>
   <g id="cell98">
  <circle cx="496.667" cy="514.804" r="7.3599" stroke-width="0.5" stroke="black" fill="green"/>
  <circle cx="496.667" cy="514.804" r="4.47294" stroke-width="0.5" stroke="black" fill="green"/>
   </g>
   <g id="cell99">
  <circle cx="357.798" cy="529.154" r="7.03125" stroke-width="0.5" stroke="black" fill="cyan"/>
  <circle cx="357.798" cy="529.154" r="4.30459" stroke-width="0.5" stroke="black" fill="cyan"/>
   </g>
   <g id="cell100">
  <circle cx="449.206" cy="393.822" r="7.05915" stroke-width="0.5" stroke="black" fill="green"/>
  <circle cx="449.206" cy="393.822" r="4.30494" stroke-width="0.5" stroke="black" fill="green"/>
   </g>
   <g id="cell101">
  <circle cx="533.085" cy="472.406" r="7.02336" stroke-width="0.5" stroke="black" fill="cyan"/>
  <circle cx="533.085" cy="472.406" r="4.2867" stroke-width="0.5" stroke="black" fill="cyan"/>
   </g>
   <g id="cell102">
  <circle cx="433.45" cy="473.319" r="6.51462" stroke-width="0.5" stroke="black" fill="green"/>
  <circle cx="433.45" cy="473.319" r="3.99762" stroke-width="0.5" stroke="black" fill="green"/>
   </g>
   <g id="cell103">
  <circle cx="573.099" cy="443.829" r="7.02257" stroke-width="0.5" stroke="black" fill="cyan"/>
  <circle cx="573.099" cy="443.829" r="4.25644" stroke-width="0.5" stroke="black" fill="cyan"/>
   </g>
   <g id="cell104">
  <circle cx="589.111" cy="553.888" r="6.51303" stroke-width="0.5" stroke="black" fill="cyan"/>
  <circle cx="589.111" cy="553.888" r="3.97602" stroke-width="0.5" stroke="black" fill="cyan"/>
   </g>
   <g id="cell106">
  <circle cx="466.316" cy="441.224" r="6.54375" stroke-width="0.5" stroke="black" fill="magenta"/>
  <circle cx="466.316" cy="441.224" r="3.95388" stroke-width="0.5" stroke="black" fill="magenta"/>
   </g>
   <g id="cell107">
  <circle cx="452.399" cy="377.808" r="5.60285" stroke-width="0.5" stroke="black" fill="green"/>
  <circle cx="452.399" cy="377.808" r="3.41683" stroke-width="0.5" stroke="black" fill="green"/>
   </g>
  </g>
 </g>
  <rect x="775" y="1035" width="200" height="10" stroke-width="2" stroke="rgb(255,255,255)" fill="rgb(0,0,0)"/>
  <text x="781.25" y="1028.75"
   font-family="Arial" font-size="25" fill="black" >
   200 &#956;m
  </text>
  <text x="25" y="1045"
   font-family="Arial" font-size="18.75" fill="black" >
   0 days, 0 hours, 0 minutes, and 11.1337 seconds
  </text>
  <rect x="0" y="70" width="1000" height="1000" stroke-width="2" stroke="rgb(0,0,0)" fill="none"/>
</svg>
