<?xml version="1.0" encoding="UTF-8" standalone="no"?>
<!-- Created with PhysiCell (http://PhysiCell.MathCancer.org/) -->
<svg 
 xmlns:dc="http://purl.org/dc/elements/1.1/" 
 xmlns:cc="http://creativecommons.org/ns#" 
 xmlns:rdf="http://www.w3.org/1999/02/22-rdf-syntax-ns#" 
 xmlns:svg="http://www.w3.org/2000/svg" 
 xmlns="http://www.w3.org/2000/svg" 
 version="1.1" 
 width="1000" 
 height="1070" 
 id="svg2">
  <rect x="0" y="0" width="1000" height="1070" stroke-width="2" stroke="white" fill="white"/>
  <text x="12.5" y="30"
   font-family="Arial" font-size="25" fill="black" >
   Current time: 0 days, 19 hours, and 0.00 minutes, z = 0.00 &#956;m
  </text>
  <text x="12.5" y="57.5"
   font-family="Arial" font-size="23.75" fill="black" >
   129 agents
  </text>
 <g id="tissue" 
    transform="translate(0,1070) scale(1,-1)">
  <g id="ECM">
  </g>
  <g id="cells">
   <g id="cell0">
  <circle cx="510.127" cy="539.572" r="8.38891" stroke-width="0.5" stroke="black" fill="magenta"/>
  <circle cx="510.127" cy="539.572" r="5.0434" stroke-width="0.5" stroke="black" fill="magenta"/>
   </g>
   <g id="cell1">
  <circle cx="603.915" cy="528.073" r="6.83713" stroke-width="0.5" stroke="black" fill="magenta"/>
  <circle cx="603.915" cy="528.073" r="4.12773" stroke-width="0.5" stroke="black" fill="magenta"/>
   </g>
   <g id="cell2">
  <circle cx="512.372" cy="599.308" r="7.83209" stroke-width="0.5" stroke="black" fill="magenta"/>
  <circle cx="512.372" cy="599.308" r="4.76" stroke-width="0.5" stroke="black" fill="magenta"/>
   </g>
   <g id="cell3">
  <circle cx="524.687" cy="544.185" r="8.41271" stroke-width="0.5" stroke="black" fill="magenta"/>
  <circle cx="524.687" cy="544.185" r="5.05167" stroke-width="0.5" stroke="black" fill="magenta"/>
   </g>
   <g id="cell4">
  <circle cx="480.6" cy="438.361" r="8.41271" stroke-width="0.5" stroke="black" fill="magenta"/>
  <circle cx="480.6" cy="438.361" r="5.05167" stroke-width="0.5" stroke="black" fill="magenta"/>
   </g>
   <g id="cell5">
  <circle cx="454.242" cy="497.673" r="7.6064" stroke-width="0.5" stroke="black" fill="magenta"/>
  <circle cx="454.242" cy="497.673" r="4.62476" stroke-width="0.5" stroke="black" fill="magenta"/>
   </g>
   <g id="cell6">
  <circle cx="587.451" cy="510.404" r="7.67987" stroke-width="0.5" stroke="black" fill="magenta"/>
  <circle cx="587.451" cy="510.404" r="4.66617" stroke-width="0.5" stroke="black" fill="magenta"/>
   </g>
   <g id="cell7">
  <circle cx="509.69" cy="467.944" r="8.41271" stroke-width="0.5" stroke="black" fill="magenta"/>
  <circle cx="509.69" cy="467.944" r="5.05167" stroke-width="0.5" stroke="black" fill="magenta"/>
   </g>
   <g id="cell8">
  <circle cx="384.923" cy="539.94" r="7.90873" stroke-width="0.5" stroke="black" fill="magenta"/>
  <circle cx="384.923" cy="539.94" r="4.80088" stroke-width="0.5" stroke="black" fill="magenta"/>
   </g>
   <g id="cell9">
  <circle cx="460.472" cy="599.786" r="8.41271" stroke-width="0.5" stroke="black" fill="magenta"/>
  <circle cx="460.472" cy="599.786" r="5.05167" stroke-width="0.5" stroke="black" fill="magenta"/>
   </g>
   <g id="cell10">
  <circle cx="583.447" cy="392.105" r="8.41271" stroke-width="0.5" stroke="black" fill="magenta"/>
  <circle cx="583.447" cy="392.105" r="5.05167" stroke-width="0.5" stroke="black" fill="magenta"/>
   </g>
   <g id="cell11">
  <circle cx="589.748" cy="590.273" r="8.41271" stroke-width="0.5" stroke="black" fill="magenta"/>
  <circle cx="589.748" cy="590.273" r="5.05167" stroke-width="0.5" stroke="black" fill="magenta"/>
   </g>
   <g id="cell12">
  <circle cx="500.764" cy="592.404" r="7.50836" stroke-width="0.5" stroke="black" fill="magenta"/>
  <circle cx="500.764" cy="592.404" r="4.5833" stroke-width="0.5" stroke="black" fill="magenta"/>
   </g>
   <g id="cell13">
  <circle cx="380.811" cy="564.34" r="8.41271" stroke-width="0.5" stroke="black" fill="magenta"/>
  <circle cx="380.811" cy="564.34" r="5.05167" stroke-width="0.5" stroke="black" fill="magenta"/>
   </g>
   <g id="cell14">
  <circle cx="531.325" cy="400.053" r="8.41271" stroke-width="0.5" stroke="black" fill="magenta"/>
  <circle cx="531.325" cy="400.053" r="5.05167" stroke-width="0.5" stroke="black" fill="magenta"/>
   </g>
   <g id="cell15">
  <circle cx="378.742" cy="473.887" r="8.41271" stroke-width="0.5" stroke="black" fill="magenta"/>
  <circle cx="378.742" cy="473.887" r="5.05167" stroke-width="0.5" stroke="black" fill="magenta"/>
   </g>
   <g id="cell16">
  <circle cx="428.979" cy="412.994" r="8.41271" stroke-width="0.5" stroke="black" fill="magenta"/>
  <circle cx="428.979" cy="412.994" r="5.05167" stroke-width="0.5" stroke="black" fill="magenta"/>
   </g>
   <g id="cell17">
  <circle cx="589.089" cy="496.473" r="8.27097" stroke-width="0.5" stroke="black" fill="magenta"/>
  <circle cx="589.089" cy="496.473" r="4.99048" stroke-width="0.5" stroke="black" fill="magenta"/>
   </g>
   <g id="cell18">
  <circle cx="519.341" cy="390.799" r="8.41271" stroke-width="0.5" stroke="black" fill="magenta"/>
  <circle cx="519.341" cy="390.799" r="5.05167" stroke-width="0.5" stroke="black" fill="magenta"/>
   </g>
   <g id="cell19">
  <circle cx="451.991" cy="536.582" r="8.41271" stroke-width="0.5" stroke="black" fill="magenta"/>
  <circle cx="451.991" cy="536.582" r="5.05167" stroke-width="0.5" stroke="black" fill="magenta"/>
   </g>
   <g id="cell20">
  <circle cx="528.544" cy="414.936" r="8.41271" stroke-width="0.5" stroke="black" fill="magenta"/>
  <circle cx="528.544" cy="414.936" r="5.05167" stroke-width="0.5" stroke="black" fill="magenta"/>
   </g>
   <g id="cell21">
  <circle cx="464.368" cy="634.574" r="8.41271" stroke-width="0.5" stroke="black" fill="magenta"/>
  <circle cx="464.368" cy="634.574" r="5.05167" stroke-width="0.5" stroke="black" fill="magenta"/>
   </g>
   <g id="cell22">
  <circle cx="561.264" cy="497.954" r="8.40123" stroke-width="0.5" stroke="black" fill="magenta"/>
  <circle cx="561.264" cy="497.954" r="5.048" stroke-width="0.5" stroke="black" fill="magenta"/>
   </g>
   <g id="cell23">
  <circle cx="534.693" cy="483.718" r="8.41271" stroke-width="0.5" stroke="black" fill="magenta"/>
  <circle cx="534.693" cy="483.718" r="5.05167" stroke-width="0.5" stroke="black" fill="magenta"/>
   </g>
   <g id="cell24">
  <circle cx="556.493" cy="383.243" r="8.41271" stroke-width="0.5" stroke="black" fill="magenta"/>
  <circle cx="556.493" cy="383.243" r="5.05167" stroke-width="0.5" stroke="black" fill="magenta"/>
   </g>
   <g id="cell25">
  <circle cx="640.943" cy="550.03" r="8.41271" stroke-width="0.5" stroke="black" fill="green"/>
  <circle cx="640.943" cy="550.03" r="5.05167" stroke-width="0.5" stroke="black" fill="green"/>
   </g>
   <g id="cell26">
  <circle cx="545.854" cy="394.561" r="8.347" stroke-width="0.5" stroke="black" fill="green"/>
  <circle cx="545.854" cy="394.561" r="5.02586" stroke-width="0.5" stroke="black" fill="green"/>
   </g>
   <g id="cell27">
  <circle cx="454.48" cy="382.339" r="7.26277" stroke-width="0.5" stroke="black" fill="green"/>
  <circle cx="454.48" cy="382.339" r="4.43304" stroke-width="0.5" stroke="black" fill="green"/>
   </g>
   <g id="cell28">
  <circle cx="437.414" cy="531.024" r="8.41271" stroke-width="0.5" stroke="black" fill="green"/>
  <circle cx="437.414" cy="531.024" r="5.05167" stroke-width="0.5" stroke="black" fill="green"/>
   </g>
   <g id="cell29">
  <circle cx="450.003" cy="521.109" r="8.41271" stroke-width="0.5" stroke="black" fill="green"/>
  <circle cx="450.003" cy="521.109" r="5.05167" stroke-width="0.5" stroke="black" fill="green"/>
   </g>
   <g id="cell127">
  <circle cx="394.68" cy="563.556" r="7.00462" stroke-width="0.5" stroke="black" fill="magenta"/>
  <circle cx="394.68" cy="563.556" r="4.29135" stroke-width="0.5" stroke="black" fill="magenta"/>
   </g>
   <g id="cell31">
  <circle cx="412.757" cy="541.193" r="8.41271" stroke-width="0.5" stroke="black" fill="green"/>
  <circle cx="412.757" cy="541.193" r="5.05167" stroke-width="0.5" stroke="black" fill="green"/>
   </g>
   <g id="cell122">
  <circle cx="572.362" cy="489.669" r="7.13539" stroke-width="0.5" stroke="black" fill="magenta"/>
  <circle cx="572.362" cy="489.669" r="4.3773" stroke-width="0.5" stroke="black" fill="magenta"/>
   </g>
   <g id="cell33">
  <circle cx="491.526" cy="418.287" r="7.77763" stroke-width="0.5" stroke="black" fill="green"/>
  <circle cx="491.526" cy="418.287" r="4.7232" stroke-width="0.5" stroke="black" fill="green"/>
   </g>
   <g id="cell34">
  <circle cx="402.444" cy="449.835" r="7.96365" stroke-width="0.5" stroke="black" fill="green"/>
  <circle cx="402.444" cy="449.835" r="4.82873" stroke-width="0.5" stroke="black" fill="green"/>
   </g>
   <g id="cell35">
  <circle cx="553.775" cy="553.057" r="8.40185" stroke-width="0.5" stroke="black" fill="green"/>
  <circle cx="553.775" cy="553.057" r="5.04822" stroke-width="0.5" stroke="black" fill="green"/>
   </g>
   <g id="cell36">
  <circle cx="389.884" cy="577.155" r="8.41271" stroke-width="0.5" stroke="black" fill="green"/>
  <circle cx="389.884" cy="577.155" r="5.05167" stroke-width="0.5" stroke="black" fill="green"/>
   </g>
   <g id="cell37">
  <circle cx="633.066" cy="454.699" r="8.37208" stroke-width="0.5" stroke="black" fill="green"/>
  <circle cx="633.066" cy="454.699" r="5.03661" stroke-width="0.5" stroke="black" fill="green"/>
   </g>
   <g id="cell38">
  <circle cx="537.618" cy="602.236" r="8.41271" stroke-width="0.5" stroke="black" fill="green"/>
  <circle cx="537.618" cy="602.236" r="5.05167" stroke-width="0.5" stroke="black" fill="green"/>
   </g>
   <g id="cell39">
  <circle cx="613.794" cy="498.829" r="8.11977" stroke-width="0.5" stroke="black" fill="green"/>
  <circle cx="613.794" cy="498.829" r="4.92104" stroke-width="0.5" stroke="black" fill="green"/>
   </g>
   <g id="cell40">
  <circle cx="484.099" cy="572.869" r="8.39794" stroke-width="0.5" stroke="black" fill="green"/>
  <circle cx="484.099" cy="572.869" r="5.04681" stroke-width="0.5" stroke="black" fill="green"/>
   </g>
   <g id="cell41">
  <circle cx="370.974" cy="487.376" r="8.37321" stroke-width="0.5" stroke="black" fill="green"/>
  <circle cx="370.974" cy="487.376" r="5.03708" stroke-width="0.5" stroke="black" fill="green"/>
   </g>
   <g id="cell42">
  <circle cx="439.776" cy="494.46" r="8.41271" stroke-width="0.5" stroke="black" fill="green"/>
  <circle cx="439.776" cy="494.46" r="5.05167" stroke-width="0.5" stroke="black" fill="green"/>
   </g>
   <g id="cell43">
  <circle cx="555.011" cy="437.578" r="8.3937" stroke-width="0.5" stroke="black" fill="green"/>
  <circle cx="555.011" cy="437.578" r="5.04523" stroke-width="0.5" stroke="black" fill="green"/>
   </g>
   <g id="cell44">
  <circle cx="475.857" cy="624.021" r="8.41271" stroke-width="0.5" stroke="black" fill="green"/>
  <circle cx="475.857" cy="624.021" r="5.05167" stroke-width="0.5" stroke="black" fill="green"/>
   </g>
   <g id="cell45">
  <circle cx="414.953" cy="557.066" r="8.41271" stroke-width="0.5" stroke="black" fill="green"/>
  <circle cx="414.953" cy="557.066" r="5.05167" stroke-width="0.5" stroke="black" fill="green"/>
   </g>
   <g id="cell46">
  <circle cx="523.25" cy="609.213" r="8.41271" stroke-width="0.5" stroke="black" fill="green"/>
  <circle cx="523.25" cy="609.213" r="5.05167" stroke-width="0.5" stroke="black" fill="green"/>
   </g>
   <g id="cell47">
  <circle cx="502.253" cy="499.562" r="8.39913" stroke-width="0.5" stroke="black" fill="green"/>
  <circle cx="502.253" cy="499.562" r="5.04725" stroke-width="0.5" stroke="black" fill="green"/>
   </g>
   <g id="cell48">
  <circle cx="564.477" cy="602.823" r="8.41271" stroke-width="0.5" stroke="black" fill="green"/>
  <circle cx="564.477" cy="602.823" r="5.05167" stroke-width="0.5" stroke="black" fill="green"/>
   </g>
   <g id="cell49">
  <circle cx="430.624" cy="397.497" r="8.41271" stroke-width="0.5" stroke="black" fill="green"/>
  <circle cx="430.624" cy="397.497" r="5.05167" stroke-width="0.5" stroke="black" fill="green"/>
   </g>
   <g id="cell50">
  <circle cx="516.436" cy="506.414" r="8.41271" stroke-width="0.5" stroke="black" fill="cyan"/>
  <circle cx="516.436" cy="506.414" r="5.05167" stroke-width="0.5" stroke="black" fill="cyan"/>
   </g>
   <g id="cell51">
  <circle cx="396.559" cy="592.719" r="8.41271" stroke-width="0.5" stroke="black" fill="cyan"/>
  <circle cx="396.559" cy="592.719" r="5.05167" stroke-width="0.5" stroke="black" fill="cyan"/>
   </g>
   <g id="cell108">
  <circle cx="336.074" cy="545.003" r="8.13813" stroke-width="0.5" stroke="black" fill="cyan"/>
  <circle cx="336.074" cy="545.003" r="4.92567" stroke-width="0.5" stroke="black" fill="cyan"/>
   </g>
   <g id="cell53">
  <circle cx="571.002" cy="436.208" r="8.41271" stroke-width="0.5" stroke="black" fill="cyan"/>
  <circle cx="571.002" cy="436.208" r="5.05167" stroke-width="0.5" stroke="black" fill="cyan"/>
   </g>
   <g id="cell54">
  <circle cx="476.958" cy="423.222" r="8.41271" stroke-width="0.5" stroke="black" fill="cyan"/>
  <circle cx="476.958" cy="423.222" r="5.05167" stroke-width="0.5" stroke="black" fill="cyan"/>
   </g>
   <g id="cell55">
  <circle cx="524.289" cy="472.492" r="8.1218" stroke-width="0.5" stroke="black" fill="cyan"/>
  <circle cx="524.289" cy="472.492" r="4.91457" stroke-width="0.5" stroke="black" fill="cyan"/>
   </g>
   <g id="cell56">
  <circle cx="616.612" cy="521.907" r="8.41271" stroke-width="0.5" stroke="black" fill="cyan"/>
  <circle cx="616.612" cy="521.907" r="5.05167" stroke-width="0.5" stroke="black" fill="cyan"/>
   </g>
   <g id="cell57">
  <circle cx="416.924" cy="617.466" r="8.41271" stroke-width="0.5" stroke="black" fill="cyan"/>
  <circle cx="416.924" cy="617.466" r="5.05167" stroke-width="0.5" stroke="black" fill="cyan"/>
   </g>
   <g id="cell58">
  <circle cx="547.144" cy="474.293" r="8.41271" stroke-width="0.5" stroke="black" fill="cyan"/>
  <circle cx="547.144" cy="474.293" r="5.05167" stroke-width="0.5" stroke="black" fill="cyan"/>
   </g>
   <g id="cell59">
  <circle cx="389.074" cy="436.144" r="6.86652" stroke-width="0.5" stroke="black" fill="cyan"/>
  <circle cx="389.074" cy="436.144" r="4.14883" stroke-width="0.5" stroke="black" fill="cyan"/>
   </g>
   <g id="cell60">
  <circle cx="596.982" cy="472.755" r="8.41271" stroke-width="0.5" stroke="black" fill="cyan"/>
  <circle cx="596.982" cy="472.755" r="5.05167" stroke-width="0.5" stroke="black" fill="cyan"/>
   </g>
   <g id="cell61">
  <circle cx="552.577" cy="613.567" r="8.41271" stroke-width="0.5" stroke="black" fill="cyan"/>
  <circle cx="552.577" cy="613.567" r="5.05167" stroke-width="0.5" stroke="black" fill="cyan"/>
   </g>
   <g id="cell62">
  <circle cx="526.094" cy="442.632" r="8.41271" stroke-width="0.5" stroke="black" fill="cyan"/>
  <circle cx="526.094" cy="442.632" r="5.05167" stroke-width="0.5" stroke="black" fill="cyan"/>
   </g>
   <g id="cell63">
  <circle cx="593.982" cy="553.336" r="8.28007" stroke-width="0.5" stroke="black" fill="cyan"/>
  <circle cx="593.982" cy="553.336" r="4.99622" stroke-width="0.5" stroke="black" fill="cyan"/>
   </g>
   <g id="cell64">
  <circle cx="509.962" cy="636.825" r="8.41271" stroke-width="0.5" stroke="black" fill="cyan"/>
  <circle cx="509.962" cy="636.825" r="5.05167" stroke-width="0.5" stroke="black" fill="cyan"/>
   </g>
   <g id="cell65">
  <circle cx="535.789" cy="461.901" r="8.41271" stroke-width="0.5" stroke="black" fill="cyan"/>
  <circle cx="535.789" cy="461.901" r="5.05167" stroke-width="0.5" stroke="black" fill="cyan"/>
   </g>
   <g id="cell66">
  <circle cx="550.681" cy="535.624" r="8.37431" stroke-width="0.5" stroke="black" fill="cyan"/>
  <circle cx="550.681" cy="535.624" r="5.03754" stroke-width="0.5" stroke="black" fill="cyan"/>
   </g>
   <g id="cell67">
  <circle cx="357.753" cy="496.364" r="8.40056" stroke-width="0.5" stroke="black" fill="cyan"/>
  <circle cx="357.753" cy="496.364" r="5.04776" stroke-width="0.5" stroke="black" fill="cyan"/>
   </g>
   <g id="cell68">
  <circle cx="569.097" cy="557.487" r="8.41271" stroke-width="0.5" stroke="black" fill="cyan"/>
  <circle cx="569.097" cy="557.487" r="5.05167" stroke-width="0.5" stroke="black" fill="cyan"/>
   </g>
   <g id="cell69">
  <circle cx="433.596" cy="461.582" r="6.63141" stroke-width="0.5" stroke="black" fill="cyan"/>
  <circle cx="433.596" cy="461.582" r="4.08952" stroke-width="0.5" stroke="black" fill="cyan"/>
   </g>
   <g id="cell70">
  <circle cx="584.805" cy="482.429" r="8.31491" stroke-width="0.5" stroke="black" fill="cyan"/>
  <circle cx="584.805" cy="482.429" r="5.01133" stroke-width="0.5" stroke="black" fill="cyan"/>
   </g>
   <g id="cell71">
  <circle cx="373.281" cy="513.006" r="8.298" stroke-width="0.5" stroke="black" fill="cyan"/>
  <circle cx="373.281" cy="513.006" r="5.00563" stroke-width="0.5" stroke="black" fill="cyan"/>
   </g>
   <g id="cell72">
  <circle cx="535.627" cy="515.305" r="8.40272" stroke-width="0.5" stroke="black" fill="cyan"/>
  <circle cx="535.627" cy="515.305" r="5.04853" stroke-width="0.5" stroke="black" fill="cyan"/>
   </g>
   <g id="cell73">
  <circle cx="347.127" cy="555.837" r="8.13813" stroke-width="0.5" stroke="black" fill="cyan"/>
  <circle cx="347.127" cy="555.837" r="4.92567" stroke-width="0.5" stroke="black" fill="cyan"/>
   </g>
   <g id="cell74">
  <circle cx="541.475" cy="446.284" r="8.41271" stroke-width="0.5" stroke="black" fill="cyan"/>
  <circle cx="541.475" cy="446.284" r="5.05167" stroke-width="0.5" stroke="black" fill="cyan"/>
   </g>
   <g id="cell75">
  <circle cx="533.943" cy="499.245" r="8.40272" stroke-width="0.5" stroke="black" fill="cyan"/>
  <circle cx="533.943" cy="499.245" r="5.04853" stroke-width="0.5" stroke="black" fill="cyan"/>
   </g>
   <g id="cell76">
  <circle cx="529.673" cy="558.625" r="8.16231" stroke-width="0.5" stroke="black" fill="green"/>
  <circle cx="529.673" cy="558.625" r="4.93691" stroke-width="0.5" stroke="black" fill="green"/>
   </g>
   <g id="cell77">
  <circle cx="547.96" cy="501.559" r="7.14175" stroke-width="0.5" stroke="black" fill="magenta"/>
  <circle cx="547.96" cy="501.559" r="4.3373" stroke-width="0.5" stroke="black" fill="magenta"/>
   </g>
   <g id="cell78">
  <circle cx="343.417" cy="489.227" r="8.40056" stroke-width="0.5" stroke="black" fill="cyan"/>
  <circle cx="343.417" cy="489.227" r="5.04776" stroke-width="0.5" stroke="black" fill="cyan"/>
   </g>
   <g id="cell79">
  <circle cx="487.438" cy="505.281" r="8.39913" stroke-width="0.5" stroke="black" fill="green"/>
  <circle cx="487.438" cy="505.281" r="5.04725" stroke-width="0.5" stroke="black" fill="green"/>
   </g>
   <g id="cell80">
  <circle cx="472.783" cy="484.514" r="8.39913" stroke-width="0.5" stroke="black" fill="magenta"/>
  <circle cx="472.783" cy="484.514" r="5.04725" stroke-width="0.5" stroke="black" fill="magenta"/>
   </g>
   <g id="cell81">
  <circle cx="479.941" cy="557.563" r="8.39794" stroke-width="0.5" stroke="black" fill="green"/>
  <circle cx="479.941" cy="557.563" r="5.04681" stroke-width="0.5" stroke="black" fill="green"/>
   </g>
   <g id="cell82">
  <circle cx="575.679" cy="530.917" r="8.19089" stroke-width="0.5" stroke="black" fill="cyan"/>
  <circle cx="575.679" cy="530.917" r="4.95219" stroke-width="0.5" stroke="black" fill="cyan"/>
   </g>
   <g id="cell83">
  <circle cx="564.273" cy="450.534" r="8.28007" stroke-width="0.5" stroke="black" fill="green"/>
  <circle cx="564.273" cy="450.534" r="4.99622" stroke-width="0.5" stroke="black" fill="green"/>
   </g>
   <g id="cell84">
  <circle cx="520.905" cy="531.245" r="6.94162" stroke-width="0.5" stroke="black" fill="magenta"/>
  <circle cx="520.905" cy="531.245" r="4.20712" stroke-width="0.5" stroke="black" fill="magenta"/>
   </g>
   <g id="cell85">
  <circle cx="374.603" cy="550.401" r="8.38753" stroke-width="0.5" stroke="black" fill="magenta"/>
  <circle cx="374.603" cy="550.401" r="5.04286" stroke-width="0.5" stroke="black" fill="magenta"/>
   </g>
   <g id="cell86">
  <circle cx="602.24" cy="488.199" r="8.38608" stroke-width="0.5" stroke="black" fill="green"/>
  <circle cx="602.24" cy="488.199" r="5.04229" stroke-width="0.5" stroke="black" fill="green"/>
   </g>
   <g id="cell87">
  <circle cx="359.559" cy="546.293" r="8.38373" stroke-width="0.5" stroke="black" fill="cyan"/>
  <circle cx="359.559" cy="546.293" r="5.04136" stroke-width="0.5" stroke="black" fill="cyan"/>
   </g>
   <g id="cell88">
  <circle cx="534.985" cy="531.69" r="8.37431" stroke-width="0.5" stroke="black" fill="cyan"/>
  <circle cx="534.985" cy="531.69" r="5.03754" stroke-width="0.5" stroke="black" fill="cyan"/>
   </g>
   <g id="cell89">
  <circle cx="364.849" cy="467.095" r="8.27303" stroke-width="0.5" stroke="black" fill="green"/>
  <circle cx="364.849" cy="467.095" r="4.99368" stroke-width="0.5" stroke="black" fill="green"/>
   </g>
   <g id="cell90">
  <circle cx="637.718" cy="469.95" r="8.37208" stroke-width="0.5" stroke="black" fill="green"/>
  <circle cx="637.718" cy="469.95" r="5.03661" stroke-width="0.5" stroke="black" fill="green"/>
   </g>
   <g id="cell91">
  <circle cx="383.118" cy="525.207" r="8.28741" stroke-width="0.5" stroke="black" fill="cyan"/>
  <circle cx="383.118" cy="525.207" r="5.00076" stroke-width="0.5" stroke="black" fill="cyan"/>
   </g>
   <g id="cell92">
  <circle cx="507.79" cy="612.901" r="8.35882" stroke-width="0.5" stroke="black" fill="magenta"/>
  <circle cx="507.79" cy="612.901" r="5.031" stroke-width="0.5" stroke="black" fill="magenta"/>
   </g>
   <g id="cell93">
  <circle cx="555.428" cy="407.245" r="8.347" stroke-width="0.5" stroke="black" fill="green"/>
  <circle cx="555.428" cy="407.245" r="5.02586" stroke-width="0.5" stroke="black" fill="green"/>
   </g>
   <g id="cell94">
  <circle cx="388.953" cy="510.609" r="8.298" stroke-width="0.5" stroke="black" fill="cyan"/>
  <circle cx="388.953" cy="510.609" r="5.00563" stroke-width="0.5" stroke="black" fill="cyan"/>
   </g>
   <g id="cell95">
  <circle cx="370.794" cy="535.242" r="8.28741" stroke-width="0.5" stroke="black" fill="cyan"/>
  <circle cx="370.794" cy="535.242" r="5.00076" stroke-width="0.5" stroke="black" fill="cyan"/>
   </g>
   <g id="cell96">
  <circle cx="581.897" cy="467.325" r="8.0696" stroke-width="0.5" stroke="black" fill="cyan"/>
  <circle cx="581.897" cy="467.325" r="4.8929" stroke-width="0.5" stroke="black" fill="cyan"/>
   </g>
   <g id="cell97">
  <circle cx="356.681" cy="480.538" r="8.27303" stroke-width="0.5" stroke="black" fill="green"/>
  <circle cx="356.681" cy="480.538" r="4.99368" stroke-width="0.5" stroke="black" fill="green"/>
   </g>
   <g id="cell98">
  <circle cx="580.093" cy="545.997" r="8.28007" stroke-width="0.5" stroke="black" fill="cyan"/>
  <circle cx="580.093" cy="545.997" r="4.99622" stroke-width="0.5" stroke="black" fill="cyan"/>
   </g>
   <g id="cell99">
  <circle cx="550.849" cy="458.523" r="8.28007" stroke-width="0.5" stroke="black" fill="green"/>
  <circle cx="550.849" cy="458.523" r="4.99622" stroke-width="0.5" stroke="black" fill="green"/>
   </g>
   <g id="cell100">
  <circle cx="622.185" cy="486.578" r="7.56549" stroke-width="0.5" stroke="black" fill="green"/>
  <circle cx="622.185" cy="486.578" r="4.61329" stroke-width="0.5" stroke="black" fill="green"/>
   </g>
   <g id="cell101">
  <circle cx="575.625" cy="502.712" r="8.12689" stroke-width="0.5" stroke="black" fill="magenta"/>
  <circle cx="575.625" cy="502.712" r="4.92359" stroke-width="0.5" stroke="black" fill="magenta"/>
   </g>
   <g id="cell102">
  <circle cx="465.91" cy="391.572" r="8.21839" stroke-width="0.5" stroke="black" fill="green"/>
  <circle cx="465.91" cy="391.572" r="4.96448" stroke-width="0.5" stroke="black" fill="green"/>
   </g>
   <g id="cell103">
  <circle cx="564.994" cy="542.172" r="8.19089" stroke-width="0.5" stroke="black" fill="cyan"/>
  <circle cx="564.994" cy="542.172" r="4.95219" stroke-width="0.5" stroke="black" fill="cyan"/>
   </g>
   <g id="cell104">
  <circle cx="629.14" cy="499.85" r="8.11977" stroke-width="0.5" stroke="black" fill="green"/>
  <circle cx="629.14" cy="499.85" r="4.92104" stroke-width="0.5" stroke="black" fill="green"/>
   </g>
   <g id="cell105">
  <circle cx="571.998" cy="477.171" r="7.13539" stroke-width="0.5" stroke="black" fill="magenta"/>
  <circle cx="571.998" cy="477.171" r="4.3773" stroke-width="0.5" stroke="black" fill="magenta"/>
   </g>
   <g id="cell106">
  <circle cx="539.633" cy="546.672" r="8.16231" stroke-width="0.5" stroke="black" fill="green"/>
  <circle cx="539.633" cy="546.672" r="4.93691" stroke-width="0.5" stroke="black" fill="green"/>
   </g>
   <g id="cell107">
  <circle cx="513.126" cy="585.127" r="8.1609" stroke-width="0.5" stroke="black" fill="magenta"/>
  <circle cx="513.126" cy="585.127" r="4.93506" stroke-width="0.5" stroke="black" fill="magenta"/>
   </g>
   <g id="cell109">
  <circle cx="520.787" cy="457.413" r="8.1218" stroke-width="0.5" stroke="black" fill="cyan"/>
  <circle cx="520.787" cy="457.413" r="4.91457" stroke-width="0.5" stroke="black" fill="cyan"/>
   </g>
   <g id="cell110">
  <circle cx="561.606" cy="468.648" r="8.0696" stroke-width="0.5" stroke="black" fill="cyan"/>
  <circle cx="561.606" cy="468.648" r="4.8929" stroke-width="0.5" stroke="black" fill="cyan"/>
   </g>
   <g id="cell111">
  <circle cx="560.036" cy="483.371" r="7.92382" stroke-width="0.5" stroke="black" fill="magenta"/>
  <circle cx="560.036" cy="483.371" r="4.82175" stroke-width="0.5" stroke="black" fill="magenta"/>
   </g>
   <g id="cell112">
  <circle cx="387.774" cy="453.52" r="7.96365" stroke-width="0.5" stroke="black" fill="green"/>
  <circle cx="387.774" cy="453.52" r="4.82873" stroke-width="0.5" stroke="black" fill="green"/>
   </g>
   <g id="cell113">
  <circle cx="388.278" cy="552.755" r="7.00462" stroke-width="0.5" stroke="black" fill="magenta"/>
  <circle cx="388.278" cy="552.755" r="4.29135" stroke-width="0.5" stroke="black" fill="magenta"/>
   </g>
   <g id="cell114">
  <circle cx="525.098" cy="593.76" r="7.83209" stroke-width="0.5" stroke="black" fill="magenta"/>
  <circle cx="525.098" cy="593.76" r="4.76" stroke-width="0.5" stroke="black" fill="magenta"/>
   </g>
   <g id="cell115">
  <circle cx="498.08" cy="430.582" r="6.98495" stroke-width="0.5" stroke="black" fill="green"/>
  <circle cx="498.08" cy="430.582" r="4.28128" stroke-width="0.5" stroke="black" fill="green"/>
   </g>
   <g id="cell116">
  <circle cx="440.299" cy="473.337" r="7.70049" stroke-width="0.5" stroke="black" fill="cyan"/>
  <circle cx="440.299" cy="473.337" r="4.67828" stroke-width="0.5" stroke="black" fill="cyan"/>
   </g>
   <g id="cell117">
  <circle cx="600.497" cy="504.792" r="7.67987" stroke-width="0.5" stroke="black" fill="magenta"/>
  <circle cx="600.497" cy="504.792" r="4.66617" stroke-width="0.5" stroke="black" fill="magenta"/>
   </g>
   <g id="cell118">
  <circle cx="611.976" cy="476.341" r="7.56549" stroke-width="0.5" stroke="black" fill="green"/>
  <circle cx="611.976" cy="476.341" r="4.61329" stroke-width="0.5" stroke="black" fill="green"/>
   </g>
   <g id="cell119">
  <circle cx="495.414" cy="581.019" r="6.81986" stroke-width="0.5" stroke="black" fill="magenta"/>
  <circle cx="495.414" cy="581.019" r="4.19503" stroke-width="0.5" stroke="black" fill="magenta"/>
   </g>
   <g id="cell120">
  <circle cx="467.888" cy="498.036" r="7.6064" stroke-width="0.5" stroke="black" fill="magenta"/>
  <circle cx="467.888" cy="498.036" r="4.62476" stroke-width="0.5" stroke="black" fill="magenta"/>
   </g>
   <g id="cell121">
  <circle cx="446.568" cy="460.579" r="7.19285" stroke-width="0.5" stroke="black" fill="cyan"/>
  <circle cx="446.568" cy="460.579" r="4.4066" stroke-width="0.5" stroke="black" fill="cyan"/>
   </g>
   <g id="cell123">
  <circle cx="422.281" cy="456.422" r="6.63141" stroke-width="0.5" stroke="black" fill="cyan"/>
  <circle cx="422.281" cy="456.422" r="4.08952" stroke-width="0.5" stroke="black" fill="cyan"/>
   </g>
   <g id="cell124">
  <circle cx="444.151" cy="391.393" r="7.26277" stroke-width="0.5" stroke="black" fill="green"/>
  <circle cx="444.151" cy="391.393" r="4.43304" stroke-width="0.5" stroke="black" fill="green"/>
   </g>
   <g id="cell125">
  <circle cx="493.989" cy="443.092" r="6.98495" stroke-width="0.5" stroke="black" fill="green"/>
  <circle cx="493.989" cy="443.092" r="4.28128" stroke-width="0.5" stroke="black" fill="green"/>
   </g>
   <g id="cell126">
  <circle cx="484.722" cy="587.055" r="6.81986" stroke-width="0.5" stroke="black" fill="magenta"/>
  <circle cx="484.722" cy="587.055" r="4.19503" stroke-width="0.5" stroke="black" fill="magenta"/>
   </g>
   <g id="cell128">
  <circle cx="547.789" cy="488.84" r="7.14175" stroke-width="0.5" stroke="black" fill="magenta"/>
  <circle cx="547.789" cy="488.84" r="4.3373" stroke-width="0.5" stroke="black" fill="magenta"/>
   </g>
   <g id="cell129">
  <circle cx="522.088" cy="519.164" r="6.94162" stroke-width="0.5" stroke="black" fill="magenta"/>
  <circle cx="522.088" cy="519.164" r="4.20712" stroke-width="0.5" stroke="black" fill="magenta"/>
   </g>
   <g id="cell130">
  <circle cx="378.153" cy="443.246" r="6.86652" stroke-width="0.5" stroke="black" fill="cyan"/>
  <circle cx="378.153" cy="443.246" r="4.14883" stroke-width="0.5" stroke="black" fill="cyan"/>
   </g>
   <g id="cell131">
  <circle cx="598.026" cy="517.522" r="6.83713" stroke-width="0.5" stroke="black" fill="magenta"/>
  <circle cx="598.026" cy="517.522" r="4.12773" stroke-width="0.5" stroke="black" fill="magenta"/>
   </g>
  </g>
 </g>
  <rect x="775" y="1035" width="200" height="10" stroke-width="2" stroke="rgb(255,255,255)" fill="rgb(0,0,0)"/>
  <text x="781.25" y="1028.75"
   font-family="Arial" font-size="25" fill="black" >
   200 &#956;m
  </text>
  <text x="25" y="1045"
   font-family="Arial" font-size="18.75" fill="black" >
   0 days, 0 hours, 0 minutes, and 20.2799 seconds
  </text>
  <rect x="0" y="70" width="1000" height="1000" stroke-width="2" stroke="rgb(0,0,0)" fill="none"/>
</svg>
