<?xml version="1.0" encoding="UTF-8" standalone="no"?>
<!-- Created with PhysiCell (http://PhysiCell.MathCancer.org/) -->
<svg 
 xmlns:dc="http://purl.org/dc/elements/1.1/" 
 xmlns:cc="http://creativecommons.org/ns#" 
 xmlns:rdf="http://www.w3.org/1999/02/22-rdf-syntax-ns#" 
 xmlns:svg="http://www.w3.org/2000/svg" 
 xmlns="http://www.w3.org/2000/svg" 
 version="1.1" 
 width="1000" 
 height="1070" 
 id="svg2">
  <rect x="0" y="0" width="1000" height="1070" stroke-width="2" stroke="white" fill="white"/>
  <text x="12.5" y="30"
   font-family="Arial" font-size="25" fill="black" >
   Current time: 0 days, 8 hours, and 9.00 minutes, z = 0.00 &#956;m
  </text>
  <text x="12.5" y="57.5"
   font-family="Arial" font-size="23.75" fill="black" >
   103 agents
  </text>
 <g id="tissue" 
    transform="translate(0,1070) scale(1,-1)">
  <g id="ECM">
  </g>
  <g id="cells">
   <g id="cell0">
  <circle cx="518.554" cy="532.89" r="7.63698" stroke-width="0.5" stroke="black" fill="magenta"/>
  <circle cx="518.554" cy="532.89" r="4.64085" stroke-width="0.5" stroke="black" fill="magenta"/>
   </g>
   <g id="cell1">
  <circle cx="602.492" cy="526.171" r="8.41271" stroke-width="0.5" stroke="black" fill="magenta"/>
  <circle cx="602.492" cy="526.171" r="5.05167" stroke-width="0.5" stroke="black" fill="magenta"/>
   </g>
   <g id="cell2">
  <circle cx="511.37" cy="600.524" r="8.41271" stroke-width="0.5" stroke="black" fill="magenta"/>
  <circle cx="511.37" cy="600.524" r="5.05167" stroke-width="0.5" stroke="black" fill="magenta"/>
   </g>
   <g id="cell3">
  <circle cx="524.858" cy="544.317" r="7.08428" stroke-width="0.5" stroke="black" fill="magenta"/>
  <circle cx="524.858" cy="544.317" r="4.33748" stroke-width="0.5" stroke="black" fill="magenta"/>
   </g>
   <g id="cell4">
  <circle cx="487.801" cy="438.323" r="8.10448" stroke-width="0.5" stroke="black" fill="magenta"/>
  <circle cx="487.801" cy="438.323" r="4.90539" stroke-width="0.5" stroke="black" fill="magenta"/>
   </g>
   <g id="cell5">
  <circle cx="465.032" cy="493.3" r="8.41271" stroke-width="0.5" stroke="black" fill="magenta"/>
  <circle cx="465.032" cy="493.3" r="5.05167" stroke-width="0.5" stroke="black" fill="magenta"/>
   </g>
   <g id="cell6">
  <circle cx="595.637" cy="512.669" r="8.41271" stroke-width="0.5" stroke="black" fill="magenta"/>
  <circle cx="595.637" cy="512.669" r="5.05167" stroke-width="0.5" stroke="black" fill="magenta"/>
   </g>
   <g id="cell7">
  <circle cx="511.884" cy="462.429" r="8.41271" stroke-width="0.5" stroke="black" fill="magenta"/>
  <circle cx="511.884" cy="462.429" r="5.05167" stroke-width="0.5" stroke="black" fill="magenta"/>
   </g>
   <g id="cell8">
  <circle cx="376.107" cy="544.269" r="8.41271" stroke-width="0.5" stroke="black" fill="magenta"/>
  <circle cx="376.107" cy="544.269" r="5.05167" stroke-width="0.5" stroke="black" fill="magenta"/>
   </g>
   <g id="cell9">
  <circle cx="460.472" cy="599.786" r="8.41271" stroke-width="0.5" stroke="black" fill="magenta"/>
  <circle cx="460.472" cy="599.786" r="5.05167" stroke-width="0.5" stroke="black" fill="magenta"/>
   </g>
   <g id="cell10">
  <circle cx="583.447" cy="392.105" r="8.41271" stroke-width="0.5" stroke="black" fill="magenta"/>
  <circle cx="583.447" cy="392.105" r="5.05167" stroke-width="0.5" stroke="black" fill="magenta"/>
   </g>
   <g id="cell11">
  <circle cx="589.748" cy="590.273" r="8.41271" stroke-width="0.5" stroke="black" fill="magenta"/>
  <circle cx="589.748" cy="590.273" r="5.05167" stroke-width="0.5" stroke="black" fill="magenta"/>
   </g>
   <g id="cell12">
  <circle cx="506.686" cy="586.141" r="8.41271" stroke-width="0.5" stroke="black" fill="magenta"/>
  <circle cx="506.686" cy="586.141" r="5.05167" stroke-width="0.5" stroke="black" fill="magenta"/>
   </g>
   <g id="cell13">
  <circle cx="386.194" cy="568.228" r="8.41271" stroke-width="0.5" stroke="black" fill="magenta"/>
  <circle cx="386.194" cy="568.228" r="5.05167" stroke-width="0.5" stroke="black" fill="magenta"/>
   </g>
   <g id="cell14">
  <circle cx="528.566" cy="399.179" r="8.41271" stroke-width="0.5" stroke="black" fill="magenta"/>
  <circle cx="528.566" cy="399.179" r="5.05167" stroke-width="0.5" stroke="black" fill="magenta"/>
   </g>
   <g id="cell15">
  <circle cx="379.65" cy="475.1" r="8.41271" stroke-width="0.5" stroke="black" fill="magenta"/>
  <circle cx="379.65" cy="475.1" r="5.05167" stroke-width="0.5" stroke="black" fill="magenta"/>
   </g>
   <g id="cell16">
  <circle cx="428.96" cy="413.217" r="8.41271" stroke-width="0.5" stroke="black" fill="magenta"/>
  <circle cx="428.96" cy="413.217" r="5.05167" stroke-width="0.5" stroke="black" fill="magenta"/>
   </g>
   <g id="cell17">
  <circle cx="569.366" cy="488.392" r="8.41271" stroke-width="0.5" stroke="black" fill="magenta"/>
  <circle cx="569.366" cy="488.392" r="5.05167" stroke-width="0.5" stroke="black" fill="magenta"/>
   </g>
   <g id="cell18">
  <circle cx="517.416" cy="388.933" r="8.41271" stroke-width="0.5" stroke="black" fill="magenta"/>
  <circle cx="517.416" cy="388.933" r="5.05167" stroke-width="0.5" stroke="black" fill="magenta"/>
   </g>
   <g id="cell19">
  <circle cx="456.058" cy="543.104" r="7.49456" stroke-width="0.5" stroke="black" fill="magenta"/>
  <circle cx="456.058" cy="543.104" r="4.55548" stroke-width="0.5" stroke="black" fill="magenta"/>
   </g>
   <g id="cell20">
  <circle cx="531.116" cy="414.105" r="8.41271" stroke-width="0.5" stroke="black" fill="magenta"/>
  <circle cx="531.116" cy="414.105" r="5.05167" stroke-width="0.5" stroke="black" fill="magenta"/>
   </g>
   <g id="cell21">
  <circle cx="464.368" cy="634.574" r="8.41271" stroke-width="0.5" stroke="black" fill="magenta"/>
  <circle cx="464.368" cy="634.574" r="5.05167" stroke-width="0.5" stroke="black" fill="magenta"/>
   </g>
   <g id="cell22">
  <circle cx="556.831" cy="496.821" r="8.41271" stroke-width="0.5" stroke="black" fill="magenta"/>
  <circle cx="556.831" cy="496.821" r="5.05167" stroke-width="0.5" stroke="black" fill="magenta"/>
   </g>
   <g id="cell23">
  <circle cx="537.284" cy="484.019" r="8.41271" stroke-width="0.5" stroke="black" fill="magenta"/>
  <circle cx="537.284" cy="484.019" r="5.05167" stroke-width="0.5" stroke="black" fill="magenta"/>
   </g>
   <g id="cell24">
  <circle cx="559.284" cy="379.797" r="8.41271" stroke-width="0.5" stroke="black" fill="magenta"/>
  <circle cx="559.284" cy="379.797" r="5.05167" stroke-width="0.5" stroke="black" fill="magenta"/>
   </g>
   <g id="cell25">
  <circle cx="645.409" cy="545.518" r="7.93688" stroke-width="0.5" stroke="black" fill="green"/>
  <circle cx="645.409" cy="545.518" r="4.81381" stroke-width="0.5" stroke="black" fill="green"/>
   </g>
   <g id="cell26">
  <circle cx="551.108" cy="401.249" r="8.41271" stroke-width="0.5" stroke="black" fill="green"/>
  <circle cx="551.108" cy="401.249" r="5.05167" stroke-width="0.5" stroke="black" fill="green"/>
   </g>
   <g id="cell27">
  <circle cx="462.975" cy="390.624" r="8.1218" stroke-width="0.5" stroke="black" fill="green"/>
  <circle cx="462.975" cy="390.624" r="4.91457" stroke-width="0.5" stroke="black" fill="green"/>
   </g>
   <g id="cell28">
  <circle cx="434.314" cy="530.763" r="8.41271" stroke-width="0.5" stroke="black" fill="green"/>
  <circle cx="434.314" cy="530.763" r="5.05167" stroke-width="0.5" stroke="black" fill="green"/>
   </g>
   <g id="cell29">
  <circle cx="450.355" cy="517.041" r="8.41271" stroke-width="0.5" stroke="black" fill="green"/>
  <circle cx="450.355" cy="517.041" r="5.05167" stroke-width="0.5" stroke="black" fill="green"/>
   </g>
   <g id="cell30">
  <circle cx="481.117" cy="535.46" r="7.24243" stroke-width="0.5" stroke="black" fill="green"/>
  <circle cx="481.117" cy="535.46" r="4.39934" stroke-width="0.5" stroke="black" fill="green"/>
   </g>
   <g id="cell31">
  <circle cx="412.757" cy="541.193" r="8.41271" stroke-width="0.5" stroke="black" fill="green"/>
  <circle cx="412.757" cy="541.193" r="5.05167" stroke-width="0.5" stroke="black" fill="green"/>
   </g>
   <g id="cell32">
  <circle cx="421.651" cy="480.619" r="6.89675" stroke-width="0.5" stroke="black" fill="green"/>
  <circle cx="421.651" cy="480.619" r="4.17024" stroke-width="0.5" stroke="black" fill="green"/>
   </g>
   <g id="cell33">
  <circle cx="495.594" cy="424.961" r="8.41271" stroke-width="0.5" stroke="black" fill="green"/>
  <circle cx="495.594" cy="424.961" r="5.05167" stroke-width="0.5" stroke="black" fill="green"/>
   </g>
   <g id="cell34">
  <circle cx="397.088" cy="450.831" r="8.41271" stroke-width="0.5" stroke="black" fill="green"/>
  <circle cx="397.088" cy="450.831" r="5.05167" stroke-width="0.5" stroke="black" fill="green"/>
   </g>
   <g id="cell35">
  <circle cx="550.841" cy="542.811" r="8.41271" stroke-width="0.5" stroke="black" fill="green"/>
  <circle cx="550.841" cy="542.811" r="5.05167" stroke-width="0.5" stroke="black" fill="green"/>
   </g>
   <g id="cell36">
  <circle cx="391.486" cy="582.903" r="8.41271" stroke-width="0.5" stroke="black" fill="green"/>
  <circle cx="391.486" cy="582.903" r="5.05167" stroke-width="0.5" stroke="black" fill="green"/>
   </g>
   <g id="cell37">
  <circle cx="639.305" cy="457.399" r="8.07654" stroke-width="0.5" stroke="black" fill="green"/>
  <circle cx="639.305" cy="457.399" r="4.89046" stroke-width="0.5" stroke="black" fill="green"/>
   </g>
   <g id="cell38">
  <circle cx="531.852" cy="598.383" r="8.01277" stroke-width="0.5" stroke="black" fill="green"/>
  <circle cx="531.852" cy="598.383" r="4.85584" stroke-width="0.5" stroke="black" fill="green"/>
   </g>
   <g id="cell39">
  <circle cx="613.458" cy="490.595" r="8.41271" stroke-width="0.5" stroke="black" fill="green"/>
  <circle cx="613.458" cy="490.595" r="5.05167" stroke-width="0.5" stroke="black" fill="green"/>
   </g>
   <g id="cell40">
  <circle cx="485.348" cy="571.779" r="8.41271" stroke-width="0.5" stroke="black" fill="green"/>
  <circle cx="485.348" cy="571.779" r="5.05167" stroke-width="0.5" stroke="black" fill="green"/>
   </g>
   <g id="cell41">
  <circle cx="364.925" cy="480.252" r="8.41271" stroke-width="0.5" stroke="black" fill="green"/>
  <circle cx="364.925" cy="480.252" r="5.05167" stroke-width="0.5" stroke="black" fill="green"/>
   </g>
   <g id="cell42">
  <circle cx="438.842" cy="494.268" r="8.41271" stroke-width="0.5" stroke="black" fill="green"/>
  <circle cx="438.842" cy="494.268" r="5.05167" stroke-width="0.5" stroke="black" fill="green"/>
   </g>
   <g id="cell43">
  <circle cx="559.211" cy="445.16" r="8.41271" stroke-width="0.5" stroke="black" fill="green"/>
  <circle cx="559.211" cy="445.16" r="5.05167" stroke-width="0.5" stroke="black" fill="green"/>
   </g>
   <g id="cell44">
  <circle cx="475.857" cy="624.021" r="8.41271" stroke-width="0.5" stroke="black" fill="green"/>
  <circle cx="475.857" cy="624.021" r="5.05167" stroke-width="0.5" stroke="black" fill="green"/>
   </g>
   <g id="cell45">
  <circle cx="414.953" cy="557.066" r="8.41271" stroke-width="0.5" stroke="black" fill="green"/>
  <circle cx="414.953" cy="557.066" r="5.05167" stroke-width="0.5" stroke="black" fill="green"/>
   </g>
   <g id="cell46">
  <circle cx="522.719" cy="611.132" r="8.41271" stroke-width="0.5" stroke="black" fill="green"/>
  <circle cx="522.719" cy="611.132" r="5.05167" stroke-width="0.5" stroke="black" fill="green"/>
   </g>
   <g id="cell47">
  <circle cx="506.143" cy="504.821" r="6.83713" stroke-width="0.5" stroke="black" fill="green"/>
  <circle cx="506.143" cy="504.821" r="4.12773" stroke-width="0.5" stroke="black" fill="green"/>
   </g>
   <g id="cell48">
  <circle cx="563.869" cy="602.625" r="8.41271" stroke-width="0.5" stroke="black" fill="green"/>
  <circle cx="563.869" cy="602.625" r="5.05167" stroke-width="0.5" stroke="black" fill="green"/>
   </g>
   <g id="cell49">
  <circle cx="429.826" cy="397.641" r="8.41271" stroke-width="0.5" stroke="black" fill="green"/>
  <circle cx="429.826" cy="397.641" r="5.05167" stroke-width="0.5" stroke="black" fill="green"/>
   </g>
   <g id="cell50">
  <circle cx="519.905" cy="518.884" r="7.70049" stroke-width="0.5" stroke="black" fill="cyan"/>
  <circle cx="519.905" cy="518.884" r="4.67828" stroke-width="0.5" stroke="black" fill="cyan"/>
   </g>
   <g id="cell51">
  <circle cx="398.721" cy="597.201" r="8.41271" stroke-width="0.5" stroke="black" fill="cyan"/>
  <circle cx="398.721" cy="597.201" r="5.05167" stroke-width="0.5" stroke="black" fill="cyan"/>
   </g>
   <g id="cell52">
  <circle cx="519.971" cy="425.013" r="8.41271" stroke-width="0.5" stroke="black" fill="cyan"/>
  <circle cx="519.971" cy="425.013" r="5.05167" stroke-width="0.5" stroke="black" fill="cyan"/>
   </g>
   <g id="cell53">
  <circle cx="571.745" cy="435.644" r="8.41271" stroke-width="0.5" stroke="black" fill="cyan"/>
  <circle cx="571.745" cy="435.644" r="5.05167" stroke-width="0.5" stroke="black" fill="cyan"/>
   </g>
   <g id="cell54">
  <circle cx="481.193" cy="426.051" r="7.0545" stroke-width="0.5" stroke="black" fill="cyan"/>
  <circle cx="481.193" cy="426.051" r="4.27772" stroke-width="0.5" stroke="black" fill="cyan"/>
   </g>
   <g id="cell55">
  <circle cx="524.743" cy="465.834" r="6.39481" stroke-width="0.5" stroke="black" fill="cyan"/>
  <circle cx="524.743" cy="465.834" r="3.87568" stroke-width="0.5" stroke="black" fill="cyan"/>
   </g>
   <g id="cell56">
  <circle cx="617.613" cy="522.333" r="8.41271" stroke-width="0.5" stroke="black" fill="cyan"/>
  <circle cx="617.613" cy="522.333" r="5.05167" stroke-width="0.5" stroke="black" fill="cyan"/>
   </g>
   <g id="cell57">
  <circle cx="416.924" cy="617.466" r="1.29827" stroke-width="0.5" stroke="black" fill="cyan"/>
  <circle cx="416.924" cy="617.466" r="1.29055" stroke-width="0.5" stroke="black" fill="black"/>
   </g>
   <g id="cell58">
  <circle cx="553.145" cy="482.122" r="8.41271" stroke-width="0.5" stroke="black" fill="cyan"/>
  <circle cx="553.145" cy="482.122" r="5.05167" stroke-width="0.5" stroke="black" fill="cyan"/>
   </g>
   <g id="cell59">
  <circle cx="385.463" cy="439.803" r="8.41271" stroke-width="0.5" stroke="black" fill="cyan"/>
  <circle cx="385.463" cy="439.803" r="5.05167" stroke-width="0.5" stroke="black" fill="cyan"/>
   </g>
   <g id="cell60">
  <circle cx="593.178" cy="473.64" r="8.41271" stroke-width="0.5" stroke="black" fill="cyan"/>
  <circle cx="593.178" cy="473.64" r="5.05167" stroke-width="0.5" stroke="black" fill="cyan"/>
   </g>
   <g id="cell61">
  <circle cx="553.111" cy="614.383" r="8.41271" stroke-width="0.5" stroke="black" fill="cyan"/>
  <circle cx="553.111" cy="614.383" r="5.05167" stroke-width="0.5" stroke="black" fill="cyan"/>
   </g>
   <g id="cell62">
  <circle cx="521.706" cy="450.736" r="8.13008" stroke-width="0.5" stroke="black" fill="cyan"/>
  <circle cx="521.706" cy="450.736" r="4.91894" stroke-width="0.5" stroke="black" fill="cyan"/>
   </g>
   <g id="cell63">
  <circle cx="575.242" cy="540.421" r="7.56839" stroke-width="0.5" stroke="black" fill="cyan"/>
  <circle cx="575.242" cy="540.421" r="4.59998" stroke-width="0.5" stroke="black" fill="cyan"/>
   </g>
   <g id="cell64">
  <circle cx="509.962" cy="636.825" r="8.41271" stroke-width="0.5" stroke="black" fill="cyan"/>
  <circle cx="509.962" cy="636.825" r="5.05167" stroke-width="0.5" stroke="black" fill="cyan"/>
   </g>
   <g id="cell65">
  <circle cx="546.561" cy="469.57" r="7.46878" stroke-width="0.5" stroke="black" fill="cyan"/>
  <circle cx="546.561" cy="469.57" r="4.53982" stroke-width="0.5" stroke="black" fill="cyan"/>
   </g>
   <g id="cell66">
  <circle cx="531.985" cy="533.597" r="6.99069" stroke-width="0.5" stroke="black" fill="cyan"/>
  <circle cx="531.985" cy="533.597" r="4.23498" stroke-width="0.5" stroke="black" fill="cyan"/>
   </g>
   <g id="cell67">
  <circle cx="354.711" cy="492.599" r="8.41271" stroke-width="0.5" stroke="black" fill="cyan"/>
  <circle cx="354.711" cy="492.599" r="5.05167" stroke-width="0.5" stroke="black" fill="cyan"/>
   </g>
   <g id="cell68">
  <circle cx="564.747" cy="551.427" r="8.41271" stroke-width="0.5" stroke="black" fill="cyan"/>
  <circle cx="564.747" cy="551.427" r="5.05167" stroke-width="0.5" stroke="black" fill="cyan"/>
   </g>
   <g id="cell69">
  <circle cx="441.21" cy="461.951" r="8.41271" stroke-width="0.5" stroke="black" fill="cyan"/>
  <circle cx="441.21" cy="461.951" r="5.05167" stroke-width="0.5" stroke="black" fill="cyan"/>
   </g>
   <g id="cell70">
  <circle cx="577.211" cy="474.917" r="8.41271" stroke-width="0.5" stroke="black" fill="cyan"/>
  <circle cx="577.211" cy="474.917" r="5.05167" stroke-width="0.5" stroke="black" fill="cyan"/>
   </g>
   <g id="cell71">
  <circle cx="377.712" cy="520.989" r="8.41271" stroke-width="0.5" stroke="black" fill="cyan"/>
  <circle cx="377.712" cy="520.989" r="5.05167" stroke-width="0.5" stroke="black" fill="cyan"/>
   </g>
   <g id="cell72">
  <circle cx="531.686" cy="511.372" r="7.08639" stroke-width="0.5" stroke="black" fill="cyan"/>
  <circle cx="531.686" cy="511.372" r="4.29876" stroke-width="0.5" stroke="black" fill="cyan"/>
   </g>
   <g id="cell73">
  <circle cx="363.143" cy="551.52" r="7.65871" stroke-width="0.5" stroke="black" fill="cyan"/>
  <circle cx="363.143" cy="551.52" r="4.6537" stroke-width="0.5" stroke="black" fill="cyan"/>
   </g>
   <g id="cell74">
  <circle cx="543.068" cy="445.087" r="8.41271" stroke-width="0.5" stroke="black" fill="cyan"/>
  <circle cx="543.068" cy="445.087" r="5.05167" stroke-width="0.5" stroke="black" fill="cyan"/>
   </g>
   <g id="cell75">
  <circle cx="529.482" cy="437.446" r="8.13008" stroke-width="0.5" stroke="black" fill="cyan"/>
  <circle cx="529.482" cy="437.446" r="4.91894" stroke-width="0.5" stroke="black" fill="cyan"/>
   </g>
   <g id="cell76">
  <circle cx="447.552" cy="381.196" r="6.46313" stroke-width="0.5" stroke="black" fill="green"/>
  <circle cx="447.552" cy="381.196" r="3.91231" stroke-width="0.5" stroke="black" fill="green"/>
   </g>
   <g id="cell77">
  <circle cx="473.13" cy="437.381" r="8.10448" stroke-width="0.5" stroke="black" fill="magenta"/>
  <circle cx="473.13" cy="437.381" r="4.90539" stroke-width="0.5" stroke="black" fill="magenta"/>
   </g>
   <g id="cell78">
  <circle cx="625.407" cy="461.688" r="7.25804" stroke-width="0.5" stroke="black" fill="green"/>
  <circle cx="625.407" cy="461.688" r="4.4377" stroke-width="0.5" stroke="black" fill="green"/>
   </g>
   <g id="cell79">
  <circle cx="516.956" cy="476.857" r="8.03527" stroke-width="0.5" stroke="black" fill="cyan"/>
  <circle cx="516.956" cy="476.857" r="4.86813" stroke-width="0.5" stroke="black" fill="cyan"/>
   </g>
   <g id="cell80">
  <circle cx="537.987" cy="612.056" r="7.78447" stroke-width="0.5" stroke="black" fill="green"/>
  <circle cx="537.987" cy="612.056" r="4.7433" stroke-width="0.5" stroke="black" fill="green"/>
   </g>
   <g id="cell81">
  <circle cx="546.9" cy="600.25" r="7.78447" stroke-width="0.5" stroke="black" fill="green"/>
  <circle cx="546.9" cy="600.25" r="4.7433" stroke-width="0.5" stroke="black" fill="green"/>
   </g>
   <g id="cell82">
  <circle cx="530.825" cy="556.187" r="7.93688" stroke-width="0.5" stroke="black" fill="magenta"/>
  <circle cx="530.825" cy="556.187" r="4.81381" stroke-width="0.5" stroke="black" fill="magenta"/>
   </g>
   <g id="cell83">
  <circle cx="634.804" cy="556.232" r="7.93688" stroke-width="0.5" stroke="black" fill="green"/>
  <circle cx="634.804" cy="556.232" r="4.81381" stroke-width="0.5" stroke="black" fill="green"/>
   </g>
   <g id="cell84">
  <circle cx="519.783" cy="504.302" r="7.70049" stroke-width="0.5" stroke="black" fill="cyan"/>
  <circle cx="519.783" cy="504.302" r="4.67828" stroke-width="0.5" stroke="black" fill="cyan"/>
   </g>
   <g id="cell85">
  <circle cx="354.697" cy="541.517" r="6.23657" stroke-width="0.5" stroke="black" fill="cyan"/>
  <circle cx="354.697" cy="541.517" r="3.80562" stroke-width="0.5" stroke="black" fill="cyan"/>
   </g>
   <g id="cell86">
  <circle cx="507.267" cy="525.342" r="7.63698" stroke-width="0.5" stroke="black" fill="magenta"/>
  <circle cx="507.267" cy="525.342" r="4.64085" stroke-width="0.5" stroke="black" fill="magenta"/>
   </g>
   <g id="cell87">
  <circle cx="579.864" cy="553.986" r="7.56839" stroke-width="0.5" stroke="black" fill="cyan"/>
  <circle cx="579.864" cy="553.986" r="4.59998" stroke-width="0.5" stroke="black" fill="cyan"/>
   </g>
   <g id="cell88">
  <circle cx="448.997" cy="531.68" r="7.49456" stroke-width="0.5" stroke="black" fill="magenta"/>
  <circle cx="448.997" cy="531.68" r="4.55548" stroke-width="0.5" stroke="black" fill="magenta"/>
   </g>
   <g id="cell89">
  <circle cx="551.384" cy="457.279" r="7.46878" stroke-width="0.5" stroke="black" fill="cyan"/>
  <circle cx="551.384" cy="457.279" r="4.53982" stroke-width="0.5" stroke="black" fill="cyan"/>
   </g>
   <g id="cell90">
  <circle cx="630.588" cy="474.411" r="7.25804" stroke-width="0.5" stroke="black" fill="green"/>
  <circle cx="630.588" cy="474.411" r="4.4377" stroke-width="0.5" stroke="black" fill="green"/>
   </g>
   <g id="cell91">
  <circle cx="543.372" cy="554.103" r="6.34274" stroke-width="0.5" stroke="black" fill="magenta"/>
  <circle cx="543.372" cy="554.103" r="3.91259" stroke-width="0.5" stroke="black" fill="magenta"/>
   </g>
   <g id="cell92">
  <circle cx="482.429" cy="549.112" r="7.24243" stroke-width="0.5" stroke="black" fill="green"/>
  <circle cx="482.429" cy="549.112" r="4.39934" stroke-width="0.5" stroke="black" fill="green"/>
   </g>
   <g id="cell93">
  <circle cx="536.978" cy="544.768" r="6.34274" stroke-width="0.5" stroke="black" fill="magenta"/>
  <circle cx="536.978" cy="544.768" r="3.91259" stroke-width="0.5" stroke="black" fill="magenta"/>
   </g>
   <g id="cell94">
  <circle cx="532.381" cy="497.879" r="7.08639" stroke-width="0.5" stroke="black" fill="cyan"/>
  <circle cx="532.381" cy="497.879" r="4.29876" stroke-width="0.5" stroke="black" fill="cyan"/>
   </g>
   <g id="cell95">
  <circle cx="468.182" cy="424.039" r="7.0545" stroke-width="0.5" stroke="black" fill="cyan"/>
  <circle cx="468.182" cy="424.039" r="4.27772" stroke-width="0.5" stroke="black" fill="cyan"/>
   </g>
   <g id="cell96">
  <circle cx="538.689" cy="522.49" r="6.99069" stroke-width="0.5" stroke="black" fill="cyan"/>
  <circle cx="538.689" cy="522.49" r="4.23498" stroke-width="0.5" stroke="black" fill="cyan"/>
   </g>
   <g id="cell97">
  <circle cx="423.745" cy="468.286" r="5.49729" stroke-width="0.5" stroke="black" fill="green"/>
  <circle cx="423.745" cy="468.286" r="3.32602" stroke-width="0.5" stroke="black" fill="green"/>
   </g>
   <g id="cell98">
  <circle cx="498.633" cy="515.279" r="6.83713" stroke-width="0.5" stroke="black" fill="green"/>
  <circle cx="498.633" cy="515.279" r="4.12773" stroke-width="0.5" stroke="black" fill="green"/>
   </g>
   <g id="cell99">
  <circle cx="357.528" cy="530.125" r="6.23657" stroke-width="0.5" stroke="black" fill="cyan"/>
  <circle cx="357.528" cy="530.125" r="3.80562" stroke-width="0.5" stroke="black" fill="cyan"/>
   </g>
   <g id="cell100">
  <circle cx="449.55" cy="393.276" r="6.46313" stroke-width="0.5" stroke="black" fill="green"/>
  <circle cx="449.55" cy="393.276" r="3.91231" stroke-width="0.5" stroke="black" fill="green"/>
   </g>
   <g id="cell101">
  <circle cx="534.592" cy="471.157" r="6.39481" stroke-width="0.5" stroke="black" fill="cyan"/>
  <circle cx="534.592" cy="471.157" r="3.87568" stroke-width="0.5" stroke="black" fill="cyan"/>
   </g>
   <g id="cell102">
  <circle cx="433.288" cy="472.016" r="5.49729" stroke-width="0.5" stroke="black" fill="green"/>
  <circle cx="433.288" cy="472.016" r="3.32602" stroke-width="0.5" stroke="black" fill="green"/>
   </g>
  </g>
 </g>
  <rect x="775" y="1035" width="200" height="10" stroke-width="2" stroke="rgb(255,255,255)" fill="rgb(0,0,0)"/>
  <text x="781.25" y="1028.75"
   font-family="Arial" font-size="25" fill="black" >
   200 &#956;m
  </text>
  <text x="25" y="1045"
   font-family="Arial" font-size="18.75" fill="black" >
   0 days, 0 hours, 0 minutes, and 9.1049 seconds
  </text>
  <rect x="0" y="70" width="1000" height="1000" stroke-width="2" stroke="rgb(0,0,0)" fill="none"/>
</svg>
