<?xml version="1.0" encoding="UTF-8" standalone="no"?>
<!-- Created with PhysiCell (http://PhysiCell.MathCancer.org/) -->
<svg 
 xmlns:dc="http://purl.org/dc/elements/1.1/" 
 xmlns:cc="http://creativecommons.org/ns#" 
 xmlns:rdf="http://www.w3.org/1999/02/22-rdf-syntax-ns#" 
 xmlns:svg="http://www.w3.org/2000/svg" 
 xmlns="http://www.w3.org/2000/svg" 
 version="1.1" 
 width="1000" 
 height="1070" 
 id="svg2">
  <rect x="0" y="0" width="1000" height="1070" stroke-width="2" stroke="white" fill="white"/>
  <text x="12.5" y="30"
   font-family="Arial" font-size="25" fill="black" >
   Current time: 1 days, 15 hours, and 33.00 minutes, z = 0.00 &#956;m
  </text>
  <text x="12.5" y="57.5"
   font-family="Arial" font-size="23.75" fill="black" >
   205 agents
  </text>
 <g id="tissue" 
    transform="translate(0,1070) scale(1,-1)">
  <g id="ECM">
  </g>
  <g id="cells">
   <g id="cell0">
  <circle cx="509.765" cy="543.131" r="8.4126" stroke-width="0.5" stroke="black" fill="magenta"/>
  <circle cx="509.765" cy="543.131" r="5.05165" stroke-width="0.5" stroke="black" fill="magenta"/>
   </g>
   <g id="cell1">
  <circle cx="593.321" cy="525.984" r="8.34884" stroke-width="0.5" stroke="black" fill="magenta"/>
  <circle cx="593.321" cy="525.984" r="5.02667" stroke-width="0.5" stroke="black" fill="magenta"/>
   </g>
   <g id="cell2">
  <circle cx="513.752" cy="597.057" r="8.41271" stroke-width="0.5" stroke="black" fill="magenta"/>
  <circle cx="513.752" cy="597.057" r="5.05167" stroke-width="0.5" stroke="black" fill="magenta"/>
   </g>
   <g id="cell3">
  <circle cx="524.608" cy="546.504" r="8.41252" stroke-width="0.5" stroke="black" fill="magenta"/>
  <circle cx="524.608" cy="546.504" r="5.05163" stroke-width="0.5" stroke="black" fill="magenta"/>
   </g>
   <g id="cell4">
  <circle cx="484.033" cy="444.022" r="8.41021" stroke-width="0.5" stroke="black" fill="magenta"/>
  <circle cx="484.033" cy="444.022" r="5.05099" stroke-width="0.5" stroke="black" fill="magenta"/>
   </g>
   <g id="cell5">
  <circle cx="469.087" cy="490.545" r="8.41271" stroke-width="0.5" stroke="black" fill="magenta"/>
  <circle cx="469.087" cy="490.545" r="5.05167" stroke-width="0.5" stroke="black" fill="magenta"/>
   </g>
   <g id="cell163">
  <circle cx="532.166" cy="572.732" r="6.69528" stroke-width="0.5" stroke="black" fill="green"/>
  <circle cx="532.166" cy="572.732" r="4.03614" stroke-width="0.5" stroke="black" fill="green"/>
   </g>
   <g id="cell7">
  <circle cx="495.072" cy="454.819" r="8.34073" stroke-width="0.5" stroke="black" fill="magenta"/>
  <circle cx="495.072" cy="454.819" r="5.02316" stroke-width="0.5" stroke="black" fill="magenta"/>
   </g>
   <g id="cell8">
  <circle cx="379.781" cy="552.986" r="8.36458" stroke-width="0.5" stroke="black" fill="magenta"/>
  <circle cx="379.781" cy="552.986" r="5.03347" stroke-width="0.5" stroke="black" fill="magenta"/>
   </g>
   <g id="cell161">
  <circle cx="452.277" cy="386.059" r="8.34779" stroke-width="0.5" stroke="black" fill="green"/>
  <circle cx="452.277" cy="386.059" r="5.02751" stroke-width="0.5" stroke="black" fill="green"/>
   </g>
   <g id="cell10">
  <circle cx="584.752" cy="387.862" r="8.3926" stroke-width="0.5" stroke="black" fill="magenta"/>
  <circle cx="584.752" cy="387.862" r="5.04482" stroke-width="0.5" stroke="black" fill="magenta"/>
   </g>
   <g id="cell11">
  <circle cx="591.775" cy="590.699" r="8.41271" stroke-width="0.5" stroke="black" fill="magenta"/>
  <circle cx="591.775" cy="590.699" r="5.05167" stroke-width="0.5" stroke="black" fill="magenta"/>
   </g>
   <g id="cell12">
  <circle cx="499.054" cy="593.839" r="8.40576" stroke-width="0.5" stroke="black" fill="magenta"/>
  <circle cx="499.054" cy="593.839" r="5.04957" stroke-width="0.5" stroke="black" fill="magenta"/>
   </g>
   <g id="cell13">
  <circle cx="383.97" cy="567.68" r="8.41271" stroke-width="0.5" stroke="black" fill="magenta"/>
  <circle cx="383.97" cy="567.68" r="5.05167" stroke-width="0.5" stroke="black" fill="magenta"/>
   </g>
   <g id="cell14">
  <circle cx="517.491" cy="403.442" r="8.41271" stroke-width="0.5" stroke="black" fill="magenta"/>
  <circle cx="517.491" cy="403.442" r="5.05167" stroke-width="0.5" stroke="black" fill="magenta"/>
   </g>
   <g id="cell15">
  <circle cx="381.865" cy="479.123" r="8.40884" stroke-width="0.5" stroke="black" fill="magenta"/>
  <circle cx="381.865" cy="479.123" r="5.05057" stroke-width="0.5" stroke="black" fill="magenta"/>
   </g>
   <g id="cell16">
  <circle cx="452.605" cy="417.184" r="7.85026" stroke-width="0.5" stroke="black" fill="magenta"/>
  <circle cx="452.605" cy="417.184" r="4.76783" stroke-width="0.5" stroke="black" fill="magenta"/>
   </g>
   <g id="cell17">
  <circle cx="583.223" cy="498.124" r="8.23948" stroke-width="0.5" stroke="black" fill="magenta"/>
  <circle cx="583.223" cy="498.124" r="4.97503" stroke-width="0.5" stroke="black" fill="magenta"/>
   </g>
   <g id="cell18">
  <circle cx="519.024" cy="387.727" r="8.41271" stroke-width="0.5" stroke="black" fill="magenta"/>
  <circle cx="519.024" cy="387.727" r="5.05167" stroke-width="0.5" stroke="black" fill="magenta"/>
   </g>
   <g id="cell19">
  <circle cx="457.288" cy="541.527" r="8.41183" stroke-width="0.5" stroke="black" fill="magenta"/>
  <circle cx="457.288" cy="541.527" r="5.05146" stroke-width="0.5" stroke="black" fill="magenta"/>
   </g>
   <g id="cell20">
  <circle cx="530.194" cy="412.064" r="8.41271" stroke-width="0.5" stroke="black" fill="magenta"/>
  <circle cx="530.194" cy="412.064" r="5.05167" stroke-width="0.5" stroke="black" fill="magenta"/>
   </g>
   <g id="cell21">
  <circle cx="467.66" cy="637.12" r="7.44242" stroke-width="0.5" stroke="black" fill="magenta"/>
  <circle cx="467.66" cy="637.12" r="4.52373" stroke-width="0.5" stroke="black" fill="magenta"/>
   </g>
   <g id="cell22">
  <circle cx="559.437" cy="491.189" r="7.66584" stroke-width="0.5" stroke="black" fill="magenta"/>
  <circle cx="559.437" cy="491.189" r="4.66925" stroke-width="0.5" stroke="black" fill="magenta"/>
   </g>
   <g id="cell23">
  <circle cx="554.141" cy="477.591" r="8.41271" stroke-width="0.5" stroke="black" fill="magenta"/>
  <circle cx="554.141" cy="477.591" r="5.05167" stroke-width="0.5" stroke="black" fill="magenta"/>
   </g>
   <g id="cell24">
  <circle cx="569.981" cy="384.43" r="8.41271" stroke-width="0.5" stroke="black" fill="magenta"/>
  <circle cx="569.981" cy="384.43" r="5.05167" stroke-width="0.5" stroke="black" fill="magenta"/>
   </g>
   <g id="cell25">
  <circle cx="643.794" cy="546.032" r="7.27248" stroke-width="0.5" stroke="black" fill="green"/>
  <circle cx="643.794" cy="546.032" r="4.41834" stroke-width="0.5" stroke="black" fill="green"/>
   </g>
   <g id="cell26">
  <circle cx="558.901" cy="397.056" r="8.41182" stroke-width="0.5" stroke="black" fill="green"/>
  <circle cx="558.901" cy="397.056" r="5.05145" stroke-width="0.5" stroke="black" fill="green"/>
   </g>
   <g id="cell27">
  <circle cx="462.423" cy="405.906" r="8.41267" stroke-width="0.5" stroke="black" fill="green"/>
  <circle cx="462.423" cy="405.906" r="5.05166" stroke-width="0.5" stroke="black" fill="green"/>
   </g>
   <g id="cell28">
  <circle cx="429.593" cy="542.918" r="8.38753" stroke-width="0.5" stroke="black" fill="green"/>
  <circle cx="429.593" cy="542.918" r="5.04286" stroke-width="0.5" stroke="black" fill="green"/>
   </g>
   <g id="cell29">
  <circle cx="451.561" cy="518.81" r="1.25254" stroke-width="0.5" stroke="black" fill="green"/>
  <circle cx="451.561" cy="518.81" r="1.24436" stroke-width="0.5" stroke="black" fill="black"/>
   </g>
   <g id="cell30">
  <circle cx="480.11" cy="536.373" r="8.40464" stroke-width="0.5" stroke="black" fill="green"/>
  <circle cx="480.11" cy="536.373" r="5.0492" stroke-width="0.5" stroke="black" fill="green"/>
   </g>
   <g id="cell31">
  <circle cx="413.666" cy="543.511" r="8.41271" stroke-width="0.5" stroke="black" fill="green"/>
  <circle cx="413.666" cy="543.511" r="5.05167" stroke-width="0.5" stroke="black" fill="green"/>
   </g>
   <g id="cell169">
  <circle cx="519.628" cy="502.295" r="8.33015" stroke-width="0.5" stroke="black" fill="cyan"/>
  <circle cx="519.628" cy="502.295" r="5.01835" stroke-width="0.5" stroke="black" fill="cyan"/>
   </g>
   <g id="cell33">
  <circle cx="499.347" cy="418.683" r="8.40327" stroke-width="0.5" stroke="black" fill="green"/>
  <circle cx="499.347" cy="418.683" r="5.04872" stroke-width="0.5" stroke="black" fill="green"/>
   </g>
   <g id="cell168">
  <circle cx="381.644" cy="517.954" r="5.49671" stroke-width="0.5" stroke="black" fill="cyan"/>
  <circle cx="381.644" cy="517.954" r="3.56004" stroke-width="0.5" stroke="black" fill="black"/>
   </g>
   <g id="cell35">
  <circle cx="558.289" cy="556.137" r="8.41271" stroke-width="0.5" stroke="black" fill="green"/>
  <circle cx="558.289" cy="556.137" r="5.05167" stroke-width="0.5" stroke="black" fill="green"/>
   </g>
   <g id="cell36">
  <circle cx="388.724" cy="582.68" r="8.36467" stroke-width="0.5" stroke="black" fill="green"/>
  <circle cx="388.724" cy="582.68" r="5.03468" stroke-width="0.5" stroke="black" fill="green"/>
   </g>
   <g id="cell37">
  <circle cx="642.323" cy="456.057" r="8.41266" stroke-width="0.5" stroke="black" fill="green"/>
  <circle cx="642.323" cy="456.057" r="5.05166" stroke-width="0.5" stroke="black" fill="green"/>
   </g>
   <g id="cell38">
  <circle cx="524.563" cy="585.843" r="8.36455" stroke-width="0.5" stroke="black" fill="green"/>
  <circle cx="524.563" cy="585.843" r="5.03346" stroke-width="0.5" stroke="black" fill="green"/>
   </g>
   <g id="cell39">
  <circle cx="611.732" cy="490.552" r="8.24914" stroke-width="0.5" stroke="black" fill="green"/>
  <circle cx="611.732" cy="490.552" r="4.97981" stroke-width="0.5" stroke="black" fill="green"/>
   </g>
   <g id="cell40">
  <circle cx="486.215" cy="567.173" r="8.38291" stroke-width="0.5" stroke="black" fill="green"/>
  <circle cx="486.215" cy="567.173" r="5.04103" stroke-width="0.5" stroke="black" fill="green"/>
   </g>
   <g id="cell41">
  <circle cx="366.56" cy="482.122" r="8.41271" stroke-width="0.5" stroke="black" fill="green"/>
  <circle cx="366.56" cy="482.122" r="5.05167" stroke-width="0.5" stroke="black" fill="green"/>
   </g>
   <g id="cell42">
  <circle cx="437.962" cy="490.479" r="8.41271" stroke-width="0.5" stroke="black" fill="green"/>
  <circle cx="437.962" cy="490.479" r="5.05167" stroke-width="0.5" stroke="black" fill="green"/>
   </g>
   <g id="cell43">
  <circle cx="564.609" cy="438.586" r="8.41271" stroke-width="0.5" stroke="black" fill="green"/>
  <circle cx="564.609" cy="438.586" r="5.05167" stroke-width="0.5" stroke="black" fill="green"/>
   </g>
   <g id="cell164">
  <circle cx="399.162" cy="570.731" r="8.34588" stroke-width="0.5" stroke="black" fill="green"/>
  <circle cx="399.162" cy="570.731" r="5.0264" stroke-width="0.5" stroke="black" fill="green"/>
   </g>
   <g id="cell145">
  <circle cx="411.06" cy="420.876" r="7.83127" stroke-width="0.5" stroke="black" fill="magenta"/>
  <circle cx="411.06" cy="420.876" r="4.76724" stroke-width="0.5" stroke="black" fill="magenta"/>
   </g>
   <g id="cell46">
  <circle cx="515.733" cy="619.522" r="8.41231" stroke-width="0.5" stroke="black" fill="green"/>
  <circle cx="515.733" cy="619.522" r="5.05158" stroke-width="0.5" stroke="black" fill="green"/>
   </g>
   <g id="cell47">
  <circle cx="484.629" cy="491.153" r="8.41246" stroke-width="0.5" stroke="black" fill="green"/>
  <circle cx="484.629" cy="491.153" r="5.05162" stroke-width="0.5" stroke="black" fill="green"/>
   </g>
   <g id="cell48">
  <circle cx="577.878" cy="604.514" r="8.41181" stroke-width="0.5" stroke="black" fill="green"/>
  <circle cx="577.878" cy="604.514" r="5.05146" stroke-width="0.5" stroke="black" fill="green"/>
   </g>
   <g id="cell49">
  <circle cx="437.233" cy="391.075" r="8.33257" stroke-width="0.5" stroke="black" fill="green"/>
  <circle cx="437.233" cy="391.075" r="5.01941" stroke-width="0.5" stroke="black" fill="green"/>
   </g>
   <g id="cell50">
  <circle cx="501.258" cy="512.851" r="8.41145" stroke-width="0.5" stroke="black" fill="cyan"/>
  <circle cx="501.258" cy="512.851" r="5.05136" stroke-width="0.5" stroke="black" fill="cyan"/>
   </g>
   <g id="cell51">
  <circle cx="400.833" cy="592.516" r="7.75912" stroke-width="0.5" stroke="black" fill="cyan"/>
  <circle cx="400.833" cy="592.516" r="4.71248" stroke-width="0.5" stroke="black" fill="cyan"/>
   </g>
   <g id="cell52">
  <circle cx="516.551" cy="417.267" r="5.95973" stroke-width="0.5" stroke="black" fill="cyan"/>
  <circle cx="516.551" cy="417.267" r="3.76978" stroke-width="0.5" stroke="black" fill="black"/>
   </g>
   <g id="cell53">
  <circle cx="573.252" cy="425.294" r="8.41237" stroke-width="0.5" stroke="black" fill="cyan"/>
  <circle cx="573.252" cy="425.294" r="5.05159" stroke-width="0.5" stroke="black" fill="cyan"/>
   </g>
   <g id="cell54">
  <circle cx="480.701" cy="416.738" r="8.41251" stroke-width="0.5" stroke="black" fill="cyan"/>
  <circle cx="480.701" cy="416.738" r="5.05163" stroke-width="0.5" stroke="black" fill="cyan"/>
   </g>
   <g id="cell55">
  <circle cx="521.841" cy="459.005" r="8.41239" stroke-width="0.5" stroke="black" fill="cyan"/>
  <circle cx="521.841" cy="459.005" r="5.0516" stroke-width="0.5" stroke="black" fill="cyan"/>
   </g>
   <g id="cell56">
  <circle cx="622.753" cy="522.393" r="8.41271" stroke-width="0.5" stroke="black" fill="cyan"/>
  <circle cx="622.753" cy="522.393" r="5.05167" stroke-width="0.5" stroke="black" fill="cyan"/>
   </g>
   <g id="cell105">
  <circle cx="503.556" cy="608.849" r="8.40243" stroke-width="0.5" stroke="black" fill="green"/>
  <circle cx="503.556" cy="608.849" r="5.04851" stroke-width="0.5" stroke="black" fill="green"/>
   </g>
   <g id="cell58">
  <circle cx="569.496" cy="475.059" r="8.38454" stroke-width="0.5" stroke="black" fill="cyan"/>
  <circle cx="569.496" cy="475.059" r="5.04168" stroke-width="0.5" stroke="black" fill="cyan"/>
   </g>
   <g id="cell59">
  <circle cx="385.732" cy="440.058" r="8.41271" stroke-width="0.5" stroke="black" fill="cyan"/>
  <circle cx="385.732" cy="440.058" r="5.05167" stroke-width="0.5" stroke="black" fill="cyan"/>
   </g>
   <g id="cell60">
  <circle cx="596.867" cy="464.883" r="8.29667" stroke-width="0.5" stroke="black" fill="cyan"/>
  <circle cx="596.867" cy="464.883" r="5.00279" stroke-width="0.5" stroke="black" fill="cyan"/>
   </g>
   <g id="cell186">
  <circle cx="354.924" cy="562.196" r="2.94028" stroke-width="0.5" stroke="black" fill="cyan"/>
  <circle cx="354.924" cy="562.196" r="2.41718" stroke-width="0.5" stroke="black" fill="black"/>
   </g>
   <g id="cell62">
  <circle cx="514.542" cy="432.948" r="8.28164" stroke-width="0.5" stroke="black" fill="cyan"/>
  <circle cx="514.542" cy="432.948" r="4.99584" stroke-width="0.5" stroke="black" fill="cyan"/>
   </g>
   <g id="cell63">
  <circle cx="585.774" cy="539.66" r="8.40844" stroke-width="0.5" stroke="black" fill="cyan"/>
  <circle cx="585.774" cy="539.66" r="5.05045" stroke-width="0.5" stroke="black" fill="cyan"/>
   </g>
   <g id="cell64">
  <circle cx="509.363" cy="638.204" r="8.41271" stroke-width="0.5" stroke="black" fill="cyan"/>
  <circle cx="509.363" cy="638.204" r="5.05167" stroke-width="0.5" stroke="black" fill="cyan"/>
   </g>
   <g id="cell65">
  <circle cx="545.483" cy="464.564" r="8.41257" stroke-width="0.5" stroke="black" fill="cyan"/>
  <circle cx="545.483" cy="464.564" r="5.05164" stroke-width="0.5" stroke="black" fill="cyan"/>
   </g>
   <g id="cell66">
  <circle cx="534.552" cy="535.879" r="8.41249" stroke-width="0.5" stroke="black" fill="cyan"/>
  <circle cx="534.552" cy="535.879" r="5.05162" stroke-width="0.5" stroke="black" fill="cyan"/>
   </g>
   <g id="cell67">
  <circle cx="354.659" cy="492.853" r="8.41271" stroke-width="0.5" stroke="black" fill="cyan"/>
  <circle cx="354.659" cy="492.853" r="5.05167" stroke-width="0.5" stroke="black" fill="cyan"/>
   </g>
   <g id="cell212">
  <circle cx="569.754" cy="499.772" r="7.03408" stroke-width="0.5" stroke="black" fill="magenta"/>
  <circle cx="569.754" cy="499.772" r="4.29509" stroke-width="0.5" stroke="black" fill="magenta"/>
   </g>
   <g id="cell69">
  <circle cx="443.733" cy="460.723" r="8.41271" stroke-width="0.5" stroke="black" fill="cyan"/>
  <circle cx="443.733" cy="460.723" r="5.05167" stroke-width="0.5" stroke="black" fill="cyan"/>
   </g>
   <g id="cell70">
  <circle cx="585.119" cy="480.902" r="8.41271" stroke-width="0.5" stroke="black" fill="cyan"/>
  <circle cx="585.119" cy="480.902" r="5.05167" stroke-width="0.5" stroke="black" fill="cyan"/>
   </g>
   <g id="cell71">
  <circle cx="381.951" cy="533.57" r="1.39962" stroke-width="0.5" stroke="black" fill="cyan"/>
  <circle cx="381.951" cy="533.57" r="1.38477" stroke-width="0.5" stroke="black" fill="black"/>
   </g>
   <g id="cell72">
  <circle cx="535.208" cy="502.151" r="8.33015" stroke-width="0.5" stroke="black" fill="cyan"/>
  <circle cx="535.208" cy="502.151" r="5.01835" stroke-width="0.5" stroke="black" fill="cyan"/>
   </g>
   <g id="cell73">
  <circle cx="365.268" cy="550.075" r="7.65919" stroke-width="0.5" stroke="black" fill="cyan"/>
  <circle cx="365.268" cy="550.075" r="4.66605" stroke-width="0.5" stroke="black" fill="cyan"/>
   </g>
   <g id="cell162">
  <circle cx="374.551" cy="538.651" r="8.36458" stroke-width="0.5" stroke="black" fill="magenta"/>
  <circle cx="374.551" cy="538.651" r="5.03347" stroke-width="0.5" stroke="black" fill="magenta"/>
   </g>
   <g id="cell75">
  <circle cx="528.297" cy="427.449" r="8.41267" stroke-width="0.5" stroke="black" fill="cyan"/>
  <circle cx="528.297" cy="427.449" r="5.05166" stroke-width="0.5" stroke="black" fill="cyan"/>
   </g>
   <g id="cell76">
  <circle cx="435.964" cy="375.497" r="8.41207" stroke-width="0.5" stroke="black" fill="green"/>
  <circle cx="435.964" cy="375.497" r="5.05152" stroke-width="0.5" stroke="black" fill="green"/>
   </g>
   <g id="cell77">
  <circle cx="469.564" cy="447.271" r="8.41222" stroke-width="0.5" stroke="black" fill="magenta"/>
  <circle cx="469.564" cy="447.271" r="5.05156" stroke-width="0.5" stroke="black" fill="magenta"/>
   </g>
   <g id="cell78">
  <circle cx="626.348" cy="455.461" r="8.41255" stroke-width="0.5" stroke="black" fill="green"/>
  <circle cx="626.348" cy="455.461" r="5.05164" stroke-width="0.5" stroke="black" fill="green"/>
   </g>
   <g id="cell79">
  <circle cx="518.3" cy="474.443" r="8.41265" stroke-width="0.5" stroke="black" fill="cyan"/>
  <circle cx="518.3" cy="474.443" r="5.05166" stroke-width="0.5" stroke="black" fill="cyan"/>
   </g>
   <g id="cell80">
  <circle cx="542.274" cy="631.377" r="7.99995" stroke-width="0.5" stroke="black" fill="green"/>
  <circle cx="542.274" cy="631.377" r="4.84909" stroke-width="0.5" stroke="black" fill="green"/>
   </g>
   <g id="cell81">
  <circle cx="550.841" cy="588.807" r="8.41262" stroke-width="0.5" stroke="black" fill="green"/>
  <circle cx="550.841" cy="588.807" r="5.05165" stroke-width="0.5" stroke="black" fill="green"/>
   </g>
   <g id="cell82">
  <circle cx="529.731" cy="559.985" r="8.40151" stroke-width="0.5" stroke="black" fill="magenta"/>
  <circle cx="529.731" cy="559.985" r="5.04811" stroke-width="0.5" stroke="black" fill="magenta"/>
   </g>
   <g id="cell211">
  <circle cx="450.107" cy="371.565" r="7.20873" stroke-width="0.5" stroke="black" fill="green"/>
  <circle cx="450.107" cy="371.565" r="4.37898" stroke-width="0.5" stroke="black" fill="green"/>
   </g>
   <g id="cell84">
  <circle cx="512.263" cy="489.038" r="8.20684" stroke-width="0.5" stroke="black" fill="cyan"/>
  <circle cx="512.263" cy="489.038" r="4.95866" stroke-width="0.5" stroke="black" fill="cyan"/>
   </g>
   <g id="cell85">
  <circle cx="345.107" cy="541.943" r="8.4124" stroke-width="0.5" stroke="black" fill="cyan"/>
  <circle cx="345.107" cy="541.943" r="5.0516" stroke-width="0.5" stroke="black" fill="cyan"/>
   </g>
   <g id="cell86">
  <circle cx="495.31" cy="539.074" r="8.41055" stroke-width="0.5" stroke="black" fill="magenta"/>
  <circle cx="495.31" cy="539.074" r="5.0511" stroke-width="0.5" stroke="black" fill="magenta"/>
   </g>
   <g id="cell87">
  <circle cx="574.169" cy="558.476" r="8.41227" stroke-width="0.5" stroke="black" fill="cyan"/>
  <circle cx="574.169" cy="558.476" r="5.05157" stroke-width="0.5" stroke="black" fill="cyan"/>
   </g>
   <g id="cell88">
  <circle cx="445.414" cy="534.958" r="6.7453" stroke-width="0.5" stroke="black" fill="magenta"/>
  <circle cx="445.414" cy="534.958" r="4.07386" stroke-width="0.5" stroke="black" fill="magenta"/>
   </g>
   <g id="cell89">
  <circle cx="553.954" cy="450.071" r="8.39848" stroke-width="0.5" stroke="black" fill="cyan"/>
  <circle cx="553.954" cy="450.071" r="5.0472" stroke-width="0.5" stroke="black" fill="cyan"/>
   </g>
   <g id="cell90">
  <circle cx="637.37" cy="471.318" r="8.40962" stroke-width="0.5" stroke="black" fill="green"/>
  <circle cx="637.37" cy="471.318" r="5.05082" stroke-width="0.5" stroke="black" fill="green"/>
   </g>
   <g id="cell91">
  <circle cx="544.471" cy="564.52" r="8.41244" stroke-width="0.5" stroke="black" fill="magenta"/>
  <circle cx="544.471" cy="564.52" r="5.05161" stroke-width="0.5" stroke="black" fill="magenta"/>
   </g>
   <g id="cell92">
  <circle cx="486.213" cy="551.376" r="8.41254" stroke-width="0.5" stroke="black" fill="green"/>
  <circle cx="486.213" cy="551.376" r="5.05163" stroke-width="0.5" stroke="black" fill="green"/>
   </g>
   <g id="cell93">
  <circle cx="540.683" cy="549.768" r="8.41244" stroke-width="0.5" stroke="black" fill="magenta"/>
  <circle cx="540.683" cy="549.768" r="5.05161" stroke-width="0.5" stroke="black" fill="magenta"/>
   </g>
   <g id="cell94">
  <circle cx="543.673" cy="488.816" r="8.41251" stroke-width="0.5" stroke="black" fill="cyan"/>
  <circle cx="543.673" cy="488.816" r="5.05163" stroke-width="0.5" stroke="black" fill="cyan"/>
   </g>
   <g id="cell95">
  <circle cx="466.117" cy="421.18" r="8.01265" stroke-width="0.5" stroke="black" fill="cyan"/>
  <circle cx="466.117" cy="421.18" r="4.85581" stroke-width="0.5" stroke="black" fill="cyan"/>
   </g>
   <g id="cell96">
  <circle cx="554.008" cy="541.21" r="8.40689" stroke-width="0.5" stroke="black" fill="cyan"/>
  <circle cx="554.008" cy="541.21" r="5.04996" stroke-width="0.5" stroke="black" fill="cyan"/>
   </g>
   <g id="cell97">
  <circle cx="420.437" cy="463.934" r="8.4123" stroke-width="0.5" stroke="black" fill="green"/>
  <circle cx="420.437" cy="463.934" r="5.05158" stroke-width="0.5" stroke="black" fill="green"/>
   </g>
   <g id="cell98">
  <circle cx="490.333" cy="524.194" r="8.41011" stroke-width="0.5" stroke="black" fill="green"/>
  <circle cx="490.333" cy="524.194" r="5.05097" stroke-width="0.5" stroke="black" fill="green"/>
   </g>
   <g id="cell99">
  <circle cx="367.936" cy="524.538" r="8.4124" stroke-width="0.5" stroke="black" fill="cyan"/>
  <circle cx="367.936" cy="524.538" r="5.0516" stroke-width="0.5" stroke="black" fill="cyan"/>
   </g>
   <g id="cell100">
  <circle cx="446.306" cy="403.851" r="8.41239" stroke-width="0.5" stroke="black" fill="green"/>
  <circle cx="446.306" cy="403.851" r="5.0516" stroke-width="0.5" stroke="black" fill="green"/>
   </g>
   <g id="cell101">
  <circle cx="527.518" cy="488.743" r="8.15752" stroke-width="0.5" stroke="black" fill="cyan"/>
  <circle cx="527.518" cy="488.743" r="4.93403" stroke-width="0.5" stroke="black" fill="cyan"/>
   </g>
   <g id="cell102">
  <circle cx="441.637" cy="475.766" r="7.59158" stroke-width="0.5" stroke="black" fill="green"/>
  <circle cx="441.637" cy="475.766" r="4.61393" stroke-width="0.5" stroke="black" fill="green"/>
   </g>
   <g id="cell103">
  <circle cx="592.731" cy="449.649" r="8.4105" stroke-width="0.5" stroke="black" fill="cyan"/>
  <circle cx="592.731" cy="449.649" r="5.05109" stroke-width="0.5" stroke="black" fill="cyan"/>
   </g>
   <g id="cell104">
  <circle cx="606.811" cy="554.022" r="8.2212" stroke-width="0.5" stroke="black" fill="cyan"/>
  <circle cx="606.811" cy="554.022" r="4.96725" stroke-width="0.5" stroke="black" fill="cyan"/>
   </g>
   <g id="cell106">
  <circle cx="454.605" cy="449.541" r="8.41222" stroke-width="0.5" stroke="black" fill="magenta"/>
  <circle cx="454.605" cy="449.541" r="5.05156" stroke-width="0.5" stroke="black" fill="magenta"/>
   </g>
   <g id="cell107">
  <circle cx="467.374" cy="390.823" r="8.34779" stroke-width="0.5" stroke="black" fill="green"/>
  <circle cx="467.374" cy="390.823" r="5.02751" stroke-width="0.5" stroke="black" fill="green"/>
   </g>
   <g id="cell108">
  <circle cx="562.676" cy="609.58" r="8.41214" stroke-width="0.5" stroke="black" fill="green"/>
  <circle cx="562.676" cy="609.58" r="5.05154" stroke-width="0.5" stroke="black" fill="green"/>
   </g>
   <g id="cell109">
  <circle cx="576.354" cy="588.631" r="8.41181" stroke-width="0.5" stroke="black" fill="green"/>
  <circle cx="576.354" cy="588.631" r="5.05146" stroke-width="0.5" stroke="black" fill="green"/>
   </g>
   <g id="cell110">
  <circle cx="369.404" cy="508.769" r="8.41194" stroke-width="0.5" stroke="black" fill="cyan"/>
  <circle cx="369.404" cy="508.769" r="5.05148" stroke-width="0.5" stroke="black" fill="cyan"/>
   </g>
   <g id="cell111">
  <circle cx="456.983" cy="556.657" r="8.40622" stroke-width="0.5" stroke="black" fill="magenta"/>
  <circle cx="456.983" cy="556.657" r="5.04977" stroke-width="0.5" stroke="black" fill="magenta"/>
   </g>
   <g id="cell112">
  <circle cx="491.729" cy="468.81" r="8.39665" stroke-width="0.5" stroke="black" fill="magenta"/>
  <circle cx="491.729" cy="468.81" r="5.04639" stroke-width="0.5" stroke="black" fill="magenta"/>
   </g>
   <g id="cell113">
  <circle cx="546.997" cy="372.139" r="6.85707" stroke-width="0.5" stroke="black" fill="green"/>
  <circle cx="546.997" cy="372.139" r="4.14571" stroke-width="0.5" stroke="black" fill="green"/>
   </g>
   <g id="cell114">
  <circle cx="525.172" cy="443.488" r="8.41122" stroke-width="0.5" stroke="black" fill="cyan"/>
  <circle cx="525.172" cy="443.488" r="5.0513" stroke-width="0.5" stroke="black" fill="cyan"/>
   </g>
   <g id="cell115">
  <circle cx="538.477" cy="450.803" r="8.40739" stroke-width="0.5" stroke="black" fill="cyan"/>
  <circle cx="538.477" cy="450.803" r="5.05016" stroke-width="0.5" stroke="black" fill="cyan"/>
   </g>
   <g id="cell116">
  <circle cx="519.925" cy="531.966" r="8.2576" stroke-width="0.5" stroke="black" fill="cyan"/>
  <circle cx="519.925" cy="531.966" r="4.98412" stroke-width="0.5" stroke="black" fill="cyan"/>
   </g>
   <g id="cell117">
  <circle cx="500.708" cy="624.701" r="8.41105" stroke-width="0.5" stroke="black" fill="green"/>
  <circle cx="500.708" cy="624.701" r="5.05125" stroke-width="0.5" stroke="black" fill="green"/>
   </g>
   <g id="cell118">
  <circle cx="509.782" cy="448.501" r="8.41081" stroke-width="0.5" stroke="black" fill="cyan"/>
  <circle cx="509.782" cy="448.501" r="5.05117" stroke-width="0.5" stroke="black" fill="cyan"/>
   </g>
   <g id="cell119">
  <circle cx="548.25" cy="603.565" r="8.28163" stroke-width="0.5" stroke="black" fill="green"/>
  <circle cx="548.25" cy="603.565" r="4.99584" stroke-width="0.5" stroke="black" fill="green"/>
   </g>
   <g id="cell120">
  <circle cx="580.649" cy="439.297" r="8.4105" stroke-width="0.5" stroke="black" fill="cyan"/>
  <circle cx="580.649" cy="439.297" r="5.05109" stroke-width="0.5" stroke="black" fill="cyan"/>
   </g>
   <g id="cell121">
  <circle cx="453.025" cy="358.364" r="7.20873" stroke-width="0.5" stroke="black" fill="green"/>
  <circle cx="453.025" cy="358.364" r="4.37898" stroke-width="0.5" stroke="black" fill="green"/>
   </g>
   <g id="cell122">
  <circle cx="505.36" cy="528.172" r="8.41055" stroke-width="0.5" stroke="black" fill="magenta"/>
  <circle cx="505.36" cy="528.172" r="5.0511" stroke-width="0.5" stroke="black" fill="magenta"/>
   </g>
   <g id="cell123">
  <circle cx="486.565" cy="507.105" r="8.41011" stroke-width="0.5" stroke="black" fill="green"/>
  <circle cx="486.565" cy="507.105" r="5.05097" stroke-width="0.5" stroke="black" fill="green"/>
   </g>
   <g id="cell124">
  <circle cx="488.536" cy="429.829" r="8.07518" stroke-width="0.5" stroke="black" fill="magenta"/>
  <circle cx="488.536" cy="429.829" r="4.89008" stroke-width="0.5" stroke="black" fill="magenta"/>
   </g>
   <g id="cell125">
  <circle cx="624.828" cy="483.621" r="7.41349" stroke-width="0.5" stroke="black" fill="green"/>
  <circle cx="624.828" cy="483.621" r="4.50663" stroke-width="0.5" stroke="black" fill="green"/>
   </g>
   <g id="cell126">
  <circle cx="628.988" cy="566.353" r="8.40958" stroke-width="0.5" stroke="black" fill="green"/>
  <circle cx="628.988" cy="566.353" r="5.0508" stroke-width="0.5" stroke="black" fill="green"/>
   </g>
   <g id="cell127">
  <circle cx="432.359" cy="361.234" r="7.26942" stroke-width="0.5" stroke="black" fill="green"/>
  <circle cx="432.359" cy="361.234" r="4.41741" stroke-width="0.5" stroke="black" fill="green"/>
   </g>
   <g id="cell128">
  <circle cx="372.114" cy="467.547" r="8.40884" stroke-width="0.5" stroke="black" fill="magenta"/>
  <circle cx="372.114" cy="467.547" r="5.05057" stroke-width="0.5" stroke="black" fill="magenta"/>
   </g>
   <g id="cell129">
  <circle cx="569.896" cy="543.094" r="8.40844" stroke-width="0.5" stroke="black" fill="cyan"/>
  <circle cx="569.896" cy="543.094" r="5.05045" stroke-width="0.5" stroke="black" fill="cyan"/>
   </g>
   <g id="cell130">
  <circle cx="546.408" cy="436.777" r="8.40739" stroke-width="0.5" stroke="black" fill="cyan"/>
  <circle cx="546.408" cy="436.777" r="5.05016" stroke-width="0.5" stroke="black" fill="cyan"/>
   </g>
   <g id="cell131">
  <circle cx="543.712" cy="514.286" r="7.63439" stroke-width="0.5" stroke="black" fill="cyan"/>
  <circle cx="543.712" cy="514.286" r="4.66547" stroke-width="0.5" stroke="black" fill="cyan"/>
   </g>
   <g id="cell132">
  <circle cx="444.032" cy="548.704" r="8.40622" stroke-width="0.5" stroke="black" fill="magenta"/>
  <circle cx="444.032" cy="548.704" r="5.04977" stroke-width="0.5" stroke="black" fill="magenta"/>
   </g>
   <g id="cell133">
  <circle cx="581.334" cy="465.235" r="8.4066" stroke-width="0.5" stroke="black" fill="cyan"/>
  <circle cx="581.334" cy="465.235" r="5.04986" stroke-width="0.5" stroke="black" fill="cyan"/>
   </g>
   <g id="cell201">
  <circle cx="557.283" cy="519.94" r="7.63439" stroke-width="0.5" stroke="black" fill="cyan"/>
  <circle cx="557.283" cy="519.94" r="4.66547" stroke-width="0.5" stroke="black" fill="cyan"/>
   </g>
   <g id="cell135">
  <circle cx="509.253" cy="582.713" r="8.40576" stroke-width="0.5" stroke="black" fill="magenta"/>
  <circle cx="509.253" cy="582.713" r="5.04957" stroke-width="0.5" stroke="black" fill="magenta"/>
   </g>
   <g id="cell136">
  <circle cx="470.639" cy="549.173" r="8.40464" stroke-width="0.5" stroke="black" fill="green"/>
  <circle cx="470.639" cy="549.173" r="5.0492" stroke-width="0.5" stroke="black" fill="green"/>
   </g>
   <g id="cell137">
  <circle cx="488.526" cy="614.398" r="8.40243" stroke-width="0.5" stroke="black" fill="green"/>
  <circle cx="488.526" cy="614.398" r="5.04851" stroke-width="0.5" stroke="black" fill="green"/>
   </g>
   <g id="cell138">
  <circle cx="502.351" cy="403.847" r="8.40327" stroke-width="0.5" stroke="black" fill="green"/>
  <circle cx="502.351" cy="403.847" r="5.04872" stroke-width="0.5" stroke="black" fill="green"/>
   </g>
   <g id="cell139">
  <circle cx="415.742" cy="406.983" r="8.40185" stroke-width="0.5" stroke="black" fill="magenta"/>
  <circle cx="415.742" cy="406.983" r="5.04822" stroke-width="0.5" stroke="black" fill="magenta"/>
   </g>
   <g id="cell140">
  <circle cx="518.982" cy="571.398" r="8.3919" stroke-width="0.5" stroke="black" fill="magenta"/>
  <circle cx="518.982" cy="571.398" r="5.04487" stroke-width="0.5" stroke="black" fill="magenta"/>
   </g>
   <g id="cell141">
  <circle cx="571.943" cy="452.522" r="8.39848" stroke-width="0.5" stroke="black" fill="cyan"/>
  <circle cx="571.943" cy="452.522" r="5.0472" stroke-width="0.5" stroke="black" fill="cyan"/>
   </g>
   <g id="cell142">
  <circle cx="542.221" cy="422.216" r="8.25328" stroke-width="0.5" stroke="black" fill="green"/>
  <circle cx="542.221" cy="422.216" r="4.98474" stroke-width="0.5" stroke="black" fill="green"/>
   </g>
   <g id="cell143">
  <circle cx="430.772" cy="405.074" r="8.39512" stroke-width="0.5" stroke="black" fill="magenta"/>
  <circle cx="430.772" cy="405.074" r="5.04604" stroke-width="0.5" stroke="black" fill="magenta"/>
   </g>
   <g id="cell144">
  <circle cx="546.299" cy="408.142" r="8.36876" stroke-width="0.5" stroke="black" fill="green"/>
  <circle cx="546.299" cy="408.142" r="5.0361" stroke-width="0.5" stroke="black" fill="green"/>
   </g>
   <g id="cell185">
  <circle cx="596.965" cy="564.896" r="7.23553" stroke-width="0.5" stroke="black" fill="cyan"/>
  <circle cx="596.965" cy="564.896" r="4.41691" stroke-width="0.5" stroke="black" fill="cyan"/>
   </g>
   <g id="cell147">
  <circle cx="514.656" cy="557.398" r="8.3919" stroke-width="0.5" stroke="black" fill="magenta"/>
  <circle cx="514.656" cy="557.398" r="5.04487" stroke-width="0.5" stroke="black" fill="magenta"/>
   </g>
   <g id="cell148">
  <circle cx="506.848" cy="463.66" r="8.14499" stroke-width="0.5" stroke="black" fill="magenta"/>
  <circle cx="506.848" cy="463.66" r="4.92837" stroke-width="0.5" stroke="black" fill="magenta"/>
   </g>
   <g id="cell149">
  <circle cx="574.285" cy="398.664" r="8.3926" stroke-width="0.5" stroke="black" fill="magenta"/>
  <circle cx="574.285" cy="398.664" r="5.04482" stroke-width="0.5" stroke="black" fill="magenta"/>
   </g>
   <g id="cell150">
  <circle cx="411.057" cy="581.223" r="8.34588" stroke-width="0.5" stroke="black" fill="green"/>
  <circle cx="411.057" cy="581.223" r="5.0264" stroke-width="0.5" stroke="black" fill="green"/>
   </g>
   <g id="cell151">
  <circle cx="420.779" cy="529.237" r="8.38753" stroke-width="0.5" stroke="black" fill="green"/>
  <circle cx="420.779" cy="529.237" r="5.04286" stroke-width="0.5" stroke="black" fill="green"/>
   </g>
   <g id="cell152">
  <circle cx="373.252" cy="579.121" r="8.37477" stroke-width="0.5" stroke="black" fill="green"/>
  <circle cx="373.252" cy="579.121" r="5.03838" stroke-width="0.5" stroke="black" fill="green"/>
   </g>
   <g id="cell153">
  <circle cx="560.697" cy="463.382" r="8.38454" stroke-width="0.5" stroke="black" fill="cyan"/>
  <circle cx="560.697" cy="463.382" r="5.04168" stroke-width="0.5" stroke="black" fill="cyan"/>
   </g>
   <g id="cell154">
  <circle cx="386.906" cy="598.585" r="8.36467" stroke-width="0.5" stroke="black" fill="green"/>
  <circle cx="386.906" cy="598.585" r="5.03468" stroke-width="0.5" stroke="black" fill="green"/>
   </g>
   <g id="cell155">
  <circle cx="488.094" cy="582.891" r="8.38291" stroke-width="0.5" stroke="black" fill="green"/>
  <circle cx="488.094" cy="582.891" r="5.04103" stroke-width="0.5" stroke="black" fill="green"/>
   </g>
   <g id="cell156">
  <circle cx="456.006" cy="526.493" r="8.38284" stroke-width="0.5" stroke="black" fill="magenta"/>
  <circle cx="456.006" cy="526.493" r="5.04101" stroke-width="0.5" stroke="black" fill="magenta"/>
   </g>
   <g id="cell157">
  <circle cx="442.815" cy="519.63" r="8.36525" stroke-width="0.5" stroke="black" fill="magenta"/>
  <circle cx="442.815" cy="519.63" r="5.03461" stroke-width="0.5" stroke="black" fill="magenta"/>
   </g>
   <g id="cell158">
  <circle cx="565.733" cy="411.446" r="8.37064" stroke-width="0.5" stroke="black" fill="green"/>
  <circle cx="565.733" cy="411.446" r="5.03686" stroke-width="0.5" stroke="black" fill="green"/>
   </g>
   <g id="cell159">
  <circle cx="530.377" cy="397.059" r="7.92015" stroke-width="0.5" stroke="black" fill="green"/>
  <circle cx="530.377" cy="397.059" r="4.81692" stroke-width="0.5" stroke="black" fill="green"/>
   </g>
   <g id="cell160">
  <circle cx="464.304" cy="375.295" r="8.37418" stroke-width="0.5" stroke="black" fill="green"/>
  <circle cx="464.304" cy="375.295" r="5.03766" stroke-width="0.5" stroke="black" fill="green"/>
   </g>
   <g id="cell165">
  <circle cx="608.064" cy="526.439" r="8.01124" stroke-width="0.5" stroke="black" fill="magenta"/>
  <circle cx="608.064" cy="526.439" r="4.86019" stroke-width="0.5" stroke="black" fill="magenta"/>
   </g>
   <g id="cell166">
  <circle cx="480.458" cy="458.391" r="8.34073" stroke-width="0.5" stroke="black" fill="magenta"/>
  <circle cx="480.458" cy="458.391" r="5.02316" stroke-width="0.5" stroke="black" fill="magenta"/>
   </g>
   <g id="cell167">
  <circle cx="421.524" cy="392.619" r="8.33257" stroke-width="0.5" stroke="black" fill="green"/>
  <circle cx="421.524" cy="392.619" r="5.01941" stroke-width="0.5" stroke="black" fill="green"/>
   </g>
   <g id="cell170">
  <circle cx="460.256" cy="503.274" r="8.31491" stroke-width="0.5" stroke="black" fill="green"/>
  <circle cx="460.256" cy="503.274" r="5.01133" stroke-width="0.5" stroke="black" fill="green"/>
   </g>
   <g id="cell171">
  <circle cx="600.523" cy="480.016" r="8.29667" stroke-width="0.5" stroke="black" fill="cyan"/>
  <circle cx="600.523" cy="480.016" r="5.00279" stroke-width="0.5" stroke="black" fill="cyan"/>
   </g>
   <g id="cell172">
  <circle cx="550.612" cy="502.065" r="8.19756" stroke-width="0.5" stroke="black" fill="magenta"/>
  <circle cx="550.612" cy="502.065" r="4.95868" stroke-width="0.5" stroke="black" fill="magenta"/>
   </g>
   <g id="cell173">
  <circle cx="530.747" cy="520.86" r="8.27962" stroke-width="0.5" stroke="black" fill="cyan"/>
  <circle cx="530.747" cy="520.86" r="4.99521" stroke-width="0.5" stroke="black" fill="cyan"/>
   </g>
   <g id="cell174">
  <circle cx="497.109" cy="442.083" r="6.68104" stroke-width="0.5" stroke="black" fill="cyan"/>
  <circle cx="497.109" cy="442.083" r="4.044" stroke-width="0.5" stroke="black" fill="cyan"/>
   </g>
   <g id="cell175">
  <circle cx="524.528" cy="607.124" r="7.74879" stroke-width="0.5" stroke="black" fill="green"/>
  <circle cx="524.528" cy="607.124" r="4.72638" stroke-width="0.5" stroke="black" fill="green"/>
   </g>
   <g id="cell176">
  <circle cx="557.372" cy="424.819" r="8.25328" stroke-width="0.5" stroke="black" fill="green"/>
  <circle cx="557.372" cy="424.819" r="4.98474" stroke-width="0.5" stroke="black" fill="green"/>
   </g>
   <g id="cell177">
  <circle cx="369.167" cy="564.171" r="8.15235" stroke-width="0.5" stroke="black" fill="cyan"/>
  <circle cx="369.167" cy="564.171" r="4.93641" stroke-width="0.5" stroke="black" fill="cyan"/>
   </g>
   <g id="cell178">
  <circle cx="562.293" cy="508.547" r="7.03408" stroke-width="0.5" stroke="black" fill="magenta"/>
  <circle cx="562.293" cy="508.547" r="4.29509" stroke-width="0.5" stroke="black" fill="magenta"/>
   </g>
   <g id="cell179">
  <circle cx="515.97" cy="517.162" r="8.2576" stroke-width="0.5" stroke="black" fill="cyan"/>
  <circle cx="515.97" cy="517.162" r="4.98412" stroke-width="0.5" stroke="black" fill="cyan"/>
   </g>
   <g id="cell180">
  <circle cx="619.865" cy="503.777" r="8.24914" stroke-width="0.5" stroke="black" fill="green"/>
  <circle cx="619.865" cy="503.777" r="4.97981" stroke-width="0.5" stroke="black" fill="green"/>
   </g>
   <g id="cell181">
  <circle cx="563.162" cy="528.837" r="3.81086" stroke-width="0.5" stroke="black" fill="cyan"/>
  <circle cx="563.162" cy="528.837" r="2.79934" stroke-width="0.5" stroke="black" fill="black"/>
   </g>
   <g id="cell182">
  <circle cx="533.844" cy="382.136" r="8.22156" stroke-width="0.5" stroke="black" fill="green"/>
  <circle cx="533.844" cy="382.136" r="4.96931" stroke-width="0.5" stroke="black" fill="green"/>
   </g>
   <g id="cell183">
  <circle cx="576.053" cy="511.595" r="8.23948" stroke-width="0.5" stroke="black" fill="magenta"/>
  <circle cx="576.053" cy="511.595" r="4.97503" stroke-width="0.5" stroke="black" fill="magenta"/>
   </g>
   <g id="cell184">
  <circle cx="432.295" cy="430.256" r="7.95408" stroke-width="0.5" stroke="black" fill="magenta"/>
  <circle cx="432.295" cy="430.256" r="4.83464" stroke-width="0.5" stroke="black" fill="magenta"/>
   </g>
   <g id="cell187">
  <circle cx="499.102" cy="497.223" r="8.20684" stroke-width="0.5" stroke="black" fill="cyan"/>
  <circle cx="499.102" cy="497.223" r="4.95866" stroke-width="0.5" stroke="black" fill="cyan"/>
   </g>
   <g id="cell188">
  <circle cx="533.946" cy="618.61" r="8.09903" stroke-width="0.5" stroke="black" fill="green"/>
  <circle cx="533.946" cy="618.61" r="4.90925" stroke-width="0.5" stroke="black" fill="green"/>
   </g>
   <g id="cell189">
  <circle cx="535.15" cy="475.758" r="8.15752" stroke-width="0.5" stroke="black" fill="cyan"/>
  <circle cx="535.15" cy="475.758" r="4.93403" stroke-width="0.5" stroke="black" fill="cyan"/>
   </g>
   <g id="cell190">
  <circle cx="546.48" cy="528.222" r="8.03656" stroke-width="0.5" stroke="black" fill="cyan"/>
  <circle cx="546.48" cy="528.222" r="4.88063" stroke-width="0.5" stroke="black" fill="cyan"/>
   </g>
   <g id="cell191">
  <circle cx="503.22" cy="477.633" r="8.14499" stroke-width="0.5" stroke="black" fill="magenta"/>
  <circle cx="503.22" cy="477.633" r="4.92837" stroke-width="0.5" stroke="black" fill="magenta"/>
   </g>
   <g id="cell192">
  <circle cx="474.485" cy="433.012" r="8.07518" stroke-width="0.5" stroke="black" fill="magenta"/>
  <circle cx="474.485" cy="433.012" r="4.89008" stroke-width="0.5" stroke="black" fill="magenta"/>
   </g>
   <g id="cell193">
  <circle cx="438.757" cy="417.419" r="7.95408" stroke-width="0.5" stroke="black" fill="magenta"/>
  <circle cx="438.757" cy="417.419" r="4.83464" stroke-width="0.5" stroke="black" fill="magenta"/>
   </g>
   <g id="cell194">
  <circle cx="601.44" cy="513.662" r="8.01124" stroke-width="0.5" stroke="black" fill="magenta"/>
  <circle cx="601.44" cy="513.662" r="4.86019" stroke-width="0.5" stroke="black" fill="magenta"/>
   </g>
   <g id="cell195">
  <circle cx="543.977" cy="394.04" r="7.92015" stroke-width="0.5" stroke="black" fill="green"/>
  <circle cx="543.977" cy="394.04" r="4.81692" stroke-width="0.5" stroke="black" fill="green"/>
   </g>
   <g id="cell196">
  <circle cx="459.887" cy="435.306" r="8.01265" stroke-width="0.5" stroke="black" fill="cyan"/>
  <circle cx="459.887" cy="435.306" r="4.85581" stroke-width="0.5" stroke="black" fill="cyan"/>
   </g>
   <g id="cell197">
  <circle cx="549.396" cy="618.289" r="7.99995" stroke-width="0.5" stroke="black" fill="green"/>
  <circle cx="549.396" cy="618.289" r="4.84909" stroke-width="0.5" stroke="black" fill="green"/>
   </g>
   <g id="cell198">
  <circle cx="424.778" cy="418.332" r="7.83127" stroke-width="0.5" stroke="black" fill="magenta"/>
  <circle cx="424.778" cy="418.332" r="4.76724" stroke-width="0.5" stroke="black" fill="magenta"/>
   </g>
   <g id="cell199">
  <circle cx="534.914" cy="596.891" r="7.74879" stroke-width="0.5" stroke="black" fill="green"/>
  <circle cx="534.914" cy="596.891" r="4.72638" stroke-width="0.5" stroke="black" fill="green"/>
   </g>
   <g id="cell200">
  <circle cx="446.362" cy="429.669" r="7.85026" stroke-width="0.5" stroke="black" fill="magenta"/>
  <circle cx="446.362" cy="429.669" r="4.76783" stroke-width="0.5" stroke="black" fill="magenta"/>
   </g>
   <g id="cell202">
  <circle cx="402.843" cy="607.155" r="7.75912" stroke-width="0.5" stroke="black" fill="cyan"/>
  <circle cx="402.843" cy="607.155" r="4.71248" stroke-width="0.5" stroke="black" fill="cyan"/>
   </g>
   <g id="cell203">
  <circle cx="359.568" cy="537.05" r="7.65919" stroke-width="0.5" stroke="black" fill="cyan"/>
  <circle cx="359.568" cy="537.05" r="4.66605" stroke-width="0.5" stroke="black" fill="cyan"/>
   </g>
   <g id="cell204">
  <circle cx="572.965" cy="488.201" r="7.66584" stroke-width="0.5" stroke="black" fill="magenta"/>
  <circle cx="572.965" cy="488.201" r="4.66925" stroke-width="0.5" stroke="black" fill="magenta"/>
   </g>
   <g id="cell205">
  <circle cx="427.387" cy="477.542" r="7.59158" stroke-width="0.5" stroke="black" fill="green"/>
  <circle cx="427.387" cy="477.542" r="4.61393" stroke-width="0.5" stroke="black" fill="green"/>
   </g>
   <g id="cell206">
  <circle cx="465.547" cy="623.925" r="7.44242" stroke-width="0.5" stroke="black" fill="magenta"/>
  <circle cx="465.547" cy="623.925" r="4.52373" stroke-width="0.5" stroke="black" fill="magenta"/>
   </g>
   <g id="cell207">
  <circle cx="622.417" cy="469.87" r="7.41349" stroke-width="0.5" stroke="black" fill="green"/>
  <circle cx="622.417" cy="469.87" r="4.50663" stroke-width="0.5" stroke="black" fill="green"/>
   </g>
   <g id="cell208">
  <circle cx="588.362" cy="554.28" r="7.23553" stroke-width="0.5" stroke="black" fill="cyan"/>
  <circle cx="588.362" cy="554.28" r="4.41691" stroke-width="0.5" stroke="black" fill="cyan"/>
   </g>
   <g id="cell209">
  <circle cx="441.501" cy="351.032" r="7.26942" stroke-width="0.5" stroke="black" fill="green"/>
  <circle cx="441.501" cy="351.032" r="4.41741" stroke-width="0.5" stroke="black" fill="green"/>
   </g>
   <g id="cell210">
  <circle cx="655.411" cy="538.635" r="7.27248" stroke-width="0.5" stroke="black" fill="green"/>
  <circle cx="655.411" cy="538.635" r="4.41834" stroke-width="0.5" stroke="black" fill="green"/>
   </g>
   <g id="cell213">
  <circle cx="557.633" cy="383.827" r="5.49403" stroke-width="0.5" stroke="black" fill="green"/>
  <circle cx="557.633" cy="383.827" r="3.32697" stroke-width="0.5" stroke="black" fill="green"/>
   </g>
   <g id="cell214">
  <circle cx="501.642" cy="431.618" r="6.68104" stroke-width="0.5" stroke="black" fill="cyan"/>
  <circle cx="501.642" cy="431.618" r="4.044" stroke-width="0.5" stroke="black" fill="cyan"/>
   </g>
   <g id="cell215">
  <circle cx="434.569" cy="530.061" r="6.7453" stroke-width="0.5" stroke="black" fill="magenta"/>
  <circle cx="434.569" cy="530.061" r="4.07386" stroke-width="0.5" stroke="black" fill="magenta"/>
   </g>
   <g id="cell216">
  <circle cx="541.651" cy="579.198" r="6.69528" stroke-width="0.5" stroke="black" fill="green"/>
  <circle cx="541.651" cy="579.198" r="4.03614" stroke-width="0.5" stroke="black" fill="green"/>
   </g>
   <g id="cell217">
  <circle cx="547.742" cy="383.092" r="5.49403" stroke-width="0.5" stroke="black" fill="green"/>
  <circle cx="547.742" cy="383.092" r="3.32697" stroke-width="0.5" stroke="black" fill="green"/>
   </g>
  </g>
 </g>
  <rect x="775" y="1035" width="200" height="10" stroke-width="2" stroke="rgb(255,255,255)" fill="rgb(0,0,0)"/>
  <text x="781.25" y="1028.75"
   font-family="Arial" font-size="25" fill="black" >
   200 &#956;m
  </text>
  <text x="25" y="1045"
   font-family="Arial" font-size="18.75" fill="black" >
   0 days, 0 hours, 0 minutes, and 48.8410 seconds
  </text>
  <rect x="0" y="70" width="1000" height="1000" stroke-width="2" stroke="rgb(0,0,0)" fill="none"/>
</svg>
