<?xml version="1.0" encoding="UTF-8" standalone="no"?>
<!-- Created with PhysiCell (http://PhysiCell.MathCancer.org/) -->
<svg 
 xmlns:dc="http://purl.org/dc/elements/1.1/" 
 xmlns:cc="http://creativecommons.org/ns#" 
 xmlns:rdf="http://www.w3.org/1999/02/22-rdf-syntax-ns#" 
 xmlns:svg="http://www.w3.org/2000/svg" 
 xmlns="http://www.w3.org/2000/svg" 
 version="1.1" 
 width="1000" 
 height="1070" 
 id="svg2">
  <rect x="0" y="0" width="1000" height="1070" stroke-width="2" stroke="white" fill="white"/>
  <text x="12.5" y="30"
   font-family="Arial" font-size="25" fill="black" >
   Current time: 0 days, 17 hours, and 0.00 minutes, z = 0.00 &#956;m
  </text>
  <text x="12.5" y="57.5"
   font-family="Arial" font-size="23.75" fill="black" >
   125 agents
  </text>
 <g id="tissue" 
    transform="translate(0,1070) scale(1,-1)">
  <g id="ECM">
  </g>
  <g id="cells">
   <g id="cell0">
  <circle cx="510.556" cy="537.506" r="8.37092" stroke-width="0.5" stroke="black" fill="magenta"/>
  <circle cx="510.556" cy="537.506" r="5.03613" stroke-width="0.5" stroke="black" fill="magenta"/>
   </g>
   <g id="cell1">
  <circle cx="601.1" cy="520.514" r="8.41271" stroke-width="0.5" stroke="black" fill="magenta"/>
  <circle cx="601.1" cy="520.514" r="5.05167" stroke-width="0.5" stroke="black" fill="magenta"/>
   </g>
   <g id="cell2">
  <circle cx="512.22" cy="598.486" r="7.38188" stroke-width="0.5" stroke="black" fill="magenta"/>
  <circle cx="512.22" cy="598.486" r="4.49812" stroke-width="0.5" stroke="black" fill="magenta"/>
   </g>
   <g id="cell3">
  <circle cx="525.074" cy="541.675" r="8.41271" stroke-width="0.5" stroke="black" fill="magenta"/>
  <circle cx="525.074" cy="541.675" r="5.05167" stroke-width="0.5" stroke="black" fill="magenta"/>
   </g>
   <g id="cell4">
  <circle cx="480.834" cy="438.547" r="8.41271" stroke-width="0.5" stroke="black" fill="magenta"/>
  <circle cx="480.834" cy="438.547" r="5.05167" stroke-width="0.5" stroke="black" fill="magenta"/>
   </g>
   <g id="cell5">
  <circle cx="454.435" cy="497.624" r="7.03758" stroke-width="0.5" stroke="black" fill="magenta"/>
  <circle cx="454.435" cy="497.624" r="4.27154" stroke-width="0.5" stroke="black" fill="magenta"/>
   </g>
   <g id="cell6">
  <circle cx="589.946" cy="511.359" r="7.1497" stroke-width="0.5" stroke="black" fill="magenta"/>
  <circle cx="589.946" cy="511.359" r="4.34001" stroke-width="0.5" stroke="black" fill="magenta"/>
   </g>
   <g id="cell7">
  <circle cx="510.64" cy="467.486" r="8.41271" stroke-width="0.5" stroke="black" fill="magenta"/>
  <circle cx="510.64" cy="467.486" r="5.05167" stroke-width="0.5" stroke="black" fill="magenta"/>
   </g>
   <g id="cell8">
  <circle cx="384.037" cy="539.428" r="7.51692" stroke-width="0.5" stroke="black" fill="magenta"/>
  <circle cx="384.037" cy="539.428" r="4.57487" stroke-width="0.5" stroke="black" fill="magenta"/>
   </g>
   <g id="cell9">
  <circle cx="460.472" cy="599.786" r="8.41271" stroke-width="0.5" stroke="black" fill="magenta"/>
  <circle cx="460.472" cy="599.786" r="5.05167" stroke-width="0.5" stroke="black" fill="magenta"/>
   </g>
   <g id="cell10">
  <circle cx="583.447" cy="392.105" r="8.41271" stroke-width="0.5" stroke="black" fill="magenta"/>
  <circle cx="583.447" cy="392.105" r="5.05167" stroke-width="0.5" stroke="black" fill="magenta"/>
   </g>
   <g id="cell11">
  <circle cx="589.748" cy="590.273" r="8.41271" stroke-width="0.5" stroke="black" fill="magenta"/>
  <circle cx="589.748" cy="590.273" r="5.05167" stroke-width="0.5" stroke="black" fill="magenta"/>
   </g>
   <g id="cell12">
  <circle cx="502.125" cy="591.341" r="6.80762" stroke-width="0.5" stroke="black" fill="magenta"/>
  <circle cx="502.125" cy="591.341" r="4.16422" stroke-width="0.5" stroke="black" fill="magenta"/>
   </g>
   <g id="cell13">
  <circle cx="381.118" cy="565.764" r="8.41271" stroke-width="0.5" stroke="black" fill="magenta"/>
  <circle cx="381.118" cy="565.764" r="5.05167" stroke-width="0.5" stroke="black" fill="magenta"/>
   </g>
   <g id="cell14">
  <circle cx="531.373" cy="400.034" r="8.41271" stroke-width="0.5" stroke="black" fill="magenta"/>
  <circle cx="531.373" cy="400.034" r="5.05167" stroke-width="0.5" stroke="black" fill="magenta"/>
   </g>
   <g id="cell15">
  <circle cx="378.693" cy="473.84" r="8.41271" stroke-width="0.5" stroke="black" fill="magenta"/>
  <circle cx="378.693" cy="473.84" r="5.05167" stroke-width="0.5" stroke="black" fill="magenta"/>
   </g>
   <g id="cell16">
  <circle cx="428.961" cy="413.199" r="8.41271" stroke-width="0.5" stroke="black" fill="magenta"/>
  <circle cx="428.961" cy="413.199" r="5.05167" stroke-width="0.5" stroke="black" fill="magenta"/>
   </g>
   <g id="cell17">
  <circle cx="591.418" cy="497.547" r="8.1609" stroke-width="0.5" stroke="black" fill="magenta"/>
  <circle cx="591.418" cy="497.547" r="4.93506" stroke-width="0.5" stroke="black" fill="magenta"/>
   </g>
   <g id="cell18">
  <circle cx="519.363" cy="390.816" r="8.41271" stroke-width="0.5" stroke="black" fill="magenta"/>
  <circle cx="519.363" cy="390.816" r="5.05167" stroke-width="0.5" stroke="black" fill="magenta"/>
   </g>
   <g id="cell19">
  <circle cx="451.991" cy="536.582" r="8.41271" stroke-width="0.5" stroke="black" fill="magenta"/>
  <circle cx="451.991" cy="536.582" r="5.05167" stroke-width="0.5" stroke="black" fill="magenta"/>
   </g>
   <g id="cell20">
  <circle cx="528.549" cy="414.909" r="8.41271" stroke-width="0.5" stroke="black" fill="magenta"/>
  <circle cx="528.549" cy="414.909" r="5.05167" stroke-width="0.5" stroke="black" fill="magenta"/>
   </g>
   <g id="cell21">
  <circle cx="464.368" cy="634.574" r="8.41271" stroke-width="0.5" stroke="black" fill="magenta"/>
  <circle cx="464.368" cy="634.574" r="5.05167" stroke-width="0.5" stroke="black" fill="magenta"/>
   </g>
   <g id="cell22">
  <circle cx="561.711" cy="497.237" r="8.3926" stroke-width="0.5" stroke="black" fill="magenta"/>
  <circle cx="561.711" cy="497.237" r="5.04482" stroke-width="0.5" stroke="black" fill="magenta"/>
   </g>
   <g id="cell23">
  <circle cx="533.292" cy="485.251" r="8.41271" stroke-width="0.5" stroke="black" fill="magenta"/>
  <circle cx="533.292" cy="485.251" r="5.05167" stroke-width="0.5" stroke="black" fill="magenta"/>
   </g>
   <g id="cell24">
  <circle cx="556.447" cy="383.292" r="8.41271" stroke-width="0.5" stroke="black" fill="magenta"/>
  <circle cx="556.447" cy="383.292" r="5.05167" stroke-width="0.5" stroke="black" fill="magenta"/>
   </g>
   <g id="cell25">
  <circle cx="640.943" cy="550.03" r="8.41271" stroke-width="0.5" stroke="black" fill="green"/>
  <circle cx="640.943" cy="550.03" r="5.05167" stroke-width="0.5" stroke="black" fill="green"/>
   </g>
   <g id="cell26">
  <circle cx="545.865" cy="394.594" r="8.29667" stroke-width="0.5" stroke="black" fill="green"/>
  <circle cx="545.865" cy="394.594" r="5.00279" stroke-width="0.5" stroke="black" fill="green"/>
   </g>
   <g id="cell27">
  <circle cx="454.583" cy="382.854" r="6.51609" stroke-width="0.5" stroke="black" fill="green"/>
  <circle cx="454.583" cy="382.854" r="3.95914" stroke-width="0.5" stroke="black" fill="green"/>
   </g>
   <g id="cell28">
  <circle cx="437.414" cy="531.024" r="8.41271" stroke-width="0.5" stroke="black" fill="green"/>
  <circle cx="437.414" cy="531.024" r="5.05167" stroke-width="0.5" stroke="black" fill="green"/>
   </g>
   <g id="cell29">
  <circle cx="450.003" cy="521.109" r="8.41271" stroke-width="0.5" stroke="black" fill="green"/>
  <circle cx="450.003" cy="521.109" r="5.05167" stroke-width="0.5" stroke="black" fill="green"/>
   </g>
   <g id="cell127">
  <circle cx="392.518" cy="559.903" r="6.03572" stroke-width="0.5" stroke="black" fill="magenta"/>
  <circle cx="392.518" cy="559.903" r="3.68001" stroke-width="0.5" stroke="black" fill="magenta"/>
   </g>
   <g id="cell31">
  <circle cx="412.757" cy="541.193" r="8.41271" stroke-width="0.5" stroke="black" fill="green"/>
  <circle cx="412.757" cy="541.193" r="5.05167" stroke-width="0.5" stroke="black" fill="green"/>
   </g>
   <g id="cell122">
  <circle cx="571.791" cy="489.562" r="6.16886" stroke-width="0.5" stroke="black" fill="magenta"/>
  <circle cx="571.791" cy="489.562" r="3.79039" stroke-width="0.5" stroke="black" fill="magenta"/>
   </g>
   <g id="cell33">
  <circle cx="491.797" cy="419.614" r="7.30216" stroke-width="0.5" stroke="black" fill="green"/>
  <circle cx="491.797" cy="419.614" r="4.43696" stroke-width="0.5" stroke="black" fill="green"/>
   </g>
   <g id="cell34">
  <circle cx="402.171" cy="449.907" r="7.61469" stroke-width="0.5" stroke="black" fill="green"/>
  <circle cx="402.171" cy="449.907" r="4.62762" stroke-width="0.5" stroke="black" fill="green"/>
   </g>
   <g id="cell35">
  <circle cx="553.428" cy="552.797" r="8.3937" stroke-width="0.5" stroke="black" fill="green"/>
  <circle cx="553.428" cy="552.797" r="5.04523" stroke-width="0.5" stroke="black" fill="green"/>
   </g>
   <g id="cell36">
  <circle cx="390.174" cy="579.568" r="8.41271" stroke-width="0.5" stroke="black" fill="green"/>
  <circle cx="390.174" cy="579.568" r="5.05167" stroke-width="0.5" stroke="black" fill="green"/>
   </g>
   <g id="cell37">
  <circle cx="633.075" cy="454.728" r="8.34117" stroke-width="0.5" stroke="black" fill="green"/>
  <circle cx="633.075" cy="454.728" r="5.02327" stroke-width="0.5" stroke="black" fill="green"/>
   </g>
   <g id="cell38">
  <circle cx="536.597" cy="601.586" r="8.41271" stroke-width="0.5" stroke="black" fill="green"/>
  <circle cx="536.597" cy="601.586" r="5.05167" stroke-width="0.5" stroke="black" fill="green"/>
   </g>
   <g id="cell39">
  <circle cx="613.132" cy="499.018" r="7.88584" stroke-width="0.5" stroke="black" fill="green"/>
  <circle cx="613.132" cy="499.018" r="4.79976" stroke-width="0.5" stroke="black" fill="green"/>
   </g>
   <g id="cell40">
  <circle cx="486.461" cy="573.776" r="8.38682" stroke-width="0.5" stroke="black" fill="green"/>
  <circle cx="486.461" cy="573.776" r="5.04258" stroke-width="0.5" stroke="black" fill="green"/>
   </g>
   <g id="cell41">
  <circle cx="370.946" cy="487.311" r="8.34317" stroke-width="0.5" stroke="black" fill="green"/>
  <circle cx="370.946" cy="487.311" r="5.02416" stroke-width="0.5" stroke="black" fill="green"/>
   </g>
   <g id="cell42">
  <circle cx="440.454" cy="494.609" r="8.41271" stroke-width="0.5" stroke="black" fill="green"/>
  <circle cx="440.454" cy="494.609" r="5.05167" stroke-width="0.5" stroke="black" fill="green"/>
   </g>
   <g id="cell43">
  <circle cx="554.709" cy="437.202" r="8.37935" stroke-width="0.5" stroke="black" fill="green"/>
  <circle cx="554.709" cy="437.202" r="5.0396" stroke-width="0.5" stroke="black" fill="green"/>
   </g>
   <g id="cell44">
  <circle cx="475.857" cy="624.021" r="8.41271" stroke-width="0.5" stroke="black" fill="green"/>
  <circle cx="475.857" cy="624.021" r="5.05167" stroke-width="0.5" stroke="black" fill="green"/>
   </g>
   <g id="cell45">
  <circle cx="414.953" cy="557.066" r="8.41271" stroke-width="0.5" stroke="black" fill="green"/>
  <circle cx="414.953" cy="557.066" r="5.05167" stroke-width="0.5" stroke="black" fill="green"/>
   </g>
   <g id="cell46">
  <circle cx="522.201" cy="608.703" r="8.41271" stroke-width="0.5" stroke="black" fill="green"/>
  <circle cx="522.201" cy="608.703" r="5.05167" stroke-width="0.5" stroke="black" fill="green"/>
   </g>
   <g id="cell47">
  <circle cx="504.444" cy="502.076" r="8.38891" stroke-width="0.5" stroke="black" fill="green"/>
  <circle cx="504.444" cy="502.076" r="5.0434" stroke-width="0.5" stroke="black" fill="green"/>
   </g>
   <g id="cell48">
  <circle cx="564.494" cy="602.808" r="8.41271" stroke-width="0.5" stroke="black" fill="green"/>
  <circle cx="564.494" cy="602.808" r="5.05167" stroke-width="0.5" stroke="black" fill="green"/>
   </g>
   <g id="cell49">
  <circle cx="429.92" cy="397.616" r="8.41271" stroke-width="0.5" stroke="black" fill="green"/>
  <circle cx="429.92" cy="397.616" r="5.05167" stroke-width="0.5" stroke="black" fill="green"/>
   </g>
   <g id="cell50">
  <circle cx="516.987" cy="511.942" r="8.41271" stroke-width="0.5" stroke="black" fill="cyan"/>
  <circle cx="516.987" cy="511.942" r="5.05167" stroke-width="0.5" stroke="black" fill="cyan"/>
   </g>
   <g id="cell51">
  <circle cx="397.342" cy="594.365" r="8.41271" stroke-width="0.5" stroke="black" fill="cyan"/>
  <circle cx="397.342" cy="594.365" r="5.05167" stroke-width="0.5" stroke="black" fill="cyan"/>
   </g>
   <g id="cell108">
  <circle cx="336.284" cy="545.199" r="7.92201" stroke-width="0.5" stroke="black" fill="cyan"/>
  <circle cx="336.284" cy="545.199" r="4.81035" stroke-width="0.5" stroke="black" fill="cyan"/>
   </g>
   <g id="cell53">
  <circle cx="570.811" cy="437.416" r="8.41271" stroke-width="0.5" stroke="black" fill="cyan"/>
  <circle cx="570.811" cy="437.416" r="5.05167" stroke-width="0.5" stroke="black" fill="cyan"/>
   </g>
   <g id="cell54">
  <circle cx="477.379" cy="423.367" r="8.41271" stroke-width="0.5" stroke="black" fill="cyan"/>
  <circle cx="477.379" cy="423.367" r="5.05167" stroke-width="0.5" stroke="black" fill="cyan"/>
   </g>
   <g id="cell55">
  <circle cx="524.78" cy="472.775" r="7.89373" stroke-width="0.5" stroke="black" fill="cyan"/>
  <circle cx="524.78" cy="472.775" r="4.78957" stroke-width="0.5" stroke="black" fill="cyan"/>
   </g>
   <g id="cell56">
  <circle cx="616.82" cy="522.344" r="8.41271" stroke-width="0.5" stroke="black" fill="cyan"/>
  <circle cx="616.82" cy="522.344" r="5.05167" stroke-width="0.5" stroke="black" fill="cyan"/>
   </g>
   <g id="cell57">
  <circle cx="416.924" cy="617.466" r="8.41271" stroke-width="0.5" stroke="black" fill="cyan"/>
  <circle cx="416.924" cy="617.466" r="5.05167" stroke-width="0.5" stroke="black" fill="cyan"/>
   </g>
   <g id="cell58">
  <circle cx="545.793" cy="476.121" r="8.41271" stroke-width="0.5" stroke="black" fill="cyan"/>
  <circle cx="545.793" cy="476.121" r="5.05167" stroke-width="0.5" stroke="black" fill="cyan"/>
   </g>
   <g id="cell59">
  <circle cx="385.169" cy="438.655" r="8.41271" stroke-width="0.5" stroke="black" fill="cyan"/>
  <circle cx="385.169" cy="438.655" r="5.05167" stroke-width="0.5" stroke="black" fill="cyan"/>
   </g>
   <g id="cell60">
  <circle cx="596.026" cy="473.014" r="8.41271" stroke-width="0.5" stroke="black" fill="cyan"/>
  <circle cx="596.026" cy="473.014" r="5.05167" stroke-width="0.5" stroke="black" fill="cyan"/>
   </g>
   <g id="cell61">
  <circle cx="552.794" cy="613.759" r="8.41271" stroke-width="0.5" stroke="black" fill="cyan"/>
  <circle cx="552.794" cy="613.759" r="5.05167" stroke-width="0.5" stroke="black" fill="cyan"/>
   </g>
   <g id="cell62">
  <circle cx="526.744" cy="443.157" r="8.41271" stroke-width="0.5" stroke="black" fill="cyan"/>
  <circle cx="526.744" cy="443.157" r="5.05167" stroke-width="0.5" stroke="black" fill="cyan"/>
   </g>
   <g id="cell63">
  <circle cx="593.383" cy="553.025" r="8.17715" stroke-width="0.5" stroke="black" fill="cyan"/>
  <circle cx="593.383" cy="553.025" r="4.94605" stroke-width="0.5" stroke="black" fill="cyan"/>
   </g>
   <g id="cell64">
  <circle cx="509.962" cy="636.825" r="8.41271" stroke-width="0.5" stroke="black" fill="cyan"/>
  <circle cx="509.962" cy="636.825" r="5.05167" stroke-width="0.5" stroke="black" fill="cyan"/>
   </g>
   <g id="cell65">
  <circle cx="536.476" cy="462.832" r="8.41271" stroke-width="0.5" stroke="black" fill="cyan"/>
  <circle cx="536.476" cy="462.832" r="5.05167" stroke-width="0.5" stroke="black" fill="cyan"/>
   </g>
   <g id="cell66">
  <circle cx="551.277" cy="535.321" r="8.34511" stroke-width="0.5" stroke="black" fill="cyan"/>
  <circle cx="551.277" cy="535.321" r="5.02502" stroke-width="0.5" stroke="black" fill="cyan"/>
   </g>
   <g id="cell67">
  <circle cx="357.768" cy="496.312" r="8.39144" stroke-width="0.5" stroke="black" fill="cyan"/>
  <circle cx="357.768" cy="496.312" r="5.04437" stroke-width="0.5" stroke="black" fill="cyan"/>
   </g>
   <g id="cell68">
  <circle cx="568.713" cy="557.493" r="8.41271" stroke-width="0.5" stroke="black" fill="cyan"/>
  <circle cx="568.713" cy="557.493" r="5.05167" stroke-width="0.5" stroke="black" fill="cyan"/>
   </g>
   <g id="cell69">
  <circle cx="433.507" cy="460.279" r="5.11056" stroke-width="0.5" stroke="black" fill="cyan"/>
  <circle cx="433.507" cy="460.279" r="3.14722" stroke-width="0.5" stroke="black" fill="cyan"/>
   </g>
   <g id="cell70">
  <circle cx="583.884" cy="483.877" r="8.23948" stroke-width="0.5" stroke="black" fill="cyan"/>
  <circle cx="583.884" cy="483.877" r="4.97503" stroke-width="0.5" stroke="black" fill="cyan"/>
   </g>
   <g id="cell71">
  <circle cx="373.55" cy="513.951" r="8.2092" stroke-width="0.5" stroke="black" fill="cyan"/>
  <circle cx="373.55" cy="513.951" r="4.96407" stroke-width="0.5" stroke="black" fill="cyan"/>
   </g>
   <g id="cell72">
  <circle cx="532.318" cy="515.982" r="8.39523" stroke-width="0.5" stroke="black" fill="cyan"/>
  <circle cx="532.318" cy="515.982" r="5.04581" stroke-width="0.5" stroke="black" fill="cyan"/>
   </g>
   <g id="cell73">
  <circle cx="347.562" cy="555.155" r="7.92201" stroke-width="0.5" stroke="black" fill="cyan"/>
  <circle cx="347.562" cy="555.155" r="4.81035" stroke-width="0.5" stroke="black" fill="cyan"/>
   </g>
   <g id="cell74">
  <circle cx="542.296" cy="447.627" r="8.41271" stroke-width="0.5" stroke="black" fill="cyan"/>
  <circle cx="542.296" cy="447.627" r="5.05167" stroke-width="0.5" stroke="black" fill="cyan"/>
   </g>
   <g id="cell75">
  <circle cx="534.24" cy="500.48" r="8.39523" stroke-width="0.5" stroke="black" fill="cyan"/>
  <circle cx="534.24" cy="500.48" r="5.04581" stroke-width="0.5" stroke="black" fill="cyan"/>
   </g>
   <g id="cell76">
  <circle cx="529.175" cy="556.339" r="7.9659" stroke-width="0.5" stroke="black" fill="green"/>
  <circle cx="529.175" cy="556.339" r="4.83216" stroke-width="0.5" stroke="black" fill="green"/>
   </g>
   <g id="cell77">
  <circle cx="547.374" cy="491.589" r="8.3926" stroke-width="0.5" stroke="black" fill="magenta"/>
  <circle cx="547.374" cy="491.589" r="5.04482" stroke-width="0.5" stroke="black" fill="magenta"/>
   </g>
   <g id="cell78">
  <circle cx="343.49" cy="489.073" r="8.39144" stroke-width="0.5" stroke="black" fill="cyan"/>
  <circle cx="343.49" cy="489.073" r="5.04437" stroke-width="0.5" stroke="black" fill="cyan"/>
   </g>
   <g id="cell79">
  <circle cx="488.732" cy="504.903" r="8.38891" stroke-width="0.5" stroke="black" fill="green"/>
  <circle cx="488.732" cy="504.903" r="5.0434" stroke-width="0.5" stroke="black" fill="green"/>
   </g>
   <g id="cell80">
  <circle cx="472.72" cy="484.896" r="8.38891" stroke-width="0.5" stroke="black" fill="magenta"/>
  <circle cx="472.72" cy="484.896" r="5.0434" stroke-width="0.5" stroke="black" fill="magenta"/>
   </g>
   <g id="cell81">
  <circle cx="480.469" cy="559.102" r="8.38682" stroke-width="0.5" stroke="black" fill="green"/>
  <circle cx="480.469" cy="559.102" r="5.04258" stroke-width="0.5" stroke="black" fill="green"/>
   </g>
   <g id="cell82">
  <circle cx="575.113" cy="531.201" r="8.01702" stroke-width="0.5" stroke="black" fill="cyan"/>
  <circle cx="575.113" cy="531.201" r="4.8614" stroke-width="0.5" stroke="black" fill="cyan"/>
   </g>
   <g id="cell83">
  <circle cx="562.651" cy="450.795" r="8.17715" stroke-width="0.5" stroke="black" fill="green"/>
  <circle cx="562.651" cy="450.795" r="4.94605" stroke-width="0.5" stroke="black" fill="green"/>
   </g>
   <g id="cell84">
  <circle cx="521.292" cy="526.96" r="8.37092" stroke-width="0.5" stroke="black" fill="magenta"/>
  <circle cx="521.292" cy="526.96" r="5.03613" stroke-width="0.5" stroke="black" fill="magenta"/>
   </g>
   <g id="cell85">
  <circle cx="374.941" cy="550.777" r="8.36849" stroke-width="0.5" stroke="black" fill="magenta"/>
  <circle cx="374.941" cy="550.777" r="5.03512" stroke-width="0.5" stroke="black" fill="magenta"/>
   </g>
   <g id="cell86">
  <circle cx="602.909" cy="487.433" r="8.36592" stroke-width="0.5" stroke="black" fill="green"/>
  <circle cx="602.909" cy="487.433" r="5.03403" stroke-width="0.5" stroke="black" fill="green"/>
   </g>
   <g id="cell87">
  <circle cx="359.873" cy="545.945" r="8.36178" stroke-width="0.5" stroke="black" fill="cyan"/>
  <circle cx="359.873" cy="545.945" r="5.03227" stroke-width="0.5" stroke="black" fill="cyan"/>
   </g>
   <g id="cell88">
  <circle cx="536.212" cy="530.974" r="8.34511" stroke-width="0.5" stroke="black" fill="cyan"/>
  <circle cx="536.212" cy="530.974" r="5.02502" stroke-width="0.5" stroke="black" fill="cyan"/>
   </g>
   <g id="cell89">
  <circle cx="364.774" cy="467.348" r="8.16443" stroke-width="0.5" stroke="black" fill="green"/>
  <circle cx="364.774" cy="467.348" r="4.94111" stroke-width="0.5" stroke="black" fill="green"/>
   </g>
   <g id="cell90">
  <circle cx="637.709" cy="469.92" r="8.34117" stroke-width="0.5" stroke="black" fill="green"/>
  <circle cx="637.709" cy="469.92" r="5.02327" stroke-width="0.5" stroke="black" fill="green"/>
   </g>
   <g id="cell91">
  <circle cx="383.659" cy="525.38" r="8.1902" stroke-width="0.5" stroke="black" fill="cyan"/>
  <circle cx="383.659" cy="525.38" r="4.95471" stroke-width="0.5" stroke="black" fill="cyan"/>
   </g>
   <g id="cell92">
  <circle cx="506.531" cy="611.2" r="8.31766" stroke-width="0.5" stroke="black" fill="magenta"/>
  <circle cx="506.531" cy="611.2" r="5.0126" stroke-width="0.5" stroke="black" fill="magenta"/>
   </g>
   <g id="cell93">
  <circle cx="555.387" cy="407.191" r="8.29667" stroke-width="0.5" stroke="black" fill="green"/>
  <circle cx="555.387" cy="407.191" r="5.00279" stroke-width="0.5" stroke="black" fill="green"/>
   </g>
   <g id="cell94">
  <circle cx="389.178" cy="511.129" r="8.2092" stroke-width="0.5" stroke="black" fill="cyan"/>
  <circle cx="389.178" cy="511.129" r="4.96407" stroke-width="0.5" stroke="black" fill="cyan"/>
   </g>
   <g id="cell95">
  <circle cx="370.648" cy="534.959" r="8.1902" stroke-width="0.5" stroke="black" fill="cyan"/>
  <circle cx="370.648" cy="534.959" r="4.95471" stroke-width="0.5" stroke="black" fill="cyan"/>
   </g>
   <g id="cell96">
  <circle cx="579.113" cy="469.032" r="7.79617" stroke-width="0.5" stroke="black" fill="cyan"/>
  <circle cx="579.113" cy="469.032" r="4.74599" stroke-width="0.5" stroke="black" fill="cyan"/>
   </g>
   <g id="cell97">
  <circle cx="356.744" cy="480.607" r="8.16443" stroke-width="0.5" stroke="black" fill="green"/>
  <circle cx="356.744" cy="480.607" r="4.94111" stroke-width="0.5" stroke="black" fill="green"/>
   </g>
   <g id="cell98">
  <circle cx="579.624" cy="545.989" r="8.17715" stroke-width="0.5" stroke="black" fill="cyan"/>
  <circle cx="579.624" cy="545.989" r="4.94605" stroke-width="0.5" stroke="black" fill="cyan"/>
   </g>
   <g id="cell99">
  <circle cx="551.526" cy="461.29" r="8.17715" stroke-width="0.5" stroke="black" fill="green"/>
  <circle cx="551.526" cy="461.29" r="4.94605" stroke-width="0.5" stroke="black" fill="green"/>
   </g>
   <g id="cell100">
  <circle cx="620.942" cy="487.548" r="6.92612" stroke-width="0.5" stroke="black" fill="green"/>
  <circle cx="620.942" cy="487.548" r="4.23051" stroke-width="0.5" stroke="black" fill="green"/>
   </g>
   <g id="cell101">
  <circle cx="577.293" cy="500.752" r="7.89906" stroke-width="0.5" stroke="black" fill="magenta"/>
  <circle cx="577.293" cy="500.752" r="4.80486" stroke-width="0.5" stroke="black" fill="magenta"/>
   </g>
   <g id="cell102">
  <circle cx="465.543" cy="391.284" r="8.06667" stroke-width="0.5" stroke="black" fill="green"/>
  <circle cx="465.543" cy="391.284" r="4.88515" stroke-width="0.5" stroke="black" fill="green"/>
   </g>
   <g id="cell103">
  <circle cx="564.864" cy="542.38" r="8.01702" stroke-width="0.5" stroke="black" fill="cyan"/>
  <circle cx="564.864" cy="542.38" r="4.8614" stroke-width="0.5" stroke="black" fill="cyan"/>
   </g>
   <g id="cell104">
  <circle cx="627.995" cy="499.716" r="7.88584" stroke-width="0.5" stroke="black" fill="green"/>
  <circle cx="627.995" cy="499.716" r="4.79976" stroke-width="0.5" stroke="black" fill="green"/>
   </g>
   <g id="cell105">
  <circle cx="571.129" cy="479.005" r="6.16886" stroke-width="0.5" stroke="black" fill="magenta"/>
  <circle cx="571.129" cy="479.005" r="3.79039" stroke-width="0.5" stroke="black" fill="magenta"/>
   </g>
   <g id="cell106">
  <circle cx="539.769" cy="545.75" r="7.9659" stroke-width="0.5" stroke="black" fill="green"/>
  <circle cx="539.769" cy="545.75" r="4.83216" stroke-width="0.5" stroke="black" fill="green"/>
   </g>
   <g id="cell107">
  <circle cx="513.781" cy="584.814" r="7.96365" stroke-width="0.5" stroke="black" fill="magenta"/>
  <circle cx="513.781" cy="584.814" r="4.82873" stroke-width="0.5" stroke="black" fill="magenta"/>
   </g>
   <g id="cell109">
  <circle cx="522.137" cy="457.882" r="7.89373" stroke-width="0.5" stroke="black" fill="cyan"/>
  <circle cx="522.137" cy="457.882" r="4.78957" stroke-width="0.5" stroke="black" fill="cyan"/>
   </g>
   <g id="cell110">
  <circle cx="564.109" cy="468.778" r="7.79617" stroke-width="0.5" stroke="black" fill="cyan"/>
  <circle cx="564.109" cy="468.778" r="4.74599" stroke-width="0.5" stroke="black" fill="cyan"/>
   </g>
   <g id="cell111">
  <circle cx="559.324" cy="482.967" r="7.52253" stroke-width="0.5" stroke="black" fill="magenta"/>
  <circle cx="559.324" cy="482.967" r="4.60329" stroke-width="0.5" stroke="black" fill="magenta"/>
   </g>
   <g id="cell112">
  <circle cx="388.19" cy="453.592" r="7.61469" stroke-width="0.5" stroke="black" fill="green"/>
  <circle cx="388.19" cy="453.592" r="4.62762" stroke-width="0.5" stroke="black" fill="green"/>
   </g>
   <g id="cell113">
  <circle cx="387.76" cy="550.543" r="6.03572" stroke-width="0.5" stroke="black" fill="magenta"/>
  <circle cx="387.76" cy="550.543" r="3.68001" stroke-width="0.5" stroke="black" fill="magenta"/>
   </g>
   <g id="cell114">
  <circle cx="524.384" cy="593.778" r="7.38188" stroke-width="0.5" stroke="black" fill="magenta"/>
  <circle cx="524.384" cy="593.778" r="4.49812" stroke-width="0.5" stroke="black" fill="magenta"/>
   </g>
   <g id="cell115">
  <circle cx="497.392" cy="430.737" r="5.9335" stroke-width="0.5" stroke="black" fill="green"/>
  <circle cx="497.392" cy="430.737" r="3.61943" stroke-width="0.5" stroke="black" fill="green"/>
   </g>
   <g id="cell116">
  <circle cx="440.742" cy="473.321" r="7.18097" stroke-width="0.5" stroke="black" fill="cyan"/>
  <circle cx="440.742" cy="473.321" r="4.36015" stroke-width="0.5" stroke="black" fill="cyan"/>
   </g>
   <g id="cell117">
  <circle cx="601.796" cy="506.65" r="7.1497" stroke-width="0.5" stroke="black" fill="magenta"/>
  <circle cx="601.796" cy="506.65" r="4.34001" stroke-width="0.5" stroke="black" fill="magenta"/>
   </g>
   <g id="cell118">
  <circle cx="613.107" cy="477.086" r="6.92612" stroke-width="0.5" stroke="black" fill="green"/>
  <circle cx="613.107" cy="477.086" r="4.23051" stroke-width="0.5" stroke="black" fill="green"/>
   </g>
   <g id="cell119">
  <circle cx="494.343" cy="583.779" r="5.56087" stroke-width="0.5" stroke="black" fill="magenta"/>
  <circle cx="494.343" cy="583.779" r="3.41445" stroke-width="0.5" stroke="black" fill="magenta"/>
   </g>
   <g id="cell120">
  <circle cx="467.061" cy="497.547" r="7.03758" stroke-width="0.5" stroke="black" fill="magenta"/>
  <circle cx="467.061" cy="497.547" r="4.27154" stroke-width="0.5" stroke="black" fill="magenta"/>
   </g>
   <g id="cell121">
  <circle cx="444.049" cy="461.059" r="6.20169" stroke-width="0.5" stroke="black" fill="cyan"/>
  <circle cx="444.049" cy="461.059" r="3.80253" stroke-width="0.5" stroke="black" fill="cyan"/>
   </g>
   <g id="cell123">
  <circle cx="424.445" cy="457.261" r="5.11056" stroke-width="0.5" stroke="black" fill="cyan"/>
  <circle cx="424.445" cy="457.261" r="3.14722" stroke-width="0.5" stroke="black" fill="cyan"/>
   </g>
   <g id="cell124">
  <circle cx="445.137" cy="390.842" r="6.51609" stroke-width="0.5" stroke="black" fill="green"/>
  <circle cx="445.137" cy="390.842" r="3.95914" stroke-width="0.5" stroke="black" fill="green"/>
   </g>
   <g id="cell125">
  <circle cx="493.75" cy="441.278" r="5.9335" stroke-width="0.5" stroke="black" fill="green"/>
  <circle cx="493.75" cy="441.278" r="3.61943" stroke-width="0.5" stroke="black" fill="green"/>
   </g>
   <g id="cell126">
  <circle cx="484.847" cy="586.712" r="5.56087" stroke-width="0.5" stroke="black" fill="magenta"/>
  <circle cx="484.847" cy="586.712" r="3.41445" stroke-width="0.5" stroke="black" fill="magenta"/>
   </g>
  </g>
 </g>
  <rect x="775" y="1035" width="200" height="10" stroke-width="2" stroke="rgb(255,255,255)" fill="rgb(0,0,0)"/>
  <text x="781.25" y="1028.75"
   font-family="Arial" font-size="25" fill="black" >
   200 &#956;m
  </text>
  <text x="25" y="1045"
   font-family="Arial" font-size="18.75" fill="black" >
   0 days, 0 hours, 0 minutes, and 18.1167 seconds
  </text>
  <rect x="0" y="70" width="1000" height="1000" stroke-width="2" stroke="rgb(0,0,0)" fill="none"/>
</svg>
