<?xml version="1.0" encoding="UTF-8" standalone="no"?>
<!-- Created with PhysiCell (http://PhysiCell.MathCancer.org/) -->
<svg 
 xmlns:dc="http://purl.org/dc/elements/1.1/" 
 xmlns:cc="http://creativecommons.org/ns#" 
 xmlns:rdf="http://www.w3.org/1999/02/22-rdf-syntax-ns#" 
 xmlns:svg="http://www.w3.org/2000/svg" 
 xmlns="http://www.w3.org/2000/svg" 
 version="1.1" 
 width="1000" 
 height="1070" 
 id="svg2">
  <rect x="0" y="0" width="1000" height="1070" stroke-width="2" stroke="white" fill="white"/>
  <text x="12.5" y="30"
   font-family="Arial" font-size="25" fill="black" >
   Current time: 0 days, 2 hours, and 45.00 minutes, z = 0.00 &#956;m
  </text>
  <text x="12.5" y="57.5"
   font-family="Arial" font-size="23.75" fill="black" >
   82 agents
  </text>
 <g id="tissue" 
    transform="translate(0,1070) scale(1,-1)">
  <g id="ECM">
  </g>
  <g id="cells">
   <g id="cell0">
  <circle cx="514.174" cy="529.788" r="8.41271" stroke-width="0.5" stroke="black" fill="magenta"/>
  <circle cx="514.174" cy="529.788" r="5.05167" stroke-width="0.5" stroke="black" fill="magenta"/>
   </g>
   <g id="cell1">
  <circle cx="604.157" cy="529.895" r="8.41271" stroke-width="0.5" stroke="black" fill="magenta"/>
  <circle cx="604.157" cy="529.895" r="5.05167" stroke-width="0.5" stroke="black" fill="magenta"/>
   </g>
   <g id="cell2">
  <circle cx="510.886" cy="600.602" r="8.41271" stroke-width="0.5" stroke="black" fill="magenta"/>
  <circle cx="510.886" cy="600.602" r="5.05167" stroke-width="0.5" stroke="black" fill="magenta"/>
   </g>
   <g id="cell3">
  <circle cx="532.791" cy="545.485" r="8.41271" stroke-width="0.5" stroke="black" fill="magenta"/>
  <circle cx="532.791" cy="545.485" r="5.05167" stroke-width="0.5" stroke="black" fill="magenta"/>
   </g>
   <g id="cell4">
  <circle cx="486.327" cy="437.049" r="7.02257" stroke-width="0.5" stroke="black" fill="magenta"/>
  <circle cx="486.327" cy="437.049" r="4.25644" stroke-width="0.5" stroke="black" fill="magenta"/>
   </g>
   <g id="cell5">
  <circle cx="465.032" cy="493.3" r="8.41271" stroke-width="0.5" stroke="black" fill="magenta"/>
  <circle cx="465.032" cy="493.3" r="5.05167" stroke-width="0.5" stroke="black" fill="magenta"/>
   </g>
   <g id="cell6">
  <circle cx="593.81" cy="508.994" r="8.41271" stroke-width="0.5" stroke="black" fill="magenta"/>
  <circle cx="593.81" cy="508.994" r="5.05167" stroke-width="0.5" stroke="black" fill="magenta"/>
   </g>
   <g id="cell7">
  <circle cx="510.484" cy="462.381" r="8.41271" stroke-width="0.5" stroke="black" fill="magenta"/>
  <circle cx="510.484" cy="462.381" r="5.05167" stroke-width="0.5" stroke="black" fill="magenta"/>
   </g>
   <g id="cell8">
  <circle cx="375.891" cy="544.521" r="8.41271" stroke-width="0.5" stroke="black" fill="magenta"/>
  <circle cx="375.891" cy="544.521" r="5.05167" stroke-width="0.5" stroke="black" fill="magenta"/>
   </g>
   <g id="cell9">
  <circle cx="460.472" cy="599.786" r="8.41271" stroke-width="0.5" stroke="black" fill="magenta"/>
  <circle cx="460.472" cy="599.786" r="5.05167" stroke-width="0.5" stroke="black" fill="magenta"/>
   </g>
   <g id="cell10">
  <circle cx="583.447" cy="392.105" r="8.41271" stroke-width="0.5" stroke="black" fill="magenta"/>
  <circle cx="583.447" cy="392.105" r="5.05167" stroke-width="0.5" stroke="black" fill="magenta"/>
   </g>
   <g id="cell11">
  <circle cx="589.748" cy="590.273" r="8.41271" stroke-width="0.5" stroke="black" fill="magenta"/>
  <circle cx="589.748" cy="590.273" r="5.05167" stroke-width="0.5" stroke="black" fill="magenta"/>
   </g>
   <g id="cell12">
  <circle cx="506.664" cy="586.059" r="8.41271" stroke-width="0.5" stroke="black" fill="magenta"/>
  <circle cx="506.664" cy="586.059" r="5.05167" stroke-width="0.5" stroke="black" fill="magenta"/>
   </g>
   <g id="cell13">
  <circle cx="386.191" cy="568.222" r="8.41271" stroke-width="0.5" stroke="black" fill="magenta"/>
  <circle cx="386.191" cy="568.222" r="5.05167" stroke-width="0.5" stroke="black" fill="magenta"/>
   </g>
   <g id="cell14">
  <circle cx="528.537" cy="399.229" r="8.41271" stroke-width="0.5" stroke="black" fill="magenta"/>
  <circle cx="528.537" cy="399.229" r="5.05167" stroke-width="0.5" stroke="black" fill="magenta"/>
   </g>
   <g id="cell15">
  <circle cx="379.652" cy="475.099" r="8.41271" stroke-width="0.5" stroke="black" fill="magenta"/>
  <circle cx="379.652" cy="475.099" r="5.05167" stroke-width="0.5" stroke="black" fill="magenta"/>
   </g>
   <g id="cell16">
  <circle cx="428.96" cy="413.217" r="8.41271" stroke-width="0.5" stroke="black" fill="magenta"/>
  <circle cx="428.96" cy="413.217" r="5.05167" stroke-width="0.5" stroke="black" fill="magenta"/>
   </g>
   <g id="cell17">
  <circle cx="571.658" cy="489.839" r="8.41271" stroke-width="0.5" stroke="black" fill="magenta"/>
  <circle cx="571.658" cy="489.839" r="5.05167" stroke-width="0.5" stroke="black" fill="magenta"/>
   </g>
   <g id="cell18">
  <circle cx="517.391" cy="388.91" r="8.41271" stroke-width="0.5" stroke="black" fill="magenta"/>
  <circle cx="517.391" cy="388.91" r="5.05167" stroke-width="0.5" stroke="black" fill="magenta"/>
   </g>
   <g id="cell19">
  <circle cx="451.917" cy="537.322" r="8.41271" stroke-width="0.5" stroke="black" fill="magenta"/>
  <circle cx="451.917" cy="537.322" r="5.05167" stroke-width="0.5" stroke="black" fill="magenta"/>
   </g>
   <g id="cell20">
  <circle cx="530.958" cy="414.243" r="8.41271" stroke-width="0.5" stroke="black" fill="magenta"/>
  <circle cx="530.958" cy="414.243" r="5.05167" stroke-width="0.5" stroke="black" fill="magenta"/>
   </g>
   <g id="cell21">
  <circle cx="464.368" cy="634.574" r="8.41271" stroke-width="0.5" stroke="black" fill="magenta"/>
  <circle cx="464.368" cy="634.574" r="5.05167" stroke-width="0.5" stroke="black" fill="magenta"/>
   </g>
   <g id="cell22">
  <circle cx="557.206" cy="494.343" r="8.41271" stroke-width="0.5" stroke="black" fill="magenta"/>
  <circle cx="557.206" cy="494.343" r="5.05167" stroke-width="0.5" stroke="black" fill="magenta"/>
   </g>
   <g id="cell23">
  <circle cx="537.305" cy="480.535" r="8.41271" stroke-width="0.5" stroke="black" fill="magenta"/>
  <circle cx="537.305" cy="480.535" r="5.05167" stroke-width="0.5" stroke="black" fill="magenta"/>
   </g>
   <g id="cell24">
  <circle cx="559.288" cy="379.788" r="8.41271" stroke-width="0.5" stroke="black" fill="magenta"/>
  <circle cx="559.288" cy="379.788" r="5.05167" stroke-width="0.5" stroke="black" fill="magenta"/>
   </g>
   <g id="cell25">
  <circle cx="640.943" cy="550.03" r="8.41271" stroke-width="0.5" stroke="black" fill="green"/>
  <circle cx="640.943" cy="550.03" r="5.05167" stroke-width="0.5" stroke="black" fill="green"/>
   </g>
   <g id="cell26">
  <circle cx="551.164" cy="401.264" r="8.41271" stroke-width="0.5" stroke="black" fill="green"/>
  <circle cx="551.164" cy="401.264" r="5.05167" stroke-width="0.5" stroke="black" fill="green"/>
   </g>
   <g id="cell27">
  <circle cx="461.79" cy="390.32" r="7.08639" stroke-width="0.5" stroke="black" fill="green"/>
  <circle cx="461.79" cy="390.32" r="4.29876" stroke-width="0.5" stroke="black" fill="green"/>
   </g>
   <g id="cell28">
  <circle cx="437.783" cy="530.943" r="8.41271" stroke-width="0.5" stroke="black" fill="green"/>
  <circle cx="437.783" cy="530.943" r="5.05167" stroke-width="0.5" stroke="black" fill="green"/>
   </g>
   <g id="cell29">
  <circle cx="449.708" cy="520.45" r="8.41271" stroke-width="0.5" stroke="black" fill="green"/>
  <circle cx="449.708" cy="520.45" r="5.05167" stroke-width="0.5" stroke="black" fill="green"/>
   </g>
   <g id="cell30">
  <circle cx="481.58" cy="540.282" r="8.41271" stroke-width="0.5" stroke="black" fill="green"/>
  <circle cx="481.58" cy="540.282" r="5.05167" stroke-width="0.5" stroke="black" fill="green"/>
   </g>
   <g id="cell31">
  <circle cx="412.757" cy="541.193" r="8.41271" stroke-width="0.5" stroke="black" fill="green"/>
  <circle cx="412.757" cy="541.193" r="5.05167" stroke-width="0.5" stroke="black" fill="green"/>
   </g>
   <g id="cell32">
  <circle cx="425.371" cy="474.829" r="8.41271" stroke-width="0.5" stroke="black" fill="green"/>
  <circle cx="425.371" cy="474.829" r="5.05167" stroke-width="0.5" stroke="black" fill="green"/>
   </g>
   <g id="cell33">
  <circle cx="493.798" cy="424.848" r="8.41271" stroke-width="0.5" stroke="black" fill="green"/>
  <circle cx="493.798" cy="424.848" r="5.05167" stroke-width="0.5" stroke="black" fill="green"/>
   </g>
   <g id="cell34">
  <circle cx="397.088" cy="450.831" r="8.41271" stroke-width="0.5" stroke="black" fill="green"/>
  <circle cx="397.088" cy="450.831" r="5.05167" stroke-width="0.5" stroke="black" fill="green"/>
   </g>
   <g id="cell35">
  <circle cx="548.374" cy="544.702" r="8.41271" stroke-width="0.5" stroke="black" fill="green"/>
  <circle cx="548.374" cy="544.702" r="5.05167" stroke-width="0.5" stroke="black" fill="green"/>
   </g>
   <g id="cell36">
  <circle cx="391.484" cy="582.902" r="8.41271" stroke-width="0.5" stroke="black" fill="green"/>
  <circle cx="391.484" cy="582.902" r="5.05167" stroke-width="0.5" stroke="black" fill="green"/>
   </g>
   <g id="cell37">
  <circle cx="638.473" cy="457.898" r="6.92764" stroke-width="0.5" stroke="black" fill="green"/>
  <circle cx="638.473" cy="457.898" r="4.1918" stroke-width="0.5" stroke="black" fill="green"/>
   </g>
   <g id="cell38">
  <circle cx="532.841" cy="598.831" r="6.75639" stroke-width="0.5" stroke="black" fill="green"/>
  <circle cx="532.841" cy="598.831" r="4.06813" stroke-width="0.5" stroke="black" fill="green"/>
   </g>
   <g id="cell39">
  <circle cx="613.458" cy="490.595" r="8.41271" stroke-width="0.5" stroke="black" fill="green"/>
  <circle cx="613.458" cy="490.595" r="5.05167" stroke-width="0.5" stroke="black" fill="green"/>
   </g>
   <g id="cell40">
  <circle cx="485.348" cy="571.779" r="8.41271" stroke-width="0.5" stroke="black" fill="green"/>
  <circle cx="485.348" cy="571.779" r="5.05167" stroke-width="0.5" stroke="black" fill="green"/>
   </g>
   <g id="cell41">
  <circle cx="364.925" cy="480.251" r="8.41271" stroke-width="0.5" stroke="black" fill="green"/>
  <circle cx="364.925" cy="480.251" r="5.05167" stroke-width="0.5" stroke="black" fill="green"/>
   </g>
   <g id="cell42">
  <circle cx="438.842" cy="494.268" r="8.41271" stroke-width="0.5" stroke="black" fill="green"/>
  <circle cx="438.842" cy="494.268" r="5.05167" stroke-width="0.5" stroke="black" fill="green"/>
   </g>
   <g id="cell43">
  <circle cx="558.505" cy="445.707" r="8.41271" stroke-width="0.5" stroke="black" fill="green"/>
  <circle cx="558.505" cy="445.707" r="5.05167" stroke-width="0.5" stroke="black" fill="green"/>
   </g>
   <g id="cell44">
  <circle cx="475.857" cy="624.021" r="8.41271" stroke-width="0.5" stroke="black" fill="green"/>
  <circle cx="475.857" cy="624.021" r="5.05167" stroke-width="0.5" stroke="black" fill="green"/>
   </g>
   <g id="cell45">
  <circle cx="414.953" cy="557.066" r="8.41271" stroke-width="0.5" stroke="black" fill="green"/>
  <circle cx="414.953" cy="557.066" r="5.05167" stroke-width="0.5" stroke="black" fill="green"/>
   </g>
   <g id="cell46">
  <circle cx="522.936" cy="610.512" r="8.41271" stroke-width="0.5" stroke="black" fill="green"/>
  <circle cx="522.936" cy="610.512" r="5.05167" stroke-width="0.5" stroke="black" fill="green"/>
   </g>
   <g id="cell47">
  <circle cx="504.008" cy="507.636" r="8.41271" stroke-width="0.5" stroke="black" fill="green"/>
  <circle cx="504.008" cy="507.636" r="5.05167" stroke-width="0.5" stroke="black" fill="green"/>
   </g>
   <g id="cell48">
  <circle cx="564.502" cy="602.8" r="8.41271" stroke-width="0.5" stroke="black" fill="green"/>
  <circle cx="564.502" cy="602.8" r="5.05167" stroke-width="0.5" stroke="black" fill="green"/>
   </g>
   <g id="cell49">
  <circle cx="429.826" cy="397.641" r="8.41271" stroke-width="0.5" stroke="black" fill="green"/>
  <circle cx="429.826" cy="397.641" r="5.05167" stroke-width="0.5" stroke="black" fill="green"/>
   </g>
   <g id="cell50">
  <circle cx="518.404" cy="514.767" r="8.41271" stroke-width="0.5" stroke="black" fill="cyan"/>
  <circle cx="518.404" cy="514.767" r="5.05167" stroke-width="0.5" stroke="black" fill="cyan"/>
   </g>
   <g id="cell51">
  <circle cx="398.724" cy="597.208" r="8.41271" stroke-width="0.5" stroke="black" fill="cyan"/>
  <circle cx="398.724" cy="597.208" r="5.05167" stroke-width="0.5" stroke="black" fill="cyan"/>
   </g>
   <g id="cell52">
  <circle cx="521.505" cy="426.738" r="8.41271" stroke-width="0.5" stroke="black" fill="cyan"/>
  <circle cx="521.505" cy="426.738" r="5.05167" stroke-width="0.5" stroke="black" fill="cyan"/>
   </g>
   <g id="cell53">
  <circle cx="571.256" cy="436.028" r="8.41271" stroke-width="0.5" stroke="black" fill="cyan"/>
  <circle cx="571.256" cy="436.028" r="5.05167" stroke-width="0.5" stroke="black" fill="cyan"/>
   </g>
   <g id="cell54">
  <circle cx="477.81" cy="425.523" r="8.41271" stroke-width="0.5" stroke="black" fill="cyan"/>
  <circle cx="477.81" cy="425.523" r="5.05167" stroke-width="0.5" stroke="black" fill="cyan"/>
   </g>
   <g id="cell55">
  <circle cx="530.443" cy="468.315" r="6.80881" stroke-width="0.5" stroke="black" fill="cyan"/>
  <circle cx="530.443" cy="468.315" r="4.10709" stroke-width="0.5" stroke="black" fill="cyan"/>
   </g>
   <g id="cell56">
  <circle cx="617.774" cy="522.285" r="8.41271" stroke-width="0.5" stroke="black" fill="cyan"/>
  <circle cx="617.774" cy="522.285" r="5.05167" stroke-width="0.5" stroke="black" fill="cyan"/>
   </g>
   <g id="cell57">
  <circle cx="416.924" cy="617.466" r="2.97674" stroke-width="0.5" stroke="black" fill="cyan"/>
  <circle cx="416.924" cy="617.466" r="2.45592" stroke-width="0.5" stroke="black" fill="black"/>
   </g>
   <g id="cell58">
  <circle cx="552.836" cy="479.524" r="8.41271" stroke-width="0.5" stroke="black" fill="cyan"/>
  <circle cx="552.836" cy="479.524" r="5.05167" stroke-width="0.5" stroke="black" fill="cyan"/>
   </g>
   <g id="cell59">
  <circle cx="385.463" cy="439.803" r="8.41271" stroke-width="0.5" stroke="black" fill="cyan"/>
  <circle cx="385.463" cy="439.803" r="5.05167" stroke-width="0.5" stroke="black" fill="cyan"/>
   </g>
   <g id="cell60">
  <circle cx="593.092" cy="473.647" r="8.41271" stroke-width="0.5" stroke="black" fill="cyan"/>
  <circle cx="593.092" cy="473.647" r="5.05167" stroke-width="0.5" stroke="black" fill="cyan"/>
   </g>
   <g id="cell61">
  <circle cx="552.849" cy="613.88" r="8.41271" stroke-width="0.5" stroke="black" fill="cyan"/>
  <circle cx="552.849" cy="613.88" r="5.05167" stroke-width="0.5" stroke="black" fill="cyan"/>
   </g>
   <g id="cell62">
  <circle cx="522.297" cy="449.661" r="7.11815" stroke-width="0.5" stroke="black" fill="cyan"/>
  <circle cx="522.297" cy="449.661" r="4.31954" stroke-width="0.5" stroke="black" fill="cyan"/>
   </g>
   <g id="cell63">
  <circle cx="577.874" cy="546.417" r="8.41271" stroke-width="0.5" stroke="black" fill="cyan"/>
  <circle cx="577.874" cy="546.417" r="5.05167" stroke-width="0.5" stroke="black" fill="cyan"/>
   </g>
   <g id="cell64">
  <circle cx="509.962" cy="636.825" r="8.41271" stroke-width="0.5" stroke="black" fill="cyan"/>
  <circle cx="509.962" cy="636.825" r="5.05167" stroke-width="0.5" stroke="black" fill="cyan"/>
   </g>
   <g id="cell65">
  <circle cx="544.422" cy="466.242" r="8.41271" stroke-width="0.5" stroke="black" fill="cyan"/>
  <circle cx="544.422" cy="466.242" r="5.05167" stroke-width="0.5" stroke="black" fill="cyan"/>
   </g>
   <g id="cell66">
  <circle cx="535.234" cy="530.091" r="8.41271" stroke-width="0.5" stroke="black" fill="cyan"/>
  <circle cx="535.234" cy="530.091" r="5.05167" stroke-width="0.5" stroke="black" fill="cyan"/>
   </g>
   <g id="cell67">
  <circle cx="354.71" cy="492.601" r="8.41271" stroke-width="0.5" stroke="black" fill="cyan"/>
  <circle cx="354.71" cy="492.601" r="5.05167" stroke-width="0.5" stroke="black" fill="cyan"/>
   </g>
   <g id="cell68">
  <circle cx="562.77" cy="551.788" r="8.41271" stroke-width="0.5" stroke="black" fill="cyan"/>
  <circle cx="562.77" cy="551.788" r="5.05167" stroke-width="0.5" stroke="black" fill="cyan"/>
   </g>
   <g id="cell69">
  <circle cx="437.64" cy="464.521" r="8.41271" stroke-width="0.5" stroke="black" fill="cyan"/>
  <circle cx="437.64" cy="464.521" r="5.05167" stroke-width="0.5" stroke="black" fill="cyan"/>
   </g>
   <g id="cell70">
  <circle cx="577.148" cy="475.24" r="8.41271" stroke-width="0.5" stroke="black" fill="cyan"/>
  <circle cx="577.148" cy="475.24" r="5.05167" stroke-width="0.5" stroke="black" fill="cyan"/>
   </g>
   <g id="cell71">
  <circle cx="377.712" cy="520.989" r="8.41271" stroke-width="0.5" stroke="black" fill="cyan"/>
  <circle cx="377.712" cy="520.989" r="5.05167" stroke-width="0.5" stroke="black" fill="cyan"/>
   </g>
   <g id="cell72">
  <circle cx="534.454" cy="514.083" r="8.41271" stroke-width="0.5" stroke="black" fill="cyan"/>
  <circle cx="534.454" cy="514.083" r="5.05167" stroke-width="0.5" stroke="black" fill="cyan"/>
   </g>
   <g id="cell73">
  <circle cx="360.355" cy="545.935" r="8.41271" stroke-width="0.5" stroke="black" fill="cyan"/>
  <circle cx="360.355" cy="545.935" r="5.05167" stroke-width="0.5" stroke="black" fill="cyan"/>
   </g>
   <g id="cell74">
  <circle cx="542.549" cy="446.675" r="8.41271" stroke-width="0.5" stroke="black" fill="cyan"/>
  <circle cx="542.549" cy="446.675" r="5.05167" stroke-width="0.5" stroke="black" fill="cyan"/>
   </g>
   <g id="cell75">
  <circle cx="530.234" cy="438.613" r="7.11815" stroke-width="0.5" stroke="black" fill="cyan"/>
  <circle cx="530.234" cy="438.613" r="4.31954" stroke-width="0.5" stroke="black" fill="cyan"/>
   </g>
   <g id="cell76">
  <circle cx="449.239" cy="385.577" r="7.08639" stroke-width="0.5" stroke="black" fill="green"/>
  <circle cx="449.239" cy="385.577" r="4.29876" stroke-width="0.5" stroke="black" fill="green"/>
   </g>
   <g id="cell77">
  <circle cx="473.921" cy="439.296" r="7.02257" stroke-width="0.5" stroke="black" fill="magenta"/>
  <circle cx="473.921" cy="439.296" r="4.25644" stroke-width="0.5" stroke="black" fill="magenta"/>
   </g>
   <g id="cell78">
  <circle cx="628.003" cy="465.804" r="6.92764" stroke-width="0.5" stroke="black" fill="green"/>
  <circle cx="628.003" cy="465.804" r="4.1918" stroke-width="0.5" stroke="black" fill="green"/>
   </g>
   <g id="cell79">
  <circle cx="518.916" cy="473.625" r="6.80881" stroke-width="0.5" stroke="black" fill="cyan"/>
  <circle cx="518.916" cy="473.625" r="4.10709" stroke-width="0.5" stroke="black" fill="cyan"/>
   </g>
   <g id="cell80">
  <circle cx="539.732" cy="611.037" r="5.44826" stroke-width="0.5" stroke="black" fill="green"/>
  <circle cx="539.732" cy="611.037" r="3.29113" stroke-width="0.5" stroke="black" fill="green"/>
   </g>
   <g id="cell81">
  <circle cx="544.085" cy="601.774" r="5.44826" stroke-width="0.5" stroke="black" fill="green"/>
  <circle cx="544.085" cy="601.774" r="3.29113" stroke-width="0.5" stroke="black" fill="green"/>
   </g>
  </g>
 </g>
  <rect x="775" y="1035" width="200" height="10" stroke-width="2" stroke="rgb(255,255,255)" fill="rgb(0,0,0)"/>
  <text x="781.25" y="1028.75"
   font-family="Arial" font-size="25" fill="black" >
   200 &#956;m
  </text>
  <text x="25" y="1045"
   font-family="Arial" font-size="18.75" fill="black" >
   0 days, 0 hours, 0 minutes, and 3.0630 seconds
  </text>
  <rect x="0" y="70" width="1000" height="1000" stroke-width="2" stroke="rgb(0,0,0)" fill="none"/>
</svg>
