<?xml version="1.0" encoding="UTF-8" standalone="no"?>
<!-- Created with PhysiCell (http://PhysiCell.MathCancer.org/) -->
<svg 
 xmlns:dc="http://purl.org/dc/elements/1.1/" 
 xmlns:cc="http://creativecommons.org/ns#" 
 xmlns:rdf="http://www.w3.org/1999/02/22-rdf-syntax-ns#" 
 xmlns:svg="http://www.w3.org/2000/svg" 
 xmlns="http://www.w3.org/2000/svg" 
 version="1.1" 
 width="1000" 
 height="1070" 
 id="svg2">
  <rect x="0" y="0" width="1000" height="1070" stroke-width="2" stroke="white" fill="white"/>
  <text x="12.5" y="30"
   font-family="Arial" font-size="25" fill="black" >
   Current time: 1 days, 17 hours, and 33.00 minutes, z = 0.00 &#956;m
  </text>
  <text x="12.5" y="57.5"
   font-family="Arial" font-size="23.75" fill="black" >
   211 agents
  </text>
 <g id="tissue" 
    transform="translate(0,1070) scale(1,-1)">
  <g id="ECM">
  </g>
  <g id="cells">
   <g id="cell0">
  <circle cx="509.059" cy="542.877" r="8.41264" stroke-width="0.5" stroke="black" fill="magenta"/>
  <circle cx="509.059" cy="542.877" r="5.05166" stroke-width="0.5" stroke="black" fill="magenta"/>
   </g>
   <g id="cell1">
  <circle cx="593.338" cy="524.686" r="8.37641" stroke-width="0.5" stroke="black" fill="magenta"/>
  <circle cx="593.338" cy="524.686" r="5.0384" stroke-width="0.5" stroke="black" fill="magenta"/>
   </g>
   <g id="cell2">
  <circle cx="513.142" cy="597.374" r="8.41271" stroke-width="0.5" stroke="black" fill="magenta"/>
  <circle cx="513.142" cy="597.374" r="5.05167" stroke-width="0.5" stroke="black" fill="magenta"/>
   </g>
   <g id="cell3">
  <circle cx="523.816" cy="546.757" r="8.4126" stroke-width="0.5" stroke="black" fill="magenta"/>
  <circle cx="523.816" cy="546.757" r="5.05165" stroke-width="0.5" stroke="black" fill="magenta"/>
   </g>
   <g id="cell4">
  <circle cx="483.356" cy="444.427" r="8.41127" stroke-width="0.5" stroke="black" fill="magenta"/>
  <circle cx="483.356" cy="444.427" r="5.0513" stroke-width="0.5" stroke="black" fill="magenta"/>
   </g>
   <g id="cell5">
  <circle cx="468.645" cy="490.394" r="8.41271" stroke-width="0.5" stroke="black" fill="magenta"/>
  <circle cx="468.645" cy="490.394" r="5.05167" stroke-width="0.5" stroke="black" fill="magenta"/>
   </g>
   <g id="cell163">
  <circle cx="532.097" cy="574.496" r="7.31326" stroke-width="0.5" stroke="black" fill="green"/>
  <circle cx="532.097" cy="574.496" r="4.44844" stroke-width="0.5" stroke="black" fill="green"/>
   </g>
   <g id="cell7">
  <circle cx="495.433" cy="453.787" r="8.37183" stroke-width="0.5" stroke="black" fill="magenta"/>
  <circle cx="495.433" cy="453.787" r="5.03655" stroke-width="0.5" stroke="black" fill="magenta"/>
   </g>
   <g id="cell8">
  <circle cx="378.997" cy="553.043" r="8.38532" stroke-width="0.5" stroke="black" fill="magenta"/>
  <circle cx="378.997" cy="553.043" r="5.04199" stroke-width="0.5" stroke="black" fill="magenta"/>
   </g>
   <g id="cell161">
  <circle cx="452.53" cy="386.514" r="8.37579" stroke-width="0.5" stroke="black" fill="green"/>
  <circle cx="452.53" cy="386.514" r="5.03882" stroke-width="0.5" stroke="black" fill="green"/>
   </g>
   <g id="cell10">
  <circle cx="582.36" cy="389.054" r="5.75405" stroke-width="0.5" stroke="black" fill="magenta"/>
  <circle cx="582.36" cy="389.054" r="3.50917" stroke-width="0.5" stroke="black" fill="magenta"/>
   </g>
   <g id="cell11">
  <circle cx="590.422" cy="592.746" r="8.41271" stroke-width="0.5" stroke="black" fill="magenta"/>
  <circle cx="590.422" cy="592.746" r="5.05167" stroke-width="0.5" stroke="black" fill="magenta"/>
   </g>
   <g id="cell12">
  <circle cx="498.371" cy="594.624" r="8.40873" stroke-width="0.5" stroke="black" fill="magenta"/>
  <circle cx="498.371" cy="594.624" r="5.05054" stroke-width="0.5" stroke="black" fill="magenta"/>
   </g>
   <g id="cell13">
  <circle cx="383.803" cy="567.611" r="8.41271" stroke-width="0.5" stroke="black" fill="magenta"/>
  <circle cx="383.803" cy="567.611" r="5.05167" stroke-width="0.5" stroke="black" fill="magenta"/>
   </g>
   <g id="cell14">
  <circle cx="516.715" cy="404.321" r="8.41271" stroke-width="0.5" stroke="black" fill="magenta"/>
  <circle cx="516.715" cy="404.321" r="5.05167" stroke-width="0.5" stroke="black" fill="magenta"/>
   </g>
   <g id="cell15">
  <circle cx="382.168" cy="478.838" r="8.41049" stroke-width="0.5" stroke="black" fill="magenta"/>
  <circle cx="382.168" cy="478.838" r="5.05108" stroke-width="0.5" stroke="black" fill="magenta"/>
   </g>
   <g id="cell16">
  <circle cx="452.285" cy="417.757" r="8.09771" stroke-width="0.5" stroke="black" fill="magenta"/>
  <circle cx="452.285" cy="417.757" r="4.90328" stroke-width="0.5" stroke="black" fill="magenta"/>
   </g>
   <g id="cell17">
  <circle cx="582.954" cy="498.185" r="8.31491" stroke-width="0.5" stroke="black" fill="magenta"/>
  <circle cx="582.954" cy="498.185" r="5.01133" stroke-width="0.5" stroke="black" fill="magenta"/>
   </g>
   <g id="cell18">
  <circle cx="518.045" cy="389.14" r="8.41271" stroke-width="0.5" stroke="black" fill="magenta"/>
  <circle cx="518.045" cy="389.14" r="5.05167" stroke-width="0.5" stroke="black" fill="magenta"/>
   </g>
   <g id="cell19">
  <circle cx="457.584" cy="541.375" r="8.4122" stroke-width="0.5" stroke="black" fill="magenta"/>
  <circle cx="457.584" cy="541.375" r="5.05155" stroke-width="0.5" stroke="black" fill="magenta"/>
   </g>
   <g id="cell20">
  <circle cx="529.437" cy="412.299" r="8.41271" stroke-width="0.5" stroke="black" fill="magenta"/>
  <circle cx="529.437" cy="412.299" r="5.05167" stroke-width="0.5" stroke="black" fill="magenta"/>
   </g>
   <g id="cell21">
  <circle cx="467.721" cy="637.5" r="7.86286" stroke-width="0.5" stroke="black" fill="magenta"/>
  <circle cx="467.721" cy="637.5" r="4.77207" stroke-width="0.5" stroke="black" fill="magenta"/>
   </g>
   <g id="cell22">
  <circle cx="559.69" cy="488.637" r="7.9962" stroke-width="0.5" stroke="black" fill="magenta"/>
  <circle cx="559.69" cy="488.637" r="4.85243" stroke-width="0.5" stroke="black" fill="magenta"/>
   </g>
   <g id="cell23">
  <circle cx="554.383" cy="475.667" r="8.41271" stroke-width="0.5" stroke="black" fill="magenta"/>
  <circle cx="554.383" cy="475.667" r="5.05167" stroke-width="0.5" stroke="black" fill="magenta"/>
   </g>
   <g id="cell24">
  <circle cx="570.806" cy="384.943" r="8.41271" stroke-width="0.5" stroke="black" fill="magenta"/>
  <circle cx="570.806" cy="384.943" r="5.05167" stroke-width="0.5" stroke="black" fill="magenta"/>
   </g>
   <g id="cell25">
  <circle cx="643.393" cy="546.287" r="7.7591" stroke-width="0.5" stroke="black" fill="green"/>
  <circle cx="643.393" cy="546.287" r="4.71247" stroke-width="0.5" stroke="black" fill="green"/>
   </g>
   <g id="cell26">
  <circle cx="560.201" cy="396.257" r="8.4122" stroke-width="0.5" stroke="black" fill="green"/>
  <circle cx="560.201" cy="396.257" r="5.05155" stroke-width="0.5" stroke="black" fill="green"/>
   </g>
   <g id="cell27">
  <circle cx="461.894" cy="405.84" r="8.41268" stroke-width="0.5" stroke="black" fill="green"/>
  <circle cx="461.894" cy="405.84" r="5.05167" stroke-width="0.5" stroke="black" fill="green"/>
   </g>
   <g id="cell28">
  <circle cx="428.745" cy="543.284" r="8.39834" stroke-width="0.5" stroke="black" fill="green"/>
  <circle cx="428.745" cy="543.284" r="5.04696" stroke-width="0.5" stroke="black" fill="green"/>
   </g>
   <g id="cell220">
  <circle cx="588.727" cy="379.844" r="7.01433" stroke-width="0.5" stroke="black" fill="magenta"/>
  <circle cx="588.727" cy="379.844" r="4.25365" stroke-width="0.5" stroke="black" fill="magenta"/>
   </g>
   <g id="cell30">
  <circle cx="479.281" cy="536.731" r="8.40809" stroke-width="0.5" stroke="black" fill="green"/>
  <circle cx="479.281" cy="536.731" r="5.05034" stroke-width="0.5" stroke="black" fill="green"/>
   </g>
   <g id="cell31">
  <circle cx="412.775" cy="544.36" r="8.41271" stroke-width="0.5" stroke="black" fill="green"/>
  <circle cx="412.775" cy="544.36" r="5.05167" stroke-width="0.5" stroke="black" fill="green"/>
   </g>
   <g id="cell169">
  <circle cx="521.105" cy="502.774" r="8.36586" stroke-width="0.5" stroke="black" fill="cyan"/>
  <circle cx="521.105" cy="502.774" r="5.03402" stroke-width="0.5" stroke="black" fill="cyan"/>
   </g>
   <g id="cell33">
  <circle cx="495.909" cy="415.236" r="8.40731" stroke-width="0.5" stroke="black" fill="green"/>
  <circle cx="495.909" cy="415.236" r="5.05008" stroke-width="0.5" stroke="black" fill="green"/>
   </g>
   <g id="cell168">
  <circle cx="381.479" cy="517.957" r="2.77078" stroke-width="0.5" stroke="black" fill="cyan"/>
  <circle cx="381.479" cy="517.957" r="2.35673" stroke-width="0.5" stroke="black" fill="black"/>
   </g>
   <g id="cell35">
  <circle cx="556.497" cy="558.02" r="8.41271" stroke-width="0.5" stroke="black" fill="green"/>
  <circle cx="556.497" cy="558.02" r="5.05167" stroke-width="0.5" stroke="black" fill="green"/>
   </g>
   <g id="cell36">
  <circle cx="388.866" cy="582.524" r="8.38534" stroke-width="0.5" stroke="black" fill="green"/>
  <circle cx="388.866" cy="582.524" r="5.0426" stroke-width="0.5" stroke="black" fill="green"/>
   </g>
   <g id="cell37">
  <circle cx="642.415" cy="456.422" r="8.41268" stroke-width="0.5" stroke="black" fill="green"/>
  <circle cx="642.415" cy="456.422" r="5.05167" stroke-width="0.5" stroke="black" fill="green"/>
   </g>
   <g id="cell38">
  <circle cx="523.434" cy="586.118" r="8.3853" stroke-width="0.5" stroke="black" fill="green"/>
  <circle cx="523.434" cy="586.118" r="5.04198" stroke-width="0.5" stroke="black" fill="green"/>
   </g>
   <g id="cell39">
  <circle cx="612.703" cy="491.58" r="8.32032" stroke-width="0.5" stroke="black" fill="green"/>
  <circle cx="612.703" cy="491.58" r="5.01383" stroke-width="0.5" stroke="black" fill="green"/>
   </g>
   <g id="cell40">
  <circle cx="486.096" cy="567.407" r="8.39571" stroke-width="0.5" stroke="black" fill="green"/>
  <circle cx="486.096" cy="567.407" r="5.04599" stroke-width="0.5" stroke="black" fill="green"/>
   </g>
   <g id="cell41">
  <circle cx="366.881" cy="481.082" r="8.41271" stroke-width="0.5" stroke="black" fill="green"/>
  <circle cx="366.881" cy="481.082" r="5.05167" stroke-width="0.5" stroke="black" fill="green"/>
   </g>
   <g id="cell42">
  <circle cx="437.079" cy="490.395" r="8.41271" stroke-width="0.5" stroke="black" fill="green"/>
  <circle cx="437.079" cy="490.395" r="5.05167" stroke-width="0.5" stroke="black" fill="green"/>
   </g>
   <g id="cell43">
  <circle cx="565.607" cy="438.052" r="8.41271" stroke-width="0.5" stroke="black" fill="green"/>
  <circle cx="565.607" cy="438.052" r="5.05167" stroke-width="0.5" stroke="black" fill="green"/>
   </g>
   <g id="cell164">
  <circle cx="399.19" cy="570.458" r="8.37471" stroke-width="0.5" stroke="black" fill="green"/>
  <circle cx="399.19" cy="570.458" r="5.03824" stroke-width="0.5" stroke="black" fill="green"/>
   </g>
   <g id="cell145">
  <circle cx="409.463" cy="420.411" r="8.08917" stroke-width="0.5" stroke="black" fill="magenta"/>
  <circle cx="409.463" cy="420.411" r="4.90398" stroke-width="0.5" stroke="black" fill="magenta"/>
   </g>
   <g id="cell46">
  <circle cx="521.512" cy="619.805" r="6.75622" stroke-width="0.5" stroke="black" fill="green"/>
  <circle cx="521.512" cy="619.805" r="4.06809" stroke-width="0.5" stroke="black" fill="green"/>
   </g>
   <g id="cell47">
  <circle cx="484.159" cy="491.057" r="8.41257" stroke-width="0.5" stroke="black" fill="green"/>
  <circle cx="484.159" cy="491.057" r="5.05164" stroke-width="0.5" stroke="black" fill="green"/>
   </g>
   <g id="cell48">
  <circle cx="578.746" cy="603.591" r="8.41219" stroke-width="0.5" stroke="black" fill="green"/>
  <circle cx="578.746" cy="603.591" r="5.05155" stroke-width="0.5" stroke="black" fill="green"/>
   </g>
   <g id="cell49">
  <circle cx="437.14" cy="391.092" r="8.36722" stroke-width="0.5" stroke="black" fill="green"/>
  <circle cx="437.14" cy="391.092" r="5.03458" stroke-width="0.5" stroke="black" fill="green"/>
   </g>
   <g id="cell50">
  <circle cx="500.709" cy="512.89" r="8.41199" stroke-width="0.5" stroke="black" fill="cyan"/>
  <circle cx="500.709" cy="512.89" r="5.0515" stroke-width="0.5" stroke="black" fill="cyan"/>
   </g>
   <g id="cell51">
  <circle cx="401.076" cy="592.22" r="8.04604" stroke-width="0.5" stroke="black" fill="cyan"/>
  <circle cx="401.076" cy="592.22" r="4.87399" stroke-width="0.5" stroke="black" fill="cyan"/>
   </g>
   <g id="cell52">
  <circle cx="518.986" cy="414.548" r="2.84772" stroke-width="0.5" stroke="black" fill="cyan"/>
  <circle cx="518.986" cy="414.548" r="2.39601" stroke-width="0.5" stroke="black" fill="black"/>
   </g>
   <g id="cell53">
  <circle cx="573.462" cy="424.512" r="8.41252" stroke-width="0.5" stroke="black" fill="cyan"/>
  <circle cx="573.462" cy="424.512" r="5.05163" stroke-width="0.5" stroke="black" fill="cyan"/>
   </g>
   <g id="cell54">
  <circle cx="480.281" cy="415.205" r="8.41259" stroke-width="0.5" stroke="black" fill="cyan"/>
  <circle cx="480.281" cy="415.205" r="5.05165" stroke-width="0.5" stroke="black" fill="cyan"/>
   </g>
   <g id="cell55">
  <circle cx="523.26" cy="460.942" r="8.41252" stroke-width="0.5" stroke="black" fill="cyan"/>
  <circle cx="523.26" cy="460.942" r="5.05163" stroke-width="0.5" stroke="black" fill="cyan"/>
   </g>
   <g id="cell56">
  <circle cx="622.399" cy="521.407" r="8.41271" stroke-width="0.5" stroke="black" fill="cyan"/>
  <circle cx="622.399" cy="521.407" r="5.05167" stroke-width="0.5" stroke="black" fill="cyan"/>
   </g>
   <g id="cell105">
  <circle cx="503.282" cy="609.267" r="8.40683" stroke-width="0.5" stroke="black" fill="green"/>
  <circle cx="503.282" cy="609.267" r="5.04997" stroke-width="0.5" stroke="black" fill="green"/>
   </g>
   <g id="cell58">
  <circle cx="570.276" cy="473.162" r="8.39664" stroke-width="0.5" stroke="black" fill="cyan"/>
  <circle cx="570.276" cy="473.162" r="5.04633" stroke-width="0.5" stroke="black" fill="cyan"/>
   </g>
   <g id="cell59">
  <circle cx="385.732" cy="440.058" r="8.41271" stroke-width="0.5" stroke="black" fill="cyan"/>
  <circle cx="385.732" cy="440.058" r="5.05167" stroke-width="0.5" stroke="black" fill="cyan"/>
   </g>
   <g id="cell60">
  <circle cx="598.858" cy="464.536" r="8.347" stroke-width="0.5" stroke="black" fill="cyan"/>
  <circle cx="598.858" cy="464.536" r="5.02586" stroke-width="0.5" stroke="black" fill="cyan"/>
   </g>
   <g id="cell186">
  <circle cx="354.924" cy="562.196" r="2.01929" stroke-width="0.5" stroke="black" fill="cyan"/>
  <circle cx="354.924" cy="562.196" r="1.90119" stroke-width="0.5" stroke="black" fill="black"/>
   </g>
   <g id="cell62">
  <circle cx="514.173" cy="434.259" r="8.33855" stroke-width="0.5" stroke="black" fill="cyan"/>
  <circle cx="514.173" cy="434.259" r="5.02221" stroke-width="0.5" stroke="black" fill="cyan"/>
   </g>
   <g id="cell63">
  <circle cx="584.555" cy="537.316" r="8.41026" stroke-width="0.5" stroke="black" fill="cyan"/>
  <circle cx="584.555" cy="537.316" r="5.05101" stroke-width="0.5" stroke="black" fill="cyan"/>
   </g>
   <g id="cell64">
  <circle cx="509.196" cy="637.546" r="8.41271" stroke-width="0.5" stroke="black" fill="cyan"/>
  <circle cx="509.196" cy="637.546" r="5.05167" stroke-width="0.5" stroke="black" fill="cyan"/>
   </g>
   <g id="cell65">
  <circle cx="544.997" cy="463.97" r="8.41263" stroke-width="0.5" stroke="black" fill="cyan"/>
  <circle cx="544.997" cy="463.97" r="5.05165" stroke-width="0.5" stroke="black" fill="cyan"/>
   </g>
   <g id="cell66">
  <circle cx="534.182" cy="536.023" r="8.41259" stroke-width="0.5" stroke="black" fill="cyan"/>
  <circle cx="534.182" cy="536.023" r="5.05164" stroke-width="0.5" stroke="black" fill="cyan"/>
   </g>
   <g id="cell67">
  <circle cx="348.369" cy="493.78" r="6.73287" stroke-width="0.5" stroke="black" fill="cyan"/>
  <circle cx="348.369" cy="493.78" r="4.05039" stroke-width="0.5" stroke="black" fill="cyan"/>
   </g>
   <g id="cell212">
  <circle cx="568.309" cy="499.138" r="7.62853" stroke-width="0.5" stroke="black" fill="magenta"/>
  <circle cx="568.309" cy="499.138" r="4.64856" stroke-width="0.5" stroke="black" fill="magenta"/>
   </g>
   <g id="cell69">
  <circle cx="443.344" cy="460.391" r="8.41271" stroke-width="0.5" stroke="black" fill="cyan"/>
  <circle cx="443.344" cy="460.391" r="5.05167" stroke-width="0.5" stroke="black" fill="cyan"/>
   </g>
   <g id="cell70">
  <circle cx="586.591" cy="479.314" r="8.41271" stroke-width="0.5" stroke="black" fill="cyan"/>
  <circle cx="586.591" cy="479.314" r="5.05167" stroke-width="0.5" stroke="black" fill="cyan"/>
   </g>
   <g id="cell224">
  <circle cx="360.946" cy="493.718" r="6.73287" stroke-width="0.5" stroke="black" fill="cyan"/>
  <circle cx="360.946" cy="493.718" r="4.05039" stroke-width="0.5" stroke="black" fill="cyan"/>
   </g>
   <g id="cell72">
  <circle cx="536.75" cy="501.647" r="8.36586" stroke-width="0.5" stroke="black" fill="cyan"/>
  <circle cx="536.75" cy="501.647" r="5.03402" stroke-width="0.5" stroke="black" fill="cyan"/>
   </g>
   <g id="cell73">
  <circle cx="364.017" cy="549.858" r="7.99273" stroke-width="0.5" stroke="black" fill="cyan"/>
  <circle cx="364.017" cy="549.858" r="4.85087" stroke-width="0.5" stroke="black" fill="cyan"/>
   </g>
   <g id="cell162">
  <circle cx="373.955" cy="538.664" r="8.38532" stroke-width="0.5" stroke="black" fill="magenta"/>
  <circle cx="373.955" cy="538.664" r="5.04199" stroke-width="0.5" stroke="black" fill="magenta"/>
   </g>
   <g id="cell75">
  <circle cx="531.875" cy="431.987" r="6.69286" stroke-width="0.5" stroke="black" fill="cyan"/>
  <circle cx="531.875" cy="431.987" r="4.02051" stroke-width="0.5" stroke="black" fill="cyan"/>
   </g>
   <g id="cell76">
  <circle cx="435.062" cy="375.442" r="8.41234" stroke-width="0.5" stroke="black" fill="green"/>
  <circle cx="435.062" cy="375.442" r="5.05159" stroke-width="0.5" stroke="black" fill="green"/>
   </g>
   <g id="cell77">
  <circle cx="468.942" cy="447.822" r="8.41243" stroke-width="0.5" stroke="black" fill="magenta"/>
  <circle cx="468.942" cy="447.822" r="5.05161" stroke-width="0.5" stroke="black" fill="magenta"/>
   </g>
   <g id="cell78">
  <circle cx="626.496" cy="454.954" r="8.41262" stroke-width="0.5" stroke="black" fill="green"/>
  <circle cx="626.496" cy="454.954" r="5.05165" stroke-width="0.5" stroke="black" fill="green"/>
   </g>
   <g id="cell79">
  <circle cx="517.686" cy="475.521" r="8.41268" stroke-width="0.5" stroke="black" fill="cyan"/>
  <circle cx="517.686" cy="475.521" r="5.05166" stroke-width="0.5" stroke="black" fill="cyan"/>
   </g>
   <g id="cell80">
  <circle cx="542.054" cy="632.675" r="8.18118" stroke-width="0.5" stroke="black" fill="green"/>
  <circle cx="542.054" cy="632.675" r="4.94569" stroke-width="0.5" stroke="black" fill="green"/>
   </g>
   <g id="cell81">
  <circle cx="554.942" cy="589.839" r="8.41266" stroke-width="0.5" stroke="black" fill="green"/>
  <circle cx="554.942" cy="589.839" r="5.05166" stroke-width="0.5" stroke="black" fill="green"/>
   </g>
   <g id="cell82">
  <circle cx="528.294" cy="560.793" r="8.4063" stroke-width="0.5" stroke="black" fill="magenta"/>
  <circle cx="528.294" cy="560.793" r="5.04975" stroke-width="0.5" stroke="black" fill="magenta"/>
   </g>
   <g id="cell211">
  <circle cx="449.769" cy="371.504" r="7.71898" stroke-width="0.5" stroke="black" fill="green"/>
  <circle cx="449.769" cy="371.504" r="4.68958" stroke-width="0.5" stroke="black" fill="green"/>
   </g>
   <g id="cell84">
  <circle cx="512.418" cy="490.12" r="8.29664" stroke-width="0.5" stroke="black" fill="cyan"/>
  <circle cx="512.418" cy="490.12" r="5.00279" stroke-width="0.5" stroke="black" fill="cyan"/>
   </g>
   <g id="cell85">
  <circle cx="345.287" cy="541.882" r="8.41253" stroke-width="0.5" stroke="black" fill="cyan"/>
  <circle cx="345.287" cy="541.882" r="5.05163" stroke-width="0.5" stroke="black" fill="cyan"/>
   </g>
   <g id="cell86">
  <circle cx="494.563" cy="538.899" r="8.41147" stroke-width="0.5" stroke="black" fill="magenta"/>
  <circle cx="494.563" cy="538.899" r="5.05136" stroke-width="0.5" stroke="black" fill="magenta"/>
   </g>
   <g id="cell87">
  <circle cx="572.105" cy="560.023" r="8.41246" stroke-width="0.5" stroke="black" fill="cyan"/>
  <circle cx="572.105" cy="560.023" r="5.05162" stroke-width="0.5" stroke="black" fill="cyan"/>
   </g>
   <g id="cell88">
  <circle cx="445.797" cy="533.865" r="7.37046" stroke-width="0.5" stroke="black" fill="magenta"/>
  <circle cx="445.797" cy="533.865" r="4.48404" stroke-width="0.5" stroke="black" fill="magenta"/>
   </g>
   <g id="cell89">
  <circle cx="554.124" cy="448.351" r="8.40457" stroke-width="0.5" stroke="black" fill="cyan"/>
  <circle cx="554.124" cy="448.351" r="5.04927" stroke-width="0.5" stroke="black" fill="cyan"/>
   </g>
   <g id="cell90">
  <circle cx="636.904" cy="471.611" r="8.41093" stroke-width="0.5" stroke="black" fill="green"/>
  <circle cx="636.904" cy="471.611" r="5.05121" stroke-width="0.5" stroke="black" fill="green"/>
   </g>
   <g id="cell91">
  <circle cx="542.837" cy="564.953" r="8.41255" stroke-width="0.5" stroke="black" fill="magenta"/>
  <circle cx="542.837" cy="564.953" r="5.05164" stroke-width="0.5" stroke="black" fill="magenta"/>
   </g>
   <g id="cell92">
  <circle cx="485.992" cy="551.594" r="8.41261" stroke-width="0.5" stroke="black" fill="green"/>
  <circle cx="485.992" cy="551.594" r="5.05165" stroke-width="0.5" stroke="black" fill="green"/>
   </g>
   <g id="cell93">
  <circle cx="539.271" cy="550.361" r="8.41255" stroke-width="0.5" stroke="black" fill="magenta"/>
  <circle cx="539.271" cy="550.361" r="5.05164" stroke-width="0.5" stroke="black" fill="magenta"/>
   </g>
   <g id="cell94">
  <circle cx="544.134" cy="487.502" r="8.4126" stroke-width="0.5" stroke="black" fill="cyan"/>
  <circle cx="544.134" cy="487.502" r="5.05165" stroke-width="0.5" stroke="black" fill="cyan"/>
   </g>
   <g id="cell95">
  <circle cx="466.279" cy="421" r="8.18826" stroke-width="0.5" stroke="black" fill="cyan"/>
  <circle cx="466.279" cy="421" r="4.94919" stroke-width="0.5" stroke="black" fill="cyan"/>
   </g>
   <g id="cell96">
  <circle cx="553.404" cy="542.743" r="8.40937" stroke-width="0.5" stroke="black" fill="cyan"/>
  <circle cx="553.404" cy="542.743" r="5.05074" stroke-width="0.5" stroke="black" fill="cyan"/>
   </g>
   <g id="cell97">
  <circle cx="420.564" cy="464.188" r="8.41247" stroke-width="0.5" stroke="black" fill="green"/>
  <circle cx="420.564" cy="464.188" r="5.05162" stroke-width="0.5" stroke="black" fill="green"/>
   </g>
   <g id="cell98">
  <circle cx="489.502" cy="524.162" r="8.41122" stroke-width="0.5" stroke="black" fill="green"/>
  <circle cx="489.502" cy="524.162" r="5.05129" stroke-width="0.5" stroke="black" fill="green"/>
   </g>
   <g id="cell99">
  <circle cx="367.671" cy="524.438" r="8.41253" stroke-width="0.5" stroke="black" fill="cyan"/>
  <circle cx="367.671" cy="524.438" r="5.05163" stroke-width="0.5" stroke="black" fill="cyan"/>
   </g>
   <g id="cell100">
  <circle cx="445.822" cy="404.195" r="8.41253" stroke-width="0.5" stroke="black" fill="green"/>
  <circle cx="445.822" cy="404.195" r="5.05163" stroke-width="0.5" stroke="black" fill="green"/>
   </g>
   <g id="cell101">
  <circle cx="527.916" cy="488.734" r="8.26908" stroke-width="0.5" stroke="black" fill="cyan"/>
  <circle cx="527.916" cy="488.734" r="4.98995" stroke-width="0.5" stroke="black" fill="cyan"/>
   </g>
   <g id="cell102">
  <circle cx="442.303" cy="475.799" r="7.95032" stroke-width="0.5" stroke="black" fill="green"/>
  <circle cx="442.303" cy="475.799" r="4.82136" stroke-width="0.5" stroke="black" fill="green"/>
   </g>
   <g id="cell103">
  <circle cx="592.236" cy="450.172" r="8.41144" stroke-width="0.5" stroke="black" fill="cyan"/>
  <circle cx="592.236" cy="450.172" r="5.05135" stroke-width="0.5" stroke="black" fill="cyan"/>
   </g>
   <g id="cell104">
  <circle cx="608.721" cy="554.439" r="8.30466" stroke-width="0.5" stroke="black" fill="cyan"/>
  <circle cx="608.721" cy="554.439" r="5.00727" stroke-width="0.5" stroke="black" fill="cyan"/>
   </g>
   <g id="cell106">
  <circle cx="453.867" cy="449.085" r="8.41243" stroke-width="0.5" stroke="black" fill="magenta"/>
  <circle cx="453.867" cy="449.085" r="5.05161" stroke-width="0.5" stroke="black" fill="magenta"/>
   </g>
   <g id="cell107">
  <circle cx="467.834" cy="391.051" r="8.37579" stroke-width="0.5" stroke="black" fill="green"/>
  <circle cx="467.834" cy="391.051" r="5.03882" stroke-width="0.5" stroke="black" fill="green"/>
   </g>
   <g id="cell108">
  <circle cx="563.294" cy="609.893" r="8.41238" stroke-width="0.5" stroke="black" fill="green"/>
  <circle cx="563.294" cy="609.893" r="5.0516" stroke-width="0.5" stroke="black" fill="green"/>
   </g>
   <g id="cell109">
  <circle cx="575.65" cy="587.96" r="8.41219" stroke-width="0.5" stroke="black" fill="green"/>
  <circle cx="575.65" cy="587.96" r="5.05155" stroke-width="0.5" stroke="black" fill="green"/>
   </g>
   <g id="cell110">
  <circle cx="369.472" cy="508.518" r="8.41227" stroke-width="0.5" stroke="black" fill="cyan"/>
  <circle cx="369.472" cy="508.518" r="5.05157" stroke-width="0.5" stroke="black" fill="cyan"/>
   </g>
   <g id="cell111">
  <circle cx="456.178" cy="556.445" r="8.40899" stroke-width="0.5" stroke="black" fill="magenta"/>
  <circle cx="456.178" cy="556.445" r="5.05064" stroke-width="0.5" stroke="black" fill="magenta"/>
   </g>
   <g id="cell112">
  <circle cx="491.624" cy="468.572" r="8.40353" stroke-width="0.5" stroke="black" fill="magenta"/>
  <circle cx="491.624" cy="468.572" r="5.04884" stroke-width="0.5" stroke="black" fill="magenta"/>
   </g>
   <g id="cell113">
  <circle cx="546.901" cy="366.409" r="7.46421" stroke-width="0.5" stroke="black" fill="green"/>
  <circle cx="546.901" cy="366.409" r="4.53834" stroke-width="0.5" stroke="black" fill="green"/>
   </g>
   <g id="cell114">
  <circle cx="525.153" cy="444.509" r="8.41185" stroke-width="0.5" stroke="black" fill="cyan"/>
  <circle cx="525.153" cy="444.509" r="5.05147" stroke-width="0.5" stroke="black" fill="cyan"/>
   </g>
   <g id="cell115">
  <circle cx="538.89" cy="450.154" r="8.40966" stroke-width="0.5" stroke="black" fill="cyan"/>
  <circle cx="538.89" cy="450.154" r="5.05085" stroke-width="0.5" stroke="black" fill="cyan"/>
   </g>
   <g id="cell116">
  <circle cx="519.57" cy="531.868" r="8.32506" stroke-width="0.5" stroke="black" fill="cyan"/>
  <circle cx="519.57" cy="531.868" r="5.01608" stroke-width="0.5" stroke="black" fill="cyan"/>
   </g>
   <g id="cell117">
  <circle cx="496.591" cy="627.172" r="8.41176" stroke-width="0.5" stroke="black" fill="green"/>
  <circle cx="496.591" cy="627.172" r="5.05144" stroke-width="0.5" stroke="black" fill="green"/>
   </g>
   <g id="cell118">
  <circle cx="511.519" cy="451.371" r="8.41162" stroke-width="0.5" stroke="black" fill="cyan"/>
  <circle cx="511.519" cy="451.371" r="5.0514" stroke-width="0.5" stroke="black" fill="cyan"/>
   </g>
   <g id="cell119">
  <circle cx="548.379" cy="604.214" r="8.33855" stroke-width="0.5" stroke="black" fill="green"/>
  <circle cx="548.379" cy="604.214" r="5.02221" stroke-width="0.5" stroke="black" fill="green"/>
   </g>
   <g id="cell120">
  <circle cx="581.398" cy="438.514" r="8.41144" stroke-width="0.5" stroke="black" fill="cyan"/>
  <circle cx="581.398" cy="438.514" r="5.05135" stroke-width="0.5" stroke="black" fill="cyan"/>
   </g>
   <g id="cell121">
  <circle cx="453.993" cy="357.557" r="7.71898" stroke-width="0.5" stroke="black" fill="green"/>
  <circle cx="453.993" cy="357.557" r="4.68958" stroke-width="0.5" stroke="black" fill="green"/>
   </g>
   <g id="cell122">
  <circle cx="504.75" cy="528.024" r="8.41147" stroke-width="0.5" stroke="black" fill="magenta"/>
  <circle cx="504.75" cy="528.024" r="5.05136" stroke-width="0.5" stroke="black" fill="magenta"/>
   </g>
   <g id="cell123">
  <circle cx="486" cy="507.067" r="8.41122" stroke-width="0.5" stroke="black" fill="green"/>
  <circle cx="486" cy="507.067" r="5.05129" stroke-width="0.5" stroke="black" fill="green"/>
   </g>
   <g id="cell124">
  <circle cx="487.236" cy="428.405" r="8.22315" stroke-width="0.5" stroke="black" fill="magenta"/>
  <circle cx="487.236" cy="428.405" r="4.96705" stroke-width="0.5" stroke="black" fill="magenta"/>
   </g>
   <g id="cell125">
  <circle cx="626.008" cy="483.701" r="7.84573" stroke-width="0.5" stroke="black" fill="green"/>
  <circle cx="626.008" cy="483.701" r="4.76261" stroke-width="0.5" stroke="black" fill="green"/>
   </g>
   <g id="cell126">
  <circle cx="628.988" cy="566.353" r="8.41091" stroke-width="0.5" stroke="black" fill="green"/>
  <circle cx="628.988" cy="566.353" r="5.0512" stroke-width="0.5" stroke="black" fill="green"/>
   </g>
   <g id="cell127">
  <circle cx="431.418" cy="360.638" r="7.75756" stroke-width="0.5" stroke="black" fill="green"/>
  <circle cx="431.418" cy="360.638" r="4.71204" stroke-width="0.5" stroke="black" fill="green"/>
   </g>
   <g id="cell128">
  <circle cx="372.612" cy="466.915" r="8.41049" stroke-width="0.5" stroke="black" fill="magenta"/>
  <circle cx="372.612" cy="466.915" r="5.05108" stroke-width="0.5" stroke="black" fill="magenta"/>
   </g>
   <g id="cell129">
  <circle cx="569.879" cy="543.991" r="8.41026" stroke-width="0.5" stroke="black" fill="cyan"/>
  <circle cx="569.879" cy="543.991" r="5.05101" stroke-width="0.5" stroke="black" fill="cyan"/>
   </g>
   <g id="cell130">
  <circle cx="545.371" cy="435.832" r="8.40966" stroke-width="0.5" stroke="black" fill="cyan"/>
  <circle cx="545.371" cy="435.832" r="5.05085" stroke-width="0.5" stroke="black" fill="cyan"/>
   </g>
   <g id="cell131">
  <circle cx="545.65" cy="513.984" r="7.98319" stroke-width="0.5" stroke="black" fill="cyan"/>
  <circle cx="545.65" cy="513.984" r="4.85269" stroke-width="0.5" stroke="black" fill="cyan"/>
   </g>
   <g id="cell132">
  <circle cx="443.75" cy="547.794" r="8.40899" stroke-width="0.5" stroke="black" fill="magenta"/>
  <circle cx="443.75" cy="547.794" r="5.05064" stroke-width="0.5" stroke="black" fill="magenta"/>
   </g>
   <g id="cell133">
  <circle cx="583.144" cy="463.78" r="8.40921" stroke-width="0.5" stroke="black" fill="cyan"/>
  <circle cx="583.144" cy="463.78" r="5.05069" stroke-width="0.5" stroke="black" fill="cyan"/>
   </g>
   <g id="cell201">
  <circle cx="560.754" cy="524.162" r="7.98319" stroke-width="0.5" stroke="black" fill="cyan"/>
  <circle cx="560.754" cy="524.162" r="4.85269" stroke-width="0.5" stroke="black" fill="cyan"/>
   </g>
   <g id="cell135">
  <circle cx="508.102" cy="583.092" r="8.40873" stroke-width="0.5" stroke="black" fill="magenta"/>
  <circle cx="508.102" cy="583.092" r="5.05054" stroke-width="0.5" stroke="black" fill="magenta"/>
   </g>
   <g id="cell136">
  <circle cx="470.339" cy="550.017" r="8.40809" stroke-width="0.5" stroke="black" fill="green"/>
  <circle cx="470.339" cy="550.017" r="5.05034" stroke-width="0.5" stroke="black" fill="green"/>
   </g>
   <g id="cell137">
  <circle cx="488.018" cy="613.725" r="8.40683" stroke-width="0.5" stroke="black" fill="green"/>
  <circle cx="488.018" cy="613.725" r="5.04997" stroke-width="0.5" stroke="black" fill="green"/>
   </g>
   <g id="cell138">
  <circle cx="501.753" cy="400.467" r="8.40731" stroke-width="0.5" stroke="black" fill="green"/>
  <circle cx="501.753" cy="400.467" r="5.05008" stroke-width="0.5" stroke="black" fill="green"/>
   </g>
   <g id="cell139">
  <circle cx="415.093" cy="406.577" r="8.4065" stroke-width="0.5" stroke="black" fill="magenta"/>
  <circle cx="415.093" cy="406.577" r="5.04982" stroke-width="0.5" stroke="black" fill="magenta"/>
   </g>
   <g id="cell140">
  <circle cx="517.918" cy="571.691" r="8.40082" stroke-width="0.5" stroke="black" fill="magenta"/>
  <circle cx="517.918" cy="571.691" r="5.04802" stroke-width="0.5" stroke="black" fill="magenta"/>
   </g>
   <g id="cell141">
  <circle cx="572.782" cy="451.989" r="8.40457" stroke-width="0.5" stroke="black" fill="cyan"/>
  <circle cx="572.782" cy="451.989" r="5.04927" stroke-width="0.5" stroke="black" fill="cyan"/>
   </g>
   <g id="cell142">
  <circle cx="541.815" cy="421.067" r="8.32261" stroke-width="0.5" stroke="black" fill="green"/>
  <circle cx="541.815" cy="421.067" r="5.01639" stroke-width="0.5" stroke="black" fill="green"/>
   </g>
   <g id="cell143">
  <circle cx="430.244" cy="405.094" r="8.40265" stroke-width="0.5" stroke="black" fill="magenta"/>
  <circle cx="430.244" cy="405.094" r="5.04864" stroke-width="0.5" stroke="black" fill="magenta"/>
   </g>
   <g id="cell144">
  <circle cx="549.41" cy="407.695" r="8.38766" stroke-width="0.5" stroke="black" fill="green"/>
  <circle cx="549.41" cy="407.695" r="5.04336" stroke-width="0.5" stroke="black" fill="green"/>
   </g>
   <g id="cell185">
  <circle cx="599.098" cy="568.688" r="7.75082" stroke-width="0.5" stroke="black" fill="cyan"/>
  <circle cx="599.098" cy="568.688" r="4.71758" stroke-width="0.5" stroke="black" fill="cyan"/>
   </g>
   <g id="cell147">
  <circle cx="513.362" cy="557.424" r="8.40082" stroke-width="0.5" stroke="black" fill="magenta"/>
  <circle cx="513.362" cy="557.424" r="5.04802" stroke-width="0.5" stroke="black" fill="magenta"/>
   </g>
   <g id="cell148">
  <circle cx="506.099" cy="464.987" r="8.2621" stroke-width="0.5" stroke="black" fill="magenta"/>
  <circle cx="506.099" cy="464.987" r="4.987" stroke-width="0.5" stroke="black" fill="magenta"/>
   </g>
   <g id="cell149">
  <circle cx="575.435" cy="399.581" r="8.40123" stroke-width="0.5" stroke="black" fill="magenta"/>
  <circle cx="575.435" cy="399.581" r="5.048" stroke-width="0.5" stroke="black" fill="magenta"/>
   </g>
   <g id="cell150">
  <circle cx="411.489" cy="580.695" r="8.37471" stroke-width="0.5" stroke="black" fill="green"/>
  <circle cx="411.489" cy="580.695" r="5.03824" stroke-width="0.5" stroke="black" fill="green"/>
   </g>
   <g id="cell151">
  <circle cx="419.152" cy="529.847" r="8.39834" stroke-width="0.5" stroke="black" fill="green"/>
  <circle cx="419.152" cy="529.847" r="5.04696" stroke-width="0.5" stroke="black" fill="green"/>
   </g>
   <g id="cell152">
  <circle cx="373.39" cy="579.385" r="8.39108" stroke-width="0.5" stroke="black" fill="green"/>
  <circle cx="373.39" cy="579.385" r="5.04457" stroke-width="0.5" stroke="black" fill="green"/>
   </g>
   <g id="cell153">
  <circle cx="560.536" cy="461.821" r="8.39664" stroke-width="0.5" stroke="black" fill="cyan"/>
  <circle cx="560.536" cy="461.821" r="5.04633" stroke-width="0.5" stroke="black" fill="cyan"/>
   </g>
   <g id="cell154">
  <circle cx="386.871" cy="598.527" r="8.38534" stroke-width="0.5" stroke="black" fill="green"/>
  <circle cx="386.871" cy="598.527" r="5.0426" stroke-width="0.5" stroke="black" fill="green"/>
   </g>
   <g id="cell155">
  <circle cx="488.272" cy="583.044" r="8.39571" stroke-width="0.5" stroke="black" fill="green"/>
  <circle cx="488.272" cy="583.044" r="5.04599" stroke-width="0.5" stroke="black" fill="green"/>
   </g>
   <g id="cell156">
  <circle cx="457.591" cy="526.163" r="8.39567" stroke-width="0.5" stroke="black" fill="magenta"/>
  <circle cx="457.591" cy="526.163" r="5.04598" stroke-width="0.5" stroke="black" fill="magenta"/>
   </g>
   <g id="cell157">
  <circle cx="443.809" cy="519.872" r="8.38568" stroke-width="0.5" stroke="black" fill="magenta"/>
  <circle cx="443.809" cy="519.872" r="5.04257" stroke-width="0.5" stroke="black" fill="magenta"/>
   </g>
   <g id="cell158">
  <circle cx="564.956" cy="411.22" r="8.38873" stroke-width="0.5" stroke="black" fill="green"/>
  <circle cx="564.956" cy="411.22" r="5.04377" stroke-width="0.5" stroke="black" fill="green"/>
   </g>
   <g id="cell159">
  <circle cx="530.484" cy="397.737" r="8.1382" stroke-width="0.5" stroke="black" fill="green"/>
  <circle cx="530.484" cy="397.737" r="4.92964" stroke-width="0.5" stroke="black" fill="green"/>
   </g>
   <g id="cell160">
  <circle cx="464.422" cy="375.558" r="8.39076" stroke-width="0.5" stroke="black" fill="green"/>
  <circle cx="464.422" cy="375.558" r="5.0442" stroke-width="0.5" stroke="black" fill="green"/>
   </g>
   <g id="cell165">
  <circle cx="607.975" cy="526.492" r="8.18786" stroke-width="0.5" stroke="black" fill="magenta"/>
  <circle cx="607.975" cy="526.492" r="4.95165" stroke-width="0.5" stroke="black" fill="magenta"/>
   </g>
   <g id="cell166">
  <circle cx="480.294" cy="458.721" r="8.37183" stroke-width="0.5" stroke="black" fill="magenta"/>
  <circle cx="480.294" cy="458.721" r="5.03655" stroke-width="0.5" stroke="black" fill="magenta"/>
   </g>
   <g id="cell167">
  <circle cx="421.313" cy="392.371" r="8.36722" stroke-width="0.5" stroke="black" fill="green"/>
  <circle cx="421.313" cy="392.371" r="5.03458" stroke-width="0.5" stroke="black" fill="green"/>
   </g>
   <g id="cell170">
  <circle cx="460.169" cy="503.404" r="8.35727" stroke-width="0.5" stroke="black" fill="green"/>
  <circle cx="460.169" cy="503.404" r="5.03034" stroke-width="0.5" stroke="black" fill="green"/>
   </g>
   <g id="cell171">
  <circle cx="602.286" cy="479.874" r="8.347" stroke-width="0.5" stroke="black" fill="cyan"/>
  <circle cx="602.286" cy="479.874" r="5.02586" stroke-width="0.5" stroke="black" fill="cyan"/>
   </g>
   <g id="cell172">
  <circle cx="552.254" cy="500.738" r="8.29153" stroke-width="0.5" stroke="black" fill="magenta"/>
  <circle cx="552.254" cy="500.738" r="5.00284" stroke-width="0.5" stroke="black" fill="magenta"/>
   </g>
   <g id="cell173">
  <circle cx="531.269" cy="520.54" r="8.33741" stroke-width="0.5" stroke="black" fill="cyan"/>
  <circle cx="531.269" cy="520.54" r="5.02188" stroke-width="0.5" stroke="black" fill="cyan"/>
   </g>
   <g id="cell174">
  <circle cx="494.054" cy="438.593" r="5.92923" stroke-width="0.5" stroke="black" fill="cyan"/>
  <circle cx="494.054" cy="438.593" r="3.62119" stroke-width="0.5" stroke="black" fill="cyan"/>
   </g>
   <g id="cell175">
  <circle cx="525.143" cy="606.59" r="8.04503" stroke-width="0.5" stroke="black" fill="green"/>
  <circle cx="525.143" cy="606.59" r="4.88356" stroke-width="0.5" stroke="black" fill="green"/>
   </g>
   <g id="cell176">
  <circle cx="557.147" cy="424.937" r="8.32261" stroke-width="0.5" stroke="black" fill="green"/>
  <circle cx="557.147" cy="424.937" r="5.01639" stroke-width="0.5" stroke="black" fill="green"/>
   </g>
   <g id="cell177">
  <circle cx="368.679" cy="564.445" r="8.26639" stroke-width="0.5" stroke="black" fill="cyan"/>
  <circle cx="368.679" cy="564.445" r="4.99128" stroke-width="0.5" stroke="black" fill="cyan"/>
   </g>
   <g id="cell178">
  <circle cx="562.189" cy="510.618" r="7.62853" stroke-width="0.5" stroke="black" fill="magenta"/>
  <circle cx="562.189" cy="510.618" r="4.64856" stroke-width="0.5" stroke="black" fill="magenta"/>
   </g>
   <g id="cell179">
  <circle cx="515.73" cy="517.115" r="8.32506" stroke-width="0.5" stroke="black" fill="cyan"/>
  <circle cx="515.73" cy="517.115" r="5.01608" stroke-width="0.5" stroke="black" fill="cyan"/>
   </g>
   <g id="cell180">
  <circle cx="619.688" cy="505.712" r="8.32032" stroke-width="0.5" stroke="black" fill="green"/>
  <circle cx="619.688" cy="505.712" r="5.01383" stroke-width="0.5" stroke="black" fill="green"/>
   </g>
   <g id="cell181">
  <circle cx="565.377" cy="532.447" r="2.37594" stroke-width="0.5" stroke="black" fill="cyan"/>
  <circle cx="565.377" cy="532.447" r="2.13684" stroke-width="0.5" stroke="black" fill="black"/>
   </g>
   <g id="cell182">
  <circle cx="532.223" cy="382.694" r="8.30486" stroke-width="0.5" stroke="black" fill="green"/>
  <circle cx="532.223" cy="382.694" r="5.00834" stroke-width="0.5" stroke="black" fill="green"/>
   </g>
   <g id="cell183">
  <circle cx="580.052" cy="521.406" r="7.01761" stroke-width="0.5" stroke="black" fill="magenta"/>
  <circle cx="580.052" cy="521.406" r="4.2696" stroke-width="0.5" stroke="black" fill="magenta"/>
   </g>
   <g id="cell184">
  <circle cx="431.142" cy="430.882" r="8.15689" stroke-width="0.5" stroke="black" fill="magenta"/>
  <circle cx="431.142" cy="430.882" r="4.93878" stroke-width="0.5" stroke="black" fill="magenta"/>
   </g>
   <g id="cell187">
  <circle cx="498.613" cy="497.144" r="8.29664" stroke-width="0.5" stroke="black" fill="cyan"/>
  <circle cx="498.613" cy="497.144" r="5.00279" stroke-width="0.5" stroke="black" fill="cyan"/>
   </g>
   <g id="cell188">
  <circle cx="535.216" cy="618.675" r="8.2368" stroke-width="0.5" stroke="black" fill="green"/>
  <circle cx="535.216" cy="618.675" r="4.97721" stroke-width="0.5" stroke="black" fill="green"/>
   </g>
   <g id="cell189">
  <circle cx="533.949" cy="474.765" r="8.26908" stroke-width="0.5" stroke="black" fill="cyan"/>
  <circle cx="533.949" cy="474.765" r="4.98995" stroke-width="0.5" stroke="black" fill="cyan"/>
   </g>
   <g id="cell190">
  <circle cx="546.909" cy="528.693" r="8.20249" stroke-width="0.5" stroke="black" fill="cyan"/>
  <circle cx="546.909" cy="528.693" r="4.96256" stroke-width="0.5" stroke="black" fill="cyan"/>
   </g>
   <g id="cell191">
  <circle cx="502.306" cy="479.087" r="8.2621" stroke-width="0.5" stroke="black" fill="magenta"/>
  <circle cx="502.306" cy="479.087" r="4.987" stroke-width="0.5" stroke="black" fill="magenta"/>
   </g>
   <g id="cell192">
  <circle cx="473.926" cy="433.547" r="8.22315" stroke-width="0.5" stroke="black" fill="magenta"/>
  <circle cx="473.926" cy="433.547" r="4.96705" stroke-width="0.5" stroke="black" fill="magenta"/>
   </g>
   <g id="cell193">
  <circle cx="438.065" cy="417.802" r="8.15689" stroke-width="0.5" stroke="black" fill="magenta"/>
  <circle cx="438.065" cy="417.802" r="4.93878" stroke-width="0.5" stroke="black" fill="magenta"/>
   </g>
   <g id="cell194">
  <circle cx="602.35" cy="512.834" r="8.18786" stroke-width="0.5" stroke="black" fill="magenta"/>
  <circle cx="602.35" cy="512.834" r="4.95165" stroke-width="0.5" stroke="black" fill="magenta"/>
   </g>
   <g id="cell195">
  <circle cx="544.799" cy="393.016" r="8.1382" stroke-width="0.5" stroke="black" fill="green"/>
  <circle cx="544.799" cy="393.016" r="4.92964" stroke-width="0.5" stroke="black" fill="green"/>
   </g>
   <g id="cell196">
  <circle cx="459.489" cy="435.112" r="8.18826" stroke-width="0.5" stroke="black" fill="cyan"/>
  <circle cx="459.489" cy="435.112" r="4.94919" stroke-width="0.5" stroke="black" fill="cyan"/>
   </g>
   <g id="cell197">
  <circle cx="550.592" cy="619.602" r="8.18118" stroke-width="0.5" stroke="black" fill="green"/>
  <circle cx="550.592" cy="619.602" r="4.94569" stroke-width="0.5" stroke="black" fill="green"/>
   </g>
   <g id="cell198">
  <circle cx="423.73" cy="418.444" r="8.08917" stroke-width="0.5" stroke="black" fill="magenta"/>
  <circle cx="423.73" cy="418.444" r="4.90398" stroke-width="0.5" stroke="black" fill="magenta"/>
   </g>
   <g id="cell199">
  <circle cx="535.522" cy="595.758" r="8.04503" stroke-width="0.5" stroke="black" fill="green"/>
  <circle cx="535.522" cy="595.758" r="4.88356" stroke-width="0.5" stroke="black" fill="green"/>
   </g>
   <g id="cell200">
  <circle cx="445.527" cy="430.542" r="8.09771" stroke-width="0.5" stroke="black" fill="magenta"/>
  <circle cx="445.527" cy="430.542" r="4.90328" stroke-width="0.5" stroke="black" fill="magenta"/>
   </g>
   <g id="cell202">
  <circle cx="402.331" cy="607.389" r="8.04604" stroke-width="0.5" stroke="black" fill="cyan"/>
  <circle cx="402.331" cy="607.389" r="4.87399" stroke-width="0.5" stroke="black" fill="cyan"/>
   </g>
   <g id="cell203">
  <circle cx="363.206" cy="537.766" r="3.18293" stroke-width="0.5" stroke="black" fill="cyan"/>
  <circle cx="363.206" cy="537.766" r="2.50469" stroke-width="0.5" stroke="black" fill="black"/>
   </g>
   <g id="cell204">
  <circle cx="573.944" cy="486.986" r="7.9962" stroke-width="0.5" stroke="black" fill="magenta"/>
  <circle cx="573.944" cy="486.986" r="4.85243" stroke-width="0.5" stroke="black" fill="magenta"/>
   </g>
   <g id="cell205">
  <circle cx="427.391" cy="478.175" r="7.95032" stroke-width="0.5" stroke="black" fill="green"/>
  <circle cx="427.391" cy="478.175" r="4.82136" stroke-width="0.5" stroke="black" fill="green"/>
   </g>
   <g id="cell206">
  <circle cx="465.487" cy="623.545" r="7.86286" stroke-width="0.5" stroke="black" fill="magenta"/>
  <circle cx="465.487" cy="623.545" r="4.77207" stroke-width="0.5" stroke="black" fill="magenta"/>
   </g>
   <g id="cell207">
  <circle cx="621.626" cy="469.553" r="7.84573" stroke-width="0.5" stroke="black" fill="green"/>
  <circle cx="621.626" cy="469.553" r="4.76261" stroke-width="0.5" stroke="black" fill="green"/>
   </g>
   <g id="cell208">
  <circle cx="583.113" cy="551.36" r="6.69877" stroke-width="0.5" stroke="black" fill="cyan"/>
  <circle cx="583.113" cy="551.36" r="4.1109" stroke-width="0.5" stroke="black" fill="cyan"/>
   </g>
   <g id="cell209">
  <circle cx="441.468" cy="349.95" r="7.75756" stroke-width="0.5" stroke="black" fill="green"/>
  <circle cx="441.468" cy="349.95" r="4.71204" stroke-width="0.5" stroke="black" fill="green"/>
   </g>
   <g id="cell210">
  <circle cx="655.812" cy="538.38" r="7.7591" stroke-width="0.5" stroke="black" fill="green"/>
  <circle cx="655.812" cy="538.38" r="4.71247" stroke-width="0.5" stroke="black" fill="green"/>
   </g>
   <g id="cell213">
  <circle cx="557.493" cy="382.401" r="6.69132" stroke-width="0.5" stroke="black" fill="green"/>
  <circle cx="557.493" cy="382.401" r="4.1072" stroke-width="0.5" stroke="black" fill="green"/>
   </g>
   <g id="cell214">
  <circle cx="501.299" cy="428.656" r="7.34" stroke-width="0.5" stroke="black" fill="cyan"/>
  <circle cx="501.299" cy="428.656" r="4.47057" stroke-width="0.5" stroke="black" fill="cyan"/>
   </g>
   <g id="cell215">
  <circle cx="433.528" cy="529.583" r="7.37046" stroke-width="0.5" stroke="black" fill="magenta"/>
  <circle cx="433.528" cy="529.583" r="4.48404" stroke-width="0.5" stroke="black" fill="magenta"/>
   </g>
   <g id="cell216">
  <circle cx="544.799" cy="579.263" r="7.31326" stroke-width="0.5" stroke="black" fill="green"/>
  <circle cx="544.799" cy="579.263" r="4.44844" stroke-width="0.5" stroke="black" fill="green"/>
   </g>
   <g id="cell217">
  <circle cx="545.662" cy="379.398" r="6.69132" stroke-width="0.5" stroke="black" fill="green"/>
  <circle cx="545.662" cy="379.398" r="4.1072" stroke-width="0.5" stroke="black" fill="green"/>
   </g>
   <g id="cell218">
  <circle cx="594.749" cy="555.851" r="6.69877" stroke-width="0.5" stroke="black" fill="cyan"/>
  <circle cx="594.749" cy="555.851" r="4.1109" stroke-width="0.5" stroke="black" fill="cyan"/>
   </g>
   <g id="cell219">
  <circle cx="575.524" cy="509.784" r="7.01761" stroke-width="0.5" stroke="black" fill="magenta"/>
  <circle cx="575.524" cy="509.784" r="4.2696" stroke-width="0.5" stroke="black" fill="magenta"/>
   </g>
   <g id="cell221">
  <circle cx="588.149" cy="397.296" r="5.75405" stroke-width="0.5" stroke="black" fill="magenta"/>
  <circle cx="588.149" cy="397.296" r="3.50917" stroke-width="0.5" stroke="black" fill="magenta"/>
   </g>
   <g id="cell222">
  <circle cx="503.459" cy="442.119" r="5.92923" stroke-width="0.5" stroke="black" fill="cyan"/>
  <circle cx="503.459" cy="442.119" r="3.62119" stroke-width="0.5" stroke="black" fill="cyan"/>
   </g>
   <g id="cell223">
  <circle cx="509.483" cy="622.043" r="6.75622" stroke-width="0.5" stroke="black" fill="green"/>
  <circle cx="509.483" cy="622.043" r="4.06809" stroke-width="0.5" stroke="black" fill="green"/>
   </g>
   <g id="cell225">
  <circle cx="522.812" cy="423.696" r="6.69286" stroke-width="0.5" stroke="black" fill="cyan"/>
  <circle cx="522.812" cy="423.696" r="4.02051" stroke-width="0.5" stroke="black" fill="cyan"/>
   </g>
  </g>
 </g>
  <rect x="775" y="1035" width="200" height="10" stroke-width="2" stroke="rgb(255,255,255)" fill="rgb(0,0,0)"/>
  <text x="781.25" y="1028.75"
   font-family="Arial" font-size="25" fill="black" >
   200 &#956;m
  </text>
  <text x="25" y="1045"
   font-family="Arial" font-size="18.75" fill="black" >
   0 days, 0 hours, 0 minutes, and 51.7403 seconds
  </text>
  <rect x="0" y="70" width="1000" height="1000" stroke-width="2" stroke="rgb(0,0,0)" fill="none"/>
</svg>
