<?xml version="1.0" encoding="UTF-8" standalone="no"?>
<!-- Created with PhysiCell (http://PhysiCell.MathCancer.org/) -->
<svg 
 xmlns:dc="http://purl.org/dc/elements/1.1/" 
 xmlns:cc="http://creativecommons.org/ns#" 
 xmlns:rdf="http://www.w3.org/1999/02/22-rdf-syntax-ns#" 
 xmlns:svg="http://www.w3.org/2000/svg" 
 xmlns="http://www.w3.org/2000/svg" 
 version="1.1" 
 width="1000" 
 height="1070" 
 id="svg2">
  <rect x="0" y="0" width="1000" height="1070" stroke-width="2" stroke="white" fill="white"/>
  <text x="12.5" y="30"
   font-family="Arial" font-size="25" fill="black" >
   Current time: 0 days, 15 hours, and 6.00 minutes, z = 0.00 &#956;m
  </text>
  <text x="12.5" y="57.5"
   font-family="Arial" font-size="23.75" fill="black" >
   121 agents
  </text>
 <g id="tissue" 
    transform="translate(0,1070) scale(1,-1)">
  <g id="ECM">
  </g>
  <g id="cells">
   <g id="cell0">
  <circle cx="515.806" cy="534.484" r="8.30618" stroke-width="0.5" stroke="black" fill="magenta"/>
  <circle cx="515.806" cy="534.484" r="5.00727" stroke-width="0.5" stroke="black" fill="magenta"/>
   </g>
   <g id="cell1">
  <circle cx="602.492" cy="526.171" r="8.41271" stroke-width="0.5" stroke="black" fill="magenta"/>
  <circle cx="602.492" cy="526.171" r="5.05167" stroke-width="0.5" stroke="black" fill="magenta"/>
   </g>
   <g id="cell2">
  <circle cx="514.403" cy="598.892" r="8.41271" stroke-width="0.5" stroke="black" fill="magenta"/>
  <circle cx="514.403" cy="598.892" r="5.05167" stroke-width="0.5" stroke="black" fill="magenta"/>
   </g>
   <g id="cell3">
  <circle cx="524.001" cy="546.983" r="8.23711" stroke-width="0.5" stroke="black" fill="magenta"/>
  <circle cx="524.001" cy="546.983" r="4.97714" stroke-width="0.5" stroke="black" fill="magenta"/>
   </g>
   <g id="cell4">
  <circle cx="490.809" cy="437.41" r="8.36972" stroke-width="0.5" stroke="black" fill="magenta"/>
  <circle cx="490.809" cy="437.41" r="5.03563" stroke-width="0.5" stroke="black" fill="magenta"/>
   </g>
   <g id="cell5">
  <circle cx="465.032" cy="493.3" r="8.41271" stroke-width="0.5" stroke="black" fill="magenta"/>
  <circle cx="465.032" cy="493.3" r="5.05167" stroke-width="0.5" stroke="black" fill="magenta"/>
   </g>
   <g id="cell6">
  <circle cx="595.637" cy="512.669" r="8.41271" stroke-width="0.5" stroke="black" fill="magenta"/>
  <circle cx="595.637" cy="512.669" r="5.05167" stroke-width="0.5" stroke="black" fill="magenta"/>
   </g>
   <g id="cell7">
  <circle cx="500.072" cy="457.735" r="7.54436" stroke-width="0.5" stroke="black" fill="magenta"/>
  <circle cx="500.072" cy="457.735" r="4.58555" stroke-width="0.5" stroke="black" fill="magenta"/>
   </g>
   <g id="cell8">
  <circle cx="376.272" cy="542.178" r="8.41271" stroke-width="0.5" stroke="black" fill="magenta"/>
  <circle cx="376.272" cy="542.178" r="5.05167" stroke-width="0.5" stroke="black" fill="magenta"/>
   </g>
   <g id="cell9">
  <circle cx="460.472" cy="599.786" r="8.41271" stroke-width="0.5" stroke="black" fill="magenta"/>
  <circle cx="460.472" cy="599.786" r="5.05167" stroke-width="0.5" stroke="black" fill="magenta"/>
   </g>
   <g id="cell10">
  <circle cx="583.447" cy="392.105" r="8.41271" stroke-width="0.5" stroke="black" fill="magenta"/>
  <circle cx="583.447" cy="392.105" r="5.05167" stroke-width="0.5" stroke="black" fill="magenta"/>
   </g>
   <g id="cell11">
  <circle cx="591.349" cy="590.073" r="8.41271" stroke-width="0.5" stroke="black" fill="magenta"/>
  <circle cx="591.349" cy="590.073" r="5.05167" stroke-width="0.5" stroke="black" fill="magenta"/>
   </g>
   <g id="cell12">
  <circle cx="506.695" cy="585.943" r="8.41271" stroke-width="0.5" stroke="black" fill="magenta"/>
  <circle cx="506.695" cy="585.943" r="5.05167" stroke-width="0.5" stroke="black" fill="magenta"/>
   </g>
   <g id="cell13">
  <circle cx="386.194" cy="568.228" r="8.41271" stroke-width="0.5" stroke="black" fill="magenta"/>
  <circle cx="386.194" cy="568.228" r="5.05167" stroke-width="0.5" stroke="black" fill="magenta"/>
   </g>
   <g id="cell14">
  <circle cx="529.58" cy="399.302" r="8.41271" stroke-width="0.5" stroke="black" fill="magenta"/>
  <circle cx="529.58" cy="399.302" r="5.05167" stroke-width="0.5" stroke="black" fill="magenta"/>
   </g>
   <g id="cell15">
  <circle cx="379.65" cy="475.1" r="8.41271" stroke-width="0.5" stroke="black" fill="magenta"/>
  <circle cx="379.65" cy="475.1" r="5.05167" stroke-width="0.5" stroke="black" fill="magenta"/>
   </g>
   <g id="cell16">
  <circle cx="428.968" cy="413.106" r="8.41271" stroke-width="0.5" stroke="black" fill="magenta"/>
  <circle cx="428.968" cy="413.106" r="5.05167" stroke-width="0.5" stroke="black" fill="magenta"/>
   </g>
   <g id="cell17">
  <circle cx="570.535" cy="491.27" r="8.41271" stroke-width="0.5" stroke="black" fill="magenta"/>
  <circle cx="570.535" cy="491.27" r="5.05167" stroke-width="0.5" stroke="black" fill="magenta"/>
   </g>
   <g id="cell18">
  <circle cx="518.053" cy="389.482" r="8.41271" stroke-width="0.5" stroke="black" fill="magenta"/>
  <circle cx="518.053" cy="389.482" r="5.05167" stroke-width="0.5" stroke="black" fill="magenta"/>
   </g>
   <g id="cell19">
  <circle cx="459.568" cy="540.128" r="7.51459" stroke-width="0.5" stroke="black" fill="magenta"/>
  <circle cx="459.568" cy="540.128" r="4.5804" stroke-width="0.5" stroke="black" fill="magenta"/>
   </g>
   <g id="cell20">
  <circle cx="531.308" cy="414.358" r="8.41271" stroke-width="0.5" stroke="black" fill="magenta"/>
  <circle cx="531.308" cy="414.358" r="5.05167" stroke-width="0.5" stroke="black" fill="magenta"/>
   </g>
   <g id="cell21">
  <circle cx="464.368" cy="634.574" r="8.41271" stroke-width="0.5" stroke="black" fill="magenta"/>
  <circle cx="464.368" cy="634.574" r="5.05167" stroke-width="0.5" stroke="black" fill="magenta"/>
   </g>
   <g id="cell22">
  <circle cx="556.064" cy="495.536" r="8.41271" stroke-width="0.5" stroke="black" fill="magenta"/>
  <circle cx="556.064" cy="495.536" r="5.05167" stroke-width="0.5" stroke="black" fill="magenta"/>
   </g>
   <g id="cell23">
  <circle cx="545.005" cy="485.387" r="8.41271" stroke-width="0.5" stroke="black" fill="magenta"/>
  <circle cx="545.005" cy="485.387" r="5.05167" stroke-width="0.5" stroke="black" fill="magenta"/>
   </g>
   <g id="cell24">
  <circle cx="558.746" cy="381.813" r="8.41271" stroke-width="0.5" stroke="black" fill="magenta"/>
  <circle cx="558.746" cy="381.813" r="5.05167" stroke-width="0.5" stroke="black" fill="magenta"/>
   </g>
   <g id="cell25">
  <circle cx="645.697" cy="545.227" r="8.347" stroke-width="0.5" stroke="black" fill="green"/>
  <circle cx="645.697" cy="545.227" r="5.02586" stroke-width="0.5" stroke="black" fill="green"/>
   </g>
   <g id="cell26">
  <circle cx="554.748" cy="396.741" r="7.51976" stroke-width="0.5" stroke="black" fill="green"/>
  <circle cx="554.748" cy="396.741" r="4.57072" stroke-width="0.5" stroke="black" fill="green"/>
   </g>
   <g id="cell27">
  <circle cx="464.436" cy="390.821" r="8.37208" stroke-width="0.5" stroke="black" fill="green"/>
  <circle cx="464.436" cy="390.821" r="5.03661" stroke-width="0.5" stroke="black" fill="green"/>
   </g>
   <g id="cell28">
  <circle cx="433.016" cy="530.701" r="8.41271" stroke-width="0.5" stroke="black" fill="green"/>
  <circle cx="433.016" cy="530.701" r="5.05167" stroke-width="0.5" stroke="black" fill="green"/>
   </g>
   <g id="cell29">
  <circle cx="450.465" cy="515.942" r="8.41271" stroke-width="0.5" stroke="black" fill="green"/>
  <circle cx="450.465" cy="515.942" r="5.05167" stroke-width="0.5" stroke="black" fill="green"/>
   </g>
   <g id="cell30">
  <circle cx="481.022" cy="534.471" r="8.24914" stroke-width="0.5" stroke="black" fill="green"/>
  <circle cx="481.022" cy="534.471" r="4.97981" stroke-width="0.5" stroke="black" fill="green"/>
   </g>
   <g id="cell31">
  <circle cx="412.807" cy="541.561" r="8.41271" stroke-width="0.5" stroke="black" fill="green"/>
  <circle cx="412.807" cy="541.561" r="5.05167" stroke-width="0.5" stroke="black" fill="green"/>
   </g>
   <g id="cell32">
  <circle cx="421.26" cy="481.728" r="8.18833" stroke-width="0.5" stroke="black" fill="green"/>
  <circle cx="421.26" cy="481.728" r="4.94921" stroke-width="0.5" stroke="black" fill="green"/>
   </g>
   <g id="cell33">
  <circle cx="498.462" cy="423.869" r="8.41271" stroke-width="0.5" stroke="black" fill="green"/>
  <circle cx="498.462" cy="423.869" r="5.05167" stroke-width="0.5" stroke="black" fill="green"/>
   </g>
   <g id="cell34">
  <circle cx="397.088" cy="450.831" r="8.41271" stroke-width="0.5" stroke="black" fill="green"/>
  <circle cx="397.088" cy="450.831" r="5.05167" stroke-width="0.5" stroke="black" fill="green"/>
   </g>
   <g id="cell35">
  <circle cx="553.059" cy="541.652" r="8.41271" stroke-width="0.5" stroke="black" fill="green"/>
  <circle cx="553.059" cy="541.652" r="5.05167" stroke-width="0.5" stroke="black" fill="green"/>
   </g>
   <g id="cell36">
  <circle cx="391.486" cy="582.903" r="8.41271" stroke-width="0.5" stroke="black" fill="green"/>
  <circle cx="391.486" cy="582.903" r="5.05167" stroke-width="0.5" stroke="black" fill="green"/>
   </g>
   <g id="cell37">
  <circle cx="639.837" cy="457.353" r="8.36592" stroke-width="0.5" stroke="black" fill="green"/>
  <circle cx="639.837" cy="457.353" r="5.03403" stroke-width="0.5" stroke="black" fill="green"/>
   </g>
   <g id="cell38">
  <circle cx="528.895" cy="593.572" r="8.35727" stroke-width="0.5" stroke="black" fill="green"/>
  <circle cx="528.895" cy="593.572" r="5.03034" stroke-width="0.5" stroke="black" fill="green"/>
   </g>
   <g id="cell39">
  <circle cx="613.458" cy="490.595" r="8.41271" stroke-width="0.5" stroke="black" fill="green"/>
  <circle cx="613.458" cy="490.595" r="5.05167" stroke-width="0.5" stroke="black" fill="green"/>
   </g>
   <g id="cell40">
  <circle cx="485.348" cy="571.779" r="8.41271" stroke-width="0.5" stroke="black" fill="green"/>
  <circle cx="485.348" cy="571.779" r="5.05167" stroke-width="0.5" stroke="black" fill="green"/>
   </g>
   <g id="cell41">
  <circle cx="364.925" cy="480.252" r="8.41271" stroke-width="0.5" stroke="black" fill="green"/>
  <circle cx="364.925" cy="480.252" r="5.05167" stroke-width="0.5" stroke="black" fill="green"/>
   </g>
   <g id="cell42">
  <circle cx="438.842" cy="494.268" r="8.41271" stroke-width="0.5" stroke="black" fill="green"/>
  <circle cx="438.842" cy="494.268" r="5.05167" stroke-width="0.5" stroke="black" fill="green"/>
   </g>
   <g id="cell43">
  <circle cx="562.55" cy="442.028" r="8.41271" stroke-width="0.5" stroke="black" fill="green"/>
  <circle cx="562.55" cy="442.028" r="5.05167" stroke-width="0.5" stroke="black" fill="green"/>
   </g>
   <g id="cell44">
  <circle cx="475.857" cy="624.021" r="8.41271" stroke-width="0.5" stroke="black" fill="green"/>
  <circle cx="475.857" cy="624.021" r="5.05167" stroke-width="0.5" stroke="black" fill="green"/>
   </g>
   <g id="cell45">
  <circle cx="414.902" cy="556.698" r="3.19585" stroke-width="0.5" stroke="black" fill="green"/>
  <circle cx="414.902" cy="556.698" r="2.55241" stroke-width="0.5" stroke="black" fill="black"/>
   </g>
   <g id="cell46">
  <circle cx="521.653" cy="612.246" r="8.02418" stroke-width="0.5" stroke="black" fill="green"/>
  <circle cx="521.653" cy="612.246" r="4.86209" stroke-width="0.5" stroke="black" fill="green"/>
   </g>
   <g id="cell47">
  <circle cx="503.813" cy="502.533" r="8.17502" stroke-width="0.5" stroke="black" fill="green"/>
  <circle cx="503.813" cy="502.533" r="4.94236" stroke-width="0.5" stroke="black" fill="green"/>
   </g>
   <g id="cell48">
  <circle cx="570.378" cy="603.748" r="7.47473" stroke-width="0.5" stroke="black" fill="green"/>
  <circle cx="570.378" cy="603.748" r="4.56983" stroke-width="0.5" stroke="black" fill="green"/>
   </g>
   <g id="cell49">
  <circle cx="430.212" cy="397.532" r="8.41271" stroke-width="0.5" stroke="black" fill="green"/>
  <circle cx="430.212" cy="397.532" r="5.05167" stroke-width="0.5" stroke="black" fill="green"/>
   </g>
   <g id="cell50">
  <circle cx="511.576" cy="514.555" r="7.14552" stroke-width="0.5" stroke="black" fill="cyan"/>
  <circle cx="511.576" cy="514.555" r="4.35172" stroke-width="0.5" stroke="black" fill="cyan"/>
   </g>
   <g id="cell51">
  <circle cx="398.721" cy="597.201" r="8.41271" stroke-width="0.5" stroke="black" fill="cyan"/>
  <circle cx="398.721" cy="597.201" r="5.05167" stroke-width="0.5" stroke="black" fill="cyan"/>
   </g>
   <g id="cell52">
  <circle cx="518.504" cy="423.284" r="8.41271" stroke-width="0.5" stroke="black" fill="cyan"/>
  <circle cx="518.504" cy="423.284" r="5.05167" stroke-width="0.5" stroke="black" fill="cyan"/>
   </g>
   <g id="cell53">
  <circle cx="574.015" cy="429.947" r="8.08613" stroke-width="0.5" stroke="black" fill="cyan"/>
  <circle cx="574.015" cy="429.947" r="4.8956" stroke-width="0.5" stroke="black" fill="cyan"/>
   </g>
   <g id="cell54">
  <circle cx="482.65" cy="424.328" r="8.21839" stroke-width="0.5" stroke="black" fill="cyan"/>
  <circle cx="482.65" cy="424.328" r="4.96448" stroke-width="0.5" stroke="black" fill="cyan"/>
   </g>
   <g id="cell55">
  <circle cx="523.93" cy="464.307" r="8.10211" stroke-width="0.5" stroke="black" fill="cyan"/>
  <circle cx="523.93" cy="464.307" r="4.90814" stroke-width="0.5" stroke="black" fill="cyan"/>
   </g>
   <g id="cell56">
  <circle cx="617.613" cy="522.333" r="8.41271" stroke-width="0.5" stroke="black" fill="cyan"/>
  <circle cx="617.613" cy="522.333" r="5.05167" stroke-width="0.5" stroke="black" fill="cyan"/>
   </g>
   <g id="cell105">
  <circle cx="507.029" cy="610.565" r="6.71112" stroke-width="0.5" stroke="black" fill="green"/>
  <circle cx="507.029" cy="610.565" r="4.09758" stroke-width="0.5" stroke="black" fill="green"/>
   </g>
   <g id="cell58">
  <circle cx="559.638" cy="480.181" r="8.41271" stroke-width="0.5" stroke="black" fill="cyan"/>
  <circle cx="559.638" cy="480.181" r="5.05167" stroke-width="0.5" stroke="black" fill="cyan"/>
   </g>
   <g id="cell59">
  <circle cx="385.463" cy="439.803" r="8.41271" stroke-width="0.5" stroke="black" fill="cyan"/>
  <circle cx="385.463" cy="439.803" r="5.05167" stroke-width="0.5" stroke="black" fill="cyan"/>
   </g>
   <g id="cell60">
  <circle cx="592.118" cy="473.809" r="8.41271" stroke-width="0.5" stroke="black" fill="cyan"/>
  <circle cx="592.118" cy="473.809" r="5.05167" stroke-width="0.5" stroke="black" fill="cyan"/>
   </g>
   <g id="cell61">
  <circle cx="554.239" cy="622.291" r="8.41271" stroke-width="0.5" stroke="black" fill="cyan"/>
  <circle cx="554.239" cy="622.291" r="5.05167" stroke-width="0.5" stroke="black" fill="cyan"/>
   </g>
   <g id="cell62">
  <circle cx="515.918" cy="440.743" r="6.70204" stroke-width="0.5" stroke="black" fill="cyan"/>
  <circle cx="515.918" cy="440.743" r="4.03897" stroke-width="0.5" stroke="black" fill="cyan"/>
   </g>
   <g id="cell63">
  <circle cx="573.196" cy="541.799" r="8.29667" stroke-width="0.5" stroke="black" fill="cyan"/>
  <circle cx="573.196" cy="541.799" r="5.00279" stroke-width="0.5" stroke="black" fill="cyan"/>
   </g>
   <g id="cell64">
  <circle cx="509.99" cy="636.424" r="8.41271" stroke-width="0.5" stroke="black" fill="cyan"/>
  <circle cx="509.99" cy="636.424" r="5.05167" stroke-width="0.5" stroke="black" fill="cyan"/>
   </g>
   <g id="cell65">
  <circle cx="547.249" cy="470.018" r="8.28262" stroke-width="0.5" stroke="black" fill="cyan"/>
  <circle cx="547.249" cy="470.018" r="4.9961" stroke-width="0.5" stroke="black" fill="cyan"/>
   </g>
   <g id="cell66">
  <circle cx="530.946" cy="533.196" r="8.20689" stroke-width="0.5" stroke="black" fill="cyan"/>
  <circle cx="530.946" cy="533.196" r="4.95867" stroke-width="0.5" stroke="black" fill="cyan"/>
   </g>
   <g id="cell67">
  <circle cx="354.711" cy="492.599" r="8.41271" stroke-width="0.5" stroke="black" fill="cyan"/>
  <circle cx="354.711" cy="492.599" r="5.05167" stroke-width="0.5" stroke="black" fill="cyan"/>
   </g>
   <g id="cell68">
  <circle cx="562.842" cy="553.943" r="8.41271" stroke-width="0.5" stroke="black" fill="cyan"/>
  <circle cx="562.842" cy="553.943" r="5.05167" stroke-width="0.5" stroke="black" fill="cyan"/>
   </g>
   <g id="cell69">
  <circle cx="442.119" cy="460.532" r="8.41271" stroke-width="0.5" stroke="black" fill="cyan"/>
  <circle cx="442.119" cy="460.532" r="5.05167" stroke-width="0.5" stroke="black" fill="cyan"/>
   </g>
   <g id="cell70">
  <circle cx="576.223" cy="476.787" r="8.41271" stroke-width="0.5" stroke="black" fill="cyan"/>
  <circle cx="576.223" cy="476.787" r="5.05167" stroke-width="0.5" stroke="black" fill="cyan"/>
   </g>
   <g id="cell71">
  <circle cx="379.579" cy="527.732" r="7.63698" stroke-width="0.5" stroke="black" fill="cyan"/>
  <circle cx="379.579" cy="527.732" r="4.64085" stroke-width="0.5" stroke="black" fill="cyan"/>
   </g>
   <g id="cell72">
  <circle cx="532.653" cy="511.409" r="8.2239" stroke-width="0.5" stroke="black" fill="cyan"/>
  <circle cx="532.653" cy="511.409" r="4.96725" stroke-width="0.5" stroke="black" fill="cyan"/>
   </g>
   <g id="cell73">
  <circle cx="364.718" cy="552.475" r="8.30918" stroke-width="0.5" stroke="black" fill="cyan"/>
  <circle cx="364.718" cy="552.475" r="5.00867" stroke-width="0.5" stroke="black" fill="cyan"/>
   </g>
   <g id="cell74">
  <circle cx="549.109" cy="440.652" r="7.51976" stroke-width="0.5" stroke="black" fill="cyan"/>
  <circle cx="549.109" cy="440.652" r="4.57072" stroke-width="0.5" stroke="black" fill="cyan"/>
   </g>
   <g id="cell75">
  <circle cx="528.858" cy="435.485" r="8.37321" stroke-width="0.5" stroke="black" fill="cyan"/>
  <circle cx="528.858" cy="435.485" r="5.03708" stroke-width="0.5" stroke="black" fill="cyan"/>
   </g>
   <g id="cell76">
  <circle cx="440.871" cy="382.641" r="7.76848" stroke-width="0.5" stroke="black" fill="green"/>
  <circle cx="440.871" cy="382.641" r="4.73545" stroke-width="0.5" stroke="black" fill="green"/>
   </g>
   <g id="cell77">
  <circle cx="476.174" cy="437.796" r="7.92644" stroke-width="0.5" stroke="black" fill="magenta"/>
  <circle cx="476.174" cy="437.796" r="4.81224" stroke-width="0.5" stroke="black" fill="magenta"/>
   </g>
   <g id="cell78">
  <circle cx="624.426" cy="460.943" r="8.25855" stroke-width="0.5" stroke="black" fill="green"/>
  <circle cx="624.426" cy="460.943" r="4.98699" stroke-width="0.5" stroke="black" fill="green"/>
   </g>
   <g id="cell79">
  <circle cx="517.755" cy="479.546" r="8.36032" stroke-width="0.5" stroke="black" fill="cyan"/>
  <circle cx="517.755" cy="479.546" r="5.03165" stroke-width="0.5" stroke="black" fill="cyan"/>
   </g>
   <g id="cell80">
  <circle cx="543.618" cy="613.621" r="6.66651" stroke-width="0.5" stroke="black" fill="green"/>
  <circle cx="543.618" cy="613.621" r="4.02472" stroke-width="0.5" stroke="black" fill="green"/>
   </g>
   <g id="cell81">
  <circle cx="544.872" cy="595.765" r="8.32767" stroke-width="0.5" stroke="black" fill="green"/>
  <circle cx="544.872" cy="595.765" r="5.01886" stroke-width="0.5" stroke="black" fill="green"/>
   </g>
   <g id="cell82">
  <circle cx="532.95" cy="559.207" r="8.347" stroke-width="0.5" stroke="black" fill="magenta"/>
  <circle cx="532.95" cy="559.207" r="5.02586" stroke-width="0.5" stroke="black" fill="magenta"/>
   </g>
   <g id="cell83">
  <circle cx="634.515" cy="556.523" r="8.347" stroke-width="0.5" stroke="black" fill="green"/>
  <circle cx="634.515" cy="556.523" r="5.02586" stroke-width="0.5" stroke="black" fill="green"/>
   </g>
   <g id="cell84">
  <circle cx="519.613" cy="502.4" r="8.31491" stroke-width="0.5" stroke="black" fill="cyan"/>
  <circle cx="519.613" cy="502.4" r="5.01133" stroke-width="0.5" stroke="black" fill="cyan"/>
   </g>
   <g id="cell85">
  <circle cx="352.789" cy="542.394" r="8.11346" stroke-width="0.5" stroke="black" fill="cyan"/>
  <circle cx="352.789" cy="542.394" r="4.91598" stroke-width="0.5" stroke="black" fill="cyan"/>
   </g>
   <g id="cell86">
  <circle cx="503.43" cy="526.141" r="8.30618" stroke-width="0.5" stroke="black" fill="magenta"/>
  <circle cx="503.43" cy="526.141" r="5.00727" stroke-width="0.5" stroke="black" fill="magenta"/>
   </g>
   <g id="cell87">
  <circle cx="577.927" cy="556.615" r="7.98299" stroke-width="0.5" stroke="black" fill="cyan"/>
  <circle cx="577.927" cy="556.615" r="4.84721" stroke-width="0.5" stroke="black" fill="cyan"/>
   </g>
   <g id="cell88">
  <circle cx="448.466" cy="531.305" r="8.28629" stroke-width="0.5" stroke="black" fill="magenta"/>
  <circle cx="448.466" cy="531.305" r="4.99786" stroke-width="0.5" stroke="black" fill="magenta"/>
   </g>
   <g id="cell89">
  <circle cx="553.888" cy="455.409" r="8.28262" stroke-width="0.5" stroke="black" fill="cyan"/>
  <circle cx="553.888" cy="455.409" r="4.9961" stroke-width="0.5" stroke="black" fill="cyan"/>
   </g>
   <g id="cell90">
  <circle cx="631.036" cy="475.202" r="8.25855" stroke-width="0.5" stroke="black" fill="green"/>
  <circle cx="631.036" cy="475.202" r="4.98699" stroke-width="0.5" stroke="black" fill="green"/>
   </g>
   <g id="cell91">
  <circle cx="547.833" cy="556.68" r="8.15387" stroke-width="0.5" stroke="black" fill="magenta"/>
  <circle cx="547.833" cy="556.68" r="4.93896" stroke-width="0.5" stroke="black" fill="magenta"/>
   </g>
   <g id="cell92">
  <circle cx="482.524" cy="550.1" r="8.24914" stroke-width="0.5" stroke="black" fill="green"/>
  <circle cx="482.524" cy="550.1" r="4.97981" stroke-width="0.5" stroke="black" fill="green"/>
   </g>
   <g id="cell93">
  <circle cx="538.562" cy="545.694" r="8.15387" stroke-width="0.5" stroke="black" fill="magenta"/>
  <circle cx="538.562" cy="545.694" r="4.93896" stroke-width="0.5" stroke="black" fill="magenta"/>
   </g>
   <g id="cell94">
  <circle cx="533.826" cy="495.897" r="8.2239" stroke-width="0.5" stroke="black" fill="cyan"/>
  <circle cx="533.826" cy="495.897" r="4.96725" stroke-width="0.5" stroke="black" fill="cyan"/>
   </g>
   <g id="cell95">
  <circle cx="467.068" cy="425.915" r="8.21839" stroke-width="0.5" stroke="black" fill="cyan"/>
  <circle cx="467.068" cy="425.915" r="4.96448" stroke-width="0.5" stroke="black" fill="cyan"/>
   </g>
   <g id="cell96">
  <circle cx="542.927" cy="523.201" r="8.20689" stroke-width="0.5" stroke="black" fill="cyan"/>
  <circle cx="542.927" cy="523.201" r="4.95867" stroke-width="0.5" stroke="black" fill="cyan"/>
   </g>
   <g id="cell97">
  <circle cx="421.764" cy="466.314" r="8.01141" stroke-width="0.5" stroke="black" fill="green"/>
  <circle cx="421.764" cy="466.314" r="4.86464" stroke-width="0.5" stroke="black" fill="green"/>
   </g>
   <g id="cell98">
  <circle cx="493.662" cy="514.387" r="8.17502" stroke-width="0.5" stroke="black" fill="green"/>
  <circle cx="493.662" cy="514.387" r="4.94236" stroke-width="0.5" stroke="black" fill="green"/>
   </g>
   <g id="cell99">
  <circle cx="358.213" cy="527.95" r="8.11346" stroke-width="0.5" stroke="black" fill="cyan"/>
  <circle cx="358.213" cy="527.95" r="4.91598" stroke-width="0.5" stroke="black" fill="cyan"/>
   </g>
   <g id="cell100">
  <circle cx="449.094" cy="395.286" r="8.10838" stroke-width="0.5" stroke="black" fill="green"/>
  <circle cx="449.094" cy="395.286" r="4.9108" stroke-width="0.5" stroke="black" fill="green"/>
   </g>
   <g id="cell101">
  <circle cx="532.968" cy="476.387" r="8.10211" stroke-width="0.5" stroke="black" fill="cyan"/>
  <circle cx="532.968" cy="476.387" r="4.90814" stroke-width="0.5" stroke="black" fill="cyan"/>
   </g>
   <g id="cell102">
  <circle cx="434.751" cy="474.298" r="8.01141" stroke-width="0.5" stroke="black" fill="green"/>
  <circle cx="434.751" cy="474.298" r="4.86464" stroke-width="0.5" stroke="black" fill="green"/>
   </g>
   <g id="cell103">
  <circle cx="585.029" cy="446.127" r="6.41796" stroke-width="0.5" stroke="black" fill="cyan"/>
  <circle cx="585.029" cy="446.127" r="3.88564" stroke-width="0.5" stroke="black" fill="cyan"/>
   </g>
   <g id="cell104">
  <circle cx="592.616" cy="553.407" r="7.98299" stroke-width="0.5" stroke="black" fill="cyan"/>
  <circle cx="592.616" cy="553.407" r="4.84721" stroke-width="0.5" stroke="black" fill="cyan"/>
   </g>
   <g id="cell106">
  <circle cx="462.118" cy="440.052" r="7.92644" stroke-width="0.5" stroke="black" fill="magenta"/>
  <circle cx="462.118" cy="440.052" r="4.81224" stroke-width="0.5" stroke="black" fill="magenta"/>
   </g>
   <g id="cell107">
  <circle cx="456.916" cy="380.526" r="6.16585" stroke-width="0.5" stroke="black" fill="green"/>
  <circle cx="456.916" cy="380.526" r="3.75853" stroke-width="0.5" stroke="black" fill="green"/>
   </g>
   <g id="cell108">
  <circle cx="555.998" cy="606.495" r="7.84675" stroke-width="0.5" stroke="black" fill="green"/>
  <circle cx="555.998" cy="606.495" r="4.7629" stroke-width="0.5" stroke="black" fill="green"/>
   </g>
   <g id="cell109">
  <circle cx="576.71" cy="591.092" r="7.47473" stroke-width="0.5" stroke="black" fill="green"/>
  <circle cx="576.71" cy="591.092" r="4.56983" stroke-width="0.5" stroke="black" fill="green"/>
   </g>
   <g id="cell110">
  <circle cx="374.052" cy="514.357" r="7.63698" stroke-width="0.5" stroke="black" fill="cyan"/>
  <circle cx="374.052" cy="514.357" r="4.64085" stroke-width="0.5" stroke="black" fill="cyan"/>
   </g>
   <g id="cell111">
  <circle cx="453.65" cy="552.248" r="7.51459" stroke-width="0.5" stroke="black" fill="magenta"/>
  <circle cx="453.65" cy="552.248" r="4.5804" stroke-width="0.5" stroke="black" fill="magenta"/>
   </g>
   <g id="cell112">
  <circle cx="509.906" cy="466.988" r="7.54436" stroke-width="0.5" stroke="black" fill="magenta"/>
  <circle cx="509.906" cy="466.988" r="4.58555" stroke-width="0.5" stroke="black" fill="magenta"/>
   </g>
   <g id="cell113">
  <circle cx="543.04" cy="405.346" r="7.51976" stroke-width="0.5" stroke="black" fill="green"/>
  <circle cx="543.04" cy="405.346" r="4.57072" stroke-width="0.5" stroke="black" fill="green"/>
   </g>
   <g id="cell114">
  <circle cx="525.796" cy="450.358" r="6.79387" stroke-width="0.5" stroke="black" fill="cyan"/>
  <circle cx="525.796" cy="450.358" r="4.16872" stroke-width="0.5" stroke="black" fill="cyan"/>
   </g>
   <g id="cell115">
  <circle cx="537.763" cy="446.542" r="6.79387" stroke-width="0.5" stroke="black" fill="cyan"/>
  <circle cx="537.763" cy="446.542" r="4.16872" stroke-width="0.5" stroke="black" fill="cyan"/>
   </g>
   <g id="cell116">
  <circle cx="522.584" cy="521.836" r="7.14552" stroke-width="0.5" stroke="black" fill="cyan"/>
  <circle cx="522.584" cy="521.836" r="4.35172" stroke-width="0.5" stroke="black" fill="cyan"/>
   </g>
   <g id="cell117">
  <circle cx="511.651" cy="622.225" r="6.71112" stroke-width="0.5" stroke="black" fill="green"/>
  <circle cx="511.651" cy="622.225" r="4.09758" stroke-width="0.5" stroke="black" fill="green"/>
   </g>
   <g id="cell118">
  <circle cx="512.043" cy="452.641" r="6.70204" stroke-width="0.5" stroke="black" fill="cyan"/>
  <circle cx="512.043" cy="452.641" r="4.03897" stroke-width="0.5" stroke="black" fill="cyan"/>
   </g>
   <g id="cell119">
  <circle cx="534.108" cy="606.248" r="6.66651" stroke-width="0.5" stroke="black" fill="green"/>
  <circle cx="534.108" cy="606.248" r="4.02472" stroke-width="0.5" stroke="black" fill="green"/>
   </g>
   <g id="cell120">
  <circle cx="574.642" cy="443.302" r="6.41796" stroke-width="0.5" stroke="black" fill="cyan"/>
  <circle cx="574.642" cy="443.302" r="3.88564" stroke-width="0.5" stroke="black" fill="cyan"/>
   </g>
   <g id="cell121">
  <circle cx="449.817" cy="371.345" r="6.16585" stroke-width="0.5" stroke="black" fill="green"/>
  <circle cx="449.817" cy="371.345" r="3.75853" stroke-width="0.5" stroke="black" fill="green"/>
   </g>
  </g>
 </g>
  <rect x="775" y="1035" width="200" height="10" stroke-width="2" stroke="rgb(255,255,255)" fill="rgb(0,0,0)"/>
  <text x="781.25" y="1028.75"
   font-family="Arial" font-size="25" fill="black" >
   200 &#956;m
  </text>
  <text x="25" y="1045"
   font-family="Arial" font-size="18.75" fill="black" >
   0 days, 0 hours, 0 minutes, and 17.3999 seconds
  </text>
  <rect x="0" y="70" width="1000" height="1000" stroke-width="2" stroke="rgb(0,0,0)" fill="none"/>
</svg>
