<?xml version="1.0" encoding="UTF-8" standalone="no"?>
<!-- Created with PhysiCell (http://PhysiCell.MathCancer.org/) -->
<svg 
 xmlns:dc="http://purl.org/dc/elements/1.1/" 
 xmlns:cc="http://creativecommons.org/ns#" 
 xmlns:rdf="http://www.w3.org/1999/02/22-rdf-syntax-ns#" 
 xmlns:svg="http://www.w3.org/2000/svg" 
 xmlns="http://www.w3.org/2000/svg" 
 version="1.1" 
 width="1000" 
 height="1070" 
 id="svg2">
  <rect x="0" y="0" width="1000" height="1070" stroke-width="2" stroke="white" fill="white"/>
  <text x="12.5" y="30"
   font-family="Arial" font-size="25" fill="black" >
   Current time: 0 days, 8 hours, and 0.00 minutes, z = 0.00 &#956;m
  </text>
  <text x="12.5" y="57.5"
   font-family="Arial" font-size="23.75" fill="black" >
   92 agents
  </text>
 <g id="tissue" 
    transform="translate(0,1070) scale(1,-1)">
  <g id="ECM">
  </g>
  <g id="cells">
   <g id="cell0">
  <circle cx="481.313" cy="404.903" r="8.41271" stroke-width="0.5" stroke="black" fill="magenta"/>
  <circle cx="481.313" cy="404.903" r="5.05167" stroke-width="0.5" stroke="black" fill="magenta"/>
   </g>
   <g id="cell1">
  <circle cx="634.477" cy="513.076" r="8.03527" stroke-width="0.5" stroke="black" fill="magenta"/>
  <circle cx="634.477" cy="513.076" r="4.86813" stroke-width="0.5" stroke="black" fill="magenta"/>
   </g>
   <g id="cell2">
  <circle cx="478.73" cy="494.091" r="8.41271" stroke-width="0.5" stroke="black" fill="magenta"/>
  <circle cx="478.73" cy="494.091" r="5.05167" stroke-width="0.5" stroke="black" fill="magenta"/>
   </g>
   <g id="cell3">
  <circle cx="450.695" cy="451.728" r="7.7401" stroke-width="0.5" stroke="black" fill="magenta"/>
  <circle cx="450.695" cy="451.728" r="4.70142" stroke-width="0.5" stroke="black" fill="magenta"/>
   </g>
   <g id="cell4">
  <circle cx="411.395" cy="559.659" r="8.41271" stroke-width="0.5" stroke="black" fill="magenta"/>
  <circle cx="411.395" cy="559.659" r="5.05167" stroke-width="0.5" stroke="black" fill="magenta"/>
   </g>
   <g id="cell5">
  <circle cx="393.5" cy="440.755" r="8.41271" stroke-width="0.5" stroke="black" fill="magenta"/>
  <circle cx="393.5" cy="440.755" r="5.05167" stroke-width="0.5" stroke="black" fill="magenta"/>
   </g>
   <g id="cell6">
  <circle cx="433.602" cy="544.38" r="6.71158" stroke-width="0.5" stroke="black" fill="magenta"/>
  <circle cx="433.602" cy="544.38" r="4.03435" stroke-width="0.5" stroke="black" fill="magenta"/>
   </g>
   <g id="cell7">
  <circle cx="598.828" cy="506.348" r="8.41271" stroke-width="0.5" stroke="black" fill="magenta"/>
  <circle cx="598.828" cy="506.348" r="5.05167" stroke-width="0.5" stroke="black" fill="magenta"/>
   </g>
   <g id="cell8">
  <circle cx="391.843" cy="501.121" r="8.41271" stroke-width="0.5" stroke="black" fill="magenta"/>
  <circle cx="391.843" cy="501.121" r="5.05167" stroke-width="0.5" stroke="black" fill="magenta"/>
   </g>
   <g id="cell9">
  <circle cx="527.529" cy="404.098" r="8.41271" stroke-width="0.5" stroke="black" fill="magenta"/>
  <circle cx="527.529" cy="404.098" r="5.05167" stroke-width="0.5" stroke="black" fill="magenta"/>
   </g>
   <g id="cell10">
  <circle cx="590.509" cy="428.871" r="8.41271" stroke-width="0.5" stroke="black" fill="magenta"/>
  <circle cx="590.509" cy="428.871" r="5.05167" stroke-width="0.5" stroke="black" fill="magenta"/>
   </g>
   <g id="cell11">
  <circle cx="517.781" cy="501.696" r="8.41271" stroke-width="0.5" stroke="black" fill="magenta"/>
  <circle cx="517.781" cy="501.696" r="5.05167" stroke-width="0.5" stroke="black" fill="magenta"/>
   </g>
   <g id="cell12">
  <circle cx="602.572" cy="401.399" r="8.41271" stroke-width="0.5" stroke="black" fill="magenta"/>
  <circle cx="602.572" cy="401.399" r="5.05167" stroke-width="0.5" stroke="black" fill="magenta"/>
   </g>
   <g id="cell13">
  <circle cx="633.87" cy="499.306" r="7.33129" stroke-width="0.5" stroke="black" fill="magenta"/>
  <circle cx="633.87" cy="499.306" r="4.45516" stroke-width="0.5" stroke="black" fill="magenta"/>
   </g>
   <g id="cell14">
  <circle cx="363.298" cy="434.385" r="8.41271" stroke-width="0.5" stroke="black" fill="magenta"/>
  <circle cx="363.298" cy="434.385" r="5.05167" stroke-width="0.5" stroke="black" fill="magenta"/>
   </g>
   <g id="cell15">
  <circle cx="379.54" cy="492.332" r="8.41271" stroke-width="0.5" stroke="black" fill="magenta"/>
  <circle cx="379.54" cy="492.332" r="5.05167" stroke-width="0.5" stroke="black" fill="magenta"/>
   </g>
   <g id="cell16">
  <circle cx="518.197" cy="416.035" r="8.41271" stroke-width="0.5" stroke="black" fill="magenta"/>
  <circle cx="518.197" cy="416.035" r="5.05167" stroke-width="0.5" stroke="black" fill="magenta"/>
   </g>
   <g id="cell17">
  <circle cx="382.084" cy="580.247" r="8.41271" stroke-width="0.5" stroke="black" fill="magenta"/>
  <circle cx="382.084" cy="580.247" r="5.05167" stroke-width="0.5" stroke="black" fill="magenta"/>
   </g>
   <g id="cell18">
  <circle cx="526.116" cy="455.78" r="8.41271" stroke-width="0.5" stroke="black" fill="magenta"/>
  <circle cx="526.116" cy="455.78" r="5.05167" stroke-width="0.5" stroke="black" fill="magenta"/>
   </g>
   <g id="cell19">
  <circle cx="488.431" cy="458.864" r="8.41271" stroke-width="0.5" stroke="black" fill="magenta"/>
  <circle cx="488.431" cy="458.864" r="5.05167" stroke-width="0.5" stroke="black" fill="magenta"/>
   </g>
   <g id="cell20">
  <circle cx="490.579" cy="542.117" r="8.41271" stroke-width="0.5" stroke="black" fill="magenta"/>
  <circle cx="490.579" cy="542.117" r="5.05167" stroke-width="0.5" stroke="black" fill="magenta"/>
   </g>
   <g id="cell21">
  <circle cx="500.763" cy="589.947" r="7.56839" stroke-width="0.5" stroke="black" fill="magenta"/>
  <circle cx="500.763" cy="589.947" r="4.59998" stroke-width="0.5" stroke="black" fill="magenta"/>
   </g>
   <g id="cell22">
  <circle cx="544.839" cy="466.727" r="6.80881" stroke-width="0.5" stroke="black" fill="magenta"/>
  <circle cx="544.839" cy="466.727" r="4.10709" stroke-width="0.5" stroke="black" fill="magenta"/>
   </g>
   <g id="cell23">
  <circle cx="560.366" cy="605.815" r="8.41271" stroke-width="0.5" stroke="black" fill="magenta"/>
  <circle cx="560.366" cy="605.815" r="5.05167" stroke-width="0.5" stroke="black" fill="magenta"/>
   </g>
   <g id="cell24">
  <circle cx="502.634" cy="501.666" r="8.41271" stroke-width="0.5" stroke="black" fill="magenta"/>
  <circle cx="502.634" cy="501.666" r="5.05167" stroke-width="0.5" stroke="black" fill="magenta"/>
   </g>
   <g id="cell25">
  <circle cx="442.492" cy="518.217" r="8.41271" stroke-width="0.5" stroke="black" fill="green"/>
  <circle cx="442.492" cy="518.217" r="5.05167" stroke-width="0.5" stroke="black" fill="green"/>
   </g>
   <g id="cell26">
  <circle cx="478.28" cy="592.585" r="8.41271" stroke-width="0.5" stroke="black" fill="green"/>
  <circle cx="478.28" cy="592.585" r="5.05167" stroke-width="0.5" stroke="black" fill="green"/>
   </g>
   <g id="cell27">
  <circle cx="447.911" cy="585.641" r="8.13813" stroke-width="0.5" stroke="black" fill="green"/>
  <circle cx="447.911" cy="585.641" r="4.92317" stroke-width="0.5" stroke="black" fill="green"/>
   </g>
   <g id="cell28">
  <circle cx="505.769" cy="433.891" r="8.41271" stroke-width="0.5" stroke="black" fill="green"/>
  <circle cx="505.769" cy="433.891" r="5.05167" stroke-width="0.5" stroke="black" fill="green"/>
   </g>
   <g id="cell29">
  <circle cx="586.286" cy="515.651" r="8.41271" stroke-width="0.5" stroke="black" fill="green"/>
  <circle cx="586.286" cy="515.651" r="5.05167" stroke-width="0.5" stroke="black" fill="green"/>
   </g>
   <g id="cell30">
  <circle cx="596.865" cy="605.255" r="8.41271" stroke-width="0.5" stroke="black" fill="green"/>
  <circle cx="596.865" cy="605.255" r="5.05167" stroke-width="0.5" stroke="black" fill="green"/>
   </g>
   <g id="cell31">
  <circle cx="471.368" cy="416.921" r="8.41271" stroke-width="0.5" stroke="black" fill="green"/>
  <circle cx="471.368" cy="416.921" r="5.05167" stroke-width="0.5" stroke="black" fill="green"/>
   </g>
   <g id="cell32">
  <circle cx="562.373" cy="430.023" r="8.05651" stroke-width="0.5" stroke="black" fill="green"/>
  <circle cx="562.373" cy="430.023" r="4.87966" stroke-width="0.5" stroke="black" fill="green"/>
   </g>
   <g id="cell33">
  <circle cx="590.078" cy="560.613" r="8.41271" stroke-width="0.5" stroke="black" fill="green"/>
  <circle cx="590.078" cy="560.613" r="5.05167" stroke-width="0.5" stroke="black" fill="green"/>
   </g>
   <g id="cell34">
  <circle cx="561.666" cy="581.181" r="8.41271" stroke-width="0.5" stroke="black" fill="green"/>
  <circle cx="561.666" cy="581.181" r="5.05167" stroke-width="0.5" stroke="black" fill="green"/>
   </g>
   <g id="cell35">
  <circle cx="471.734" cy="508.104" r="8.41271" stroke-width="0.5" stroke="black" fill="green"/>
  <circle cx="471.734" cy="508.104" r="5.05167" stroke-width="0.5" stroke="black" fill="green"/>
   </g>
   <g id="cell36">
  <circle cx="458.618" cy="574.055" r="8.41271" stroke-width="0.5" stroke="black" fill="green"/>
  <circle cx="458.618" cy="574.055" r="5.05167" stroke-width="0.5" stroke="black" fill="green"/>
   </g>
   <g id="cell37">
  <circle cx="487.829" cy="506.736" r="8.41271" stroke-width="0.5" stroke="black" fill="green"/>
  <circle cx="487.829" cy="506.736" r="5.05167" stroke-width="0.5" stroke="black" fill="green"/>
   </g>
   <g id="cell38">
  <circle cx="613.733" cy="449.242" r="8.41271" stroke-width="0.5" stroke="black" fill="green"/>
  <circle cx="613.733" cy="449.242" r="5.05167" stroke-width="0.5" stroke="black" fill="green"/>
   </g>
   <g id="cell39">
  <circle cx="428.247" cy="524.327" r="8.41271" stroke-width="0.5" stroke="black" fill="green"/>
  <circle cx="428.247" cy="524.327" r="5.05167" stroke-width="0.5" stroke="black" fill="green"/>
   </g>
   <g id="cell40">
  <circle cx="467.356" cy="604.293" r="8.41271" stroke-width="0.5" stroke="black" fill="green"/>
  <circle cx="467.356" cy="604.293" r="5.05167" stroke-width="0.5" stroke="black" fill="green"/>
   </g>
   <g id="cell41">
  <circle cx="592.817" cy="413.494" r="8.41271" stroke-width="0.5" stroke="black" fill="green"/>
  <circle cx="592.817" cy="413.494" r="5.05167" stroke-width="0.5" stroke="black" fill="green"/>
   </g>
   <g id="cell42">
  <circle cx="457.78" cy="517.212" r="8.08613" stroke-width="0.5" stroke="black" fill="green"/>
  <circle cx="457.78" cy="517.212" r="4.8956" stroke-width="0.5" stroke="black" fill="green"/>
   </g>
   <g id="cell43">
  <circle cx="357.665" cy="458.998" r="8.41271" stroke-width="0.5" stroke="black" fill="green"/>
  <circle cx="357.665" cy="458.998" r="5.05167" stroke-width="0.5" stroke="black" fill="green"/>
   </g>
   <g id="cell44">
  <circle cx="499.932" cy="469.414" r="8.41271" stroke-width="0.5" stroke="black" fill="green"/>
  <circle cx="499.932" cy="469.414" r="5.05167" stroke-width="0.5" stroke="black" fill="green"/>
   </g>
   <g id="cell45">
  <circle cx="499.122" cy="624.343" r="8.41271" stroke-width="0.5" stroke="black" fill="green"/>
  <circle cx="499.122" cy="624.343" r="5.05167" stroke-width="0.5" stroke="black" fill="green"/>
   </g>
   <g id="cell46">
  <circle cx="598.415" cy="454.053" r="8.41271" stroke-width="0.5" stroke="black" fill="green"/>
  <circle cx="598.415" cy="454.053" r="5.05167" stroke-width="0.5" stroke="black" fill="green"/>
   </g>
   <g id="cell47">
  <circle cx="515.293" cy="539.253" r="8.41271" stroke-width="0.5" stroke="black" fill="green"/>
  <circle cx="515.293" cy="539.253" r="5.05167" stroke-width="0.5" stroke="black" fill="green"/>
   </g>
   <g id="cell48">
  <circle cx="452.573" cy="383.833" r="8.41271" stroke-width="0.5" stroke="black" fill="green"/>
  <circle cx="452.573" cy="383.833" r="5.05167" stroke-width="0.5" stroke="black" fill="green"/>
   </g>
   <g id="cell49">
  <circle cx="443.978" cy="638.738" r="8.41271" stroke-width="0.5" stroke="black" fill="green"/>
  <circle cx="443.978" cy="638.738" r="5.05167" stroke-width="0.5" stroke="black" fill="green"/>
   </g>
   <g id="cell50">
  <circle cx="542.386" cy="565.273" r="7.56839" stroke-width="0.5" stroke="black" fill="cyan"/>
  <circle cx="542.386" cy="565.273" r="4.59998" stroke-width="0.5" stroke="black" fill="cyan"/>
   </g>
   <g id="cell51">
  <circle cx="550.804" cy="593.512" r="8.41271" stroke-width="0.5" stroke="black" fill="cyan"/>
  <circle cx="550.804" cy="593.512" r="5.05167" stroke-width="0.5" stroke="black" fill="cyan"/>
   </g>
   <g id="cell52">
  <circle cx="421.016" cy="469.765" r="8.04604" stroke-width="0.5" stroke="black" fill="cyan"/>
  <circle cx="421.016" cy="469.765" r="4.87399" stroke-width="0.5" stroke="black" fill="cyan"/>
   </g>
   <g id="cell53">
  <circle cx="543.153" cy="527.749" r="8.41271" stroke-width="0.5" stroke="black" fill="cyan"/>
  <circle cx="543.153" cy="527.749" r="5.05167" stroke-width="0.5" stroke="black" fill="cyan"/>
   </g>
   <g id="cell54">
  <circle cx="587.213" cy="398.523" r="8.41271" stroke-width="0.5" stroke="black" fill="cyan"/>
  <circle cx="587.213" cy="398.523" r="5.05167" stroke-width="0.5" stroke="black" fill="cyan"/>
   </g>
   <g id="cell55">
  <circle cx="522.239" cy="389.42" r="8.41271" stroke-width="0.5" stroke="black" fill="cyan"/>
  <circle cx="522.239" cy="389.42" r="5.05167" stroke-width="0.5" stroke="black" fill="cyan"/>
   </g>
   <g id="cell56">
  <circle cx="610.675" cy="476.342" r="8.41271" stroke-width="0.5" stroke="black" fill="cyan"/>
  <circle cx="610.675" cy="476.342" r="5.05167" stroke-width="0.5" stroke="black" fill="cyan"/>
   </g>
   <g id="cell57">
  <circle cx="537.116" cy="588.335" r="7.07404" stroke-width="0.5" stroke="black" fill="cyan"/>
  <circle cx="537.116" cy="588.335" r="4.33631" stroke-width="0.5" stroke="black" fill="cyan"/>
   </g>
   <g id="cell58">
  <circle cx="510.649" cy="457.542" r="8.41271" stroke-width="0.5" stroke="black" fill="cyan"/>
  <circle cx="510.649" cy="457.542" r="5.05167" stroke-width="0.5" stroke="black" fill="cyan"/>
   </g>
   <g id="cell59">
  <circle cx="514.048" cy="586.449" r="7.33129" stroke-width="0.5" stroke="black" fill="cyan"/>
  <circle cx="514.048" cy="586.449" r="4.45516" stroke-width="0.5" stroke="black" fill="cyan"/>
   </g>
   <g id="cell60">
  <circle cx="521.564" cy="431.263" r="8.41271" stroke-width="0.5" stroke="black" fill="cyan"/>
  <circle cx="521.564" cy="431.263" r="5.05167" stroke-width="0.5" stroke="black" fill="cyan"/>
   </g>
   <g id="cell61">
  <circle cx="648.497" cy="519.07" r="8.41271" stroke-width="0.5" stroke="black" fill="cyan"/>
  <circle cx="648.497" cy="519.07" r="5.05167" stroke-width="0.5" stroke="black" fill="cyan"/>
   </g>
   <g id="cell62">
  <circle cx="532.533" cy="362.003" r="8.41271" stroke-width="0.5" stroke="black" fill="cyan"/>
  <circle cx="532.533" cy="362.003" r="5.05167" stroke-width="0.5" stroke="black" fill="cyan"/>
   </g>
   <g id="cell63">
  <circle cx="569.847" cy="537.069" r="8.41271" stroke-width="0.5" stroke="black" fill="cyan"/>
  <circle cx="569.847" cy="537.069" r="5.05167" stroke-width="0.5" stroke="black" fill="cyan"/>
   </g>
   <g id="cell64">
  <circle cx="403.014" cy="601.349" r="8.41271" stroke-width="0.5" stroke="black" fill="cyan"/>
  <circle cx="403.014" cy="601.349" r="5.05167" stroke-width="0.5" stroke="black" fill="cyan"/>
   </g>
   <g id="cell65">
  <circle cx="510.274" cy="488.007" r="8.41271" stroke-width="0.5" stroke="black" fill="cyan"/>
  <circle cx="510.274" cy="488.007" r="5.05167" stroke-width="0.5" stroke="black" fill="cyan"/>
   </g>
   <g id="cell66">
  <circle cx="515.642" cy="472.76" r="8.41271" stroke-width="0.5" stroke="black" fill="cyan"/>
  <circle cx="515.642" cy="472.76" r="5.05167" stroke-width="0.5" stroke="black" fill="cyan"/>
   </g>
   <g id="cell67">
  <circle cx="433.233" cy="423.748" r="8.41271" stroke-width="0.5" stroke="black" fill="cyan"/>
  <circle cx="433.233" cy="423.748" r="5.05167" stroke-width="0.5" stroke="black" fill="cyan"/>
   </g>
   <g id="cell68">
  <circle cx="401.492" cy="488.861" r="8.41271" stroke-width="0.5" stroke="black" fill="cyan"/>
  <circle cx="401.492" cy="488.861" r="5.05167" stroke-width="0.5" stroke="black" fill="cyan"/>
   </g>
   <g id="cell69">
  <circle cx="602.076" cy="438.778" r="8.11327" stroke-width="0.5" stroke="black" fill="cyan"/>
  <circle cx="602.076" cy="438.778" r="4.91006" stroke-width="0.5" stroke="black" fill="cyan"/>
   </g>
   <g id="cell70">
  <circle cx="377.929" cy="439.797" r="8.41271" stroke-width="0.5" stroke="black" fill="cyan"/>
  <circle cx="377.929" cy="439.797" r="5.05167" stroke-width="0.5" stroke="black" fill="cyan"/>
   </g>
   <g id="cell71">
  <circle cx="407.127" cy="503.807" r="8.41271" stroke-width="0.5" stroke="black" fill="cyan"/>
  <circle cx="407.127" cy="503.807" r="5.05167" stroke-width="0.5" stroke="black" fill="cyan"/>
   </g>
   <g id="cell72">
  <circle cx="616.891" cy="433.521" r="8.41271" stroke-width="0.5" stroke="black" fill="cyan"/>
  <circle cx="616.891" cy="433.521" r="5.05167" stroke-width="0.5" stroke="black" fill="cyan"/>
   </g>
   <g id="cell73">
  <circle cx="421.497" cy="510.281" r="8.41271" stroke-width="0.5" stroke="black" fill="cyan"/>
  <circle cx="421.497" cy="510.281" r="5.05167" stroke-width="0.5" stroke="black" fill="cyan"/>
   </g>
   <g id="cell74">
  <circle cx="430.761" cy="490.705" r="8.41271" stroke-width="0.5" stroke="black" fill="cyan"/>
  <circle cx="430.761" cy="490.705" r="5.05167" stroke-width="0.5" stroke="black" fill="cyan"/>
   </g>
   <g id="cell75">
  <circle cx="462.949" cy="589.183" r="8.13813" stroke-width="0.5" stroke="black" fill="green"/>
  <circle cx="462.949" cy="589.183" r="4.92317" stroke-width="0.5" stroke="black" fill="green"/>
   </g>
   <g id="cell76">
  <circle cx="604.81" cy="423.553" r="8.11327" stroke-width="0.5" stroke="black" fill="cyan"/>
  <circle cx="604.81" cy="423.553" r="4.91006" stroke-width="0.5" stroke="black" fill="cyan"/>
   </g>
   <g id="cell77">
  <circle cx="463.129" cy="529.613" r="6.47819" stroke-width="0.5" stroke="black" fill="green"/>
  <circle cx="463.129" cy="529.613" r="3.92874" stroke-width="0.5" stroke="black" fill="green"/>
   </g>
   <g id="cell78">
  <circle cx="578.203" cy="414.278" r="7.0993" stroke-width="0.5" stroke="black" fill="green"/>
  <circle cx="578.203" cy="414.278" r="4.3419" stroke-width="0.5" stroke="black" fill="green"/>
   </g>
   <g id="cell79">
  <circle cx="416.465" cy="484.358" r="8.04604" stroke-width="0.5" stroke="black" fill="cyan"/>
  <circle cx="416.465" cy="484.358" r="4.87399" stroke-width="0.5" stroke="black" fill="cyan"/>
   </g>
   <g id="cell80">
  <circle cx="621.799" cy="505.957" r="8.03527" stroke-width="0.5" stroke="black" fill="magenta"/>
  <circle cx="621.799" cy="505.957" r="4.86813" stroke-width="0.5" stroke="black" fill="magenta"/>
   </g>
   <g id="cell81">
  <circle cx="438.653" cy="444.745" r="7.7401" stroke-width="0.5" stroke="black" fill="magenta"/>
  <circle cx="438.653" cy="444.745" r="4.70142" stroke-width="0.5" stroke="black" fill="magenta"/>
   </g>
   <g id="cell82">
  <circle cx="537.632" cy="602.097" r="7.67987" stroke-width="0.5" stroke="black" fill="cyan"/>
  <circle cx="537.632" cy="602.097" r="4.66617" stroke-width="0.5" stroke="black" fill="cyan"/>
   </g>
   <g id="cell83">
  <circle cx="489.279" cy="582.695" r="7.56839" stroke-width="0.5" stroke="black" fill="magenta"/>
  <circle cx="489.279" cy="582.695" r="4.59998" stroke-width="0.5" stroke="black" fill="magenta"/>
   </g>
   <g id="cell84">
  <circle cx="546.87" cy="578.798" r="7.56839" stroke-width="0.5" stroke="black" fill="cyan"/>
  <circle cx="546.87" cy="578.798" r="4.59998" stroke-width="0.5" stroke="black" fill="cyan"/>
   </g>
   <g id="cell85">
  <circle cx="533.219" cy="575.663" r="7.07404" stroke-width="0.5" stroke="black" fill="cyan"/>
  <circle cx="533.219" cy="575.663" r="4.33631" stroke-width="0.5" stroke="black" fill="cyan"/>
   </g>
   <g id="cell86">
  <circle cx="645.749" cy="504.842" r="7.33129" stroke-width="0.5" stroke="black" fill="magenta"/>
  <circle cx="645.749" cy="504.842" r="4.45516" stroke-width="0.5" stroke="black" fill="magenta"/>
   </g>
   <g id="cell87">
  <circle cx="576.389" cy="427.551" r="7.0993" stroke-width="0.5" stroke="black" fill="green"/>
  <circle cx="576.389" cy="427.551" r="4.3419" stroke-width="0.5" stroke="black" fill="green"/>
   </g>
   <g id="cell88">
  <circle cx="525.225" cy="594.665" r="7.33129" stroke-width="0.5" stroke="black" fill="cyan"/>
  <circle cx="525.225" cy="594.665" r="4.45516" stroke-width="0.5" stroke="black" fill="cyan"/>
   </g>
   <g id="cell89">
  <circle cx="556.921" cy="464.72" r="6.80881" stroke-width="0.5" stroke="black" fill="magenta"/>
  <circle cx="556.921" cy="464.72" r="4.10709" stroke-width="0.5" stroke="black" fill="magenta"/>
   </g>
   <g id="cell90">
  <circle cx="471.708" cy="538.08" r="6.47819" stroke-width="0.5" stroke="black" fill="green"/>
  <circle cx="471.708" cy="538.08" r="3.92874" stroke-width="0.5" stroke="black" fill="green"/>
   </g>
   <g id="cell91">
  <circle cx="423.9" cy="537.313" r="6.71158" stroke-width="0.5" stroke="black" fill="magenta"/>
  <circle cx="423.9" cy="537.313" r="4.03435" stroke-width="0.5" stroke="black" fill="magenta"/>
   </g>
  </g>
 </g>
  <rect x="775" y="1035" width="200" height="10" stroke-width="2" stroke="rgb(255,255,255)" fill="rgb(0,0,0)"/>
  <text x="781.25" y="1028.75"
   font-family="Arial" font-size="25" fill="black" >
   200 &#956;m
  </text>
  <text x="25" y="1045"
   font-family="Arial" font-size="18.75" fill="black" >
   0 days, 0 hours, 0 minutes, and 8.7897 seconds
  </text>
  <rect x="0" y="70" width="1000" height="1000" stroke-width="2" stroke="rgb(0,0,0)" fill="none"/>
</svg>
