<?xml version="1.0" encoding="UTF-8" standalone="no"?>
<!-- Created with PhysiCell (http://PhysiCell.MathCancer.org/) -->
<svg 
 xmlns:dc="http://purl.org/dc/elements/1.1/" 
 xmlns:cc="http://creativecommons.org/ns#" 
 xmlns:rdf="http://www.w3.org/1999/02/22-rdf-syntax-ns#" 
 xmlns:svg="http://www.w3.org/2000/svg" 
 xmlns="http://www.w3.org/2000/svg" 
 version="1.1" 
 width="1000" 
 height="1070" 
 id="svg2">
  <rect x="0" y="0" width="1000" height="1070" stroke-width="2" stroke="white" fill="white"/>
  <text x="12.5" y="30"
   font-family="Arial" font-size="25" fill="black" >
   Current time: 1 days, 12 hours, and 30.00 minutes, z = 0.00 &#956;m
  </text>
  <text x="12.5" y="57.5"
   font-family="Arial" font-size="23.75" fill="black" >
   204 agents
  </text>
 <g id="tissue" 
    transform="translate(0,1070) scale(1,-1)">
  <g id="ECM">
  </g>
  <g id="cells">
   <g id="cell0">
  <circle cx="508.038" cy="549.003" r="8.41253" stroke-width="0.5" stroke="black" fill="magenta"/>
  <circle cx="508.038" cy="549.003" r="5.05163" stroke-width="0.5" stroke="black" fill="magenta"/>
   </g>
   <g id="cell1">
  <circle cx="613.229" cy="539.792" r="8.20069" stroke-width="0.5" stroke="black" fill="magenta"/>
  <circle cx="613.229" cy="539.792" r="4.95665" stroke-width="0.5" stroke="black" fill="magenta"/>
   </g>
   <g id="cell2">
  <circle cx="508.278" cy="602.444" r="8.40864" stroke-width="0.5" stroke="black" fill="magenta"/>
  <circle cx="508.278" cy="602.444" r="5.05053" stroke-width="0.5" stroke="black" fill="magenta"/>
   </g>
   <g id="cell3">
  <circle cx="524.408" cy="542.023" r="6.73287" stroke-width="0.5" stroke="black" fill="magenta"/>
  <circle cx="524.408" cy="542.023" r="4.05039" stroke-width="0.5" stroke="black" fill="magenta"/>
   </g>
   <g id="cell4">
  <circle cx="474.191" cy="437.236" r="8.41271" stroke-width="0.5" stroke="black" fill="magenta"/>
  <circle cx="474.191" cy="437.236" r="5.05167" stroke-width="0.5" stroke="black" fill="magenta"/>
   </g>
   <g id="cell5">
  <circle cx="455.464" cy="494.45" r="8.4071" stroke-width="0.5" stroke="black" fill="magenta"/>
  <circle cx="455.464" cy="494.45" r="5.05002" stroke-width="0.5" stroke="black" fill="magenta"/>
   </g>
   <g id="cell6">
  <circle cx="580.341" cy="519.381" r="8.4076" stroke-width="0.5" stroke="black" fill="magenta"/>
  <circle cx="580.341" cy="519.381" r="5.05018" stroke-width="0.5" stroke="black" fill="magenta"/>
   </g>
   <g id="cell7">
  <circle cx="498.259" cy="456.836" r="8.38574" stroke-width="0.5" stroke="black" fill="magenta"/>
  <circle cx="498.259" cy="456.836" r="5.04259" stroke-width="0.5" stroke="black" fill="magenta"/>
   </g>
   <g id="cell8">
  <circle cx="387.759" cy="538.88" r="8.40915" stroke-width="0.5" stroke="black" fill="magenta"/>
  <circle cx="387.759" cy="538.88" r="5.05068" stroke-width="0.5" stroke="black" fill="magenta"/>
   </g>
   <g id="cell9">
  <circle cx="461.645" cy="594.054" r="8.36458" stroke-width="0.5" stroke="black" fill="magenta"/>
  <circle cx="461.645" cy="594.054" r="5.03347" stroke-width="0.5" stroke="black" fill="magenta"/>
   </g>
   <g id="cell10">
  <circle cx="574.682" cy="391.373" r="8.347" stroke-width="0.5" stroke="black" fill="magenta"/>
  <circle cx="574.682" cy="391.373" r="5.02586" stroke-width="0.5" stroke="black" fill="magenta"/>
   </g>
   <g id="cell11">
  <circle cx="589.748" cy="590.273" r="8.41271" stroke-width="0.5" stroke="black" fill="magenta"/>
  <circle cx="589.748" cy="590.273" r="5.05167" stroke-width="0.5" stroke="black" fill="magenta"/>
   </g>
   <g id="cell12">
  <circle cx="498.509" cy="591.471" r="6.8041" stroke-width="0.5" stroke="black" fill="magenta"/>
  <circle cx="498.509" cy="591.471" r="4.10569" stroke-width="0.5" stroke="black" fill="magenta"/>
   </g>
   <g id="cell13">
  <circle cx="378.883" cy="564.474" r="8.41271" stroke-width="0.5" stroke="black" fill="magenta"/>
  <circle cx="378.883" cy="564.474" r="5.05167" stroke-width="0.5" stroke="black" fill="magenta"/>
   </g>
   <g id="cell14">
  <circle cx="531.549" cy="398.046" r="8.41271" stroke-width="0.5" stroke="black" fill="magenta"/>
  <circle cx="531.549" cy="398.046" r="5.05167" stroke-width="0.5" stroke="black" fill="magenta"/>
   </g>
   <g id="cell15">
  <circle cx="394.355" cy="475.694" r="6.76769" stroke-width="0.5" stroke="black" fill="magenta"/>
  <circle cx="394.355" cy="475.694" r="4.09112" stroke-width="0.5" stroke="black" fill="magenta"/>
   </g>
   <g id="cell16">
  <circle cx="426.471" cy="412.168" r="8.25826" stroke-width="0.5" stroke="black" fill="magenta"/>
  <circle cx="426.471" cy="412.168" r="4.98429" stroke-width="0.5" stroke="black" fill="magenta"/>
   </g>
   <g id="cell17">
  <circle cx="599.35" cy="501.469" r="8.39656" stroke-width="0.5" stroke="black" fill="magenta"/>
  <circle cx="599.35" cy="501.469" r="5.04637" stroke-width="0.5" stroke="black" fill="magenta"/>
   </g>
   <g id="cell18">
  <circle cx="526.662" cy="383.731" r="8.37742" stroke-width="0.5" stroke="black" fill="magenta"/>
  <circle cx="526.662" cy="383.731" r="5.03881" stroke-width="0.5" stroke="black" fill="magenta"/>
   </g>
   <g id="cell19">
  <circle cx="447.25" cy="535.279" r="6.59383" stroke-width="0.5" stroke="black" fill="magenta"/>
  <circle cx="447.25" cy="535.279" r="4.00019" stroke-width="0.5" stroke="black" fill="magenta"/>
   </g>
   <g id="cell20">
  <circle cx="521.086" cy="408.16" r="7.89373" stroke-width="0.5" stroke="black" fill="magenta"/>
  <circle cx="521.086" cy="408.16" r="4.78957" stroke-width="0.5" stroke="black" fill="magenta"/>
   </g>
   <g id="cell21">
  <circle cx="464.744" cy="634.154" r="8.41271" stroke-width="0.5" stroke="black" fill="magenta"/>
  <circle cx="464.744" cy="634.154" r="5.05167" stroke-width="0.5" stroke="black" fill="magenta"/>
   </g>
   <g id="cell22">
  <circle cx="559.418" cy="498.735" r="8.41262" stroke-width="0.5" stroke="black" fill="magenta"/>
  <circle cx="559.418" cy="498.735" r="5.05165" stroke-width="0.5" stroke="black" fill="magenta"/>
   </g>
   <g id="cell23">
  <circle cx="520.455" cy="489.275" r="8.41271" stroke-width="0.5" stroke="black" fill="magenta"/>
  <circle cx="520.455" cy="489.275" r="5.05167" stroke-width="0.5" stroke="black" fill="magenta"/>
   </g>
   <g id="cell24">
  <circle cx="560.397" cy="386.598" r="8.41271" stroke-width="0.5" stroke="black" fill="magenta"/>
  <circle cx="560.397" cy="386.598" r="5.05167" stroke-width="0.5" stroke="black" fill="magenta"/>
   </g>
   <g id="cell25">
  <circle cx="640.943" cy="550.03" r="8.41271" stroke-width="0.5" stroke="black" fill="green"/>
  <circle cx="640.943" cy="550.03" r="5.05167" stroke-width="0.5" stroke="black" fill="green"/>
   </g>
   <g id="cell26">
  <circle cx="546.478" cy="393.548" r="8.41221" stroke-width="0.5" stroke="black" fill="green"/>
  <circle cx="546.478" cy="393.548" r="5.05155" stroke-width="0.5" stroke="black" fill="green"/>
   </g>
   <g id="cell27">
  <circle cx="455.634" cy="381.817" r="8.40485" stroke-width="0.5" stroke="black" fill="green"/>
  <circle cx="455.634" cy="381.817" r="5.04932" stroke-width="0.5" stroke="black" fill="green"/>
   </g>
   <g id="cell28">
  <circle cx="434.655" cy="529.714" r="8.41271" stroke-width="0.5" stroke="black" fill="green"/>
  <circle cx="434.655" cy="529.714" r="5.05167" stroke-width="0.5" stroke="black" fill="green"/>
   </g>
   <g id="cell29">
  <circle cx="449.492" cy="521.737" r="8.41271" stroke-width="0.5" stroke="black" fill="green"/>
  <circle cx="449.492" cy="521.737" r="5.05167" stroke-width="0.5" stroke="black" fill="green"/>
   </g>
   <g id="cell127">
  <circle cx="393.179" cy="567.286" r="7.75708" stroke-width="0.5" stroke="black" fill="magenta"/>
  <circle cx="393.179" cy="567.286" r="4.72054" stroke-width="0.5" stroke="black" fill="magenta"/>
   </g>
   <g id="cell31">
  <circle cx="406.461" cy="543.615" r="8.20088" stroke-width="0.5" stroke="black" fill="green"/>
  <circle cx="406.461" cy="543.615" r="4.95562" stroke-width="0.5" stroke="black" fill="green"/>
   </g>
   <g id="cell122">
  <circle cx="574.313" cy="495.163" r="8.39097" stroke-width="0.5" stroke="black" fill="magenta"/>
  <circle cx="574.313" cy="495.163" r="5.04456" stroke-width="0.5" stroke="black" fill="magenta"/>
   </g>
   <g id="cell33">
  <circle cx="491.034" cy="415.507" r="8.40826" stroke-width="0.5" stroke="black" fill="green"/>
  <circle cx="491.034" cy="415.507" r="5.05039" stroke-width="0.5" stroke="black" fill="green"/>
   </g>
   <g id="cell34">
  <circle cx="407.562" cy="454.752" r="6.89438" stroke-width="0.5" stroke="black" fill="green"/>
  <circle cx="407.562" cy="454.752" r="4.16954" stroke-width="0.5" stroke="black" fill="green"/>
   </g>
   <g id="cell35">
  <circle cx="554.781" cy="552.429" r="8.41263" stroke-width="0.5" stroke="black" fill="green"/>
  <circle cx="554.781" cy="552.429" r="5.05165" stroke-width="0.5" stroke="black" fill="green"/>
   </g>
   <g id="cell36">
  <circle cx="384.287" cy="579.225" r="8.41271" stroke-width="0.5" stroke="black" fill="green"/>
  <circle cx="384.287" cy="579.225" r="5.05167" stroke-width="0.5" stroke="black" fill="green"/>
   </g>
   <g id="cell37">
  <circle cx="631.599" cy="453.567" r="8.4124" stroke-width="0.5" stroke="black" fill="green"/>
  <circle cx="631.599" cy="453.567" r="5.0516" stroke-width="0.5" stroke="black" fill="green"/>
   </g>
   <g id="cell38">
  <circle cx="536.206" cy="592.08" r="8.38454" stroke-width="0.5" stroke="black" fill="green"/>
  <circle cx="536.206" cy="592.08" r="5.04168" stroke-width="0.5" stroke="black" fill="green"/>
   </g>
   <g id="cell39">
  <circle cx="614.448" cy="498.857" r="8.41059" stroke-width="0.5" stroke="black" fill="green"/>
  <circle cx="614.448" cy="498.857" r="5.05113" stroke-width="0.5" stroke="black" fill="green"/>
   </g>
   <g id="cell40">
  <circle cx="470.959" cy="581.423" r="8.28257" stroke-width="0.5" stroke="black" fill="green"/>
  <circle cx="470.959" cy="581.423" r="4.99609" stroke-width="0.5" stroke="black" fill="green"/>
   </g>
   <g id="cell41">
  <circle cx="376.546" cy="488.537" r="8.41241" stroke-width="0.5" stroke="black" fill="green"/>
  <circle cx="376.546" cy="488.537" r="5.0516" stroke-width="0.5" stroke="black" fill="green"/>
   </g>
   <g id="cell42">
  <circle cx="439.881" cy="495.177" r="8.41271" stroke-width="0.5" stroke="black" fill="green"/>
  <circle cx="439.881" cy="495.177" r="5.05167" stroke-width="0.5" stroke="black" fill="green"/>
   </g>
   <g id="cell43">
  <circle cx="560.307" cy="420.623" r="8.41256" stroke-width="0.5" stroke="black" fill="green"/>
  <circle cx="560.307" cy="420.623" r="5.05164" stroke-width="0.5" stroke="black" fill="green"/>
   </g>
   <g id="cell44">
  <circle cx="474.386" cy="621.899" r="8.41271" stroke-width="0.5" stroke="black" fill="green"/>
  <circle cx="474.386" cy="621.899" r="5.05167" stroke-width="0.5" stroke="black" fill="green"/>
   </g>
   <g id="cell45">
  <circle cx="417.434" cy="555.645" r="8.41271" stroke-width="0.5" stroke="black" fill="green"/>
  <circle cx="417.434" cy="555.645" r="5.05167" stroke-width="0.5" stroke="black" fill="green"/>
   </g>
   <g id="cell46">
  <circle cx="521.983" cy="611.556" r="8.41271" stroke-width="0.5" stroke="black" fill="green"/>
  <circle cx="521.983" cy="611.556" r="5.05167" stroke-width="0.5" stroke="black" fill="green"/>
   </g>
   <g id="cell47">
  <circle cx="506.468" cy="495.121" r="8.4126" stroke-width="0.5" stroke="black" fill="green"/>
  <circle cx="506.468" cy="495.121" r="5.05165" stroke-width="0.5" stroke="black" fill="green"/>
   </g>
   <g id="cell48">
  <circle cx="565.784" cy="601.198" r="8.41271" stroke-width="0.5" stroke="black" fill="green"/>
  <circle cx="565.784" cy="601.198" r="5.05167" stroke-width="0.5" stroke="black" fill="green"/>
   </g>
   <g id="cell49">
  <circle cx="430.11" cy="397.118" r="8.41271" stroke-width="0.5" stroke="black" fill="green"/>
  <circle cx="430.11" cy="397.118" r="5.05167" stroke-width="0.5" stroke="black" fill="green"/>
   </g>
   <g id="cell50">
  <circle cx="518.702" cy="504.806" r="8.41271" stroke-width="0.5" stroke="black" fill="cyan"/>
  <circle cx="518.702" cy="504.806" r="5.05167" stroke-width="0.5" stroke="black" fill="cyan"/>
   </g>
   <g id="cell51">
  <circle cx="392.585" cy="593.112" r="8.41271" stroke-width="0.5" stroke="black" fill="cyan"/>
  <circle cx="392.585" cy="593.112" r="5.05167" stroke-width="0.5" stroke="black" fill="cyan"/>
   </g>
   <g id="cell108">
  <circle cx="336.1" cy="545.045" r="1.87247" stroke-width="0.5" stroke="black" fill="cyan"/>
  <circle cx="336.1" cy="545.045" r="1.79926" stroke-width="0.5" stroke="black" fill="black"/>
   </g>
   <g id="cell53">
  <circle cx="582.345" cy="438.961" r="8.20689" stroke-width="0.5" stroke="black" fill="cyan"/>
  <circle cx="582.345" cy="438.961" r="4.95867" stroke-width="0.5" stroke="black" fill="cyan"/>
   </g>
   <g id="cell54">
  <circle cx="476.098" cy="421.645" r="8.41271" stroke-width="0.5" stroke="black" fill="cyan"/>
  <circle cx="476.098" cy="421.645" r="5.05167" stroke-width="0.5" stroke="black" fill="cyan"/>
   </g>
   <g id="cell55">
  <circle cx="523.023" cy="473.555" r="8.41061" stroke-width="0.5" stroke="black" fill="cyan"/>
  <circle cx="523.023" cy="473.555" r="5.05111" stroke-width="0.5" stroke="black" fill="cyan"/>
   </g>
   <g id="cell56">
  <circle cx="619.492" cy="525.481" r="8.41271" stroke-width="0.5" stroke="black" fill="cyan"/>
  <circle cx="619.492" cy="525.481" r="5.05167" stroke-width="0.5" stroke="black" fill="cyan"/>
   </g>
   <g id="cell57">
  <circle cx="416.924" cy="617.466" r="8.41271" stroke-width="0.5" stroke="black" fill="cyan"/>
  <circle cx="416.924" cy="617.466" r="5.05167" stroke-width="0.5" stroke="black" fill="cyan"/>
   </g>
   <g id="cell58">
  <circle cx="543.436" cy="472.647" r="8.41271" stroke-width="0.5" stroke="black" fill="cyan"/>
  <circle cx="543.436" cy="472.647" r="5.05167" stroke-width="0.5" stroke="black" fill="cyan"/>
   </g>
   <g id="cell59">
  <circle cx="393.824" cy="419.954" r="8.13982" stroke-width="0.5" stroke="black" fill="cyan"/>
  <circle cx="393.824" cy="419.954" r="4.92527" stroke-width="0.5" stroke="black" fill="cyan"/>
   </g>
   <g id="cell60">
  <circle cx="609.827" cy="470.564" r="8.2605" stroke-width="0.5" stroke="black" fill="cyan"/>
  <circle cx="609.827" cy="470.564" r="4.98781" stroke-width="0.5" stroke="black" fill="cyan"/>
   </g>
   <g id="cell61">
  <circle cx="564.95" cy="617.162" r="8.25826" stroke-width="0.5" stroke="black" fill="cyan"/>
  <circle cx="564.95" cy="617.162" r="4.98429" stroke-width="0.5" stroke="black" fill="cyan"/>
   </g>
   <g id="cell62">
  <circle cx="515.334" cy="435.58" r="8.31136" stroke-width="0.5" stroke="black" fill="cyan"/>
  <circle cx="515.334" cy="435.58" r="5.01131" stroke-width="0.5" stroke="black" fill="cyan"/>
   </g>
   <g id="cell63">
  <circle cx="601.795" cy="558.042" r="8.41172" stroke-width="0.5" stroke="black" fill="cyan"/>
  <circle cx="601.795" cy="558.042" r="5.05143" stroke-width="0.5" stroke="black" fill="cyan"/>
   </g>
   <g id="cell64">
  <circle cx="509.975" cy="633.464" r="8.41271" stroke-width="0.5" stroke="black" fill="cyan"/>
  <circle cx="509.975" cy="633.464" r="5.05167" stroke-width="0.5" stroke="black" fill="cyan"/>
   </g>
   <g id="cell65">
  <circle cx="533.015" cy="460.736" r="8.41271" stroke-width="0.5" stroke="black" fill="cyan"/>
  <circle cx="533.015" cy="460.736" r="5.05167" stroke-width="0.5" stroke="black" fill="cyan"/>
   </g>
   <g id="cell66">
  <circle cx="552.967" cy="536.529" r="8.41242" stroke-width="0.5" stroke="black" fill="cyan"/>
  <circle cx="552.967" cy="536.529" r="5.05161" stroke-width="0.5" stroke="black" fill="cyan"/>
   </g>
   <g id="cell67">
  <circle cx="364.537" cy="496.681" r="7.03155" stroke-width="0.5" stroke="black" fill="cyan"/>
  <circle cx="364.537" cy="496.681" r="4.27608" stroke-width="0.5" stroke="black" fill="cyan"/>
   </g>
   <g id="cell68">
  <circle cx="564.538" cy="571.758" r="8.1947" stroke-width="0.5" stroke="black" fill="cyan"/>
  <circle cx="564.538" cy="571.758" r="4.95246" stroke-width="0.5" stroke="black" fill="cyan"/>
   </g>
   <g id="cell69">
  <circle cx="440.316" cy="464.02" r="1.22147" stroke-width="0.5" stroke="black" fill="cyan"/>
  <circle cx="440.316" cy="464.02" r="1.21174" stroke-width="0.5" stroke="black" fill="black"/>
   </g>
   <g id="cell70">
  <circle cx="591.334" cy="474.854" r="8.41198" stroke-width="0.5" stroke="black" fill="cyan"/>
  <circle cx="591.334" cy="474.854" r="5.05149" stroke-width="0.5" stroke="black" fill="cyan"/>
   </g>
   <g id="cell71">
  <circle cx="371.881" cy="509.793" r="8.41185" stroke-width="0.5" stroke="black" fill="cyan"/>
  <circle cx="371.881" cy="509.793" r="5.05147" stroke-width="0.5" stroke="black" fill="cyan"/>
   </g>
   <g id="cell72">
  <circle cx="545.407" cy="519.135" r="7.14965" stroke-width="0.5" stroke="black" fill="cyan"/>
  <circle cx="545.407" cy="519.135" r="4.34" stroke-width="0.5" stroke="black" fill="cyan"/>
   </g>
   <g id="cell73">
  <circle cx="346.367" cy="556.32" r="8.41072" stroke-width="0.5" stroke="black" fill="cyan"/>
  <circle cx="346.367" cy="556.32" r="5.05115" stroke-width="0.5" stroke="black" fill="cyan"/>
   </g>
   <g id="cell74">
  <circle cx="536.764" cy="430.775" r="8.37321" stroke-width="0.5" stroke="black" fill="cyan"/>
  <circle cx="536.764" cy="430.775" r="5.03708" stroke-width="0.5" stroke="black" fill="cyan"/>
   </g>
   <g id="cell75">
  <circle cx="532.801" cy="498.654" r="8.41263" stroke-width="0.5" stroke="black" fill="cyan"/>
  <circle cx="532.801" cy="498.654" r="5.05166" stroke-width="0.5" stroke="black" fill="cyan"/>
   </g>
   <g id="cell195">
  <circle cx="497.676" cy="471.219" r="7.32232" stroke-width="0.5" stroke="black" fill="magenta"/>
  <circle cx="497.676" cy="471.219" r="4.4715" stroke-width="0.5" stroke="black" fill="magenta"/>
   </g>
   <g id="cell77">
  <circle cx="545.95" cy="505.637" r="8.40373" stroke-width="0.5" stroke="black" fill="magenta"/>
  <circle cx="545.95" cy="505.637" r="5.04889" stroke-width="0.5" stroke="black" fill="magenta"/>
   </g>
   <g id="cell78">
  <circle cx="343.394" cy="485.759" r="8.41262" stroke-width="0.5" stroke="black" fill="cyan"/>
  <circle cx="343.394" cy="485.759" r="5.05165" stroke-width="0.5" stroke="black" fill="cyan"/>
   </g>
   <g id="cell79">
  <circle cx="492.608" cy="499.507" r="7.62801" stroke-width="0.5" stroke="black" fill="green"/>
  <circle cx="492.608" cy="499.507" r="4.64163" stroke-width="0.5" stroke="black" fill="green"/>
   </g>
   <g id="cell80">
  <circle cx="465.682" cy="483.463" r="8.4126" stroke-width="0.5" stroke="black" fill="magenta"/>
  <circle cx="465.682" cy="483.463" r="5.05165" stroke-width="0.5" stroke="black" fill="magenta"/>
   </g>
   <g id="cell81">
  <circle cx="478.631" cy="554.859" r="8.4126" stroke-width="0.5" stroke="black" fill="green"/>
  <circle cx="478.631" cy="554.859" r="5.05165" stroke-width="0.5" stroke="black" fill="green"/>
   </g>
   <g id="cell82">
  <circle cx="566.108" cy="525.31" r="8.37946" stroke-width="0.5" stroke="black" fill="cyan"/>
  <circle cx="566.108" cy="525.31" r="5.03976" stroke-width="0.5" stroke="black" fill="cyan"/>
   </g>
   <g id="cell83">
  <circle cx="572.028" cy="450.538" r="8.41172" stroke-width="0.5" stroke="black" fill="green"/>
  <circle cx="572.028" cy="450.538" r="5.05143" stroke-width="0.5" stroke="black" fill="green"/>
   </g>
   <g id="cell84">
  <circle cx="512.791" cy="534.666" r="8.34864" stroke-width="0.5" stroke="black" fill="magenta"/>
  <circle cx="512.791" cy="534.666" r="5.02723" stroke-width="0.5" stroke="black" fill="magenta"/>
   </g>
   <g id="cell85">
  <circle cx="374.618" cy="550.099" r="8.41252" stroke-width="0.5" stroke="black" fill="magenta"/>
  <circle cx="374.618" cy="550.099" r="5.05163" stroke-width="0.5" stroke="black" fill="magenta"/>
   </g>
   <g id="cell86">
  <circle cx="604.137" cy="486.271" r="8.41251" stroke-width="0.5" stroke="black" fill="green"/>
  <circle cx="604.137" cy="486.271" r="5.05163" stroke-width="0.5" stroke="black" fill="green"/>
   </g>
   <g id="cell87">
  <circle cx="359.295" cy="546.759" r="8.41249" stroke-width="0.5" stroke="black" fill="cyan"/>
  <circle cx="359.295" cy="546.759" r="5.05162" stroke-width="0.5" stroke="black" fill="cyan"/>
   </g>
   <g id="cell88">
  <circle cx="538.671" cy="544.823" r="8.34496" stroke-width="0.5" stroke="black" fill="cyan"/>
  <circle cx="538.671" cy="544.823" r="5.02499" stroke-width="0.5" stroke="black" fill="cyan"/>
   </g>
   <g id="cell89">
  <circle cx="357.819" cy="466.435" r="8.41167" stroke-width="0.5" stroke="black" fill="green"/>
  <circle cx="357.819" cy="466.435" r="5.05142" stroke-width="0.5" stroke="black" fill="green"/>
   </g>
   <g id="cell90">
  <circle cx="641.452" cy="466.109" r="8.4124" stroke-width="0.5" stroke="black" fill="green"/>
  <circle cx="641.452" cy="466.109" r="5.0516" stroke-width="0.5" stroke="black" fill="green"/>
   </g>
   <g id="cell91">
  <circle cx="381.056" cy="523.599" r="8.41177" stroke-width="0.5" stroke="black" fill="cyan"/>
  <circle cx="381.056" cy="523.599" r="5.05145" stroke-width="0.5" stroke="black" fill="cyan"/>
   </g>
   <g id="cell92">
  <circle cx="507.982" cy="617.865" r="8.4123" stroke-width="0.5" stroke="black" fill="magenta"/>
  <circle cx="507.982" cy="617.865" r="5.05158" stroke-width="0.5" stroke="black" fill="magenta"/>
   </g>
   <g id="cell93">
  <circle cx="549.208" cy="409.207" r="8.36007" stroke-width="0.5" stroke="black" fill="green"/>
  <circle cx="549.208" cy="409.207" r="5.03159" stroke-width="0.5" stroke="black" fill="green"/>
   </g>
   <g id="cell94">
  <circle cx="388.04" cy="509.101" r="8.41185" stroke-width="0.5" stroke="black" fill="cyan"/>
  <circle cx="388.04" cy="509.101" r="5.05147" stroke-width="0.5" stroke="black" fill="cyan"/>
   </g>
   <g id="cell95">
  <circle cx="364.679" cy="533.015" r="6.67643" stroke-width="0.5" stroke="black" fill="cyan"/>
  <circle cx="364.679" cy="533.015" r="4.00934" stroke-width="0.5" stroke="black" fill="cyan"/>
   </g>
   <g id="cell96">
  <circle cx="578.898" cy="464.796" r="8.41025" stroke-width="0.5" stroke="black" fill="cyan"/>
  <circle cx="578.898" cy="464.796" r="5.05102" stroke-width="0.5" stroke="black" fill="cyan"/>
   </g>
   <g id="cell97">
  <circle cx="358.971" cy="483.039" r="8.41167" stroke-width="0.5" stroke="black" fill="green"/>
  <circle cx="358.971" cy="483.039" r="5.05142" stroke-width="0.5" stroke="black" fill="green"/>
   </g>
   <g id="cell98">
  <circle cx="588.267" cy="552.987" r="7.21122" stroke-width="0.5" stroke="black" fill="cyan"/>
  <circle cx="588.267" cy="552.987" r="4.37975" stroke-width="0.5" stroke="black" fill="cyan"/>
   </g>
   <g id="cell99">
  <circle cx="548.963" cy="458.644" r="8.41172" stroke-width="0.5" stroke="black" fill="green"/>
  <circle cx="548.963" cy="458.644" r="5.05143" stroke-width="0.5" stroke="black" fill="green"/>
   </g>
   <g id="cell100">
  <circle cx="637.058" cy="481.382" r="8.3249" stroke-width="0.5" stroke="black" fill="green"/>
  <circle cx="637.058" cy="481.382" r="5.01642" stroke-width="0.5" stroke="black" fill="green"/>
   </g>
   <g id="cell101">
  <circle cx="569.715" cy="509.484" r="8.41064" stroke-width="0.5" stroke="black" fill="magenta"/>
  <circle cx="569.715" cy="509.484" r="5.05114" stroke-width="0.5" stroke="black" fill="magenta"/>
   </g>
   <g id="cell102">
  <circle cx="461.088" cy="396.852" r="8.38885" stroke-width="0.5" stroke="black" fill="green"/>
  <circle cx="461.088" cy="396.852" r="5.04347" stroke-width="0.5" stroke="black" fill="green"/>
   </g>
   <g id="cell103">
  <circle cx="567.015" cy="542.044" r="8.41109" stroke-width="0.5" stroke="black" fill="cyan"/>
  <circle cx="567.015" cy="542.044" r="5.05126" stroke-width="0.5" stroke="black" fill="cyan"/>
   </g>
   <g id="cell104">
  <circle cx="630.321" cy="498.874" r="8.41059" stroke-width="0.5" stroke="black" fill="green"/>
  <circle cx="630.321" cy="498.874" r="5.05113" stroke-width="0.5" stroke="black" fill="green"/>
   </g>
   <g id="cell105">
  <circle cx="576.828" cy="480.221" r="8.40423" stroke-width="0.5" stroke="black" fill="magenta"/>
  <circle cx="576.828" cy="480.221" r="5.04918" stroke-width="0.5" stroke="black" fill="magenta"/>
   </g>
   <g id="cell106">
  <circle cx="532.876" cy="559.28" r="8.41089" stroke-width="0.5" stroke="black" fill="green"/>
  <circle cx="532.876" cy="559.28" r="5.0512" stroke-width="0.5" stroke="black" fill="green"/>
   </g>
   <g id="cell107">
  <circle cx="511.063" cy="587.614" r="8.41088" stroke-width="0.5" stroke="black" fill="magenta"/>
  <circle cx="511.063" cy="587.614" r="5.05119" stroke-width="0.5" stroke="black" fill="magenta"/>
   </g>
   <g id="cell109">
  <circle cx="512.892" cy="450.776" r="8.41061" stroke-width="0.5" stroke="black" fill="cyan"/>
  <circle cx="512.892" cy="450.776" r="5.05111" stroke-width="0.5" stroke="black" fill="cyan"/>
   </g>
   <g id="cell110">
  <circle cx="564.181" cy="470.195" r="8.41025" stroke-width="0.5" stroke="black" fill="cyan"/>
  <circle cx="564.181" cy="470.195" r="5.05102" stroke-width="0.5" stroke="black" fill="cyan"/>
   </g>
   <g id="cell111">
  <circle cx="564.669" cy="486.184" r="6.89419" stroke-width="0.5" stroke="black" fill="magenta"/>
  <circle cx="564.669" cy="486.184" r="4.16951" stroke-width="0.5" stroke="black" fill="magenta"/>
   </g>
   <g id="cell112">
  <circle cx="380.97" cy="456.269" r="8.40953" stroke-width="0.5" stroke="black" fill="green"/>
  <circle cx="380.97" cy="456.269" r="5.05079" stroke-width="0.5" stroke="black" fill="green"/>
   </g>
   <g id="cell113">
  <circle cx="389.186" cy="553.445" r="8.40338" stroke-width="0.5" stroke="black" fill="magenta"/>
  <circle cx="389.186" cy="553.445" r="5.04887" stroke-width="0.5" stroke="black" fill="magenta"/>
   </g>
   <g id="cell114">
  <circle cx="524.402" cy="583.241" r="7.73889" stroke-width="0.5" stroke="black" fill="magenta"/>
  <circle cx="524.402" cy="583.241" r="4.70501" stroke-width="0.5" stroke="black" fill="magenta"/>
   </g>
   <g id="cell115">
  <circle cx="503.313" cy="425.558" r="8.39101" stroke-width="0.5" stroke="black" fill="green"/>
  <circle cx="503.313" cy="425.558" r="5.04458" stroke-width="0.5" stroke="black" fill="green"/>
   </g>
   <g id="cell116">
  <circle cx="443.383" cy="479.648" r="8.40774" stroke-width="0.5" stroke="black" fill="cyan"/>
  <circle cx="443.383" cy="479.648" r="5.05022" stroke-width="0.5" stroke="black" fill="cyan"/>
   </g>
   <g id="cell117">
  <circle cx="609.386" cy="513.415" r="8.32765" stroke-width="0.5" stroke="black" fill="magenta"/>
  <circle cx="609.386" cy="513.415" r="5.0176" stroke-width="0.5" stroke="black" fill="magenta"/>
   </g>
   <g id="cell118">
  <circle cx="625.876" cy="469.728" r="8.40688" stroke-width="0.5" stroke="black" fill="green"/>
  <circle cx="625.876" cy="469.728" r="5.04999" stroke-width="0.5" stroke="black" fill="green"/>
   </g>
   <g id="cell119">
  <circle cx="499.811" cy="577.791" r="8.35364" stroke-width="0.5" stroke="black" fill="magenta"/>
  <circle cx="499.811" cy="577.791" r="5.02945" stroke-width="0.5" stroke="black" fill="magenta"/>
   </g>
   <g id="cell120">
  <circle cx="465.614" cy="493.652" r="2.78566" stroke-width="0.5" stroke="black" fill="magenta"/>
  <circle cx="465.614" cy="493.652" r="2.36618" stroke-width="0.5" stroke="black" fill="black"/>
   </g>
   <g id="cell121">
  <circle cx="446.65" cy="453.344" r="8.38419" stroke-width="0.5" stroke="black" fill="cyan"/>
  <circle cx="446.65" cy="453.344" r="5.04194" stroke-width="0.5" stroke="black" fill="cyan"/>
   </g>
   <g id="cell123">
  <circle cx="416.958" cy="464.704" r="8.36757" stroke-width="0.5" stroke="black" fill="cyan"/>
  <circle cx="416.958" cy="464.704" r="5.03539" stroke-width="0.5" stroke="black" fill="cyan"/>
   </g>
   <g id="cell124">
  <circle cx="445.641" cy="399.454" r="8.11758" stroke-width="0.5" stroke="black" fill="green"/>
  <circle cx="445.641" cy="399.454" r="4.91328" stroke-width="0.5" stroke="black" fill="green"/>
   </g>
   <g id="cell125">
  <circle cx="485.921" cy="447.521" r="8.32548" stroke-width="0.5" stroke="black" fill="green"/>
  <circle cx="485.921" cy="447.521" r="5.01693" stroke-width="0.5" stroke="black" fill="green"/>
   </g>
   <g id="cell126">
  <circle cx="486.511" cy="584.689" r="8.3505" stroke-width="0.5" stroke="black" fill="magenta"/>
  <circle cx="486.511" cy="584.689" r="5.02809" stroke-width="0.5" stroke="black" fill="magenta"/>
   </g>
   <g id="cell128">
  <circle cx="533.962" cy="483.797" r="8.35427" stroke-width="0.5" stroke="black" fill="magenta"/>
  <circle cx="533.962" cy="483.797" r="5.02959" stroke-width="0.5" stroke="black" fill="magenta"/>
   </g>
   <g id="cell129">
  <circle cx="531.52" cy="514.079" r="8.40206" stroke-width="0.5" stroke="black" fill="magenta"/>
  <circle cx="531.52" cy="514.079" r="5.04831" stroke-width="0.5" stroke="black" fill="magenta"/>
   </g>
   <g id="cell130">
  <circle cx="364.601" cy="447.287" r="8.38846" stroke-width="0.5" stroke="black" fill="cyan"/>
  <circle cx="364.601" cy="447.287" r="5.04359" stroke-width="0.5" stroke="black" fill="cyan"/>
   </g>
   <g id="cell131">
  <circle cx="604.399" cy="527.932" r="8.4009" stroke-width="0.5" stroke="black" fill="magenta"/>
  <circle cx="604.399" cy="527.932" r="5.04788" stroke-width="0.5" stroke="black" fill="magenta"/>
   </g>
   <g id="cell132">
  <circle cx="508.767" cy="480.012" r="8.39794" stroke-width="0.5" stroke="black" fill="magenta"/>
  <circle cx="508.767" cy="480.012" r="5.04681" stroke-width="0.5" stroke="black" fill="magenta"/>
   </g>
   <g id="cell133">
  <circle cx="584.823" cy="505.173" r="8.39656" stroke-width="0.5" stroke="black" fill="magenta"/>
  <circle cx="584.823" cy="505.173" r="5.04637" stroke-width="0.5" stroke="black" fill="magenta"/>
   </g>
   <g id="cell134">
  <circle cx="488.526" cy="431.436" r="8.39101" stroke-width="0.5" stroke="black" fill="green"/>
  <circle cx="488.526" cy="431.436" r="5.04458" stroke-width="0.5" stroke="black" fill="green"/>
   </g>
   <g id="cell135">
  <circle cx="588.687" cy="490.292" r="8.39097" stroke-width="0.5" stroke="black" fill="magenta"/>
  <circle cx="588.687" cy="490.292" r="5.04456" stroke-width="0.5" stroke="black" fill="magenta"/>
   </g>
   <g id="cell136">
  <circle cx="378.976" cy="440.715" r="8.38846" stroke-width="0.5" stroke="black" fill="cyan"/>
  <circle cx="378.976" cy="440.715" r="5.04359" stroke-width="0.5" stroke="black" fill="cyan"/>
   </g>
   <g id="cell137">
  <circle cx="494.737" cy="484.974" r="8.22352" stroke-width="0.5" stroke="black" fill="magenta"/>
  <circle cx="494.737" cy="484.974" r="4.97147" stroke-width="0.5" stroke="black" fill="magenta"/>
   </g>
   <g id="cell138">
  <circle cx="474.242" cy="388.027" r="8.29087" stroke-width="0.5" stroke="black" fill="green"/>
  <circle cx="474.242" cy="388.027" r="5.0016" stroke-width="0.5" stroke="black" fill="green"/>
   </g>
   <g id="cell139">
  <circle cx="453.954" cy="467.683" r="8.38419" stroke-width="0.5" stroke="black" fill="cyan"/>
  <circle cx="453.954" cy="467.683" r="5.04194" stroke-width="0.5" stroke="black" fill="cyan"/>
   </g>
   <g id="cell140">
  <circle cx="542.054" cy="616.089" r="7.14335" stroke-width="0.5" stroke="black" fill="green"/>
  <circle cx="542.054" cy="616.089" r="4.37161" stroke-width="0.5" stroke="black" fill="green"/>
   </g>
   <g id="cell141">
  <circle cx="589.772" cy="530.708" r="8.37946" stroke-width="0.5" stroke="black" fill="cyan"/>
  <circle cx="589.772" cy="530.708" r="5.03976" stroke-width="0.5" stroke="black" fill="cyan"/>
   </g>
   <g id="cell185">
  <circle cx="570.883" cy="631.319" r="7.89122" stroke-width="0.5" stroke="black" fill="cyan"/>
  <circle cx="570.883" cy="631.319" r="4.79835" stroke-width="0.5" stroke="black" fill="cyan"/>
   </g>
   <g id="cell143">
  <circle cx="527.755" cy="445.436" r="8.38028" stroke-width="0.5" stroke="black" fill="cyan"/>
  <circle cx="527.755" cy="445.436" r="5.03997" stroke-width="0.5" stroke="black" fill="cyan"/>
   </g>
   <g id="cell144">
  <circle cx="517.098" cy="394.737" r="7.87373" stroke-width="0.5" stroke="black" fill="magenta"/>
  <circle cx="517.098" cy="394.737" r="4.78208" stroke-width="0.5" stroke="black" fill="magenta"/>
   </g>
   <g id="cell145">
  <circle cx="557.423" cy="446.442" r="8.00252" stroke-width="0.5" stroke="black" fill="cyan"/>
  <circle cx="557.423" cy="446.442" r="4.85394" stroke-width="0.5" stroke="black" fill="cyan"/>
   </g>
   <g id="cell146">
  <circle cx="421.862" cy="447.156" r="8.36757" stroke-width="0.5" stroke="black" fill="cyan"/>
  <circle cx="421.862" cy="447.156" r="5.03539" stroke-width="0.5" stroke="black" fill="cyan"/>
   </g>
   <g id="cell147">
  <circle cx="533.465" cy="573.654" r="6.95979" stroke-width="0.5" stroke="black" fill="green"/>
  <circle cx="533.465" cy="573.654" r="4.22315" stroke-width="0.5" stroke="black" fill="green"/>
   </g>
   <g id="cell148">
  <circle cx="589.818" cy="453.268" r="8.36972" stroke-width="0.5" stroke="black" fill="cyan"/>
  <circle cx="589.818" cy="453.268" r="5.03563" stroke-width="0.5" stroke="black" fill="cyan"/>
   </g>
   <g id="cell149">
  <circle cx="468.019" cy="607.792" r="8.29839" stroke-width="0.5" stroke="black" fill="magenta"/>
  <circle cx="468.019" cy="607.792" r="5.00572" stroke-width="0.5" stroke="black" fill="magenta"/>
   </g>
   <g id="cell150">
  <circle cx="474.535" cy="517.938" r="8.36173" stroke-width="0.5" stroke="black" fill="green"/>
  <circle cx="474.535" cy="517.938" r="5.03226" stroke-width="0.5" stroke="black" fill="green"/>
   </g>
   <g id="cell151">
  <circle cx="563.287" cy="401.886" r="8.36007" stroke-width="0.5" stroke="black" fill="green"/>
  <circle cx="563.287" cy="401.886" r="5.03159" stroke-width="0.5" stroke="black" fill="green"/>
   </g>
   <g id="cell152">
  <circle cx="503.451" cy="563.371" r="8.16367" stroke-width="0.5" stroke="black" fill="magenta"/>
  <circle cx="503.451" cy="563.371" r="4.9407" stroke-width="0.5" stroke="black" fill="magenta"/>
   </g>
   <g id="cell153">
  <circle cx="546.711" cy="490.932" r="8.35427" stroke-width="0.5" stroke="black" fill="magenta"/>
  <circle cx="546.711" cy="490.932" r="5.02959" stroke-width="0.5" stroke="black" fill="magenta"/>
   </g>
   <g id="cell154">
  <circle cx="371.227" cy="473.965" r="8.35882" stroke-width="0.5" stroke="black" fill="magenta"/>
  <circle cx="371.227" cy="473.965" r="5.031" stroke-width="0.5" stroke="black" fill="magenta"/>
   </g>
   <g id="cell155">
  <circle cx="476.383" cy="595.592" r="8.3505" stroke-width="0.5" stroke="black" fill="magenta"/>
  <circle cx="476.383" cy="595.592" r="5.02809" stroke-width="0.5" stroke="black" fill="magenta"/>
   </g>
   <g id="cell156">
  <circle cx="515.493" cy="519.514" r="8.34864" stroke-width="0.5" stroke="black" fill="magenta"/>
  <circle cx="515.493" cy="519.514" r="5.02723" stroke-width="0.5" stroke="black" fill="magenta"/>
   </g>
   <g id="cell157">
  <circle cx="510.34" cy="465.43" r="8.33696" stroke-width="0.5" stroke="black" fill="magenta"/>
  <circle cx="510.34" cy="465.43" r="5.02283" stroke-width="0.5" stroke="black" fill="magenta"/>
   </g>
   <g id="cell158">
  <circle cx="589.563" cy="393.372" r="8.347" stroke-width="0.5" stroke="black" fill="magenta"/>
  <circle cx="589.563" cy="393.372" r="5.02586" stroke-width="0.5" stroke="black" fill="magenta"/>
   </g>
   <g id="cell159">
  <circle cx="526.812" cy="528.736" r="8.34496" stroke-width="0.5" stroke="black" fill="cyan"/>
  <circle cx="526.812" cy="528.736" r="5.02499" stroke-width="0.5" stroke="black" fill="cyan"/>
   </g>
   <g id="cell160">
  <circle cx="342.862" cy="501.663" r="8.33476" stroke-width="0.5" stroke="black" fill="cyan"/>
  <circle cx="342.862" cy="501.663" r="5.02041" stroke-width="0.5" stroke="black" fill="cyan"/>
   </g>
   <g id="cell161">
  <circle cx="500.53" cy="441.386" r="8.32548" stroke-width="0.5" stroke="black" fill="green"/>
  <circle cx="500.53" cy="441.386" r="5.01693" stroke-width="0.5" stroke="black" fill="green"/>
   </g>
   <g id="cell162">
  <circle cx="594.945" cy="516.085" r="8.32765" stroke-width="0.5" stroke="black" fill="magenta"/>
  <circle cx="594.945" cy="516.085" r="5.0176" stroke-width="0.5" stroke="black" fill="magenta"/>
   </g>
   <g id="cell163">
  <circle cx="523.571" cy="422.609" r="8.31136" stroke-width="0.5" stroke="black" fill="cyan"/>
  <circle cx="523.571" cy="422.609" r="5.01131" stroke-width="0.5" stroke="black" fill="cyan"/>
   </g>
   <g id="cell164">
  <circle cx="621.764" cy="485.079" r="8.3249" stroke-width="0.5" stroke="black" fill="green"/>
  <circle cx="621.764" cy="485.079" r="5.01642" stroke-width="0.5" stroke="black" fill="green"/>
   </g>
   <g id="cell165">
  <circle cx="453.22" cy="606.466" r="8.29839" stroke-width="0.5" stroke="black" fill="magenta"/>
  <circle cx="453.22" cy="606.466" r="5.00572" stroke-width="0.5" stroke="black" fill="magenta"/>
   </g>
   <g id="cell166">
  <circle cx="399.787" cy="579.742" r="8.17875" stroke-width="0.5" stroke="black" fill="magenta"/>
  <circle cx="399.787" cy="579.742" r="4.94943" stroke-width="0.5" stroke="black" fill="magenta"/>
   </g>
   <g id="cell167">
  <circle cx="468.969" cy="373.166" r="8.29087" stroke-width="0.5" stroke="black" fill="green"/>
  <circle cx="468.969" cy="373.166" r="5.0016" stroke-width="0.5" stroke="black" fill="green"/>
   </g>
   <g id="cell168">
  <circle cx="605.718" cy="455.146" r="8.2605" stroke-width="0.5" stroke="black" fill="cyan"/>
  <circle cx="605.718" cy="455.146" r="4.98781" stroke-width="0.5" stroke="black" fill="cyan"/>
   </g>
   <g id="cell169">
  <circle cx="488.57" cy="567.393" r="8.28257" stroke-width="0.5" stroke="black" fill="green"/>
  <circle cx="488.57" cy="567.393" r="4.99609" stroke-width="0.5" stroke="black" fill="green"/>
   </g>
   <g id="cell170">
  <circle cx="486.416" cy="464.501" r="7.32232" stroke-width="0.5" stroke="black" fill="magenta"/>
  <circle cx="486.416" cy="464.501" r="4.4715" stroke-width="0.5" stroke="black" fill="magenta"/>
   </g>
   <g id="cell171">
  <circle cx="433.747" cy="419.317" r="3.05661" stroke-width="0.5" stroke="black" fill="magenta"/>
  <circle cx="433.747" cy="419.317" r="2.4793" stroke-width="0.5" stroke="black" fill="black"/>
   </g>
   <g id="cell172">
  <circle cx="542.399" cy="629.854" r="7.45981" stroke-width="0.5" stroke="black" fill="cyan"/>
  <circle cx="542.399" cy="629.854" r="4.56632" stroke-width="0.5" stroke="black" fill="cyan"/>
   </g>
   <g id="cell173">
  <circle cx="431.575" cy="458.55" r="8.22861" stroke-width="0.5" stroke="black" fill="cyan"/>
  <circle cx="431.575" cy="458.55" r="4.97075" stroke-width="0.5" stroke="black" fill="cyan"/>
   </g>
   <g id="cell174">
  <circle cx="410.239" cy="569.551" r="8.17875" stroke-width="0.5" stroke="black" fill="magenta"/>
  <circle cx="410.239" cy="569.551" r="4.94943" stroke-width="0.5" stroke="black" fill="magenta"/>
   </g>
   <g id="cell175">
  <circle cx="598.754" cy="542.718" r="8.20069" stroke-width="0.5" stroke="black" fill="magenta"/>
  <circle cx="598.754" cy="542.718" r="4.95665" stroke-width="0.5" stroke="black" fill="magenta"/>
   </g>
   <g id="cell176">
  <circle cx="567.112" cy="434.979" r="8.20689" stroke-width="0.5" stroke="black" fill="cyan"/>
  <circle cx="567.112" cy="434.979" r="4.95867" stroke-width="0.5" stroke="black" fill="cyan"/>
   </g>
   <g id="cell177">
  <circle cx="420.209" cy="536.338" r="8.20088" stroke-width="0.5" stroke="black" fill="green"/>
  <circle cx="420.209" cy="536.338" r="4.95562" stroke-width="0.5" stroke="black" fill="green"/>
   </g>
   <g id="cell178">
  <circle cx="493.638" cy="552.629" r="8.16367" stroke-width="0.5" stroke="black" fill="magenta"/>
  <circle cx="493.638" cy="552.629" r="4.9407" stroke-width="0.5" stroke="black" fill="magenta"/>
   </g>
   <g id="cell179">
  <circle cx="570.118" cy="557.315" r="8.1947" stroke-width="0.5" stroke="black" fill="cyan"/>
  <circle cx="570.118" cy="557.315" r="4.95246" stroke-width="0.5" stroke="black" fill="cyan"/>
   </g>
   <g id="cell180">
  <circle cx="460.216" cy="533.058" r="8.16806" stroke-width="0.5" stroke="black" fill="magenta"/>
  <circle cx="460.216" cy="533.058" r="4.93877" stroke-width="0.5" stroke="black" fill="magenta"/>
   </g>
   <g id="cell181">
  <circle cx="392.513" cy="434.892" r="7.74079" stroke-width="0.5" stroke="black" fill="cyan"/>
  <circle cx="392.513" cy="434.892" r="4.71829" stroke-width="0.5" stroke="black" fill="cyan"/>
   </g>
   <g id="cell182">
  <circle cx="440.213" cy="385.003" r="8.11758" stroke-width="0.5" stroke="black" fill="green"/>
  <circle cx="440.213" cy="385.003" r="4.91328" stroke-width="0.5" stroke="black" fill="green"/>
   </g>
   <g id="cell183">
  <circle cx="551.539" cy="594.493" r="8.03067" stroke-width="0.5" stroke="black" fill="green"/>
  <circle cx="551.539" cy="594.493" r="4.86843" stroke-width="0.5" stroke="black" fill="green"/>
   </g>
   <g id="cell184">
  <circle cx="551.702" cy="433.071" r="7.72552" stroke-width="0.5" stroke="black" fill="cyan"/>
  <circle cx="551.702" cy="433.071" r="4.71272" stroke-width="0.5" stroke="black" fill="cyan"/>
   </g>
   <g id="cell186">
  <circle cx="542.751" cy="444.794" r="7.72552" stroke-width="0.5" stroke="black" fill="cyan"/>
  <circle cx="542.751" cy="444.794" r="4.71272" stroke-width="0.5" stroke="black" fill="cyan"/>
   </g>
   <g id="cell187">
  <circle cx="507.284" cy="405.134" r="7.87373" stroke-width="0.5" stroke="black" fill="magenta"/>
  <circle cx="507.284" cy="405.134" r="4.78208" stroke-width="0.5" stroke="black" fill="magenta"/>
   </g>
   <g id="cell188">
  <circle cx="534.597" cy="412.526" r="7.89373" stroke-width="0.5" stroke="black" fill="magenta"/>
  <circle cx="534.597" cy="412.526" r="4.78957" stroke-width="0.5" stroke="black" fill="magenta"/>
   </g>
   <g id="cell189">
  <circle cx="404.71" cy="434.95" r="6.14387" stroke-width="0.5" stroke="black" fill="cyan"/>
  <circle cx="404.71" cy="434.95" r="3.74491" stroke-width="0.5" stroke="black" fill="cyan"/>
   </g>
   <g id="cell190">
  <circle cx="402.831" cy="557.615" r="7.75708" stroke-width="0.5" stroke="black" fill="magenta"/>
  <circle cx="402.831" cy="557.615" r="4.72054" stroke-width="0.5" stroke="black" fill="magenta"/>
   </g>
   <g id="cell191">
  <circle cx="521.978" cy="596.902" r="7.73889" stroke-width="0.5" stroke="black" fill="magenta"/>
  <circle cx="521.978" cy="596.902" r="4.70501" stroke-width="0.5" stroke="black" fill="magenta"/>
   </g>
   <g id="cell192">
  <circle cx="556.484" cy="629.496" r="7.45981" stroke-width="0.5" stroke="black" fill="cyan"/>
  <circle cx="556.484" cy="629.496" r="4.56632" stroke-width="0.5" stroke="black" fill="cyan"/>
   </g>
   <g id="cell193">
  <circle cx="477.241" cy="491.779" r="7.0989" stroke-width="0.5" stroke="black" fill="green"/>
  <circle cx="477.241" cy="491.779" r="4.35457" stroke-width="0.5" stroke="black" fill="green"/>
   </g>
   <g id="cell194">
  <circle cx="480.166" cy="504.734" r="7.0989" stroke-width="0.5" stroke="black" fill="green"/>
  <circle cx="480.166" cy="504.734" r="4.35457" stroke-width="0.5" stroke="black" fill="green"/>
   </g>
   <g id="cell196">
  <circle cx="553.182" cy="608.679" r="7.14335" stroke-width="0.5" stroke="black" fill="green"/>
  <circle cx="553.182" cy="608.679" r="4.37161" stroke-width="0.5" stroke="black" fill="green"/>
   </g>
   <g id="cell197">
  <circle cx="581.171" cy="541.902" r="7.21122" stroke-width="0.5" stroke="black" fill="cyan"/>
  <circle cx="581.171" cy="541.902" r="4.37975" stroke-width="0.5" stroke="black" fill="cyan"/>
   </g>
   <g id="cell198">
  <circle cx="540.322" cy="530.772" r="7.14965" stroke-width="0.5" stroke="black" fill="cyan"/>
  <circle cx="540.322" cy="530.772" r="4.34" stroke-width="0.5" stroke="black" fill="cyan"/>
   </g>
   <g id="cell199">
  <circle cx="356.482" cy="507.098" r="7.03155" stroke-width="0.5" stroke="black" fill="cyan"/>
  <circle cx="356.482" cy="507.098" r="4.27608" stroke-width="0.5" stroke="black" fill="cyan"/>
   </g>
   <g id="cell200">
  <circle cx="544.785" cy="567.228" r="6.95979" stroke-width="0.5" stroke="black" fill="green"/>
  <circle cx="544.785" cy="567.228" r="4.22315" stroke-width="0.5" stroke="black" fill="green"/>
   </g>
   <g id="cell201">
  <circle cx="554.599" cy="480.209" r="6.89419" stroke-width="0.5" stroke="black" fill="magenta"/>
  <circle cx="554.599" cy="480.209" r="4.16951" stroke-width="0.5" stroke="black" fill="magenta"/>
   </g>
   <g id="cell202">
  <circle cx="395.242" cy="456.681" r="6.89438" stroke-width="0.5" stroke="black" fill="green"/>
  <circle cx="395.242" cy="456.681" r="4.16954" stroke-width="0.5" stroke="black" fill="green"/>
   </g>
   <g id="cell203">
  <circle cx="489.272" cy="598.803" r="6.8041" stroke-width="0.5" stroke="black" fill="magenta"/>
  <circle cx="489.272" cy="598.803" r="4.10569" stroke-width="0.5" stroke="black" fill="magenta"/>
   </g>
   <g id="cell204">
  <circle cx="383.904" cy="469.787" r="6.76769" stroke-width="0.5" stroke="black" fill="magenta"/>
  <circle cx="383.904" cy="469.787" r="4.09112" stroke-width="0.5" stroke="black" fill="magenta"/>
   </g>
   <g id="cell205">
  <circle cx="448.794" cy="546.872" r="6.59383" stroke-width="0.5" stroke="black" fill="magenta"/>
  <circle cx="448.794" cy="546.872" r="4.00019" stroke-width="0.5" stroke="black" fill="magenta"/>
   </g>
   <g id="cell206">
  <circle cx="520.641" cy="553.221" r="6.73287" stroke-width="0.5" stroke="black" fill="magenta"/>
  <circle cx="520.641" cy="553.221" r="4.05039" stroke-width="0.5" stroke="black" fill="magenta"/>
   </g>
   <g id="cell207">
  <circle cx="409.881" cy="443.846" r="6.14387" stroke-width="0.5" stroke="black" fill="cyan"/>
  <circle cx="409.881" cy="443.846" r="3.74491" stroke-width="0.5" stroke="black" fill="cyan"/>
   </g>
   <g id="cell208">
  <circle cx="375.379" cy="536.829" r="6.67643" stroke-width="0.5" stroke="black" fill="cyan"/>
  <circle cx="375.379" cy="536.829" r="4.00934" stroke-width="0.5" stroke="black" fill="cyan"/>
   </g>
  </g>
 </g>
  <rect x="775" y="1035" width="200" height="10" stroke-width="2" stroke="rgb(255,255,255)" fill="rgb(0,0,0)"/>
  <text x="781.25" y="1028.75"
   font-family="Arial" font-size="25" fill="black" >
   200 &#956;m
  </text>
  <text x="25" y="1045"
   font-family="Arial" font-size="18.75" fill="black" >
   0 days, 0 hours, 0 minutes, and 40.2250 seconds
  </text>
  <rect x="0" y="70" width="1000" height="1000" stroke-width="2" stroke="rgb(0,0,0)" fill="none"/>
</svg>
