<?xml version="1.0" encoding="UTF-8" standalone="no"?>
<!-- Created with PhysiCell (http://PhysiCell.MathCancer.org/) -->
<svg 
 xmlns:dc="http://purl.org/dc/elements/1.1/" 
 xmlns:cc="http://creativecommons.org/ns#" 
 xmlns:rdf="http://www.w3.org/1999/02/22-rdf-syntax-ns#" 
 xmlns:svg="http://www.w3.org/2000/svg" 
 xmlns="http://www.w3.org/2000/svg" 
 version="1.1" 
 width="1000" 
 height="1070" 
 id="svg2">
  <rect x="0" y="0" width="1000" height="1070" stroke-width="2" stroke="white" fill="white"/>
  <text x="12.5" y="30"
   font-family="Arial" font-size="25" fill="black" >
   Current time: 0 days, 21 hours, and 30.00 minutes, z = 0.00 &#956;m
  </text>
  <text x="12.5" y="57.5"
   font-family="Arial" font-size="23.75" fill="black" >
   143 agents
  </text>
 <g id="tissue" 
    transform="translate(0,1070) scale(1,-1)">
  <g id="ECM">
  </g>
  <g id="cells">
   <g id="cell0">
  <circle cx="514.04" cy="535.367" r="8.39523" stroke-width="0.5" stroke="black" fill="magenta"/>
  <circle cx="514.04" cy="535.367" r="5.04581" stroke-width="0.5" stroke="black" fill="magenta"/>
   </g>
   <g id="cell1">
  <circle cx="601.628" cy="523.646" r="8.41271" stroke-width="0.5" stroke="black" fill="magenta"/>
  <circle cx="601.628" cy="523.646" r="5.05167" stroke-width="0.5" stroke="black" fill="magenta"/>
   </g>
   <g id="cell2">
  <circle cx="517.018" cy="596.702" r="8.41271" stroke-width="0.5" stroke="black" fill="magenta"/>
  <circle cx="517.018" cy="596.702" r="5.05167" stroke-width="0.5" stroke="black" fill="magenta"/>
   </g>
   <g id="cell3">
  <circle cx="523.738" cy="548.147" r="8.38411" stroke-width="0.5" stroke="black" fill="magenta"/>
  <circle cx="523.738" cy="548.147" r="5.04192" stroke-width="0.5" stroke="black" fill="magenta"/>
   </g>
   <g id="cell4">
  <circle cx="487.962" cy="446.291" r="7.99707" stroke-width="0.5" stroke="black" fill="magenta"/>
  <circle cx="487.962" cy="446.291" r="4.84815" stroke-width="0.5" stroke="black" fill="magenta"/>
   </g>
   <g id="cell5">
  <circle cx="465.032" cy="493.3" r="8.41271" stroke-width="0.5" stroke="black" fill="magenta"/>
  <circle cx="465.032" cy="493.3" r="5.05167" stroke-width="0.5" stroke="black" fill="magenta"/>
   </g>
   <g id="cell6">
  <circle cx="596.927" cy="515.131" r="2.38423" stroke-width="0.5" stroke="black" fill="magenta"/>
  <circle cx="596.927" cy="515.131" r="2.15073" stroke-width="0.5" stroke="black" fill="black"/>
   </g>
   <g id="cell7">
  <circle cx="495.911" cy="458.304" r="8.27497" stroke-width="0.5" stroke="black" fill="magenta"/>
  <circle cx="495.911" cy="458.304" r="4.99242" stroke-width="0.5" stroke="black" fill="magenta"/>
   </g>
   <g id="cell8">
  <circle cx="376.391" cy="542.775" r="8.41271" stroke-width="0.5" stroke="black" fill="magenta"/>
  <circle cx="376.391" cy="542.775" r="5.05167" stroke-width="0.5" stroke="black" fill="magenta"/>
   </g>
   <g id="cell9">
  <circle cx="460.472" cy="599.786" r="2.52098" stroke-width="0.5" stroke="black" fill="magenta"/>
  <circle cx="460.472" cy="599.786" r="2.229" stroke-width="0.5" stroke="black" fill="black"/>
   </g>
   <g id="cell10">
  <circle cx="583.447" cy="392.105" r="8.41271" stroke-width="0.5" stroke="black" fill="magenta"/>
  <circle cx="583.447" cy="392.105" r="5.05167" stroke-width="0.5" stroke="black" fill="magenta"/>
   </g>
   <g id="cell11">
  <circle cx="592.012" cy="590.051" r="8.41271" stroke-width="0.5" stroke="black" fill="magenta"/>
  <circle cx="592.012" cy="590.051" r="5.05167" stroke-width="0.5" stroke="black" fill="magenta"/>
   </g>
   <g id="cell12">
  <circle cx="503.402" cy="593.267" r="7.24243" stroke-width="0.5" stroke="black" fill="magenta"/>
  <circle cx="503.402" cy="593.267" r="4.39934" stroke-width="0.5" stroke="black" fill="magenta"/>
   </g>
   <g id="cell13">
  <circle cx="386.194" cy="568.228" r="8.41271" stroke-width="0.5" stroke="black" fill="magenta"/>
  <circle cx="386.194" cy="568.228" r="5.05167" stroke-width="0.5" stroke="black" fill="magenta"/>
   </g>
   <g id="cell14">
  <circle cx="528.66" cy="401.447" r="8.41271" stroke-width="0.5" stroke="black" fill="magenta"/>
  <circle cx="528.66" cy="401.447" r="5.05167" stroke-width="0.5" stroke="black" fill="magenta"/>
   </g>
   <g id="cell15">
  <circle cx="384.32" cy="477.311" r="7.75912" stroke-width="0.5" stroke="black" fill="magenta"/>
  <circle cx="384.32" cy="477.311" r="4.71248" stroke-width="0.5" stroke="black" fill="magenta"/>
   </g>
   <g id="cell16">
  <circle cx="432.104" cy="417.256" r="5.36255" stroke-width="0.5" stroke="black" fill="magenta"/>
  <circle cx="432.104" cy="417.256" r="3.22887" stroke-width="0.5" stroke="black" fill="magenta"/>
   </g>
   <g id="cell17">
  <circle cx="570.692" cy="491.495" r="8.41271" stroke-width="0.5" stroke="black" fill="magenta"/>
  <circle cx="570.692" cy="491.495" r="5.05167" stroke-width="0.5" stroke="black" fill="magenta"/>
   </g>
   <g id="cell18">
  <circle cx="518.54" cy="389.997" r="8.41271" stroke-width="0.5" stroke="black" fill="magenta"/>
  <circle cx="518.54" cy="389.997" r="5.05167" stroke-width="0.5" stroke="black" fill="magenta"/>
   </g>
   <g id="cell19">
  <circle cx="459.906" cy="540.581" r="8.27197" stroke-width="0.5" stroke="black" fill="magenta"/>
  <circle cx="459.906" cy="540.581" r="4.99243" stroke-width="0.5" stroke="black" fill="magenta"/>
   </g>
   <g id="cell20">
  <circle cx="530.684" cy="416.598" r="8.41271" stroke-width="0.5" stroke="black" fill="magenta"/>
  <circle cx="530.684" cy="416.598" r="5.05167" stroke-width="0.5" stroke="black" fill="magenta"/>
   </g>
   <g id="cell21">
  <circle cx="466.408" cy="632.7" r="8.41271" stroke-width="0.5" stroke="black" fill="magenta"/>
  <circle cx="466.408" cy="632.7" r="5.05167" stroke-width="0.5" stroke="black" fill="magenta"/>
   </g>
   <g id="cell22">
  <circle cx="555.674" cy="494.239" r="8.41271" stroke-width="0.5" stroke="black" fill="magenta"/>
  <circle cx="555.674" cy="494.239" r="5.05167" stroke-width="0.5" stroke="black" fill="magenta"/>
   </g>
   <g id="cell23">
  <circle cx="545.836" cy="482.648" r="8.41271" stroke-width="0.5" stroke="black" fill="magenta"/>
  <circle cx="545.836" cy="482.648" r="5.05167" stroke-width="0.5" stroke="black" fill="magenta"/>
   </g>
   <g id="cell24">
  <circle cx="558.818" cy="381.507" r="8.41271" stroke-width="0.5" stroke="black" fill="magenta"/>
  <circle cx="558.818" cy="381.507" r="5.05167" stroke-width="0.5" stroke="black" fill="magenta"/>
   </g>
   <g id="cell25">
  <circle cx="648.027" cy="543.354" r="8.40185" stroke-width="0.5" stroke="black" fill="green"/>
  <circle cx="648.027" cy="543.354" r="5.04822" stroke-width="0.5" stroke="black" fill="green"/>
   </g>
   <g id="cell26">
  <circle cx="555.368" cy="396.535" r="8.27097" stroke-width="0.5" stroke="black" fill="green"/>
  <circle cx="555.368" cy="396.535" r="4.99048" stroke-width="0.5" stroke="black" fill="green"/>
   </g>
   <g id="cell27">
  <circle cx="465.423" cy="396.781" r="8.40596" stroke-width="0.5" stroke="black" fill="green"/>
  <circle cx="465.423" cy="396.781" r="5.04964" stroke-width="0.5" stroke="black" fill="green"/>
   </g>
   <g id="cell28">
  <circle cx="432.859" cy="530.747" r="8.41271" stroke-width="0.5" stroke="black" fill="green"/>
  <circle cx="432.859" cy="530.747" r="5.05167" stroke-width="0.5" stroke="black" fill="green"/>
   </g>
   <g id="cell29">
  <circle cx="450.483" cy="515.826" r="8.41271" stroke-width="0.5" stroke="black" fill="green"/>
  <circle cx="450.483" cy="515.826" r="5.05167" stroke-width="0.5" stroke="black" fill="green"/>
   </g>
   <g id="cell30">
  <circle cx="485.413" cy="535.129" r="7.06764" stroke-width="0.5" stroke="black" fill="green"/>
  <circle cx="485.413" cy="535.129" r="4.29183" stroke-width="0.5" stroke="black" fill="green"/>
   </g>
   <g id="cell31">
  <circle cx="412.807" cy="541.561" r="8.41271" stroke-width="0.5" stroke="black" fill="green"/>
  <circle cx="412.807" cy="541.561" r="5.05167" stroke-width="0.5" stroke="black" fill="green"/>
   </g>
   <g id="cell32">
  <circle cx="421.367" cy="481.396" r="3.54281" stroke-width="0.5" stroke="black" fill="green"/>
  <circle cx="421.367" cy="481.396" r="2.69772" stroke-width="0.5" stroke="black" fill="black"/>
   </g>
   <g id="cell33">
  <circle cx="502.902" cy="425.061" r="6.89675" stroke-width="0.5" stroke="black" fill="green"/>
  <circle cx="502.902" cy="425.061" r="4.17024" stroke-width="0.5" stroke="black" fill="green"/>
   </g>
   <g id="cell34">
  <circle cx="396.819" cy="450.575" r="3.78562" stroke-width="0.5" stroke="black" fill="green"/>
  <circle cx="396.819" cy="450.575" r="2.80027" stroke-width="0.5" stroke="black" fill="black"/>
   </g>
   <g id="cell35">
  <circle cx="553.512" cy="543.196" r="8.41271" stroke-width="0.5" stroke="black" fill="green"/>
  <circle cx="553.512" cy="543.196" r="5.05167" stroke-width="0.5" stroke="black" fill="green"/>
   </g>
   <g id="cell36">
  <circle cx="391.486" cy="582.903" r="8.41271" stroke-width="0.5" stroke="black" fill="green"/>
  <circle cx="391.486" cy="582.903" r="5.05167" stroke-width="0.5" stroke="black" fill="green"/>
   </g>
   <g id="cell37">
  <circle cx="639.998" cy="457.635" r="8.40494" stroke-width="0.5" stroke="black" fill="green"/>
  <circle cx="639.998" cy="457.635" r="5.04929" stroke-width="0.5" stroke="black" fill="green"/>
   </g>
   <g id="cell38">
  <circle cx="530.327" cy="588.832" r="8.40353" stroke-width="0.5" stroke="black" fill="green"/>
  <circle cx="530.327" cy="588.832" r="5.04881" stroke-width="0.5" stroke="black" fill="green"/>
   </g>
   <g id="cell39">
  <circle cx="613.637" cy="490.4" r="8.41271" stroke-width="0.5" stroke="black" fill="green"/>
  <circle cx="613.637" cy="490.4" r="5.05167" stroke-width="0.5" stroke="black" fill="green"/>
   </g>
   <g id="cell40">
  <circle cx="485.333" cy="571.658" r="8.41271" stroke-width="0.5" stroke="black" fill="green"/>
  <circle cx="485.333" cy="571.658" r="5.05167" stroke-width="0.5" stroke="black" fill="green"/>
   </g>
   <g id="cell41">
  <circle cx="364.121" cy="481.392" r="8.41271" stroke-width="0.5" stroke="black" fill="green"/>
  <circle cx="364.121" cy="481.392" r="5.05167" stroke-width="0.5" stroke="black" fill="green"/>
   </g>
   <g id="cell42">
  <circle cx="438.8" cy="494.053" r="8.41271" stroke-width="0.5" stroke="black" fill="green"/>
  <circle cx="438.8" cy="494.053" r="5.05167" stroke-width="0.5" stroke="black" fill="green"/>
   </g>
   <g id="cell43">
  <circle cx="560.919" cy="440.528" r="8.41271" stroke-width="0.5" stroke="black" fill="green"/>
  <circle cx="560.919" cy="440.528" r="5.05167" stroke-width="0.5" stroke="black" fill="green"/>
   </g>
   <g id="cell44">
  <circle cx="473.817" cy="625.895" r="2.52098" stroke-width="0.5" stroke="black" fill="green"/>
  <circle cx="473.817" cy="625.895" r="2.229" stroke-width="0.5" stroke="black" fill="black"/>
   </g>
   <g id="cell45">
  <circle cx="414.902" cy="556.698" r="1.19198" stroke-width="0.5" stroke="black" fill="green"/>
  <circle cx="414.902" cy="556.698" r="1.1876" stroke-width="0.5" stroke="black" fill="black"/>
   </g>
   <g id="cell46">
  <circle cx="520.863" cy="612.818" r="8.35062" stroke-width="0.5" stroke="black" fill="green"/>
  <circle cx="520.863" cy="612.818" r="5.02745" stroke-width="0.5" stroke="black" fill="green"/>
   </g>
   <g id="cell47">
  <circle cx="504.554" cy="495.078" r="8.37431" stroke-width="0.5" stroke="black" fill="green"/>
  <circle cx="504.554" cy="495.078" r="5.03754" stroke-width="0.5" stroke="black" fill="green"/>
   </g>
   <g id="cell48">
  <circle cx="571.085" cy="604.702" r="8.26919" stroke-width="0.5" stroke="black" fill="green"/>
  <circle cx="571.085" cy="604.702" r="4.99265" stroke-width="0.5" stroke="black" fill="green"/>
   </g>
   <g id="cell49">
  <circle cx="432.764" cy="396.231" r="8.41271" stroke-width="0.5" stroke="black" fill="green"/>
  <circle cx="432.764" cy="396.231" r="5.05167" stroke-width="0.5" stroke="black" fill="green"/>
   </g>
   <g id="cell50">
  <circle cx="512.787" cy="508.399" r="8.20998" stroke-width="0.5" stroke="black" fill="cyan"/>
  <circle cx="512.787" cy="508.399" r="4.96165" stroke-width="0.5" stroke="black" fill="cyan"/>
   </g>
   <g id="cell51">
  <circle cx="398.721" cy="597.201" r="8.41271" stroke-width="0.5" stroke="black" fill="cyan"/>
  <circle cx="398.721" cy="597.201" r="5.05167" stroke-width="0.5" stroke="black" fill="cyan"/>
   </g>
   <g id="cell52">
  <circle cx="516.852" cy="422.603" r="8.41271" stroke-width="0.5" stroke="black" fill="cyan"/>
  <circle cx="516.852" cy="422.603" r="5.05167" stroke-width="0.5" stroke="black" fill="cyan"/>
   </g>
   <g id="cell53">
  <circle cx="572.283" cy="429.436" r="8.36032" stroke-width="0.5" stroke="black" fill="cyan"/>
  <circle cx="572.283" cy="429.436" r="5.03165" stroke-width="0.5" stroke="black" fill="cyan"/>
   </g>
   <g id="cell54">
  <circle cx="481.415" cy="421.243" r="8.38118" stroke-width="0.5" stroke="black" fill="cyan"/>
  <circle cx="481.415" cy="421.243" r="5.04034" stroke-width="0.5" stroke="black" fill="cyan"/>
   </g>
   <g id="cell55">
  <circle cx="521.545" cy="463.762" r="8.36283" stroke-width="0.5" stroke="black" fill="cyan"/>
  <circle cx="521.545" cy="463.762" r="5.03322" stroke-width="0.5" stroke="black" fill="cyan"/>
   </g>
   <g id="cell56">
  <circle cx="617.187" cy="522.396" r="8.41271" stroke-width="0.5" stroke="black" fill="cyan"/>
  <circle cx="617.187" cy="522.396" r="5.05167" stroke-width="0.5" stroke="black" fill="cyan"/>
   </g>
   <g id="cell105">
  <circle cx="507.994" cy="607.255" r="6.69616" stroke-width="0.5" stroke="black" fill="green"/>
  <circle cx="507.994" cy="607.255" r="4.07866" stroke-width="0.5" stroke="black" fill="green"/>
   </g>
   <g id="cell58">
  <circle cx="560.873" cy="479.508" r="8.41271" stroke-width="0.5" stroke="black" fill="cyan"/>
  <circle cx="560.873" cy="479.508" r="5.05167" stroke-width="0.5" stroke="black" fill="cyan"/>
   </g>
   <g id="cell59">
  <circle cx="385.732" cy="440.058" r="8.41271" stroke-width="0.5" stroke="black" fill="cyan"/>
  <circle cx="385.732" cy="440.058" r="5.05167" stroke-width="0.5" stroke="black" fill="cyan"/>
   </g>
   <g id="cell60">
  <circle cx="592.149" cy="473.803" r="8.41271" stroke-width="0.5" stroke="black" fill="cyan"/>
  <circle cx="592.149" cy="473.803" r="5.05167" stroke-width="0.5" stroke="black" fill="cyan"/>
   </g>
   <g id="cell61">
  <circle cx="557.525" cy="622.471" r="8.41271" stroke-width="0.5" stroke="black" fill="cyan"/>
  <circle cx="557.525" cy="622.471" r="5.05167" stroke-width="0.5" stroke="black" fill="cyan"/>
   </g>
   <g id="cell62">
  <circle cx="513.936" cy="437.886" r="8.10094" stroke-width="0.5" stroke="black" fill="cyan"/>
  <circle cx="513.936" cy="437.886" r="4.9043" stroke-width="0.5" stroke="black" fill="cyan"/>
   </g>
   <g id="cell63">
  <circle cx="582.136" cy="542.91" r="7.68915" stroke-width="0.5" stroke="black" fill="cyan"/>
  <circle cx="582.136" cy="542.91" r="4.67426" stroke-width="0.5" stroke="black" fill="cyan"/>
   </g>
   <g id="cell64">
  <circle cx="509.721" cy="639.321" r="8.41271" stroke-width="0.5" stroke="black" fill="cyan"/>
  <circle cx="509.721" cy="639.321" r="5.05167" stroke-width="0.5" stroke="black" fill="cyan"/>
   </g>
   <g id="cell65">
  <circle cx="550.086" cy="467.653" r="8.39144" stroke-width="0.5" stroke="black" fill="cyan"/>
  <circle cx="550.086" cy="467.653" r="5.04437" stroke-width="0.5" stroke="black" fill="cyan"/>
   </g>
   <g id="cell66">
  <circle cx="529.486" cy="533.513" r="8.37935" stroke-width="0.5" stroke="black" fill="cyan"/>
  <circle cx="529.486" cy="533.513" r="5.0396" stroke-width="0.5" stroke="black" fill="cyan"/>
   </g>
   <g id="cell67">
  <circle cx="353.834" cy="493.668" r="8.41271" stroke-width="0.5" stroke="black" fill="cyan"/>
  <circle cx="353.834" cy="493.668" r="5.05167" stroke-width="0.5" stroke="black" fill="cyan"/>
   </g>
   <g id="cell68">
  <circle cx="563.17" cy="555.521" r="8.41271" stroke-width="0.5" stroke="black" fill="cyan"/>
  <circle cx="563.17" cy="555.521" r="5.05167" stroke-width="0.5" stroke="black" fill="cyan"/>
   </g>
   <g id="cell69">
  <circle cx="442.138" cy="460.5" r="8.41271" stroke-width="0.5" stroke="black" fill="cyan"/>
  <circle cx="442.138" cy="460.5" r="5.05167" stroke-width="0.5" stroke="black" fill="cyan"/>
   </g>
   <g id="cell70">
  <circle cx="576.466" cy="476.876" r="8.41271" stroke-width="0.5" stroke="black" fill="cyan"/>
  <circle cx="576.466" cy="476.876" r="5.05167" stroke-width="0.5" stroke="black" fill="cyan"/>
   </g>
   <g id="cell71">
  <circle cx="380.198" cy="527.776" r="8.28985" stroke-width="0.5" stroke="black" fill="cyan"/>
  <circle cx="380.198" cy="527.776" r="4.99956" stroke-width="0.5" stroke="black" fill="cyan"/>
   </g>
   <g id="cell72">
  <circle cx="528.475" cy="508.281" r="8.38206" stroke-width="0.5" stroke="black" fill="cyan"/>
  <circle cx="528.475" cy="508.281" r="5.04069" stroke-width="0.5" stroke="black" fill="cyan"/>
   </g>
   <g id="cell73">
  <circle cx="364.576" cy="552.929" r="8.39571" stroke-width="0.5" stroke="black" fill="cyan"/>
  <circle cx="364.576" cy="552.929" r="5.04599" stroke-width="0.5" stroke="black" fill="cyan"/>
   </g>
   <g id="cell74">
  <circle cx="548.919" cy="433.69" r="2.3252" stroke-width="0.5" stroke="black" fill="cyan"/>
  <circle cx="548.919" cy="433.69" r="2.10339" stroke-width="0.5" stroke="black" fill="black"/>
   </g>
   <g id="cell75">
  <circle cx="529.203" cy="432.616" r="8.40614" stroke-width="0.5" stroke="black" fill="cyan"/>
  <circle cx="529.203" cy="432.616" r="5.0497" stroke-width="0.5" stroke="black" fill="cyan"/>
   </g>
   <g id="cell76">
  <circle cx="442.077" cy="382.404" r="8.31216" stroke-width="0.5" stroke="black" fill="green"/>
  <circle cx="442.077" cy="382.404" r="5.01219" stroke-width="0.5" stroke="black" fill="green"/>
   </g>
   <g id="cell77">
  <circle cx="477.451" cy="436.213" r="8.33548" stroke-width="0.5" stroke="black" fill="magenta"/>
  <circle cx="477.451" cy="436.213" r="5.02125" stroke-width="0.5" stroke="black" fill="magenta"/>
   </g>
   <g id="cell78">
  <circle cx="624.671" cy="462.178" r="8.38754" stroke-width="0.5" stroke="black" fill="green"/>
  <circle cx="624.671" cy="462.178" r="5.04318" stroke-width="0.5" stroke="black" fill="green"/>
   </g>
   <g id="cell79">
  <circle cx="517.045" cy="479.255" r="8.40403" stroke-width="0.5" stroke="black" fill="cyan"/>
  <circle cx="517.045" cy="479.255" r="5.04898" stroke-width="0.5" stroke="black" fill="cyan"/>
   </g>
   <g id="cell80">
  <circle cx="543.083" cy="616.21" r="8.09692" stroke-width="0.5" stroke="black" fill="green"/>
  <circle cx="543.083" cy="616.21" r="4.90297" stroke-width="0.5" stroke="black" fill="green"/>
   </g>
   <g id="cell81">
  <circle cx="545.43" cy="594.252" r="8.39867" stroke-width="0.5" stroke="black" fill="green"/>
  <circle cx="545.43" cy="594.252" r="5.04728" stroke-width="0.5" stroke="black" fill="green"/>
   </g>
   <g id="cell82">
  <circle cx="534.11" cy="557.525" r="6.7244" stroke-width="0.5" stroke="black" fill="magenta"/>
  <circle cx="534.11" cy="557.525" r="4.04768" stroke-width="0.5" stroke="black" fill="magenta"/>
   </g>
   <g id="cell83">
  <circle cx="635.502" cy="552.421" r="7.88757" stroke-width="0.5" stroke="black" fill="green"/>
  <circle cx="635.502" cy="552.421" r="4.78753" stroke-width="0.5" stroke="black" fill="green"/>
   </g>
   <g id="cell84">
  <circle cx="520.666" cy="494.647" r="8.39664" stroke-width="0.5" stroke="black" fill="cyan"/>
  <circle cx="520.666" cy="494.647" r="5.04633" stroke-width="0.5" stroke="black" fill="cyan"/>
   </g>
   <g id="cell85">
  <circle cx="352.494" cy="542.503" r="8.36464" stroke-width="0.5" stroke="black" fill="cyan"/>
  <circle cx="352.494" cy="542.503" r="5.03421" stroke-width="0.5" stroke="black" fill="cyan"/>
   </g>
   <g id="cell86">
  <circle cx="499.233" cy="534.899" r="8.05717" stroke-width="0.5" stroke="black" fill="magenta"/>
  <circle cx="499.233" cy="534.899" r="4.88189" stroke-width="0.5" stroke="black" fill="magenta"/>
   </g>
   <g id="cell87">
  <circle cx="578.788" cy="557.836" r="8.34441" stroke-width="0.5" stroke="black" fill="cyan"/>
  <circle cx="578.788" cy="557.836" r="5.02567" stroke-width="0.5" stroke="black" fill="cyan"/>
   </g>
   <g id="cell88">
  <circle cx="448.358" cy="531.216" r="8.39203" stroke-width="0.5" stroke="black" fill="magenta"/>
  <circle cx="448.358" cy="531.216" r="5.0446" stroke-width="0.5" stroke="black" fill="magenta"/>
   </g>
   <g id="cell89">
  <circle cx="549.425" cy="452.917" r="5.9251" stroke-width="0.5" stroke="black" fill="cyan"/>
  <circle cx="549.425" cy="452.917" r="3.61087" stroke-width="0.5" stroke="black" fill="cyan"/>
   </g>
   <g id="cell90">
  <circle cx="636.176" cy="472.629" r="7.8943" stroke-width="0.5" stroke="black" fill="green"/>
  <circle cx="636.176" cy="472.629" r="4.79295" stroke-width="0.5" stroke="black" fill="green"/>
   </g>
   <g id="cell91">
  <circle cx="547.676" cy="557.501" r="8.37095" stroke-width="0.5" stroke="black" fill="magenta"/>
  <circle cx="547.676" cy="557.501" r="5.03708" stroke-width="0.5" stroke="black" fill="magenta"/>
   </g>
   <g id="cell92">
  <circle cx="483.139" cy="552.148" r="8.38608" stroke-width="0.5" stroke="black" fill="green"/>
  <circle cx="483.139" cy="552.148" r="5.04229" stroke-width="0.5" stroke="black" fill="green"/>
   </g>
   <g id="cell93">
  <circle cx="538.683" cy="545.197" r="8.37095" stroke-width="0.5" stroke="black" fill="magenta"/>
  <circle cx="538.683" cy="545.197" r="5.03708" stroke-width="0.5" stroke="black" fill="magenta"/>
   </g>
   <g id="cell94">
  <circle cx="537.03" cy="495.303" r="8.38206" stroke-width="0.5" stroke="black" fill="cyan"/>
  <circle cx="537.03" cy="495.303" r="5.04069" stroke-width="0.5" stroke="black" fill="cyan"/>
   </g>
   <g id="cell95">
  <circle cx="466.07" cy="425.886" r="8.38118" stroke-width="0.5" stroke="black" fill="cyan"/>
  <circle cx="466.07" cy="425.886" r="5.04034" stroke-width="0.5" stroke="black" fill="cyan"/>
   </g>
   <g id="cell96">
  <circle cx="546.4" cy="530.389" r="7.42113" stroke-width="0.5" stroke="black" fill="cyan"/>
  <circle cx="546.4" cy="530.389" r="4.51566" stroke-width="0.5" stroke="black" fill="cyan"/>
   </g>
   <g id="cell97">
  <circle cx="421.452" cy="466.41" r="8.34891" stroke-width="0.5" stroke="black" fill="green"/>
  <circle cx="421.452" cy="466.41" r="5.02788" stroke-width="0.5" stroke="black" fill="green"/>
   </g>
   <g id="cell98">
  <circle cx="491.034" cy="522.351" r="7.97982" stroke-width="0.5" stroke="black" fill="green"/>
  <circle cx="491.034" cy="522.351" r="4.84144" stroke-width="0.5" stroke="black" fill="green"/>
   </g>
   <g id="cell99">
  <circle cx="358.317" cy="527.678" r="8.36464" stroke-width="0.5" stroke="black" fill="cyan"/>
  <circle cx="358.317" cy="527.678" r="5.03421" stroke-width="0.5" stroke="black" fill="cyan"/>
   </g>
   <g id="cell100">
  <circle cx="449.221" cy="396.531" r="8.36381" stroke-width="0.5" stroke="black" fill="green"/>
  <circle cx="449.221" cy="396.531" r="5.03355" stroke-width="0.5" stroke="black" fill="green"/>
   </g>
   <g id="cell101">
  <circle cx="531.456" cy="481.736" r="7.32737" stroke-width="0.5" stroke="black" fill="cyan"/>
  <circle cx="531.456" cy="481.736" r="4.46035" stroke-width="0.5" stroke="black" fill="cyan"/>
   </g>
   <g id="cell102">
  <circle cx="434.979" cy="474.78" r="8.34891" stroke-width="0.5" stroke="black" fill="green"/>
  <circle cx="434.979" cy="474.78" r="5.02788" stroke-width="0.5" stroke="black" fill="green"/>
   </g>
   <g id="cell103">
  <circle cx="591.205" cy="447.812" r="8.0482" stroke-width="0.5" stroke="black" fill="cyan"/>
  <circle cx="591.205" cy="447.812" r="4.87948" stroke-width="0.5" stroke="black" fill="cyan"/>
   </g>
   <g id="cell104">
  <circle cx="593.739" cy="552.563" r="8.34441" stroke-width="0.5" stroke="black" fill="cyan"/>
  <circle cx="593.739" cy="552.563" r="5.02567" stroke-width="0.5" stroke="black" fill="cyan"/>
   </g>
   <g id="cell106">
  <circle cx="463.385" cy="441.224" r="8.33548" stroke-width="0.5" stroke="black" fill="magenta"/>
  <circle cx="463.385" cy="441.224" r="5.02125" stroke-width="0.5" stroke="black" fill="magenta"/>
   </g>
   <g id="cell107">
  <circle cx="457.642" cy="383.415" r="8.02228" stroke-width="0.5" stroke="black" fill="green"/>
  <circle cx="457.642" cy="383.415" r="4.86891" stroke-width="0.5" stroke="black" fill="green"/>
   </g>
   <g id="cell108">
  <circle cx="555.43" cy="606.66" r="8.32291" stroke-width="0.5" stroke="black" fill="green"/>
  <circle cx="555.43" cy="606.66" r="5.01502" stroke-width="0.5" stroke="black" fill="green"/>
   </g>
   <g id="cell109">
  <circle cx="576.553" cy="589.95" r="8.26919" stroke-width="0.5" stroke="black" fill="green"/>
  <circle cx="576.553" cy="589.95" r="4.99265" stroke-width="0.5" stroke="black" fill="green"/>
   </g>
   <g id="cell110">
  <circle cx="373.647" cy="513.426" r="8.28985" stroke-width="0.5" stroke="black" fill="cyan"/>
  <circle cx="373.647" cy="513.426" r="4.99956" stroke-width="0.5" stroke="black" fill="cyan"/>
   </g>
   <g id="cell111">
  <circle cx="456.527" cy="554.139" r="7.29713" stroke-width="0.5" stroke="black" fill="magenta"/>
  <circle cx="456.527" cy="554.139" r="4.45101" stroke-width="0.5" stroke="black" fill="magenta"/>
   </g>
   <g id="cell112">
  <circle cx="506.839" cy="468.024" r="8.27497" stroke-width="0.5" stroke="black" fill="magenta"/>
  <circle cx="506.839" cy="468.024" r="4.99242" stroke-width="0.5" stroke="black" fill="magenta"/>
   </g>
   <g id="cell113">
  <circle cx="542.696" cy="402.24" r="6.56467" stroke-width="0.5" stroke="black" fill="green"/>
  <circle cx="542.696" cy="402.24" r="3.96095" stroke-width="0.5" stroke="black" fill="green"/>
   </g>
   <g id="cell114">
  <circle cx="524.857" cy="448.238" r="8.17118" stroke-width="0.5" stroke="black" fill="cyan"/>
  <circle cx="524.857" cy="448.238" r="4.94581" stroke-width="0.5" stroke="black" fill="cyan"/>
   </g>
   <g id="cell115">
  <circle cx="537.451" cy="455.068" r="7.49186" stroke-width="0.5" stroke="black" fill="cyan"/>
  <circle cx="537.451" cy="455.068" r="4.57611" stroke-width="0.5" stroke="black" fill="cyan"/>
   </g>
   <g id="cell116">
  <circle cx="520.574" cy="521.445" r="8.20998" stroke-width="0.5" stroke="black" fill="cyan"/>
  <circle cx="520.574" cy="521.445" r="4.96165" stroke-width="0.5" stroke="black" fill="cyan"/>
   </g>
   <g id="cell117">
  <circle cx="509.384" cy="623.508" r="8.14225" stroke-width="0.5" stroke="black" fill="green"/>
  <circle cx="509.384" cy="623.508" r="4.92948" stroke-width="0.5" stroke="black" fill="green"/>
   </g>
   <g id="cell118">
  <circle cx="510.186" cy="453.088" r="8.10094" stroke-width="0.5" stroke="black" fill="cyan"/>
  <circle cx="510.186" cy="453.088" r="4.9043" stroke-width="0.5" stroke="black" fill="cyan"/>
   </g>
   <g id="cell119">
  <circle cx="533.39" cy="604.109" r="8.09692" stroke-width="0.5" stroke="black" fill="green"/>
  <circle cx="533.39" cy="604.109" r="4.90297" stroke-width="0.5" stroke="black" fill="green"/>
   </g>
   <g id="cell120">
  <circle cx="576.225" cy="444.52" r="8.0482" stroke-width="0.5" stroke="black" fill="cyan"/>
  <circle cx="576.225" cy="444.52" r="4.87948" stroke-width="0.5" stroke="black" fill="cyan"/>
   </g>
   <g id="cell121">
  <circle cx="451.327" cy="370.189" r="7.60895" stroke-width="0.5" stroke="black" fill="green"/>
  <circle cx="451.327" cy="370.189" r="4.64916" stroke-width="0.5" stroke="black" fill="green"/>
   </g>
   <g id="cell122">
  <circle cx="505.856" cy="522.127" r="8.05717" stroke-width="0.5" stroke="black" fill="magenta"/>
  <circle cx="505.856" cy="522.127" r="4.88189" stroke-width="0.5" stroke="black" fill="magenta"/>
   </g>
   <g id="cell123">
  <circle cx="497.79" cy="509.156" r="7.97982" stroke-width="0.5" stroke="black" fill="green"/>
  <circle cx="497.79" cy="509.156" r="4.84144" stroke-width="0.5" stroke="black" fill="green"/>
   </g>
   <g id="cell124">
  <circle cx="491.576" cy="432.483" r="7.99707" stroke-width="0.5" stroke="black" fill="magenta"/>
  <circle cx="491.576" cy="432.483" r="4.84815" stroke-width="0.5" stroke="black" fill="magenta"/>
   </g>
   <g id="cell125">
  <circle cx="621.997" cy="477.405" r="7.8943" stroke-width="0.5" stroke="black" fill="green"/>
  <circle cx="621.997" cy="477.405" r="4.79295" stroke-width="0.5" stroke="black" fill="green"/>
   </g>
   <g id="cell126">
  <circle cx="629.161" cy="565.976" r="7.88757" stroke-width="0.5" stroke="black" fill="green"/>
  <circle cx="629.161" cy="565.976" r="4.78753" stroke-width="0.5" stroke="black" fill="green"/>
   </g>
   <g id="cell127">
  <circle cx="439.482" cy="362.114" r="7.60895" stroke-width="0.5" stroke="black" fill="green"/>
  <circle cx="439.482" cy="362.114" r="4.64916" stroke-width="0.5" stroke="black" fill="green"/>
   </g>
   <g id="cell128">
  <circle cx="372.923" cy="469.274" r="7.75912" stroke-width="0.5" stroke="black" fill="magenta"/>
  <circle cx="372.923" cy="469.274" r="4.71248" stroke-width="0.5" stroke="black" fill="magenta"/>
   </g>
   <g id="cell129">
  <circle cx="568.027" cy="540.69" r="7.68915" stroke-width="0.5" stroke="black" fill="cyan"/>
  <circle cx="568.027" cy="540.69" r="4.67426" stroke-width="0.5" stroke="black" fill="cyan"/>
   </g>
   <g id="cell130">
  <circle cx="543.942" cy="441.592" r="7.49186" stroke-width="0.5" stroke="black" fill="cyan"/>
  <circle cx="543.942" cy="441.592" r="4.57611" stroke-width="0.5" stroke="black" fill="cyan"/>
   </g>
   <g id="cell131">
  <circle cx="537.03" cy="520.257" r="7.42113" stroke-width="0.5" stroke="black" fill="cyan"/>
  <circle cx="537.03" cy="520.257" r="4.51566" stroke-width="0.5" stroke="black" fill="cyan"/>
   </g>
   <g id="cell132">
  <circle cx="446.804" cy="545.274" r="7.29713" stroke-width="0.5" stroke="black" fill="magenta"/>
  <circle cx="446.804" cy="545.274" r="4.45101" stroke-width="0.5" stroke="black" fill="magenta"/>
   </g>
   <g id="cell133">
  <circle cx="564.855" cy="465.232" r="7.37419" stroke-width="0.5" stroke="black" fill="cyan"/>
  <circle cx="564.855" cy="465.232" r="4.48529" stroke-width="0.5" stroke="black" fill="cyan"/>
   </g>
   <g id="cell134">
  <circle cx="535.443" cy="468.74" r="7.32737" stroke-width="0.5" stroke="black" fill="cyan"/>
  <circle cx="535.443" cy="468.74" r="4.46035" stroke-width="0.5" stroke="black" fill="cyan"/>
   </g>
   <g id="cell135">
  <circle cx="511.47" cy="583.111" r="7.24243" stroke-width="0.5" stroke="black" fill="magenta"/>
  <circle cx="511.47" cy="583.111" r="4.39934" stroke-width="0.5" stroke="black" fill="magenta"/>
   </g>
   <g id="cell136">
  <circle cx="473.78" cy="540.975" r="7.06764" stroke-width="0.5" stroke="black" fill="green"/>
  <circle cx="473.78" cy="540.975" r="4.29183" stroke-width="0.5" stroke="black" fill="green"/>
   </g>
   <g id="cell137">
  <circle cx="495.987" cy="610.806" r="6.69616" stroke-width="0.5" stroke="black" fill="green"/>
  <circle cx="495.987" cy="610.806" r="4.07866" stroke-width="0.5" stroke="black" fill="green"/>
   </g>
   <g id="cell138">
  <circle cx="500.472" cy="412.25" r="6.89675" stroke-width="0.5" stroke="black" fill="green"/>
  <circle cx="500.472" cy="412.25" r="4.17024" stroke-width="0.5" stroke="black" fill="green"/>
   </g>
   <g id="cell139">
  <circle cx="422.986" cy="407.847" r="6.75639" stroke-width="0.5" stroke="black" fill="magenta"/>
  <circle cx="422.986" cy="407.847" r="4.06813" stroke-width="0.5" stroke="black" fill="magenta"/>
   </g>
   <g id="cell140">
  <circle cx="524.998" cy="564.997" r="6.7244" stroke-width="0.5" stroke="black" fill="magenta"/>
  <circle cx="524.998" cy="564.997" r="4.04768" stroke-width="0.5" stroke="black" fill="magenta"/>
   </g>
   <g id="cell141">
  <circle cx="560.182" cy="453.855" r="5.9251" stroke-width="0.5" stroke="black" fill="cyan"/>
  <circle cx="560.182" cy="453.855" r="3.61087" stroke-width="0.5" stroke="black" fill="cyan"/>
   </g>
   <g id="cell142">
  <circle cx="543.767" cy="414.09" r="6.56467" stroke-width="0.5" stroke="black" fill="green"/>
  <circle cx="543.767" cy="414.09" r="3.96095" stroke-width="0.5" stroke="black" fill="green"/>
   </g>
   <g id="cell143">
  <circle cx="433.986" cy="408.215" r="5.36255" stroke-width="0.5" stroke="black" fill="magenta"/>
  <circle cx="433.986" cy="408.215" r="3.22887" stroke-width="0.5" stroke="black" fill="magenta"/>
   </g>
  </g>
 </g>
  <rect x="775" y="1035" width="200" height="10" stroke-width="2" stroke="rgb(255,255,255)" fill="rgb(0,0,0)"/>
  <text x="781.25" y="1028.75"
   font-family="Arial" font-size="25" fill="black" >
   200 &#956;m
  </text>
  <text x="25" y="1045"
   font-family="Arial" font-size="18.75" fill="black" >
   0 days, 0 hours, 0 minutes, and 25.2638 seconds
  </text>
  <rect x="0" y="70" width="1000" height="1000" stroke-width="2" stroke="rgb(0,0,0)" fill="none"/>
</svg>
