<?xml version="1.0" encoding="UTF-8" standalone="no"?>
<!-- Created with PhysiCell (http://PhysiCell.MathCancer.org/) -->
<svg 
 xmlns:dc="http://purl.org/dc/elements/1.1/" 
 xmlns:cc="http://creativecommons.org/ns#" 
 xmlns:rdf="http://www.w3.org/1999/02/22-rdf-syntax-ns#" 
 xmlns:svg="http://www.w3.org/2000/svg" 
 xmlns="http://www.w3.org/2000/svg" 
 version="1.1" 
 width="1000" 
 height="1070" 
 id="svg2">
  <rect x="0" y="0" width="1000" height="1070" stroke-width="2" stroke="white" fill="white"/>
  <text x="12.5" y="30"
   font-family="Arial" font-size="25" fill="black" >
   Current time: 0 days, 18 hours, and 30.00 minutes, z = 0.00 &#956;m
  </text>
  <text x="12.5" y="57.5"
   font-family="Arial" font-size="23.75" fill="black" >
   122 agents
  </text>
 <g id="tissue" 
    transform="translate(0,1070) scale(1,-1)">
  <g id="ECM">
  </g>
  <g id="cells">
   <g id="cell0">
  <circle cx="481.313" cy="404.903" r="8.41271" stroke-width="0.5" stroke="black" fill="magenta"/>
  <circle cx="481.313" cy="404.903" r="5.05167" stroke-width="0.5" stroke="black" fill="magenta"/>
   </g>
   <g id="cell1">
  <circle cx="633.515" cy="509.125" r="8.3937" stroke-width="0.5" stroke="black" fill="magenta"/>
  <circle cx="633.515" cy="509.125" r="5.04523" stroke-width="0.5" stroke="black" fill="magenta"/>
   </g>
   <g id="cell2">
  <circle cx="479.077" cy="493.936" r="8.41271" stroke-width="0.5" stroke="black" fill="magenta"/>
  <circle cx="479.077" cy="493.936" r="5.05167" stroke-width="0.5" stroke="black" fill="magenta"/>
   </g>
   <g id="cell3">
  <circle cx="450.157" cy="451.316" r="8.37935" stroke-width="0.5" stroke="black" fill="magenta"/>
  <circle cx="450.157" cy="451.316" r="5.0396" stroke-width="0.5" stroke="black" fill="magenta"/>
   </g>
   <g id="cell4">
  <circle cx="418.113" cy="553.557" r="8.18833" stroke-width="0.5" stroke="black" fill="magenta"/>
  <circle cx="418.113" cy="553.557" r="4.94921" stroke-width="0.5" stroke="black" fill="magenta"/>
   </g>
   <g id="cell5">
  <circle cx="393.5" cy="440.755" r="8.41271" stroke-width="0.5" stroke="black" fill="magenta"/>
  <circle cx="393.5" cy="440.755" r="5.05167" stroke-width="0.5" stroke="black" fill="magenta"/>
   </g>
   <g id="cell6">
  <circle cx="431.615" cy="546.576" r="8.31491" stroke-width="0.5" stroke="black" fill="magenta"/>
  <circle cx="431.615" cy="546.576" r="5.01133" stroke-width="0.5" stroke="black" fill="magenta"/>
   </g>
   <g id="cell7">
  <circle cx="603.828" cy="508.481" r="8.41271" stroke-width="0.5" stroke="black" fill="magenta"/>
  <circle cx="603.828" cy="508.481" r="5.05167" stroke-width="0.5" stroke="black" fill="magenta"/>
   </g>
   <g id="cell8">
  <circle cx="388.34" cy="500.327" r="8.41271" stroke-width="0.5" stroke="black" fill="magenta"/>
  <circle cx="388.34" cy="500.327" r="5.05167" stroke-width="0.5" stroke="black" fill="magenta"/>
   </g>
   <g id="cell9">
  <circle cx="528.545" cy="401.663" r="7.71604" stroke-width="0.5" stroke="black" fill="magenta"/>
  <circle cx="528.545" cy="401.663" r="4.705" stroke-width="0.5" stroke="black" fill="magenta"/>
   </g>
   <g id="cell10">
  <circle cx="594.539" cy="428.065" r="7.54436" stroke-width="0.5" stroke="black" fill="magenta"/>
  <circle cx="594.539" cy="428.065" r="4.58555" stroke-width="0.5" stroke="black" fill="magenta"/>
   </g>
   <g id="cell11">
  <circle cx="517.731" cy="501.298" r="8.41271" stroke-width="0.5" stroke="black" fill="magenta"/>
  <circle cx="517.731" cy="501.298" r="5.05167" stroke-width="0.5" stroke="black" fill="magenta"/>
   </g>
   <g id="cell12">
  <circle cx="602.992" cy="400.203" r="8.41271" stroke-width="0.5" stroke="black" fill="magenta"/>
  <circle cx="602.992" cy="400.203" r="5.05167" stroke-width="0.5" stroke="black" fill="magenta"/>
   </g>
   <g id="cell13">
  <circle cx="638.483" cy="495.027" r="8.2212" stroke-width="0.5" stroke="black" fill="magenta"/>
  <circle cx="638.483" cy="495.027" r="4.96904" stroke-width="0.5" stroke="black" fill="magenta"/>
   </g>
   <g id="cell14">
  <circle cx="363.298" cy="434.385" r="8.41271" stroke-width="0.5" stroke="black" fill="magenta"/>
  <circle cx="363.298" cy="434.385" r="5.05167" stroke-width="0.5" stroke="black" fill="magenta"/>
   </g>
   <g id="cell15">
  <circle cx="377.254" cy="490.051" r="8.41271" stroke-width="0.5" stroke="black" fill="magenta"/>
  <circle cx="377.254" cy="490.051" r="5.05167" stroke-width="0.5" stroke="black" fill="magenta"/>
   </g>
   <g id="cell16">
  <circle cx="510.637" cy="415.309" r="7.11815" stroke-width="0.5" stroke="black" fill="magenta"/>
  <circle cx="510.637" cy="415.309" r="4.31954" stroke-width="0.5" stroke="black" fill="magenta"/>
   </g>
   <g id="cell17">
  <circle cx="377.221" cy="579.825" r="8.24438" stroke-width="0.5" stroke="black" fill="magenta"/>
  <circle cx="377.221" cy="579.825" r="4.97746" stroke-width="0.5" stroke="black" fill="magenta"/>
   </g>
   <g id="cell18">
  <circle cx="528.153" cy="461.634" r="8.41271" stroke-width="0.5" stroke="black" fill="magenta"/>
  <circle cx="528.153" cy="461.634" r="5.05167" stroke-width="0.5" stroke="black" fill="magenta"/>
   </g>
   <g id="cell19">
  <circle cx="488.594" cy="459.762" r="8.41271" stroke-width="0.5" stroke="black" fill="magenta"/>
  <circle cx="488.594" cy="459.762" r="5.05167" stroke-width="0.5" stroke="black" fill="magenta"/>
   </g>
   <g id="cell20">
  <circle cx="494.548" cy="540.014" r="6.95901" stroke-width="0.5" stroke="black" fill="magenta"/>
  <circle cx="494.548" cy="540.014" r="4.21341" stroke-width="0.5" stroke="black" fill="magenta"/>
   </g>
   <g id="cell21">
  <circle cx="507.344" cy="594.722" r="8.02325" stroke-width="0.5" stroke="black" fill="magenta"/>
  <circle cx="507.344" cy="594.722" r="4.86537" stroke-width="0.5" stroke="black" fill="magenta"/>
   </g>
   <g id="cell22">
  <circle cx="542.538" cy="465.8" r="8.32543" stroke-width="0.5" stroke="black" fill="magenta"/>
  <circle cx="542.538" cy="465.8" r="5.01617" stroke-width="0.5" stroke="black" fill="magenta"/>
   </g>
   <g id="cell23">
  <circle cx="562.41" cy="601.684" r="8.41271" stroke-width="0.5" stroke="black" fill="magenta"/>
  <circle cx="562.41" cy="601.684" r="5.05167" stroke-width="0.5" stroke="black" fill="magenta"/>
   </g>
   <g id="cell24">
  <circle cx="502.602" cy="500.816" r="8.41271" stroke-width="0.5" stroke="black" fill="magenta"/>
  <circle cx="502.602" cy="500.816" r="5.05167" stroke-width="0.5" stroke="black" fill="magenta"/>
   </g>
   <g id="cell25">
  <circle cx="441.986" cy="517.743" r="8.41271" stroke-width="0.5" stroke="black" fill="green"/>
  <circle cx="441.986" cy="517.743" r="5.05167" stroke-width="0.5" stroke="black" fill="green"/>
   </g>
   <g id="cell26">
  <circle cx="481.392" cy="595.553" r="8.41271" stroke-width="0.5" stroke="black" fill="green"/>
  <circle cx="481.392" cy="595.553" r="5.05167" stroke-width="0.5" stroke="black" fill="green"/>
   </g>
   <g id="cell27">
  <circle cx="440.008" cy="589.364" r="8.39874" stroke-width="0.5" stroke="black" fill="green"/>
  <circle cx="440.008" cy="589.364" r="5.04711" stroke-width="0.5" stroke="black" fill="green"/>
   </g>
   <g id="cell28">
  <circle cx="504.37" cy="436.603" r="8.41271" stroke-width="0.5" stroke="black" fill="green"/>
  <circle cx="504.37" cy="436.603" r="5.05167" stroke-width="0.5" stroke="black" fill="green"/>
   </g>
   <g id="cell29">
  <circle cx="589.263" cy="514.134" r="8.41271" stroke-width="0.5" stroke="black" fill="green"/>
  <circle cx="589.263" cy="514.134" r="5.05167" stroke-width="0.5" stroke="black" fill="green"/>
   </g>
   <g id="cell30">
  <circle cx="587.395" cy="616.577" r="7.35433" stroke-width="0.5" stroke="black" fill="green"/>
  <circle cx="587.395" cy="616.577" r="4.49044" stroke-width="0.5" stroke="black" fill="green"/>
   </g>
   <g id="cell31">
  <circle cx="471.368" cy="416.921" r="8.41271" stroke-width="0.5" stroke="black" fill="green"/>
  <circle cx="471.368" cy="416.921" r="5.05167" stroke-width="0.5" stroke="black" fill="green"/>
   </g>
   <g id="cell32">
  <circle cx="556.381" cy="430.339" r="8.39473" stroke-width="0.5" stroke="black" fill="green"/>
  <circle cx="556.381" cy="430.339" r="5.04562" stroke-width="0.5" stroke="black" fill="green"/>
   </g>
   <g id="cell33">
  <circle cx="591.873" cy="567.938" r="8.25826" stroke-width="0.5" stroke="black" fill="green"/>
  <circle cx="591.873" cy="567.938" r="4.98429" stroke-width="0.5" stroke="black" fill="green"/>
   </g>
   <g id="cell34">
  <circle cx="561.722" cy="586.014" r="8.41271" stroke-width="0.5" stroke="black" fill="green"/>
  <circle cx="561.722" cy="586.014" r="5.05167" stroke-width="0.5" stroke="black" fill="green"/>
   </g>
   <g id="cell35">
  <circle cx="472.261" cy="507.96" r="8.41271" stroke-width="0.5" stroke="black" fill="green"/>
  <circle cx="472.261" cy="507.96" r="5.05167" stroke-width="0.5" stroke="black" fill="green"/>
   </g>
   <g id="cell36">
  <circle cx="453.905" cy="564.709" r="8.23444" stroke-width="0.5" stroke="black" fill="green"/>
  <circle cx="453.905" cy="564.709" r="4.97252" stroke-width="0.5" stroke="black" fill="green"/>
   </g>
   <g id="cell37">
  <circle cx="488.166" cy="506.623" r="8.41271" stroke-width="0.5" stroke="black" fill="green"/>
  <circle cx="488.166" cy="506.623" r="5.05167" stroke-width="0.5" stroke="black" fill="green"/>
   </g>
   <g id="cell38">
  <circle cx="614.526" cy="450.825" r="8.41271" stroke-width="0.5" stroke="black" fill="green"/>
  <circle cx="614.526" cy="450.825" r="5.05167" stroke-width="0.5" stroke="black" fill="green"/>
   </g>
   <g id="cell39">
  <circle cx="432.479" cy="530.805" r="8.41271" stroke-width="0.5" stroke="black" fill="green"/>
  <circle cx="432.479" cy="530.805" r="5.05167" stroke-width="0.5" stroke="black" fill="green"/>
   </g>
   <g id="cell40">
  <circle cx="473.661" cy="609.8" r="8.41271" stroke-width="0.5" stroke="black" fill="green"/>
  <circle cx="473.661" cy="609.8" r="5.05167" stroke-width="0.5" stroke="black" fill="green"/>
   </g>
   <g id="cell41">
  <circle cx="595.021" cy="413.59" r="8.41271" stroke-width="0.5" stroke="black" fill="green"/>
  <circle cx="595.021" cy="413.59" r="5.05167" stroke-width="0.5" stroke="black" fill="green"/>
   </g>
   <g id="cell42">
  <circle cx="457.612" cy="514.27" r="8.39618" stroke-width="0.5" stroke="black" fill="green"/>
  <circle cx="457.612" cy="514.27" r="5.04616" stroke-width="0.5" stroke="black" fill="green"/>
   </g>
   <g id="cell43">
  <circle cx="357.665" cy="458.998" r="8.41271" stroke-width="0.5" stroke="black" fill="green"/>
  <circle cx="357.665" cy="458.998" r="5.05167" stroke-width="0.5" stroke="black" fill="green"/>
   </g>
   <g id="cell44">
  <circle cx="502.096" cy="467.573" r="8.41271" stroke-width="0.5" stroke="black" fill="green"/>
  <circle cx="502.096" cy="467.573" r="5.05167" stroke-width="0.5" stroke="black" fill="green"/>
   </g>
   <g id="cell45">
  <circle cx="491.778" cy="631.204" r="6.8313" stroke-width="0.5" stroke="black" fill="green"/>
  <circle cx="491.778" cy="631.204" r="4.18803" stroke-width="0.5" stroke="black" fill="green"/>
   </g>
   <g id="cell46">
  <circle cx="598.85" cy="454.504" r="8.41271" stroke-width="0.5" stroke="black" fill="green"/>
  <circle cx="598.85" cy="454.504" r="5.05167" stroke-width="0.5" stroke="black" fill="green"/>
   </g>
   <g id="cell47">
  <circle cx="510.855" cy="538.473" r="6.80881" stroke-width="0.5" stroke="black" fill="green"/>
  <circle cx="510.855" cy="538.473" r="4.10709" stroke-width="0.5" stroke="black" fill="green"/>
   </g>
   <g id="cell48">
  <circle cx="452.573" cy="383.833" r="8.41271" stroke-width="0.5" stroke="black" fill="green"/>
  <circle cx="452.573" cy="383.833" r="5.05167" stroke-width="0.5" stroke="black" fill="green"/>
   </g>
   <g id="cell49">
  <circle cx="443.978" cy="638.738" r="8.41271" stroke-width="0.5" stroke="black" fill="green"/>
  <circle cx="443.978" cy="638.738" r="5.05167" stroke-width="0.5" stroke="black" fill="green"/>
   </g>
   <g id="cell50">
  <circle cx="543.512" cy="563.905" r="8.37092" stroke-width="0.5" stroke="black" fill="cyan"/>
  <circle cx="543.512" cy="563.905" r="5.03613" stroke-width="0.5" stroke="black" fill="cyan"/>
   </g>
   <g id="cell51">
  <circle cx="548.45" cy="594.863" r="8.41271" stroke-width="0.5" stroke="black" fill="cyan"/>
  <circle cx="548.45" cy="594.863" r="5.05167" stroke-width="0.5" stroke="black" fill="cyan"/>
   </g>
   <g id="cell52">
  <circle cx="421.333" cy="468.873" r="8.39422" stroke-width="0.5" stroke="black" fill="cyan"/>
  <circle cx="421.333" cy="468.873" r="5.04543" stroke-width="0.5" stroke="black" fill="cyan"/>
   </g>
   <g id="cell53">
  <circle cx="543.6" cy="527.611" r="8.41271" stroke-width="0.5" stroke="black" fill="cyan"/>
  <circle cx="543.6" cy="527.611" r="5.05167" stroke-width="0.5" stroke="black" fill="cyan"/>
   </g>
   <g id="cell54">
  <circle cx="588.293" cy="395.031" r="8.41271" stroke-width="0.5" stroke="black" fill="cyan"/>
  <circle cx="588.293" cy="395.031" r="5.05167" stroke-width="0.5" stroke="black" fill="cyan"/>
   </g>
   <g id="cell55">
  <circle cx="524.476" cy="387.367" r="8.41271" stroke-width="0.5" stroke="black" fill="cyan"/>
  <circle cx="524.476" cy="387.367" r="5.05167" stroke-width="0.5" stroke="black" fill="cyan"/>
   </g>
   <g id="cell56">
  <circle cx="610.675" cy="476.342" r="8.41271" stroke-width="0.5" stroke="black" fill="cyan"/>
  <circle cx="610.675" cy="476.342" r="5.05167" stroke-width="0.5" stroke="black" fill="cyan"/>
   </g>
   <g id="cell57">
  <circle cx="533.406" cy="589.481" r="8.35019" stroke-width="0.5" stroke="black" fill="cyan"/>
  <circle cx="533.406" cy="589.481" r="5.02842" stroke-width="0.5" stroke="black" fill="cyan"/>
   </g>
   <g id="cell58">
  <circle cx="513.94" cy="458.251" r="7.54436" stroke-width="0.5" stroke="black" fill="cyan"/>
  <circle cx="513.94" cy="458.251" r="4.58555" stroke-width="0.5" stroke="black" fill="cyan"/>
   </g>
   <g id="cell59">
  <circle cx="518.437" cy="584.196" r="8.35882" stroke-width="0.5" stroke="black" fill="cyan"/>
  <circle cx="518.437" cy="584.196" r="5.031" stroke-width="0.5" stroke="black" fill="cyan"/>
   </g>
   <g id="cell60">
  <circle cx="517.548" cy="427.843" r="8.23444" stroke-width="0.5" stroke="black" fill="cyan"/>
  <circle cx="517.548" cy="427.843" r="4.97252" stroke-width="0.5" stroke="black" fill="cyan"/>
   </g>
   <g id="cell61">
  <circle cx="643.561" cy="521.044" r="8.41271" stroke-width="0.5" stroke="black" fill="cyan"/>
  <circle cx="643.561" cy="521.044" r="5.05167" stroke-width="0.5" stroke="black" fill="cyan"/>
   </g>
   <g id="cell62">
  <circle cx="532.533" cy="362.003" r="8.41271" stroke-width="0.5" stroke="black" fill="cyan"/>
  <circle cx="532.533" cy="362.003" r="5.05167" stroke-width="0.5" stroke="black" fill="cyan"/>
   </g>
   <g id="cell63">
  <circle cx="575.759" cy="544.823" r="8.28629" stroke-width="0.5" stroke="black" fill="cyan"/>
  <circle cx="575.759" cy="544.823" r="4.99786" stroke-width="0.5" stroke="black" fill="cyan"/>
   </g>
   <g id="cell64">
  <circle cx="403.014" cy="601.349" r="8.41271" stroke-width="0.5" stroke="black" fill="cyan"/>
  <circle cx="403.014" cy="601.349" r="5.05167" stroke-width="0.5" stroke="black" fill="cyan"/>
   </g>
   <g id="cell65">
  <circle cx="510.57" cy="487.438" r="8.41271" stroke-width="0.5" stroke="black" fill="cyan"/>
  <circle cx="510.57" cy="487.438" r="5.05167" stroke-width="0.5" stroke="black" fill="cyan"/>
   </g>
   <g id="cell66">
  <circle cx="517.358" cy="472.967" r="8.41271" stroke-width="0.5" stroke="black" fill="cyan"/>
  <circle cx="517.358" cy="472.967" r="5.05167" stroke-width="0.5" stroke="black" fill="cyan"/>
   </g>
   <g id="cell67">
  <circle cx="434.078" cy="426.967" r="8.41271" stroke-width="0.5" stroke="black" fill="cyan"/>
  <circle cx="434.078" cy="426.967" r="5.05167" stroke-width="0.5" stroke="black" fill="cyan"/>
   </g>
   <g id="cell68">
  <circle cx="400.599" cy="490.665" r="8.41271" stroke-width="0.5" stroke="black" fill="cyan"/>
  <circle cx="400.599" cy="490.665" r="5.05167" stroke-width="0.5" stroke="black" fill="cyan"/>
   </g>
   <g id="cell69">
  <circle cx="603.713" cy="439.266" r="8.39752" stroke-width="0.5" stroke="black" fill="cyan"/>
  <circle cx="603.713" cy="439.266" r="5.04666" stroke-width="0.5" stroke="black" fill="cyan"/>
   </g>
   <g id="cell70">
  <circle cx="377.929" cy="439.797" r="8.41271" stroke-width="0.5" stroke="black" fill="cyan"/>
  <circle cx="377.929" cy="439.797" r="5.05167" stroke-width="0.5" stroke="black" fill="cyan"/>
   </g>
   <g id="cell71">
  <circle cx="402.547" cy="506.591" r="8.41271" stroke-width="0.5" stroke="black" fill="cyan"/>
  <circle cx="402.547" cy="506.591" r="5.05167" stroke-width="0.5" stroke="black" fill="cyan"/>
   </g>
   <g id="cell72">
  <circle cx="619.055" cy="435.325" r="8.41271" stroke-width="0.5" stroke="black" fill="cyan"/>
  <circle cx="619.055" cy="435.325" r="5.05167" stroke-width="0.5" stroke="black" fill="cyan"/>
   </g>
   <g id="cell73">
  <circle cx="419.917" cy="521.103" r="8.26685" stroke-width="0.5" stroke="black" fill="cyan"/>
  <circle cx="419.917" cy="521.103" r="4.98849" stroke-width="0.5" stroke="black" fill="cyan"/>
   </g>
   <g id="cell74">
  <circle cx="437.585" cy="484.446" r="8.41271" stroke-width="0.5" stroke="black" fill="cyan"/>
  <circle cx="437.585" cy="484.446" r="5.05167" stroke-width="0.5" stroke="black" fill="cyan"/>
   </g>
   <g id="cell75">
  <circle cx="466.881" cy="596.838" r="7.19239" stroke-width="0.5" stroke="black" fill="green"/>
  <circle cx="466.881" cy="596.838" r="4.38825" stroke-width="0.5" stroke="black" fill="green"/>
   </g>
   <g id="cell76">
  <circle cx="608.312" cy="423.404" r="8.39752" stroke-width="0.5" stroke="black" fill="cyan"/>
  <circle cx="608.312" cy="423.404" r="5.04666" stroke-width="0.5" stroke="black" fill="cyan"/>
   </g>
   <g id="cell77">
  <circle cx="460.338" cy="529.877" r="8.30921" stroke-width="0.5" stroke="black" fill="green"/>
  <circle cx="460.338" cy="529.877" r="5.00977" stroke-width="0.5" stroke="black" fill="green"/>
   </g>
   <g id="cell78">
  <circle cx="580.884" cy="408.232" r="7.66299" stroke-width="0.5" stroke="black" fill="green"/>
  <circle cx="580.884" cy="408.232" r="4.66369" stroke-width="0.5" stroke="black" fill="green"/>
   </g>
   <g id="cell79">
  <circle cx="414.894" cy="483.487" r="8.39422" stroke-width="0.5" stroke="black" fill="cyan"/>
  <circle cx="414.894" cy="483.487" r="5.04543" stroke-width="0.5" stroke="black" fill="cyan"/>
   </g>
   <g id="cell80">
  <circle cx="618.613" cy="511.611" r="8.3937" stroke-width="0.5" stroke="black" fill="magenta"/>
  <circle cx="618.613" cy="511.611" r="5.04523" stroke-width="0.5" stroke="black" fill="magenta"/>
   </g>
   <g id="cell81">
  <circle cx="438.346" cy="441.938" r="8.37935" stroke-width="0.5" stroke="black" fill="magenta"/>
  <circle cx="438.346" cy="441.938" r="5.0396" stroke-width="0.5" stroke="black" fill="magenta"/>
   </g>
   <g id="cell82">
  <circle cx="536.429" cy="605.191" r="8.37641" stroke-width="0.5" stroke="black" fill="cyan"/>
  <circle cx="536.429" cy="605.191" r="5.0384" stroke-width="0.5" stroke="black" fill="cyan"/>
   </g>
   <g id="cell83">
  <circle cx="482.2" cy="579.853" r="8.37092" stroke-width="0.5" stroke="black" fill="magenta"/>
  <circle cx="482.2" cy="579.853" r="5.03613" stroke-width="0.5" stroke="black" fill="magenta"/>
   </g>
   <g id="cell84">
  <circle cx="545.468" cy="579.466" r="8.24526" stroke-width="0.5" stroke="black" fill="cyan"/>
  <circle cx="545.468" cy="579.466" r="4.98042" stroke-width="0.5" stroke="black" fill="cyan"/>
   </g>
   <g id="cell85">
  <circle cx="530.709" cy="573.748" r="8.35019" stroke-width="0.5" stroke="black" fill="cyan"/>
  <circle cx="530.709" cy="573.748" r="5.02842" stroke-width="0.5" stroke="black" fill="cyan"/>
   </g>
   <g id="cell86">
  <circle cx="648.319" cy="506.245" r="8.35882" stroke-width="0.5" stroke="black" fill="magenta"/>
  <circle cx="648.319" cy="506.245" r="5.031" stroke-width="0.5" stroke="black" fill="magenta"/>
   </g>
   <g id="cell87">
  <circle cx="571.288" cy="430.717" r="7.50529" stroke-width="0.5" stroke="black" fill="green"/>
  <circle cx="571.288" cy="430.717" r="4.57026" stroke-width="0.5" stroke="black" fill="green"/>
   </g>
   <g id="cell88">
  <circle cx="521.505" cy="599.895" r="8.35882" stroke-width="0.5" stroke="black" fill="cyan"/>
  <circle cx="521.505" cy="599.895" r="5.031" stroke-width="0.5" stroke="black" fill="cyan"/>
   </g>
   <g id="cell89">
  <circle cx="557.438" cy="464.696" r="8.32543" stroke-width="0.5" stroke="black" fill="magenta"/>
  <circle cx="557.438" cy="464.696" r="5.01617" stroke-width="0.5" stroke="black" fill="magenta"/>
   </g>
   <g id="cell90">
  <circle cx="473.107" cy="539.044" r="8.30921" stroke-width="0.5" stroke="black" fill="green"/>
  <circle cx="473.107" cy="539.044" r="5.00977" stroke-width="0.5" stroke="black" fill="green"/>
   </g>
   <g id="cell91">
  <circle cx="419.099" cy="538.573" r="8.31491" stroke-width="0.5" stroke="black" fill="magenta"/>
  <circle cx="419.099" cy="538.573" r="5.01133" stroke-width="0.5" stroke="black" fill="magenta"/>
   </g>
   <g id="cell92">
  <circle cx="563.411" cy="535.792" r="7.93157" stroke-width="0.5" stroke="black" fill="cyan"/>
  <circle cx="563.411" cy="535.792" r="4.81956" stroke-width="0.5" stroke="black" fill="cyan"/>
   </g>
   <g id="cell93">
  <circle cx="425.844" cy="494.069" r="7.65449" stroke-width="0.5" stroke="black" fill="cyan"/>
  <circle cx="425.844" cy="494.069" r="4.66375" stroke-width="0.5" stroke="black" fill="cyan"/>
   </g>
   <g id="cell94">
  <circle cx="558.127" cy="570.473" r="8.24526" stroke-width="0.5" stroke="black" fill="cyan"/>
  <circle cx="558.127" cy="570.473" r="4.98042" stroke-width="0.5" stroke="black" fill="cyan"/>
   </g>
   <g id="cell95">
  <circle cx="589.419" cy="552.452" r="8.25826" stroke-width="0.5" stroke="black" fill="green"/>
  <circle cx="589.419" cy="552.452" r="4.98429" stroke-width="0.5" stroke="black" fill="green"/>
   </g>
   <g id="cell96">
  <circle cx="467.419" cy="582.65" r="7.94496" stroke-width="0.5" stroke="black" fill="green"/>
  <circle cx="467.419" cy="582.65" r="4.82875" stroke-width="0.5" stroke="black" fill="green"/>
   </g>
   <g id="cell97">
  <circle cx="623.91" cy="497.65" r="8.2212" stroke-width="0.5" stroke="black" fill="magenta"/>
  <circle cx="623.91" cy="497.65" r="4.96904" stroke-width="0.5" stroke="black" fill="magenta"/>
   </g>
   <g id="cell98">
  <circle cx="392.083" cy="579.936" r="8.24438" stroke-width="0.5" stroke="black" fill="magenta"/>
  <circle cx="392.083" cy="579.936" r="4.97746" stroke-width="0.5" stroke="black" fill="magenta"/>
   </g>
   <g id="cell99">
  <circle cx="529.106" cy="438.639" r="8.23444" stroke-width="0.5" stroke="black" fill="cyan"/>
  <circle cx="529.106" cy="438.639" r="4.97252" stroke-width="0.5" stroke="black" fill="cyan"/>
   </g>
   <g id="cell100">
  <circle cx="469.545" cy="567.619" r="8.23444" stroke-width="0.5" stroke="black" fill="green"/>
  <circle cx="469.545" cy="567.619" r="4.97252" stroke-width="0.5" stroke="black" fill="green"/>
   </g>
   <g id="cell101">
  <circle cx="609.07" cy="594.35" r="7.86591" stroke-width="0.5" stroke="black" fill="green"/>
  <circle cx="609.07" cy="594.35" r="4.78628" stroke-width="0.5" stroke="black" fill="green"/>
   </g>
   <g id="cell102">
  <circle cx="407.384" cy="564.132" r="8.18833" stroke-width="0.5" stroke="black" fill="magenta"/>
  <circle cx="407.384" cy="564.132" r="4.94921" stroke-width="0.5" stroke="black" fill="magenta"/>
   </g>
   <g id="cell103">
  <circle cx="539.042" cy="392.215" r="8.06667" stroke-width="0.5" stroke="black" fill="magenta"/>
  <circle cx="539.042" cy="392.215" r="4.88515" stroke-width="0.5" stroke="black" fill="magenta"/>
   </g>
   <g id="cell104">
  <circle cx="494.529" cy="588.115" r="8.02325" stroke-width="0.5" stroke="black" fill="magenta"/>
  <circle cx="494.529" cy="588.115" r="4.86537" stroke-width="0.5" stroke="black" fill="magenta"/>
   </g>
   <g id="cell105">
  <circle cx="452.549" cy="579.985" r="7.94496" stroke-width="0.5" stroke="black" fill="green"/>
  <circle cx="452.549" cy="579.985" r="4.82875" stroke-width="0.5" stroke="black" fill="green"/>
   </g>
   <g id="cell106">
  <circle cx="558.497" cy="522.796" r="6.78569" stroke-width="0.5" stroke="black" fill="cyan"/>
  <circle cx="558.497" cy="522.796" r="4.15733" stroke-width="0.5" stroke="black" fill="cyan"/>
   </g>
   <g id="cell107">
  <circle cx="594.42" cy="597.341" r="7.86591" stroke-width="0.5" stroke="black" fill="green"/>
  <circle cx="594.42" cy="597.341" r="4.78628" stroke-width="0.5" stroke="black" fill="green"/>
   </g>
   <g id="cell108">
  <circle cx="523.885" cy="414.591" r="7.71604" stroke-width="0.5" stroke="black" fill="magenta"/>
  <circle cx="523.885" cy="414.591" r="4.705" stroke-width="0.5" stroke="black" fill="magenta"/>
   </g>
   <g id="cell109">
  <circle cx="417.709" cy="506" r="7.65449" stroke-width="0.5" stroke="black" fill="cyan"/>
  <circle cx="417.709" cy="506" r="4.66375" stroke-width="0.5" stroke="black" fill="cyan"/>
   </g>
   <g id="cell110">
  <circle cx="504.015" cy="613.182" r="7.7401" stroke-width="0.5" stroke="black" fill="green"/>
  <circle cx="504.015" cy="613.182" r="4.70142" stroke-width="0.5" stroke="black" fill="green"/>
   </g>
   <g id="cell111">
  <circle cx="569.302" cy="416.681" r="7.66299" stroke-width="0.5" stroke="black" fill="green"/>
  <circle cx="569.302" cy="416.681" r="4.66369" stroke-width="0.5" stroke="black" fill="green"/>
   </g>
   <g id="cell112">
  <circle cx="501.183" cy="452.076" r="7.54436" stroke-width="0.5" stroke="black" fill="cyan"/>
  <circle cx="501.183" cy="452.076" r="4.58555" stroke-width="0.5" stroke="black" fill="cyan"/>
   </g>
   <g id="cell113">
  <circle cx="583.892" cy="436.556" r="7.50529" stroke-width="0.5" stroke="black" fill="green"/>
  <circle cx="583.892" cy="436.556" r="4.57026" stroke-width="0.5" stroke="black" fill="green"/>
   </g>
   <g id="cell114">
  <circle cx="582.428" cy="422.252" r="7.54436" stroke-width="0.5" stroke="black" fill="magenta"/>
  <circle cx="582.428" cy="422.252" r="4.58555" stroke-width="0.5" stroke="black" fill="magenta"/>
   </g>
   <g id="cell115">
  <circle cx="600.016" cy="610.662" r="7.35433" stroke-width="0.5" stroke="black" fill="green"/>
  <circle cx="600.016" cy="610.662" r="4.49044" stroke-width="0.5" stroke="black" fill="green"/>
   </g>
   <g id="cell116">
  <circle cx="453.783" cy="594.234" r="7.19239" stroke-width="0.5" stroke="black" fill="green"/>
  <circle cx="453.783" cy="594.234" r="4.38825" stroke-width="0.5" stroke="black" fill="green"/>
   </g>
   <g id="cell117">
  <circle cx="504.019" cy="627.044" r="6.8313" stroke-width="0.5" stroke="black" fill="green"/>
  <circle cx="504.019" cy="627.044" r="4.18803" stroke-width="0.5" stroke="black" fill="green"/>
   </g>
   <g id="cell118">
  <circle cx="500.313" cy="422.752" r="7.11815" stroke-width="0.5" stroke="black" fill="magenta"/>
  <circle cx="500.313" cy="422.752" r="4.31954" stroke-width="0.5" stroke="black" fill="magenta"/>
   </g>
   <g id="cell119">
  <circle cx="568.177" cy="514.269" r="6.78569" stroke-width="0.5" stroke="black" fill="cyan"/>
  <circle cx="568.177" cy="514.269" r="4.15733" stroke-width="0.5" stroke="black" fill="cyan"/>
   </g>
   <g id="cell120">
  <circle cx="484.454" cy="547.44" r="6.95901" stroke-width="0.5" stroke="black" fill="magenta"/>
  <circle cx="484.454" cy="547.44" r="4.21341" stroke-width="0.5" stroke="black" fill="magenta"/>
   </g>
   <g id="cell121">
  <circle cx="523.622" cy="540.845" r="6.80881" stroke-width="0.5" stroke="black" fill="green"/>
  <circle cx="523.622" cy="540.845" r="4.10709" stroke-width="0.5" stroke="black" fill="green"/>
   </g>
  </g>
 </g>
  <rect x="775" y="1035" width="200" height="10" stroke-width="2" stroke="rgb(255,255,255)" fill="rgb(0,0,0)"/>
  <text x="781.25" y="1028.75"
   font-family="Arial" font-size="25" fill="black" >
   200 &#956;m
  </text>
  <text x="25" y="1045"
   font-family="Arial" font-size="18.75" fill="black" >
   0 days, 0 hours, 0 minutes, and 20.2272 seconds
  </text>
  <rect x="0" y="70" width="1000" height="1000" stroke-width="2" stroke="rgb(0,0,0)" fill="none"/>
</svg>
