<?xml version="1.0" encoding="UTF-8" standalone="no"?>
<!-- Created with PhysiCell (http://PhysiCell.MathCancer.org/) -->
<svg 
 xmlns:dc="http://purl.org/dc/elements/1.1/" 
 xmlns:cc="http://creativecommons.org/ns#" 
 xmlns:rdf="http://www.w3.org/1999/02/22-rdf-syntax-ns#" 
 xmlns:svg="http://www.w3.org/2000/svg" 
 xmlns="http://www.w3.org/2000/svg" 
 version="1.1" 
 width="1000" 
 height="1070" 
 id="svg2">
  <rect x="0" y="0" width="1000" height="1070" stroke-width="2" stroke="white" fill="white"/>
  <text x="12.5" y="30"
   font-family="Arial" font-size="25" fill="black" >
   Current time: 0 days, 14 hours, and 12.00 minutes, z = 0.00 &#956;m
  </text>
  <text x="12.5" y="57.5"
   font-family="Arial" font-size="23.75" fill="black" >
   117 agents
  </text>
 <g id="tissue" 
    transform="translate(0,1070) scale(1,-1)">
  <g id="ECM">
  </g>
  <g id="cells">
   <g id="cell0">
  <circle cx="515.984" cy="534.248" r="8.27497" stroke-width="0.5" stroke="black" fill="magenta"/>
  <circle cx="515.984" cy="534.248" r="4.99242" stroke-width="0.5" stroke="black" fill="magenta"/>
   </g>
   <g id="cell1">
  <circle cx="602.492" cy="526.171" r="8.41271" stroke-width="0.5" stroke="black" fill="magenta"/>
  <circle cx="602.492" cy="526.171" r="5.05167" stroke-width="0.5" stroke="black" fill="magenta"/>
   </g>
   <g id="cell2">
  <circle cx="514.719" cy="599.092" r="8.41271" stroke-width="0.5" stroke="black" fill="magenta"/>
  <circle cx="514.719" cy="599.092" r="5.05167" stroke-width="0.5" stroke="black" fill="magenta"/>
   </g>
   <g id="cell3">
  <circle cx="524.003" cy="546.874" r="8.18513" stroke-width="0.5" stroke="black" fill="magenta"/>
  <circle cx="524.003" cy="546.874" r="4.95197" stroke-width="0.5" stroke="black" fill="magenta"/>
   </g>
   <g id="cell4">
  <circle cx="490.638" cy="437.411" r="8.35727" stroke-width="0.5" stroke="black" fill="magenta"/>
  <circle cx="490.638" cy="437.411" r="5.03034" stroke-width="0.5" stroke="black" fill="magenta"/>
   </g>
   <g id="cell5">
  <circle cx="465.032" cy="493.3" r="8.41271" stroke-width="0.5" stroke="black" fill="magenta"/>
  <circle cx="465.032" cy="493.3" r="5.05167" stroke-width="0.5" stroke="black" fill="magenta"/>
   </g>
   <g id="cell6">
  <circle cx="595.637" cy="512.669" r="8.41271" stroke-width="0.5" stroke="black" fill="magenta"/>
  <circle cx="595.637" cy="512.669" r="5.05167" stroke-width="0.5" stroke="black" fill="magenta"/>
   </g>
   <g id="cell7">
  <circle cx="503.886" cy="456.04" r="7.30216" stroke-width="0.5" stroke="black" fill="magenta"/>
  <circle cx="503.886" cy="456.04" r="4.43696" stroke-width="0.5" stroke="black" fill="magenta"/>
   </g>
   <g id="cell8">
  <circle cx="376.3" cy="542.102" r="8.41271" stroke-width="0.5" stroke="black" fill="magenta"/>
  <circle cx="376.3" cy="542.102" r="5.05167" stroke-width="0.5" stroke="black" fill="magenta"/>
   </g>
   <g id="cell9">
  <circle cx="460.472" cy="599.786" r="8.41271" stroke-width="0.5" stroke="black" fill="magenta"/>
  <circle cx="460.472" cy="599.786" r="5.05167" stroke-width="0.5" stroke="black" fill="magenta"/>
   </g>
   <g id="cell10">
  <circle cx="583.447" cy="392.105" r="8.41271" stroke-width="0.5" stroke="black" fill="magenta"/>
  <circle cx="583.447" cy="392.105" r="5.05167" stroke-width="0.5" stroke="black" fill="magenta"/>
   </g>
   <g id="cell11">
  <circle cx="591.04" cy="590.1" r="8.41271" stroke-width="0.5" stroke="black" fill="magenta"/>
  <circle cx="591.04" cy="590.1" r="5.05167" stroke-width="0.5" stroke="black" fill="magenta"/>
   </g>
   <g id="cell12">
  <circle cx="506.867" cy="586.229" r="8.41271" stroke-width="0.5" stroke="black" fill="magenta"/>
  <circle cx="506.867" cy="586.229" r="5.05167" stroke-width="0.5" stroke="black" fill="magenta"/>
   </g>
   <g id="cell13">
  <circle cx="386.194" cy="568.228" r="8.41271" stroke-width="0.5" stroke="black" fill="magenta"/>
  <circle cx="386.194" cy="568.228" r="5.05167" stroke-width="0.5" stroke="black" fill="magenta"/>
   </g>
   <g id="cell14">
  <circle cx="529.651" cy="399.265" r="8.41271" stroke-width="0.5" stroke="black" fill="magenta"/>
  <circle cx="529.651" cy="399.265" r="5.05167" stroke-width="0.5" stroke="black" fill="magenta"/>
   </g>
   <g id="cell15">
  <circle cx="379.65" cy="475.1" r="8.41271" stroke-width="0.5" stroke="black" fill="magenta"/>
  <circle cx="379.65" cy="475.1" r="5.05167" stroke-width="0.5" stroke="black" fill="magenta"/>
   </g>
   <g id="cell16">
  <circle cx="428.963" cy="413.177" r="8.41271" stroke-width="0.5" stroke="black" fill="magenta"/>
  <circle cx="428.963" cy="413.177" r="5.05167" stroke-width="0.5" stroke="black" fill="magenta"/>
   </g>
   <g id="cell17">
  <circle cx="570.225" cy="491.044" r="8.41271" stroke-width="0.5" stroke="black" fill="magenta"/>
  <circle cx="570.225" cy="491.044" r="5.05167" stroke-width="0.5" stroke="black" fill="magenta"/>
   </g>
   <g id="cell18">
  <circle cx="518.082" cy="389.507" r="8.41271" stroke-width="0.5" stroke="black" fill="magenta"/>
  <circle cx="518.082" cy="389.507" r="5.05167" stroke-width="0.5" stroke="black" fill="magenta"/>
   </g>
   <g id="cell19">
  <circle cx="459.165" cy="540.253" r="7.25358" stroke-width="0.5" stroke="black" fill="magenta"/>
  <circle cx="459.165" cy="540.253" r="4.42519" stroke-width="0.5" stroke="black" fill="magenta"/>
   </g>
   <g id="cell20">
  <circle cx="531.378" cy="414.323" r="8.41271" stroke-width="0.5" stroke="black" fill="magenta"/>
  <circle cx="531.378" cy="414.323" r="5.05167" stroke-width="0.5" stroke="black" fill="magenta"/>
   </g>
   <g id="cell21">
  <circle cx="464.368" cy="634.574" r="8.41271" stroke-width="0.5" stroke="black" fill="magenta"/>
  <circle cx="464.368" cy="634.574" r="5.05167" stroke-width="0.5" stroke="black" fill="magenta"/>
   </g>
   <g id="cell22">
  <circle cx="555.734" cy="495.535" r="8.41271" stroke-width="0.5" stroke="black" fill="magenta"/>
  <circle cx="555.734" cy="495.535" r="5.05167" stroke-width="0.5" stroke="black" fill="magenta"/>
   </g>
   <g id="cell23">
  <circle cx="544.426" cy="485.495" r="8.41271" stroke-width="0.5" stroke="black" fill="magenta"/>
  <circle cx="544.426" cy="485.495" r="5.05167" stroke-width="0.5" stroke="black" fill="magenta"/>
   </g>
   <g id="cell24">
  <circle cx="559.094" cy="380.496" r="8.41271" stroke-width="0.5" stroke="black" fill="magenta"/>
  <circle cx="559.094" cy="380.496" r="5.05167" stroke-width="0.5" stroke="black" fill="magenta"/>
   </g>
   <g id="cell25">
  <circle cx="645.684" cy="545.241" r="8.32788" stroke-width="0.5" stroke="black" fill="green"/>
  <circle cx="645.684" cy="545.241" r="5.01729" stroke-width="0.5" stroke="black" fill="green"/>
   </g>
   <g id="cell26">
  <circle cx="554.438" cy="398.027" r="7.27253" stroke-width="0.5" stroke="black" fill="green"/>
  <circle cx="554.438" cy="398.027" r="4.41835" stroke-width="0.5" stroke="black" fill="green"/>
   </g>
   <g id="cell27">
  <circle cx="463.663" cy="389.728" r="8.36032" stroke-width="0.5" stroke="black" fill="green"/>
  <circle cx="463.663" cy="389.728" r="5.03165" stroke-width="0.5" stroke="black" fill="green"/>
   </g>
   <g id="cell28">
  <circle cx="433.133" cy="530.705" r="8.41271" stroke-width="0.5" stroke="black" fill="green"/>
  <circle cx="433.133" cy="530.705" r="5.05167" stroke-width="0.5" stroke="black" fill="green"/>
   </g>
   <g id="cell29">
  <circle cx="450.464" cy="515.95" r="8.41271" stroke-width="0.5" stroke="black" fill="green"/>
  <circle cx="450.464" cy="515.95" r="5.05167" stroke-width="0.5" stroke="black" fill="green"/>
   </g>
   <g id="cell30">
  <circle cx="481.026" cy="534.519" r="8.20088" stroke-width="0.5" stroke="black" fill="green"/>
  <circle cx="481.026" cy="534.519" r="4.95562" stroke-width="0.5" stroke="black" fill="green"/>
   </g>
   <g id="cell31">
  <circle cx="412.807" cy="541.56" r="8.41271" stroke-width="0.5" stroke="black" fill="green"/>
  <circle cx="412.807" cy="541.56" r="5.05167" stroke-width="0.5" stroke="black" fill="green"/>
   </g>
   <g id="cell32">
  <circle cx="421.356" cy="481.632" r="8.1218" stroke-width="0.5" stroke="black" fill="green"/>
  <circle cx="421.356" cy="481.632" r="4.91457" stroke-width="0.5" stroke="black" fill="green"/>
   </g>
   <g id="cell33">
  <circle cx="498.336" cy="423.929" r="8.41271" stroke-width="0.5" stroke="black" fill="green"/>
  <circle cx="498.336" cy="423.929" r="5.05167" stroke-width="0.5" stroke="black" fill="green"/>
   </g>
   <g id="cell34">
  <circle cx="397.088" cy="450.831" r="8.41271" stroke-width="0.5" stroke="black" fill="green"/>
  <circle cx="397.088" cy="450.831" r="5.05167" stroke-width="0.5" stroke="black" fill="green"/>
   </g>
   <g id="cell35">
  <circle cx="552.788" cy="541.283" r="8.41271" stroke-width="0.5" stroke="black" fill="green"/>
  <circle cx="552.788" cy="541.283" r="5.05167" stroke-width="0.5" stroke="black" fill="green"/>
   </g>
   <g id="cell36">
  <circle cx="391.486" cy="582.903" r="8.41271" stroke-width="0.5" stroke="black" fill="green"/>
  <circle cx="391.486" cy="582.903" r="5.05167" stroke-width="0.5" stroke="black" fill="green"/>
   </g>
   <g id="cell37">
  <circle cx="639.819" cy="457.329" r="8.35236" stroke-width="0.5" stroke="black" fill="green"/>
  <circle cx="639.819" cy="457.329" r="5.02821" stroke-width="0.5" stroke="black" fill="green"/>
   </g>
   <g id="cell38">
  <circle cx="529.892" cy="597.426" r="8.34117" stroke-width="0.5" stroke="black" fill="green"/>
  <circle cx="529.892" cy="597.426" r="5.02327" stroke-width="0.5" stroke="black" fill="green"/>
   </g>
   <g id="cell39">
  <circle cx="613.458" cy="490.595" r="8.41271" stroke-width="0.5" stroke="black" fill="green"/>
  <circle cx="613.458" cy="490.595" r="5.05167" stroke-width="0.5" stroke="black" fill="green"/>
   </g>
   <g id="cell40">
  <circle cx="485.348" cy="571.779" r="8.41271" stroke-width="0.5" stroke="black" fill="green"/>
  <circle cx="485.348" cy="571.779" r="5.05167" stroke-width="0.5" stroke="black" fill="green"/>
   </g>
   <g id="cell41">
  <circle cx="364.925" cy="480.252" r="8.41271" stroke-width="0.5" stroke="black" fill="green"/>
  <circle cx="364.925" cy="480.252" r="5.05167" stroke-width="0.5" stroke="black" fill="green"/>
   </g>
   <g id="cell42">
  <circle cx="438.842" cy="494.268" r="8.41271" stroke-width="0.5" stroke="black" fill="green"/>
  <circle cx="438.842" cy="494.268" r="5.05167" stroke-width="0.5" stroke="black" fill="green"/>
   </g>
   <g id="cell43">
  <circle cx="563.485" cy="441.571" r="8.41271" stroke-width="0.5" stroke="black" fill="green"/>
  <circle cx="563.485" cy="441.571" r="5.05167" stroke-width="0.5" stroke="black" fill="green"/>
   </g>
   <g id="cell44">
  <circle cx="475.857" cy="624.021" r="8.41271" stroke-width="0.5" stroke="black" fill="green"/>
  <circle cx="475.857" cy="624.021" r="5.05167" stroke-width="0.5" stroke="black" fill="green"/>
   </g>
   <g id="cell45">
  <circle cx="414.902" cy="556.699" r="4.23297" stroke-width="0.5" stroke="black" fill="green"/>
  <circle cx="414.902" cy="556.699" r="2.99316" stroke-width="0.5" stroke="black" fill="black"/>
   </g>
   <g id="cell46">
  <circle cx="523.614" cy="611.468" r="7.90853" stroke-width="0.5" stroke="black" fill="green"/>
  <circle cx="523.614" cy="611.468" r="4.79791" stroke-width="0.5" stroke="black" fill="green"/>
   </g>
   <g id="cell47">
  <circle cx="504.032" cy="502.919" r="8.10448" stroke-width="0.5" stroke="black" fill="green"/>
  <circle cx="504.032" cy="502.919" r="4.90539" stroke-width="0.5" stroke="black" fill="green"/>
   </g>
   <g id="cell48">
  <circle cx="570.105" cy="603.332" r="7.18105" stroke-width="0.5" stroke="black" fill="green"/>
  <circle cx="570.105" cy="603.332" r="4.39973" stroke-width="0.5" stroke="black" fill="green"/>
   </g>
   <g id="cell49">
  <circle cx="430.012" cy="397.6" r="8.41271" stroke-width="0.5" stroke="black" fill="green"/>
  <circle cx="430.012" cy="397.6" r="5.05167" stroke-width="0.5" stroke="black" fill="green"/>
   </g>
   <g id="cell50">
  <circle cx="512.623" cy="514.991" r="6.83458" stroke-width="0.5" stroke="black" fill="cyan"/>
  <circle cx="512.623" cy="514.991" r="4.15152" stroke-width="0.5" stroke="black" fill="cyan"/>
   </g>
   <g id="cell51">
  <circle cx="398.721" cy="597.201" r="8.41271" stroke-width="0.5" stroke="black" fill="cyan"/>
  <circle cx="398.721" cy="597.201" r="5.05167" stroke-width="0.5" stroke="black" fill="cyan"/>
   </g>
   <g id="cell52">
  <circle cx="518.595" cy="423.21" r="8.41271" stroke-width="0.5" stroke="black" fill="cyan"/>
  <circle cx="518.595" cy="423.21" r="5.05167" stroke-width="0.5" stroke="black" fill="cyan"/>
   </g>
   <g id="cell53">
  <circle cx="573.729" cy="430.054" r="7.98892" stroke-width="0.5" stroke="black" fill="cyan"/>
  <circle cx="573.729" cy="430.054" r="4.84272" stroke-width="0.5" stroke="black" fill="cyan"/>
   </g>
   <g id="cell54">
  <circle cx="482.572" cy="424.347" r="8.1609" stroke-width="0.5" stroke="black" fill="cyan"/>
  <circle cx="482.572" cy="424.347" r="4.93506" stroke-width="0.5" stroke="black" fill="cyan"/>
   </g>
   <g id="cell55">
  <circle cx="524.297" cy="463.652" r="8.00922" stroke-width="0.5" stroke="black" fill="cyan"/>
  <circle cx="524.297" cy="463.652" r="4.85929" stroke-width="0.5" stroke="black" fill="cyan"/>
   </g>
   <g id="cell56">
  <circle cx="617.613" cy="522.333" r="8.41271" stroke-width="0.5" stroke="black" fill="cyan"/>
  <circle cx="617.613" cy="522.333" r="5.05167" stroke-width="0.5" stroke="black" fill="cyan"/>
   </g>
   <g id="cell105">
  <circle cx="507.4" cy="610.352" r="6.33993" stroke-width="0.5" stroke="black" fill="green"/>
  <circle cx="507.4" cy="610.352" r="3.85284" stroke-width="0.5" stroke="black" fill="green"/>
   </g>
   <g id="cell58">
  <circle cx="559.081" cy="480.271" r="8.41271" stroke-width="0.5" stroke="black" fill="cyan"/>
  <circle cx="559.081" cy="480.271" r="5.05167" stroke-width="0.5" stroke="black" fill="cyan"/>
   </g>
   <g id="cell59">
  <circle cx="385.463" cy="439.803" r="8.41271" stroke-width="0.5" stroke="black" fill="cyan"/>
  <circle cx="385.463" cy="439.803" r="5.05167" stroke-width="0.5" stroke="black" fill="cyan"/>
   </g>
   <g id="cell60">
  <circle cx="592.412" cy="473.753" r="8.41271" stroke-width="0.5" stroke="black" fill="cyan"/>
  <circle cx="592.412" cy="473.753" r="5.05167" stroke-width="0.5" stroke="black" fill="cyan"/>
   </g>
   <g id="cell61">
  <circle cx="552.005" cy="620.342" r="8.41271" stroke-width="0.5" stroke="black" fill="cyan"/>
  <circle cx="552.005" cy="620.342" r="5.05167" stroke-width="0.5" stroke="black" fill="cyan"/>
   </g>
   <g id="cell62">
  <circle cx="514.659" cy="446.479" r="8.36178" stroke-width="0.5" stroke="black" fill="cyan"/>
  <circle cx="514.659" cy="446.479" r="5.03227" stroke-width="0.5" stroke="black" fill="cyan"/>
   </g>
   <g id="cell63">
  <circle cx="573.248" cy="541.62" r="8.26262" stroke-width="0.5" stroke="black" fill="cyan"/>
  <circle cx="573.248" cy="541.62" r="4.98642" stroke-width="0.5" stroke="black" fill="cyan"/>
   </g>
   <g id="cell64">
  <circle cx="509.978" cy="636.598" r="8.41271" stroke-width="0.5" stroke="black" fill="cyan"/>
  <circle cx="509.978" cy="636.598" r="5.05167" stroke-width="0.5" stroke="black" fill="cyan"/>
   </g>
   <g id="cell65">
  <circle cx="546.94" cy="470.194" r="8.24438" stroke-width="0.5" stroke="black" fill="cyan"/>
  <circle cx="546.94" cy="470.194" r="4.97746" stroke-width="0.5" stroke="black" fill="cyan"/>
   </g>
   <g id="cell66">
  <circle cx="531.059" cy="533.333" r="8.14594" stroke-width="0.5" stroke="black" fill="cyan"/>
  <circle cx="531.059" cy="533.333" r="4.92726" stroke-width="0.5" stroke="black" fill="cyan"/>
   </g>
   <g id="cell67">
  <circle cx="354.711" cy="492.599" r="8.41271" stroke-width="0.5" stroke="black" fill="cyan"/>
  <circle cx="354.711" cy="492.599" r="5.05167" stroke-width="0.5" stroke="black" fill="cyan"/>
   </g>
   <g id="cell68">
  <circle cx="562.648" cy="553.49" r="8.41271" stroke-width="0.5" stroke="black" fill="cyan"/>
  <circle cx="562.648" cy="553.49" r="5.05167" stroke-width="0.5" stroke="black" fill="cyan"/>
   </g>
   <g id="cell69">
  <circle cx="442.069" cy="460.625" r="8.41271" stroke-width="0.5" stroke="black" fill="cyan"/>
  <circle cx="442.069" cy="460.625" r="5.05167" stroke-width="0.5" stroke="black" fill="cyan"/>
   </g>
   <g id="cell70">
  <circle cx="576.552" cy="476.757" r="8.41271" stroke-width="0.5" stroke="black" fill="cyan"/>
  <circle cx="576.552" cy="476.757" r="5.05167" stroke-width="0.5" stroke="black" fill="cyan"/>
   </g>
   <g id="cell71">
  <circle cx="379.509" cy="527.66" r="7.41548" stroke-width="0.5" stroke="black" fill="cyan"/>
  <circle cx="379.509" cy="527.66" r="4.50723" stroke-width="0.5" stroke="black" fill="cyan"/>
   </g>
   <g id="cell72">
  <circle cx="532.523" cy="511.595" r="8.16806" stroke-width="0.5" stroke="black" fill="cyan"/>
  <circle cx="532.523" cy="511.595" r="4.93877" stroke-width="0.5" stroke="black" fill="cyan"/>
   </g>
   <g id="cell73">
  <circle cx="364.652" cy="552.443" r="8.27885" stroke-width="0.5" stroke="black" fill="cyan"/>
  <circle cx="364.652" cy="552.443" r="4.99429" stroke-width="0.5" stroke="black" fill="cyan"/>
   </g>
   <g id="cell74">
  <circle cx="549.257" cy="441.761" r="7.27253" stroke-width="0.5" stroke="black" fill="cyan"/>
  <circle cx="549.257" cy="441.761" r="4.41835" stroke-width="0.5" stroke="black" fill="cyan"/>
   </g>
   <g id="cell75">
  <circle cx="527.294" cy="436.711" r="8.36178" stroke-width="0.5" stroke="black" fill="cyan"/>
  <circle cx="527.294" cy="436.711" r="5.03227" stroke-width="0.5" stroke="black" fill="cyan"/>
   </g>
   <g id="cell76">
  <circle cx="441.148" cy="382.685" r="7.56966" stroke-width="0.5" stroke="black" fill="green"/>
  <circle cx="441.148" cy="382.685" r="4.62504" stroke-width="0.5" stroke="black" fill="green"/>
   </g>
   <g id="cell77">
  <circle cx="476.16" cy="437.636" r="7.78109" stroke-width="0.5" stroke="black" fill="magenta"/>
  <circle cx="476.16" cy="437.636" r="4.73102" stroke-width="0.5" stroke="black" fill="magenta"/>
   </g>
   <g id="cell78">
  <circle cx="624.482" cy="460.982" r="8.21307" stroke-width="0.5" stroke="black" fill="green"/>
  <circle cx="624.482" cy="460.982" r="4.96522" stroke-width="0.5" stroke="black" fill="green"/>
   </g>
   <g id="cell79">
  <circle cx="517.757" cy="479.742" r="8.34511" stroke-width="0.5" stroke="black" fill="cyan"/>
  <circle cx="517.757" cy="479.742" r="5.02502" stroke-width="0.5" stroke="black" fill="cyan"/>
   </g>
   <g id="cell80">
  <circle cx="539.182" cy="610.575" r="8.30286" stroke-width="0.5" stroke="black" fill="green"/>
  <circle cx="539.182" cy="610.575" r="5.00795" stroke-width="0.5" stroke="black" fill="green"/>
   </g>
   <g id="cell81">
  <circle cx="545.283" cy="595.88" r="8.30286" stroke-width="0.5" stroke="black" fill="green"/>
  <circle cx="545.283" cy="595.88" r="5.00795" stroke-width="0.5" stroke="black" fill="green"/>
   </g>
   <g id="cell82">
  <circle cx="532.94" cy="559.093" r="8.32788" stroke-width="0.5" stroke="black" fill="magenta"/>
  <circle cx="532.94" cy="559.093" r="5.01729" stroke-width="0.5" stroke="black" fill="magenta"/>
   </g>
   <g id="cell83">
  <circle cx="634.529" cy="556.51" r="8.32788" stroke-width="0.5" stroke="black" fill="green"/>
  <circle cx="634.529" cy="556.51" r="5.01729" stroke-width="0.5" stroke="black" fill="green"/>
   </g>
   <g id="cell84">
  <circle cx="519.53" cy="502.661" r="8.28629" stroke-width="0.5" stroke="black" fill="cyan"/>
  <circle cx="519.53" cy="502.661" r="4.99786" stroke-width="0.5" stroke="black" fill="cyan"/>
   </g>
   <g id="cell85">
  <circle cx="352.875" cy="542.345" r="8.02367" stroke-width="0.5" stroke="black" fill="cyan"/>
  <circle cx="352.875" cy="542.345" r="4.86963" stroke-width="0.5" stroke="black" fill="cyan"/>
   </g>
   <g id="cell86">
  <circle cx="503.786" cy="525.651" r="8.27497" stroke-width="0.5" stroke="black" fill="magenta"/>
  <circle cx="503.786" cy="525.651" r="4.99242" stroke-width="0.5" stroke="black" fill="magenta"/>
   </g>
   <g id="cell87">
  <circle cx="577.54" cy="556.408" r="7.85318" stroke-width="0.5" stroke="black" fill="cyan"/>
  <circle cx="577.54" cy="556.408" r="4.77708" stroke-width="0.5" stroke="black" fill="cyan"/>
   </g>
   <g id="cell88">
  <circle cx="448.543" cy="531.274" r="8.24914" stroke-width="0.5" stroke="black" fill="magenta"/>
  <circle cx="448.543" cy="531.274" r="4.97981" stroke-width="0.5" stroke="black" fill="magenta"/>
   </g>
   <g id="cell89">
  <circle cx="553.756" cy="455.944" r="8.24438" stroke-width="0.5" stroke="black" fill="cyan"/>
  <circle cx="553.756" cy="455.944" r="4.97746" stroke-width="0.5" stroke="black" fill="cyan"/>
   </g>
   <g id="cell90">
  <circle cx="630.999" cy="475.186" r="8.21307" stroke-width="0.5" stroke="black" fill="green"/>
  <circle cx="630.999" cy="475.186" r="4.96522" stroke-width="0.5" stroke="black" fill="green"/>
   </g>
   <g id="cell91">
  <circle cx="547.768" cy="556.445" r="8.07628" stroke-width="0.5" stroke="black" fill="magenta"/>
  <circle cx="547.768" cy="556.445" r="4.90047" stroke-width="0.5" stroke="black" fill="magenta"/>
   </g>
   <g id="cell92">
  <circle cx="482.52" cy="550.053" r="8.20088" stroke-width="0.5" stroke="black" fill="green"/>
  <circle cx="482.52" cy="550.053" r="4.95562" stroke-width="0.5" stroke="black" fill="green"/>
   </g>
   <g id="cell93">
  <circle cx="538.489" cy="545.705" r="8.07628" stroke-width="0.5" stroke="black" fill="magenta"/>
  <circle cx="538.489" cy="545.705" r="4.90047" stroke-width="0.5" stroke="black" fill="magenta"/>
   </g>
   <g id="cell94">
  <circle cx="533.538" cy="496.191" r="8.16806" stroke-width="0.5" stroke="black" fill="cyan"/>
  <circle cx="533.538" cy="496.191" r="4.93877" stroke-width="0.5" stroke="black" fill="cyan"/>
   </g>
   <g id="cell95">
  <circle cx="467.095" cy="425.971" r="8.1609" stroke-width="0.5" stroke="black" fill="cyan"/>
  <circle cx="467.095" cy="425.971" r="4.93506" stroke-width="0.5" stroke="black" fill="cyan"/>
   </g>
   <g id="cell96">
  <circle cx="542.768" cy="523.271" r="8.14594" stroke-width="0.5" stroke="black" fill="cyan"/>
  <circle cx="542.768" cy="523.271" r="4.92726" stroke-width="0.5" stroke="black" fill="cyan"/>
   </g>
   <g id="cell97">
  <circle cx="421.829" cy="466.399" r="7.88943" stroke-width="0.5" stroke="black" fill="green"/>
  <circle cx="421.829" cy="466.399" r="4.80004" stroke-width="0.5" stroke="black" fill="green"/>
   </g>
   <g id="cell98">
  <circle cx="493.687" cy="514.272" r="8.10448" stroke-width="0.5" stroke="black" fill="green"/>
  <circle cx="493.687" cy="514.272" r="4.90539" stroke-width="0.5" stroke="black" fill="green"/>
   </g>
   <g id="cell99">
  <circle cx="358.178" cy="528.043" r="8.02367" stroke-width="0.5" stroke="black" fill="cyan"/>
  <circle cx="358.178" cy="528.043" r="4.86963" stroke-width="0.5" stroke="black" fill="cyan"/>
   </g>
   <g id="cell100">
  <circle cx="449.057" cy="395.185" r="8.01748" stroke-width="0.5" stroke="black" fill="green"/>
  <circle cx="449.057" cy="395.185" r="4.86292" stroke-width="0.5" stroke="black" fill="green"/>
   </g>
   <g id="cell101">
  <circle cx="532.721" cy="475.987" r="8.00922" stroke-width="0.5" stroke="black" fill="cyan"/>
  <circle cx="532.721" cy="475.987" r="4.85929" stroke-width="0.5" stroke="black" fill="cyan"/>
   </g>
   <g id="cell102">
  <circle cx="434.64" cy="474.216" r="7.88943" stroke-width="0.5" stroke="black" fill="green"/>
  <circle cx="434.64" cy="474.216" r="4.80004" stroke-width="0.5" stroke="black" fill="green"/>
   </g>
   <g id="cell103">
  <circle cx="578.348" cy="444.783" r="7.98892" stroke-width="0.5" stroke="black" fill="cyan"/>
  <circle cx="578.348" cy="444.783" r="4.84272" stroke-width="0.5" stroke="black" fill="cyan"/>
   </g>
   <g id="cell104">
  <circle cx="592.03" cy="553.529" r="7.85318" stroke-width="0.5" stroke="black" fill="cyan"/>
  <circle cx="592.03" cy="553.529" r="4.77708" stroke-width="0.5" stroke="black" fill="cyan"/>
   </g>
   <g id="cell106">
  <circle cx="462.4" cy="440.006" r="7.78109" stroke-width="0.5" stroke="black" fill="magenta"/>
  <circle cx="462.4" cy="440.006" r="4.73102" stroke-width="0.5" stroke="black" fill="magenta"/>
   </g>
   <g id="cell107">
  <circle cx="454.597" cy="377.621" r="7.56966" stroke-width="0.5" stroke="black" fill="green"/>
  <circle cx="454.597" cy="377.621" r="4.62504" stroke-width="0.5" stroke="black" fill="green"/>
   </g>
   <g id="cell108">
  <circle cx="556.407" cy="605.851" r="7.67987" stroke-width="0.5" stroke="black" fill="green"/>
  <circle cx="556.407" cy="605.851" r="4.66617" stroke-width="0.5" stroke="black" fill="green"/>
   </g>
   <g id="cell109">
  <circle cx="576.748" cy="591.578" r="7.18105" stroke-width="0.5" stroke="black" fill="green"/>
  <circle cx="576.748" cy="591.578" r="4.39973" stroke-width="0.5" stroke="black" fill="green"/>
   </g>
   <g id="cell110">
  <circle cx="374.108" cy="514.493" r="7.41548" stroke-width="0.5" stroke="black" fill="cyan"/>
  <circle cx="374.108" cy="514.493" r="4.50723" stroke-width="0.5" stroke="black" fill="cyan"/>
   </g>
   <g id="cell111">
  <circle cx="453.859" cy="552.142" r="7.25358" stroke-width="0.5" stroke="black" fill="magenta"/>
  <circle cx="453.859" cy="552.142" r="4.42519" stroke-width="0.5" stroke="black" fill="magenta"/>
   </g>
   <g id="cell112">
  <circle cx="510.721" cy="467.165" r="7.30216" stroke-width="0.5" stroke="black" fill="magenta"/>
  <circle cx="510.721" cy="467.165" r="4.43696" stroke-width="0.5" stroke="black" fill="magenta"/>
   </g>
   <g id="cell113">
  <circle cx="542.778" cy="405.417" r="7.27253" stroke-width="0.5" stroke="black" fill="green"/>
  <circle cx="542.778" cy="405.417" r="4.41835" stroke-width="0.5" stroke="black" fill="green"/>
   </g>
   <g id="cell114">
  <circle cx="527.461" cy="450.805" r="6.30363" stroke-width="0.5" stroke="black" fill="cyan"/>
  <circle cx="527.461" cy="450.805" r="3.86654" stroke-width="0.5" stroke="black" fill="cyan"/>
   </g>
   <g id="cell115">
  <circle cx="537.727" cy="445.87" r="6.30363" stroke-width="0.5" stroke="black" fill="cyan"/>
  <circle cx="537.727" cy="445.87" r="3.86654" stroke-width="0.5" stroke="black" fill="cyan"/>
   </g>
   <g id="cell116">
  <circle cx="523.134" cy="522.147" r="6.83458" stroke-width="0.5" stroke="black" fill="cyan"/>
  <circle cx="523.134" cy="522.147" r="4.15152" stroke-width="0.5" stroke="black" fill="cyan"/>
   </g>
   <g id="cell117">
  <circle cx="511.143" cy="621.688" r="6.33993" stroke-width="0.5" stroke="black" fill="green"/>
  <circle cx="511.143" cy="621.688" r="3.85284" stroke-width="0.5" stroke="black" fill="green"/>
   </g>
  </g>
 </g>
  <rect x="775" y="1035" width="200" height="10" stroke-width="2" stroke="rgb(255,255,255)" fill="rgb(0,0,0)"/>
  <text x="781.25" y="1028.75"
   font-family="Arial" font-size="25" fill="black" >
   200 &#956;m
  </text>
  <text x="25" y="1045"
   font-family="Arial" font-size="18.75" fill="black" >
   0 days, 0 hours, 0 minutes, and 16.3217 seconds
  </text>
  <rect x="0" y="70" width="1000" height="1000" stroke-width="2" stroke="rgb(0,0,0)" fill="none"/>
</svg>
