<?xml version="1.0" encoding="UTF-8" standalone="no"?>
<!-- Created with PhysiCell (http://PhysiCell.MathCancer.org/) -->
<svg 
 xmlns:dc="http://purl.org/dc/elements/1.1/" 
 xmlns:cc="http://creativecommons.org/ns#" 
 xmlns:rdf="http://www.w3.org/1999/02/22-rdf-syntax-ns#" 
 xmlns:svg="http://www.w3.org/2000/svg" 
 xmlns="http://www.w3.org/2000/svg" 
 version="1.1" 
 width="1000" 
 height="1070" 
 id="svg2">
  <rect x="0" y="0" width="1000" height="1070" stroke-width="2" stroke="white" fill="white"/>
  <text x="12.5" y="30"
   font-family="Arial" font-size="25" fill="black" >
   Current time: 0 days, 2 hours, and 30.00 minutes, z = 0.00 &#956;m
  </text>
  <text x="12.5" y="57.5"
   font-family="Arial" font-size="23.75" fill="black" >
   81 agents
  </text>
 <g id="tissue" 
    transform="translate(0,1070) scale(1,-1)">
  <g id="ECM">
  </g>
  <g id="cells">
   <g id="cell0">
  <circle cx="481.313" cy="404.903" r="8.41271" stroke-width="0.5" stroke="black" fill="magenta"/>
  <circle cx="481.313" cy="404.903" r="5.05167" stroke-width="0.5" stroke="black" fill="magenta"/>
   </g>
   <g id="cell1">
  <circle cx="631.27" cy="517.381" r="6.78181" stroke-width="0.5" stroke="black" fill="magenta"/>
  <circle cx="631.27" cy="517.381" r="4.08714" stroke-width="0.5" stroke="black" fill="magenta"/>
   </g>
   <g id="cell2">
  <circle cx="478.879" cy="493.963" r="8.41271" stroke-width="0.5" stroke="black" fill="magenta"/>
  <circle cx="478.879" cy="493.963" r="5.05167" stroke-width="0.5" stroke="black" fill="magenta"/>
   </g>
   <g id="cell3">
  <circle cx="446.161" cy="449.1" r="8.41271" stroke-width="0.5" stroke="black" fill="magenta"/>
  <circle cx="446.161" cy="449.1" r="5.05167" stroke-width="0.5" stroke="black" fill="magenta"/>
   </g>
   <g id="cell4">
  <circle cx="411.395" cy="559.659" r="8.41271" stroke-width="0.5" stroke="black" fill="magenta"/>
  <circle cx="411.395" cy="559.659" r="5.05167" stroke-width="0.5" stroke="black" fill="magenta"/>
   </g>
   <g id="cell5">
  <circle cx="393.5" cy="440.755" r="8.41271" stroke-width="0.5" stroke="black" fill="magenta"/>
  <circle cx="393.5" cy="440.755" r="5.05167" stroke-width="0.5" stroke="black" fill="magenta"/>
   </g>
   <g id="cell6">
  <circle cx="430.064" cy="540.167" r="8.41271" stroke-width="0.5" stroke="black" fill="magenta"/>
  <circle cx="430.064" cy="540.167" r="5.05167" stroke-width="0.5" stroke="black" fill="magenta"/>
   </g>
   <g id="cell7">
  <circle cx="598.697" cy="506.313" r="8.41271" stroke-width="0.5" stroke="black" fill="magenta"/>
  <circle cx="598.697" cy="506.313" r="5.05167" stroke-width="0.5" stroke="black" fill="magenta"/>
   </g>
   <g id="cell8">
  <circle cx="390.956" cy="503.774" r="8.41271" stroke-width="0.5" stroke="black" fill="magenta"/>
  <circle cx="390.956" cy="503.774" r="5.05167" stroke-width="0.5" stroke="black" fill="magenta"/>
   </g>
   <g id="cell9">
  <circle cx="527.657" cy="403.999" r="8.41271" stroke-width="0.5" stroke="black" fill="magenta"/>
  <circle cx="527.657" cy="403.999" r="5.05167" stroke-width="0.5" stroke="black" fill="magenta"/>
   </g>
   <g id="cell10">
  <circle cx="588.661" cy="429.188" r="8.41271" stroke-width="0.5" stroke="black" fill="magenta"/>
  <circle cx="588.661" cy="429.188" r="5.05167" stroke-width="0.5" stroke="black" fill="magenta"/>
   </g>
   <g id="cell11">
  <circle cx="517.872" cy="501.964" r="8.41271" stroke-width="0.5" stroke="black" fill="magenta"/>
  <circle cx="517.872" cy="501.964" r="5.05167" stroke-width="0.5" stroke="black" fill="magenta"/>
   </g>
   <g id="cell12">
  <circle cx="601.998" cy="402.58" r="8.41271" stroke-width="0.5" stroke="black" fill="magenta"/>
  <circle cx="601.998" cy="402.58" r="5.05167" stroke-width="0.5" stroke="black" fill="magenta"/>
   </g>
   <g id="cell13">
  <circle cx="639.497" cy="500.508" r="8.41271" stroke-width="0.5" stroke="black" fill="magenta"/>
  <circle cx="639.497" cy="500.508" r="5.05167" stroke-width="0.5" stroke="black" fill="magenta"/>
   </g>
   <g id="cell14">
  <circle cx="363.298" cy="434.385" r="8.41271" stroke-width="0.5" stroke="black" fill="magenta"/>
  <circle cx="363.298" cy="434.385" r="5.05167" stroke-width="0.5" stroke="black" fill="magenta"/>
   </g>
   <g id="cell15">
  <circle cx="380.291" cy="493.066" r="8.41271" stroke-width="0.5" stroke="black" fill="magenta"/>
  <circle cx="380.291" cy="493.066" r="5.05167" stroke-width="0.5" stroke="black" fill="magenta"/>
   </g>
   <g id="cell16">
  <circle cx="518.323" cy="415.928" r="8.41271" stroke-width="0.5" stroke="black" fill="magenta"/>
  <circle cx="518.323" cy="415.928" r="5.05167" stroke-width="0.5" stroke="black" fill="magenta"/>
   </g>
   <g id="cell17">
  <circle cx="382.084" cy="580.247" r="8.41271" stroke-width="0.5" stroke="black" fill="magenta"/>
  <circle cx="382.084" cy="580.247" r="5.05167" stroke-width="0.5" stroke="black" fill="magenta"/>
   </g>
   <g id="cell18">
  <circle cx="526.282" cy="454.517" r="8.41271" stroke-width="0.5" stroke="black" fill="magenta"/>
  <circle cx="526.282" cy="454.517" r="5.05167" stroke-width="0.5" stroke="black" fill="magenta"/>
   </g>
   <g id="cell19">
  <circle cx="488.324" cy="458.859" r="8.41271" stroke-width="0.5" stroke="black" fill="magenta"/>
  <circle cx="488.324" cy="458.859" r="5.05167" stroke-width="0.5" stroke="black" fill="magenta"/>
   </g>
   <g id="cell20">
  <circle cx="490.602" cy="542.122" r="8.41271" stroke-width="0.5" stroke="black" fill="magenta"/>
  <circle cx="490.602" cy="542.122" r="5.05167" stroke-width="0.5" stroke="black" fill="magenta"/>
   </g>
   <g id="cell21">
  <circle cx="494.769" cy="587.969" r="8.41271" stroke-width="0.5" stroke="black" fill="magenta"/>
  <circle cx="494.769" cy="587.969" r="5.05167" stroke-width="0.5" stroke="black" fill="magenta"/>
   </g>
   <g id="cell22">
  <circle cx="548.919" cy="466.068" r="8.41271" stroke-width="0.5" stroke="black" fill="magenta"/>
  <circle cx="548.919" cy="466.068" r="5.05167" stroke-width="0.5" stroke="black" fill="magenta"/>
   </g>
   <g id="cell23">
  <circle cx="559.662" cy="604.889" r="8.41271" stroke-width="0.5" stroke="black" fill="magenta"/>
  <circle cx="559.662" cy="604.889" r="5.05167" stroke-width="0.5" stroke="black" fill="magenta"/>
   </g>
   <g id="cell24">
  <circle cx="502.751" cy="502.34" r="8.41271" stroke-width="0.5" stroke="black" fill="magenta"/>
  <circle cx="502.751" cy="502.34" r="5.05167" stroke-width="0.5" stroke="black" fill="magenta"/>
   </g>
   <g id="cell25">
  <circle cx="443.089" cy="518.992" r="8.41271" stroke-width="0.5" stroke="black" fill="green"/>
  <circle cx="443.089" cy="518.992" r="5.05167" stroke-width="0.5" stroke="black" fill="green"/>
   </g>
   <g id="cell26">
  <circle cx="479.638" cy="591.842" r="8.41271" stroke-width="0.5" stroke="black" fill="green"/>
  <circle cx="479.638" cy="591.842" r="5.05167" stroke-width="0.5" stroke="black" fill="green"/>
   </g>
   <g id="cell27">
  <circle cx="449.22" cy="585.475" r="7.11815" stroke-width="0.5" stroke="black" fill="green"/>
  <circle cx="449.22" cy="585.475" r="4.31954" stroke-width="0.5" stroke="black" fill="green"/>
   </g>
   <g id="cell28">
  <circle cx="505.678" cy="434.19" r="8.41271" stroke-width="0.5" stroke="black" fill="green"/>
  <circle cx="505.678" cy="434.19" r="5.05167" stroke-width="0.5" stroke="black" fill="green"/>
   </g>
   <g id="cell29">
  <circle cx="586.231" cy="515.692" r="8.41271" stroke-width="0.5" stroke="black" fill="green"/>
  <circle cx="586.231" cy="515.692" r="5.05167" stroke-width="0.5" stroke="black" fill="green"/>
   </g>
   <g id="cell30">
  <circle cx="596.865" cy="605.255" r="8.41271" stroke-width="0.5" stroke="black" fill="green"/>
  <circle cx="596.865" cy="605.255" r="5.05167" stroke-width="0.5" stroke="black" fill="green"/>
   </g>
   <g id="cell31">
  <circle cx="471.368" cy="416.921" r="8.41271" stroke-width="0.5" stroke="black" fill="green"/>
  <circle cx="471.368" cy="416.921" r="5.05167" stroke-width="0.5" stroke="black" fill="green"/>
   </g>
   <g id="cell32">
  <circle cx="568.544" cy="427.714" r="6.83713" stroke-width="0.5" stroke="black" fill="green"/>
  <circle cx="568.544" cy="427.714" r="4.12773" stroke-width="0.5" stroke="black" fill="green"/>
   </g>
   <g id="cell33">
  <circle cx="590.078" cy="560.613" r="8.41271" stroke-width="0.5" stroke="black" fill="green"/>
  <circle cx="590.078" cy="560.613" r="5.05167" stroke-width="0.5" stroke="black" fill="green"/>
   </g>
   <g id="cell34">
  <circle cx="561.156" cy="579.481" r="8.41271" stroke-width="0.5" stroke="black" fill="green"/>
  <circle cx="561.156" cy="579.481" r="5.05167" stroke-width="0.5" stroke="black" fill="green"/>
   </g>
   <g id="cell35">
  <circle cx="471.755" cy="507.837" r="8.41271" stroke-width="0.5" stroke="black" fill="green"/>
  <circle cx="471.755" cy="507.837" r="5.05167" stroke-width="0.5" stroke="black" fill="green"/>
   </g>
   <g id="cell36">
  <circle cx="458.091" cy="573.718" r="8.41271" stroke-width="0.5" stroke="black" fill="green"/>
  <circle cx="458.091" cy="573.718" r="5.05167" stroke-width="0.5" stroke="black" fill="green"/>
   </g>
   <g id="cell37">
  <circle cx="487.765" cy="506.788" r="8.41271" stroke-width="0.5" stroke="black" fill="green"/>
  <circle cx="487.765" cy="506.788" r="5.05167" stroke-width="0.5" stroke="black" fill="green"/>
   </g>
   <g id="cell38">
  <circle cx="614.132" cy="449.645" r="8.41271" stroke-width="0.5" stroke="black" fill="green"/>
  <circle cx="614.132" cy="449.645" r="5.05167" stroke-width="0.5" stroke="black" fill="green"/>
   </g>
   <g id="cell39">
  <circle cx="428.247" cy="524.734" r="8.41271" stroke-width="0.5" stroke="black" fill="green"/>
  <circle cx="428.247" cy="524.734" r="5.05167" stroke-width="0.5" stroke="black" fill="green"/>
   </g>
   <g id="cell40">
  <circle cx="468.284" cy="603.152" r="8.41271" stroke-width="0.5" stroke="black" fill="green"/>
  <circle cx="468.284" cy="603.152" r="5.05167" stroke-width="0.5" stroke="black" fill="green"/>
   </g>
   <g id="cell41">
  <circle cx="591.329" cy="413.781" r="8.41271" stroke-width="0.5" stroke="black" fill="green"/>
  <circle cx="591.329" cy="413.781" r="5.05167" stroke-width="0.5" stroke="black" fill="green"/>
   </g>
   <g id="cell42">
  <circle cx="457.384" cy="521.266" r="6.92764" stroke-width="0.5" stroke="black" fill="green"/>
  <circle cx="457.384" cy="521.266" r="4.1918" stroke-width="0.5" stroke="black" fill="green"/>
   </g>
   <g id="cell43">
  <circle cx="357.665" cy="458.998" r="8.41271" stroke-width="0.5" stroke="black" fill="green"/>
  <circle cx="357.665" cy="458.998" r="5.05167" stroke-width="0.5" stroke="black" fill="green"/>
   </g>
   <g id="cell44">
  <circle cx="500.074" cy="469.103" r="8.41271" stroke-width="0.5" stroke="black" fill="green"/>
  <circle cx="500.074" cy="469.103" r="5.05167" stroke-width="0.5" stroke="black" fill="green"/>
   </g>
   <g id="cell45">
  <circle cx="499.122" cy="624.343" r="8.41271" stroke-width="0.5" stroke="black" fill="green"/>
  <circle cx="499.122" cy="624.343" r="5.05167" stroke-width="0.5" stroke="black" fill="green"/>
   </g>
   <g id="cell46">
  <circle cx="598.995" cy="454.862" r="8.41271" stroke-width="0.5" stroke="black" fill="green"/>
  <circle cx="598.995" cy="454.862" r="5.05167" stroke-width="0.5" stroke="black" fill="green"/>
   </g>
   <g id="cell47">
  <circle cx="515.293" cy="539.253" r="8.41271" stroke-width="0.5" stroke="black" fill="green"/>
  <circle cx="515.293" cy="539.253" r="5.05167" stroke-width="0.5" stroke="black" fill="green"/>
   </g>
   <g id="cell48">
  <circle cx="452.573" cy="383.833" r="8.41271" stroke-width="0.5" stroke="black" fill="green"/>
  <circle cx="452.573" cy="383.833" r="5.05167" stroke-width="0.5" stroke="black" fill="green"/>
   </g>
   <g id="cell49">
  <circle cx="443.978" cy="638.738" r="8.41271" stroke-width="0.5" stroke="black" fill="green"/>
  <circle cx="443.978" cy="638.738" r="5.05167" stroke-width="0.5" stroke="black" fill="green"/>
   </g>
   <g id="cell50">
  <circle cx="544.617" cy="571.871" r="8.41271" stroke-width="0.5" stroke="black" fill="cyan"/>
  <circle cx="544.617" cy="571.871" r="5.05167" stroke-width="0.5" stroke="black" fill="cyan"/>
   </g>
   <g id="cell51">
  <circle cx="551.048" cy="591.887" r="8.41271" stroke-width="0.5" stroke="black" fill="cyan"/>
  <circle cx="551.048" cy="591.887" r="5.05167" stroke-width="0.5" stroke="black" fill="cyan"/>
   </g>
   <g id="cell52">
  <circle cx="420.816" cy="470.382" r="6.80881" stroke-width="0.5" stroke="black" fill="cyan"/>
  <circle cx="420.816" cy="470.382" r="4.10709" stroke-width="0.5" stroke="black" fill="cyan"/>
   </g>
   <g id="cell53">
  <circle cx="543.153" cy="527.749" r="8.41271" stroke-width="0.5" stroke="black" fill="cyan"/>
  <circle cx="543.153" cy="527.749" r="5.05167" stroke-width="0.5" stroke="black" fill="cyan"/>
   </g>
   <g id="cell54">
  <circle cx="586.856" cy="398.541" r="8.41271" stroke-width="0.5" stroke="black" fill="cyan"/>
  <circle cx="586.856" cy="398.541" r="5.05167" stroke-width="0.5" stroke="black" fill="cyan"/>
   </g>
   <g id="cell55">
  <circle cx="522.222" cy="389.375" r="8.41271" stroke-width="0.5" stroke="black" fill="cyan"/>
  <circle cx="522.222" cy="389.375" r="5.05167" stroke-width="0.5" stroke="black" fill="cyan"/>
   </g>
   <g id="cell56">
  <circle cx="610.675" cy="476.342" r="8.41271" stroke-width="0.5" stroke="black" fill="cyan"/>
  <circle cx="610.675" cy="476.342" r="5.05167" stroke-width="0.5" stroke="black" fill="cyan"/>
   </g>
   <g id="cell57">
  <circle cx="535.198" cy="589.598" r="8.41271" stroke-width="0.5" stroke="black" fill="cyan"/>
  <circle cx="535.198" cy="589.598" r="5.05167" stroke-width="0.5" stroke="black" fill="cyan"/>
   </g>
   <g id="cell58">
  <circle cx="510.985" cy="457.424" r="8.41271" stroke-width="0.5" stroke="black" fill="cyan"/>
  <circle cx="510.985" cy="457.424" r="5.05167" stroke-width="0.5" stroke="black" fill="cyan"/>
   </g>
   <g id="cell59">
  <circle cx="519.185" cy="589.043" r="8.41271" stroke-width="0.5" stroke="black" fill="cyan"/>
  <circle cx="519.185" cy="589.043" r="5.05167" stroke-width="0.5" stroke="black" fill="cyan"/>
   </g>
   <g id="cell60">
  <circle cx="521.417" cy="431.216" r="8.41271" stroke-width="0.5" stroke="black" fill="cyan"/>
  <circle cx="521.417" cy="431.216" r="5.05167" stroke-width="0.5" stroke="black" fill="cyan"/>
   </g>
   <g id="cell61">
  <circle cx="645.096" cy="514.99" r="8.41271" stroke-width="0.5" stroke="black" fill="cyan"/>
  <circle cx="645.096" cy="514.99" r="5.05167" stroke-width="0.5" stroke="black" fill="cyan"/>
   </g>
   <g id="cell62">
  <circle cx="532.533" cy="362.003" r="8.41271" stroke-width="0.5" stroke="black" fill="cyan"/>
  <circle cx="532.533" cy="362.003" r="5.05167" stroke-width="0.5" stroke="black" fill="cyan"/>
   </g>
   <g id="cell63">
  <circle cx="569.847" cy="537.069" r="8.41271" stroke-width="0.5" stroke="black" fill="cyan"/>
  <circle cx="569.847" cy="537.069" r="5.05167" stroke-width="0.5" stroke="black" fill="cyan"/>
   </g>
   <g id="cell64">
  <circle cx="403.014" cy="601.349" r="8.41271" stroke-width="0.5" stroke="black" fill="cyan"/>
  <circle cx="403.014" cy="601.349" r="5.05167" stroke-width="0.5" stroke="black" fill="cyan"/>
   </g>
   <g id="cell65">
  <circle cx="510.042" cy="488.42" r="8.41271" stroke-width="0.5" stroke="black" fill="cyan"/>
  <circle cx="510.042" cy="488.42" r="5.05167" stroke-width="0.5" stroke="black" fill="cyan"/>
   </g>
   <g id="cell66">
  <circle cx="515.602" cy="472.918" r="8.41271" stroke-width="0.5" stroke="black" fill="cyan"/>
  <circle cx="515.602" cy="472.918" r="5.05167" stroke-width="0.5" stroke="black" fill="cyan"/>
   </g>
   <g id="cell67">
  <circle cx="433.232" cy="423.743" r="8.41271" stroke-width="0.5" stroke="black" fill="cyan"/>
  <circle cx="433.232" cy="423.743" r="5.05167" stroke-width="0.5" stroke="black" fill="cyan"/>
   </g>
   <g id="cell68">
  <circle cx="403.132" cy="487.661" r="8.41271" stroke-width="0.5" stroke="black" fill="cyan"/>
  <circle cx="403.132" cy="487.661" r="5.05167" stroke-width="0.5" stroke="black" fill="cyan"/>
   </g>
   <g id="cell69">
  <circle cx="600.952" cy="436.775" r="7.02257" stroke-width="0.5" stroke="black" fill="cyan"/>
  <circle cx="600.952" cy="436.775" r="4.25644" stroke-width="0.5" stroke="black" fill="cyan"/>
   </g>
   <g id="cell70">
  <circle cx="377.929" cy="439.797" r="8.41271" stroke-width="0.5" stroke="black" fill="cyan"/>
  <circle cx="377.929" cy="439.797" r="5.05167" stroke-width="0.5" stroke="black" fill="cyan"/>
   </g>
   <g id="cell71">
  <circle cx="406.451" cy="503.211" r="8.41271" stroke-width="0.5" stroke="black" fill="cyan"/>
  <circle cx="406.451" cy="503.211" r="5.05167" stroke-width="0.5" stroke="black" fill="cyan"/>
   </g>
   <g id="cell72">
  <circle cx="617.212" cy="433.953" r="8.41271" stroke-width="0.5" stroke="black" fill="cyan"/>
  <circle cx="617.212" cy="433.953" r="5.05167" stroke-width="0.5" stroke="black" fill="cyan"/>
   </g>
   <g id="cell73">
  <circle cx="420.243" cy="511.017" r="8.41271" stroke-width="0.5" stroke="black" fill="cyan"/>
  <circle cx="420.243" cy="511.017" r="5.05167" stroke-width="0.5" stroke="black" fill="cyan"/>
   </g>
   <g id="cell74">
  <circle cx="432.118" cy="491.404" r="8.41271" stroke-width="0.5" stroke="black" fill="cyan"/>
  <circle cx="432.118" cy="491.404" r="5.05167" stroke-width="0.5" stroke="black" fill="cyan"/>
   </g>
   <g id="cell75">
  <circle cx="462.003" cy="589.775" r="7.11815" stroke-width="0.5" stroke="black" fill="green"/>
  <circle cx="462.003" cy="589.775" r="4.31954" stroke-width="0.5" stroke="black" fill="green"/>
   </g>
   <g id="cell76">
  <circle cx="601.882" cy="423.629" r="7.02257" stroke-width="0.5" stroke="black" fill="cyan"/>
  <circle cx="601.882" cy="423.629" r="4.25644" stroke-width="0.5" stroke="black" fill="cyan"/>
   </g>
   <g id="cell77">
  <circle cx="465.755" cy="531.331" r="6.92764" stroke-width="0.5" stroke="black" fill="green"/>
  <circle cx="465.755" cy="531.331" r="4.1918" stroke-width="0.5" stroke="black" fill="green"/>
   </g>
   <g id="cell78">
  <circle cx="578.309" cy="419.423" r="6.83713" stroke-width="0.5" stroke="black" fill="green"/>
  <circle cx="578.309" cy="419.423" r="4.12773" stroke-width="0.5" stroke="black" fill="green"/>
   </g>
   <g id="cell79">
  <circle cx="416.676" cy="482.595" r="6.80881" stroke-width="0.5" stroke="black" fill="cyan"/>
  <circle cx="416.676" cy="482.595" r="4.10709" stroke-width="0.5" stroke="black" fill="cyan"/>
   </g>
   <g id="cell80">
  <circle cx="627.055" cy="506.001" r="6.78181" stroke-width="0.5" stroke="black" fill="magenta"/>
  <circle cx="627.055" cy="506.001" r="4.08714" stroke-width="0.5" stroke="black" fill="magenta"/>
   </g>
  </g>
 </g>
  <rect x="775" y="1035" width="200" height="10" stroke-width="2" stroke="rgb(255,255,255)" fill="rgb(0,0,0)"/>
  <text x="781.25" y="1028.75"
   font-family="Arial" font-size="25" fill="black" >
   200 &#956;m
  </text>
  <text x="25" y="1045"
   font-family="Arial" font-size="18.75" fill="black" >
   0 days, 0 hours, 0 minutes, and 2.6881 seconds
  </text>
  <rect x="0" y="70" width="1000" height="1000" stroke-width="2" stroke="rgb(0,0,0)" fill="none"/>
</svg>
