<?xml version="1.0" encoding="UTF-8" standalone="no"?>
<!-- Created with PhysiCell (http://PhysiCell.MathCancer.org/) -->
<svg 
 xmlns:dc="http://purl.org/dc/elements/1.1/" 
 xmlns:cc="http://creativecommons.org/ns#" 
 xmlns:rdf="http://www.w3.org/1999/02/22-rdf-syntax-ns#" 
 xmlns:svg="http://www.w3.org/2000/svg" 
 xmlns="http://www.w3.org/2000/svg" 
 version="1.1" 
 width="1000" 
 height="1070" 
 id="svg2">
  <rect x="0" y="0" width="1000" height="1070" stroke-width="2" stroke="white" fill="white"/>
  <text x="12.5" y="30"
   font-family="Arial" font-size="25" fill="black" >
   Current time: 0 days, 0 hours, and 15.00 minutes, z = 0.00 &#956;m
  </text>
  <text x="12.5" y="57.5"
   font-family="Arial" font-size="23.75" fill="black" >
   75 agents
  </text>
 <g id="tissue" 
    transform="translate(0,1070) scale(1,-1)">
  <g id="ECM">
  </g>
  <g id="cells">
   <g id="cell0">
  <circle cx="513.769" cy="529.675" r="8.41271" stroke-width="0.5" stroke="black" fill="magenta"/>
  <circle cx="513.769" cy="529.675" r="5.05167" stroke-width="0.5" stroke="black" fill="magenta"/>
   </g>
   <g id="cell1">
  <circle cx="603.641" cy="530.595" r="8.41271" stroke-width="0.5" stroke="black" fill="magenta"/>
  <circle cx="603.641" cy="530.595" r="5.05167" stroke-width="0.5" stroke="black" fill="magenta"/>
   </g>
   <g id="cell2">
  <circle cx="510.737" cy="601.389" r="8.41271" stroke-width="0.5" stroke="black" fill="magenta"/>
  <circle cx="510.737" cy="601.389" r="5.05167" stroke-width="0.5" stroke="black" fill="magenta"/>
   </g>
   <g id="cell3">
  <circle cx="534.134" cy="545.368" r="8.41271" stroke-width="0.5" stroke="black" fill="magenta"/>
  <circle cx="534.134" cy="545.368" r="5.05167" stroke-width="0.5" stroke="black" fill="magenta"/>
   </g>
   <g id="cell4">
  <circle cx="481.404" cy="439.578" r="8.41271" stroke-width="0.5" stroke="black" fill="magenta"/>
  <circle cx="481.404" cy="439.578" r="5.05167" stroke-width="0.5" stroke="black" fill="magenta"/>
   </g>
   <g id="cell5">
  <circle cx="465.032" cy="493.3" r="8.41271" stroke-width="0.5" stroke="black" fill="magenta"/>
  <circle cx="465.032" cy="493.3" r="5.05167" stroke-width="0.5" stroke="black" fill="magenta"/>
   </g>
   <g id="cell6">
  <circle cx="593.658" cy="508.685" r="8.41271" stroke-width="0.5" stroke="black" fill="magenta"/>
  <circle cx="593.658" cy="508.685" r="5.05167" stroke-width="0.5" stroke="black" fill="magenta"/>
   </g>
   <g id="cell7">
  <circle cx="513.505" cy="465.228" r="8.41271" stroke-width="0.5" stroke="black" fill="magenta"/>
  <circle cx="513.505" cy="465.228" r="5.05167" stroke-width="0.5" stroke="black" fill="magenta"/>
   </g>
   <g id="cell8">
  <circle cx="375.925" cy="544.499" r="8.41271" stroke-width="0.5" stroke="black" fill="magenta"/>
  <circle cx="375.925" cy="544.499" r="5.05167" stroke-width="0.5" stroke="black" fill="magenta"/>
   </g>
   <g id="cell9">
  <circle cx="460.472" cy="599.786" r="8.41271" stroke-width="0.5" stroke="black" fill="magenta"/>
  <circle cx="460.472" cy="599.786" r="5.05167" stroke-width="0.5" stroke="black" fill="magenta"/>
   </g>
   <g id="cell10">
  <circle cx="583.447" cy="392.105" r="8.41271" stroke-width="0.5" stroke="black" fill="magenta"/>
  <circle cx="583.447" cy="392.105" r="5.05167" stroke-width="0.5" stroke="black" fill="magenta"/>
   </g>
   <g id="cell11">
  <circle cx="589.748" cy="590.273" r="8.41271" stroke-width="0.5" stroke="black" fill="magenta"/>
  <circle cx="589.748" cy="590.273" r="5.05167" stroke-width="0.5" stroke="black" fill="magenta"/>
   </g>
   <g id="cell12">
  <circle cx="506.335" cy="584.855" r="8.41271" stroke-width="0.5" stroke="black" fill="magenta"/>
  <circle cx="506.335" cy="584.855" r="5.05167" stroke-width="0.5" stroke="black" fill="magenta"/>
   </g>
   <g id="cell13">
  <circle cx="385.588" cy="566.503" r="8.41271" stroke-width="0.5" stroke="black" fill="magenta"/>
  <circle cx="385.588" cy="566.503" r="5.05167" stroke-width="0.5" stroke="black" fill="magenta"/>
   </g>
   <g id="cell14">
  <circle cx="529.015" cy="395.789" r="8.41271" stroke-width="0.5" stroke="black" fill="magenta"/>
  <circle cx="529.015" cy="395.789" r="5.05167" stroke-width="0.5" stroke="black" fill="magenta"/>
   </g>
   <g id="cell15">
  <circle cx="381.613" cy="474.452" r="8.41271" stroke-width="0.5" stroke="black" fill="magenta"/>
  <circle cx="381.613" cy="474.452" r="5.05167" stroke-width="0.5" stroke="black" fill="magenta"/>
   </g>
   <g id="cell16">
  <circle cx="428.966" cy="413.101" r="8.41271" stroke-width="0.5" stroke="black" fill="magenta"/>
  <circle cx="428.966" cy="413.101" r="5.05167" stroke-width="0.5" stroke="black" fill="magenta"/>
   </g>
   <g id="cell17">
  <circle cx="571.539" cy="489.896" r="8.41271" stroke-width="0.5" stroke="black" fill="magenta"/>
  <circle cx="571.539" cy="489.896" r="5.05167" stroke-width="0.5" stroke="black" fill="magenta"/>
   </g>
   <g id="cell18">
  <circle cx="516.158" cy="387.944" r="8.41271" stroke-width="0.5" stroke="black" fill="magenta"/>
  <circle cx="516.158" cy="387.944" r="5.05167" stroke-width="0.5" stroke="black" fill="magenta"/>
   </g>
   <g id="cell19">
  <circle cx="451.662" cy="539.131" r="8.41271" stroke-width="0.5" stroke="black" fill="magenta"/>
  <circle cx="451.662" cy="539.131" r="5.05167" stroke-width="0.5" stroke="black" fill="magenta"/>
   </g>
   <g id="cell20">
  <circle cx="533.379" cy="416.758" r="8.41271" stroke-width="0.5" stroke="black" fill="magenta"/>
  <circle cx="533.379" cy="416.758" r="5.05167" stroke-width="0.5" stroke="black" fill="magenta"/>
   </g>
   <g id="cell21">
  <circle cx="464.432" cy="634.516" r="8.41271" stroke-width="0.5" stroke="black" fill="magenta"/>
  <circle cx="464.432" cy="634.516" r="5.05167" stroke-width="0.5" stroke="black" fill="magenta"/>
   </g>
   <g id="cell22">
  <circle cx="556.946" cy="492.466" r="8.41271" stroke-width="0.5" stroke="black" fill="magenta"/>
  <circle cx="556.946" cy="492.466" r="5.05167" stroke-width="0.5" stroke="black" fill="magenta"/>
   </g>
   <g id="cell23">
  <circle cx="535.643" cy="482.548" r="8.41271" stroke-width="0.5" stroke="black" fill="magenta"/>
  <circle cx="535.643" cy="482.548" r="5.05167" stroke-width="0.5" stroke="black" fill="magenta"/>
   </g>
   <g id="cell24">
  <circle cx="559.289" cy="379.784" r="8.41271" stroke-width="0.5" stroke="black" fill="magenta"/>
  <circle cx="559.289" cy="379.784" r="5.05167" stroke-width="0.5" stroke="black" fill="magenta"/>
   </g>
   <g id="cell25">
  <circle cx="640.943" cy="550.03" r="8.41271" stroke-width="0.5" stroke="black" fill="green"/>
  <circle cx="640.943" cy="550.03" r="5.05167" stroke-width="0.5" stroke="black" fill="green"/>
   </g>
   <g id="cell26">
  <circle cx="551.191" cy="401.272" r="8.41271" stroke-width="0.5" stroke="black" fill="green"/>
  <circle cx="551.191" cy="401.272" r="5.05167" stroke-width="0.5" stroke="black" fill="green"/>
   </g>
   <g id="cell27">
  <circle cx="457.446" cy="388.678" r="8.41271" stroke-width="0.5" stroke="black" fill="green"/>
  <circle cx="457.446" cy="388.678" r="5.05167" stroke-width="0.5" stroke="black" fill="green"/>
   </g>
   <g id="cell28">
  <circle cx="438.782" cy="530.752" r="8.41271" stroke-width="0.5" stroke="black" fill="green"/>
  <circle cx="438.782" cy="530.752" r="5.05167" stroke-width="0.5" stroke="black" fill="green"/>
   </g>
   <g id="cell29">
  <circle cx="448.964" cy="518.832" r="8.41271" stroke-width="0.5" stroke="black" fill="green"/>
  <circle cx="448.964" cy="518.832" r="5.05167" stroke-width="0.5" stroke="black" fill="green"/>
   </g>
   <g id="cell30">
  <circle cx="481.58" cy="540.282" r="8.41271" stroke-width="0.5" stroke="black" fill="green"/>
  <circle cx="481.58" cy="540.282" r="5.05167" stroke-width="0.5" stroke="black" fill="green"/>
   </g>
   <g id="cell31">
  <circle cx="412.691" cy="540.716" r="8.41271" stroke-width="0.5" stroke="black" fill="green"/>
  <circle cx="412.691" cy="540.716" r="5.05167" stroke-width="0.5" stroke="black" fill="green"/>
   </g>
   <g id="cell32">
  <circle cx="425.449" cy="474.763" r="8.41271" stroke-width="0.5" stroke="black" fill="green"/>
  <circle cx="425.449" cy="474.763" r="5.05167" stroke-width="0.5" stroke="black" fill="green"/>
   </g>
   <g id="cell33">
  <circle cx="493.975" cy="423.269" r="8.41271" stroke-width="0.5" stroke="black" fill="green"/>
  <circle cx="493.975" cy="423.269" r="5.05167" stroke-width="0.5" stroke="black" fill="green"/>
   </g>
   <g id="cell34">
  <circle cx="397.569" cy="451.287" r="8.41271" stroke-width="0.5" stroke="black" fill="green"/>
  <circle cx="397.569" cy="451.287" r="5.05167" stroke-width="0.5" stroke="black" fill="green"/>
   </g>
   <g id="cell35">
  <circle cx="548.762" cy="545.544" r="8.41271" stroke-width="0.5" stroke="black" fill="green"/>
  <circle cx="548.762" cy="545.544" r="5.05167" stroke-width="0.5" stroke="black" fill="green"/>
   </g>
   <g id="cell36">
  <circle cx="391.434" cy="583.347" r="8.41271" stroke-width="0.5" stroke="black" fill="green"/>
  <circle cx="391.434" cy="583.347" r="5.05167" stroke-width="0.5" stroke="black" fill="green"/>
   </g>
   <g id="cell37">
  <circle cx="634.871" cy="460.618" r="8.41271" stroke-width="0.5" stroke="black" fill="green"/>
  <circle cx="634.871" cy="460.618" r="5.05167" stroke-width="0.5" stroke="black" fill="green"/>
   </g>
   <g id="cell38">
  <circle cx="536.725" cy="601.478" r="8.41271" stroke-width="0.5" stroke="black" fill="green"/>
  <circle cx="536.725" cy="601.478" r="5.05167" stroke-width="0.5" stroke="black" fill="green"/>
   </g>
   <g id="cell39">
  <circle cx="613.458" cy="490.595" r="8.41271" stroke-width="0.5" stroke="black" fill="green"/>
  <circle cx="613.458" cy="490.595" r="5.05167" stroke-width="0.5" stroke="black" fill="green"/>
   </g>
   <g id="cell40">
  <circle cx="485.348" cy="571.779" r="8.41271" stroke-width="0.5" stroke="black" fill="green"/>
  <circle cx="485.348" cy="571.779" r="5.05167" stroke-width="0.5" stroke="black" fill="green"/>
   </g>
   <g id="cell41">
  <circle cx="363.412" cy="480.338" r="8.41271" stroke-width="0.5" stroke="black" fill="green"/>
  <circle cx="363.412" cy="480.338" r="5.05167" stroke-width="0.5" stroke="black" fill="green"/>
   </g>
   <g id="cell42">
  <circle cx="438.842" cy="494.268" r="8.41271" stroke-width="0.5" stroke="black" fill="green"/>
  <circle cx="438.842" cy="494.268" r="5.05167" stroke-width="0.5" stroke="black" fill="green"/>
   </g>
   <g id="cell43">
  <circle cx="558.607" cy="445.559" r="8.41271" stroke-width="0.5" stroke="black" fill="green"/>
  <circle cx="558.607" cy="445.559" r="5.05167" stroke-width="0.5" stroke="black" fill="green"/>
   </g>
   <g id="cell44">
  <circle cx="475.794" cy="624.079" r="8.41271" stroke-width="0.5" stroke="black" fill="green"/>
  <circle cx="475.794" cy="624.079" r="5.05167" stroke-width="0.5" stroke="black" fill="green"/>
   </g>
   <g id="cell45">
  <circle cx="415.019" cy="557.543" r="8.41271" stroke-width="0.5" stroke="black" fill="green"/>
  <circle cx="415.019" cy="557.543" r="5.05167" stroke-width="0.5" stroke="black" fill="green"/>
   </g>
   <g id="cell46">
  <circle cx="522.649" cy="611.53" r="8.41271" stroke-width="0.5" stroke="black" fill="green"/>
  <circle cx="522.649" cy="611.53" r="5.05167" stroke-width="0.5" stroke="black" fill="green"/>
   </g>
   <g id="cell47">
  <circle cx="502.727" cy="506.993" r="8.41271" stroke-width="0.5" stroke="black" fill="green"/>
  <circle cx="502.727" cy="506.993" r="5.05167" stroke-width="0.5" stroke="black" fill="green"/>
   </g>
   <g id="cell48">
  <circle cx="564.731" cy="602.578" r="8.41271" stroke-width="0.5" stroke="black" fill="green"/>
  <circle cx="564.731" cy="602.578" r="5.05167" stroke-width="0.5" stroke="black" fill="green"/>
   </g>
   <g id="cell49">
  <circle cx="429.819" cy="397.756" r="8.41271" stroke-width="0.5" stroke="black" fill="green"/>
  <circle cx="429.819" cy="397.756" r="5.05167" stroke-width="0.5" stroke="black" fill="green"/>
   </g>
   <g id="cell50">
  <circle cx="519.333" cy="515.489" r="8.41271" stroke-width="0.5" stroke="black" fill="cyan"/>
  <circle cx="519.333" cy="515.489" r="5.05167" stroke-width="0.5" stroke="black" fill="cyan"/>
   </g>
   <g id="cell51">
  <circle cx="399.386" cy="598.499" r="8.41271" stroke-width="0.5" stroke="black" fill="cyan"/>
  <circle cx="399.386" cy="598.499" r="5.05167" stroke-width="0.5" stroke="black" fill="cyan"/>
   </g>
   <g id="cell52">
  <circle cx="520.811" cy="429.697" r="8.41271" stroke-width="0.5" stroke="black" fill="cyan"/>
  <circle cx="520.811" cy="429.697" r="5.05167" stroke-width="0.5" stroke="black" fill="cyan"/>
   </g>
   <g id="cell53">
  <circle cx="571.052" cy="436.183" r="8.41271" stroke-width="0.5" stroke="black" fill="cyan"/>
  <circle cx="571.052" cy="436.183" r="5.05167" stroke-width="0.5" stroke="black" fill="cyan"/>
   </g>
   <g id="cell54">
  <circle cx="478.292" cy="424.367" r="8.41271" stroke-width="0.5" stroke="black" fill="cyan"/>
  <circle cx="478.292" cy="424.367" r="5.05167" stroke-width="0.5" stroke="black" fill="cyan"/>
   </g>
   <g id="cell55">
  <circle cx="527.666" cy="469.723" r="8.41271" stroke-width="0.5" stroke="black" fill="cyan"/>
  <circle cx="527.666" cy="469.723" r="5.05167" stroke-width="0.5" stroke="black" fill="cyan"/>
   </g>
   <g id="cell56">
  <circle cx="618.442" cy="521.893" r="8.41271" stroke-width="0.5" stroke="black" fill="cyan"/>
  <circle cx="618.442" cy="521.893" r="5.05167" stroke-width="0.5" stroke="black" fill="cyan"/>
   </g>
   <g id="cell57">
  <circle cx="416.924" cy="617.466" r="8.41271" stroke-width="0.5" stroke="black" fill="cyan"/>
  <circle cx="416.924" cy="617.466" r="5.05167" stroke-width="0.5" stroke="black" fill="cyan"/>
   </g>
   <g id="cell58">
  <circle cx="550.898" cy="478.962" r="8.41271" stroke-width="0.5" stroke="black" fill="cyan"/>
  <circle cx="550.898" cy="478.962" r="5.05167" stroke-width="0.5" stroke="black" fill="cyan"/>
   </g>
   <g id="cell59">
  <circle cx="384.982" cy="439.347" r="8.41271" stroke-width="0.5" stroke="black" fill="cyan"/>
  <circle cx="384.982" cy="439.347" r="5.05167" stroke-width="0.5" stroke="black" fill="cyan"/>
   </g>
   <g id="cell60">
  <circle cx="594.042" cy="473.558" r="8.41271" stroke-width="0.5" stroke="black" fill="cyan"/>
  <circle cx="594.042" cy="473.558" r="5.05167" stroke-width="0.5" stroke="black" fill="cyan"/>
   </g>
   <g id="cell61">
  <circle cx="552.795" cy="614.166" r="8.41271" stroke-width="0.5" stroke="black" fill="cyan"/>
  <circle cx="552.795" cy="614.166" r="5.05167" stroke-width="0.5" stroke="black" fill="cyan"/>
   </g>
   <g id="cell62">
  <circle cx="524.725" cy="445.052" r="8.41271" stroke-width="0.5" stroke="black" fill="cyan"/>
  <circle cx="524.725" cy="445.052" r="5.05167" stroke-width="0.5" stroke="black" fill="cyan"/>
   </g>
   <g id="cell63">
  <circle cx="576.737" cy="546.777" r="8.41271" stroke-width="0.5" stroke="black" fill="cyan"/>
  <circle cx="576.737" cy="546.777" r="5.05167" stroke-width="0.5" stroke="black" fill="cyan"/>
   </g>
   <g id="cell64">
  <circle cx="509.962" cy="636.825" r="8.41271" stroke-width="0.5" stroke="black" fill="cyan"/>
  <circle cx="509.962" cy="636.825" r="5.05167" stroke-width="0.5" stroke="black" fill="cyan"/>
   </g>
   <g id="cell65">
  <circle cx="542.472" cy="466.642" r="8.41271" stroke-width="0.5" stroke="black" fill="cyan"/>
  <circle cx="542.472" cy="466.642" r="5.05167" stroke-width="0.5" stroke="black" fill="cyan"/>
   </g>
   <g id="cell66">
  <circle cx="535.456" cy="530.012" r="8.41271" stroke-width="0.5" stroke="black" fill="cyan"/>
  <circle cx="535.456" cy="530.012" r="5.05167" stroke-width="0.5" stroke="black" fill="cyan"/>
   </g>
   <g id="cell67">
  <circle cx="354.262" cy="493.162" r="8.41271" stroke-width="0.5" stroke="black" fill="cyan"/>
  <circle cx="354.262" cy="493.162" r="5.05167" stroke-width="0.5" stroke="black" fill="cyan"/>
   </g>
   <g id="cell68">
  <circle cx="562.393" cy="550.776" r="8.41271" stroke-width="0.5" stroke="black" fill="cyan"/>
  <circle cx="562.393" cy="550.776" r="5.05167" stroke-width="0.5" stroke="black" fill="cyan"/>
   </g>
   <g id="cell69">
  <circle cx="437.562" cy="464.586" r="8.41271" stroke-width="0.5" stroke="black" fill="cyan"/>
  <circle cx="437.562" cy="464.586" r="5.05167" stroke-width="0.5" stroke="black" fill="cyan"/>
   </g>
   <g id="cell70">
  <circle cx="576.195" cy="475.355" r="8.41271" stroke-width="0.5" stroke="black" fill="cyan"/>
  <circle cx="576.195" cy="475.355" r="5.05167" stroke-width="0.5" stroke="black" fill="cyan"/>
   </g>
   <g id="cell71">
  <circle cx="377.712" cy="520.989" r="8.41271" stroke-width="0.5" stroke="black" fill="cyan"/>
  <circle cx="377.712" cy="520.989" r="5.05167" stroke-width="0.5" stroke="black" fill="cyan"/>
   </g>
   <g id="cell72">
  <circle cx="534.772" cy="514.122" r="8.41271" stroke-width="0.5" stroke="black" fill="cyan"/>
  <circle cx="534.772" cy="514.122" r="5.05167" stroke-width="0.5" stroke="black" fill="cyan"/>
   </g>
   <g id="cell73">
  <circle cx="360.312" cy="545.939" r="8.41271" stroke-width="0.5" stroke="black" fill="cyan"/>
  <circle cx="360.312" cy="545.939" r="5.05167" stroke-width="0.5" stroke="black" fill="cyan"/>
   </g>
   <g id="cell74">
  <circle cx="543.072" cy="446.493" r="8.41271" stroke-width="0.5" stroke="black" fill="cyan"/>
  <circle cx="543.072" cy="446.493" r="5.05167" stroke-width="0.5" stroke="black" fill="cyan"/>
   </g>
  </g>
 </g>
  <rect x="775" y="1035" width="200" height="10" stroke-width="2" stroke="rgb(255,255,255)" fill="rgb(0,0,0)"/>
  <text x="781.25" y="1028.75"
   font-family="Arial" font-size="25" fill="black" >
   200 &#956;m
  </text>
  <text x="25" y="1045"
   font-family="Arial" font-size="18.75" fill="black" >
   0 days, 0 hours, 0 minutes, and 0.2821 seconds
  </text>
  <rect x="0" y="70" width="1000" height="1000" stroke-width="2" stroke="rgb(0,0,0)" fill="none"/>
</svg>
