<?xml version="1.0" encoding="UTF-8" standalone="no"?>
<!-- Created with PhysiCell (http://PhysiCell.MathCancer.org/) -->
<svg 
 xmlns:dc="http://purl.org/dc/elements/1.1/" 
 xmlns:cc="http://creativecommons.org/ns#" 
 xmlns:rdf="http://www.w3.org/1999/02/22-rdf-syntax-ns#" 
 xmlns:svg="http://www.w3.org/2000/svg" 
 xmlns="http://www.w3.org/2000/svg" 
 version="1.1" 
 width="1000" 
 height="1070" 
 id="svg2">
  <rect x="0" y="0" width="1000" height="1070" stroke-width="2" stroke="white" fill="white"/>
  <text x="12.5" y="30"
   font-family="Arial" font-size="25" fill="black" >
   Current time: 0 days, 7 hours, and 15.00 minutes, z = 0.00 &#956;m
  </text>
  <text x="12.5" y="57.5"
   font-family="Arial" font-size="23.75" fill="black" >
   98 agents
  </text>
 <g id="tissue" 
    transform="translate(0,1070) scale(1,-1)">
  <g id="ECM">
  </g>
  <g id="cells">
   <g id="cell0">
  <circle cx="518.917" cy="532.566" r="7.41548" stroke-width="0.5" stroke="black" fill="magenta"/>
  <circle cx="518.917" cy="532.566" r="4.50723" stroke-width="0.5" stroke="black" fill="magenta"/>
   </g>
   <g id="cell1">
  <circle cx="602.492" cy="526.171" r="8.41271" stroke-width="0.5" stroke="black" fill="magenta"/>
  <circle cx="602.492" cy="526.171" r="5.05167" stroke-width="0.5" stroke="black" fill="magenta"/>
   </g>
   <g id="cell2">
  <circle cx="511.337" cy="600.63" r="8.41271" stroke-width="0.5" stroke="black" fill="magenta"/>
  <circle cx="511.337" cy="600.63" r="5.05167" stroke-width="0.5" stroke="black" fill="magenta"/>
   </g>
   <g id="cell3">
  <circle cx="525.201" cy="543.367" r="6.69316" stroke-width="0.5" stroke="black" fill="magenta"/>
  <circle cx="525.201" cy="543.367" r="4.09972" stroke-width="0.5" stroke="black" fill="magenta"/>
   </g>
   <g id="cell4">
  <circle cx="487.864" cy="438.278" r="8.01277" stroke-width="0.5" stroke="black" fill="magenta"/>
  <circle cx="487.864" cy="438.278" r="4.85584" stroke-width="0.5" stroke="black" fill="magenta"/>
   </g>
   <g id="cell5">
  <circle cx="465.032" cy="493.3" r="8.41271" stroke-width="0.5" stroke="black" fill="magenta"/>
  <circle cx="465.032" cy="493.3" r="5.05167" stroke-width="0.5" stroke="black" fill="magenta"/>
   </g>
   <g id="cell6">
  <circle cx="595.637" cy="512.669" r="8.41271" stroke-width="0.5" stroke="black" fill="magenta"/>
  <circle cx="595.637" cy="512.669" r="5.05167" stroke-width="0.5" stroke="black" fill="magenta"/>
   </g>
   <g id="cell7">
  <circle cx="511.64" cy="462.117" r="8.41271" stroke-width="0.5" stroke="black" fill="magenta"/>
  <circle cx="511.64" cy="462.117" r="5.05167" stroke-width="0.5" stroke="black" fill="magenta"/>
   </g>
   <g id="cell8">
  <circle cx="375.935" cy="544.375" r="8.41271" stroke-width="0.5" stroke="black" fill="magenta"/>
  <circle cx="375.935" cy="544.375" r="5.05167" stroke-width="0.5" stroke="black" fill="magenta"/>
   </g>
   <g id="cell9">
  <circle cx="460.472" cy="599.786" r="8.41271" stroke-width="0.5" stroke="black" fill="magenta"/>
  <circle cx="460.472" cy="599.786" r="5.05167" stroke-width="0.5" stroke="black" fill="magenta"/>
   </g>
   <g id="cell10">
  <circle cx="583.447" cy="392.105" r="8.41271" stroke-width="0.5" stroke="black" fill="magenta"/>
  <circle cx="583.447" cy="392.105" r="5.05167" stroke-width="0.5" stroke="black" fill="magenta"/>
   </g>
   <g id="cell11">
  <circle cx="589.748" cy="590.273" r="8.41271" stroke-width="0.5" stroke="black" fill="magenta"/>
  <circle cx="589.748" cy="590.273" r="5.05167" stroke-width="0.5" stroke="black" fill="magenta"/>
   </g>
   <g id="cell12">
  <circle cx="506.714" cy="586.226" r="8.41271" stroke-width="0.5" stroke="black" fill="magenta"/>
  <circle cx="506.714" cy="586.226" r="5.05167" stroke-width="0.5" stroke="black" fill="magenta"/>
   </g>
   <g id="cell13">
  <circle cx="386.194" cy="568.228" r="8.41271" stroke-width="0.5" stroke="black" fill="magenta"/>
  <circle cx="386.194" cy="568.228" r="5.05167" stroke-width="0.5" stroke="black" fill="magenta"/>
   </g>
   <g id="cell14">
  <circle cx="528.556" cy="399.189" r="8.41271" stroke-width="0.5" stroke="black" fill="magenta"/>
  <circle cx="528.556" cy="399.189" r="5.05167" stroke-width="0.5" stroke="black" fill="magenta"/>
   </g>
   <g id="cell15">
  <circle cx="379.65" cy="475.1" r="8.41271" stroke-width="0.5" stroke="black" fill="magenta"/>
  <circle cx="379.65" cy="475.1" r="5.05167" stroke-width="0.5" stroke="black" fill="magenta"/>
   </g>
   <g id="cell16">
  <circle cx="428.96" cy="413.217" r="8.41271" stroke-width="0.5" stroke="black" fill="magenta"/>
  <circle cx="428.96" cy="413.217" r="5.05167" stroke-width="0.5" stroke="black" fill="magenta"/>
   </g>
   <g id="cell17">
  <circle cx="570.204" cy="488.904" r="8.41271" stroke-width="0.5" stroke="black" fill="magenta"/>
  <circle cx="570.204" cy="488.904" r="5.05167" stroke-width="0.5" stroke="black" fill="magenta"/>
   </g>
   <g id="cell18">
  <circle cx="517.415" cy="388.932" r="8.41271" stroke-width="0.5" stroke="black" fill="magenta"/>
  <circle cx="517.415" cy="388.932" r="5.05167" stroke-width="0.5" stroke="black" fill="magenta"/>
   </g>
   <g id="cell19">
  <circle cx="455.838" cy="542.749" r="7.24243" stroke-width="0.5" stroke="black" fill="magenta"/>
  <circle cx="455.838" cy="542.749" r="4.39934" stroke-width="0.5" stroke="black" fill="magenta"/>
   </g>
   <g id="cell20">
  <circle cx="531.095" cy="414.114" r="8.41271" stroke-width="0.5" stroke="black" fill="magenta"/>
  <circle cx="531.095" cy="414.114" r="5.05167" stroke-width="0.5" stroke="black" fill="magenta"/>
   </g>
   <g id="cell21">
  <circle cx="464.368" cy="634.574" r="8.41271" stroke-width="0.5" stroke="black" fill="magenta"/>
  <circle cx="464.368" cy="634.574" r="5.05167" stroke-width="0.5" stroke="black" fill="magenta"/>
   </g>
   <g id="cell22">
  <circle cx="556.944" cy="496.128" r="8.41271" stroke-width="0.5" stroke="black" fill="magenta"/>
  <circle cx="556.944" cy="496.128" r="5.05167" stroke-width="0.5" stroke="black" fill="magenta"/>
   </g>
   <g id="cell23">
  <circle cx="536.94" cy="481.814" r="8.41271" stroke-width="0.5" stroke="black" fill="magenta"/>
  <circle cx="536.94" cy="481.814" r="5.05167" stroke-width="0.5" stroke="black" fill="magenta"/>
   </g>
   <g id="cell24">
  <circle cx="559.285" cy="379.796" r="8.41271" stroke-width="0.5" stroke="black" fill="magenta"/>
  <circle cx="559.285" cy="379.796" r="5.05167" stroke-width="0.5" stroke="black" fill="magenta"/>
   </g>
   <g id="cell25">
  <circle cx="645.31" cy="545.618" r="7.79564" stroke-width="0.5" stroke="black" fill="green"/>
  <circle cx="645.31" cy="545.618" r="4.73359" stroke-width="0.5" stroke="black" fill="green"/>
   </g>
   <g id="cell26">
  <circle cx="551.119" cy="401.252" r="8.41271" stroke-width="0.5" stroke="black" fill="green"/>
  <circle cx="551.119" cy="401.252" r="5.05167" stroke-width="0.5" stroke="black" fill="green"/>
   </g>
   <g id="cell27">
  <circle cx="462.657" cy="390.647" r="8.03527" stroke-width="0.5" stroke="black" fill="green"/>
  <circle cx="462.657" cy="390.647" r="4.86813" stroke-width="0.5" stroke="black" fill="green"/>
   </g>
   <g id="cell28">
  <circle cx="434.558" cy="530.78" r="8.41271" stroke-width="0.5" stroke="black" fill="green"/>
  <circle cx="434.558" cy="530.78" r="5.05167" stroke-width="0.5" stroke="black" fill="green"/>
   </g>
   <g id="cell29">
  <circle cx="450.329" cy="517.33" r="8.41271" stroke-width="0.5" stroke="black" fill="green"/>
  <circle cx="450.329" cy="517.33" r="5.05167" stroke-width="0.5" stroke="black" fill="green"/>
   </g>
   <g id="cell30">
  <circle cx="481.143" cy="535.727" r="6.95901" stroke-width="0.5" stroke="black" fill="green"/>
  <circle cx="481.143" cy="535.727" r="4.21341" stroke-width="0.5" stroke="black" fill="green"/>
   </g>
   <g id="cell31">
  <circle cx="412.757" cy="541.193" r="8.41271" stroke-width="0.5" stroke="black" fill="green"/>
  <circle cx="412.757" cy="541.193" r="5.05167" stroke-width="0.5" stroke="black" fill="green"/>
   </g>
   <g id="cell32">
  <circle cx="422.582" cy="478.994" r="6.67717" stroke-width="0.5" stroke="black" fill="green"/>
  <circle cx="422.582" cy="478.994" r="4.00951" stroke-width="0.5" stroke="black" fill="green"/>
   </g>
   <g id="cell33">
  <circle cx="494.955" cy="424.582" r="8.41271" stroke-width="0.5" stroke="black" fill="green"/>
  <circle cx="494.955" cy="424.582" r="5.05167" stroke-width="0.5" stroke="black" fill="green"/>
   </g>
   <g id="cell34">
  <circle cx="397.088" cy="450.831" r="8.41271" stroke-width="0.5" stroke="black" fill="green"/>
  <circle cx="397.088" cy="450.831" r="5.05167" stroke-width="0.5" stroke="black" fill="green"/>
   </g>
   <g id="cell35">
  <circle cx="551.203" cy="543.238" r="8.41271" stroke-width="0.5" stroke="black" fill="green"/>
  <circle cx="551.203" cy="543.238" r="5.05167" stroke-width="0.5" stroke="black" fill="green"/>
   </g>
   <g id="cell36">
  <circle cx="391.486" cy="582.903" r="8.41271" stroke-width="0.5" stroke="black" fill="green"/>
  <circle cx="391.486" cy="582.903" r="5.05167" stroke-width="0.5" stroke="black" fill="green"/>
   </g>
   <g id="cell37">
  <circle cx="639.11" cy="457.461" r="7.97646" stroke-width="0.5" stroke="black" fill="green"/>
  <circle cx="639.11" cy="457.461" r="4.83584" stroke-width="0.5" stroke="black" fill="green"/>
   </g>
   <g id="cell38">
  <circle cx="531.954" cy="598.421" r="7.89373" stroke-width="0.5" stroke="black" fill="green"/>
  <circle cx="531.954" cy="598.421" r="4.78957" stroke-width="0.5" stroke="black" fill="green"/>
   </g>
   <g id="cell39">
  <circle cx="613.458" cy="490.595" r="8.41271" stroke-width="0.5" stroke="black" fill="green"/>
  <circle cx="613.458" cy="490.595" r="5.05167" stroke-width="0.5" stroke="black" fill="green"/>
   </g>
   <g id="cell40">
  <circle cx="485.348" cy="571.779" r="8.41271" stroke-width="0.5" stroke="black" fill="green"/>
  <circle cx="485.348" cy="571.779" r="5.05167" stroke-width="0.5" stroke="black" fill="green"/>
   </g>
   <g id="cell41">
  <circle cx="364.925" cy="480.252" r="8.41271" stroke-width="0.5" stroke="black" fill="green"/>
  <circle cx="364.925" cy="480.252" r="5.05167" stroke-width="0.5" stroke="black" fill="green"/>
   </g>
   <g id="cell42">
  <circle cx="438.842" cy="494.268" r="8.41271" stroke-width="0.5" stroke="black" fill="green"/>
  <circle cx="438.842" cy="494.268" r="5.05167" stroke-width="0.5" stroke="black" fill="green"/>
   </g>
   <g id="cell43">
  <circle cx="558.97" cy="445.894" r="8.41271" stroke-width="0.5" stroke="black" fill="green"/>
  <circle cx="558.97" cy="445.894" r="5.05167" stroke-width="0.5" stroke="black" fill="green"/>
   </g>
   <g id="cell44">
  <circle cx="475.857" cy="624.021" r="8.41271" stroke-width="0.5" stroke="black" fill="green"/>
  <circle cx="475.857" cy="624.021" r="5.05167" stroke-width="0.5" stroke="black" fill="green"/>
   </g>
   <g id="cell45">
  <circle cx="414.953" cy="557.066" r="8.41271" stroke-width="0.5" stroke="black" fill="green"/>
  <circle cx="414.953" cy="557.066" r="5.05167" stroke-width="0.5" stroke="black" fill="green"/>
   </g>
   <g id="cell46">
  <circle cx="522.876" cy="611.041" r="8.41271" stroke-width="0.5" stroke="black" fill="green"/>
  <circle cx="522.876" cy="611.041" r="5.05167" stroke-width="0.5" stroke="black" fill="green"/>
   </g>
   <g id="cell47">
  <circle cx="504.258" cy="508.332" r="8.41271" stroke-width="0.5" stroke="black" fill="green"/>
  <circle cx="504.258" cy="508.332" r="5.05167" stroke-width="0.5" stroke="black" fill="green"/>
   </g>
   <g id="cell48">
  <circle cx="564.118" cy="602.827" r="8.41271" stroke-width="0.5" stroke="black" fill="green"/>
  <circle cx="564.118" cy="602.827" r="5.05167" stroke-width="0.5" stroke="black" fill="green"/>
   </g>
   <g id="cell49">
  <circle cx="429.826" cy="397.641" r="8.41271" stroke-width="0.5" stroke="black" fill="green"/>
  <circle cx="429.826" cy="397.641" r="5.05167" stroke-width="0.5" stroke="black" fill="green"/>
   </g>
   <g id="cell50">
  <circle cx="520.098" cy="519.124" r="7.49456" stroke-width="0.5" stroke="black" fill="cyan"/>
  <circle cx="520.098" cy="519.124" r="4.55548" stroke-width="0.5" stroke="black" fill="cyan"/>
   </g>
   <g id="cell51">
  <circle cx="398.721" cy="597.201" r="8.41271" stroke-width="0.5" stroke="black" fill="cyan"/>
  <circle cx="398.721" cy="597.201" r="5.05167" stroke-width="0.5" stroke="black" fill="cyan"/>
   </g>
   <g id="cell52">
  <circle cx="520.183" cy="425.25" r="8.41271" stroke-width="0.5" stroke="black" fill="cyan"/>
  <circle cx="520.183" cy="425.25" r="5.05167" stroke-width="0.5" stroke="black" fill="cyan"/>
   </g>
   <g id="cell53">
  <circle cx="571.35" cy="435.954" r="8.41271" stroke-width="0.5" stroke="black" fill="cyan"/>
  <circle cx="571.35" cy="435.954" r="5.05167" stroke-width="0.5" stroke="black" fill="cyan"/>
   </g>
   <g id="cell54">
  <circle cx="480.83" cy="426.772" r="6.78181" stroke-width="0.5" stroke="black" fill="cyan"/>
  <circle cx="480.83" cy="426.772" r="4.08714" stroke-width="0.5" stroke="black" fill="cyan"/>
   </g>
   <g id="cell55">
  <circle cx="529.895" cy="468.147" r="7.9229" stroke-width="0.5" stroke="black" fill="cyan"/>
  <circle cx="529.895" cy="468.147" r="4.80599" stroke-width="0.5" stroke="black" fill="cyan"/>
   </g>
   <g id="cell56">
  <circle cx="617.613" cy="522.333" r="8.41271" stroke-width="0.5" stroke="black" fill="cyan"/>
  <circle cx="617.613" cy="522.333" r="5.05167" stroke-width="0.5" stroke="black" fill="cyan"/>
   </g>
   <g id="cell57">
  <circle cx="416.924" cy="617.466" r="1.45214" stroke-width="0.5" stroke="black" fill="cyan"/>
  <circle cx="416.924" cy="617.466" r="1.43612" stroke-width="0.5" stroke="black" fill="black"/>
   </g>
   <g id="cell58">
  <circle cx="552.845" cy="481.186" r="8.41271" stroke-width="0.5" stroke="black" fill="cyan"/>
  <circle cx="552.845" cy="481.186" r="5.05167" stroke-width="0.5" stroke="black" fill="cyan"/>
   </g>
   <g id="cell59">
  <circle cx="385.463" cy="439.803" r="8.41271" stroke-width="0.5" stroke="black" fill="cyan"/>
  <circle cx="385.463" cy="439.803" r="5.05167" stroke-width="0.5" stroke="black" fill="cyan"/>
   </g>
   <g id="cell60">
  <circle cx="593.157" cy="473.642" r="8.41271" stroke-width="0.5" stroke="black" fill="cyan"/>
  <circle cx="593.157" cy="473.642" r="5.05167" stroke-width="0.5" stroke="black" fill="cyan"/>
   </g>
   <g id="cell61">
  <circle cx="552.912" cy="614.195" r="8.41271" stroke-width="0.5" stroke="black" fill="cyan"/>
  <circle cx="552.912" cy="614.195" r="5.05167" stroke-width="0.5" stroke="black" fill="cyan"/>
   </g>
   <g id="cell62">
  <circle cx="521.596" cy="450.681" r="8.04604" stroke-width="0.5" stroke="black" fill="cyan"/>
  <circle cx="521.596" cy="450.681" r="4.87399" stroke-width="0.5" stroke="black" fill="cyan"/>
   </g>
   <g id="cell63">
  <circle cx="575.429" cy="540.627" r="7.33129" stroke-width="0.5" stroke="black" fill="cyan"/>
  <circle cx="575.429" cy="540.627" r="4.45516" stroke-width="0.5" stroke="black" fill="cyan"/>
   </g>
   <g id="cell64">
  <circle cx="509.962" cy="636.825" r="8.41271" stroke-width="0.5" stroke="black" fill="cyan"/>
  <circle cx="509.962" cy="636.825" r="5.05167" stroke-width="0.5" stroke="black" fill="cyan"/>
   </g>
   <g id="cell65">
  <circle cx="544.027" cy="469.448" r="7.21189" stroke-width="0.5" stroke="black" fill="cyan"/>
  <circle cx="544.027" cy="469.448" r="4.37993" stroke-width="0.5" stroke="black" fill="cyan"/>
   </g>
   <g id="cell66">
  <circle cx="532.317" cy="534.103" r="6.73287" stroke-width="0.5" stroke="black" fill="cyan"/>
  <circle cx="532.317" cy="534.103" r="4.05039" stroke-width="0.5" stroke="black" fill="cyan"/>
   </g>
   <g id="cell67">
  <circle cx="354.711" cy="492.599" r="8.41271" stroke-width="0.5" stroke="black" fill="cyan"/>
  <circle cx="354.711" cy="492.599" r="5.05167" stroke-width="0.5" stroke="black" fill="cyan"/>
   </g>
   <g id="cell68">
  <circle cx="565.058" cy="551.838" r="8.41271" stroke-width="0.5" stroke="black" fill="cyan"/>
  <circle cx="565.058" cy="551.838" r="5.05167" stroke-width="0.5" stroke="black" fill="cyan"/>
   </g>
   <g id="cell69">
  <circle cx="438.625" cy="463.905" r="8.41271" stroke-width="0.5" stroke="black" fill="cyan"/>
  <circle cx="438.625" cy="463.905" r="5.05167" stroke-width="0.5" stroke="black" fill="cyan"/>
   </g>
   <g id="cell70">
  <circle cx="577.197" cy="474.981" r="8.41271" stroke-width="0.5" stroke="black" fill="cyan"/>
  <circle cx="577.197" cy="474.981" r="5.05167" stroke-width="0.5" stroke="black" fill="cyan"/>
   </g>
   <g id="cell71">
  <circle cx="377.712" cy="520.989" r="8.41271" stroke-width="0.5" stroke="black" fill="cyan"/>
  <circle cx="377.712" cy="520.989" r="5.05167" stroke-width="0.5" stroke="black" fill="cyan"/>
   </g>
   <g id="cell72">
  <circle cx="531.48" cy="512.223" r="6.80881" stroke-width="0.5" stroke="black" fill="cyan"/>
  <circle cx="531.48" cy="512.223" r="4.10709" stroke-width="0.5" stroke="black" fill="cyan"/>
   </g>
   <g id="cell73">
  <circle cx="362.653" cy="550.56" r="7.44242" stroke-width="0.5" stroke="black" fill="cyan"/>
  <circle cx="362.653" cy="550.56" r="4.52373" stroke-width="0.5" stroke="black" fill="cyan"/>
   </g>
   <g id="cell74">
  <circle cx="542.952" cy="445.37" r="8.41271" stroke-width="0.5" stroke="black" fill="cyan"/>
  <circle cx="542.952" cy="445.37" r="5.05167" stroke-width="0.5" stroke="black" fill="cyan"/>
   </g>
   <g id="cell75">
  <circle cx="529.492" cy="437.692" r="8.04604" stroke-width="0.5" stroke="black" fill="cyan"/>
  <circle cx="529.492" cy="437.692" r="4.87399" stroke-width="0.5" stroke="black" fill="cyan"/>
   </g>
   <g id="cell76">
  <circle cx="448.372" cy="385.249" r="8.03527" stroke-width="0.5" stroke="black" fill="green"/>
  <circle cx="448.372" cy="385.249" r="4.86813" stroke-width="0.5" stroke="black" fill="green"/>
   </g>
   <g id="cell77">
  <circle cx="473.371" cy="438.299" r="8.01277" stroke-width="0.5" stroke="black" fill="magenta"/>
  <circle cx="473.371" cy="438.299" r="4.85584" stroke-width="0.5" stroke="black" fill="magenta"/>
   </g>
   <g id="cell78">
  <circle cx="625.722" cy="461.926" r="6.91843" stroke-width="0.5" stroke="black" fill="green"/>
  <circle cx="625.722" cy="461.926" r="4.23353" stroke-width="0.5" stroke="black" fill="green"/>
   </g>
   <g id="cell79">
  <circle cx="517.324" cy="476.097" r="7.9229" stroke-width="0.5" stroke="black" fill="cyan"/>
  <circle cx="517.324" cy="476.097" r="4.80599" stroke-width="0.5" stroke="black" fill="cyan"/>
   </g>
   <g id="cell80">
  <circle cx="537.968" cy="611.836" r="7.59009" stroke-width="0.5" stroke="black" fill="green"/>
  <circle cx="537.968" cy="611.836" r="4.63529" stroke-width="0.5" stroke="black" fill="green"/>
   </g>
   <g id="cell81">
  <circle cx="546.617" cy="600.318" r="7.59009" stroke-width="0.5" stroke="black" fill="green"/>
  <circle cx="546.617" cy="600.318" r="4.63529" stroke-width="0.5" stroke="black" fill="green"/>
   </g>
   <g id="cell82">
  <circle cx="530.718" cy="554.608" r="7.79564" stroke-width="0.5" stroke="black" fill="magenta"/>
  <circle cx="530.718" cy="554.608" r="4.73359" stroke-width="0.5" stroke="black" fill="magenta"/>
   </g>
   <g id="cell83">
  <circle cx="634.902" cy="556.133" r="7.79564" stroke-width="0.5" stroke="black" fill="green"/>
  <circle cx="634.902" cy="556.133" r="4.73359" stroke-width="0.5" stroke="black" fill="green"/>
   </g>
   <g id="cell84">
  <circle cx="519.206" cy="505.17" r="7.49456" stroke-width="0.5" stroke="black" fill="cyan"/>
  <circle cx="519.206" cy="505.17" r="4.55548" stroke-width="0.5" stroke="black" fill="cyan"/>
   </g>
   <g id="cell85">
  <circle cx="356.141" cy="538.061" r="7.44242" stroke-width="0.5" stroke="black" fill="cyan"/>
  <circle cx="356.141" cy="538.061" r="4.52373" stroke-width="0.5" stroke="black" fill="cyan"/>
   </g>
   <g id="cell86">
  <circle cx="507.727" cy="525.126" r="7.41548" stroke-width="0.5" stroke="black" fill="magenta"/>
  <circle cx="507.727" cy="525.126" r="4.50723" stroke-width="0.5" stroke="black" fill="magenta"/>
   </g>
   <g id="cell87">
  <circle cx="579.926" cy="553.716" r="7.33129" stroke-width="0.5" stroke="black" fill="cyan"/>
  <circle cx="579.926" cy="553.716" r="4.45516" stroke-width="0.5" stroke="black" fill="cyan"/>
   </g>
   <g id="cell88">
  <circle cx="448.999" cy="531.73" r="7.24243" stroke-width="0.5" stroke="black" fill="magenta"/>
  <circle cx="448.999" cy="531.73" r="4.39934" stroke-width="0.5" stroke="black" fill="magenta"/>
   </g>
   <g id="cell89">
  <circle cx="550.652" cy="457.884" r="7.21189" stroke-width="0.5" stroke="black" fill="cyan"/>
  <circle cx="550.652" cy="457.884" r="4.37993" stroke-width="0.5" stroke="black" fill="cyan"/>
   </g>
   <g id="cell90">
  <circle cx="630.468" cy="474.11" r="6.91843" stroke-width="0.5" stroke="black" fill="green"/>
  <circle cx="630.468" cy="474.11" r="4.23353" stroke-width="0.5" stroke="black" fill="green"/>
   </g>
   <g id="cell91">
  <circle cx="542.498" cy="552.702" r="5.69489" stroke-width="0.5" stroke="black" fill="magenta"/>
  <circle cx="542.498" cy="552.702" r="3.512" stroke-width="0.5" stroke="black" fill="magenta"/>
   </g>
   <g id="cell92">
  <circle cx="482.403" cy="548.845" r="6.95901" stroke-width="0.5" stroke="black" fill="green"/>
  <circle cx="482.403" cy="548.845" r="4.21341" stroke-width="0.5" stroke="black" fill="green"/>
   </g>
   <g id="cell93">
  <circle cx="537.1" cy="544.157" r="5.69489" stroke-width="0.5" stroke="black" fill="magenta"/>
  <circle cx="537.1" cy="544.157" r="3.512" stroke-width="0.5" stroke="black" fill="magenta"/>
   </g>
   <g id="cell94">
  <circle cx="532.01" cy="499.988" r="6.80881" stroke-width="0.5" stroke="black" fill="cyan"/>
  <circle cx="532.01" cy="499.988" r="4.10709" stroke-width="0.5" stroke="black" fill="cyan"/>
   </g>
   <g id="cell95">
  <circle cx="468.881" cy="422.823" r="6.78181" stroke-width="0.5" stroke="black" fill="cyan"/>
  <circle cx="468.881" cy="422.823" r="4.08714" stroke-width="0.5" stroke="black" fill="cyan"/>
   </g>
   <g id="cell96">
  <circle cx="536.55" cy="523.117" r="6.73287" stroke-width="0.5" stroke="black" fill="cyan"/>
  <circle cx="536.55" cy="523.117" r="4.05039" stroke-width="0.5" stroke="black" fill="cyan"/>
   </g>
   <g id="cell97">
  <circle cx="428.074" cy="469.969" r="6.67717" stroke-width="0.5" stroke="black" fill="green"/>
  <circle cx="428.074" cy="469.969" r="4.00951" stroke-width="0.5" stroke="black" fill="green"/>
   </g>
  </g>
 </g>
  <rect x="775" y="1035" width="200" height="10" stroke-width="2" stroke="rgb(255,255,255)" fill="rgb(0,0,0)"/>
  <text x="781.25" y="1028.75"
   font-family="Arial" font-size="25" fill="black" >
   200 &#956;m
  </text>
  <text x="25" y="1045"
   font-family="Arial" font-size="18.75" fill="black" >
   0 days, 0 hours, 0 minutes, and 8.1035 seconds
  </text>
  <rect x="0" y="70" width="1000" height="1000" stroke-width="2" stroke="rgb(0,0,0)" fill="none"/>
</svg>
