<?xml version="1.0" encoding="UTF-8" standalone="no"?>
<!-- Created with PhysiCell (http://PhysiCell.MathCancer.org/) -->
<svg 
 xmlns:dc="http://purl.org/dc/elements/1.1/" 
 xmlns:cc="http://creativecommons.org/ns#" 
 xmlns:rdf="http://www.w3.org/1999/02/22-rdf-syntax-ns#" 
 xmlns:svg="http://www.w3.org/2000/svg" 
 xmlns="http://www.w3.org/2000/svg" 
 version="1.1" 
 width="1000" 
 height="1070" 
 id="svg2">
  <rect x="0" y="0" width="1000" height="1070" stroke-width="2" stroke="white" fill="white"/>
  <text x="12.5" y="30"
   font-family="Arial" font-size="25" fill="black" >
   Current time: 0 days, 16 hours, and 24.00 minutes, z = 0.00 &#956;m
  </text>
  <text x="12.5" y="57.5"
   font-family="Arial" font-size="23.75" fill="black" >
   124 agents
  </text>
 <g id="tissue" 
    transform="translate(0,1070) scale(1,-1)">
  <g id="ECM">
  </g>
  <g id="cells">
   <g id="cell0">
  <circle cx="515.34" cy="535.547" r="8.33911" stroke-width="0.5" stroke="black" fill="magenta"/>
  <circle cx="515.34" cy="535.547" r="5.02235" stroke-width="0.5" stroke="black" fill="magenta"/>
   </g>
   <g id="cell1">
  <circle cx="602.492" cy="526.171" r="8.41271" stroke-width="0.5" stroke="black" fill="magenta"/>
  <circle cx="602.492" cy="526.171" r="5.05167" stroke-width="0.5" stroke="black" fill="magenta"/>
   </g>
   <g id="cell2">
  <circle cx="514.716" cy="598.305" r="8.41271" stroke-width="0.5" stroke="black" fill="magenta"/>
  <circle cx="514.716" cy="598.305" r="5.05167" stroke-width="0.5" stroke="black" fill="magenta"/>
   </g>
   <g id="cell3">
  <circle cx="524.193" cy="547.527" r="8.29169" stroke-width="0.5" stroke="black" fill="magenta"/>
  <circle cx="524.193" cy="547.527" r="5.00259" stroke-width="0.5" stroke="black" fill="magenta"/>
   </g>
   <g id="cell4">
  <circle cx="489.172" cy="444.158" r="6.78606" stroke-width="0.5" stroke="black" fill="magenta"/>
  <circle cx="489.172" cy="444.158" r="4.09884" stroke-width="0.5" stroke="black" fill="magenta"/>
   </g>
   <g id="cell5">
  <circle cx="465.032" cy="493.3" r="8.41271" stroke-width="0.5" stroke="black" fill="magenta"/>
  <circle cx="465.032" cy="493.3" r="5.05167" stroke-width="0.5" stroke="black" fill="magenta"/>
   </g>
   <g id="cell6">
  <circle cx="595.637" cy="512.669" r="8.41271" stroke-width="0.5" stroke="black" fill="magenta"/>
  <circle cx="595.637" cy="512.669" r="5.05167" stroke-width="0.5" stroke="black" fill="magenta"/>
   </g>
   <g id="cell7">
  <circle cx="498.539" cy="456.765" r="7.81315" stroke-width="0.5" stroke="black" fill="magenta"/>
  <circle cx="498.539" cy="456.765" r="4.74367" stroke-width="0.5" stroke="black" fill="magenta"/>
   </g>
   <g id="cell8">
  <circle cx="376.315" cy="542.397" r="8.41271" stroke-width="0.5" stroke="black" fill="magenta"/>
  <circle cx="376.315" cy="542.397" r="5.05167" stroke-width="0.5" stroke="black" fill="magenta"/>
   </g>
   <g id="cell9">
  <circle cx="460.472" cy="599.786" r="8.41271" stroke-width="0.5" stroke="black" fill="magenta"/>
  <circle cx="460.472" cy="599.786" r="5.05167" stroke-width="0.5" stroke="black" fill="magenta"/>
   </g>
   <g id="cell10">
  <circle cx="583.447" cy="392.105" r="8.41271" stroke-width="0.5" stroke="black" fill="magenta"/>
  <circle cx="583.447" cy="392.105" r="5.05167" stroke-width="0.5" stroke="black" fill="magenta"/>
   </g>
   <g id="cell11">
  <circle cx="591.608" cy="590.058" r="8.41271" stroke-width="0.5" stroke="black" fill="magenta"/>
  <circle cx="591.608" cy="590.058" r="5.05167" stroke-width="0.5" stroke="black" fill="magenta"/>
   </g>
   <g id="cell12">
  <circle cx="506.493" cy="585.617" r="8.41271" stroke-width="0.5" stroke="black" fill="magenta"/>
  <circle cx="506.493" cy="585.617" r="5.05167" stroke-width="0.5" stroke="black" fill="magenta"/>
   </g>
   <g id="cell13">
  <circle cx="386.194" cy="568.228" r="8.41271" stroke-width="0.5" stroke="black" fill="magenta"/>
  <circle cx="386.194" cy="568.228" r="5.05167" stroke-width="0.5" stroke="black" fill="magenta"/>
   </g>
   <g id="cell14">
  <circle cx="529.441" cy="399.423" r="8.41271" stroke-width="0.5" stroke="black" fill="magenta"/>
  <circle cx="529.441" cy="399.423" r="5.05167" stroke-width="0.5" stroke="black" fill="magenta"/>
   </g>
   <g id="cell15">
  <circle cx="379.65" cy="475.1" r="8.41271" stroke-width="0.5" stroke="black" fill="magenta"/>
  <circle cx="379.65" cy="475.1" r="5.05167" stroke-width="0.5" stroke="black" fill="magenta"/>
   </g>
   <g id="cell16">
  <circle cx="428.979" cy="412.982" r="8.41271" stroke-width="0.5" stroke="black" fill="magenta"/>
  <circle cx="428.979" cy="412.982" r="5.05167" stroke-width="0.5" stroke="black" fill="magenta"/>
   </g>
   <g id="cell17">
  <circle cx="571.041" cy="491.445" r="8.41271" stroke-width="0.5" stroke="black" fill="magenta"/>
  <circle cx="571.041" cy="491.445" r="5.05167" stroke-width="0.5" stroke="black" fill="magenta"/>
   </g>
   <g id="cell18">
  <circle cx="518.035" cy="389.467" r="8.41271" stroke-width="0.5" stroke="black" fill="magenta"/>
  <circle cx="518.035" cy="389.467" r="5.05167" stroke-width="0.5" stroke="black" fill="magenta"/>
   </g>
   <g id="cell19">
  <circle cx="460.122" cy="539.945" r="7.79679" stroke-width="0.5" stroke="black" fill="magenta"/>
  <circle cx="460.122" cy="539.945" r="4.74221" stroke-width="0.5" stroke="black" fill="magenta"/>
   </g>
   <g id="cell20">
  <circle cx="531.131" cy="414.51" r="8.41271" stroke-width="0.5" stroke="black" fill="magenta"/>
  <circle cx="531.131" cy="414.51" r="5.05167" stroke-width="0.5" stroke="black" fill="magenta"/>
   </g>
   <g id="cell21">
  <circle cx="464.368" cy="634.574" r="8.41271" stroke-width="0.5" stroke="black" fill="magenta"/>
  <circle cx="464.368" cy="634.574" r="5.05167" stroke-width="0.5" stroke="black" fill="magenta"/>
   </g>
   <g id="cell22">
  <circle cx="556.493" cy="495.45" r="8.41271" stroke-width="0.5" stroke="black" fill="magenta"/>
  <circle cx="556.493" cy="495.45" r="5.05167" stroke-width="0.5" stroke="black" fill="magenta"/>
   </g>
   <g id="cell23">
  <circle cx="545.693" cy="485" r="8.41271" stroke-width="0.5" stroke="black" fill="magenta"/>
  <circle cx="545.693" cy="485" r="5.05167" stroke-width="0.5" stroke="black" fill="magenta"/>
   </g>
   <g id="cell24">
  <circle cx="558.69" cy="382.02" r="8.41271" stroke-width="0.5" stroke="black" fill="magenta"/>
  <circle cx="558.69" cy="382.02" r="5.05167" stroke-width="0.5" stroke="black" fill="magenta"/>
   </g>
   <g id="cell25">
  <circle cx="645.711" cy="545.213" r="8.36722" stroke-width="0.5" stroke="black" fill="green"/>
  <circle cx="645.711" cy="545.213" r="5.03458" stroke-width="0.5" stroke="black" fill="green"/>
   </g>
   <g id="cell26">
  <circle cx="554.849" cy="396.498" r="7.79564" stroke-width="0.5" stroke="black" fill="green"/>
  <circle cx="554.849" cy="396.498" r="4.73359" stroke-width="0.5" stroke="black" fill="green"/>
   </g>
   <g id="cell27">
  <circle cx="464.974" cy="392.035" r="8.38454" stroke-width="0.5" stroke="black" fill="green"/>
  <circle cx="464.974" cy="392.035" r="5.04168" stroke-width="0.5" stroke="black" fill="green"/>
   </g>
   <g id="cell28">
  <circle cx="432.903" cy="530.696" r="8.41271" stroke-width="0.5" stroke="black" fill="green"/>
  <circle cx="432.903" cy="530.696" r="5.05167" stroke-width="0.5" stroke="black" fill="green"/>
   </g>
   <g id="cell29">
  <circle cx="450.45" cy="516.053" r="8.41271" stroke-width="0.5" stroke="black" fill="green"/>
  <circle cx="450.45" cy="516.053" r="5.05167" stroke-width="0.5" stroke="black" fill="green"/>
   </g>
   <g id="cell30">
  <circle cx="481.971" cy="534.192" r="8.29993" stroke-width="0.5" stroke="black" fill="green"/>
  <circle cx="481.971" cy="534.192" r="5.00433" stroke-width="0.5" stroke="black" fill="green"/>
   </g>
   <g id="cell31">
  <circle cx="412.807" cy="541.561" r="8.41271" stroke-width="0.5" stroke="black" fill="green"/>
  <circle cx="412.807" cy="541.561" r="5.05167" stroke-width="0.5" stroke="black" fill="green"/>
   </g>
   <g id="cell32">
  <circle cx="421.16" cy="481.828" r="8.25826" stroke-width="0.5" stroke="black" fill="green"/>
  <circle cx="421.16" cy="481.828" r="4.98429" stroke-width="0.5" stroke="black" fill="green"/>
   </g>
   <g id="cell33">
  <circle cx="501.158" cy="421.558" r="8.41271" stroke-width="0.5" stroke="black" fill="green"/>
  <circle cx="501.158" cy="421.558" r="5.05167" stroke-width="0.5" stroke="black" fill="green"/>
   </g>
   <g id="cell34">
  <circle cx="397.088" cy="450.831" r="8.41271" stroke-width="0.5" stroke="black" fill="green"/>
  <circle cx="397.088" cy="450.831" r="5.05167" stroke-width="0.5" stroke="black" fill="green"/>
   </g>
   <g id="cell35">
  <circle cx="553.532" cy="542.082" r="8.41271" stroke-width="0.5" stroke="black" fill="green"/>
  <circle cx="553.532" cy="542.082" r="5.05167" stroke-width="0.5" stroke="black" fill="green"/>
   </g>
   <g id="cell36">
  <circle cx="391.486" cy="582.903" r="8.41271" stroke-width="0.5" stroke="black" fill="green"/>
  <circle cx="391.486" cy="582.903" r="5.05167" stroke-width="0.5" stroke="black" fill="green"/>
   </g>
   <g id="cell37">
  <circle cx="639.851" cy="457.402" r="8.38028" stroke-width="0.5" stroke="black" fill="green"/>
  <circle cx="639.851" cy="457.402" r="5.03997" stroke-width="0.5" stroke="black" fill="green"/>
   </g>
   <g id="cell38">
  <circle cx="528.959" cy="592.025" r="8.37431" stroke-width="0.5" stroke="black" fill="green"/>
  <circle cx="528.959" cy="592.025" r="5.03754" stroke-width="0.5" stroke="black" fill="green"/>
   </g>
   <g id="cell39">
  <circle cx="613.458" cy="490.595" r="8.41271" stroke-width="0.5" stroke="black" fill="green"/>
  <circle cx="613.458" cy="490.595" r="5.05167" stroke-width="0.5" stroke="black" fill="green"/>
   </g>
   <g id="cell40">
  <circle cx="485.348" cy="571.779" r="8.41271" stroke-width="0.5" stroke="black" fill="green"/>
  <circle cx="485.348" cy="571.779" r="5.05167" stroke-width="0.5" stroke="black" fill="green"/>
   </g>
   <g id="cell41">
  <circle cx="364.925" cy="480.252" r="8.41271" stroke-width="0.5" stroke="black" fill="green"/>
  <circle cx="364.925" cy="480.252" r="5.05167" stroke-width="0.5" stroke="black" fill="green"/>
   </g>
   <g id="cell42">
  <circle cx="438.841" cy="494.261" r="8.41271" stroke-width="0.5" stroke="black" fill="green"/>
  <circle cx="438.841" cy="494.261" r="5.05167" stroke-width="0.5" stroke="black" fill="green"/>
   </g>
   <g id="cell43">
  <circle cx="562.435" cy="441.604" r="8.41271" stroke-width="0.5" stroke="black" fill="green"/>
  <circle cx="562.435" cy="441.604" r="5.05167" stroke-width="0.5" stroke="black" fill="green"/>
   </g>
   <g id="cell44">
  <circle cx="475.857" cy="624.021" r="8.41271" stroke-width="0.5" stroke="black" fill="green"/>
  <circle cx="475.857" cy="624.021" r="5.05167" stroke-width="0.5" stroke="black" fill="green"/>
   </g>
   <g id="cell45">
  <circle cx="414.902" cy="556.698" r="2.42814" stroke-width="0.5" stroke="black" fill="green"/>
  <circle cx="414.902" cy="556.698" r="2.17648" stroke-width="0.5" stroke="black" fill="black"/>
   </g>
   <g id="cell46">
  <circle cx="521.094" cy="612.217" r="8.14594" stroke-width="0.5" stroke="black" fill="green"/>
  <circle cx="521.094" cy="612.217" r="4.92726" stroke-width="0.5" stroke="black" fill="green"/>
   </g>
   <g id="cell47">
  <circle cx="504.887" cy="497.842" r="8.24914" stroke-width="0.5" stroke="black" fill="green"/>
  <circle cx="504.887" cy="497.842" r="4.97981" stroke-width="0.5" stroke="black" fill="green"/>
   </g>
   <g id="cell48">
  <circle cx="570.548" cy="604.09" r="7.77776" stroke-width="0.5" stroke="black" fill="green"/>
  <circle cx="570.548" cy="604.09" r="4.73959" stroke-width="0.5" stroke="black" fill="green"/>
   </g>
   <g id="cell49">
  <circle cx="430.532" cy="397.436" r="8.41271" stroke-width="0.5" stroke="black" fill="green"/>
  <circle cx="430.532" cy="397.436" r="5.05167" stroke-width="0.5" stroke="black" fill="green"/>
   </g>
   <g id="cell50">
  <circle cx="511.132" cy="511.494" r="7.52673" stroke-width="0.5" stroke="black" fill="cyan"/>
  <circle cx="511.132" cy="511.494" r="4.58303" stroke-width="0.5" stroke="black" fill="cyan"/>
   </g>
   <g id="cell51">
  <circle cx="398.721" cy="597.201" r="8.41271" stroke-width="0.5" stroke="black" fill="cyan"/>
  <circle cx="398.721" cy="597.201" r="5.05167" stroke-width="0.5" stroke="black" fill="cyan"/>
   </g>
   <g id="cell52">
  <circle cx="518.333" cy="423.57" r="8.41271" stroke-width="0.5" stroke="black" fill="cyan"/>
  <circle cx="518.333" cy="423.57" r="5.05167" stroke-width="0.5" stroke="black" fill="cyan"/>
   </g>
   <g id="cell53">
  <circle cx="573.224" cy="429.858" r="8.18833" stroke-width="0.5" stroke="black" fill="cyan"/>
  <circle cx="573.224" cy="429.858" r="4.94921" stroke-width="0.5" stroke="black" fill="cyan"/>
   </g>
   <g id="cell54">
  <circle cx="481.615" cy="422.46" r="8.27885" stroke-width="0.5" stroke="black" fill="cyan"/>
  <circle cx="481.615" cy="422.46" r="4.99429" stroke-width="0.5" stroke="black" fill="cyan"/>
   </g>
   <g id="cell55">
  <circle cx="523.416" cy="464.265" r="8.19942" stroke-width="0.5" stroke="black" fill="cyan"/>
  <circle cx="523.416" cy="464.265" r="4.95749" stroke-width="0.5" stroke="black" fill="cyan"/>
   </g>
   <g id="cell56">
  <circle cx="617.613" cy="522.333" r="8.41271" stroke-width="0.5" stroke="black" fill="cyan"/>
  <circle cx="617.613" cy="522.333" r="5.05167" stroke-width="0.5" stroke="black" fill="cyan"/>
   </g>
   <g id="cell105">
  <circle cx="506.621" cy="610.244" r="7.2165" stroke-width="0.5" stroke="black" fill="green"/>
  <circle cx="506.621" cy="610.244" r="4.40916" stroke-width="0.5" stroke="black" fill="green"/>
   </g>
   <g id="cell58">
  <circle cx="560.293" cy="480.13" r="8.41271" stroke-width="0.5" stroke="black" fill="cyan"/>
  <circle cx="560.293" cy="480.13" r="5.05167" stroke-width="0.5" stroke="black" fill="cyan"/>
   </g>
   <g id="cell59">
  <circle cx="385.463" cy="439.803" r="8.41271" stroke-width="0.5" stroke="black" fill="cyan"/>
  <circle cx="385.463" cy="439.803" r="5.05167" stroke-width="0.5" stroke="black" fill="cyan"/>
   </g>
   <g id="cell60">
  <circle cx="591.745" cy="473.877" r="8.41271" stroke-width="0.5" stroke="black" fill="cyan"/>
  <circle cx="591.745" cy="473.877" r="5.05167" stroke-width="0.5" stroke="black" fill="cyan"/>
   </g>
   <g id="cell61">
  <circle cx="555.626" cy="622.635" r="8.41271" stroke-width="0.5" stroke="black" fill="cyan"/>
  <circle cx="555.626" cy="622.635" r="5.05167" stroke-width="0.5" stroke="black" fill="cyan"/>
   </g>
   <g id="cell62">
  <circle cx="514.993" cy="440.227" r="7.09903" stroke-width="0.5" stroke="black" fill="cyan"/>
  <circle cx="514.993" cy="440.227" r="4.31244" stroke-width="0.5" stroke="black" fill="cyan"/>
   </g>
   <g id="cell63">
  <circle cx="573.122" cy="542.039" r="8.33257" stroke-width="0.5" stroke="black" fill="cyan"/>
  <circle cx="573.122" cy="542.039" r="5.01941" stroke-width="0.5" stroke="black" fill="cyan"/>
   </g>
   <g id="cell64">
  <circle cx="509.855" cy="637.525" r="8.41271" stroke-width="0.5" stroke="black" fill="cyan"/>
  <circle cx="509.855" cy="637.525" r="5.05167" stroke-width="0.5" stroke="black" fill="cyan"/>
   </g>
   <g id="cell65">
  <circle cx="547.761" cy="469.75" r="8.32291" stroke-width="0.5" stroke="black" fill="cyan"/>
  <circle cx="547.761" cy="469.75" r="5.01502" stroke-width="0.5" stroke="black" fill="cyan"/>
   </g>
   <g id="cell66">
  <circle cx="530.532" cy="533.259" r="8.27097" stroke-width="0.5" stroke="black" fill="cyan"/>
  <circle cx="530.532" cy="533.259" r="4.99048" stroke-width="0.5" stroke="black" fill="cyan"/>
   </g>
   <g id="cell67">
  <circle cx="354.711" cy="492.599" r="8.41271" stroke-width="0.5" stroke="black" fill="cyan"/>
  <circle cx="354.711" cy="492.599" r="5.05167" stroke-width="0.5" stroke="black" fill="cyan"/>
   </g>
   <g id="cell68">
  <circle cx="563.208" cy="554.53" r="8.41271" stroke-width="0.5" stroke="black" fill="cyan"/>
  <circle cx="563.208" cy="554.53" r="5.05167" stroke-width="0.5" stroke="black" fill="cyan"/>
   </g>
   <g id="cell69">
  <circle cx="442.169" cy="460.437" r="8.41271" stroke-width="0.5" stroke="black" fill="cyan"/>
  <circle cx="442.169" cy="460.437" r="5.05167" stroke-width="0.5" stroke="black" fill="cyan"/>
   </g>
   <g id="cell70">
  <circle cx="575.946" cy="476.661" r="8.41271" stroke-width="0.5" stroke="black" fill="cyan"/>
  <circle cx="575.946" cy="476.661" r="5.05167" stroke-width="0.5" stroke="black" fill="cyan"/>
   </g>
   <g id="cell71">
  <circle cx="379.799" cy="527.75" r="7.87851" stroke-width="0.5" stroke="black" fill="cyan"/>
  <circle cx="379.799" cy="527.75" r="4.78096" stroke-width="0.5" stroke="black" fill="cyan"/>
   </g>
   <g id="cell72">
  <circle cx="531.937" cy="511.33" r="8.28262" stroke-width="0.5" stroke="black" fill="cyan"/>
  <circle cx="531.937" cy="511.33" r="4.9961" stroke-width="0.5" stroke="black" fill="cyan"/>
   </g>
   <g id="cell73">
  <circle cx="364.669" cy="552.64" r="8.34117" stroke-width="0.5" stroke="black" fill="cyan"/>
  <circle cx="364.669" cy="552.64" r="5.02327" stroke-width="0.5" stroke="black" fill="cyan"/>
   </g>
   <g id="cell74">
  <circle cx="547.765" cy="438.261" r="7.79564" stroke-width="0.5" stroke="black" fill="cyan"/>
  <circle cx="547.765" cy="438.261" r="4.73359" stroke-width="0.5" stroke="black" fill="cyan"/>
   </g>
   <g id="cell75">
  <circle cx="529.101" cy="435.625" r="8.38532" stroke-width="0.5" stroke="black" fill="cyan"/>
  <circle cx="529.101" cy="435.625" r="5.04199" stroke-width="0.5" stroke="black" fill="cyan"/>
   </g>
   <g id="cell76">
  <circle cx="441.355" cy="382.277" r="7.97423" stroke-width="0.5" stroke="black" fill="green"/>
  <circle cx="441.355" cy="382.277" r="4.84589" stroke-width="0.5" stroke="black" fill="green"/>
   </g>
   <g id="cell77">
  <circle cx="477.575" cy="437.046" r="8.07937" stroke-width="0.5" stroke="black" fill="magenta"/>
  <circle cx="477.575" cy="437.046" r="4.89474" stroke-width="0.5" stroke="black" fill="magenta"/>
   </g>
   <g id="cell78">
  <circle cx="624.357" cy="460.896" r="8.30638" stroke-width="0.5" stroke="black" fill="green"/>
  <circle cx="624.357" cy="460.896" r="5.00904" stroke-width="0.5" stroke="black" fill="green"/>
   </g>
   <g id="cell79">
  <circle cx="517.701" cy="478.972" r="8.37641" stroke-width="0.5" stroke="black" fill="cyan"/>
  <circle cx="517.701" cy="478.972" r="5.0384" stroke-width="0.5" stroke="black" fill="cyan"/>
   </g>
   <g id="cell80">
  <circle cx="543.749" cy="614.25" r="7.07711" stroke-width="0.5" stroke="black" fill="green"/>
  <circle cx="543.749" cy="614.25" r="4.30372" stroke-width="0.5" stroke="black" fill="green"/>
   </g>
   <g id="cell81">
  <circle cx="544.551" cy="596.036" r="8.35387" stroke-width="0.5" stroke="black" fill="green"/>
  <circle cx="544.551" cy="596.036" r="5.02996" stroke-width="0.5" stroke="black" fill="green"/>
   </g>
   <g id="cell82">
  <circle cx="533.304" cy="559.545" r="8.36722" stroke-width="0.5" stroke="black" fill="magenta"/>
  <circle cx="533.304" cy="559.545" r="5.03458" stroke-width="0.5" stroke="black" fill="magenta"/>
   </g>
   <g id="cell83">
  <circle cx="634.501" cy="556.537" r="8.36722" stroke-width="0.5" stroke="black" fill="green"/>
  <circle cx="634.501" cy="556.537" r="5.03458" stroke-width="0.5" stroke="black" fill="green"/>
   </g>
   <g id="cell84">
  <circle cx="520.41" cy="500.1" r="8.34511" stroke-width="0.5" stroke="black" fill="cyan"/>
  <circle cx="520.41" cy="500.1" r="5.02502" stroke-width="0.5" stroke="black" fill="cyan"/>
   </g>
   <g id="cell85">
  <circle cx="352.68" cy="542.436" r="8.20729" stroke-width="0.5" stroke="black" fill="cyan"/>
  <circle cx="352.68" cy="542.436" r="4.96267" stroke-width="0.5" stroke="black" fill="cyan"/>
   </g>
   <g id="cell86">
  <circle cx="497.626" cy="530.881" r="6.93746" stroke-width="0.5" stroke="black" fill="magenta"/>
  <circle cx="497.626" cy="530.881" r="4.21319" stroke-width="0.5" stroke="black" fill="magenta"/>
   </g>
   <g id="cell87">
  <circle cx="578.487" cy="556.834" r="8.11851" stroke-width="0.5" stroke="black" fill="cyan"/>
  <circle cx="578.487" cy="556.834" r="4.91788" stroke-width="0.5" stroke="black" fill="cyan"/>
   </g>
   <g id="cell88">
  <circle cx="448.392" cy="531.474" r="8.32543" stroke-width="0.5" stroke="black" fill="magenta"/>
  <circle cx="448.392" cy="531.474" r="5.01617" stroke-width="0.5" stroke="black" fill="magenta"/>
   </g>
   <g id="cell89">
  <circle cx="553.365" cy="454.804" r="8.32291" stroke-width="0.5" stroke="black" fill="cyan"/>
  <circle cx="553.365" cy="454.804" r="5.01502" stroke-width="0.5" stroke="black" fill="cyan"/>
   </g>
   <g id="cell90">
  <circle cx="631.091" cy="475.199" r="8.30638" stroke-width="0.5" stroke="black" fill="green"/>
  <circle cx="631.091" cy="475.199" r="5.00904" stroke-width="0.5" stroke="black" fill="green"/>
   </g>
   <g id="cell91">
  <circle cx="548.124" cy="556.955" r="8.23488" stroke-width="0.5" stroke="black" fill="magenta"/>
  <circle cx="548.124" cy="556.955" r="4.97769" stroke-width="0.5" stroke="black" fill="magenta"/>
   </g>
   <g id="cell92">
  <circle cx="482.523" cy="550.061" r="8.29993" stroke-width="0.5" stroke="black" fill="green"/>
  <circle cx="482.523" cy="550.061" r="5.00433" stroke-width="0.5" stroke="black" fill="green"/>
   </g>
   <g id="cell93">
  <circle cx="538.791" cy="545.74" r="8.23488" stroke-width="0.5" stroke="black" fill="magenta"/>
  <circle cx="538.791" cy="545.74" r="4.97769" stroke-width="0.5" stroke="black" fill="magenta"/>
   </g>
   <g id="cell94">
  <circle cx="535.258" cy="496.011" r="8.28262" stroke-width="0.5" stroke="black" fill="cyan"/>
  <circle cx="535.258" cy="496.011" r="4.9961" stroke-width="0.5" stroke="black" fill="cyan"/>
   </g>
   <g id="cell95">
  <circle cx="466.569" cy="426.037" r="8.27885" stroke-width="0.5" stroke="black" fill="cyan"/>
  <circle cx="466.569" cy="426.037" r="4.99429" stroke-width="0.5" stroke="black" fill="cyan"/>
   </g>
   <g id="cell96">
  <circle cx="542.632" cy="523.035" r="8.27097" stroke-width="0.5" stroke="black" fill="cyan"/>
  <circle cx="542.632" cy="523.035" r="4.99048" stroke-width="0.5" stroke="black" fill="cyan"/>
   </g>
   <g id="cell97">
  <circle cx="421.699" cy="466.227" r="8.13817" stroke-width="0.5" stroke="black" fill="green"/>
  <circle cx="421.699" cy="466.227" r="4.92942" stroke-width="0.5" stroke="black" fill="green"/>
   </g>
   <g id="cell98">
  <circle cx="490.712" cy="520.348" r="6.6841" stroke-width="0.5" stroke="black" fill="green"/>
  <circle cx="490.712" cy="520.348" r="4.05197" stroke-width="0.5" stroke="black" fill="green"/>
   </g>
   <g id="cell99">
  <circle cx="358.251" cy="527.848" r="8.20729" stroke-width="0.5" stroke="black" fill="cyan"/>
  <circle cx="358.251" cy="527.848" r="4.96267" stroke-width="0.5" stroke="black" fill="cyan"/>
   </g>
   <g id="cell100">
  <circle cx="449.508" cy="395.173" r="8.20366" stroke-width="0.5" stroke="black" fill="green"/>
  <circle cx="449.508" cy="395.173" r="4.9592" stroke-width="0.5" stroke="black" fill="green"/>
   </g>
   <g id="cell101">
  <circle cx="533.231" cy="476.251" r="8.19942" stroke-width="0.5" stroke="black" fill="cyan"/>
  <circle cx="533.231" cy="476.251" r="4.95749" stroke-width="0.5" stroke="black" fill="cyan"/>
   </g>
   <g id="cell102">
  <circle cx="434.868" cy="474.386" r="8.13817" stroke-width="0.5" stroke="black" fill="green"/>
  <circle cx="434.868" cy="474.386" r="4.92942" stroke-width="0.5" stroke="black" fill="green"/>
   </g>
   <g id="cell103">
  <circle cx="588.767" cy="447.171" r="6.86218" stroke-width="0.5" stroke="black" fill="cyan"/>
  <circle cx="588.767" cy="447.171" r="4.18214" stroke-width="0.5" stroke="black" fill="cyan"/>
   </g>
   <g id="cell104">
  <circle cx="593.359" cy="553.235" r="8.11851" stroke-width="0.5" stroke="black" fill="cyan"/>
  <circle cx="593.359" cy="553.235" r="4.91788" stroke-width="0.5" stroke="black" fill="cyan"/>
   </g>
   <g id="cell106">
  <circle cx="463.008" cy="440.544" r="8.07937" stroke-width="0.5" stroke="black" fill="magenta"/>
  <circle cx="463.008" cy="440.544" r="4.89474" stroke-width="0.5" stroke="black" fill="magenta"/>
   </g>
   <g id="cell107">
  <circle cx="456.168" cy="380.815" r="6.71038" stroke-width="0.5" stroke="black" fill="green"/>
  <circle cx="456.168" cy="380.815" r="4.10805" stroke-width="0.5" stroke="black" fill="green"/>
   </g>
   <g id="cell108">
  <circle cx="555.883" cy="606.834" r="8.02418" stroke-width="0.5" stroke="black" fill="green"/>
  <circle cx="555.883" cy="606.834" r="4.86209" stroke-width="0.5" stroke="black" fill="green"/>
   </g>
   <g id="cell109">
  <circle cx="576.65" cy="590.693" r="7.77776" stroke-width="0.5" stroke="black" fill="green"/>
  <circle cx="576.65" cy="590.693" r="4.73959" stroke-width="0.5" stroke="black" fill="green"/>
   </g>
   <g id="cell110">
  <circle cx="373.908" cy="514.015" r="7.87851" stroke-width="0.5" stroke="black" fill="cyan"/>
  <circle cx="373.908" cy="514.015" r="4.78096" stroke-width="0.5" stroke="black" fill="cyan"/>
   </g>
   <g id="cell111">
  <circle cx="453.298" cy="552.157" r="7.79679" stroke-width="0.5" stroke="black" fill="magenta"/>
  <circle cx="453.298" cy="552.157" r="4.74221" stroke-width="0.5" stroke="black" fill="magenta"/>
   </g>
   <g id="cell112">
  <circle cx="508.786" cy="466.806" r="7.81315" stroke-width="0.5" stroke="black" fill="magenta"/>
  <circle cx="508.786" cy="466.806" r="4.74367" stroke-width="0.5" stroke="black" fill="magenta"/>
   </g>
   <g id="cell113">
  <circle cx="543.136" cy="405.488" r="7.79564" stroke-width="0.5" stroke="black" fill="green"/>
  <circle cx="543.136" cy="405.488" r="4.73359" stroke-width="0.5" stroke="black" fill="green"/>
   </g>
   <g id="cell114">
  <circle cx="524.632" cy="449.759" r="7.31949" stroke-width="0.5" stroke="black" fill="cyan"/>
  <circle cx="524.632" cy="449.759" r="4.48032" stroke-width="0.5" stroke="black" fill="cyan"/>
   </g>
   <g id="cell115">
  <circle cx="538.01" cy="448.26" r="7.31949" stroke-width="0.5" stroke="black" fill="cyan"/>
  <circle cx="538.01" cy="448.26" r="4.48032" stroke-width="0.5" stroke="black" fill="cyan"/>
   </g>
   <g id="cell116">
  <circle cx="521.157" cy="521.823" r="7.52673" stroke-width="0.5" stroke="black" fill="cyan"/>
  <circle cx="521.157" cy="521.823" r="4.58303" stroke-width="0.5" stroke="black" fill="cyan"/>
   </g>
   <g id="cell117">
  <circle cx="511.531" cy="622.953" r="7.2165" stroke-width="0.5" stroke="black" fill="green"/>
  <circle cx="511.531" cy="622.953" r="4.40916" stroke-width="0.5" stroke="black" fill="green"/>
   </g>
   <g id="cell118">
  <circle cx="511.853" cy="453.489" r="7.09903" stroke-width="0.5" stroke="black" fill="cyan"/>
  <circle cx="511.853" cy="453.489" r="4.31244" stroke-width="0.5" stroke="black" fill="cyan"/>
   </g>
   <g id="cell119">
  <circle cx="533.703" cy="605.716" r="7.07711" stroke-width="0.5" stroke="black" fill="green"/>
  <circle cx="533.703" cy="605.716" r="4.30372" stroke-width="0.5" stroke="black" fill="green"/>
   </g>
   <g id="cell120">
  <circle cx="576.431" cy="443.747" r="6.86218" stroke-width="0.5" stroke="black" fill="cyan"/>
  <circle cx="576.431" cy="443.747" r="4.18214" stroke-width="0.5" stroke="black" fill="cyan"/>
   </g>
   <g id="cell121">
  <circle cx="448.795" cy="370.535" r="6.71038" stroke-width="0.5" stroke="black" fill="green"/>
  <circle cx="448.795" cy="370.535" r="4.10805" stroke-width="0.5" stroke="black" fill="green"/>
   </g>
   <g id="cell122">
  <circle cx="508.022" cy="524.2" r="6.93746" stroke-width="0.5" stroke="black" fill="magenta"/>
  <circle cx="508.022" cy="524.2" r="4.21319" stroke-width="0.5" stroke="black" fill="magenta"/>
   </g>
   <g id="cell123">
  <circle cx="497.746" cy="509.923" r="6.6841" stroke-width="0.5" stroke="black" fill="green"/>
  <circle cx="497.746" cy="509.923" r="4.05197" stroke-width="0.5" stroke="black" fill="green"/>
   </g>
   <g id="cell124">
  <circle cx="491.298" cy="432.179" r="6.78606" stroke-width="0.5" stroke="black" fill="magenta"/>
  <circle cx="491.298" cy="432.179" r="4.09884" stroke-width="0.5" stroke="black" fill="magenta"/>
   </g>
  </g>
 </g>
  <rect x="775" y="1035" width="200" height="10" stroke-width="2" stroke="rgb(255,255,255)" fill="rgb(0,0,0)"/>
  <text x="781.25" y="1028.75"
   font-family="Arial" font-size="25" fill="black" >
   200 &#956;m
  </text>
  <text x="25" y="1045"
   font-family="Arial" font-size="18.75" fill="black" >
   0 days, 0 hours, 0 minutes, and 19.0257 seconds
  </text>
  <rect x="0" y="70" width="1000" height="1000" stroke-width="2" stroke="rgb(0,0,0)" fill="none"/>
</svg>
