<?xml version="1.0" encoding="UTF-8" standalone="no"?>
<!-- Created with PhysiCell (http://PhysiCell.MathCancer.org/) -->
<svg 
 xmlns:dc="http://purl.org/dc/elements/1.1/" 
 xmlns:cc="http://creativecommons.org/ns#" 
 xmlns:rdf="http://www.w3.org/1999/02/22-rdf-syntax-ns#" 
 xmlns:svg="http://www.w3.org/2000/svg" 
 xmlns="http://www.w3.org/2000/svg" 
 version="1.1" 
 width="1000" 
 height="1070" 
 id="svg2">
  <rect x="0" y="0" width="1000" height="1070" stroke-width="2" stroke="white" fill="white"/>
  <text x="12.5" y="30"
   font-family="Arial" font-size="25" fill="black" >
   Current time: 1 days, 15 hours, and 18.00 minutes, z = 0.00 &#956;m
  </text>
  <text x="12.5" y="57.5"
   font-family="Arial" font-size="23.75" fill="black" >
   204 agents
  </text>
 <g id="tissue" 
    transform="translate(0,1070) scale(1,-1)">
  <g id="ECM">
  </g>
  <g id="cells">
   <g id="cell0">
  <circle cx="509.994" cy="543.302" r="8.41259" stroke-width="0.5" stroke="black" fill="magenta"/>
  <circle cx="509.994" cy="543.302" r="5.05164" stroke-width="0.5" stroke="black" fill="magenta"/>
   </g>
   <g id="cell1">
  <circle cx="593.368" cy="525.987" r="8.34317" stroke-width="0.5" stroke="black" fill="magenta"/>
  <circle cx="593.368" cy="525.987" r="5.02416" stroke-width="0.5" stroke="black" fill="magenta"/>
   </g>
   <g id="cell2">
  <circle cx="513.741" cy="597.082" r="8.41271" stroke-width="0.5" stroke="black" fill="magenta"/>
  <circle cx="513.741" cy="597.082" r="5.05167" stroke-width="0.5" stroke="black" fill="magenta"/>
   </g>
   <g id="cell3">
  <circle cx="524.913" cy="546.727" r="8.41251" stroke-width="0.5" stroke="black" fill="magenta"/>
  <circle cx="524.913" cy="546.727" r="5.05163" stroke-width="0.5" stroke="black" fill="magenta"/>
   </g>
   <g id="cell4">
  <circle cx="484.041" cy="443.729" r="8.40999" stroke-width="0.5" stroke="black" fill="magenta"/>
  <circle cx="484.041" cy="443.729" r="5.05093" stroke-width="0.5" stroke="black" fill="magenta"/>
   </g>
   <g id="cell5">
  <circle cx="469.128" cy="490.561" r="8.41271" stroke-width="0.5" stroke="black" fill="magenta"/>
  <circle cx="469.128" cy="490.561" r="5.05167" stroke-width="0.5" stroke="black" fill="magenta"/>
   </g>
   <g id="cell163">
  <circle cx="532.426" cy="572.5" r="6.63556" stroke-width="0.5" stroke="black" fill="green"/>
  <circle cx="532.426" cy="572.5" r="3.99362" stroke-width="0.5" stroke="black" fill="green"/>
   </g>
   <g id="cell7">
  <circle cx="495.3" cy="454.624" r="8.33433" stroke-width="0.5" stroke="black" fill="magenta"/>
  <circle cx="495.3" cy="454.624" r="5.02031" stroke-width="0.5" stroke="black" fill="magenta"/>
   </g>
   <g id="cell8">
  <circle cx="379.834" cy="552.913" r="8.36032" stroke-width="0.5" stroke="black" fill="magenta"/>
  <circle cx="379.834" cy="552.913" r="5.03165" stroke-width="0.5" stroke="black" fill="magenta"/>
   </g>
   <g id="cell161">
  <circle cx="452.236" cy="385.984" r="8.34204" stroke-width="0.5" stroke="black" fill="green"/>
  <circle cx="452.236" cy="385.984" r="5.0251" stroke-width="0.5" stroke="black" fill="green"/>
   </g>
   <g id="cell10">
  <circle cx="585.239" cy="388.12" r="8.39083" stroke-width="0.5" stroke="black" fill="magenta"/>
  <circle cx="585.239" cy="388.12" r="5.04414" stroke-width="0.5" stroke="black" fill="magenta"/>
   </g>
   <g id="cell11">
  <circle cx="591.848" cy="590.58" r="8.41271" stroke-width="0.5" stroke="black" fill="magenta"/>
  <circle cx="591.848" cy="590.58" r="5.05167" stroke-width="0.5" stroke="black" fill="magenta"/>
   </g>
   <g id="cell12">
  <circle cx="499.174" cy="593.663" r="8.40516" stroke-width="0.5" stroke="black" fill="magenta"/>
  <circle cx="499.174" cy="593.663" r="5.04937" stroke-width="0.5" stroke="black" fill="magenta"/>
   </g>
   <g id="cell13">
  <circle cx="383.944" cy="567.628" r="8.41271" stroke-width="0.5" stroke="black" fill="magenta"/>
  <circle cx="383.944" cy="567.628" r="5.05167" stroke-width="0.5" stroke="black" fill="magenta"/>
   </g>
   <g id="cell14">
  <circle cx="517.675" cy="402.874" r="8.41271" stroke-width="0.5" stroke="black" fill="magenta"/>
  <circle cx="517.675" cy="402.874" r="5.05167" stroke-width="0.5" stroke="black" fill="magenta"/>
   </g>
   <g id="cell15">
  <circle cx="381.865" cy="479.123" r="8.4085" stroke-width="0.5" stroke="black" fill="magenta"/>
  <circle cx="381.865" cy="479.123" r="5.05047" stroke-width="0.5" stroke="black" fill="magenta"/>
   </g>
   <g id="cell16">
  <circle cx="452.586" cy="417.137" r="7.79928" stroke-width="0.5" stroke="black" fill="magenta"/>
  <circle cx="452.586" cy="417.137" r="4.73894" stroke-width="0.5" stroke="black" fill="magenta"/>
   </g>
   <g id="cell17">
  <circle cx="583.06" cy="498.081" r="8.2239" stroke-width="0.5" stroke="black" fill="magenta"/>
  <circle cx="583.06" cy="498.081" r="4.96725" stroke-width="0.5" stroke="black" fill="magenta"/>
   </g>
   <g id="cell18">
  <circle cx="519.199" cy="387.543" r="8.41271" stroke-width="0.5" stroke="black" fill="magenta"/>
  <circle cx="519.199" cy="387.543" r="5.05167" stroke-width="0.5" stroke="black" fill="magenta"/>
   </g>
   <g id="cell19">
  <circle cx="457.337" cy="541.607" r="8.41175" stroke-width="0.5" stroke="black" fill="magenta"/>
  <circle cx="457.337" cy="541.607" r="5.05144" stroke-width="0.5" stroke="black" fill="magenta"/>
   </g>
   <g id="cell20">
  <circle cx="530.252" cy="411.945" r="8.41271" stroke-width="0.5" stroke="black" fill="magenta"/>
  <circle cx="530.252" cy="411.945" r="5.05167" stroke-width="0.5" stroke="black" fill="magenta"/>
   </g>
   <g id="cell21">
  <circle cx="467.65" cy="637.055" r="7.3599" stroke-width="0.5" stroke="black" fill="magenta"/>
  <circle cx="467.65" cy="637.055" r="4.47294" stroke-width="0.5" stroke="black" fill="magenta"/>
   </g>
   <g id="cell22">
  <circle cx="559.322" cy="491.372" r="7.5977" stroke-width="0.5" stroke="black" fill="magenta"/>
  <circle cx="559.322" cy="491.372" r="4.63018" stroke-width="0.5" stroke="black" fill="magenta"/>
   </g>
   <g id="cell23">
  <circle cx="553.975" cy="477.718" r="8.41271" stroke-width="0.5" stroke="black" fill="magenta"/>
  <circle cx="553.975" cy="477.718" r="5.05167" stroke-width="0.5" stroke="black" fill="magenta"/>
   </g>
   <g id="cell24">
  <circle cx="568.161" cy="384.296" r="8.41271" stroke-width="0.5" stroke="black" fill="magenta"/>
  <circle cx="568.161" cy="384.296" r="5.05167" stroke-width="0.5" stroke="black" fill="magenta"/>
   </g>
   <g id="cell25">
  <circle cx="643.858" cy="545.991" r="7.18091" stroke-width="0.5" stroke="black" fill="green"/>
  <circle cx="643.858" cy="545.991" r="4.36014" stroke-width="0.5" stroke="black" fill="green"/>
   </g>
   <g id="cell26">
  <circle cx="558.689" cy="397.591" r="8.41175" stroke-width="0.5" stroke="black" fill="green"/>
  <circle cx="558.689" cy="397.591" r="5.05143" stroke-width="0.5" stroke="black" fill="green"/>
   </g>
   <g id="cell27">
  <circle cx="462.456" cy="405.939" r="8.41266" stroke-width="0.5" stroke="black" fill="green"/>
  <circle cx="462.456" cy="405.939" r="5.05166" stroke-width="0.5" stroke="black" fill="green"/>
   </g>
   <g id="cell28">
  <circle cx="429.606" cy="542.718" r="8.38532" stroke-width="0.5" stroke="black" fill="green"/>
  <circle cx="429.606" cy="542.718" r="5.04199" stroke-width="0.5" stroke="black" fill="green"/>
   </g>
   <g id="cell29">
  <circle cx="451.44" cy="518.719" r="1.29992" stroke-width="0.5" stroke="black" fill="green"/>
  <circle cx="451.44" cy="518.719" r="1.2895" stroke-width="0.5" stroke="black" fill="black"/>
   </g>
   <g id="cell30">
  <circle cx="480.249" cy="536.273" r="8.40393" stroke-width="0.5" stroke="black" fill="green"/>
  <circle cx="480.249" cy="536.273" r="5.04896" stroke-width="0.5" stroke="black" fill="green"/>
   </g>
   <g id="cell31">
  <circle cx="413.718" cy="543.512" r="8.41271" stroke-width="0.5" stroke="black" fill="green"/>
  <circle cx="413.718" cy="543.512" r="5.05167" stroke-width="0.5" stroke="black" fill="green"/>
   </g>
   <g id="cell169">
  <circle cx="519.484" cy="502.199" r="8.3228" stroke-width="0.5" stroke="black" fill="cyan"/>
  <circle cx="519.484" cy="502.199" r="5.015" stroke-width="0.5" stroke="black" fill="cyan"/>
   </g>
   <g id="cell33">
  <circle cx="499.992" cy="419.577" r="8.40244" stroke-width="0.5" stroke="black" fill="green"/>
  <circle cx="499.992" cy="419.577" r="5.04843" stroke-width="0.5" stroke="black" fill="green"/>
   </g>
   <g id="cell168">
  <circle cx="381.861" cy="517.975" r="6.92851" stroke-width="0.5" stroke="black" fill="cyan"/>
  <circle cx="381.861" cy="517.975" r="4.24614" stroke-width="0.5" stroke="black" fill="black"/>
   </g>
   <g id="cell35">
  <circle cx="558.617" cy="555.692" r="8.41271" stroke-width="0.5" stroke="black" fill="green"/>
  <circle cx="558.617" cy="555.692" r="5.05167" stroke-width="0.5" stroke="black" fill="green"/>
   </g>
   <g id="cell36">
  <circle cx="388.617" cy="582.653" r="8.36043" stroke-width="0.5" stroke="black" fill="green"/>
  <circle cx="388.617" cy="582.653" r="5.03299" stroke-width="0.5" stroke="black" fill="green"/>
   </g>
   <g id="cell37">
  <circle cx="642.3" cy="456.043" r="8.41265" stroke-width="0.5" stroke="black" fill="green"/>
  <circle cx="642.3" cy="456.043" r="5.05166" stroke-width="0.5" stroke="black" fill="green"/>
   </g>
   <g id="cell38">
  <circle cx="524.609" cy="586.175" r="8.36029" stroke-width="0.5" stroke="black" fill="green"/>
  <circle cx="524.609" cy="586.175" r="5.03164" stroke-width="0.5" stroke="black" fill="green"/>
   </g>
   <g id="cell39">
  <circle cx="611.638" cy="490.408" r="8.23444" stroke-width="0.5" stroke="black" fill="green"/>
  <circle cx="611.638" cy="490.408" r="4.97252" stroke-width="0.5" stroke="black" fill="green"/>
   </g>
   <g id="cell40">
  <circle cx="486.227" cy="567.123" r="8.38028" stroke-width="0.5" stroke="black" fill="green"/>
  <circle cx="486.227" cy="567.123" r="5.03997" stroke-width="0.5" stroke="black" fill="green"/>
   </g>
   <g id="cell41">
  <circle cx="366.56" cy="482.122" r="8.41271" stroke-width="0.5" stroke="black" fill="green"/>
  <circle cx="366.56" cy="482.122" r="5.05167" stroke-width="0.5" stroke="black" fill="green"/>
   </g>
   <g id="cell42">
  <circle cx="438.068" cy="490.553" r="8.41271" stroke-width="0.5" stroke="black" fill="green"/>
  <circle cx="438.068" cy="490.553" r="5.05167" stroke-width="0.5" stroke="black" fill="green"/>
   </g>
   <g id="cell43">
  <circle cx="564.529" cy="438.653" r="8.41271" stroke-width="0.5" stroke="black" fill="green"/>
  <circle cx="564.529" cy="438.653" r="5.05167" stroke-width="0.5" stroke="black" fill="green"/>
   </g>
   <g id="cell164">
  <circle cx="399.108" cy="570.768" r="8.33996" stroke-width="0.5" stroke="black" fill="green"/>
  <circle cx="399.108" cy="570.768" r="5.02387" stroke-width="0.5" stroke="black" fill="green"/>
   </g>
   <g id="cell145">
  <circle cx="411.282" cy="420.892" r="7.77742" stroke-width="0.5" stroke="black" fill="magenta"/>
  <circle cx="411.282" cy="420.892" r="4.73771" stroke-width="0.5" stroke="black" fill="magenta"/>
   </g>
   <g id="cell46">
  <circle cx="515.744" cy="619.485" r="8.41228" stroke-width="0.5" stroke="black" fill="green"/>
  <circle cx="515.744" cy="619.485" r="5.05157" stroke-width="0.5" stroke="black" fill="green"/>
   </g>
   <g id="cell47">
  <circle cx="484.672" cy="491.161" r="8.41244" stroke-width="0.5" stroke="black" fill="green"/>
  <circle cx="484.672" cy="491.161" r="5.05161" stroke-width="0.5" stroke="black" fill="green"/>
   </g>
   <g id="cell48">
  <circle cx="577.728" cy="604.59" r="8.41173" stroke-width="0.5" stroke="black" fill="green"/>
  <circle cx="577.728" cy="604.59" r="5.05144" stroke-width="0.5" stroke="black" fill="green"/>
   </g>
   <g id="cell49">
  <circle cx="437.264" cy="391.086" r="8.32543" stroke-width="0.5" stroke="black" fill="green"/>
  <circle cx="437.264" cy="391.086" r="5.01617" stroke-width="0.5" stroke="black" fill="green"/>
   </g>
   <g id="cell50">
  <circle cx="501.359" cy="512.8" r="8.41134" stroke-width="0.5" stroke="black" fill="cyan"/>
  <circle cx="501.359" cy="512.8" r="5.05133" stroke-width="0.5" stroke="black" fill="cyan"/>
   </g>
   <g id="cell51">
  <circle cx="400.91" cy="592.628" r="7.70049" stroke-width="0.5" stroke="black" fill="cyan"/>
  <circle cx="400.91" cy="592.628" r="4.67828" stroke-width="0.5" stroke="black" fill="cyan"/>
   </g>
   <g id="cell52">
  <circle cx="515.941" cy="417.677" r="7.65539" stroke-width="0.5" stroke="black" fill="cyan"/>
  <circle cx="515.941" cy="417.677" r="4.62266" stroke-width="0.5" stroke="black" fill="black"/>
   </g>
   <g id="cell53">
  <circle cx="573.151" cy="425.352" r="8.41234" stroke-width="0.5" stroke="black" fill="cyan"/>
  <circle cx="573.151" cy="425.352" r="5.05159" stroke-width="0.5" stroke="black" fill="cyan"/>
   </g>
   <g id="cell54">
  <circle cx="480.407" cy="416.444" r="8.41249" stroke-width="0.5" stroke="black" fill="cyan"/>
  <circle cx="480.407" cy="416.444" r="5.05162" stroke-width="0.5" stroke="black" fill="cyan"/>
   </g>
   <g id="cell55">
  <circle cx="522.075" cy="458.982" r="8.41236" stroke-width="0.5" stroke="black" fill="cyan"/>
  <circle cx="522.075" cy="458.982" r="5.05159" stroke-width="0.5" stroke="black" fill="cyan"/>
   </g>
   <g id="cell56">
  <circle cx="622.759" cy="522.441" r="8.41271" stroke-width="0.5" stroke="black" fill="cyan"/>
  <circle cx="622.759" cy="522.441" r="5.05167" stroke-width="0.5" stroke="black" fill="cyan"/>
   </g>
   <g id="cell105">
  <circle cx="503.539" cy="608.797" r="8.40154" stroke-width="0.5" stroke="black" fill="green"/>
  <circle cx="503.539" cy="608.797" r="5.0482" stroke-width="0.5" stroke="black" fill="green"/>
   </g>
   <g id="cell58">
  <circle cx="569.275" cy="475.29" r="8.38206" stroke-width="0.5" stroke="black" fill="cyan"/>
  <circle cx="569.275" cy="475.29" r="5.04069" stroke-width="0.5" stroke="black" fill="cyan"/>
   </g>
   <g id="cell59">
  <circle cx="385.732" cy="440.058" r="8.41271" stroke-width="0.5" stroke="black" fill="cyan"/>
  <circle cx="385.732" cy="440.058" r="5.05167" stroke-width="0.5" stroke="black" fill="cyan"/>
   </g>
   <g id="cell60">
  <circle cx="596.548" cy="464.982" r="8.28629" stroke-width="0.5" stroke="black" fill="cyan"/>
  <circle cx="596.548" cy="464.982" r="4.99786" stroke-width="0.5" stroke="black" fill="cyan"/>
   </g>
   <g id="cell186">
  <circle cx="354.924" cy="562.196" r="3.16008" stroke-width="0.5" stroke="black" fill="cyan"/>
  <circle cx="354.924" cy="562.196" r="2.51372" stroke-width="0.5" stroke="black" fill="black"/>
   </g>
   <g id="cell62">
  <circle cx="514.603" cy="433.039" r="8.2699" stroke-width="0.5" stroke="black" fill="cyan"/>
  <circle cx="514.603" cy="433.039" r="4.9902" stroke-width="0.5" stroke="black" fill="cyan"/>
   </g>
   <g id="cell63">
  <circle cx="585.877" cy="539.745" r="8.40807" stroke-width="0.5" stroke="black" fill="cyan"/>
  <circle cx="585.877" cy="539.745" r="5.05034" stroke-width="0.5" stroke="black" fill="cyan"/>
   </g>
   <g id="cell64">
  <circle cx="509.364" cy="638.236" r="8.41271" stroke-width="0.5" stroke="black" fill="cyan"/>
  <circle cx="509.364" cy="638.236" r="5.05167" stroke-width="0.5" stroke="black" fill="cyan"/>
   </g>
   <g id="cell65">
  <circle cx="545.494" cy="464.549" r="8.41256" stroke-width="0.5" stroke="black" fill="cyan"/>
  <circle cx="545.494" cy="464.549" r="5.05164" stroke-width="0.5" stroke="black" fill="cyan"/>
   </g>
   <g id="cell66">
  <circle cx="534.646" cy="535.835" r="8.41248" stroke-width="0.5" stroke="black" fill="cyan"/>
  <circle cx="534.646" cy="535.835" r="5.05162" stroke-width="0.5" stroke="black" fill="cyan"/>
   </g>
   <g id="cell67">
  <circle cx="354.66" cy="492.853" r="8.41271" stroke-width="0.5" stroke="black" fill="cyan"/>
  <circle cx="354.66" cy="492.853" r="5.05167" stroke-width="0.5" stroke="black" fill="cyan"/>
   </g>
   <g id="cell212">
  <circle cx="569.705" cy="499.788" r="6.92182" stroke-width="0.5" stroke="black" fill="magenta"/>
  <circle cx="569.705" cy="499.788" r="4.22531" stroke-width="0.5" stroke="black" fill="magenta"/>
   </g>
   <g id="cell69">
  <circle cx="443.718" cy="460.752" r="8.41271" stroke-width="0.5" stroke="black" fill="cyan"/>
  <circle cx="443.718" cy="460.752" r="5.05167" stroke-width="0.5" stroke="black" fill="cyan"/>
   </g>
   <g id="cell70">
  <circle cx="584.886" cy="481.184" r="8.41271" stroke-width="0.5" stroke="black" fill="cyan"/>
  <circle cx="584.886" cy="481.184" r="5.05167" stroke-width="0.5" stroke="black" fill="cyan"/>
   </g>
   <g id="cell71">
  <circle cx="382.006" cy="533.532" r="1.45392" stroke-width="0.5" stroke="black" fill="cyan"/>
  <circle cx="382.006" cy="533.532" r="1.435" stroke-width="0.5" stroke="black" fill="black"/>
   </g>
   <g id="cell72">
  <circle cx="535.06" cy="502.144" r="8.3228" stroke-width="0.5" stroke="black" fill="cyan"/>
  <circle cx="535.06" cy="502.144" r="5.015" stroke-width="0.5" stroke="black" fill="cyan"/>
   </g>
   <g id="cell73">
  <circle cx="365.392" cy="550.044" r="7.59034" stroke-width="0.5" stroke="black" fill="cyan"/>
  <circle cx="365.392" cy="550.044" r="4.62659" stroke-width="0.5" stroke="black" fill="cyan"/>
   </g>
   <g id="cell162">
  <circle cx="374.539" cy="538.595" r="8.36032" stroke-width="0.5" stroke="black" fill="magenta"/>
  <circle cx="374.539" cy="538.595" r="5.03165" stroke-width="0.5" stroke="black" fill="magenta"/>
   </g>
   <g id="cell75">
  <circle cx="528.264" cy="427.407" r="8.41266" stroke-width="0.5" stroke="black" fill="cyan"/>
  <circle cx="528.264" cy="427.407" r="5.05166" stroke-width="0.5" stroke="black" fill="cyan"/>
   </g>
   <g id="cell76">
  <circle cx="436.08" cy="375.518" r="8.41201" stroke-width="0.5" stroke="black" fill="green"/>
  <circle cx="436.08" cy="375.518" r="5.05151" stroke-width="0.5" stroke="black" fill="green"/>
   </g>
   <g id="cell77">
  <circle cx="469.632" cy="447.191" r="8.41217" stroke-width="0.5" stroke="black" fill="magenta"/>
  <circle cx="469.632" cy="447.191" r="5.05155" stroke-width="0.5" stroke="black" fill="magenta"/>
   </g>
   <g id="cell78">
  <circle cx="626.321" cy="455.543" r="8.41253" stroke-width="0.5" stroke="black" fill="green"/>
  <circle cx="626.321" cy="455.543" r="5.05163" stroke-width="0.5" stroke="black" fill="green"/>
   </g>
   <g id="cell79">
  <circle cx="518.301" cy="474.357" r="8.41265" stroke-width="0.5" stroke="black" fill="cyan"/>
  <circle cx="518.301" cy="474.357" r="5.05166" stroke-width="0.5" stroke="black" fill="cyan"/>
   </g>
   <g id="cell80">
  <circle cx="542.344" cy="631.077" r="7.96248" stroke-width="0.5" stroke="black" fill="green"/>
  <circle cx="542.344" cy="631.077" r="4.82841" stroke-width="0.5" stroke="black" fill="green"/>
   </g>
   <g id="cell81">
  <circle cx="549.075" cy="588.518" r="8.41261" stroke-width="0.5" stroke="black" fill="green"/>
  <circle cx="549.075" cy="588.518" r="5.05165" stroke-width="0.5" stroke="black" fill="green"/>
   </g>
   <g id="cell82">
  <circle cx="530.219" cy="560.119" r="8.40053" stroke-width="0.5" stroke="black" fill="magenta"/>
  <circle cx="530.219" cy="560.119" r="5.04776" stroke-width="0.5" stroke="black" fill="magenta"/>
   </g>
   <g id="cell211">
  <circle cx="450.14" cy="371.583" r="7.11463" stroke-width="0.5" stroke="black" fill="green"/>
  <circle cx="450.14" cy="371.583" r="4.31847" stroke-width="0.5" stroke="black" fill="green"/>
   </g>
   <g id="cell84">
  <circle cx="512.22" cy="488.892" r="8.18827" stroke-width="0.5" stroke="black" fill="cyan"/>
  <circle cx="512.22" cy="488.892" r="4.94919" stroke-width="0.5" stroke="black" fill="cyan"/>
   </g>
   <g id="cell85">
  <circle cx="345.14" cy="541.932" r="8.41237" stroke-width="0.5" stroke="black" fill="cyan"/>
  <circle cx="345.14" cy="541.932" r="5.0516" stroke-width="0.5" stroke="black" fill="cyan"/>
   </g>
   <g id="cell86">
  <circle cx="495.472" cy="539.092" r="8.41037" stroke-width="0.5" stroke="black" fill="magenta"/>
  <circle cx="495.472" cy="539.092" r="5.05104" stroke-width="0.5" stroke="black" fill="magenta"/>
   </g>
   <g id="cell87">
  <circle cx="574.21" cy="558.406" r="8.41223" stroke-width="0.5" stroke="black" fill="cyan"/>
  <circle cx="574.21" cy="558.406" r="5.05156" stroke-width="0.5" stroke="black" fill="cyan"/>
   </g>
   <g id="cell88">
  <circle cx="445.588" cy="535.356" r="6.67101" stroke-width="0.5" stroke="black" fill="magenta"/>
  <circle cx="445.588" cy="535.356" r="4.01961" stroke-width="0.5" stroke="black" fill="magenta"/>
   </g>
   <g id="cell89">
  <circle cx="553.901" cy="450.19" r="8.39723" stroke-width="0.5" stroke="black" fill="cyan"/>
  <circle cx="553.901" cy="450.19" r="5.04677" stroke-width="0.5" stroke="black" fill="cyan"/>
   </g>
   <g id="cell90">
  <circle cx="637.399" cy="471.313" r="8.40935" stroke-width="0.5" stroke="black" fill="green"/>
  <circle cx="637.399" cy="471.313" r="5.05074" stroke-width="0.5" stroke="black" fill="green"/>
   </g>
   <g id="cell91">
  <circle cx="545.219" cy="564.047" r="8.41241" stroke-width="0.5" stroke="black" fill="magenta"/>
  <circle cx="545.219" cy="564.047" r="5.05161" stroke-width="0.5" stroke="black" fill="magenta"/>
   </g>
   <g id="cell92">
  <circle cx="486.201" cy="551.3" r="8.41252" stroke-width="0.5" stroke="black" fill="green"/>
  <circle cx="486.201" cy="551.3" r="5.05163" stroke-width="0.5" stroke="black" fill="green"/>
   </g>
   <g id="cell93">
  <circle cx="540.743" cy="549.638" r="8.41241" stroke-width="0.5" stroke="black" fill="magenta"/>
  <circle cx="540.743" cy="549.638" r="5.05161" stroke-width="0.5" stroke="black" fill="magenta"/>
   </g>
   <g id="cell94">
  <circle cx="543.649" cy="489.005" r="8.41249" stroke-width="0.5" stroke="black" fill="cyan"/>
  <circle cx="543.649" cy="489.005" r="5.05162" stroke-width="0.5" stroke="black" fill="cyan"/>
   </g>
   <g id="cell95">
  <circle cx="465.973" cy="421.225" r="7.97634" stroke-width="0.5" stroke="black" fill="cyan"/>
  <circle cx="465.973" cy="421.225" r="4.83581" stroke-width="0.5" stroke="black" fill="cyan"/>
   </g>
   <g id="cell96">
  <circle cx="553.98" cy="540.971" r="8.40638" stroke-width="0.5" stroke="black" fill="cyan"/>
  <circle cx="553.98" cy="540.971" r="5.04979" stroke-width="0.5" stroke="black" fill="cyan"/>
   </g>
   <g id="cell97">
  <circle cx="420.428" cy="463.917" r="8.41226" stroke-width="0.5" stroke="black" fill="green"/>
  <circle cx="420.428" cy="463.917" r="5.05157" stroke-width="0.5" stroke="black" fill="green"/>
   </g>
   <g id="cell98">
  <circle cx="490.48" cy="524.158" r="8.40988" stroke-width="0.5" stroke="black" fill="green"/>
  <circle cx="490.48" cy="524.158" r="5.0509" stroke-width="0.5" stroke="black" fill="green"/>
   </g>
   <g id="cell99">
  <circle cx="367.699" cy="524.586" r="8.41237" stroke-width="0.5" stroke="black" fill="cyan"/>
  <circle cx="367.699" cy="524.586" r="5.0516" stroke-width="0.5" stroke="black" fill="cyan"/>
   </g>
   <g id="cell100">
  <circle cx="446.36" cy="403.835" r="8.41237" stroke-width="0.5" stroke="black" fill="green"/>
  <circle cx="446.36" cy="403.835" r="5.05159" stroke-width="0.5" stroke="black" fill="green"/>
   </g>
   <g id="cell101">
  <circle cx="527.468" cy="488.692" r="8.13443" stroke-width="0.5" stroke="black" fill="cyan"/>
  <circle cx="527.468" cy="488.692" r="4.92203" stroke-width="0.5" stroke="black" fill="cyan"/>
   </g>
   <g id="cell102">
  <circle cx="441.541" cy="475.803" r="7.51948" stroke-width="0.5" stroke="black" fill="green"/>
  <circle cx="441.541" cy="475.803" r="4.57065" stroke-width="0.5" stroke="black" fill="green"/>
   </g>
   <g id="cell103">
  <circle cx="592.714" cy="449.661" r="8.41031" stroke-width="0.5" stroke="black" fill="cyan"/>
  <circle cx="592.714" cy="449.661" r="5.05103" stroke-width="0.5" stroke="black" fill="cyan"/>
   </g>
   <g id="cell104">
  <circle cx="606.79" cy="554.057" r="8.20394" stroke-width="0.5" stroke="black" fill="cyan"/>
  <circle cx="606.79" cy="554.057" r="4.95867" stroke-width="0.5" stroke="black" fill="cyan"/>
   </g>
   <g id="cell106">
  <circle cx="454.693" cy="449.604" r="8.41217" stroke-width="0.5" stroke="black" fill="magenta"/>
  <circle cx="454.693" cy="449.604" r="5.05155" stroke-width="0.5" stroke="black" fill="magenta"/>
   </g>
   <g id="cell107">
  <circle cx="467.283" cy="390.791" r="8.34204" stroke-width="0.5" stroke="black" fill="green"/>
  <circle cx="467.283" cy="390.791" r="5.0251" stroke-width="0.5" stroke="black" fill="green"/>
   </g>
   <g id="cell108">
  <circle cx="562.5" cy="609.363" r="8.41209" stroke-width="0.5" stroke="black" fill="green"/>
  <circle cx="562.5" cy="609.363" r="5.05152" stroke-width="0.5" stroke="black" fill="green"/>
   </g>
   <g id="cell109">
  <circle cx="576.4" cy="588.683" r="8.41173" stroke-width="0.5" stroke="black" fill="green"/>
  <circle cx="576.4" cy="588.683" r="5.05144" stroke-width="0.5" stroke="black" fill="green"/>
   </g>
   <g id="cell110">
  <circle cx="369.285" cy="508.858" r="8.41187" stroke-width="0.5" stroke="black" fill="cyan"/>
  <circle cx="369.285" cy="508.858" r="5.05147" stroke-width="0.5" stroke="black" fill="cyan"/>
   </g>
   <g id="cell111">
  <circle cx="457.051" cy="556.678" r="8.40566" stroke-width="0.5" stroke="black" fill="magenta"/>
  <circle cx="457.051" cy="556.678" r="5.04958" stroke-width="0.5" stroke="black" fill="magenta"/>
   </g>
   <g id="cell112">
  <circle cx="491.964" cy="468.473" r="8.39524" stroke-width="0.5" stroke="black" fill="magenta"/>
  <circle cx="491.964" cy="468.473" r="5.04587" stroke-width="0.5" stroke="black" fill="magenta"/>
   </g>
   <g id="cell113">
  <circle cx="547.238" cy="373.787" r="6.77127" stroke-width="0.5" stroke="black" fill="green"/>
  <circle cx="547.238" cy="373.787" r="4.08369" stroke-width="0.5" stroke="black" fill="green"/>
   </g>
   <g id="cell114">
  <circle cx="525.273" cy="443.447" r="8.41109" stroke-width="0.5" stroke="black" fill="cyan"/>
  <circle cx="525.273" cy="443.447" r="5.05126" stroke-width="0.5" stroke="black" fill="cyan"/>
   </g>
   <g id="cell115">
  <circle cx="538.431" cy="450.859" r="8.40693" stroke-width="0.5" stroke="black" fill="cyan"/>
  <circle cx="538.431" cy="450.859" r="5.05002" stroke-width="0.5" stroke="black" fill="cyan"/>
   </g>
   <g id="cell116">
  <circle cx="520.032" cy="532.086" r="8.24367" stroke-width="0.5" stroke="black" fill="cyan"/>
  <circle cx="520.032" cy="532.086" r="4.97727" stroke-width="0.5" stroke="black" fill="cyan"/>
   </g>
   <g id="cell117">
  <circle cx="500.756" cy="624.693" r="8.4109" stroke-width="0.5" stroke="black" fill="green"/>
  <circle cx="500.756" cy="624.693" r="5.05121" stroke-width="0.5" stroke="black" fill="green"/>
   </g>
   <g id="cell118">
  <circle cx="509.941" cy="448.452" r="8.41065" stroke-width="0.5" stroke="black" fill="cyan"/>
  <circle cx="509.941" cy="448.452" r="5.05112" stroke-width="0.5" stroke="black" fill="cyan"/>
   </g>
   <g id="cell119">
  <circle cx="548.494" cy="602.908" r="8.26989" stroke-width="0.5" stroke="black" fill="green"/>
  <circle cx="548.494" cy="602.908" r="4.99019" stroke-width="0.5" stroke="black" fill="green"/>
   </g>
   <g id="cell120">
  <circle cx="580.592" cy="439.329" r="8.41031" stroke-width="0.5" stroke="black" fill="cyan"/>
  <circle cx="580.592" cy="439.329" r="5.05103" stroke-width="0.5" stroke="black" fill="cyan"/>
   </g>
   <g id="cell121">
  <circle cx="452.87" cy="358.511" r="7.11463" stroke-width="0.5" stroke="black" fill="green"/>
  <circle cx="452.87" cy="358.511" r="4.31847" stroke-width="0.5" stroke="black" fill="green"/>
   </g>
   <g id="cell122">
  <circle cx="505.502" cy="528.197" r="8.41037" stroke-width="0.5" stroke="black" fill="magenta"/>
  <circle cx="505.502" cy="528.197" r="5.05104" stroke-width="0.5" stroke="black" fill="magenta"/>
   </g>
   <g id="cell123">
  <circle cx="486.652" cy="507.102" r="8.40988" stroke-width="0.5" stroke="black" fill="green"/>
  <circle cx="486.652" cy="507.102" r="5.0509" stroke-width="0.5" stroke="black" fill="green"/>
   </g>
   <g id="cell124">
  <circle cx="488.468" cy="429.559" r="8.04456" stroke-width="0.5" stroke="black" fill="magenta"/>
  <circle cx="488.468" cy="429.559" r="4.87357" stroke-width="0.5" stroke="black" fill="magenta"/>
   </g>
   <g id="cell125">
  <circle cx="624.673" cy="483.56" r="7.32908" stroke-width="0.5" stroke="black" fill="green"/>
  <circle cx="624.673" cy="483.56" r="4.45448" stroke-width="0.5" stroke="black" fill="green"/>
   </g>
   <g id="cell126">
  <circle cx="628.988" cy="566.353" r="8.4093" stroke-width="0.5" stroke="black" fill="green"/>
  <circle cx="628.988" cy="566.353" r="5.05072" stroke-width="0.5" stroke="black" fill="green"/>
   </g>
   <g id="cell127">
  <circle cx="432.504" cy="361.326" r="7.1775" stroke-width="0.5" stroke="black" fill="green"/>
  <circle cx="432.504" cy="361.326" r="4.3591" stroke-width="0.5" stroke="black" fill="green"/>
   </g>
   <g id="cell128">
  <circle cx="372.114" cy="467.548" r="8.4085" stroke-width="0.5" stroke="black" fill="magenta"/>
  <circle cx="372.114" cy="467.548" r="5.05047" stroke-width="0.5" stroke="black" fill="magenta"/>
   </g>
   <g id="cell129">
  <circle cx="569.884" cy="543.003" r="8.40807" stroke-width="0.5" stroke="black" fill="cyan"/>
  <circle cx="569.884" cy="543.003" r="5.05034" stroke-width="0.5" stroke="black" fill="cyan"/>
   </g>
   <g id="cell130">
  <circle cx="546.402" cy="436.83" r="8.40693" stroke-width="0.5" stroke="black" fill="cyan"/>
  <circle cx="546.402" cy="436.83" r="5.05002" stroke-width="0.5" stroke="black" fill="cyan"/>
   </g>
   <g id="cell131">
  <circle cx="543.42" cy="514.237" r="7.56091" stroke-width="0.5" stroke="black" fill="cyan"/>
  <circle cx="543.42" cy="514.237" r="4.62472" stroke-width="0.5" stroke="black" fill="cyan"/>
   </g>
   <g id="cell132">
  <circle cx="443.969" cy="548.937" r="8.40566" stroke-width="0.5" stroke="black" fill="magenta"/>
  <circle cx="443.969" cy="548.937" r="5.04958" stroke-width="0.5" stroke="black" fill="magenta"/>
   </g>
   <g id="cell133">
  <circle cx="581.046" cy="465.46" r="8.40607" stroke-width="0.5" stroke="black" fill="cyan"/>
  <circle cx="581.046" cy="465.46" r="5.04968" stroke-width="0.5" stroke="black" fill="cyan"/>
   </g>
   <g id="cell201">
  <circle cx="556.894" cy="519.399" r="7.56091" stroke-width="0.5" stroke="black" fill="cyan"/>
  <circle cx="556.894" cy="519.399" r="4.62472" stroke-width="0.5" stroke="black" fill="cyan"/>
   </g>
   <g id="cell135">
  <circle cx="509.484" cy="582.574" r="8.40516" stroke-width="0.5" stroke="black" fill="magenta"/>
  <circle cx="509.484" cy="582.574" r="5.04937" stroke-width="0.5" stroke="black" fill="magenta"/>
   </g>
   <g id="cell136">
  <circle cx="470.682" cy="548.995" r="8.40393" stroke-width="0.5" stroke="black" fill="green"/>
  <circle cx="470.682" cy="548.995" r="5.04896" stroke-width="0.5" stroke="black" fill="green"/>
   </g>
   <g id="cell137">
  <circle cx="488.558" cy="614.43" r="8.40154" stroke-width="0.5" stroke="black" fill="green"/>
  <circle cx="488.558" cy="614.43" r="5.0482" stroke-width="0.5" stroke="black" fill="green"/>
   </g>
   <g id="cell138">
  <circle cx="502.765" cy="405.061" r="8.40244" stroke-width="0.5" stroke="black" fill="green"/>
  <circle cx="502.765" cy="405.061" r="5.04843" stroke-width="0.5" stroke="black" fill="green"/>
   </g>
   <g id="cell139">
  <circle cx="415.838" cy="407.014" r="8.4009" stroke-width="0.5" stroke="black" fill="magenta"/>
  <circle cx="415.838" cy="407.014" r="5.04788" stroke-width="0.5" stroke="black" fill="magenta"/>
   </g>
   <g id="cell140">
  <circle cx="519.595" cy="571.628" r="8.39007" stroke-width="0.5" stroke="black" fill="magenta"/>
  <circle cx="519.595" cy="571.628" r="5.0442" stroke-width="0.5" stroke="black" fill="magenta"/>
   </g>
   <g id="cell141">
  <circle cx="571.896" cy="452.569" r="8.39723" stroke-width="0.5" stroke="black" fill="cyan"/>
  <circle cx="571.896" cy="452.569" r="5.04677" stroke-width="0.5" stroke="black" fill="cyan"/>
   </g>
   <g id="cell142">
  <circle cx="542.208" cy="422.136" r="8.23895" stroke-width="0.5" stroke="black" fill="green"/>
  <circle cx="542.208" cy="422.136" r="4.97795" stroke-width="0.5" stroke="black" fill="green"/>
   </g>
   <g id="cell143">
  <circle cx="430.845" cy="405.077" r="8.39358" stroke-width="0.5" stroke="black" fill="magenta"/>
  <circle cx="430.845" cy="405.077" r="5.04548" stroke-width="0.5" stroke="black" fill="magenta"/>
   </g>
   <g id="cell144">
  <circle cx="545.995" cy="407.679" r="8.36488" stroke-width="0.5" stroke="black" fill="green"/>
  <circle cx="545.995" cy="407.679" r="5.03455" stroke-width="0.5" stroke="black" fill="green"/>
   </g>
   <g id="cell185">
  <circle cx="596.93" cy="564.779" r="7.13365" stroke-width="0.5" stroke="black" fill="cyan"/>
  <circle cx="596.93" cy="564.779" r="4.35518" stroke-width="0.5" stroke="black" fill="cyan"/>
   </g>
   <g id="cell147">
  <circle cx="515.072" cy="557.681" r="8.39007" stroke-width="0.5" stroke="black" fill="magenta"/>
  <circle cx="515.072" cy="557.681" r="5.0442" stroke-width="0.5" stroke="black" fill="magenta"/>
   </g>
   <g id="cell148">
  <circle cx="507.002" cy="463.533" r="8.12074" stroke-width="0.5" stroke="black" fill="magenta"/>
  <circle cx="507.002" cy="463.533" r="4.91578" stroke-width="0.5" stroke="black" fill="magenta"/>
   </g>
   <g id="cell149">
  <circle cx="574.014" cy="398.052" r="8.39083" stroke-width="0.5" stroke="black" fill="magenta"/>
  <circle cx="574.014" cy="398.052" r="5.04414" stroke-width="0.5" stroke="black" fill="magenta"/>
   </g>
   <g id="cell150">
  <circle cx="410.979" cy="581.269" r="8.33996" stroke-width="0.5" stroke="black" fill="green"/>
  <circle cx="410.979" cy="581.269" r="5.02387" stroke-width="0.5" stroke="black" fill="green"/>
   </g>
   <g id="cell151">
  <circle cx="420.815" cy="529.118" r="8.38532" stroke-width="0.5" stroke="black" fill="green"/>
  <circle cx="420.815" cy="529.118" r="5.04199" stroke-width="0.5" stroke="black" fill="green"/>
   </g>
   <g id="cell152">
  <circle cx="373.154" cy="579.014" r="8.37143" stroke-width="0.5" stroke="black" fill="green"/>
  <circle cx="373.154" cy="579.014" r="5.03706" stroke-width="0.5" stroke="black" fill="green"/>
   </g>
   <g id="cell153">
  <circle cx="560.694" cy="463.486" r="8.38206" stroke-width="0.5" stroke="black" fill="cyan"/>
  <circle cx="560.694" cy="463.486" r="5.04069" stroke-width="0.5" stroke="black" fill="cyan"/>
   </g>
   <g id="cell154">
  <circle cx="386.98" cy="598.541" r="8.36043" stroke-width="0.5" stroke="black" fill="green"/>
  <circle cx="386.98" cy="598.541" r="5.03299" stroke-width="0.5" stroke="black" fill="green"/>
   </g>
   <g id="cell155">
  <circle cx="488.101" cy="582.854" r="8.38028" stroke-width="0.5" stroke="black" fill="green"/>
  <circle cx="488.101" cy="582.854" r="5.03997" stroke-width="0.5" stroke="black" fill="green"/>
   </g>
   <g id="cell156">
  <circle cx="455.785" cy="526.503" r="8.38021" stroke-width="0.5" stroke="black" fill="magenta"/>
  <circle cx="455.785" cy="526.503" r="5.03996" stroke-width="0.5" stroke="black" fill="magenta"/>
   </g>
   <g id="cell157">
  <circle cx="442.66" cy="519.343" r="8.36106" stroke-width="0.5" stroke="black" fill="magenta"/>
  <circle cx="442.66" cy="519.343" r="5.03291" stroke-width="0.5" stroke="black" fill="magenta"/>
   </g>
   <g id="cell158">
  <circle cx="565.831" cy="411.468" r="8.36693" stroke-width="0.5" stroke="black" fill="green"/>
  <circle cx="565.831" cy="411.468" r="5.03539" stroke-width="0.5" stroke="black" fill="green"/>
   </g>
   <g id="cell159">
  <circle cx="530.76" cy="396.964" r="7.87458" stroke-width="0.5" stroke="black" fill="green"/>
  <circle cx="530.76" cy="396.964" r="4.79254" stroke-width="0.5" stroke="black" fill="green"/>
   </g>
   <g id="cell160">
  <circle cx="464.278" cy="375.237" r="8.37078" stroke-width="0.5" stroke="black" fill="green"/>
  <circle cx="464.278" cy="375.237" r="5.03627" stroke-width="0.5" stroke="black" fill="green"/>
   </g>
   <g id="cell165">
  <circle cx="608.077" cy="526.391" r="7.97457" stroke-width="0.5" stroke="black" fill="magenta"/>
  <circle cx="608.077" cy="526.391" r="4.84052" stroke-width="0.5" stroke="black" fill="magenta"/>
   </g>
   <g id="cell166">
  <circle cx="480.719" cy="458.081" r="8.33433" stroke-width="0.5" stroke="black" fill="magenta"/>
  <circle cx="480.719" cy="458.081" r="5.02031" stroke-width="0.5" stroke="black" fill="magenta"/>
   </g>
   <g id="cell167">
  <circle cx="421.577" cy="392.639" r="8.32543" stroke-width="0.5" stroke="black" fill="green"/>
  <circle cx="421.577" cy="392.639" r="5.01617" stroke-width="0.5" stroke="black" fill="green"/>
   </g>
   <g id="cell170">
  <circle cx="460.266" cy="503.26" r="8.30618" stroke-width="0.5" stroke="black" fill="green"/>
  <circle cx="460.266" cy="503.26" r="5.00727" stroke-width="0.5" stroke="black" fill="green"/>
   </g>
   <g id="cell171">
  <circle cx="600.256" cy="480.094" r="8.28629" stroke-width="0.5" stroke="black" fill="cyan"/>
  <circle cx="600.256" cy="480.094" r="4.99786" stroke-width="0.5" stroke="black" fill="cyan"/>
   </g>
   <g id="cell172">
  <circle cx="550.541" cy="502.254" r="8.17807" stroke-width="0.5" stroke="black" fill="magenta"/>
  <circle cx="550.541" cy="502.254" r="4.94919" stroke-width="0.5" stroke="black" fill="magenta"/>
   </g>
   <g id="cell173">
  <circle cx="530.682" cy="520.902" r="8.2677" stroke-width="0.5" stroke="black" fill="cyan"/>
  <circle cx="530.682" cy="520.902" r="4.9895" stroke-width="0.5" stroke="black" fill="cyan"/>
   </g>
   <g id="cell174">
  <circle cx="496.982" cy="442.16" r="6.59942" stroke-width="0.5" stroke="black" fill="cyan"/>
  <circle cx="496.982" cy="442.16" r="3.98609" stroke-width="0.5" stroke="black" fill="cyan"/>
   </g>
   <g id="cell175">
  <circle cx="524.473" cy="607.134" r="7.68654" stroke-width="0.5" stroke="black" fill="green"/>
  <circle cx="524.473" cy="607.134" r="4.69222" stroke-width="0.5" stroke="black" fill="green"/>
   </g>
   <g id="cell176">
  <circle cx="557.289" cy="424.883" r="8.23895" stroke-width="0.5" stroke="black" fill="green"/>
  <circle cx="557.289" cy="424.883" r="4.97795" stroke-width="0.5" stroke="black" fill="green"/>
   </g>
   <g id="cell177">
  <circle cx="369.189" cy="564.065" r="8.12866" stroke-width="0.5" stroke="black" fill="cyan"/>
  <circle cx="369.189" cy="564.065" r="4.92459" stroke-width="0.5" stroke="black" fill="cyan"/>
   </g>
   <g id="cell178">
  <circle cx="562.307" cy="508.366" r="6.92182" stroke-width="0.5" stroke="black" fill="magenta"/>
  <circle cx="562.307" cy="508.366" r="4.22531" stroke-width="0.5" stroke="black" fill="magenta"/>
   </g>
   <g id="cell179">
  <circle cx="516.025" cy="517.153" r="8.24367" stroke-width="0.5" stroke="black" fill="cyan"/>
  <circle cx="516.025" cy="517.153" r="4.97727" stroke-width="0.5" stroke="black" fill="cyan"/>
   </g>
   <g id="cell180">
  <circle cx="619.799" cy="503.581" r="8.23444" stroke-width="0.5" stroke="black" fill="green"/>
  <circle cx="619.799" cy="503.581" r="4.97252" stroke-width="0.5" stroke="black" fill="green"/>
   </g>
   <g id="cell181">
  <circle cx="563.043" cy="528.655" r="4.29263" stroke-width="0.5" stroke="black" fill="cyan"/>
  <circle cx="563.043" cy="528.655" r="3.0109" stroke-width="0.5" stroke="black" fill="black"/>
   </g>
   <g id="cell182">
  <circle cx="533.737" cy="382.004" r="8.20432" stroke-width="0.5" stroke="black" fill="green"/>
  <circle cx="533.737" cy="382.004" r="4.96093" stroke-width="0.5" stroke="black" fill="green"/>
   </g>
   <g id="cell183">
  <circle cx="575.905" cy="511.547" r="8.2239" stroke-width="0.5" stroke="black" fill="magenta"/>
  <circle cx="575.905" cy="511.547" r="4.96725" stroke-width="0.5" stroke="black" fill="magenta"/>
   </g>
   <g id="cell184">
  <circle cx="432.407" cy="430.156" r="7.9117" stroke-width="0.5" stroke="black" fill="magenta"/>
  <circle cx="432.407" cy="430.156" r="4.81212" stroke-width="0.5" stroke="black" fill="magenta"/>
   </g>
   <g id="cell187">
  <circle cx="499.151" cy="497.187" r="8.18827" stroke-width="0.5" stroke="black" fill="cyan"/>
  <circle cx="499.151" cy="497.187" r="4.94919" stroke-width="0.5" stroke="black" fill="cyan"/>
   </g>
   <g id="cell188">
  <circle cx="533.892" cy="618.503" r="8.07036" stroke-width="0.5" stroke="black" fill="green"/>
  <circle cx="533.892" cy="618.503" r="4.89459" stroke-width="0.5" stroke="black" fill="green"/>
   </g>
   <g id="cell189">
  <circle cx="535.364" cy="475.878" r="8.13443" stroke-width="0.5" stroke="black" fill="cyan"/>
  <circle cx="535.364" cy="475.878" r="4.92203" stroke-width="0.5" stroke="black" fill="cyan"/>
   </g>
   <g id="cell190">
  <circle cx="546.493" cy="528.042" r="8.00188" stroke-width="0.5" stroke="black" fill="cyan"/>
  <circle cx="546.493" cy="528.042" r="4.86289" stroke-width="0.5" stroke="black" fill="cyan"/>
   </g>
   <g id="cell191">
  <circle cx="503.25" cy="477.458" r="8.12074" stroke-width="0.5" stroke="black" fill="magenta"/>
  <circle cx="503.25" cy="477.458" r="4.91578" stroke-width="0.5" stroke="black" fill="magenta"/>
   </g>
   <g id="cell192">
  <circle cx="474.391" cy="432.912" r="8.04456" stroke-width="0.5" stroke="black" fill="magenta"/>
  <circle cx="474.391" cy="432.912" r="4.87357" stroke-width="0.5" stroke="black" fill="magenta"/>
   </g>
   <g id="cell193">
  <circle cx="438.818" cy="417.385" r="7.9117" stroke-width="0.5" stroke="black" fill="magenta"/>
  <circle cx="438.818" cy="417.385" r="4.81212" stroke-width="0.5" stroke="black" fill="magenta"/>
   </g>
   <g id="cell194">
  <circle cx="601.473" cy="513.677" r="7.97457" stroke-width="0.5" stroke="black" fill="magenta"/>
  <circle cx="601.473" cy="513.677" r="4.84052" stroke-width="0.5" stroke="black" fill="magenta"/>
   </g>
   <g id="cell195">
  <circle cx="544.267" cy="392.913" r="7.87458" stroke-width="0.5" stroke="black" fill="green"/>
  <circle cx="544.267" cy="392.913" r="4.79254" stroke-width="0.5" stroke="black" fill="green"/>
   </g>
   <g id="cell196">
  <circle cx="459.838" cy="435.337" r="7.97634" stroke-width="0.5" stroke="black" fill="cyan"/>
  <circle cx="459.838" cy="435.337" r="4.83581" stroke-width="0.5" stroke="black" fill="cyan"/>
   </g>
   <g id="cell197">
  <circle cx="549.151" cy="617.673" r="7.96248" stroke-width="0.5" stroke="black" fill="green"/>
  <circle cx="549.151" cy="617.673" r="4.82841" stroke-width="0.5" stroke="black" fill="green"/>
   </g>
   <g id="cell198">
  <circle cx="424.906" cy="418.301" r="7.77742" stroke-width="0.5" stroke="black" fill="magenta"/>
  <circle cx="424.906" cy="418.301" r="4.73771" stroke-width="0.5" stroke="black" fill="magenta"/>
   </g>
   <g id="cell199">
  <circle cx="534.835" cy="597.019" r="7.68654" stroke-width="0.5" stroke="black" fill="green"/>
  <circle cx="534.835" cy="597.019" r="4.69222" stroke-width="0.5" stroke="black" fill="green"/>
   </g>
   <g id="cell200">
  <circle cx="446.411" cy="429.565" r="7.79928" stroke-width="0.5" stroke="black" fill="magenta"/>
  <circle cx="446.411" cy="429.565" r="4.73894" stroke-width="0.5" stroke="black" fill="magenta"/>
   </g>
   <g id="cell202">
  <circle cx="402.897" cy="607.187" r="7.70049" stroke-width="0.5" stroke="black" fill="cyan"/>
  <circle cx="402.897" cy="607.187" r="4.67828" stroke-width="0.5" stroke="black" fill="cyan"/>
   </g>
   <g id="cell203">
  <circle cx="359.591" cy="537.21" r="7.59034" stroke-width="0.5" stroke="black" fill="cyan"/>
  <circle cx="359.591" cy="537.21" r="4.62659" stroke-width="0.5" stroke="black" fill="cyan"/>
   </g>
   <g id="cell204">
  <circle cx="572.726" cy="488.341" r="7.5977" stroke-width="0.5" stroke="black" fill="magenta"/>
  <circle cx="572.726" cy="488.341" r="4.63018" stroke-width="0.5" stroke="black" fill="magenta"/>
   </g>
   <g id="cell205">
  <circle cx="427.389" cy="477.433" r="7.51948" stroke-width="0.5" stroke="black" fill="green"/>
  <circle cx="427.389" cy="477.433" r="4.57065" stroke-width="0.5" stroke="black" fill="green"/>
   </g>
   <g id="cell206">
  <circle cx="465.558" cy="623.99" r="7.3599" stroke-width="0.5" stroke="black" fill="magenta"/>
  <circle cx="465.558" cy="623.99" r="4.47294" stroke-width="0.5" stroke="black" fill="magenta"/>
   </g>
   <g id="cell207">
  <circle cx="622.513" cy="469.91" r="7.32908" stroke-width="0.5" stroke="black" fill="green"/>
  <circle cx="622.513" cy="469.91" r="4.45448" stroke-width="0.5" stroke="black" fill="green"/>
   </g>
   <g id="cell208">
  <circle cx="588.301" cy="554.373" r="7.13365" stroke-width="0.5" stroke="black" fill="cyan"/>
  <circle cx="588.301" cy="554.373" r="4.35518" stroke-width="0.5" stroke="black" fill="cyan"/>
   </g>
   <g id="cell209">
  <circle cx="441.514" cy="351.208" r="7.1775" stroke-width="0.5" stroke="black" fill="green"/>
  <circle cx="441.514" cy="351.208" r="4.3591" stroke-width="0.5" stroke="black" fill="green"/>
   </g>
   <g id="cell210">
  <circle cx="655.347" cy="538.675" r="7.18091" stroke-width="0.5" stroke="black" fill="green"/>
  <circle cx="655.347" cy="538.675" r="4.36014" stroke-width="0.5" stroke="black" fill="green"/>
   </g>
   <g id="cell213">
  <circle cx="554.302" cy="384.166" r="6.77127" stroke-width="0.5" stroke="black" fill="green"/>
  <circle cx="554.302" cy="384.166" r="4.08369" stroke-width="0.5" stroke="black" fill="green"/>
   </g>
   <g id="cell214">
  <circle cx="501.757" cy="432.244" r="6.59942" stroke-width="0.5" stroke="black" fill="cyan"/>
  <circle cx="501.757" cy="432.244" r="3.98609" stroke-width="0.5" stroke="black" fill="cyan"/>
   </g>
   <g id="cell215">
  <circle cx="434.995" cy="530.181" r="6.67101" stroke-width="0.5" stroke="black" fill="magenta"/>
  <circle cx="434.995" cy="530.181" r="4.01961" stroke-width="0.5" stroke="black" fill="magenta"/>
   </g>
   <g id="cell216">
  <circle cx="540.629" cy="579.452" r="6.63556" stroke-width="0.5" stroke="black" fill="green"/>
  <circle cx="540.629" cy="579.452" r="3.99362" stroke-width="0.5" stroke="black" fill="green"/>
   </g>
  </g>
 </g>
  <rect x="775" y="1035" width="200" height="10" stroke-width="2" stroke="rgb(255,255,255)" fill="rgb(0,0,0)"/>
  <text x="781.25" y="1028.75"
   font-family="Arial" font-size="25" fill="black" >
   200 &#956;m
  </text>
  <text x="25" y="1045"
   font-family="Arial" font-size="18.75" fill="black" >
   0 days, 0 hours, 0 minutes, and 48.4716 seconds
  </text>
  <rect x="0" y="70" width="1000" height="1000" stroke-width="2" stroke="rgb(0,0,0)" fill="none"/>
</svg>
