<?xml version="1.0" encoding="UTF-8" standalone="no"?>
<!-- Created with PhysiCell (http://PhysiCell.MathCancer.org/) -->
<svg 
 xmlns:dc="http://purl.org/dc/elements/1.1/" 
 xmlns:cc="http://creativecommons.org/ns#" 
 xmlns:rdf="http://www.w3.org/1999/02/22-rdf-syntax-ns#" 
 xmlns:svg="http://www.w3.org/2000/svg" 
 xmlns="http://www.w3.org/2000/svg" 
 version="1.1" 
 width="1000" 
 height="1070" 
 id="svg2">
  <rect x="0" y="0" width="1000" height="1070" stroke-width="2" stroke="white" fill="white"/>
  <text x="12.5" y="30"
   font-family="Arial" font-size="25" fill="black" >
   Current time: 0 days, 13 hours, and 21.00 minutes, z = 0.00 &#956;m
  </text>
  <text x="12.5" y="57.5"
   font-family="Arial" font-size="23.75" fill="black" >
   116 agents
  </text>
 <g id="tissue" 
    transform="translate(0,1070) scale(1,-1)">
  <g id="ECM">
  </g>
  <g id="cells">
   <g id="cell0">
  <circle cx="515.788" cy="534.252" r="8.23948" stroke-width="0.5" stroke="black" fill="magenta"/>
  <circle cx="515.788" cy="534.252" r="4.97503" stroke-width="0.5" stroke="black" fill="magenta"/>
   </g>
   <g id="cell1">
  <circle cx="602.492" cy="526.171" r="8.41271" stroke-width="0.5" stroke="black" fill="magenta"/>
  <circle cx="602.492" cy="526.171" r="5.05167" stroke-width="0.5" stroke="black" fill="magenta"/>
   </g>
   <g id="cell2">
  <circle cx="514.272" cy="599.794" r="8.41271" stroke-width="0.5" stroke="black" fill="magenta"/>
  <circle cx="514.272" cy="599.794" r="5.05167" stroke-width="0.5" stroke="black" fill="magenta"/>
   </g>
   <g id="cell3">
  <circle cx="523.903" cy="546.63" r="8.12578" stroke-width="0.5" stroke="black" fill="magenta"/>
  <circle cx="523.903" cy="546.63" r="4.9224" stroke-width="0.5" stroke="black" fill="magenta"/>
   </g>
   <g id="cell4">
  <circle cx="490.437" cy="437.444" r="8.34317" stroke-width="0.5" stroke="black" fill="magenta"/>
  <circle cx="490.437" cy="437.444" r="5.02416" stroke-width="0.5" stroke="black" fill="magenta"/>
   </g>
   <g id="cell5">
  <circle cx="465.032" cy="493.3" r="8.41271" stroke-width="0.5" stroke="black" fill="magenta"/>
  <circle cx="465.032" cy="493.3" r="5.05167" stroke-width="0.5" stroke="black" fill="magenta"/>
   </g>
   <g id="cell6">
  <circle cx="595.637" cy="512.669" r="8.41271" stroke-width="0.5" stroke="black" fill="magenta"/>
  <circle cx="595.637" cy="512.669" r="5.05167" stroke-width="0.5" stroke="black" fill="magenta"/>
   </g>
   <g id="cell7">
  <circle cx="504.89" cy="456.067" r="7.0545" stroke-width="0.5" stroke="black" fill="magenta"/>
  <circle cx="504.89" cy="456.067" r="4.27772" stroke-width="0.5" stroke="black" fill="magenta"/>
   </g>
   <g id="cell8">
  <circle cx="376.413" cy="543.148" r="8.41271" stroke-width="0.5" stroke="black" fill="magenta"/>
  <circle cx="376.413" cy="543.148" r="5.05167" stroke-width="0.5" stroke="black" fill="magenta"/>
   </g>
   <g id="cell9">
  <circle cx="460.472" cy="599.786" r="8.41271" stroke-width="0.5" stroke="black" fill="magenta"/>
  <circle cx="460.472" cy="599.786" r="5.05167" stroke-width="0.5" stroke="black" fill="magenta"/>
   </g>
   <g id="cell10">
  <circle cx="583.447" cy="392.105" r="8.41271" stroke-width="0.5" stroke="black" fill="magenta"/>
  <circle cx="583.447" cy="392.105" r="5.05167" stroke-width="0.5" stroke="black" fill="magenta"/>
   </g>
   <g id="cell11">
  <circle cx="590.602" cy="590.155" r="8.41271" stroke-width="0.5" stroke="black" fill="magenta"/>
  <circle cx="590.602" cy="590.155" r="5.05167" stroke-width="0.5" stroke="black" fill="magenta"/>
   </g>
   <g id="cell12">
  <circle cx="507.025" cy="586.494" r="8.41271" stroke-width="0.5" stroke="black" fill="magenta"/>
  <circle cx="507.025" cy="586.494" r="5.05167" stroke-width="0.5" stroke="black" fill="magenta"/>
   </g>
   <g id="cell13">
  <circle cx="386.194" cy="568.228" r="8.41271" stroke-width="0.5" stroke="black" fill="magenta"/>
  <circle cx="386.194" cy="568.228" r="5.05167" stroke-width="0.5" stroke="black" fill="magenta"/>
   </g>
   <g id="cell14">
  <circle cx="529.73" cy="399.223" r="8.41271" stroke-width="0.5" stroke="black" fill="magenta"/>
  <circle cx="529.73" cy="399.223" r="5.05167" stroke-width="0.5" stroke="black" fill="magenta"/>
   </g>
   <g id="cell15">
  <circle cx="379.65" cy="475.1" r="8.41271" stroke-width="0.5" stroke="black" fill="magenta"/>
  <circle cx="379.65" cy="475.1" r="5.05167" stroke-width="0.5" stroke="black" fill="magenta"/>
   </g>
   <g id="cell16">
  <circle cx="428.961" cy="413.206" r="8.41271" stroke-width="0.5" stroke="black" fill="magenta"/>
  <circle cx="428.961" cy="413.206" r="5.05167" stroke-width="0.5" stroke="black" fill="magenta"/>
   </g>
   <g id="cell17">
  <circle cx="570.192" cy="490.778" r="8.41271" stroke-width="0.5" stroke="black" fill="magenta"/>
  <circle cx="570.192" cy="490.778" r="5.05167" stroke-width="0.5" stroke="black" fill="magenta"/>
   </g>
   <g id="cell18">
  <circle cx="518.055" cy="389.484" r="8.41271" stroke-width="0.5" stroke="black" fill="magenta"/>
  <circle cx="518.055" cy="389.484" r="5.05167" stroke-width="0.5" stroke="black" fill="magenta"/>
   </g>
   <g id="cell19">
  <circle cx="458.759" cy="540.371" r="6.97504" stroke-width="0.5" stroke="black" fill="magenta"/>
  <circle cx="458.759" cy="540.371" r="4.25372" stroke-width="0.5" stroke="black" fill="magenta"/>
   </g>
   <g id="cell20">
  <circle cx="531.539" cy="414.274" r="8.41271" stroke-width="0.5" stroke="black" fill="magenta"/>
  <circle cx="531.539" cy="414.274" r="5.05167" stroke-width="0.5" stroke="black" fill="magenta"/>
   </g>
   <g id="cell21">
  <circle cx="464.368" cy="634.574" r="8.41271" stroke-width="0.5" stroke="black" fill="magenta"/>
  <circle cx="464.368" cy="634.574" r="5.05167" stroke-width="0.5" stroke="black" fill="magenta"/>
   </g>
   <g id="cell22">
  <circle cx="555.685" cy="495.77" r="8.41271" stroke-width="0.5" stroke="black" fill="magenta"/>
  <circle cx="555.685" cy="495.77" r="5.05167" stroke-width="0.5" stroke="black" fill="magenta"/>
   </g>
   <g id="cell23">
  <circle cx="543.912" cy="485.828" r="8.41271" stroke-width="0.5" stroke="black" fill="magenta"/>
  <circle cx="543.912" cy="485.828" r="5.05167" stroke-width="0.5" stroke="black" fill="magenta"/>
   </g>
   <g id="cell24">
  <circle cx="559.21" cy="380.07" r="8.41271" stroke-width="0.5" stroke="black" fill="magenta"/>
  <circle cx="559.21" cy="380.07" r="5.05167" stroke-width="0.5" stroke="black" fill="magenta"/>
   </g>
   <g id="cell25">
  <circle cx="645.668" cy="545.257" r="8.30618" stroke-width="0.5" stroke="black" fill="green"/>
  <circle cx="645.668" cy="545.257" r="5.00727" stroke-width="0.5" stroke="black" fill="green"/>
   </g>
   <g id="cell26">
  <circle cx="554.088" cy="398.597" r="7.02257" stroke-width="0.5" stroke="black" fill="green"/>
  <circle cx="554.088" cy="398.597" r="4.25644" stroke-width="0.5" stroke="black" fill="green"/>
   </g>
   <g id="cell27">
  <circle cx="463.522" cy="389.607" r="8.347" stroke-width="0.5" stroke="black" fill="green"/>
  <circle cx="463.522" cy="389.607" r="5.02586" stroke-width="0.5" stroke="black" fill="green"/>
   </g>
   <g id="cell28">
  <circle cx="433.272" cy="530.71" r="8.41271" stroke-width="0.5" stroke="black" fill="green"/>
  <circle cx="433.272" cy="530.71" r="5.05167" stroke-width="0.5" stroke="black" fill="green"/>
   </g>
   <g id="cell29">
  <circle cx="450.457" cy="516.009" r="8.41271" stroke-width="0.5" stroke="black" fill="green"/>
  <circle cx="450.457" cy="516.009" r="5.05167" stroke-width="0.5" stroke="black" fill="green"/>
   </g>
   <g id="cell30">
  <circle cx="481.032" cy="534.576" r="8.14594" stroke-width="0.5" stroke="black" fill="green"/>
  <circle cx="481.032" cy="534.576" r="4.92726" stroke-width="0.5" stroke="black" fill="green"/>
   </g>
   <g id="cell31">
  <circle cx="412.775" cy="541.329" r="8.41271" stroke-width="0.5" stroke="black" fill="green"/>
  <circle cx="412.775" cy="541.329" r="5.05167" stroke-width="0.5" stroke="black" fill="green"/>
   </g>
   <g id="cell32">
  <circle cx="421.473" cy="481.515" r="8.04604" stroke-width="0.5" stroke="black" fill="green"/>
  <circle cx="421.473" cy="481.515" r="4.87399" stroke-width="0.5" stroke="black" fill="green"/>
   </g>
   <g id="cell33">
  <circle cx="498.211" cy="424.046" r="8.41271" stroke-width="0.5" stroke="black" fill="green"/>
  <circle cx="498.211" cy="424.046" r="5.05167" stroke-width="0.5" stroke="black" fill="green"/>
   </g>
   <g id="cell34">
  <circle cx="397.088" cy="450.831" r="8.41271" stroke-width="0.5" stroke="black" fill="green"/>
  <circle cx="397.088" cy="450.831" r="5.05167" stroke-width="0.5" stroke="black" fill="green"/>
   </g>
   <g id="cell35">
  <circle cx="552.598" cy="540.798" r="8.41271" stroke-width="0.5" stroke="black" fill="green"/>
  <circle cx="552.598" cy="540.798" r="5.05167" stroke-width="0.5" stroke="black" fill="green"/>
   </g>
   <g id="cell36">
  <circle cx="391.486" cy="582.903" r="8.41271" stroke-width="0.5" stroke="black" fill="green"/>
  <circle cx="391.486" cy="582.903" r="5.05167" stroke-width="0.5" stroke="black" fill="green"/>
   </g>
   <g id="cell37">
  <circle cx="639.794" cy="457.314" r="8.33699" stroke-width="0.5" stroke="black" fill="green"/>
  <circle cx="639.794" cy="457.314" r="5.02141" stroke-width="0.5" stroke="black" fill="green"/>
   </g>
   <g id="cell38">
  <circle cx="529.53" cy="597.223" r="8.32291" stroke-width="0.5" stroke="black" fill="green"/>
  <circle cx="529.53" cy="597.223" r="5.01502" stroke-width="0.5" stroke="black" fill="green"/>
   </g>
   <g id="cell39">
  <circle cx="613.458" cy="490.595" r="8.41271" stroke-width="0.5" stroke="black" fill="green"/>
  <circle cx="613.458" cy="490.595" r="5.05167" stroke-width="0.5" stroke="black" fill="green"/>
   </g>
   <g id="cell40">
  <circle cx="485.348" cy="571.779" r="8.41271" stroke-width="0.5" stroke="black" fill="green"/>
  <circle cx="485.348" cy="571.779" r="5.05167" stroke-width="0.5" stroke="black" fill="green"/>
   </g>
   <g id="cell41">
  <circle cx="364.925" cy="480.252" r="8.41271" stroke-width="0.5" stroke="black" fill="green"/>
  <circle cx="364.925" cy="480.252" r="5.05167" stroke-width="0.5" stroke="black" fill="green"/>
   </g>
   <g id="cell42">
  <circle cx="438.842" cy="494.268" r="8.41271" stroke-width="0.5" stroke="black" fill="green"/>
  <circle cx="438.842" cy="494.268" r="5.05167" stroke-width="0.5" stroke="black" fill="green"/>
   </g>
   <g id="cell43">
  <circle cx="562.507" cy="441.109" r="8.41271" stroke-width="0.5" stroke="black" fill="green"/>
  <circle cx="562.507" cy="441.109" r="5.05167" stroke-width="0.5" stroke="black" fill="green"/>
   </g>
   <g id="cell44">
  <circle cx="475.857" cy="624.021" r="8.41271" stroke-width="0.5" stroke="black" fill="green"/>
  <circle cx="475.857" cy="624.021" r="5.05167" stroke-width="0.5" stroke="black" fill="green"/>
   </g>
   <g id="cell45">
  <circle cx="414.934" cy="556.93" r="7.00193" stroke-width="0.5" stroke="black" fill="green"/>
  <circle cx="414.934" cy="556.93" r="4.27611" stroke-width="0.5" stroke="black" fill="black"/>
   </g>
   <g id="cell46">
  <circle cx="523.935" cy="611.315" r="7.77763" stroke-width="0.5" stroke="black" fill="green"/>
  <circle cx="523.935" cy="611.315" r="4.7232" stroke-width="0.5" stroke="black" fill="green"/>
   </g>
   <g id="cell47">
  <circle cx="503.875" cy="502.717" r="8.02418" stroke-width="0.5" stroke="black" fill="green"/>
  <circle cx="503.875" cy="502.717" r="4.86209" stroke-width="0.5" stroke="black" fill="green"/>
   </g>
   <g id="cell48">
  <circle cx="569.638" cy="602.817" r="6.84383" stroke-width="0.5" stroke="black" fill="green"/>
  <circle cx="569.638" cy="602.817" r="4.19918" stroke-width="0.5" stroke="black" fill="green"/>
   </g>
   <g id="cell49">
  <circle cx="429.904" cy="397.63" r="8.41271" stroke-width="0.5" stroke="black" fill="green"/>
  <circle cx="429.904" cy="397.63" r="5.05167" stroke-width="0.5" stroke="black" fill="green"/>
   </g>
   <g id="cell50">
  <circle cx="514.529" cy="516.12" r="6.58676" stroke-width="0.5" stroke="black" fill="cyan"/>
  <circle cx="514.529" cy="516.12" r="3.97972" stroke-width="0.5" stroke="black" fill="cyan"/>
   </g>
   <g id="cell51">
  <circle cx="398.721" cy="597.201" r="8.41271" stroke-width="0.5" stroke="black" fill="cyan"/>
  <circle cx="398.721" cy="597.201" r="5.05167" stroke-width="0.5" stroke="black" fill="cyan"/>
   </g>
   <g id="cell52">
  <circle cx="518.474" cy="422.697" r="8.41271" stroke-width="0.5" stroke="black" fill="cyan"/>
  <circle cx="518.474" cy="422.697" r="5.05167" stroke-width="0.5" stroke="black" fill="cyan"/>
   </g>
   <g id="cell53">
  <circle cx="572.997" cy="430.161" r="7.87851" stroke-width="0.5" stroke="black" fill="cyan"/>
  <circle cx="572.997" cy="430.161" r="4.78096" stroke-width="0.5" stroke="black" fill="cyan"/>
   </g>
   <g id="cell54">
  <circle cx="482.497" cy="424.365" r="8.09544" stroke-width="0.5" stroke="black" fill="cyan"/>
  <circle cx="482.497" cy="424.365" r="4.90058" stroke-width="0.5" stroke="black" fill="cyan"/>
   </g>
   <g id="cell55">
  <circle cx="524.425" cy="462.57" r="7.90316" stroke-width="0.5" stroke="black" fill="cyan"/>
  <circle cx="524.425" cy="462.57" r="4.80195" stroke-width="0.5" stroke="black" fill="cyan"/>
   </g>
   <g id="cell56">
  <circle cx="617.613" cy="522.333" r="8.41271" stroke-width="0.5" stroke="black" fill="cyan"/>
  <circle cx="617.613" cy="522.333" r="5.05167" stroke-width="0.5" stroke="black" fill="cyan"/>
   </g>
   <g id="cell105">
  <circle cx="509.515" cy="614.012" r="7.77763" stroke-width="0.5" stroke="black" fill="green"/>
  <circle cx="509.515" cy="614.012" r="4.7232" stroke-width="0.5" stroke="black" fill="green"/>
   </g>
   <g id="cell58">
  <circle cx="558.608" cy="480.601" r="8.41271" stroke-width="0.5" stroke="black" fill="cyan"/>
  <circle cx="558.608" cy="480.601" r="5.05167" stroke-width="0.5" stroke="black" fill="cyan"/>
   </g>
   <g id="cell59">
  <circle cx="385.463" cy="439.803" r="8.41271" stroke-width="0.5" stroke="black" fill="cyan"/>
  <circle cx="385.463" cy="439.803" r="5.05167" stroke-width="0.5" stroke="black" fill="cyan"/>
   </g>
   <g id="cell60">
  <circle cx="592.671" cy="473.706" r="8.41271" stroke-width="0.5" stroke="black" fill="cyan"/>
  <circle cx="592.671" cy="473.706" r="5.05167" stroke-width="0.5" stroke="black" fill="cyan"/>
   </g>
   <g id="cell61">
  <circle cx="552.436" cy="619.987" r="8.41271" stroke-width="0.5" stroke="black" fill="cyan"/>
  <circle cx="552.436" cy="619.987" r="5.05167" stroke-width="0.5" stroke="black" fill="cyan"/>
   </g>
   <g id="cell62">
  <circle cx="516.055" cy="447.522" r="8.34884" stroke-width="0.5" stroke="black" fill="cyan"/>
  <circle cx="516.055" cy="447.522" r="5.02667" stroke-width="0.5" stroke="black" fill="cyan"/>
   </g>
   <g id="cell63">
  <circle cx="573.271" cy="541.516" r="8.2239" stroke-width="0.5" stroke="black" fill="cyan"/>
  <circle cx="573.271" cy="541.516" r="4.96725" stroke-width="0.5" stroke="black" fill="cyan"/>
   </g>
   <g id="cell64">
  <circle cx="509.962" cy="636.825" r="8.41271" stroke-width="0.5" stroke="black" fill="cyan"/>
  <circle cx="509.962" cy="636.825" r="5.05167" stroke-width="0.5" stroke="black" fill="cyan"/>
   </g>
   <g id="cell65">
  <circle cx="546.793" cy="470.524" r="8.20088" stroke-width="0.5" stroke="black" fill="cyan"/>
  <circle cx="546.793" cy="470.524" r="4.95562" stroke-width="0.5" stroke="black" fill="cyan"/>
   </g>
   <g id="cell66">
  <circle cx="531.145" cy="533.629" r="8.07654" stroke-width="0.5" stroke="black" fill="cyan"/>
  <circle cx="531.145" cy="533.629" r="4.89046" stroke-width="0.5" stroke="black" fill="cyan"/>
   </g>
   <g id="cell67">
  <circle cx="354.711" cy="492.599" r="8.41271" stroke-width="0.5" stroke="black" fill="cyan"/>
  <circle cx="354.711" cy="492.599" r="5.05167" stroke-width="0.5" stroke="black" fill="cyan"/>
   </g>
   <g id="cell68">
  <circle cx="562.41" cy="553.123" r="8.41271" stroke-width="0.5" stroke="black" fill="cyan"/>
  <circle cx="562.41" cy="553.123" r="5.05167" stroke-width="0.5" stroke="black" fill="cyan"/>
   </g>
   <g id="cell69">
  <circle cx="442.005" cy="460.74" r="8.41271" stroke-width="0.5" stroke="black" fill="cyan"/>
  <circle cx="442.005" cy="460.74" r="5.05167" stroke-width="0.5" stroke="black" fill="cyan"/>
   </g>
   <g id="cell70">
  <circle cx="576.769" cy="476.476" r="8.41271" stroke-width="0.5" stroke="black" fill="cyan"/>
  <circle cx="576.769" cy="476.476" r="5.05167" stroke-width="0.5" stroke="black" fill="cyan"/>
   </g>
   <g id="cell71">
  <circle cx="379.943" cy="526.562" r="7.18097" stroke-width="0.5" stroke="black" fill="cyan"/>
  <circle cx="379.943" cy="526.562" r="4.36015" stroke-width="0.5" stroke="black" fill="cyan"/>
   </g>
   <g id="cell72">
  <circle cx="532.296" cy="511.993" r="8.10448" stroke-width="0.5" stroke="black" fill="cyan"/>
  <circle cx="532.296" cy="511.993" r="4.90539" stroke-width="0.5" stroke="black" fill="cyan"/>
   </g>
   <g id="cell73">
  <circle cx="364.192" cy="552.754" r="8.24438" stroke-width="0.5" stroke="black" fill="cyan"/>
  <circle cx="364.192" cy="552.754" r="4.97746" stroke-width="0.5" stroke="black" fill="cyan"/>
   </g>
   <g id="cell74">
  <circle cx="548.763" cy="442.678" r="7.02257" stroke-width="0.5" stroke="black" fill="cyan"/>
  <circle cx="548.763" cy="442.678" r="4.25644" stroke-width="0.5" stroke="black" fill="cyan"/>
   </g>
   <g id="cell75">
  <circle cx="527.371" cy="436.238" r="8.34884" stroke-width="0.5" stroke="black" fill="cyan"/>
  <circle cx="527.371" cy="436.238" r="5.02667" stroke-width="0.5" stroke="black" fill="cyan"/>
   </g>
   <g id="cell76">
  <circle cx="441.51" cy="382.716" r="7.3405" stroke-width="0.5" stroke="black" fill="green"/>
  <circle cx="441.51" cy="382.716" r="4.49443" stroke-width="0.5" stroke="black" fill="green"/>
   </g>
   <g id="cell77">
  <circle cx="476.153" cy="437.425" r="7.61687" stroke-width="0.5" stroke="black" fill="magenta"/>
  <circle cx="476.153" cy="437.425" r="4.63668" stroke-width="0.5" stroke="black" fill="magenta"/>
   </g>
   <g id="cell78">
  <circle cx="624.543" cy="461.027" r="8.16121" stroke-width="0.5" stroke="black" fill="green"/>
  <circle cx="624.543" cy="461.027" r="4.93967" stroke-width="0.5" stroke="black" fill="green"/>
   </g>
   <g id="cell79">
  <circle cx="517.8" cy="479.495" r="8.32788" stroke-width="0.5" stroke="black" fill="cyan"/>
  <circle cx="517.8" cy="479.495" r="5.01729" stroke-width="0.5" stroke="black" fill="cyan"/>
   </g>
   <g id="cell80">
  <circle cx="539.137" cy="611.079" r="8.27466" stroke-width="0.5" stroke="black" fill="green"/>
  <circle cx="539.137" cy="611.079" r="4.99517" stroke-width="0.5" stroke="black" fill="green"/>
   </g>
   <g id="cell81">
  <circle cx="545.057" cy="596.464" r="8.27466" stroke-width="0.5" stroke="black" fill="green"/>
  <circle cx="545.057" cy="596.464" r="4.99517" stroke-width="0.5" stroke="black" fill="green"/>
   </g>
   <g id="cell82">
  <circle cx="532.865" cy="558.552" r="8.30618" stroke-width="0.5" stroke="black" fill="magenta"/>
  <circle cx="532.865" cy="558.552" r="5.00727" stroke-width="0.5" stroke="black" fill="magenta"/>
   </g>
   <g id="cell83">
  <circle cx="634.545" cy="556.494" r="8.30618" stroke-width="0.5" stroke="black" fill="green"/>
  <circle cx="634.545" cy="556.494" r="5.00727" stroke-width="0.5" stroke="black" fill="green"/>
   </g>
   <g id="cell84">
  <circle cx="519.298" cy="503.318" r="8.25377" stroke-width="0.5" stroke="black" fill="cyan"/>
  <circle cx="519.298" cy="503.318" r="4.98209" stroke-width="0.5" stroke="black" fill="cyan"/>
   </g>
   <g id="cell85">
  <circle cx="352.961" cy="542.272" r="7.92078" stroke-width="0.5" stroke="black" fill="cyan"/>
  <circle cx="352.961" cy="542.272" r="4.81502" stroke-width="0.5" stroke="black" fill="cyan"/>
   </g>
   <g id="cell86">
  <circle cx="504.317" cy="524.786" r="8.23948" stroke-width="0.5" stroke="black" fill="magenta"/>
  <circle cx="504.317" cy="524.786" r="4.97503" stroke-width="0.5" stroke="black" fill="magenta"/>
   </g>
   <g id="cell87">
  <circle cx="577.169" cy="556.166" r="7.70464" stroke-width="0.5" stroke="black" fill="cyan"/>
  <circle cx="577.169" cy="556.166" r="4.69462" stroke-width="0.5" stroke="black" fill="cyan"/>
   </g>
   <g id="cell88">
  <circle cx="448.633" cy="531.291" r="8.20689" stroke-width="0.5" stroke="black" fill="magenta"/>
  <circle cx="448.633" cy="531.291" r="4.95867" stroke-width="0.5" stroke="black" fill="magenta"/>
   </g>
   <g id="cell89">
  <circle cx="553.604" cy="456.416" r="8.20088" stroke-width="0.5" stroke="black" fill="cyan"/>
  <circle cx="553.604" cy="456.416" r="4.95562" stroke-width="0.5" stroke="black" fill="cyan"/>
   </g>
   <g id="cell90">
  <circle cx="630.962" cy="475.157" r="8.16121" stroke-width="0.5" stroke="black" fill="green"/>
  <circle cx="630.962" cy="475.157" r="4.93967" stroke-width="0.5" stroke="black" fill="green"/>
   </g>
   <g id="cell91">
  <circle cx="547.597" cy="555.765" r="7.98721" stroke-width="0.5" stroke="black" fill="magenta"/>
  <circle cx="547.597" cy="555.765" r="4.85501" stroke-width="0.5" stroke="black" fill="magenta"/>
   </g>
   <g id="cell92">
  <circle cx="482.514" cy="549.996" r="8.14594" stroke-width="0.5" stroke="black" fill="green"/>
  <circle cx="482.514" cy="549.996" r="4.92726" stroke-width="0.5" stroke="black" fill="green"/>
   </g>
   <g id="cell93">
  <circle cx="538.424" cy="545.401" r="7.98721" stroke-width="0.5" stroke="black" fill="magenta"/>
  <circle cx="538.424" cy="545.401" r="4.85501" stroke-width="0.5" stroke="black" fill="magenta"/>
   </g>
   <g id="cell94">
  <circle cx="533.043" cy="496.576" r="8.10448" stroke-width="0.5" stroke="black" fill="cyan"/>
  <circle cx="533.043" cy="496.576" r="4.90539" stroke-width="0.5" stroke="black" fill="cyan"/>
   </g>
   <g id="cell95">
  <circle cx="467.115" cy="426.043" r="8.09544" stroke-width="0.5" stroke="black" fill="cyan"/>
  <circle cx="467.115" cy="426.043" r="4.90058" stroke-width="0.5" stroke="black" fill="cyan"/>
   </g>
   <g id="cell96">
  <circle cx="542.61" cy="523.389" r="8.07654" stroke-width="0.5" stroke="black" fill="cyan"/>
  <circle cx="542.61" cy="523.389" r="4.89046" stroke-width="0.5" stroke="black" fill="cyan"/>
   </g>
   <g id="cell97">
  <circle cx="421.909" cy="466.5" r="7.74893" stroke-width="0.5" stroke="black" fill="green"/>
  <circle cx="421.909" cy="466.5" r="4.72356" stroke-width="0.5" stroke="black" fill="green"/>
   </g>
   <g id="cell98">
  <circle cx="493.759" cy="514.083" r="8.02418" stroke-width="0.5" stroke="black" fill="green"/>
  <circle cx="493.759" cy="514.083" r="4.86209" stroke-width="0.5" stroke="black" fill="green"/>
   </g>
   <g id="cell99">
  <circle cx="358.137" cy="528.155" r="7.92078" stroke-width="0.5" stroke="black" fill="cyan"/>
  <circle cx="358.137" cy="528.155" r="4.81502" stroke-width="0.5" stroke="black" fill="cyan"/>
   </g>
   <g id="cell100">
  <circle cx="449.047" cy="395.051" r="7.91379" stroke-width="0.5" stroke="black" fill="green"/>
  <circle cx="449.047" cy="395.051" r="4.80674" stroke-width="0.5" stroke="black" fill="green"/>
   </g>
   <g id="cell101">
  <circle cx="532.557" cy="475.426" r="7.90316" stroke-width="0.5" stroke="black" fill="cyan"/>
  <circle cx="532.557" cy="475.426" r="4.80195" stroke-width="0.5" stroke="black" fill="cyan"/>
   </g>
   <g id="cell102">
  <circle cx="434.507" cy="474.116" r="7.74893" stroke-width="0.5" stroke="black" fill="green"/>
  <circle cx="434.507" cy="474.116" r="4.72356" stroke-width="0.5" stroke="black" fill="green"/>
   </g>
   <g id="cell103">
  <circle cx="577.012" cy="444.942" r="7.87851" stroke-width="0.5" stroke="black" fill="cyan"/>
  <circle cx="577.012" cy="444.942" r="4.78096" stroke-width="0.5" stroke="black" fill="cyan"/>
   </g>
   <g id="cell104">
  <circle cx="591.449" cy="553.638" r="7.70464" stroke-width="0.5" stroke="black" fill="cyan"/>
  <circle cx="591.449" cy="553.638" r="4.69462" stroke-width="0.5" stroke="black" fill="cyan"/>
   </g>
   <g id="cell106">
  <circle cx="462.759" cy="439.973" r="7.61687" stroke-width="0.5" stroke="black" fill="magenta"/>
  <circle cx="462.759" cy="439.973" r="4.63668" stroke-width="0.5" stroke="black" fill="magenta"/>
   </g>
   <g id="cell107">
  <circle cx="454.496" cy="377.785" r="7.3405" stroke-width="0.5" stroke="black" fill="green"/>
  <circle cx="454.496" cy="377.785" r="4.49443" stroke-width="0.5" stroke="black" fill="green"/>
   </g>
   <g id="cell108">
  <circle cx="556.583" cy="605.631" r="7.49456" stroke-width="0.5" stroke="black" fill="green"/>
  <circle cx="556.583" cy="605.631" r="4.55548" stroke-width="0.5" stroke="black" fill="green"/>
   </g>
   <g id="cell109">
  <circle cx="576.757" cy="592.216" r="6.84383" stroke-width="0.5" stroke="black" fill="green"/>
  <circle cx="576.757" cy="592.216" r="4.19918" stroke-width="0.5" stroke="black" fill="green"/>
   </g>
   <g id="cell110">
  <circle cx="373.977" cy="514.194" r="7.18097" stroke-width="0.5" stroke="black" fill="cyan"/>
  <circle cx="373.977" cy="514.194" r="4.36015" stroke-width="0.5" stroke="black" fill="cyan"/>
   </g>
   <g id="cell111">
  <circle cx="454.044" cy="551.943" r="6.97504" stroke-width="0.5" stroke="black" fill="magenta"/>
  <circle cx="454.044" cy="551.943" r="4.25372" stroke-width="0.5" stroke="black" fill="magenta"/>
   </g>
   <g id="cell112">
  <circle cx="511.381" cy="466.865" r="7.0545" stroke-width="0.5" stroke="black" fill="magenta"/>
  <circle cx="511.381" cy="466.865" r="4.27772" stroke-width="0.5" stroke="black" fill="magenta"/>
   </g>
   <g id="cell113">
  <circle cx="542.671" cy="405.465" r="7.02257" stroke-width="0.5" stroke="black" fill="green"/>
  <circle cx="542.671" cy="405.465" r="4.25644" stroke-width="0.5" stroke="black" fill="green"/>
   </g>
   <g id="cell114">
  <circle cx="528.535" cy="450.572" r="5.79963" stroke-width="0.5" stroke="black" fill="cyan"/>
  <circle cx="528.535" cy="450.572" r="3.53881" stroke-width="0.5" stroke="black" fill="cyan"/>
   </g>
   <g id="cell115">
  <circle cx="538.018" cy="446.516" r="5.79963" stroke-width="0.5" stroke="black" fill="cyan"/>
  <circle cx="538.018" cy="446.516" r="3.53881" stroke-width="0.5" stroke="black" fill="cyan"/>
   </g>
   <g id="cell116">
  <circle cx="523.974" cy="523.066" r="6.58676" stroke-width="0.5" stroke="black" fill="cyan"/>
  <circle cx="523.974" cy="523.066" r="3.97972" stroke-width="0.5" stroke="black" fill="cyan"/>
   </g>
  </g>
 </g>
  <rect x="775" y="1035" width="200" height="10" stroke-width="2" stroke="rgb(255,255,255)" fill="rgb(0,0,0)"/>
  <text x="781.25" y="1028.75"
   font-family="Arial" font-size="25" fill="black" >
   200 &#956;m
  </text>
  <text x="25" y="1045"
   font-family="Arial" font-size="18.75" fill="black" >
   0 days, 0 hours, 0 minutes, and 15.3327 seconds
  </text>
  <rect x="0" y="70" width="1000" height="1000" stroke-width="2" stroke="rgb(0,0,0)" fill="none"/>
</svg>
