<?xml version="1.0" encoding="UTF-8" standalone="no"?>
<!-- Created with PhysiCell (http://PhysiCell.MathCancer.org/) -->
<svg 
 xmlns:dc="http://purl.org/dc/elements/1.1/" 
 xmlns:cc="http://creativecommons.org/ns#" 
 xmlns:rdf="http://www.w3.org/1999/02/22-rdf-syntax-ns#" 
 xmlns:svg="http://www.w3.org/2000/svg" 
 xmlns="http://www.w3.org/2000/svg" 
 version="1.1" 
 width="1000" 
 height="1070" 
 id="svg2">
  <rect x="0" y="0" width="1000" height="1070" stroke-width="2" stroke="white" fill="white"/>
  <text x="12.5" y="30"
   font-family="Arial" font-size="25" fill="black" >
   Current time: 0 days, 11 hours, and 18.00 minutes, z = 0.00 &#956;m
  </text>
  <text x="12.5" y="57.5"
   font-family="Arial" font-size="23.75" fill="black" >
   109 agents
  </text>
 <g id="tissue" 
    transform="translate(0,1070) scale(1,-1)">
  <g id="ECM">
  </g>
  <g id="cells">
   <g id="cell0">
  <circle cx="516.583" cy="533.645" r="8.09544" stroke-width="0.5" stroke="black" fill="magenta"/>
  <circle cx="516.583" cy="533.645" r="4.90058" stroke-width="0.5" stroke="black" fill="magenta"/>
   </g>
   <g id="cell1">
  <circle cx="602.492" cy="526.171" r="8.41271" stroke-width="0.5" stroke="black" fill="magenta"/>
  <circle cx="602.492" cy="526.171" r="5.05167" stroke-width="0.5" stroke="black" fill="magenta"/>
   </g>
   <g id="cell2">
  <circle cx="514.184" cy="599.557" r="8.41271" stroke-width="0.5" stroke="black" fill="magenta"/>
  <circle cx="514.184" cy="599.557" r="5.05167" stroke-width="0.5" stroke="black" fill="magenta"/>
   </g>
   <g id="cell3">
  <circle cx="523.82" cy="545.926" r="7.88223" stroke-width="0.5" stroke="black" fill="magenta"/>
  <circle cx="523.82" cy="545.926" r="4.79456" stroke-width="0.5" stroke="black" fill="magenta"/>
   </g>
   <g id="cell4">
  <circle cx="489.341" cy="437.605" r="8.28629" stroke-width="0.5" stroke="black" fill="magenta"/>
  <circle cx="489.341" cy="437.605" r="4.99786" stroke-width="0.5" stroke="black" fill="magenta"/>
   </g>
   <g id="cell5">
  <circle cx="465.032" cy="493.3" r="8.41271" stroke-width="0.5" stroke="black" fill="magenta"/>
  <circle cx="465.032" cy="493.3" r="5.05167" stroke-width="0.5" stroke="black" fill="magenta"/>
   </g>
   <g id="cell6">
  <circle cx="595.637" cy="512.669" r="8.41271" stroke-width="0.5" stroke="black" fill="magenta"/>
  <circle cx="595.637" cy="512.669" r="5.05167" stroke-width="0.5" stroke="black" fill="magenta"/>
   </g>
   <g id="cell7">
  <circle cx="509.234" cy="461.634" r="8.41271" stroke-width="0.5" stroke="black" fill="magenta"/>
  <circle cx="509.234" cy="461.634" r="5.05167" stroke-width="0.5" stroke="black" fill="magenta"/>
   </g>
   <g id="cell8">
  <circle cx="376.397" cy="544.091" r="8.41271" stroke-width="0.5" stroke="black" fill="magenta"/>
  <circle cx="376.397" cy="544.091" r="5.05167" stroke-width="0.5" stroke="black" fill="magenta"/>
   </g>
   <g id="cell9">
  <circle cx="460.472" cy="599.786" r="8.41271" stroke-width="0.5" stroke="black" fill="magenta"/>
  <circle cx="460.472" cy="599.786" r="5.05167" stroke-width="0.5" stroke="black" fill="magenta"/>
   </g>
   <g id="cell10">
  <circle cx="583.447" cy="392.105" r="8.41271" stroke-width="0.5" stroke="black" fill="magenta"/>
  <circle cx="583.447" cy="392.105" r="5.05167" stroke-width="0.5" stroke="black" fill="magenta"/>
   </g>
   <g id="cell11">
  <circle cx="588.831" cy="590.555" r="8.41271" stroke-width="0.5" stroke="black" fill="magenta"/>
  <circle cx="588.831" cy="590.555" r="5.05167" stroke-width="0.5" stroke="black" fill="magenta"/>
   </g>
   <g id="cell12">
  <circle cx="506.781" cy="586.057" r="8.41271" stroke-width="0.5" stroke="black" fill="magenta"/>
  <circle cx="506.781" cy="586.057" r="5.05167" stroke-width="0.5" stroke="black" fill="magenta"/>
   </g>
   <g id="cell13">
  <circle cx="386.194" cy="568.228" r="8.41271" stroke-width="0.5" stroke="black" fill="magenta"/>
  <circle cx="386.194" cy="568.228" r="5.05167" stroke-width="0.5" stroke="black" fill="magenta"/>
   </g>
   <g id="cell14">
  <circle cx="528.604" cy="399.158" r="8.41271" stroke-width="0.5" stroke="black" fill="magenta"/>
  <circle cx="528.604" cy="399.158" r="5.05167" stroke-width="0.5" stroke="black" fill="magenta"/>
   </g>
   <g id="cell15">
  <circle cx="379.65" cy="475.1" r="8.41271" stroke-width="0.5" stroke="black" fill="magenta"/>
  <circle cx="379.65" cy="475.1" r="5.05167" stroke-width="0.5" stroke="black" fill="magenta"/>
   </g>
   <g id="cell16">
  <circle cx="428.96" cy="413.216" r="8.41271" stroke-width="0.5" stroke="black" fill="magenta"/>
  <circle cx="428.96" cy="413.216" r="5.05167" stroke-width="0.5" stroke="black" fill="magenta"/>
   </g>
   <g id="cell17">
  <circle cx="570.361" cy="489.754" r="8.41271" stroke-width="0.5" stroke="black" fill="magenta"/>
  <circle cx="570.361" cy="489.754" r="5.05167" stroke-width="0.5" stroke="black" fill="magenta"/>
   </g>
   <g id="cell18">
  <circle cx="517.426" cy="388.941" r="8.41271" stroke-width="0.5" stroke="black" fill="magenta"/>
  <circle cx="517.426" cy="388.941" r="5.05167" stroke-width="0.5" stroke="black" fill="magenta"/>
   </g>
   <g id="cell19">
  <circle cx="456.538" cy="543.884" r="8.03527" stroke-width="0.5" stroke="black" fill="magenta"/>
  <circle cx="456.538" cy="543.884" r="4.86813" stroke-width="0.5" stroke="black" fill="magenta"/>
   </g>
   <g id="cell20">
  <circle cx="531.16" cy="414.083" r="8.41271" stroke-width="0.5" stroke="black" fill="magenta"/>
  <circle cx="531.16" cy="414.083" r="5.05167" stroke-width="0.5" stroke="black" fill="magenta"/>
   </g>
   <g id="cell21">
  <circle cx="464.368" cy="634.574" r="8.41271" stroke-width="0.5" stroke="black" fill="magenta"/>
  <circle cx="464.368" cy="634.574" r="5.05167" stroke-width="0.5" stroke="black" fill="magenta"/>
   </g>
   <g id="cell22">
  <circle cx="557.633" cy="498.168" r="8.41271" stroke-width="0.5" stroke="black" fill="magenta"/>
  <circle cx="557.633" cy="498.168" r="5.05167" stroke-width="0.5" stroke="black" fill="magenta"/>
   </g>
   <g id="cell23">
  <circle cx="541.5" cy="485.046" r="8.41271" stroke-width="0.5" stroke="black" fill="magenta"/>
  <circle cx="541.5" cy="485.046" r="5.05167" stroke-width="0.5" stroke="black" fill="magenta"/>
   </g>
   <g id="cell24">
  <circle cx="559.282" cy="379.802" r="8.41271" stroke-width="0.5" stroke="black" fill="magenta"/>
  <circle cx="559.282" cy="379.802" r="5.05167" stroke-width="0.5" stroke="black" fill="magenta"/>
   </g>
   <g id="cell25">
  <circle cx="645.608" cy="545.317" r="8.21839" stroke-width="0.5" stroke="black" fill="green"/>
  <circle cx="645.608" cy="545.317" r="4.96448" stroke-width="0.5" stroke="black" fill="green"/>
   </g>
   <g id="cell26">
  <circle cx="551.058" cy="401.24" r="8.41271" stroke-width="0.5" stroke="black" fill="green"/>
  <circle cx="551.058" cy="401.24" r="5.05167" stroke-width="0.5" stroke="black" fill="green"/>
   </g>
   <g id="cell27">
  <circle cx="463.57" cy="390.32" r="8.29331" stroke-width="0.5" stroke="black" fill="green"/>
  <circle cx="463.57" cy="390.32" r="5.0012" stroke-width="0.5" stroke="black" fill="green"/>
   </g>
   <g id="cell28">
  <circle cx="433.778" cy="530.732" r="8.41271" stroke-width="0.5" stroke="black" fill="green"/>
  <circle cx="433.778" cy="530.732" r="5.05167" stroke-width="0.5" stroke="black" fill="green"/>
   </g>
   <g id="cell29">
  <circle cx="450.414" cy="516.403" r="8.41271" stroke-width="0.5" stroke="black" fill="green"/>
  <circle cx="450.414" cy="516.403" r="5.05167" stroke-width="0.5" stroke="black" fill="green"/>
   </g>
   <g id="cell30">
  <circle cx="481.053" cy="534.791" r="7.9229" stroke-width="0.5" stroke="black" fill="green"/>
  <circle cx="481.053" cy="534.791" r="4.80599" stroke-width="0.5" stroke="black" fill="green"/>
   </g>
   <g id="cell31">
  <circle cx="412.757" cy="541.193" r="8.41271" stroke-width="0.5" stroke="black" fill="green"/>
  <circle cx="412.757" cy="541.193" r="5.05167" stroke-width="0.5" stroke="black" fill="green"/>
   </g>
   <g id="cell32">
  <circle cx="421.923" cy="481.064" r="7.7401" stroke-width="0.5" stroke="black" fill="green"/>
  <circle cx="421.923" cy="481.064" r="4.70142" stroke-width="0.5" stroke="black" fill="green"/>
   </g>
   <g id="cell33">
  <circle cx="497.833" cy="424.766" r="8.41271" stroke-width="0.5" stroke="black" fill="green"/>
  <circle cx="497.833" cy="424.766" r="5.05167" stroke-width="0.5" stroke="black" fill="green"/>
   </g>
   <g id="cell34">
  <circle cx="397.088" cy="450.831" r="8.41271" stroke-width="0.5" stroke="black" fill="green"/>
  <circle cx="397.088" cy="450.831" r="5.05167" stroke-width="0.5" stroke="black" fill="green"/>
   </g>
   <g id="cell35">
  <circle cx="551.51" cy="541.393" r="8.41271" stroke-width="0.5" stroke="black" fill="green"/>
  <circle cx="551.51" cy="541.393" r="5.05167" stroke-width="0.5" stroke="black" fill="green"/>
   </g>
   <g id="cell36">
  <circle cx="391.486" cy="582.903" r="8.41271" stroke-width="0.5" stroke="black" fill="green"/>
  <circle cx="391.486" cy="582.903" r="5.05167" stroke-width="0.5" stroke="black" fill="green"/>
   </g>
   <g id="cell37">
  <circle cx="639.689" cy="457.305" r="8.27497" stroke-width="0.5" stroke="black" fill="green"/>
  <circle cx="639.689" cy="457.305" r="4.99242" stroke-width="0.5" stroke="black" fill="green"/>
   </g>
   <g id="cell38">
  <circle cx="529.846" cy="597.515" r="8.24914" stroke-width="0.5" stroke="black" fill="green"/>
  <circle cx="529.846" cy="597.515" r="4.97981" stroke-width="0.5" stroke="black" fill="green"/>
   </g>
   <g id="cell39">
  <circle cx="613.458" cy="490.595" r="8.41271" stroke-width="0.5" stroke="black" fill="green"/>
  <circle cx="613.458" cy="490.595" r="5.05167" stroke-width="0.5" stroke="black" fill="green"/>
   </g>
   <g id="cell40">
  <circle cx="485.348" cy="571.779" r="8.41271" stroke-width="0.5" stroke="black" fill="green"/>
  <circle cx="485.348" cy="571.779" r="5.05167" stroke-width="0.5" stroke="black" fill="green"/>
   </g>
   <g id="cell41">
  <circle cx="364.925" cy="480.252" r="8.41271" stroke-width="0.5" stroke="black" fill="green"/>
  <circle cx="364.925" cy="480.252" r="5.05167" stroke-width="0.5" stroke="black" fill="green"/>
   </g>
   <g id="cell42">
  <circle cx="438.842" cy="494.268" r="8.41271" stroke-width="0.5" stroke="black" fill="green"/>
  <circle cx="438.842" cy="494.268" r="5.05167" stroke-width="0.5" stroke="black" fill="green"/>
   </g>
   <g id="cell43">
  <circle cx="558.514" cy="442.569" r="8.41271" stroke-width="0.5" stroke="black" fill="green"/>
  <circle cx="558.514" cy="442.569" r="5.05167" stroke-width="0.5" stroke="black" fill="green"/>
   </g>
   <g id="cell44">
  <circle cx="475.857" cy="624.021" r="8.41271" stroke-width="0.5" stroke="black" fill="green"/>
  <circle cx="475.857" cy="624.021" r="5.05167" stroke-width="0.5" stroke="black" fill="green"/>
   </g>
   <g id="cell45">
  <circle cx="414.953" cy="557.066" r="8.41271" stroke-width="0.5" stroke="black" fill="green"/>
  <circle cx="414.953" cy="557.066" r="5.05167" stroke-width="0.5" stroke="black" fill="green"/>
   </g>
   <g id="cell46">
  <circle cx="524.143" cy="610.701" r="7.27253" stroke-width="0.5" stroke="black" fill="green"/>
  <circle cx="524.143" cy="610.701" r="4.41835" stroke-width="0.5" stroke="black" fill="green"/>
   </g>
   <g id="cell47">
  <circle cx="504.555" cy="503.319" r="7.70049" stroke-width="0.5" stroke="black" fill="green"/>
  <circle cx="504.555" cy="503.319" r="4.67828" stroke-width="0.5" stroke="black" fill="green"/>
   </g>
   <g id="cell48">
  <circle cx="568.469" cy="601.285" r="5.60504" stroke-width="0.5" stroke="black" fill="green"/>
  <circle cx="568.469" cy="601.285" r="3.40505" stroke-width="0.5" stroke="black" fill="green"/>
   </g>
   <g id="cell49">
  <circle cx="429.827" cy="397.64" r="8.41271" stroke-width="0.5" stroke="black" fill="green"/>
  <circle cx="429.827" cy="397.64" r="5.05167" stroke-width="0.5" stroke="black" fill="green"/>
   </g>
   <g id="cell50">
  <circle cx="519.007" cy="518.865" r="8.1218" stroke-width="0.5" stroke="black" fill="cyan"/>
  <circle cx="519.007" cy="518.865" r="4.91457" stroke-width="0.5" stroke="black" fill="cyan"/>
   </g>
   <g id="cell51">
  <circle cx="398.721" cy="597.201" r="8.41271" stroke-width="0.5" stroke="black" fill="cyan"/>
  <circle cx="398.721" cy="597.201" r="5.05167" stroke-width="0.5" stroke="black" fill="cyan"/>
   </g>
   <g id="cell52">
  <circle cx="519.361" cy="424.286" r="8.41271" stroke-width="0.5" stroke="black" fill="cyan"/>
  <circle cx="519.361" cy="424.286" r="5.05167" stroke-width="0.5" stroke="black" fill="cyan"/>
   </g>
   <g id="cell53">
  <circle cx="572.874" cy="430.133" r="7.44242" stroke-width="0.5" stroke="black" fill="cyan"/>
  <circle cx="572.874" cy="430.133" r="4.52373" stroke-width="0.5" stroke="black" fill="cyan"/>
   </g>
   <g id="cell54">
  <circle cx="482.4" cy="424.193" r="7.83019" stroke-width="0.5" stroke="black" fill="cyan"/>
  <circle cx="482.4" cy="424.193" r="4.75343" stroke-width="0.5" stroke="black" fill="cyan"/>
   </g>
   <g id="cell55">
  <circle cx="523.742" cy="462.902" r="7.47353" stroke-width="0.5" stroke="black" fill="cyan"/>
  <circle cx="523.742" cy="462.902" r="4.55778" stroke-width="0.5" stroke="black" fill="cyan"/>
   </g>
   <g id="cell56">
  <circle cx="617.613" cy="522.333" r="8.41271" stroke-width="0.5" stroke="black" fill="cyan"/>
  <circle cx="617.613" cy="522.333" r="5.05167" stroke-width="0.5" stroke="black" fill="cyan"/>
   </g>
   <g id="cell105">
  <circle cx="510.95" cy="613.82" r="7.27253" stroke-width="0.5" stroke="black" fill="green"/>
  <circle cx="510.95" cy="613.82" r="4.41835" stroke-width="0.5" stroke="black" fill="green"/>
   </g>
   <g id="cell58">
  <circle cx="556.652" cy="482.716" r="8.41271" stroke-width="0.5" stroke="black" fill="cyan"/>
  <circle cx="556.652" cy="482.716" r="5.05167" stroke-width="0.5" stroke="black" fill="cyan"/>
   </g>
   <g id="cell59">
  <circle cx="385.463" cy="439.803" r="8.41271" stroke-width="0.5" stroke="black" fill="cyan"/>
  <circle cx="385.463" cy="439.803" r="5.05167" stroke-width="0.5" stroke="black" fill="cyan"/>
   </g>
   <g id="cell60">
  <circle cx="592.976" cy="473.66" r="8.41271" stroke-width="0.5" stroke="black" fill="cyan"/>
  <circle cx="592.976" cy="473.66" r="5.05167" stroke-width="0.5" stroke="black" fill="cyan"/>
   </g>
   <g id="cell61">
  <circle cx="553.341" cy="618.621" r="8.41271" stroke-width="0.5" stroke="black" fill="cyan"/>
  <circle cx="553.341" cy="618.621" r="5.05167" stroke-width="0.5" stroke="black" fill="cyan"/>
   </g>
   <g id="cell62">
  <circle cx="518.637" cy="449.108" r="8.29667" stroke-width="0.5" stroke="black" fill="cyan"/>
  <circle cx="518.637" cy="449.108" r="5.00279" stroke-width="0.5" stroke="black" fill="cyan"/>
   </g>
   <g id="cell63">
  <circle cx="574.398" cy="541.109" r="8.06667" stroke-width="0.5" stroke="black" fill="cyan"/>
  <circle cx="574.398" cy="541.109" r="4.88515" stroke-width="0.5" stroke="black" fill="cyan"/>
   </g>
   <g id="cell64">
  <circle cx="509.962" cy="636.825" r="8.41271" stroke-width="0.5" stroke="black" fill="cyan"/>
  <circle cx="509.962" cy="636.825" r="5.05167" stroke-width="0.5" stroke="black" fill="cyan"/>
   </g>
   <g id="cell65">
  <circle cx="546.792" cy="470.81" r="8.02418" stroke-width="0.5" stroke="black" fill="cyan"/>
  <circle cx="546.792" cy="470.81" r="4.86209" stroke-width="0.5" stroke="black" fill="cyan"/>
   </g>
   <g id="cell66">
  <circle cx="531.055" cy="532.859" r="7.79564" stroke-width="0.5" stroke="black" fill="cyan"/>
  <circle cx="531.055" cy="532.859" r="4.73359" stroke-width="0.5" stroke="black" fill="cyan"/>
   </g>
   <g id="cell67">
  <circle cx="354.711" cy="492.599" r="8.41271" stroke-width="0.5" stroke="black" fill="cyan"/>
  <circle cx="354.711" cy="492.599" r="5.05167" stroke-width="0.5" stroke="black" fill="cyan"/>
   </g>
   <g id="cell68">
  <circle cx="562.806" cy="552.194" r="8.41271" stroke-width="0.5" stroke="black" fill="cyan"/>
  <circle cx="562.806" cy="552.194" r="5.05167" stroke-width="0.5" stroke="black" fill="cyan"/>
   </g>
   <g id="cell69">
  <circle cx="441.742" cy="461.186" r="8.41271" stroke-width="0.5" stroke="black" fill="cyan"/>
  <circle cx="441.742" cy="461.186" r="5.05167" stroke-width="0.5" stroke="black" fill="cyan"/>
   </g>
   <g id="cell70">
  <circle cx="577.037" cy="475.574" r="8.41271" stroke-width="0.5" stroke="black" fill="cyan"/>
  <circle cx="577.037" cy="475.574" r="5.05167" stroke-width="0.5" stroke="black" fill="cyan"/>
   </g>
   <g id="cell71">
  <circle cx="377.712" cy="520.989" r="8.41271" stroke-width="0.5" stroke="black" fill="cyan"/>
  <circle cx="377.712" cy="520.989" r="5.05167" stroke-width="0.5" stroke="black" fill="cyan"/>
   </g>
   <g id="cell72">
  <circle cx="532.239" cy="511.669" r="7.84675" stroke-width="0.5" stroke="black" fill="cyan"/>
  <circle cx="532.239" cy="511.669" r="4.7629" stroke-width="0.5" stroke="black" fill="cyan"/>
   </g>
   <g id="cell73">
  <circle cx="363.72" cy="552.655" r="8.10448" stroke-width="0.5" stroke="black" fill="cyan"/>
  <circle cx="363.72" cy="552.655" r="4.90539" stroke-width="0.5" stroke="black" fill="cyan"/>
   </g>
   <g id="cell74">
  <circle cx="542.638" cy="444.765" r="8.41271" stroke-width="0.5" stroke="black" fill="cyan"/>
  <circle cx="542.638" cy="444.765" r="5.05167" stroke-width="0.5" stroke="black" fill="cyan"/>
   </g>
   <g id="cell75">
  <circle cx="528.813" cy="437.032" r="8.29667" stroke-width="0.5" stroke="black" fill="cyan"/>
  <circle cx="528.813" cy="437.032" r="5.00279" stroke-width="0.5" stroke="black" fill="cyan"/>
   </g>
   <g id="cell76">
  <circle cx="442.557" cy="382.983" r="6.41415" stroke-width="0.5" stroke="black" fill="green"/>
  <circle cx="442.557" cy="382.983" r="3.93996" stroke-width="0.5" stroke="black" fill="green"/>
   </g>
   <g id="cell77">
  <circle cx="475.823" cy="436.143" r="6.99753" stroke-width="0.5" stroke="black" fill="magenta"/>
  <circle cx="475.823" cy="436.143" r="4.26002" stroke-width="0.5" stroke="black" fill="magenta"/>
   </g>
   <g id="cell78">
  <circle cx="624.753" cy="461.185" r="7.94901" stroke-width="0.5" stroke="black" fill="green"/>
  <circle cx="624.753" cy="461.185" r="4.8295" stroke-width="0.5" stroke="black" fill="green"/>
   </g>
   <g id="cell79">
  <circle cx="516.067" cy="475.652" r="8.25826" stroke-width="0.5" stroke="black" fill="cyan"/>
  <circle cx="516.067" cy="475.652" r="4.98429" stroke-width="0.5" stroke="black" fill="cyan"/>
   </g>
   <g id="cell80">
  <circle cx="538.842" cy="612.026" r="8.16001" stroke-width="0.5" stroke="black" fill="green"/>
  <circle cx="538.842" cy="612.026" r="4.94035" stroke-width="0.5" stroke="black" fill="green"/>
   </g>
   <g id="cell81">
  <circle cx="545.311" cy="597.883" r="8.16001" stroke-width="0.5" stroke="black" fill="green"/>
  <circle cx="545.311" cy="597.883" r="4.94035" stroke-width="0.5" stroke="black" fill="green"/>
   </g>
   <g id="cell82">
  <circle cx="531.904" cy="558.151" r="8.21839" stroke-width="0.5" stroke="black" fill="magenta"/>
  <circle cx="531.904" cy="558.151" r="4.96448" stroke-width="0.5" stroke="black" fill="magenta"/>
   </g>
   <g id="cell83">
  <circle cx="634.605" cy="556.433" r="8.21839" stroke-width="0.5" stroke="black" fill="green"/>
  <circle cx="634.605" cy="556.433" r="4.96448" stroke-width="0.5" stroke="black" fill="green"/>
   </g>
   <g id="cell84">
  <circle cx="519.41" cy="503.498" r="8.1218" stroke-width="0.5" stroke="black" fill="cyan"/>
  <circle cx="519.41" cy="503.498" r="4.91457" stroke-width="0.5" stroke="black" fill="cyan"/>
   </g>
   <g id="cell85">
  <circle cx="353.385" cy="542.067" r="7.49733" stroke-width="0.5" stroke="black" fill="cyan"/>
  <circle cx="353.385" cy="542.067" r="4.57882" stroke-width="0.5" stroke="black" fill="cyan"/>
   </g>
   <g id="cell86">
  <circle cx="505.226" cy="524.824" r="8.09544" stroke-width="0.5" stroke="black" fill="magenta"/>
  <circle cx="505.226" cy="524.824" r="4.90058" stroke-width="0.5" stroke="black" fill="magenta"/>
   </g>
   <g id="cell87">
  <circle cx="577.102" cy="555.231" r="7.10585" stroke-width="0.5" stroke="black" fill="cyan"/>
  <circle cx="577.102" cy="555.231" r="4.34544" stroke-width="0.5" stroke="black" fill="cyan"/>
   </g>
   <g id="cell88">
  <circle cx="448.993" cy="531.569" r="8.03527" stroke-width="0.5" stroke="black" fill="magenta"/>
  <circle cx="448.993" cy="531.569" r="4.86813" stroke-width="0.5" stroke="black" fill="magenta"/>
   </g>
   <g id="cell89">
  <circle cx="552.447" cy="456.857" r="8.02418" stroke-width="0.5" stroke="black" fill="cyan"/>
  <circle cx="552.447" cy="456.857" r="4.86209" stroke-width="0.5" stroke="black" fill="cyan"/>
   </g>
   <g id="cell90">
  <circle cx="630.858" cy="475.007" r="7.94901" stroke-width="0.5" stroke="black" fill="green"/>
  <circle cx="630.858" cy="475.007" r="4.8295" stroke-width="0.5" stroke="black" fill="green"/>
   </g>
   <g id="cell91">
  <circle cx="546.26" cy="555.63" r="7.61625" stroke-width="0.5" stroke="black" fill="magenta"/>
  <circle cx="546.26" cy="555.63" r="4.65585" stroke-width="0.5" stroke="black" fill="magenta"/>
   </g>
   <g id="cell92">
  <circle cx="482.493" cy="549.781" r="7.9229" stroke-width="0.5" stroke="black" fill="green"/>
  <circle cx="482.493" cy="549.781" r="4.80599" stroke-width="0.5" stroke="black" fill="green"/>
   </g>
   <g id="cell93">
  <circle cx="537.526" cy="545.268" r="7.61625" stroke-width="0.5" stroke="black" fill="magenta"/>
  <circle cx="537.526" cy="545.268" r="4.65585" stroke-width="0.5" stroke="black" fill="magenta"/>
   </g>
   <g id="cell94">
  <circle cx="532.841" cy="496.987" r="7.84675" stroke-width="0.5" stroke="black" fill="cyan"/>
  <circle cx="532.841" cy="496.987" r="4.7629" stroke-width="0.5" stroke="black" fill="cyan"/>
   </g>
   <g id="cell95">
  <circle cx="467.341" cy="425.503" r="7.83019" stroke-width="0.5" stroke="black" fill="cyan"/>
  <circle cx="467.341" cy="425.503" r="4.75343" stroke-width="0.5" stroke="black" fill="cyan"/>
   </g>
   <g id="cell96">
  <circle cx="541.898" cy="522.8" r="7.79564" stroke-width="0.5" stroke="black" fill="cyan"/>
  <circle cx="541.898" cy="522.8" r="4.73359" stroke-width="0.5" stroke="black" fill="cyan"/>
   </g>
   <g id="cell97">
  <circle cx="422.237" cy="466.887" r="7.16397" stroke-width="0.5" stroke="black" fill="green"/>
  <circle cx="422.237" cy="466.887" r="4.38928" stroke-width="0.5" stroke="black" fill="green"/>
   </g>
   <g id="cell98">
  <circle cx="495.16" cy="514.415" r="7.70049" stroke-width="0.5" stroke="black" fill="green"/>
  <circle cx="495.16" cy="514.415" r="4.67828" stroke-width="0.5" stroke="black" fill="green"/>
   </g>
   <g id="cell99">
  <circle cx="357.973" cy="528.618" r="7.49733" stroke-width="0.5" stroke="black" fill="cyan"/>
  <circle cx="357.973" cy="528.618" r="4.57882" stroke-width="0.5" stroke="black" fill="cyan"/>
   </g>
   <g id="cell100">
  <circle cx="449.157" cy="394.381" r="7.49495" stroke-width="0.5" stroke="black" fill="green"/>
  <circle cx="449.157" cy="394.381" r="4.56822" stroke-width="0.5" stroke="black" fill="green"/>
   </g>
   <g id="cell101">
  <circle cx="532.446" cy="473.643" r="7.47353" stroke-width="0.5" stroke="black" fill="cyan"/>
  <circle cx="532.446" cy="473.643" r="4.55778" stroke-width="0.5" stroke="black" fill="cyan"/>
   </g>
   <g id="cell102">
  <circle cx="433.991" cy="473.734" r="7.16397" stroke-width="0.5" stroke="black" fill="green"/>
  <circle cx="433.991" cy="473.734" r="4.38928" stroke-width="0.5" stroke="black" fill="green"/>
   </g>
   <g id="cell103">
  <circle cx="573.472" cy="444.245" r="7.44242" stroke-width="0.5" stroke="black" fill="cyan"/>
  <circle cx="573.472" cy="444.245" r="4.52373" stroke-width="0.5" stroke="black" fill="cyan"/>
   </g>
   <g id="cell104">
  <circle cx="590.409" cy="553.788" r="7.10585" stroke-width="0.5" stroke="black" fill="cyan"/>
  <circle cx="590.409" cy="553.788" r="4.34544" stroke-width="0.5" stroke="black" fill="cyan"/>
   </g>
   <g id="cell106">
  <circle cx="464.411" cy="441.089" r="6.99753" stroke-width="0.5" stroke="black" fill="magenta"/>
  <circle cx="464.411" cy="441.089" r="4.26002" stroke-width="0.5" stroke="black" fill="magenta"/>
   </g>
   <g id="cell107">
  <circle cx="453.368" cy="377.454" r="6.41415" stroke-width="0.5" stroke="black" fill="green"/>
  <circle cx="453.368" cy="377.454" r="3.93996" stroke-width="0.5" stroke="black" fill="green"/>
   </g>
   <g id="cell108">
  <circle cx="557.443" cy="604.898" r="6.86652" stroke-width="0.5" stroke="black" fill="green"/>
  <circle cx="557.443" cy="604.898" r="4.14883" stroke-width="0.5" stroke="black" fill="green"/>
   </g>
   <g id="cell109">
  <circle cx="576.351" cy="594.268" r="5.60504" stroke-width="0.5" stroke="black" fill="green"/>
  <circle cx="576.351" cy="594.268" r="3.40505" stroke-width="0.5" stroke="black" fill="green"/>
   </g>
  </g>
 </g>
  <rect x="775" y="1035" width="200" height="10" stroke-width="2" stroke="rgb(255,255,255)" fill="rgb(0,0,0)"/>
  <text x="781.25" y="1028.75"
   font-family="Arial" font-size="25" fill="black" >
   200 &#956;m
  </text>
  <text x="25" y="1045"
   font-family="Arial" font-size="18.75" fill="black" >
   0 days, 0 hours, 0 minutes, and 12.8566 seconds
  </text>
  <rect x="0" y="70" width="1000" height="1000" stroke-width="2" stroke="rgb(0,0,0)" fill="none"/>
</svg>
