<?xml version="1.0" encoding="UTF-8" standalone="no"?>
<!-- Created with PhysiCell (http://PhysiCell.MathCancer.org/) -->
<svg 
 xmlns:dc="http://purl.org/dc/elements/1.1/" 
 xmlns:cc="http://creativecommons.org/ns#" 
 xmlns:rdf="http://www.w3.org/1999/02/22-rdf-syntax-ns#" 
 xmlns:svg="http://www.w3.org/2000/svg" 
 xmlns="http://www.w3.org/2000/svg" 
 version="1.1" 
 width="1000" 
 height="1070" 
 id="svg2">
  <rect x="0" y="0" width="1000" height="1070" stroke-width="2" stroke="white" fill="white"/>
  <text x="12.5" y="30"
   font-family="Arial" font-size="25" fill="black" >
   Current time: 0 days, 8 hours, and 30.00 minutes, z = 0.00 &#956;m
  </text>
  <text x="12.5" y="57.5"
   font-family="Arial" font-size="23.75" fill="black" >
   103 agents
  </text>
 <g id="tissue" 
    transform="translate(0,1070) scale(1,-1)">
  <g id="ECM">
  </g>
  <g id="cells">
   <g id="cell0">
  <circle cx="518.428" cy="532.919" r="7.70049" stroke-width="0.5" stroke="black" fill="magenta"/>
  <circle cx="518.428" cy="532.919" r="4.67828" stroke-width="0.5" stroke="black" fill="magenta"/>
   </g>
   <g id="cell1">
  <circle cx="602.492" cy="526.171" r="8.41271" stroke-width="0.5" stroke="black" fill="magenta"/>
  <circle cx="602.492" cy="526.171" r="5.05167" stroke-width="0.5" stroke="black" fill="magenta"/>
   </g>
   <g id="cell2">
  <circle cx="511.395" cy="600.478" r="8.41271" stroke-width="0.5" stroke="black" fill="magenta"/>
  <circle cx="511.395" cy="600.478" r="5.05167" stroke-width="0.5" stroke="black" fill="magenta"/>
   </g>
   <g id="cell3">
  <circle cx="524.736" cy="544.524" r="7.19632" stroke-width="0.5" stroke="black" fill="magenta"/>
  <circle cx="524.736" cy="544.524" r="4.40407" stroke-width="0.5" stroke="black" fill="magenta"/>
   </g>
   <g id="cell4">
  <circle cx="487.802" cy="438.296" r="8.13008" stroke-width="0.5" stroke="black" fill="magenta"/>
  <circle cx="487.802" cy="438.296" r="4.91894" stroke-width="0.5" stroke="black" fill="magenta"/>
   </g>
   <g id="cell5">
  <circle cx="465.032" cy="493.3" r="8.41271" stroke-width="0.5" stroke="black" fill="magenta"/>
  <circle cx="465.032" cy="493.3" r="5.05167" stroke-width="0.5" stroke="black" fill="magenta"/>
   </g>
   <g id="cell6">
  <circle cx="595.637" cy="512.669" r="8.41271" stroke-width="0.5" stroke="black" fill="magenta"/>
  <circle cx="595.637" cy="512.669" r="5.05167" stroke-width="0.5" stroke="black" fill="magenta"/>
   </g>
   <g id="cell7">
  <circle cx="511.111" cy="462.365" r="8.41271" stroke-width="0.5" stroke="black" fill="magenta"/>
  <circle cx="511.111" cy="462.365" r="5.05167" stroke-width="0.5" stroke="black" fill="magenta"/>
   </g>
   <g id="cell8">
  <circle cx="376.153" cy="544.243" r="8.41271" stroke-width="0.5" stroke="black" fill="magenta"/>
  <circle cx="376.153" cy="544.243" r="5.05167" stroke-width="0.5" stroke="black" fill="magenta"/>
   </g>
   <g id="cell9">
  <circle cx="460.472" cy="599.786" r="8.41271" stroke-width="0.5" stroke="black" fill="magenta"/>
  <circle cx="460.472" cy="599.786" r="5.05167" stroke-width="0.5" stroke="black" fill="magenta"/>
   </g>
   <g id="cell10">
  <circle cx="583.447" cy="392.105" r="8.41271" stroke-width="0.5" stroke="black" fill="magenta"/>
  <circle cx="583.447" cy="392.105" r="5.05167" stroke-width="0.5" stroke="black" fill="magenta"/>
   </g>
   <g id="cell11">
  <circle cx="589.748" cy="590.273" r="8.41271" stroke-width="0.5" stroke="black" fill="magenta"/>
  <circle cx="589.748" cy="590.273" r="5.05167" stroke-width="0.5" stroke="black" fill="magenta"/>
   </g>
   <g id="cell12">
  <circle cx="506.675" cy="586.107" r="8.41271" stroke-width="0.5" stroke="black" fill="magenta"/>
  <circle cx="506.675" cy="586.107" r="5.05167" stroke-width="0.5" stroke="black" fill="magenta"/>
   </g>
   <g id="cell13">
  <circle cx="386.194" cy="568.228" r="8.41271" stroke-width="0.5" stroke="black" fill="magenta"/>
  <circle cx="386.194" cy="568.228" r="5.05167" stroke-width="0.5" stroke="black" fill="magenta"/>
   </g>
   <g id="cell14">
  <circle cx="528.569" cy="399.177" r="8.41271" stroke-width="0.5" stroke="black" fill="magenta"/>
  <circle cx="528.569" cy="399.177" r="5.05167" stroke-width="0.5" stroke="black" fill="magenta"/>
   </g>
   <g id="cell15">
  <circle cx="379.65" cy="475.1" r="8.41271" stroke-width="0.5" stroke="black" fill="magenta"/>
  <circle cx="379.65" cy="475.1" r="5.05167" stroke-width="0.5" stroke="black" fill="magenta"/>
   </g>
   <g id="cell16">
  <circle cx="428.96" cy="413.217" r="8.41271" stroke-width="0.5" stroke="black" fill="magenta"/>
  <circle cx="428.96" cy="413.217" r="5.05167" stroke-width="0.5" stroke="black" fill="magenta"/>
   </g>
   <g id="cell17">
  <circle cx="568.764" cy="488.12" r="8.41271" stroke-width="0.5" stroke="black" fill="magenta"/>
  <circle cx="568.764" cy="488.12" r="5.05167" stroke-width="0.5" stroke="black" fill="magenta"/>
   </g>
   <g id="cell18">
  <circle cx="517.416" cy="388.933" r="8.41271" stroke-width="0.5" stroke="black" fill="magenta"/>
  <circle cx="517.416" cy="388.933" r="5.05167" stroke-width="0.5" stroke="black" fill="magenta"/>
   </g>
   <g id="cell19">
  <circle cx="456.131" cy="543.222" r="7.56839" stroke-width="0.5" stroke="black" fill="magenta"/>
  <circle cx="456.131" cy="543.222" r="4.59998" stroke-width="0.5" stroke="black" fill="magenta"/>
   </g>
   <g id="cell20">
  <circle cx="531.121" cy="414.102" r="8.41271" stroke-width="0.5" stroke="black" fill="magenta"/>
  <circle cx="531.121" cy="414.102" r="5.05167" stroke-width="0.5" stroke="black" fill="magenta"/>
   </g>
   <g id="cell21">
  <circle cx="464.368" cy="634.574" r="8.41271" stroke-width="0.5" stroke="black" fill="magenta"/>
  <circle cx="464.368" cy="634.574" r="5.05167" stroke-width="0.5" stroke="black" fill="magenta"/>
   </g>
   <g id="cell22">
  <circle cx="556.932" cy="497.615" r="8.41271" stroke-width="0.5" stroke="black" fill="magenta"/>
  <circle cx="556.932" cy="497.615" r="5.05167" stroke-width="0.5" stroke="black" fill="magenta"/>
   </g>
   <g id="cell23">
  <circle cx="538.144" cy="484.392" r="8.41271" stroke-width="0.5" stroke="black" fill="magenta"/>
  <circle cx="538.144" cy="484.392" r="5.05167" stroke-width="0.5" stroke="black" fill="magenta"/>
   </g>
   <g id="cell24">
  <circle cx="559.284" cy="379.798" r="8.41271" stroke-width="0.5" stroke="black" fill="magenta"/>
  <circle cx="559.284" cy="379.798" r="5.05167" stroke-width="0.5" stroke="black" fill="magenta"/>
   </g>
   <g id="cell25">
  <circle cx="645.44" cy="545.487" r="7.97646" stroke-width="0.5" stroke="black" fill="green"/>
  <circle cx="645.44" cy="545.487" r="4.83584" stroke-width="0.5" stroke="black" fill="green"/>
   </g>
   <g id="cell26">
  <circle cx="551.103" cy="401.248" r="8.41271" stroke-width="0.5" stroke="black" fill="green"/>
  <circle cx="551.103" cy="401.248" r="5.05167" stroke-width="0.5" stroke="black" fill="green"/>
   </g>
   <g id="cell27">
  <circle cx="463.103" cy="390.598" r="8.14594" stroke-width="0.5" stroke="black" fill="green"/>
  <circle cx="463.103" cy="390.598" r="4.92726" stroke-width="0.5" stroke="black" fill="green"/>
   </g>
   <g id="cell28">
  <circle cx="434.232" cy="530.758" r="8.41271" stroke-width="0.5" stroke="black" fill="green"/>
  <circle cx="434.232" cy="530.758" r="5.05167" stroke-width="0.5" stroke="black" fill="green"/>
   </g>
   <g id="cell29">
  <circle cx="450.364" cy="516.944" r="8.41271" stroke-width="0.5" stroke="black" fill="green"/>
  <circle cx="450.364" cy="516.944" r="5.05167" stroke-width="0.5" stroke="black" fill="green"/>
   </g>
   <g id="cell30">
  <circle cx="481.108" cy="535.363" r="7.33129" stroke-width="0.5" stroke="black" fill="green"/>
  <circle cx="481.108" cy="535.363" r="4.45516" stroke-width="0.5" stroke="black" fill="green"/>
   </g>
   <g id="cell31">
  <circle cx="412.757" cy="541.193" r="8.41271" stroke-width="0.5" stroke="black" fill="green"/>
  <circle cx="412.757" cy="541.193" r="5.05167" stroke-width="0.5" stroke="black" fill="green"/>
   </g>
   <g id="cell32">
  <circle cx="421.745" cy="480.357" r="6.99069" stroke-width="0.5" stroke="black" fill="green"/>
  <circle cx="421.745" cy="480.357" r="4.23498" stroke-width="0.5" stroke="black" fill="green"/>
   </g>
   <g id="cell33">
  <circle cx="495.828" cy="425.097" r="8.41271" stroke-width="0.5" stroke="black" fill="green"/>
  <circle cx="495.828" cy="425.097" r="5.05167" stroke-width="0.5" stroke="black" fill="green"/>
   </g>
   <g id="cell34">
  <circle cx="397.088" cy="450.831" r="8.41271" stroke-width="0.5" stroke="black" fill="green"/>
  <circle cx="397.088" cy="450.831" r="5.05167" stroke-width="0.5" stroke="black" fill="green"/>
   </g>
   <g id="cell35">
  <circle cx="550.898" cy="542.751" r="8.41271" stroke-width="0.5" stroke="black" fill="green"/>
  <circle cx="550.898" cy="542.751" r="5.05167" stroke-width="0.5" stroke="black" fill="green"/>
   </g>
   <g id="cell36">
  <circle cx="391.486" cy="582.903" r="8.41271" stroke-width="0.5" stroke="black" fill="green"/>
  <circle cx="391.486" cy="582.903" r="5.05167" stroke-width="0.5" stroke="black" fill="green"/>
   </g>
   <g id="cell37">
  <circle cx="639.367" cy="457.38" r="8.10448" stroke-width="0.5" stroke="black" fill="green"/>
  <circle cx="639.367" cy="457.38" r="4.90539" stroke-width="0.5" stroke="black" fill="green"/>
   </g>
   <g id="cell38">
  <circle cx="531.838" cy="598.379" r="8.04604" stroke-width="0.5" stroke="black" fill="green"/>
  <circle cx="531.838" cy="598.379" r="4.87399" stroke-width="0.5" stroke="black" fill="green"/>
   </g>
   <g id="cell39">
  <circle cx="613.458" cy="490.595" r="8.41271" stroke-width="0.5" stroke="black" fill="green"/>
  <circle cx="613.458" cy="490.595" r="5.05167" stroke-width="0.5" stroke="black" fill="green"/>
   </g>
   <g id="cell40">
  <circle cx="485.348" cy="571.779" r="8.41271" stroke-width="0.5" stroke="black" fill="green"/>
  <circle cx="485.348" cy="571.779" r="5.05167" stroke-width="0.5" stroke="black" fill="green"/>
   </g>
   <g id="cell41">
  <circle cx="364.925" cy="480.252" r="8.41271" stroke-width="0.5" stroke="black" fill="green"/>
  <circle cx="364.925" cy="480.252" r="5.05167" stroke-width="0.5" stroke="black" fill="green"/>
   </g>
   <g id="cell42">
  <circle cx="438.842" cy="494.268" r="8.41271" stroke-width="0.5" stroke="black" fill="green"/>
  <circle cx="438.842" cy="494.268" r="5.05167" stroke-width="0.5" stroke="black" fill="green"/>
   </g>
   <g id="cell43">
  <circle cx="559.28" cy="444.569" r="8.41271" stroke-width="0.5" stroke="black" fill="green"/>
  <circle cx="559.28" cy="444.569" r="5.05167" stroke-width="0.5" stroke="black" fill="green"/>
   </g>
   <g id="cell44">
  <circle cx="475.857" cy="624.021" r="8.41271" stroke-width="0.5" stroke="black" fill="green"/>
  <circle cx="475.857" cy="624.021" r="5.05167" stroke-width="0.5" stroke="black" fill="green"/>
   </g>
   <g id="cell45">
  <circle cx="414.953" cy="557.066" r="8.41271" stroke-width="0.5" stroke="black" fill="green"/>
  <circle cx="414.953" cy="557.066" r="5.05167" stroke-width="0.5" stroke="black" fill="green"/>
   </g>
   <g id="cell46">
  <circle cx="522.674" cy="611.159" r="8.41271" stroke-width="0.5" stroke="black" fill="green"/>
  <circle cx="522.674" cy="611.159" r="5.05167" stroke-width="0.5" stroke="black" fill="green"/>
   </g>
   <g id="cell47">
  <circle cx="505.997" cy="504.66" r="6.92764" stroke-width="0.5" stroke="black" fill="green"/>
  <circle cx="505.997" cy="504.66" r="4.1918" stroke-width="0.5" stroke="black" fill="green"/>
   </g>
   <g id="cell48">
  <circle cx="563.716" cy="602.521" r="8.41271" stroke-width="0.5" stroke="black" fill="green"/>
  <circle cx="563.716" cy="602.521" r="5.05167" stroke-width="0.5" stroke="black" fill="green"/>
   </g>
   <g id="cell49">
  <circle cx="429.826" cy="397.641" r="8.41271" stroke-width="0.5" stroke="black" fill="green"/>
  <circle cx="429.826" cy="397.641" r="5.05167" stroke-width="0.5" stroke="black" fill="green"/>
   </g>
   <g id="cell50">
  <circle cx="519.847" cy="518.775" r="7.75912" stroke-width="0.5" stroke="black" fill="cyan"/>
  <circle cx="519.847" cy="518.775" r="4.71248" stroke-width="0.5" stroke="black" fill="cyan"/>
   </g>
   <g id="cell51">
  <circle cx="398.721" cy="597.201" r="8.41271" stroke-width="0.5" stroke="black" fill="cyan"/>
  <circle cx="398.721" cy="597.201" r="5.05167" stroke-width="0.5" stroke="black" fill="cyan"/>
   </g>
   <g id="cell52">
  <circle cx="519.898" cy="424.931" r="8.41271" stroke-width="0.5" stroke="black" fill="cyan"/>
  <circle cx="519.898" cy="424.931" r="5.05167" stroke-width="0.5" stroke="black" fill="cyan"/>
   </g>
   <g id="cell53">
  <circle cx="572.065" cy="435.408" r="8.41271" stroke-width="0.5" stroke="black" fill="cyan"/>
  <circle cx="572.065" cy="435.408" r="5.05167" stroke-width="0.5" stroke="black" fill="cyan"/>
   </g>
   <g id="cell54">
  <circle cx="481.23" cy="425.836" r="7.1497" stroke-width="0.5" stroke="black" fill="cyan"/>
  <circle cx="481.23" cy="425.836" r="4.34001" stroke-width="0.5" stroke="black" fill="cyan"/>
   </g>
   <g id="cell55">
  <circle cx="524.289" cy="464.916" r="6.48855" stroke-width="0.5" stroke="black" fill="cyan"/>
  <circle cx="524.289" cy="464.916" r="3.93922" stroke-width="0.5" stroke="black" fill="cyan"/>
   </g>
   <g id="cell56">
  <circle cx="617.613" cy="522.333" r="8.41271" stroke-width="0.5" stroke="black" fill="cyan"/>
  <circle cx="617.613" cy="522.333" r="5.05167" stroke-width="0.5" stroke="black" fill="cyan"/>
   </g>
   <g id="cell57">
  <circle cx="416.924" cy="617.466" r="1.25143" stroke-width="0.5" stroke="black" fill="cyan"/>
  <circle cx="416.924" cy="617.466" r="1.24538" stroke-width="0.5" stroke="black" fill="black"/>
   </g>
   <g id="cell58">
  <circle cx="553.829" cy="482.734" r="8.41271" stroke-width="0.5" stroke="black" fill="cyan"/>
  <circle cx="553.829" cy="482.734" r="5.05167" stroke-width="0.5" stroke="black" fill="cyan"/>
   </g>
   <g id="cell59">
  <circle cx="385.463" cy="439.803" r="8.41271" stroke-width="0.5" stroke="black" fill="cyan"/>
  <circle cx="385.463" cy="439.803" r="5.05167" stroke-width="0.5" stroke="black" fill="cyan"/>
   </g>
   <g id="cell60">
  <circle cx="593.177" cy="473.64" r="8.41271" stroke-width="0.5" stroke="black" fill="cyan"/>
  <circle cx="593.177" cy="473.64" r="5.05167" stroke-width="0.5" stroke="black" fill="cyan"/>
   </g>
   <g id="cell61">
  <circle cx="553.18" cy="614.466" r="8.41271" stroke-width="0.5" stroke="black" fill="cyan"/>
  <circle cx="553.18" cy="614.466" r="5.05167" stroke-width="0.5" stroke="black" fill="cyan"/>
   </g>
   <g id="cell62">
  <circle cx="521.701" cy="451.06" r="8.15353" stroke-width="0.5" stroke="black" fill="cyan"/>
  <circle cx="521.701" cy="451.06" r="4.93122" stroke-width="0.5" stroke="black" fill="cyan"/>
   </g>
   <g id="cell63">
  <circle cx="575.223" cy="540.316" r="7.63698" stroke-width="0.5" stroke="black" fill="cyan"/>
  <circle cx="575.223" cy="540.316" r="4.64085" stroke-width="0.5" stroke="black" fill="cyan"/>
   </g>
   <g id="cell64">
  <circle cx="509.962" cy="636.825" r="8.41271" stroke-width="0.5" stroke="black" fill="cyan"/>
  <circle cx="509.962" cy="636.825" r="5.05167" stroke-width="0.5" stroke="black" fill="cyan"/>
   </g>
   <g id="cell65">
  <circle cx="546.787" cy="470.008" r="7.54436" stroke-width="0.5" stroke="black" fill="cyan"/>
  <circle cx="546.787" cy="470.008" r="4.58555" stroke-width="0.5" stroke="black" fill="cyan"/>
   </g>
   <g id="cell66">
  <circle cx="531.984" cy="533.522" r="7.08639" stroke-width="0.5" stroke="black" fill="cyan"/>
  <circle cx="531.984" cy="533.522" r="4.29876" stroke-width="0.5" stroke="black" fill="cyan"/>
   </g>
   <g id="cell67">
  <circle cx="354.711" cy="492.599" r="8.41271" stroke-width="0.5" stroke="black" fill="cyan"/>
  <circle cx="354.711" cy="492.599" r="5.05167" stroke-width="0.5" stroke="black" fill="cyan"/>
   </g>
   <g id="cell68">
  <circle cx="564.653" cy="551.344" r="8.41271" stroke-width="0.5" stroke="black" fill="cyan"/>
  <circle cx="564.653" cy="551.344" r="5.05167" stroke-width="0.5" stroke="black" fill="cyan"/>
   </g>
   <g id="cell69">
  <circle cx="441.377" cy="461.736" r="8.41271" stroke-width="0.5" stroke="black" fill="cyan"/>
  <circle cx="441.377" cy="461.736" r="5.05167" stroke-width="0.5" stroke="black" fill="cyan"/>
   </g>
   <g id="cell70">
  <circle cx="577.195" cy="474.944" r="8.41271" stroke-width="0.5" stroke="black" fill="cyan"/>
  <circle cx="577.195" cy="474.944" r="5.05167" stroke-width="0.5" stroke="black" fill="cyan"/>
   </g>
   <g id="cell71">
  <circle cx="377.712" cy="520.989" r="8.41271" stroke-width="0.5" stroke="black" fill="cyan"/>
  <circle cx="377.712" cy="520.989" r="5.05167" stroke-width="0.5" stroke="black" fill="cyan"/>
   </g>
   <g id="cell72">
  <circle cx="531.835" cy="511.234" r="7.18097" stroke-width="0.5" stroke="black" fill="cyan"/>
  <circle cx="531.835" cy="511.234" r="4.36015" stroke-width="0.5" stroke="black" fill="cyan"/>
   </g>
   <g id="cell73">
  <circle cx="363.218" cy="551.687" r="7.72056" stroke-width="0.5" stroke="black" fill="cyan"/>
  <circle cx="363.218" cy="551.687" r="4.69003" stroke-width="0.5" stroke="black" fill="cyan"/>
   </g>
   <g id="cell74">
  <circle cx="543.13" cy="444.824" r="8.41271" stroke-width="0.5" stroke="black" fill="cyan"/>
  <circle cx="543.13" cy="444.824" r="5.05167" stroke-width="0.5" stroke="black" fill="cyan"/>
   </g>
   <g id="cell75">
  <circle cx="529.367" cy="437.443" r="8.15353" stroke-width="0.5" stroke="black" fill="cyan"/>
  <circle cx="529.367" cy="437.443" r="4.93122" stroke-width="0.5" stroke="black" fill="cyan"/>
   </g>
   <g id="cell76">
  <circle cx="447.539" cy="381.107" r="6.54983" stroke-width="0.5" stroke="black" fill="green"/>
  <circle cx="447.539" cy="381.107" r="3.97172" stroke-width="0.5" stroke="black" fill="green"/>
   </g>
   <g id="cell77">
  <circle cx="473.137" cy="437.375" r="8.13008" stroke-width="0.5" stroke="black" fill="magenta"/>
  <circle cx="473.137" cy="437.375" r="4.91894" stroke-width="0.5" stroke="black" fill="magenta"/>
   </g>
   <g id="cell78">
  <circle cx="625.305" cy="461.61" r="7.35495" stroke-width="0.5" stroke="black" fill="green"/>
  <circle cx="625.305" cy="461.61" r="4.49471" stroke-width="0.5" stroke="black" fill="green"/>
   </g>
   <g id="cell79">
  <circle cx="516.852" cy="476.704" r="8.06667" stroke-width="0.5" stroke="black" fill="cyan"/>
  <circle cx="516.852" cy="476.704" r="4.88515" stroke-width="0.5" stroke="black" fill="cyan"/>
   </g>
   <g id="cell80">
  <circle cx="538.001" cy="612.134" r="7.83815" stroke-width="0.5" stroke="black" fill="green"/>
  <circle cx="538.001" cy="612.134" r="4.77255" stroke-width="0.5" stroke="black" fill="green"/>
   </g>
   <g id="cell81">
  <circle cx="547.016" cy="600.249" r="7.83815" stroke-width="0.5" stroke="black" fill="green"/>
  <circle cx="547.016" cy="600.249" r="4.77255" stroke-width="0.5" stroke="black" fill="green"/>
   </g>
   <g id="cell82">
  <circle cx="530.881" cy="556.522" r="7.97646" stroke-width="0.5" stroke="black" fill="magenta"/>
  <circle cx="530.881" cy="556.522" r="4.83584" stroke-width="0.5" stroke="black" fill="magenta"/>
   </g>
   <g id="cell83">
  <circle cx="634.772" cy="556.264" r="7.97646" stroke-width="0.5" stroke="black" fill="green"/>
  <circle cx="634.772" cy="556.264" r="4.83584" stroke-width="0.5" stroke="black" fill="green"/>
   </g>
   <g id="cell84">
  <circle cx="519.777" cy="504.054" r="7.75912" stroke-width="0.5" stroke="black" fill="cyan"/>
  <circle cx="519.777" cy="504.054" r="4.71248" stroke-width="0.5" stroke="black" fill="cyan"/>
   </g>
   <g id="cell85">
  <circle cx="354.524" cy="541.584" r="6.38615" stroke-width="0.5" stroke="black" fill="cyan"/>
  <circle cx="354.524" cy="541.584" r="3.90352" stroke-width="0.5" stroke="black" fill="cyan"/>
   </g>
   <g id="cell86">
  <circle cx="507.071" cy="525.325" r="7.70049" stroke-width="0.5" stroke="black" fill="magenta"/>
  <circle cx="507.071" cy="525.325" r="4.67828" stroke-width="0.5" stroke="black" fill="magenta"/>
   </g>
   <g id="cell87">
  <circle cx="579.796" cy="554.061" r="7.63698" stroke-width="0.5" stroke="black" fill="cyan"/>
  <circle cx="579.796" cy="554.061" r="4.64085" stroke-width="0.5" stroke="black" fill="cyan"/>
   </g>
   <g id="cell88">
  <circle cx="448.997" cy="531.664" r="7.56839" stroke-width="0.5" stroke="black" fill="magenta"/>
  <circle cx="448.997" cy="531.664" r="4.59998" stroke-width="0.5" stroke="black" fill="magenta"/>
   </g>
   <g id="cell89">
  <circle cx="551.629" cy="457.105" r="7.54436" stroke-width="0.5" stroke="black" fill="cyan"/>
  <circle cx="551.629" cy="457.105" r="4.58555" stroke-width="0.5" stroke="black" fill="cyan"/>
   </g>
   <g id="cell90">
  <circle cx="630.627" cy="474.507" r="7.35495" stroke-width="0.5" stroke="black" fill="green"/>
  <circle cx="630.627" cy="474.507" r="4.49471" stroke-width="0.5" stroke="black" fill="green"/>
   </g>
   <g id="cell91">
  <circle cx="543.708" cy="554.532" r="6.52653" stroke-width="0.5" stroke="black" fill="magenta"/>
  <circle cx="543.708" cy="554.532" r="4.02358" stroke-width="0.5" stroke="black" fill="magenta"/>
   </g>
   <g id="cell92">
  <circle cx="482.438" cy="549.209" r="7.33129" stroke-width="0.5" stroke="black" fill="green"/>
  <circle cx="482.438" cy="549.209" r="4.45516" stroke-width="0.5" stroke="black" fill="green"/>
   </g>
   <g id="cell93">
  <circle cx="537.077" cy="544.936" r="6.52653" stroke-width="0.5" stroke="black" fill="magenta"/>
  <circle cx="537.077" cy="544.936" r="4.02358" stroke-width="0.5" stroke="black" fill="magenta"/>
   </g>
   <g id="cell94">
  <circle cx="532.441" cy="497.672" r="7.18097" stroke-width="0.5" stroke="black" fill="cyan"/>
  <circle cx="532.441" cy="497.672" r="4.36015" stroke-width="0.5" stroke="black" fill="cyan"/>
   </g>
   <g id="cell95">
  <circle cx="467.905" cy="424.151" r="7.1497" stroke-width="0.5" stroke="black" fill="cyan"/>
  <circle cx="467.905" cy="424.151" r="4.34001" stroke-width="0.5" stroke="black" fill="cyan"/>
   </g>
   <g id="cell96">
  <circle cx="539.148" cy="522.401" r="7.08639" stroke-width="0.5" stroke="black" fill="cyan"/>
  <circle cx="539.148" cy="522.401" r="4.29876" stroke-width="0.5" stroke="black" fill="cyan"/>
   </g>
   <g id="cell97">
  <circle cx="423.43" cy="468.394" r="5.66227" stroke-width="0.5" stroke="black" fill="green"/>
  <circle cx="423.43" cy="468.394" r="3.4428" stroke-width="0.5" stroke="black" fill="green"/>
   </g>
   <g id="cell98">
  <circle cx="498.299" cy="515.208" r="6.92764" stroke-width="0.5" stroke="black" fill="green"/>
  <circle cx="498.299" cy="515.208" r="4.1918" stroke-width="0.5" stroke="black" fill="green"/>
   </g>
   <g id="cell99">
  <circle cx="357.581" cy="529.917" r="6.38615" stroke-width="0.5" stroke="black" fill="cyan"/>
  <circle cx="357.581" cy="529.917" r="3.90352" stroke-width="0.5" stroke="black" fill="cyan"/>
   </g>
   <g id="cell100">
  <circle cx="449.436" cy="393.391" r="6.54983" stroke-width="0.5" stroke="black" fill="green"/>
  <circle cx="449.436" cy="393.391" r="3.97172" stroke-width="0.5" stroke="black" fill="green"/>
   </g>
   <g id="cell101">
  <circle cx="534.117" cy="471.473" r="6.48855" stroke-width="0.5" stroke="black" fill="cyan"/>
  <circle cx="534.117" cy="471.473" r="3.93922" stroke-width="0.5" stroke="black" fill="cyan"/>
   </g>
   <g id="cell102">
  <circle cx="433.342" cy="472.384" r="5.66227" stroke-width="0.5" stroke="black" fill="green"/>
  <circle cx="433.342" cy="472.384" r="3.4428" stroke-width="0.5" stroke="black" fill="green"/>
   </g>
  </g>
 </g>
  <rect x="775" y="1035" width="200" height="10" stroke-width="2" stroke="rgb(255,255,255)" fill="rgb(0,0,0)"/>
  <text x="781.25" y="1028.75"
   font-family="Arial" font-size="25" fill="black" >
   200 &#956;m
  </text>
  <text x="25" y="1045"
   font-family="Arial" font-size="18.75" fill="black" >
   0 days, 0 hours, 0 minutes, and 9.5003 seconds
  </text>
  <rect x="0" y="70" width="1000" height="1000" stroke-width="2" stroke="rgb(0,0,0)" fill="none"/>
</svg>
