<?xml version="1.0" encoding="UTF-8" standalone="no"?>
<!-- Created with PhysiCell (http://PhysiCell.MathCancer.org/) -->
<svg 
 xmlns:dc="http://purl.org/dc/elements/1.1/" 
 xmlns:cc="http://creativecommons.org/ns#" 
 xmlns:rdf="http://www.w3.org/1999/02/22-rdf-syntax-ns#" 
 xmlns:svg="http://www.w3.org/2000/svg" 
 xmlns="http://www.w3.org/2000/svg" 
 version="1.1" 
 width="1000" 
 height="1070" 
 id="svg2">
  <rect x="0" y="0" width="1000" height="1070" stroke-width="2" stroke="white" fill="white"/>
  <text x="12.5" y="30"
   font-family="Arial" font-size="25" fill="black" >
   Current time: 0 days, 8 hours, and 51.00 minutes, z = 0.00 &#956;m
  </text>
  <text x="12.5" y="57.5"
   font-family="Arial" font-size="23.75" fill="black" >
   104 agents
  </text>
 <g id="tissue" 
    transform="translate(0,1070) scale(1,-1)">
  <g id="ECM">
  </g>
  <g id="cells">
   <g id="cell0">
  <circle cx="518.273" cy="532.954" r="7.77763" stroke-width="0.5" stroke="black" fill="magenta"/>
  <circle cx="518.273" cy="532.954" r="4.7232" stroke-width="0.5" stroke="black" fill="magenta"/>
   </g>
   <g id="cell1">
  <circle cx="602.492" cy="526.171" r="8.41271" stroke-width="0.5" stroke="black" fill="magenta"/>
  <circle cx="602.492" cy="526.171" r="5.05167" stroke-width="0.5" stroke="black" fill="magenta"/>
   </g>
   <g id="cell2">
  <circle cx="511.426" cy="600.43" r="8.41271" stroke-width="0.5" stroke="black" fill="magenta"/>
  <circle cx="511.426" cy="600.43" r="5.05167" stroke-width="0.5" stroke="black" fill="magenta"/>
   </g>
   <g id="cell3">
  <circle cx="524.594" cy="544.733" r="7.33197" stroke-width="0.5" stroke="black" fill="magenta"/>
  <circle cx="524.594" cy="544.733" r="4.48377" stroke-width="0.5" stroke="black" fill="magenta"/>
   </g>
   <g id="cell4">
  <circle cx="487.84" cy="438.298" r="8.1609" stroke-width="0.5" stroke="black" fill="magenta"/>
  <circle cx="487.84" cy="438.298" r="4.93506" stroke-width="0.5" stroke="black" fill="magenta"/>
   </g>
   <g id="cell5">
  <circle cx="465.032" cy="493.3" r="8.41271" stroke-width="0.5" stroke="black" fill="magenta"/>
  <circle cx="465.032" cy="493.3" r="5.05167" stroke-width="0.5" stroke="black" fill="magenta"/>
   </g>
   <g id="cell6">
  <circle cx="595.637" cy="512.669" r="8.41271" stroke-width="0.5" stroke="black" fill="magenta"/>
  <circle cx="595.637" cy="512.669" r="5.05167" stroke-width="0.5" stroke="black" fill="magenta"/>
   </g>
   <g id="cell7">
  <circle cx="510.682" cy="462.261" r="8.41271" stroke-width="0.5" stroke="black" fill="magenta"/>
  <circle cx="510.682" cy="462.261" r="5.05167" stroke-width="0.5" stroke="black" fill="magenta"/>
   </g>
   <g id="cell8">
  <circle cx="376.196" cy="544.218" r="8.41271" stroke-width="0.5" stroke="black" fill="magenta"/>
  <circle cx="376.196" cy="544.218" r="5.05167" stroke-width="0.5" stroke="black" fill="magenta"/>
   </g>
   <g id="cell9">
  <circle cx="460.472" cy="599.786" r="8.41271" stroke-width="0.5" stroke="black" fill="magenta"/>
  <circle cx="460.472" cy="599.786" r="5.05167" stroke-width="0.5" stroke="black" fill="magenta"/>
   </g>
   <g id="cell10">
  <circle cx="583.447" cy="392.105" r="8.41271" stroke-width="0.5" stroke="black" fill="magenta"/>
  <circle cx="583.447" cy="392.105" r="5.05167" stroke-width="0.5" stroke="black" fill="magenta"/>
   </g>
   <g id="cell11">
  <circle cx="589.748" cy="590.273" r="8.41271" stroke-width="0.5" stroke="black" fill="magenta"/>
  <circle cx="589.748" cy="590.273" r="5.05167" stroke-width="0.5" stroke="black" fill="magenta"/>
   </g>
   <g id="cell12">
  <circle cx="506.664" cy="586.073" r="8.41271" stroke-width="0.5" stroke="black" fill="magenta"/>
  <circle cx="506.664" cy="586.073" r="5.05167" stroke-width="0.5" stroke="black" fill="magenta"/>
   </g>
   <g id="cell13">
  <circle cx="386.194" cy="568.228" r="8.41271" stroke-width="0.5" stroke="black" fill="magenta"/>
  <circle cx="386.194" cy="568.228" r="5.05167" stroke-width="0.5" stroke="black" fill="magenta"/>
   </g>
   <g id="cell14">
  <circle cx="528.573" cy="399.174" r="8.41271" stroke-width="0.5" stroke="black" fill="magenta"/>
  <circle cx="528.573" cy="399.174" r="5.05167" stroke-width="0.5" stroke="black" fill="magenta"/>
   </g>
   <g id="cell15">
  <circle cx="379.65" cy="475.1" r="8.41271" stroke-width="0.5" stroke="black" fill="magenta"/>
  <circle cx="379.65" cy="475.1" r="5.05167" stroke-width="0.5" stroke="black" fill="magenta"/>
   </g>
   <g id="cell16">
  <circle cx="428.96" cy="413.217" r="8.41271" stroke-width="0.5" stroke="black" fill="magenta"/>
  <circle cx="428.96" cy="413.217" r="5.05167" stroke-width="0.5" stroke="black" fill="magenta"/>
   </g>
   <g id="cell17">
  <circle cx="568.719" cy="488.174" r="8.41271" stroke-width="0.5" stroke="black" fill="magenta"/>
  <circle cx="568.719" cy="488.174" r="5.05167" stroke-width="0.5" stroke="black" fill="magenta"/>
   </g>
   <g id="cell18">
  <circle cx="517.417" cy="388.934" r="8.41271" stroke-width="0.5" stroke="black" fill="magenta"/>
  <circle cx="517.417" cy="388.934" r="5.05167" stroke-width="0.5" stroke="black" fill="magenta"/>
   </g>
   <g id="cell19">
  <circle cx="456.202" cy="543.337" r="7.65871" stroke-width="0.5" stroke="black" fill="magenta"/>
  <circle cx="456.202" cy="543.337" r="4.6537" stroke-width="0.5" stroke="black" fill="magenta"/>
   </g>
   <g id="cell20">
  <circle cx="531.127" cy="414.099" r="8.41271" stroke-width="0.5" stroke="black" fill="magenta"/>
  <circle cx="531.127" cy="414.099" r="5.05167" stroke-width="0.5" stroke="black" fill="magenta"/>
   </g>
   <g id="cell21">
  <circle cx="464.368" cy="634.574" r="8.41271" stroke-width="0.5" stroke="black" fill="magenta"/>
  <circle cx="464.368" cy="634.574" r="5.05167" stroke-width="0.5" stroke="black" fill="magenta"/>
   </g>
   <g id="cell22">
  <circle cx="557.079" cy="498.042" r="8.41271" stroke-width="0.5" stroke="black" fill="magenta"/>
  <circle cx="557.079" cy="498.042" r="5.05167" stroke-width="0.5" stroke="black" fill="magenta"/>
   </g>
   <g id="cell23">
  <circle cx="538.795" cy="484.356" r="8.41271" stroke-width="0.5" stroke="black" fill="magenta"/>
  <circle cx="538.795" cy="484.356" r="5.05167" stroke-width="0.5" stroke="black" fill="magenta"/>
   </g>
   <g id="cell24">
  <circle cx="559.284" cy="379.798" r="8.41271" stroke-width="0.5" stroke="black" fill="magenta"/>
  <circle cx="559.284" cy="379.798" r="5.05167" stroke-width="0.5" stroke="black" fill="magenta"/>
   </g>
   <g id="cell25">
  <circle cx="645.47" cy="545.457" r="8.02418" stroke-width="0.5" stroke="black" fill="green"/>
  <circle cx="645.47" cy="545.457" r="4.86209" stroke-width="0.5" stroke="black" fill="green"/>
   </g>
   <g id="cell26">
  <circle cx="551.098" cy="401.247" r="8.41271" stroke-width="0.5" stroke="black" fill="green"/>
  <circle cx="551.098" cy="401.247" r="5.05167" stroke-width="0.5" stroke="black" fill="green"/>
   </g>
   <g id="cell27">
  <circle cx="463.173" cy="390.582" r="8.17502" stroke-width="0.5" stroke="black" fill="green"/>
  <circle cx="463.173" cy="390.582" r="4.94236" stroke-width="0.5" stroke="black" fill="green"/>
   </g>
   <g id="cell28">
  <circle cx="434.154" cy="530.754" r="8.41271" stroke-width="0.5" stroke="black" fill="green"/>
  <circle cx="434.154" cy="530.754" r="5.05167" stroke-width="0.5" stroke="black" fill="green"/>
   </g>
   <g id="cell29">
  <circle cx="450.372" cy="516.851" r="8.41271" stroke-width="0.5" stroke="black" fill="green"/>
  <circle cx="450.372" cy="516.851" r="5.05167" stroke-width="0.5" stroke="black" fill="green"/>
   </g>
   <g id="cell30">
  <circle cx="481.098" cy="535.267" r="7.44242" stroke-width="0.5" stroke="black" fill="green"/>
  <circle cx="481.098" cy="535.267" r="4.52373" stroke-width="0.5" stroke="black" fill="green"/>
   </g>
   <g id="cell31">
  <circle cx="412.757" cy="541.193" r="8.41271" stroke-width="0.5" stroke="black" fill="green"/>
  <circle cx="412.757" cy="541.193" r="5.05167" stroke-width="0.5" stroke="black" fill="green"/>
   </g>
   <g id="cell32">
  <circle cx="421.847" cy="480.398" r="7.11815" stroke-width="0.5" stroke="black" fill="green"/>
  <circle cx="421.847" cy="480.398" r="4.31954" stroke-width="0.5" stroke="black" fill="green"/>
   </g>
   <g id="cell33">
  <circle cx="496.006" cy="425.193" r="8.41271" stroke-width="0.5" stroke="black" fill="green"/>
  <circle cx="496.006" cy="425.193" r="5.05167" stroke-width="0.5" stroke="black" fill="green"/>
   </g>
   <g id="cell34">
  <circle cx="397.088" cy="450.831" r="8.41271" stroke-width="0.5" stroke="black" fill="green"/>
  <circle cx="397.088" cy="450.831" r="5.05167" stroke-width="0.5" stroke="black" fill="green"/>
   </g>
   <g id="cell35">
  <circle cx="551.023" cy="542.715" r="8.41271" stroke-width="0.5" stroke="black" fill="green"/>
  <circle cx="551.023" cy="542.715" r="5.05167" stroke-width="0.5" stroke="black" fill="green"/>
   </g>
   <g id="cell36">
  <circle cx="391.486" cy="582.903" r="8.41271" stroke-width="0.5" stroke="black" fill="green"/>
  <circle cx="391.486" cy="582.903" r="5.05167" stroke-width="0.5" stroke="black" fill="green"/>
   </g>
   <g id="cell37">
  <circle cx="639.426" cy="457.363" r="8.13813" stroke-width="0.5" stroke="black" fill="green"/>
  <circle cx="639.426" cy="457.363" r="4.92317" stroke-width="0.5" stroke="black" fill="green"/>
   </g>
   <g id="cell38">
  <circle cx="531.838" cy="598.376" r="8.08613" stroke-width="0.5" stroke="black" fill="green"/>
  <circle cx="531.838" cy="598.376" r="4.8956" stroke-width="0.5" stroke="black" fill="green"/>
   </g>
   <g id="cell39">
  <circle cx="613.458" cy="490.595" r="8.41271" stroke-width="0.5" stroke="black" fill="green"/>
  <circle cx="613.458" cy="490.595" r="5.05167" stroke-width="0.5" stroke="black" fill="green"/>
   </g>
   <g id="cell40">
  <circle cx="485.348" cy="571.779" r="8.41271" stroke-width="0.5" stroke="black" fill="green"/>
  <circle cx="485.348" cy="571.779" r="5.05167" stroke-width="0.5" stroke="black" fill="green"/>
   </g>
   <g id="cell41">
  <circle cx="364.925" cy="480.252" r="8.41271" stroke-width="0.5" stroke="black" fill="green"/>
  <circle cx="364.925" cy="480.252" r="5.05167" stroke-width="0.5" stroke="black" fill="green"/>
   </g>
   <g id="cell42">
  <circle cx="438.842" cy="494.268" r="8.41271" stroke-width="0.5" stroke="black" fill="green"/>
  <circle cx="438.842" cy="494.268" r="5.05167" stroke-width="0.5" stroke="black" fill="green"/>
   </g>
   <g id="cell43">
  <circle cx="558.391" cy="443.926" r="8.41271" stroke-width="0.5" stroke="black" fill="green"/>
  <circle cx="558.391" cy="443.926" r="5.05167" stroke-width="0.5" stroke="black" fill="green"/>
   </g>
   <g id="cell44">
  <circle cx="475.857" cy="624.021" r="8.41271" stroke-width="0.5" stroke="black" fill="green"/>
  <circle cx="475.857" cy="624.021" r="5.05167" stroke-width="0.5" stroke="black" fill="green"/>
   </g>
   <g id="cell45">
  <circle cx="414.953" cy="557.066" r="8.41271" stroke-width="0.5" stroke="black" fill="green"/>
  <circle cx="414.953" cy="557.066" r="5.05167" stroke-width="0.5" stroke="black" fill="green"/>
   </g>
   <g id="cell46">
  <circle cx="522.637" cy="611.182" r="8.41271" stroke-width="0.5" stroke="black" fill="green"/>
  <circle cx="522.637" cy="611.182" r="5.05167" stroke-width="0.5" stroke="black" fill="green"/>
   </g>
   <g id="cell47">
  <circle cx="505.828" cy="504.48" r="7.0545" stroke-width="0.5" stroke="black" fill="green"/>
  <circle cx="505.828" cy="504.48" r="4.27772" stroke-width="0.5" stroke="black" fill="green"/>
   </g>
   <g id="cell48">
  <circle cx="563.516" cy="602.402" r="8.41271" stroke-width="0.5" stroke="black" fill="green"/>
  <circle cx="563.516" cy="602.402" r="5.05167" stroke-width="0.5" stroke="black" fill="green"/>
   </g>
   <g id="cell49">
  <circle cx="429.826" cy="397.641" r="8.41271" stroke-width="0.5" stroke="black" fill="green"/>
  <circle cx="429.826" cy="397.641" r="5.05167" stroke-width="0.5" stroke="black" fill="green"/>
   </g>
   <g id="cell50">
  <circle cx="519.758" cy="518.694" r="7.83019" stroke-width="0.5" stroke="black" fill="cyan"/>
  <circle cx="519.758" cy="518.694" r="4.75343" stroke-width="0.5" stroke="black" fill="cyan"/>
   </g>
   <g id="cell51">
  <circle cx="398.721" cy="597.201" r="8.41271" stroke-width="0.5" stroke="black" fill="cyan"/>
  <circle cx="398.721" cy="597.201" r="5.05167" stroke-width="0.5" stroke="black" fill="cyan"/>
   </g>
   <g id="cell52">
  <circle cx="519.816" cy="424.833" r="8.41271" stroke-width="0.5" stroke="black" fill="cyan"/>
  <circle cx="519.816" cy="424.833" r="5.05167" stroke-width="0.5" stroke="black" fill="cyan"/>
   </g>
   <g id="cell53">
  <circle cx="572.9" cy="430.821" r="6.73287" stroke-width="0.5" stroke="black" fill="cyan"/>
  <circle cx="572.9" cy="430.821" r="4.05039" stroke-width="0.5" stroke="black" fill="cyan"/>
   </g>
   <g id="cell54">
  <circle cx="481.251" cy="425.683" r="7.27253" stroke-width="0.5" stroke="black" fill="cyan"/>
  <circle cx="481.251" cy="425.683" r="4.41835" stroke-width="0.5" stroke="black" fill="cyan"/>
   </g>
   <g id="cell55">
  <circle cx="524.081" cy="464.576" r="6.63589" stroke-width="0.5" stroke="black" fill="cyan"/>
  <circle cx="524.081" cy="464.576" r="4.03881" stroke-width="0.5" stroke="black" fill="cyan"/>
   </g>
   <g id="cell56">
  <circle cx="617.613" cy="522.333" r="8.41271" stroke-width="0.5" stroke="black" fill="cyan"/>
  <circle cx="617.613" cy="522.333" r="5.05167" stroke-width="0.5" stroke="black" fill="cyan"/>
   </g>
   <g id="cell57">
  <circle cx="416.924" cy="617.466" r="1.19198" stroke-width="0.5" stroke="black" fill="cyan"/>
  <circle cx="416.924" cy="617.466" r="1.1876" stroke-width="0.5" stroke="black" fill="black"/>
   </g>
   <g id="cell58">
  <circle cx="554.195" cy="483.023" r="8.41271" stroke-width="0.5" stroke="black" fill="cyan"/>
  <circle cx="554.195" cy="483.023" r="5.05167" stroke-width="0.5" stroke="black" fill="cyan"/>
   </g>
   <g id="cell59">
  <circle cx="385.463" cy="439.803" r="8.41271" stroke-width="0.5" stroke="black" fill="cyan"/>
  <circle cx="385.463" cy="439.803" r="5.05167" stroke-width="0.5" stroke="black" fill="cyan"/>
   </g>
   <g id="cell60">
  <circle cx="593.16" cy="473.641" r="8.41271" stroke-width="0.5" stroke="black" fill="cyan"/>
  <circle cx="593.16" cy="473.641" r="5.05167" stroke-width="0.5" stroke="black" fill="cyan"/>
   </g>
   <g id="cell61">
  <circle cx="553.247" cy="614.562" r="8.41271" stroke-width="0.5" stroke="black" fill="cyan"/>
  <circle cx="553.247" cy="614.562" r="5.05167" stroke-width="0.5" stroke="black" fill="cyan"/>
   </g>
   <g id="cell62">
  <circle cx="521.506" cy="451.011" r="8.18177" stroke-width="0.5" stroke="black" fill="cyan"/>
  <circle cx="521.506" cy="451.011" r="4.94584" stroke-width="0.5" stroke="black" fill="cyan"/>
   </g>
   <g id="cell63">
  <circle cx="575.21" cy="540.217" r="7.72056" stroke-width="0.5" stroke="black" fill="cyan"/>
  <circle cx="575.21" cy="540.217" r="4.69003" stroke-width="0.5" stroke="black" fill="cyan"/>
   </g>
   <g id="cell64">
  <circle cx="509.962" cy="636.825" r="8.41271" stroke-width="0.5" stroke="black" fill="cyan"/>
  <circle cx="509.962" cy="636.825" r="5.05167" stroke-width="0.5" stroke="black" fill="cyan"/>
   </g>
   <g id="cell65">
  <circle cx="546.701" cy="470.446" r="7.63698" stroke-width="0.5" stroke="black" fill="cyan"/>
  <circle cx="546.701" cy="470.446" r="4.64085" stroke-width="0.5" stroke="black" fill="cyan"/>
   </g>
   <g id="cell66">
  <circle cx="531.964" cy="533.448" r="7.21189" stroke-width="0.5" stroke="black" fill="cyan"/>
  <circle cx="531.964" cy="533.448" r="4.37993" stroke-width="0.5" stroke="black" fill="cyan"/>
   </g>
   <g id="cell67">
  <circle cx="354.711" cy="492.599" r="8.41271" stroke-width="0.5" stroke="black" fill="cyan"/>
  <circle cx="354.711" cy="492.599" r="5.05167" stroke-width="0.5" stroke="black" fill="cyan"/>
   </g>
   <g id="cell68">
  <circle cx="564.61" cy="551.313" r="8.41271" stroke-width="0.5" stroke="black" fill="cyan"/>
  <circle cx="564.61" cy="551.313" r="5.05167" stroke-width="0.5" stroke="black" fill="cyan"/>
   </g>
   <g id="cell69">
  <circle cx="441.43" cy="461.664" r="8.41271" stroke-width="0.5" stroke="black" fill="cyan"/>
  <circle cx="441.43" cy="461.664" r="5.05167" stroke-width="0.5" stroke="black" fill="cyan"/>
   </g>
   <g id="cell70">
  <circle cx="577.173" cy="475.002" r="8.41271" stroke-width="0.5" stroke="black" fill="cyan"/>
  <circle cx="577.173" cy="475.002" r="5.05167" stroke-width="0.5" stroke="black" fill="cyan"/>
   </g>
   <g id="cell71">
  <circle cx="377.712" cy="520.989" r="8.41271" stroke-width="0.5" stroke="black" fill="cyan"/>
  <circle cx="377.712" cy="520.989" r="5.05167" stroke-width="0.5" stroke="black" fill="cyan"/>
   </g>
   <g id="cell72">
  <circle cx="531.94" cy="511.185" r="7.30216" stroke-width="0.5" stroke="black" fill="cyan"/>
  <circle cx="531.94" cy="511.185" r="4.43696" stroke-width="0.5" stroke="black" fill="cyan"/>
   </g>
   <g id="cell73">
  <circle cx="363.295" cy="551.85" r="7.79564" stroke-width="0.5" stroke="black" fill="cyan"/>
  <circle cx="363.295" cy="551.85" r="4.73359" stroke-width="0.5" stroke="black" fill="cyan"/>
   </g>
   <g id="cell74">
  <circle cx="542.725" cy="444.885" r="8.41271" stroke-width="0.5" stroke="black" fill="cyan"/>
  <circle cx="542.725" cy="444.885" r="5.05167" stroke-width="0.5" stroke="black" fill="cyan"/>
   </g>
   <g id="cell75">
  <circle cx="529.122" cy="437.426" r="8.18177" stroke-width="0.5" stroke="black" fill="cyan"/>
  <circle cx="529.122" cy="437.426" r="4.94584" stroke-width="0.5" stroke="black" fill="cyan"/>
   </g>
   <g id="cell76">
  <circle cx="447.523" cy="380.996" r="6.68854" stroke-width="0.5" stroke="black" fill="green"/>
  <circle cx="447.523" cy="380.996" r="4.0664" stroke-width="0.5" stroke="black" fill="green"/>
   </g>
   <g id="cell77">
  <circle cx="473.144" cy="437.406" r="8.1609" stroke-width="0.5" stroke="black" fill="magenta"/>
  <circle cx="473.144" cy="437.406" r="4.93506" stroke-width="0.5" stroke="black" fill="magenta"/>
   </g>
   <g id="cell78">
  <circle cx="625.208" cy="461.536" r="7.47223" stroke-width="0.5" stroke="black" fill="green"/>
  <circle cx="625.208" cy="461.536" r="4.56294" stroke-width="0.5" stroke="black" fill="green"/>
   </g>
   <g id="cell79">
  <circle cx="516.771" cy="476.488" r="8.10448" stroke-width="0.5" stroke="black" fill="cyan"/>
  <circle cx="516.771" cy="476.488" r="4.90539" stroke-width="0.5" stroke="black" fill="cyan"/>
   </g>
   <g id="cell80">
  <circle cx="538.018" cy="612.212" r="7.90244" stroke-width="0.5" stroke="black" fill="green"/>
  <circle cx="538.018" cy="612.212" r="4.80719" stroke-width="0.5" stroke="black" fill="green"/>
   </g>
   <g id="cell81">
  <circle cx="547.148" cy="600.258" r="7.90244" stroke-width="0.5" stroke="black" fill="green"/>
  <circle cx="547.148" cy="600.258" r="4.80719" stroke-width="0.5" stroke="black" fill="green"/>
   </g>
   <g id="cell82">
  <circle cx="530.941" cy="556.842" r="8.02418" stroke-width="0.5" stroke="black" fill="magenta"/>
  <circle cx="530.941" cy="556.842" r="4.86209" stroke-width="0.5" stroke="black" fill="magenta"/>
   </g>
   <g id="cell83">
  <circle cx="634.743" cy="556.294" r="8.02418" stroke-width="0.5" stroke="black" fill="green"/>
  <circle cx="634.743" cy="556.294" r="4.86209" stroke-width="0.5" stroke="black" fill="green"/>
   </g>
   <g id="cell84">
  <circle cx="519.754" cy="503.861" r="7.83019" stroke-width="0.5" stroke="black" fill="cyan"/>
  <circle cx="519.754" cy="503.861" r="4.75343" stroke-width="0.5" stroke="black" fill="cyan"/>
   </g>
   <g id="cell85">
  <circle cx="354.347" cy="541.659" r="6.58474" stroke-width="0.5" stroke="black" fill="cyan"/>
  <circle cx="354.347" cy="541.659" r="4.03016" stroke-width="0.5" stroke="black" fill="cyan"/>
   </g>
   <g id="cell86">
  <circle cx="506.856" cy="525.282" r="7.77763" stroke-width="0.5" stroke="black" fill="magenta"/>
  <circle cx="506.856" cy="525.282" r="4.7232" stroke-width="0.5" stroke="black" fill="magenta"/>
   </g>
   <g id="cell87">
  <circle cx="579.758" cy="554.132" r="7.72056" stroke-width="0.5" stroke="black" fill="cyan"/>
  <circle cx="579.758" cy="554.132" r="4.69003" stroke-width="0.5" stroke="black" fill="cyan"/>
   </g>
   <g id="cell88">
  <circle cx="448.995" cy="531.646" r="7.65871" stroke-width="0.5" stroke="black" fill="magenta"/>
  <circle cx="448.995" cy="531.646" r="4.6537" stroke-width="0.5" stroke="black" fill="magenta"/>
   </g>
   <g id="cell89">
  <circle cx="551.595" cy="457.201" r="7.63698" stroke-width="0.5" stroke="black" fill="cyan"/>
  <circle cx="551.595" cy="457.201" r="4.64085" stroke-width="0.5" stroke="black" fill="cyan"/>
   </g>
   <g id="cell90">
  <circle cx="630.666" cy="474.599" r="7.47223" stroke-width="0.5" stroke="black" fill="green"/>
  <circle cx="630.666" cy="474.599" r="4.56294" stroke-width="0.5" stroke="black" fill="green"/>
   </g>
   <g id="cell91">
  <circle cx="544.049" cy="554.919" r="6.74708" stroke-width="0.5" stroke="black" fill="magenta"/>
  <circle cx="544.049" cy="554.919" r="4.15534" stroke-width="0.5" stroke="black" fill="magenta"/>
   </g>
   <g id="cell92">
  <circle cx="482.448" cy="549.305" r="7.44242" stroke-width="0.5" stroke="black" fill="green"/>
  <circle cx="482.448" cy="549.305" r="4.52373" stroke-width="0.5" stroke="black" fill="green"/>
   </g>
   <g id="cell93">
  <circle cx="537.177" cy="545.073" r="6.74708" stroke-width="0.5" stroke="black" fill="magenta"/>
  <circle cx="537.177" cy="545.073" r="4.15534" stroke-width="0.5" stroke="black" fill="magenta"/>
   </g>
   <g id="cell94">
  <circle cx="532.538" cy="497.451" r="7.30216" stroke-width="0.5" stroke="black" fill="cyan"/>
  <circle cx="532.538" cy="497.451" r="4.43696" stroke-width="0.5" stroke="black" fill="cyan"/>
   </g>
   <g id="cell95">
  <circle cx="467.66" cy="424.175" r="7.27253" stroke-width="0.5" stroke="black" fill="cyan"/>
  <circle cx="467.66" cy="424.175" r="4.41835" stroke-width="0.5" stroke="black" fill="cyan"/>
   </g>
   <g id="cell96">
  <circle cx="539.603" cy="522.368" r="7.21189" stroke-width="0.5" stroke="black" fill="cyan"/>
  <circle cx="539.603" cy="522.368" r="4.37993" stroke-width="0.5" stroke="black" fill="cyan"/>
   </g>
   <g id="cell97">
  <circle cx="423.215" cy="468.178" r="5.90959" stroke-width="0.5" stroke="black" fill="green"/>
  <circle cx="423.215" cy="468.178" r="3.61149" stroke-width="0.5" stroke="black" fill="green"/>
   </g>
   <g id="cell98">
  <circle cx="497.908" cy="515.118" r="7.0545" stroke-width="0.5" stroke="black" fill="green"/>
  <circle cx="497.908" cy="515.118" r="4.27772" stroke-width="0.5" stroke="black" fill="green"/>
   </g>
   <g id="cell99">
  <circle cx="357.638" cy="529.704" r="6.58474" stroke-width="0.5" stroke="black" fill="cyan"/>
  <circle cx="357.638" cy="529.704" r="4.03016" stroke-width="0.5" stroke="black" fill="cyan"/>
   </g>
   <g id="cell100">
  <circle cx="449.382" cy="393.517" r="6.68854" stroke-width="0.5" stroke="black" fill="green"/>
  <circle cx="449.382" cy="393.517" r="4.0664" stroke-width="0.5" stroke="black" fill="green"/>
   </g>
   <g id="cell101">
  <circle cx="533.762" cy="471.714" r="6.63589" stroke-width="0.5" stroke="black" fill="cyan"/>
  <circle cx="533.762" cy="471.714" r="4.03881" stroke-width="0.5" stroke="black" fill="cyan"/>
   </g>
   <g id="cell102">
  <circle cx="433.402" cy="472.631" r="5.90959" stroke-width="0.5" stroke="black" fill="green"/>
  <circle cx="433.402" cy="472.631" r="3.61149" stroke-width="0.5" stroke="black" fill="green"/>
   </g>
   <g id="cell103">
  <circle cx="572.435" cy="443.515" r="6.73287" stroke-width="0.5" stroke="black" fill="cyan"/>
  <circle cx="572.435" cy="443.515" r="4.05039" stroke-width="0.5" stroke="black" fill="cyan"/>
   </g>
  </g>
 </g>
  <rect x="775" y="1035" width="200" height="10" stroke-width="2" stroke="rgb(255,255,255)" fill="rgb(0,0,0)"/>
  <text x="781.25" y="1028.75"
   font-family="Arial" font-size="25" fill="black" >
   200 &#956;m
  </text>
  <text x="25" y="1045"
   font-family="Arial" font-size="18.75" fill="black" >
   0 days, 0 hours, 0 minutes, and 9.9097 seconds
  </text>
  <rect x="0" y="70" width="1000" height="1000" stroke-width="2" stroke="rgb(0,0,0)" fill="none"/>
</svg>
