<?xml version="1.0" encoding="UTF-8" standalone="no"?>
<!-- Created with PhysiCell (http://PhysiCell.MathCancer.org/) -->
<svg 
 xmlns:dc="http://purl.org/dc/elements/1.1/" 
 xmlns:cc="http://creativecommons.org/ns#" 
 xmlns:rdf="http://www.w3.org/1999/02/22-rdf-syntax-ns#" 
 xmlns:svg="http://www.w3.org/2000/svg" 
 xmlns="http://www.w3.org/2000/svg" 
 version="1.1" 
 width="1000" 
 height="1070" 
 id="svg2">
  <rect x="0" y="0" width="1000" height="1070" stroke-width="2" stroke="white" fill="white"/>
  <text x="12.5" y="30"
   font-family="Arial" font-size="25" fill="black" >
   Current time: 0 days, 13 hours, and 36.00 minutes, z = 0.00 &#956;m
  </text>
  <text x="12.5" y="57.5"
   font-family="Arial" font-size="23.75" fill="black" >
   116 agents
  </text>
 <g id="tissue" 
    transform="translate(0,1070) scale(1,-1)">
  <g id="ECM">
  </g>
  <g id="cells">
   <g id="cell0">
  <circle cx="515.981" cy="534.152" r="8.24914" stroke-width="0.5" stroke="black" fill="magenta"/>
  <circle cx="515.981" cy="534.152" r="4.97981" stroke-width="0.5" stroke="black" fill="magenta"/>
   </g>
   <g id="cell1">
  <circle cx="602.492" cy="526.171" r="8.41271" stroke-width="0.5" stroke="black" fill="magenta"/>
  <circle cx="602.492" cy="526.171" r="5.05167" stroke-width="0.5" stroke="black" fill="magenta"/>
   </g>
   <g id="cell2">
  <circle cx="514.256" cy="599.818" r="8.41271" stroke-width="0.5" stroke="black" fill="magenta"/>
  <circle cx="514.256" cy="599.818" r="5.05167" stroke-width="0.5" stroke="black" fill="magenta"/>
   </g>
   <g id="cell3">
  <circle cx="523.965" cy="546.757" r="8.14196" stroke-width="0.5" stroke="black" fill="magenta"/>
  <circle cx="523.965" cy="546.757" r="4.93054" stroke-width="0.5" stroke="black" fill="magenta"/>
   </g>
   <g id="cell4">
  <circle cx="490.501" cy="437.432" r="8.347" stroke-width="0.5" stroke="black" fill="magenta"/>
  <circle cx="490.501" cy="437.432" r="5.02586" stroke-width="0.5" stroke="black" fill="magenta"/>
   </g>
   <g id="cell5">
  <circle cx="465.032" cy="493.3" r="8.41271" stroke-width="0.5" stroke="black" fill="magenta"/>
  <circle cx="465.032" cy="493.3" r="5.05167" stroke-width="0.5" stroke="black" fill="magenta"/>
   </g>
   <g id="cell6">
  <circle cx="595.637" cy="512.669" r="8.41271" stroke-width="0.5" stroke="black" fill="magenta"/>
  <circle cx="595.637" cy="512.669" r="5.05167" stroke-width="0.5" stroke="black" fill="magenta"/>
   </g>
   <g id="cell7">
  <circle cx="504.562" cy="456.089" r="7.11815" stroke-width="0.5" stroke="black" fill="magenta"/>
  <circle cx="504.562" cy="456.089" r="4.31954" stroke-width="0.5" stroke="black" fill="magenta"/>
   </g>
   <g id="cell8">
  <circle cx="376.397" cy="542.836" r="8.41271" stroke-width="0.5" stroke="black" fill="magenta"/>
  <circle cx="376.397" cy="542.836" r="5.05167" stroke-width="0.5" stroke="black" fill="magenta"/>
   </g>
   <g id="cell9">
  <circle cx="460.472" cy="599.786" r="8.41271" stroke-width="0.5" stroke="black" fill="magenta"/>
  <circle cx="460.472" cy="599.786" r="5.05167" stroke-width="0.5" stroke="black" fill="magenta"/>
   </g>
   <g id="cell10">
  <circle cx="583.447" cy="392.105" r="8.41271" stroke-width="0.5" stroke="black" fill="magenta"/>
  <circle cx="583.447" cy="392.105" r="5.05167" stroke-width="0.5" stroke="black" fill="magenta"/>
   </g>
   <g id="cell11">
  <circle cx="590.749" cy="590.134" r="8.41271" stroke-width="0.5" stroke="black" fill="magenta"/>
  <circle cx="590.749" cy="590.134" r="5.05167" stroke-width="0.5" stroke="black" fill="magenta"/>
   </g>
   <g id="cell12">
  <circle cx="507.029" cy="586.501" r="8.41271" stroke-width="0.5" stroke="black" fill="magenta"/>
  <circle cx="507.029" cy="586.501" r="5.05167" stroke-width="0.5" stroke="black" fill="magenta"/>
   </g>
   <g id="cell13">
  <circle cx="386.194" cy="568.228" r="8.41271" stroke-width="0.5" stroke="black" fill="magenta"/>
  <circle cx="386.194" cy="568.228" r="5.05167" stroke-width="0.5" stroke="black" fill="magenta"/>
   </g>
   <g id="cell14">
  <circle cx="529.723" cy="399.233" r="8.41271" stroke-width="0.5" stroke="black" fill="magenta"/>
  <circle cx="529.723" cy="399.233" r="5.05167" stroke-width="0.5" stroke="black" fill="magenta"/>
   </g>
   <g id="cell15">
  <circle cx="379.65" cy="475.1" r="8.41271" stroke-width="0.5" stroke="black" fill="magenta"/>
  <circle cx="379.65" cy="475.1" r="5.05167" stroke-width="0.5" stroke="black" fill="magenta"/>
   </g>
   <g id="cell16">
  <circle cx="428.961" cy="413.2" r="8.41271" stroke-width="0.5" stroke="black" fill="magenta"/>
  <circle cx="428.961" cy="413.2" r="5.05167" stroke-width="0.5" stroke="black" fill="magenta"/>
   </g>
   <g id="cell17">
  <circle cx="570.168" cy="490.868" r="8.41271" stroke-width="0.5" stroke="black" fill="magenta"/>
  <circle cx="570.168" cy="490.868" r="5.05167" stroke-width="0.5" stroke="black" fill="magenta"/>
   </g>
   <g id="cell18">
  <circle cx="518.092" cy="389.515" r="8.41271" stroke-width="0.5" stroke="black" fill="magenta"/>
  <circle cx="518.092" cy="389.515" r="5.05167" stroke-width="0.5" stroke="black" fill="magenta"/>
   </g>
   <g id="cell19">
  <circle cx="458.878" cy="540.339" r="7.04824" stroke-width="0.5" stroke="black" fill="magenta"/>
  <circle cx="458.878" cy="540.339" r="4.29943" stroke-width="0.5" stroke="black" fill="magenta"/>
   </g>
   <g id="cell20">
  <circle cx="531.492" cy="414.292" r="8.41271" stroke-width="0.5" stroke="black" fill="magenta"/>
  <circle cx="531.492" cy="414.292" r="5.05167" stroke-width="0.5" stroke="black" fill="magenta"/>
   </g>
   <g id="cell21">
  <circle cx="464.368" cy="634.574" r="8.41271" stroke-width="0.5" stroke="black" fill="magenta"/>
  <circle cx="464.368" cy="634.574" r="5.05167" stroke-width="0.5" stroke="black" fill="magenta"/>
   </g>
   <g id="cell22">
  <circle cx="555.658" cy="495.653" r="8.41271" stroke-width="0.5" stroke="black" fill="magenta"/>
  <circle cx="555.658" cy="495.653" r="5.05167" stroke-width="0.5" stroke="black" fill="magenta"/>
   </g>
   <g id="cell23">
  <circle cx="544.044" cy="485.695" r="8.41271" stroke-width="0.5" stroke="black" fill="magenta"/>
  <circle cx="544.044" cy="485.695" r="5.05167" stroke-width="0.5" stroke="black" fill="magenta"/>
   </g>
   <g id="cell24">
  <circle cx="559.186" cy="380.155" r="8.41271" stroke-width="0.5" stroke="black" fill="magenta"/>
  <circle cx="559.186" cy="380.155" r="5.05167" stroke-width="0.5" stroke="black" fill="magenta"/>
   </g>
   <g id="cell25">
  <circle cx="645.673" cy="545.252" r="8.31209" stroke-width="0.5" stroke="black" fill="green"/>
  <circle cx="645.673" cy="545.252" r="5.01002" stroke-width="0.5" stroke="black" fill="green"/>
   </g>
   <g id="cell26">
  <circle cx="554.171" cy="398.476" r="7.08639" stroke-width="0.5" stroke="black" fill="green"/>
  <circle cx="554.171" cy="398.476" r="4.29876" stroke-width="0.5" stroke="black" fill="green"/>
   </g>
   <g id="cell27">
  <circle cx="463.567" cy="389.644" r="8.35062" stroke-width="0.5" stroke="black" fill="green"/>
  <circle cx="463.567" cy="389.644" r="5.02745" stroke-width="0.5" stroke="black" fill="green"/>
   </g>
   <g id="cell28">
  <circle cx="433.229" cy="530.709" r="8.41271" stroke-width="0.5" stroke="black" fill="green"/>
  <circle cx="433.229" cy="530.709" r="5.05167" stroke-width="0.5" stroke="black" fill="green"/>
   </g>
   <g id="cell29">
  <circle cx="450.46" cy="515.987" r="8.41271" stroke-width="0.5" stroke="black" fill="green"/>
  <circle cx="450.46" cy="515.987" r="5.05167" stroke-width="0.5" stroke="black" fill="green"/>
   </g>
   <g id="cell30">
  <circle cx="481.03" cy="534.558" r="8.1609" stroke-width="0.5" stroke="black" fill="green"/>
  <circle cx="481.03" cy="534.558" r="4.93506" stroke-width="0.5" stroke="black" fill="green"/>
   </g>
   <g id="cell31">
  <circle cx="412.795" cy="541.474" r="8.41271" stroke-width="0.5" stroke="black" fill="green"/>
  <circle cx="412.795" cy="541.474" r="5.05167" stroke-width="0.5" stroke="black" fill="green"/>
   </g>
   <g id="cell32">
  <circle cx="421.436" cy="481.552" r="8.06667" stroke-width="0.5" stroke="black" fill="green"/>
  <circle cx="421.436" cy="481.552" r="4.88515" stroke-width="0.5" stroke="black" fill="green"/>
   </g>
   <g id="cell33">
  <circle cx="498.248" cy="424.005" r="8.41271" stroke-width="0.5" stroke="black" fill="green"/>
  <circle cx="498.248" cy="424.005" r="5.05167" stroke-width="0.5" stroke="black" fill="green"/>
   </g>
   <g id="cell34">
  <circle cx="397.088" cy="450.831" r="8.41271" stroke-width="0.5" stroke="black" fill="green"/>
  <circle cx="397.088" cy="450.831" r="5.05167" stroke-width="0.5" stroke="black" fill="green"/>
   </g>
   <g id="cell35">
  <circle cx="552.656" cy="540.949" r="8.41271" stroke-width="0.5" stroke="black" fill="green"/>
  <circle cx="552.656" cy="540.949" r="5.05167" stroke-width="0.5" stroke="black" fill="green"/>
   </g>
   <g id="cell36">
  <circle cx="391.486" cy="582.903" r="8.41271" stroke-width="0.5" stroke="black" fill="green"/>
  <circle cx="391.486" cy="582.903" r="5.05167" stroke-width="0.5" stroke="black" fill="green"/>
   </g>
   <g id="cell37">
  <circle cx="639.802" cy="457.318" r="8.34117" stroke-width="0.5" stroke="black" fill="green"/>
  <circle cx="639.802" cy="457.318" r="5.02327" stroke-width="0.5" stroke="black" fill="green"/>
   </g>
   <g id="cell38">
  <circle cx="529.532" cy="597.271" r="8.32788" stroke-width="0.5" stroke="black" fill="green"/>
  <circle cx="529.532" cy="597.271" r="5.01729" stroke-width="0.5" stroke="black" fill="green"/>
   </g>
   <g id="cell39">
  <circle cx="613.458" cy="490.595" r="8.41271" stroke-width="0.5" stroke="black" fill="green"/>
  <circle cx="613.458" cy="490.595" r="5.05167" stroke-width="0.5" stroke="black" fill="green"/>
   </g>
   <g id="cell40">
  <circle cx="485.348" cy="571.779" r="8.41271" stroke-width="0.5" stroke="black" fill="green"/>
  <circle cx="485.348" cy="571.779" r="5.05167" stroke-width="0.5" stroke="black" fill="green"/>
   </g>
   <g id="cell41">
  <circle cx="364.925" cy="480.252" r="8.41271" stroke-width="0.5" stroke="black" fill="green"/>
  <circle cx="364.925" cy="480.252" r="5.05167" stroke-width="0.5" stroke="black" fill="green"/>
   </g>
   <g id="cell42">
  <circle cx="438.842" cy="494.268" r="8.41271" stroke-width="0.5" stroke="black" fill="green"/>
  <circle cx="438.842" cy="494.268" r="5.05167" stroke-width="0.5" stroke="black" fill="green"/>
   </g>
   <g id="cell43">
  <circle cx="562.818" cy="441.215" r="8.41271" stroke-width="0.5" stroke="black" fill="green"/>
  <circle cx="562.818" cy="441.215" r="5.05167" stroke-width="0.5" stroke="black" fill="green"/>
   </g>
   <g id="cell44">
  <circle cx="475.857" cy="624.021" r="8.41271" stroke-width="0.5" stroke="black" fill="green"/>
  <circle cx="475.857" cy="624.021" r="5.05167" stroke-width="0.5" stroke="black" fill="green"/>
   </g>
   <g id="cell45">
  <circle cx="414.914" cy="556.785" r="5.95973" stroke-width="0.5" stroke="black" fill="green"/>
  <circle cx="414.914" cy="556.785" r="3.76978" stroke-width="0.5" stroke="black" fill="black"/>
   </g>
   <g id="cell46">
  <circle cx="523.913" cy="611.398" r="7.81315" stroke-width="0.5" stroke="black" fill="green"/>
  <circle cx="523.913" cy="611.398" r="4.74367" stroke-width="0.5" stroke="black" fill="green"/>
   </g>
   <g id="cell47">
  <circle cx="503.885" cy="502.716" r="8.04604" stroke-width="0.5" stroke="black" fill="green"/>
  <circle cx="503.885" cy="502.716" r="4.87399" stroke-width="0.5" stroke="black" fill="green"/>
   </g>
   <g id="cell48">
  <circle cx="569.779" cy="602.982" r="6.93569" stroke-width="0.5" stroke="black" fill="green"/>
  <circle cx="569.779" cy="602.982" r="4.25431" stroke-width="0.5" stroke="black" fill="green"/>
   </g>
   <g id="cell49">
  <circle cx="429.929" cy="397.624" r="8.41271" stroke-width="0.5" stroke="black" fill="green"/>
  <circle cx="429.929" cy="397.624" r="5.05167" stroke-width="0.5" stroke="black" fill="green"/>
   </g>
   <g id="cell50">
  <circle cx="513.824" cy="515.716" r="6.64012" stroke-width="0.5" stroke="black" fill="cyan"/>
  <circle cx="513.824" cy="515.716" r="4.01746" stroke-width="0.5" stroke="black" fill="cyan"/>
   </g>
   <g id="cell51">
  <circle cx="398.721" cy="597.201" r="8.41271" stroke-width="0.5" stroke="black" fill="cyan"/>
  <circle cx="398.721" cy="597.201" r="5.05167" stroke-width="0.5" stroke="black" fill="cyan"/>
   </g>
   <g id="cell52">
  <circle cx="518.508" cy="422.859" r="8.41271" stroke-width="0.5" stroke="black" fill="cyan"/>
  <circle cx="518.508" cy="422.859" r="5.05167" stroke-width="0.5" stroke="black" fill="cyan"/>
   </g>
   <g id="cell53">
  <circle cx="573.254" cy="430.11" r="7.90853" stroke-width="0.5" stroke="black" fill="cyan"/>
  <circle cx="573.254" cy="430.11" r="4.79791" stroke-width="0.5" stroke="black" fill="cyan"/>
   </g>
   <g id="cell54">
  <circle cx="482.52" cy="424.364" r="8.11327" stroke-width="0.5" stroke="black" fill="cyan"/>
  <circle cx="482.52" cy="424.364" r="4.91006" stroke-width="0.5" stroke="black" fill="cyan"/>
   </g>
   <g id="cell55">
  <circle cx="524.428" cy="462.922" r="7.93206" stroke-width="0.5" stroke="black" fill="cyan"/>
  <circle cx="524.428" cy="462.922" r="4.81772" stroke-width="0.5" stroke="black" fill="cyan"/>
   </g>
   <g id="cell56">
  <circle cx="617.613" cy="522.333" r="8.41271" stroke-width="0.5" stroke="black" fill="cyan"/>
  <circle cx="617.613" cy="522.333" r="5.05167" stroke-width="0.5" stroke="black" fill="cyan"/>
   </g>
   <g id="cell105">
  <circle cx="509.394" cy="614.043" r="7.81315" stroke-width="0.5" stroke="black" fill="green"/>
  <circle cx="509.394" cy="614.043" r="4.74367" stroke-width="0.5" stroke="black" fill="green"/>
   </g>
   <g id="cell58">
  <circle cx="558.748" cy="480.463" r="8.41271" stroke-width="0.5" stroke="black" fill="cyan"/>
  <circle cx="558.748" cy="480.463" r="5.05167" stroke-width="0.5" stroke="black" fill="cyan"/>
   </g>
   <g id="cell59">
  <circle cx="385.463" cy="439.803" r="8.41271" stroke-width="0.5" stroke="black" fill="cyan"/>
  <circle cx="385.463" cy="439.803" r="5.05167" stroke-width="0.5" stroke="black" fill="cyan"/>
   </g>
   <g id="cell60">
  <circle cx="592.595" cy="473.72" r="8.41271" stroke-width="0.5" stroke="black" fill="cyan"/>
  <circle cx="592.595" cy="473.72" r="5.05167" stroke-width="0.5" stroke="black" fill="cyan"/>
   </g>
   <g id="cell61">
  <circle cx="552.321" cy="620.111" r="8.41271" stroke-width="0.5" stroke="black" fill="cyan"/>
  <circle cx="552.321" cy="620.111" r="5.05167" stroke-width="0.5" stroke="black" fill="cyan"/>
   </g>
   <g id="cell62">
  <circle cx="515.617" cy="447.233" r="8.35236" stroke-width="0.5" stroke="black" fill="cyan"/>
  <circle cx="515.617" cy="447.233" r="5.02821" stroke-width="0.5" stroke="black" fill="cyan"/>
   </g>
   <g id="cell63">
  <circle cx="573.258" cy="541.535" r="8.23444" stroke-width="0.5" stroke="black" fill="cyan"/>
  <circle cx="573.258" cy="541.535" r="4.97252" stroke-width="0.5" stroke="black" fill="cyan"/>
   </g>
   <g id="cell64">
  <circle cx="509.962" cy="636.825" r="8.41271" stroke-width="0.5" stroke="black" fill="cyan"/>
  <circle cx="509.962" cy="636.825" r="5.05167" stroke-width="0.5" stroke="black" fill="cyan"/>
   </g>
   <g id="cell65">
  <circle cx="546.823" cy="470.413" r="8.21273" stroke-width="0.5" stroke="black" fill="cyan"/>
  <circle cx="546.823" cy="470.413" r="4.96162" stroke-width="0.5" stroke="black" fill="cyan"/>
   </g>
   <g id="cell66">
  <circle cx="531.123" cy="533.536" r="8.09544" stroke-width="0.5" stroke="black" fill="cyan"/>
  <circle cx="531.123" cy="533.536" r="4.90058" stroke-width="0.5" stroke="black" fill="cyan"/>
   </g>
   <g id="cell67">
  <circle cx="354.711" cy="492.599" r="8.41271" stroke-width="0.5" stroke="black" fill="cyan"/>
  <circle cx="354.711" cy="492.599" r="5.05167" stroke-width="0.5" stroke="black" fill="cyan"/>
   </g>
   <g id="cell68">
  <circle cx="562.502" cy="553.208" r="8.41271" stroke-width="0.5" stroke="black" fill="cyan"/>
  <circle cx="562.502" cy="553.208" r="5.05167" stroke-width="0.5" stroke="black" fill="cyan"/>
   </g>
   <g id="cell69">
  <circle cx="442.026" cy="460.703" r="8.41271" stroke-width="0.5" stroke="black" fill="cyan"/>
  <circle cx="442.026" cy="460.703" r="5.05167" stroke-width="0.5" stroke="black" fill="cyan"/>
   </g>
   <g id="cell70">
  <circle cx="576.709" cy="476.594" r="8.41271" stroke-width="0.5" stroke="black" fill="cyan"/>
  <circle cx="576.709" cy="476.594" r="5.05167" stroke-width="0.5" stroke="black" fill="cyan"/>
   </g>
   <g id="cell71">
  <circle cx="379.833" cy="526.898" r="7.24243" stroke-width="0.5" stroke="black" fill="cyan"/>
  <circle cx="379.833" cy="526.898" r="4.39934" stroke-width="0.5" stroke="black" fill="cyan"/>
   </g>
   <g id="cell72">
  <circle cx="532.366" cy="511.834" r="8.1218" stroke-width="0.5" stroke="black" fill="cyan"/>
  <circle cx="532.366" cy="511.834" r="4.91457" stroke-width="0.5" stroke="black" fill="cyan"/>
   </g>
   <g id="cell73">
  <circle cx="364.308" cy="552.69" r="8.25377" stroke-width="0.5" stroke="black" fill="cyan"/>
  <circle cx="364.308" cy="552.69" r="4.98209" stroke-width="0.5" stroke="black" fill="cyan"/>
   </g>
   <g id="cell74">
  <circle cx="548.898" cy="442.414" r="7.08639" stroke-width="0.5" stroke="black" fill="cyan"/>
  <circle cx="548.898" cy="442.414" r="4.29876" stroke-width="0.5" stroke="black" fill="cyan"/>
   </g>
   <g id="cell75">
  <circle cx="527.414" cy="436.495" r="8.35236" stroke-width="0.5" stroke="black" fill="cyan"/>
  <circle cx="527.414" cy="436.495" r="5.02821" stroke-width="0.5" stroke="black" fill="cyan"/>
   </g>
   <g id="cell76">
  <circle cx="441.401" cy="382.703" r="7.40313" stroke-width="0.5" stroke="black" fill="green"/>
  <circle cx="441.401" cy="382.703" r="4.53044" stroke-width="0.5" stroke="black" fill="green"/>
   </g>
   <g id="cell77">
  <circle cx="476.154" cy="437.495" r="7.66138" stroke-width="0.5" stroke="black" fill="magenta"/>
  <circle cx="476.154" cy="437.495" r="4.66249" stroke-width="0.5" stroke="black" fill="magenta"/>
   </g>
   <g id="cell78">
  <circle cx="624.524" cy="461.013" r="8.17534" stroke-width="0.5" stroke="black" fill="green"/>
  <circle cx="624.524" cy="461.013" r="4.9467" stroke-width="0.5" stroke="black" fill="green"/>
   </g>
   <g id="cell79">
  <circle cx="517.774" cy="479.585" r="8.33257" stroke-width="0.5" stroke="black" fill="cyan"/>
  <circle cx="517.774" cy="479.585" r="5.01941" stroke-width="0.5" stroke="black" fill="cyan"/>
   </g>
   <g id="cell80">
  <circle cx="539.175" cy="610.929" r="8.28234" stroke-width="0.5" stroke="black" fill="green"/>
  <circle cx="539.175" cy="610.929" r="4.99869" stroke-width="0.5" stroke="black" fill="green"/>
   </g>
   <g id="cell81">
  <circle cx="545.072" cy="596.29" r="8.28234" stroke-width="0.5" stroke="black" fill="green"/>
  <circle cx="545.072" cy="596.29" r="4.99869" stroke-width="0.5" stroke="black" fill="green"/>
   </g>
   <g id="cell82">
  <circle cx="532.919" cy="558.838" r="8.31209" stroke-width="0.5" stroke="black" fill="magenta"/>
  <circle cx="532.919" cy="558.838" r="5.01002" stroke-width="0.5" stroke="black" fill="magenta"/>
   </g>
   <g id="cell83">
  <circle cx="634.54" cy="556.499" r="8.31209" stroke-width="0.5" stroke="black" fill="green"/>
  <circle cx="634.54" cy="556.499" r="5.01002" stroke-width="0.5" stroke="black" fill="green"/>
   </g>
   <g id="cell84">
  <circle cx="519.351" cy="503.033" r="8.26262" stroke-width="0.5" stroke="black" fill="cyan"/>
  <circle cx="519.351" cy="503.033" r="4.98642" stroke-width="0.5" stroke="black" fill="cyan"/>
   </g>
   <g id="cell85">
  <circle cx="352.931" cy="542.293" r="7.94887" stroke-width="0.5" stroke="black" fill="cyan"/>
  <circle cx="352.931" cy="542.293" r="4.83007" stroke-width="0.5" stroke="black" fill="cyan"/>
   </g>
   <g id="cell86">
  <circle cx="504.095" cy="525.13" r="8.24914" stroke-width="0.5" stroke="black" fill="magenta"/>
  <circle cx="504.095" cy="525.13" r="4.97981" stroke-width="0.5" stroke="black" fill="magenta"/>
   </g>
   <g id="cell87">
  <circle cx="577.276" cy="556.245" r="7.74514" stroke-width="0.5" stroke="black" fill="cyan"/>
  <circle cx="577.276" cy="556.245" r="4.71731" stroke-width="0.5" stroke="black" fill="cyan"/>
   </g>
   <g id="cell88">
  <circle cx="448.607" cy="531.283" r="8.21839" stroke-width="0.5" stroke="black" fill="magenta"/>
  <circle cx="448.607" cy="531.283" r="4.96448" stroke-width="0.5" stroke="black" fill="magenta"/>
   </g>
   <g id="cell89">
  <circle cx="553.642" cy="456.281" r="8.21273" stroke-width="0.5" stroke="black" fill="cyan"/>
  <circle cx="553.642" cy="456.281" r="4.96162" stroke-width="0.5" stroke="black" fill="cyan"/>
   </g>
   <g id="cell90">
  <circle cx="630.973" cy="475.167" r="8.17534" stroke-width="0.5" stroke="black" fill="green"/>
  <circle cx="630.973" cy="475.167" r="4.9467" stroke-width="0.5" stroke="black" fill="green"/>
   </g>
   <g id="cell91">
  <circle cx="547.699" cy="556.092" r="8.01155" stroke-width="0.5" stroke="black" fill="magenta"/>
  <circle cx="547.699" cy="556.092" r="4.86755" stroke-width="0.5" stroke="black" fill="magenta"/>
   </g>
   <g id="cell92">
  <circle cx="482.516" cy="550.014" r="8.1609" stroke-width="0.5" stroke="black" fill="green"/>
  <circle cx="482.516" cy="550.014" r="4.93506" stroke-width="0.5" stroke="black" fill="green"/>
   </g>
   <g id="cell93">
  <circle cx="538.461" cy="545.593" r="8.01155" stroke-width="0.5" stroke="black" fill="magenta"/>
  <circle cx="538.461" cy="545.593" r="4.86755" stroke-width="0.5" stroke="black" fill="magenta"/>
   </g>
   <g id="cell94">
  <circle cx="533.226" cy="496.47" r="8.1218" stroke-width="0.5" stroke="black" fill="cyan"/>
  <circle cx="533.226" cy="496.47" r="4.91457" stroke-width="0.5" stroke="black" fill="cyan"/>
   </g>
   <g id="cell95">
  <circle cx="467.113" cy="426.021" r="8.11327" stroke-width="0.5" stroke="black" fill="cyan"/>
  <circle cx="467.113" cy="426.021" r="4.91006" stroke-width="0.5" stroke="black" fill="cyan"/>
   </g>
   <g id="cell96">
  <circle cx="542.642" cy="523.377" r="8.09544" stroke-width="0.5" stroke="black" fill="cyan"/>
  <circle cx="542.642" cy="523.377" r="4.90058" stroke-width="0.5" stroke="black" fill="cyan"/>
   </g>
   <g id="cell97">
  <circle cx="421.884" cy="466.469" r="7.78736" stroke-width="0.5" stroke="black" fill="green"/>
  <circle cx="421.884" cy="466.469" r="4.74466" stroke-width="0.5" stroke="black" fill="green"/>
   </g>
   <g id="cell98">
  <circle cx="493.721" cy="514.116" r="8.04604" stroke-width="0.5" stroke="black" fill="green"/>
  <circle cx="493.721" cy="514.116" r="4.87399" stroke-width="0.5" stroke="black" fill="green"/>
   </g>
   <g id="cell99">
  <circle cx="358.15" cy="528.119" r="7.94887" stroke-width="0.5" stroke="black" fill="cyan"/>
  <circle cx="358.15" cy="528.119" r="4.83007" stroke-width="0.5" stroke="black" fill="cyan"/>
   </g>
   <g id="cell100">
  <circle cx="449.051" cy="395.093" r="7.94204" stroke-width="0.5" stroke="black" fill="green"/>
  <circle cx="449.051" cy="395.093" r="4.82219" stroke-width="0.5" stroke="black" fill="green"/>
   </g>
   <g id="cell101">
  <circle cx="532.591" cy="475.583" r="7.93206" stroke-width="0.5" stroke="black" fill="cyan"/>
  <circle cx="532.591" cy="475.583" r="4.81772" stroke-width="0.5" stroke="black" fill="cyan"/>
   </g>
   <g id="cell102">
  <circle cx="434.548" cy="474.148" r="7.78736" stroke-width="0.5" stroke="black" fill="green"/>
  <circle cx="434.548" cy="474.148" r="4.74466" stroke-width="0.5" stroke="black" fill="green"/>
   </g>
   <g id="cell103">
  <circle cx="577.442" cy="444.895" r="7.90853" stroke-width="0.5" stroke="black" fill="cyan"/>
  <circle cx="577.442" cy="444.895" r="4.79791" stroke-width="0.5" stroke="black" fill="cyan"/>
   </g>
   <g id="cell104">
  <circle cx="591.61" cy="553.609" r="7.74514" stroke-width="0.5" stroke="black" fill="cyan"/>
  <circle cx="591.61" cy="553.609" r="4.71731" stroke-width="0.5" stroke="black" fill="cyan"/>
   </g>
   <g id="cell106">
  <circle cx="462.644" cy="439.979" r="7.66138" stroke-width="0.5" stroke="black" fill="magenta"/>
  <circle cx="462.644" cy="439.979" r="4.66249" stroke-width="0.5" stroke="black" fill="magenta"/>
   </g>
   <g id="cell107">
  <circle cx="454.531" cy="377.731" r="7.40313" stroke-width="0.5" stroke="black" fill="green"/>
  <circle cx="454.531" cy="377.731" r="4.53044" stroke-width="0.5" stroke="black" fill="green"/>
   </g>
   <g id="cell108">
  <circle cx="556.51" cy="605.699" r="7.54436" stroke-width="0.5" stroke="black" fill="green"/>
  <circle cx="556.51" cy="605.699" r="4.58555" stroke-width="0.5" stroke="black" fill="green"/>
   </g>
   <g id="cell109">
  <circle cx="576.758" cy="592.01" r="6.93569" stroke-width="0.5" stroke="black" fill="green"/>
  <circle cx="576.758" cy="592.01" r="4.25431" stroke-width="0.5" stroke="black" fill="green"/>
   </g>
   <g id="cell110">
  <circle cx="374.003" cy="514.25" r="7.24243" stroke-width="0.5" stroke="black" fill="cyan"/>
  <circle cx="374.003" cy="514.25" r="4.39934" stroke-width="0.5" stroke="black" fill="cyan"/>
   </g>
   <g id="cell111">
  <circle cx="453.992" cy="552.007" r="7.04824" stroke-width="0.5" stroke="black" fill="magenta"/>
  <circle cx="453.992" cy="552.007" r="4.29943" stroke-width="0.5" stroke="black" fill="magenta"/>
   </g>
   <g id="cell112">
  <circle cx="511.213" cy="466.944" r="7.11815" stroke-width="0.5" stroke="black" fill="magenta"/>
  <circle cx="511.213" cy="466.944" r="4.31954" stroke-width="0.5" stroke="black" fill="magenta"/>
   </g>
   <g id="cell113">
  <circle cx="542.673" cy="405.417" r="7.08639" stroke-width="0.5" stroke="black" fill="green"/>
  <circle cx="542.673" cy="405.417" r="4.29876" stroke-width="0.5" stroke="black" fill="green"/>
   </g>
   <g id="cell114">
  <circle cx="528.208" cy="450.641" r="5.9276" stroke-width="0.5" stroke="black" fill="cyan"/>
  <circle cx="528.208" cy="450.641" r="3.62449" stroke-width="0.5" stroke="black" fill="cyan"/>
   </g>
   <g id="cell115">
  <circle cx="537.886" cy="446.278" r="5.9276" stroke-width="0.5" stroke="black" fill="cyan"/>
  <circle cx="537.886" cy="446.278" r="3.62449" stroke-width="0.5" stroke="black" fill="cyan"/>
   </g>
   <g id="cell116">
  <circle cx="523.727" cy="522.644" r="6.64012" stroke-width="0.5" stroke="black" fill="cyan"/>
  <circle cx="523.727" cy="522.644" r="4.01746" stroke-width="0.5" stroke="black" fill="cyan"/>
   </g>
  </g>
 </g>
  <rect x="775" y="1035" width="200" height="10" stroke-width="2" stroke="rgb(255,255,255)" fill="rgb(0,0,0)"/>
  <text x="781.25" y="1028.75"
   font-family="Arial" font-size="25" fill="black" >
   200 &#956;m
  </text>
  <text x="25" y="1045"
   font-family="Arial" font-size="18.75" fill="black" >
   0 days, 0 hours, 0 minutes, and 15.6180 seconds
  </text>
  <rect x="0" y="70" width="1000" height="1000" stroke-width="2" stroke="rgb(0,0,0)" fill="none"/>
</svg>
