<?xml version="1.0" encoding="UTF-8" standalone="no"?>
<!-- Created with PhysiCell (http://PhysiCell.MathCancer.org/) -->
<svg 
 xmlns:dc="http://purl.org/dc/elements/1.1/" 
 xmlns:cc="http://creativecommons.org/ns#" 
 xmlns:rdf="http://www.w3.org/1999/02/22-rdf-syntax-ns#" 
 xmlns:svg="http://www.w3.org/2000/svg" 
 xmlns="http://www.w3.org/2000/svg" 
 version="1.1" 
 width="1000" 
 height="1070" 
 id="svg2">
  <rect x="0" y="0" width="1000" height="1070" stroke-width="2" stroke="white" fill="white"/>
  <text x="12.5" y="30"
   font-family="Arial" font-size="25" fill="black" >
   Current time: 0 days, 16 hours, and 30.00 minutes, z = 0.00 &#956;m
  </text>
  <text x="12.5" y="57.5"
   font-family="Arial" font-size="23.75" fill="black" >
   118 agents
  </text>
 <g id="tissue" 
    transform="translate(0,1070) scale(1,-1)">
  <g id="ECM">
  </g>
  <g id="cells">
   <g id="cell0">
  <circle cx="481.313" cy="404.903" r="8.41271" stroke-width="0.5" stroke="black" fill="magenta"/>
  <circle cx="481.313" cy="404.903" r="5.05167" stroke-width="0.5" stroke="black" fill="magenta"/>
   </g>
   <g id="cell1">
  <circle cx="633.518" cy="509.149" r="8.37935" stroke-width="0.5" stroke="black" fill="magenta"/>
  <circle cx="633.518" cy="509.149" r="5.0396" stroke-width="0.5" stroke="black" fill="magenta"/>
   </g>
   <g id="cell2">
  <circle cx="478.933" cy="493.971" r="8.41271" stroke-width="0.5" stroke="black" fill="magenta"/>
  <circle cx="478.933" cy="493.971" r="5.05167" stroke-width="0.5" stroke="black" fill="magenta"/>
   </g>
   <g id="cell3">
  <circle cx="450.131" cy="451.295" r="8.35404" stroke-width="0.5" stroke="black" fill="magenta"/>
  <circle cx="450.131" cy="451.295" r="5.02894" stroke-width="0.5" stroke="black" fill="magenta"/>
   </g>
   <g id="cell4">
  <circle cx="415.847" cy="553.961" r="8.01277" stroke-width="0.5" stroke="black" fill="magenta"/>
  <circle cx="415.847" cy="553.961" r="4.85584" stroke-width="0.5" stroke="black" fill="magenta"/>
   </g>
   <g id="cell5">
  <circle cx="393.5" cy="440.755" r="8.41271" stroke-width="0.5" stroke="black" fill="magenta"/>
  <circle cx="393.5" cy="440.755" r="5.05167" stroke-width="0.5" stroke="black" fill="magenta"/>
   </g>
   <g id="cell6">
  <circle cx="434.418" cy="544.886" r="8.23948" stroke-width="0.5" stroke="black" fill="magenta"/>
  <circle cx="434.418" cy="544.886" r="4.97503" stroke-width="0.5" stroke="black" fill="magenta"/>
   </g>
   <g id="cell7">
  <circle cx="603.7" cy="508.628" r="8.41271" stroke-width="0.5" stroke="black" fill="magenta"/>
  <circle cx="603.7" cy="508.628" r="5.05167" stroke-width="0.5" stroke="black" fill="magenta"/>
   </g>
   <g id="cell8">
  <circle cx="388.862" cy="500.495" r="8.41271" stroke-width="0.5" stroke="black" fill="magenta"/>
  <circle cx="388.862" cy="500.495" r="5.05167" stroke-width="0.5" stroke="black" fill="magenta"/>
   </g>
   <g id="cell9">
  <circle cx="528.274" cy="402.022" r="7.14263" stroke-width="0.5" stroke="black" fill="magenta"/>
  <circle cx="528.274" cy="402.022" r="4.37593" stroke-width="0.5" stroke="black" fill="magenta"/>
   </g>
   <g id="cell10">
  <circle cx="594.024" cy="427.913" r="6.95901" stroke-width="0.5" stroke="black" fill="magenta"/>
  <circle cx="594.024" cy="427.913" r="4.21341" stroke-width="0.5" stroke="black" fill="magenta"/>
   </g>
   <g id="cell11">
  <circle cx="517.674" cy="501.261" r="8.41271" stroke-width="0.5" stroke="black" fill="magenta"/>
  <circle cx="517.674" cy="501.261" r="5.05167" stroke-width="0.5" stroke="black" fill="magenta"/>
   </g>
   <g id="cell12">
  <circle cx="602.7" cy="400.147" r="8.41271" stroke-width="0.5" stroke="black" fill="magenta"/>
  <circle cx="602.7" cy="400.147" r="5.05167" stroke-width="0.5" stroke="black" fill="magenta"/>
   </g>
   <g id="cell13">
  <circle cx="638.486" cy="495.195" r="8.07106" stroke-width="0.5" stroke="black" fill="magenta"/>
  <circle cx="638.486" cy="495.195" r="4.89357" stroke-width="0.5" stroke="black" fill="magenta"/>
   </g>
   <g id="cell14">
  <circle cx="363.298" cy="434.385" r="8.41271" stroke-width="0.5" stroke="black" fill="magenta"/>
  <circle cx="363.298" cy="434.385" r="5.05167" stroke-width="0.5" stroke="black" fill="magenta"/>
   </g>
   <g id="cell15">
  <circle cx="377.651" cy="490.414" r="8.41271" stroke-width="0.5" stroke="black" fill="magenta"/>
  <circle cx="377.651" cy="490.414" r="5.05167" stroke-width="0.5" stroke="black" fill="magenta"/>
   </g>
   <g id="cell16">
  <circle cx="508.154" cy="418.07" r="8.41271" stroke-width="0.5" stroke="black" fill="magenta"/>
  <circle cx="508.154" cy="418.07" r="5.05167" stroke-width="0.5" stroke="black" fill="magenta"/>
   </g>
   <g id="cell17">
  <circle cx="376.98" cy="579.817" r="8.11327" stroke-width="0.5" stroke="black" fill="magenta"/>
  <circle cx="376.98" cy="579.817" r="4.91006" stroke-width="0.5" stroke="black" fill="magenta"/>
   </g>
   <g id="cell18">
  <circle cx="527.807" cy="461.244" r="8.41271" stroke-width="0.5" stroke="black" fill="magenta"/>
  <circle cx="527.807" cy="461.244" r="5.05167" stroke-width="0.5" stroke="black" fill="magenta"/>
   </g>
   <g id="cell19">
  <circle cx="489.085" cy="459.047" r="8.41271" stroke-width="0.5" stroke="black" fill="magenta"/>
  <circle cx="489.085" cy="459.047" r="5.05167" stroke-width="0.5" stroke="black" fill="magenta"/>
   </g>
   <g id="cell20">
  <circle cx="489.703" cy="541.912" r="8.41271" stroke-width="0.5" stroke="black" fill="magenta"/>
  <circle cx="489.703" cy="541.912" r="5.05167" stroke-width="0.5" stroke="black" fill="magenta"/>
   </g>
   <g id="cell21">
  <circle cx="507.476" cy="594.739" r="7.716" stroke-width="0.5" stroke="black" fill="magenta"/>
  <circle cx="507.476" cy="594.739" r="4.69489" stroke-width="0.5" stroke="black" fill="magenta"/>
   </g>
   <g id="cell22">
  <circle cx="542.104" cy="465.481" r="8.25826" stroke-width="0.5" stroke="black" fill="magenta"/>
  <circle cx="542.104" cy="465.481" r="4.98429" stroke-width="0.5" stroke="black" fill="magenta"/>
   </g>
   <g id="cell23">
  <circle cx="562.046" cy="602.007" r="8.41271" stroke-width="0.5" stroke="black" fill="magenta"/>
  <circle cx="562.046" cy="602.007" r="5.05167" stroke-width="0.5" stroke="black" fill="magenta"/>
   </g>
   <g id="cell24">
  <circle cx="502.545" cy="500.685" r="8.41271" stroke-width="0.5" stroke="black" fill="magenta"/>
  <circle cx="502.545" cy="500.685" r="5.05167" stroke-width="0.5" stroke="black" fill="magenta"/>
   </g>
   <g id="cell25">
  <circle cx="442.265" cy="517.734" r="8.41271" stroke-width="0.5" stroke="black" fill="green"/>
  <circle cx="442.265" cy="517.734" r="5.05167" stroke-width="0.5" stroke="black" fill="green"/>
   </g>
   <g id="cell26">
  <circle cx="480.831" cy="594.886" r="8.41271" stroke-width="0.5" stroke="black" fill="green"/>
  <circle cx="480.831" cy="594.886" r="5.05167" stroke-width="0.5" stroke="black" fill="green"/>
   </g>
   <g id="cell27">
  <circle cx="440.598" cy="589.508" r="8.38823" stroke-width="0.5" stroke="black" fill="green"/>
  <circle cx="440.598" cy="589.508" r="5.04313" stroke-width="0.5" stroke="black" fill="green"/>
   </g>
   <g id="cell28">
  <circle cx="503.565" cy="432.901" r="8.41271" stroke-width="0.5" stroke="black" fill="green"/>
  <circle cx="503.565" cy="432.901" r="5.05167" stroke-width="0.5" stroke="black" fill="green"/>
   </g>
   <g id="cell29">
  <circle cx="589.11" cy="514.193" r="8.41271" stroke-width="0.5" stroke="black" fill="green"/>
  <circle cx="589.11" cy="514.193" r="5.05167" stroke-width="0.5" stroke="black" fill="green"/>
   </g>
   <g id="cell30">
  <circle cx="588.06" cy="616.247" r="6.60059" stroke-width="0.5" stroke="black" fill="green"/>
  <circle cx="588.06" cy="616.247" r="4.02459" stroke-width="0.5" stroke="black" fill="green"/>
   </g>
   <g id="cell31">
  <circle cx="471.368" cy="416.921" r="8.41271" stroke-width="0.5" stroke="black" fill="green"/>
  <circle cx="471.368" cy="416.921" r="5.05167" stroke-width="0.5" stroke="black" fill="green"/>
   </g>
   <g id="cell32">
  <circle cx="558.092" cy="430.452" r="8.38118" stroke-width="0.5" stroke="black" fill="green"/>
  <circle cx="558.092" cy="430.452" r="5.04034" stroke-width="0.5" stroke="black" fill="green"/>
   </g>
   <g id="cell33">
  <circle cx="591.793" cy="567.502" r="8.13813" stroke-width="0.5" stroke="black" fill="green"/>
  <circle cx="591.793" cy="567.502" r="4.92317" stroke-width="0.5" stroke="black" fill="green"/>
   </g>
   <g id="cell34">
  <circle cx="562.499" cy="586.38" r="8.41271" stroke-width="0.5" stroke="black" fill="green"/>
  <circle cx="562.499" cy="586.38" r="5.05167" stroke-width="0.5" stroke="black" fill="green"/>
   </g>
   <g id="cell35">
  <circle cx="472.23" cy="508.042" r="8.41271" stroke-width="0.5" stroke="black" fill="green"/>
  <circle cx="472.23" cy="508.042" r="5.05167" stroke-width="0.5" stroke="black" fill="green"/>
   </g>
   <g id="cell36">
  <circle cx="453.362" cy="564.728" r="8.09544" stroke-width="0.5" stroke="black" fill="green"/>
  <circle cx="453.362" cy="564.728" r="4.90058" stroke-width="0.5" stroke="black" fill="green"/>
   </g>
   <g id="cell37">
  <circle cx="488.132" cy="506.579" r="8.41271" stroke-width="0.5" stroke="black" fill="green"/>
  <circle cx="488.132" cy="506.579" r="5.05167" stroke-width="0.5" stroke="black" fill="green"/>
   </g>
   <g id="cell38">
  <circle cx="614.174" cy="450.488" r="8.41271" stroke-width="0.5" stroke="black" fill="green"/>
  <circle cx="614.174" cy="450.488" r="5.05167" stroke-width="0.5" stroke="black" fill="green"/>
   </g>
   <g id="cell39">
  <circle cx="431.772" cy="529.713" r="8.41271" stroke-width="0.5" stroke="black" fill="green"/>
  <circle cx="431.772" cy="529.713" r="5.05167" stroke-width="0.5" stroke="black" fill="green"/>
   </g>
   <g id="cell40">
  <circle cx="473.109" cy="609.553" r="8.41271" stroke-width="0.5" stroke="black" fill="green"/>
  <circle cx="473.109" cy="609.553" r="5.05167" stroke-width="0.5" stroke="black" fill="green"/>
   </g>
   <g id="cell41">
  <circle cx="594.89" cy="413.766" r="8.41271" stroke-width="0.5" stroke="black" fill="green"/>
  <circle cx="594.89" cy="413.766" r="5.05167" stroke-width="0.5" stroke="black" fill="green"/>
   </g>
   <g id="cell42">
  <circle cx="457.952" cy="515.071" r="8.38373" stroke-width="0.5" stroke="black" fill="green"/>
  <circle cx="457.952" cy="515.071" r="5.04136" stroke-width="0.5" stroke="black" fill="green"/>
   </g>
   <g id="cell43">
  <circle cx="357.665" cy="458.998" r="8.41271" stroke-width="0.5" stroke="black" fill="green"/>
  <circle cx="357.665" cy="458.998" r="5.05167" stroke-width="0.5" stroke="black" fill="green"/>
   </g>
   <g id="cell44">
  <circle cx="501.803" cy="468.25" r="8.41271" stroke-width="0.5" stroke="black" fill="green"/>
  <circle cx="501.803" cy="468.25" r="5.05167" stroke-width="0.5" stroke="black" fill="green"/>
   </g>
   <g id="cell45">
  <circle cx="492.989" cy="630.751" r="5.76949" stroke-width="0.5" stroke="black" fill="green"/>
  <circle cx="492.989" cy="630.751" r="3.50623" stroke-width="0.5" stroke="black" fill="green"/>
   </g>
   <g id="cell46">
  <circle cx="598.763" cy="454.707" r="8.41271" stroke-width="0.5" stroke="black" fill="green"/>
  <circle cx="598.763" cy="454.707" r="5.05167" stroke-width="0.5" stroke="black" fill="green"/>
   </g>
   <g id="cell47">
  <circle cx="515.293" cy="539.253" r="8.41271" stroke-width="0.5" stroke="black" fill="green"/>
  <circle cx="515.293" cy="539.253" r="5.05167" stroke-width="0.5" stroke="black" fill="green"/>
   </g>
   <g id="cell48">
  <circle cx="452.573" cy="383.833" r="8.41271" stroke-width="0.5" stroke="black" fill="green"/>
  <circle cx="452.573" cy="383.833" r="5.05167" stroke-width="0.5" stroke="black" fill="green"/>
   </g>
   <g id="cell49">
  <circle cx="443.978" cy="638.738" r="8.41271" stroke-width="0.5" stroke="black" fill="green"/>
  <circle cx="443.978" cy="638.738" r="5.05167" stroke-width="0.5" stroke="black" fill="green"/>
   </g>
   <g id="cell50">
  <circle cx="543.742" cy="563.86" r="8.33911" stroke-width="0.5" stroke="black" fill="cyan"/>
  <circle cx="543.742" cy="563.86" r="5.02235" stroke-width="0.5" stroke="black" fill="cyan"/>
   </g>
   <g id="cell51">
  <circle cx="548.48" cy="594.334" r="8.41271" stroke-width="0.5" stroke="black" fill="cyan"/>
  <circle cx="548.48" cy="594.334" r="5.05167" stroke-width="0.5" stroke="black" fill="cyan"/>
   </g>
   <g id="cell52">
  <circle cx="421.266" cy="469.031" r="8.38028" stroke-width="0.5" stroke="black" fill="cyan"/>
  <circle cx="421.266" cy="469.031" r="5.03997" stroke-width="0.5" stroke="black" fill="cyan"/>
   </g>
   <g id="cell53">
  <circle cx="543.153" cy="527.749" r="8.41271" stroke-width="0.5" stroke="black" fill="cyan"/>
  <circle cx="543.153" cy="527.749" r="5.05167" stroke-width="0.5" stroke="black" fill="cyan"/>
   </g>
   <g id="cell54">
  <circle cx="587.636" cy="396.37" r="8.41271" stroke-width="0.5" stroke="black" fill="cyan"/>
  <circle cx="587.636" cy="396.37" r="5.05167" stroke-width="0.5" stroke="black" fill="cyan"/>
   </g>
   <g id="cell55">
  <circle cx="524.27" cy="388.202" r="8.41271" stroke-width="0.5" stroke="black" fill="cyan"/>
  <circle cx="524.27" cy="388.202" r="5.05167" stroke-width="0.5" stroke="black" fill="cyan"/>
   </g>
   <g id="cell56">
  <circle cx="610.675" cy="476.342" r="8.41271" stroke-width="0.5" stroke="black" fill="cyan"/>
  <circle cx="610.675" cy="476.342" r="5.05167" stroke-width="0.5" stroke="black" fill="cyan"/>
   </g>
   <g id="cell57">
  <circle cx="533.076" cy="589.118" r="8.30239" stroke-width="0.5" stroke="black" fill="cyan"/>
  <circle cx="533.076" cy="589.118" r="5.00772" stroke-width="0.5" stroke="black" fill="cyan"/>
   </g>
   <g id="cell58">
  <circle cx="513.947" cy="458.783" r="6.95901" stroke-width="0.5" stroke="black" fill="cyan"/>
  <circle cx="513.947" cy="458.783" r="4.21341" stroke-width="0.5" stroke="black" fill="cyan"/>
   </g>
   <g id="cell59">
  <circle cx="518.03" cy="584.156" r="8.31766" stroke-width="0.5" stroke="black" fill="cyan"/>
  <circle cx="518.03" cy="584.156" r="5.0126" stroke-width="0.5" stroke="black" fill="cyan"/>
   </g>
   <g id="cell60">
  <circle cx="518.89" cy="428.937" r="8.09544" stroke-width="0.5" stroke="black" fill="cyan"/>
  <circle cx="518.89" cy="428.937" r="4.90058" stroke-width="0.5" stroke="black" fill="cyan"/>
   </g>
   <g id="cell61">
  <circle cx="643.652" cy="520.993" r="8.41271" stroke-width="0.5" stroke="black" fill="cyan"/>
  <circle cx="643.652" cy="520.993" r="5.05167" stroke-width="0.5" stroke="black" fill="cyan"/>
   </g>
   <g id="cell62">
  <circle cx="532.533" cy="362.003" r="8.41271" stroke-width="0.5" stroke="black" fill="cyan"/>
  <circle cx="532.533" cy="362.003" r="5.05167" stroke-width="0.5" stroke="black" fill="cyan"/>
   </g>
   <g id="cell63">
  <circle cx="575.446" cy="544.419" r="8.18833" stroke-width="0.5" stroke="black" fill="cyan"/>
  <circle cx="575.446" cy="544.419" r="4.94921" stroke-width="0.5" stroke="black" fill="cyan"/>
   </g>
   <g id="cell64">
  <circle cx="403.014" cy="601.349" r="8.41271" stroke-width="0.5" stroke="black" fill="cyan"/>
  <circle cx="403.014" cy="601.349" r="5.05167" stroke-width="0.5" stroke="black" fill="cyan"/>
   </g>
   <g id="cell65">
  <circle cx="510.607" cy="487.358" r="8.41271" stroke-width="0.5" stroke="black" fill="cyan"/>
  <circle cx="510.607" cy="487.358" r="5.05167" stroke-width="0.5" stroke="black" fill="cyan"/>
   </g>
   <g id="cell66">
  <circle cx="517.242" cy="472.835" r="8.41271" stroke-width="0.5" stroke="black" fill="cyan"/>
  <circle cx="517.242" cy="472.835" r="5.05167" stroke-width="0.5" stroke="black" fill="cyan"/>
   </g>
   <g id="cell67">
  <circle cx="434.085" cy="426.992" r="8.41271" stroke-width="0.5" stroke="black" fill="cyan"/>
  <circle cx="434.085" cy="426.992" r="5.05167" stroke-width="0.5" stroke="black" fill="cyan"/>
   </g>
   <g id="cell68">
  <circle cx="400.753" cy="490.35" r="8.41271" stroke-width="0.5" stroke="black" fill="cyan"/>
  <circle cx="400.753" cy="490.35" r="5.05167" stroke-width="0.5" stroke="black" fill="cyan"/>
   </g>
   <g id="cell69">
  <circle cx="602.833" cy="439.131" r="8.38608" stroke-width="0.5" stroke="black" fill="cyan"/>
  <circle cx="602.833" cy="439.131" r="5.04229" stroke-width="0.5" stroke="black" fill="cyan"/>
   </g>
   <g id="cell70">
  <circle cx="377.929" cy="439.797" r="8.41271" stroke-width="0.5" stroke="black" fill="cyan"/>
  <circle cx="377.929" cy="439.797" r="5.05167" stroke-width="0.5" stroke="black" fill="cyan"/>
   </g>
   <g id="cell71">
  <circle cx="403.176" cy="506.24" r="8.41271" stroke-width="0.5" stroke="black" fill="cyan"/>
  <circle cx="403.176" cy="506.24" r="5.05167" stroke-width="0.5" stroke="black" fill="cyan"/>
   </g>
   <g id="cell72">
  <circle cx="618.367" cy="435.101" r="8.41271" stroke-width="0.5" stroke="black" fill="cyan"/>
  <circle cx="618.367" cy="435.101" r="5.05167" stroke-width="0.5" stroke="black" fill="cyan"/>
   </g>
   <g id="cell73">
  <circle cx="420.274" cy="519.195" r="8.15353" stroke-width="0.5" stroke="black" fill="cyan"/>
  <circle cx="420.274" cy="519.195" r="4.93122" stroke-width="0.5" stroke="black" fill="cyan"/>
   </g>
   <g id="cell74">
  <circle cx="436.43" cy="485.39" r="8.41271" stroke-width="0.5" stroke="black" fill="cyan"/>
  <circle cx="436.43" cy="485.39" r="5.05167" stroke-width="0.5" stroke="black" fill="cyan"/>
   </g>
   <g id="cell75">
  <circle cx="467.549" cy="596.775" r="6.4794" stroke-width="0.5" stroke="black" fill="green"/>
  <circle cx="467.549" cy="596.775" r="3.92657" stroke-width="0.5" stroke="black" fill="green"/>
   </g>
   <g id="cell76">
  <circle cx="607.432" cy="423.648" r="8.38608" stroke-width="0.5" stroke="black" fill="cyan"/>
  <circle cx="607.432" cy="423.648" r="5.04229" stroke-width="0.5" stroke="black" fill="cyan"/>
   </g>
   <g id="cell77">
  <circle cx="462.005" cy="530.324" r="8.22932" stroke-width="0.5" stroke="black" fill="green"/>
  <circle cx="462.005" cy="530.324" r="4.97206" stroke-width="0.5" stroke="black" fill="green"/>
   </g>
   <g id="cell78">
  <circle cx="581.123" cy="409.291" r="7.10489" stroke-width="0.5" stroke="black" fill="green"/>
  <circle cx="581.123" cy="409.291" r="4.32841" stroke-width="0.5" stroke="black" fill="green"/>
   </g>
   <g id="cell79">
  <circle cx="415.337" cy="483.809" r="8.38028" stroke-width="0.5" stroke="black" fill="cyan"/>
  <circle cx="415.337" cy="483.809" r="5.03997" stroke-width="0.5" stroke="black" fill="cyan"/>
   </g>
   <g id="cell80">
  <circle cx="618.574" cy="511.314" r="8.37935" stroke-width="0.5" stroke="black" fill="magenta"/>
  <circle cx="618.574" cy="511.314" r="5.0396" stroke-width="0.5" stroke="black" fill="magenta"/>
   </g>
   <g id="cell81">
  <circle cx="438.365" cy="441.934" r="8.35404" stroke-width="0.5" stroke="black" fill="magenta"/>
  <circle cx="438.365" cy="441.934" r="5.02894" stroke-width="0.5" stroke="black" fill="magenta"/>
   </g>
   <g id="cell82">
  <circle cx="536.362" cy="604.586" r="8.34884" stroke-width="0.5" stroke="black" fill="cyan"/>
  <circle cx="536.362" cy="604.586" r="5.02667" stroke-width="0.5" stroke="black" fill="cyan"/>
   </g>
   <g id="cell83">
  <circle cx="484.392" cy="579.803" r="8.33911" stroke-width="0.5" stroke="black" fill="magenta"/>
  <circle cx="484.392" cy="579.803" r="5.02235" stroke-width="0.5" stroke="black" fill="magenta"/>
   </g>
   <g id="cell84">
  <circle cx="544.981" cy="579.242" r="8.11451" stroke-width="0.5" stroke="black" fill="cyan"/>
  <circle cx="544.981" cy="579.242" r="4.91557" stroke-width="0.5" stroke="black" fill="cyan"/>
   </g>
   <g id="cell85">
  <circle cx="530.52" cy="573.443" r="8.30239" stroke-width="0.5" stroke="black" fill="cyan"/>
  <circle cx="530.52" cy="573.443" r="5.00772" stroke-width="0.5" stroke="black" fill="cyan"/>
   </g>
   <g id="cell86">
  <circle cx="648.271" cy="506.205" r="8.31766" stroke-width="0.5" stroke="black" fill="magenta"/>
  <circle cx="648.271" cy="506.205" r="5.0126" stroke-width="0.5" stroke="black" fill="magenta"/>
   </g>
   <g id="cell87">
  <circle cx="572.384" cy="429.665" r="6.87791" stroke-width="0.5" stroke="black" fill="green"/>
  <circle cx="572.384" cy="429.665" r="4.17988" stroke-width="0.5" stroke="black" fill="green"/>
   </g>
   <g id="cell88">
  <circle cx="521.337" cy="599.696" r="8.31766" stroke-width="0.5" stroke="black" fill="cyan"/>
  <circle cx="521.337" cy="599.696" r="5.0126" stroke-width="0.5" stroke="black" fill="cyan"/>
   </g>
   <g id="cell89">
  <circle cx="556.898" cy="464.729" r="8.25826" stroke-width="0.5" stroke="black" fill="magenta"/>
  <circle cx="556.898" cy="464.729" r="4.98429" stroke-width="0.5" stroke="black" fill="magenta"/>
   </g>
   <g id="cell90">
  <circle cx="474.439" cy="539.799" r="8.22932" stroke-width="0.5" stroke="black" fill="green"/>
  <circle cx="474.439" cy="539.799" r="4.97206" stroke-width="0.5" stroke="black" fill="green"/>
   </g>
   <g id="cell91">
  <circle cx="420.411" cy="540.101" r="8.23948" stroke-width="0.5" stroke="black" fill="magenta"/>
  <circle cx="420.411" cy="540.101" r="4.97503" stroke-width="0.5" stroke="black" fill="magenta"/>
   </g>
   <g id="cell92">
  <circle cx="564.019" cy="534.949" r="7.5465" stroke-width="0.5" stroke="black" fill="cyan"/>
  <circle cx="564.019" cy="534.949" r="4.60453" stroke-width="0.5" stroke="black" fill="cyan"/>
   </g>
   <g id="cell93">
  <circle cx="425.22" cy="494.56" r="7.06878" stroke-width="0.5" stroke="black" fill="cyan"/>
  <circle cx="425.22" cy="494.56" r="4.31737" stroke-width="0.5" stroke="black" fill="cyan"/>
   </g>
   <g id="cell94">
  <circle cx="557.952" cy="571.17" r="8.11451" stroke-width="0.5" stroke="black" fill="cyan"/>
  <circle cx="557.952" cy="571.17" r="4.91557" stroke-width="0.5" stroke="black" fill="cyan"/>
   </g>
   <g id="cell95">
  <circle cx="588.647" cy="552.393" r="8.13813" stroke-width="0.5" stroke="black" fill="green"/>
  <circle cx="588.647" cy="552.393" r="4.92317" stroke-width="0.5" stroke="black" fill="green"/>
   </g>
   <g id="cell96">
  <circle cx="466.18" cy="581.944" r="7.56769" stroke-width="0.5" stroke="black" fill="green"/>
  <circle cx="466.18" cy="581.944" r="4.62059" stroke-width="0.5" stroke="black" fill="green"/>
   </g>
   <g id="cell97">
  <circle cx="624.182" cy="497.639" r="8.07106" stroke-width="0.5" stroke="black" fill="magenta"/>
  <circle cx="624.182" cy="497.639" r="4.89357" stroke-width="0.5" stroke="black" fill="magenta"/>
   </g>
   <g id="cell98">
  <circle cx="391.569" cy="580.73" r="8.11327" stroke-width="0.5" stroke="black" fill="magenta"/>
  <circle cx="391.569" cy="580.73" r="4.91006" stroke-width="0.5" stroke="black" fill="magenta"/>
   </g>
   <g id="cell99">
  <circle cx="530.138" cy="439.617" r="8.09544" stroke-width="0.5" stroke="black" fill="cyan"/>
  <circle cx="530.138" cy="439.617" r="4.90058" stroke-width="0.5" stroke="black" fill="cyan"/>
   </g>
   <g id="cell100">
  <circle cx="468.603" cy="567.252" r="8.09544" stroke-width="0.5" stroke="black" fill="green"/>
  <circle cx="468.603" cy="567.252" r="4.90058" stroke-width="0.5" stroke="black" fill="green"/>
   </g>
   <g id="cell101">
  <circle cx="608.684" cy="594.435" r="7.42143" stroke-width="0.5" stroke="black" fill="green"/>
  <circle cx="608.684" cy="594.435" r="4.53686" stroke-width="0.5" stroke="black" fill="green"/>
   </g>
   <g id="cell102">
  <circle cx="406.527" cy="565.051" r="8.01277" stroke-width="0.5" stroke="black" fill="magenta"/>
  <circle cx="406.527" cy="565.051" r="4.85584" stroke-width="0.5" stroke="black" fill="magenta"/>
   </g>
   <g id="cell103">
  <circle cx="538.456" cy="393.336" r="7.79564" stroke-width="0.5" stroke="black" fill="magenta"/>
  <circle cx="538.456" cy="393.336" r="4.73359" stroke-width="0.5" stroke="black" fill="magenta"/>
   </g>
   <g id="cell104">
  <circle cx="494.526" cy="590.258" r="7.716" stroke-width="0.5" stroke="black" fill="magenta"/>
  <circle cx="494.526" cy="590.258" r="4.69489" stroke-width="0.5" stroke="black" fill="magenta"/>
   </g>
   <g id="cell105">
  <circle cx="451.941" cy="579.524" r="7.56769" stroke-width="0.5" stroke="black" fill="green"/>
  <circle cx="451.941" cy="579.524" r="4.62059" stroke-width="0.5" stroke="black" fill="green"/>
   </g>
   <g id="cell106">
  <circle cx="562.707" cy="520.741" r="7.5465" stroke-width="0.5" stroke="black" fill="cyan"/>
  <circle cx="562.707" cy="520.741" r="4.60453" stroke-width="0.5" stroke="black" fill="cyan"/>
   </g>
   <g id="cell107">
  <circle cx="595.014" cy="597.81" r="7.42143" stroke-width="0.5" stroke="black" fill="green"/>
  <circle cx="595.014" cy="597.81" r="4.53686" stroke-width="0.5" stroke="black" fill="green"/>
   </g>
   <g id="cell108">
  <circle cx="520.852" cy="412.449" r="7.14263" stroke-width="0.5" stroke="black" fill="magenta"/>
  <circle cx="520.852" cy="412.449" r="4.37593" stroke-width="0.5" stroke="black" fill="magenta"/>
   </g>
   <g id="cell109">
  <circle cx="417.587" cy="505.224" r="7.06878" stroke-width="0.5" stroke="black" fill="cyan"/>
  <circle cx="417.587" cy="505.224" r="4.31737" stroke-width="0.5" stroke="black" fill="cyan"/>
   </g>
   <g id="cell110">
  <circle cx="503.885" cy="614.573" r="7.24243" stroke-width="0.5" stroke="black" fill="green"/>
  <circle cx="503.885" cy="614.573" r="4.39934" stroke-width="0.5" stroke="black" fill="green"/>
   </g>
   <g id="cell111">
  <circle cx="570.411" cy="416.865" r="7.10489" stroke-width="0.5" stroke="black" fill="green"/>
  <circle cx="570.411" cy="416.865" r="4.32841" stroke-width="0.5" stroke="black" fill="green"/>
   </g>
   <g id="cell112">
  <circle cx="502.082" cy="453.605" r="6.95901" stroke-width="0.5" stroke="black" fill="cyan"/>
  <circle cx="502.082" cy="453.605" r="4.21341" stroke-width="0.5" stroke="black" fill="cyan"/>
   </g>
   <g id="cell113">
  <circle cx="583.813" cy="435.264" r="6.87791" stroke-width="0.5" stroke="black" fill="green"/>
  <circle cx="583.813" cy="435.264" r="4.17988" stroke-width="0.5" stroke="black" fill="green"/>
   </g>
   <g id="cell114">
  <circle cx="582.85" cy="422.186" r="6.95901" stroke-width="0.5" stroke="black" fill="magenta"/>
  <circle cx="582.85" cy="422.186" r="4.21341" stroke-width="0.5" stroke="black" fill="magenta"/>
   </g>
   <g id="cell115">
  <circle cx="599.131" cy="610.442" r="6.60059" stroke-width="0.5" stroke="black" fill="green"/>
  <circle cx="599.131" cy="610.442" r="4.02459" stroke-width="0.5" stroke="black" fill="green"/>
   </g>
   <g id="cell116">
  <circle cx="455.884" cy="594.932" r="6.4794" stroke-width="0.5" stroke="black" fill="green"/>
  <circle cx="455.884" cy="594.932" r="3.92657" stroke-width="0.5" stroke="black" fill="green"/>
   </g>
   <g id="cell117">
  <circle cx="502.852" cy="626.571" r="5.76949" stroke-width="0.5" stroke="black" fill="green"/>
  <circle cx="502.852" cy="626.571" r="3.50623" stroke-width="0.5" stroke="black" fill="green"/>
   </g>
  </g>
 </g>
  <rect x="775" y="1035" width="200" height="10" stroke-width="2" stroke="rgb(255,255,255)" fill="rgb(0,0,0)"/>
  <text x="781.25" y="1028.75"
   font-family="Arial" font-size="25" fill="black" >
   200 &#956;m
  </text>
  <text x="25" y="1045"
   font-family="Arial" font-size="18.75" fill="black" >
   0 days, 0 hours, 0 minutes, and 18.0016 seconds
  </text>
  <rect x="0" y="70" width="1000" height="1000" stroke-width="2" stroke="rgb(0,0,0)" fill="none"/>
</svg>
