<?xml version="1.0" encoding="UTF-8" standalone="no"?>
<!-- Created with PhysiCell (http://PhysiCell.MathCancer.org/) -->
<svg 
 xmlns:dc="http://purl.org/dc/elements/1.1/" 
 xmlns:cc="http://creativecommons.org/ns#" 
 xmlns:rdf="http://www.w3.org/1999/02/22-rdf-syntax-ns#" 
 xmlns:svg="http://www.w3.org/2000/svg" 
 xmlns="http://www.w3.org/2000/svg" 
 version="1.1" 
 width="1000" 
 height="1070" 
 id="svg2">
  <rect x="0" y="0" width="1000" height="1070" stroke-width="2" stroke="white" fill="white"/>
  <text x="12.5" y="30"
   font-family="Arial" font-size="25" fill="black" >
   Current time: 1 days, 0 hours, and 39.00 minutes, z = 0.00 &#956;m
  </text>
  <text x="12.5" y="57.5"
   font-family="Arial" font-size="23.75" fill="black" >
   155 agents
  </text>
 <g id="tissue" 
    transform="translate(0,1070) scale(1,-1)">
  <g id="ECM">
  </g>
  <g id="cells">
   <g id="cell0">
  <circle cx="514.918" cy="534.53" r="8.40557" stroke-width="0.5" stroke="black" fill="magenta"/>
  <circle cx="514.918" cy="534.53" r="5.04951" stroke-width="0.5" stroke="black" fill="magenta"/>
   </g>
   <g id="cell1">
  <circle cx="601.514" cy="523.271" r="8.41271" stroke-width="0.5" stroke="black" fill="magenta"/>
  <circle cx="601.514" cy="523.271" r="5.05167" stroke-width="0.5" stroke="black" fill="magenta"/>
   </g>
   <g id="cell2">
  <circle cx="518.579" cy="598.116" r="8.41271" stroke-width="0.5" stroke="black" fill="magenta"/>
  <circle cx="518.579" cy="598.116" r="5.05167" stroke-width="0.5" stroke="black" fill="magenta"/>
   </g>
   <g id="cell3">
  <circle cx="523.734" cy="547.098" r="8.40104" stroke-width="0.5" stroke="black" fill="magenta"/>
  <circle cx="523.734" cy="547.098" r="5.04808" stroke-width="0.5" stroke="black" fill="magenta"/>
   </g>
   <g id="cell4">
  <circle cx="486.529" cy="447.832" r="8.24762" stroke-width="0.5" stroke="black" fill="magenta"/>
  <circle cx="486.529" cy="447.832" r="4.97938" stroke-width="0.5" stroke="black" fill="magenta"/>
   </g>
   <g id="cell5">
  <circle cx="465.032" cy="493.3" r="8.41271" stroke-width="0.5" stroke="black" fill="magenta"/>
  <circle cx="465.032" cy="493.3" r="5.05167" stroke-width="0.5" stroke="black" fill="magenta"/>
   </g>
   <g id="cell6">
  <circle cx="597.133" cy="515.501" r="1.48947" stroke-width="0.5" stroke="black" fill="magenta"/>
  <circle cx="597.133" cy="515.501" r="1.47064" stroke-width="0.5" stroke="black" fill="black"/>
   </g>
   <g id="cell7">
  <circle cx="496.518" cy="459.138" r="8.35727" stroke-width="0.5" stroke="black" fill="magenta"/>
  <circle cx="496.518" cy="459.138" r="5.03034" stroke-width="0.5" stroke="black" fill="magenta"/>
   </g>
   <g id="cell8">
  <circle cx="376.403" cy="542.841" r="8.41271" stroke-width="0.5" stroke="black" fill="magenta"/>
  <circle cx="376.403" cy="542.841" r="5.05167" stroke-width="0.5" stroke="black" fill="magenta"/>
   </g>
   <g id="cell9">
  <circle cx="460.472" cy="599.786" r="1.54796" stroke-width="0.5" stroke="black" fill="magenta"/>
  <circle cx="460.472" cy="599.786" r="1.52398" stroke-width="0.5" stroke="black" fill="black"/>
   </g>
   <g id="cell10">
  <circle cx="586.54" cy="389.149" r="7.0545" stroke-width="0.5" stroke="black" fill="magenta"/>
  <circle cx="586.54" cy="389.149" r="4.27772" stroke-width="0.5" stroke="black" fill="magenta"/>
   </g>
   <g id="cell11">
  <circle cx="592.073" cy="590.052" r="8.41271" stroke-width="0.5" stroke="black" fill="magenta"/>
  <circle cx="592.073" cy="590.052" r="5.05167" stroke-width="0.5" stroke="black" fill="magenta"/>
   </g>
   <g id="cell12">
  <circle cx="504.693" cy="593.441" r="7.93688" stroke-width="0.5" stroke="black" fill="magenta"/>
  <circle cx="504.693" cy="593.441" r="4.81381" stroke-width="0.5" stroke="black" fill="magenta"/>
   </g>
   <g id="cell13">
  <circle cx="387.887" cy="567.608" r="8.41271" stroke-width="0.5" stroke="black" fill="magenta"/>
  <circle cx="387.887" cy="567.608" r="5.05167" stroke-width="0.5" stroke="black" fill="magenta"/>
   </g>
   <g id="cell14">
  <circle cx="529.275" cy="401.909" r="8.41271" stroke-width="0.5" stroke="black" fill="magenta"/>
  <circle cx="529.275" cy="401.909" r="5.05167" stroke-width="0.5" stroke="black" fill="magenta"/>
   </g>
   <g id="cell15">
  <circle cx="383.878" cy="477.899" r="8.15353" stroke-width="0.5" stroke="black" fill="magenta"/>
  <circle cx="383.878" cy="477.899" r="4.93122" stroke-width="0.5" stroke="black" fill="magenta"/>
   </g>
   <g id="cell16">
  <circle cx="436.967" cy="421.032" r="6.72009" stroke-width="0.5" stroke="black" fill="magenta"/>
  <circle cx="436.967" cy="421.032" r="4.14317" stroke-width="0.5" stroke="black" fill="magenta"/>
   </g>
   <g id="cell17">
  <circle cx="571.109" cy="494.293" r="8.41271" stroke-width="0.5" stroke="black" fill="magenta"/>
  <circle cx="571.109" cy="494.293" r="5.05167" stroke-width="0.5" stroke="black" fill="magenta"/>
   </g>
   <g id="cell18">
  <circle cx="519.129" cy="390.684" r="8.41271" stroke-width="0.5" stroke="black" fill="magenta"/>
  <circle cx="519.129" cy="390.684" r="5.05167" stroke-width="0.5" stroke="black" fill="magenta"/>
   </g>
   <g id="cell19">
  <circle cx="458.501" cy="540.289" r="8.35605" stroke-width="0.5" stroke="black" fill="magenta"/>
  <circle cx="458.501" cy="540.289" r="5.03033" stroke-width="0.5" stroke="black" fill="magenta"/>
   </g>
   <g id="cell20">
  <circle cx="531.263" cy="416.887" r="8.41271" stroke-width="0.5" stroke="black" fill="magenta"/>
  <circle cx="531.263" cy="416.887" r="5.05167" stroke-width="0.5" stroke="black" fill="magenta"/>
   </g>
   <g id="cell21">
  <circle cx="466.747" cy="632.389" r="8.41271" stroke-width="0.5" stroke="black" fill="magenta"/>
  <circle cx="466.747" cy="632.389" r="5.05167" stroke-width="0.5" stroke="black" fill="magenta"/>
   </g>
   <g id="cell22">
  <circle cx="554.858" cy="495.116" r="8.41271" stroke-width="0.5" stroke="black" fill="magenta"/>
  <circle cx="554.858" cy="495.116" r="5.05167" stroke-width="0.5" stroke="black" fill="magenta"/>
   </g>
   <g id="cell23">
  <circle cx="546.67" cy="481.505" r="8.41271" stroke-width="0.5" stroke="black" fill="magenta"/>
  <circle cx="546.67" cy="481.505" r="5.05167" stroke-width="0.5" stroke="black" fill="magenta"/>
   </g>
   <g id="cell24">
  <circle cx="558.892" cy="381.073" r="8.41271" stroke-width="0.5" stroke="black" fill="magenta"/>
  <circle cx="558.892" cy="381.073" r="5.05167" stroke-width="0.5" stroke="black" fill="magenta"/>
   </g>
   <g id="cell25">
  <circle cx="648.332" cy="543.136" r="8.40826" stroke-width="0.5" stroke="black" fill="green"/>
  <circle cx="648.332" cy="543.136" r="5.05039" stroke-width="0.5" stroke="black" fill="green"/>
   </g>
   <g id="cell26">
  <circle cx="557.266" cy="396.531" r="8.35568" stroke-width="0.5" stroke="black" fill="green"/>
  <circle cx="557.266" cy="396.531" r="5.02965" stroke-width="0.5" stroke="black" fill="green"/>
   </g>
   <g id="cell27">
  <circle cx="464.869" cy="397.881" r="8.40994" stroke-width="0.5" stroke="black" fill="green"/>
  <circle cx="464.869" cy="397.881" r="5.05091" stroke-width="0.5" stroke="black" fill="green"/>
   </g>
   <g id="cell28">
  <circle cx="434.632" cy="532.364" r="6.80881" stroke-width="0.5" stroke="black" fill="green"/>
  <circle cx="434.632" cy="532.364" r="4.10709" stroke-width="0.5" stroke="black" fill="green"/>
   </g>
   <g id="cell29">
  <circle cx="450.481" cy="514.241" r="8.41271" stroke-width="0.5" stroke="black" fill="green"/>
  <circle cx="450.481" cy="514.241" r="5.05167" stroke-width="0.5" stroke="black" fill="green"/>
   </g>
   <g id="cell30">
  <circle cx="485.685" cy="537.093" r="7.85664" stroke-width="0.5" stroke="black" fill="green"/>
  <circle cx="485.685" cy="537.093" r="4.77001" stroke-width="0.5" stroke="black" fill="green"/>
   </g>
   <g id="cell31">
  <circle cx="412.605" cy="541.772" r="8.41271" stroke-width="0.5" stroke="black" fill="green"/>
  <circle cx="412.605" cy="541.772" r="5.05167" stroke-width="0.5" stroke="black" fill="green"/>
   </g>
   <g id="cell32">
  <circle cx="421.367" cy="481.396" r="1.89538" stroke-width="0.5" stroke="black" fill="green"/>
  <circle cx="421.367" cy="481.396" r="1.81685" stroke-width="0.5" stroke="black" fill="black"/>
   </g>
   <g id="cell33">
  <circle cx="502.132" cy="424.903" r="7.75912" stroke-width="0.5" stroke="black" fill="green"/>
  <circle cx="502.132" cy="424.903" r="4.71248" stroke-width="0.5" stroke="black" fill="green"/>
   </g>
   <g id="cell34">
  <circle cx="396.819" cy="450.575" r="1.95777" stroke-width="0.5" stroke="black" fill="green"/>
  <circle cx="396.819" cy="450.575" r="1.86492" stroke-width="0.5" stroke="black" fill="black"/>
   </g>
   <g id="cell35">
  <circle cx="554.137" cy="544.348" r="8.41271" stroke-width="0.5" stroke="black" fill="green"/>
  <circle cx="554.137" cy="544.348" r="5.05167" stroke-width="0.5" stroke="black" fill="green"/>
   </g>
   <g id="cell36">
  <circle cx="387.815" cy="584.155" r="4.4911" stroke-width="0.5" stroke="black" fill="green"/>
  <circle cx="387.815" cy="584.155" r="2.73073" stroke-width="0.5" stroke="black" fill="green"/>
   </g>
   <g id="cell37">
  <circle cx="640.129" cy="457.278" r="8.40953" stroke-width="0.5" stroke="black" fill="green"/>
  <circle cx="640.129" cy="457.278" r="5.05079" stroke-width="0.5" stroke="black" fill="green"/>
   </g>
   <g id="cell38">
  <circle cx="530.04" cy="587.472" r="8.40895" stroke-width="0.5" stroke="black" fill="green"/>
  <circle cx="530.04" cy="587.472" r="5.05061" stroke-width="0.5" stroke="black" fill="green"/>
   </g>
   <g id="cell39">
  <circle cx="613.339" cy="490.872" r="8.41271" stroke-width="0.5" stroke="black" fill="green"/>
  <circle cx="613.339" cy="490.872" r="5.05167" stroke-width="0.5" stroke="black" fill="green"/>
   </g>
   <g id="cell40">
  <circle cx="485.607" cy="566.708" r="6.67717" stroke-width="0.5" stroke="black" fill="green"/>
  <circle cx="485.607" cy="566.708" r="4.00951" stroke-width="0.5" stroke="black" fill="green"/>
   </g>
   <g id="cell41">
  <circle cx="364.751" cy="481.666" r="8.41271" stroke-width="0.5" stroke="black" fill="green"/>
  <circle cx="364.751" cy="481.666" r="5.05167" stroke-width="0.5" stroke="black" fill="green"/>
   </g>
   <g id="cell42">
  <circle cx="438.706" cy="493.581" r="8.41271" stroke-width="0.5" stroke="black" fill="green"/>
  <circle cx="438.706" cy="493.581" r="5.05167" stroke-width="0.5" stroke="black" fill="green"/>
   </g>
   <g id="cell43">
  <circle cx="559.759" cy="438.699" r="8.41271" stroke-width="0.5" stroke="black" fill="green"/>
  <circle cx="559.759" cy="438.699" r="5.05167" stroke-width="0.5" stroke="black" fill="green"/>
   </g>
   <g id="cell44">
  <circle cx="473.479" cy="626.206" r="1.54796" stroke-width="0.5" stroke="black" fill="green"/>
  <circle cx="473.479" cy="626.206" r="1.52398" stroke-width="0.5" stroke="black" fill="black"/>
   </g>
   <g id="cell145">
  <circle cx="425.531" cy="417.265" r="6.72009" stroke-width="0.5" stroke="black" fill="magenta"/>
  <circle cx="425.531" cy="417.265" r="4.14317" stroke-width="0.5" stroke="black" fill="magenta"/>
   </g>
   <g id="cell46">
  <circle cx="521.275" cy="613.568" r="8.38753" stroke-width="0.5" stroke="black" fill="green"/>
  <circle cx="521.275" cy="613.568" r="5.04286" stroke-width="0.5" stroke="black" fill="green"/>
   </g>
   <g id="cell47">
  <circle cx="503.922" cy="494.541" r="8.39708" stroke-width="0.5" stroke="black" fill="green"/>
  <circle cx="503.922" cy="494.541" r="5.0465" stroke-width="0.5" stroke="black" fill="green"/>
   </g>
   <g id="cell48">
  <circle cx="571.085" cy="604.799" r="8.35493" stroke-width="0.5" stroke="black" fill="green"/>
  <circle cx="571.085" cy="604.799" r="5.03039" stroke-width="0.5" stroke="black" fill="green"/>
   </g>
   <g id="cell49">
  <circle cx="432.828" cy="394.736" r="8.41271" stroke-width="0.5" stroke="black" fill="green"/>
  <circle cx="432.828" cy="394.736" r="5.05167" stroke-width="0.5" stroke="black" fill="green"/>
   </g>
   <g id="cell50">
  <circle cx="512.741" cy="507.806" r="8.33146" stroke-width="0.5" stroke="black" fill="cyan"/>
  <circle cx="512.741" cy="507.806" r="5.01941" stroke-width="0.5" stroke="black" fill="cyan"/>
   </g>
   <g id="cell51">
  <circle cx="399.952" cy="597.162" r="8.41271" stroke-width="0.5" stroke="black" fill="cyan"/>
  <circle cx="399.952" cy="597.162" r="5.05167" stroke-width="0.5" stroke="black" fill="cyan"/>
   </g>
   <g id="cell52">
  <circle cx="516.761" cy="421.663" r="8.41271" stroke-width="0.5" stroke="black" fill="cyan"/>
  <circle cx="516.761" cy="421.663" r="5.05167" stroke-width="0.5" stroke="black" fill="cyan"/>
   </g>
   <g id="cell53">
  <circle cx="572.198" cy="428.507" r="8.39144" stroke-width="0.5" stroke="black" fill="cyan"/>
  <circle cx="572.198" cy="428.507" r="5.04437" stroke-width="0.5" stroke="black" fill="cyan"/>
   </g>
   <g id="cell54">
  <circle cx="480.552" cy="421.835" r="8.39987" stroke-width="0.5" stroke="black" fill="cyan"/>
  <circle cx="480.552" cy="421.835" r="5.04751" stroke-width="0.5" stroke="black" fill="cyan"/>
   </g>
   <g id="cell55">
  <circle cx="522.823" cy="462.459" r="8.39244" stroke-width="0.5" stroke="black" fill="cyan"/>
  <circle cx="522.823" cy="462.459" r="5.04493" stroke-width="0.5" stroke="black" fill="cyan"/>
   </g>
   <g id="cell56">
  <circle cx="617.095" cy="522.402" r="8.41271" stroke-width="0.5" stroke="black" fill="cyan"/>
  <circle cx="617.095" cy="522.402" r="5.05167" stroke-width="0.5" stroke="black" fill="cyan"/>
   </g>
   <g id="cell105">
  <circle cx="507.25" cy="607.737" r="7.69599" stroke-width="0.5" stroke="black" fill="green"/>
  <circle cx="507.25" cy="607.737" r="4.68641" stroke-width="0.5" stroke="black" fill="green"/>
   </g>
   <g id="cell58">
  <circle cx="562.51" cy="484.415" r="6.71158" stroke-width="0.5" stroke="black" fill="cyan"/>
  <circle cx="562.51" cy="484.415" r="4.03435" stroke-width="0.5" stroke="black" fill="cyan"/>
   </g>
   <g id="cell59">
  <circle cx="385.732" cy="440.058" r="8.41271" stroke-width="0.5" stroke="black" fill="cyan"/>
  <circle cx="385.732" cy="440.058" r="5.05167" stroke-width="0.5" stroke="black" fill="cyan"/>
   </g>
   <g id="cell60">
  <circle cx="592.265" cy="473.767" r="8.41271" stroke-width="0.5" stroke="black" fill="cyan"/>
  <circle cx="592.265" cy="473.767" r="5.05167" stroke-width="0.5" stroke="black" fill="cyan"/>
   </g>
   <g id="cell61">
  <circle cx="557.056" cy="621.932" r="3.04602" stroke-width="0.5" stroke="black" fill="cyan"/>
  <circle cx="557.056" cy="621.932" r="2.48703" stroke-width="0.5" stroke="black" fill="black"/>
   </g>
   <g id="cell62">
  <circle cx="512.366" cy="436.668" r="8.28846" stroke-width="0.5" stroke="black" fill="cyan"/>
  <circle cx="512.366" cy="436.668" r="4.99917" stroke-width="0.5" stroke="black" fill="cyan"/>
   </g>
   <g id="cell63">
  <circle cx="584.433" cy="538.909" r="8.12593" stroke-width="0.5" stroke="black" fill="cyan"/>
  <circle cx="584.433" cy="538.909" r="4.91764" stroke-width="0.5" stroke="black" fill="cyan"/>
   </g>
   <g id="cell64">
  <circle cx="509.695" cy="638.857" r="8.41271" stroke-width="0.5" stroke="black" fill="cyan"/>
  <circle cx="509.695" cy="638.857" r="5.05167" stroke-width="0.5" stroke="black" fill="cyan"/>
   </g>
   <g id="cell65">
  <circle cx="549.479" cy="465.128" r="8.40403" stroke-width="0.5" stroke="black" fill="cyan"/>
  <circle cx="549.479" cy="465.128" r="5.04898" stroke-width="0.5" stroke="black" fill="cyan"/>
   </g>
   <g id="cell66">
  <circle cx="530.27" cy="533.215" r="8.39913" stroke-width="0.5" stroke="black" fill="cyan"/>
  <circle cx="530.27" cy="533.215" r="5.04725" stroke-width="0.5" stroke="black" fill="cyan"/>
   </g>
   <g id="cell67">
  <circle cx="353.929" cy="493.56" r="8.41271" stroke-width="0.5" stroke="black" fill="cyan"/>
  <circle cx="353.929" cy="493.56" r="5.05167" stroke-width="0.5" stroke="black" fill="cyan"/>
   </g>
   <g id="cell68">
  <circle cx="563.153" cy="557.095" r="8.41271" stroke-width="0.5" stroke="black" fill="cyan"/>
  <circle cx="563.153" cy="557.095" r="5.05167" stroke-width="0.5" stroke="black" fill="cyan"/>
   </g>
   <g id="cell69">
  <circle cx="442.068" cy="460.641" r="8.41271" stroke-width="0.5" stroke="black" fill="cyan"/>
  <circle cx="442.068" cy="460.641" r="5.05167" stroke-width="0.5" stroke="black" fill="cyan"/>
   </g>
   <g id="cell70">
  <circle cx="576.96" cy="479.206" r="8.41271" stroke-width="0.5" stroke="black" fill="cyan"/>
  <circle cx="576.96" cy="479.206" r="5.05167" stroke-width="0.5" stroke="black" fill="cyan"/>
   </g>
   <g id="cell71">
  <circle cx="380.27" cy="527.78" r="8.3632" stroke-width="0.5" stroke="black" fill="cyan"/>
  <circle cx="380.27" cy="527.78" r="5.03288" stroke-width="0.5" stroke="black" fill="cyan"/>
   </g>
   <g id="cell72">
  <circle cx="528.569" cy="506.756" r="8.40022" stroke-width="0.5" stroke="black" fill="cyan"/>
  <circle cx="528.569" cy="506.756" r="5.04764" stroke-width="0.5" stroke="black" fill="cyan"/>
   </g>
   <g id="cell73">
  <circle cx="364.559" cy="552.98" r="8.40576" stroke-width="0.5" stroke="black" fill="cyan"/>
  <circle cx="364.559" cy="552.98" r="5.04957" stroke-width="0.5" stroke="black" fill="cyan"/>
   </g>
   <g id="cell74">
  <circle cx="548.692" cy="434.022" r="1.45613" stroke-width="0.5" stroke="black" fill="cyan"/>
  <circle cx="548.692" cy="434.022" r="1.43829" stroke-width="0.5" stroke="black" fill="black"/>
   </g>
   <g id="cell75">
  <circle cx="528.952" cy="432.029" r="8.41002" stroke-width="0.5" stroke="black" fill="cyan"/>
  <circle cx="528.952" cy="432.029" r="5.05093" stroke-width="0.5" stroke="black" fill="cyan"/>
   </g>
   <g id="cell76">
  <circle cx="442.245" cy="382.103" r="8.37205" stroke-width="0.5" stroke="black" fill="green"/>
  <circle cx="442.245" cy="382.103" r="5.03735" stroke-width="0.5" stroke="black" fill="green"/>
   </g>
   <g id="cell77">
  <circle cx="476.062" cy="436.866" r="8.38143" stroke-width="0.5" stroke="black" fill="magenta"/>
  <circle cx="476.062" cy="436.866" r="5.04062" stroke-width="0.5" stroke="black" fill="magenta"/>
   </g>
   <g id="cell78">
  <circle cx="624.827" cy="461.979" r="8.40243" stroke-width="0.5" stroke="black" fill="green"/>
  <circle cx="624.827" cy="461.979" r="5.04854" stroke-width="0.5" stroke="black" fill="green"/>
   </g>
   <g id="cell79">
  <circle cx="515.782" cy="478.618" r="8.40915" stroke-width="0.5" stroke="black" fill="cyan"/>
  <circle cx="515.782" cy="478.618" r="5.05067" stroke-width="0.5" stroke="black" fill="cyan"/>
   </g>
   <g id="cell80">
  <circle cx="542.539" cy="615.732" r="8.28689" stroke-width="0.5" stroke="black" fill="green"/>
  <circle cx="542.539" cy="615.732" r="4.99871" stroke-width="0.5" stroke="black" fill="green"/>
   </g>
   <g id="cell81">
  <circle cx="545.33" cy="593.317" r="8.40696" stroke-width="0.5" stroke="black" fill="green"/>
  <circle cx="545.33" cy="593.317" r="5.05004" stroke-width="0.5" stroke="black" fill="green"/>
   </g>
   <g id="cell82">
  <circle cx="532.61" cy="558.734" r="7.63428" stroke-width="0.5" stroke="black" fill="magenta"/>
  <circle cx="532.61" cy="558.734" r="4.64001" stroke-width="0.5" stroke="black" fill="magenta"/>
   </g>
   <g id="cell83">
  <circle cx="635.397" cy="552.204" r="8.20456" stroke-width="0.5" stroke="black" fill="green"/>
  <circle cx="635.397" cy="552.204" r="4.95798" stroke-width="0.5" stroke="black" fill="green"/>
   </g>
   <g id="cell84">
  <circle cx="519.749" cy="493.838" r="8.40614" stroke-width="0.5" stroke="black" fill="cyan"/>
  <circle cx="519.749" cy="493.838" r="5.0497" stroke-width="0.5" stroke="black" fill="cyan"/>
   </g>
   <g id="cell85">
  <circle cx="352.46" cy="542.515" r="8.39316" stroke-width="0.5" stroke="black" fill="cyan"/>
  <circle cx="352.46" cy="542.515" r="5.04528" stroke-width="0.5" stroke="black" fill="cyan"/>
   </g>
   <g id="cell86">
  <circle cx="500.167" cy="535.327" r="8.27128" stroke-width="0.5" stroke="black" fill="magenta"/>
  <circle cx="500.167" cy="535.327" r="4.99129" stroke-width="0.5" stroke="black" fill="magenta"/>
   </g>
   <g id="cell87">
  <circle cx="579.117" cy="558.162" r="8.38501" stroke-width="0.5" stroke="black" fill="cyan"/>
  <circle cx="579.117" cy="558.162" r="5.0422" stroke-width="0.5" stroke="black" fill="cyan"/>
   </g>
   <g id="cell88">
  <circle cx="445.969" cy="532.148" r="6.67047" stroke-width="0.5" stroke="black" fill="magenta"/>
  <circle cx="445.969" cy="532.148" r="4.00744" stroke-width="0.5" stroke="black" fill="magenta"/>
   </g>
   <g id="cell89">
  <circle cx="551.133" cy="451.06" r="7.38859" stroke-width="0.5" stroke="black" fill="cyan"/>
  <circle cx="551.133" cy="451.06" r="4.51855" stroke-width="0.5" stroke="black" fill="cyan"/>
   </g>
   <g id="cell90">
  <circle cx="636.512" cy="472.661" r="8.20734" stroke-width="0.5" stroke="black" fill="green"/>
  <circle cx="636.512" cy="472.661" r="4.95995" stroke-width="0.5" stroke="black" fill="green"/>
   </g>
   <g id="cell91">
  <circle cx="547.258" cy="558.311" r="8.39569" stroke-width="0.5" stroke="black" fill="magenta"/>
  <circle cx="547.258" cy="558.311" r="5.04631" stroke-width="0.5" stroke="black" fill="magenta"/>
   </g>
   <g id="cell92">
  <circle cx="485.206" cy="552.697" r="8.40185" stroke-width="0.5" stroke="black" fill="green"/>
  <circle cx="485.206" cy="552.697" r="5.04822" stroke-width="0.5" stroke="black" fill="green"/>
   </g>
   <g id="cell93">
  <circle cx="538.847" cy="545.796" r="8.39569" stroke-width="0.5" stroke="black" fill="magenta"/>
  <circle cx="538.847" cy="545.796" r="5.04631" stroke-width="0.5" stroke="black" fill="magenta"/>
   </g>
   <g id="cell94">
  <circle cx="539.654" cy="495.727" r="8.40022" stroke-width="0.5" stroke="black" fill="cyan"/>
  <circle cx="539.654" cy="495.727" r="5.04764" stroke-width="0.5" stroke="black" fill="cyan"/>
   </g>
   <g id="cell95">
  <circle cx="465.114" cy="425.718" r="8.39987" stroke-width="0.5" stroke="black" fill="cyan"/>
  <circle cx="465.114" cy="425.718" r="5.04751" stroke-width="0.5" stroke="black" fill="cyan"/>
   </g>
   <g id="cell96">
  <circle cx="545.517" cy="531.854" r="8.01672" stroke-width="0.5" stroke="black" fill="cyan"/>
  <circle cx="545.517" cy="531.854" r="4.85959" stroke-width="0.5" stroke="black" fill="cyan"/>
   </g>
   <g id="cell97">
  <circle cx="421.546" cy="466.469" r="8.38681" stroke-width="0.5" stroke="black" fill="green"/>
  <circle cx="421.546" cy="466.469" r="5.04299" stroke-width="0.5" stroke="black" fill="green"/>
   </g>
   <g id="cell98">
  <circle cx="491.023" cy="523.009" r="8.24102" stroke-width="0.5" stroke="black" fill="green"/>
  <circle cx="491.023" cy="523.009" r="4.97709" stroke-width="0.5" stroke="black" fill="green"/>
   </g>
   <g id="cell99">
  <circle cx="358.329" cy="527.647" r="8.39316" stroke-width="0.5" stroke="black" fill="cyan"/>
  <circle cx="358.329" cy="527.647" r="5.04528" stroke-width="0.5" stroke="black" fill="cyan"/>
   </g>
   <g id="cell100">
  <circle cx="448.781" cy="396.757" r="8.39283" stroke-width="0.5" stroke="black" fill="green"/>
  <circle cx="448.781" cy="396.757" r="5.04505" stroke-width="0.5" stroke="black" fill="green"/>
   </g>
   <g id="cell101">
  <circle cx="530.821" cy="483.452" r="7.97768" stroke-width="0.5" stroke="black" fill="cyan"/>
  <circle cx="530.821" cy="483.452" r="4.83888" stroke-width="0.5" stroke="black" fill="cyan"/>
   </g>
   <g id="cell102">
  <circle cx="435.048" cy="475.052" r="8.38681" stroke-width="0.5" stroke="black" fill="green"/>
  <circle cx="435.048" cy="475.052" r="5.04299" stroke-width="0.5" stroke="black" fill="green"/>
   </g>
   <g id="cell103">
  <circle cx="590.916" cy="447.76" r="8.26788" stroke-width="0.5" stroke="black" fill="cyan"/>
  <circle cx="590.916" cy="447.76" r="4.9905" stroke-width="0.5" stroke="black" fill="cyan"/>
   </g>
   <g id="cell104">
  <circle cx="599.646" cy="556.879" r="7.34182" stroke-width="0.5" stroke="black" fill="cyan"/>
  <circle cx="599.646" cy="556.879" r="4.46639" stroke-width="0.5" stroke="black" fill="cyan"/>
   </g>
   <g id="cell106">
  <circle cx="461.546" cy="440.845" r="8.38143" stroke-width="0.5" stroke="black" fill="magenta"/>
  <circle cx="461.546" cy="440.845" r="5.04062" stroke-width="0.5" stroke="black" fill="magenta"/>
   </g>
   <g id="cell107">
  <circle cx="457.911" cy="383.713" r="8.25791" stroke-width="0.5" stroke="black" fill="green"/>
  <circle cx="457.911" cy="383.713" r="4.98687" stroke-width="0.5" stroke="black" fill="green"/>
   </g>
   <g id="cell108">
  <circle cx="555.167" cy="606.11" r="8.37641" stroke-width="0.5" stroke="black" fill="green"/>
  <circle cx="555.167" cy="606.11" r="5.0384" stroke-width="0.5" stroke="black" fill="green"/>
   </g>
   <g id="cell109">
  <circle cx="576.531" cy="589.845" r="8.35493" stroke-width="0.5" stroke="black" fill="green"/>
  <circle cx="576.531" cy="589.845" r="5.03039" stroke-width="0.5" stroke="black" fill="green"/>
   </g>
   <g id="cell110">
  <circle cx="373.6" cy="513.323" r="8.3632" stroke-width="0.5" stroke="black" fill="cyan"/>
  <circle cx="373.6" cy="513.323" r="5.03288" stroke-width="0.5" stroke="black" fill="cyan"/>
   </g>
   <g id="cell111">
  <circle cx="454.966" cy="554.636" r="7.96978" stroke-width="0.5" stroke="black" fill="magenta"/>
  <circle cx="454.966" cy="554.636" r="4.83741" stroke-width="0.5" stroke="black" fill="magenta"/>
   </g>
   <g id="cell112">
  <circle cx="498.06" cy="473.211" r="7.29485" stroke-width="0.5" stroke="black" fill="magenta"/>
  <circle cx="498.06" cy="473.211" r="4.44057" stroke-width="0.5" stroke="black" fill="magenta"/>
   </g>
   <g id="cell113">
  <circle cx="542.228" cy="394.696" r="7.53323" stroke-width="0.5" stroke="black" fill="green"/>
  <circle cx="542.228" cy="394.696" r="4.58593" stroke-width="0.5" stroke="black" fill="green"/>
   </g>
   <g id="cell114">
  <circle cx="524.549" cy="446.814" r="8.31623" stroke-width="0.5" stroke="black" fill="cyan"/>
  <circle cx="524.549" cy="446.814" r="5.01386" stroke-width="0.5" stroke="black" fill="cyan"/>
   </g>
   <g id="cell115">
  <circle cx="537.25" cy="455.15" r="8.05277" stroke-width="0.5" stroke="black" fill="cyan"/>
  <circle cx="537.25" cy="455.15" r="4.88492" stroke-width="0.5" stroke="black" fill="cyan"/>
   </g>
   <g id="cell116">
  <circle cx="521.486" cy="520.604" r="8.33146" stroke-width="0.5" stroke="black" fill="cyan"/>
  <circle cx="521.486" cy="520.604" r="5.01941" stroke-width="0.5" stroke="black" fill="cyan"/>
   </g>
   <g id="cell117">
  <circle cx="508.473" cy="622.959" r="8.3048" stroke-width="0.5" stroke="black" fill="green"/>
  <circle cx="508.473" cy="622.959" r="5.00808" stroke-width="0.5" stroke="black" fill="green"/>
   </g>
   <g id="cell118">
  <circle cx="510.132" cy="452.073" r="8.28846" stroke-width="0.5" stroke="black" fill="cyan"/>
  <circle cx="510.132" cy="452.073" r="4.99917" stroke-width="0.5" stroke="black" fill="cyan"/>
   </g>
   <g id="cell119">
  <circle cx="533.09" cy="603.155" r="8.28689" stroke-width="0.5" stroke="black" fill="green"/>
  <circle cx="533.09" cy="603.155" r="4.99871" stroke-width="0.5" stroke="black" fill="green"/>
   </g>
   <g id="cell120">
  <circle cx="575.825" cy="443.7" r="8.26788" stroke-width="0.5" stroke="black" fill="cyan"/>
  <circle cx="575.825" cy="443.7" r="4.9905" stroke-width="0.5" stroke="black" fill="cyan"/>
   </g>
   <g id="cell121">
  <circle cx="451.51" cy="369.549" r="8.10063" stroke-width="0.5" stroke="black" fill="green"/>
  <circle cx="451.51" cy="369.549" r="4.91173" stroke-width="0.5" stroke="black" fill="green"/>
   </g>
   <g id="cell122">
  <circle cx="506.279" cy="521.828" r="8.27128" stroke-width="0.5" stroke="black" fill="magenta"/>
  <circle cx="506.279" cy="521.828" r="4.99129" stroke-width="0.5" stroke="black" fill="magenta"/>
   </g>
   <g id="cell123">
  <circle cx="497.376" cy="508.988" r="8.24102" stroke-width="0.5" stroke="black" fill="green"/>
  <circle cx="497.376" cy="508.988" r="4.97709" stroke-width="0.5" stroke="black" fill="green"/>
   </g>
   <g id="cell124">
  <circle cx="490.495" cy="433.607" r="8.24762" stroke-width="0.5" stroke="black" fill="magenta"/>
  <circle cx="490.495" cy="433.607" r="4.97938" stroke-width="0.5" stroke="black" fill="magenta"/>
   </g>
   <g id="cell125">
  <circle cx="621.672" cy="477.457" r="8.20734" stroke-width="0.5" stroke="black" fill="green"/>
  <circle cx="621.672" cy="477.457" r="4.95995" stroke-width="0.5" stroke="black" fill="green"/>
   </g>
   <g id="cell126">
  <circle cx="628.961" cy="566.411" r="8.20456" stroke-width="0.5" stroke="black" fill="green"/>
  <circle cx="628.961" cy="566.411" r="4.95798" stroke-width="0.5" stroke="black" fill="green"/>
   </g>
   <g id="cell127">
  <circle cx="438.447" cy="361.422" r="8.10063" stroke-width="0.5" stroke="black" fill="green"/>
  <circle cx="438.447" cy="361.422" r="4.91173" stroke-width="0.5" stroke="black" fill="green"/>
   </g>
   <g id="cell128">
  <circle cx="372.64" cy="468.519" r="8.15353" stroke-width="0.5" stroke="black" fill="magenta"/>
  <circle cx="372.64" cy="468.519" r="4.93122" stroke-width="0.5" stroke="black" fill="magenta"/>
   </g>
   <g id="cell129">
  <circle cx="569.42" cy="542.136" r="8.12593" stroke-width="0.5" stroke="black" fill="cyan"/>
  <circle cx="569.42" cy="542.136" r="4.91764" stroke-width="0.5" stroke="black" fill="cyan"/>
   </g>
   <g id="cell130">
  <circle cx="542.117" cy="440.266" r="8.05277" stroke-width="0.5" stroke="black" fill="cyan"/>
  <circle cx="542.117" cy="440.266" r="4.88492" stroke-width="0.5" stroke="black" fill="cyan"/>
   </g>
   <g id="cell131">
  <circle cx="537.158" cy="519.39" r="8.01672" stroke-width="0.5" stroke="black" fill="cyan"/>
  <circle cx="537.158" cy="519.39" r="4.85959" stroke-width="0.5" stroke="black" fill="cyan"/>
   </g>
   <g id="cell132">
  <circle cx="444.603" cy="544.607" r="7.96978" stroke-width="0.5" stroke="black" fill="magenta"/>
  <circle cx="444.603" cy="544.607" r="4.83741" stroke-width="0.5" stroke="black" fill="magenta"/>
   </g>
   <g id="cell133">
  <circle cx="570.058" cy="465.452" r="7.99621" stroke-width="0.5" stroke="black" fill="cyan"/>
  <circle cx="570.058" cy="465.452" r="4.84785" stroke-width="0.5" stroke="black" fill="cyan"/>
   </g>
   <g id="cell134">
  <circle cx="535.945" cy="470.106" r="7.97768" stroke-width="0.5" stroke="black" fill="cyan"/>
  <circle cx="535.945" cy="470.106" r="4.83888" stroke-width="0.5" stroke="black" fill="cyan"/>
   </g>
   <g id="cell135">
  <circle cx="515.345" cy="583.713" r="7.93688" stroke-width="0.5" stroke="black" fill="magenta"/>
  <circle cx="515.345" cy="583.713" r="4.81381" stroke-width="0.5" stroke="black" fill="magenta"/>
   </g>
   <g id="cell136">
  <circle cx="472.876" cy="543.734" r="7.85664" stroke-width="0.5" stroke="black" fill="green"/>
  <circle cx="472.876" cy="543.734" r="4.77001" stroke-width="0.5" stroke="black" fill="green"/>
   </g>
   <g id="cell137">
  <circle cx="493.282" cy="611.639" r="7.69599" stroke-width="0.5" stroke="black" fill="green"/>
  <circle cx="493.282" cy="611.639" r="4.68641" stroke-width="0.5" stroke="black" fill="green"/>
   </g>
   <g id="cell138">
  <circle cx="500.223" cy="410.302" r="7.75912" stroke-width="0.5" stroke="black" fill="green"/>
  <circle cx="500.223" cy="410.302" r="4.71248" stroke-width="0.5" stroke="black" fill="green"/>
   </g>
   <g id="cell139">
  <circle cx="421.994" cy="404.893" r="7.65871" stroke-width="0.5" stroke="black" fill="magenta"/>
  <circle cx="421.994" cy="404.893" r="4.6537" stroke-width="0.5" stroke="black" fill="magenta"/>
   </g>
   <g id="cell140">
  <circle cx="526.359" cy="570.414" r="6.86436" stroke-width="0.5" stroke="black" fill="magenta"/>
  <circle cx="526.359" cy="570.414" r="4.21081" stroke-width="0.5" stroke="black" fill="magenta"/>
   </g>
   <g id="cell141">
  <circle cx="564.491" cy="452.624" r="7.38859" stroke-width="0.5" stroke="black" fill="cyan"/>
  <circle cx="564.491" cy="452.624" r="4.51855" stroke-width="0.5" stroke="black" fill="cyan"/>
   </g>
   <g id="cell142">
  <circle cx="550.035" cy="418.509" r="6.98823" stroke-width="0.5" stroke="black" fill="green"/>
  <circle cx="550.035" cy="418.509" r="4.28947" stroke-width="0.5" stroke="black" fill="green"/>
   </g>
   <g id="cell143">
  <circle cx="434.712" cy="408.858" r="7.11665" stroke-width="0.5" stroke="black" fill="magenta"/>
  <circle cx="434.712" cy="408.858" r="4.36178" stroke-width="0.5" stroke="black" fill="magenta"/>
   </g>
   <g id="cell144">
  <circle cx="542.083" cy="408.171" r="6.98823" stroke-width="0.5" stroke="black" fill="green"/>
  <circle cx="542.083" cy="408.171" r="4.28947" stroke-width="0.5" stroke="black" fill="green"/>
   </g>
   <g id="cell146">
  <circle cx="589.218" cy="549.629" r="2.64205" stroke-width="0.5" stroke="black" fill="cyan"/>
  <circle cx="589.218" cy="549.629" r="2.12059" stroke-width="0.5" stroke="black" fill="black"/>
   </g>
   <g id="cell147">
  <circle cx="519.645" cy="560.092" r="6.86436" stroke-width="0.5" stroke="black" fill="magenta"/>
  <circle cx="519.645" cy="560.092" r="4.21081" stroke-width="0.5" stroke="black" fill="magenta"/>
   </g>
   <g id="cell148">
  <circle cx="508.85" cy="466.091" r="7.29485" stroke-width="0.5" stroke="black" fill="magenta"/>
  <circle cx="508.85" cy="466.091" r="4.44057" stroke-width="0.5" stroke="black" fill="magenta"/>
   </g>
   <g id="cell149">
  <circle cx="577.374" cy="397.889" r="7.0545" stroke-width="0.5" stroke="black" fill="magenta"/>
  <circle cx="577.374" cy="397.889" r="4.27772" stroke-width="0.5" stroke="black" fill="magenta"/>
   </g>
   <g id="cell150">
  <circle cx="398.222" cy="581.071" r="6.92764" stroke-width="0.5" stroke="black" fill="green"/>
  <circle cx="398.222" cy="581.071" r="4.1918" stroke-width="0.5" stroke="black" fill="green"/>
   </g>
   <g id="cell151">
  <circle cx="422.405" cy="531.388" r="6.80881" stroke-width="0.5" stroke="black" fill="green"/>
  <circle cx="422.405" cy="531.388" r="4.10709" stroke-width="0.5" stroke="black" fill="green"/>
   </g>
   <g id="cell152">
  <circle cx="380.906" cy="578.275" r="5.61424" stroke-width="0.5" stroke="black" fill="green"/>
  <circle cx="380.906" cy="578.275" r="3.41029" stroke-width="0.5" stroke="black" fill="green"/>
   </g>
   <g id="cell153">
  <circle cx="559.424" cy="473.46" r="6.71158" stroke-width="0.5" stroke="black" fill="cyan"/>
  <circle cx="559.424" cy="473.46" r="4.03435" stroke-width="0.5" stroke="black" fill="cyan"/>
   </g>
   <g id="cell154">
  <circle cx="389.612" cy="591.943" r="4.4911" stroke-width="0.5" stroke="black" fill="green"/>
  <circle cx="389.612" cy="591.943" r="2.73073" stroke-width="0.5" stroke="black" fill="green"/>
   </g>
   <g id="cell155">
  <circle cx="484.805" cy="577.955" r="6.67717" stroke-width="0.5" stroke="black" fill="green"/>
  <circle cx="484.805" cy="577.955" r="4.00951" stroke-width="0.5" stroke="black" fill="green"/>
   </g>
   <g id="cell156">
  <circle cx="455.218" cy="526.527" r="6.67047" stroke-width="0.5" stroke="black" fill="magenta"/>
  <circle cx="455.218" cy="526.527" r="4.00744" stroke-width="0.5" stroke="black" fill="magenta"/>
   </g>
  </g>
 </g>
  <rect x="775" y="1035" width="200" height="10" stroke-width="2" stroke="rgb(255,255,255)" fill="rgb(0,0,0)"/>
  <text x="781.25" y="1028.75"
   font-family="Arial" font-size="25" fill="black" >
   200 &#956;m
  </text>
  <text x="25" y="1045"
   font-family="Arial" font-size="18.75" fill="black" >
   0 days, 0 hours, 0 minutes, and 29.4014 seconds
  </text>
  <rect x="0" y="70" width="1000" height="1000" stroke-width="2" stroke="rgb(0,0,0)" fill="none"/>
</svg>
