<?xml version="1.0" encoding="UTF-8" standalone="no"?>
<!-- Created with PhysiCell (http://PhysiCell.MathCancer.org/) -->
<svg 
 xmlns:dc="http://purl.org/dc/elements/1.1/" 
 xmlns:cc="http://creativecommons.org/ns#" 
 xmlns:rdf="http://www.w3.org/1999/02/22-rdf-syntax-ns#" 
 xmlns:svg="http://www.w3.org/2000/svg" 
 xmlns="http://www.w3.org/2000/svg" 
 version="1.1" 
 width="1000" 
 height="1070" 
 id="svg2">
  <rect x="0" y="0" width="1000" height="1070" stroke-width="2" stroke="white" fill="white"/>
  <text x="12.5" y="30"
   font-family="Arial" font-size="25" fill="black" >
   Current time: 0 days, 19 hours, and 42.00 minutes, z = 0.00 &#956;m
  </text>
  <text x="12.5" y="57.5"
   font-family="Arial" font-size="23.75" fill="black" >
   135 agents
  </text>
 <g id="tissue" 
    transform="translate(0,1070) scale(1,-1)">
  <g id="ECM">
  </g>
  <g id="cells">
   <g id="cell0">
  <circle cx="513.375" cy="535.674" r="8.38373" stroke-width="0.5" stroke="black" fill="magenta"/>
  <circle cx="513.375" cy="535.674" r="5.04136" stroke-width="0.5" stroke="black" fill="magenta"/>
   </g>
   <g id="cell1">
  <circle cx="601.78" cy="524.149" r="8.41271" stroke-width="0.5" stroke="black" fill="magenta"/>
  <circle cx="601.78" cy="524.149" r="5.05167" stroke-width="0.5" stroke="black" fill="magenta"/>
   </g>
   <g id="cell2">
  <circle cx="515.899" cy="597.973" r="8.41271" stroke-width="0.5" stroke="black" fill="magenta"/>
  <circle cx="515.899" cy="597.973" r="5.05167" stroke-width="0.5" stroke="black" fill="magenta"/>
   </g>
   <g id="cell3">
  <circle cx="522.884" cy="547.812" r="8.36525" stroke-width="0.5" stroke="black" fill="magenta"/>
  <circle cx="522.884" cy="547.812" r="5.03448" stroke-width="0.5" stroke="black" fill="magenta"/>
   </g>
   <g id="cell4">
  <circle cx="488.635" cy="445.989" r="7.71355" stroke-width="0.5" stroke="black" fill="magenta"/>
  <circle cx="488.635" cy="445.989" r="4.68766" stroke-width="0.5" stroke="black" fill="magenta"/>
   </g>
   <g id="cell5">
  <circle cx="465.032" cy="493.3" r="8.41271" stroke-width="0.5" stroke="black" fill="magenta"/>
  <circle cx="465.032" cy="493.3" r="5.05167" stroke-width="0.5" stroke="black" fill="magenta"/>
   </g>
   <g id="cell6">
  <circle cx="596.659" cy="514.64" r="3.55736" stroke-width="0.5" stroke="black" fill="magenta"/>
  <circle cx="596.659" cy="514.64" r="2.70449" stroke-width="0.5" stroke="black" fill="black"/>
   </g>
   <g id="cell7">
  <circle cx="496.456" cy="457.795" r="8.18177" stroke-width="0.5" stroke="black" fill="magenta"/>
  <circle cx="496.456" cy="457.795" r="4.94584" stroke-width="0.5" stroke="black" fill="magenta"/>
   </g>
   <g id="cell8">
  <circle cx="376.376" cy="542.699" r="8.41271" stroke-width="0.5" stroke="black" fill="magenta"/>
  <circle cx="376.376" cy="542.699" r="5.05167" stroke-width="0.5" stroke="black" fill="magenta"/>
   </g>
   <g id="cell9">
  <circle cx="460.472" cy="599.786" r="3.9178" stroke-width="0.5" stroke="black" fill="magenta"/>
  <circle cx="460.472" cy="599.786" r="2.85647" stroke-width="0.5" stroke="black" fill="black"/>
   </g>
   <g id="cell10">
  <circle cx="583.447" cy="392.105" r="8.41271" stroke-width="0.5" stroke="black" fill="magenta"/>
  <circle cx="583.447" cy="392.105" r="5.05167" stroke-width="0.5" stroke="black" fill="magenta"/>
   </g>
   <g id="cell11">
  <circle cx="591.941" cy="590.051" r="8.41271" stroke-width="0.5" stroke="black" fill="magenta"/>
  <circle cx="591.941" cy="590.051" r="5.05167" stroke-width="0.5" stroke="black" fill="magenta"/>
   </g>
   <g id="cell12">
  <circle cx="504.147" cy="591.201" r="6.71158" stroke-width="0.5" stroke="black" fill="magenta"/>
  <circle cx="504.147" cy="591.201" r="4.03435" stroke-width="0.5" stroke="black" fill="magenta"/>
   </g>
   <g id="cell13">
  <circle cx="386.194" cy="568.228" r="8.41271" stroke-width="0.5" stroke="black" fill="magenta"/>
  <circle cx="386.194" cy="568.228" r="5.05167" stroke-width="0.5" stroke="black" fill="magenta"/>
   </g>
   <g id="cell14">
  <circle cx="528.898" cy="400.3" r="8.41271" stroke-width="0.5" stroke="black" fill="magenta"/>
  <circle cx="528.898" cy="400.3" r="5.05167" stroke-width="0.5" stroke="black" fill="magenta"/>
   </g>
   <g id="cell15">
  <circle cx="384.125" cy="477.014" r="7.33129" stroke-width="0.5" stroke="black" fill="magenta"/>
  <circle cx="384.125" cy="477.014" r="4.45516" stroke-width="0.5" stroke="black" fill="magenta"/>
   </g>
   <g id="cell16">
  <circle cx="429.035" cy="412.571" r="8.41271" stroke-width="0.5" stroke="black" fill="magenta"/>
  <circle cx="429.035" cy="412.571" r="5.05167" stroke-width="0.5" stroke="black" fill="magenta"/>
   </g>
   <g id="cell17">
  <circle cx="570.934" cy="491.37" r="8.41271" stroke-width="0.5" stroke="black" fill="magenta"/>
  <circle cx="570.934" cy="491.37" r="5.05167" stroke-width="0.5" stroke="black" fill="magenta"/>
   </g>
   <g id="cell18">
  <circle cx="518.155" cy="389.583" r="8.41271" stroke-width="0.5" stroke="black" fill="magenta"/>
  <circle cx="518.155" cy="389.583" r="5.05167" stroke-width="0.5" stroke="black" fill="magenta"/>
   </g>
   <g id="cell19">
  <circle cx="460.066" cy="540.721" r="8.17665" stroke-width="0.5" stroke="black" fill="magenta"/>
  <circle cx="460.066" cy="540.721" r="4.94585" stroke-width="0.5" stroke="black" fill="magenta"/>
   </g>
   <g id="cell20">
  <circle cx="530.788" cy="415.436" r="8.41271" stroke-width="0.5" stroke="black" fill="magenta"/>
  <circle cx="530.788" cy="415.436" r="5.05167" stroke-width="0.5" stroke="black" fill="magenta"/>
   </g>
   <g id="cell21">
  <circle cx="465.904" cy="633.163" r="8.41271" stroke-width="0.5" stroke="black" fill="magenta"/>
  <circle cx="465.904" cy="633.163" r="5.05167" stroke-width="0.5" stroke="black" fill="magenta"/>
   </g>
   <g id="cell22">
  <circle cx="556.107" cy="494.849" r="8.41271" stroke-width="0.5" stroke="black" fill="magenta"/>
  <circle cx="556.107" cy="494.849" r="5.05167" stroke-width="0.5" stroke="black" fill="magenta"/>
   </g>
   <g id="cell23">
  <circle cx="545.501" cy="484.021" r="8.41271" stroke-width="0.5" stroke="black" fill="magenta"/>
  <circle cx="545.501" cy="484.021" r="5.05167" stroke-width="0.5" stroke="black" fill="magenta"/>
   </g>
   <g id="cell24">
  <circle cx="558.792" cy="381.62" r="8.41271" stroke-width="0.5" stroke="black" fill="magenta"/>
  <circle cx="558.792" cy="381.62" r="5.05167" stroke-width="0.5" stroke="black" fill="magenta"/>
   </g>
   <g id="cell25">
  <circle cx="647.686" cy="543.605" r="8.39473" stroke-width="0.5" stroke="black" fill="green"/>
  <circle cx="647.686" cy="543.605" r="5.04562" stroke-width="0.5" stroke="black" fill="green"/>
   </g>
   <g id="cell26">
  <circle cx="555.196" cy="396.546" r="8.17502" stroke-width="0.5" stroke="black" fill="green"/>
  <circle cx="555.196" cy="396.546" r="4.94236" stroke-width="0.5" stroke="black" fill="green"/>
   </g>
   <g id="cell27">
  <circle cx="465.817" cy="395.632" r="8.40154" stroke-width="0.5" stroke="black" fill="green"/>
  <circle cx="465.817" cy="395.632" r="5.04811" stroke-width="0.5" stroke="black" fill="green"/>
   </g>
   <g id="cell28">
  <circle cx="432.809" cy="530.697" r="8.41271" stroke-width="0.5" stroke="black" fill="green"/>
  <circle cx="432.809" cy="530.697" r="5.05167" stroke-width="0.5" stroke="black" fill="green"/>
   </g>
   <g id="cell29">
  <circle cx="450.414" cy="516.342" r="8.41271" stroke-width="0.5" stroke="black" fill="green"/>
  <circle cx="450.414" cy="516.342" r="5.05167" stroke-width="0.5" stroke="black" fill="green"/>
   </g>
   <g id="cell30">
  <circle cx="483.491" cy="535.043" r="8.36849" stroke-width="0.5" stroke="black" fill="green"/>
  <circle cx="483.491" cy="535.043" r="5.03512" stroke-width="0.5" stroke="black" fill="green"/>
   </g>
   <g id="cell31">
  <circle cx="412.807" cy="541.561" r="8.41271" stroke-width="0.5" stroke="black" fill="green"/>
  <circle cx="412.807" cy="541.561" r="5.05167" stroke-width="0.5" stroke="black" fill="green"/>
   </g>
   <g id="cell32">
  <circle cx="421.022" cy="481.969" r="8.35236" stroke-width="0.5" stroke="black" fill="green"/>
  <circle cx="421.022" cy="481.969" r="5.02821" stroke-width="0.5" stroke="black" fill="green"/>
   </g>
   <g id="cell33">
  <circle cx="501.72" cy="421.55" r="8.41271" stroke-width="0.5" stroke="black" fill="green"/>
  <circle cx="501.72" cy="421.55" r="5.05167" stroke-width="0.5" stroke="black" fill="green"/>
   </g>
   <g id="cell34">
  <circle cx="397.088" cy="450.831" r="8.41271" stroke-width="0.5" stroke="black" fill="green"/>
  <circle cx="397.088" cy="450.831" r="5.05167" stroke-width="0.5" stroke="black" fill="green"/>
   </g>
   <g id="cell35">
  <circle cx="552.778" cy="542.6" r="8.41271" stroke-width="0.5" stroke="black" fill="green"/>
  <circle cx="552.778" cy="542.6" r="5.05167" stroke-width="0.5" stroke="black" fill="green"/>
   </g>
   <g id="cell36">
  <circle cx="391.486" cy="582.903" r="8.41271" stroke-width="0.5" stroke="black" fill="green"/>
  <circle cx="391.486" cy="582.903" r="5.05167" stroke-width="0.5" stroke="black" fill="green"/>
   </g>
   <g id="cell37">
  <circle cx="639.868" cy="458.03" r="8.39987" stroke-width="0.5" stroke="black" fill="green"/>
  <circle cx="639.868" cy="458.03" r="5.04751" stroke-width="0.5" stroke="black" fill="green"/>
   </g>
   <g id="cell38">
  <circle cx="529.406" cy="590.187" r="8.39752" stroke-width="0.5" stroke="black" fill="green"/>
  <circle cx="529.406" cy="590.187" r="5.04666" stroke-width="0.5" stroke="black" fill="green"/>
   </g>
   <g id="cell39">
  <circle cx="613.969" cy="489.893" r="8.41271" stroke-width="0.5" stroke="black" fill="green"/>
  <circle cx="613.969" cy="489.893" r="5.05167" stroke-width="0.5" stroke="black" fill="green"/>
   </g>
   <g id="cell40">
  <circle cx="485.348" cy="571.779" r="8.41271" stroke-width="0.5" stroke="black" fill="green"/>
  <circle cx="485.348" cy="571.779" r="5.05167" stroke-width="0.5" stroke="black" fill="green"/>
   </g>
   <g id="cell41">
  <circle cx="364.071" cy="481.244" r="8.41271" stroke-width="0.5" stroke="black" fill="green"/>
  <circle cx="364.071" cy="481.244" r="5.05167" stroke-width="0.5" stroke="black" fill="green"/>
   </g>
   <g id="cell42">
  <circle cx="438.824" cy="494.175" r="8.41271" stroke-width="0.5" stroke="black" fill="green"/>
  <circle cx="438.824" cy="494.175" r="5.05167" stroke-width="0.5" stroke="black" fill="green"/>
   </g>
   <g id="cell43">
  <circle cx="561.517" cy="440.885" r="8.41271" stroke-width="0.5" stroke="black" fill="green"/>
  <circle cx="561.517" cy="440.885" r="5.05167" stroke-width="0.5" stroke="black" fill="green"/>
   </g>
   <g id="cell44">
  <circle cx="474.321" cy="625.432" r="3.9178" stroke-width="0.5" stroke="black" fill="green"/>
  <circle cx="474.321" cy="625.432" r="2.85647" stroke-width="0.5" stroke="black" fill="black"/>
   </g>
   <g id="cell45">
  <circle cx="414.902" cy="556.698" r="1.48947" stroke-width="0.5" stroke="black" fill="green"/>
  <circle cx="414.902" cy="556.698" r="1.47064" stroke-width="0.5" stroke="black" fill="black"/>
   </g>
   <g id="cell46">
  <circle cx="520.488" cy="612.78" r="8.30918" stroke-width="0.5" stroke="black" fill="green"/>
  <circle cx="520.488" cy="612.78" r="5.00867" stroke-width="0.5" stroke="black" fill="green"/>
   </g>
   <g id="cell47">
  <circle cx="504.363" cy="495.894" r="8.34884" stroke-width="0.5" stroke="black" fill="green"/>
  <circle cx="504.363" cy="495.894" r="5.02667" stroke-width="0.5" stroke="black" fill="green"/>
   </g>
   <g id="cell48">
  <circle cx="571.025" cy="604.59" r="8.17175" stroke-width="0.5" stroke="black" fill="green"/>
  <circle cx="571.025" cy="604.59" r="4.94612" stroke-width="0.5" stroke="black" fill="green"/>
   </g>
   <g id="cell49">
  <circle cx="431.799" cy="397.167" r="8.41271" stroke-width="0.5" stroke="black" fill="green"/>
  <circle cx="431.799" cy="397.167" r="5.05167" stroke-width="0.5" stroke="black" fill="green"/>
   </g>
   <g id="cell50">
  <circle cx="512.185" cy="509.322" r="8.07173" stroke-width="0.5" stroke="black" fill="cyan"/>
  <circle cx="512.185" cy="509.322" r="4.89044" stroke-width="0.5" stroke="black" fill="cyan"/>
   </g>
   <g id="cell51">
  <circle cx="398.721" cy="597.201" r="8.41271" stroke-width="0.5" stroke="black" fill="cyan"/>
  <circle cx="398.721" cy="597.201" r="5.05167" stroke-width="0.5" stroke="black" fill="cyan"/>
   </g>
   <g id="cell52">
  <circle cx="517.444" cy="423.288" r="8.41271" stroke-width="0.5" stroke="black" fill="cyan"/>
  <circle cx="517.444" cy="423.288" r="5.05167" stroke-width="0.5" stroke="black" fill="cyan"/>
   </g>
   <g id="cell53">
  <circle cx="572.695" cy="429.457" r="8.32543" stroke-width="0.5" stroke="black" fill="cyan"/>
  <circle cx="572.695" cy="429.457" r="5.01617" stroke-width="0.5" stroke="black" fill="cyan"/>
   </g>
   <g id="cell54">
  <circle cx="481.825" cy="421.516" r="8.36032" stroke-width="0.5" stroke="black" fill="cyan"/>
  <circle cx="481.825" cy="421.516" r="5.03165" stroke-width="0.5" stroke="black" fill="cyan"/>
   </g>
   <g id="cell55">
  <circle cx="521.59" cy="463.749" r="8.32968" stroke-width="0.5" stroke="black" fill="cyan"/>
  <circle cx="521.59" cy="463.749" r="5.019" stroke-width="0.5" stroke="black" fill="cyan"/>
   </g>
   <g id="cell56">
  <circle cx="617.302" cy="522.384" r="8.41271" stroke-width="0.5" stroke="black" fill="cyan"/>
  <circle cx="617.302" cy="522.384" r="5.05167" stroke-width="0.5" stroke="black" fill="cyan"/>
   </g>
   <g id="cell105">
  <circle cx="505.542" cy="609.205" r="7.956" stroke-width="0.5" stroke="black" fill="green"/>
  <circle cx="505.542" cy="609.205" r="4.83202" stroke-width="0.5" stroke="black" fill="green"/>
   </g>
   <g id="cell58">
  <circle cx="560.493" cy="479.878" r="8.41271" stroke-width="0.5" stroke="black" fill="cyan"/>
  <circle cx="560.493" cy="479.878" r="5.05167" stroke-width="0.5" stroke="black" fill="cyan"/>
   </g>
   <g id="cell59">
  <circle cx="385.463" cy="439.803" r="8.41271" stroke-width="0.5" stroke="black" fill="cyan"/>
  <circle cx="385.463" cy="439.803" r="5.05167" stroke-width="0.5" stroke="black" fill="cyan"/>
   </g>
   <g id="cell60">
  <circle cx="591.892" cy="473.852" r="8.41271" stroke-width="0.5" stroke="black" fill="cyan"/>
  <circle cx="591.892" cy="473.852" r="5.05167" stroke-width="0.5" stroke="black" fill="cyan"/>
   </g>
   <g id="cell61">
  <circle cx="557.311" cy="622.605" r="8.41271" stroke-width="0.5" stroke="black" fill="cyan"/>
  <circle cx="557.311" cy="622.605" r="5.05167" stroke-width="0.5" stroke="black" fill="cyan"/>
   </g>
   <g id="cell62">
  <circle cx="514.126" cy="438.374" r="7.88757" stroke-width="0.5" stroke="black" fill="cyan"/>
  <circle cx="514.126" cy="438.374" r="4.78753" stroke-width="0.5" stroke="black" fill="cyan"/>
   </g>
   <g id="cell63">
  <circle cx="580.743" cy="542.834" r="7.22117" stroke-width="0.5" stroke="black" fill="cyan"/>
  <circle cx="580.743" cy="542.834" r="4.39131" stroke-width="0.5" stroke="black" fill="cyan"/>
   </g>
   <g id="cell64">
  <circle cx="509.723" cy="639.316" r="8.41271" stroke-width="0.5" stroke="black" fill="cyan"/>
  <circle cx="509.723" cy="639.316" r="5.05167" stroke-width="0.5" stroke="black" fill="cyan"/>
   </g>
   <g id="cell65">
  <circle cx="548.976" cy="468.997" r="8.37742" stroke-width="0.5" stroke="black" fill="cyan"/>
  <circle cx="548.976" cy="468.997" r="5.03881" stroke-width="0.5" stroke="black" fill="cyan"/>
   </g>
   <g id="cell66">
  <circle cx="529.146" cy="533.765" r="8.35727" stroke-width="0.5" stroke="black" fill="cyan"/>
  <circle cx="529.146" cy="533.765" r="5.03034" stroke-width="0.5" stroke="black" fill="cyan"/>
   </g>
   <g id="cell67">
  <circle cx="353.899" cy="493.589" r="8.41271" stroke-width="0.5" stroke="black" fill="cyan"/>
  <circle cx="353.899" cy="493.589" r="5.05167" stroke-width="0.5" stroke="black" fill="cyan"/>
   </g>
   <g id="cell68">
  <circle cx="562.931" cy="554.875" r="8.41271" stroke-width="0.5" stroke="black" fill="cyan"/>
  <circle cx="562.931" cy="554.875" r="5.05167" stroke-width="0.5" stroke="black" fill="cyan"/>
   </g>
   <g id="cell69">
  <circle cx="442.221" cy="460.336" r="8.41271" stroke-width="0.5" stroke="black" fill="cyan"/>
  <circle cx="442.221" cy="460.336" r="5.05167" stroke-width="0.5" stroke="black" fill="cyan"/>
   </g>
   <g id="cell70">
  <circle cx="576.111" cy="476.593" r="8.41271" stroke-width="0.5" stroke="black" fill="cyan"/>
  <circle cx="576.111" cy="476.593" r="5.05167" stroke-width="0.5" stroke="black" fill="cyan"/>
   </g>
   <g id="cell71">
  <circle cx="380.116" cy="527.771" r="8.20689" stroke-width="0.5" stroke="black" fill="cyan"/>
  <circle cx="380.116" cy="527.771" r="4.95867" stroke-width="0.5" stroke="black" fill="cyan"/>
   </g>
   <g id="cell72">
  <circle cx="528.194" cy="509.489" r="8.36178" stroke-width="0.5" stroke="black" fill="cyan"/>
  <circle cx="528.194" cy="509.489" r="5.03227" stroke-width="0.5" stroke="black" fill="cyan"/>
   </g>
   <g id="cell73">
  <circle cx="364.594" cy="552.871" r="8.38454" stroke-width="0.5" stroke="black" fill="cyan"/>
  <circle cx="364.594" cy="552.871" r="5.04168" stroke-width="0.5" stroke="black" fill="cyan"/>
   </g>
   <g id="cell74">
  <circle cx="548.639" cy="434.219" r="3.4551" stroke-width="0.5" stroke="black" fill="cyan"/>
  <circle cx="548.639" cy="434.219" r="2.64256" stroke-width="0.5" stroke="black" fill="black"/>
   </g>
   <g id="cell75">
  <circle cx="529.348" cy="433.674" r="8.40185" stroke-width="0.5" stroke="black" fill="cyan"/>
  <circle cx="529.348" cy="433.674" r="5.04822" stroke-width="0.5" stroke="black" fill="cyan"/>
   </g>
   <g id="cell76">
  <circle cx="442.189" cy="382.114" r="8.24453" stroke-width="0.5" stroke="black" fill="green"/>
  <circle cx="442.189" cy="382.114" r="4.98135" stroke-width="0.5" stroke="black" fill="green"/>
   </g>
   <g id="cell77">
  <circle cx="477.961" cy="436.454" r="8.28377" stroke-width="0.5" stroke="black" fill="magenta"/>
  <circle cx="477.961" cy="436.454" r="4.99759" stroke-width="0.5" stroke="black" fill="magenta"/>
   </g>
   <g id="cell78">
  <circle cx="624.505" cy="462.401" r="8.37095" stroke-width="0.5" stroke="black" fill="green"/>
  <circle cx="624.505" cy="462.401" r="5.03671" stroke-width="0.5" stroke="black" fill="green"/>
   </g>
   <g id="cell79">
  <circle cx="517.526" cy="479.268" r="8.39834" stroke-width="0.5" stroke="black" fill="cyan"/>
  <circle cx="517.526" cy="479.268" r="5.04696" stroke-width="0.5" stroke="black" fill="cyan"/>
   </g>
   <g id="cell80">
  <circle cx="543.352" cy="616.053" r="7.88055" stroke-width="0.5" stroke="black" fill="green"/>
  <circle cx="543.352" cy="616.053" r="4.78505" stroke-width="0.5" stroke="black" fill="green"/>
   </g>
   <g id="cell81">
  <circle cx="544.926" cy="594.794" r="8.38947" stroke-width="0.5" stroke="black" fill="green"/>
  <circle cx="544.926" cy="594.794" r="5.04398" stroke-width="0.5" stroke="black" fill="green"/>
   </g>
   <g id="cell82">
  <circle cx="532.421" cy="559.802" r="8.39473" stroke-width="0.5" stroke="black" fill="magenta"/>
  <circle cx="532.421" cy="559.802" r="5.04562" stroke-width="0.5" stroke="black" fill="magenta"/>
   </g>
   <g id="cell83">
  <circle cx="635.611" cy="552.655" r="7.5332" stroke-width="0.5" stroke="black" fill="green"/>
  <circle cx="635.611" cy="552.655" r="4.58159" stroke-width="0.5" stroke="black" fill="green"/>
   </g>
   <g id="cell84">
  <circle cx="520.311" cy="495.821" r="8.38608" stroke-width="0.5" stroke="black" fill="cyan"/>
  <circle cx="520.311" cy="495.821" r="5.04229" stroke-width="0.5" stroke="black" fill="cyan"/>
   </g>
   <g id="cell85">
  <circle cx="352.532" cy="542.49" r="8.33272" stroke-width="0.5" stroke="black" fill="cyan"/>
  <circle cx="352.532" cy="542.49" r="5.02078" stroke-width="0.5" stroke="black" fill="cyan"/>
   </g>
   <g id="cell86">
  <circle cx="498.668" cy="534.98" r="7.81348" stroke-width="0.5" stroke="black" fill="magenta"/>
  <circle cx="498.668" cy="534.98" r="4.7473" stroke-width="0.5" stroke="black" fill="magenta"/>
   </g>
   <g id="cell87">
  <circle cx="578.68" cy="557.396" r="8.2988" stroke-width="0.5" stroke="black" fill="cyan"/>
  <circle cx="578.68" cy="557.396" r="5.00552" stroke-width="0.5" stroke="black" fill="cyan"/>
   </g>
   <g id="cell88">
  <circle cx="448.305" cy="531.644" r="8.3784" stroke-width="0.5" stroke="black" fill="magenta"/>
  <circle cx="448.305" cy="531.644" r="5.03921" stroke-width="0.5" stroke="black" fill="magenta"/>
   </g>
   <g id="cell89">
  <circle cx="553.186" cy="452.761" r="6.81042" stroke-width="0.5" stroke="black" fill="cyan"/>
  <circle cx="553.186" cy="452.761" r="4.1178" stroke-width="0.5" stroke="black" fill="cyan"/>
   </g>
   <g id="cell90">
  <circle cx="635.789" cy="472.58" r="7.54263" stroke-width="0.5" stroke="black" fill="green"/>
  <circle cx="635.789" cy="472.58" r="4.59033" stroke-width="0.5" stroke="black" fill="green"/>
   </g>
   <g id="cell91">
  <circle cx="547.504" cy="557.358" r="8.3433" stroke-width="0.5" stroke="black" fill="magenta"/>
  <circle cx="547.504" cy="557.358" r="5.02591" stroke-width="0.5" stroke="black" fill="magenta"/>
   </g>
   <g id="cell92">
  <circle cx="482.468" cy="550.73" r="8.36849" stroke-width="0.5" stroke="black" fill="green"/>
  <circle cx="482.468" cy="550.73" r="5.03512" stroke-width="0.5" stroke="black" fill="green"/>
   </g>
   <g id="cell93">
  <circle cx="537.881" cy="545.994" r="8.3433" stroke-width="0.5" stroke="black" fill="magenta"/>
  <circle cx="537.881" cy="545.994" r="5.02591" stroke-width="0.5" stroke="black" fill="magenta"/>
   </g>
   <g id="cell94">
  <circle cx="536.507" cy="496.376" r="8.36178" stroke-width="0.5" stroke="black" fill="cyan"/>
  <circle cx="536.507" cy="496.376" r="5.03227" stroke-width="0.5" stroke="black" fill="cyan"/>
   </g>
   <g id="cell95">
  <circle cx="466.564" cy="426.162" r="8.36032" stroke-width="0.5" stroke="black" fill="cyan"/>
  <circle cx="466.564" cy="426.162" r="5.03165" stroke-width="0.5" stroke="black" fill="cyan"/>
   </g>
   <g id="cell96">
  <circle cx="546.788" cy="529.444" r="6.85553" stroke-width="0.5" stroke="black" fill="cyan"/>
  <circle cx="546.788" cy="529.444" r="4.15401" stroke-width="0.5" stroke="black" fill="cyan"/>
   </g>
   <g id="cell97">
  <circle cx="421.637" cy="466.118" r="8.30637" stroke-width="0.5" stroke="black" fill="green"/>
  <circle cx="421.637" cy="466.118" r="5.00948" stroke-width="0.5" stroke="black" fill="green"/>
   </g>
   <g id="cell98">
  <circle cx="491.433" cy="522.479" r="7.68274" stroke-width="0.5" stroke="black" fill="green"/>
  <circle cx="491.433" cy="522.479" r="4.67482" stroke-width="0.5" stroke="black" fill="green"/>
   </g>
   <g id="cell99">
  <circle cx="358.304" cy="527.712" r="8.33272" stroke-width="0.5" stroke="black" fill="cyan"/>
  <circle cx="358.304" cy="527.712" r="5.02078" stroke-width="0.5" stroke="black" fill="cyan"/>
   </g>
   <g id="cell100">
  <circle cx="449.603" cy="396.102" r="8.33131" stroke-width="0.5" stroke="black" fill="green"/>
  <circle cx="449.603" cy="396.102" r="5.01959" stroke-width="0.5" stroke="black" fill="green"/>
   </g>
   <g id="cell101">
  <circle cx="531.988" cy="480.096" r="6.74547" stroke-width="0.5" stroke="black" fill="cyan"/>
  <circle cx="531.988" cy="480.096" r="4.08188" stroke-width="0.5" stroke="black" fill="cyan"/>
   </g>
   <g id="cell102">
  <circle cx="435.032" cy="474.541" r="8.30637" stroke-width="0.5" stroke="black" fill="green"/>
  <circle cx="435.032" cy="474.541" r="5.00948" stroke-width="0.5" stroke="black" fill="green"/>
   </g>
   <g id="cell103">
  <circle cx="590.926" cy="447.747" r="7.79679" stroke-width="0.5" stroke="black" fill="cyan"/>
  <circle cx="590.926" cy="447.747" r="4.74221" stroke-width="0.5" stroke="black" fill="cyan"/>
   </g>
   <g id="cell104">
  <circle cx="593.804" cy="552.847" r="8.2988" stroke-width="0.5" stroke="black" fill="cyan"/>
  <circle cx="593.804" cy="552.847" r="5.00552" stroke-width="0.5" stroke="black" fill="cyan"/>
   </g>
   <g id="cell106">
  <circle cx="463.934" cy="441.404" r="8.28377" stroke-width="0.5" stroke="black" fill="magenta"/>
  <circle cx="463.934" cy="441.404" r="4.99759" stroke-width="0.5" stroke="black" fill="magenta"/>
   </g>
   <g id="cell107">
  <circle cx="457.403" cy="383.046" r="7.75085" stroke-width="0.5" stroke="black" fill="green"/>
  <circle cx="457.403" cy="383.046" r="4.72216" stroke-width="0.5" stroke="black" fill="green"/>
   </g>
   <g id="cell108">
  <circle cx="555.534" cy="606.734" r="8.26262" stroke-width="0.5" stroke="black" fill="green"/>
  <circle cx="555.534" cy="606.734" r="4.98642" stroke-width="0.5" stroke="black" fill="green"/>
   </g>
   <g id="cell109">
  <circle cx="576.577" cy="590.076" r="8.17175" stroke-width="0.5" stroke="black" fill="green"/>
  <circle cx="576.577" cy="590.076" r="4.94612" stroke-width="0.5" stroke="black" fill="green"/>
   </g>
   <g id="cell110">
  <circle cx="373.701" cy="513.544" r="8.20689" stroke-width="0.5" stroke="black" fill="cyan"/>
  <circle cx="373.701" cy="513.544" r="4.95867" stroke-width="0.5" stroke="black" fill="cyan"/>
   </g>
   <g id="cell111">
  <circle cx="455.905" cy="553.383" r="6.65879" stroke-width="0.5" stroke="black" fill="magenta"/>
  <circle cx="455.905" cy="553.383" r="4.0472" stroke-width="0.5" stroke="black" fill="magenta"/>
   </g>
   <g id="cell112">
  <circle cx="507.09" cy="467.822" r="8.18177" stroke-width="0.5" stroke="black" fill="magenta"/>
  <circle cx="507.09" cy="467.822" r="4.94584" stroke-width="0.5" stroke="black" fill="magenta"/>
   </g>
   <g id="cell113">
  <circle cx="543.064" cy="406.213" r="8.17502" stroke-width="0.5" stroke="black" fill="green"/>
  <circle cx="543.064" cy="406.213" r="4.94236" stroke-width="0.5" stroke="black" fill="green"/>
   </g>
   <g id="cell114">
  <circle cx="524.929" cy="448.659" r="8.00446" stroke-width="0.5" stroke="black" fill="cyan"/>
  <circle cx="524.929" cy="448.659" r="4.86107" stroke-width="0.5" stroke="black" fill="cyan"/>
   </g>
   <g id="cell115">
  <circle cx="537.72" cy="454.426" r="6.86976" stroke-width="0.5" stroke="black" fill="cyan"/>
  <circle cx="537.72" cy="454.426" r="4.20728" stroke-width="0.5" stroke="black" fill="cyan"/>
   </g>
   <g id="cell116">
  <circle cx="519.91" cy="522.092" r="8.07173" stroke-width="0.5" stroke="black" fill="cyan"/>
  <circle cx="519.91" cy="522.092" r="4.89044" stroke-width="0.5" stroke="black" fill="cyan"/>
   </g>
   <g id="cell117">
  <circle cx="509.892" cy="623.806" r="7.956" stroke-width="0.5" stroke="black" fill="green"/>
  <circle cx="509.892" cy="623.806" r="4.83202" stroke-width="0.5" stroke="black" fill="green"/>
   </g>
   <g id="cell118">
  <circle cx="510.528" cy="453.131" r="7.88757" stroke-width="0.5" stroke="black" fill="cyan"/>
  <circle cx="510.528" cy="453.131" r="4.78753" stroke-width="0.5" stroke="black" fill="cyan"/>
   </g>
   <g id="cell119">
  <circle cx="533.412" cy="604.957" r="7.88055" stroke-width="0.5" stroke="black" fill="green"/>
  <circle cx="533.412" cy="604.957" r="4.78505" stroke-width="0.5" stroke="black" fill="green"/>
   </g>
   <g id="cell120">
  <circle cx="576.554" cy="444.272" r="7.79679" stroke-width="0.5" stroke="black" fill="cyan"/>
  <circle cx="576.554" cy="444.272" r="4.74221" stroke-width="0.5" stroke="black" fill="cyan"/>
   </g>
   <g id="cell121">
  <circle cx="451.37" cy="370.67" r="7.02948" stroke-width="0.5" stroke="black" fill="green"/>
  <circle cx="451.37" cy="370.67" r="4.31662" stroke-width="0.5" stroke="black" fill="green"/>
   </g>
   <g id="cell122">
  <circle cx="505.58" cy="522.759" r="7.81348" stroke-width="0.5" stroke="black" fill="magenta"/>
  <circle cx="505.58" cy="522.759" r="4.7473" stroke-width="0.5" stroke="black" fill="magenta"/>
   </g>
   <g id="cell123">
  <circle cx="497.452" cy="509.525" r="7.68274" stroke-width="0.5" stroke="black" fill="green"/>
  <circle cx="497.452" cy="509.525" r="4.67482" stroke-width="0.5" stroke="black" fill="green"/>
   </g>
   <g id="cell124">
  <circle cx="491.79" cy="432.56" r="7.71355" stroke-width="0.5" stroke="black" fill="magenta"/>
  <circle cx="491.79" cy="432.56" r="4.68766" stroke-width="0.5" stroke="black" fill="magenta"/>
   </g>
   <g id="cell125">
  <circle cx="622.346" cy="477.344" r="7.54263" stroke-width="0.5" stroke="black" fill="green"/>
  <circle cx="622.346" cy="477.344" r="4.59033" stroke-width="0.5" stroke="black" fill="green"/>
   </g>
   <g id="cell126">
  <circle cx="629.392" cy="565.491" r="7.5332" stroke-width="0.5" stroke="black" fill="green"/>
  <circle cx="629.392" cy="565.491" r="4.58159" stroke-width="0.5" stroke="black" fill="green"/>
   </g>
   <g id="cell127">
  <circle cx="440.689" cy="362.957" r="7.02948" stroke-width="0.5" stroke="black" fill="green"/>
  <circle cx="440.689" cy="362.957" r="4.31662" stroke-width="0.5" stroke="black" fill="green"/>
   </g>
   <g id="cell128">
  <circle cx="373.103" cy="469.797" r="7.33129" stroke-width="0.5" stroke="black" fill="magenta"/>
  <circle cx="373.103" cy="469.797" r="4.45516" stroke-width="0.5" stroke="black" fill="magenta"/>
   </g>
   <g id="cell129">
  <circle cx="567.291" cy="540.584" r="7.22117" stroke-width="0.5" stroke="black" fill="cyan"/>
  <circle cx="567.291" cy="540.584" r="4.39131" stroke-width="0.5" stroke="black" fill="cyan"/>
   </g>
   <g id="cell130">
  <circle cx="544.541" cy="443.17" r="6.86976" stroke-width="0.5" stroke="black" fill="cyan"/>
  <circle cx="544.541" cy="443.17" r="4.20728" stroke-width="0.5" stroke="black" fill="cyan"/>
   </g>
   <g id="cell131">
  <circle cx="538.333" cy="519.678" r="6.85553" stroke-width="0.5" stroke="black" fill="cyan"/>
  <circle cx="538.333" cy="519.678" r="4.15401" stroke-width="0.5" stroke="black" fill="cyan"/>
   </g>
   <g id="cell132">
  <circle cx="447.367" cy="545.053" r="6.65879" stroke-width="0.5" stroke="black" fill="magenta"/>
  <circle cx="447.367" cy="545.053" r="4.0472" stroke-width="0.5" stroke="black" fill="magenta"/>
   </g>
   <g id="cell133">
  <circle cx="561.596" cy="462.521" r="6.81042" stroke-width="0.5" stroke="black" fill="cyan"/>
  <circle cx="561.596" cy="462.521" r="4.1178" stroke-width="0.5" stroke="black" fill="cyan"/>
   </g>
   <g id="cell134">
  <circle cx="535.034" cy="467.563" r="6.74547" stroke-width="0.5" stroke="black" fill="cyan"/>
  <circle cx="535.034" cy="467.563" r="4.08188" stroke-width="0.5" stroke="black" fill="cyan"/>
   </g>
   <g id="cell135">
  <circle cx="509.208" cy="580.3" r="6.71158" stroke-width="0.5" stroke="black" fill="magenta"/>
  <circle cx="509.208" cy="580.3" r="4.03435" stroke-width="0.5" stroke="black" fill="magenta"/>
   </g>
  </g>
 </g>
  <rect x="775" y="1035" width="200" height="10" stroke-width="2" stroke="rgb(255,255,255)" fill="rgb(0,0,0)"/>
  <text x="781.25" y="1028.75"
   font-family="Arial" font-size="25" fill="black" >
   200 &#956;m
  </text>
  <text x="25" y="1045"
   font-family="Arial" font-size="18.75" fill="black" >
   0 days, 0 hours, 0 minutes, and 23.1275 seconds
  </text>
  <rect x="0" y="70" width="1000" height="1000" stroke-width="2" stroke="rgb(0,0,0)" fill="none"/>
</svg>
