<?xml version="1.0" encoding="UTF-8" standalone="no"?>
<!-- Created with PhysiCell (http://PhysiCell.MathCancer.org/) -->
<svg 
 xmlns:dc="http://purl.org/dc/elements/1.1/" 
 xmlns:cc="http://creativecommons.org/ns#" 
 xmlns:rdf="http://www.w3.org/1999/02/22-rdf-syntax-ns#" 
 xmlns:svg="http://www.w3.org/2000/svg" 
 xmlns="http://www.w3.org/2000/svg" 
 version="1.1" 
 width="1000" 
 height="1070" 
 id="svg2">
  <rect x="0" y="0" width="1000" height="1070" stroke-width="2" stroke="white" fill="white"/>
  <text x="12.5" y="30"
   font-family="Arial" font-size="25" fill="black" >
   Current time: 0 days, 18 hours, and 48.00 minutes, z = 0.00 &#956;m
  </text>
  <text x="12.5" y="57.5"
   font-family="Arial" font-size="23.75" fill="black" >
   131 agents
  </text>
 <g id="tissue" 
    transform="translate(0,1070) scale(1,-1)">
  <g id="ECM">
  </g>
  <g id="cells">
   <g id="cell0">
  <circle cx="513.465" cy="535.619" r="8.37537" stroke-width="0.5" stroke="black" fill="magenta"/>
  <circle cx="513.465" cy="535.619" r="5.03798" stroke-width="0.5" stroke="black" fill="magenta"/>
   </g>
   <g id="cell1">
  <circle cx="602.004" cy="524.899" r="8.41271" stroke-width="0.5" stroke="black" fill="magenta"/>
  <circle cx="602.004" cy="524.899" r="5.05167" stroke-width="0.5" stroke="black" fill="magenta"/>
   </g>
   <g id="cell2">
  <circle cx="515.45" cy="597.999" r="8.41271" stroke-width="0.5" stroke="black" fill="magenta"/>
  <circle cx="515.45" cy="597.999" r="5.05167" stroke-width="0.5" stroke="black" fill="magenta"/>
   </g>
   <g id="cell3">
  <circle cx="523.089" cy="547.631" r="8.35151" stroke-width="0.5" stroke="black" fill="magenta"/>
  <circle cx="523.089" cy="547.631" r="5.02882" stroke-width="0.5" stroke="black" fill="magenta"/>
   </g>
   <g id="cell4">
  <circle cx="488.887" cy="445.747" r="7.51025" stroke-width="0.5" stroke="black" fill="magenta"/>
  <circle cx="488.887" cy="445.747" r="4.5674" stroke-width="0.5" stroke="black" fill="magenta"/>
   </g>
   <g id="cell5">
  <circle cx="465.032" cy="493.3" r="8.41271" stroke-width="0.5" stroke="black" fill="magenta"/>
  <circle cx="465.032" cy="493.3" r="5.05167" stroke-width="0.5" stroke="black" fill="magenta"/>
   </g>
   <g id="cell6">
  <circle cx="596.274" cy="513.912" r="5.19915" stroke-width="0.5" stroke="black" fill="magenta"/>
  <circle cx="596.274" cy="513.912" r="3.42443" stroke-width="0.5" stroke="black" fill="black"/>
   </g>
   <g id="cell7">
  <circle cx="496.728" cy="457.325" r="8.11327" stroke-width="0.5" stroke="black" fill="magenta"/>
  <circle cx="496.728" cy="457.325" r="4.91006" stroke-width="0.5" stroke="black" fill="magenta"/>
   </g>
   <g id="cell8">
  <circle cx="376.365" cy="542.643" r="8.41271" stroke-width="0.5" stroke="black" fill="magenta"/>
  <circle cx="376.365" cy="542.643" r="5.05167" stroke-width="0.5" stroke="black" fill="magenta"/>
   </g>
   <g id="cell9">
  <circle cx="460.472" cy="599.786" r="6.44044" stroke-width="0.5" stroke="black" fill="magenta"/>
  <circle cx="460.472" cy="599.786" r="3.99684" stroke-width="0.5" stroke="black" fill="black"/>
   </g>
   <g id="cell10">
  <circle cx="583.447" cy="392.105" r="8.41271" stroke-width="0.5" stroke="black" fill="magenta"/>
  <circle cx="583.447" cy="392.105" r="5.05167" stroke-width="0.5" stroke="black" fill="magenta"/>
   </g>
   <g id="cell11">
  <circle cx="591.887" cy="590.051" r="8.41271" stroke-width="0.5" stroke="black" fill="magenta"/>
  <circle cx="591.887" cy="590.051" r="5.05167" stroke-width="0.5" stroke="black" fill="magenta"/>
   </g>
   <g id="cell12">
  <circle cx="506.555" cy="585.702" r="8.41271" stroke-width="0.5" stroke="black" fill="magenta"/>
  <circle cx="506.555" cy="585.702" r="5.05167" stroke-width="0.5" stroke="black" fill="magenta"/>
   </g>
   <g id="cell13">
  <circle cx="386.194" cy="568.228" r="8.41271" stroke-width="0.5" stroke="black" fill="magenta"/>
  <circle cx="386.194" cy="568.228" r="5.05167" stroke-width="0.5" stroke="black" fill="magenta"/>
   </g>
   <g id="cell14">
  <circle cx="529.031" cy="399.964" r="8.41271" stroke-width="0.5" stroke="black" fill="magenta"/>
  <circle cx="529.031" cy="399.964" r="5.05167" stroke-width="0.5" stroke="black" fill="magenta"/>
   </g>
   <g id="cell15">
  <circle cx="383.94" cy="476.853" r="7.0545" stroke-width="0.5" stroke="black" fill="magenta"/>
  <circle cx="383.94" cy="476.853" r="4.27772" stroke-width="0.5" stroke="black" fill="magenta"/>
   </g>
   <g id="cell16">
  <circle cx="429.011" cy="412.719" r="8.41271" stroke-width="0.5" stroke="black" fill="magenta"/>
  <circle cx="429.011" cy="412.719" r="5.05167" stroke-width="0.5" stroke="black" fill="magenta"/>
   </g>
   <g id="cell17">
  <circle cx="571.095" cy="491.295" r="8.41271" stroke-width="0.5" stroke="black" fill="magenta"/>
  <circle cx="571.095" cy="491.295" r="5.05167" stroke-width="0.5" stroke="black" fill="magenta"/>
   </g>
   <g id="cell18">
  <circle cx="518.067" cy="389.497" r="8.41271" stroke-width="0.5" stroke="black" fill="magenta"/>
  <circle cx="518.067" cy="389.497" r="5.05167" stroke-width="0.5" stroke="black" fill="magenta"/>
   </g>
   <g id="cell19">
  <circle cx="461.643" cy="539.4" r="8.10646" stroke-width="0.5" stroke="black" fill="magenta"/>
  <circle cx="461.643" cy="539.4" r="4.90999" stroke-width="0.5" stroke="black" fill="magenta"/>
   </g>
   <g id="cell20">
  <circle cx="530.639" cy="415.091" r="8.41271" stroke-width="0.5" stroke="black" fill="magenta"/>
  <circle cx="530.639" cy="415.091" r="5.05167" stroke-width="0.5" stroke="black" fill="magenta"/>
   </g>
   <g id="cell21">
  <circle cx="464.835" cy="634.145" r="8.41271" stroke-width="0.5" stroke="black" fill="magenta"/>
  <circle cx="464.835" cy="634.145" r="5.05167" stroke-width="0.5" stroke="black" fill="magenta"/>
   </g>
   <g id="cell22">
  <circle cx="556.428" cy="495.082" r="8.41271" stroke-width="0.5" stroke="black" fill="magenta"/>
  <circle cx="556.428" cy="495.082" r="5.05167" stroke-width="0.5" stroke="black" fill="magenta"/>
   </g>
   <g id="cell23">
  <circle cx="545.664" cy="484.517" r="8.41271" stroke-width="0.5" stroke="black" fill="magenta"/>
  <circle cx="545.664" cy="484.517" r="5.05167" stroke-width="0.5" stroke="black" fill="magenta"/>
   </g>
   <g id="cell24">
  <circle cx="558.766" cy="381.723" r="8.41271" stroke-width="0.5" stroke="black" fill="magenta"/>
  <circle cx="558.766" cy="381.723" r="5.05167" stroke-width="0.5" stroke="black" fill="magenta"/>
   </g>
   <g id="cell25">
  <circle cx="647.454" cy="543.781" r="8.38957" stroke-width="0.5" stroke="black" fill="green"/>
  <circle cx="647.454" cy="543.781" r="5.04365" stroke-width="0.5" stroke="black" fill="green"/>
   </g>
   <g id="cell26">
  <circle cx="555.075" cy="396.56" r="8.10448" stroke-width="0.5" stroke="black" fill="green"/>
  <circle cx="555.075" cy="396.56" r="4.90539" stroke-width="0.5" stroke="black" fill="green"/>
   </g>
   <g id="cell27">
  <circle cx="465.918" cy="394.842" r="8.39834" stroke-width="0.5" stroke="black" fill="green"/>
  <circle cx="465.918" cy="394.842" r="5.04696" stroke-width="0.5" stroke="black" fill="green"/>
   </g>
   <g id="cell28">
  <circle cx="432.943" cy="530.703" r="8.41271" stroke-width="0.5" stroke="black" fill="green"/>
  <circle cx="432.943" cy="530.703" r="5.05167" stroke-width="0.5" stroke="black" fill="green"/>
   </g>
   <g id="cell29">
  <circle cx="450.304" cy="517.189" r="8.41271" stroke-width="0.5" stroke="black" fill="green"/>
  <circle cx="450.304" cy="517.189" r="5.05167" stroke-width="0.5" stroke="black" fill="green"/>
   </g>
   <g id="cell30">
  <circle cx="483.553" cy="534.406" r="8.35568" stroke-width="0.5" stroke="black" fill="green"/>
  <circle cx="483.553" cy="534.406" r="5.02965" stroke-width="0.5" stroke="black" fill="green"/>
   </g>
   <g id="cell31">
  <circle cx="412.807" cy="541.561" r="8.41271" stroke-width="0.5" stroke="black" fill="green"/>
  <circle cx="412.807" cy="541.561" r="5.05167" stroke-width="0.5" stroke="black" fill="green"/>
   </g>
   <g id="cell32">
  <circle cx="421.049" cy="481.941" r="8.33481" stroke-width="0.5" stroke="black" fill="green"/>
  <circle cx="421.049" cy="481.941" r="5.02043" stroke-width="0.5" stroke="black" fill="green"/>
   </g>
   <g id="cell33">
  <circle cx="501.896" cy="422.051" r="8.41271" stroke-width="0.5" stroke="black" fill="green"/>
  <circle cx="501.896" cy="422.051" r="5.05167" stroke-width="0.5" stroke="black" fill="green"/>
   </g>
   <g id="cell34">
  <circle cx="397.088" cy="450.831" r="8.41271" stroke-width="0.5" stroke="black" fill="green"/>
  <circle cx="397.088" cy="450.831" r="5.05167" stroke-width="0.5" stroke="black" fill="green"/>
   </g>
   <g id="cell35">
  <circle cx="552.854" cy="542.603" r="8.41271" stroke-width="0.5" stroke="black" fill="green"/>
  <circle cx="552.854" cy="542.603" r="5.05167" stroke-width="0.5" stroke="black" fill="green"/>
   </g>
   <g id="cell36">
  <circle cx="391.486" cy="582.903" r="8.41271" stroke-width="0.5" stroke="black" fill="green"/>
  <circle cx="391.486" cy="582.903" r="5.05167" stroke-width="0.5" stroke="black" fill="green"/>
   </g>
   <g id="cell37">
  <circle cx="639.825" cy="458.238" r="8.39618" stroke-width="0.5" stroke="black" fill="green"/>
  <circle cx="639.825" cy="458.238" r="5.04616" stroke-width="0.5" stroke="black" fill="green"/>
   </g>
   <g id="cell38">
  <circle cx="529.243" cy="590.618" r="8.39316" stroke-width="0.5" stroke="black" fill="green"/>
  <circle cx="529.243" cy="590.618" r="5.04503" stroke-width="0.5" stroke="black" fill="green"/>
   </g>
   <g id="cell39">
  <circle cx="614.144" cy="489.634" r="8.41271" stroke-width="0.5" stroke="black" fill="green"/>
  <circle cx="614.144" cy="489.634" r="5.05167" stroke-width="0.5" stroke="black" fill="green"/>
   </g>
   <g id="cell40">
  <circle cx="485.348" cy="571.779" r="8.41271" stroke-width="0.5" stroke="black" fill="green"/>
  <circle cx="485.348" cy="571.779" r="5.05167" stroke-width="0.5" stroke="black" fill="green"/>
   </g>
   <g id="cell41">
  <circle cx="364.096" cy="481.162" r="8.41271" stroke-width="0.5" stroke="black" fill="green"/>
  <circle cx="364.096" cy="481.162" r="5.05167" stroke-width="0.5" stroke="black" fill="green"/>
   </g>
   <g id="cell42">
  <circle cx="438.831" cy="494.21" r="8.41271" stroke-width="0.5" stroke="black" fill="green"/>
  <circle cx="438.831" cy="494.21" r="5.05167" stroke-width="0.5" stroke="black" fill="green"/>
   </g>
   <g id="cell43">
  <circle cx="561.737" cy="441.058" r="8.41271" stroke-width="0.5" stroke="black" fill="green"/>
  <circle cx="561.737" cy="441.058" r="5.05167" stroke-width="0.5" stroke="black" fill="green"/>
   </g>
   <g id="cell44">
  <circle cx="475.39" cy="624.45" r="6.44044" stroke-width="0.5" stroke="black" fill="green"/>
  <circle cx="475.39" cy="624.45" r="3.99684" stroke-width="0.5" stroke="black" fill="black"/>
   </g>
   <g id="cell45">
  <circle cx="414.902" cy="556.698" r="1.67536" stroke-width="0.5" stroke="black" fill="green"/>
  <circle cx="414.902" cy="556.698" r="1.63653" stroke-width="0.5" stroke="black" fill="black"/>
   </g>
   <g id="cell46">
  <circle cx="520.601" cy="612.569" r="8.27885" stroke-width="0.5" stroke="black" fill="green"/>
  <circle cx="520.601" cy="612.569" r="4.99429" stroke-width="0.5" stroke="black" fill="green"/>
   </g>
   <g id="cell47">
  <circle cx="504.854" cy="496.327" r="8.33026" stroke-width="0.5" stroke="black" fill="green"/>
  <circle cx="504.854" cy="496.327" r="5.01837" stroke-width="0.5" stroke="black" fill="green"/>
   </g>
   <g id="cell48">
  <circle cx="570.99" cy="604.506" r="8.09974" stroke-width="0.5" stroke="black" fill="green"/>
  <circle cx="570.99" cy="604.506" r="4.91017" stroke-width="0.5" stroke="black" fill="green"/>
   </g>
   <g id="cell49">
  <circle cx="431.297" cy="397.256" r="8.41271" stroke-width="0.5" stroke="black" fill="green"/>
  <circle cx="431.297" cy="397.256" r="5.05167" stroke-width="0.5" stroke="black" fill="green"/>
   </g>
   <g id="cell50">
  <circle cx="511.38" cy="510.092" r="7.96992" stroke-width="0.5" stroke="black" fill="cyan"/>
  <circle cx="511.38" cy="510.092" r="4.83568" stroke-width="0.5" stroke="black" fill="cyan"/>
   </g>
   <g id="cell51">
  <circle cx="398.721" cy="597.201" r="8.41271" stroke-width="0.5" stroke="black" fill="cyan"/>
  <circle cx="398.721" cy="597.201" r="5.05167" stroke-width="0.5" stroke="black" fill="cyan"/>
   </g>
   <g id="cell52">
  <circle cx="517.702" cy="423.659" r="8.41271" stroke-width="0.5" stroke="black" fill="cyan"/>
  <circle cx="517.702" cy="423.659" r="5.05167" stroke-width="0.5" stroke="black" fill="cyan"/>
   </g>
   <g id="cell53">
  <circle cx="572.789" cy="429.572" r="8.29993" stroke-width="0.5" stroke="black" fill="cyan"/>
  <circle cx="572.789" cy="429.572" r="5.00433" stroke-width="0.5" stroke="black" fill="cyan"/>
   </g>
   <g id="cell54">
  <circle cx="481.946" cy="421.664" r="8.34511" stroke-width="0.5" stroke="black" fill="cyan"/>
  <circle cx="481.946" cy="421.664" r="5.02502" stroke-width="0.5" stroke="black" fill="cyan"/>
   </g>
   <g id="cell55">
  <circle cx="522.067" cy="463.851" r="8.30546" stroke-width="0.5" stroke="black" fill="cyan"/>
  <circle cx="522.067" cy="463.851" r="5.00813" stroke-width="0.5" stroke="black" fill="cyan"/>
   </g>
   <g id="cell56">
  <circle cx="617.463" cy="522.362" r="8.41271" stroke-width="0.5" stroke="black" fill="cyan"/>
  <circle cx="617.463" cy="522.362" r="5.05167" stroke-width="0.5" stroke="black" fill="cyan"/>
   </g>
   <g id="cell105">
  <circle cx="505.692" cy="609.523" r="7.8182" stroke-width="0.5" stroke="black" fill="green"/>
  <circle cx="505.692" cy="609.523" r="4.7568" stroke-width="0.5" stroke="black" fill="green"/>
   </g>
   <g id="cell58">
  <circle cx="560.414" cy="479.887" r="8.41271" stroke-width="0.5" stroke="black" fill="cyan"/>
  <circle cx="560.414" cy="479.887" r="5.05167" stroke-width="0.5" stroke="black" fill="cyan"/>
   </g>
   <g id="cell59">
  <circle cx="385.463" cy="439.803" r="8.41271" stroke-width="0.5" stroke="black" fill="cyan"/>
  <circle cx="385.463" cy="439.803" r="5.05167" stroke-width="0.5" stroke="black" fill="cyan"/>
   </g>
   <g id="cell60">
  <circle cx="591.876" cy="473.855" r="8.41271" stroke-width="0.5" stroke="black" fill="cyan"/>
  <circle cx="591.876" cy="473.855" r="5.05167" stroke-width="0.5" stroke="black" fill="cyan"/>
   </g>
   <g id="cell61">
  <circle cx="557.001" cy="622.68" r="8.41271" stroke-width="0.5" stroke="black" fill="cyan"/>
  <circle cx="557.001" cy="622.68" r="5.05167" stroke-width="0.5" stroke="black" fill="cyan"/>
   </g>
   <g id="cell62">
  <circle cx="514.094" cy="438.523" r="7.73186" stroke-width="0.5" stroke="black" fill="cyan"/>
  <circle cx="514.094" cy="438.523" r="4.6986" stroke-width="0.5" stroke="black" fill="cyan"/>
   </g>
   <g id="cell63">
  <circle cx="579.845" cy="542.8" r="6.92933" stroke-width="0.5" stroke="black" fill="cyan"/>
  <circle cx="579.845" cy="542.8" r="4.20205" stroke-width="0.5" stroke="black" fill="cyan"/>
   </g>
   <g id="cell64">
  <circle cx="509.731" cy="639.003" r="8.41271" stroke-width="0.5" stroke="black" fill="cyan"/>
  <circle cx="509.731" cy="639.003" r="5.05167" stroke-width="0.5" stroke="black" fill="cyan"/>
   </g>
   <g id="cell65">
  <circle cx="547.886" cy="469.446" r="8.36722" stroke-width="0.5" stroke="black" fill="cyan"/>
  <circle cx="547.886" cy="469.446" r="5.03458" stroke-width="0.5" stroke="black" fill="cyan"/>
   </g>
   <g id="cell66">
  <circle cx="529.321" cy="533.582" r="8.34117" stroke-width="0.5" stroke="black" fill="cyan"/>
  <circle cx="529.321" cy="533.582" r="5.02327" stroke-width="0.5" stroke="black" fill="cyan"/>
   </g>
   <g id="cell67">
  <circle cx="353.955" cy="493.522" r="8.41271" stroke-width="0.5" stroke="black" fill="cyan"/>
  <circle cx="353.955" cy="493.522" r="5.05167" stroke-width="0.5" stroke="black" fill="cyan"/>
   </g>
   <g id="cell68">
  <circle cx="563.082" cy="554.864" r="8.41271" stroke-width="0.5" stroke="black" fill="cyan"/>
  <circle cx="563.082" cy="554.864" r="5.05167" stroke-width="0.5" stroke="black" fill="cyan"/>
   </g>
   <g id="cell69">
  <circle cx="442.215" cy="460.349" r="8.41271" stroke-width="0.5" stroke="black" fill="cyan"/>
  <circle cx="442.215" cy="460.349" r="5.05167" stroke-width="0.5" stroke="black" fill="cyan"/>
   </g>
   <g id="cell70">
  <circle cx="576.08" cy="476.521" r="8.41271" stroke-width="0.5" stroke="black" fill="cyan"/>
  <circle cx="576.08" cy="476.521" r="5.05167" stroke-width="0.5" stroke="black" fill="cyan"/>
   </g>
   <g id="cell71">
  <circle cx="380.056" cy="527.767" r="8.14594" stroke-width="0.5" stroke="black" fill="cyan"/>
  <circle cx="380.056" cy="527.767" r="4.92726" stroke-width="0.5" stroke="black" fill="cyan"/>
   </g>
   <g id="cell72">
  <circle cx="529.429" cy="509.886" r="8.347" stroke-width="0.5" stroke="black" fill="cyan"/>
  <circle cx="529.429" cy="509.886" r="5.02586" stroke-width="0.5" stroke="black" fill="cyan"/>
   </g>
   <g id="cell73">
  <circle cx="364.608" cy="552.828" r="8.37641" stroke-width="0.5" stroke="black" fill="cyan"/>
  <circle cx="364.608" cy="552.828" r="5.0384" stroke-width="0.5" stroke="black" fill="cyan"/>
   </g>
   <g id="cell74">
  <circle cx="548.617" cy="434.036" r="5.01057" stroke-width="0.5" stroke="black" fill="cyan"/>
  <circle cx="548.617" cy="434.036" r="3.32781" stroke-width="0.5" stroke="black" fill="black"/>
   </g>
   <g id="cell75">
  <circle cx="529.454" cy="434.246" r="8.39874" stroke-width="0.5" stroke="black" fill="cyan"/>
  <circle cx="529.454" cy="434.246" r="5.04711" stroke-width="0.5" stroke="black" fill="cyan"/>
   </g>
   <g id="cell76">
  <circle cx="442.103" cy="381.962" r="8.19479" stroke-width="0.5" stroke="black" fill="green"/>
  <circle cx="442.103" cy="381.962" r="4.95763" stroke-width="0.5" stroke="black" fill="green"/>
   </g>
   <g id="cell77">
  <circle cx="478.111" cy="436.585" r="8.24588" stroke-width="0.5" stroke="black" fill="magenta"/>
  <circle cx="478.111" cy="436.585" r="4.97946" stroke-width="0.5" stroke="black" fill="magenta"/>
   </g>
   <g id="cell78">
  <circle cx="624.448" cy="462.546" r="8.35888" stroke-width="0.5" stroke="black" fill="green"/>
  <circle cx="624.448" cy="462.546" r="5.0318" stroke-width="0.5" stroke="black" fill="green"/>
   </g>
   <g id="cell79">
  <circle cx="517.372" cy="478.971" r="8.39422" stroke-width="0.5" stroke="black" fill="cyan"/>
  <circle cx="517.372" cy="478.971" r="5.04543" stroke-width="0.5" stroke="black" fill="cyan"/>
   </g>
   <g id="cell80">
  <circle cx="543.451" cy="615.734" r="7.72245" stroke-width="0.5" stroke="black" fill="green"/>
  <circle cx="543.451" cy="615.734" r="4.69515" stroke-width="0.5" stroke="black" fill="green"/>
   </g>
   <g id="cell81">
  <circle cx="544.866" cy="595.052" r="8.38279" stroke-width="0.5" stroke="black" fill="green"/>
  <circle cx="544.866" cy="595.052" r="5.04148" stroke-width="0.5" stroke="black" fill="green"/>
   </g>
   <g id="cell82">
  <circle cx="532.563" cy="559.7" r="8.38957" stroke-width="0.5" stroke="black" fill="magenta"/>
  <circle cx="532.563" cy="559.7" r="5.04365" stroke-width="0.5" stroke="black" fill="magenta"/>
   </g>
   <g id="cell83">
  <circle cx="635.68" cy="552.812" r="7.28681" stroke-width="0.5" stroke="black" fill="green"/>
  <circle cx="635.68" cy="552.812" r="4.43134" stroke-width="0.5" stroke="black" fill="green"/>
   </g>
   <g id="cell84">
  <circle cx="520.72" cy="498.027" r="8.3784" stroke-width="0.5" stroke="black" fill="cyan"/>
  <circle cx="520.72" cy="498.027" r="5.03921" stroke-width="0.5" stroke="black" fill="cyan"/>
   </g>
   <g id="cell85">
  <circle cx="352.559" cy="542.48" r="8.3094" stroke-width="0.5" stroke="black" fill="cyan"/>
  <circle cx="352.559" cy="542.48" r="5.01051" stroke-width="0.5" stroke="black" fill="cyan"/>
   </g>
   <g id="cell86">
  <circle cx="498.659" cy="534.781" r="7.63621" stroke-width="0.5" stroke="black" fill="magenta"/>
  <circle cx="498.659" cy="534.781" r="4.64513" stroke-width="0.5" stroke="black" fill="magenta"/>
   </g>
   <g id="cell87">
  <circle cx="578.85" cy="557.173" r="8.2654" stroke-width="0.5" stroke="black" fill="cyan"/>
  <circle cx="578.85" cy="557.173" r="4.99008" stroke-width="0.5" stroke="black" fill="cyan"/>
   </g>
   <g id="cell88">
  <circle cx="448.387" cy="532.958" r="8.36849" stroke-width="0.5" stroke="black" fill="magenta"/>
  <circle cx="448.387" cy="532.958" r="5.03512" stroke-width="0.5" stroke="black" fill="magenta"/>
   </g>
   <g id="cell89">
  <circle cx="555.024" cy="455.435" r="8.36722" stroke-width="0.5" stroke="black" fill="cyan"/>
  <circle cx="555.024" cy="455.435" r="5.03458" stroke-width="0.5" stroke="black" fill="cyan"/>
   </g>
   <g id="cell90">
  <circle cx="635.517" cy="472.51" r="7.29591" stroke-width="0.5" stroke="black" fill="green"/>
  <circle cx="635.517" cy="472.51" r="4.44148" stroke-width="0.5" stroke="black" fill="green"/>
   </g>
   <g id="cell91">
  <circle cx="547.635" cy="557.325" r="8.32312" stroke-width="0.5" stroke="black" fill="magenta"/>
  <circle cx="547.635" cy="557.325" r="5.01738" stroke-width="0.5" stroke="black" fill="magenta"/>
   </g>
   <g id="cell92">
  <circle cx="482.51" cy="550.117" r="8.35568" stroke-width="0.5" stroke="black" fill="green"/>
  <circle cx="482.51" cy="550.117" r="5.02965" stroke-width="0.5" stroke="black" fill="green"/>
   </g>
   <g id="cell93">
  <circle cx="538.012" cy="545.933" r="8.32312" stroke-width="0.5" stroke="black" fill="magenta"/>
  <circle cx="538.012" cy="545.933" r="5.01738" stroke-width="0.5" stroke="black" fill="magenta"/>
   </g>
   <g id="cell94">
  <circle cx="536.674" cy="496.599" r="8.347" stroke-width="0.5" stroke="black" fill="cyan"/>
  <circle cx="536.674" cy="496.599" r="5.02586" stroke-width="0.5" stroke="black" fill="cyan"/>
   </g>
   <g id="cell95">
  <circle cx="466.754" cy="426.258" r="8.34511" stroke-width="0.5" stroke="black" fill="cyan"/>
  <circle cx="466.754" cy="426.258" r="5.02502" stroke-width="0.5" stroke="black" fill="cyan"/>
   </g>
   <g id="cell96">
  <circle cx="545.44" cy="527.401" r="6.62039" stroke-width="0.5" stroke="black" fill="cyan"/>
  <circle cx="545.44" cy="527.401" r="3.98697" stroke-width="0.5" stroke="black" fill="cyan"/>
   </g>
   <g id="cell97">
  <circle cx="421.642" cy="466.136" r="8.27522" stroke-width="0.5" stroke="black" fill="green"/>
  <circle cx="421.642" cy="466.136" r="4.99539" stroke-width="0.5" stroke="black" fill="green"/>
   </g>
   <g id="cell98">
  <circle cx="491.946" cy="522.333" r="7.46831" stroke-width="0.5" stroke="black" fill="green"/>
  <circle cx="491.946" cy="522.333" r="4.54932" stroke-width="0.5" stroke="black" fill="green"/>
   </g>
   <g id="cell99">
  <circle cx="358.294" cy="527.738" r="8.3094" stroke-width="0.5" stroke="black" fill="cyan"/>
  <circle cx="358.294" cy="527.738" r="5.01051" stroke-width="0.5" stroke="black" fill="cyan"/>
   </g>
   <g id="cell100">
  <circle cx="449.666" cy="395.893" r="8.30756" stroke-width="0.5" stroke="black" fill="green"/>
  <circle cx="449.666" cy="395.893" r="5.00891" stroke-width="0.5" stroke="black" fill="green"/>
   </g>
   <g id="cell101">
  <circle cx="533.009" cy="475.489" r="8.30546" stroke-width="0.5" stroke="black" fill="cyan"/>
  <circle cx="533.009" cy="475.489" r="5.00813" stroke-width="0.5" stroke="black" fill="cyan"/>
   </g>
   <g id="cell102">
  <circle cx="434.999" cy="474.503" r="8.27522" stroke-width="0.5" stroke="black" fill="green"/>
  <circle cx="434.999" cy="474.503" r="4.99539" stroke-width="0.5" stroke="black" fill="green"/>
   </g>
   <g id="cell103">
  <circle cx="590.686" cy="447.687" r="7.61252" stroke-width="0.5" stroke="black" fill="cyan"/>
  <circle cx="590.686" cy="447.687" r="4.63731" stroke-width="0.5" stroke="black" fill="cyan"/>
   </g>
   <g id="cell104">
  <circle cx="594.045" cy="553.023" r="8.2654" stroke-width="0.5" stroke="black" fill="cyan"/>
  <circle cx="594.045" cy="553.023" r="4.99008" stroke-width="0.5" stroke="black" fill="cyan"/>
   </g>
   <g id="cell106">
  <circle cx="464.093" cy="441.414" r="8.24588" stroke-width="0.5" stroke="black" fill="magenta"/>
  <circle cx="464.093" cy="441.414" r="4.97946" stroke-width="0.5" stroke="black" fill="magenta"/>
   </g>
   <g id="cell107">
  <circle cx="457.032" cy="382.902" r="7.55031" stroke-width="0.5" stroke="black" fill="green"/>
  <circle cx="457.032" cy="382.902" r="4.60924" stroke-width="0.5" stroke="black" fill="green"/>
   </g>
   <g id="cell108">
  <circle cx="555.647" cy="606.786" r="8.21839" stroke-width="0.5" stroke="black" fill="green"/>
  <circle cx="555.647" cy="606.786" r="4.96448" stroke-width="0.5" stroke="black" fill="green"/>
   </g>
   <g id="cell109">
  <circle cx="576.595" cy="590.17" r="8.09974" stroke-width="0.5" stroke="black" fill="green"/>
  <circle cx="576.595" cy="590.17" r="4.91017" stroke-width="0.5" stroke="black" fill="green"/>
   </g>
   <g id="cell110">
  <circle cx="373.74" cy="513.631" r="8.14594" stroke-width="0.5" stroke="black" fill="cyan"/>
  <circle cx="373.74" cy="513.631" r="4.92726" stroke-width="0.5" stroke="black" fill="cyan"/>
   </g>
   <g id="cell111">
  <circle cx="451.888" cy="550.074" r="8.10646" stroke-width="0.5" stroke="black" fill="magenta"/>
  <circle cx="451.888" cy="550.074" r="4.90999" stroke-width="0.5" stroke="black" fill="magenta"/>
   </g>
   <g id="cell112">
  <circle cx="507.293" cy="467.403" r="8.11327" stroke-width="0.5" stroke="black" fill="magenta"/>
  <circle cx="507.293" cy="467.403" r="4.91006" stroke-width="0.5" stroke="black" fill="magenta"/>
   </g>
   <g id="cell113">
  <circle cx="543.022" cy="406.121" r="8.10448" stroke-width="0.5" stroke="black" fill="green"/>
  <circle cx="543.022" cy="406.121" r="4.90539" stroke-width="0.5" stroke="black" fill="green"/>
   </g>
   <g id="cell114">
  <circle cx="524.494" cy="448.756" r="7.88027" stroke-width="0.5" stroke="black" fill="cyan"/>
  <circle cx="524.494" cy="448.756" r="4.79519" stroke-width="0.5" stroke="black" fill="cyan"/>
   </g>
   <g id="cell115">
  <circle cx="536.931" cy="453.547" r="6.4691" stroke-width="0.5" stroke="black" fill="cyan"/>
  <circle cx="536.931" cy="453.547" r="3.9564" stroke-width="0.5" stroke="black" fill="cyan"/>
   </g>
   <g id="cell116">
  <circle cx="520.028" cy="521.949" r="7.96992" stroke-width="0.5" stroke="black" fill="cyan"/>
  <circle cx="520.028" cy="521.949" r="4.83568" stroke-width="0.5" stroke="black" fill="cyan"/>
   </g>
   <g id="cell117">
  <circle cx="510.349" cy="623.676" r="7.8182" stroke-width="0.5" stroke="black" fill="green"/>
  <circle cx="510.349" cy="623.676" r="4.7568" stroke-width="0.5" stroke="black" fill="green"/>
   </g>
   <g id="cell118">
  <circle cx="510.674" cy="453.14" r="7.73186" stroke-width="0.5" stroke="black" fill="cyan"/>
  <circle cx="510.674" cy="453.14" r="4.6986" stroke-width="0.5" stroke="black" fill="cyan"/>
   </g>
   <g id="cell119">
  <circle cx="533.528" cy="605.129" r="7.72245" stroke-width="0.5" stroke="black" fill="green"/>
  <circle cx="533.528" cy="605.129" r="4.69515" stroke-width="0.5" stroke="black" fill="green"/>
   </g>
   <g id="cell120">
  <circle cx="576.693" cy="444.153" r="7.61252" stroke-width="0.5" stroke="black" fill="cyan"/>
  <circle cx="576.693" cy="444.153" r="4.63731" stroke-width="0.5" stroke="black" fill="cyan"/>
   </g>
   <g id="cell121">
  <circle cx="451.333" cy="371.09" r="6.60238" stroke-width="0.5" stroke="black" fill="green"/>
  <circle cx="451.333" cy="371.09" r="4.06173" stroke-width="0.5" stroke="black" fill="green"/>
   </g>
   <g id="cell122">
  <circle cx="505.775" cy="523.214" r="7.63621" stroke-width="0.5" stroke="black" fill="magenta"/>
  <circle cx="505.775" cy="523.214" r="4.64513" stroke-width="0.5" stroke="black" fill="magenta"/>
   </g>
   <g id="cell123">
  <circle cx="497.04" cy="509.337" r="7.46831" stroke-width="0.5" stroke="black" fill="green"/>
  <circle cx="497.04" cy="509.337" r="4.54932" stroke-width="0.5" stroke="black" fill="green"/>
   </g>
   <g id="cell124">
  <circle cx="491.7" cy="432.602" r="7.51025" stroke-width="0.5" stroke="black" fill="magenta"/>
  <circle cx="491.7" cy="432.602" r="4.5674" stroke-width="0.5" stroke="black" fill="magenta"/>
   </g>
   <g id="cell125">
  <circle cx="622.545" cy="477.319" r="7.29591" stroke-width="0.5" stroke="black" fill="green"/>
  <circle cx="622.545" cy="477.319" r="4.44148" stroke-width="0.5" stroke="black" fill="green"/>
   </g>
   <g id="cell126">
  <circle cx="629.555" cy="565.158" r="7.28681" stroke-width="0.5" stroke="black" fill="green"/>
  <circle cx="629.555" cy="565.158" r="4.43134" stroke-width="0.5" stroke="black" fill="green"/>
   </g>
   <g id="cell127">
  <circle cx="441.546" cy="363.594" r="6.60238" stroke-width="0.5" stroke="black" fill="green"/>
  <circle cx="441.546" cy="363.594" r="4.06173" stroke-width="0.5" stroke="black" fill="green"/>
   </g>
   <g id="cell128">
  <circle cx="373.207" cy="470.108" r="7.0545" stroke-width="0.5" stroke="black" fill="magenta"/>
  <circle cx="373.207" cy="470.108" r="4.27772" stroke-width="0.5" stroke="black" fill="magenta"/>
   </g>
   <g id="cell129">
  <circle cx="567.016" cy="540.705" r="6.92933" stroke-width="0.5" stroke="black" fill="cyan"/>
  <circle cx="567.016" cy="540.705" r="4.20205" stroke-width="0.5" stroke="black" fill="cyan"/>
   </g>
   <g id="cell130">
  <circle cx="545.641" cy="444.895" r="6.4691" stroke-width="0.5" stroke="black" fill="cyan"/>
  <circle cx="545.641" cy="444.895" r="3.9564" stroke-width="0.5" stroke="black" fill="cyan"/>
   </g>
   <g id="cell131">
  <circle cx="537.92" cy="519.043" r="6.62039" stroke-width="0.5" stroke="black" fill="cyan"/>
  <circle cx="537.92" cy="519.043" r="3.98697" stroke-width="0.5" stroke="black" fill="cyan"/>
   </g>
  </g>
 </g>
  <rect x="775" y="1035" width="200" height="10" stroke-width="2" stroke="rgb(255,255,255)" fill="rgb(0,0,0)"/>
  <text x="781.25" y="1028.75"
   font-family="Arial" font-size="25" fill="black" >
   200 &#956;m
  </text>
  <text x="25" y="1045"
   font-family="Arial" font-size="18.75" fill="black" >
   0 days, 0 hours, 0 minutes, and 22.0640 seconds
  </text>
  <rect x="0" y="70" width="1000" height="1000" stroke-width="2" stroke="rgb(0,0,0)" fill="none"/>
</svg>
