<?xml version="1.0" encoding="UTF-8" standalone="no"?>
<!-- Created with PhysiCell (http://PhysiCell.MathCancer.org/) -->
<svg 
 xmlns:dc="http://purl.org/dc/elements/1.1/" 
 xmlns:cc="http://creativecommons.org/ns#" 
 xmlns:rdf="http://www.w3.org/1999/02/22-rdf-syntax-ns#" 
 xmlns:svg="http://www.w3.org/2000/svg" 
 xmlns="http://www.w3.org/2000/svg" 
 version="1.1" 
 width="1000" 
 height="1070" 
 id="svg2">
  <rect x="0" y="0" width="1000" height="1070" stroke-width="2" stroke="white" fill="white"/>
  <text x="12.5" y="30"
   font-family="Arial" font-size="25" fill="black" >
   Current time: 0 days, 5 hours, and 24.00 minutes, z = 0.00 &#956;m
  </text>
  <text x="12.5" y="57.5"
   font-family="Arial" font-size="23.75" fill="black" >
   91 agents
  </text>
 <g id="tissue" 
    transform="translate(0,1070) scale(1,-1)">
  <g id="ECM">
  </g>
  <g id="cells">
   <g id="cell0">
  <circle cx="519.926" cy="532.467" r="6.83713" stroke-width="0.5" stroke="black" fill="magenta"/>
  <circle cx="519.926" cy="532.467" r="4.12773" stroke-width="0.5" stroke="black" fill="magenta"/>
   </g>
   <g id="cell1">
  <circle cx="603.521" cy="528.621" r="8.41271" stroke-width="0.5" stroke="black" fill="magenta"/>
  <circle cx="603.521" cy="528.621" r="5.05167" stroke-width="0.5" stroke="black" fill="magenta"/>
   </g>
   <g id="cell2">
  <circle cx="511.279" cy="600.742" r="8.41271" stroke-width="0.5" stroke="black" fill="magenta"/>
  <circle cx="511.279" cy="600.742" r="5.05167" stroke-width="0.5" stroke="black" fill="magenta"/>
   </g>
   <g id="cell3">
  <circle cx="534.853" cy="542.102" r="7.3599" stroke-width="0.5" stroke="black" fill="magenta"/>
  <circle cx="534.853" cy="542.102" r="4.47294" stroke-width="0.5" stroke="black" fill="magenta"/>
   </g>
   <g id="cell4">
  <circle cx="486.822" cy="437.456" r="7.72056" stroke-width="0.5" stroke="black" fill="magenta"/>
  <circle cx="486.822" cy="437.456" r="4.69003" stroke-width="0.5" stroke="black" fill="magenta"/>
   </g>
   <g id="cell5">
  <circle cx="465.032" cy="493.3" r="8.41271" stroke-width="0.5" stroke="black" fill="magenta"/>
  <circle cx="465.032" cy="493.3" r="5.05167" stroke-width="0.5" stroke="black" fill="magenta"/>
   </g>
   <g id="cell6">
  <circle cx="594.442" cy="510.27" r="8.41271" stroke-width="0.5" stroke="black" fill="magenta"/>
  <circle cx="594.442" cy="510.27" r="5.05167" stroke-width="0.5" stroke="black" fill="magenta"/>
   </g>
   <g id="cell7">
  <circle cx="511.57" cy="461.566" r="8.41271" stroke-width="0.5" stroke="black" fill="magenta"/>
  <circle cx="511.57" cy="461.566" r="5.05167" stroke-width="0.5" stroke="black" fill="magenta"/>
   </g>
   <g id="cell8">
  <circle cx="375.742" cy="544.546" r="8.41271" stroke-width="0.5" stroke="black" fill="magenta"/>
  <circle cx="375.742" cy="544.546" r="5.05167" stroke-width="0.5" stroke="black" fill="magenta"/>
   </g>
   <g id="cell9">
  <circle cx="460.472" cy="599.786" r="8.41271" stroke-width="0.5" stroke="black" fill="magenta"/>
  <circle cx="460.472" cy="599.786" r="5.05167" stroke-width="0.5" stroke="black" fill="magenta"/>
   </g>
   <g id="cell10">
  <circle cx="583.447" cy="392.105" r="8.41271" stroke-width="0.5" stroke="black" fill="magenta"/>
  <circle cx="583.447" cy="392.105" r="5.05167" stroke-width="0.5" stroke="black" fill="magenta"/>
   </g>
   <g id="cell11">
  <circle cx="589.748" cy="590.273" r="8.41271" stroke-width="0.5" stroke="black" fill="magenta"/>
  <circle cx="589.748" cy="590.273" r="5.05167" stroke-width="0.5" stroke="black" fill="magenta"/>
   </g>
   <g id="cell12">
  <circle cx="506.732" cy="586.282" r="8.41271" stroke-width="0.5" stroke="black" fill="magenta"/>
  <circle cx="506.732" cy="586.282" r="5.05167" stroke-width="0.5" stroke="black" fill="magenta"/>
   </g>
   <g id="cell13">
  <circle cx="386.194" cy="568.228" r="8.41271" stroke-width="0.5" stroke="black" fill="magenta"/>
  <circle cx="386.194" cy="568.228" r="5.05167" stroke-width="0.5" stroke="black" fill="magenta"/>
   </g>
   <g id="cell14">
  <circle cx="528.533" cy="399.236" r="8.41271" stroke-width="0.5" stroke="black" fill="magenta"/>
  <circle cx="528.533" cy="399.236" r="5.05167" stroke-width="0.5" stroke="black" fill="magenta"/>
   </g>
   <g id="cell15">
  <circle cx="379.65" cy="475.1" r="8.41271" stroke-width="0.5" stroke="black" fill="magenta"/>
  <circle cx="379.65" cy="475.1" r="5.05167" stroke-width="0.5" stroke="black" fill="magenta"/>
   </g>
   <g id="cell16">
  <circle cx="428.96" cy="413.217" r="8.41271" stroke-width="0.5" stroke="black" fill="magenta"/>
  <circle cx="428.96" cy="413.217" r="5.05167" stroke-width="0.5" stroke="black" fill="magenta"/>
   </g>
   <g id="cell17">
  <circle cx="571.106" cy="489.463" r="8.41271" stroke-width="0.5" stroke="black" fill="magenta"/>
  <circle cx="571.106" cy="489.463" r="5.05167" stroke-width="0.5" stroke="black" fill="magenta"/>
   </g>
   <g id="cell18">
  <circle cx="517.427" cy="388.943" r="8.41271" stroke-width="0.5" stroke="black" fill="magenta"/>
  <circle cx="517.427" cy="388.943" r="5.05167" stroke-width="0.5" stroke="black" fill="magenta"/>
   </g>
   <g id="cell19">
  <circle cx="455.113" cy="541.59" r="6.69288" stroke-width="0.5" stroke="black" fill="magenta"/>
  <circle cx="455.113" cy="541.59" r="4.02051" stroke-width="0.5" stroke="black" fill="magenta"/>
   </g>
   <g id="cell20">
  <circle cx="530.975" cy="414.178" r="8.41271" stroke-width="0.5" stroke="black" fill="magenta"/>
  <circle cx="530.975" cy="414.178" r="5.05167" stroke-width="0.5" stroke="black" fill="magenta"/>
   </g>
   <g id="cell21">
  <circle cx="464.368" cy="634.574" r="8.41271" stroke-width="0.5" stroke="black" fill="magenta"/>
  <circle cx="464.368" cy="634.574" r="5.05167" stroke-width="0.5" stroke="black" fill="magenta"/>
   </g>
   <g id="cell22">
  <circle cx="557.024" cy="494.961" r="8.41271" stroke-width="0.5" stroke="black" fill="magenta"/>
  <circle cx="557.024" cy="494.961" r="5.05167" stroke-width="0.5" stroke="black" fill="magenta"/>
   </g>
   <g id="cell23">
  <circle cx="537.206" cy="480.848" r="8.41271" stroke-width="0.5" stroke="black" fill="magenta"/>
  <circle cx="537.206" cy="480.848" r="5.05167" stroke-width="0.5" stroke="black" fill="magenta"/>
   </g>
   <g id="cell24">
  <circle cx="559.286" cy="379.793" r="8.41271" stroke-width="0.5" stroke="black" fill="magenta"/>
  <circle cx="559.286" cy="379.793" r="5.05167" stroke-width="0.5" stroke="black" fill="magenta"/>
   </g>
   <g id="cell25">
  <circle cx="645.018" cy="545.913" r="7.3599" stroke-width="0.5" stroke="black" fill="green"/>
  <circle cx="645.018" cy="545.913" r="4.47294" stroke-width="0.5" stroke="black" fill="green"/>
   </g>
   <g id="cell26">
  <circle cx="551.139" cy="401.257" r="8.41271" stroke-width="0.5" stroke="black" fill="green"/>
  <circle cx="551.139" cy="401.257" r="5.05167" stroke-width="0.5" stroke="black" fill="green"/>
   </g>
   <g id="cell27">
  <circle cx="462.408" cy="390.553" r="7.75912" stroke-width="0.5" stroke="black" fill="green"/>
  <circle cx="462.408" cy="390.553" r="4.71248" stroke-width="0.5" stroke="black" fill="green"/>
   </g>
   <g id="cell28">
  <circle cx="435.408" cy="530.882" r="8.41271" stroke-width="0.5" stroke="black" fill="green"/>
  <circle cx="435.408" cy="530.882" r="5.05167" stroke-width="0.5" stroke="black" fill="green"/>
   </g>
   <g id="cell29">
  <circle cx="450.276" cy="518.36" r="8.41271" stroke-width="0.5" stroke="black" fill="green"/>
  <circle cx="450.276" cy="518.36" r="5.05167" stroke-width="0.5" stroke="black" fill="green"/>
   </g>
   <g id="cell30">
  <circle cx="481.58" cy="540.282" r="8.41271" stroke-width="0.5" stroke="black" fill="green"/>
  <circle cx="481.58" cy="540.282" r="5.05167" stroke-width="0.5" stroke="black" fill="green"/>
   </g>
   <g id="cell31">
  <circle cx="412.757" cy="541.193" r="8.41271" stroke-width="0.5" stroke="black" fill="green"/>
  <circle cx="412.757" cy="541.193" r="5.05167" stroke-width="0.5" stroke="black" fill="green"/>
   </g>
   <g id="cell32">
  <circle cx="425.371" cy="474.829" r="8.41271" stroke-width="0.5" stroke="black" fill="green"/>
  <circle cx="425.371" cy="474.829" r="5.05167" stroke-width="0.5" stroke="black" fill="green"/>
   </g>
   <g id="cell33">
  <circle cx="493.968" cy="424.335" r="8.41271" stroke-width="0.5" stroke="black" fill="green"/>
  <circle cx="493.968" cy="424.335" r="5.05167" stroke-width="0.5" stroke="black" fill="green"/>
   </g>
   <g id="cell34">
  <circle cx="397.088" cy="450.831" r="8.41271" stroke-width="0.5" stroke="black" fill="green"/>
  <circle cx="397.088" cy="450.831" r="5.05167" stroke-width="0.5" stroke="black" fill="green"/>
   </g>
   <g id="cell35">
  <circle cx="549.314" cy="544.668" r="8.41271" stroke-width="0.5" stroke="black" fill="green"/>
  <circle cx="549.314" cy="544.668" r="5.05167" stroke-width="0.5" stroke="black" fill="green"/>
   </g>
   <g id="cell36">
  <circle cx="391.486" cy="582.903" r="8.41271" stroke-width="0.5" stroke="black" fill="green"/>
  <circle cx="391.486" cy="582.903" r="5.05167" stroke-width="0.5" stroke="black" fill="green"/>
   </g>
   <g id="cell37">
  <circle cx="638.939" cy="457.515" r="7.65871" stroke-width="0.5" stroke="black" fill="green"/>
  <circle cx="638.939" cy="457.515" r="4.6537" stroke-width="0.5" stroke="black" fill="green"/>
   </g>
   <g id="cell38">
  <circle cx="532.426" cy="598.774" r="7.51976" stroke-width="0.5" stroke="black" fill="green"/>
  <circle cx="532.426" cy="598.774" r="4.57072" stroke-width="0.5" stroke="black" fill="green"/>
   </g>
   <g id="cell39">
  <circle cx="613.458" cy="490.595" r="8.41271" stroke-width="0.5" stroke="black" fill="green"/>
  <circle cx="613.458" cy="490.595" r="5.05167" stroke-width="0.5" stroke="black" fill="green"/>
   </g>
   <g id="cell40">
  <circle cx="485.348" cy="571.779" r="8.41271" stroke-width="0.5" stroke="black" fill="green"/>
  <circle cx="485.348" cy="571.779" r="5.05167" stroke-width="0.5" stroke="black" fill="green"/>
   </g>
   <g id="cell41">
  <circle cx="364.925" cy="480.252" r="8.41271" stroke-width="0.5" stroke="black" fill="green"/>
  <circle cx="364.925" cy="480.252" r="5.05167" stroke-width="0.5" stroke="black" fill="green"/>
   </g>
   <g id="cell42">
  <circle cx="438.842" cy="494.268" r="8.41271" stroke-width="0.5" stroke="black" fill="green"/>
  <circle cx="438.842" cy="494.268" r="5.05167" stroke-width="0.5" stroke="black" fill="green"/>
   </g>
   <g id="cell43">
  <circle cx="558.681" cy="445.761" r="8.41271" stroke-width="0.5" stroke="black" fill="green"/>
  <circle cx="558.681" cy="445.761" r="5.05167" stroke-width="0.5" stroke="black" fill="green"/>
   </g>
   <g id="cell44">
  <circle cx="475.857" cy="624.021" r="8.41271" stroke-width="0.5" stroke="black" fill="green"/>
  <circle cx="475.857" cy="624.021" r="5.05167" stroke-width="0.5" stroke="black" fill="green"/>
   </g>
   <g id="cell45">
  <circle cx="414.953" cy="557.066" r="8.41271" stroke-width="0.5" stroke="black" fill="green"/>
  <circle cx="414.953" cy="557.066" r="5.05167" stroke-width="0.5" stroke="black" fill="green"/>
   </g>
   <g id="cell46">
  <circle cx="523.283" cy="610.765" r="8.41271" stroke-width="0.5" stroke="black" fill="green"/>
  <circle cx="523.283" cy="610.765" r="5.05167" stroke-width="0.5" stroke="black" fill="green"/>
   </g>
   <g id="cell47">
  <circle cx="504.23" cy="507.666" r="8.41271" stroke-width="0.5" stroke="black" fill="green"/>
  <circle cx="504.23" cy="507.666" r="5.05167" stroke-width="0.5" stroke="black" fill="green"/>
   </g>
   <g id="cell48">
  <circle cx="564.354" cy="602.926" r="8.41271" stroke-width="0.5" stroke="black" fill="green"/>
  <circle cx="564.354" cy="602.926" r="5.05167" stroke-width="0.5" stroke="black" fill="green"/>
   </g>
   <g id="cell49">
  <circle cx="429.826" cy="397.641" r="8.41271" stroke-width="0.5" stroke="black" fill="green"/>
  <circle cx="429.826" cy="397.641" r="5.05167" stroke-width="0.5" stroke="black" fill="green"/>
   </g>
   <g id="cell50">
  <circle cx="518.926" cy="519.694" r="6.92764" stroke-width="0.5" stroke="black" fill="cyan"/>
  <circle cx="518.926" cy="519.694" r="4.1918" stroke-width="0.5" stroke="black" fill="cyan"/>
   </g>
   <g id="cell51">
  <circle cx="398.721" cy="597.201" r="8.41271" stroke-width="0.5" stroke="black" fill="cyan"/>
  <circle cx="398.721" cy="597.201" r="5.05167" stroke-width="0.5" stroke="black" fill="cyan"/>
   </g>
   <g id="cell52">
  <circle cx="521.129" cy="426.265" r="8.41271" stroke-width="0.5" stroke="black" fill="cyan"/>
  <circle cx="521.129" cy="426.265" r="5.05167" stroke-width="0.5" stroke="black" fill="cyan"/>
   </g>
   <g id="cell53">
  <circle cx="571.351" cy="435.955" r="8.41271" stroke-width="0.5" stroke="black" fill="cyan"/>
  <circle cx="571.351" cy="435.955" r="5.05167" stroke-width="0.5" stroke="black" fill="cyan"/>
   </g>
   <g id="cell54">
  <circle cx="477.963" cy="425.383" r="8.41271" stroke-width="0.5" stroke="black" fill="cyan"/>
  <circle cx="477.963" cy="425.383" r="5.05167" stroke-width="0.5" stroke="black" fill="cyan"/>
   </g>
   <g id="cell55">
  <circle cx="530.067" cy="467.376" r="7.56839" stroke-width="0.5" stroke="black" fill="cyan"/>
  <circle cx="530.067" cy="467.376" r="4.59998" stroke-width="0.5" stroke="black" fill="cyan"/>
   </g>
   <g id="cell56">
  <circle cx="617.78" cy="522.282" r="8.41271" stroke-width="0.5" stroke="black" fill="cyan"/>
  <circle cx="617.78" cy="522.282" r="5.05167" stroke-width="0.5" stroke="black" fill="cyan"/>
   </g>
   <g id="cell57">
  <circle cx="416.924" cy="617.466" r="1.87298" stroke-width="0.5" stroke="black" fill="cyan"/>
  <circle cx="416.924" cy="617.466" r="1.79964" stroke-width="0.5" stroke="black" fill="black"/>
   </g>
   <g id="cell58">
  <circle cx="553.515" cy="479.923" r="8.41271" stroke-width="0.5" stroke="black" fill="cyan"/>
  <circle cx="553.515" cy="479.923" r="5.05167" stroke-width="0.5" stroke="black" fill="cyan"/>
   </g>
   <g id="cell59">
  <circle cx="385.463" cy="439.803" r="8.41271" stroke-width="0.5" stroke="black" fill="cyan"/>
  <circle cx="385.463" cy="439.803" r="5.05167" stroke-width="0.5" stroke="black" fill="cyan"/>
   </g>
   <g id="cell60">
  <circle cx="593.121" cy="473.645" r="8.41271" stroke-width="0.5" stroke="black" fill="cyan"/>
  <circle cx="593.121" cy="473.645" r="5.05167" stroke-width="0.5" stroke="black" fill="cyan"/>
   </g>
   <g id="cell61">
  <circle cx="552.496" cy="613.783" r="8.41271" stroke-width="0.5" stroke="black" fill="cyan"/>
  <circle cx="552.496" cy="613.783" r="5.05167" stroke-width="0.5" stroke="black" fill="cyan"/>
   </g>
   <g id="cell62">
  <circle cx="521.554" cy="450.492" r="7.77763" stroke-width="0.5" stroke="black" fill="cyan"/>
  <circle cx="521.554" cy="450.492" r="4.7232" stroke-width="0.5" stroke="black" fill="cyan"/>
   </g>
   <g id="cell63">
  <circle cx="576.382" cy="540.633" r="6.75639" stroke-width="0.5" stroke="black" fill="cyan"/>
  <circle cx="576.382" cy="540.633" r="4.06813" stroke-width="0.5" stroke="black" fill="cyan"/>
   </g>
   <g id="cell64">
  <circle cx="509.962" cy="636.825" r="8.41271" stroke-width="0.5" stroke="black" fill="cyan"/>
  <circle cx="509.962" cy="636.825" r="5.05167" stroke-width="0.5" stroke="black" fill="cyan"/>
   </g>
   <g id="cell65">
  <circle cx="543.938" cy="470.005" r="6.67717" stroke-width="0.5" stroke="black" fill="cyan"/>
  <circle cx="543.938" cy="470.005" r="4.00951" stroke-width="0.5" stroke="black" fill="cyan"/>
   </g>
   <g id="cell66">
  <circle cx="533.566" cy="527.68" r="8.41271" stroke-width="0.5" stroke="black" fill="cyan"/>
  <circle cx="533.566" cy="527.68" r="5.05167" stroke-width="0.5" stroke="black" fill="cyan"/>
   </g>
   <g id="cell67">
  <circle cx="354.711" cy="492.599" r="8.41271" stroke-width="0.5" stroke="black" fill="cyan"/>
  <circle cx="354.711" cy="492.599" r="5.05167" stroke-width="0.5" stroke="black" fill="cyan"/>
   </g>
   <g id="cell68">
  <circle cx="563.534" cy="552.224" r="8.41271" stroke-width="0.5" stroke="black" fill="cyan"/>
  <circle cx="563.534" cy="552.224" r="5.05167" stroke-width="0.5" stroke="black" fill="cyan"/>
   </g>
   <g id="cell69">
  <circle cx="437.64" cy="464.521" r="8.41271" stroke-width="0.5" stroke="black" fill="cyan"/>
  <circle cx="437.64" cy="464.521" r="5.05167" stroke-width="0.5" stroke="black" fill="cyan"/>
   </g>
   <g id="cell70">
  <circle cx="577.171" cy="475.111" r="8.41271" stroke-width="0.5" stroke="black" fill="cyan"/>
  <circle cx="577.171" cy="475.111" r="5.05167" stroke-width="0.5" stroke="black" fill="cyan"/>
   </g>
   <g id="cell71">
  <circle cx="377.712" cy="520.989" r="8.41271" stroke-width="0.5" stroke="black" fill="cyan"/>
  <circle cx="377.712" cy="520.989" r="5.05167" stroke-width="0.5" stroke="black" fill="cyan"/>
   </g>
   <g id="cell72">
  <circle cx="533.341" cy="511.729" r="8.41271" stroke-width="0.5" stroke="black" fill="cyan"/>
  <circle cx="533.341" cy="511.729" r="5.05167" stroke-width="0.5" stroke="black" fill="cyan"/>
   </g>
   <g id="cell73">
  <circle cx="362.679" cy="549.904" r="6.86652" stroke-width="0.5" stroke="black" fill="cyan"/>
  <circle cx="362.679" cy="549.904" r="4.14883" stroke-width="0.5" stroke="black" fill="cyan"/>
   </g>
   <g id="cell74">
  <circle cx="542.65" cy="446.897" r="8.41271" stroke-width="0.5" stroke="black" fill="cyan"/>
  <circle cx="542.65" cy="446.897" r="5.05167" stroke-width="0.5" stroke="black" fill="cyan"/>
   </g>
   <g id="cell75">
  <circle cx="530.178" cy="438.594" r="7.77763" stroke-width="0.5" stroke="black" fill="cyan"/>
  <circle cx="530.178" cy="438.594" r="4.7232" stroke-width="0.5" stroke="black" fill="cyan"/>
   </g>
   <g id="cell76">
  <circle cx="448.621" cy="385.343" r="7.75912" stroke-width="0.5" stroke="black" fill="green"/>
  <circle cx="448.621" cy="385.343" r="4.71248" stroke-width="0.5" stroke="black" fill="green"/>
   </g>
   <g id="cell77">
  <circle cx="473.103" cy="439.542" r="7.72056" stroke-width="0.5" stroke="black" fill="magenta"/>
  <circle cx="473.103" cy="439.542" r="4.69003" stroke-width="0.5" stroke="black" fill="magenta"/>
   </g>
   <g id="cell78">
  <circle cx="626.156" cy="462.587" r="6.07872" stroke-width="0.5" stroke="black" fill="green"/>
  <circle cx="626.156" cy="462.587" r="3.69364" stroke-width="0.5" stroke="black" fill="green"/>
   </g>
   <g id="cell79">
  <circle cx="517.853" cy="474.915" r="7.56839" stroke-width="0.5" stroke="black" fill="cyan"/>
  <circle cx="517.853" cy="474.915" r="4.59998" stroke-width="0.5" stroke="black" fill="cyan"/>
   </g>
   <g id="cell80">
  <circle cx="537.98" cy="611.397" r="6.95114" stroke-width="0.5" stroke="black" fill="green"/>
  <circle cx="537.98" cy="611.397" r="4.26363" stroke-width="0.5" stroke="black" fill="green"/>
   </g>
   <g id="cell81">
  <circle cx="545.945" cy="600.826" r="6.95114" stroke-width="0.5" stroke="black" fill="green"/>
  <circle cx="545.945" cy="600.826" r="4.26363" stroke-width="0.5" stroke="black" fill="green"/>
   </g>
   <g id="cell82">
  <circle cx="528.495" cy="553.652" r="7.3599" stroke-width="0.5" stroke="black" fill="magenta"/>
  <circle cx="528.495" cy="553.652" r="4.47294" stroke-width="0.5" stroke="black" fill="magenta"/>
   </g>
   <g id="cell83">
  <circle cx="635.194" cy="555.837" r="7.3599" stroke-width="0.5" stroke="black" fill="green"/>
  <circle cx="635.194" cy="555.837" r="4.47294" stroke-width="0.5" stroke="black" fill="green"/>
   </g>
   <g id="cell84">
  <circle cx="518.86" cy="506.433" r="6.92764" stroke-width="0.5" stroke="black" fill="cyan"/>
  <circle cx="518.86" cy="506.433" r="4.1918" stroke-width="0.5" stroke="black" fill="cyan"/>
   </g>
   <g id="cell85">
  <circle cx="356.307" cy="538.546" r="6.86652" stroke-width="0.5" stroke="black" fill="cyan"/>
  <circle cx="356.307" cy="538.546" r="4.14883" stroke-width="0.5" stroke="black" fill="cyan"/>
   </g>
   <g id="cell86">
  <circle cx="508.647" cy="527.252" r="6.83713" stroke-width="0.5" stroke="black" fill="magenta"/>
  <circle cx="508.647" cy="527.252" r="4.12773" stroke-width="0.5" stroke="black" fill="magenta"/>
   </g>
   <g id="cell87">
  <circle cx="579.87" cy="552.935" r="6.75639" stroke-width="0.5" stroke="black" fill="cyan"/>
  <circle cx="579.87" cy="552.935" r="4.06813" stroke-width="0.5" stroke="black" fill="cyan"/>
   </g>
   <g id="cell88">
  <circle cx="448.927" cy="531.757" r="6.69288" stroke-width="0.5" stroke="black" fill="magenta"/>
  <circle cx="448.927" cy="531.757" r="4.02051" stroke-width="0.5" stroke="black" fill="magenta"/>
   </g>
   <g id="cell89">
  <circle cx="547.375" cy="459.248" r="6.67717" stroke-width="0.5" stroke="black" fill="cyan"/>
  <circle cx="547.375" cy="459.248" r="4.00951" stroke-width="0.5" stroke="black" fill="cyan"/>
   </g>
   <g id="cell90">
  <circle cx="630.204" cy="473.395" r="6.07872" stroke-width="0.5" stroke="black" fill="green"/>
  <circle cx="630.204" cy="473.395" r="3.69364" stroke-width="0.5" stroke="black" fill="green"/>
   </g>
  </g>
 </g>
  <rect x="775" y="1035" width="200" height="10" stroke-width="2" stroke="rgb(255,255,255)" fill="rgb(0,0,0)"/>
  <text x="781.25" y="1028.75"
   font-family="Arial" font-size="25" fill="black" >
   200 &#956;m
  </text>
  <text x="25" y="1045"
   font-family="Arial" font-size="18.75" fill="black" >
   0 days, 0 hours, 0 minutes, and 6.0187 seconds
  </text>
  <rect x="0" y="70" width="1000" height="1000" stroke-width="2" stroke="rgb(0,0,0)" fill="none"/>
</svg>
