<?xml version="1.0" encoding="UTF-8" standalone="no"?>
<!-- Created with PhysiCell (http://PhysiCell.MathCancer.org/) -->
<svg 
 xmlns:dc="http://purl.org/dc/elements/1.1/" 
 xmlns:cc="http://creativecommons.org/ns#" 
 xmlns:rdf="http://www.w3.org/1999/02/22-rdf-syntax-ns#" 
 xmlns:svg="http://www.w3.org/2000/svg" 
 xmlns="http://www.w3.org/2000/svg" 
 version="1.1" 
 width="1000" 
 height="1070" 
 id="svg2">
  <rect x="0" y="0" width="1000" height="1070" stroke-width="2" stroke="white" fill="white"/>
  <text x="12.5" y="30"
   font-family="Arial" font-size="25" fill="black" >
   Current time: 0 days, 8 hours, and 0.00 minutes, z = 0.00 &#956;m
  </text>
  <text x="12.5" y="57.5"
   font-family="Arial" font-size="23.75" fill="black" >
   95 agents
  </text>
 <g id="tissue" 
    transform="translate(0,1070) scale(1,-1)">
  <g id="ECM">
  </g>
  <g id="cells">
   <g id="cell0">
  <circle cx="510.893" cy="537.502" r="7.86286" stroke-width="0.5" stroke="black" fill="magenta"/>
  <circle cx="510.893" cy="537.502" r="4.77207" stroke-width="0.5" stroke="black" fill="magenta"/>
   </g>
   <g id="cell1">
  <circle cx="602.492" cy="526.171" r="8.41271" stroke-width="0.5" stroke="black" fill="magenta"/>
  <circle cx="602.492" cy="526.171" r="5.05167" stroke-width="0.5" stroke="black" fill="magenta"/>
   </g>
   <g id="cell2">
  <circle cx="513.987" cy="596.444" r="7.18097" stroke-width="0.5" stroke="black" fill="magenta"/>
  <circle cx="513.987" cy="596.444" r="4.36015" stroke-width="0.5" stroke="black" fill="magenta"/>
   </g>
   <g id="cell3">
  <circle cx="524.57" cy="542.719" r="8.41271" stroke-width="0.5" stroke="black" fill="magenta"/>
  <circle cx="524.57" cy="542.719" r="5.05167" stroke-width="0.5" stroke="black" fill="magenta"/>
   </g>
   <g id="cell4">
  <circle cx="483.453" cy="437.926" r="8.41271" stroke-width="0.5" stroke="black" fill="magenta"/>
  <circle cx="483.453" cy="437.926" r="5.05167" stroke-width="0.5" stroke="black" fill="magenta"/>
   </g>
   <g id="cell5">
  <circle cx="461.279" cy="496.945" r="8.10448" stroke-width="0.5" stroke="black" fill="magenta"/>
  <circle cx="461.279" cy="496.945" r="4.90539" stroke-width="0.5" stroke="black" fill="magenta"/>
   </g>
   <g id="cell6">
  <circle cx="595.637" cy="512.669" r="8.41271" stroke-width="0.5" stroke="black" fill="magenta"/>
  <circle cx="595.637" cy="512.669" r="5.05167" stroke-width="0.5" stroke="black" fill="magenta"/>
   </g>
   <g id="cell7">
  <circle cx="512.086" cy="464.744" r="8.41271" stroke-width="0.5" stroke="black" fill="magenta"/>
  <circle cx="512.086" cy="464.744" r="5.05167" stroke-width="0.5" stroke="black" fill="magenta"/>
   </g>
   <g id="cell8">
  <circle cx="383.426" cy="540.838" r="7.83019" stroke-width="0.5" stroke="black" fill="magenta"/>
  <circle cx="383.426" cy="540.838" r="4.75343" stroke-width="0.5" stroke="black" fill="magenta"/>
   </g>
   <g id="cell9">
  <circle cx="460.472" cy="599.786" r="8.41271" stroke-width="0.5" stroke="black" fill="magenta"/>
  <circle cx="460.472" cy="599.786" r="5.05167" stroke-width="0.5" stroke="black" fill="magenta"/>
   </g>
   <g id="cell10">
  <circle cx="583.447" cy="392.105" r="8.41271" stroke-width="0.5" stroke="black" fill="magenta"/>
  <circle cx="583.447" cy="392.105" r="5.05167" stroke-width="0.5" stroke="black" fill="magenta"/>
   </g>
   <g id="cell11">
  <circle cx="589.748" cy="590.273" r="8.41271" stroke-width="0.5" stroke="black" fill="magenta"/>
  <circle cx="589.748" cy="590.273" r="5.05167" stroke-width="0.5" stroke="black" fill="magenta"/>
   </g>
   <g id="cell12">
  <circle cx="505.484" cy="585.022" r="8.41271" stroke-width="0.5" stroke="black" fill="magenta"/>
  <circle cx="505.484" cy="585.022" r="5.05167" stroke-width="0.5" stroke="black" fill="magenta"/>
   </g>
   <g id="cell13">
  <circle cx="386.087" cy="568.145" r="8.41271" stroke-width="0.5" stroke="black" fill="magenta"/>
  <circle cx="386.087" cy="568.145" r="5.05167" stroke-width="0.5" stroke="black" fill="magenta"/>
   </g>
   <g id="cell14">
  <circle cx="528.115" cy="400.981" r="8.41271" stroke-width="0.5" stroke="black" fill="magenta"/>
  <circle cx="528.115" cy="400.981" r="5.05167" stroke-width="0.5" stroke="black" fill="magenta"/>
   </g>
   <g id="cell15">
  <circle cx="378.497" cy="474.549" r="8.41271" stroke-width="0.5" stroke="black" fill="magenta"/>
  <circle cx="378.497" cy="474.549" r="5.05167" stroke-width="0.5" stroke="black" fill="magenta"/>
   </g>
   <g id="cell16">
  <circle cx="428.96" cy="413.217" r="8.41271" stroke-width="0.5" stroke="black" fill="magenta"/>
  <circle cx="428.96" cy="413.217" r="5.05167" stroke-width="0.5" stroke="black" fill="magenta"/>
   </g>
   <g id="cell17">
  <circle cx="575.3" cy="489.924" r="8.41271" stroke-width="0.5" stroke="black" fill="magenta"/>
  <circle cx="575.3" cy="489.924" r="5.05167" stroke-width="0.5" stroke="black" fill="magenta"/>
   </g>
   <g id="cell18">
  <circle cx="518.081" cy="389.625" r="8.41271" stroke-width="0.5" stroke="black" fill="magenta"/>
  <circle cx="518.081" cy="389.625" r="5.05167" stroke-width="0.5" stroke="black" fill="magenta"/>
   </g>
   <g id="cell19">
  <circle cx="451.991" cy="536.582" r="8.41271" stroke-width="0.5" stroke="black" fill="magenta"/>
  <circle cx="451.991" cy="536.582" r="5.05167" stroke-width="0.5" stroke="black" fill="magenta"/>
   </g>
   <g id="cell20">
  <circle cx="528.639" cy="416.132" r="8.41271" stroke-width="0.5" stroke="black" fill="magenta"/>
  <circle cx="528.639" cy="416.132" r="5.05167" stroke-width="0.5" stroke="black" fill="magenta"/>
   </g>
   <g id="cell21">
  <circle cx="464.368" cy="634.574" r="8.41271" stroke-width="0.5" stroke="black" fill="magenta"/>
  <circle cx="464.368" cy="634.574" r="5.05167" stroke-width="0.5" stroke="black" fill="magenta"/>
   </g>
   <g id="cell22">
  <circle cx="560.706" cy="492.767" r="8.15353" stroke-width="0.5" stroke="black" fill="magenta"/>
  <circle cx="560.706" cy="492.767" r="4.93122" stroke-width="0.5" stroke="black" fill="magenta"/>
   </g>
   <g id="cell23">
  <circle cx="537.017" cy="481.927" r="8.41271" stroke-width="0.5" stroke="black" fill="magenta"/>
  <circle cx="537.017" cy="481.927" r="5.05167" stroke-width="0.5" stroke="black" fill="magenta"/>
   </g>
   <g id="cell24">
  <circle cx="559.256" cy="379.838" r="8.41271" stroke-width="0.5" stroke="black" fill="magenta"/>
  <circle cx="559.256" cy="379.838" r="5.05167" stroke-width="0.5" stroke="black" fill="magenta"/>
   </g>
   <g id="cell25">
  <circle cx="640.943" cy="550.03" r="8.41271" stroke-width="0.5" stroke="black" fill="green"/>
  <circle cx="640.943" cy="550.03" r="5.05167" stroke-width="0.5" stroke="black" fill="green"/>
   </g>
   <g id="cell26">
  <circle cx="547.736" cy="396.463" r="6.95901" stroke-width="0.5" stroke="black" fill="green"/>
  <circle cx="547.736" cy="396.463" r="4.21341" stroke-width="0.5" stroke="black" fill="green"/>
   </g>
   <g id="cell27">
  <circle cx="457.446" cy="388.678" r="8.41271" stroke-width="0.5" stroke="black" fill="green"/>
  <circle cx="457.446" cy="388.678" r="5.05167" stroke-width="0.5" stroke="black" fill="green"/>
   </g>
   <g id="cell28">
  <circle cx="437.414" cy="531.024" r="8.41271" stroke-width="0.5" stroke="black" fill="green"/>
  <circle cx="437.414" cy="531.024" r="5.05167" stroke-width="0.5" stroke="black" fill="green"/>
   </g>
   <g id="cell29">
  <circle cx="450.003" cy="521.109" r="8.41271" stroke-width="0.5" stroke="black" fill="green"/>
  <circle cx="450.003" cy="521.109" r="5.05167" stroke-width="0.5" stroke="black" fill="green"/>
   </g>
   <g id="cell30">
  <circle cx="481.58" cy="540.282" r="8.41271" stroke-width="0.5" stroke="black" fill="green"/>
  <circle cx="481.58" cy="540.282" r="5.05167" stroke-width="0.5" stroke="black" fill="green"/>
   </g>
   <g id="cell31">
  <circle cx="412.757" cy="541.193" r="8.41271" stroke-width="0.5" stroke="black" fill="green"/>
  <circle cx="412.757" cy="541.193" r="5.05167" stroke-width="0.5" stroke="black" fill="green"/>
   </g>
   <g id="cell32">
  <circle cx="425.507" cy="474.714" r="7.00193" stroke-width="0.5" stroke="black" fill="green"/>
  <circle cx="425.507" cy="474.714" r="4.27611" stroke-width="0.5" stroke="black" fill="black"/>
   </g>
   <g id="cell33">
  <circle cx="493.06" cy="425.635" r="8.41271" stroke-width="0.5" stroke="black" fill="green"/>
  <circle cx="493.06" cy="425.635" r="5.05167" stroke-width="0.5" stroke="black" fill="green"/>
   </g>
   <g id="cell34">
  <circle cx="397.088" cy="450.831" r="8.41271" stroke-width="0.5" stroke="black" fill="green"/>
  <circle cx="397.088" cy="450.831" r="5.05167" stroke-width="0.5" stroke="black" fill="green"/>
   </g>
   <g id="cell35">
  <circle cx="555.158" cy="545.093" r="8.16806" stroke-width="0.5" stroke="black" fill="green"/>
  <circle cx="555.158" cy="545.093" r="4.93877" stroke-width="0.5" stroke="black" fill="green"/>
   </g>
   <g id="cell36">
  <circle cx="391.465" cy="582.827" r="8.41271" stroke-width="0.5" stroke="black" fill="green"/>
  <circle cx="391.465" cy="582.827" r="5.05167" stroke-width="0.5" stroke="black" fill="green"/>
   </g>
   <g id="cell37">
  <circle cx="633.324" cy="455.545" r="7.46878" stroke-width="0.5" stroke="black" fill="green"/>
  <circle cx="633.324" cy="455.545" r="4.53982" stroke-width="0.5" stroke="black" fill="green"/>
   </g>
   <g id="cell38">
  <circle cx="536.424" cy="601.766" r="8.41271" stroke-width="0.5" stroke="black" fill="green"/>
  <circle cx="536.424" cy="601.766" r="5.05167" stroke-width="0.5" stroke="black" fill="green"/>
   </g>
   <g id="cell39">
  <circle cx="618.474" cy="493.734" r="7.79564" stroke-width="0.5" stroke="black" fill="green"/>
  <circle cx="618.474" cy="493.734" r="4.73359" stroke-width="0.5" stroke="black" fill="green"/>
   </g>
   <g id="cell40">
  <circle cx="488.096" cy="577.189" r="8.07654" stroke-width="0.5" stroke="black" fill="green"/>
  <circle cx="488.096" cy="577.189" r="4.89046" stroke-width="0.5" stroke="black" fill="green"/>
   </g>
   <g id="cell41">
  <circle cx="368.918" cy="485.599" r="7.49456" stroke-width="0.5" stroke="black" fill="green"/>
  <circle cx="368.918" cy="485.599" r="4.55548" stroke-width="0.5" stroke="black" fill="green"/>
   </g>
   <g id="cell42">
  <circle cx="438.842" cy="494.268" r="8.41271" stroke-width="0.5" stroke="black" fill="green"/>
  <circle cx="438.842" cy="494.268" r="5.05167" stroke-width="0.5" stroke="black" fill="green"/>
   </g>
   <g id="cell43">
  <circle cx="556.513" cy="440.286" r="7.97646" stroke-width="0.5" stroke="black" fill="green"/>
  <circle cx="556.513" cy="440.286" r="4.83584" stroke-width="0.5" stroke="black" fill="green"/>
   </g>
   <g id="cell44">
  <circle cx="475.857" cy="624.021" r="8.41271" stroke-width="0.5" stroke="black" fill="green"/>
  <circle cx="475.857" cy="624.021" r="5.05167" stroke-width="0.5" stroke="black" fill="green"/>
   </g>
   <g id="cell45">
  <circle cx="414.953" cy="557.066" r="8.41271" stroke-width="0.5" stroke="black" fill="green"/>
  <circle cx="414.953" cy="557.066" r="5.05167" stroke-width="0.5" stroke="black" fill="green"/>
   </g>
   <g id="cell46">
  <circle cx="522.298" cy="609.168" r="8.41271" stroke-width="0.5" stroke="black" fill="green"/>
  <circle cx="522.298" cy="609.168" r="5.05167" stroke-width="0.5" stroke="black" fill="green"/>
   </g>
   <g id="cell47">
  <circle cx="505.537" cy="504.176" r="8.10448" stroke-width="0.5" stroke="black" fill="green"/>
  <circle cx="505.537" cy="504.176" r="4.90539" stroke-width="0.5" stroke="black" fill="green"/>
   </g>
   <g id="cell48">
  <circle cx="564.508" cy="602.794" r="8.41271" stroke-width="0.5" stroke="black" fill="green"/>
  <circle cx="564.508" cy="602.794" r="5.05167" stroke-width="0.5" stroke="black" fill="green"/>
   </g>
   <g id="cell49">
  <circle cx="429.826" cy="397.641" r="8.41271" stroke-width="0.5" stroke="black" fill="green"/>
  <circle cx="429.826" cy="397.641" r="5.05167" stroke-width="0.5" stroke="black" fill="green"/>
   </g>
   <g id="cell50">
  <circle cx="517.807" cy="513.666" r="8.41271" stroke-width="0.5" stroke="black" fill="cyan"/>
  <circle cx="517.807" cy="513.666" r="5.05167" stroke-width="0.5" stroke="black" fill="cyan"/>
   </g>
   <g id="cell51">
  <circle cx="398.696" cy="597.153" r="8.41271" stroke-width="0.5" stroke="black" fill="cyan"/>
  <circle cx="398.696" cy="597.153" r="5.05167" stroke-width="0.5" stroke="black" fill="cyan"/>
   </g>
   <g id="cell52">
  <circle cx="524.908" cy="424.786" r="1.84616" stroke-width="0.5" stroke="black" fill="cyan"/>
  <circle cx="524.908" cy="424.786" r="1.7784" stroke-width="0.5" stroke="black" fill="black"/>
   </g>
   <g id="cell53">
  <circle cx="571.485" cy="436.038" r="8.41271" stroke-width="0.5" stroke="black" fill="cyan"/>
  <circle cx="571.485" cy="436.038" r="5.05167" stroke-width="0.5" stroke="black" fill="cyan"/>
   </g>
   <g id="cell54">
  <circle cx="477.159" cy="423.653" r="8.41271" stroke-width="0.5" stroke="black" fill="cyan"/>
  <circle cx="477.159" cy="423.653" r="5.05167" stroke-width="0.5" stroke="black" fill="cyan"/>
   </g>
   <g id="cell55">
  <circle cx="526.675" cy="470.257" r="8.41271" stroke-width="0.5" stroke="black" fill="cyan"/>
  <circle cx="526.675" cy="470.257" r="5.05167" stroke-width="0.5" stroke="black" fill="cyan"/>
   </g>
   <g id="cell56">
  <circle cx="617.613" cy="522.333" r="8.41271" stroke-width="0.5" stroke="black" fill="cyan"/>
  <circle cx="617.613" cy="522.333" r="5.05167" stroke-width="0.5" stroke="black" fill="cyan"/>
   </g>
   <g id="cell57">
  <circle cx="416.924" cy="617.466" r="8.41271" stroke-width="0.5" stroke="black" fill="cyan"/>
  <circle cx="416.924" cy="617.466" r="5.05167" stroke-width="0.5" stroke="black" fill="cyan"/>
   </g>
   <g id="cell58">
  <circle cx="552.503" cy="479.74" r="8.41271" stroke-width="0.5" stroke="black" fill="cyan"/>
  <circle cx="552.503" cy="479.74" r="5.05167" stroke-width="0.5" stroke="black" fill="cyan"/>
   </g>
   <g id="cell59">
  <circle cx="385.463" cy="439.803" r="8.41271" stroke-width="0.5" stroke="black" fill="cyan"/>
  <circle cx="385.463" cy="439.803" r="5.05167" stroke-width="0.5" stroke="black" fill="cyan"/>
   </g>
   <g id="cell60">
  <circle cx="593.528" cy="474.139" r="8.41271" stroke-width="0.5" stroke="black" fill="cyan"/>
  <circle cx="593.528" cy="474.139" r="5.05167" stroke-width="0.5" stroke="black" fill="cyan"/>
   </g>
   <g id="cell61">
  <circle cx="552.974" cy="613.918" r="8.41271" stroke-width="0.5" stroke="black" fill="cyan"/>
  <circle cx="552.974" cy="613.918" r="5.05167" stroke-width="0.5" stroke="black" fill="cyan"/>
   </g>
   <g id="cell62">
  <circle cx="526.347" cy="443.915" r="8.41271" stroke-width="0.5" stroke="black" fill="cyan"/>
  <circle cx="526.347" cy="443.915" r="5.05167" stroke-width="0.5" stroke="black" fill="cyan"/>
   </g>
   <g id="cell63">
  <circle cx="583.197" cy="548.713" r="7.97646" stroke-width="0.5" stroke="black" fill="cyan"/>
  <circle cx="583.197" cy="548.713" r="4.83584" stroke-width="0.5" stroke="black" fill="cyan"/>
   </g>
   <g id="cell64">
  <circle cx="509.962" cy="636.825" r="8.41271" stroke-width="0.5" stroke="black" fill="cyan"/>
  <circle cx="509.962" cy="636.825" r="5.05167" stroke-width="0.5" stroke="black" fill="cyan"/>
   </g>
   <g id="cell65">
  <circle cx="542.423" cy="467.294" r="8.41271" stroke-width="0.5" stroke="black" fill="cyan"/>
  <circle cx="542.423" cy="467.294" r="5.05167" stroke-width="0.5" stroke="black" fill="cyan"/>
   </g>
   <g id="cell66">
  <circle cx="548.883" cy="531.771" r="7.51976" stroke-width="0.5" stroke="black" fill="cyan"/>
  <circle cx="548.883" cy="531.771" r="4.57072" stroke-width="0.5" stroke="black" fill="cyan"/>
   </g>
   <g id="cell67">
  <circle cx="358.798" cy="496.341" r="8.13813" stroke-width="0.5" stroke="black" fill="cyan"/>
  <circle cx="358.798" cy="496.341" r="4.92317" stroke-width="0.5" stroke="black" fill="cyan"/>
   </g>
   <g id="cell68">
  <circle cx="565.824" cy="556.536" r="8.41271" stroke-width="0.5" stroke="black" fill="cyan"/>
  <circle cx="565.824" cy="556.536" r="5.05167" stroke-width="0.5" stroke="black" fill="cyan"/>
   </g>
   <g id="cell69">
  <circle cx="437.503" cy="464.635" r="8.41271" stroke-width="0.5" stroke="black" fill="cyan"/>
  <circle cx="437.503" cy="464.635" r="5.05167" stroke-width="0.5" stroke="black" fill="cyan"/>
   </g>
   <g id="cell70">
  <circle cx="577.434" cy="474.478" r="8.41271" stroke-width="0.5" stroke="black" fill="cyan"/>
  <circle cx="577.434" cy="474.478" r="5.05167" stroke-width="0.5" stroke="black" fill="cyan"/>
   </g>
   <g id="cell71">
  <circle cx="375.457" cy="516.933" r="5.72107" stroke-width="0.5" stroke="black" fill="cyan"/>
  <circle cx="375.457" cy="516.933" r="3.47539" stroke-width="0.5" stroke="black" fill="cyan"/>
   </g>
   <g id="cell72">
  <circle cx="532.731" cy="518.066" r="8.18833" stroke-width="0.5" stroke="black" fill="cyan"/>
  <circle cx="532.731" cy="518.066" r="4.94921" stroke-width="0.5" stroke="black" fill="cyan"/>
   </g>
   <g id="cell73">
  <circle cx="348.531" cy="548.055" r="7.7401" stroke-width="0.5" stroke="black" fill="cyan"/>
  <circle cx="348.531" cy="548.055" r="4.70142" stroke-width="0.5" stroke="black" fill="cyan"/>
   </g>
   <g id="cell74">
  <circle cx="542.174" cy="446.321" r="8.41271" stroke-width="0.5" stroke="black" fill="cyan"/>
  <circle cx="542.174" cy="446.321" r="5.05167" stroke-width="0.5" stroke="black" fill="cyan"/>
   </g>
   <g id="cell75">
  <circle cx="534.122" cy="502.705" r="8.18833" stroke-width="0.5" stroke="black" fill="cyan"/>
  <circle cx="534.122" cy="502.705" r="4.94921" stroke-width="0.5" stroke="black" fill="cyan"/>
   </g>
   <g id="cell76">
  <circle cx="539.711" cy="546.266" r="8.16806" stroke-width="0.5" stroke="black" fill="green"/>
  <circle cx="539.711" cy="546.266" r="4.93877" stroke-width="0.5" stroke="black" fill="green"/>
   </g>
   <g id="cell77">
  <circle cx="546.135" cy="493.674" r="8.15353" stroke-width="0.5" stroke="black" fill="magenta"/>
  <circle cx="546.135" cy="493.674" r="4.93122" stroke-width="0.5" stroke="black" fill="magenta"/>
   </g>
   <g id="cell78">
  <circle cx="346.944" cy="486.396" r="8.13813" stroke-width="0.5" stroke="black" fill="cyan"/>
  <circle cx="346.944" cy="486.396" r="4.92317" stroke-width="0.5" stroke="black" fill="cyan"/>
   </g>
   <g id="cell79">
  <circle cx="490.225" cy="504.748" r="8.10448" stroke-width="0.5" stroke="black" fill="green"/>
  <circle cx="490.225" cy="504.748" r="4.90539" stroke-width="0.5" stroke="black" fill="green"/>
   </g>
   <g id="cell80">
  <circle cx="471.74" cy="486.787" r="8.10448" stroke-width="0.5" stroke="black" fill="magenta"/>
  <circle cx="471.74" cy="486.787" r="4.90539" stroke-width="0.5" stroke="black" fill="magenta"/>
   </g>
   <g id="cell81">
  <circle cx="482.14" cy="562.931" r="8.07654" stroke-width="0.5" stroke="black" fill="green"/>
  <circle cx="482.14" cy="562.931" r="4.89046" stroke-width="0.5" stroke="black" fill="green"/>
   </g>
   <g id="cell82">
  <circle cx="569.977" cy="541.412" r="7.97646" stroke-width="0.5" stroke="black" fill="cyan"/>
  <circle cx="569.977" cy="541.412" r="4.83584" stroke-width="0.5" stroke="black" fill="cyan"/>
   </g>
   <g id="cell83">
  <circle cx="559.375" cy="455.174" r="7.97646" stroke-width="0.5" stroke="black" fill="green"/>
  <circle cx="559.375" cy="455.174" r="4.83584" stroke-width="0.5" stroke="black" fill="green"/>
   </g>
   <g id="cell84">
  <circle cx="521.537" cy="528.23" r="7.86286" stroke-width="0.5" stroke="black" fill="magenta"/>
  <circle cx="521.537" cy="528.23" r="4.77207" stroke-width="0.5" stroke="black" fill="magenta"/>
   </g>
   <g id="cell85">
  <circle cx="372.9" cy="550.194" r="7.83019" stroke-width="0.5" stroke="black" fill="magenta"/>
  <circle cx="372.9" cy="550.194" r="4.75343" stroke-width="0.5" stroke="black" fill="magenta"/>
   </g>
   <g id="cell86">
  <circle cx="605.919" cy="485.71" r="7.79564" stroke-width="0.5" stroke="black" fill="green"/>
  <circle cx="605.919" cy="485.71" r="4.73359" stroke-width="0.5" stroke="black" fill="green"/>
   </g>
   <g id="cell87">
  <circle cx="361.567" cy="541.267" r="7.7401" stroke-width="0.5" stroke="black" fill="cyan"/>
  <circle cx="361.567" cy="541.267" r="4.70142" stroke-width="0.5" stroke="black" fill="cyan"/>
   </g>
   <g id="cell88">
  <circle cx="534.911" cy="532.463" r="7.51976" stroke-width="0.5" stroke="black" fill="cyan"/>
  <circle cx="534.911" cy="532.463" r="4.57072" stroke-width="0.5" stroke="black" fill="cyan"/>
   </g>
   <g id="cell89">
  <circle cx="360.303" cy="474.364" r="7.49456" stroke-width="0.5" stroke="black" fill="green"/>
  <circle cx="360.303" cy="474.364" r="4.55548" stroke-width="0.5" stroke="black" fill="green"/>
   </g>
   <g id="cell90">
  <circle cx="637.459" cy="469.103" r="7.46878" stroke-width="0.5" stroke="black" fill="green"/>
  <circle cx="637.459" cy="469.103" r="4.53982" stroke-width="0.5" stroke="black" fill="green"/>
   </g>
   <g id="cell91">
  <circle cx="375.279" cy="529.526" r="7.18097" stroke-width="0.5" stroke="black" fill="cyan"/>
  <circle cx="375.279" cy="529.526" r="4.36015" stroke-width="0.5" stroke="black" fill="cyan"/>
   </g>
   <g id="cell92">
  <circle cx="508.032" cy="607.875" r="7.18097" stroke-width="0.5" stroke="black" fill="magenta"/>
  <circle cx="508.032" cy="607.875" r="4.36015" stroke-width="0.5" stroke="black" fill="magenta"/>
   </g>
   <g id="cell93">
  <circle cx="555.396" cy="407.224" r="6.95901" stroke-width="0.5" stroke="black" fill="green"/>
  <circle cx="555.396" cy="407.224" r="4.21341" stroke-width="0.5" stroke="black" fill="green"/>
   </g>
   <g id="cell94">
  <circle cx="386.227" cy="516.983" r="5.72107" stroke-width="0.5" stroke="black" fill="cyan"/>
  <circle cx="386.227" cy="516.983" r="3.47539" stroke-width="0.5" stroke="black" fill="cyan"/>
   </g>
  </g>
 </g>
  <rect x="775" y="1035" width="200" height="10" stroke-width="2" stroke="rgb(255,255,255)" fill="rgb(0,0,0)"/>
  <text x="781.25" y="1028.75"
   font-family="Arial" font-size="25" fill="black" >
   200 &#956;m
  </text>
  <text x="25" y="1045"
   font-family="Arial" font-size="18.75" fill="black" >
   0 days, 0 hours, 0 minutes, and 8.4660 seconds
  </text>
  <rect x="0" y="70" width="1000" height="1000" stroke-width="2" stroke="rgb(0,0,0)" fill="none"/>
</svg>
