<?xml version="1.0" encoding="UTF-8" standalone="no"?>
<!-- Created with PhysiCell (http://PhysiCell.MathCancer.org/) -->
<svg 
 xmlns:dc="http://purl.org/dc/elements/1.1/" 
 xmlns:cc="http://creativecommons.org/ns#" 
 xmlns:rdf="http://www.w3.org/1999/02/22-rdf-syntax-ns#" 
 xmlns:svg="http://www.w3.org/2000/svg" 
 xmlns="http://www.w3.org/2000/svg" 
 version="1.1" 
 width="1000" 
 height="1070" 
 id="svg2">
  <rect x="0" y="0" width="1000" height="1070" stroke-width="2" stroke="white" fill="white"/>
  <text x="12.5" y="30"
   font-family="Arial" font-size="25" fill="black" >
   Current time: 0 days, 11 hours, and 21.00 minutes, z = 0.00 &#956;m
  </text>
  <text x="12.5" y="57.5"
   font-family="Arial" font-size="23.75" fill="black" >
   109 agents
  </text>
 <g id="tissue" 
    transform="translate(0,1070) scale(1,-1)">
  <g id="ECM">
  </g>
  <g id="cells">
   <g id="cell0">
  <circle cx="516.545" cy="533.667" r="8.10448" stroke-width="0.5" stroke="black" fill="magenta"/>
  <circle cx="516.545" cy="533.667" r="4.90539" stroke-width="0.5" stroke="black" fill="magenta"/>
   </g>
   <g id="cell1">
  <circle cx="602.492" cy="526.171" r="8.41271" stroke-width="0.5" stroke="black" fill="magenta"/>
  <circle cx="602.492" cy="526.171" r="5.05167" stroke-width="0.5" stroke="black" fill="magenta"/>
   </g>
   <g id="cell2">
  <circle cx="514.251" cy="599.564" r="8.41271" stroke-width="0.5" stroke="black" fill="magenta"/>
  <circle cx="514.251" cy="599.564" r="5.05167" stroke-width="0.5" stroke="black" fill="magenta"/>
   </g>
   <g id="cell3">
  <circle cx="523.815" cy="545.945" r="7.89764" stroke-width="0.5" stroke="black" fill="magenta"/>
  <circle cx="523.815" cy="545.945" r="4.80289" stroke-width="0.5" stroke="black" fill="magenta"/>
   </g>
   <g id="cell4">
  <circle cx="489.379" cy="437.601" r="8.28985" stroke-width="0.5" stroke="black" fill="magenta"/>
  <circle cx="489.379" cy="437.601" r="4.99956" stroke-width="0.5" stroke="black" fill="magenta"/>
   </g>
   <g id="cell5">
  <circle cx="465.032" cy="493.3" r="8.41271" stroke-width="0.5" stroke="black" fill="magenta"/>
  <circle cx="465.032" cy="493.3" r="5.05167" stroke-width="0.5" stroke="black" fill="magenta"/>
   </g>
   <g id="cell6">
  <circle cx="595.637" cy="512.669" r="8.41271" stroke-width="0.5" stroke="black" fill="magenta"/>
  <circle cx="595.637" cy="512.669" r="5.05167" stroke-width="0.5" stroke="black" fill="magenta"/>
   </g>
   <g id="cell7">
  <circle cx="509.225" cy="461.629" r="8.41271" stroke-width="0.5" stroke="black" fill="magenta"/>
  <circle cx="509.225" cy="461.629" r="5.05167" stroke-width="0.5" stroke="black" fill="magenta"/>
   </g>
   <g id="cell8">
  <circle cx="376.4" cy="544.089" r="8.41271" stroke-width="0.5" stroke="black" fill="magenta"/>
  <circle cx="376.4" cy="544.089" r="5.05167" stroke-width="0.5" stroke="black" fill="magenta"/>
   </g>
   <g id="cell9">
  <circle cx="460.472" cy="599.786" r="8.41271" stroke-width="0.5" stroke="black" fill="magenta"/>
  <circle cx="460.472" cy="599.786" r="5.05167" stroke-width="0.5" stroke="black" fill="magenta"/>
   </g>
   <g id="cell10">
  <circle cx="583.447" cy="392.105" r="8.41271" stroke-width="0.5" stroke="black" fill="magenta"/>
  <circle cx="583.447" cy="392.105" r="5.05167" stroke-width="0.5" stroke="black" fill="magenta"/>
   </g>
   <g id="cell11">
  <circle cx="588.836" cy="590.554" r="8.41271" stroke-width="0.5" stroke="black" fill="magenta"/>
  <circle cx="588.836" cy="590.554" r="5.05167" stroke-width="0.5" stroke="black" fill="magenta"/>
   </g>
   <g id="cell12">
  <circle cx="506.812" cy="586.114" r="8.41271" stroke-width="0.5" stroke="black" fill="magenta"/>
  <circle cx="506.812" cy="586.114" r="5.05167" stroke-width="0.5" stroke="black" fill="magenta"/>
   </g>
   <g id="cell13">
  <circle cx="386.194" cy="568.228" r="8.41271" stroke-width="0.5" stroke="black" fill="magenta"/>
  <circle cx="386.194" cy="568.228" r="5.05167" stroke-width="0.5" stroke="black" fill="magenta"/>
   </g>
   <g id="cell14">
  <circle cx="528.605" cy="399.158" r="8.41271" stroke-width="0.5" stroke="black" fill="magenta"/>
  <circle cx="528.605" cy="399.158" r="5.05167" stroke-width="0.5" stroke="black" fill="magenta"/>
   </g>
   <g id="cell15">
  <circle cx="379.65" cy="475.1" r="8.41271" stroke-width="0.5" stroke="black" fill="magenta"/>
  <circle cx="379.65" cy="475.1" r="5.05167" stroke-width="0.5" stroke="black" fill="magenta"/>
   </g>
   <g id="cell16">
  <circle cx="428.96" cy="413.216" r="8.41271" stroke-width="0.5" stroke="black" fill="magenta"/>
  <circle cx="428.96" cy="413.216" r="5.05167" stroke-width="0.5" stroke="black" fill="magenta"/>
   </g>
   <g id="cell17">
  <circle cx="570.38" cy="489.779" r="8.41271" stroke-width="0.5" stroke="black" fill="magenta"/>
  <circle cx="570.38" cy="489.779" r="5.05167" stroke-width="0.5" stroke="black" fill="magenta"/>
   </g>
   <g id="cell18">
  <circle cx="517.426" cy="388.942" r="8.41271" stroke-width="0.5" stroke="black" fill="magenta"/>
  <circle cx="517.426" cy="388.942" r="5.05167" stroke-width="0.5" stroke="black" fill="magenta"/>
   </g>
   <g id="cell19">
  <circle cx="456.543" cy="543.893" r="8.04604" stroke-width="0.5" stroke="black" fill="magenta"/>
  <circle cx="456.543" cy="543.893" r="4.87399" stroke-width="0.5" stroke="black" fill="magenta"/>
   </g>
   <g id="cell20">
  <circle cx="531.161" cy="414.083" r="8.41271" stroke-width="0.5" stroke="black" fill="magenta"/>
  <circle cx="531.161" cy="414.083" r="5.05167" stroke-width="0.5" stroke="black" fill="magenta"/>
   </g>
   <g id="cell21">
  <circle cx="464.368" cy="634.574" r="8.41271" stroke-width="0.5" stroke="black" fill="magenta"/>
  <circle cx="464.368" cy="634.574" r="5.05167" stroke-width="0.5" stroke="black" fill="magenta"/>
   </g>
   <g id="cell22">
  <circle cx="557.616" cy="498.139" r="8.41271" stroke-width="0.5" stroke="black" fill="magenta"/>
  <circle cx="557.616" cy="498.139" r="5.05167" stroke-width="0.5" stroke="black" fill="magenta"/>
   </g>
   <g id="cell23">
  <circle cx="541.553" cy="485.069" r="8.41271" stroke-width="0.5" stroke="black" fill="magenta"/>
  <circle cx="541.553" cy="485.069" r="5.05167" stroke-width="0.5" stroke="black" fill="magenta"/>
   </g>
   <g id="cell24">
  <circle cx="559.282" cy="379.802" r="8.41271" stroke-width="0.5" stroke="black" fill="magenta"/>
  <circle cx="559.282" cy="379.802" r="5.05167" stroke-width="0.5" stroke="black" fill="magenta"/>
   </g>
   <g id="cell25">
  <circle cx="645.61" cy="545.315" r="8.2239" stroke-width="0.5" stroke="black" fill="green"/>
  <circle cx="645.61" cy="545.315" r="4.96725" stroke-width="0.5" stroke="black" fill="green"/>
   </g>
   <g id="cell26">
  <circle cx="551.057" cy="401.239" r="8.41271" stroke-width="0.5" stroke="black" fill="green"/>
  <circle cx="551.057" cy="401.239" r="5.05167" stroke-width="0.5" stroke="black" fill="green"/>
   </g>
   <g id="cell27">
  <circle cx="463.573" cy="390.304" r="8.29667" stroke-width="0.5" stroke="black" fill="green"/>
  <circle cx="463.573" cy="390.304" r="5.00279" stroke-width="0.5" stroke="black" fill="green"/>
   </g>
   <g id="cell28">
  <circle cx="433.773" cy="530.732" r="8.41271" stroke-width="0.5" stroke="black" fill="green"/>
  <circle cx="433.773" cy="530.732" r="5.05167" stroke-width="0.5" stroke="black" fill="green"/>
   </g>
   <g id="cell29">
  <circle cx="450.415" cy="516.396" r="8.41271" stroke-width="0.5" stroke="black" fill="green"/>
  <circle cx="450.415" cy="516.396" r="5.05167" stroke-width="0.5" stroke="black" fill="green"/>
   </g>
   <g id="cell30">
  <circle cx="481.052" cy="534.783" r="7.93688" stroke-width="0.5" stroke="black" fill="green"/>
  <circle cx="481.052" cy="534.783" r="4.81381" stroke-width="0.5" stroke="black" fill="green"/>
   </g>
   <g id="cell31">
  <circle cx="412.757" cy="541.193" r="8.41271" stroke-width="0.5" stroke="black" fill="green"/>
  <circle cx="412.757" cy="541.193" r="5.05167" stroke-width="0.5" stroke="black" fill="green"/>
   </g>
   <g id="cell32">
  <circle cx="421.906" cy="481.082" r="7.75912" stroke-width="0.5" stroke="black" fill="green"/>
  <circle cx="421.906" cy="481.082" r="4.71248" stroke-width="0.5" stroke="black" fill="green"/>
   </g>
   <g id="cell33">
  <circle cx="497.851" cy="424.748" r="8.41271" stroke-width="0.5" stroke="black" fill="green"/>
  <circle cx="497.851" cy="424.748" r="5.05167" stroke-width="0.5" stroke="black" fill="green"/>
   </g>
   <g id="cell34">
  <circle cx="397.088" cy="450.831" r="8.41271" stroke-width="0.5" stroke="black" fill="green"/>
  <circle cx="397.088" cy="450.831" r="5.05167" stroke-width="0.5" stroke="black" fill="green"/>
   </g>
   <g id="cell35">
  <circle cx="551.537" cy="541.367" r="8.41271" stroke-width="0.5" stroke="black" fill="green"/>
  <circle cx="551.537" cy="541.367" r="5.05167" stroke-width="0.5" stroke="black" fill="green"/>
   </g>
   <g id="cell36">
  <circle cx="391.486" cy="582.903" r="8.41271" stroke-width="0.5" stroke="black" fill="green"/>
  <circle cx="391.486" cy="582.903" r="5.05167" stroke-width="0.5" stroke="black" fill="green"/>
   </g>
   <g id="cell37">
  <circle cx="639.693" cy="457.305" r="8.27885" stroke-width="0.5" stroke="black" fill="green"/>
  <circle cx="639.693" cy="457.305" r="4.99429" stroke-width="0.5" stroke="black" fill="green"/>
   </g>
   <g id="cell38">
  <circle cx="529.815" cy="597.47" r="8.25377" stroke-width="0.5" stroke="black" fill="green"/>
  <circle cx="529.815" cy="597.47" r="4.98209" stroke-width="0.5" stroke="black" fill="green"/>
   </g>
   <g id="cell39">
  <circle cx="613.458" cy="490.595" r="8.41271" stroke-width="0.5" stroke="black" fill="green"/>
  <circle cx="613.458" cy="490.595" r="5.05167" stroke-width="0.5" stroke="black" fill="green"/>
   </g>
   <g id="cell40">
  <circle cx="485.348" cy="571.779" r="8.41271" stroke-width="0.5" stroke="black" fill="green"/>
  <circle cx="485.348" cy="571.779" r="5.05167" stroke-width="0.5" stroke="black" fill="green"/>
   </g>
   <g id="cell41">
  <circle cx="364.925" cy="480.252" r="8.41271" stroke-width="0.5" stroke="black" fill="green"/>
  <circle cx="364.925" cy="480.252" r="5.05167" stroke-width="0.5" stroke="black" fill="green"/>
   </g>
   <g id="cell42">
  <circle cx="438.842" cy="494.268" r="8.41271" stroke-width="0.5" stroke="black" fill="green"/>
  <circle cx="438.842" cy="494.268" r="5.05167" stroke-width="0.5" stroke="black" fill="green"/>
   </g>
   <g id="cell43">
  <circle cx="558.514" cy="442.546" r="8.41271" stroke-width="0.5" stroke="black" fill="green"/>
  <circle cx="558.514" cy="442.546" r="5.05167" stroke-width="0.5" stroke="black" fill="green"/>
   </g>
   <g id="cell44">
  <circle cx="475.857" cy="624.021" r="8.41271" stroke-width="0.5" stroke="black" fill="green"/>
  <circle cx="475.857" cy="624.021" r="5.05167" stroke-width="0.5" stroke="black" fill="green"/>
   </g>
   <g id="cell45">
  <circle cx="414.953" cy="557.066" r="8.41271" stroke-width="0.5" stroke="black" fill="green"/>
  <circle cx="414.953" cy="557.066" r="5.05167" stroke-width="0.5" stroke="black" fill="green"/>
   </g>
   <g id="cell46">
  <circle cx="524.132" cy="610.713" r="7.30216" stroke-width="0.5" stroke="black" fill="green"/>
  <circle cx="524.132" cy="610.713" r="4.43696" stroke-width="0.5" stroke="black" fill="green"/>
   </g>
   <g id="cell47">
  <circle cx="504.531" cy="503.298" r="7.72056" stroke-width="0.5" stroke="black" fill="green"/>
  <circle cx="504.531" cy="503.298" r="4.69003" stroke-width="0.5" stroke="black" fill="green"/>
   </g>
   <g id="cell48">
  <circle cx="568.506" cy="601.297" r="5.66683" stroke-width="0.5" stroke="black" fill="green"/>
  <circle cx="568.506" cy="601.297" r="3.44866" stroke-width="0.5" stroke="black" fill="green"/>
   </g>
   <g id="cell49">
  <circle cx="429.827" cy="397.64" r="8.41271" stroke-width="0.5" stroke="black" fill="green"/>
  <circle cx="429.827" cy="397.64" r="5.05167" stroke-width="0.5" stroke="black" fill="green"/>
   </g>
   <g id="cell50">
  <circle cx="518.996" cy="518.881" r="8.13008" stroke-width="0.5" stroke="black" fill="cyan"/>
  <circle cx="518.996" cy="518.881" r="4.91894" stroke-width="0.5" stroke="black" fill="cyan"/>
   </g>
   <g id="cell51">
  <circle cx="398.721" cy="597.201" r="8.41271" stroke-width="0.5" stroke="black" fill="cyan"/>
  <circle cx="398.721" cy="597.201" r="5.05167" stroke-width="0.5" stroke="black" fill="cyan"/>
   </g>
   <g id="cell52">
  <circle cx="519.356" cy="424.28" r="8.41271" stroke-width="0.5" stroke="black" fill="cyan"/>
  <circle cx="519.356" cy="424.28" r="5.05167" stroke-width="0.5" stroke="black" fill="cyan"/>
   </g>
   <g id="cell53">
  <circle cx="572.871" cy="430.12" r="7.46878" stroke-width="0.5" stroke="black" fill="cyan"/>
  <circle cx="572.871" cy="430.12" r="4.53982" stroke-width="0.5" stroke="black" fill="cyan"/>
   </g>
   <g id="cell54">
  <circle cx="482.405" cy="424.188" r="7.84675" stroke-width="0.5" stroke="black" fill="cyan"/>
  <circle cx="482.405" cy="424.188" r="4.7629" stroke-width="0.5" stroke="black" fill="cyan"/>
   </g>
   <g id="cell55">
  <circle cx="523.755" cy="462.872" r="7.50021" stroke-width="0.5" stroke="black" fill="cyan"/>
  <circle cx="523.755" cy="462.872" r="4.57339" stroke-width="0.5" stroke="black" fill="cyan"/>
   </g>
   <g id="cell56">
  <circle cx="617.613" cy="522.333" r="8.41271" stroke-width="0.5" stroke="black" fill="cyan"/>
  <circle cx="617.613" cy="522.333" r="5.05167" stroke-width="0.5" stroke="black" fill="cyan"/>
   </g>
   <g id="cell105">
  <circle cx="510.887" cy="613.817" r="7.30216" stroke-width="0.5" stroke="black" fill="green"/>
  <circle cx="510.887" cy="613.817" r="4.43696" stroke-width="0.5" stroke="black" fill="green"/>
   </g>
   <g id="cell58">
  <circle cx="556.698" cy="482.684" r="8.41271" stroke-width="0.5" stroke="black" fill="cyan"/>
  <circle cx="556.698" cy="482.684" r="5.05167" stroke-width="0.5" stroke="black" fill="cyan"/>
   </g>
   <g id="cell59">
  <circle cx="385.463" cy="439.803" r="8.41271" stroke-width="0.5" stroke="black" fill="cyan"/>
  <circle cx="385.463" cy="439.803" r="5.05167" stroke-width="0.5" stroke="black" fill="cyan"/>
   </g>
   <g id="cell60">
  <circle cx="592.972" cy="473.661" r="8.41271" stroke-width="0.5" stroke="black" fill="cyan"/>
  <circle cx="592.972" cy="473.661" r="5.05167" stroke-width="0.5" stroke="black" fill="cyan"/>
   </g>
   <g id="cell61">
  <circle cx="553.311" cy="618.657" r="8.41271" stroke-width="0.5" stroke="black" fill="cyan"/>
  <circle cx="553.311" cy="618.657" r="5.05167" stroke-width="0.5" stroke="black" fill="cyan"/>
   </g>
   <g id="cell62">
  <circle cx="518.593" cy="449.078" r="8.29993" stroke-width="0.5" stroke="black" fill="cyan"/>
  <circle cx="518.593" cy="449.078" r="5.00433" stroke-width="0.5" stroke="black" fill="cyan"/>
   </g>
   <g id="cell63">
  <circle cx="574.367" cy="541.117" r="8.07654" stroke-width="0.5" stroke="black" fill="cyan"/>
  <circle cx="574.367" cy="541.117" r="4.89046" stroke-width="0.5" stroke="black" fill="cyan"/>
   </g>
   <g id="cell64">
  <circle cx="509.962" cy="636.825" r="8.41271" stroke-width="0.5" stroke="black" fill="cyan"/>
  <circle cx="509.962" cy="636.825" r="5.05167" stroke-width="0.5" stroke="black" fill="cyan"/>
   </g>
   <g id="cell65">
  <circle cx="546.785" cy="470.807" r="8.03527" stroke-width="0.5" stroke="black" fill="cyan"/>
  <circle cx="546.785" cy="470.807" r="4.86813" stroke-width="0.5" stroke="black" fill="cyan"/>
   </g>
   <g id="cell66">
  <circle cx="531.03" cy="532.843" r="7.81315" stroke-width="0.5" stroke="black" fill="cyan"/>
  <circle cx="531.03" cy="532.843" r="4.74367" stroke-width="0.5" stroke="black" fill="cyan"/>
   </g>
   <g id="cell67">
  <circle cx="354.711" cy="492.599" r="8.41271" stroke-width="0.5" stroke="black" fill="cyan"/>
  <circle cx="354.711" cy="492.599" r="5.05167" stroke-width="0.5" stroke="black" fill="cyan"/>
   </g>
   <g id="cell68">
  <circle cx="562.774" cy="552.228" r="8.41271" stroke-width="0.5" stroke="black" fill="cyan"/>
  <circle cx="562.774" cy="552.228" r="5.05167" stroke-width="0.5" stroke="black" fill="cyan"/>
   </g>
   <g id="cell69">
  <circle cx="441.752" cy="461.17" r="8.41271" stroke-width="0.5" stroke="black" fill="cyan"/>
  <circle cx="441.752" cy="461.17" r="5.05167" stroke-width="0.5" stroke="black" fill="cyan"/>
   </g>
   <g id="cell70">
  <circle cx="577.035" cy="475.587" r="8.41271" stroke-width="0.5" stroke="black" fill="cyan"/>
  <circle cx="577.035" cy="475.587" r="5.05167" stroke-width="0.5" stroke="black" fill="cyan"/>
   </g>
   <g id="cell71">
  <circle cx="377.712" cy="520.989" r="8.41271" stroke-width="0.5" stroke="black" fill="cyan"/>
  <circle cx="377.712" cy="520.989" r="5.05167" stroke-width="0.5" stroke="black" fill="cyan"/>
   </g>
   <g id="cell72">
  <circle cx="532.242" cy="511.683" r="7.86286" stroke-width="0.5" stroke="black" fill="cyan"/>
  <circle cx="532.242" cy="511.683" r="4.77207" stroke-width="0.5" stroke="black" fill="cyan"/>
   </g>
   <g id="cell73">
  <circle cx="363.727" cy="552.667" r="8.11327" stroke-width="0.5" stroke="black" fill="cyan"/>
  <circle cx="363.727" cy="552.667" r="4.91006" stroke-width="0.5" stroke="black" fill="cyan"/>
   </g>
   <g id="cell74">
  <circle cx="542.639" cy="444.759" r="8.41271" stroke-width="0.5" stroke="black" fill="cyan"/>
  <circle cx="542.639" cy="444.759" r="5.05167" stroke-width="0.5" stroke="black" fill="cyan"/>
   </g>
   <g id="cell75">
  <circle cx="528.808" cy="437.031" r="8.29993" stroke-width="0.5" stroke="black" fill="cyan"/>
  <circle cx="528.808" cy="437.031" r="5.00433" stroke-width="0.5" stroke="black" fill="cyan"/>
   </g>
   <g id="cell76">
  <circle cx="442.517" cy="382.976" r="6.47019" stroke-width="0.5" stroke="black" fill="green"/>
  <circle cx="442.517" cy="382.976" r="3.97463" stroke-width="0.5" stroke="black" fill="green"/>
   </g>
   <g id="cell77">
  <circle cx="475.841" cy="436.18" r="7.03257" stroke-width="0.5" stroke="black" fill="magenta"/>
  <circle cx="475.841" cy="436.18" r="4.28232" stroke-width="0.5" stroke="black" fill="magenta"/>
   </g>
   <g id="cell78">
  <circle cx="624.745" cy="461.179" r="7.96241" stroke-width="0.5" stroke="black" fill="green"/>
  <circle cx="624.745" cy="461.179" r="4.83666" stroke-width="0.5" stroke="black" fill="green"/>
   </g>
   <g id="cell79">
  <circle cx="516.076" cy="475.64" r="8.26262" stroke-width="0.5" stroke="black" fill="cyan"/>
  <circle cx="516.076" cy="475.64" r="4.98642" stroke-width="0.5" stroke="black" fill="cyan"/>
   </g>
   <g id="cell80">
  <circle cx="538.837" cy="612.005" r="8.16723" stroke-width="0.5" stroke="black" fill="green"/>
  <circle cx="538.837" cy="612.005" r="4.94391" stroke-width="0.5" stroke="black" fill="green"/>
   </g>
   <g id="cell81">
  <circle cx="545.284" cy="597.851" r="8.16723" stroke-width="0.5" stroke="black" fill="green"/>
  <circle cx="545.284" cy="597.851" r="4.94391" stroke-width="0.5" stroke="black" fill="green"/>
   </g>
   <g id="cell82">
  <circle cx="531.936" cy="558.164" r="8.2239" stroke-width="0.5" stroke="black" fill="magenta"/>
  <circle cx="531.936" cy="558.164" r="4.96725" stroke-width="0.5" stroke="black" fill="magenta"/>
   </g>
   <g id="cell83">
  <circle cx="634.603" cy="556.435" r="8.2239" stroke-width="0.5" stroke="black" fill="green"/>
  <circle cx="634.603" cy="556.435" r="4.96725" stroke-width="0.5" stroke="black" fill="green"/>
   </g>
   <g id="cell84">
  <circle cx="519.401" cy="503.504" r="8.13008" stroke-width="0.5" stroke="black" fill="cyan"/>
  <circle cx="519.401" cy="503.504" r="4.91894" stroke-width="0.5" stroke="black" fill="cyan"/>
   </g>
   <g id="cell85">
  <circle cx="353.369" cy="542.074" r="7.52406" stroke-width="0.5" stroke="black" fill="cyan"/>
  <circle cx="353.369" cy="542.074" r="4.59415" stroke-width="0.5" stroke="black" fill="cyan"/>
   </g>
   <g id="cell86">
  <circle cx="505.197" cy="524.818" r="8.10448" stroke-width="0.5" stroke="black" fill="magenta"/>
  <circle cx="505.197" cy="524.818" r="4.90539" stroke-width="0.5" stroke="black" fill="magenta"/>
   </g>
   <g id="cell87">
  <circle cx="577.099" cy="555.26" r="7.1426" stroke-width="0.5" stroke="black" fill="cyan"/>
  <circle cx="577.099" cy="555.26" r="4.36752" stroke-width="0.5" stroke="black" fill="cyan"/>
   </g>
   <g id="cell88">
  <circle cx="448.992" cy="531.567" r="8.04604" stroke-width="0.5" stroke="black" fill="magenta"/>
  <circle cx="448.992" cy="531.567" r="4.87399" stroke-width="0.5" stroke="black" fill="magenta"/>
   </g>
   <g id="cell89">
  <circle cx="552.463" cy="456.848" r="8.03527" stroke-width="0.5" stroke="black" fill="cyan"/>
  <circle cx="552.463" cy="456.848" r="4.86813" stroke-width="0.5" stroke="black" fill="cyan"/>
   </g>
   <g id="cell90">
  <circle cx="630.861" cy="475.013" r="7.96241" stroke-width="0.5" stroke="black" fill="green"/>
  <circle cx="630.861" cy="475.013" r="4.83666" stroke-width="0.5" stroke="black" fill="green"/>
   </g>
   <g id="cell91">
  <circle cx="546.314" cy="555.626" r="7.63997" stroke-width="0.5" stroke="black" fill="magenta"/>
  <circle cx="546.314" cy="555.626" r="4.66895" stroke-width="0.5" stroke="black" fill="magenta"/>
   </g>
   <g id="cell92">
  <circle cx="482.494" cy="549.789" r="7.93688" stroke-width="0.5" stroke="black" fill="green"/>
  <circle cx="482.494" cy="549.789" r="4.81381" stroke-width="0.5" stroke="black" fill="green"/>
   </g>
   <g id="cell93">
  <circle cx="537.544" cy="545.256" r="7.63997" stroke-width="0.5" stroke="black" fill="magenta"/>
  <circle cx="537.544" cy="545.256" r="4.66895" stroke-width="0.5" stroke="black" fill="magenta"/>
   </g>
   <g id="cell94">
  <circle cx="532.842" cy="496.982" r="7.86286" stroke-width="0.5" stroke="black" fill="cyan"/>
  <circle cx="532.842" cy="496.982" r="4.77207" stroke-width="0.5" stroke="black" fill="cyan"/>
   </g>
   <g id="cell95">
  <circle cx="467.32" cy="425.535" r="7.84675" stroke-width="0.5" stroke="black" fill="cyan"/>
  <circle cx="467.32" cy="425.535" r="4.7629" stroke-width="0.5" stroke="black" fill="cyan"/>
   </g>
   <g id="cell96">
  <circle cx="541.929" cy="522.815" r="7.81315" stroke-width="0.5" stroke="black" fill="cyan"/>
  <circle cx="541.929" cy="522.815" r="4.74367" stroke-width="0.5" stroke="black" fill="cyan"/>
   </g>
   <g id="cell97">
  <circle cx="422.223" cy="466.87" r="7.20115" stroke-width="0.5" stroke="black" fill="green"/>
  <circle cx="422.223" cy="466.87" r="4.41111" stroke-width="0.5" stroke="black" fill="green"/>
   </g>
   <g id="cell98">
  <circle cx="495.111" cy="514.403" r="7.72056" stroke-width="0.5" stroke="black" fill="green"/>
  <circle cx="495.111" cy="514.403" r="4.69003" stroke-width="0.5" stroke="black" fill="green"/>
   </g>
   <g id="cell99">
  <circle cx="357.979" cy="528.601" r="7.52406" stroke-width="0.5" stroke="black" fill="cyan"/>
  <circle cx="357.979" cy="528.601" r="4.59415" stroke-width="0.5" stroke="black" fill="cyan"/>
   </g>
   <g id="cell100">
  <circle cx="449.156" cy="394.406" r="7.5209" stroke-width="0.5" stroke="black" fill="green"/>
  <circle cx="449.156" cy="394.406" r="4.58343" stroke-width="0.5" stroke="black" fill="green"/>
   </g>
   <g id="cell101">
  <circle cx="532.421" cy="473.695" r="7.50021" stroke-width="0.5" stroke="black" fill="cyan"/>
  <circle cx="532.421" cy="473.695" r="4.57339" stroke-width="0.5" stroke="black" fill="cyan"/>
   </g>
   <g id="cell102">
  <circle cx="434.012" cy="473.748" r="7.20115" stroke-width="0.5" stroke="black" fill="green"/>
  <circle cx="434.012" cy="473.748" r="4.41111" stroke-width="0.5" stroke="black" fill="green"/>
   </g>
   <g id="cell103">
  <circle cx="573.483" cy="444.261" r="7.46878" stroke-width="0.5" stroke="black" fill="cyan"/>
  <circle cx="573.483" cy="444.261" r="4.53982" stroke-width="0.5" stroke="black" fill="cyan"/>
   </g>
   <g id="cell104">
  <circle cx="590.447" cy="553.784" r="7.1426" stroke-width="0.5" stroke="black" fill="cyan"/>
  <circle cx="590.447" cy="553.784" r="4.36752" stroke-width="0.5" stroke="black" fill="cyan"/>
   </g>
   <g id="cell106">
  <circle cx="464.354" cy="441.047" r="7.03257" stroke-width="0.5" stroke="black" fill="magenta"/>
  <circle cx="464.354" cy="441.047" r="4.28232" stroke-width="0.5" stroke="black" fill="magenta"/>
   </g>
   <g id="cell107">
  <circle cx="453.405" cy="377.452" r="6.47019" stroke-width="0.5" stroke="black" fill="green"/>
  <circle cx="453.405" cy="377.452" r="3.97463" stroke-width="0.5" stroke="black" fill="green"/>
   </g>
   <g id="cell108">
  <circle cx="557.429" cy="604.912" r="6.89675" stroke-width="0.5" stroke="black" fill="green"/>
  <circle cx="557.429" cy="604.912" r="4.17024" stroke-width="0.5" stroke="black" fill="green"/>
   </g>
   <g id="cell109">
  <circle cx="576.391" cy="594.23" r="5.66683" stroke-width="0.5" stroke="black" fill="green"/>
  <circle cx="576.391" cy="594.23" r="3.44866" stroke-width="0.5" stroke="black" fill="green"/>
   </g>
  </g>
 </g>
  <rect x="775" y="1035" width="200" height="10" stroke-width="2" stroke="rgb(255,255,255)" fill="rgb(0,0,0)"/>
  <text x="781.25" y="1028.75"
   font-family="Arial" font-size="25" fill="black" >
   200 &#956;m
  </text>
  <text x="25" y="1045"
   font-family="Arial" font-size="18.75" fill="black" >
   0 days, 0 hours, 0 minutes, and 12.9165 seconds
  </text>
  <rect x="0" y="70" width="1000" height="1000" stroke-width="2" stroke="rgb(0,0,0)" fill="none"/>
</svg>
