<?xml version="1.0" encoding="UTF-8" standalone="no"?>
<!-- Created with PhysiCell (http://PhysiCell.MathCancer.org/) -->
<svg 
 xmlns:dc="http://purl.org/dc/elements/1.1/" 
 xmlns:cc="http://creativecommons.org/ns#" 
 xmlns:rdf="http://www.w3.org/1999/02/22-rdf-syntax-ns#" 
 xmlns:svg="http://www.w3.org/2000/svg" 
 xmlns="http://www.w3.org/2000/svg" 
 version="1.1" 
 width="1000" 
 height="1070" 
 id="svg2">
  <rect x="0" y="0" width="1000" height="1070" stroke-width="2" stroke="white" fill="white"/>
  <text x="12.5" y="30"
   font-family="Arial" font-size="25" fill="black" >
   Current time: 0 days, 9 hours, and 12.00 minutes, z = 0.00 &#956;m
  </text>
  <text x="12.5" y="57.5"
   font-family="Arial" font-size="23.75" fill="black" >
   105 agents
  </text>
 <g id="tissue" 
    transform="translate(0,1070) scale(1,-1)">
  <g id="ECM">
  </g>
  <g id="cells">
   <g id="cell0">
  <circle cx="518.095" cy="533" r="7.83019" stroke-width="0.5" stroke="black" fill="magenta"/>
  <circle cx="518.095" cy="533" r="4.75343" stroke-width="0.5" stroke="black" fill="magenta"/>
   </g>
   <g id="cell1">
  <circle cx="602.492" cy="526.171" r="8.41271" stroke-width="0.5" stroke="black" fill="magenta"/>
  <circle cx="602.492" cy="526.171" r="5.05167" stroke-width="0.5" stroke="black" fill="magenta"/>
   </g>
   <g id="cell2">
  <circle cx="511.244" cy="599.4" r="8.41271" stroke-width="0.5" stroke="black" fill="magenta"/>
  <circle cx="511.244" cy="599.4" r="5.05167" stroke-width="0.5" stroke="black" fill="magenta"/>
   </g>
   <g id="cell3">
  <circle cx="524.438" cy="544.932" r="7.424" stroke-width="0.5" stroke="black" fill="magenta"/>
  <circle cx="524.438" cy="544.932" r="4.53724" stroke-width="0.5" stroke="black" fill="magenta"/>
   </g>
   <g id="cell4">
  <circle cx="487.879" cy="438.308" r="8.18177" stroke-width="0.5" stroke="black" fill="magenta"/>
  <circle cx="487.879" cy="438.308" r="4.94584" stroke-width="0.5" stroke="black" fill="magenta"/>
   </g>
   <g id="cell5">
  <circle cx="465.032" cy="493.3" r="8.41271" stroke-width="0.5" stroke="black" fill="magenta"/>
  <circle cx="465.032" cy="493.3" r="5.05167" stroke-width="0.5" stroke="black" fill="magenta"/>
   </g>
   <g id="cell6">
  <circle cx="595.637" cy="512.669" r="8.41271" stroke-width="0.5" stroke="black" fill="magenta"/>
  <circle cx="595.637" cy="512.669" r="5.05167" stroke-width="0.5" stroke="black" fill="magenta"/>
   </g>
   <g id="cell7">
  <circle cx="510.359" cy="462.142" r="8.41271" stroke-width="0.5" stroke="black" fill="magenta"/>
  <circle cx="510.359" cy="462.142" r="5.05167" stroke-width="0.5" stroke="black" fill="magenta"/>
   </g>
   <g id="cell8">
  <circle cx="376.233" cy="544.195" r="8.41271" stroke-width="0.5" stroke="black" fill="magenta"/>
  <circle cx="376.233" cy="544.195" r="5.05167" stroke-width="0.5" stroke="black" fill="magenta"/>
   </g>
   <g id="cell9">
  <circle cx="460.472" cy="599.786" r="8.41271" stroke-width="0.5" stroke="black" fill="magenta"/>
  <circle cx="460.472" cy="599.786" r="5.05167" stroke-width="0.5" stroke="black" fill="magenta"/>
   </g>
   <g id="cell10">
  <circle cx="583.447" cy="392.105" r="8.41271" stroke-width="0.5" stroke="black" fill="magenta"/>
  <circle cx="583.447" cy="392.105" r="5.05167" stroke-width="0.5" stroke="black" fill="magenta"/>
   </g>
   <g id="cell11">
  <circle cx="589.748" cy="590.273" r="8.41271" stroke-width="0.5" stroke="black" fill="magenta"/>
  <circle cx="589.748" cy="590.273" r="5.05167" stroke-width="0.5" stroke="black" fill="magenta"/>
   </g>
   <g id="cell12">
  <circle cx="506.519" cy="585.646" r="8.41271" stroke-width="0.5" stroke="black" fill="magenta"/>
  <circle cx="506.519" cy="585.646" r="5.05167" stroke-width="0.5" stroke="black" fill="magenta"/>
   </g>
   <g id="cell13">
  <circle cx="386.194" cy="568.228" r="8.41271" stroke-width="0.5" stroke="black" fill="magenta"/>
  <circle cx="386.194" cy="568.228" r="5.05167" stroke-width="0.5" stroke="black" fill="magenta"/>
   </g>
   <g id="cell14">
  <circle cx="528.577" cy="399.171" r="8.41271" stroke-width="0.5" stroke="black" fill="magenta"/>
  <circle cx="528.577" cy="399.171" r="5.05167" stroke-width="0.5" stroke="black" fill="magenta"/>
   </g>
   <g id="cell15">
  <circle cx="379.65" cy="475.1" r="8.41271" stroke-width="0.5" stroke="black" fill="magenta"/>
  <circle cx="379.65" cy="475.1" r="5.05167" stroke-width="0.5" stroke="black" fill="magenta"/>
   </g>
   <g id="cell16">
  <circle cx="428.96" cy="413.217" r="8.41271" stroke-width="0.5" stroke="black" fill="magenta"/>
  <circle cx="428.96" cy="413.217" r="5.05167" stroke-width="0.5" stroke="black" fill="magenta"/>
   </g>
   <g id="cell17">
  <circle cx="568.955" cy="488.416" r="8.41271" stroke-width="0.5" stroke="black" fill="magenta"/>
  <circle cx="568.955" cy="488.416" r="5.05167" stroke-width="0.5" stroke="black" fill="magenta"/>
   </g>
   <g id="cell18">
  <circle cx="517.418" cy="388.935" r="8.41271" stroke-width="0.5" stroke="black" fill="magenta"/>
  <circle cx="517.418" cy="388.935" r="5.05167" stroke-width="0.5" stroke="black" fill="magenta"/>
   </g>
   <g id="cell19">
  <circle cx="456.263" cy="543.437" r="7.72056" stroke-width="0.5" stroke="black" fill="magenta"/>
  <circle cx="456.263" cy="543.437" r="4.69003" stroke-width="0.5" stroke="black" fill="magenta"/>
   </g>
   <g id="cell20">
  <circle cx="531.135" cy="414.095" r="8.41271" stroke-width="0.5" stroke="black" fill="magenta"/>
  <circle cx="531.135" cy="414.095" r="5.05167" stroke-width="0.5" stroke="black" fill="magenta"/>
   </g>
   <g id="cell21">
  <circle cx="464.368" cy="634.574" r="8.41271" stroke-width="0.5" stroke="black" fill="magenta"/>
  <circle cx="464.368" cy="634.574" r="5.05167" stroke-width="0.5" stroke="black" fill="magenta"/>
   </g>
   <g id="cell22">
  <circle cx="557.274" cy="498.274" r="8.41271" stroke-width="0.5" stroke="black" fill="magenta"/>
  <circle cx="557.274" cy="498.274" r="5.05167" stroke-width="0.5" stroke="black" fill="magenta"/>
   </g>
   <g id="cell23">
  <circle cx="539.253" cy="484.332" r="8.41271" stroke-width="0.5" stroke="black" fill="magenta"/>
  <circle cx="539.253" cy="484.332" r="5.05167" stroke-width="0.5" stroke="black" fill="magenta"/>
   </g>
   <g id="cell24">
  <circle cx="559.284" cy="379.799" r="8.41271" stroke-width="0.5" stroke="black" fill="magenta"/>
  <circle cx="559.284" cy="379.799" r="5.05167" stroke-width="0.5" stroke="black" fill="magenta"/>
   </g>
   <g id="cell25">
  <circle cx="645.495" cy="545.431" r="8.05651" stroke-width="0.5" stroke="black" fill="green"/>
  <circle cx="645.495" cy="545.431" r="4.87966" stroke-width="0.5" stroke="black" fill="green"/>
   </g>
   <g id="cell26">
  <circle cx="551.093" cy="401.246" r="8.41271" stroke-width="0.5" stroke="black" fill="green"/>
  <circle cx="551.093" cy="401.246" r="5.05167" stroke-width="0.5" stroke="black" fill="green"/>
   </g>
   <g id="cell27">
  <circle cx="463.237" cy="390.567" r="8.1947" stroke-width="0.5" stroke="black" fill="green"/>
  <circle cx="463.237" cy="390.567" r="4.95246" stroke-width="0.5" stroke="black" fill="green"/>
   </g>
   <g id="cell28">
  <circle cx="434.085" cy="530.75" r="8.41271" stroke-width="0.5" stroke="black" fill="green"/>
  <circle cx="434.085" cy="530.75" r="5.05167" stroke-width="0.5" stroke="black" fill="green"/>
   </g>
   <g id="cell29">
  <circle cx="450.38" cy="516.769" r="8.41271" stroke-width="0.5" stroke="black" fill="green"/>
  <circle cx="450.38" cy="516.769" r="5.05167" stroke-width="0.5" stroke="black" fill="green"/>
   </g>
   <g id="cell30">
  <circle cx="481.09" cy="535.182" r="7.51976" stroke-width="0.5" stroke="black" fill="green"/>
  <circle cx="481.09" cy="535.182" r="4.57072" stroke-width="0.5" stroke="black" fill="green"/>
   </g>
   <g id="cell31">
  <circle cx="412.757" cy="541.193" r="8.41271" stroke-width="0.5" stroke="black" fill="green"/>
  <circle cx="412.757" cy="541.193" r="5.05167" stroke-width="0.5" stroke="black" fill="green"/>
   </g>
   <g id="cell32">
  <circle cx="422.016" cy="480.448" r="7.21189" stroke-width="0.5" stroke="black" fill="green"/>
  <circle cx="422.016" cy="480.448" r="4.37993" stroke-width="0.5" stroke="black" fill="green"/>
   </g>
   <g id="cell33">
  <circle cx="496.15" cy="425.265" r="8.41271" stroke-width="0.5" stroke="black" fill="green"/>
  <circle cx="496.15" cy="425.265" r="5.05167" stroke-width="0.5" stroke="black" fill="green"/>
   </g>
   <g id="cell34">
  <circle cx="397.088" cy="450.831" r="8.41271" stroke-width="0.5" stroke="black" fill="green"/>
  <circle cx="397.088" cy="450.831" r="5.05167" stroke-width="0.5" stroke="black" fill="green"/>
   </g>
   <g id="cell35">
  <circle cx="550.835" cy="542.388" r="8.41271" stroke-width="0.5" stroke="black" fill="green"/>
  <circle cx="550.835" cy="542.388" r="5.05167" stroke-width="0.5" stroke="black" fill="green"/>
   </g>
   <g id="cell36">
  <circle cx="391.486" cy="582.903" r="8.41271" stroke-width="0.5" stroke="black" fill="green"/>
  <circle cx="391.486" cy="582.903" r="5.05167" stroke-width="0.5" stroke="black" fill="green"/>
   </g>
   <g id="cell37">
  <circle cx="639.476" cy="457.349" r="8.1609" stroke-width="0.5" stroke="black" fill="green"/>
  <circle cx="639.476" cy="457.349" r="4.93506" stroke-width="0.5" stroke="black" fill="green"/>
   </g>
   <g id="cell38">
  <circle cx="531.899" cy="598.433" r="8.11327" stroke-width="0.5" stroke="black" fill="green"/>
  <circle cx="531.899" cy="598.433" r="4.91006" stroke-width="0.5" stroke="black" fill="green"/>
   </g>
   <g id="cell39">
  <circle cx="613.458" cy="490.595" r="8.41271" stroke-width="0.5" stroke="black" fill="green"/>
  <circle cx="613.458" cy="490.595" r="5.05167" stroke-width="0.5" stroke="black" fill="green"/>
   </g>
   <g id="cell40">
  <circle cx="485.348" cy="571.779" r="8.41271" stroke-width="0.5" stroke="black" fill="green"/>
  <circle cx="485.348" cy="571.779" r="5.05167" stroke-width="0.5" stroke="black" fill="green"/>
   </g>
   <g id="cell41">
  <circle cx="364.925" cy="480.252" r="8.41271" stroke-width="0.5" stroke="black" fill="green"/>
  <circle cx="364.925" cy="480.252" r="5.05167" stroke-width="0.5" stroke="black" fill="green"/>
   </g>
   <g id="cell42">
  <circle cx="438.842" cy="494.268" r="8.41271" stroke-width="0.5" stroke="black" fill="green"/>
  <circle cx="438.842" cy="494.268" r="5.05167" stroke-width="0.5" stroke="black" fill="green"/>
   </g>
   <g id="cell43">
  <circle cx="558.457" cy="443.612" r="8.41271" stroke-width="0.5" stroke="black" fill="green"/>
  <circle cx="558.457" cy="443.612" r="5.05167" stroke-width="0.5" stroke="black" fill="green"/>
   </g>
   <g id="cell44">
  <circle cx="475.857" cy="624.021" r="8.41271" stroke-width="0.5" stroke="black" fill="green"/>
  <circle cx="475.857" cy="624.021" r="5.05167" stroke-width="0.5" stroke="black" fill="green"/>
   </g>
   <g id="cell45">
  <circle cx="414.953" cy="557.066" r="8.41271" stroke-width="0.5" stroke="black" fill="green"/>
  <circle cx="414.953" cy="557.066" r="5.05167" stroke-width="0.5" stroke="black" fill="green"/>
   </g>
   <g id="cell46">
  <circle cx="526.098" cy="611.285" r="6.67717" stroke-width="0.5" stroke="black" fill="green"/>
  <circle cx="526.098" cy="611.285" r="4.00951" stroke-width="0.5" stroke="black" fill="green"/>
   </g>
   <g id="cell47">
  <circle cx="505.655" cy="504.301" r="7.1497" stroke-width="0.5" stroke="black" fill="green"/>
  <circle cx="505.655" cy="504.301" r="4.34001" stroke-width="0.5" stroke="black" fill="green"/>
   </g>
   <g id="cell48">
  <circle cx="563.275" cy="602.253" r="8.41271" stroke-width="0.5" stroke="black" fill="green"/>
  <circle cx="563.275" cy="602.253" r="5.05167" stroke-width="0.5" stroke="black" fill="green"/>
   </g>
   <g id="cell49">
  <circle cx="429.826" cy="397.641" r="8.41271" stroke-width="0.5" stroke="black" fill="green"/>
  <circle cx="429.826" cy="397.641" r="5.05167" stroke-width="0.5" stroke="black" fill="green"/>
   </g>
   <g id="cell50">
  <circle cx="519.655" cy="518.635" r="7.87851" stroke-width="0.5" stroke="black" fill="cyan"/>
  <circle cx="519.655" cy="518.635" r="4.78096" stroke-width="0.5" stroke="black" fill="cyan"/>
   </g>
   <g id="cell51">
  <circle cx="398.721" cy="597.201" r="8.41271" stroke-width="0.5" stroke="black" fill="cyan"/>
  <circle cx="398.721" cy="597.201" r="5.05167" stroke-width="0.5" stroke="black" fill="cyan"/>
   </g>
   <g id="cell52">
  <circle cx="519.712" cy="424.709" r="8.41271" stroke-width="0.5" stroke="black" fill="cyan"/>
  <circle cx="519.712" cy="424.709" r="5.05167" stroke-width="0.5" stroke="black" fill="cyan"/>
   </g>
   <g id="cell53">
  <circle cx="572.903" cy="430.706" r="6.80881" stroke-width="0.5" stroke="black" fill="cyan"/>
  <circle cx="572.903" cy="430.706" r="4.10709" stroke-width="0.5" stroke="black" fill="cyan"/>
   </g>
   <g id="cell54">
  <circle cx="481.267" cy="425.568" r="7.3599" stroke-width="0.5" stroke="black" fill="cyan"/>
  <circle cx="481.267" cy="425.568" r="4.47294" stroke-width="0.5" stroke="black" fill="cyan"/>
   </g>
   <g id="cell55">
  <circle cx="523.9" cy="464.333" r="6.75333" stroke-width="0.5" stroke="black" fill="cyan"/>
  <circle cx="523.9" cy="464.333" r="4.11588" stroke-width="0.5" stroke="black" fill="cyan"/>
   </g>
   <g id="cell56">
  <circle cx="617.613" cy="522.333" r="8.41271" stroke-width="0.5" stroke="black" fill="cyan"/>
  <circle cx="617.613" cy="522.333" r="5.05167" stroke-width="0.5" stroke="black" fill="cyan"/>
   </g>
   <g id="cell105">
  <circle cx="514.286" cy="612.17" r="6.67717" stroke-width="0.5" stroke="black" fill="green"/>
  <circle cx="514.286" cy="612.17" r="4.00951" stroke-width="0.5" stroke="black" fill="green"/>
   </g>
   <g id="cell58">
  <circle cx="554.555" cy="483.173" r="8.41271" stroke-width="0.5" stroke="black" fill="cyan"/>
  <circle cx="554.555" cy="483.173" r="5.05167" stroke-width="0.5" stroke="black" fill="cyan"/>
   </g>
   <g id="cell59">
  <circle cx="385.463" cy="439.803" r="8.41271" stroke-width="0.5" stroke="black" fill="cyan"/>
  <circle cx="385.463" cy="439.803" r="5.05167" stroke-width="0.5" stroke="black" fill="cyan"/>
   </g>
   <g id="cell60">
  <circle cx="593.138" cy="473.643" r="8.41271" stroke-width="0.5" stroke="black" fill="cyan"/>
  <circle cx="593.138" cy="473.643" r="5.05167" stroke-width="0.5" stroke="black" fill="cyan"/>
   </g>
   <g id="cell61">
  <circle cx="553.52" cy="614.702" r="8.41271" stroke-width="0.5" stroke="black" fill="cyan"/>
  <circle cx="553.52" cy="614.702" r="5.05167" stroke-width="0.5" stroke="black" fill="cyan"/>
   </g>
   <g id="cell62">
  <circle cx="521.136" cy="450.771" r="8.20088" stroke-width="0.5" stroke="black" fill="cyan"/>
  <circle cx="521.136" cy="450.771" r="4.95562" stroke-width="0.5" stroke="black" fill="cyan"/>
   </g>
   <g id="cell63">
  <circle cx="575.126" cy="540.578" r="7.77763" stroke-width="0.5" stroke="black" fill="cyan"/>
  <circle cx="575.126" cy="540.578" r="4.7232" stroke-width="0.5" stroke="black" fill="cyan"/>
   </g>
   <g id="cell64">
  <circle cx="509.962" cy="636.825" r="8.41271" stroke-width="0.5" stroke="black" fill="cyan"/>
  <circle cx="509.962" cy="636.825" r="5.05167" stroke-width="0.5" stroke="black" fill="cyan"/>
   </g>
   <g id="cell65">
  <circle cx="546.662" cy="470.673" r="7.70049" stroke-width="0.5" stroke="black" fill="cyan"/>
  <circle cx="546.662" cy="470.673" r="4.67828" stroke-width="0.5" stroke="black" fill="cyan"/>
   </g>
   <g id="cell66">
  <circle cx="531.912" cy="533.385" r="7.30216" stroke-width="0.5" stroke="black" fill="cyan"/>
  <circle cx="531.912" cy="533.385" r="4.43696" stroke-width="0.5" stroke="black" fill="cyan"/>
   </g>
   <g id="cell67">
  <circle cx="354.711" cy="492.599" r="8.41271" stroke-width="0.5" stroke="black" fill="cyan"/>
  <circle cx="354.711" cy="492.599" r="5.05167" stroke-width="0.5" stroke="black" fill="cyan"/>
   </g>
   <g id="cell68">
  <circle cx="563.665" cy="551.14" r="8.41271" stroke-width="0.5" stroke="black" fill="cyan"/>
  <circle cx="563.665" cy="551.14" r="5.05167" stroke-width="0.5" stroke="black" fill="cyan"/>
   </g>
   <g id="cell69">
  <circle cx="441.453" cy="461.633" r="8.41271" stroke-width="0.5" stroke="black" fill="cyan"/>
  <circle cx="441.453" cy="461.633" r="5.05167" stroke-width="0.5" stroke="black" fill="cyan"/>
   </g>
   <g id="cell70">
  <circle cx="577.151" cy="475.071" r="8.41271" stroke-width="0.5" stroke="black" fill="cyan"/>
  <circle cx="577.151" cy="475.071" r="5.05167" stroke-width="0.5" stroke="black" fill="cyan"/>
   </g>
   <g id="cell71">
  <circle cx="377.712" cy="520.989" r="8.41271" stroke-width="0.5" stroke="black" fill="cyan"/>
  <circle cx="377.712" cy="520.989" r="5.05167" stroke-width="0.5" stroke="black" fill="cyan"/>
   </g>
   <g id="cell72">
  <circle cx="532.028" cy="511.167" r="7.38797" stroke-width="0.5" stroke="black" fill="cyan"/>
  <circle cx="532.028" cy="511.167" r="4.49029" stroke-width="0.5" stroke="black" fill="cyan"/>
   </g>
   <g id="cell73">
  <circle cx="363.368" cy="551.998" r="7.84675" stroke-width="0.5" stroke="black" fill="cyan"/>
  <circle cx="363.368" cy="551.998" r="4.7629" stroke-width="0.5" stroke="black" fill="cyan"/>
   </g>
   <g id="cell74">
  <circle cx="542.64" cy="444.934" r="8.41271" stroke-width="0.5" stroke="black" fill="cyan"/>
  <circle cx="542.64" cy="444.934" r="5.05167" stroke-width="0.5" stroke="black" fill="cyan"/>
   </g>
   <g id="cell75">
  <circle cx="528.987" cy="437.361" r="8.20088" stroke-width="0.5" stroke="black" fill="cyan"/>
  <circle cx="528.987" cy="437.361" r="4.95562" stroke-width="0.5" stroke="black" fill="cyan"/>
   </g>
   <g id="cell76">
  <circle cx="447.507" cy="380.883" r="6.8002" stroke-width="0.5" stroke="black" fill="green"/>
  <circle cx="447.507" cy="380.883" r="4.14024" stroke-width="0.5" stroke="black" fill="green"/>
   </g>
   <g id="cell77">
  <circle cx="473.151" cy="437.432" r="8.18177" stroke-width="0.5" stroke="black" fill="magenta"/>
  <circle cx="473.151" cy="437.432" r="4.94584" stroke-width="0.5" stroke="black" fill="magenta"/>
   </g>
   <g id="cell78">
  <circle cx="625.124" cy="461.471" r="7.55182" stroke-width="0.5" stroke="black" fill="green"/>
  <circle cx="625.124" cy="461.471" r="4.60872" stroke-width="0.5" stroke="black" fill="green"/>
   </g>
   <g id="cell79">
  <circle cx="516.622" cy="476.357" r="8.13008" stroke-width="0.5" stroke="black" fill="cyan"/>
  <circle cx="516.622" cy="476.357" r="4.91894" stroke-width="0.5" stroke="black" fill="cyan"/>
   </g>
   <g id="cell80">
  <circle cx="538.875" cy="612.352" r="7.94574" stroke-width="0.5" stroke="black" fill="green"/>
  <circle cx="538.875" cy="612.352" r="4.83026" stroke-width="0.5" stroke="black" fill="green"/>
   </g>
   <g id="cell81">
  <circle cx="547.353" cy="600.218" r="7.94574" stroke-width="0.5" stroke="black" fill="green"/>
  <circle cx="547.353" cy="600.218" r="4.83026" stroke-width="0.5" stroke="black" fill="green"/>
   </g>
   <g id="cell82">
  <circle cx="531.013" cy="557.134" r="8.05651" stroke-width="0.5" stroke="black" fill="magenta"/>
  <circle cx="531.013" cy="557.134" r="4.87966" stroke-width="0.5" stroke="black" fill="magenta"/>
   </g>
   <g id="cell83">
  <circle cx="634.717" cy="556.32" r="8.05651" stroke-width="0.5" stroke="black" fill="green"/>
  <circle cx="634.717" cy="556.32" r="4.87966" stroke-width="0.5" stroke="black" fill="green"/>
   </g>
   <g id="cell84">
  <circle cx="519.735" cy="503.701" r="7.87851" stroke-width="0.5" stroke="black" fill="cyan"/>
  <circle cx="519.735" cy="503.701" r="4.78096" stroke-width="0.5" stroke="black" fill="cyan"/>
   </g>
   <g id="cell85">
  <circle cx="354.181" cy="541.727" r="6.72787" stroke-width="0.5" stroke="black" fill="cyan"/>
  <circle cx="354.181" cy="541.727" r="4.1195" stroke-width="0.5" stroke="black" fill="cyan"/>
   </g>
   <g id="cell86">
  <circle cx="506.631" cy="525.221" r="7.83019" stroke-width="0.5" stroke="black" fill="magenta"/>
  <circle cx="506.631" cy="525.221" r="4.75343" stroke-width="0.5" stroke="black" fill="magenta"/>
   </g>
   <g id="cell87">
  <circle cx="576.679" cy="554.381" r="6.21331" stroke-width="0.5" stroke="black" fill="cyan"/>
  <circle cx="576.679" cy="554.381" r="3.77696" stroke-width="0.5" stroke="black" fill="cyan"/>
   </g>
   <g id="cell88">
  <circle cx="448.995" cy="531.633" r="7.72056" stroke-width="0.5" stroke="black" fill="magenta"/>
  <circle cx="448.995" cy="531.633" r="4.69003" stroke-width="0.5" stroke="black" fill="magenta"/>
   </g>
   <g id="cell89">
  <circle cx="551.689" cy="457.176" r="7.70049" stroke-width="0.5" stroke="black" fill="cyan"/>
  <circle cx="551.689" cy="457.176" r="4.67828" stroke-width="0.5" stroke="black" fill="cyan"/>
   </g>
   <g id="cell90">
  <circle cx="630.699" cy="474.677" r="7.55182" stroke-width="0.5" stroke="black" fill="green"/>
  <circle cx="630.699" cy="474.677" r="4.60872" stroke-width="0.5" stroke="black" fill="green"/>
   </g>
   <g id="cell91">
  <circle cx="544.362" cy="555.186" r="6.89537" stroke-width="0.5" stroke="black" fill="magenta"/>
  <circle cx="544.362" cy="555.186" r="4.243" stroke-width="0.5" stroke="black" fill="magenta"/>
   </g>
   <g id="cell92">
  <circle cx="482.456" cy="549.39" r="7.51976" stroke-width="0.5" stroke="black" fill="green"/>
  <circle cx="482.456" cy="549.39" r="4.57072" stroke-width="0.5" stroke="black" fill="green"/>
   </g>
   <g id="cell93">
  <circle cx="537.174" cy="545.217" r="6.89537" stroke-width="0.5" stroke="black" fill="magenta"/>
  <circle cx="537.174" cy="545.217" r="4.243" stroke-width="0.5" stroke="black" fill="magenta"/>
   </g>
   <g id="cell94">
  <circle cx="532.631" cy="497.268" r="7.38797" stroke-width="0.5" stroke="black" fill="cyan"/>
  <circle cx="532.631" cy="497.268" r="4.49029" stroke-width="0.5" stroke="black" fill="cyan"/>
   </g>
   <g id="cell95">
  <circle cx="467.454" cy="424.182" r="7.3599" stroke-width="0.5" stroke="black" fill="cyan"/>
  <circle cx="467.454" cy="424.182" r="4.47294" stroke-width="0.5" stroke="black" fill="cyan"/>
   </g>
   <g id="cell96">
  <circle cx="540.028" cy="522.363" r="7.30216" stroke-width="0.5" stroke="black" fill="cyan"/>
  <circle cx="540.028" cy="522.363" r="4.43696" stroke-width="0.5" stroke="black" fill="cyan"/>
   </g>
   <g id="cell97">
  <circle cx="423.021" cy="467.908" r="6.09892" stroke-width="0.5" stroke="black" fill="green"/>
  <circle cx="423.021" cy="467.908" r="3.73546" stroke-width="0.5" stroke="black" fill="green"/>
   </g>
   <g id="cell98">
  <circle cx="497.503" cy="515.018" r="7.1497" stroke-width="0.5" stroke="black" fill="green"/>
  <circle cx="497.503" cy="515.018" r="4.34001" stroke-width="0.5" stroke="black" fill="green"/>
   </g>
   <g id="cell99">
  <circle cx="357.692" cy="529.51" r="6.72787" stroke-width="0.5" stroke="black" fill="cyan"/>
  <circle cx="357.692" cy="529.51" r="4.1195" stroke-width="0.5" stroke="black" fill="cyan"/>
   </g>
   <g id="cell100">
  <circle cx="449.333" cy="393.646" r="6.8002" stroke-width="0.5" stroke="black" fill="green"/>
  <circle cx="449.333" cy="393.646" r="4.14024" stroke-width="0.5" stroke="black" fill="green"/>
   </g>
   <g id="cell101">
  <circle cx="533.479" cy="471.934" r="6.75333" stroke-width="0.5" stroke="black" fill="cyan"/>
  <circle cx="533.479" cy="471.934" r="4.11588" stroke-width="0.5" stroke="black" fill="cyan"/>
   </g>
   <g id="cell102">
  <circle cx="433.405" cy="472.883" r="6.09892" stroke-width="0.5" stroke="black" fill="green"/>
  <circle cx="433.405" cy="472.883" r="3.73546" stroke-width="0.5" stroke="black" fill="green"/>
   </g>
   <g id="cell103">
  <circle cx="572.782" cy="443.624" r="6.80881" stroke-width="0.5" stroke="black" fill="cyan"/>
  <circle cx="572.782" cy="443.624" r="4.10709" stroke-width="0.5" stroke="black" fill="cyan"/>
   </g>
   <g id="cell104">
  <circle cx="588.188" cy="553.925" r="6.21331" stroke-width="0.5" stroke="black" fill="cyan"/>
  <circle cx="588.188" cy="553.925" r="3.77696" stroke-width="0.5" stroke="black" fill="cyan"/>
   </g>
  </g>
 </g>
  <rect x="775" y="1035" width="200" height="10" stroke-width="2" stroke="rgb(255,255,255)" fill="rgb(0,0,0)"/>
  <text x="781.25" y="1028.75"
   font-family="Arial" font-size="25" fill="black" >
   200 &#956;m
  </text>
  <text x="25" y="1045"
   font-family="Arial" font-size="18.75" fill="black" >
   0 days, 0 hours, 0 minutes, and 10.3165 seconds
  </text>
  <rect x="0" y="70" width="1000" height="1000" stroke-width="2" stroke="rgb(0,0,0)" fill="none"/>
</svg>
