<?xml version="1.0" encoding="UTF-8" standalone="no"?>
<!-- Created with PhysiCell (http://PhysiCell.MathCancer.org/) -->
<svg 
 xmlns:dc="http://purl.org/dc/elements/1.1/" 
 xmlns:cc="http://creativecommons.org/ns#" 
 xmlns:rdf="http://www.w3.org/1999/02/22-rdf-syntax-ns#" 
 xmlns:svg="http://www.w3.org/2000/svg" 
 xmlns="http://www.w3.org/2000/svg" 
 version="1.1" 
 width="1000" 
 height="1070" 
 id="svg2">
  <rect x="0" y="0" width="1000" height="1070" stroke-width="2" stroke="white" fill="white"/>
  <text x="12.5" y="30"
   font-family="Arial" font-size="25" fill="black" >
   Current time: 0 days, 7 hours, and 24.00 minutes, z = 0.00 &#956;m
  </text>
  <text x="12.5" y="57.5"
   font-family="Arial" font-size="23.75" fill="black" >
   98 agents
  </text>
 <g id="tissue" 
    transform="translate(0,1070) scale(1,-1)">
  <g id="ECM">
  </g>
  <g id="cells">
   <g id="cell0">
  <circle cx="518.879" cy="532.639" r="7.44242" stroke-width="0.5" stroke="black" fill="magenta"/>
  <circle cx="518.879" cy="532.639" r="4.52373" stroke-width="0.5" stroke="black" fill="magenta"/>
   </g>
   <g id="cell1">
  <circle cx="602.492" cy="526.171" r="8.41271" stroke-width="0.5" stroke="black" fill="magenta"/>
  <circle cx="602.492" cy="526.171" r="5.05167" stroke-width="0.5" stroke="black" fill="magenta"/>
   </g>
   <g id="cell2">
  <circle cx="511.34" cy="600.614" r="8.41271" stroke-width="0.5" stroke="black" fill="magenta"/>
  <circle cx="511.34" cy="600.614" r="5.05167" stroke-width="0.5" stroke="black" fill="magenta"/>
   </g>
   <g id="cell3">
  <circle cx="525.124" cy="543.661" r="6.74057" stroke-width="0.5" stroke="black" fill="magenta"/>
  <circle cx="525.124" cy="543.661" r="4.129" stroke-width="0.5" stroke="black" fill="magenta"/>
   </g>
   <g id="cell4">
  <circle cx="487.912" cy="438.317" r="8.02418" stroke-width="0.5" stroke="black" fill="magenta"/>
  <circle cx="487.912" cy="438.317" r="4.86209" stroke-width="0.5" stroke="black" fill="magenta"/>
   </g>
   <g id="cell5">
  <circle cx="465.032" cy="493.3" r="8.41271" stroke-width="0.5" stroke="black" fill="magenta"/>
  <circle cx="465.032" cy="493.3" r="5.05167" stroke-width="0.5" stroke="black" fill="magenta"/>
   </g>
   <g id="cell6">
  <circle cx="595.637" cy="512.669" r="8.41271" stroke-width="0.5" stroke="black" fill="magenta"/>
  <circle cx="595.637" cy="512.669" r="5.05167" stroke-width="0.5" stroke="black" fill="magenta"/>
   </g>
   <g id="cell7">
  <circle cx="511.681" cy="462.166" r="8.41271" stroke-width="0.5" stroke="black" fill="magenta"/>
  <circle cx="511.681" cy="462.166" r="5.05167" stroke-width="0.5" stroke="black" fill="magenta"/>
   </g>
   <g id="cell8">
  <circle cx="375.943" cy="544.362" r="8.41271" stroke-width="0.5" stroke="black" fill="magenta"/>
  <circle cx="375.943" cy="544.362" r="5.05167" stroke-width="0.5" stroke="black" fill="magenta"/>
   </g>
   <g id="cell9">
  <circle cx="460.472" cy="599.786" r="8.41271" stroke-width="0.5" stroke="black" fill="magenta"/>
  <circle cx="460.472" cy="599.786" r="5.05167" stroke-width="0.5" stroke="black" fill="magenta"/>
   </g>
   <g id="cell10">
  <circle cx="583.447" cy="392.105" r="8.41271" stroke-width="0.5" stroke="black" fill="magenta"/>
  <circle cx="583.447" cy="392.105" r="5.05167" stroke-width="0.5" stroke="black" fill="magenta"/>
   </g>
   <g id="cell11">
  <circle cx="589.748" cy="590.273" r="8.41271" stroke-width="0.5" stroke="black" fill="magenta"/>
  <circle cx="589.748" cy="590.273" r="5.05167" stroke-width="0.5" stroke="black" fill="magenta"/>
   </g>
   <g id="cell12">
  <circle cx="506.709" cy="586.213" r="8.41271" stroke-width="0.5" stroke="black" fill="magenta"/>
  <circle cx="506.709" cy="586.213" r="5.05167" stroke-width="0.5" stroke="black" fill="magenta"/>
   </g>
   <g id="cell13">
  <circle cx="386.194" cy="568.228" r="8.41271" stroke-width="0.5" stroke="black" fill="magenta"/>
  <circle cx="386.194" cy="568.228" r="5.05167" stroke-width="0.5" stroke="black" fill="magenta"/>
   </g>
   <g id="cell14">
  <circle cx="528.557" cy="399.187" r="8.41271" stroke-width="0.5" stroke="black" fill="magenta"/>
  <circle cx="528.557" cy="399.187" r="5.05167" stroke-width="0.5" stroke="black" fill="magenta"/>
   </g>
   <g id="cell15">
  <circle cx="379.65" cy="475.1" r="8.41271" stroke-width="0.5" stroke="black" fill="magenta"/>
  <circle cx="379.65" cy="475.1" r="5.05167" stroke-width="0.5" stroke="black" fill="magenta"/>
   </g>
   <g id="cell16">
  <circle cx="428.96" cy="413.217" r="8.41271" stroke-width="0.5" stroke="black" fill="magenta"/>
  <circle cx="428.96" cy="413.217" r="5.05167" stroke-width="0.5" stroke="black" fill="magenta"/>
   </g>
   <g id="cell17">
  <circle cx="570.096" cy="488.836" r="8.41271" stroke-width="0.5" stroke="black" fill="magenta"/>
  <circle cx="570.096" cy="488.836" r="5.05167" stroke-width="0.5" stroke="black" fill="magenta"/>
   </g>
   <g id="cell18">
  <circle cx="517.415" cy="388.932" r="8.41271" stroke-width="0.5" stroke="black" fill="magenta"/>
  <circle cx="517.415" cy="388.932" r="5.05167" stroke-width="0.5" stroke="black" fill="magenta"/>
   </g>
   <g id="cell19">
  <circle cx="455.874" cy="542.808" r="7.27253" stroke-width="0.5" stroke="black" fill="magenta"/>
  <circle cx="455.874" cy="542.808" r="4.41835" stroke-width="0.5" stroke="black" fill="magenta"/>
   </g>
   <g id="cell20">
  <circle cx="531.099" cy="414.112" r="8.41271" stroke-width="0.5" stroke="black" fill="magenta"/>
  <circle cx="531.099" cy="414.112" r="5.05167" stroke-width="0.5" stroke="black" fill="magenta"/>
   </g>
   <g id="cell21">
  <circle cx="464.368" cy="634.574" r="8.41271" stroke-width="0.5" stroke="black" fill="magenta"/>
  <circle cx="464.368" cy="634.574" r="5.05167" stroke-width="0.5" stroke="black" fill="magenta"/>
   </g>
   <g id="cell22">
  <circle cx="556.926" cy="496.215" r="8.41271" stroke-width="0.5" stroke="black" fill="magenta"/>
  <circle cx="556.926" cy="496.215" r="5.05167" stroke-width="0.5" stroke="black" fill="magenta"/>
   </g>
   <g id="cell23">
  <circle cx="536.917" cy="481.875" r="8.41271" stroke-width="0.5" stroke="black" fill="magenta"/>
  <circle cx="536.917" cy="481.875" r="5.05167" stroke-width="0.5" stroke="black" fill="magenta"/>
   </g>
   <g id="cell24">
  <circle cx="559.285" cy="379.796" r="8.41271" stroke-width="0.5" stroke="black" fill="magenta"/>
  <circle cx="559.285" cy="379.796" r="5.05167" stroke-width="0.5" stroke="black" fill="magenta"/>
   </g>
   <g id="cell25">
  <circle cx="645.328" cy="545.6" r="7.81315" stroke-width="0.5" stroke="black" fill="green"/>
  <circle cx="645.328" cy="545.6" r="4.74367" stroke-width="0.5" stroke="black" fill="green"/>
   </g>
   <g id="cell26">
  <circle cx="551.117" cy="401.252" r="8.41271" stroke-width="0.5" stroke="black" fill="green"/>
  <circle cx="551.117" cy="401.252" r="5.05167" stroke-width="0.5" stroke="black" fill="green"/>
   </g>
   <g id="cell27">
  <circle cx="462.671" cy="390.653" r="8.04604" stroke-width="0.5" stroke="black" fill="green"/>
  <circle cx="462.671" cy="390.653" r="4.87399" stroke-width="0.5" stroke="black" fill="green"/>
   </g>
   <g id="cell28">
  <circle cx="434.516" cy="530.777" r="8.41271" stroke-width="0.5" stroke="black" fill="green"/>
  <circle cx="434.516" cy="530.777" r="5.05167" stroke-width="0.5" stroke="black" fill="green"/>
   </g>
   <g id="cell29">
  <circle cx="450.333" cy="517.28" r="8.41271" stroke-width="0.5" stroke="black" fill="green"/>
  <circle cx="450.333" cy="517.28" r="5.05167" stroke-width="0.5" stroke="black" fill="green"/>
   </g>
   <g id="cell30">
  <circle cx="481.139" cy="535.686" r="6.99069" stroke-width="0.5" stroke="black" fill="green"/>
  <circle cx="481.139" cy="535.686" r="4.23498" stroke-width="0.5" stroke="black" fill="green"/>
   </g>
   <g id="cell31">
  <circle cx="412.757" cy="541.193" r="8.41271" stroke-width="0.5" stroke="black" fill="green"/>
  <circle cx="412.757" cy="541.193" r="5.05167" stroke-width="0.5" stroke="black" fill="green"/>
   </g>
   <g id="cell32">
  <circle cx="421.919" cy="480.158" r="6.69288" stroke-width="0.5" stroke="black" fill="green"/>
  <circle cx="421.919" cy="480.158" r="4.02051" stroke-width="0.5" stroke="black" fill="green"/>
   </g>
   <g id="cell33">
  <circle cx="495.014" cy="424.655" r="8.41271" stroke-width="0.5" stroke="black" fill="green"/>
  <circle cx="495.014" cy="424.655" r="5.05167" stroke-width="0.5" stroke="black" fill="green"/>
   </g>
   <g id="cell34">
  <circle cx="397.088" cy="450.831" r="8.41271" stroke-width="0.5" stroke="black" fill="green"/>
  <circle cx="397.088" cy="450.831" r="5.05167" stroke-width="0.5" stroke="black" fill="green"/>
   </g>
   <g id="cell35">
  <circle cx="551.14" cy="543.146" r="8.41271" stroke-width="0.5" stroke="black" fill="green"/>
  <circle cx="551.14" cy="543.146" r="5.05167" stroke-width="0.5" stroke="black" fill="green"/>
   </g>
   <g id="cell36">
  <circle cx="391.486" cy="582.903" r="8.41271" stroke-width="0.5" stroke="black" fill="green"/>
  <circle cx="391.486" cy="582.903" r="5.05167" stroke-width="0.5" stroke="black" fill="green"/>
   </g>
   <g id="cell37">
  <circle cx="639.143" cy="457.45" r="7.98892" stroke-width="0.5" stroke="black" fill="green"/>
  <circle cx="639.143" cy="457.45" r="4.84272" stroke-width="0.5" stroke="black" fill="green"/>
   </g>
   <g id="cell38">
  <circle cx="531.933" cy="598.413" r="7.90853" stroke-width="0.5" stroke="black" fill="green"/>
  <circle cx="531.933" cy="598.413" r="4.79791" stroke-width="0.5" stroke="black" fill="green"/>
   </g>
   <g id="cell39">
  <circle cx="613.458" cy="490.595" r="8.41271" stroke-width="0.5" stroke="black" fill="green"/>
  <circle cx="613.458" cy="490.595" r="5.05167" stroke-width="0.5" stroke="black" fill="green"/>
   </g>
   <g id="cell40">
  <circle cx="485.348" cy="571.779" r="8.41271" stroke-width="0.5" stroke="black" fill="green"/>
  <circle cx="485.348" cy="571.779" r="5.05167" stroke-width="0.5" stroke="black" fill="green"/>
   </g>
   <g id="cell41">
  <circle cx="364.925" cy="480.252" r="8.41271" stroke-width="0.5" stroke="black" fill="green"/>
  <circle cx="364.925" cy="480.252" r="5.05167" stroke-width="0.5" stroke="black" fill="green"/>
   </g>
   <g id="cell42">
  <circle cx="438.842" cy="494.268" r="8.41271" stroke-width="0.5" stroke="black" fill="green"/>
  <circle cx="438.842" cy="494.268" r="5.05167" stroke-width="0.5" stroke="black" fill="green"/>
   </g>
   <g id="cell43">
  <circle cx="559.005" cy="445.803" r="8.41271" stroke-width="0.5" stroke="black" fill="green"/>
  <circle cx="559.005" cy="445.803" r="5.05167" stroke-width="0.5" stroke="black" fill="green"/>
   </g>
   <g id="cell44">
  <circle cx="475.857" cy="624.021" r="8.41271" stroke-width="0.5" stroke="black" fill="green"/>
  <circle cx="475.857" cy="624.021" r="5.05167" stroke-width="0.5" stroke="black" fill="green"/>
   </g>
   <g id="cell45">
  <circle cx="414.953" cy="557.066" r="8.41271" stroke-width="0.5" stroke="black" fill="green"/>
  <circle cx="414.953" cy="557.066" r="5.05167" stroke-width="0.5" stroke="black" fill="green"/>
   </g>
   <g id="cell46">
  <circle cx="522.847" cy="611.058" r="8.41271" stroke-width="0.5" stroke="black" fill="green"/>
  <circle cx="522.847" cy="611.058" r="5.05167" stroke-width="0.5" stroke="black" fill="green"/>
   </g>
   <g id="cell47">
  <circle cx="504.364" cy="508.528" r="8.41271" stroke-width="0.5" stroke="black" fill="green"/>
  <circle cx="504.364" cy="508.528" r="5.05167" stroke-width="0.5" stroke="black" fill="green"/>
   </g>
   <g id="cell48">
  <circle cx="564.087" cy="602.799" r="8.41271" stroke-width="0.5" stroke="black" fill="green"/>
  <circle cx="564.087" cy="602.799" r="5.05167" stroke-width="0.5" stroke="black" fill="green"/>
   </g>
   <g id="cell49">
  <circle cx="429.826" cy="397.641" r="8.41271" stroke-width="0.5" stroke="black" fill="green"/>
  <circle cx="429.826" cy="397.641" r="5.05167" stroke-width="0.5" stroke="black" fill="green"/>
   </g>
   <g id="cell50">
  <circle cx="520.028" cy="519.094" r="7.51976" stroke-width="0.5" stroke="black" fill="cyan"/>
  <circle cx="520.028" cy="519.094" r="4.57072" stroke-width="0.5" stroke="black" fill="cyan"/>
   </g>
   <g id="cell51">
  <circle cx="398.721" cy="597.201" r="8.41271" stroke-width="0.5" stroke="black" fill="cyan"/>
  <circle cx="398.721" cy="597.201" r="5.05167" stroke-width="0.5" stroke="black" fill="cyan"/>
   </g>
   <g id="cell52">
  <circle cx="520.142" cy="425.204" r="8.41271" stroke-width="0.5" stroke="black" fill="cyan"/>
  <circle cx="520.142" cy="425.204" r="5.05167" stroke-width="0.5" stroke="black" fill="cyan"/>
   </g>
   <g id="cell53">
  <circle cx="571.407" cy="435.908" r="8.41271" stroke-width="0.5" stroke="black" fill="cyan"/>
  <circle cx="571.407" cy="435.908" r="5.05167" stroke-width="0.5" stroke="black" fill="cyan"/>
   </g>
   <g id="cell54">
  <circle cx="480.866" cy="426.699" r="6.80881" stroke-width="0.5" stroke="black" fill="cyan"/>
  <circle cx="480.866" cy="426.699" r="4.10709" stroke-width="0.5" stroke="black" fill="cyan"/>
   </g>
   <g id="cell55">
  <circle cx="529.841" cy="468.172" r="7.93688" stroke-width="0.5" stroke="black" fill="cyan"/>
  <circle cx="529.841" cy="468.172" r="4.81381" stroke-width="0.5" stroke="black" fill="cyan"/>
   </g>
   <g id="cell56">
  <circle cx="617.613" cy="522.333" r="8.41271" stroke-width="0.5" stroke="black" fill="cyan"/>
  <circle cx="617.613" cy="522.333" r="5.05167" stroke-width="0.5" stroke="black" fill="cyan"/>
   </g>
   <g id="cell57">
  <circle cx="416.924" cy="617.466" r="1.43395" stroke-width="0.5" stroke="black" fill="cyan"/>
  <circle cx="416.924" cy="617.466" r="1.41917" stroke-width="0.5" stroke="black" fill="black"/>
   </g>
   <g id="cell58">
  <circle cx="552.845" cy="481.267" r="8.41271" stroke-width="0.5" stroke="black" fill="cyan"/>
  <circle cx="552.845" cy="481.267" r="5.05167" stroke-width="0.5" stroke="black" fill="cyan"/>
   </g>
   <g id="cell59">
  <circle cx="385.463" cy="439.803" r="8.41271" stroke-width="0.5" stroke="black" fill="cyan"/>
  <circle cx="385.463" cy="439.803" r="5.05167" stroke-width="0.5" stroke="black" fill="cyan"/>
   </g>
   <g id="cell60">
  <circle cx="593.16" cy="473.641" r="8.41271" stroke-width="0.5" stroke="black" fill="cyan"/>
  <circle cx="593.16" cy="473.641" r="5.05167" stroke-width="0.5" stroke="black" fill="cyan"/>
   </g>
   <g id="cell61">
  <circle cx="552.946" cy="614.224" r="8.41271" stroke-width="0.5" stroke="black" fill="cyan"/>
  <circle cx="552.946" cy="614.224" r="5.05167" stroke-width="0.5" stroke="black" fill="cyan"/>
   </g>
   <g id="cell62">
  <circle cx="521.608" cy="450.687" r="8.05651" stroke-width="0.5" stroke="black" fill="cyan"/>
  <circle cx="521.608" cy="450.687" r="4.87966" stroke-width="0.5" stroke="black" fill="cyan"/>
   </g>
   <g id="cell63">
  <circle cx="575.356" cy="540.624" r="7.3599" stroke-width="0.5" stroke="black" fill="cyan"/>
  <circle cx="575.356" cy="540.624" r="4.47294" stroke-width="0.5" stroke="black" fill="cyan"/>
   </g>
   <g id="cell64">
  <circle cx="509.962" cy="636.825" r="8.41271" stroke-width="0.5" stroke="black" fill="cyan"/>
  <circle cx="509.962" cy="636.825" r="5.05167" stroke-width="0.5" stroke="black" fill="cyan"/>
   </g>
   <g id="cell65">
  <circle cx="544.033" cy="469.47" r="7.24243" stroke-width="0.5" stroke="black" fill="cyan"/>
  <circle cx="544.033" cy="469.47" r="4.39934" stroke-width="0.5" stroke="black" fill="cyan"/>
   </g>
   <g id="cell66">
  <circle cx="532.136" cy="533.964" r="6.75639" stroke-width="0.5" stroke="black" fill="cyan"/>
  <circle cx="532.136" cy="533.964" r="4.06813" stroke-width="0.5" stroke="black" fill="cyan"/>
   </g>
   <g id="cell67">
  <circle cx="354.711" cy="492.599" r="8.41271" stroke-width="0.5" stroke="black" fill="cyan"/>
  <circle cx="354.711" cy="492.599" r="5.05167" stroke-width="0.5" stroke="black" fill="cyan"/>
   </g>
   <g id="cell68">
  <circle cx="565.03" cy="551.73" r="8.41271" stroke-width="0.5" stroke="black" fill="cyan"/>
  <circle cx="565.03" cy="551.73" r="5.05167" stroke-width="0.5" stroke="black" fill="cyan"/>
   </g>
   <g id="cell69">
  <circle cx="439.782" cy="463.283" r="8.41271" stroke-width="0.5" stroke="black" fill="cyan"/>
  <circle cx="439.782" cy="463.283" r="5.05167" stroke-width="0.5" stroke="black" fill="cyan"/>
   </g>
   <g id="cell70">
  <circle cx="577.199" cy="474.97" r="8.41271" stroke-width="0.5" stroke="black" fill="cyan"/>
  <circle cx="577.199" cy="474.97" r="5.05167" stroke-width="0.5" stroke="black" fill="cyan"/>
   </g>
   <g id="cell71">
  <circle cx="377.712" cy="520.989" r="8.41271" stroke-width="0.5" stroke="black" fill="cyan"/>
  <circle cx="377.712" cy="520.989" r="5.05167" stroke-width="0.5" stroke="black" fill="cyan"/>
   </g>
   <g id="cell72">
  <circle cx="531.281" cy="511.981" r="6.83713" stroke-width="0.5" stroke="black" fill="cyan"/>
  <circle cx="531.281" cy="511.981" r="4.12773" stroke-width="0.5" stroke="black" fill="cyan"/>
   </g>
   <g id="cell73">
  <circle cx="362.651" cy="550.606" r="7.46878" stroke-width="0.5" stroke="black" fill="cyan"/>
  <circle cx="362.651" cy="550.606" r="4.53982" stroke-width="0.5" stroke="black" fill="cyan"/>
   </g>
   <g id="cell74">
  <circle cx="542.978" cy="445.331" r="8.41271" stroke-width="0.5" stroke="black" fill="cyan"/>
  <circle cx="542.978" cy="445.331" r="5.05167" stroke-width="0.5" stroke="black" fill="cyan"/>
   </g>
   <g id="cell75">
  <circle cx="529.487" cy="437.65" r="8.05651" stroke-width="0.5" stroke="black" fill="cyan"/>
  <circle cx="529.487" cy="437.65" r="4.87966" stroke-width="0.5" stroke="black" fill="cyan"/>
   </g>
   <g id="cell76">
  <circle cx="448.358" cy="385.244" r="8.04604" stroke-width="0.5" stroke="black" fill="green"/>
  <circle cx="448.358" cy="385.244" r="4.87399" stroke-width="0.5" stroke="black" fill="green"/>
   </g>
   <g id="cell77">
  <circle cx="473.368" cy="438.112" r="8.02418" stroke-width="0.5" stroke="black" fill="magenta"/>
  <circle cx="473.368" cy="438.112" r="4.86209" stroke-width="0.5" stroke="black" fill="magenta"/>
   </g>
   <g id="cell78">
  <circle cx="625.668" cy="461.886" r="6.95979" stroke-width="0.5" stroke="black" fill="green"/>
  <circle cx="625.668" cy="461.886" r="4.25876" stroke-width="0.5" stroke="black" fill="green"/>
   </g>
   <g id="cell79">
  <circle cx="517.277" cy="476.2" r="7.93688" stroke-width="0.5" stroke="black" fill="cyan"/>
  <circle cx="517.277" cy="476.2" r="4.81381" stroke-width="0.5" stroke="black" fill="cyan"/>
   </g>
   <g id="cell80">
  <circle cx="537.97" cy="611.87" r="7.61446" stroke-width="0.5" stroke="black" fill="green"/>
  <circle cx="537.97" cy="611.87" r="4.64899" stroke-width="0.5" stroke="black" fill="green"/>
   </g>
   <g id="cell81">
  <circle cx="546.662" cy="600.302" r="7.61446" stroke-width="0.5" stroke="black" fill="green"/>
  <circle cx="546.662" cy="600.302" r="4.64899" stroke-width="0.5" stroke="black" fill="green"/>
   </g>
   <g id="cell82">
  <circle cx="530.777" cy="555.062" r="7.81315" stroke-width="0.5" stroke="black" fill="magenta"/>
  <circle cx="530.777" cy="555.062" r="4.74367" stroke-width="0.5" stroke="black" fill="magenta"/>
   </g>
   <g id="cell83">
  <circle cx="634.885" cy="556.15" r="7.81315" stroke-width="0.5" stroke="black" fill="green"/>
  <circle cx="634.885" cy="556.15" r="4.74367" stroke-width="0.5" stroke="black" fill="green"/>
   </g>
   <g id="cell84">
  <circle cx="519.303" cy="505.042" r="7.51976" stroke-width="0.5" stroke="black" fill="cyan"/>
  <circle cx="519.303" cy="505.042" r="4.57072" stroke-width="0.5" stroke="black" fill="cyan"/>
   </g>
   <g id="cell85">
  <circle cx="356.134" cy="538.028" r="7.46878" stroke-width="0.5" stroke="black" fill="cyan"/>
  <circle cx="356.134" cy="538.028" r="4.53982" stroke-width="0.5" stroke="black" fill="cyan"/>
   </g>
   <g id="cell86">
  <circle cx="507.677" cy="525.029" r="7.44242" stroke-width="0.5" stroke="black" fill="magenta"/>
  <circle cx="507.677" cy="525.029" r="4.52373" stroke-width="0.5" stroke="black" fill="magenta"/>
   </g>
   <g id="cell87">
  <circle cx="579.943" cy="553.774" r="7.3599" stroke-width="0.5" stroke="black" fill="cyan"/>
  <circle cx="579.943" cy="553.774" r="4.47294" stroke-width="0.5" stroke="black" fill="cyan"/>
   </g>
   <g id="cell88">
  <circle cx="449" cy="531.723" r="7.27253" stroke-width="0.5" stroke="black" fill="magenta"/>
  <circle cx="449" cy="531.723" r="4.41835" stroke-width="0.5" stroke="black" fill="magenta"/>
   </g>
   <g id="cell89">
  <circle cx="550.744" cy="457.865" r="7.24243" stroke-width="0.5" stroke="black" fill="cyan"/>
  <circle cx="550.744" cy="457.865" r="4.39934" stroke-width="0.5" stroke="black" fill="cyan"/>
   </g>
   <g id="cell90">
  <circle cx="630.488" cy="474.161" r="6.95979" stroke-width="0.5" stroke="black" fill="green"/>
  <circle cx="630.488" cy="474.161" r="4.25876" stroke-width="0.5" stroke="black" fill="green"/>
   </g>
   <g id="cell91">
  <circle cx="542.658" cy="552.95" r="5.7734" stroke-width="0.5" stroke="black" fill="magenta"/>
  <circle cx="542.658" cy="552.95" r="3.56146" stroke-width="0.5" stroke="black" fill="magenta"/>
   </g>
   <g id="cell92">
  <circle cx="482.407" cy="548.886" r="6.99069" stroke-width="0.5" stroke="black" fill="green"/>
  <circle cx="482.407" cy="548.886" r="4.23498" stroke-width="0.5" stroke="black" fill="green"/>
   </g>
   <g id="cell93">
  <circle cx="536.883" cy="544.356" r="5.7734" stroke-width="0.5" stroke="black" fill="magenta"/>
  <circle cx="536.883" cy="544.356" r="3.56146" stroke-width="0.5" stroke="black" fill="magenta"/>
   </g>
   <g id="cell94">
  <circle cx="531.984" cy="499.461" r="6.83713" stroke-width="0.5" stroke="black" fill="cyan"/>
  <circle cx="531.984" cy="499.461" r="4.12773" stroke-width="0.5" stroke="black" fill="cyan"/>
   </g>
   <g id="cell95">
  <circle cx="468.741" cy="422.971" r="6.80881" stroke-width="0.5" stroke="black" fill="cyan"/>
  <circle cx="468.741" cy="422.971" r="4.10709" stroke-width="0.5" stroke="black" fill="cyan"/>
   </g>
   <g id="cell96">
  <circle cx="537.15" cy="522.892" r="6.75639" stroke-width="0.5" stroke="black" fill="cyan"/>
  <circle cx="537.15" cy="522.892" r="4.06813" stroke-width="0.5" stroke="black" fill="cyan"/>
   </g>
   <g id="cell97">
  <circle cx="427.579" cy="469.426" r="6.69288" stroke-width="0.5" stroke="black" fill="green"/>
  <circle cx="427.579" cy="469.426" r="4.02051" stroke-width="0.5" stroke="black" fill="green"/>
   </g>
  </g>
 </g>
  <rect x="775" y="1035" width="200" height="10" stroke-width="2" stroke="rgb(255,255,255)" fill="rgb(0,0,0)"/>
  <text x="781.25" y="1028.75"
   font-family="Arial" font-size="25" fill="black" >
   200 &#956;m
  </text>
  <text x="25" y="1045"
   font-family="Arial" font-size="18.75" fill="black" >
   0 days, 0 hours, 0 minutes, and 8.2587 seconds
  </text>
  <rect x="0" y="70" width="1000" height="1000" stroke-width="2" stroke="rgb(0,0,0)" fill="none"/>
</svg>
