<?xml version="1.0" encoding="UTF-8" standalone="no"?>
<!-- Created with PhysiCell (http://PhysiCell.MathCancer.org/) -->
<svg 
 xmlns:dc="http://purl.org/dc/elements/1.1/" 
 xmlns:cc="http://creativecommons.org/ns#" 
 xmlns:rdf="http://www.w3.org/1999/02/22-rdf-syntax-ns#" 
 xmlns:svg="http://www.w3.org/2000/svg" 
 xmlns="http://www.w3.org/2000/svg" 
 version="1.1" 
 width="1000" 
 height="1070" 
 id="svg2">
  <rect x="0" y="0" width="1000" height="1070" stroke-width="2" stroke="white" fill="white"/>
  <text x="12.5" y="30"
   font-family="Arial" font-size="25" fill="black" >
   Current time: 0 days, 1 hours, and 9.00 minutes, z = 0.00 &#956;m
  </text>
  <text x="12.5" y="57.5"
   font-family="Arial" font-size="23.75" fill="black" >
   76 agents
  </text>
 <g id="tissue" 
    transform="translate(0,1070) scale(1,-1)">
  <g id="ECM">
  </g>
  <g id="cells">
   <g id="cell0">
  <circle cx="513.807" cy="529.882" r="8.41271" stroke-width="0.5" stroke="black" fill="magenta"/>
  <circle cx="513.807" cy="529.882" r="5.05167" stroke-width="0.5" stroke="black" fill="magenta"/>
   </g>
   <g id="cell1">
  <circle cx="604.275" cy="530.119" r="8.41271" stroke-width="0.5" stroke="black" fill="magenta"/>
  <circle cx="604.275" cy="530.119" r="5.05167" stroke-width="0.5" stroke="black" fill="magenta"/>
   </g>
   <g id="cell2">
  <circle cx="510.867" cy="600.6" r="8.41271" stroke-width="0.5" stroke="black" fill="magenta"/>
  <circle cx="510.867" cy="600.6" r="5.05167" stroke-width="0.5" stroke="black" fill="magenta"/>
   </g>
   <g id="cell3">
  <circle cx="532.889" cy="545.454" r="8.41271" stroke-width="0.5" stroke="black" fill="magenta"/>
  <circle cx="532.889" cy="545.454" r="5.05167" stroke-width="0.5" stroke="black" fill="magenta"/>
   </g>
   <g id="cell4">
  <circle cx="481.666" cy="439.397" r="8.41271" stroke-width="0.5" stroke="black" fill="magenta"/>
  <circle cx="481.666" cy="439.397" r="5.05167" stroke-width="0.5" stroke="black" fill="magenta"/>
   </g>
   <g id="cell5">
  <circle cx="465.032" cy="493.3" r="8.41271" stroke-width="0.5" stroke="black" fill="magenta"/>
  <circle cx="465.032" cy="493.3" r="5.05167" stroke-width="0.5" stroke="black" fill="magenta"/>
   </g>
   <g id="cell6">
  <circle cx="593.697" cy="508.766" r="8.41271" stroke-width="0.5" stroke="black" fill="magenta"/>
  <circle cx="593.697" cy="508.766" r="5.05167" stroke-width="0.5" stroke="black" fill="magenta"/>
   </g>
   <g id="cell7">
  <circle cx="512.286" cy="464.827" r="8.41271" stroke-width="0.5" stroke="black" fill="magenta"/>
  <circle cx="512.286" cy="464.827" r="5.05167" stroke-width="0.5" stroke="black" fill="magenta"/>
   </g>
   <g id="cell8">
  <circle cx="375.891" cy="544.521" r="8.41271" stroke-width="0.5" stroke="black" fill="magenta"/>
  <circle cx="375.891" cy="544.521" r="5.05167" stroke-width="0.5" stroke="black" fill="magenta"/>
   </g>
   <g id="cell9">
  <circle cx="460.472" cy="599.786" r="8.41271" stroke-width="0.5" stroke="black" fill="magenta"/>
  <circle cx="460.472" cy="599.786" r="5.05167" stroke-width="0.5" stroke="black" fill="magenta"/>
   </g>
   <g id="cell10">
  <circle cx="583.447" cy="392.105" r="8.41271" stroke-width="0.5" stroke="black" fill="magenta"/>
  <circle cx="583.447" cy="392.105" r="5.05167" stroke-width="0.5" stroke="black" fill="magenta"/>
   </g>
   <g id="cell11">
  <circle cx="589.748" cy="590.273" r="8.41271" stroke-width="0.5" stroke="black" fill="magenta"/>
  <circle cx="589.748" cy="590.273" r="5.05167" stroke-width="0.5" stroke="black" fill="magenta"/>
   </g>
   <g id="cell12">
  <circle cx="506.658" cy="586.04" r="8.41271" stroke-width="0.5" stroke="black" fill="magenta"/>
  <circle cx="506.658" cy="586.04" r="5.05167" stroke-width="0.5" stroke="black" fill="magenta"/>
   </g>
   <g id="cell13">
  <circle cx="386.048" cy="567.822" r="8.41271" stroke-width="0.5" stroke="black" fill="magenta"/>
  <circle cx="386.048" cy="567.822" r="5.05167" stroke-width="0.5" stroke="black" fill="magenta"/>
   </g>
   <g id="cell14">
  <circle cx="528.982" cy="396.564" r="8.41271" stroke-width="0.5" stroke="black" fill="magenta"/>
  <circle cx="528.982" cy="396.564" r="5.05167" stroke-width="0.5" stroke="black" fill="magenta"/>
   </g>
   <g id="cell15">
  <circle cx="380.337" cy="474.867" r="8.41271" stroke-width="0.5" stroke="black" fill="magenta"/>
  <circle cx="380.337" cy="474.867" r="5.05167" stroke-width="0.5" stroke="black" fill="magenta"/>
   </g>
   <g id="cell16">
  <circle cx="428.96" cy="413.217" r="8.41271" stroke-width="0.5" stroke="black" fill="magenta"/>
  <circle cx="428.96" cy="413.217" r="5.05167" stroke-width="0.5" stroke="black" fill="magenta"/>
   </g>
   <g id="cell17">
  <circle cx="571.754" cy="489.956" r="8.41271" stroke-width="0.5" stroke="black" fill="magenta"/>
  <circle cx="571.754" cy="489.956" r="5.05167" stroke-width="0.5" stroke="black" fill="magenta"/>
   </g>
   <g id="cell18">
  <circle cx="516.359" cy="388.074" r="8.41271" stroke-width="0.5" stroke="black" fill="magenta"/>
  <circle cx="516.359" cy="388.074" r="5.05167" stroke-width="0.5" stroke="black" fill="magenta"/>
   </g>
   <g id="cell19">
  <circle cx="451.785" cy="538.841" r="8.41271" stroke-width="0.5" stroke="black" fill="magenta"/>
  <circle cx="451.785" cy="538.841" r="5.05167" stroke-width="0.5" stroke="black" fill="magenta"/>
   </g>
   <g id="cell20">
  <circle cx="532.211" cy="416.938" r="8.41271" stroke-width="0.5" stroke="black" fill="magenta"/>
  <circle cx="532.211" cy="416.938" r="5.05167" stroke-width="0.5" stroke="black" fill="magenta"/>
   </g>
   <g id="cell21">
  <circle cx="464.368" cy="634.574" r="8.41271" stroke-width="0.5" stroke="black" fill="magenta"/>
  <circle cx="464.368" cy="634.574" r="5.05167" stroke-width="0.5" stroke="black" fill="magenta"/>
   </g>
   <g id="cell22">
  <circle cx="557.05" cy="493.624" r="8.41271" stroke-width="0.5" stroke="black" fill="magenta"/>
  <circle cx="557.05" cy="493.624" r="5.05167" stroke-width="0.5" stroke="black" fill="magenta"/>
   </g>
   <g id="cell23">
  <circle cx="536.531" cy="481.81" r="8.41271" stroke-width="0.5" stroke="black" fill="magenta"/>
  <circle cx="536.531" cy="481.81" r="5.05167" stroke-width="0.5" stroke="black" fill="magenta"/>
   </g>
   <g id="cell24">
  <circle cx="559.289" cy="379.786" r="8.41271" stroke-width="0.5" stroke="black" fill="magenta"/>
  <circle cx="559.289" cy="379.786" r="5.05167" stroke-width="0.5" stroke="black" fill="magenta"/>
   </g>
   <g id="cell25">
  <circle cx="640.943" cy="550.03" r="8.41271" stroke-width="0.5" stroke="black" fill="green"/>
  <circle cx="640.943" cy="550.03" r="5.05167" stroke-width="0.5" stroke="black" fill="green"/>
   </g>
   <g id="cell26">
  <circle cx="551.184" cy="401.269" r="8.41271" stroke-width="0.5" stroke="black" fill="green"/>
  <circle cx="551.184" cy="401.269" r="5.05167" stroke-width="0.5" stroke="black" fill="green"/>
   </g>
   <g id="cell27">
  <circle cx="457.446" cy="388.678" r="8.41271" stroke-width="0.5" stroke="black" fill="green"/>
  <circle cx="457.446" cy="388.678" r="5.05167" stroke-width="0.5" stroke="black" fill="green"/>
   </g>
   <g id="cell28">
  <circle cx="438.433" cy="530.84" r="8.41271" stroke-width="0.5" stroke="black" fill="green"/>
  <circle cx="438.433" cy="530.84" r="5.05167" stroke-width="0.5" stroke="black" fill="green"/>
   </g>
   <g id="cell29">
  <circle cx="449.191" cy="519.035" r="8.41271" stroke-width="0.5" stroke="black" fill="green"/>
  <circle cx="449.191" cy="519.035" r="5.05167" stroke-width="0.5" stroke="black" fill="green"/>
   </g>
   <g id="cell30">
  <circle cx="481.58" cy="540.282" r="8.41271" stroke-width="0.5" stroke="black" fill="green"/>
  <circle cx="481.58" cy="540.282" r="5.05167" stroke-width="0.5" stroke="black" fill="green"/>
   </g>
   <g id="cell31">
  <circle cx="412.755" cy="541.184" r="8.41271" stroke-width="0.5" stroke="black" fill="green"/>
  <circle cx="412.755" cy="541.184" r="5.05167" stroke-width="0.5" stroke="black" fill="green"/>
   </g>
   <g id="cell32">
  <circle cx="425.371" cy="474.828" r="8.41271" stroke-width="0.5" stroke="black" fill="green"/>
  <circle cx="425.371" cy="474.828" r="5.05167" stroke-width="0.5" stroke="black" fill="green"/>
   </g>
   <g id="cell33">
  <circle cx="493.982" cy="423.556" r="8.41271" stroke-width="0.5" stroke="black" fill="green"/>
  <circle cx="493.982" cy="423.556" r="5.05167" stroke-width="0.5" stroke="black" fill="green"/>
   </g>
   <g id="cell34">
  <circle cx="397.111" cy="450.853" r="8.41271" stroke-width="0.5" stroke="black" fill="green"/>
  <circle cx="397.111" cy="450.853" r="5.05167" stroke-width="0.5" stroke="black" fill="green"/>
   </g>
   <g id="cell35">
  <circle cx="548.437" cy="544.827" r="8.41271" stroke-width="0.5" stroke="black" fill="green"/>
  <circle cx="548.437" cy="544.827" r="5.05167" stroke-width="0.5" stroke="black" fill="green"/>
   </g>
   <g id="cell36">
  <circle cx="391.297" cy="582.651" r="8.41271" stroke-width="0.5" stroke="black" fill="green"/>
  <circle cx="391.297" cy="582.651" r="5.05167" stroke-width="0.5" stroke="black" fill="green"/>
   </g>
   <g id="cell37">
  <circle cx="634.871" cy="460.618" r="8.41271" stroke-width="0.5" stroke="black" fill="green"/>
  <circle cx="634.871" cy="460.618" r="5.05167" stroke-width="0.5" stroke="black" fill="green"/>
   </g>
   <g id="cell38">
  <circle cx="536.18" cy="601.86" r="8.41271" stroke-width="0.5" stroke="black" fill="green"/>
  <circle cx="536.18" cy="601.86" r="5.05167" stroke-width="0.5" stroke="black" fill="green"/>
   </g>
   <g id="cell39">
  <circle cx="613.458" cy="490.595" r="8.41271" stroke-width="0.5" stroke="black" fill="green"/>
  <circle cx="613.458" cy="490.595" r="5.05167" stroke-width="0.5" stroke="black" fill="green"/>
   </g>
   <g id="cell40">
  <circle cx="485.348" cy="571.779" r="8.41271" stroke-width="0.5" stroke="black" fill="green"/>
  <circle cx="485.348" cy="571.779" r="5.05167" stroke-width="0.5" stroke="black" fill="green"/>
   </g>
   <g id="cell41">
  <circle cx="364.536" cy="480.118" r="8.41271" stroke-width="0.5" stroke="black" fill="green"/>
  <circle cx="364.536" cy="480.118" r="5.05167" stroke-width="0.5" stroke="black" fill="green"/>
   </g>
   <g id="cell42">
  <circle cx="438.842" cy="494.268" r="8.41271" stroke-width="0.5" stroke="black" fill="green"/>
  <circle cx="438.842" cy="494.268" r="5.05167" stroke-width="0.5" stroke="black" fill="green"/>
   </g>
   <g id="cell43">
  <circle cx="558.524" cy="445.732" r="8.41271" stroke-width="0.5" stroke="black" fill="green"/>
  <circle cx="558.524" cy="445.732" r="5.05167" stroke-width="0.5" stroke="black" fill="green"/>
   </g>
   <g id="cell44">
  <circle cx="475.857" cy="624.021" r="8.41271" stroke-width="0.5" stroke="black" fill="green"/>
  <circle cx="475.857" cy="624.021" r="5.05167" stroke-width="0.5" stroke="black" fill="green"/>
   </g>
   <g id="cell45">
  <circle cx="414.954" cy="557.075" r="8.41271" stroke-width="0.5" stroke="black" fill="green"/>
  <circle cx="414.954" cy="557.075" r="5.05167" stroke-width="0.5" stroke="black" fill="green"/>
   </g>
   <g id="cell46">
  <circle cx="522.747" cy="610.757" r="8.41271" stroke-width="0.5" stroke="black" fill="green"/>
  <circle cx="522.747" cy="610.757" r="5.05167" stroke-width="0.5" stroke="black" fill="green"/>
   </g>
   <g id="cell47">
  <circle cx="503.11" cy="507.187" r="8.41271" stroke-width="0.5" stroke="black" fill="green"/>
  <circle cx="503.11" cy="507.187" r="5.05167" stroke-width="0.5" stroke="black" fill="green"/>
   </g>
   <g id="cell48">
  <circle cx="564.514" cy="602.789" r="8.41271" stroke-width="0.5" stroke="black" fill="green"/>
  <circle cx="564.514" cy="602.789" r="5.05167" stroke-width="0.5" stroke="black" fill="green"/>
   </g>
   <g id="cell49">
  <circle cx="429.826" cy="397.641" r="8.41271" stroke-width="0.5" stroke="black" fill="green"/>
  <circle cx="429.826" cy="397.641" r="5.05167" stroke-width="0.5" stroke="black" fill="green"/>
   </g>
   <g id="cell50">
  <circle cx="518.861" cy="515.109" r="8.41271" stroke-width="0.5" stroke="black" fill="cyan"/>
  <circle cx="518.861" cy="515.109" r="5.05167" stroke-width="0.5" stroke="black" fill="cyan"/>
   </g>
   <g id="cell51">
  <circle cx="399.055" cy="597.858" r="8.41271" stroke-width="0.5" stroke="black" fill="cyan"/>
  <circle cx="399.055" cy="597.858" r="5.05167" stroke-width="0.5" stroke="black" fill="cyan"/>
   </g>
   <g id="cell52">
  <circle cx="521.377" cy="428.233" r="8.41271" stroke-width="0.5" stroke="black" fill="cyan"/>
  <circle cx="521.377" cy="428.233" r="5.05167" stroke-width="0.5" stroke="black" fill="cyan"/>
   </g>
   <g id="cell53">
  <circle cx="571.292" cy="436.001" r="8.41271" stroke-width="0.5" stroke="black" fill="cyan"/>
  <circle cx="571.292" cy="436.001" r="5.05167" stroke-width="0.5" stroke="black" fill="cyan"/>
   </g>
   <g id="cell54">
  <circle cx="478.024" cy="424.261" r="8.41271" stroke-width="0.5" stroke="black" fill="cyan"/>
  <circle cx="478.024" cy="424.261" r="5.05167" stroke-width="0.5" stroke="black" fill="cyan"/>
   </g>
   <g id="cell55">
  <circle cx="526.932" cy="469.717" r="8.41271" stroke-width="0.5" stroke="black" fill="cyan"/>
  <circle cx="526.932" cy="469.717" r="5.05167" stroke-width="0.5" stroke="black" fill="cyan"/>
   </g>
   <g id="cell56">
  <circle cx="617.769" cy="522.288" r="8.41271" stroke-width="0.5" stroke="black" fill="cyan"/>
  <circle cx="617.769" cy="522.288" r="5.05167" stroke-width="0.5" stroke="black" fill="cyan"/>
   </g>
   <g id="cell57">
  <circle cx="416.924" cy="617.466" r="5.19915" stroke-width="0.5" stroke="black" fill="cyan"/>
  <circle cx="416.924" cy="617.466" r="3.42443" stroke-width="0.5" stroke="black" fill="black"/>
   </g>
   <g id="cell58">
  <circle cx="551.751" cy="479.087" r="8.41271" stroke-width="0.5" stroke="black" fill="cyan"/>
  <circle cx="551.751" cy="479.087" r="5.05167" stroke-width="0.5" stroke="black" fill="cyan"/>
   </g>
   <g id="cell59">
  <circle cx="385.44" cy="439.781" r="8.41271" stroke-width="0.5" stroke="black" fill="cyan"/>
  <circle cx="385.44" cy="439.781" r="5.05167" stroke-width="0.5" stroke="black" fill="cyan"/>
   </g>
   <g id="cell60">
  <circle cx="593.356" cy="473.622" r="8.41271" stroke-width="0.5" stroke="black" fill="cyan"/>
  <circle cx="593.356" cy="473.622" r="5.05167" stroke-width="0.5" stroke="black" fill="cyan"/>
   </g>
   <g id="cell61">
  <circle cx="553.006" cy="613.949" r="8.41271" stroke-width="0.5" stroke="black" fill="cyan"/>
  <circle cx="553.006" cy="613.949" r="5.05167" stroke-width="0.5" stroke="black" fill="cyan"/>
   </g>
   <g id="cell62">
  <circle cx="523.164" cy="448.512" r="6.67717" stroke-width="0.5" stroke="black" fill="cyan"/>
  <circle cx="523.164" cy="448.512" r="4.00951" stroke-width="0.5" stroke="black" fill="cyan"/>
   </g>
   <g id="cell63">
  <circle cx="577.846" cy="546.427" r="8.41271" stroke-width="0.5" stroke="black" fill="cyan"/>
  <circle cx="577.846" cy="546.427" r="5.05167" stroke-width="0.5" stroke="black" fill="cyan"/>
   </g>
   <g id="cell64">
  <circle cx="509.962" cy="636.825" r="8.41271" stroke-width="0.5" stroke="black" fill="cyan"/>
  <circle cx="509.962" cy="636.825" r="5.05167" stroke-width="0.5" stroke="black" fill="cyan"/>
   </g>
   <g id="cell65">
  <circle cx="542.335" cy="466.465" r="8.41271" stroke-width="0.5" stroke="black" fill="cyan"/>
  <circle cx="542.335" cy="466.465" r="5.05167" stroke-width="0.5" stroke="black" fill="cyan"/>
   </g>
   <g id="cell66">
  <circle cx="535.401" cy="530.059" r="8.41271" stroke-width="0.5" stroke="black" fill="cyan"/>
  <circle cx="535.401" cy="530.059" r="5.05167" stroke-width="0.5" stroke="black" fill="cyan"/>
   </g>
   <g id="cell67">
  <circle cx="354.413" cy="492.966" r="8.41271" stroke-width="0.5" stroke="black" fill="cyan"/>
  <circle cx="354.413" cy="492.966" r="5.05167" stroke-width="0.5" stroke="black" fill="cyan"/>
   </g>
   <g id="cell68">
  <circle cx="562.798" cy="551.779" r="8.41271" stroke-width="0.5" stroke="black" fill="cyan"/>
  <circle cx="562.798" cy="551.779" r="5.05167" stroke-width="0.5" stroke="black" fill="cyan"/>
   </g>
   <g id="cell69">
  <circle cx="437.639" cy="464.521" r="8.41271" stroke-width="0.5" stroke="black" fill="cyan"/>
  <circle cx="437.639" cy="464.521" r="5.05167" stroke-width="0.5" stroke="black" fill="cyan"/>
   </g>
   <g id="cell70">
  <circle cx="576.914" cy="475.183" r="8.41271" stroke-width="0.5" stroke="black" fill="cyan"/>
  <circle cx="576.914" cy="475.183" r="5.05167" stroke-width="0.5" stroke="black" fill="cyan"/>
   </g>
   <g id="cell71">
  <circle cx="377.712" cy="520.989" r="8.41271" stroke-width="0.5" stroke="black" fill="cyan"/>
  <circle cx="377.712" cy="520.989" r="5.05167" stroke-width="0.5" stroke="black" fill="cyan"/>
   </g>
   <g id="cell72">
  <circle cx="534.936" cy="514.033" r="8.41271" stroke-width="0.5" stroke="black" fill="cyan"/>
  <circle cx="534.936" cy="514.033" r="5.05167" stroke-width="0.5" stroke="black" fill="cyan"/>
   </g>
   <g id="cell73">
  <circle cx="360.355" cy="545.935" r="8.41271" stroke-width="0.5" stroke="black" fill="cyan"/>
  <circle cx="360.355" cy="545.935" r="5.05167" stroke-width="0.5" stroke="black" fill="cyan"/>
   </g>
   <g id="cell74">
  <circle cx="542.401" cy="446.524" r="8.41271" stroke-width="0.5" stroke="black" fill="cyan"/>
  <circle cx="542.401" cy="446.524" r="5.05167" stroke-width="0.5" stroke="black" fill="cyan"/>
   </g>
   <g id="cell75">
  <circle cx="529.415" cy="438.496" r="6.67717" stroke-width="0.5" stroke="black" fill="cyan"/>
  <circle cx="529.415" cy="438.496" r="4.00951" stroke-width="0.5" stroke="black" fill="cyan"/>
   </g>
  </g>
 </g>
  <rect x="775" y="1035" width="200" height="10" stroke-width="2" stroke="rgb(255,255,255)" fill="rgb(0,0,0)"/>
  <text x="781.25" y="1028.75"
   font-family="Arial" font-size="25" fill="black" >
   200 &#956;m
  </text>
  <text x="25" y="1045"
   font-family="Arial" font-size="18.75" fill="black" >
   0 days, 0 hours, 0 minutes, and 1.2540 seconds
  </text>
  <rect x="0" y="70" width="1000" height="1000" stroke-width="2" stroke="rgb(0,0,0)" fill="none"/>
</svg>
