<?xml version="1.0" encoding="UTF-8" standalone="no"?>
<!-- Created with PhysiCell (http://PhysiCell.MathCancer.org/) -->
<svg 
 xmlns:dc="http://purl.org/dc/elements/1.1/" 
 xmlns:cc="http://creativecommons.org/ns#" 
 xmlns:rdf="http://www.w3.org/1999/02/22-rdf-syntax-ns#" 
 xmlns:svg="http://www.w3.org/2000/svg" 
 xmlns="http://www.w3.org/2000/svg" 
 version="1.1" 
 width="1000" 
 height="1070" 
 id="svg2">
  <rect x="0" y="0" width="1000" height="1070" stroke-width="2" stroke="white" fill="white"/>
  <text x="12.5" y="30"
   font-family="Arial" font-size="25" fill="black" >
   Current time: 0 days, 6 hours, and 39.00 minutes, z = 0.00 &#956;m
  </text>
  <text x="12.5" y="57.5"
   font-family="Arial" font-size="23.75" fill="black" >
   95 agents
  </text>
 <g id="tissue" 
    transform="translate(0,1070) scale(1,-1)">
  <g id="ECM">
  </g>
  <g id="cells">
   <g id="cell0">
  <circle cx="518.95" cy="532.425" r="7.24243" stroke-width="0.5" stroke="black" fill="magenta"/>
  <circle cx="518.95" cy="532.425" r="4.39934" stroke-width="0.5" stroke="black" fill="magenta"/>
   </g>
   <g id="cell1">
  <circle cx="602.489" cy="526.181" r="8.41271" stroke-width="0.5" stroke="black" fill="magenta"/>
  <circle cx="602.489" cy="526.181" r="5.05167" stroke-width="0.5" stroke="black" fill="magenta"/>
   </g>
   <g id="cell2">
  <circle cx="511.332" cy="600.687" r="8.41271" stroke-width="0.5" stroke="black" fill="magenta"/>
  <circle cx="511.332" cy="600.687" r="5.05167" stroke-width="0.5" stroke="black" fill="magenta"/>
   </g>
   <g id="cell3">
  <circle cx="527.592" cy="540.308" r="6.39275" stroke-width="0.5" stroke="black" fill="magenta"/>
  <circle cx="527.592" cy="540.308" r="3.91054" stroke-width="0.5" stroke="black" fill="magenta"/>
   </g>
   <g id="cell4">
  <circle cx="486.975" cy="437.586" r="7.93688" stroke-width="0.5" stroke="black" fill="magenta"/>
  <circle cx="486.975" cy="437.586" r="4.81381" stroke-width="0.5" stroke="black" fill="magenta"/>
   </g>
   <g id="cell5">
  <circle cx="465.032" cy="493.3" r="8.41271" stroke-width="0.5" stroke="black" fill="magenta"/>
  <circle cx="465.032" cy="493.3" r="5.05167" stroke-width="0.5" stroke="black" fill="magenta"/>
   </g>
   <g id="cell6">
  <circle cx="595.633" cy="512.661" r="8.41271" stroke-width="0.5" stroke="black" fill="magenta"/>
  <circle cx="595.633" cy="512.661" r="5.05167" stroke-width="0.5" stroke="black" fill="magenta"/>
   </g>
   <g id="cell7">
  <circle cx="511.543" cy="461.93" r="8.41271" stroke-width="0.5" stroke="black" fill="magenta"/>
  <circle cx="511.543" cy="461.93" r="5.05167" stroke-width="0.5" stroke="black" fill="magenta"/>
   </g>
   <g id="cell8">
  <circle cx="375.884" cy="544.432" r="8.41271" stroke-width="0.5" stroke="black" fill="magenta"/>
  <circle cx="375.884" cy="544.432" r="5.05167" stroke-width="0.5" stroke="black" fill="magenta"/>
   </g>
   <g id="cell9">
  <circle cx="460.472" cy="599.786" r="8.41271" stroke-width="0.5" stroke="black" fill="magenta"/>
  <circle cx="460.472" cy="599.786" r="5.05167" stroke-width="0.5" stroke="black" fill="magenta"/>
   </g>
   <g id="cell10">
  <circle cx="583.447" cy="392.105" r="8.41271" stroke-width="0.5" stroke="black" fill="magenta"/>
  <circle cx="583.447" cy="392.105" r="5.05167" stroke-width="0.5" stroke="black" fill="magenta"/>
   </g>
   <g id="cell11">
  <circle cx="589.748" cy="590.273" r="8.41271" stroke-width="0.5" stroke="black" fill="magenta"/>
  <circle cx="589.748" cy="590.273" r="5.05167" stroke-width="0.5" stroke="black" fill="magenta"/>
   </g>
   <g id="cell12">
  <circle cx="506.729" cy="586.273" r="8.41271" stroke-width="0.5" stroke="black" fill="magenta"/>
  <circle cx="506.729" cy="586.273" r="5.05167" stroke-width="0.5" stroke="black" fill="magenta"/>
   </g>
   <g id="cell13">
  <circle cx="386.194" cy="568.228" r="8.41271" stroke-width="0.5" stroke="black" fill="magenta"/>
  <circle cx="386.194" cy="568.228" r="5.05167" stroke-width="0.5" stroke="black" fill="magenta"/>
   </g>
   <g id="cell14">
  <circle cx="528.548" cy="399.199" r="8.41271" stroke-width="0.5" stroke="black" fill="magenta"/>
  <circle cx="528.548" cy="399.199" r="5.05167" stroke-width="0.5" stroke="black" fill="magenta"/>
   </g>
   <g id="cell15">
  <circle cx="379.65" cy="475.1" r="8.41271" stroke-width="0.5" stroke="black" fill="magenta"/>
  <circle cx="379.65" cy="475.1" r="5.05167" stroke-width="0.5" stroke="black" fill="magenta"/>
   </g>
   <g id="cell16">
  <circle cx="428.96" cy="413.217" r="8.41271" stroke-width="0.5" stroke="black" fill="magenta"/>
  <circle cx="428.96" cy="413.217" r="5.05167" stroke-width="0.5" stroke="black" fill="magenta"/>
   </g>
   <g id="cell17">
  <circle cx="570.561" cy="489.128" r="8.41271" stroke-width="0.5" stroke="black" fill="magenta"/>
  <circle cx="570.561" cy="489.128" r="5.05167" stroke-width="0.5" stroke="black" fill="magenta"/>
   </g>
   <g id="cell18">
  <circle cx="517.418" cy="388.934" r="8.41271" stroke-width="0.5" stroke="black" fill="magenta"/>
  <circle cx="517.418" cy="388.934" r="5.05167" stroke-width="0.5" stroke="black" fill="magenta"/>
   </g>
   <g id="cell19">
  <circle cx="455.675" cy="542.488" r="7.0545" stroke-width="0.5" stroke="black" fill="magenta"/>
  <circle cx="455.675" cy="542.488" r="4.27772" stroke-width="0.5" stroke="black" fill="magenta"/>
   </g>
   <g id="cell20">
  <circle cx="531.069" cy="414.126" r="8.41271" stroke-width="0.5" stroke="black" fill="magenta"/>
  <circle cx="531.069" cy="414.126" r="5.05167" stroke-width="0.5" stroke="black" fill="magenta"/>
   </g>
   <g id="cell21">
  <circle cx="464.368" cy="634.574" r="8.41271" stroke-width="0.5" stroke="black" fill="magenta"/>
  <circle cx="464.368" cy="634.574" r="5.05167" stroke-width="0.5" stroke="black" fill="magenta"/>
   </g>
   <g id="cell22">
  <circle cx="557" cy="495.793" r="8.41271" stroke-width="0.5" stroke="black" fill="magenta"/>
  <circle cx="557" cy="495.793" r="5.05167" stroke-width="0.5" stroke="black" fill="magenta"/>
   </g>
   <g id="cell23">
  <circle cx="536.979" cy="481.722" r="8.41271" stroke-width="0.5" stroke="black" fill="magenta"/>
  <circle cx="536.979" cy="481.722" r="5.05167" stroke-width="0.5" stroke="black" fill="magenta"/>
   </g>
   <g id="cell24">
  <circle cx="559.285" cy="379.795" r="8.41271" stroke-width="0.5" stroke="black" fill="magenta"/>
  <circle cx="559.285" cy="379.795" r="5.05167" stroke-width="0.5" stroke="black" fill="magenta"/>
   </g>
   <g id="cell25">
  <circle cx="645.23" cy="545.699" r="7.67987" stroke-width="0.5" stroke="black" fill="green"/>
  <circle cx="645.23" cy="545.699" r="4.66617" stroke-width="0.5" stroke="black" fill="green"/>
   </g>
   <g id="cell26">
  <circle cx="551.126" cy="401.254" r="8.41271" stroke-width="0.5" stroke="black" fill="green"/>
  <circle cx="551.126" cy="401.254" r="5.05167" stroke-width="0.5" stroke="black" fill="green"/>
   </g>
   <g id="cell27">
  <circle cx="462.59" cy="390.622" r="7.96365" stroke-width="0.5" stroke="black" fill="green"/>
  <circle cx="462.59" cy="390.622" r="4.82873" stroke-width="0.5" stroke="black" fill="green"/>
   </g>
   <g id="cell28">
  <circle cx="434.734" cy="530.796" r="8.41271" stroke-width="0.5" stroke="black" fill="green"/>
  <circle cx="434.734" cy="530.796" r="5.05167" stroke-width="0.5" stroke="black" fill="green"/>
   </g>
   <g id="cell29">
  <circle cx="450.314" cy="517.538" r="8.41271" stroke-width="0.5" stroke="black" fill="green"/>
  <circle cx="450.314" cy="517.538" r="5.05167" stroke-width="0.5" stroke="black" fill="green"/>
   </g>
   <g id="cell30">
  <circle cx="481.158" cy="535.888" r="6.78181" stroke-width="0.5" stroke="black" fill="green"/>
  <circle cx="481.158" cy="535.888" r="4.08714" stroke-width="0.5" stroke="black" fill="green"/>
   </g>
   <g id="cell31">
  <circle cx="412.757" cy="541.193" r="8.41271" stroke-width="0.5" stroke="black" fill="green"/>
  <circle cx="412.757" cy="541.193" r="5.05167" stroke-width="0.5" stroke="black" fill="green"/>
   </g>
   <g id="cell32">
  <circle cx="425.371" cy="474.829" r="8.41271" stroke-width="0.5" stroke="black" fill="green"/>
  <circle cx="425.371" cy="474.829" r="5.05167" stroke-width="0.5" stroke="black" fill="green"/>
   </g>
   <g id="cell33">
  <circle cx="494.008" cy="424.178" r="8.41271" stroke-width="0.5" stroke="black" fill="green"/>
  <circle cx="494.008" cy="424.178" r="5.05167" stroke-width="0.5" stroke="black" fill="green"/>
   </g>
   <g id="cell34">
  <circle cx="397.088" cy="450.831" r="8.41271" stroke-width="0.5" stroke="black" fill="green"/>
  <circle cx="397.088" cy="450.831" r="5.05167" stroke-width="0.5" stroke="black" fill="green"/>
   </g>
   <g id="cell35">
  <circle cx="551.54" cy="543.624" r="8.41271" stroke-width="0.5" stroke="black" fill="green"/>
  <circle cx="551.54" cy="543.624" r="5.05167" stroke-width="0.5" stroke="black" fill="green"/>
   </g>
   <g id="cell36">
  <circle cx="391.486" cy="582.903" r="8.41271" stroke-width="0.5" stroke="black" fill="green"/>
  <circle cx="391.486" cy="582.903" r="5.05167" stroke-width="0.5" stroke="black" fill="green"/>
   </g>
   <g id="cell37">
  <circle cx="638.954" cy="457.515" r="7.89373" stroke-width="0.5" stroke="black" fill="green"/>
  <circle cx="638.954" cy="457.515" r="4.78957" stroke-width="0.5" stroke="black" fill="green"/>
   </g>
   <g id="cell38">
  <circle cx="532.067" cy="598.478" r="7.79564" stroke-width="0.5" stroke="black" fill="green"/>
  <circle cx="532.067" cy="598.478" r="4.73359" stroke-width="0.5" stroke="black" fill="green"/>
   </g>
   <g id="cell39">
  <circle cx="613.458" cy="490.595" r="8.41271" stroke-width="0.5" stroke="black" fill="green"/>
  <circle cx="613.458" cy="490.595" r="5.05167" stroke-width="0.5" stroke="black" fill="green"/>
   </g>
   <g id="cell40">
  <circle cx="485.348" cy="571.779" r="8.41271" stroke-width="0.5" stroke="black" fill="green"/>
  <circle cx="485.348" cy="571.779" r="5.05167" stroke-width="0.5" stroke="black" fill="green"/>
   </g>
   <g id="cell41">
  <circle cx="364.925" cy="480.252" r="8.41271" stroke-width="0.5" stroke="black" fill="green"/>
  <circle cx="364.925" cy="480.252" r="5.05167" stroke-width="0.5" stroke="black" fill="green"/>
   </g>
   <g id="cell42">
  <circle cx="438.842" cy="494.268" r="8.41271" stroke-width="0.5" stroke="black" fill="green"/>
  <circle cx="438.842" cy="494.268" r="5.05167" stroke-width="0.5" stroke="black" fill="green"/>
   </g>
   <g id="cell43">
  <circle cx="558.789" cy="446.161" r="8.41271" stroke-width="0.5" stroke="black" fill="green"/>
  <circle cx="558.789" cy="446.161" r="5.05167" stroke-width="0.5" stroke="black" fill="green"/>
   </g>
   <g id="cell44">
  <circle cx="475.857" cy="624.021" r="8.41271" stroke-width="0.5" stroke="black" fill="green"/>
  <circle cx="475.857" cy="624.021" r="5.05167" stroke-width="0.5" stroke="black" fill="green"/>
   </g>
   <g id="cell45">
  <circle cx="414.953" cy="557.066" r="8.41271" stroke-width="0.5" stroke="black" fill="green"/>
  <circle cx="414.953" cy="557.066" r="5.05167" stroke-width="0.5" stroke="black" fill="green"/>
   </g>
   <g id="cell46">
  <circle cx="523.006" cy="610.966" r="8.41271" stroke-width="0.5" stroke="black" fill="green"/>
  <circle cx="523.006" cy="610.966" r="5.05167" stroke-width="0.5" stroke="black" fill="green"/>
   </g>
   <g id="cell47">
  <circle cx="504.136" cy="507.819" r="8.41271" stroke-width="0.5" stroke="black" fill="green"/>
  <circle cx="504.136" cy="507.819" r="5.05167" stroke-width="0.5" stroke="black" fill="green"/>
   </g>
   <g id="cell48">
  <circle cx="564.21" cy="602.913" r="8.41271" stroke-width="0.5" stroke="black" fill="green"/>
  <circle cx="564.21" cy="602.913" r="5.05167" stroke-width="0.5" stroke="black" fill="green"/>
   </g>
   <g id="cell49">
  <circle cx="429.826" cy="397.641" r="8.41271" stroke-width="0.5" stroke="black" fill="green"/>
  <circle cx="429.826" cy="397.641" r="5.05167" stroke-width="0.5" stroke="black" fill="green"/>
   </g>
   <g id="cell50">
  <circle cx="520.003" cy="519.386" r="7.33129" stroke-width="0.5" stroke="black" fill="cyan"/>
  <circle cx="520.003" cy="519.386" r="4.45516" stroke-width="0.5" stroke="black" fill="cyan"/>
   </g>
   <g id="cell51">
  <circle cx="398.721" cy="597.201" r="8.41271" stroke-width="0.5" stroke="black" fill="cyan"/>
  <circle cx="398.721" cy="597.201" r="5.05167" stroke-width="0.5" stroke="black" fill="cyan"/>
   </g>
   <g id="cell52">
  <circle cx="520.396" cy="425.48" r="8.41271" stroke-width="0.5" stroke="black" fill="cyan"/>
  <circle cx="520.396" cy="425.48" r="5.05167" stroke-width="0.5" stroke="black" fill="cyan"/>
   </g>
   <g id="cell53">
  <circle cx="571.22" cy="436.059" r="8.41271" stroke-width="0.5" stroke="black" fill="cyan"/>
  <circle cx="571.22" cy="436.059" r="5.05167" stroke-width="0.5" stroke="black" fill="cyan"/>
   </g>
   <g id="cell54">
  <circle cx="478.016" cy="425.347" r="8.41271" stroke-width="0.5" stroke="black" fill="cyan"/>
  <circle cx="478.016" cy="425.347" r="5.05167" stroke-width="0.5" stroke="black" fill="cyan"/>
   </g>
   <g id="cell55">
  <circle cx="530.108" cy="468.106" r="7.83019" stroke-width="0.5" stroke="black" fill="cyan"/>
  <circle cx="530.108" cy="468.106" r="4.75343" stroke-width="0.5" stroke="black" fill="cyan"/>
   </g>
   <g id="cell56">
  <circle cx="617.621" cy="522.331" r="8.41271" stroke-width="0.5" stroke="black" fill="cyan"/>
  <circle cx="617.621" cy="522.331" r="5.05167" stroke-width="0.5" stroke="black" fill="cyan"/>
   </g>
   <g id="cell57">
  <circle cx="416.924" cy="617.466" r="1.56818" stroke-width="0.5" stroke="black" fill="cyan"/>
  <circle cx="416.924" cy="617.466" r="1.54219" stroke-width="0.5" stroke="black" fill="black"/>
   </g>
   <g id="cell58">
  <circle cx="552.847" cy="480.872" r="8.41271" stroke-width="0.5" stroke="black" fill="cyan"/>
  <circle cx="552.847" cy="480.872" r="5.05167" stroke-width="0.5" stroke="black" fill="cyan"/>
   </g>
   <g id="cell59">
  <circle cx="385.463" cy="439.803" r="8.41271" stroke-width="0.5" stroke="black" fill="cyan"/>
  <circle cx="385.463" cy="439.803" r="5.05167" stroke-width="0.5" stroke="black" fill="cyan"/>
   </g>
   <g id="cell60">
  <circle cx="593.145" cy="473.643" r="8.41271" stroke-width="0.5" stroke="black" fill="cyan"/>
  <circle cx="593.145" cy="473.643" r="5.05167" stroke-width="0.5" stroke="black" fill="cyan"/>
   </g>
   <g id="cell61">
  <circle cx="552.766" cy="614.075" r="8.41271" stroke-width="0.5" stroke="black" fill="cyan"/>
  <circle cx="552.766" cy="614.075" r="5.05167" stroke-width="0.5" stroke="black" fill="cyan"/>
   </g>
   <g id="cell62">
  <circle cx="521.561" cy="450.64" r="7.97646" stroke-width="0.5" stroke="black" fill="cyan"/>
  <circle cx="521.561" cy="450.64" r="4.83584" stroke-width="0.5" stroke="black" fill="cyan"/>
   </g>
   <g id="cell63">
  <circle cx="575.862" cy="540.507" r="7.1497" stroke-width="0.5" stroke="black" fill="cyan"/>
  <circle cx="575.862" cy="540.507" r="4.34001" stroke-width="0.5" stroke="black" fill="cyan"/>
   </g>
   <g id="cell64">
  <circle cx="509.962" cy="636.825" r="8.41271" stroke-width="0.5" stroke="black" fill="cyan"/>
  <circle cx="509.962" cy="636.825" r="5.05167" stroke-width="0.5" stroke="black" fill="cyan"/>
   </g>
   <g id="cell65">
  <circle cx="543.949" cy="469.457" r="7.02257" stroke-width="0.5" stroke="black" fill="cyan"/>
  <circle cx="543.949" cy="469.457" r="4.25644" stroke-width="0.5" stroke="black" fill="cyan"/>
   </g>
   <g id="cell66">
  <circle cx="532.861" cy="528.098" r="8.41271" stroke-width="0.5" stroke="black" fill="cyan"/>
  <circle cx="532.861" cy="528.098" r="5.05167" stroke-width="0.5" stroke="black" fill="cyan"/>
   </g>
   <g id="cell67">
  <circle cx="354.711" cy="492.599" r="8.41271" stroke-width="0.5" stroke="black" fill="cyan"/>
  <circle cx="354.711" cy="492.599" r="5.05167" stroke-width="0.5" stroke="black" fill="cyan"/>
   </g>
   <g id="cell68">
  <circle cx="565.054" cy="552.385" r="8.41271" stroke-width="0.5" stroke="black" fill="cyan"/>
  <circle cx="565.054" cy="552.385" r="5.05167" stroke-width="0.5" stroke="black" fill="cyan"/>
   </g>
   <g id="cell69">
  <circle cx="437.64" cy="464.521" r="8.41271" stroke-width="0.5" stroke="black" fill="cyan"/>
  <circle cx="437.64" cy="464.521" r="5.05167" stroke-width="0.5" stroke="black" fill="cyan"/>
   </g>
   <g id="cell70">
  <circle cx="577.187" cy="475.025" r="8.41271" stroke-width="0.5" stroke="black" fill="cyan"/>
  <circle cx="577.187" cy="475.025" r="5.05167" stroke-width="0.5" stroke="black" fill="cyan"/>
   </g>
   <g id="cell71">
  <circle cx="377.712" cy="520.989" r="8.41271" stroke-width="0.5" stroke="black" fill="cyan"/>
  <circle cx="377.712" cy="520.989" r="5.05167" stroke-width="0.5" stroke="black" fill="cyan"/>
   </g>
   <g id="cell72">
  <circle cx="532.929" cy="515.268" r="6.67717" stroke-width="0.5" stroke="black" fill="cyan"/>
  <circle cx="532.929" cy="515.268" r="4.00951" stroke-width="0.5" stroke="black" fill="cyan"/>
   </g>
   <g id="cell73">
  <circle cx="362.661" cy="550.354" r="7.27253" stroke-width="0.5" stroke="black" fill="cyan"/>
  <circle cx="362.661" cy="550.354" r="4.41835" stroke-width="0.5" stroke="black" fill="cyan"/>
   </g>
   <g id="cell74">
  <circle cx="542.846" cy="445.536" r="8.41271" stroke-width="0.5" stroke="black" fill="cyan"/>
  <circle cx="542.846" cy="445.536" r="5.05167" stroke-width="0.5" stroke="black" fill="cyan"/>
   </g>
   <g id="cell75">
  <circle cx="529.546" cy="437.888" r="7.97646" stroke-width="0.5" stroke="black" fill="cyan"/>
  <circle cx="529.546" cy="437.888" r="4.83584" stroke-width="0.5" stroke="black" fill="cyan"/>
   </g>
   <g id="cell76">
  <circle cx="448.439" cy="385.274" r="7.96365" stroke-width="0.5" stroke="black" fill="green"/>
  <circle cx="448.439" cy="385.274" r="4.82873" stroke-width="0.5" stroke="black" fill="green"/>
   </g>
   <g id="cell77">
  <circle cx="472.856" cy="439.605" r="7.93688" stroke-width="0.5" stroke="black" fill="magenta"/>
  <circle cx="472.856" cy="439.605" r="4.81381" stroke-width="0.5" stroke="black" fill="magenta"/>
   </g>
   <g id="cell78">
  <circle cx="625.967" cy="462.107" r="6.65363" stroke-width="0.5" stroke="black" fill="green"/>
  <circle cx="625.967" cy="462.107" r="4.06925" stroke-width="0.5" stroke="black" fill="green"/>
   </g>
   <g id="cell79">
  <circle cx="517.528" cy="475.694" r="7.83019" stroke-width="0.5" stroke="black" fill="cyan"/>
  <circle cx="517.528" cy="475.694" r="4.75343" stroke-width="0.5" stroke="black" fill="cyan"/>
   </g>
   <g id="cell80">
  <circle cx="537.962" cy="611.684" r="7.4269" stroke-width="0.5" stroke="black" fill="green"/>
  <circle cx="537.962" cy="611.684" r="4.5425" stroke-width="0.5" stroke="black" fill="green"/>
   </g>
   <g id="cell81">
  <circle cx="546.422" cy="600.418" r="7.4269" stroke-width="0.5" stroke="black" fill="green"/>
  <circle cx="546.422" cy="600.418" r="4.5425" stroke-width="0.5" stroke="black" fill="green"/>
   </g>
   <g id="cell82">
  <circle cx="529.954" cy="552.411" r="7.67987" stroke-width="0.5" stroke="black" fill="magenta"/>
  <circle cx="529.954" cy="552.411" r="4.66617" stroke-width="0.5" stroke="black" fill="magenta"/>
   </g>
   <g id="cell83">
  <circle cx="634.982" cy="556.052" r="7.67987" stroke-width="0.5" stroke="black" fill="green"/>
  <circle cx="634.982" cy="556.052" r="4.66617" stroke-width="0.5" stroke="black" fill="green"/>
   </g>
   <g id="cell84">
  <circle cx="518.936" cy="505.757" r="7.33129" stroke-width="0.5" stroke="black" fill="cyan"/>
  <circle cx="518.936" cy="505.757" r="4.45516" stroke-width="0.5" stroke="black" fill="cyan"/>
   </g>
   <g id="cell85">
  <circle cx="356.183" cy="538.209" r="7.27253" stroke-width="0.5" stroke="black" fill="cyan"/>
  <circle cx="356.183" cy="538.209" r="4.41835" stroke-width="0.5" stroke="black" fill="cyan"/>
   </g>
   <g id="cell86">
  <circle cx="507.904" cy="526.153" r="7.24243" stroke-width="0.5" stroke="black" fill="magenta"/>
  <circle cx="507.904" cy="526.153" r="4.39934" stroke-width="0.5" stroke="black" fill="magenta"/>
   </g>
   <g id="cell87">
  <circle cx="579.747" cy="553.446" r="7.1497" stroke-width="0.5" stroke="black" fill="cyan"/>
  <circle cx="579.747" cy="553.446" r="4.34001" stroke-width="0.5" stroke="black" fill="cyan"/>
   </g>
   <g id="cell88">
  <circle cx="449" cy="531.766" r="7.0545" stroke-width="0.5" stroke="black" fill="magenta"/>
  <circle cx="449" cy="531.766" r="4.27772" stroke-width="0.5" stroke="black" fill="magenta"/>
   </g>
   <g id="cell89">
  <circle cx="550.198" cy="457.991" r="7.02257" stroke-width="0.5" stroke="black" fill="cyan"/>
  <circle cx="550.198" cy="457.991" r="4.25644" stroke-width="0.5" stroke="black" fill="cyan"/>
   </g>
   <g id="cell90">
  <circle cx="630.378" cy="473.875" r="6.65363" stroke-width="0.5" stroke="black" fill="green"/>
  <circle cx="630.378" cy="473.875" r="4.06925" stroke-width="0.5" stroke="black" fill="green"/>
   </g>
   <g id="cell91">
  <circle cx="541.46" cy="551.24" r="5.20913" stroke-width="0.5" stroke="black" fill="magenta"/>
  <circle cx="541.46" cy="551.24" r="3.19751" stroke-width="0.5" stroke="black" fill="magenta"/>
   </g>
   <g id="cell92">
  <circle cx="482.388" cy="548.683" r="6.78181" stroke-width="0.5" stroke="black" fill="green"/>
  <circle cx="482.388" cy="548.683" r="4.08714" stroke-width="0.5" stroke="black" fill="green"/>
   </g>
   <g id="cell93">
  <circle cx="537.326" cy="543.068" r="5.20913" stroke-width="0.5" stroke="black" fill="magenta"/>
  <circle cx="537.326" cy="543.068" r="3.19751" stroke-width="0.5" stroke="black" fill="magenta"/>
   </g>
   <g id="cell94">
  <circle cx="532.269" cy="504.08" r="6.67717" stroke-width="0.5" stroke="black" fill="cyan"/>
  <circle cx="532.269" cy="504.08" r="4.00951" stroke-width="0.5" stroke="black" fill="cyan"/>
   </g>
  </g>
 </g>
  <rect x="775" y="1035" width="200" height="10" stroke-width="2" stroke="rgb(255,255,255)" fill="rgb(0,0,0)"/>
  <text x="781.25" y="1028.75"
   font-family="Arial" font-size="25" fill="black" >
   200 &#956;m
  </text>
  <text x="25" y="1045"
   font-family="Arial" font-size="18.75" fill="black" >
   0 days, 0 hours, 0 minutes, and 7.4293 seconds
  </text>
  <rect x="0" y="70" width="1000" height="1000" stroke-width="2" stroke="rgb(0,0,0)" fill="none"/>
</svg>
