<?xml version="1.0" encoding="UTF-8" standalone="no"?>
<!-- Created with PhysiCell (http://PhysiCell.MathCancer.org/) -->
<svg 
 xmlns:dc="http://purl.org/dc/elements/1.1/" 
 xmlns:cc="http://creativecommons.org/ns#" 
 xmlns:rdf="http://www.w3.org/1999/02/22-rdf-syntax-ns#" 
 xmlns:svg="http://www.w3.org/2000/svg" 
 xmlns="http://www.w3.org/2000/svg" 
 version="1.1" 
 width="1000" 
 height="1070" 
 id="svg2">
  <rect x="0" y="0" width="1000" height="1070" stroke-width="2" stroke="white" fill="white"/>
  <text x="12.5" y="30"
   font-family="Arial" font-size="25" fill="black" >
   Current time: 0 days, 15 hours, and 51.00 minutes, z = 0.00 &#956;m
  </text>
  <text x="12.5" y="57.5"
   font-family="Arial" font-size="23.75" fill="black" >
   124 agents
  </text>
 <g id="tissue" 
    transform="translate(0,1070) scale(1,-1)">
  <g id="ECM">
  </g>
  <g id="cells">
   <g id="cell0">
  <circle cx="515.655" cy="535.471" r="8.32788" stroke-width="0.5" stroke="black" fill="magenta"/>
  <circle cx="515.655" cy="535.471" r="5.01729" stroke-width="0.5" stroke="black" fill="magenta"/>
   </g>
   <g id="cell1">
  <circle cx="602.492" cy="526.171" r="8.41271" stroke-width="0.5" stroke="black" fill="magenta"/>
  <circle cx="602.492" cy="526.171" r="5.05167" stroke-width="0.5" stroke="black" fill="magenta"/>
   </g>
   <g id="cell2">
  <circle cx="514.593" cy="598.494" r="8.41271" stroke-width="0.5" stroke="black" fill="magenta"/>
  <circle cx="514.593" cy="598.494" r="5.05167" stroke-width="0.5" stroke="black" fill="magenta"/>
   </g>
   <g id="cell3">
  <circle cx="524.208" cy="547.456" r="8.2731" stroke-width="0.5" stroke="black" fill="magenta"/>
  <circle cx="524.208" cy="547.456" r="4.99405" stroke-width="0.5" stroke="black" fill="magenta"/>
   </g>
   <g id="cell4">
  <circle cx="489.38" cy="442.677" r="6.66578" stroke-width="0.5" stroke="black" fill="magenta"/>
  <circle cx="489.38" cy="442.677" r="4.01068" stroke-width="0.5" stroke="black" fill="magenta"/>
   </g>
   <g id="cell5">
  <circle cx="465.032" cy="493.3" r="8.41271" stroke-width="0.5" stroke="black" fill="magenta"/>
  <circle cx="465.032" cy="493.3" r="5.05167" stroke-width="0.5" stroke="black" fill="magenta"/>
   </g>
   <g id="cell6">
  <circle cx="595.637" cy="512.669" r="8.41271" stroke-width="0.5" stroke="black" fill="magenta"/>
  <circle cx="595.637" cy="512.669" r="5.05167" stroke-width="0.5" stroke="black" fill="magenta"/>
   </g>
   <g id="cell7">
  <circle cx="499.23" cy="457.283" r="7.72056" stroke-width="0.5" stroke="black" fill="magenta"/>
  <circle cx="499.23" cy="457.283" r="4.69003" stroke-width="0.5" stroke="black" fill="magenta"/>
   </g>
   <g id="cell8">
  <circle cx="376.298" cy="542.313" r="8.41271" stroke-width="0.5" stroke="black" fill="magenta"/>
  <circle cx="376.298" cy="542.313" r="5.05167" stroke-width="0.5" stroke="black" fill="magenta"/>
   </g>
   <g id="cell9">
  <circle cx="460.472" cy="599.786" r="8.41271" stroke-width="0.5" stroke="black" fill="magenta"/>
  <circle cx="460.472" cy="599.786" r="5.05167" stroke-width="0.5" stroke="black" fill="magenta"/>
   </g>
   <g id="cell10">
  <circle cx="583.447" cy="392.105" r="8.41271" stroke-width="0.5" stroke="black" fill="magenta"/>
  <circle cx="583.447" cy="392.105" r="5.05167" stroke-width="0.5" stroke="black" fill="magenta"/>
   </g>
   <g id="cell11">
  <circle cx="591.506" cy="590.063" r="8.41271" stroke-width="0.5" stroke="black" fill="magenta"/>
  <circle cx="591.506" cy="590.063" r="5.05167" stroke-width="0.5" stroke="black" fill="magenta"/>
   </g>
   <g id="cell12">
  <circle cx="506.555" cy="585.715" r="8.41271" stroke-width="0.5" stroke="black" fill="magenta"/>
  <circle cx="506.555" cy="585.715" r="5.05167" stroke-width="0.5" stroke="black" fill="magenta"/>
   </g>
   <g id="cell13">
  <circle cx="386.194" cy="568.228" r="8.41271" stroke-width="0.5" stroke="black" fill="magenta"/>
  <circle cx="386.194" cy="568.228" r="5.05167" stroke-width="0.5" stroke="black" fill="magenta"/>
   </g>
   <g id="cell14">
  <circle cx="529.52" cy="399.351" r="8.41271" stroke-width="0.5" stroke="black" fill="magenta"/>
  <circle cx="529.52" cy="399.351" r="5.05167" stroke-width="0.5" stroke="black" fill="magenta"/>
   </g>
   <g id="cell15">
  <circle cx="379.65" cy="475.1" r="8.41271" stroke-width="0.5" stroke="black" fill="magenta"/>
  <circle cx="379.65" cy="475.1" r="5.05167" stroke-width="0.5" stroke="black" fill="magenta"/>
   </g>
   <g id="cell16">
  <circle cx="428.974" cy="413.033" r="8.41271" stroke-width="0.5" stroke="black" fill="magenta"/>
  <circle cx="428.974" cy="413.033" r="5.05167" stroke-width="0.5" stroke="black" fill="magenta"/>
   </g>
   <g id="cell17">
  <circle cx="570.859" cy="491.424" r="8.41271" stroke-width="0.5" stroke="black" fill="magenta"/>
  <circle cx="570.859" cy="491.424" r="5.05167" stroke-width="0.5" stroke="black" fill="magenta"/>
   </g>
   <g id="cell18">
  <circle cx="518.046" cy="389.476" r="8.41271" stroke-width="0.5" stroke="black" fill="magenta"/>
  <circle cx="518.046" cy="389.476" r="5.05167" stroke-width="0.5" stroke="black" fill="magenta"/>
   </g>
   <g id="cell19">
  <circle cx="459.889" cy="540.022" r="7.70024" stroke-width="0.5" stroke="black" fill="magenta"/>
  <circle cx="459.889" cy="540.022" r="4.68762" stroke-width="0.5" stroke="black" fill="magenta"/>
   </g>
   <g id="cell20">
  <circle cx="531.293" cy="414.416" r="8.41271" stroke-width="0.5" stroke="black" fill="magenta"/>
  <circle cx="531.293" cy="414.416" r="5.05167" stroke-width="0.5" stroke="black" fill="magenta"/>
   </g>
   <g id="cell21">
  <circle cx="464.368" cy="634.574" r="8.41271" stroke-width="0.5" stroke="black" fill="magenta"/>
  <circle cx="464.368" cy="634.574" r="5.05167" stroke-width="0.5" stroke="black" fill="magenta"/>
   </g>
   <g id="cell22">
  <circle cx="556.347" cy="495.507" r="8.41271" stroke-width="0.5" stroke="black" fill="magenta"/>
  <circle cx="556.347" cy="495.507" r="5.05167" stroke-width="0.5" stroke="black" fill="magenta"/>
   </g>
   <g id="cell23">
  <circle cx="545.499" cy="485.144" r="8.41271" stroke-width="0.5" stroke="black" fill="magenta"/>
  <circle cx="545.499" cy="485.144" r="5.05167" stroke-width="0.5" stroke="black" fill="magenta"/>
   </g>
   <g id="cell24">
  <circle cx="558.662" cy="382.126" r="8.41271" stroke-width="0.5" stroke="black" fill="magenta"/>
  <circle cx="558.662" cy="382.126" r="5.05167" stroke-width="0.5" stroke="black" fill="magenta"/>
   </g>
   <g id="cell25">
  <circle cx="645.706" cy="545.218" r="8.36032" stroke-width="0.5" stroke="black" fill="green"/>
  <circle cx="645.706" cy="545.218" r="5.03165" stroke-width="0.5" stroke="black" fill="green"/>
   </g>
   <g id="cell26">
  <circle cx="554.741" cy="396.496" r="7.70049" stroke-width="0.5" stroke="black" fill="green"/>
  <circle cx="554.741" cy="396.496" r="4.67828" stroke-width="0.5" stroke="black" fill="green"/>
   </g>
   <g id="cell27">
  <circle cx="464.802" cy="391.784" r="8.38028" stroke-width="0.5" stroke="black" fill="green"/>
  <circle cx="464.802" cy="391.784" r="5.03997" stroke-width="0.5" stroke="black" fill="green"/>
   </g>
   <g id="cell28">
  <circle cx="432.943" cy="530.698" r="8.41271" stroke-width="0.5" stroke="black" fill="green"/>
  <circle cx="432.943" cy="530.698" r="5.05167" stroke-width="0.5" stroke="black" fill="green"/>
   </g>
   <g id="cell29">
  <circle cx="450.459" cy="515.985" r="8.41271" stroke-width="0.5" stroke="black" fill="green"/>
  <circle cx="450.459" cy="515.985" r="5.05167" stroke-width="0.5" stroke="black" fill="green"/>
   </g>
   <g id="cell30">
  <circle cx="481.311" cy="534.372" r="8.28262" stroke-width="0.5" stroke="black" fill="green"/>
  <circle cx="481.311" cy="534.372" r="4.9961" stroke-width="0.5" stroke="black" fill="green"/>
   </g>
   <g id="cell31">
  <circle cx="412.807" cy="541.561" r="8.41271" stroke-width="0.5" stroke="black" fill="green"/>
  <circle cx="412.807" cy="541.561" r="5.05167" stroke-width="0.5" stroke="black" fill="green"/>
   </g>
   <g id="cell32">
  <circle cx="421.197" cy="481.791" r="8.23444" stroke-width="0.5" stroke="black" fill="green"/>
  <circle cx="421.197" cy="481.791" r="4.97252" stroke-width="0.5" stroke="black" fill="green"/>
   </g>
   <g id="cell33">
  <circle cx="500.775" cy="421.573" r="8.41271" stroke-width="0.5" stroke="black" fill="green"/>
  <circle cx="500.775" cy="421.573" r="5.05167" stroke-width="0.5" stroke="black" fill="green"/>
   </g>
   <g id="cell34">
  <circle cx="397.088" cy="450.831" r="8.41271" stroke-width="0.5" stroke="black" fill="green"/>
  <circle cx="397.088" cy="450.831" r="5.05167" stroke-width="0.5" stroke="black" fill="green"/>
   </g>
   <g id="cell35">
  <circle cx="553.343" cy="541.902" r="8.41271" stroke-width="0.5" stroke="black" fill="green"/>
  <circle cx="553.343" cy="541.902" r="5.05167" stroke-width="0.5" stroke="black" fill="green"/>
   </g>
   <g id="cell36">
  <circle cx="391.486" cy="582.903" r="8.41271" stroke-width="0.5" stroke="black" fill="green"/>
  <circle cx="391.486" cy="582.903" r="5.05167" stroke-width="0.5" stroke="black" fill="green"/>
   </g>
   <g id="cell37">
  <circle cx="639.847" cy="457.379" r="8.37537" stroke-width="0.5" stroke="black" fill="green"/>
  <circle cx="639.847" cy="457.379" r="5.03798" stroke-width="0.5" stroke="black" fill="green"/>
   </g>
   <g id="cell38">
  <circle cx="528.899" cy="592.471" r="8.36849" stroke-width="0.5" stroke="black" fill="green"/>
  <circle cx="528.899" cy="592.471" r="5.03512" stroke-width="0.5" stroke="black" fill="green"/>
   </g>
   <g id="cell39">
  <circle cx="613.458" cy="490.595" r="8.41271" stroke-width="0.5" stroke="black" fill="green"/>
  <circle cx="613.458" cy="490.595" r="5.05167" stroke-width="0.5" stroke="black" fill="green"/>
   </g>
   <g id="cell40">
  <circle cx="485.348" cy="571.779" r="8.41271" stroke-width="0.5" stroke="black" fill="green"/>
  <circle cx="485.348" cy="571.779" r="5.05167" stroke-width="0.5" stroke="black" fill="green"/>
   </g>
   <g id="cell41">
  <circle cx="364.925" cy="480.252" r="8.41271" stroke-width="0.5" stroke="black" fill="green"/>
  <circle cx="364.925" cy="480.252" r="5.05167" stroke-width="0.5" stroke="black" fill="green"/>
   </g>
   <g id="cell42">
  <circle cx="438.842" cy="494.265" r="8.41271" stroke-width="0.5" stroke="black" fill="green"/>
  <circle cx="438.842" cy="494.265" r="5.05167" stroke-width="0.5" stroke="black" fill="green"/>
   </g>
   <g id="cell43">
  <circle cx="562.414" cy="441.654" r="8.41271" stroke-width="0.5" stroke="black" fill="green"/>
  <circle cx="562.414" cy="441.654" r="5.05167" stroke-width="0.5" stroke="black" fill="green"/>
   </g>
   <g id="cell44">
  <circle cx="475.857" cy="624.021" r="8.41271" stroke-width="0.5" stroke="black" fill="green"/>
  <circle cx="475.857" cy="624.021" r="5.05167" stroke-width="0.5" stroke="black" fill="green"/>
   </g>
   <g id="cell45">
  <circle cx="414.902" cy="556.698" r="2.67434" stroke-width="0.5" stroke="black" fill="green"/>
  <circle cx="414.902" cy="556.698" r="2.31053" stroke-width="0.5" stroke="black" fill="black"/>
   </g>
   <g id="cell46">
  <circle cx="521.255" cy="612.212" r="8.10448" stroke-width="0.5" stroke="black" fill="green"/>
  <circle cx="521.255" cy="612.212" r="4.90539" stroke-width="0.5" stroke="black" fill="green"/>
   </g>
   <g id="cell47">
  <circle cx="504.558" cy="498.843" r="8.2239" stroke-width="0.5" stroke="black" fill="green"/>
  <circle cx="504.558" cy="498.843" r="4.96725" stroke-width="0.5" stroke="black" fill="green"/>
   </g>
   <g id="cell48">
  <circle cx="570.373" cy="603.952" r="7.67537" stroke-width="0.5" stroke="black" fill="green"/>
  <circle cx="570.373" cy="603.952" r="4.68302" stroke-width="0.5" stroke="black" fill="green"/>
   </g>
   <g id="cell49">
  <circle cx="430.395" cy="397.477" r="8.41271" stroke-width="0.5" stroke="black" fill="green"/>
  <circle cx="430.395" cy="397.477" r="5.05167" stroke-width="0.5" stroke="black" fill="green"/>
   </g>
   <g id="cell50">
  <circle cx="511.77" cy="512.06" r="7.39278" stroke-width="0.5" stroke="black" fill="cyan"/>
  <circle cx="511.77" cy="512.06" r="4.50317" stroke-width="0.5" stroke="black" fill="cyan"/>
   </g>
   <g id="cell51">
  <circle cx="398.721" cy="597.201" r="8.41271" stroke-width="0.5" stroke="black" fill="cyan"/>
  <circle cx="398.721" cy="597.201" r="5.05167" stroke-width="0.5" stroke="black" fill="cyan"/>
   </g>
   <g id="cell52">
  <circle cx="518.495" cy="423.395" r="8.41271" stroke-width="0.5" stroke="black" fill="cyan"/>
  <circle cx="518.495" cy="423.395" r="5.05167" stroke-width="0.5" stroke="black" fill="cyan"/>
   </g>
   <g id="cell53">
  <circle cx="573.477" cy="429.852" r="8.15353" stroke-width="0.5" stroke="black" fill="cyan"/>
  <circle cx="573.477" cy="429.852" r="4.93122" stroke-width="0.5" stroke="black" fill="cyan"/>
   </g>
   <g id="cell54">
  <circle cx="481.654" cy="423.336" r="8.25826" stroke-width="0.5" stroke="black" fill="cyan"/>
  <circle cx="481.654" cy="423.336" r="4.98429" stroke-width="0.5" stroke="black" fill="cyan"/>
   </g>
   <g id="cell55">
  <circle cx="523.796" cy="464.241" r="8.16632" stroke-width="0.5" stroke="black" fill="cyan"/>
  <circle cx="523.796" cy="464.241" r="4.94095" stroke-width="0.5" stroke="black" fill="cyan"/>
   </g>
   <g id="cell56">
  <circle cx="617.613" cy="522.333" r="8.41271" stroke-width="0.5" stroke="black" fill="cyan"/>
  <circle cx="617.613" cy="522.333" r="5.05167" stroke-width="0.5" stroke="black" fill="cyan"/>
   </g>
   <g id="cell105">
  <circle cx="506.873" cy="610.402" r="7.03619" stroke-width="0.5" stroke="black" fill="green"/>
  <circle cx="506.873" cy="610.402" r="4.30017" stroke-width="0.5" stroke="black" fill="green"/>
   </g>
   <g id="cell58">
  <circle cx="560.104" cy="480.149" r="8.41271" stroke-width="0.5" stroke="black" fill="cyan"/>
  <circle cx="560.104" cy="480.149" r="5.05167" stroke-width="0.5" stroke="black" fill="cyan"/>
   </g>
   <g id="cell59">
  <circle cx="385.463" cy="439.803" r="8.41271" stroke-width="0.5" stroke="black" fill="cyan"/>
  <circle cx="385.463" cy="439.803" r="5.05167" stroke-width="0.5" stroke="black" fill="cyan"/>
   </g>
   <g id="cell60">
  <circle cx="591.835" cy="473.861" r="8.41271" stroke-width="0.5" stroke="black" fill="cyan"/>
  <circle cx="591.835" cy="473.861" r="5.05167" stroke-width="0.5" stroke="black" fill="cyan"/>
   </g>
   <g id="cell61">
  <circle cx="555.225" cy="622.578" r="8.41271" stroke-width="0.5" stroke="black" fill="cyan"/>
  <circle cx="555.225" cy="622.578" r="5.05167" stroke-width="0.5" stroke="black" fill="cyan"/>
   </g>
   <g id="cell62">
  <circle cx="515.307" cy="440.606" r="6.93598" stroke-width="0.5" stroke="black" fill="cyan"/>
  <circle cx="515.307" cy="440.606" r="4.20483" stroke-width="0.5" stroke="black" fill="cyan"/>
   </g>
   <g id="cell63">
  <circle cx="573.142" cy="541.946" r="8.32032" stroke-width="0.5" stroke="black" fill="cyan"/>
  <circle cx="573.142" cy="541.946" r="5.01383" stroke-width="0.5" stroke="black" fill="cyan"/>
   </g>
   <g id="cell64">
  <circle cx="509.913" cy="637.04" r="8.41271" stroke-width="0.5" stroke="black" fill="cyan"/>
  <circle cx="509.913" cy="637.04" r="5.05167" stroke-width="0.5" stroke="black" fill="cyan"/>
   </g>
   <g id="cell65">
  <circle cx="547.555" cy="469.874" r="8.30918" stroke-width="0.5" stroke="black" fill="cyan"/>
  <circle cx="547.555" cy="469.874" r="5.00867" stroke-width="0.5" stroke="black" fill="cyan"/>
   </g>
   <g id="cell66">
  <circle cx="530.766" cy="533.235" r="8.24914" stroke-width="0.5" stroke="black" fill="cyan"/>
  <circle cx="530.766" cy="533.235" r="4.97981" stroke-width="0.5" stroke="black" fill="cyan"/>
   </g>
   <g id="cell67">
  <circle cx="354.711" cy="492.599" r="8.41271" stroke-width="0.5" stroke="black" fill="cyan"/>
  <circle cx="354.711" cy="492.599" r="5.05167" stroke-width="0.5" stroke="black" fill="cyan"/>
   </g>
   <g id="cell68">
  <circle cx="563.043" cy="554.295" r="8.41271" stroke-width="0.5" stroke="black" fill="cyan"/>
  <circle cx="563.043" cy="554.295" r="5.05167" stroke-width="0.5" stroke="black" fill="cyan"/>
   </g>
   <g id="cell69">
  <circle cx="442.151" cy="460.472" r="8.41271" stroke-width="0.5" stroke="black" fill="cyan"/>
  <circle cx="442.151" cy="460.472" r="5.05167" stroke-width="0.5" stroke="black" fill="cyan"/>
   </g>
   <g id="cell70">
  <circle cx="575.954" cy="476.719" r="8.41271" stroke-width="0.5" stroke="black" fill="cyan"/>
  <circle cx="575.954" cy="476.719" r="5.05167" stroke-width="0.5" stroke="black" fill="cyan"/>
   </g>
   <g id="cell71">
  <circle cx="379.713" cy="527.744" r="7.79564" stroke-width="0.5" stroke="black" fill="cyan"/>
  <circle cx="379.713" cy="527.744" r="4.73359" stroke-width="0.5" stroke="black" fill="cyan"/>
   </g>
   <g id="cell72">
  <circle cx="532.174" cy="511.343" r="8.26262" stroke-width="0.5" stroke="black" fill="cyan"/>
  <circle cx="532.174" cy="511.343" r="4.98642" stroke-width="0.5" stroke="black" fill="cyan"/>
   </g>
   <g id="cell73">
  <circle cx="364.689" cy="552.576" r="8.33026" stroke-width="0.5" stroke="black" fill="cyan"/>
  <circle cx="364.689" cy="552.576" r="5.01837" stroke-width="0.5" stroke="black" fill="cyan"/>
   </g>
   <g id="cell74">
  <circle cx="547.859" cy="439.054" r="7.70049" stroke-width="0.5" stroke="black" fill="cyan"/>
  <circle cx="547.859" cy="439.054" r="4.67828" stroke-width="0.5" stroke="black" fill="cyan"/>
   </g>
   <g id="cell75">
  <circle cx="528.995" cy="435.597" r="8.38118" stroke-width="0.5" stroke="black" fill="cyan"/>
  <circle cx="528.995" cy="435.597" r="5.04034" stroke-width="0.5" stroke="black" fill="cyan"/>
   </g>
   <g id="cell76">
  <circle cx="441.25" cy="382.291" r="7.90458" stroke-width="0.5" stroke="black" fill="green"/>
  <circle cx="441.25" cy="382.291" r="4.80903" stroke-width="0.5" stroke="black" fill="green"/>
   </g>
   <g id="cell77">
  <circle cx="476.698" cy="437.789" r="8.02732" stroke-width="0.5" stroke="black" fill="magenta"/>
  <circle cx="476.698" cy="437.789" r="4.86707" stroke-width="0.5" stroke="black" fill="magenta"/>
   </g>
   <g id="cell78">
  <circle cx="624.385" cy="460.915" r="8.29008" stroke-width="0.5" stroke="black" fill="green"/>
  <circle cx="624.385" cy="460.915" r="5.00164" stroke-width="0.5" stroke="black" fill="green"/>
   </g>
   <g id="cell79">
  <circle cx="517.738" cy="479.061" r="8.37092" stroke-width="0.5" stroke="black" fill="cyan"/>
  <circle cx="517.738" cy="479.061" r="5.03613" stroke-width="0.5" stroke="black" fill="cyan"/>
   </g>
   <g id="cell80">
  <circle cx="543.834" cy="613.881" r="6.90953" stroke-width="0.5" stroke="black" fill="green"/>
  <circle cx="543.834" cy="613.881" r="4.19424" stroke-width="0.5" stroke="black" fill="green"/>
   </g>
   <g id="cell81">
  <circle cx="544.502" cy="596.142" r="8.34493" stroke-width="0.5" stroke="black" fill="green"/>
  <circle cx="544.502" cy="596.142" r="5.02623" stroke-width="0.5" stroke="black" fill="green"/>
   </g>
   <g id="cell82">
  <circle cx="533.201" cy="559.471" r="8.36032" stroke-width="0.5" stroke="black" fill="magenta"/>
  <circle cx="533.201" cy="559.471" r="5.03165" stroke-width="0.5" stroke="black" fill="magenta"/>
   </g>
   <g id="cell83">
  <circle cx="634.507" cy="556.532" r="8.36032" stroke-width="0.5" stroke="black" fill="green"/>
  <circle cx="634.507" cy="556.532" r="5.03165" stroke-width="0.5" stroke="black" fill="green"/>
   </g>
   <g id="cell84">
  <circle cx="520.091" cy="500.342" r="8.33481" stroke-width="0.5" stroke="black" fill="cyan"/>
  <circle cx="520.091" cy="500.342" r="5.02043" stroke-width="0.5" stroke="black" fill="cyan"/>
   </g>
   <g id="cell85">
  <circle cx="352.721" cy="542.42" r="8.17539" stroke-width="0.5" stroke="black" fill="cyan"/>
  <circle cx="352.721" cy="542.42" r="4.94703" stroke-width="0.5" stroke="black" fill="cyan"/>
   </g>
   <g id="cell86">
  <circle cx="497.915" cy="529.797" r="6.77296" stroke-width="0.5" stroke="black" fill="magenta"/>
  <circle cx="497.915" cy="529.797" r="4.10138" stroke-width="0.5" stroke="black" fill="magenta"/>
   </g>
   <g id="cell87">
  <circle cx="578.243" cy="556.756" r="8.07248" stroke-width="0.5" stroke="black" fill="cyan"/>
  <circle cx="578.243" cy="556.756" r="4.89422" stroke-width="0.5" stroke="black" fill="cyan"/>
   </g>
   <g id="cell88">
  <circle cx="448.417" cy="531.38" r="8.31209" stroke-width="0.5" stroke="black" fill="magenta"/>
  <circle cx="448.417" cy="531.38" r="5.01002" stroke-width="0.5" stroke="black" fill="magenta"/>
   </g>
   <g id="cell89">
  <circle cx="553.6" cy="455.084" r="8.30918" stroke-width="0.5" stroke="black" fill="cyan"/>
  <circle cx="553.6" cy="455.084" r="5.00867" stroke-width="0.5" stroke="black" fill="cyan"/>
   </g>
   <g id="cell90">
  <circle cx="631.068" cy="475.204" r="8.29008" stroke-width="0.5" stroke="black" fill="green"/>
  <circle cx="631.068" cy="475.204" r="5.00164" stroke-width="0.5" stroke="black" fill="green"/>
   </g>
   <g id="cell91">
  <circle cx="548.008" cy="556.855" r="8.20734" stroke-width="0.5" stroke="black" fill="magenta"/>
  <circle cx="548.008" cy="556.855" r="4.96472" stroke-width="0.5" stroke="black" fill="magenta"/>
   </g>
   <g id="cell92">
  <circle cx="482.525" cy="550.111" r="8.28262" stroke-width="0.5" stroke="black" fill="green"/>
  <circle cx="482.525" cy="550.111" r="4.9961" stroke-width="0.5" stroke="black" fill="green"/>
   </g>
   <g id="cell93">
  <circle cx="538.725" cy="545.735" r="8.20734" stroke-width="0.5" stroke="black" fill="magenta"/>
  <circle cx="538.725" cy="545.735" r="4.96472" stroke-width="0.5" stroke="black" fill="magenta"/>
   </g>
   <g id="cell94">
  <circle cx="534.728" cy="495.845" r="8.26262" stroke-width="0.5" stroke="black" fill="cyan"/>
  <circle cx="534.728" cy="495.845" r="4.98642" stroke-width="0.5" stroke="black" fill="cyan"/>
   </g>
   <g id="cell95">
  <circle cx="466.798" cy="425.97" r="8.25826" stroke-width="0.5" stroke="black" fill="cyan"/>
  <circle cx="466.798" cy="425.97" r="4.98429" stroke-width="0.5" stroke="black" fill="cyan"/>
   </g>
   <g id="cell96">
  <circle cx="542.832" cy="523.097" r="8.24914" stroke-width="0.5" stroke="black" fill="cyan"/>
  <circle cx="542.832" cy="523.097" r="4.97981" stroke-width="0.5" stroke="black" fill="cyan"/>
   </g>
   <g id="cell97">
  <circle cx="421.722" cy="466.259" r="8.09516" stroke-width="0.5" stroke="black" fill="green"/>
  <circle cx="421.722" cy="466.259" r="4.90776" stroke-width="0.5" stroke="black" fill="green"/>
   </g>
   <g id="cell98">
  <circle cx="491.57" cy="519.661" r="6.54375" stroke-width="0.5" stroke="black" fill="green"/>
  <circle cx="491.57" cy="519.661" r="3.95388" stroke-width="0.5" stroke="black" fill="green"/>
   </g>
   <g id="cell99">
  <circle cx="358.237" cy="527.886" r="8.17539" stroke-width="0.5" stroke="black" fill="cyan"/>
  <circle cx="358.237" cy="527.886" r="4.94703" stroke-width="0.5" stroke="black" fill="cyan"/>
   </g>
   <g id="cell100">
  <circle cx="449.365" cy="395.182" r="8.17124" stroke-width="0.5" stroke="black" fill="green"/>
  <circle cx="449.365" cy="395.182" r="4.94298" stroke-width="0.5" stroke="black" fill="green"/>
   </g>
   <g id="cell101">
  <circle cx="533.142" cy="476.392" r="8.16632" stroke-width="0.5" stroke="black" fill="cyan"/>
  <circle cx="533.142" cy="476.392" r="4.94095" stroke-width="0.5" stroke="black" fill="cyan"/>
   </g>
   <g id="cell102">
  <circle cx="434.824" cy="474.353" r="8.09516" stroke-width="0.5" stroke="black" fill="green"/>
  <circle cx="434.824" cy="474.353" r="4.90776" stroke-width="0.5" stroke="black" fill="green"/>
   </g>
   <g id="cell103">
  <circle cx="587.949" cy="446.942" r="6.6725" stroke-width="0.5" stroke="black" fill="cyan"/>
  <circle cx="587.949" cy="446.942" r="4.05808" stroke-width="0.5" stroke="black" fill="cyan"/>
   </g>
   <g id="cell104">
  <circle cx="593.05" cy="553.308" r="8.07248" stroke-width="0.5" stroke="black" fill="cyan"/>
  <circle cx="593.05" cy="553.308" r="4.89422" stroke-width="0.5" stroke="black" fill="cyan"/>
   </g>
   <g id="cell106">
  <circle cx="462.115" cy="440.122" r="8.02732" stroke-width="0.5" stroke="black" fill="magenta"/>
  <circle cx="462.115" cy="440.122" r="4.86707" stroke-width="0.5" stroke="black" fill="magenta"/>
   </g>
   <g id="cell107">
  <circle cx="456.559" cy="380.493" r="6.48714" stroke-width="0.5" stroke="black" fill="green"/>
  <circle cx="456.559" cy="380.493" r="3.96663" stroke-width="0.5" stroke="black" fill="green"/>
   </g>
   <g id="cell108">
  <circle cx="555.887" cy="606.798" r="7.96365" stroke-width="0.5" stroke="black" fill="green"/>
  <circle cx="555.887" cy="606.798" r="4.82873" stroke-width="0.5" stroke="black" fill="green"/>
   </g>
   <g id="cell109">
  <circle cx="576.665" cy="590.876" r="7.67537" stroke-width="0.5" stroke="black" fill="green"/>
  <circle cx="576.665" cy="590.876" r="4.68302" stroke-width="0.5" stroke="black" fill="green"/>
   </g>
   <g id="cell110">
  <circle cx="373.964" cy="514.146" r="7.79564" stroke-width="0.5" stroke="black" fill="cyan"/>
  <circle cx="373.964" cy="514.146" r="4.73359" stroke-width="0.5" stroke="black" fill="cyan"/>
   </g>
   <g id="cell111">
  <circle cx="453.456" cy="552.239" r="7.70024" stroke-width="0.5" stroke="black" fill="magenta"/>
  <circle cx="453.456" cy="552.239" r="4.68762" stroke-width="0.5" stroke="black" fill="magenta"/>
   </g>
   <g id="cell112">
  <circle cx="509.418" cy="466.758" r="7.72056" stroke-width="0.5" stroke="black" fill="magenta"/>
  <circle cx="509.418" cy="466.758" r="4.69003" stroke-width="0.5" stroke="black" fill="magenta"/>
   </g>
   <g id="cell113">
  <circle cx="543.145" cy="405.358" r="7.70049" stroke-width="0.5" stroke="black" fill="green"/>
  <circle cx="543.145" cy="405.358" r="4.67828" stroke-width="0.5" stroke="black" fill="green"/>
   </g>
   <g id="cell114">
  <circle cx="524.641" cy="449.864" r="7.1409" stroke-width="0.5" stroke="black" fill="cyan"/>
  <circle cx="524.641" cy="449.864" r="4.37591" stroke-width="0.5" stroke="black" fill="cyan"/>
   </g>
   <g id="cell115">
  <circle cx="537.516" cy="447.872" r="7.1409" stroke-width="0.5" stroke="black" fill="cyan"/>
  <circle cx="537.516" cy="447.872" r="4.37591" stroke-width="0.5" stroke="black" fill="cyan"/>
   </g>
   <g id="cell116">
  <circle cx="521.575" cy="521.986" r="7.39278" stroke-width="0.5" stroke="black" fill="cyan"/>
  <circle cx="521.575" cy="521.986" r="4.50317" stroke-width="0.5" stroke="black" fill="cyan"/>
   </g>
   <g id="cell117">
  <circle cx="511.693" cy="622.686" r="7.03619" stroke-width="0.5" stroke="black" fill="green"/>
  <circle cx="511.693" cy="622.686" r="4.30017" stroke-width="0.5" stroke="black" fill="green"/>
   </g>
   <g id="cell118">
  <circle cx="512.163" cy="453.543" r="6.93598" stroke-width="0.5" stroke="black" fill="cyan"/>
  <circle cx="512.163" cy="453.543" r="4.20483" stroke-width="0.5" stroke="black" fill="cyan"/>
   </g>
   <g id="cell119">
  <circle cx="533.817" cy="605.889" r="6.90953" stroke-width="0.5" stroke="black" fill="green"/>
  <circle cx="533.817" cy="605.889" r="4.19424" stroke-width="0.5" stroke="black" fill="green"/>
   </g>
   <g id="cell120">
  <circle cx="576.084" cy="443.593" r="6.6725" stroke-width="0.5" stroke="black" fill="cyan"/>
  <circle cx="576.084" cy="443.593" r="4.05808" stroke-width="0.5" stroke="black" fill="cyan"/>
   </g>
   <g id="cell121">
  <circle cx="448.965" cy="370.99" r="6.48714" stroke-width="0.5" stroke="black" fill="green"/>
  <circle cx="448.965" cy="370.99" r="3.96663" stroke-width="0.5" stroke="black" fill="green"/>
   </g>
   <g id="cell122">
  <circle cx="508.584" cy="524.315" r="6.77296" stroke-width="0.5" stroke="black" fill="magenta"/>
  <circle cx="508.584" cy="524.315" r="4.10138" stroke-width="0.5" stroke="black" fill="magenta"/>
   </g>
   <g id="cell123">
  <circle cx="497.493" cy="509.763" r="6.54375" stroke-width="0.5" stroke="black" fill="green"/>
  <circle cx="497.493" cy="509.763" r="3.95388" stroke-width="0.5" stroke="black" fill="green"/>
   </g>
   <g id="cell124">
  <circle cx="491.92" cy="431.54" r="6.66578" stroke-width="0.5" stroke="black" fill="magenta"/>
  <circle cx="491.92" cy="431.54" r="4.01068" stroke-width="0.5" stroke="black" fill="magenta"/>
   </g>
  </g>
 </g>
  <rect x="775" y="1035" width="200" height="10" stroke-width="2" stroke="rgb(255,255,255)" fill="rgb(0,0,0)"/>
  <text x="781.25" y="1028.75"
   font-family="Arial" font-size="25" fill="black" >
   200 &#956;m
  </text>
  <text x="25" y="1045"
   font-family="Arial" font-size="18.75" fill="black" >
   0 days, 0 hours, 0 minutes, and 18.3343 seconds
  </text>
  <rect x="0" y="70" width="1000" height="1000" stroke-width="2" stroke="rgb(0,0,0)" fill="none"/>
</svg>
