<?xml version="1.0" encoding="UTF-8" standalone="no"?>
<!-- Created with PhysiCell (http://PhysiCell.MathCancer.org/) -->
<svg 
 xmlns:dc="http://purl.org/dc/elements/1.1/" 
 xmlns:cc="http://creativecommons.org/ns#" 
 xmlns:rdf="http://www.w3.org/1999/02/22-rdf-syntax-ns#" 
 xmlns:svg="http://www.w3.org/2000/svg" 
 xmlns="http://www.w3.org/2000/svg" 
 version="1.1" 
 width="1000" 
 height="1070" 
 id="svg2">
  <rect x="0" y="0" width="1000" height="1070" stroke-width="2" stroke="white" fill="white"/>
  <text x="12.5" y="30"
   font-family="Arial" font-size="25" fill="black" >
   Current time: 1 days, 0 hours, and 24.00 minutes, z = 0.00 &#956;m
  </text>
  <text x="12.5" y="57.5"
   font-family="Arial" font-size="23.75" fill="black" >
   151 agents
  </text>
 <g id="tissue" 
    transform="translate(0,1070) scale(1,-1)">
  <g id="ECM">
  </g>
  <g id="cells">
   <g id="cell0">
  <circle cx="514.874" cy="534.54" r="8.40494" stroke-width="0.5" stroke="black" fill="magenta"/>
  <circle cx="514.874" cy="534.54" r="5.04929" stroke-width="0.5" stroke="black" fill="magenta"/>
   </g>
   <g id="cell1">
  <circle cx="601.521" cy="523.293" r="8.41271" stroke-width="0.5" stroke="black" fill="magenta"/>
  <circle cx="601.521" cy="523.293" r="5.05167" stroke-width="0.5" stroke="black" fill="magenta"/>
   </g>
   <g id="cell2">
  <circle cx="518.519" cy="598.152" r="8.41271" stroke-width="0.5" stroke="black" fill="magenta"/>
  <circle cx="518.519" cy="598.152" r="5.05167" stroke-width="0.5" stroke="black" fill="magenta"/>
   </g>
   <g id="cell3">
  <circle cx="523.721" cy="547.078" r="8.40002" stroke-width="0.5" stroke="black" fill="magenta"/>
  <circle cx="523.721" cy="547.078" r="5.04773" stroke-width="0.5" stroke="black" fill="magenta"/>
   </g>
   <g id="cell4">
  <circle cx="486.599" cy="447.75" r="8.23278" stroke-width="0.5" stroke="black" fill="magenta"/>
  <circle cx="486.599" cy="447.75" r="4.97205" stroke-width="0.5" stroke="black" fill="magenta"/>
   </g>
   <g id="cell5">
  <circle cx="465.032" cy="493.3" r="8.41271" stroke-width="0.5" stroke="black" fill="magenta"/>
  <circle cx="465.032" cy="493.3" r="5.05167" stroke-width="0.5" stroke="black" fill="magenta"/>
   </g>
   <g id="cell6">
  <circle cx="597.121" cy="515.479" r="1.54796" stroke-width="0.5" stroke="black" fill="magenta"/>
  <circle cx="597.121" cy="515.479" r="1.52398" stroke-width="0.5" stroke="black" fill="black"/>
   </g>
   <g id="cell7">
  <circle cx="496.645" cy="459.077" r="8.35236" stroke-width="0.5" stroke="black" fill="magenta"/>
  <circle cx="496.645" cy="459.077" r="5.02821" stroke-width="0.5" stroke="black" fill="magenta"/>
   </g>
   <g id="cell8">
  <circle cx="376.403" cy="542.837" r="8.41271" stroke-width="0.5" stroke="black" fill="magenta"/>
  <circle cx="376.403" cy="542.837" r="5.05167" stroke-width="0.5" stroke="black" fill="magenta"/>
   </g>
   <g id="cell9">
  <circle cx="460.472" cy="599.786" r="1.60978" stroke-width="0.5" stroke="black" fill="magenta"/>
  <circle cx="460.472" cy="599.786" r="1.57926" stroke-width="0.5" stroke="black" fill="black"/>
   </g>
   <g id="cell10">
  <circle cx="586.487" cy="389.2" r="6.95901" stroke-width="0.5" stroke="black" fill="magenta"/>
  <circle cx="586.487" cy="389.2" r="4.21341" stroke-width="0.5" stroke="black" fill="magenta"/>
   </g>
   <g id="cell11">
  <circle cx="592.071" cy="590.052" r="8.41271" stroke-width="0.5" stroke="black" fill="magenta"/>
  <circle cx="592.071" cy="590.052" r="5.05167" stroke-width="0.5" stroke="black" fill="magenta"/>
   </g>
   <g id="cell12">
  <circle cx="504.637" cy="593.563" r="7.89373" stroke-width="0.5" stroke="black" fill="magenta"/>
  <circle cx="504.637" cy="593.563" r="4.78957" stroke-width="0.5" stroke="black" fill="magenta"/>
   </g>
   <g id="cell13">
  <circle cx="387.539" cy="567.687" r="8.41271" stroke-width="0.5" stroke="black" fill="magenta"/>
  <circle cx="387.539" cy="567.687" r="5.05167" stroke-width="0.5" stroke="black" fill="magenta"/>
   </g>
   <g id="cell14">
  <circle cx="529.225" cy="401.979" r="8.41271" stroke-width="0.5" stroke="black" fill="magenta"/>
  <circle cx="529.225" cy="401.979" r="5.05167" stroke-width="0.5" stroke="black" fill="magenta"/>
   </g>
   <g id="cell15">
  <circle cx="383.971" cy="477.833" r="8.13008" stroke-width="0.5" stroke="black" fill="magenta"/>
  <circle cx="383.971" cy="477.833" r="4.91894" stroke-width="0.5" stroke="black" fill="magenta"/>
   </g>
   <g id="cell16">
  <circle cx="436.813" cy="420.833" r="6.55063" stroke-width="0.5" stroke="black" fill="magenta"/>
  <circle cx="436.813" cy="420.833" r="4.04249" stroke-width="0.5" stroke="black" fill="magenta"/>
   </g>
   <g id="cell17">
  <circle cx="570.152" cy="492.687" r="8.41271" stroke-width="0.5" stroke="black" fill="magenta"/>
  <circle cx="570.152" cy="492.687" r="5.05167" stroke-width="0.5" stroke="black" fill="magenta"/>
   </g>
   <g id="cell18">
  <circle cx="519.142" cy="390.699" r="8.41271" stroke-width="0.5" stroke="black" fill="magenta"/>
  <circle cx="519.142" cy="390.699" r="5.05167" stroke-width="0.5" stroke="black" fill="magenta"/>
   </g>
   <g id="cell19">
  <circle cx="458.793" cy="540.606" r="8.35103" stroke-width="0.5" stroke="black" fill="magenta"/>
  <circle cx="458.793" cy="540.606" r="5.02819" stroke-width="0.5" stroke="black" fill="magenta"/>
   </g>
   <g id="cell20">
  <circle cx="531.111" cy="416.966" r="8.41271" stroke-width="0.5" stroke="black" fill="magenta"/>
  <circle cx="531.111" cy="416.966" r="5.05167" stroke-width="0.5" stroke="black" fill="magenta"/>
   </g>
   <g id="cell21">
  <circle cx="466.728" cy="632.407" r="8.41271" stroke-width="0.5" stroke="black" fill="magenta"/>
  <circle cx="466.728" cy="632.407" r="5.05167" stroke-width="0.5" stroke="black" fill="magenta"/>
   </g>
   <g id="cell22">
  <circle cx="555.001" cy="494.093" r="8.41271" stroke-width="0.5" stroke="black" fill="magenta"/>
  <circle cx="555.001" cy="494.093" r="5.05167" stroke-width="0.5" stroke="black" fill="magenta"/>
   </g>
   <g id="cell23">
  <circle cx="545.943" cy="481.727" r="8.41271" stroke-width="0.5" stroke="black" fill="magenta"/>
  <circle cx="545.943" cy="481.727" r="5.05167" stroke-width="0.5" stroke="black" fill="magenta"/>
   </g>
   <g id="cell24">
  <circle cx="558.893" cy="381.074" r="8.41271" stroke-width="0.5" stroke="black" fill="magenta"/>
  <circle cx="558.893" cy="381.074" r="5.05167" stroke-width="0.5" stroke="black" fill="magenta"/>
   </g>
   <g id="cell25">
  <circle cx="648.317" cy="543.147" r="8.40788" stroke-width="0.5" stroke="black" fill="green"/>
  <circle cx="648.317" cy="543.147" r="5.05027" stroke-width="0.5" stroke="black" fill="green"/>
   </g>
   <g id="cell26">
  <circle cx="557.261" cy="396.529" r="8.35062" stroke-width="0.5" stroke="black" fill="green"/>
  <circle cx="557.261" cy="396.529" r="5.02745" stroke-width="0.5" stroke="black" fill="green"/>
   </g>
   <g id="cell27">
  <circle cx="464.917" cy="397.824" r="8.4097" stroke-width="0.5" stroke="black" fill="green"/>
  <circle cx="464.917" cy="397.824" r="5.05084" stroke-width="0.5" stroke="black" fill="green"/>
   </g>
   <g id="cell28">
  <circle cx="435.181" cy="531.917" r="6.73287" stroke-width="0.5" stroke="black" fill="green"/>
  <circle cx="435.181" cy="531.917" r="4.05039" stroke-width="0.5" stroke="black" fill="green"/>
   </g>
   <g id="cell29">
  <circle cx="450.633" cy="514.899" r="8.41271" stroke-width="0.5" stroke="black" fill="green"/>
  <circle cx="450.633" cy="514.899" r="5.05167" stroke-width="0.5" stroke="black" fill="green"/>
   </g>
   <g id="cell30">
  <circle cx="485.69" cy="537.004" r="7.80631" stroke-width="0.5" stroke="black" fill="green"/>
  <circle cx="485.69" cy="537.004" r="4.74137" stroke-width="0.5" stroke="black" fill="green"/>
   </g>
   <g id="cell31">
  <circle cx="412.737" cy="541.637" r="8.41271" stroke-width="0.5" stroke="black" fill="green"/>
  <circle cx="412.737" cy="541.637" r="5.05167" stroke-width="0.5" stroke="black" fill="green"/>
   </g>
   <g id="cell32">
  <circle cx="421.367" cy="481.396" r="1.98212" stroke-width="0.5" stroke="black" fill="green"/>
  <circle cx="421.367" cy="481.396" r="1.88275" stroke-width="0.5" stroke="black" fill="black"/>
   </g>
   <g id="cell33">
  <circle cx="502.073" cy="424.859" r="7.70049" stroke-width="0.5" stroke="black" fill="green"/>
  <circle cx="502.073" cy="424.859" r="4.67828" stroke-width="0.5" stroke="black" fill="green"/>
   </g>
   <g id="cell34">
  <circle cx="396.819" cy="450.575" r="2.04991" stroke-width="0.5" stroke="black" fill="green"/>
  <circle cx="396.819" cy="450.575" r="1.93256" stroke-width="0.5" stroke="black" fill="black"/>
   </g>
   <g id="cell35">
  <circle cx="554.086" cy="544.283" r="8.41271" stroke-width="0.5" stroke="black" fill="green"/>
  <circle cx="554.086" cy="544.283" r="5.05167" stroke-width="0.5" stroke="black" fill="green"/>
   </g>
   <g id="cell36">
  <circle cx="388.365" cy="587.061" r="5.45037" stroke-width="0.5" stroke="black" fill="green"/>
  <circle cx="388.365" cy="587.061" r="3.29261" stroke-width="0.5" stroke="black" fill="green"/>
   </g>
   <g id="cell37">
  <circle cx="640.122" cy="457.296" r="8.40925" stroke-width="0.5" stroke="black" fill="green"/>
  <circle cx="640.122" cy="457.296" r="5.0507" stroke-width="0.5" stroke="black" fill="green"/>
   </g>
   <g id="cell38">
  <circle cx="529.936" cy="587.502" r="8.40862" stroke-width="0.5" stroke="black" fill="green"/>
  <circle cx="529.936" cy="587.502" r="5.0505" stroke-width="0.5" stroke="black" fill="green"/>
   </g>
   <g id="cell39">
  <circle cx="613.354" cy="490.848" r="8.41271" stroke-width="0.5" stroke="black" fill="green"/>
  <circle cx="613.354" cy="490.848" r="5.05167" stroke-width="0.5" stroke="black" fill="green"/>
   </g>
   <g id="cell40">
  <circle cx="485.3" cy="571.103" r="8.41271" stroke-width="0.5" stroke="black" fill="green"/>
  <circle cx="485.3" cy="571.103" r="5.05167" stroke-width="0.5" stroke="black" fill="green"/>
   </g>
   <g id="cell41">
  <circle cx="364.653" cy="481.638" r="8.41271" stroke-width="0.5" stroke="black" fill="green"/>
  <circle cx="364.653" cy="481.638" r="5.05167" stroke-width="0.5" stroke="black" fill="green"/>
   </g>
   <g id="cell42">
  <circle cx="438.718" cy="493.638" r="8.41271" stroke-width="0.5" stroke="black" fill="green"/>
  <circle cx="438.718" cy="493.638" r="5.05167" stroke-width="0.5" stroke="black" fill="green"/>
   </g>
   <g id="cell43">
  <circle cx="559.818" cy="438.868" r="8.41271" stroke-width="0.5" stroke="black" fill="green"/>
  <circle cx="559.818" cy="438.868" r="5.05167" stroke-width="0.5" stroke="black" fill="green"/>
   </g>
   <g id="cell44">
  <circle cx="473.498" cy="626.188" r="1.60978" stroke-width="0.5" stroke="black" fill="green"/>
  <circle cx="473.498" cy="626.188" r="1.57926" stroke-width="0.5" stroke="black" fill="black"/>
   </g>
   <g id="cell145">
  <circle cx="425.642" cy="417.141" r="6.55063" stroke-width="0.5" stroke="black" fill="magenta"/>
  <circle cx="425.642" cy="417.141" r="4.04249" stroke-width="0.5" stroke="black" fill="magenta"/>
   </g>
   <g id="cell46">
  <circle cx="521.256" cy="613.564" r="8.38532" stroke-width="0.5" stroke="black" fill="green"/>
  <circle cx="521.256" cy="613.564" r="5.04199" stroke-width="0.5" stroke="black" fill="green"/>
   </g>
   <g id="cell47">
  <circle cx="504.042" cy="494.543" r="8.39571" stroke-width="0.5" stroke="black" fill="green"/>
  <circle cx="504.042" cy="494.543" r="5.04599" stroke-width="0.5" stroke="black" fill="green"/>
   </g>
   <g id="cell48">
  <circle cx="571.11" cy="604.798" r="8.34981" stroke-width="0.5" stroke="black" fill="green"/>
  <circle cx="571.11" cy="604.798" r="5.02827" stroke-width="0.5" stroke="black" fill="green"/>
   </g>
   <g id="cell49">
  <circle cx="432.864" cy="394.85" r="8.41271" stroke-width="0.5" stroke="black" fill="green"/>
  <circle cx="432.864" cy="394.85" r="5.05167" stroke-width="0.5" stroke="black" fill="green"/>
   </g>
   <g id="cell50">
  <circle cx="512.786" cy="507.824" r="8.32424" stroke-width="0.5" stroke="black" fill="cyan"/>
  <circle cx="512.786" cy="507.824" r="5.01618" stroke-width="0.5" stroke="black" fill="cyan"/>
   </g>
   <g id="cell51">
  <circle cx="398.606" cy="596.572" r="8.41271" stroke-width="0.5" stroke="black" fill="cyan"/>
  <circle cx="398.606" cy="596.572" r="5.05167" stroke-width="0.5" stroke="black" fill="cyan"/>
   </g>
   <g id="cell52">
  <circle cx="516.682" cy="421.844" r="8.41271" stroke-width="0.5" stroke="black" fill="cyan"/>
  <circle cx="516.682" cy="421.844" r="5.05167" stroke-width="0.5" stroke="black" fill="cyan"/>
   </g>
   <g id="cell53">
  <circle cx="572.303" cy="428.661" r="8.38957" stroke-width="0.5" stroke="black" fill="cyan"/>
  <circle cx="572.303" cy="428.661" r="5.04365" stroke-width="0.5" stroke="black" fill="cyan"/>
   </g>
   <g id="cell54">
  <circle cx="480.551" cy="421.739" r="8.39874" stroke-width="0.5" stroke="black" fill="cyan"/>
  <circle cx="480.551" cy="421.739" r="5.04711" stroke-width="0.5" stroke="black" fill="cyan"/>
   </g>
   <g id="cell55">
  <circle cx="523.016" cy="462.611" r="8.39066" stroke-width="0.5" stroke="black" fill="cyan"/>
  <circle cx="523.016" cy="462.611" r="5.04426" stroke-width="0.5" stroke="black" fill="cyan"/>
   </g>
   <g id="cell56">
  <circle cx="617.1" cy="522.402" r="8.41271" stroke-width="0.5" stroke="black" fill="cyan"/>
  <circle cx="617.1" cy="522.402" r="5.05167" stroke-width="0.5" stroke="black" fill="cyan"/>
   </g>
   <g id="cell105">
  <circle cx="507.276" cy="607.766" r="7.63068" stroke-width="0.5" stroke="black" fill="green"/>
  <circle cx="507.276" cy="607.766" r="4.64912" stroke-width="0.5" stroke="black" fill="green"/>
   </g>
   <g id="cell58">
  <circle cx="561.244" cy="480.057" r="8.41271" stroke-width="0.5" stroke="black" fill="cyan"/>
  <circle cx="561.244" cy="480.057" r="5.05167" stroke-width="0.5" stroke="black" fill="cyan"/>
   </g>
   <g id="cell59">
  <circle cx="385.732" cy="440.058" r="8.41271" stroke-width="0.5" stroke="black" fill="cyan"/>
  <circle cx="385.732" cy="440.058" r="5.05167" stroke-width="0.5" stroke="black" fill="cyan"/>
   </g>
   <g id="cell60">
  <circle cx="592.318" cy="473.749" r="8.41271" stroke-width="0.5" stroke="black" fill="cyan"/>
  <circle cx="592.318" cy="473.749" r="5.05167" stroke-width="0.5" stroke="black" fill="cyan"/>
   </g>
   <g id="cell61">
  <circle cx="557.056" cy="621.932" r="3.27739" stroke-width="0.5" stroke="black" fill="cyan"/>
  <circle cx="557.056" cy="621.932" r="2.58717" stroke-width="0.5" stroke="black" fill="black"/>
   </g>
   <g id="cell62">
  <circle cx="512.364" cy="436.809" r="8.27734" stroke-width="0.5" stroke="black" fill="cyan"/>
  <circle cx="512.364" cy="436.809" r="4.99387" stroke-width="0.5" stroke="black" fill="cyan"/>
   </g>
   <g id="cell63">
  <circle cx="584.295" cy="538.839" r="8.09993" stroke-width="0.5" stroke="black" fill="cyan"/>
  <circle cx="584.295" cy="538.839" r="4.90395" stroke-width="0.5" stroke="black" fill="cyan"/>
   </g>
   <g id="cell64">
  <circle cx="509.697" cy="638.879" r="8.41271" stroke-width="0.5" stroke="black" fill="cyan"/>
  <circle cx="509.697" cy="638.879" r="5.05167" stroke-width="0.5" stroke="black" fill="cyan"/>
   </g>
   <g id="cell65">
  <circle cx="551.987" cy="467.113" r="8.40327" stroke-width="0.5" stroke="black" fill="cyan"/>
  <circle cx="551.987" cy="467.113" r="5.04872" stroke-width="0.5" stroke="black" fill="cyan"/>
   </g>
   <g id="cell66">
  <circle cx="530.235" cy="533.214" r="8.39794" stroke-width="0.5" stroke="black" fill="cyan"/>
  <circle cx="530.235" cy="533.214" r="5.04681" stroke-width="0.5" stroke="black" fill="cyan"/>
   </g>
   <g id="cell67">
  <circle cx="353.906" cy="493.586" r="8.41271" stroke-width="0.5" stroke="black" fill="cyan"/>
  <circle cx="353.906" cy="493.586" r="5.05167" stroke-width="0.5" stroke="black" fill="cyan"/>
   </g>
   <g id="cell68">
  <circle cx="563.169" cy="556.961" r="8.41271" stroke-width="0.5" stroke="black" fill="cyan"/>
  <circle cx="563.169" cy="556.961" r="5.05167" stroke-width="0.5" stroke="black" fill="cyan"/>
   </g>
   <g id="cell69">
  <circle cx="442.077" cy="460.623" r="8.41271" stroke-width="0.5" stroke="black" fill="cyan"/>
  <circle cx="442.077" cy="460.623" r="5.05167" stroke-width="0.5" stroke="black" fill="cyan"/>
   </g>
   <g id="cell70">
  <circle cx="577.126" cy="478.682" r="8.41271" stroke-width="0.5" stroke="black" fill="cyan"/>
  <circle cx="577.126" cy="478.682" r="5.05167" stroke-width="0.5" stroke="black" fill="cyan"/>
   </g>
   <g id="cell71">
  <circle cx="380.267" cy="527.78" r="8.35882" stroke-width="0.5" stroke="black" fill="cyan"/>
  <circle cx="380.267" cy="527.78" r="5.031" stroke-width="0.5" stroke="black" fill="cyan"/>
   </g>
   <g id="cell72">
  <circle cx="528.611" cy="506.833" r="8.39913" stroke-width="0.5" stroke="black" fill="cyan"/>
  <circle cx="528.611" cy="506.833" r="5.04725" stroke-width="0.5" stroke="black" fill="cyan"/>
   </g>
   <g id="cell73">
  <circle cx="364.56" cy="552.977" r="8.40516" stroke-width="0.5" stroke="black" fill="cyan"/>
  <circle cx="364.56" cy="552.977" r="5.04937" stroke-width="0.5" stroke="black" fill="cyan"/>
   </g>
   <g id="cell74">
  <circle cx="548.698" cy="434.012" r="1.51318" stroke-width="0.5" stroke="black" fill="cyan"/>
  <circle cx="548.698" cy="434.012" r="1.49045" stroke-width="0.5" stroke="black" fill="black"/>
   </g>
   <g id="cell75">
  <circle cx="529.045" cy="432.144" r="8.40978" stroke-width="0.5" stroke="black" fill="cyan"/>
  <circle cx="529.045" cy="432.144" r="5.05086" stroke-width="0.5" stroke="black" fill="cyan"/>
   </g>
   <g id="cell76">
  <circle cx="442.216" cy="382.16" r="8.36847" stroke-width="0.5" stroke="black" fill="green"/>
  <circle cx="442.216" cy="382.16" r="5.03593" stroke-width="0.5" stroke="black" fill="green"/>
   </g>
   <g id="cell77">
  <circle cx="476.097" cy="436.786" r="8.37868" stroke-width="0.5" stroke="black" fill="magenta"/>
  <circle cx="476.097" cy="436.786" r="5.03953" stroke-width="0.5" stroke="black" fill="magenta"/>
   </g>
   <g id="cell78">
  <circle cx="624.819" cy="461.99" r="8.40153" stroke-width="0.5" stroke="black" fill="green"/>
  <circle cx="624.819" cy="461.99" r="5.04823" stroke-width="0.5" stroke="black" fill="green"/>
   </g>
   <g id="cell79">
  <circle cx="515.67" cy="478.695" r="8.40884" stroke-width="0.5" stroke="black" fill="cyan"/>
  <circle cx="515.67" cy="478.695" r="5.05057" stroke-width="0.5" stroke="black" fill="cyan"/>
   </g>
   <g id="cell80">
  <circle cx="542.514" cy="615.704" r="8.27562" stroke-width="0.5" stroke="black" fill="green"/>
  <circle cx="542.514" cy="615.704" r="4.99336" stroke-width="0.5" stroke="black" fill="green"/>
   </g>
   <g id="cell81">
  <circle cx="545.328" cy="593.414" r="8.40646" stroke-width="0.5" stroke="black" fill="green"/>
  <circle cx="545.328" cy="593.414" r="5.04988" stroke-width="0.5" stroke="black" fill="green"/>
   </g>
   <g id="cell82">
  <circle cx="532.613" cy="558.629" r="7.5654" stroke-width="0.5" stroke="black" fill="magenta"/>
  <circle cx="532.613" cy="558.629" r="4.59904" stroke-width="0.5" stroke="black" fill="magenta"/>
   </g>
   <g id="cell83">
  <circle cx="635.402" cy="552.215" r="8.18578" stroke-width="0.5" stroke="black" fill="green"/>
  <circle cx="635.402" cy="552.215" r="4.94845" stroke-width="0.5" stroke="black" fill="green"/>
   </g>
   <g id="cell84">
  <circle cx="519.881" cy="493.871" r="8.40557" stroke-width="0.5" stroke="black" fill="cyan"/>
  <circle cx="519.881" cy="493.871" r="5.04951" stroke-width="0.5" stroke="black" fill="cyan"/>
   </g>
   <g id="cell85">
  <circle cx="352.462" cy="542.515" r="8.39144" stroke-width="0.5" stroke="black" fill="cyan"/>
  <circle cx="352.462" cy="542.515" r="5.04465" stroke-width="0.5" stroke="black" fill="cyan"/>
   </g>
   <g id="cell86">
  <circle cx="500.126" cy="535.293" r="8.25859" stroke-width="0.5" stroke="black" fill="magenta"/>
  <circle cx="500.126" cy="535.293" r="4.98518" stroke-width="0.5" stroke="black" fill="magenta"/>
   </g>
   <g id="cell87">
  <circle cx="579.135" cy="558.213" r="8.38257" stroke-width="0.5" stroke="black" fill="cyan"/>
  <circle cx="579.135" cy="558.213" r="5.04126" stroke-width="0.5" stroke="black" fill="cyan"/>
   </g>
   <g id="cell88">
  <circle cx="448.592" cy="530.149" r="8.40353" stroke-width="0.5" stroke="black" fill="magenta"/>
  <circle cx="448.592" cy="530.149" r="5.04881" stroke-width="0.5" stroke="black" fill="magenta"/>
   </g>
   <g id="cell89">
  <circle cx="551.037" cy="452.07" r="7.29267" stroke-width="0.5" stroke="black" fill="cyan"/>
  <circle cx="551.037" cy="452.07" r="4.46283" stroke-width="0.5" stroke="black" fill="cyan"/>
   </g>
   <g id="cell90">
  <circle cx="636.495" cy="472.66" r="8.18881" stroke-width="0.5" stroke="black" fill="green"/>
  <circle cx="636.495" cy="472.66" r="4.95062" stroke-width="0.5" stroke="black" fill="green"/>
   </g>
   <g id="cell91">
  <circle cx="547.239" cy="558.267" r="8.3942" stroke-width="0.5" stroke="black" fill="magenta"/>
  <circle cx="547.239" cy="558.267" r="5.04579" stroke-width="0.5" stroke="black" fill="magenta"/>
   </g>
   <g id="cell92">
  <circle cx="485.002" cy="552.569" r="8.4009" stroke-width="0.5" stroke="black" fill="green"/>
  <circle cx="485.002" cy="552.569" r="5.04788" stroke-width="0.5" stroke="black" fill="green"/>
   </g>
   <g id="cell93">
  <circle cx="538.824" cy="545.765" r="8.3942" stroke-width="0.5" stroke="black" fill="magenta"/>
  <circle cx="538.824" cy="545.765" r="5.04579" stroke-width="0.5" stroke="black" fill="magenta"/>
   </g>
   <g id="cell94">
  <circle cx="539.668" cy="495.823" r="8.39913" stroke-width="0.5" stroke="black" fill="cyan"/>
  <circle cx="539.668" cy="495.823" r="5.04725" stroke-width="0.5" stroke="black" fill="cyan"/>
   </g>
   <g id="cell95">
  <circle cx="465.115" cy="425.669" r="8.39874" stroke-width="0.5" stroke="black" fill="cyan"/>
  <circle cx="465.115" cy="425.669" r="5.04711" stroke-width="0.5" stroke="black" fill="cyan"/>
   </g>
   <g id="cell96">
  <circle cx="545.45" cy="531.848" r="7.98073" stroke-width="0.5" stroke="black" fill="cyan"/>
  <circle cx="545.45" cy="531.848" r="4.83995" stroke-width="0.5" stroke="black" fill="cyan"/>
   </g>
   <g id="cell97">
  <circle cx="421.533" cy="466.461" r="8.38453" stroke-width="0.5" stroke="black" fill="green"/>
  <circle cx="421.533" cy="466.461" r="5.04213" stroke-width="0.5" stroke="black" fill="green"/>
   </g>
   <g id="cell98">
  <circle cx="491.035" cy="522.971" r="8.22558" stroke-width="0.5" stroke="black" fill="green"/>
  <circle cx="491.035" cy="522.971" r="4.96953" stroke-width="0.5" stroke="black" fill="green"/>
   </g>
   <g id="cell99">
  <circle cx="358.329" cy="527.649" r="8.39144" stroke-width="0.5" stroke="black" fill="cyan"/>
  <circle cx="358.329" cy="527.649" r="5.04465" stroke-width="0.5" stroke="black" fill="cyan"/>
   </g>
   <g id="cell100">
  <circle cx="448.832" cy="396.767" r="8.39109" stroke-width="0.5" stroke="black" fill="green"/>
  <circle cx="448.832" cy="396.767" r="5.0444" stroke-width="0.5" stroke="black" fill="green"/>
   </g>
   <g id="cell101">
  <circle cx="530.749" cy="483.225" r="7.93812" stroke-width="0.5" stroke="black" fill="cyan"/>
  <circle cx="530.749" cy="483.225" r="4.81712" stroke-width="0.5" stroke="black" fill="cyan"/>
   </g>
   <g id="cell102">
  <circle cx="435.041" cy="475.021" r="8.38453" stroke-width="0.5" stroke="black" fill="green"/>
  <circle cx="435.041" cy="475.021" r="5.04213" stroke-width="0.5" stroke="black" fill="green"/>
   </g>
   <g id="cell103">
  <circle cx="590.832" cy="447.739" r="8.25489" stroke-width="0.5" stroke="black" fill="cyan"/>
  <circle cx="590.832" cy="447.739" r="4.98431" stroke-width="0.5" stroke="black" fill="cyan"/>
   </g>
   <g id="cell104">
  <circle cx="599.646" cy="556.879" r="7.25238" stroke-width="0.5" stroke="black" fill="cyan"/>
  <circle cx="599.646" cy="556.879" r="4.41099" stroke-width="0.5" stroke="black" fill="cyan"/>
   </g>
   <g id="cell106">
  <circle cx="461.607" cy="440.813" r="8.37868" stroke-width="0.5" stroke="black" fill="magenta"/>
  <circle cx="461.607" cy="440.813" r="5.03953" stroke-width="0.5" stroke="black" fill="magenta"/>
   </g>
   <g id="cell107">
  <circle cx="457.883" cy="383.708" r="8.244" stroke-width="0.5" stroke="black" fill="green"/>
  <circle cx="457.883" cy="383.708" r="4.9803" stroke-width="0.5" stroke="black" fill="green"/>
   </g>
   <g id="cell108">
  <circle cx="555.207" cy="606.192" r="8.37321" stroke-width="0.5" stroke="black" fill="green"/>
  <circle cx="555.207" cy="606.192" r="5.03708" stroke-width="0.5" stroke="black" fill="green"/>
   </g>
   <g id="cell109">
  <circle cx="576.533" cy="589.844" r="8.34981" stroke-width="0.5" stroke="black" fill="green"/>
  <circle cx="576.533" cy="589.844" r="5.02827" stroke-width="0.5" stroke="black" fill="green"/>
   </g>
   <g id="cell110">
  <circle cx="373.602" cy="513.328" r="8.35882" stroke-width="0.5" stroke="black" fill="cyan"/>
  <circle cx="373.602" cy="513.328" r="5.031" stroke-width="0.5" stroke="black" fill="cyan"/>
   </g>
   <g id="cell111">
  <circle cx="455.243" cy="554.634" r="7.92933" stroke-width="0.5" stroke="black" fill="magenta"/>
  <circle cx="455.243" cy="554.634" r="4.81543" stroke-width="0.5" stroke="black" fill="magenta"/>
   </g>
   <g id="cell112">
  <circle cx="498.252" cy="473.05" r="7.20177" stroke-width="0.5" stroke="black" fill="magenta"/>
  <circle cx="498.252" cy="473.05" r="4.38291" stroke-width="0.5" stroke="black" fill="magenta"/>
   </g>
   <g id="cell113">
  <circle cx="542.264" cy="395.065" r="7.45553" stroke-width="0.5" stroke="black" fill="green"/>
  <circle cx="542.264" cy="395.065" r="4.53971" stroke-width="0.5" stroke="black" fill="green"/>
   </g>
   <g id="cell114">
  <circle cx="524.583" cy="446.88" r="8.30763" stroke-width="0.5" stroke="black" fill="cyan"/>
  <circle cx="524.583" cy="446.88" r="5.01006" stroke-width="0.5" stroke="black" fill="cyan"/>
   </g>
   <g id="cell115">
  <circle cx="537.168" cy="455.083" r="8.01985" stroke-width="0.5" stroke="black" fill="cyan"/>
  <circle cx="537.168" cy="455.083" r="4.86776" stroke-width="0.5" stroke="black" fill="cyan"/>
   </g>
   <g id="cell116">
  <circle cx="521.466" cy="520.632" r="8.32424" stroke-width="0.5" stroke="black" fill="cyan"/>
  <circle cx="521.466" cy="520.632" r="5.01618" stroke-width="0.5" stroke="black" fill="cyan"/>
   </g>
   <g id="cell117">
  <circle cx="508.507" cy="622.965" r="8.29516" stroke-width="0.5" stroke="black" fill="green"/>
  <circle cx="508.507" cy="622.965" r="5.00369" stroke-width="0.5" stroke="black" fill="green"/>
   </g>
   <g id="cell118">
  <circle cx="510.269" cy="452.18" r="8.27734" stroke-width="0.5" stroke="black" fill="cyan"/>
  <circle cx="510.269" cy="452.18" r="4.99387" stroke-width="0.5" stroke="black" fill="cyan"/>
   </g>
   <g id="cell119">
  <circle cx="533.04" cy="603.156" r="8.27562" stroke-width="0.5" stroke="black" fill="green"/>
  <circle cx="533.04" cy="603.156" r="4.99336" stroke-width="0.5" stroke="black" fill="green"/>
   </g>
   <g id="cell120">
  <circle cx="575.676" cy="443.91" r="8.25489" stroke-width="0.5" stroke="black" fill="cyan"/>
  <circle cx="575.676" cy="443.91" r="4.98431" stroke-width="0.5" stroke="black" fill="cyan"/>
   </g>
   <g id="cell121">
  <circle cx="451.452" cy="369.612" r="8.07209" stroke-width="0.5" stroke="black" fill="green"/>
  <circle cx="451.452" cy="369.612" r="4.89732" stroke-width="0.5" stroke="black" fill="green"/>
   </g>
   <g id="cell122">
  <circle cx="506.273" cy="521.826" r="8.25859" stroke-width="0.5" stroke="black" fill="magenta"/>
  <circle cx="506.273" cy="521.826" r="4.98518" stroke-width="0.5" stroke="black" fill="magenta"/>
   </g>
   <g id="cell123">
  <circle cx="497.433" cy="508.977" r="8.22558" stroke-width="0.5" stroke="black" fill="green"/>
  <circle cx="497.433" cy="508.977" r="4.96953" stroke-width="0.5" stroke="black" fill="green"/>
   </g>
   <g id="cell124">
  <circle cx="490.49" cy="433.516" r="8.23278" stroke-width="0.5" stroke="black" fill="magenta"/>
  <circle cx="490.49" cy="433.516" r="4.97205" stroke-width="0.5" stroke="black" fill="magenta"/>
   </g>
   <g id="cell125">
  <circle cx="621.689" cy="477.454" r="8.18881" stroke-width="0.5" stroke="black" fill="green"/>
  <circle cx="621.689" cy="477.454" r="4.95062" stroke-width="0.5" stroke="black" fill="green"/>
   </g>
   <g id="cell126">
  <circle cx="628.971" cy="566.389" r="8.18578" stroke-width="0.5" stroke="black" fill="green"/>
  <circle cx="628.971" cy="566.389" r="4.94845" stroke-width="0.5" stroke="black" fill="green"/>
   </g>
   <g id="cell127">
  <circle cx="438.48" cy="361.443" r="8.07209" stroke-width="0.5" stroke="black" fill="green"/>
  <circle cx="438.48" cy="361.443" r="4.89732" stroke-width="0.5" stroke="black" fill="green"/>
   </g>
   <g id="cell128">
  <circle cx="372.668" cy="468.587" r="8.13008" stroke-width="0.5" stroke="black" fill="magenta"/>
  <circle cx="372.668" cy="468.587" r="4.91894" stroke-width="0.5" stroke="black" fill="magenta"/>
   </g>
   <g id="cell129">
  <circle cx="569.302" cy="541.91" r="8.09993" stroke-width="0.5" stroke="black" fill="cyan"/>
  <circle cx="569.302" cy="541.91" r="4.90395" stroke-width="0.5" stroke="black" fill="cyan"/>
   </g>
   <g id="cell130">
  <circle cx="542.382" cy="440.552" r="8.01985" stroke-width="0.5" stroke="black" fill="cyan"/>
  <circle cx="542.382" cy="440.552" r="4.86776" stroke-width="0.5" stroke="black" fill="cyan"/>
   </g>
   <g id="cell131">
  <circle cx="537.129" cy="519.449" r="7.98073" stroke-width="0.5" stroke="black" fill="cyan"/>
  <circle cx="537.129" cy="519.449" r="4.83995" stroke-width="0.5" stroke="black" fill="cyan"/>
   </g>
   <g id="cell132">
  <circle cx="444.808" cy="544.554" r="7.92933" stroke-width="0.5" stroke="black" fill="magenta"/>
  <circle cx="444.808" cy="544.554" r="4.81543" stroke-width="0.5" stroke="black" fill="magenta"/>
   </g>
   <g id="cell133">
  <circle cx="567.768" cy="466.407" r="7.95838" stroke-width="0.5" stroke="black" fill="cyan"/>
  <circle cx="567.768" cy="466.407" r="4.82703" stroke-width="0.5" stroke="black" fill="cyan"/>
   </g>
   <g id="cell134">
  <circle cx="536.774" cy="469.821" r="7.93812" stroke-width="0.5" stroke="black" fill="cyan"/>
  <circle cx="536.774" cy="469.821" r="4.81712" stroke-width="0.5" stroke="black" fill="cyan"/>
   </g>
   <g id="cell135">
  <circle cx="515.184" cy="583.846" r="7.89373" stroke-width="0.5" stroke="black" fill="magenta"/>
  <circle cx="515.184" cy="583.846" r="4.78957" stroke-width="0.5" stroke="black" fill="magenta"/>
   </g>
   <g id="cell136">
  <circle cx="472.912" cy="543.431" r="7.80631" stroke-width="0.5" stroke="black" fill="green"/>
  <circle cx="472.912" cy="543.431" r="4.74137" stroke-width="0.5" stroke="black" fill="green"/>
   </g>
   <g id="cell137">
  <circle cx="493.412" cy="611.59" r="7.63068" stroke-width="0.5" stroke="black" fill="green"/>
  <circle cx="493.412" cy="611.59" r="4.64912" stroke-width="0.5" stroke="black" fill="green"/>
   </g>
   <g id="cell138">
  <circle cx="500.228" cy="410.344" r="7.70049" stroke-width="0.5" stroke="black" fill="green"/>
  <circle cx="500.228" cy="410.344" r="4.67828" stroke-width="0.5" stroke="black" fill="green"/>
   </g>
   <g id="cell139">
  <circle cx="422.065" cy="404.976" r="7.59183" stroke-width="0.5" stroke="black" fill="magenta"/>
  <circle cx="422.065" cy="404.976" r="4.61399" stroke-width="0.5" stroke="black" fill="magenta"/>
   </g>
   <g id="cell140">
  <circle cx="526.387" cy="570.06" r="6.71987" stroke-width="0.5" stroke="black" fill="magenta"/>
  <circle cx="526.387" cy="570.06" r="4.12332" stroke-width="0.5" stroke="black" fill="magenta"/>
   </g>
   <g id="cell141">
  <circle cx="564.41" cy="452.821" r="7.29267" stroke-width="0.5" stroke="black" fill="cyan"/>
  <circle cx="564.41" cy="452.821" r="4.46283" stroke-width="0.5" stroke="black" fill="cyan"/>
   </g>
   <g id="cell142">
  <circle cx="549.943" cy="418.279" r="6.85229" stroke-width="0.5" stroke="black" fill="green"/>
  <circle cx="549.943" cy="418.279" r="4.20856" stroke-width="0.5" stroke="black" fill="green"/>
   </g>
   <g id="cell143">
  <circle cx="434.628" cy="408.894" r="6.99346" stroke-width="0.5" stroke="black" fill="magenta"/>
  <circle cx="434.628" cy="408.894" r="4.28873" stroke-width="0.5" stroke="black" fill="magenta"/>
   </g>
   <g id="cell144">
  <circle cx="541.845" cy="408.35" r="6.85229" stroke-width="0.5" stroke="black" fill="green"/>
  <circle cx="541.845" cy="408.35" r="4.20856" stroke-width="0.5" stroke="black" fill="green"/>
   </g>
   <g id="cell146">
  <circle cx="589.267" cy="549.706" r="2.85435" stroke-width="0.5" stroke="black" fill="cyan"/>
  <circle cx="589.267" cy="549.706" r="2.21056" stroke-width="0.5" stroke="black" fill="black"/>
   </g>
   <g id="cell147">
  <circle cx="519.796" cy="559.972" r="6.71987" stroke-width="0.5" stroke="black" fill="magenta"/>
  <circle cx="519.796" cy="559.972" r="4.12332" stroke-width="0.5" stroke="black" fill="magenta"/>
   </g>
   <g id="cell148">
  <circle cx="508.968" cy="466.087" r="7.20177" stroke-width="0.5" stroke="black" fill="magenta"/>
  <circle cx="508.968" cy="466.087" r="4.38291" stroke-width="0.5" stroke="black" fill="magenta"/>
   </g>
   <g id="cell149">
  <circle cx="577.437" cy="397.839" r="6.95901" stroke-width="0.5" stroke="black" fill="magenta"/>
  <circle cx="577.437" cy="397.839" r="4.21341" stroke-width="0.5" stroke="black" fill="magenta"/>
   </g>
   <g id="cell150">
  <circle cx="398.472" cy="581.066" r="6.83713" stroke-width="0.5" stroke="black" fill="green"/>
  <circle cx="398.472" cy="581.066" r="4.12773" stroke-width="0.5" stroke="black" fill="green"/>
   </g>
   <g id="cell151">
  <circle cx="422.738" cy="531.549" r="6.73287" stroke-width="0.5" stroke="black" fill="green"/>
  <circle cx="422.738" cy="531.549" r="4.05039" stroke-width="0.5" stroke="black" fill="green"/>
   </g>
   <g id="cell152">
  <circle cx="382.132" cy="579.012" r="5.45037" stroke-width="0.5" stroke="black" fill="green"/>
  <circle cx="382.132" cy="579.012" r="3.29261" stroke-width="0.5" stroke="black" fill="green"/>
   </g>
  </g>
 </g>
  <rect x="775" y="1035" width="200" height="10" stroke-width="2" stroke="rgb(255,255,255)" fill="rgb(0,0,0)"/>
  <text x="781.25" y="1028.75"
   font-family="Arial" font-size="25" fill="black" >
   200 &#956;m
  </text>
  <text x="25" y="1045"
   font-family="Arial" font-size="18.75" fill="black" >
   0 days, 0 hours, 0 minutes, and 29.1061 seconds
  </text>
  <rect x="0" y="70" width="1000" height="1000" stroke-width="2" stroke="rgb(0,0,0)" fill="none"/>
</svg>
