<?xml version="1.0" encoding="UTF-8" standalone="no"?>
<!-- Created with PhysiCell (http://PhysiCell.MathCancer.org/) -->
<svg 
 xmlns:dc="http://purl.org/dc/elements/1.1/" 
 xmlns:cc="http://creativecommons.org/ns#" 
 xmlns:rdf="http://www.w3.org/1999/02/22-rdf-syntax-ns#" 
 xmlns:svg="http://www.w3.org/2000/svg" 
 xmlns="http://www.w3.org/2000/svg" 
 version="1.1" 
 width="1000" 
 height="1070" 
 id="svg2">
  <rect x="0" y="0" width="1000" height="1070" stroke-width="2" stroke="white" fill="white"/>
  <text x="12.5" y="30"
   font-family="Arial" font-size="25" fill="black" >
   Current time: 1 days, 2 hours, and 9.00 minutes, z = 0.00 &#956;m
  </text>
  <text x="12.5" y="57.5"
   font-family="Arial" font-size="23.75" fill="black" >
   160 agents
  </text>
 <g id="tissue" 
    transform="translate(0,1070) scale(1,-1)">
  <g id="ECM">
  </g>
  <g id="cells">
   <g id="cell0">
  <circle cx="514.965" cy="534.657" r="8.40801" stroke-width="0.5" stroke="black" fill="magenta"/>
  <circle cx="514.965" cy="534.657" r="5.05031" stroke-width="0.5" stroke="black" fill="magenta"/>
   </g>
   <g id="cell1">
  <circle cx="601.482" cy="523.164" r="8.41271" stroke-width="0.5" stroke="black" fill="magenta"/>
  <circle cx="601.482" cy="523.164" r="5.05167" stroke-width="0.5" stroke="black" fill="magenta"/>
   </g>
   <g id="cell2">
  <circle cx="518.976" cy="597.464" r="8.41271" stroke-width="0.5" stroke="black" fill="magenta"/>
  <circle cx="518.976" cy="597.464" r="5.05167" stroke-width="0.5" stroke="black" fill="magenta"/>
   </g>
   <g id="cell3">
  <circle cx="523.724" cy="547.439" r="8.40503" stroke-width="0.5" stroke="black" fill="magenta"/>
  <circle cx="523.724" cy="547.439" r="5.04941" stroke-width="0.5" stroke="black" fill="magenta"/>
   </g>
   <g id="cell4">
  <circle cx="485.835" cy="448.152" r="8.30519" stroke-width="0.5" stroke="black" fill="magenta"/>
  <circle cx="485.835" cy="448.152" r="5.00701" stroke-width="0.5" stroke="black" fill="magenta"/>
   </g>
   <g id="cell5">
  <circle cx="465.032" cy="493.3" r="8.41271" stroke-width="0.5" stroke="black" fill="magenta"/>
  <circle cx="465.032" cy="493.3" r="5.05167" stroke-width="0.5" stroke="black" fill="magenta"/>
   </g>
   <g id="cell6">
  <circle cx="597.193" cy="515.606" r="1.23626" stroke-width="0.5" stroke="black" fill="magenta"/>
  <circle cx="597.193" cy="515.606" r="1.23068" stroke-width="0.5" stroke="black" fill="black"/>
   </g>
   <g id="cell7">
  <circle cx="495.909" cy="459.172" r="8.37641" stroke-width="0.5" stroke="black" fill="magenta"/>
  <circle cx="495.909" cy="459.172" r="5.0384" stroke-width="0.5" stroke="black" fill="magenta"/>
   </g>
   <g id="cell8">
  <circle cx="376.406" cy="542.856" r="8.41271" stroke-width="0.5" stroke="black" fill="magenta"/>
  <circle cx="376.406" cy="542.856" r="5.05167" stroke-width="0.5" stroke="black" fill="magenta"/>
   </g>
   <g id="cell9">
  <circle cx="460.472" cy="599.786" r="1.28243" stroke-width="0.5" stroke="black" fill="magenta"/>
  <circle cx="460.472" cy="599.786" r="1.27531" stroke-width="0.5" stroke="black" fill="black"/>
   </g>
   <g id="cell10">
  <circle cx="586.785" cy="388.917" r="7.49456" stroke-width="0.5" stroke="black" fill="magenta"/>
  <circle cx="586.785" cy="388.917" r="4.55548" stroke-width="0.5" stroke="black" fill="magenta"/>
   </g>
   <g id="cell11">
  <circle cx="592.083" cy="590.052" r="8.41271" stroke-width="0.5" stroke="black" fill="magenta"/>
  <circle cx="592.083" cy="590.052" r="5.05167" stroke-width="0.5" stroke="black" fill="magenta"/>
   </g>
   <g id="cell12">
  <circle cx="505.092" cy="592.359" r="8.10448" stroke-width="0.5" stroke="black" fill="magenta"/>
  <circle cx="505.092" cy="592.359" r="4.90539" stroke-width="0.5" stroke="black" fill="magenta"/>
   </g>
   <g id="cell13">
  <circle cx="389.264" cy="569.64" r="8.41271" stroke-width="0.5" stroke="black" fill="magenta"/>
  <circle cx="389.264" cy="569.64" r="5.05167" stroke-width="0.5" stroke="black" fill="magenta"/>
   </g>
   <g id="cell14">
  <circle cx="522.994" cy="403.222" r="8.41271" stroke-width="0.5" stroke="black" fill="magenta"/>
  <circle cx="522.994" cy="403.222" r="5.05167" stroke-width="0.5" stroke="black" fill="magenta"/>
   </g>
   <g id="cell15">
  <circle cx="382.647" cy="478.56" r="8.24438" stroke-width="0.5" stroke="black" fill="magenta"/>
  <circle cx="382.647" cy="478.56" r="4.97746" stroke-width="0.5" stroke="black" fill="magenta"/>
   </g>
   <g id="cell16">
  <circle cx="437.832" cy="421.695" r="7.35454" stroke-width="0.5" stroke="black" fill="magenta"/>
  <circle cx="437.832" cy="421.695" r="4.51118" stroke-width="0.5" stroke="black" fill="magenta"/>
   </g>
   <g id="cell17">
  <circle cx="571.175" cy="496.073" r="8.41271" stroke-width="0.5" stroke="black" fill="magenta"/>
  <circle cx="571.175" cy="496.073" r="5.05167" stroke-width="0.5" stroke="black" fill="magenta"/>
   </g>
   <g id="cell18">
  <circle cx="517.837" cy="388.865" r="8.41271" stroke-width="0.5" stroke="black" fill="magenta"/>
  <circle cx="517.837" cy="388.865" r="5.05167" stroke-width="0.5" stroke="black" fill="magenta"/>
   </g>
   <g id="cell19">
  <circle cx="458.048" cy="540.535" r="8.3756" stroke-width="0.5" stroke="black" fill="magenta"/>
  <circle cx="458.048" cy="540.535" r="5.03838" stroke-width="0.5" stroke="black" fill="magenta"/>
   </g>
   <g id="cell20">
  <circle cx="531.616" cy="415.809" r="8.41271" stroke-width="0.5" stroke="black" fill="magenta"/>
  <circle cx="531.616" cy="415.809" r="5.05167" stroke-width="0.5" stroke="black" fill="magenta"/>
   </g>
   <g id="cell21">
  <circle cx="466.84" cy="632.304" r="8.41271" stroke-width="0.5" stroke="black" fill="magenta"/>
  <circle cx="466.84" cy="632.304" r="5.05167" stroke-width="0.5" stroke="black" fill="magenta"/>
   </g>
   <g id="cell22">
  <circle cx="555.733" cy="496.244" r="8.41271" stroke-width="0.5" stroke="black" fill="magenta"/>
  <circle cx="555.733" cy="496.244" r="5.05167" stroke-width="0.5" stroke="black" fill="magenta"/>
   </g>
   <g id="cell23">
  <circle cx="548.637" cy="482.12" r="8.41271" stroke-width="0.5" stroke="black" fill="magenta"/>
  <circle cx="548.637" cy="482.12" r="5.05167" stroke-width="0.5" stroke="black" fill="magenta"/>
   </g>
   <g id="cell24">
  <circle cx="558.587" cy="381.288" r="8.41271" stroke-width="0.5" stroke="black" fill="magenta"/>
  <circle cx="558.587" cy="381.288" r="5.05167" stroke-width="0.5" stroke="black" fill="magenta"/>
   </g>
   <g id="cell25">
  <circle cx="648.404" cy="543.086" r="8.40978" stroke-width="0.5" stroke="black" fill="green"/>
  <circle cx="648.404" cy="543.086" r="5.05086" stroke-width="0.5" stroke="black" fill="green"/>
   </g>
   <g id="cell26">
  <circle cx="557.263" cy="396.81" r="8.37537" stroke-width="0.5" stroke="black" fill="green"/>
  <circle cx="557.263" cy="396.81" r="5.03798" stroke-width="0.5" stroke="black" fill="green"/>
   </g>
   <g id="cell27">
  <circle cx="464.353" cy="398.643" r="8.41088" stroke-width="0.5" stroke="black" fill="green"/>
  <circle cx="464.353" cy="398.643" r="5.05119" stroke-width="0.5" stroke="black" fill="green"/>
   </g>
   <g id="cell28">
  <circle cx="434.734" cy="534.818" r="7.27253" stroke-width="0.5" stroke="black" fill="green"/>
  <circle cx="434.734" cy="534.818" r="4.41835" stroke-width="0.5" stroke="black" fill="green"/>
   </g>
   <g id="cell29">
  <circle cx="449.684" cy="514.154" r="8.41271" stroke-width="0.5" stroke="black" fill="green"/>
  <circle cx="449.684" cy="514.154" r="5.05167" stroke-width="0.5" stroke="black" fill="green"/>
   </g>
   <g id="cell30">
  <circle cx="485.036" cy="537.024" r="8.05261" stroke-width="0.5" stroke="black" fill="green"/>
  <circle cx="485.036" cy="537.024" r="4.87844" stroke-width="0.5" stroke="black" fill="green"/>
   </g>
   <g id="cell31">
  <circle cx="412.152" cy="542.325" r="8.41271" stroke-width="0.5" stroke="black" fill="green"/>
  <circle cx="412.152" cy="542.325" r="5.05167" stroke-width="0.5" stroke="black" fill="green"/>
   </g>
   <g id="cell32">
  <circle cx="421.367" cy="481.396" r="1.54412" stroke-width="0.5" stroke="black" fill="green"/>
  <circle cx="421.367" cy="481.396" r="1.52039" stroke-width="0.5" stroke="black" fill="black"/>
   </g>
   <g id="cell33">
  <circle cx="502.016" cy="424.696" r="7.98892" stroke-width="0.5" stroke="black" fill="green"/>
  <circle cx="502.016" cy="424.696" r="4.84272" stroke-width="0.5" stroke="black" fill="green"/>
   </g>
   <g id="cell34">
  <circle cx="396.819" cy="450.575" r="1.58878" stroke-width="0.5" stroke="black" fill="green"/>
  <circle cx="396.819" cy="450.575" r="1.56061" stroke-width="0.5" stroke="black" fill="black"/>
   </g>
   <g id="cell35">
  <circle cx="554.353" cy="544.834" r="8.41271" stroke-width="0.5" stroke="black" fill="green"/>
  <circle cx="554.353" cy="544.834" r="5.05167" stroke-width="0.5" stroke="black" fill="green"/>
   </g>
   <g id="cell36">
  <circle cx="387.815" cy="582.694" r="5.87209" stroke-width="0.5" stroke="black" fill="green"/>
  <circle cx="387.815" cy="582.694" r="3.63095" stroke-width="0.5" stroke="black" fill="green"/>
   </g>
   <g id="cell37">
  <circle cx="640.16" cy="457.195" r="8.41061" stroke-width="0.5" stroke="black" fill="green"/>
  <circle cx="640.16" cy="457.195" r="5.05111" stroke-width="0.5" stroke="black" fill="green"/>
   </g>
   <g id="cell38">
  <circle cx="530.649" cy="586.842" r="8.41023" stroke-width="0.5" stroke="black" fill="green"/>
  <circle cx="530.649" cy="586.842" r="5.051" stroke-width="0.5" stroke="black" fill="green"/>
   </g>
   <g id="cell39">
  <circle cx="613.27" cy="490.983" r="8.41271" stroke-width="0.5" stroke="black" fill="green"/>
  <circle cx="613.27" cy="490.983" r="5.05167" stroke-width="0.5" stroke="black" fill="green"/>
   </g>
   <g id="cell40">
  <circle cx="485.779" cy="566.785" r="7.08639" stroke-width="0.5" stroke="black" fill="green"/>
  <circle cx="485.779" cy="566.785" r="4.29876" stroke-width="0.5" stroke="black" fill="green"/>
   </g>
   <g id="cell41">
  <circle cx="365.912" cy="481.908" r="8.41271" stroke-width="0.5" stroke="black" fill="green"/>
  <circle cx="365.912" cy="481.908" r="5.05167" stroke-width="0.5" stroke="black" fill="green"/>
   </g>
   <g id="cell42">
  <circle cx="438.61" cy="493.093" r="8.41271" stroke-width="0.5" stroke="black" fill="green"/>
  <circle cx="438.61" cy="493.093" r="5.05167" stroke-width="0.5" stroke="black" fill="green"/>
   </g>
   <g id="cell43">
  <circle cx="560.615" cy="438.013" r="8.41271" stroke-width="0.5" stroke="black" fill="green"/>
  <circle cx="560.615" cy="438.013" r="5.05167" stroke-width="0.5" stroke="black" fill="green"/>
   </g>
   <g id="cell44">
  <circle cx="473.386" cy="626.291" r="1.28243" stroke-width="0.5" stroke="black" fill="green"/>
  <circle cx="473.386" cy="626.291" r="1.27531" stroke-width="0.5" stroke="black" fill="black"/>
   </g>
   <g id="cell145">
  <circle cx="425.316" cy="417.736" r="7.35454" stroke-width="0.5" stroke="black" fill="magenta"/>
  <circle cx="425.316" cy="417.736" r="4.51118" stroke-width="0.5" stroke="black" fill="magenta"/>
   </g>
   <g id="cell46">
  <circle cx="521.32" cy="613.113" r="8.39618" stroke-width="0.5" stroke="black" fill="green"/>
  <circle cx="521.32" cy="613.113" r="5.04616" stroke-width="0.5" stroke="black" fill="green"/>
   </g>
   <g id="cell47">
  <circle cx="503.29" cy="494.57" r="8.40244" stroke-width="0.5" stroke="black" fill="green"/>
  <circle cx="503.29" cy="494.57" r="5.04843" stroke-width="0.5" stroke="black" fill="green"/>
   </g>
   <g id="cell48">
  <circle cx="570.985" cy="604.805" r="8.37486" stroke-width="0.5" stroke="black" fill="green"/>
  <circle cx="570.985" cy="604.805" r="5.03842" stroke-width="0.5" stroke="black" fill="green"/>
   </g>
   <g id="cell49">
  <circle cx="432.186" cy="394.119" r="8.41271" stroke-width="0.5" stroke="black" fill="green"/>
  <circle cx="432.186" cy="394.119" r="5.05167" stroke-width="0.5" stroke="black" fill="green"/>
   </g>
   <g id="cell50">
  <circle cx="512.564" cy="507.833" r="8.35959" stroke-width="0.5" stroke="black" fill="cyan"/>
  <circle cx="512.564" cy="507.833" r="5.03164" stroke-width="0.5" stroke="black" fill="cyan"/>
   </g>
   <g id="cell51">
  <circle cx="401.372" cy="597.228" r="8.41271" stroke-width="0.5" stroke="black" fill="cyan"/>
  <circle cx="401.372" cy="597.228" r="5.05167" stroke-width="0.5" stroke="black" fill="cyan"/>
   </g>
   <g id="cell52">
  <circle cx="516.641" cy="419.811" r="8.41271" stroke-width="0.5" stroke="black" fill="cyan"/>
  <circle cx="516.641" cy="419.811" r="5.05167" stroke-width="0.5" stroke="black" fill="cyan"/>
   </g>
   <g id="cell53">
  <circle cx="572.37" cy="427.333" r="8.39874" stroke-width="0.5" stroke="black" fill="cyan"/>
  <circle cx="572.37" cy="427.333" r="5.04711" stroke-width="0.5" stroke="black" fill="cyan"/>
   </g>
   <g id="cell54">
  <circle cx="480.509" cy="422.115" r="8.40427" stroke-width="0.5" stroke="black" fill="cyan"/>
  <circle cx="480.509" cy="422.115" r="5.04906" stroke-width="0.5" stroke="black" fill="cyan"/>
   </g>
   <g id="cell55">
  <circle cx="522.251" cy="461.624" r="8.39939" stroke-width="0.5" stroke="black" fill="cyan"/>
  <circle cx="522.251" cy="461.624" r="5.04745" stroke-width="0.5" stroke="black" fill="cyan"/>
   </g>
   <g id="cell56">
  <circle cx="617.067" cy="522.403" r="8.41271" stroke-width="0.5" stroke="black" fill="cyan"/>
  <circle cx="617.067" cy="522.403" r="5.05167" stroke-width="0.5" stroke="black" fill="cyan"/>
   </g>
   <g id="cell105">
  <circle cx="507.16" cy="607.115" r="7.94998" stroke-width="0.5" stroke="black" fill="green"/>
  <circle cx="507.16" cy="607.115" r="4.82754" stroke-width="0.5" stroke="black" fill="green"/>
   </g>
   <g id="cell58">
  <circle cx="563.097" cy="484.641" r="7.1497" stroke-width="0.5" stroke="black" fill="cyan"/>
  <circle cx="563.097" cy="484.641" r="4.34001" stroke-width="0.5" stroke="black" fill="cyan"/>
   </g>
   <g id="cell59">
  <circle cx="385.732" cy="440.058" r="8.41271" stroke-width="0.5" stroke="black" fill="cyan"/>
  <circle cx="385.732" cy="440.058" r="5.05167" stroke-width="0.5" stroke="black" fill="cyan"/>
   </g>
   <g id="cell60">
  <circle cx="591.605" cy="474.045" r="8.41271" stroke-width="0.5" stroke="black" fill="cyan"/>
  <circle cx="591.605" cy="474.045" r="5.05167" stroke-width="0.5" stroke="black" fill="cyan"/>
   </g>
   <g id="cell61">
  <circle cx="557.056" cy="621.932" r="2.2615" stroke-width="0.5" stroke="black" fill="cyan"/>
  <circle cx="557.056" cy="621.932" r="2.07535" stroke-width="0.5" stroke="black" fill="black"/>
   </g>
   <g id="cell62">
  <circle cx="512.695" cy="435.709" r="8.33166" stroke-width="0.5" stroke="black" fill="cyan"/>
  <circle cx="512.695" cy="435.709" r="5.01917" stroke-width="0.5" stroke="black" fill="cyan"/>
   </g>
   <g id="cell63">
  <circle cx="585.174" cy="539.778" r="8.22658" stroke-width="0.5" stroke="black" fill="cyan"/>
  <circle cx="585.174" cy="539.778" r="4.96913" stroke-width="0.5" stroke="black" fill="cyan"/>
   </g>
   <g id="cell64">
  <circle cx="509.682" cy="638.688" r="8.41271" stroke-width="0.5" stroke="black" fill="cyan"/>
  <circle cx="509.682" cy="638.688" r="5.05167" stroke-width="0.5" stroke="black" fill="cyan"/>
   </g>
   <g id="cell65">
  <circle cx="548.762" cy="464.517" r="8.407" stroke-width="0.5" stroke="black" fill="cyan"/>
  <circle cx="548.762" cy="464.517" r="5.04998" stroke-width="0.5" stroke="black" fill="cyan"/>
   </g>
   <g id="cell66">
  <circle cx="530.346" cy="533.423" r="8.40378" stroke-width="0.5" stroke="black" fill="cyan"/>
  <circle cx="530.346" cy="533.423" r="5.0489" stroke-width="0.5" stroke="black" fill="cyan"/>
   </g>
   <g id="cell67">
  <circle cx="354.246" cy="493.234" r="8.41271" stroke-width="0.5" stroke="black" fill="cyan"/>
  <circle cx="354.246" cy="493.234" r="5.05167" stroke-width="0.5" stroke="black" fill="cyan"/>
   </g>
   <g id="cell68">
  <circle cx="562.988" cy="557.961" r="8.41271" stroke-width="0.5" stroke="black" fill="cyan"/>
  <circle cx="562.988" cy="557.961" r="5.05167" stroke-width="0.5" stroke="black" fill="cyan"/>
   </g>
   <g id="cell69">
  <circle cx="441.994" cy="460.797" r="8.41271" stroke-width="0.5" stroke="black" fill="cyan"/>
  <circle cx="441.994" cy="460.797" r="5.05167" stroke-width="0.5" stroke="black" fill="cyan"/>
   </g>
   <g id="cell70">
  <circle cx="577.242" cy="481.236" r="8.41271" stroke-width="0.5" stroke="black" fill="cyan"/>
  <circle cx="577.242" cy="481.236" r="5.05167" stroke-width="0.5" stroke="black" fill="cyan"/>
   </g>
   <g id="cell71">
  <circle cx="380.288" cy="527.781" r="8.38028" stroke-width="0.5" stroke="black" fill="cyan"/>
  <circle cx="380.288" cy="527.781" r="5.03997" stroke-width="0.5" stroke="black" fill="cyan"/>
   </g>
   <g id="cell72">
  <circle cx="528.493" cy="506.367" r="8.4045" stroke-width="0.5" stroke="black" fill="cyan"/>
  <circle cx="528.493" cy="506.367" r="5.04914" stroke-width="0.5" stroke="black" fill="cyan"/>
   </g>
   <g id="cell73">
  <circle cx="364.555" cy="552.992" r="8.40814" stroke-width="0.5" stroke="black" fill="cyan"/>
  <circle cx="364.555" cy="552.992" r="5.05035" stroke-width="0.5" stroke="black" fill="cyan"/>
   </g>
   <g id="cell74">
  <circle cx="548.389" cy="434.094" r="1.20889" stroke-width="0.5" stroke="black" fill="cyan"/>
  <circle cx="548.389" cy="434.094" r="1.2036" stroke-width="0.5" stroke="black" fill="black"/>
   </g>
   <g id="cell75">
  <circle cx="527.943" cy="430.844" r="8.41093" stroke-width="0.5" stroke="black" fill="cyan"/>
  <circle cx="527.943" cy="430.844" r="5.0512" stroke-width="0.5" stroke="black" fill="cyan"/>
   </g>
   <g id="cell76">
  <circle cx="440.511" cy="381.547" r="8.38604" stroke-width="0.5" stroke="black" fill="green"/>
  <circle cx="440.511" cy="381.547" r="5.04273" stroke-width="0.5" stroke="black" fill="green"/>
   </g>
   <g id="cell77">
  <circle cx="475.774" cy="436.992" r="8.39219" stroke-width="0.5" stroke="black" fill="magenta"/>
  <circle cx="475.774" cy="436.992" r="5.04477" stroke-width="0.5" stroke="black" fill="magenta"/>
   </g>
   <g id="cell78">
  <circle cx="624.864" cy="461.933" r="8.40595" stroke-width="0.5" stroke="black" fill="green"/>
  <circle cx="624.864" cy="461.933" r="5.0497" stroke-width="0.5" stroke="black" fill="green"/>
   </g>
   <g id="cell79">
  <circle cx="516.767" cy="478.1" r="8.41036" stroke-width="0.5" stroke="black" fill="cyan"/>
  <circle cx="516.767" cy="478.1" r="5.05104" stroke-width="0.5" stroke="black" fill="cyan"/>
   </g>
   <g id="cell80">
  <circle cx="542.624" cy="615.809" r="8.33063" stroke-width="0.5" stroke="black" fill="green"/>
  <circle cx="542.624" cy="615.809" r="5.01888" stroke-width="0.5" stroke="black" fill="green"/>
   </g>
   <g id="cell81">
  <circle cx="545.609" cy="592.86" r="8.40892" stroke-width="0.5" stroke="black" fill="green"/>
  <circle cx="545.609" cy="592.86" r="5.05064" stroke-width="0.5" stroke="black" fill="green"/>
   </g>
   <g id="cell82">
  <circle cx="532.441" cy="559.593" r="7.90687" stroke-width="0.5" stroke="black" fill="magenta"/>
  <circle cx="532.441" cy="559.593" r="4.79743" stroke-width="0.5" stroke="black" fill="magenta"/>
   </g>
   <g id="cell83">
  <circle cx="635.371" cy="552.152" r="8.27734" stroke-width="0.5" stroke="black" fill="green"/>
  <circle cx="635.371" cy="552.152" r="4.99387" stroke-width="0.5" stroke="black" fill="green"/>
   </g>
   <g id="cell84">
  <circle cx="519.052" cy="493.7" r="8.40839" stroke-width="0.5" stroke="black" fill="cyan"/>
  <circle cx="519.052" cy="493.7" r="5.05043" stroke-width="0.5" stroke="black" fill="cyan"/>
   </g>
   <g id="cell85">
  <circle cx="352.452" cy="542.518" r="8.39986" stroke-width="0.5" stroke="black" fill="cyan"/>
  <circle cx="352.452" cy="542.518" r="5.04767" stroke-width="0.5" stroke="black" fill="cyan"/>
   </g>
   <g id="cell86">
  <circle cx="500.026" cy="535.553" r="8.32051" stroke-width="0.5" stroke="black" fill="magenta"/>
  <circle cx="500.026" cy="535.553" r="5.01432" stroke-width="0.5" stroke="black" fill="magenta"/>
   </g>
   <g id="cell87">
  <circle cx="578.911" cy="557.312" r="8.39452" stroke-width="0.5" stroke="black" fill="cyan"/>
  <circle cx="578.911" cy="557.312" r="5.04575" stroke-width="0.5" stroke="black" fill="cyan"/>
   </g>
   <g id="cell88">
  <circle cx="447.273" cy="533.659" r="6.05112" stroke-width="0.5" stroke="black" fill="magenta"/>
  <circle cx="447.273" cy="533.659" r="3.70701" stroke-width="0.5" stroke="black" fill="magenta"/>
   </g>
   <g id="cell89">
  <circle cx="551.122" cy="449.83" r="7.75786" stroke-width="0.5" stroke="black" fill="cyan"/>
  <circle cx="551.122" cy="449.83" r="4.72753" stroke-width="0.5" stroke="black" fill="cyan"/>
   </g>
   <g id="cell90">
  <circle cx="636.59" cy="472.669" r="8.27914" stroke-width="0.5" stroke="black" fill="green"/>
  <circle cx="636.59" cy="472.669" r="4.99508" stroke-width="0.5" stroke="black" fill="green"/>
   </g>
   <g id="cell91">
  <circle cx="547.253" cy="558.727" r="8.40152" stroke-width="0.5" stroke="black" fill="magenta"/>
  <circle cx="547.253" cy="558.727" r="5.04831" stroke-width="0.5" stroke="black" fill="magenta"/>
   </g>
   <g id="cell92">
  <circle cx="486.186" cy="552.342" r="8.40557" stroke-width="0.5" stroke="black" fill="green"/>
  <circle cx="486.186" cy="552.342" r="5.04951" stroke-width="0.5" stroke="black" fill="green"/>
   </g>
   <g id="cell93">
  <circle cx="538.86" cy="546.223" r="8.40152" stroke-width="0.5" stroke="black" fill="magenta"/>
  <circle cx="538.86" cy="546.223" r="5.04831" stroke-width="0.5" stroke="black" fill="magenta"/>
   </g>
   <g id="cell94">
  <circle cx="540.611" cy="496.107" r="8.4045" stroke-width="0.5" stroke="black" fill="cyan"/>
  <circle cx="540.611" cy="496.107" r="5.04914" stroke-width="0.5" stroke="black" fill="cyan"/>
   </g>
   <g id="cell95">
  <circle cx="464.956" cy="425.829" r="8.40427" stroke-width="0.5" stroke="black" fill="cyan"/>
  <circle cx="464.956" cy="425.829" r="5.04906" stroke-width="0.5" stroke="black" fill="cyan"/>
   </g>
   <g id="cell96">
  <circle cx="545.723" cy="532.104" r="8.15616" stroke-width="0.5" stroke="black" fill="cyan"/>
  <circle cx="545.723" cy="532.104" r="4.93356" stroke-width="0.5" stroke="black" fill="cyan"/>
   </g>
   <g id="cell97">
  <circle cx="421.665" cy="466.546" r="8.3957" stroke-width="0.5" stroke="black" fill="green"/>
  <circle cx="421.665" cy="466.546" r="5.04624" stroke-width="0.5" stroke="black" fill="green"/>
   </g>
   <g id="cell98">
  <circle cx="490.923" cy="523.098" r="8.30092" stroke-width="0.5" stroke="black" fill="green"/>
  <circle cx="490.923" cy="523.098" r="5.0056" stroke-width="0.5" stroke="black" fill="green"/>
   </g>
   <g id="cell99">
  <circle cx="358.332" cy="527.64" r="8.39986" stroke-width="0.5" stroke="black" fill="cyan"/>
  <circle cx="358.332" cy="527.64" r="5.04767" stroke-width="0.5" stroke="black" fill="cyan"/>
   </g>
   <g id="cell100">
  <circle cx="447.526" cy="398.474" r="8.39965" stroke-width="0.5" stroke="black" fill="green"/>
  <circle cx="447.526" cy="398.474" r="5.04752" stroke-width="0.5" stroke="black" fill="green"/>
   </g>
   <g id="cell101">
  <circle cx="531.163" cy="484.327" r="8.13102" stroke-width="0.5" stroke="black" fill="cyan"/>
  <circle cx="531.163" cy="484.327" r="4.92087" stroke-width="0.5" stroke="black" fill="cyan"/>
   </g>
   <g id="cell102">
  <circle cx="435.1" cy="475.308" r="8.3957" stroke-width="0.5" stroke="black" fill="green"/>
  <circle cx="435.1" cy="475.308" r="5.04624" stroke-width="0.5" stroke="black" fill="green"/>
   </g>
   <g id="cell103">
  <circle cx="591.142" cy="447.826" r="8.31831" stroke-width="0.5" stroke="black" fill="cyan"/>
  <circle cx="591.142" cy="447.826" r="5.01383" stroke-width="0.5" stroke="black" fill="cyan"/>
   </g>
   <g id="cell104">
  <circle cx="599.646" cy="556.879" r="7.70977" stroke-width="0.5" stroke="black" fill="cyan"/>
  <circle cx="599.646" cy="556.879" r="4.68633" stroke-width="0.5" stroke="black" fill="cyan"/>
   </g>
   <g id="cell106">
  <circle cx="461.24" cy="440.966" r="8.39219" stroke-width="0.5" stroke="black" fill="magenta"/>
  <circle cx="461.24" cy="440.966" r="5.04477" stroke-width="0.5" stroke="black" fill="magenta"/>
   </g>
   <g id="cell107">
  <circle cx="458.868" cy="388.135" r="5.36608" stroke-width="0.5" stroke="black" fill="green"/>
  <circle cx="458.868" cy="388.135" r="3.25178" stroke-width="0.5" stroke="black" fill="green"/>
   </g>
   <g id="cell108">
  <circle cx="555.042" cy="605.842" r="8.38891" stroke-width="0.5" stroke="black" fill="green"/>
  <circle cx="555.042" cy="605.842" r="5.0434" stroke-width="0.5" stroke="black" fill="green"/>
   </g>
   <g id="cell109">
  <circle cx="576.521" cy="589.846" r="8.37486" stroke-width="0.5" stroke="black" fill="green"/>
  <circle cx="576.521" cy="589.846" r="5.03842" stroke-width="0.5" stroke="black" fill="green"/>
   </g>
   <g id="cell110">
  <circle cx="373.588" cy="513.298" r="8.38028" stroke-width="0.5" stroke="black" fill="cyan"/>
  <circle cx="373.588" cy="513.298" r="5.03997" stroke-width="0.5" stroke="black" fill="cyan"/>
   </g>
   <g id="cell111">
  <circle cx="455.084" cy="555.032" r="8.12619" stroke-width="0.5" stroke="black" fill="magenta"/>
  <circle cx="455.084" cy="555.032" r="4.9201" stroke-width="0.5" stroke="black" fill="magenta"/>
   </g>
   <g id="cell112">
  <circle cx="496.89" cy="473.672" r="7.67886" stroke-width="0.5" stroke="black" fill="magenta"/>
  <circle cx="496.89" cy="473.672" r="4.67008" stroke-width="0.5" stroke="black" fill="magenta"/>
   </g>
   <g id="cell113">
  <circle cx="542.769" cy="391.835" r="7.84152" stroke-width="0.5" stroke="black" fill="green"/>
  <circle cx="542.769" cy="391.835" r="4.76403" stroke-width="0.5" stroke="black" fill="green"/>
   </g>
   <g id="cell114">
  <circle cx="524.329" cy="446.067" r="8.34966" stroke-width="0.5" stroke="black" fill="cyan"/>
  <circle cx="524.329" cy="446.067" r="5.0282" stroke-width="0.5" stroke="black" fill="cyan"/>
   </g>
   <g id="cell115">
  <circle cx="536.85" cy="454.752" r="8.17976" stroke-width="0.5" stroke="black" fill="cyan"/>
  <circle cx="536.85" cy="454.752" r="4.94926" stroke-width="0.5" stroke="black" fill="cyan"/>
   </g>
   <g id="cell116">
  <circle cx="521.576" cy="520.58" r="8.35959" stroke-width="0.5" stroke="black" fill="cyan"/>
  <circle cx="521.576" cy="520.58" r="5.03164" stroke-width="0.5" stroke="black" fill="cyan"/>
   </g>
   <g id="cell117">
  <circle cx="508.478" cy="622.691" r="8.34224" stroke-width="0.5" stroke="black" fill="green"/>
  <circle cx="508.478" cy="622.691" r="5.02465" stroke-width="0.5" stroke="black" fill="green"/>
   </g>
   <g id="cell118">
  <circle cx="509.549" cy="451.498" r="8.33166" stroke-width="0.5" stroke="black" fill="cyan"/>
  <circle cx="509.549" cy="451.498" r="5.01917" stroke-width="0.5" stroke="black" fill="cyan"/>
   </g>
   <g id="cell119">
  <circle cx="533.408" cy="602.869" r="8.33063" stroke-width="0.5" stroke="black" fill="green"/>
  <circle cx="533.408" cy="602.869" r="5.01888" stroke-width="0.5" stroke="black" fill="green"/>
   </g>
   <g id="cell120">
  <circle cx="576.161" cy="442.671" r="8.31831" stroke-width="0.5" stroke="black" fill="cyan"/>
  <circle cx="576.161" cy="442.671" r="5.01383" stroke-width="0.5" stroke="black" fill="cyan"/>
   </g>
   <g id="cell121">
  <circle cx="451.725" cy="369.411" r="8.21063" stroke-width="0.5" stroke="black" fill="green"/>
  <circle cx="451.725" cy="369.411" r="4.9657" stroke-width="0.5" stroke="black" fill="green"/>
   </g>
   <g id="cell122">
  <circle cx="506.267" cy="521.97" r="8.32051" stroke-width="0.5" stroke="black" fill="magenta"/>
  <circle cx="506.267" cy="521.97" r="5.01432" stroke-width="0.5" stroke="black" fill="magenta"/>
   </g>
   <g id="cell123">
  <circle cx="497.139" cy="509.07" r="8.30092" stroke-width="0.5" stroke="black" fill="green"/>
  <circle cx="497.139" cy="509.07" r="5.0056" stroke-width="0.5" stroke="black" fill="green"/>
   </g>
   <g id="cell124">
  <circle cx="490.409" cy="434.006" r="8.30519" stroke-width="0.5" stroke="black" fill="magenta"/>
  <circle cx="490.409" cy="434.006" r="5.00701" stroke-width="0.5" stroke="black" fill="magenta"/>
   </g>
   <g id="cell125">
  <circle cx="621.594" cy="477.468" r="8.27914" stroke-width="0.5" stroke="black" fill="green"/>
  <circle cx="621.594" cy="477.468" r="4.99508" stroke-width="0.5" stroke="black" fill="green"/>
   </g>
   <g id="cell126">
  <circle cx="628.915" cy="566.514" r="8.27734" stroke-width="0.5" stroke="black" fill="green"/>
  <circle cx="628.915" cy="566.514" r="4.99387" stroke-width="0.5" stroke="black" fill="green"/>
   </g>
   <g id="cell127">
  <circle cx="438.346" cy="361.361" r="8.21063" stroke-width="0.5" stroke="black" fill="green"/>
  <circle cx="438.346" cy="361.361" r="4.9657" stroke-width="0.5" stroke="black" fill="green"/>
   </g>
   <g id="cell128">
  <circle cx="372.393" cy="467.943" r="8.24438" stroke-width="0.5" stroke="black" fill="magenta"/>
  <circle cx="372.393" cy="467.943" r="4.97746" stroke-width="0.5" stroke="black" fill="magenta"/>
   </g>
   <g id="cell129">
  <circle cx="570.079" cy="543.669" r="8.22658" stroke-width="0.5" stroke="black" fill="cyan"/>
  <circle cx="570.079" cy="543.669" r="4.96913" stroke-width="0.5" stroke="black" fill="cyan"/>
   </g>
   <g id="cell130">
  <circle cx="540.918" cy="439.284" r="8.17976" stroke-width="0.5" stroke="black" fill="cyan"/>
  <circle cx="540.918" cy="439.284" r="4.94926" stroke-width="0.5" stroke="black" fill="cyan"/>
   </g>
   <g id="cell131">
  <circle cx="537.263" cy="519.26" r="8.15616" stroke-width="0.5" stroke="black" fill="cyan"/>
  <circle cx="537.263" cy="519.26" r="4.93356" stroke-width="0.5" stroke="black" fill="cyan"/>
   </g>
   <g id="cell132">
  <circle cx="443.954" cy="545.696" r="8.12619" stroke-width="0.5" stroke="black" fill="magenta"/>
  <circle cx="443.954" cy="545.696" r="4.9201" stroke-width="0.5" stroke="black" fill="magenta"/>
   </g>
   <g id="cell133">
  <circle cx="572.788" cy="465.922" r="8.1429" stroke-width="0.5" stroke="black" fill="cyan"/>
  <circle cx="572.788" cy="465.922" r="4.92634" stroke-width="0.5" stroke="black" fill="cyan"/>
   </g>
   <g id="cell134">
  <circle cx="534.972" cy="470.136" r="8.13102" stroke-width="0.5" stroke="black" fill="cyan"/>
  <circle cx="534.972" cy="470.136" r="4.92087" stroke-width="0.5" stroke="black" fill="cyan"/>
   </g>
   <g id="cell135">
  <circle cx="516.119" cy="582.693" r="8.10448" stroke-width="0.5" stroke="black" fill="magenta"/>
  <circle cx="516.119" cy="582.693" r="4.90539" stroke-width="0.5" stroke="black" fill="magenta"/>
   </g>
   <g id="cell136">
  <circle cx="472.349" cy="545.147" r="8.05261" stroke-width="0.5" stroke="black" fill="green"/>
  <circle cx="472.349" cy="545.147" r="4.87844" stroke-width="0.5" stroke="black" fill="green"/>
   </g>
   <g id="cell137">
  <circle cx="492.861" cy="611.867" r="7.94998" stroke-width="0.5" stroke="black" fill="green"/>
  <circle cx="492.861" cy="611.867" r="4.82754" stroke-width="0.5" stroke="black" fill="green"/>
   </g>
   <g id="cell138">
  <circle cx="500.191" cy="409.767" r="7.98892" stroke-width="0.5" stroke="black" fill="green"/>
  <circle cx="500.191" cy="409.767" r="4.84272" stroke-width="0.5" stroke="black" fill="green"/>
   </g>
   <g id="cell139">
  <circle cx="421.679" cy="404.636" r="7.9229" stroke-width="0.5" stroke="black" fill="magenta"/>
  <circle cx="421.679" cy="404.636" r="4.80599" stroke-width="0.5" stroke="black" fill="magenta"/>
   </g>
   <g id="cell140">
  <circle cx="525.854" cy="572.282" r="7.42693" stroke-width="0.5" stroke="black" fill="magenta"/>
  <circle cx="525.854" cy="572.282" r="4.54209" stroke-width="0.5" stroke="black" fill="magenta"/>
   </g>
   <g id="cell141">
  <circle cx="565.183" cy="452.938" r="7.75786" stroke-width="0.5" stroke="black" fill="cyan"/>
  <circle cx="565.183" cy="452.938" r="4.72753" stroke-width="0.5" stroke="black" fill="cyan"/>
   </g>
   <g id="cell142">
  <circle cx="551.533" cy="427.165" r="6.34687" stroke-width="0.5" stroke="black" fill="green"/>
  <circle cx="551.533" cy="427.165" r="3.90551" stroke-width="0.5" stroke="black" fill="green"/>
   </g>
   <g id="cell143">
  <circle cx="435.258" cy="408.472" r="7.58909" stroke-width="0.5" stroke="black" fill="magenta"/>
  <circle cx="435.258" cy="408.472" r="4.63465" stroke-width="0.5" stroke="black" fill="magenta"/>
   </g>
   <g id="cell144">
  <circle cx="546.863" cy="408.206" r="6.27014" stroke-width="0.5" stroke="black" fill="green"/>
  <circle cx="546.863" cy="408.206" r="3.85576" stroke-width="0.5" stroke="black" fill="green"/>
   </g>
   <g id="cell146">
  <circle cx="588.859" cy="548.802" r="1.94187" stroke-width="0.5" stroke="black" fill="cyan"/>
  <circle cx="588.859" cy="548.802" r="1.76674" stroke-width="0.5" stroke="black" fill="black"/>
   </g>
   <g id="cell147">
  <circle cx="518.804" cy="560.845" r="7.42693" stroke-width="0.5" stroke="black" fill="magenta"/>
  <circle cx="518.804" cy="560.845" r="4.54209" stroke-width="0.5" stroke="black" fill="magenta"/>
   </g>
   <g id="cell148">
  <circle cx="508.321" cy="466.156" r="7.67886" stroke-width="0.5" stroke="black" fill="magenta"/>
  <circle cx="508.321" cy="466.156" r="4.67008" stroke-width="0.5" stroke="black" fill="magenta"/>
   </g>
   <g id="cell149">
  <circle cx="576.937" cy="398.107" r="7.49456" stroke-width="0.5" stroke="black" fill="magenta"/>
  <circle cx="576.937" cy="398.107" r="4.55548" stroke-width="0.5" stroke="black" fill="magenta"/>
   </g>
   <g id="cell150">
  <circle cx="399.843" cy="579.844" r="7.38797" stroke-width="0.5" stroke="black" fill="green"/>
  <circle cx="399.843" cy="579.844" r="4.49029" stroke-width="0.5" stroke="black" fill="green"/>
   </g>
   <g id="cell151">
  <circle cx="421.38" cy="530.602" r="7.27253" stroke-width="0.5" stroke="black" fill="green"/>
  <circle cx="421.38" cy="530.602" r="4.41835" stroke-width="0.5" stroke="black" fill="green"/>
   </g>
   <g id="cell152">
  <circle cx="377.669" cy="577.208" r="6.53455" stroke-width="0.5" stroke="black" fill="green"/>
  <circle cx="377.669" cy="577.208" r="4.01036" stroke-width="0.5" stroke="black" fill="green"/>
   </g>
   <g id="cell153">
  <circle cx="560.09" cy="472.355" r="7.1497" stroke-width="0.5" stroke="black" fill="cyan"/>
  <circle cx="560.09" cy="472.355" r="4.34001" stroke-width="0.5" stroke="black" fill="cyan"/>
   </g>
   <g id="cell154">
  <circle cx="388.431" cy="593.601" r="5.87209" stroke-width="0.5" stroke="black" fill="green"/>
  <circle cx="388.431" cy="593.601" r="3.63095" stroke-width="0.5" stroke="black" fill="green"/>
   </g>
   <g id="cell155">
  <circle cx="484.645" cy="580.016" r="7.08639" stroke-width="0.5" stroke="black" fill="green"/>
  <circle cx="484.645" cy="580.016" r="4.29876" stroke-width="0.5" stroke="black" fill="green"/>
   </g>
   <g id="cell156">
  <circle cx="456.624" cy="526.648" r="7.08248" stroke-width="0.5" stroke="black" fill="magenta"/>
  <circle cx="456.624" cy="526.648" r="4.29752" stroke-width="0.5" stroke="black" fill="magenta"/>
   </g>
   <g id="cell157">
  <circle cx="441.695" cy="524.666" r="6.05112" stroke-width="0.5" stroke="black" fill="magenta"/>
  <circle cx="441.695" cy="524.666" r="3.70701" stroke-width="0.5" stroke="black" fill="magenta"/>
   </g>
   <g id="cell158">
  <circle cx="555.709" cy="415.886" r="6.34687" stroke-width="0.5" stroke="black" fill="green"/>
  <circle cx="555.709" cy="415.886" r="3.90551" stroke-width="0.5" stroke="black" fill="green"/>
   </g>
   <g id="cell159">
  <circle cx="536.369" cy="403.353" r="6.27014" stroke-width="0.5" stroke="black" fill="green"/>
  <circle cx="536.369" cy="403.353" r="3.85576" stroke-width="0.5" stroke="black" fill="green"/>
   </g>
   <g id="cell160">
  <circle cx="463.82" cy="376.839" r="6.76083" stroke-width="0.5" stroke="black" fill="green"/>
  <circle cx="463.82" cy="376.839" r="4.09698" stroke-width="0.5" stroke="black" fill="green"/>
   </g>
   <g id="cell161">
  <circle cx="451.584" cy="383.056" r="5.36608" stroke-width="0.5" stroke="black" fill="green"/>
  <circle cx="451.584" cy="383.056" r="3.25178" stroke-width="0.5" stroke="black" fill="green"/>
   </g>
  </g>
 </g>
  <rect x="775" y="1035" width="200" height="10" stroke-width="2" stroke="rgb(255,255,255)" fill="rgb(0,0,0)"/>
  <text x="781.25" y="1028.75"
   font-family="Arial" font-size="25" fill="black" >
   200 &#956;m
  </text>
  <text x="25" y="1045"
   font-family="Arial" font-size="18.75" fill="black" >
   0 days, 0 hours, 0 minutes, and 31.1857 seconds
  </text>
  <rect x="0" y="70" width="1000" height="1000" stroke-width="2" stroke="rgb(0,0,0)" fill="none"/>
</svg>
