<?xml version="1.0" encoding="UTF-8" standalone="no"?>
<!-- Created with PhysiCell (http://PhysiCell.MathCancer.org/) -->
<svg 
 xmlns:dc="http://purl.org/dc/elements/1.1/" 
 xmlns:cc="http://creativecommons.org/ns#" 
 xmlns:rdf="http://www.w3.org/1999/02/22-rdf-syntax-ns#" 
 xmlns:svg="http://www.w3.org/2000/svg" 
 xmlns="http://www.w3.org/2000/svg" 
 version="1.1" 
 width="1000" 
 height="1070" 
 id="svg2">
  <rect x="0" y="0" width="1000" height="1070" stroke-width="2" stroke="white" fill="white"/>
  <text x="12.5" y="30"
   font-family="Arial" font-size="25" fill="black" >
   Current time: 1 days, 17 hours, and 24.00 minutes, z = 0.00 &#956;m
  </text>
  <text x="12.5" y="57.5"
   font-family="Arial" font-size="23.75" fill="black" >
   210 agents
  </text>
 <g id="tissue" 
    transform="translate(0,1070) scale(1,-1)">
  <g id="ECM">
  </g>
  <g id="cells">
   <g id="cell0">
  <circle cx="509.083" cy="542.878" r="8.41264" stroke-width="0.5" stroke="black" fill="magenta"/>
  <circle cx="509.083" cy="542.878" r="5.05166" stroke-width="0.5" stroke="black" fill="magenta"/>
   </g>
   <g id="cell1">
  <circle cx="593.252" cy="524.746" r="8.37431" stroke-width="0.5" stroke="black" fill="magenta"/>
  <circle cx="593.252" cy="524.746" r="5.03754" stroke-width="0.5" stroke="black" fill="magenta"/>
   </g>
   <g id="cell2">
  <circle cx="513.215" cy="597.317" r="8.41271" stroke-width="0.5" stroke="black" fill="magenta"/>
  <circle cx="513.215" cy="597.317" r="5.05167" stroke-width="0.5" stroke="black" fill="magenta"/>
   </g>
   <g id="cell3">
  <circle cx="523.835" cy="546.755" r="8.4126" stroke-width="0.5" stroke="black" fill="magenta"/>
  <circle cx="523.835" cy="546.755" r="5.05165" stroke-width="0.5" stroke="black" fill="magenta"/>
   </g>
   <g id="cell4">
  <circle cx="483.448" cy="444.429" r="8.41119" stroke-width="0.5" stroke="black" fill="magenta"/>
  <circle cx="483.448" cy="444.429" r="5.05128" stroke-width="0.5" stroke="black" fill="magenta"/>
   </g>
   <g id="cell5">
  <circle cx="468.686" cy="490.407" r="8.41271" stroke-width="0.5" stroke="black" fill="magenta"/>
  <circle cx="468.686" cy="490.407" r="5.05167" stroke-width="0.5" stroke="black" fill="magenta"/>
   </g>
   <g id="cell163">
  <circle cx="532.116" cy="574.418" r="7.25314" stroke-width="0.5" stroke="black" fill="green"/>
  <circle cx="532.116" cy="574.418" r="4.41109" stroke-width="0.5" stroke="black" fill="green"/>
   </g>
   <g id="cell7">
  <circle cx="495.321" cy="453.945" r="8.36945" stroke-width="0.5" stroke="black" fill="magenta"/>
  <circle cx="495.321" cy="453.945" r="5.03557" stroke-width="0.5" stroke="black" fill="magenta"/>
   </g>
   <g id="cell8">
  <circle cx="379.037" cy="553.032" r="8.38373" stroke-width="0.5" stroke="black" fill="magenta"/>
  <circle cx="379.037" cy="553.032" r="5.04136" stroke-width="0.5" stroke="black" fill="magenta"/>
   </g>
   <g id="cell161">
  <circle cx="452.52" cy="386.487" r="8.37365" stroke-width="0.5" stroke="black" fill="green"/>
  <circle cx="452.52" cy="386.487" r="5.03799" stroke-width="0.5" stroke="black" fill="green"/>
   </g>
   <g id="cell10">
  <circle cx="582.179" cy="389.011" r="5.63136" stroke-width="0.5" stroke="black" fill="magenta"/>
  <circle cx="582.179" cy="389.011" r="3.42422" stroke-width="0.5" stroke="black" fill="magenta"/>
   </g>
   <g id="cell11">
  <circle cx="590.535" cy="592.571" r="8.41271" stroke-width="0.5" stroke="black" fill="magenta"/>
  <circle cx="590.535" cy="592.571" r="5.05167" stroke-width="0.5" stroke="black" fill="magenta"/>
   </g>
   <g id="cell12">
  <circle cx="498.446" cy="594.585" r="8.4085" stroke-width="0.5" stroke="black" fill="magenta"/>
  <circle cx="498.446" cy="594.585" r="5.05047" stroke-width="0.5" stroke="black" fill="magenta"/>
   </g>
   <g id="cell13">
  <circle cx="383.824" cy="567.613" r="8.41271" stroke-width="0.5" stroke="black" fill="magenta"/>
  <circle cx="383.824" cy="567.613" r="5.05167" stroke-width="0.5" stroke="black" fill="magenta"/>
   </g>
   <g id="cell14">
  <circle cx="516.761" cy="404.285" r="8.41271" stroke-width="0.5" stroke="black" fill="magenta"/>
  <circle cx="516.761" cy="404.285" r="5.05167" stroke-width="0.5" stroke="black" fill="magenta"/>
   </g>
   <g id="cell15">
  <circle cx="382.111" cy="478.974" r="8.41036" stroke-width="0.5" stroke="black" fill="magenta"/>
  <circle cx="382.111" cy="478.974" r="5.05104" stroke-width="0.5" stroke="black" fill="magenta"/>
   </g>
   <g id="cell16">
  <circle cx="452.327" cy="417.709" r="8.07893" stroke-width="0.5" stroke="black" fill="magenta"/>
  <circle cx="452.327" cy="417.709" r="4.89334" stroke-width="0.5" stroke="black" fill="magenta"/>
   </g>
   <g id="cell17">
  <circle cx="582.98" cy="498.07" r="8.30918" stroke-width="0.5" stroke="black" fill="magenta"/>
  <circle cx="582.98" cy="498.07" r="5.00867" stroke-width="0.5" stroke="black" fill="magenta"/>
   </g>
   <g id="cell18">
  <circle cx="518.188" cy="389.09" r="8.41271" stroke-width="0.5" stroke="black" fill="magenta"/>
  <circle cx="518.188" cy="389.09" r="5.05167" stroke-width="0.5" stroke="black" fill="magenta"/>
   </g>
   <g id="cell19">
  <circle cx="457.572" cy="541.361" r="8.41217" stroke-width="0.5" stroke="black" fill="magenta"/>
  <circle cx="457.572" cy="541.361" r="5.05155" stroke-width="0.5" stroke="black" fill="magenta"/>
   </g>
   <g id="cell20">
  <circle cx="529.02" cy="413.131" r="8.41271" stroke-width="0.5" stroke="black" fill="magenta"/>
  <circle cx="529.02" cy="413.131" r="5.05167" stroke-width="0.5" stroke="black" fill="magenta"/>
   </g>
   <g id="cell21">
  <circle cx="467.717" cy="637.475" r="7.83019" stroke-width="0.5" stroke="black" fill="magenta"/>
  <circle cx="467.717" cy="637.475" r="4.75343" stroke-width="0.5" stroke="black" fill="magenta"/>
   </g>
   <g id="cell22">
  <circle cx="559.624" cy="488.761" r="7.97119" stroke-width="0.5" stroke="black" fill="magenta"/>
  <circle cx="559.624" cy="488.761" r="4.83901" stroke-width="0.5" stroke="black" fill="magenta"/>
   </g>
   <g id="cell23">
  <circle cx="554.333" cy="475.767" r="8.41271" stroke-width="0.5" stroke="black" fill="magenta"/>
  <circle cx="554.333" cy="475.767" r="5.05167" stroke-width="0.5" stroke="black" fill="magenta"/>
   </g>
   <g id="cell24">
  <circle cx="570.709" cy="385.029" r="8.41271" stroke-width="0.5" stroke="black" fill="magenta"/>
  <circle cx="570.709" cy="385.029" r="5.05167" stroke-width="0.5" stroke="black" fill="magenta"/>
   </g>
   <g id="cell25">
  <circle cx="643.418" cy="546.271" r="7.72054" stroke-width="0.5" stroke="black" fill="green"/>
  <circle cx="643.418" cy="546.271" r="4.69002" stroke-width="0.5" stroke="black" fill="green"/>
   </g>
   <g id="cell26">
  <circle cx="560.137" cy="396.319" r="8.41217" stroke-width="0.5" stroke="black" fill="green"/>
  <circle cx="560.137" cy="396.319" r="5.05154" stroke-width="0.5" stroke="black" fill="green"/>
   </g>
   <g id="cell27">
  <circle cx="461.954" cy="405.838" r="8.41268" stroke-width="0.5" stroke="black" fill="green"/>
  <circle cx="461.954" cy="405.838" r="5.05167" stroke-width="0.5" stroke="black" fill="green"/>
   </g>
   <g id="cell28">
  <circle cx="428.769" cy="543.31" r="8.39752" stroke-width="0.5" stroke="black" fill="green"/>
  <circle cx="428.769" cy="543.31" r="5.04666" stroke-width="0.5" stroke="black" fill="green"/>
   </g>
   <g id="cell220">
  <circle cx="588.693" cy="380.067" r="6.95013" stroke-width="0.5" stroke="black" fill="magenta"/>
  <circle cx="588.693" cy="380.067" r="4.21041" stroke-width="0.5" stroke="black" fill="magenta"/>
   </g>
   <g id="cell30">
  <circle cx="479.318" cy="536.709" r="8.40782" stroke-width="0.5" stroke="black" fill="green"/>
  <circle cx="479.318" cy="536.709" r="5.05026" stroke-width="0.5" stroke="black" fill="green"/>
   </g>
   <g id="cell31">
  <circle cx="412.812" cy="544.291" r="8.41271" stroke-width="0.5" stroke="black" fill="green"/>
  <circle cx="412.812" cy="544.291" r="5.05167" stroke-width="0.5" stroke="black" fill="green"/>
   </g>
   <g id="cell169">
  <circle cx="520.983" cy="502.73" r="8.36314" stroke-width="0.5" stroke="black" fill="cyan"/>
  <circle cx="520.983" cy="502.73" r="5.03287" stroke-width="0.5" stroke="black" fill="cyan"/>
   </g>
   <g id="cell33">
  <circle cx="495.957" cy="415.343" r="8.407" stroke-width="0.5" stroke="black" fill="green"/>
  <circle cx="495.957" cy="415.343" r="5.04998" stroke-width="0.5" stroke="black" fill="green"/>
   </g>
   <g id="cell168">
  <circle cx="381.479" cy="517.957" r="2.89289" stroke-width="0.5" stroke="black" fill="cyan"/>
  <circle cx="381.479" cy="517.957" r="2.41506" stroke-width="0.5" stroke="black" fill="black"/>
   </g>
   <g id="cell35">
  <circle cx="556.54" cy="557.969" r="8.41271" stroke-width="0.5" stroke="black" fill="green"/>
  <circle cx="556.54" cy="557.969" r="5.05167" stroke-width="0.5" stroke="black" fill="green"/>
   </g>
   <g id="cell36">
  <circle cx="388.864" cy="582.536" r="8.38376" stroke-width="0.5" stroke="black" fill="green"/>
  <circle cx="388.864" cy="582.536" r="5.04202" stroke-width="0.5" stroke="black" fill="green"/>
   </g>
   <g id="cell37">
  <circle cx="642.416" cy="456.373" r="8.41268" stroke-width="0.5" stroke="black" fill="green"/>
  <circle cx="642.416" cy="456.373" r="5.05166" stroke-width="0.5" stroke="black" fill="green"/>
   </g>
   <g id="cell38">
  <circle cx="523.523" cy="586.058" r="8.38371" stroke-width="0.5" stroke="black" fill="green"/>
  <circle cx="523.523" cy="586.058" r="5.04135" stroke-width="0.5" stroke="black" fill="green"/>
   </g>
   <g id="cell39">
  <circle cx="612.628" cy="491.543" r="8.31491" stroke-width="0.5" stroke="black" fill="green"/>
  <circle cx="612.628" cy="491.543" r="5.01133" stroke-width="0.5" stroke="black" fill="green"/>
   </g>
   <g id="cell40">
  <circle cx="486.109" cy="567.411" r="8.39473" stroke-width="0.5" stroke="black" fill="green"/>
  <circle cx="486.109" cy="567.411" r="5.04562" stroke-width="0.5" stroke="black" fill="green"/>
   </g>
   <g id="cell41">
  <circle cx="366.957" cy="481.155" r="8.41271" stroke-width="0.5" stroke="black" fill="green"/>
  <circle cx="366.957" cy="481.155" r="5.05167" stroke-width="0.5" stroke="black" fill="green"/>
   </g>
   <g id="cell42">
  <circle cx="437.096" cy="490.362" r="8.41271" stroke-width="0.5" stroke="black" fill="green"/>
  <circle cx="437.096" cy="490.362" r="5.05167" stroke-width="0.5" stroke="black" fill="green"/>
   </g>
   <g id="cell43">
  <circle cx="565.537" cy="438.132" r="8.41271" stroke-width="0.5" stroke="black" fill="green"/>
  <circle cx="565.537" cy="438.132" r="5.05167" stroke-width="0.5" stroke="black" fill="green"/>
   </g>
   <g id="cell164">
  <circle cx="399.201" cy="570.483" r="8.37251" stroke-width="0.5" stroke="black" fill="green"/>
  <circle cx="399.201" cy="570.483" r="5.03737" stroke-width="0.5" stroke="black" fill="green"/>
   </g>
   <g id="cell145">
  <circle cx="409.587" cy="420.46" r="8.06977" stroke-width="0.5" stroke="black" fill="magenta"/>
  <circle cx="409.587" cy="420.46" r="4.89403" stroke-width="0.5" stroke="black" fill="magenta"/>
   </g>
   <g id="cell46">
  <circle cx="521.38" cy="619.593" r="6.71139" stroke-width="0.5" stroke="black" fill="green"/>
  <circle cx="521.38" cy="619.593" r="4.03431" stroke-width="0.5" stroke="black" fill="green"/>
   </g>
   <g id="cell47">
  <circle cx="484.202" cy="491.069" r="8.41256" stroke-width="0.5" stroke="black" fill="green"/>
  <circle cx="484.202" cy="491.069" r="5.05164" stroke-width="0.5" stroke="black" fill="green"/>
   </g>
   <g id="cell48">
  <circle cx="578.705" cy="603.645" r="8.41216" stroke-width="0.5" stroke="black" fill="green"/>
  <circle cx="578.705" cy="603.645" r="5.05155" stroke-width="0.5" stroke="black" fill="green"/>
   </g>
   <g id="cell49">
  <circle cx="437.151" cy="391.091" r="8.36458" stroke-width="0.5" stroke="black" fill="green"/>
  <circle cx="437.151" cy="391.091" r="5.03347" stroke-width="0.5" stroke="black" fill="green"/>
   </g>
   <g id="cell50">
  <circle cx="500.737" cy="512.893" r="8.41195" stroke-width="0.5" stroke="black" fill="cyan"/>
  <circle cx="500.737" cy="512.893" r="5.05149" stroke-width="0.5" stroke="black" fill="cyan"/>
   </g>
   <g id="cell51">
  <circle cx="401.048" cy="592.238" r="8.02418" stroke-width="0.5" stroke="black" fill="cyan"/>
  <circle cx="401.048" cy="592.238" r="4.86209" stroke-width="0.5" stroke="black" fill="cyan"/>
   </g>
   <g id="cell52">
  <circle cx="518.687" cy="414.626" r="2.97674" stroke-width="0.5" stroke="black" fill="cyan"/>
  <circle cx="518.687" cy="414.626" r="2.45592" stroke-width="0.5" stroke="black" fill="black"/>
   </g>
   <g id="cell53">
  <circle cx="573.407" cy="424.564" r="8.41251" stroke-width="0.5" stroke="black" fill="cyan"/>
  <circle cx="573.407" cy="424.564" r="5.05163" stroke-width="0.5" stroke="black" fill="cyan"/>
   </g>
   <g id="cell54">
  <circle cx="480.359" cy="415.704" r="8.41259" stroke-width="0.5" stroke="black" fill="cyan"/>
  <circle cx="480.359" cy="415.704" r="5.05164" stroke-width="0.5" stroke="black" fill="cyan"/>
   </g>
   <g id="cell55">
  <circle cx="522.765" cy="460.76" r="8.41251" stroke-width="0.5" stroke="black" fill="cyan"/>
  <circle cx="522.765" cy="460.76" r="5.05163" stroke-width="0.5" stroke="black" fill="cyan"/>
   </g>
   <g id="cell56">
  <circle cx="622.348" cy="521.447" r="8.41271" stroke-width="0.5" stroke="black" fill="cyan"/>
  <circle cx="622.348" cy="521.447" r="5.05167" stroke-width="0.5" stroke="black" fill="cyan"/>
   </g>
   <g id="cell105">
  <circle cx="503.348" cy="609.212" r="8.40649" stroke-width="0.5" stroke="black" fill="green"/>
  <circle cx="503.348" cy="609.212" r="5.04986" stroke-width="0.5" stroke="black" fill="green"/>
   </g>
   <g id="cell58">
  <circle cx="570.235" cy="473.216" r="8.39571" stroke-width="0.5" stroke="black" fill="cyan"/>
  <circle cx="570.235" cy="473.216" r="5.04599" stroke-width="0.5" stroke="black" fill="cyan"/>
   </g>
   <g id="cell59">
  <circle cx="385.732" cy="440.058" r="8.41271" stroke-width="0.5" stroke="black" fill="cyan"/>
  <circle cx="385.732" cy="440.058" r="5.05167" stroke-width="0.5" stroke="black" fill="cyan"/>
   </g>
   <g id="cell60">
  <circle cx="598.743" cy="464.536" r="8.34317" stroke-width="0.5" stroke="black" fill="cyan"/>
  <circle cx="598.743" cy="464.536" r="5.02416" stroke-width="0.5" stroke="black" fill="cyan"/>
   </g>
   <g id="cell186">
  <circle cx="354.924" cy="562.196" r="2.08477" stroke-width="0.5" stroke="black" fill="cyan"/>
  <circle cx="354.924" cy="562.196" r="1.94689" stroke-width="0.5" stroke="black" fill="black"/>
   </g>
   <g id="cell62">
  <circle cx="514.178" cy="434.091" r="8.33422" stroke-width="0.5" stroke="black" fill="cyan"/>
  <circle cx="514.178" cy="434.091" r="5.02028" stroke-width="0.5" stroke="black" fill="cyan"/>
   </g>
   <g id="cell63">
  <circle cx="584.697" cy="537.537" r="8.41012" stroke-width="0.5" stroke="black" fill="cyan"/>
  <circle cx="584.697" cy="537.537" r="5.05097" stroke-width="0.5" stroke="black" fill="cyan"/>
   </g>
   <g id="cell64">
  <circle cx="509.28" cy="637.725" r="8.41271" stroke-width="0.5" stroke="black" fill="cyan"/>
  <circle cx="509.28" cy="637.725" r="5.05167" stroke-width="0.5" stroke="black" fill="cyan"/>
   </g>
   <g id="cell65">
  <circle cx="545.003" cy="463.977" r="8.41263" stroke-width="0.5" stroke="black" fill="cyan"/>
  <circle cx="545.003" cy="463.977" r="5.05165" stroke-width="0.5" stroke="black" fill="cyan"/>
   </g>
   <g id="cell66">
  <circle cx="534.161" cy="536.037" r="8.41258" stroke-width="0.5" stroke="black" fill="cyan"/>
  <circle cx="534.161" cy="536.037" r="5.05164" stroke-width="0.5" stroke="black" fill="cyan"/>
   </g>
   <g id="cell67">
  <circle cx="348.628" cy="493.774" r="6.69288" stroke-width="0.5" stroke="black" fill="cyan"/>
  <circle cx="348.628" cy="493.774" r="4.02051" stroke-width="0.5" stroke="black" fill="cyan"/>
   </g>
   <g id="cell212">
  <circle cx="568.401" cy="499.07" r="7.5817" stroke-width="0.5" stroke="black" fill="magenta"/>
  <circle cx="568.401" cy="499.07" r="4.62165" stroke-width="0.5" stroke="black" fill="magenta"/>
   </g>
   <g id="cell69">
  <circle cx="443.409" cy="460.382" r="8.41271" stroke-width="0.5" stroke="black" fill="cyan"/>
  <circle cx="443.409" cy="460.382" r="5.05167" stroke-width="0.5" stroke="black" fill="cyan"/>
   </g>
   <g id="cell70">
  <circle cx="586.516" cy="479.389" r="8.41271" stroke-width="0.5" stroke="black" fill="cyan"/>
  <circle cx="586.516" cy="479.389" r="5.05167" stroke-width="0.5" stroke="black" fill="cyan"/>
   </g>
   <g id="cell224">
  <circle cx="360.867" cy="493.303" r="6.69288" stroke-width="0.5" stroke="black" fill="cyan"/>
  <circle cx="360.867" cy="493.303" r="4.02051" stroke-width="0.5" stroke="black" fill="cyan"/>
   </g>
   <g id="cell72">
  <circle cx="536.641" cy="501.719" r="8.36314" stroke-width="0.5" stroke="black" fill="cyan"/>
  <circle cx="536.641" cy="501.719" r="5.03287" stroke-width="0.5" stroke="black" fill="cyan"/>
   </g>
   <g id="cell73">
  <circle cx="364.073" cy="549.867" r="7.96749" stroke-width="0.5" stroke="black" fill="cyan"/>
  <circle cx="364.073" cy="549.867" r="4.83733" stroke-width="0.5" stroke="black" fill="cyan"/>
   </g>
   <g id="cell162">
  <circle cx="373.952" cy="538.663" r="8.38373" stroke-width="0.5" stroke="black" fill="magenta"/>
  <circle cx="373.952" cy="538.663" r="5.04136" stroke-width="0.5" stroke="black" fill="magenta"/>
   </g>
   <g id="cell75">
  <circle cx="528.81" cy="428.803" r="8.41268" stroke-width="0.5" stroke="black" fill="cyan"/>
  <circle cx="528.81" cy="428.803" r="5.05167" stroke-width="0.5" stroke="black" fill="cyan"/>
   </g>
   <g id="cell76">
  <circle cx="435.124" cy="375.442" r="8.41232" stroke-width="0.5" stroke="black" fill="green"/>
  <circle cx="435.124" cy="375.442" r="5.05158" stroke-width="0.5" stroke="black" fill="green"/>
   </g>
   <g id="cell77">
  <circle cx="469.039" cy="447.744" r="8.41241" stroke-width="0.5" stroke="black" fill="magenta"/>
  <circle cx="469.039" cy="447.744" r="5.0516" stroke-width="0.5" stroke="black" fill="magenta"/>
   </g>
   <g id="cell78">
  <circle cx="626.489" cy="454.985" r="8.41261" stroke-width="0.5" stroke="black" fill="green"/>
  <circle cx="626.489" cy="454.985" r="5.05165" stroke-width="0.5" stroke="black" fill="green"/>
   </g>
   <g id="cell79">
  <circle cx="517.75" cy="475.413" r="8.41268" stroke-width="0.5" stroke="black" fill="cyan"/>
  <circle cx="517.75" cy="475.413" r="5.05166" stroke-width="0.5" stroke="black" fill="cyan"/>
   </g>
   <g id="cell80">
  <circle cx="542.035" cy="632.649" r="8.16744" stroke-width="0.5" stroke="black" fill="green"/>
  <circle cx="542.035" cy="632.649" r="4.93861" stroke-width="0.5" stroke="black" fill="green"/>
   </g>
   <g id="cell81">
  <circle cx="554.778" cy="589.771" r="8.41265" stroke-width="0.5" stroke="black" fill="green"/>
  <circle cx="554.778" cy="589.771" r="5.05166" stroke-width="0.5" stroke="black" fill="green"/>
   </g>
   <g id="cell82">
  <circle cx="528.348" cy="560.764" r="8.40593" stroke-width="0.5" stroke="black" fill="magenta"/>
  <circle cx="528.348" cy="560.764" r="5.04963" stroke-width="0.5" stroke="black" fill="magenta"/>
   </g>
   <g id="cell211">
  <circle cx="449.795" cy="371.505" r="7.67818" stroke-width="0.5" stroke="black" fill="green"/>
  <circle cx="449.795" cy="371.505" r="4.66569" stroke-width="0.5" stroke="black" fill="green"/>
   </g>
   <g id="cell84">
  <circle cx="512.425" cy="490.002" r="8.28982" stroke-width="0.5" stroke="black" fill="cyan"/>
  <circle cx="512.425" cy="490.002" r="4.99955" stroke-width="0.5" stroke="black" fill="cyan"/>
   </g>
   <g id="cell85">
  <circle cx="345.287" cy="541.882" r="8.41252" stroke-width="0.5" stroke="black" fill="cyan"/>
  <circle cx="345.287" cy="541.882" r="5.05163" stroke-width="0.5" stroke="black" fill="cyan"/>
   </g>
   <g id="cell86">
  <circle cx="494.591" cy="538.903" r="8.4114" stroke-width="0.5" stroke="black" fill="magenta"/>
  <circle cx="494.591" cy="538.903" r="5.05134" stroke-width="0.5" stroke="black" fill="magenta"/>
   </g>
   <g id="cell87">
  <circle cx="572.163" cy="559.915" r="8.41244" stroke-width="0.5" stroke="black" fill="cyan"/>
  <circle cx="572.163" cy="559.915" r="5.05161" stroke-width="0.5" stroke="black" fill="cyan"/>
   </g>
   <g id="cell88">
  <circle cx="445.796" cy="533.888" r="7.31248" stroke-width="0.5" stroke="black" fill="magenta"/>
  <circle cx="445.796" cy="533.888" r="4.4484" stroke-width="0.5" stroke="black" fill="magenta"/>
   </g>
   <g id="cell89">
  <circle cx="554.068" cy="448.479" r="8.4041" stroke-width="0.5" stroke="black" fill="cyan"/>
  <circle cx="554.068" cy="448.479" r="5.04911" stroke-width="0.5" stroke="black" fill="cyan"/>
   </g>
   <g id="cell90">
  <circle cx="636.956" cy="471.566" r="8.41083" stroke-width="0.5" stroke="black" fill="green"/>
  <circle cx="636.956" cy="471.566" r="5.05118" stroke-width="0.5" stroke="black" fill="green"/>
   </g>
   <g id="cell91">
  <circle cx="542.885" cy="564.944" r="8.41254" stroke-width="0.5" stroke="black" fill="magenta"/>
  <circle cx="542.885" cy="564.944" r="5.05164" stroke-width="0.5" stroke="black" fill="magenta"/>
   </g>
   <g id="cell92">
  <circle cx="486.001" cy="551.588" r="8.4126" stroke-width="0.5" stroke="black" fill="green"/>
  <circle cx="486.001" cy="551.588" r="5.05165" stroke-width="0.5" stroke="black" fill="green"/>
   </g>
   <g id="cell93">
  <circle cx="539.33" cy="550.342" r="8.41254" stroke-width="0.5" stroke="black" fill="magenta"/>
  <circle cx="539.33" cy="550.342" r="5.05164" stroke-width="0.5" stroke="black" fill="magenta"/>
   </g>
   <g id="cell94">
  <circle cx="544.086" cy="487.591" r="8.41259" stroke-width="0.5" stroke="black" fill="cyan"/>
  <circle cx="544.086" cy="487.591" r="5.05165" stroke-width="0.5" stroke="black" fill="cyan"/>
   </g>
   <g id="cell95">
  <circle cx="466.259" cy="421.021" r="8.17495" stroke-width="0.5" stroke="black" fill="cyan"/>
  <circle cx="466.259" cy="421.021" r="4.94235" stroke-width="0.5" stroke="black" fill="cyan"/>
   </g>
   <g id="cell96">
  <circle cx="553.448" cy="542.694" r="8.40918" stroke-width="0.5" stroke="black" fill="cyan"/>
  <circle cx="553.448" cy="542.694" r="5.05069" stroke-width="0.5" stroke="black" fill="cyan"/>
   </g>
   <g id="cell97">
  <circle cx="420.568" cy="464.195" r="8.41246" stroke-width="0.5" stroke="black" fill="green"/>
  <circle cx="420.568" cy="464.195" r="5.05162" stroke-width="0.5" stroke="black" fill="green"/>
   </g>
   <g id="cell98">
  <circle cx="489.535" cy="524.16" r="8.41113" stroke-width="0.5" stroke="black" fill="green"/>
  <circle cx="489.535" cy="524.16" r="5.05127" stroke-width="0.5" stroke="black" fill="green"/>
   </g>
   <g id="cell99">
  <circle cx="367.681" cy="524.447" r="8.41252" stroke-width="0.5" stroke="black" fill="cyan"/>
  <circle cx="367.681" cy="524.447" r="5.05163" stroke-width="0.5" stroke="black" fill="cyan"/>
   </g>
   <g id="cell100">
  <circle cx="445.872" cy="404.168" r="8.41252" stroke-width="0.5" stroke="black" fill="green"/>
  <circle cx="445.872" cy="404.168" r="5.05163" stroke-width="0.5" stroke="black" fill="green"/>
   </g>
   <g id="cell101">
  <circle cx="527.906" cy="488.756" r="8.26062" stroke-width="0.5" stroke="black" fill="cyan"/>
  <circle cx="527.906" cy="488.756" r="4.98585" stroke-width="0.5" stroke="black" fill="cyan"/>
   </g>
   <g id="cell102">
  <circle cx="442.272" cy="475.773" r="7.92276" stroke-width="0.5" stroke="black" fill="green"/>
  <circle cx="442.272" cy="475.773" r="4.80596" stroke-width="0.5" stroke="black" fill="green"/>
   </g>
   <g id="cell103">
  <circle cx="592.32" cy="450.094" r="8.41137" stroke-width="0.5" stroke="black" fill="cyan"/>
  <circle cx="592.32" cy="450.094" r="5.05133" stroke-width="0.5" stroke="black" fill="cyan"/>
   </g>
   <g id="cell104">
  <circle cx="608.613" cy="554.393" r="8.29832" stroke-width="0.5" stroke="black" fill="cyan"/>
  <circle cx="608.613" cy="554.393" r="5.00433" stroke-width="0.5" stroke="black" fill="cyan"/>
   </g>
   <g id="cell106">
  <circle cx="453.977" cy="449.093" r="8.41241" stroke-width="0.5" stroke="black" fill="magenta"/>
  <circle cx="453.977" cy="449.093" r="5.0516" stroke-width="0.5" stroke="black" fill="magenta"/>
   </g>
   <g id="cell107">
  <circle cx="467.817" cy="391.027" r="8.37365" stroke-width="0.5" stroke="black" fill="green"/>
  <circle cx="467.817" cy="391.027" r="5.03799" stroke-width="0.5" stroke="black" fill="green"/>
   </g>
   <g id="cell108">
  <circle cx="563.219" cy="609.903" r="8.41236" stroke-width="0.5" stroke="black" fill="green"/>
  <circle cx="563.219" cy="609.903" r="5.05159" stroke-width="0.5" stroke="black" fill="green"/>
   </g>
   <g id="cell109">
  <circle cx="575.715" cy="588.026" r="8.41216" stroke-width="0.5" stroke="black" fill="green"/>
  <circle cx="575.715" cy="588.026" r="5.05155" stroke-width="0.5" stroke="black" fill="green"/>
   </g>
   <g id="cell110">
  <circle cx="369.485" cy="508.547" r="8.41224" stroke-width="0.5" stroke="black" fill="cyan"/>
  <circle cx="369.485" cy="508.547" r="5.05156" stroke-width="0.5" stroke="black" fill="cyan"/>
   </g>
   <g id="cell111">
  <circle cx="456.209" cy="556.434" r="8.40878" stroke-width="0.5" stroke="black" fill="magenta"/>
  <circle cx="456.209" cy="556.434" r="5.05058" stroke-width="0.5" stroke="black" fill="magenta"/>
   </g>
   <g id="cell112">
  <circle cx="491.597" cy="468.673" r="8.403" stroke-width="0.5" stroke="black" fill="magenta"/>
  <circle cx="491.597" cy="468.673" r="5.04866" stroke-width="0.5" stroke="black" fill="magenta"/>
   </g>
   <g id="cell113">
  <circle cx="546.873" cy="366.725" r="7.41058" stroke-width="0.5" stroke="black" fill="green"/>
  <circle cx="546.873" cy="366.725" r="4.50563" stroke-width="0.5" stroke="black" fill="green"/>
   </g>
   <g id="cell114">
  <circle cx="525.151" cy="444.367" r="8.4118" stroke-width="0.5" stroke="black" fill="cyan"/>
  <circle cx="525.151" cy="444.367" r="5.05146" stroke-width="0.5" stroke="black" fill="cyan"/>
   </g>
   <g id="cell115">
  <circle cx="538.822" cy="450.177" r="8.40949" stroke-width="0.5" stroke="black" fill="cyan"/>
  <circle cx="538.822" cy="450.177" r="5.0508" stroke-width="0.5" stroke="black" fill="cyan"/>
   </g>
   <g id="cell116">
  <circle cx="519.576" cy="531.867" r="8.31993" stroke-width="0.5" stroke="black" fill="cyan"/>
  <circle cx="519.576" cy="531.867" r="5.01374" stroke-width="0.5" stroke="black" fill="cyan"/>
   </g>
   <g id="cell117">
  <circle cx="496.899" cy="626.904" r="8.4117" stroke-width="0.5" stroke="black" fill="green"/>
  <circle cx="496.899" cy="626.904" r="5.05143" stroke-width="0.5" stroke="black" fill="green"/>
   </g>
   <g id="cell118">
  <circle cx="511.434" cy="451.089" r="8.41156" stroke-width="0.5" stroke="black" fill="cyan"/>
  <circle cx="511.434" cy="451.089" r="5.05138" stroke-width="0.5" stroke="black" fill="cyan"/>
   </g>
   <g id="cell119">
  <circle cx="548.333" cy="604.174" r="8.33421" stroke-width="0.5" stroke="black" fill="green"/>
  <circle cx="548.333" cy="604.174" r="5.02027" stroke-width="0.5" stroke="black" fill="green"/>
   </g>
   <g id="cell120">
  <circle cx="581.328" cy="438.579" r="8.41137" stroke-width="0.5" stroke="black" fill="cyan"/>
  <circle cx="581.328" cy="438.579" r="5.05133" stroke-width="0.5" stroke="black" fill="cyan"/>
   </g>
   <g id="cell121">
  <circle cx="453.934" cy="357.601" r="7.67818" stroke-width="0.5" stroke="black" fill="green"/>
  <circle cx="453.934" cy="357.601" r="4.66569" stroke-width="0.5" stroke="black" fill="green"/>
   </g>
   <g id="cell122">
  <circle cx="504.771" cy="528.025" r="8.4114" stroke-width="0.5" stroke="black" fill="magenta"/>
  <circle cx="504.771" cy="528.025" r="5.05134" stroke-width="0.5" stroke="black" fill="magenta"/>
   </g>
   <g id="cell123">
  <circle cx="486.033" cy="507.072" r="8.41113" stroke-width="0.5" stroke="black" fill="green"/>
  <circle cx="486.033" cy="507.072" r="5.05127" stroke-width="0.5" stroke="black" fill="green"/>
   </g>
   <g id="cell124">
  <circle cx="487.43" cy="428.632" r="8.21193" stroke-width="0.5" stroke="black" fill="magenta"/>
  <circle cx="487.43" cy="428.632" r="4.96141" stroke-width="0.5" stroke="black" fill="magenta"/>
   </g>
   <g id="cell125">
  <circle cx="625.916" cy="483.723" r="7.81206" stroke-width="0.5" stroke="black" fill="green"/>
  <circle cx="625.916" cy="483.723" r="4.74336" stroke-width="0.5" stroke="black" fill="green"/>
   </g>
   <g id="cell126">
  <circle cx="628.988" cy="566.353" r="8.41081" stroke-width="0.5" stroke="black" fill="green"/>
  <circle cx="628.988" cy="566.353" r="5.05117" stroke-width="0.5" stroke="black" fill="green"/>
   </g>
   <g id="cell127">
  <circle cx="431.476" cy="360.673" r="7.71889" stroke-width="0.5" stroke="black" fill="green"/>
  <circle cx="431.476" cy="360.673" r="4.68955" stroke-width="0.5" stroke="black" fill="green"/>
   </g>
   <g id="cell128">
  <circle cx="372.4" cy="467.104" r="8.41036" stroke-width="0.5" stroke="black" fill="magenta"/>
  <circle cx="372.4" cy="467.104" r="5.05104" stroke-width="0.5" stroke="black" fill="magenta"/>
   </g>
   <g id="cell129">
  <circle cx="569.873" cy="543.896" r="8.41012" stroke-width="0.5" stroke="black" fill="cyan"/>
  <circle cx="569.873" cy="543.896" r="5.05097" stroke-width="0.5" stroke="black" fill="cyan"/>
   </g>
   <g id="cell130">
  <circle cx="545.311" cy="435.867" r="8.40949" stroke-width="0.5" stroke="black" fill="cyan"/>
  <circle cx="545.311" cy="435.867" r="5.0508" stroke-width="0.5" stroke="black" fill="cyan"/>
   </g>
   <g id="cell131">
  <circle cx="545.533" cy="514.043" r="7.95713" stroke-width="0.5" stroke="black" fill="cyan"/>
  <circle cx="545.533" cy="514.043" r="4.83915" stroke-width="0.5" stroke="black" fill="cyan"/>
   </g>
   <g id="cell132">
  <circle cx="443.768" cy="547.793" r="8.40878" stroke-width="0.5" stroke="black" fill="magenta"/>
  <circle cx="443.768" cy="547.793" r="5.05058" stroke-width="0.5" stroke="black" fill="magenta"/>
   </g>
   <g id="cell133">
  <circle cx="583.056" cy="463.836" r="8.40901" stroke-width="0.5" stroke="black" fill="cyan"/>
  <circle cx="583.056" cy="463.836" r="5.05063" stroke-width="0.5" stroke="black" fill="cyan"/>
   </g>
   <g id="cell201">
  <circle cx="560.452" cy="523.825" r="7.95713" stroke-width="0.5" stroke="black" fill="cyan"/>
  <circle cx="560.452" cy="523.825" r="4.83915" stroke-width="0.5" stroke="black" fill="cyan"/>
   </g>
   <g id="cell135">
  <circle cx="508.181" cy="583.059" r="8.4085" stroke-width="0.5" stroke="black" fill="magenta"/>
  <circle cx="508.181" cy="583.059" r="5.05047" stroke-width="0.5" stroke="black" fill="magenta"/>
   </g>
   <g id="cell136">
  <circle cx="470.352" cy="549.966" r="8.40782" stroke-width="0.5" stroke="black" fill="green"/>
  <circle cx="470.352" cy="549.966" r="5.05026" stroke-width="0.5" stroke="black" fill="green"/>
   </g>
   <g id="cell137">
  <circle cx="488.089" cy="613.778" r="8.40649" stroke-width="0.5" stroke="black" fill="green"/>
  <circle cx="488.089" cy="613.778" r="5.04986" stroke-width="0.5" stroke="black" fill="green"/>
   </g>
   <g id="cell138">
  <circle cx="501.761" cy="400.61" r="8.407" stroke-width="0.5" stroke="black" fill="green"/>
  <circle cx="501.761" cy="400.61" r="5.04998" stroke-width="0.5" stroke="black" fill="green"/>
   </g>
   <g id="cell139">
  <circle cx="415.148" cy="406.618" r="8.40614" stroke-width="0.5" stroke="black" fill="magenta"/>
  <circle cx="415.148" cy="406.618" r="5.0497" stroke-width="0.5" stroke="black" fill="magenta"/>
   </g>
   <g id="cell140">
  <circle cx="517.979" cy="571.659" r="8.40013" stroke-width="0.5" stroke="black" fill="magenta"/>
  <circle cx="517.979" cy="571.659" r="5.04779" stroke-width="0.5" stroke="black" fill="magenta"/>
   </g>
   <g id="cell141">
  <circle cx="572.705" cy="452.046" r="8.4041" stroke-width="0.5" stroke="black" fill="cyan"/>
  <circle cx="572.705" cy="452.046" r="5.04911" stroke-width="0.5" stroke="black" fill="cyan"/>
   </g>
   <g id="cell142">
  <circle cx="542.088" cy="420.997" r="8.31734" stroke-width="0.5" stroke="black" fill="green"/>
  <circle cx="542.088" cy="420.997" r="5.01406" stroke-width="0.5" stroke="black" fill="green"/>
   </g>
   <g id="cell143">
  <circle cx="430.293" cy="405.098" r="8.40208" stroke-width="0.5" stroke="black" fill="magenta"/>
  <circle cx="430.293" cy="405.098" r="5.04845" stroke-width="0.5" stroke="black" fill="magenta"/>
   </g>
   <g id="cell144">
  <circle cx="549.318" cy="407.671" r="8.38621" stroke-width="0.5" stroke="black" fill="green"/>
  <circle cx="549.318" cy="407.671" r="5.04282" stroke-width="0.5" stroke="black" fill="green"/>
   </g>
   <g id="cell185">
  <circle cx="599.015" cy="568.625" r="7.71105" stroke-width="0.5" stroke="black" fill="cyan"/>
  <circle cx="599.015" cy="568.625" r="4.69511" stroke-width="0.5" stroke="black" fill="cyan"/>
   </g>
   <g id="cell147">
  <circle cx="513.4" cy="557.416" r="8.40013" stroke-width="0.5" stroke="black" fill="magenta"/>
  <circle cx="513.4" cy="557.416" r="5.04779" stroke-width="0.5" stroke="black" fill="magenta"/>
   </g>
   <g id="cell148">
  <circle cx="506.154" cy="464.812" r="8.25322" stroke-width="0.5" stroke="black" fill="magenta"/>
  <circle cx="506.154" cy="464.812" r="4.98271" stroke-width="0.5" stroke="black" fill="magenta"/>
   </g>
   <g id="cell149">
  <circle cx="575.461" cy="399.607" r="8.40056" stroke-width="0.5" stroke="black" fill="magenta"/>
  <circle cx="575.461" cy="399.607" r="5.04776" stroke-width="0.5" stroke="black" fill="magenta"/>
   </g>
   <g id="cell150">
  <circle cx="411.47" cy="580.745" r="8.37251" stroke-width="0.5" stroke="black" fill="green"/>
  <circle cx="411.47" cy="580.745" r="5.03737" stroke-width="0.5" stroke="black" fill="green"/>
   </g>
   <g id="cell151">
  <circle cx="419.243" cy="529.799" r="8.39752" stroke-width="0.5" stroke="black" fill="green"/>
  <circle cx="419.243" cy="529.799" r="5.04666" stroke-width="0.5" stroke="black" fill="green"/>
   </g>
   <g id="cell152">
  <circle cx="373.393" cy="579.372" r="8.38983" stroke-width="0.5" stroke="black" fill="green"/>
  <circle cx="373.393" cy="579.372" r="5.04411" stroke-width="0.5" stroke="black" fill="green"/>
   </g>
   <g id="cell153">
  <circle cx="560.515" cy="461.923" r="8.39571" stroke-width="0.5" stroke="black" fill="cyan"/>
  <circle cx="560.515" cy="461.923" r="5.04599" stroke-width="0.5" stroke="black" fill="cyan"/>
   </g>
   <g id="cell154">
  <circle cx="386.856" cy="598.535" r="8.38376" stroke-width="0.5" stroke="black" fill="green"/>
  <circle cx="386.856" cy="598.535" r="5.04202" stroke-width="0.5" stroke="black" fill="green"/>
   </g>
   <g id="cell155">
  <circle cx="488.273" cy="583.065" r="8.39473" stroke-width="0.5" stroke="black" fill="green"/>
  <circle cx="488.273" cy="583.065" r="5.04562" stroke-width="0.5" stroke="black" fill="green"/>
   </g>
   <g id="cell156">
  <circle cx="457.537" cy="526.167" r="8.39469" stroke-width="0.5" stroke="black" fill="magenta"/>
  <circle cx="457.537" cy="526.167" r="5.04561" stroke-width="0.5" stroke="black" fill="magenta"/>
   </g>
   <g id="cell157">
  <circle cx="443.748" cy="519.933" r="8.38411" stroke-width="0.5" stroke="black" fill="magenta"/>
  <circle cx="443.748" cy="519.933" r="5.04199" stroke-width="0.5" stroke="black" fill="magenta"/>
   </g>
   <g id="cell158">
  <circle cx="564.857" cy="411.264" r="8.38734" stroke-width="0.5" stroke="black" fill="green"/>
  <circle cx="564.857" cy="411.264" r="5.04325" stroke-width="0.5" stroke="black" fill="green"/>
   </g>
   <g id="cell159">
  <circle cx="530.502" cy="398.036" r="8.12179" stroke-width="0.5" stroke="black" fill="green"/>
  <circle cx="530.502" cy="398.036" r="4.92144" stroke-width="0.5" stroke="black" fill="green"/>
   </g>
   <g id="cell160">
  <circle cx="464.418" cy="375.537" r="8.38949" stroke-width="0.5" stroke="black" fill="green"/>
  <circle cx="464.418" cy="375.537" r="5.04372" stroke-width="0.5" stroke="black" fill="green"/>
   </g>
   <g id="cell165">
  <circle cx="607.897" cy="526.477" r="8.1745" stroke-width="0.5" stroke="black" fill="magenta"/>
  <circle cx="607.897" cy="526.477" r="4.94496" stroke-width="0.5" stroke="black" fill="magenta"/>
   </g>
   <g id="cell166">
  <circle cx="480.253" cy="458.754" r="8.36945" stroke-width="0.5" stroke="black" fill="magenta"/>
  <circle cx="480.253" cy="458.754" r="5.03557" stroke-width="0.5" stroke="black" fill="magenta"/>
   </g>
   <g id="cell167">
  <circle cx="421.329" cy="392.396" r="8.36458" stroke-width="0.5" stroke="black" fill="green"/>
  <circle cx="421.329" cy="392.396" r="5.03347" stroke-width="0.5" stroke="black" fill="green"/>
   </g>
   <g id="cell170">
  <circle cx="460.176" cy="503.393" r="8.35404" stroke-width="0.5" stroke="black" fill="green"/>
  <circle cx="460.176" cy="503.393" r="5.02894" stroke-width="0.5" stroke="black" fill="green"/>
   </g>
   <g id="cell171">
  <circle cx="602.198" cy="479.856" r="8.34317" stroke-width="0.5" stroke="black" fill="cyan"/>
  <circle cx="602.198" cy="479.856" r="5.02416" stroke-width="0.5" stroke="black" fill="cyan"/>
   </g>
   <g id="cell172">
  <circle cx="552.132" cy="500.829" r="8.2844" stroke-width="0.5" stroke="black" fill="magenta"/>
  <circle cx="552.132" cy="500.829" r="4.99961" stroke-width="0.5" stroke="black" fill="magenta"/>
   </g>
   <g id="cell173">
  <circle cx="531.239" cy="520.566" r="8.33301" stroke-width="0.5" stroke="black" fill="cyan"/>
  <circle cx="531.239" cy="520.566" r="5.01992" stroke-width="0.5" stroke="black" fill="cyan"/>
   </g>
   <g id="cell174">
  <circle cx="494.101" cy="438.608" r="5.82376" stroke-width="0.5" stroke="black" fill="cyan"/>
  <circle cx="494.101" cy="438.608" r="3.55096" stroke-width="0.5" stroke="black" fill="cyan"/>
   </g>
   <g id="cell175">
  <circle cx="525.068" cy="606.599" r="8.02284" stroke-width="0.5" stroke="black" fill="green"/>
  <circle cx="525.068" cy="606.599" r="4.87217" stroke-width="0.5" stroke="black" fill="green"/>
   </g>
   <g id="cell176">
  <circle cx="557.174" cy="425.025" r="8.31734" stroke-width="0.5" stroke="black" fill="green"/>
  <circle cx="557.174" cy="425.025" r="5.01406" stroke-width="0.5" stroke="black" fill="green"/>
   </g>
   <g id="cell177">
  <circle cx="368.717" cy="564.427" r="8.25776" stroke-width="0.5" stroke="black" fill="cyan"/>
  <circle cx="368.717" cy="564.427" r="4.98727" stroke-width="0.5" stroke="black" fill="cyan"/>
   </g>
   <g id="cell178">
  <circle cx="562.305" cy="510.426" r="7.5817" stroke-width="0.5" stroke="black" fill="magenta"/>
  <circle cx="562.305" cy="510.426" r="4.62165" stroke-width="0.5" stroke="black" fill="magenta"/>
   </g>
   <g id="cell179">
  <circle cx="515.743" cy="517.116" r="8.31993" stroke-width="0.5" stroke="black" fill="cyan"/>
  <circle cx="515.743" cy="517.116" r="5.01374" stroke-width="0.5" stroke="black" fill="cyan"/>
   </g>
   <g id="cell180">
  <circle cx="619.789" cy="505.623" r="8.31491" stroke-width="0.5" stroke="black" fill="green"/>
  <circle cx="619.789" cy="505.623" r="5.01133" stroke-width="0.5" stroke="black" fill="green"/>
   </g>
   <g id="cell181">
  <circle cx="565.185" cy="532.101" r="2.4659" stroke-width="0.5" stroke="black" fill="cyan"/>
  <circle cx="565.185" cy="532.101" r="2.18839" stroke-width="0.5" stroke="black" fill="black"/>
   </g>
   <g id="cell182">
  <circle cx="532.396" cy="382.749" r="8.29853" stroke-width="0.5" stroke="black" fill="green"/>
  <circle cx="532.396" cy="382.749" r="5.00547" stroke-width="0.5" stroke="black" fill="green"/>
   </g>
   <g id="cell183">
  <circle cx="580.12" cy="521.088" r="6.94841" stroke-width="0.5" stroke="black" fill="magenta"/>
  <circle cx="580.12" cy="521.088" r="4.22488" stroke-width="0.5" stroke="black" fill="magenta"/>
   </g>
   <g id="cell184">
  <circle cx="431.263" cy="430.845" r="8.14162" stroke-width="0.5" stroke="black" fill="magenta"/>
  <circle cx="431.263" cy="430.845" r="4.93119" stroke-width="0.5" stroke="black" fill="magenta"/>
   </g>
   <g id="cell187">
  <circle cx="498.665" cy="497.16" r="8.28982" stroke-width="0.5" stroke="black" fill="cyan"/>
  <circle cx="498.665" cy="497.16" r="4.99955" stroke-width="0.5" stroke="black" fill="cyan"/>
   </g>
   <g id="cell188">
  <circle cx="534.989" cy="618.815" r="8.22639" stroke-width="0.5" stroke="black" fill="green"/>
  <circle cx="534.989" cy="618.815" r="4.97225" stroke-width="0.5" stroke="black" fill="green"/>
   </g>
   <g id="cell189">
  <circle cx="534.041" cy="474.849" r="8.26062" stroke-width="0.5" stroke="black" fill="cyan"/>
  <circle cx="534.041" cy="474.849" r="4.98585" stroke-width="0.5" stroke="black" fill="cyan"/>
   </g>
   <g id="cell190">
  <circle cx="546.831" cy="528.721" r="8.18999" stroke-width="0.5" stroke="black" fill="cyan"/>
  <circle cx="546.831" cy="528.721" r="4.95659" stroke-width="0.5" stroke="black" fill="cyan"/>
   </g>
   <g id="cell191">
  <circle cx="502.449" cy="478.909" r="8.25322" stroke-width="0.5" stroke="black" fill="magenta"/>
  <circle cx="502.449" cy="478.909" r="4.98271" stroke-width="0.5" stroke="black" fill="magenta"/>
   </g>
   <g id="cell192">
  <circle cx="474.051" cy="433.472" r="8.21193" stroke-width="0.5" stroke="black" fill="magenta"/>
  <circle cx="474.051" cy="433.472" r="4.96141" stroke-width="0.5" stroke="black" fill="magenta"/>
   </g>
   <g id="cell193">
  <circle cx="438.139" cy="417.78" r="8.14162" stroke-width="0.5" stroke="black" fill="magenta"/>
  <circle cx="438.139" cy="417.78" r="4.93119" stroke-width="0.5" stroke="black" fill="magenta"/>
   </g>
   <g id="cell194">
  <circle cx="602.205" cy="512.871" r="8.1745" stroke-width="0.5" stroke="black" fill="magenta"/>
  <circle cx="602.205" cy="512.871" r="4.94496" stroke-width="0.5" stroke="black" fill="magenta"/>
   </g>
   <g id="cell195">
  <circle cx="544.738" cy="393.078" r="8.12179" stroke-width="0.5" stroke="black" fill="green"/>
  <circle cx="544.738" cy="393.078" r="4.92144" stroke-width="0.5" stroke="black" fill="green"/>
   </g>
   <g id="cell196">
  <circle cx="459.599" cy="435.113" r="8.17495" stroke-width="0.5" stroke="black" fill="cyan"/>
  <circle cx="459.599" cy="435.113" r="4.94235" stroke-width="0.5" stroke="black" fill="cyan"/>
   </g>
   <g id="cell197">
  <circle cx="550.412" cy="619.536" r="8.16744" stroke-width="0.5" stroke="black" fill="green"/>
  <circle cx="550.412" cy="619.536" r="4.93861" stroke-width="0.5" stroke="black" fill="green"/>
   </g>
   <g id="cell198">
  <circle cx="423.823" cy="418.446" r="8.06977" stroke-width="0.5" stroke="black" fill="magenta"/>
  <circle cx="423.823" cy="418.446" r="4.89403" stroke-width="0.5" stroke="black" fill="magenta"/>
   </g>
   <g id="cell199">
  <circle cx="535.394" cy="595.916" r="8.02284" stroke-width="0.5" stroke="black" fill="green"/>
  <circle cx="535.394" cy="595.916" r="4.87217" stroke-width="0.5" stroke="black" fill="green"/>
   </g>
   <g id="cell200">
  <circle cx="445.638" cy="430.489" r="8.07893" stroke-width="0.5" stroke="black" fill="magenta"/>
  <circle cx="445.638" cy="430.489" r="4.89334" stroke-width="0.5" stroke="black" fill="magenta"/>
   </g>
   <g id="cell202">
  <circle cx="402.38" cy="607.368" r="8.02418" stroke-width="0.5" stroke="black" fill="cyan"/>
  <circle cx="402.38" cy="607.368" r="4.86209" stroke-width="0.5" stroke="black" fill="cyan"/>
   </g>
   <g id="cell203">
  <circle cx="363.046" cy="537.694" r="3.3612" stroke-width="0.5" stroke="black" fill="cyan"/>
  <circle cx="363.046" cy="537.694" r="2.57996" stroke-width="0.5" stroke="black" fill="black"/>
   </g>
   <g id="cell204">
  <circle cx="573.864" cy="486.976" r="7.97119" stroke-width="0.5" stroke="black" fill="magenta"/>
  <circle cx="573.864" cy="486.976" r="4.83901" stroke-width="0.5" stroke="black" fill="magenta"/>
   </g>
   <g id="cell205">
  <circle cx="427.406" cy="478.16" r="7.92276" stroke-width="0.5" stroke="black" fill="green"/>
  <circle cx="427.406" cy="478.16" r="4.80596" stroke-width="0.5" stroke="black" fill="green"/>
   </g>
   <g id="cell206">
  <circle cx="465.49" cy="623.57" r="7.83019" stroke-width="0.5" stroke="black" fill="magenta"/>
  <circle cx="465.49" cy="623.57" r="4.75343" stroke-width="0.5" stroke="black" fill="magenta"/>
   </g>
   <g id="cell207">
  <circle cx="621.692" cy="469.581" r="7.81206" stroke-width="0.5" stroke="black" fill="green"/>
  <circle cx="621.692" cy="469.581" r="4.74336" stroke-width="0.5" stroke="black" fill="green"/>
   </g>
   <g id="cell208">
  <circle cx="583.251" cy="551.483" r="6.59933" stroke-width="0.5" stroke="black" fill="cyan"/>
  <circle cx="583.251" cy="551.483" r="4.04991" stroke-width="0.5" stroke="black" fill="cyan"/>
   </g>
   <g id="cell209">
  <circle cx="441.469" cy="350.015" r="7.71889" stroke-width="0.5" stroke="black" fill="green"/>
  <circle cx="441.469" cy="350.015" r="4.68955" stroke-width="0.5" stroke="black" fill="green"/>
   </g>
   <g id="cell210">
  <circle cx="655.787" cy="538.396" r="7.72054" stroke-width="0.5" stroke="black" fill="green"/>
  <circle cx="655.787" cy="538.396" r="4.69002" stroke-width="0.5" stroke="black" fill="green"/>
   </g>
   <g id="cell213">
  <circle cx="557.519" cy="382.491" r="6.58598" stroke-width="0.5" stroke="black" fill="green"/>
  <circle cx="557.519" cy="382.491" r="4.04283" stroke-width="0.5" stroke="black" fill="green"/>
   </g>
   <g id="cell214">
  <circle cx="501.374" cy="428.662" r="7.27974" stroke-width="0.5" stroke="black" fill="cyan"/>
  <circle cx="501.374" cy="428.662" r="4.43382" stroke-width="0.5" stroke="black" fill="cyan"/>
   </g>
   <g id="cell215">
  <circle cx="433.583" cy="529.68" r="7.31248" stroke-width="0.5" stroke="black" fill="magenta"/>
  <circle cx="433.583" cy="529.68" r="4.4484" stroke-width="0.5" stroke="black" fill="magenta"/>
   </g>
   <g id="cell216">
  <circle cx="544.691" cy="579.221" r="7.25314" stroke-width="0.5" stroke="black" fill="green"/>
  <circle cx="544.691" cy="579.221" r="4.41109" stroke-width="0.5" stroke="black" fill="green"/>
   </g>
   <g id="cell217">
  <circle cx="545.833" cy="379.603" r="6.58598" stroke-width="0.5" stroke="black" fill="green"/>
  <circle cx="545.833" cy="379.603" r="4.04283" stroke-width="0.5" stroke="black" fill="green"/>
   </g>
   <g id="cell218">
  <circle cx="594.738" cy="555.882" r="6.59933" stroke-width="0.5" stroke="black" fill="cyan"/>
  <circle cx="594.738" cy="555.882" r="4.04991" stroke-width="0.5" stroke="black" fill="cyan"/>
   </g>
   <g id="cell219">
  <circle cx="575.554" cy="509.621" r="6.94841" stroke-width="0.5" stroke="black" fill="magenta"/>
  <circle cx="575.554" cy="509.621" r="4.22488" stroke-width="0.5" stroke="black" fill="magenta"/>
   </g>
   <g id="cell221">
  <circle cx="588.053" cy="396.927" r="5.63136" stroke-width="0.5" stroke="black" fill="magenta"/>
  <circle cx="588.053" cy="396.927" r="3.42422" stroke-width="0.5" stroke="black" fill="magenta"/>
   </g>
   <g id="cell222">
  <circle cx="503.085" cy="442.467" r="5.82376" stroke-width="0.5" stroke="black" fill="cyan"/>
  <circle cx="503.085" cy="442.467" r="3.55096" stroke-width="0.5" stroke="black" fill="cyan"/>
   </g>
   <g id="cell223">
  <circle cx="509.593" cy="621.852" r="6.71139" stroke-width="0.5" stroke="black" fill="green"/>
  <circle cx="509.593" cy="621.852" r="4.03431" stroke-width="0.5" stroke="black" fill="green"/>
   </g>
  </g>
 </g>
  <rect x="775" y="1035" width="200" height="10" stroke-width="2" stroke="rgb(255,255,255)" fill="rgb(0,0,0)"/>
  <text x="781.25" y="1028.75"
   font-family="Arial" font-size="25" fill="black" >
   200 &#956;m
  </text>
  <text x="25" y="1045"
   font-family="Arial" font-size="18.75" fill="black" >
   0 days, 0 hours, 0 minutes, and 51.5530 seconds
  </text>
  <rect x="0" y="70" width="1000" height="1000" stroke-width="2" stroke="rgb(0,0,0)" fill="none"/>
</svg>
