<?xml version="1.0" encoding="UTF-8" standalone="no"?>
<!-- Created with PhysiCell (http://PhysiCell.MathCancer.org/) -->
<svg 
 xmlns:dc="http://purl.org/dc/elements/1.1/" 
 xmlns:cc="http://creativecommons.org/ns#" 
 xmlns:rdf="http://www.w3.org/1999/02/22-rdf-syntax-ns#" 
 xmlns:svg="http://www.w3.org/2000/svg" 
 xmlns="http://www.w3.org/2000/svg" 
 version="1.1" 
 width="1000" 
 height="1070" 
 id="svg2">
  <rect x="0" y="0" width="1000" height="1070" stroke-width="2" stroke="white" fill="white"/>
  <text x="12.5" y="30"
   font-family="Arial" font-size="25" fill="black" >
   Current time: 1 days, 2 hours, and 42.00 minutes, z = 0.00 &#956;m
  </text>
  <text x="12.5" y="57.5"
   font-family="Arial" font-size="23.75" fill="black" >
   162 agents
  </text>
 <g id="tissue" 
    transform="translate(0,1070) scale(1,-1)">
  <g id="ECM">
  </g>
  <g id="cells">
   <g id="cell0">
  <circle cx="514.894" cy="534.58" r="8.40862" stroke-width="0.5" stroke="black" fill="magenta"/>
  <circle cx="514.894" cy="534.58" r="5.0505" stroke-width="0.5" stroke="black" fill="magenta"/>
   </g>
   <g id="cell1">
  <circle cx="601.472" cy="523.132" r="8.41271" stroke-width="0.5" stroke="black" fill="magenta"/>
  <circle cx="601.472" cy="523.132" r="5.05167" stroke-width="0.5" stroke="black" fill="magenta"/>
   </g>
   <g id="cell2">
  <circle cx="518.898" cy="597.962" r="8.41271" stroke-width="0.5" stroke="black" fill="magenta"/>
  <circle cx="518.898" cy="597.962" r="5.05167" stroke-width="0.5" stroke="black" fill="magenta"/>
   </g>
   <g id="cell3">
  <circle cx="523.859" cy="546.924" r="8.40603" stroke-width="0.5" stroke="black" fill="magenta"/>
  <circle cx="523.859" cy="546.924" r="5.04973" stroke-width="0.5" stroke="black" fill="magenta"/>
   </g>
   <g id="cell4">
  <circle cx="485.587" cy="448.195" r="8.31946" stroke-width="0.5" stroke="black" fill="magenta"/>
  <circle cx="485.587" cy="448.195" r="5.0136" stroke-width="0.5" stroke="black" fill="magenta"/>
   </g>
   <g id="cell5">
  <circle cx="465.032" cy="493.3" r="8.41271" stroke-width="0.5" stroke="black" fill="magenta"/>
  <circle cx="465.032" cy="493.3" r="5.05167" stroke-width="0.5" stroke="black" fill="magenta"/>
   </g>
   <g id="cell6">
  <circle cx="597.211" cy="515.638" r="1.16344" stroke-width="0.5" stroke="black" fill="magenta"/>
  <circle cx="597.211" cy="515.638" r="1.15973" stroke-width="0.5" stroke="black" fill="black"/>
   </g>
   <g id="cell7">
  <circle cx="495.766" cy="459.092" r="8.38118" stroke-width="0.5" stroke="black" fill="magenta"/>
  <circle cx="495.766" cy="459.092" r="5.04034" stroke-width="0.5" stroke="black" fill="magenta"/>
   </g>
   <g id="cell8">
  <circle cx="377.032" cy="548.256" r="6.73287" stroke-width="0.5" stroke="black" fill="magenta"/>
  <circle cx="377.032" cy="548.256" r="4.05039" stroke-width="0.5" stroke="black" fill="magenta"/>
   </g>
   <g id="cell9">
  <circle cx="460.472" cy="599.786" r="1.20653" stroke-width="0.5" stroke="black" fill="magenta"/>
  <circle cx="460.472" cy="599.786" r="1.20179" stroke-width="0.5" stroke="black" fill="black"/>
   </g>
   <g id="cell10">
  <circle cx="586.828" cy="388.878" r="7.61469" stroke-width="0.5" stroke="black" fill="magenta"/>
  <circle cx="586.828" cy="388.878" r="4.62762" stroke-width="0.5" stroke="black" fill="magenta"/>
   </g>
   <g id="cell11">
  <circle cx="592.085" cy="590.052" r="8.41271" stroke-width="0.5" stroke="black" fill="magenta"/>
  <circle cx="592.085" cy="590.052" r="5.05167" stroke-width="0.5" stroke="black" fill="magenta"/>
   </g>
   <g id="cell12">
  <circle cx="505.256" cy="592.052" r="8.14594" stroke-width="0.5" stroke="black" fill="magenta"/>
  <circle cx="505.256" cy="592.052" r="4.92726" stroke-width="0.5" stroke="black" fill="magenta"/>
   </g>
   <g id="cell13">
  <circle cx="389.371" cy="569.481" r="8.41271" stroke-width="0.5" stroke="black" fill="magenta"/>
  <circle cx="389.371" cy="569.481" r="5.05167" stroke-width="0.5" stroke="black" fill="magenta"/>
   </g>
   <g id="cell14">
  <circle cx="522.237" cy="403.992" r="8.41271" stroke-width="0.5" stroke="black" fill="magenta"/>
  <circle cx="522.237" cy="403.992" r="5.05167" stroke-width="0.5" stroke="black" fill="magenta"/>
   </g>
   <g id="cell15">
  <circle cx="381.888" cy="478.944" r="8.26685" stroke-width="0.5" stroke="black" fill="magenta"/>
  <circle cx="381.888" cy="478.944" r="4.98849" stroke-width="0.5" stroke="black" fill="magenta"/>
   </g>
   <g id="cell16">
  <circle cx="438.235" cy="421.84" r="7.50532" stroke-width="0.5" stroke="black" fill="magenta"/>
  <circle cx="438.235" cy="421.84" r="4.59597" stroke-width="0.5" stroke="black" fill="magenta"/>
   </g>
   <g id="cell17">
  <circle cx="571.392" cy="496.391" r="8.41271" stroke-width="0.5" stroke="black" fill="magenta"/>
  <circle cx="571.392" cy="496.391" r="5.05167" stroke-width="0.5" stroke="black" fill="magenta"/>
   </g>
   <g id="cell18">
  <circle cx="517.977" cy="389.304" r="8.41271" stroke-width="0.5" stroke="black" fill="magenta"/>
  <circle cx="517.977" cy="389.304" r="5.05167" stroke-width="0.5" stroke="black" fill="magenta"/>
   </g>
   <g id="cell19">
  <circle cx="457.976" cy="540.629" r="8.38047" stroke-width="0.5" stroke="black" fill="magenta"/>
  <circle cx="457.976" cy="540.629" r="5.04032" stroke-width="0.5" stroke="black" fill="magenta"/>
   </g>
   <g id="cell20">
  <circle cx="531.935" cy="415.683" r="8.41271" stroke-width="0.5" stroke="black" fill="magenta"/>
  <circle cx="531.935" cy="415.683" r="5.05167" stroke-width="0.5" stroke="black" fill="magenta"/>
   </g>
   <g id="cell21">
  <circle cx="466.868" cy="632.278" r="8.41271" stroke-width="0.5" stroke="black" fill="magenta"/>
  <circle cx="466.868" cy="632.278" r="5.05167" stroke-width="0.5" stroke="black" fill="magenta"/>
   </g>
   <g id="cell22">
  <circle cx="555.968" cy="496.646" r="8.41271" stroke-width="0.5" stroke="black" fill="magenta"/>
  <circle cx="555.968" cy="496.646" r="5.05167" stroke-width="0.5" stroke="black" fill="magenta"/>
   </g>
   <g id="cell23">
  <circle cx="548.875" cy="482.49" r="8.41271" stroke-width="0.5" stroke="black" fill="magenta"/>
  <circle cx="548.875" cy="482.49" r="5.05167" stroke-width="0.5" stroke="black" fill="magenta"/>
   </g>
   <g id="cell24">
  <circle cx="558.115" cy="381.619" r="8.41271" stroke-width="0.5" stroke="black" fill="magenta"/>
  <circle cx="558.115" cy="381.619" r="5.05167" stroke-width="0.5" stroke="black" fill="magenta"/>
   </g>
   <g id="cell25">
  <circle cx="648.424" cy="543.072" r="8.41016" stroke-width="0.5" stroke="black" fill="green"/>
  <circle cx="648.424" cy="543.072" r="5.05098" stroke-width="0.5" stroke="black" fill="green"/>
   </g>
   <g id="cell26">
  <circle cx="557.383" cy="397.177" r="8.38028" stroke-width="0.5" stroke="black" fill="green"/>
  <circle cx="557.383" cy="397.177" r="5.03997" stroke-width="0.5" stroke="black" fill="green"/>
   </g>
   <g id="cell27">
  <circle cx="464.724" cy="400.419" r="8.41112" stroke-width="0.5" stroke="black" fill="green"/>
  <circle cx="464.724" cy="400.419" r="5.05126" stroke-width="0.5" stroke="black" fill="green"/>
   </g>
   <g id="cell28">
  <circle cx="434.567" cy="534.972" r="7.41548" stroke-width="0.5" stroke="black" fill="green"/>
  <circle cx="434.567" cy="534.972" r="4.50723" stroke-width="0.5" stroke="black" fill="green"/>
   </g>
   <g id="cell29">
  <circle cx="450.016" cy="513.387" r="8.41271" stroke-width="0.5" stroke="black" fill="green"/>
  <circle cx="450.016" cy="513.387" r="5.05167" stroke-width="0.5" stroke="black" fill="green"/>
   </g>
   <g id="cell30">
  <circle cx="484.774" cy="537.049" r="8.10114" stroke-width="0.5" stroke="black" fill="green"/>
  <circle cx="484.774" cy="537.049" r="4.90437" stroke-width="0.5" stroke="black" fill="green"/>
   </g>
   <g id="cell31">
  <circle cx="412.11" cy="542.378" r="8.41271" stroke-width="0.5" stroke="black" fill="green"/>
  <circle cx="412.11" cy="542.378" r="5.05167" stroke-width="0.5" stroke="black" fill="green"/>
   </g>
   <g id="cell32">
  <circle cx="421.367" cy="481.396" r="1.44859" stroke-width="0.5" stroke="black" fill="green"/>
  <circle cx="421.367" cy="481.396" r="1.43274" stroke-width="0.5" stroke="black" fill="black"/>
   </g>
   <g id="cell33">
  <circle cx="501.949" cy="424.455" r="8.04604" stroke-width="0.5" stroke="black" fill="green"/>
  <circle cx="501.949" cy="424.455" r="4.87399" stroke-width="0.5" stroke="black" fill="green"/>
   </g>
   <g id="cell34">
  <circle cx="396.819" cy="450.575" r="1.48947" stroke-width="0.5" stroke="black" fill="green"/>
  <circle cx="396.819" cy="450.575" r="1.47064" stroke-width="0.5" stroke="black" fill="black"/>
   </g>
   <g id="cell35">
  <circle cx="554.423" cy="545.035" r="8.41271" stroke-width="0.5" stroke="black" fill="green"/>
  <circle cx="554.423" cy="545.035" r="5.05167" stroke-width="0.5" stroke="black" fill="green"/>
   </g>
   <g id="cell36">
  <circle cx="387.757" cy="582.785" r="6.24652" stroke-width="0.5" stroke="black" fill="green"/>
  <circle cx="387.757" cy="582.785" r="3.85952" stroke-width="0.5" stroke="black" fill="green"/>
   </g>
   <g id="cell37">
  <circle cx="640.168" cy="457.172" r="8.41088" stroke-width="0.5" stroke="black" fill="green"/>
  <circle cx="640.168" cy="457.172" r="5.05119" stroke-width="0.5" stroke="black" fill="green"/>
   </g>
   <g id="cell38">
  <circle cx="530.628" cy="591.137" r="6.73119" stroke-width="0.5" stroke="black" fill="green"/>
  <circle cx="530.628" cy="591.137" r="4.04994" stroke-width="0.5" stroke="black" fill="green"/>
   </g>
   <g id="cell39">
  <circle cx="613.251" cy="491.013" r="8.41271" stroke-width="0.5" stroke="black" fill="green"/>
  <circle cx="613.251" cy="491.013" r="5.05167" stroke-width="0.5" stroke="black" fill="green"/>
   </g>
   <g id="cell40">
  <circle cx="485.799" cy="566.948" r="7.24243" stroke-width="0.5" stroke="black" fill="green"/>
  <circle cx="485.799" cy="566.948" r="4.39934" stroke-width="0.5" stroke="black" fill="green"/>
   </g>
   <g id="cell41">
  <circle cx="366.55" cy="482.049" r="8.41271" stroke-width="0.5" stroke="black" fill="green"/>
  <circle cx="366.55" cy="482.049" r="5.05167" stroke-width="0.5" stroke="black" fill="green"/>
   </g>
   <g id="cell42">
  <circle cx="438.555" cy="492.812" r="8.41271" stroke-width="0.5" stroke="black" fill="green"/>
  <circle cx="438.555" cy="492.812" r="5.05167" stroke-width="0.5" stroke="black" fill="green"/>
   </g>
   <g id="cell43">
  <circle cx="560.999" cy="438.057" r="8.41271" stroke-width="0.5" stroke="black" fill="green"/>
  <circle cx="560.999" cy="438.057" r="5.05167" stroke-width="0.5" stroke="black" fill="green"/>
   </g>
   <g id="cell44">
  <circle cx="473.358" cy="626.317" r="1.20653" stroke-width="0.5" stroke="black" fill="green"/>
  <circle cx="473.358" cy="626.317" r="1.20179" stroke-width="0.5" stroke="black" fill="black"/>
   </g>
   <g id="cell145">
  <circle cx="425.358" cy="418.007" r="7.50532" stroke-width="0.5" stroke="black" fill="magenta"/>
  <circle cx="425.358" cy="418.007" r="4.59597" stroke-width="0.5" stroke="black" fill="magenta"/>
   </g>
   <g id="cell46">
  <circle cx="521.078" cy="613.367" r="8.39834" stroke-width="0.5" stroke="black" fill="green"/>
  <circle cx="521.078" cy="613.367" r="5.04696" stroke-width="0.5" stroke="black" fill="green"/>
   </g>
   <g id="cell47">
  <circle cx="503.186" cy="494.571" r="8.40378" stroke-width="0.5" stroke="black" fill="green"/>
  <circle cx="503.186" cy="494.571" r="5.0489" stroke-width="0.5" stroke="black" fill="green"/>
   </g>
   <g id="cell48">
  <circle cx="570.96" cy="604.808" r="8.37982" stroke-width="0.5" stroke="black" fill="green"/>
  <circle cx="570.96" cy="604.808" r="5.04035" stroke-width="0.5" stroke="black" fill="green"/>
   </g>
   <g id="cell49">
  <circle cx="432.04" cy="393.985" r="8.41271" stroke-width="0.5" stroke="black" fill="green"/>
  <circle cx="432.04" cy="393.985" r="5.05167" stroke-width="0.5" stroke="black" fill="green"/>
   </g>
   <g id="cell50">
  <circle cx="512.523" cy="507.813" r="8.36659" stroke-width="0.5" stroke="black" fill="cyan"/>
  <circle cx="512.523" cy="507.813" r="5.03457" stroke-width="0.5" stroke="black" fill="cyan"/>
   </g>
   <g id="cell51">
  <circle cx="401.694" cy="597.121" r="8.41271" stroke-width="0.5" stroke="black" fill="cyan"/>
  <circle cx="401.694" cy="597.121" r="5.05167" stroke-width="0.5" stroke="black" fill="cyan"/>
   </g>
   <g id="cell52">
  <circle cx="516.681" cy="419.046" r="8.41271" stroke-width="0.5" stroke="black" fill="cyan"/>
  <circle cx="516.681" cy="419.046" r="5.05167" stroke-width="0.5" stroke="black" fill="cyan"/>
   </g>
   <g id="cell53">
  <circle cx="572.478" cy="427.046" r="8.40056" stroke-width="0.5" stroke="black" fill="cyan"/>
  <circle cx="572.478" cy="427.046" r="5.04776" stroke-width="0.5" stroke="black" fill="cyan"/>
   </g>
   <g id="cell54">
  <circle cx="480.474" cy="422.137" r="8.40537" stroke-width="0.5" stroke="black" fill="cyan"/>
  <circle cx="480.474" cy="422.137" r="5.04944" stroke-width="0.5" stroke="black" fill="cyan"/>
   </g>
   <g id="cell55">
  <circle cx="522.102" cy="461.333" r="8.40113" stroke-width="0.5" stroke="black" fill="cyan"/>
  <circle cx="522.102" cy="461.333" r="5.04806" stroke-width="0.5" stroke="black" fill="cyan"/>
   </g>
   <g id="cell56">
  <circle cx="617.059" cy="522.404" r="8.41271" stroke-width="0.5" stroke="black" fill="cyan"/>
  <circle cx="617.059" cy="522.404" r="5.05167" stroke-width="0.5" stroke="black" fill="cyan"/>
   </g>
   <g id="cell105">
  <circle cx="506.929" cy="607.039" r="8.01272" stroke-width="0.5" stroke="black" fill="green"/>
  <circle cx="506.929" cy="607.039" r="4.86123" stroke-width="0.5" stroke="black" fill="green"/>
   </g>
   <g id="cell58">
  <circle cx="563.281" cy="484.794" r="7.30216" stroke-width="0.5" stroke="black" fill="cyan"/>
  <circle cx="563.281" cy="484.794" r="4.43696" stroke-width="0.5" stroke="black" fill="cyan"/>
   </g>
   <g id="cell59">
  <circle cx="385.732" cy="440.058" r="8.41271" stroke-width="0.5" stroke="black" fill="cyan"/>
  <circle cx="385.732" cy="440.058" r="5.05167" stroke-width="0.5" stroke="black" fill="cyan"/>
   </g>
   <g id="cell60">
  <circle cx="591.607" cy="474.032" r="8.41271" stroke-width="0.5" stroke="black" fill="cyan"/>
  <circle cx="591.607" cy="474.032" r="5.05167" stroke-width="0.5" stroke="black" fill="cyan"/>
   </g>
   <g id="cell61">
  <circle cx="557.056" cy="621.932" r="2.08246" stroke-width="0.5" stroke="black" fill="cyan"/>
  <circle cx="557.056" cy="621.932" r="1.95565" stroke-width="0.5" stroke="black" fill="black"/>
   </g>
   <g id="cell62">
  <circle cx="512.593" cy="435.476" r="8.34238" stroke-width="0.5" stroke="black" fill="cyan"/>
  <circle cx="512.593" cy="435.476" r="5.02396" stroke-width="0.5" stroke="black" fill="cyan"/>
   </g>
   <g id="cell63">
  <circle cx="585.247" cy="539.939" r="8.25146" stroke-width="0.5" stroke="black" fill="cyan"/>
  <circle cx="585.247" cy="539.939" r="4.98141" stroke-width="0.5" stroke="black" fill="cyan"/>
   </g>
   <g id="cell64">
  <circle cx="509.674" cy="638.588" r="8.41271" stroke-width="0.5" stroke="black" fill="cyan"/>
  <circle cx="509.674" cy="638.588" r="5.05167" stroke-width="0.5" stroke="black" fill="cyan"/>
   </g>
   <g id="cell65">
  <circle cx="548.632" cy="464.492" r="8.40774" stroke-width="0.5" stroke="black" fill="cyan"/>
  <circle cx="548.632" cy="464.492" r="5.05022" stroke-width="0.5" stroke="black" fill="cyan"/>
   </g>
   <g id="cell66">
  <circle cx="530.422" cy="533.271" r="8.40494" stroke-width="0.5" stroke="black" fill="cyan"/>
  <circle cx="530.422" cy="533.271" r="5.04929" stroke-width="0.5" stroke="black" fill="cyan"/>
   </g>
   <g id="cell67">
  <circle cx="354.508" cy="492.989" r="8.41271" stroke-width="0.5" stroke="black" fill="cyan"/>
  <circle cx="354.508" cy="492.989" r="5.05167" stroke-width="0.5" stroke="black" fill="cyan"/>
   </g>
   <g id="cell68">
  <circle cx="562.941" cy="558.281" r="8.41271" stroke-width="0.5" stroke="black" fill="cyan"/>
  <circle cx="562.941" cy="558.281" r="5.05167" stroke-width="0.5" stroke="black" fill="cyan"/>
   </g>
   <g id="cell69">
  <circle cx="441.952" cy="460.886" r="8.41271" stroke-width="0.5" stroke="black" fill="cyan"/>
  <circle cx="441.952" cy="460.886" r="5.05167" stroke-width="0.5" stroke="black" fill="cyan"/>
   </g>
   <g id="cell70">
  <circle cx="577.521" cy="481.565" r="8.41271" stroke-width="0.5" stroke="black" fill="cyan"/>
  <circle cx="577.521" cy="481.565" r="5.05167" stroke-width="0.5" stroke="black" fill="cyan"/>
   </g>
   <g id="cell71">
  <circle cx="382.688" cy="525.107" r="8.38454" stroke-width="0.5" stroke="black" fill="cyan"/>
  <circle cx="382.688" cy="525.107" r="5.04168" stroke-width="0.5" stroke="black" fill="cyan"/>
   </g>
   <g id="cell72">
  <circle cx="528.442" cy="506.308" r="8.40557" stroke-width="0.5" stroke="black" fill="cyan"/>
  <circle cx="528.442" cy="506.308" r="5.04951" stroke-width="0.5" stroke="black" fill="cyan"/>
   </g>
   <g id="cell73">
  <circle cx="363.995" cy="553.357" r="8.40873" stroke-width="0.5" stroke="black" fill="cyan"/>
  <circle cx="363.995" cy="553.357" r="5.05054" stroke-width="0.5" stroke="black" fill="cyan"/>
   </g>
   <g id="cell74">
  <circle cx="548.2" cy="434.21" r="1.13773" stroke-width="0.5" stroke="black" fill="cyan"/>
  <circle cx="548.2" cy="434.21" r="1.13421" stroke-width="0.5" stroke="black" fill="black"/>
   </g>
   <g id="cell75">
  <circle cx="527.709" cy="430.521" r="8.41116" stroke-width="0.5" stroke="black" fill="cyan"/>
  <circle cx="527.709" cy="430.521" r="5.05127" stroke-width="0.5" stroke="black" fill="cyan"/>
   </g>
   <g id="cell76">
  <circle cx="439.099" cy="379.854" r="8.38953" stroke-width="0.5" stroke="black" fill="green"/>
  <circle cx="439.099" cy="379.854" r="5.04403" stroke-width="0.5" stroke="black" fill="green"/>
   </g>
   <g id="cell77">
  <circle cx="475.669" cy="436.958" r="8.39487" stroke-width="0.5" stroke="black" fill="magenta"/>
  <circle cx="475.669" cy="436.958" r="5.04577" stroke-width="0.5" stroke="black" fill="magenta"/>
   </g>
   <g id="cell78">
  <circle cx="624.874" cy="461.92" r="8.40682" stroke-width="0.5" stroke="black" fill="green"/>
  <circle cx="624.874" cy="461.92" r="5.04998" stroke-width="0.5" stroke="black" fill="green"/>
   </g>
   <g id="cell79">
  <circle cx="517.166" cy="477.88" r="8.41067" stroke-width="0.5" stroke="black" fill="cyan"/>
  <circle cx="517.166" cy="477.88" r="5.05113" stroke-width="0.5" stroke="black" fill="cyan"/>
   </g>
   <g id="cell80">
  <circle cx="543.19" cy="616.522" r="8.34149" stroke-width="0.5" stroke="black" fill="green"/>
  <circle cx="543.19" cy="616.522" r="5.02371" stroke-width="0.5" stroke="black" fill="green"/>
   </g>
   <g id="cell81">
  <circle cx="545.207" cy="592.979" r="8.40941" stroke-width="0.5" stroke="black" fill="green"/>
  <circle cx="545.207" cy="592.979" r="5.05079" stroke-width="0.5" stroke="black" fill="green"/>
   </g>
   <g id="cell82">
  <circle cx="532.045" cy="559.272" r="7.97504" stroke-width="0.5" stroke="black" fill="magenta"/>
  <circle cx="532.045" cy="559.272" r="4.83544" stroke-width="0.5" stroke="black" fill="magenta"/>
   </g>
   <g id="cell83">
  <circle cx="635.364" cy="552.138" r="8.29536" stroke-width="0.5" stroke="black" fill="green"/>
  <circle cx="635.364" cy="552.138" r="5.00243" stroke-width="0.5" stroke="black" fill="green"/>
   </g>
   <g id="cell84">
  <circle cx="518.963" cy="493.599" r="8.40895" stroke-width="0.5" stroke="black" fill="cyan"/>
  <circle cx="518.963" cy="493.599" r="5.05061" stroke-width="0.5" stroke="black" fill="cyan"/>
   </g>
   <g id="cell85">
  <circle cx="352.362" cy="542.456" r="8.40153" stroke-width="0.5" stroke="black" fill="cyan"/>
  <circle cx="352.362" cy="542.456" r="5.04824" stroke-width="0.5" stroke="black" fill="cyan"/>
   </g>
   <g id="cell86">
  <circle cx="499.912" cy="535.621" r="8.33273" stroke-width="0.5" stroke="black" fill="magenta"/>
  <circle cx="499.912" cy="535.621" r="5.01983" stroke-width="0.5" stroke="black" fill="magenta"/>
   </g>
   <g id="cell87">
  <circle cx="578.946" cy="557.038" r="8.3969" stroke-width="0.5" stroke="black" fill="cyan"/>
  <circle cx="578.946" cy="557.038" r="5.0466" stroke-width="0.5" stroke="black" fill="cyan"/>
   </g>
   <g id="cell88">
  <circle cx="446.976" cy="533.895" r="6.36171" stroke-width="0.5" stroke="black" fill="magenta"/>
  <circle cx="446.976" cy="533.895" r="3.90411" stroke-width="0.5" stroke="black" fill="magenta"/>
   </g>
   <g id="cell89">
  <circle cx="551.155" cy="449.674" r="7.84807" stroke-width="0.5" stroke="black" fill="cyan"/>
  <circle cx="551.155" cy="449.674" r="4.77693" stroke-width="0.5" stroke="black" fill="cyan"/>
   </g>
   <g id="cell90">
  <circle cx="636.611" cy="472.671" r="8.29691" stroke-width="0.5" stroke="black" fill="green"/>
  <circle cx="636.611" cy="472.671" r="5.00346" stroke-width="0.5" stroke="black" fill="green"/>
   </g>
   <g id="cell91">
  <circle cx="547.109" cy="558.842" r="8.40298" stroke-width="0.5" stroke="black" fill="magenta"/>
  <circle cx="547.109" cy="558.842" r="5.04879" stroke-width="0.5" stroke="black" fill="magenta"/>
   </g>
   <g id="cell92">
  <circle cx="486.376" cy="552.348" r="8.4065" stroke-width="0.5" stroke="black" fill="green"/>
  <circle cx="486.376" cy="552.348" r="5.04982" stroke-width="0.5" stroke="black" fill="green"/>
   </g>
   <g id="cell93">
  <circle cx="538.955" cy="546.165" r="8.40298" stroke-width="0.5" stroke="black" fill="magenta"/>
  <circle cx="538.955" cy="546.165" r="5.04879" stroke-width="0.5" stroke="black" fill="magenta"/>
   </g>
   <g id="cell94">
  <circle cx="540.825" cy="496.357" r="8.40557" stroke-width="0.5" stroke="black" fill="cyan"/>
  <circle cx="540.825" cy="496.357" r="5.04951" stroke-width="0.5" stroke="black" fill="cyan"/>
   </g>
   <g id="cell95">
  <circle cx="464.873" cy="425.804" r="8.40537" stroke-width="0.5" stroke="black" fill="cyan"/>
  <circle cx="464.873" cy="425.804" r="5.04944" stroke-width="0.5" stroke="black" fill="cyan"/>
   </g>
   <g id="cell96">
  <circle cx="545.841" cy="532.159" r="8.19061" stroke-width="0.5" stroke="black" fill="cyan"/>
  <circle cx="545.841" cy="532.159" r="4.95119" stroke-width="0.5" stroke="black" fill="cyan"/>
   </g>
   <g id="cell97">
  <circle cx="421.734" cy="466.591" r="8.39792" stroke-width="0.5" stroke="black" fill="green"/>
  <circle cx="421.734" cy="466.591" r="5.04702" stroke-width="0.5" stroke="black" fill="green"/>
   </g>
   <g id="cell98">
  <circle cx="490.843" cy="523.135" r="8.31576" stroke-width="0.5" stroke="black" fill="green"/>
  <circle cx="490.843" cy="523.135" r="5.0124" stroke-width="0.5" stroke="black" fill="green"/>
   </g>
   <g id="cell99">
  <circle cx="358.414" cy="527.664" r="8.40153" stroke-width="0.5" stroke="black" fill="cyan"/>
  <circle cx="358.414" cy="527.664" r="5.04824" stroke-width="0.5" stroke="black" fill="cyan"/>
   </g>
   <g id="cell100">
  <circle cx="447.234" cy="399.026" r="8.40135" stroke-width="0.5" stroke="black" fill="green"/>
  <circle cx="447.234" cy="399.026" r="5.04812" stroke-width="0.5" stroke="black" fill="green"/>
   </g>
   <g id="cell101">
  <circle cx="531.404" cy="484.491" r="8.16889" stroke-width="0.5" stroke="black" fill="cyan"/>
  <circle cx="531.404" cy="484.491" r="4.94041" stroke-width="0.5" stroke="black" fill="cyan"/>
   </g>
   <g id="cell102">
  <circle cx="435.128" cy="475.453" r="8.39792" stroke-width="0.5" stroke="black" fill="green"/>
  <circle cx="435.128" cy="475.453" r="5.04702" stroke-width="0.5" stroke="black" fill="green"/>
   </g>
   <g id="cell103">
  <circle cx="591.187" cy="447.842" r="8.33081" stroke-width="0.5" stroke="black" fill="cyan"/>
  <circle cx="591.187" cy="447.842" r="5.01941" stroke-width="0.5" stroke="black" fill="cyan"/>
   </g>
   <g id="cell104">
  <circle cx="599.646" cy="556.879" r="7.80399" stroke-width="0.5" stroke="black" fill="cyan"/>
  <circle cx="599.646" cy="556.879" r="4.7406" stroke-width="0.5" stroke="black" fill="cyan"/>
   </g>
   <g id="cell106">
  <circle cx="461.132" cy="440.952" r="8.39487" stroke-width="0.5" stroke="black" fill="magenta"/>
  <circle cx="461.132" cy="440.952" r="5.04577" stroke-width="0.5" stroke="black" fill="magenta"/>
   </g>
   <g id="cell107">
  <circle cx="460.353" cy="388.198" r="5.65077" stroke-width="0.5" stroke="black" fill="green"/>
  <circle cx="460.353" cy="388.198" r="3.44926" stroke-width="0.5" stroke="black" fill="green"/>
   </g>
   <g id="cell108">
  <circle cx="554.987" cy="605.763" r="8.39203" stroke-width="0.5" stroke="black" fill="green"/>
  <circle cx="554.987" cy="605.763" r="5.0446" stroke-width="0.5" stroke="black" fill="green"/>
   </g>
   <g id="cell109">
  <circle cx="576.518" cy="589.845" r="8.37982" stroke-width="0.5" stroke="black" fill="green"/>
  <circle cx="576.518" cy="589.845" r="5.04035" stroke-width="0.5" stroke="black" fill="green"/>
   </g>
   <g id="cell110">
  <circle cx="373.086" cy="512.56" r="8.38454" stroke-width="0.5" stroke="black" fill="cyan"/>
  <circle cx="373.086" cy="512.56" r="5.04168" stroke-width="0.5" stroke="black" fill="cyan"/>
   </g>
   <g id="cell111">
  <circle cx="455.475" cy="555.255" r="8.16476" stroke-width="0.5" stroke="black" fill="magenta"/>
  <circle cx="455.475" cy="555.255" r="4.93978" stroke-width="0.5" stroke="black" fill="magenta"/>
   </g>
   <g id="cell112">
  <circle cx="496.524" cy="473.696" r="7.7773" stroke-width="0.5" stroke="black" fill="magenta"/>
  <circle cx="496.524" cy="473.696" r="4.72678" stroke-width="0.5" stroke="black" fill="magenta"/>
   </g>
   <g id="cell113">
  <circle cx="543.254" cy="391.082" r="7.91869" stroke-width="0.5" stroke="black" fill="green"/>
  <circle cx="543.254" cy="391.082" r="4.80709" stroke-width="0.5" stroke="black" fill="green"/>
   </g>
   <g id="cell114">
  <circle cx="524.242" cy="445.799" r="8.35797" stroke-width="0.5" stroke="black" fill="cyan"/>
  <circle cx="524.242" cy="445.799" r="5.03164" stroke-width="0.5" stroke="black" fill="cyan"/>
   </g>
   <g id="cell115">
  <circle cx="536.758" cy="454.591" r="8.21104" stroke-width="0.5" stroke="black" fill="cyan"/>
  <circle cx="536.758" cy="454.591" r="4.96455" stroke-width="0.5" stroke="black" fill="cyan"/>
   </g>
   <g id="cell116">
  <circle cx="521.549" cy="520.552" r="8.36659" stroke-width="0.5" stroke="black" fill="cyan"/>
  <circle cx="521.549" cy="520.552" r="5.03457" stroke-width="0.5" stroke="black" fill="cyan"/>
   </g>
   <g id="cell117">
  <circle cx="508.363" cy="622.654" r="8.35155" stroke-width="0.5" stroke="black" fill="green"/>
  <circle cx="508.363" cy="622.654" r="5.02861" stroke-width="0.5" stroke="black" fill="green"/>
   </g>
   <g id="cell118">
  <circle cx="509.401" cy="451.335" r="8.34238" stroke-width="0.5" stroke="black" fill="cyan"/>
  <circle cx="509.401" cy="451.335" r="5.02396" stroke-width="0.5" stroke="black" fill="cyan"/>
   </g>
   <g id="cell119">
  <circle cx="533.684" cy="604.352" r="8.34149" stroke-width="0.5" stroke="black" fill="green"/>
  <circle cx="533.684" cy="604.352" r="5.02371" stroke-width="0.5" stroke="black" fill="green"/>
   </g>
   <g id="cell120">
  <circle cx="576.325" cy="442.447" r="8.33081" stroke-width="0.5" stroke="black" fill="cyan"/>
  <circle cx="576.325" cy="442.447" r="5.01941" stroke-width="0.5" stroke="black" fill="cyan"/>
   </g>
   <g id="cell121">
  <circle cx="451.438" cy="369.252" r="8.23771" stroke-width="0.5" stroke="black" fill="green"/>
  <circle cx="451.438" cy="369.252" r="4.97851" stroke-width="0.5" stroke="black" fill="green"/>
   </g>
   <g id="cell122">
  <circle cx="506.204" cy="521.99" r="8.33273" stroke-width="0.5" stroke="black" fill="magenta"/>
  <circle cx="506.204" cy="521.99" r="5.01983" stroke-width="0.5" stroke="black" fill="magenta"/>
   </g>
   <g id="cell123">
  <circle cx="497.079" cy="509.094" r="8.31576" stroke-width="0.5" stroke="black" fill="green"/>
  <circle cx="497.079" cy="509.094" r="5.0124" stroke-width="0.5" stroke="black" fill="green"/>
   </g>
   <g id="cell124">
  <circle cx="490.379" cy="434.065" r="8.31946" stroke-width="0.5" stroke="black" fill="magenta"/>
  <circle cx="490.379" cy="434.065" r="5.0136" stroke-width="0.5" stroke="black" fill="magenta"/>
   </g>
   <g id="cell125">
  <circle cx="621.573" cy="477.471" r="8.29691" stroke-width="0.5" stroke="black" fill="green"/>
  <circle cx="621.573" cy="477.471" r="5.00346" stroke-width="0.5" stroke="black" fill="green"/>
   </g>
   <g id="cell126">
  <circle cx="628.903" cy="566.541" r="8.29536" stroke-width="0.5" stroke="black" fill="green"/>
  <circle cx="628.903" cy="566.541" r="5.00243" stroke-width="0.5" stroke="black" fill="green"/>
   </g>
   <g id="cell127">
  <circle cx="438.151" cy="361.32" r="8.23771" stroke-width="0.5" stroke="black" fill="green"/>
  <circle cx="438.151" cy="361.32" r="4.97851" stroke-width="0.5" stroke="black" fill="green"/>
   </g>
   <g id="cell128">
  <circle cx="372.252" cy="467.662" r="8.26685" stroke-width="0.5" stroke="black" fill="magenta"/>
  <circle cx="372.252" cy="467.662" r="4.98849" stroke-width="0.5" stroke="black" fill="magenta"/>
   </g>
   <g id="cell129">
  <circle cx="570.117" cy="543.946" r="8.25146" stroke-width="0.5" stroke="black" fill="cyan"/>
  <circle cx="570.117" cy="543.946" r="4.98141" stroke-width="0.5" stroke="black" fill="cyan"/>
   </g>
   <g id="cell130">
  <circle cx="540.722" cy="439.058" r="8.21104" stroke-width="0.5" stroke="black" fill="cyan"/>
  <circle cx="540.722" cy="439.058" r="4.96455" stroke-width="0.5" stroke="black" fill="cyan"/>
   </g>
   <g id="cell131">
  <circle cx="537.306" cy="519.215" r="8.19061" stroke-width="0.5" stroke="black" fill="cyan"/>
  <circle cx="537.306" cy="519.215" r="4.95119" stroke-width="0.5" stroke="black" fill="cyan"/>
   </g>
   <g id="cell132">
  <circle cx="443.89" cy="546.294" r="8.16476" stroke-width="0.5" stroke="black" fill="magenta"/>
  <circle cx="443.89" cy="546.294" r="4.93978" stroke-width="0.5" stroke="black" fill="magenta"/>
   </g>
   <g id="cell133">
  <circle cx="573.512" cy="466.015" r="8.17914" stroke-width="0.5" stroke="black" fill="cyan"/>
  <circle cx="573.512" cy="466.015" r="4.94506" stroke-width="0.5" stroke="black" fill="cyan"/>
   </g>
   <g id="cell134">
  <circle cx="534.69" cy="470.034" r="8.16889" stroke-width="0.5" stroke="black" fill="cyan"/>
  <circle cx="534.69" cy="470.034" r="4.94041" stroke-width="0.5" stroke="black" fill="black"/>
   </g>
   <g id="cell135">
  <circle cx="517.091" cy="583.127" r="8.14594" stroke-width="0.5" stroke="black" fill="magenta"/>
  <circle cx="517.091" cy="583.127" r="4.92726" stroke-width="0.5" stroke="black" fill="magenta"/>
   </g>
   <g id="cell136">
  <circle cx="472.19" cy="545.649" r="8.10114" stroke-width="0.5" stroke="black" fill="green"/>
  <circle cx="472.19" cy="545.649" r="4.90437" stroke-width="0.5" stroke="black" fill="green"/>
   </g>
   <g id="cell137">
  <circle cx="492.695" cy="611.979" r="8.01272" stroke-width="0.5" stroke="black" fill="green"/>
  <circle cx="492.695" cy="611.979" r="4.86123" stroke-width="0.5" stroke="black" fill="green"/>
   </g>
   <g id="cell138">
  <circle cx="500.198" cy="409.431" r="8.04604" stroke-width="0.5" stroke="black" fill="green"/>
  <circle cx="500.198" cy="409.431" r="4.87399" stroke-width="0.5" stroke="black" fill="green"/>
   </g>
   <g id="cell139">
  <circle cx="421.513" cy="404.733" r="7.98892" stroke-width="0.5" stroke="black" fill="magenta"/>
  <circle cx="421.513" cy="404.733" r="4.84272" stroke-width="0.5" stroke="black" fill="magenta"/>
   </g>
   <g id="cell140">
  <circle cx="524.021" cy="570.827" r="7.56459" stroke-width="0.5" stroke="black" fill="magenta"/>
  <circle cx="524.021" cy="570.827" r="4.62055" stroke-width="0.5" stroke="black" fill="magenta"/>
   </g>
   <g id="cell141">
  <circle cx="565.427" cy="453.081" r="7.84807" stroke-width="0.5" stroke="black" fill="cyan"/>
  <circle cx="565.427" cy="453.081" r="4.77693" stroke-width="0.5" stroke="black" fill="cyan"/>
   </g>
   <g id="cell142">
  <circle cx="551.263" cy="427.573" r="6.62204" stroke-width="0.5" stroke="black" fill="green"/>
  <circle cx="551.263" cy="427.573" r="4.07362" stroke-width="0.5" stroke="black" fill="green"/>
   </g>
   <g id="cell143">
  <circle cx="435.281" cy="408.466" r="7.70382" stroke-width="0.5" stroke="black" fill="magenta"/>
  <circle cx="435.281" cy="408.466" r="4.6988" stroke-width="0.5" stroke="black" fill="magenta"/>
   </g>
   <g id="cell144">
  <circle cx="546.947" cy="408.056" r="6.54807" stroke-width="0.5" stroke="black" fill="green"/>
  <circle cx="546.947" cy="408.056" r="4.02712" stroke-width="0.5" stroke="black" fill="green"/>
   </g>
   <g id="cell146">
  <circle cx="588.848" cy="548.776" r="1.78439" stroke-width="0.5" stroke="black" fill="cyan"/>
  <circle cx="588.848" cy="548.776" r="1.66482" stroke-width="0.5" stroke="black" fill="black"/>
   </g>
   <g id="cell147">
  <circle cx="517.61" cy="559.408" r="7.56459" stroke-width="0.5" stroke="black" fill="magenta"/>
  <circle cx="517.61" cy="559.408" r="4.62055" stroke-width="0.5" stroke="black" fill="magenta"/>
   </g>
   <g id="cell148">
  <circle cx="508.197" cy="466.174" r="7.7773" stroke-width="0.5" stroke="black" fill="magenta"/>
  <circle cx="508.197" cy="466.174" r="4.72678" stroke-width="0.5" stroke="black" fill="magenta"/>
   </g>
   <g id="cell149">
  <circle cx="576.714" cy="398.136" r="7.61469" stroke-width="0.5" stroke="black" fill="magenta"/>
  <circle cx="576.714" cy="398.136" r="4.62762" stroke-width="0.5" stroke="black" fill="magenta"/>
   </g>
   <g id="cell150">
  <circle cx="400.264" cy="579.678" r="7.51976" stroke-width="0.5" stroke="black" fill="green"/>
  <circle cx="400.264" cy="579.678" r="4.57072" stroke-width="0.5" stroke="black" fill="green"/>
   </g>
   <g id="cell151">
  <circle cx="421.331" cy="530.519" r="7.41548" stroke-width="0.5" stroke="black" fill="green"/>
  <circle cx="421.331" cy="530.519" r="4.50723" stroke-width="0.5" stroke="black" fill="green"/>
   </g>
   <g id="cell152">
  <circle cx="377.177" cy="576.744" r="6.79387" stroke-width="0.5" stroke="black" fill="green"/>
  <circle cx="377.177" cy="576.744" r="4.16872" stroke-width="0.5" stroke="black" fill="green"/>
   </g>
   <g id="cell153">
  <circle cx="560.379" cy="472.116" r="7.30216" stroke-width="0.5" stroke="black" fill="cyan"/>
  <circle cx="560.379" cy="472.116" r="4.43696" stroke-width="0.5" stroke="black" fill="cyan"/>
   </g>
   <g id="cell154">
  <circle cx="388.132" cy="594.404" r="6.24652" stroke-width="0.5" stroke="black" fill="green"/>
  <circle cx="388.132" cy="594.404" r="3.85952" stroke-width="0.5" stroke="black" fill="green"/>
   </g>
   <g id="cell155">
  <circle cx="484.604" cy="580.495" r="7.24243" stroke-width="0.5" stroke="black" fill="green"/>
  <circle cx="484.604" cy="580.495" r="4.39934" stroke-width="0.5" stroke="black" fill="green"/>
   </g>
   <g id="cell156">
  <circle cx="456.287" cy="526.422" r="7.23917" stroke-width="0.5" stroke="black" fill="magenta"/>
  <circle cx="456.287" cy="526.422" r="4.39831" stroke-width="0.5" stroke="black" fill="magenta"/>
   </g>
   <g id="cell157">
  <circle cx="441.716" cy="524.091" r="6.36171" stroke-width="0.5" stroke="black" fill="magenta"/>
  <circle cx="441.716" cy="524.091" r="3.90411" stroke-width="0.5" stroke="black" fill="magenta"/>
   </g>
   <g id="cell158">
  <circle cx="556.295" cy="416.131" r="6.62204" stroke-width="0.5" stroke="black" fill="green"/>
  <circle cx="556.295" cy="416.131" r="4.07362" stroke-width="0.5" stroke="black" fill="green"/>
   </g>
   <g id="cell159">
  <circle cx="535.966" cy="402.649" r="6.54807" stroke-width="0.5" stroke="black" fill="green"/>
  <circle cx="535.966" cy="402.649" r="4.02712" stroke-width="0.5" stroke="black" fill="green"/>
   </g>
   <g id="cell160">
  <circle cx="463.633" cy="376.879" r="6.92742" stroke-width="0.5" stroke="black" fill="green"/>
  <circle cx="463.633" cy="376.879" r="4.20953" stroke-width="0.5" stroke="black" fill="green"/>
   </g>
   <g id="cell161">
  <circle cx="451.942" cy="382.143" r="5.65077" stroke-width="0.5" stroke="black" fill="green"/>
  <circle cx="451.942" cy="382.143" r="3.44926" stroke-width="0.5" stroke="black" fill="green"/>
   </g>
   <g id="cell162">
  <circle cx="374.643" cy="536.442" r="6.73287" stroke-width="0.5" stroke="black" fill="magenta"/>
  <circle cx="374.643" cy="536.442" r="4.05039" stroke-width="0.5" stroke="black" fill="magenta"/>
   </g>
   <g id="cell163">
  <circle cx="533.249" cy="579.438" r="6.73119" stroke-width="0.5" stroke="black" fill="green"/>
  <circle cx="533.249" cy="579.438" r="4.04994" stroke-width="0.5" stroke="black" fill="green"/>
   </g>
  </g>
 </g>
  <rect x="775" y="1035" width="200" height="10" stroke-width="2" stroke="rgb(255,255,255)" fill="rgb(0,0,0)"/>
  <text x="781.25" y="1028.75"
   font-family="Arial" font-size="25" fill="black" >
   200 &#956;m
  </text>
  <text x="25" y="1045"
   font-family="Arial" font-size="18.75" fill="black" >
   0 days, 0 hours, 0 minutes, and 31.8171 seconds
  </text>
  <rect x="0" y="70" width="1000" height="1000" stroke-width="2" stroke="rgb(0,0,0)" fill="none"/>
</svg>
